<svg xmlns="http://www.w3.org/2000/svg" viewBox="0 0 1024 1024"><path fill="#a2a6aa" d="m434.56 150.69 33.408 23.407-46.771 33.46c4.352 32.366 52.284 8.37 63.462-10.113 5.078-8.388 2.543-21.265 13.782-26.615 31.283 8.021 64.742 17.229 39.594 53.265-10.12 14.498-45.986 31.83-23.228 53.649-30.148 16.026-48.35 34.628-73.557 53.495-14.805 11.077-31.12 20.122-46.814 33.434-21.674 18.39-43.827 36.548-60.185 60.186-18.85 16.904-43.947 51.285-53.496 73.557-19.789 1.775-35.712 51.302-40.124 53.495-28.202 14.03-51.933 57.361-73.557 86.938-25.293 34.594-32.281 35.524-46.814 80.247a1544 1544 0 0 0-20.062 66.876l-13.371 6.69c-14.362-24.064-29.346-39.893-43.179-60.467-21.87-32.537-49.775-66.807-42.445-108.791 7.339-42.07 68.48-121.737 95.94-158.132 95.642-126.78 193.443-242.466 337.426-314.58z"/><path fill="#fca47e" d="M1023.036 418.185c1.527 18.107 1.015 41.796 0 60.185l-5.957 4.053-.733 22.7c-3.9 14.164-8.568 26.461-13.372 40.123-19.012 12.296-11.99 5.862-13.201-10.18-2.381-31.471-16.41-48.333-33.34-73.677l-47.078-29.816c37.017 50.33 71.424 108.561 66.875 173.85-26.487 47.215-44.535 71.083-80.247 107-21.7 2.841-12.322-7.62-10.095-20.122 10.487-58.718 8.866-96.93-4.352-156.015l-32.35-57.907c-1.963 30.31 16.615 62.02 19.883 90.427 4.796 41.652-2.475 134.964-21.146 172.468-6.255 12.56-20.173 18.252-25.506 31.334-19.831 13.747-39.16 28.1-60.186 40.124-13.064-1.238-23.355 5.939-36.505 6.98-56.866 4.506-125.32-3.166-177.75-23.441-18.201-7.04-72.09-43.128-86.673-37.035 28.647-13.918 62.703-37.325 86.938-60.185-1.331 13.772-1.4 18.287 10.872 25.907 44.322 27.528 124.91 30.652 169.642 4.139 6.34-3.755 10.718-12.1 16.649-16.99 5.128-4.224 12.74-5.044 15.454-7.749 2.918-2.918 23.193-33.732 25.036-38.485 10.3-26.581 25.814-96.341 13.295-120.798-1.758-3.439-15.257-15.223-16.879-13.2.828 37.435 1.963 71.33-9.787 107.246-10.104 30.874-26.087 56.619-54.588 72.474-26.06 14.49-63.317 17.962-92.672 14.097-15.283-2.006-72.482-31.079-77.013-26.641 30.703-28.962 44.518-62.848 40.123-107 2.91 6.161 7.177 13.705 10.3 20.335 35.951.751 63.292 4.446 86.477-27.204 20.727-28.297 10.752-59.947 43.656-80.06 46.737-28.578 95.343-64.631 144.803-92.595 52.48-29.679 105.053-49.528 149.444 5.666z"/><path fill="#f07f53" d="M568.303 565.3c16.102 3.105 15.94 18.022 20.062 26.751 4.394 44.143-9.421 78.038-40.124 107-24.226 22.852-58.283 46.267-86.938 60.185-20.659 10.035-73.37 33.92-93.619 40.124-33.22 10.18-80.665 12.442-115.635 21.453-17.015 4.386-66.432 22.084-77.099 33.203-7.68 7.996-3.55 35.03-21.256 38.963-28.314-33.613-45.415-64.333-66.876-100.31l13.372-6.69c19.968 22.947 25.31 41.66 60.535 30.422 55.023-17.553 86.673-78.856 126.712-117.35l4.25-5.7c11.204 3.148 19.507-6.665 22.493-7.672 44.706-15.121 83.15-23.74 122.778-53.35 5.896-4.404 3.627-9.814 5.683-11.794 3.541-3.421 10.598-3.217 15.317-8.26 4.08-4.36 7.211-14.054 10.019-20.215 2.346-5.146 8.09-3.943 6.69-20.062 25.6-6.434 68.019-11.631 93.619-6.69z"/><path fill="#666d6f" d="m962.85 271.061-6.69 6.69c-11.503-10.598-25.37-14.592-33.434-20.061-17.527-11.879-29.687-24.9-53.495-33.434-42.667-15.292-95.19-16.299-140.433-13.372-50.372 3.251-83.03 18.074-127.061 33.434-24.013 8.371-49.57 15.172-73.558 26.752-4.488 2.167-8.968 4.343-13.372 6.69-22.758-21.82 13.108-39.15 23.228-53.65 25.148-36.035-8.32-45.243-39.594-53.264-11.23 5.35-8.704 18.227-13.782 26.615-11.178 18.484-59.11 42.48-63.462 10.112l46.771-33.459-33.408-23.407C642.253 46.686 837.257 61.62 962.85 271.078z"/><path fill="#fda882" d="M367.684 799.351c.674 4.216-1.007 9.788 0 13.372l-20.027 3.303c4.317 16.623 19.14 18.884 25.233 25.241 2.252 2.355 15.027 22.127 16.315 23.16 15.633 12.518 43.128 26.837 62.03 35.26l-9.985 13.337c-75.69 12.39-159.906 30.592-237.389 20.053-23.62-3.217-36.377-23.748-50.167-40.115C171.4 889.02 167.27 861.995 174.95 854c10.676-11.11 60.084-28.809 77.1-33.203 34.96-9.02 82.414-11.273 115.634-21.453z"/><path fill="#fca680" d="M461.303 759.236c-3.908 11.017-9.634 6.119-.085 16.785 17.34 19.362 64.085 30.814 86.92 46.84l127.156 29.994c-44.988 17.98-79.83 28.809-127.061 40.124-28.442-.426-55.544 3.772-82.21-8.064-23.902-10.607-91.418-47.496-98.347-72.183-1.007-3.593.674-9.157 0-13.372 20.25-6.204 72.96-30.089 93.619-40.124z"/><path fill="#fbd0c1" d="M956.16 277.751c5.274 4.856 8.644 18.296 20.062 20.062 20.36 38.87 43.008 75.307 46.814 120.372-44.382-55.194-96.956-35.346-149.445-5.667-49.459 27.964-98.065 64.026-144.802 92.596 7.433-9.532 11.188-20.148-6.903-10.257-18.065 9.881-74.581.793-100.096 3.566 5.572-11.588 25.83-6.596 36.804-6.664 63.949-.427 54.741-5.205 103.936-36.497 15.258-9.703 29.073-20.028 44.066-29.5 23.527-14.856 109.107-57.54 115.303-78.626l.819-89.455c8.064 5.47 21.93 9.464 33.433 20.062z"/><path fill="#fccdb9" d="M762.231 812.732c-31.65 18.099-54.033 26.974-86.937 40.123l-127.155-29.994c-22.836-16.026-69.581-27.478-86.92-46.84-9.558-10.666-3.832-5.768.084-16.785 14.584-6.084 68.472 29.995 86.674 37.035 52.42 20.275 120.874 27.947 177.749 23.441 13.15-1.041 23.44-8.218 36.505-6.98"/><path fill="#fcc6af" d="M822.417 772.608c5.333-13.09 19.251-18.773 25.506-31.334 18.671-37.504 25.942-130.816 21.146-172.468-3.268-28.407-21.854-60.117-19.883-90.427l32.35 57.907c13.218 59.093 14.84 97.305 4.352 156.015-2.236 12.501-11.605 22.963 10.095 20.121-28.894 29.056-41.609 38.042-73.557 60.186z"/><path fill="#fbc1aa" d="M367.684 812.732c6.93 24.687 74.445 61.576 98.347 72.183 26.667 11.836 53.768 7.638 82.21 8.064-34.696 8.312-69.53 13.927-107 20.062l9.985-13.338c-18.902-8.43-46.405-22.74-62.03-35.26-1.28-1.023-14.062-20.804-16.315-23.159-6.084-6.357-20.915-8.618-25.233-25.241l20.028-3.303z"/><path fill="#fbbea5" d="M976.222 605.423c4.557-65.289-29.858-123.52-66.876-173.85l47.079 29.816c16.938 25.352 30.967 42.206 33.34 73.677 1.211 16.042-5.812 22.476 13.2 10.18-10.274 29.227-11.81 33.553-26.752 60.185z"/><path fill="#9e8f89" d="M976.222 297.813c-11.418-1.766-14.788-15.206-20.062-20.062l6.69-6.69c6.776 11.307 8.585 17.605 13.372 26.752"/><path fill="#fbd0c1" d="m1016.346 505.114.733-22.7 5.957-4.052c-.947 17.109-4.42 18.508-6.69 26.752"/><path fill="#fca680" d="M728.798 210.876c12.945 11.016 32.077 13.21 46.635 23.586 6.92 4.924 34.5 26.888 38.92 31.3 6.827 6.818 27.955 41.737 31.701 51.883 5.743 15.573 9.55 36.95 9.814 53.726 11.29 1.74 6.997-15.88 6.715-23.441-.708-18.97-3.31-38.972-9.838-57.037-7.791-21.564-28.382-36.267-16.82-59.776l33.297-6.861c23.817 8.533 35.968 21.555 53.496 33.434l-.82 89.455c-6.195 21.094-91.775 63.778-115.302 78.626-14.993 9.463-28.808 19.797-44.066 29.5-49.195 31.283-39.996 36.07-103.936 36.496-10.974.077-31.223-4.923-36.804 6.665-22.22 2.423-56.79 42.266-53.496 66.876-25.6-4.95-68.019.247-93.619 6.69-.913-10.539-7.262-19.234-7.245-30.114.009-9.925 6.255-46.857 8.542-58.863 4.207-22.025 27.41-61.764 45.688-74.684 63.24-44.68 130.577-18.645 193.74 9.856l-7.458-25.984c-17.288 2.074-25.907-13.372-38.971-17.843-56.013-19.157-126.695-12.194-172.8 25.549-1.878 1.536-.709 7.552-3.124 9.907-2.466 2.406-8.302 1.246-9.915 3.115-11.008 12.808-26.351 38.937-28.416 55.517-1.579 12.69-4.497 99.738-.111 103.544-18.936 12.902-40.892 21.163-60.186 33.433-22.23.692-19.43 4.54-20.062-16.622-2.03-67.798 13.474-161.63 45.364-222.226 7.048-13.397 21.836-19.456 21.504-35.336 25.216-18.867 43.409-37.47 73.557-53.496 4.403-2.338 8.883-4.522 13.372-6.69 5.572 11.589 25.83 6.597 36.795 6.665 111.31.725 124.98 24.593 200.602 93.636 5.384 4.924 11.511 15.667 20.036 13.372 9.25-2.5 10.189-8.14 3.37-16.708-12.219-15.352-51.856-55.902-67.046-66.705-12.373-8.798-50.116-29.022-64.7-35.61-17.023-7.689-41.377-8.286-55.5-21.402 44.032-15.36 76.689-30.182 127.061-33.433z"/><path fill="#fca37e" d="m240.631 551.927 1.494 42.198 18.39 94.148 26.922 10.77c-40.03 38.502-71.68 99.796-126.712 117.35-35.225 11.238-40.567-7.476-60.535-30.422a1544 1544 0 0 1 20.062-66.876l33.45-50.133 13.364-30.114c21.623-29.568 45.354-72.9 73.557-86.938z"/><path fill="#fca681" d="M387.746 391.433c-19.763 53.632-37.785 117.836-33.732 177.501 1.22 17.98 11.708 36.122 6.98 56.55-4.676 3.56-20.104 20.302-26.752 26.753l-40.124 30.105c-4.224 6.545-11.366-3.695-12.629-7.45-17.092-50.866-21.794-127.385-.75-176.469 9.556-22.28 34.644-56.66 53.495-73.557.64-.572 8.192 1.092 13.277-3.174 12.928-10.838 22.46-30.379 40.218-30.26z"/><path fill="#fcc8b5" d="M441.242 331.247c.324 15.88-14.456 21.93-21.504 35.336-31.89 60.596-47.395 154.428-45.364 222.226.632 21.154-2.176 17.314 20.062 16.622-10.624 6.759-25.549 14.063-33.433 20.062 4.727-20.428-5.76-38.57-6.98-56.55-4.054-59.665 13.96-123.87 33.732-177.502 2.816-7.637 4.702-18.458 6.69-26.752 15.693-13.312 32.008-22.357 46.814-33.434z"/><path fill="#fac2ad" d="M334.25 652.237c-1.16 1.126-2.687 5.794-6.792 9.916-4.616 4.633-16.136 3.908-19.908 20.198l6.639 3.32c-2.987 1.015-11.298 10.82-22.494 7.67l-4.25 5.701-26.922-10.769-18.39-94.148-1.493-42.198c4.412-2.193 20.335-51.729 40.124-53.495-21.052 49.084-16.35 125.594.75 176.47 1.264 3.754 8.406 13.994 12.63 7.449l40.124-30.106z"/><path fill="#e0aa98" d="M387.746 391.433c-17.758-.12-27.29 19.43-40.217 30.259-5.095 4.266-12.647 2.602-13.278 3.174 16.358-23.637 38.51-41.796 60.185-60.185-1.98 8.285-3.874 19.106-6.69 26.752"/><path fill="#cea393" d="M120.26 719.113c14.533-44.724 21.513-45.654 46.814-80.248l-13.363 30.114z"/><path fill="#fcdacf" d="M621.798 498.432c25.515-2.782 82.031 6.306 100.096-3.567 18.091-9.89 14.336.725 6.904 10.257-32.905 20.113-22.92 51.763-43.657 80.06-23.185 31.65-50.526 27.964-86.476 27.204-3.124-6.63-7.39-14.174-10.3-20.335-4.122-8.72-3.96-23.637-20.062-26.752-3.285-24.601 31.275-64.452 53.495-66.876z"/><path fill="#fdc3ad" d="M548.241 699.05c4.531-4.437 61.73 24.628 77.013 26.642 29.355 3.857 66.62.392 92.672-14.097 28.51-15.855 44.485-41.592 54.588-72.474 11.75-35.925 10.616-69.811 9.788-107.247 1.621-2.03 15.112 9.754 16.879 13.201 12.518 24.457-2.995 94.217-13.295 120.798-1.843 4.753-22.119 35.567-25.037 38.485-2.714 2.714-10.317 3.525-15.454 7.749-5.93 4.89-10.317 13.235-16.648 16.99-44.732 26.513-125.32 23.39-169.643-4.14-12.27-7.62-12.203-12.134-10.871-25.906z"/><path fill="#fcc2ab" d="M454.622 571.99c-4.386-3.807-1.468-90.855.11-103.544 2.066-16.589 17.409-42.718 28.417-55.518 1.613-1.877 7.45-.717 9.916-3.115 2.414-2.355 1.237-8.37 3.123-9.907 46.105-37.743 116.778-44.715 172.8-25.549 13.064 4.472 21.683 19.917 38.971 17.844l7.459 25.984c-63.164-28.502-130.5-54.537-193.741-9.856-18.279 12.91-41.48 52.65-45.688 74.683-2.295 12.007-8.533 48.939-8.542 58.863-.008 10.88 6.332 19.584 7.245 30.114 1.4 16.12-4.343 14.917-6.69 20.062l-.896-19.456-12.476-.606z"/><path fill="#faf9f6" d="m454.622 571.99 12.476.605.896 19.456c-2.808 6.161-5.94 15.855-10.019 20.216-4.718 5.043-11.776 4.838-15.317 8.26-2.056 1.988.213 7.39-5.683 11.793-39.637 29.61-78.08 38.23-122.778 53.35l-6.639-3.32c3.78-16.298 15.3-15.564 19.909-20.197 4.104-4.122 5.632-8.79 6.792-9.916 6.648-6.443 22.076-23.194 26.752-26.752 7.885-6 22.81-13.304 33.434-20.062 19.294-12.271 41.25-20.54 60.185-33.434z"/><path fill="#fdc2ac" d="M601.737 244.318c14.122 13.124 38.468 13.721 55.5 21.401 14.584 6.588 52.327 26.812 64.7 35.61 15.19 10.803 54.827 51.345 67.046 66.705 6.827 8.576 5.88 14.217-3.37 16.708-8.525 2.304-14.652-8.448-20.036-13.371-75.623-69.044-89.293-92.911-200.602-93.637-10.974-.068-31.224 4.924-36.796-6.664 23.996-11.58 49.553-18.372 73.558-26.752"/><path fill="#fab99f" d="m869.23 224.256-33.296 6.86c-11.563 23.51 9.028 38.213 16.82 59.777 6.527 18.065 9.121 38.076 9.838 57.037.282 7.552 4.574 25.173-6.716 23.44-.264-16.776-4.07-38.152-9.813-53.725-3.746-10.155-24.875-45.065-31.701-51.883-4.42-4.412-32-26.368-38.92-31.3-14.559-10.368-33.69-12.57-46.636-23.586 45.244-2.927 97.767-1.92 140.433 13.371z"/></svg>