<svg xmlns="http://www.w3.org/2000/svg" viewBox="0 0 1024 1024"><path fill="#fdf7f1" d="m995.618 278.23 6.468 7.944-3.66 36.65c-1.955 19.508-4.745 33.784.793 50.134l-3.729.153c-32.392-23.193-33.843-2.227-72.55-22.092-67.542-34.663-124.177-28.937-200.44-18.586l-132.3 17.971-85.189 7.578c-23.398 2.082-48.845 10.667-68.104 23.031l-66.074 42.42c-26.71 17.143-99.157 38.869-132.736 40.738-89.643 4.992-124.058-28.715-186.052-2.594l-32.52 13.696 8.388-12.544c6.587-9.848-10.24-12.894-16.453-43.64l39.936-13.79c16.137-5.572 37.06-11.853 54.247-12.1l101.512-1.468c33.118-.478 89.472-15.522 120.516-29.491l28.16-12.663c23.501-10.573 47.01-23.228 71.672-31.429 34.483-11.477 71.16-20.292 107.281-25.224l114.748-15.65 36.761-4.813 36.08-3.789 77.09-6.042c11.938-.938 25.437-1.501 37.316.009l45.909 5.862c23.27 2.97 64.589 16.495 84.907 25.506l27.912 12.374.12-28.152z"/><path fill="#f78d8a" d="m995.49 373.12.401 36.19-41.002-4.25-45.978-4.787c-29.158-3.038-52.77-39.006-94.669-35.712l-55.142 4.335c-10.658.836-21.462 2.637-32.137 4.335-75.324 11.98-187.059 35.26-244.369 85.163-39.8 34.662-82.5 59.972-135.22 70.442-26.435 1.041-53.605 1.23-79.632-1.613l-61.099-6.656-50.978 6.895c-27.844 3.764-56.559 2.33-85.905 1.767-43.998-.836-44.834 15.48-57.267 5.76-1.016-12.809-1.596-37.248-1.52-51.286l8.568-8.43 32.52-13.696c61.996-26.121 96.41 7.586 186.053 2.594 33.579-1.87 106.027-23.586 132.736-40.738l66.074-42.42c19.268-12.364 44.706-20.949 68.104-23.031l85.189-7.578 132.3-17.97c76.263-10.36 132.89-16.086 200.44 18.585 38.707 19.865 40.158-1.101 72.55 22.092z"/><path fill="#fdf8f1" d="M12.493 534.989c.213 2.756 1.894 7.381 3.072 11.588l4.25 15.224c.69 2.474 4.13 6.818 5.836 8.678 19.166 20.855 68.284 66.355 100.429 51.226 21.726-10.223 41.054-17.391 62.02-20.182l15.821 4.438c3.234.904 7.774 8.772 7.672 12.228-.359 12.083-28.604 15.701-17.87 26.547 3.03 3.055 8.944 6.007 13.509 7.757 39.356 15.087 80.401 25.924 124.416 29.824 9.028.802 92.69 6.758 89.958-1.903 53.897-3.823 96.888-14.25 132.207-59.768l22.025-28.381c19.243-24.798 46.02-39.296 73.182-49.502 5.333-.76 12.51-1.989 19.208-3.584l24.824-5.94c17.467 21.692-14.089 15.215-11.64 32.59-5.99 6.809 4.07 29.84 12.621 33.074 15.48 5.854 28.843 9.643 41.694 12.877 36.096 9.071 92.356 21.675 114.03 58.735l-.605 13.124-36.497 3.704c-25.839 2.628-54.315 2.696-80.316-.632l-31.36-4.019c-11.887-1.519-23.074-2.5-33.706-2.978-21.65-.06-44.928.41-68.182 3.652l-31.684 4.42-28.245 4.259-31.924 4.83c-28.134 4.25-55.21 9.105-81.493 11.52-42.163 3.882-106.394 6.639-149.734-3.03l-66.373-14.796c-14.967-3.337-31.53-8.389-46.66-13.082L116.95 663.21c-16.674-5.172-33.553-13.713-49.758-21.538-31.453-15.198-36.326-26.292-58.93-52.096-.974 5.896-2.45 15.633-2.612 21.922L.01 606.71l3.046-61.422 3.149-53.82 4.778-7.766c-.076 14.038.512 38.477 1.52 51.286z"/><path fill="#fdf4ed" d="m995.49 373.12 3.73-.154c4.146 12.254-.18 32.965-.24 46.865-.034 7.168 5.735 21.197 7.928 28.971l7.227 25.668c-60.723-37.248-67.797-17.749-132.488-44.723-50.901-21.222-83.217-38.093-145.178-24.098l-105.386 23.8c-21.189 4.787-67.243 18.176-70.161 41.207-2.569 20.25-9.26 39.125-29.142 45.918L466.978 538.7c-17.698 6.041-36.104 15.112-50.918 25.958l-26.24 19.234c-24.252-6.374-5.376-22.86-28.519-22.775l-17.561.06c-41.77.145-81.502-.837-123.128-4.37-26.274-2.227-51.558-3.208-77.653-3.063l-82.347.47c-12.117.068-23.202.802-35.49 1.57l.546 14.702c-1.706-1.86-5.145-6.203-5.837-8.678l-4.25-15.223c-1.177-4.207-2.858-8.84-3.071-11.589 12.441 9.72 13.27-6.596 57.267-5.76 29.338.555 58.06 1.997 85.905-1.766l50.978-6.895 61.099 6.656c26.027 2.833 53.197 2.645 79.633 1.613 52.719-10.47 95.42-35.78 135.22-70.443 57.3-49.903 169.045-73.19 244.368-85.163 10.675-1.698 21.487-3.498 32.137-4.334l55.142-4.335c41.899-3.294 65.51 32.674 94.669 35.712l45.978 4.787 41.002 4.25-.4-36.19z"/><path fill="#fceadd" d="m995.618 278.23-.12 28.15-27.912-12.373c-20.318-9.01-61.636-22.536-84.907-25.506l-45.909-5.862c-11.878-1.519-25.378-.947-37.316-.009l-77.09 6.042-36.08 3.789-36.76 4.813-114.749 15.65c-36.121 4.923-72.797 13.747-107.28 25.224-24.653 8.2-48.171 20.856-71.672 31.429l-28.16 12.663c-31.044 13.97-87.398 29.013-120.516 29.491L105.634 393.2c-17.195.247-38.118 6.528-54.246 12.1l-39.936 13.79c-1.57-7.774.734-21.572 2.867-31.454 138.12-66.32 134.613 4.89 319.735-73.113l61.654-25.984c43.554-18.356 109.542-31.48 157.286-36.54l41.472-4.395 41.31-4.31 41.822-4.274 43.076-3.397 56.619-4.326c52.028-3.977 109.15-.205 157.875 16.905l26.59 9.335c13.26 4.66 26.7 11.06 33.843 20.702z"/><path fill="#fdebdd" d="m425.745 708.403-8.32 8.312-.589 71.5 28.032 1.161-4.488 4.77-27.913-.11-92.032-.94c-3.925-.042-65.869-8.695-74.206-10.564-68.898-15.47-146.892-33.348-204.766-74.342-29.84-21.137-36.659-65.485-35.831-96.683.17-6.289 1.638-16.034 2.611-21.922 22.605 25.805 27.478 36.898 58.931 52.096 16.205 7.834 33.084 16.367 49.758 21.538l46.03 14.276c15.129 4.694 31.692 9.737 46.66 13.082l66.372 14.797c43.34 9.668 107.57 6.903 149.734 3.03z"/><path fill="#f98986" d="M836.574 502.46c6.8 1.527 19.413 4.403 26.615 4.181l47.121-1.46c27.085-.835 91.375 6.682 113.033 19.9l.264 67.755-3.703 6.238c-6.596 23.407-45.022 51.345-64.623 57.301-14.14 8.542-35.908-24.985-43.247-37.58-7.705-13.218-9.941-25.498-52.181-23.774-10.42.426-23.04 1.74-32.128 3.584l-64.896 13.141c-6.392 1.297-21 .094-27.11.051-12.86-3.234-26.224-7.023-41.694-12.876-8.55-3.235-18.612-26.258-12.621-33.076 7.833-8.908 21.709-16.315 33.459-21.555 57.165-25.497 63.258-45.235 98.287-43.187l23.415 1.365z"/><path fill="#fbd5c3" d="M667.273 679.731c2.62 10.573 29.465-.11 29.9 7.894l1.152 21.495 1.076 34.45c.136 4.308-9.54 13.559-13.688 13.576l-67.507.298c-2.594.009-10.667 4.506-9.993 4.967l-68.471 12.544-67.797 11.315c-8.764 1.46-20.037 3.396-27.068 3.106l-28.032-1.16.589-71.501 8.32-8.312c26.282-2.423 53.359-7.27 81.493-11.52l31.923-4.83 28.245-4.258 31.685-4.42c23.262-3.243 46.54-3.712 68.181-3.652z"/><path fill="#fddcce" d="m854.767 675.251.572 89.114 18.082 2.27c-.41.64-7.33 3.882-9.788 4.079l-36.847 2.91c-20.642 1.63-42.76 2.636-62.9.708l-41.676-3.994c-11.332-1.084-28.749-7.646-40.047-7.68l-73.95-.247c-.674-.461 7.399-4.958 9.993-4.967l67.507-.298c4.147-.017 13.824-9.276 13.688-13.577l-1.076-34.449-1.152-21.495c-.426-7.996-27.28 2.679-29.9-7.894 10.632.478 21.828 1.45 33.706 2.978l31.36 4.02c26.001 3.328 54.468 3.26 80.316.631l36.497-3.703.606-13.125c1.587.845 4.992 2.8 5.009 4.728z"/><path fill="#fcbdab" d="M932.053 666.206c2.586.384 9.2.648 9.353 3.345l.563 10.308c.563 10.249 1.74 22.596 1.34 30.942l-1.485 30.976 13.739 1.74c-1.391 6.87-74.232 23.92-82.134 23.1l-18.082-2.27-.572-89.113c.086.452 12.237 5.888 15.779 5.069l61.5-14.114z"/><path fill="#fdf3eb" d="M1014.127 474.47c.939 3.328 6.255 9.66 5.709 12.963l-3.567 21.512c3.055 5.999 7.057 12.288 7.074 16.137-21.658-13.219-85.956-20.736-113.033-19.9l-47.12 1.46c-7.203.22-19.815-2.655-26.616-4.182l-3.84-5.163-33.007-.512 3.908-13.099c75.853-42.965 131.857-14.788 210.193 9.49l.299-18.697z"/><path fill="#f9ada0" d="m955.554 743.526-13.739-1.74 1.485-30.976c.401-8.346-.776-20.694-1.34-30.942l-.563-10.309c-.145-2.705-6.767-2.96-9.352-3.345l13.85-4.565c2.892-.956 8.507-4.378 9.386-5.282 19.601-5.956 58.027-33.886 64.623-57.301l3.703-6.238c.265 68.377 8.61 127.889-68.061 150.698z"/><path fill="#f98986" d="m1014.127 474.47-.299 18.697c-78.336-24.277-134.349-52.446-210.193-9.49l-52.855.479c-7.518 45.508-36.472 34.09-101.76 58.615-27.162 10.206-53.948 24.704-73.182 49.502l-22.025 28.382c-35.32 45.517-78.319 55.953-132.207 59.767l-47.812-1.34c-6.315-30.89-40.943-16.665-19.447-39.15l17.732-18.552c2.901-3.038 6.86-7.859 8.695-10.419 4.199-5.854 8.832-18.73 9.046-27.06l26.24-19.233c14.805-10.855 33.22-19.917 50.918-25.959l64.802-22.127c19.883-6.784 26.573-25.668 29.142-45.917 2.918-23.04 48.972-36.42 70.16-41.208l105.387-23.8c61.96-13.994 94.285 2.876 145.178 24.099 64.7 26.974 71.765 7.475 132.488 44.723z"/><path fill="#f68e8c" d="m361.293 561.118 8.73 10.59c-22.119 57.48-81.392 29.798-145.118 28.04l-31.284-.862c-1.152-.034-6.255 2.842-5.52 2.646-20.967 2.79-40.295 9.95-62.021 20.181-32.145 15.121-81.254-30.379-100.429-51.226l-.546-14.702c12.288-.76 23.373-1.502 35.49-1.57l82.347-.47c26.095-.145 51.388.836 77.653 3.064 41.626 3.532 81.357 4.522 123.128 4.369l17.561-.06z"/><path fill="#fb9d99" d="M955.29 656.367c-.88.896-6.494 4.326-9.387 5.282l-13.85 4.565-61.5 14.115c-3.54.81-15.692-4.617-15.778-5.07-.008-1.928-3.421-3.882-5.009-4.727-21.683-37.06-77.943-49.664-114.03-58.735 6.11.052 20.718 1.246 27.11-.05l64.896-13.142c9.08-1.843 21.709-3.158 32.128-3.584 42.24-1.724 44.476 10.556 52.181 23.774 7.339 12.595 29.107 46.122 43.247 37.58z"/><path fill="#f7918f" d="M380.774 610.961c-1.843 2.56-5.802 7.381-8.695 10.42l-17.732 18.55c-21.496 22.486 13.132 8.27 19.447 39.152l47.812 1.34c2.731 8.66-80.93 2.704-89.958 1.902-44.015-3.908-85.06-14.745-124.416-29.824l-10.957-14.856c19.473-9.054 35.388-12.092 56.576-12.16l94.643-.273c6.494-.017 19.79-10.13 25.507-11.87l7.773-2.372z"/><path fill="#fcebe1" d="M389.811 583.893c-.205 8.337-4.847 21.214-9.045 27.06l-7.774 2.372c-5.717 1.75-19.004 11.853-25.506 11.87l-94.643.273c-21.18.06-37.095 3.097-56.576 12.16l10.956 14.856c-4.556-1.75-10.478-4.702-13.508-7.757-10.735-10.837 17.51-14.455 17.869-26.547.102-3.456-4.437-11.315-7.671-12.228l-15.821-4.437c-.734.196 4.377-2.68 5.52-2.646l31.284.862c63.727 1.758 123 29.44 145.118-28.04l-8.73-10.59c23.143-.086 4.267 16.4 28.519 22.775z"/><path fill="#fae7df" d="m803.635 483.678-3.908 13.099 33.007.512 3.84 5.162-23.416-1.365c-35.029-2.048-41.113 17.698-98.287 43.187-11.75 5.24-25.625 12.646-33.459 21.555-2.449-17.374 29.107-10.897 11.64-32.589l-24.824 5.94c-6.69 1.604-13.875 2.824-19.208 3.584 65.288-24.525 94.242-13.108 101.76-58.616l52.855-.478z"/></svg>