<svg xmlns="http://www.w3.org/2000/svg" viewBox="0 0 1024 1024"><path fill="#f9fee0" d="M333.532 464.3c1.314 12.825-2.38 24.44-9.899 34.705-22.195 30.293-59.784 51.404-90.913 70.621-23.885 14.754-39.074 27.29-59.785 45.875-14.088 12.638-27.775 25.344-41.326 38.502-48.35 46.976-70.63 99.934-61.047 168.114-5.624-1.98-9.13-4.633-13.167-8.9-22.366-23.654-35.908-59.016-38.51-91.101-1.4-17.22-1.81-38.63 2.09-55.236 7.919-33.698 23.048-60.808 45.78-85.674 23.664-25.882 50.86-41.276 80.222-59.75 16.376-10.308 32.879-20.787 49.263-31.087l.17-1.655c4.054-.76 8.747-3.653 12.536-5.777 34.116-19.166 67.874-39.032 102.04-58.086l2.22.093c4.514 5.914 10.214 12.587 13.61 19.294 3.311 6.537 4.318 13.645 6.707 20.062z"/><path fill="#b0ed8c" d="m386.131 449.273.102-3.192.837-.571c-.282 1.595-.854 3.268-.939 3.754zm-.939 4.702.103-3.192.836-.572c-.29 1.639-.836 3.192-.939 3.755zm-.938 4.693.102-2.236.836-.589c-.315 1.58-.913 2.654-.938 2.816zm-.939 4.693c.043-.734-.145-1.502.102-2.235l.837-.59c-.128.624.204 1.52-.103 2.236z"/><path fill="#e2f0ce" d="M131.617 654.02c1.306 3.644 3.892 4.72 2.859 9.353l5.59.981c-41.72 72.448-16.871 148.343 40.874 201.906 21.615 20.053 54.152 37.675 82.858 44.868 25.958 6.503 69.068 7.373 92.279-7.287l.06 1.8 2.756 1.016c-43.187 33.715-77.133 58.751-134.732 57.25-13.995-.367-26.155-1.545-39.706-5.402-1.117-.316-2.432 0-3.063-.188-13.252-4.13-38.425-18.833-49.758-27.724-32.196-25.293-55.398-68.13-61.072-108.45-9.583-68.172 12.697-121.138 61.047-168.114z"/><path fill="#f7fedd" d="M447.178 278.343c9.318 25.95 19.567 51.575 27.708 77.96.29.93.196 2.133 1.408 1.869l20.667-105.19 2.697 2.466c-.12 13.406.563 26.905.162 40.303-.674 22.39-2.867 45.132-3.84 67.54-.836 19.269 0 39.066-1.877 58.232-.111 1.143-.017 2.602.042 3.805.162 3.294 2.065.384 3.422-.34 29.406-15.566 57.506-33.588 86.775-49.409 2.62-1.416 8.218-2.628 9.822-5.205.904-1.46 1.672-5.333 2.133-7.262 1.971-8.251 3.183-16.844 4.881-25.173 6.673-32.674 12.595-65.484 22.767-97.45.666-2.1 2.338-3.67 1.69-6.298 1.996-.076 1.783-.426 1.877 1.408.077 1.485.17 3.311.043 4.745-2.902 32.853-6.179 67.54-7.595 100.411-.205 4.838.23 9.762.043 14.6 14.643-7.85 28.748-16.716 43.246-24.848 44.373-24.892 88.926-49.835 133.649-73.916 2.21-1.186 15.35-9.497 16.58-8.303l-3.303 7.501-77.465 114.594c9.225.213 18.517-.273 27.75-.043 36.48.913 73.233 3.388 109.824 3.814l5.188 1.391c-2.125 2.407-5.316 1.946-7.953 2.381-22.767 3.738-46.353 4.113-69.512 5.623-17.382 1.135-35.123 3.14-52.574 3.78-7.782.282-15.624-.392-23.398.078-.76.221-2.372 1.97-2.91 2.722-3.31 4.59-6.22 10.436-9.438 14.984-18.312 25.856-36.667 51.66-54.425 77.994l-7.065 12.186c5.828-.649 11.502-1.272 17.416-.982 48.12 2.356 96.529 2.339 144.614 4.72l16.418.486c-2.424 2.364-5.044 5.418-8.124 6.903-5.478 2.637-12.663 2.185-18.628 2.978-55.629 7.356-112.187 12.945-168.106 17.843-1.74.154-3.806 1.477-6.033 1.007l-7.15 12.1-59.614 87.364c2.636-.11 5.324.18 7.961-.017 13.91-1.024 28.356-4.062 42.3-5.598 19.2-2.116 38.485-3.029 57.744-5.657 4.318-.23.623 3.251.171 4.394-1.041 2.603-.154 3.78-3.592 5.803-2.637 1.553-5.667.085-6.912 2.944-9.216.964-19.405 3.046-28.612 4.728-26.18 4.787-54.443 9.292-80.068 15.726-1.135.282-2.296.154-3.448.316-2.705 3.908-7.884 8.67-9.028 13.047-1.502 1.024-3.106 3.226-4.181 4.736-46.097 64.683-89.506 131.874-138.572 194.372-10.513 13.388-21.29 28.535-34.782 38.954-.828.64-1.68 2.261-1.852 2.372-23.21 14.66-66.329 13.79-92.278 7.288-28.706-7.194-61.244-24.815-82.859-44.868-57.736-53.564-82.593-129.459-40.874-201.906 9.284-16.12 29.679-35.465 44.143-46.959 20.863-16.572 46.105-32.017 68.539-46.506 34.645-22.383 70.929-43.025 106.103-64.828 6.613-4.096 12.748-9.301 19.686-12.714-.145-4.284 1.212-8.431 1.946-12.621.239-1.374-.205-2.944.017-4.198.657-3.79 2.27-7.928 2.816-12.212.042-.307-.017-.631 0-.938l.836-.589c.307-.717-.017-1.604.102-2.236.111-.571-.102-1.297 0-1.877.026-.162.623-1.237.939-2.816.11-.572-.11-1.297 0-1.877s.649-2.117.939-3.755c.05-.307-.052-.631 0-.939.085-.495.657-2.159.938-3.754 2.33-13.073 4.557-26.112 7.484-39.006l5.197-35.191c.52 0 1.331 2.56 1.4 3.294 2.918 29.969 2.295 60.893.904 91.05-.205 4.522.23 9.13.042 13.662 5.632-3.26 11.29-6.58 16.948-9.822 6.51-3.73 12.876-7.791 19.353-11.64 3.43-2.04 19.234-9.489 19.934-11.997l2.96-20.523c1.665-6.878 3.662-14.583 4.651-21.64 1.34-9.506.197-12.314-2.286-21.154-8.286-29.406-15.88-59.537-23.988-89.182.222-5.478 2.16-10.956.103-16.315l2.253-3.414 5.162 4.694z"/><path fill="#b0ed8c" d="M333.532 464.3c3.524 9.455.043 22.588-3.559 31.658-1.126 2.842-.836 3.832-.119 6.767l3.251.982 1.408 3.336-1.544 2.244-3.192.103.947 5.632c6.452 1.459 7.612-2.381 12.229-5.171l.75-.905-.776-4.258c2.705-.486 5.265 1.638 7.927.879 2.091-.597.854-3.874 2.381-5.129 3.482-2.867 6.997-1.647 10.402-2.747 1.878-.606 2.8-2.347 4.301-3.217 1.715-.99 4.83-1.315 6.016-2.44 1.519-1.443 3.337-9.183 4.207-11.76.495-1.467.46-3.336 2.338-3.763-.222 1.263.222 2.833-.017 4.198-.734 4.19-2.09 8.337-1.946 12.621-6.937 3.413-13.073 8.619-19.686 12.715-35.174 21.802-71.458 42.444-106.103 64.827-22.434 14.498-47.675 29.935-68.54 46.506-2.14-.759-3.173 1.391-4.351 1.775-1.818.59-7.518-.879-6.912-3.652 20.71-18.585 35.9-31.12 59.784-45.875 31.13-19.225 68.719-40.328 90.914-70.621 7.526-10.266 11.213-21.88 9.898-34.705zm-6.57 45.09-1.409-4.702-3.285 4.693h4.693z"/><path fill="#b5e3a8" d="M184.208 617.387c-14.464 11.494-34.859 30.84-44.143 46.959l-5.589-.982c1.033-4.633-1.553-5.7-2.859-9.352 13.551-13.167 27.239-25.865 41.327-38.502-.606 2.773 5.094 4.24 6.912 3.652 1.186-.384 2.219-2.534 4.352-1.775"/><path fill="#f2fcda" d="M578.659 772.351c-1.971.035-3.277-1.604-5.163-1.877-5.666-.81-6.016 2.97-8.908 6.127-6.725 7.33-10.846 11.784-16.478 20.147-15.343 22.801-30.626 45.781-45.38 69.196-30.396 48.222-55.86 101.427-105.002 132.608-38.093 24.166-83.507 31.496-127.155 20.377-29.013-7.39-62.31-25.634-81.689-48.861-2.901-3.482-5.248-7.825-7.492-11.76.631.197 1.946-.127 3.063.188 13.56 3.857 25.711 5.035 39.706 5.402 57.608 1.502 91.545-23.535 134.732-57.25 16.008-12.493 29.295-23.876 44.142-37.563 34.04-31.403 64.947-64.631 92.04-102.374 1.17-1.63 1.656-1.724 2.816-2.816 1.86-1.75 4.438-3.166 5.632-5.632l1.878-1.877c3.788-3.371 13.977-9.242 18.781-10.334 2.253-.512 11.836-.29 14.592-.034 9.566.887 31.198 20.258 39.876 26.333z"/><path fill="#60b861" d="M913.01 621.142c.136 1.766 4.89-.06 3.755 2.346-.973 2.065-9.071 1.195-5.786 6.605l-10.172 4.668c4.489 3.652.094 4.505-1.408 7.048-.793 1.34-.776 3.44-1.877 4.694s-4.267 2.218-5 2.978c-1.434 1.502-1.699 5.93-2.953 7.85-1.852 2.833-6.733 3.08-9.71 4.378-1.05.452-1.767 1.442-2.8 1.894-1.408.615-7.245 1.963-7.245 3.08 1.58 1.887 3.79 1.28 5.974 2.475 5.41 2.961 3.294 10.624 2.995 15.89-2.833 2.568-7.51 2.576-9.813-.615l-.094-10.7c-1.707-.257-4.967-.103-4.557 2.158.205 1.135 1.655 1.903-.137 3.012-.162.103-.307.23-.452.376l-2.696-.777-2.492 2.279c1.493 2.901 6.357-.427 5.632 3.285-3.268-.239-7.202-.495-7.51 3.755 1.042-.222 3.312.674 3.747-.615 1.314-3.865 8.2-.99 7.518 1.084-1.605 2.278-3.252 2.517-5.948 2.509l-10.018 4.07c-.043 3.934 7.936 3.627 8.456 5.64l-1.817 2.808c1.894 3.26 4.155 1.937 6.963 2.364 5.734.87 11.033 1.288 16.964.964 2.364-.128 5.93-2.475 7.945-.043-4.506.726-7.646.862-12.212.94-2.491.042-5.239-.41-7.517.451v.487c-5.308.051-10.658-.034-15.966 0 .75 5.427 3.353 10.36 4.48 15.71 13.824 65.996-34.167 133.332-97.22 151.235-62.899 17.86-122.88-16.998-153.18-71.765-2.74-4.95-5.624-10.726-6.717-16.29 3.209 1.74 8.517 4.07 11.921 5.453 59.554 24.303 113.468 12.51 160.443-29.858 27.759-25.037 47.795-64.665 51.149-101.939.64-7.074-.427-14.89.017-22.05 5.137-.179 10.342.265 15.48-.017 21.998-1.212 52.248-7.364 71.866-17.826z"/><path fill="#65bd5d" d="M994.716 517.838c1.272 3.754 4.07 7.85 5.444 11.938 8.073 24.115 7.527 54.86.692 79.189-13.645 48.545-60.493 89.574-110.378 97.646-2.014-2.432-5.581-.085-7.945.043-5.922.324-11.23-.094-16.964-.965-2.808-.426-5.06.896-6.963-2.363l1.817-2.808c-.52-2.014-8.499-1.706-8.456-5.64l10.018-4.07c2.696.008 4.335-.231 5.948-2.51.682-2.082-6.213-4.949-7.518-1.083-.435 1.288-2.705.4-3.746.614.307-4.25 4.25-3.993 7.509-3.754.725-3.712-4.139-.384-5.632-3.286l2.492-2.278 2.696.776c.137-.136.282-.273.452-.375 1.792-1.118.342-1.877.137-3.012-.41-2.262 2.85-2.415 4.557-2.16l.094 10.702c2.304 3.191 6.98 3.182 9.813.614.299-5.265 2.415-12.928-2.995-15.889-2.185-1.195-4.395-.589-5.974-2.475 0-1.126 5.829-2.466 7.245-3.08 1.041-.452 1.758-1.442 2.8-1.895 2.977-1.297 7.867-1.544 9.71-4.377 1.254-1.92 1.519-6.349 2.953-7.85.733-.769 3.89-1.716 5-2.979s1.092-3.353 1.877-4.693c1.494-2.543 5.888-3.396 1.408-7.049l10.172-4.667c-3.277-5.41 4.813-4.54 5.786-6.605 1.134-2.407-3.619-.58-3.755-2.347 23.646-12.612 45.994-32.947 60.56-55.458 7.442-11.511 15.838-29.456 19.218-43.681.367-1.554-.53-3.567 1.928-4.173M878.254 707.55v.486c-2.27.845-5.026.427-7.51.452v-.486c2.27-.862 5.027-.41 7.51-.452"/><path fill="#a3de8b" d="M535.455 663.407c-1.98 7.586-10.086 18.645-14.583 25.335-2.979 4.438-7.134 9.634-8.09 14.447-.35 1.758-4.625 5.845-6.007 7.151-2.066 1.946-1.059 2.927-1.4 5.163-.154 1.015-.904 1.954-.913 2.85-.034 3.046 4.156 9.156 2.74 13.073-.974 2.184-3.175 1.135-4.933 1.638-3.763 1.092-6.622 3.277-6.69 7.399l-1.092.793c-3.79-.444-2.586.64-3.653 1.92-3.754 4.497-1.715 2.876-1.365 7.134.128 1.527-.836 2.509-.981 3.738-.359 3.071 1.314 4.48 2.398 6.98 1.134 2.628-.128 4.65 4.19 5.674-27.094 37.743-58.001 70.972-92.04 102.374h-8.457c.375-2.807-.06-4.48-1.877-6.57 49.066-62.49 92.466-129.69 138.572-194.372 1.075-1.51 2.679-3.712 4.18-4.736z"/><path fill="#99dc7d" d="M824.725 592.035c.947-.197 3.703-1.425 5.256-1.792 1.417-.333 1.545-.086 1.331 1.34-.358 2.457-2.952 9.01-3.95 12.014-.948 2.85-.837 1.485-1.127 4.873-.401 4.813-9.088 17.843-12.348 22.041-6.502 8.388-17.39 7.006-27.255 6.64-27.025-1.008-53.913-5.01-80.708-7.57-3.592-.341-6.417-.794-10.35-.922-1.844-.06-3.798.973-3.286-1.877 16.947-2.167 35.678-8.252 53.034-11.298 22.767-4.002 46.95-5.547 69.3-11.469 1.766-.469 10.12-2.73 10.615-3.473.213-1.758 1.083-3.532 1.33-5.24s.811-3.822-1.86-3.267z"/><path fill="#f7fedd" d="M824.725 592.035c2.67-.555 2.107 1.536 1.86 3.268s-1.118 3.49-1.331 5.24c-.495.742-8.84 3.003-10.616 3.472-22.357 5.922-46.54 7.467-69.299 11.47-17.356 3.054-36.087 9.13-53.034 11.297-11.511 1.476-24.038 1.596-35.686 2.816 1.246-2.859 4.275-1.4 6.912-2.944 3.439-2.022 2.551-3.2 3.592-5.802.453-1.144 4.148-4.626-.17-4.395 21.589-2.944 44.347-7.049 66.227-10.317 30.156-4.497 61.738-8.021 91.553-14.105z"/><path fill="#a3de8b" d="M524.191 746.052c-4.804 1.092-14.993 6.954-18.782 10.334-1.075-1.477-2.62-.197-1.45-2.859 2.79-6.374 7.236-4.796 12.074-6.716 3.132-1.246 4.139-4.719 8.166-.76zm-26.3 17.851c-1.075-1.484-2.61-.196-1.45-2.858 1.22-2.79 4.94-7.236 7.09-2.782-1.202 2.466-3.77 3.891-5.631 5.632z"/><path fill="#b5e3a8" d="M392.702 862.514c1.817 2.1 2.252 3.763 1.877 6.58h8.456c-14.839 13.687-28.134 25.07-44.142 37.563l-2.756-1.016-.06-1.8c.162-.103 1.024-1.733 1.851-2.373 13.483-10.419 24.26-25.565 34.782-38.954z"/><path fill="#99dc7d" d="M994.716 517.838c-2.457.606-1.561 2.628-1.928 4.173-3.388 14.225-11.776 32.17-19.217 43.681-14.558 22.511-36.915 42.846-60.561 55.458-19.618 10.462-49.869 16.614-71.867 17.826-5.137.282-10.343-.162-15.48.017-.443 7.16.623 14.976-.017 22.05-3.353 37.274-23.39 76.902-51.148 101.939-46.967 42.368-100.89 54.152-160.443 29.858-3.396-1.391-8.713-3.712-11.921-5.453-7.671-4.173-16.47-10.112-23.484-15.027-8.678-6.076-30.318-25.446-39.876-26.334-2.756-.256-12.347-.47-14.592.034-4.019-3.96-5.026-.486-8.166.76-4.838 1.92-9.284.341-12.075 6.716-1.16 2.653.384 1.373 1.451 2.858l-1.877 1.877c-2.15-4.454-5.871 0-7.091 2.782-1.16 2.654.384 1.374 1.45 2.859-1.16 1.092-1.647 1.195-2.816 2.816-4.318-1.024-3.055-3.055-4.19-5.675-1.075-2.491-2.747-3.908-2.397-6.98.145-1.229 1.109-2.21.981-3.737-.35-4.267-2.39-2.646 1.365-7.134 1.075-1.28-.128-2.364 3.653-1.92l1.092-.794c.068-4.121 2.927-6.306 6.69-7.398 1.758-.512 3.96.546 4.932-1.639 1.417-3.916-2.773-10.026-2.74-13.073.01-.896.76-1.834.914-2.85.35-2.235-.666-3.217 1.4-5.162 1.382-1.297 5.657-5.393 6.007-7.151.956-4.822 5.103-10.018 8.09-14.447 4.496-6.69 12.603-17.75 14.583-25.335 1.143-4.378 6.323-9.14 9.028-13.048 1.143-.162 2.313-.025 3.447-.316 25.634-6.434 53.888-10.94 80.068-15.726 9.208-1.681 19.396-3.764 28.612-4.728 11.648-1.22 24.184-1.34 35.687-2.816-.512 2.85 1.442 1.818 3.285 1.878 3.934.119 6.767.58 10.35.921 26.795 2.569 53.684 6.57 80.708 7.57 9.865.366 20.745 1.748 27.256-6.64 3.26-4.198 11.938-17.228 12.347-22.041.282-3.396.18-2.031 1.127-4.873.998-3.012 3.592-9.566 3.95-12.015.206-1.416.078-1.672-1.33-1.34-1.553.368-4.31 1.596-5.257 1.793-29.815 6.084-61.397 9.6-91.554 14.105-21.879 3.268-44.646 7.373-66.226 10.317-19.251 2.628-38.545 3.541-57.745 5.658-13.943 1.536-28.39 4.573-42.3 5.597-2.636.197-5.333-.094-7.961.017l59.613-87.363 7.151-12.1c2.236.469 4.293-.854 6.033-1.007 55.919-4.907 112.478-10.496 168.106-17.844 5.965-.785 13.15-.34 18.628-2.978 3.08-1.484 5.7-4.54 8.124-6.903l-16.418-.486c-48.085-2.381-96.495-2.364-144.614-4.72-5.913-.29-11.588.325-17.416.982l7.065-12.186c17.758-26.333 36.122-52.138 54.426-77.994 3.217-4.54 6.127-10.385 9.438-14.984.537-.751 2.15-2.5 2.91-2.722 7.782-.47 15.624.204 23.398-.077 17.45-.64 35.19-2.645 52.573-3.78 23.16-1.51 46.737-1.886 69.512-5.624 2.637-.435 5.829.026 7.953-2.38l-5.188-1.392c-36.59-.426-73.344-2.91-109.823-3.814-9.233-.23-18.518.256-27.75.043l77.465-114.594 3.302-7.5c-1.229-1.195-14.37 7.116-16.58 8.302-44.723 24.081-89.267 49.016-133.648 73.916-14.49 8.132-28.595 16.99-43.247 24.849.188-4.839-.248-9.754-.043-14.6 1.417-32.871 4.694-67.559 7.595-100.412.128-1.433.034-3.26-.043-4.744-.094-1.827.12-1.477-1.877-1.408.648 2.628-1.024 4.198-1.69 6.297-10.171 31.966-16.093 64.776-22.767 97.45-1.698 8.329-2.91 16.922-4.88 25.173-.461 1.92-1.23 5.795-2.134 7.262-1.596 2.577-7.202 3.789-9.822 5.206-29.269 15.82-57.369 33.843-86.775 49.407-1.365.726-3.26 3.627-3.421.342-.06-1.204-.154-2.663-.043-3.806 1.877-19.157 1.04-38.963 1.877-58.231.973-22.409 3.166-45.141 3.84-67.541.401-13.398-.281-26.897-.162-40.303l-2.696-2.466-20.668 105.19c-1.212.264-1.118-.948-1.408-1.87-8.132-26.384-18.38-52.001-27.708-77.96-.17-.469.205-1.501-.153-2.15l-13.935-36.351.11-2.697c74.112-46.626 152.951-81.578 236.842-106.444 27.204-8.064 55.466-14.148 82.372-23.287 8.96-3.038 17.8-6.742 26.99-9.165 66.134-17.442 129.886 11.17 164.454 68.949 26.36 44.057 26.291 96.673 6.263 143.094-3.089 7.151-7.466 14.114-10.658 21.265-1.322 5.59 3.106 9.77 5.334 14.08 17.16 33.203 39.304 61.27 47.829 98.688 3.942 17.297 5.708 37.666 3.95 55.176-.682 6.8-4.368 10.957-1.86 18.338z"/><path fill="#b0ed8c" d="M636.89 51.067v.487c1.963.862 4.386.4 6.57.452 1.238.026 2.535-.102 3.755 0l.59.836 2.235.103c.597.085 1.28-.094 1.877 0l.572.836 3.191.102c.572.111 1.306-.12 1.878 0l.597.777c1.562.802 3.567.725 5.035 1.1 18.26 4.71 39.987 13.773 55.415 24.423.102.077.264.879.964 1.382 9.941 7.108 17.971 15.804 27.204 24.448 1.382 1.297 2.082 2.628 1.877-.47.478.547.99.82 1.059 1.742l2.696.136c-26.905 9.13-55.168 15.223-82.372 23.287-83.89 24.866-162.73 59.819-236.841 106.445l-.11 2.696-2.757 1.007-.999 12.143c-.017-.094-.742-.24-.785-.657-.358-3.618-.7-8.243.785-11.554-1.723-1.468-7.765 4.847-9.429 6.058-38.323 27.998-68.983 56.747-73.232 107.084-2.757 32.674 11.665 61.543 23.295 91.324l11.478 21.862 1.877-2.816c-.546 4.284-2.159 8.422-2.816 12.211-1.877.427-1.852 2.304-2.338 3.763-.862 2.577-2.68 10.317-4.207 11.76-1.186 1.117-4.3 1.441-6.016 2.44-1.502.87-2.423 2.61-4.3 3.217-3.406 1.1-6.921-.12-10.403 2.747-1.527 1.255-.29 4.532-2.38 5.129-2.654.768-5.223-1.365-7.928-.879l.777 4.258-.751.905c-4.608 2.79-5.777 6.621-12.229 5.17l-.947-5.631 3.192-.103 1.544-2.244-1.408-3.336-3.251-.982c-.717-2.935-1.007-3.925.12-6.767 3.6-9.07 7.082-22.203 3.558-31.658-2.39-6.417-3.405-13.517-6.707-20.062-3.397-6.707-9.097-13.38-13.61-19.294l-2.22-.093c1.084-1.681 2.765-.052.93-2.339-10.7-13.405-23.509-36.915-29.106-53.068-26.718-77.124 7.918-166.109 84.513-197.708 28.058-11.58 63.385-13.21 92.296-4.923 6.127 1.758 12.024 4.266 18.031 6.34 2.236-1.254 1.075-3.277 1.468-5.137 11.136-52.48 48.938-93.405 99.532-109.44l2.184-.119.632-.82c2.312-.699 4.232-1.28 6.57-1.876l2.228-.103.588-.836c.606-.077 1.332.12 1.878 0l2.236-.103.588-.836c.59-.102 1.289.094 1.878 0l3.191-.102.572-.836c1.237-.086 2.526.128 3.754 0l2.236-.103.589-.836c1.553-.085 3.14.051 4.693 0 3.303-.12 7.134-.845 9.395-.939 4.958-.196 10.061-.051 15.028 0z"/><path fill="#99dc7d" d="M748.65 105.535c.205 3.098-.495 1.767-1.877.47-9.241-8.636-17.263-17.332-27.204-24.448-.708-.504-.862-1.306-.964-1.383l2.235-.102.58-.836c8.824 9.01 18.953 16.853 27.239 26.3z"/><path fill="#f7fedd" d="m447.178 278.343-5.163-4.694-2.252 3.414c2.065 5.359.12 10.828-.103 16.315-2.952-10.786-7.338-21.93-9.395-32.87-.307-1.647-.913-2.654-.939-2.816-.238-1.416.214-3.234 0-4.693l.999-12.143 2.756-1.007 13.935 36.352c.367.657-.017 1.68.154 2.15z"/><path fill="#9add7e" d="m383.315 464.3-1.877 2.816-11.478-21.862c-11.622-29.781-26.052-58.65-23.295-91.324 4.25-50.346 34.91-79.086 73.232-107.084 1.664-1.211 7.706-7.526 9.43-6.058-1.485 3.31-1.144 7.936-.786 11.554.043.41.768.563.785.657.214 1.459-.238 3.277 0 4.693l.103 2.236.836.589c2.057 10.94 6.443 22.084 9.395 32.87 8.115 29.644 15.71 59.775 23.987 89.181 2.492 8.84 3.627 11.648 2.287 21.154-.998 7.057-2.986 14.763-4.65 21.64l-2.961 20.523c-.7 2.509-16.504 9.967-19.934 11.998-6.477 3.848-12.851 7.91-19.354 11.64-5.657 3.242-11.306 6.553-16.947 9.821.188-4.523-.247-9.13-.042-13.662 1.39-30.156 2.013-61.09-.905-91.05-.068-.734-.879-3.294-1.4-3.294l-5.196 35.192c-2.927 12.902-5.146 25.932-7.484 39.005l-.836.572-.103 3.191c-.05.308.052.632 0 .94l-.836.57-.102 3.192c-.111.58.11 1.306 0 1.878l-.836.588-.103 2.236c-.102.589.111 1.306 0 1.877l-.836.59c-.248.733-.06 1.493-.103 2.235-.017.307.043.631 0 .939z"/><path fill="#64b966" d="m721.412 79.244-.58.836-2.236.103c-15.428-10.641-37.145-19.712-55.415-24.422l-.606-.777c-1.63-.76-3.422-.768-5.034-1.1-.572-.12-1.306.11-1.878 0-.682-.137-1.911-.666-3.754-.94-.598-.093-1.28.086-1.878 0-.162-.025-.623-.75-2.816-.938-1.22-.102-2.517.026-3.754 0v-.486c-1.963-.837-4.395-.427-6.571-.453-4.966-.051-10.07-.196-15.027 0-3.098.222-6.494-.537-9.395.453v.486c-1.553.051-3.14-.085-4.694 0-2.346.128-2.653.921-2.816.939-1.228.128-2.517-.086-3.754 0-2.168.153-3.328.87-3.755.938-.589.094-1.288-.102-1.877 0-1.732.29-2.663.905-2.816.939-.546.12-1.272-.077-1.877 0l-2.236.102c-.853.214-.538.82-.589.837-2.338.605-4.258 1.177-6.57 1.877-1.042.316-2.142.725-2.817.939-50.593 16.034-88.396 56.96-99.532 109.439-.392 1.86.76 3.883-1.467 5.137-6.008-2.074-11.913-4.582-18.031-6.34-28.911-8.295-64.239-6.656-92.296 4.923-76.595 31.608-111.232 120.584-84.514 197.708-1.69.666-1.297 2.116-3.422 1.11-3.003-1.417-4.761-5.607-6.886-8.176-23.842-28.723-48.921-56.242-74.197-83.583-2.551-2.756-5.504-5.666-8.474-7.962 11.324-13.047 25.003-26 40.064-34.602 2.867-1.638 6.46-3.618 9.694-3.934 1.186-.99-2.398-13.884-2.773-16.426-6.81-45.346 3.055-86.588 34.773-120.183 38.937-41.25 96.05-54.878 149.298-31.966 3.985 1.715 7.902 4.036 11.733 6.093.777.008 7.441-10.923 8.9-12.664 35.166-42.128 93.056-66.465 147.746-53.793 35.985 8.345 86.067 30.805 113.39 55.662 6.93 6.306 12.314 13.636 18.765 20.216zm-447.98 229.153h-.939v14.088h.939z"/><path fill="#4fac60" d="M189.84 270.833c2.97 2.296 5.922 5.206 8.473 7.962 25.268 27.34 50.347 54.869 74.197 83.583 2.125 2.56 3.883 6.75 6.887 8.175 2.133 1.007 1.74-.443 3.422-1.109 5.597 16.153 18.414 39.663 29.107 53.068 1.826 2.296.145.658-.93 2.339-34.176 19.046-67.934 38.92-102.042 58.086-3.788 2.124-8.482 5.017-12.535 5.777-6.161-8.679-13.9-16.999-19.575-25.976-38.033-60.168-33.92-137.855 13.004-191.913z"/><path fill="#99dc7d" d="M621.863 51.067c-2.261.094-6.093.82-9.395.939v-.486c2.901-.99 6.297-.23 9.395-.453m21.598.939c-2.185-.051-4.608.41-6.571-.452v-.487c2.185.026 4.617-.392 6.58.453v.486zm-42.257.939-.572.836-3.191.102c.435-.068 1.587-.785 3.754-.938zm54.468.938-3.192-.102-.571-.836c1.843.273 3.072.802 3.754.938zm-5.632-.938-2.236-.103-.589-.836c2.193.188 2.654.913 2.816.939zm-68.565 4.693-.632.82-2.184.119c.674-.214 1.775-.623 2.816-.94m81.715-1.877c-1.468-.376-3.473-.3-5.035-1.101l-.597-.777c1.612.333 3.404.342 5.034 1.101l.606.777zm-72.32-.94-.589.837-2.227.103c.051-.009-.264-.623.589-.837l2.236-.102zm16.904-2.815-.588.836-2.236.103c.162-.018.47-.811 2.816-.94zm-12.21 1.877-.59.836-2.235.103c.162-.034 1.084-.649 2.816-.939z"/><path fill="#4fac60" d="M272.493 308.397h.939v14.088h-.939z"/><path fill="#b0ed8c" d="m430.274 260.5-.837-.59-.102-2.235c.026.162.631 1.17.939 2.816zM326.96 509.39l-4.693-.009 3.285-4.693z"/></svg>