<svg xmlns="http://www.w3.org/2000/svg" viewBox="0 0 1024 1024"><path fill="#f6f4ec" d="M615.91 389.154c6.895.922 14.251.17 21.36.64 5.333.359 11.101.999 16.435.674 1.757-.11 1.262.111 2.27-1.314.085 12.544.52 24.892-.026 37.086-.401 8.815.384 17.664 0 26.274-.41 9.114 1.143 18.8.717 28.305-.316 6.955.213 13.884 0 21.018-2.526 85.359.443 171.324-.657 256.845-1.588 6.075-.367 13.627-2.125 19.55-1.391 4.693-1.297 8.857-2.637 13.78-2.296 8.415-4.873 17.844-7.876 25.626-4.728 12.28-11.64 23.1-18.586 33.972-1.519 2.38-2.807 3.754-3.95 5.888-.735 1.382-5.155 5.768-6.239 6.903-1.98 2.074-3.695 4.54-5.606 6.204a372 372 0 0 0-20.01 18.765c-1.34 1.356-2.501 3.114-4.575 2.995.333 2.32-.52 1.587-1.314 2.261-2.227 1.877-3.703 3.951-5.256 5.257-2.296 1.937-3.055 2.56-4.301 4.906-.666 1.246-3.772 3.533-4.95 4.924-5.316 6.272-12.492 15.061-16.093 21.333-3.627 6.315-8.226 11.845-10.3 18.987l-1.075.162c-3.482 9.122-7.842 18.671-10.522 27.938-2.065 7.126-3.115 14.9-5.248 21.692-1.212 3.849-3.234 15.718-5.478 18.526-.137.18-.785.008-1.016.23l-2.918 4.344c-1.75.879-3.857.99-5.794.776.298-8.405-.393-16.913-.026-25.318.794-18.304-1.348-41.259-7.5-58.786-9.643-27.469-32.086-43.196-50.262-64.034-29.363-33.656-43.008-69.231-49.954-113.605-.905-5.751-1.536-17.467-3.26-22.024.88-3.66-2.116-12.39 0-15.113l37.129.017c3.294-1.544 3.66-5.103.981-7.586-1.596-.042-3.601-.836-4.958-.955-10.112-.905-20.983.64-30.873 0-1.204-.077-2.407-.009-3.602-.018l-1.34-18.039V487.987c-.093-.546.735-1.621 1.016-1.621h47.292l2.799-2.936c-.06-1.194-1.715-4.949-2.8-4.949h-47.29c-.274 0-1.11-1.075-1.008-1.621l.017-86.4c.282-.17.657-.17.657-.657 4.54-.128 11.068-.171 15.42-.674 1.621-.188 3.473-1.161 5.24-1.323 2.517-.23 5.35.273 7.893.008 9.199-.93 19.149-3.618 28.28-5.222 5.973-1.05 11.673-2.5 17.86-3.814 21.717-4.643 45.96-6.102 68.044-1.315 3.687.803 7.655 2.194 11.452 2.996 21.282 4.497 43.085 5.81 64.555 8.687zm27.589 14.123c.7-3.098-.512-8.423 0-11.827l-.982-.982h-20.36c-.248 0-1.058.922-.947 1.596.093.546 1.058 1.289 1.075 2.005.017.743-.845 2.356-.862 3.303-.077 3.831.973 7.483 2.67 10.871l2.27.683.675 2.278c3.439 1.144 7.006 1.331 10.368-.222.904-.418 3.96-3.268 4.446-4.087.196-.324 1.604-3.413 1.647-3.61zm-1.22 63.334c.187-2.577-.487-4.719-2.364-6.536-2.202-2.125-3.405-1.622-5.931-1.954-.87-.111-1.553-.743-2.611-.675-.964.06-3.934 1.263-4.625 2.006-.615.657-3.175 3.72-3.533 4.352-.248.443-1.929 4.983-1.971 5.256-.086.632.554 1.246.554 1.878 0 .725-.631 1.553-.674 2.594-.7 17.45.751 35.328 0 52.548v76.843c1.954 1.937 3.678.41 5.581.341 5.453-.196 10.957.18 16.41.06l.341-.06c.964-2.978.845-6.332.674-9.48-.973-18.117.213-36.557-.674-54.503-.649-13.09 1.015-26.257.717-39.467-.026-1.16-.691-2.073-.717-3.225-.17-9.84.162-19.712.068-29.551l-1.254-.418zm-62.695 137.48c-5.623 1.306-5.93 6.12-.802 8.423 13.585-.222 27.187.23 40.772.009 9.19-.154 17.587-.495 26.872 0 1.988.102 5.418.239 7.27-.009.563-.077.973-.153 1.323-.648 1.945-8.704-2.023-8.312-9.208-7.894-13.952.81-28.245.58-42.026-.042-8.022-.367-16.18.221-24.201.162m41.583 9.063v111.343c0 .256 1.485 4.65 1.63 4.94.47.897 5.069 4.882 6.016 5.155h8.362c.444-.12 3.277-2.927 3.712-3.507.487-.657 2.543-5.308 2.629-5.914.418-2.858-.18-6.826-.043-9.898.282-6.179.316-12.203 0-18.339-.734-14.19.46-28.655 0-42.7-.341-10.462.964-20.651.043-30.917-.325-3.584 1.459-6.494-.086-10.095-7.279-2.056-14.805.692-22.263-.068m29.235 172.109h-103.79c-.214 0-2.424 1.527-2.646 1.954-1.135 2.219-.12 5.914 2.645 5.922 29.287 1.067 59.537-1.408 88.704-.025 3.106.145 3.977.23 7.21.042 1.64-.094 5.966.367 6.921-.307l1.852-6.067c.256-.53-.606-1.45-.904-1.528zm-103.398 91.366.23 4.574 3.303 1.954 43.716-.324 7.202-6.588c-.7-1.04-1.212-.913-2.278-.998-4.77-.376-10.266.085-15.147.043-1.826-.017-3.388 0-5.197 0-8.235 0-16.862-1.383-25.02-.717-2.355.188-4.744 1.024-6.81 2.056"/><path fill="#d9d5cb" d="M368.265 358.938c-.188 10.274.136 20.6 0 30.873 9.181-.162 18.414.222 27.588 0 .435-.008.879.009 1.314 0 0 .487-.376.487-.657.657-.307.188-.768.222-1.007.615l-.333 84.48c.017 1.04.52 1.911.683 2.927l-27.588.34v7.536h27.588c.034 66.696-2.62 134.963.025 201.31.427 10.632.837 19.003 1.937 29.26.069.64-.042 1.323 0 1.972-1.262-.563.23-1.87-1.612-1.98-7.749-.444-15.906.324-23.706.034l-4.241-.683c-.538-117.333-1.545-235.946-.657-353.732 0-1.075-.486-3.072.657-3.618z"/><path fill="#dad7cd" d="M397.824 724.83c.145 4.685-.265 10.948 1.314 15.112 1.724 4.557 2.364 16.282 3.26 22.025 6.955 44.373 20.6 79.949 49.954 113.604 18.176 20.839 40.619 36.566 50.261 64.034 6.153 17.528 8.286 40.482 7.501 58.786-.358 8.406.324 16.914.026 25.319-1.297-.145-4.702-2.782-5.564-3.96-6.204-8.473-6.23-19.217-8.363-29.081-4.48-20.668-12.56-39.962-23.611-57.84-2.85-4.607-6.767-10.342-10.394-13.618l.614-1.22c-1.536.238-1.211-.94-1.92-1.699-3.652-3.96-6.8-7.885-10.214-11.46-9.387-9.796-19.004-18.202-28.885-27.648-12.032-11.494-24.389-25.148-32-40.602l-1.05-.187c-11.742-23.808-19.396-50.381-20.523-77.065-.443-10.462.18-21.359.026-31.889 1.263-.555-.23-1.886 1.613-1.98 2.082-.102 3.533-.452 5.29-.631 2.782-.282 5.453.904 8.56.674 1.595-.12 2.696-.853 4.599-.717 2.91.205 6.46 1.724 9.497.034z"/><path fill="#c8c5bf" d="m368.265 716.288 4.24.683c7.8.29 15.95-.478 23.706-.034 1.852.102.35 1.416 1.613 1.98.128 1.945-.06 3.959 0 5.913-3.046 1.698-6.588.18-9.498-.034-1.894-.137-3.003.597-4.6.717-3.105.238-5.776-.948-8.558-.675-1.766.18-3.217.53-5.29.632-1.844.094-.35 1.425-1.613 1.98-.052-3.712.042-7.459 0-11.17z"/><path fill="#fbfaf8" d="m642.278 466.611 1.255.418c.094 9.848-.24 19.712-.068 29.551.017 1.152.69 2.074.716 3.226.299 13.21-1.365 26.376-.716 39.467.887 17.954-.3 36.386.674 54.502.17 3.149.29 6.502-.674 9.48l-.342.06c-5.453.128-10.957-.247-16.41-.06-1.902.069-3.626 1.596-5.58-.34V526.07c.75-17.22-.708-35.097 0-52.548.042-1.04.674-1.877.674-2.594 0-.631-.64-1.246-.555-1.877.034-.282 1.724-4.813 1.971-5.257.35-.631 2.91-3.695 3.533-4.352.691-.742 3.661-1.937 4.625-2.005 1.058-.068 1.733.563 2.612.674 2.525.333 3.72-.17 5.93 1.954 1.886 1.818 2.552 3.96 2.364 6.537zm-21.111 146.543c7.458.768 14.984-1.988 22.263.068 1.545 3.601-.239 6.511.086 10.095.921 10.266-.384 20.455-.043 30.917.46 14.037-.734 28.51 0 42.7.316 6.127.282 12.16 0 18.339-.136 3.072.46 7.04.043 9.898-.086.606-2.142 5.248-2.629 5.914-.426.58-3.26 3.388-3.712 3.516h-8.362c-.947-.282-5.547-4.267-6.016-5.163-.145-.282-1.63-4.676-1.63-4.94z"/><path fill="#e0ded9" d="m396.51 390.468-.017 86.4c-.103.546.734 1.622 1.007 1.622h47.291c1.084 0 2.74 3.754 2.8 4.949l-2.8 2.935H397.5c-.273 0-1.11 1.076-1.007 1.622v210.253l1.331 18.039c1.195.009 2.398-.06 3.601.017 9.89.632 20.762-.913 30.874 0 1.356.12 3.362.913 4.958.956 2.679 2.483 2.304 6.041-.982 7.586l-37.128-.017c.657-.836.597-.615 1.621-.674 10.948-.64 22.52.503 33.536.034l3.302-1.946c1.349-3.473-.879-4.369-3.95-4.659-9.95-.939-21.931.316-32.214.034-1.297-.034-2.475.196-3.61-.657-1.109-10.257-1.518-18.637-1.937-29.26-2.645-66.339 0-134.614-.025-201.31 1.519-2.578.4-5.41 0-7.885-.17-1.016-.666-1.886-.683-2.927l.333-84.48c.239-.384.7-.427 1.007-.615z"/><path fill="#dfdcd8" d="M650.402 785.263c.299.085 1.16.998.905 1.527l-1.852 6.068c-.964.674-5.282.204-6.92.307-3.235.188-4.105.102-7.211-.043-29.167-1.382-59.426 1.092-88.704.026-2.774-.009-3.79-3.712-2.646-5.922.222-.427 2.432-1.955 2.646-1.955h103.79z"/><path fill="#dfded8" d="M579.584 604.092c8.03.06 16.18-.52 24.2-.162 13.782.623 28.075.853 42.027.042 7.185-.418 11.153-.81 9.208 7.894-.35.495-.76.571-1.323.648-1.852.248-5.282.111-7.27.009-9.293-.495-17.681-.154-26.872 0-13.585.222-27.187-.24-40.772-.009-5.129-2.312-4.821-7.117.802-8.422"/><path fill="#fbfaf8" d="M643.499 403.277c-.043.196-1.451 3.285-1.647 3.61-.487.819-3.542 3.669-4.446 4.087-3.362 1.553-6.93 1.374-10.368.222l-.674-2.279-2.27-.682c-1.698-3.388-2.748-7.032-2.671-10.872.017-.947.879-2.56.862-3.302-.017-.717-.982-1.46-1.075-2.006-.12-.674.69-1.595.947-1.595h20.36l.982.981c-.512 3.396.7 8.73 0 11.827z"/><path fill="#e0ded8" d="M547.004 876.63c2.065-1.042 4.454-1.87 6.81-2.057 8.157-.666 16.784.708 25.02.717 1.808 0 3.378-.017 5.196 0 4.88.042 10.385-.427 15.147-.043 1.075.085 1.578-.034 2.278.998l-7.202 6.588-43.716.324-3.303-1.954z"/><path fill="#dedbd7" d="M399.138 724.83c-2.116 2.722.88 11.452 0 15.112-1.579-4.155-1.169-10.427-1.314-15.112-.06-1.954.128-3.968 0-5.914-.043-.648.068-1.33 0-1.97 1.143.852 2.313.622 3.61.656 10.29.29 22.263-.973 32.213-.034 3.072.29 5.29 1.186 3.95 4.66l-3.302 1.945c-11.016.47-22.587-.674-33.536-.034-1.024.06-.964-.162-1.62.674z"/><path fill="#c8c6bf" d="M395.853 478.49c.4 2.474 1.519 5.307 0 7.884h-27.588v-7.535l27.588-.34z"/><path fill="#86a846" d="m539.972 51.14 3.303.128 3.61-.845h3.165l3.465-.99.597-2.175-.12-3.021-.145-4.566.58-4.07 1.562-3.934.59-1.894 1.1-1.536 5.06-5.308 12.305-8.047 15.736-5.017 11.648 2.9 5.888 4.157s3.814 5.81 5.205 10.786c1.382 4.975 1.314 8.977 1.314 8.977l-.392 12.689-.99 5.905-1.587 5.64-1.75 4.984-2.014 4.548.265 4.292 17.843 27.11-12.006 37.138-13.986 32.725-10.752 39.322s-27.051 23.885-27.58 24.15c-.53.264-21.24 3.43-21.24 3.43s-61.747.128-62.805.529-13.064-.393-13.064-.393l-2.902-6.332 46.968-117.427 31.138-63.863z"/><path fill="#86a846" d="M473.37 124.433c1.135-1.323 4.096-5.205 3.857-6.792-.154-.99-4.566-7.527-5.53-8.943-.529-.768-1.39-1.255-1.911-2.023-6.35-9.446-12.894-22.741-7.92-34.142 3.2-7.33 9.037-11.69 15.378-16.153.87-3.857-.982-7.501-1.28-11.077-1.297-15.522 4.343-34.466 18.193-42.29 13.423-7.587 27.426 1.373 35.336 12.407 7.373 10.282 10.735 22.912 11.529 35.447 1.365.393 2.534-.537 3.627-.648 2.491-.24 8.405.367 8.866-2.953.75-5.308-1.007-10.07 1.433-15.641.435-.999 1.331-1.673 1.835-2.432.623 1.578 1.067 1.45 2.415.768 1.75-.888 1.024-2.117 2.517-2.083l1.647 2.629c-1.271.597-2.927.367-4.181.75-1.16.35-1.425 2.407-2.987 1.255-1.954 4.181-2.312 8.2-2.014 12.791.043.709.606 1.289.64 1.639.06.58.06 1.382 0 1.971-.025.23.051.486 0 .657l-1.314-.657-.657 1.971c-1.468-.12-2.483.342-3.61.401-.477.026-1.143-.486-1.937-.418-1.382.111-3.131 1.178-4.932.726-.188.392.085 1.024-.034 1.262-.034.077-.956.205-1.22 1.076-.23.75-.017 1.51-.094 2.21 0 .034-.546.06-.538.324.077.265.427.213.538.333-.836 1.792-.435 3.55-.657 5.256-.026.214.025.444 0 .657-.043.393-.52 1.87-.657 3.286-.069.742.12 1.536 0 2.278-.273 1.664-1.852 2.961-1.314 4.95-1.152 3.08-1.997 6.186-1.323 9.446l7.236 6.972c1.152 3.285 4.258 7.082 5.777 10.316.81 1.716 1.016 3.917 1.57 5.658.205.632.94.998 1.093 1.528.298.98.614 6.758.734 8.456.768 10.368-4.02 23.868-9.276 32.742-.623 1.05-1.732 1.426-1.903 2.706-.29 2.133.734 2.193 1.212 3.421 1.8 4.6 4.684 8.355 6.69 12.69.128.281-.145 1.134.315 1.962.342.606 1.596 1.664 2.313 1.98l1.314-3.943c-.145 1.647.504 4.566-1.698 5.214-1.732.512-2.227-1.476-3.55-1.928-.145 1.587.213 3.388 0 4.924-.17 1.228-1.143 2.048-1.314 3.285-.614 4.386 1.178 12.501-.99 16.085-.648 1.075-2.15 1.681-2.654 3.26-.435 1.365-.068 2.551-.358 3.584s-2.38 1.297-2.91 2.347c-.623 1.211-.068 2.44-.393 3.55-.477 1.663-2.449 3.421-3.191 7.321-.887 4.65-1.476 4.847-2.978 8.85-.81 2.167-.597 3.856-1.067 5.495-.23.793-1.672 1.578-1.246 3.029-1.732.06-3.49.008-5.23.026-4.156.025-8.33-.009-12.485 0v-.658c2.483-.017 12.826.64 13.833-1.05.443-1.842 1.783-3.84 1.194-5.76-.264-.844-1.8-1.467-1.228-3.037l3.857-2.39c-.342-3.6.887-6.963 1.382-10.444.418-2.953-.82-4.736 1.963-7.236.725-.649 1.817-.93 1.92-1.033.264-.29 1.937-6.716 2.022-7.5.546-4.728-1.297-4.071-1.869-5.983-.682-2.295-.128-4.428-3.03-6.024-1.023.392-2.235 1.04-3.31 1.177-1.681.214-5.675-.69-6.17 1.05-.793 5.419.922 13.124-.17 18.227-.777 3.644-3.943 1.715-4.847 3.038l-.598 4.66c-.443.656-3.72 1.808-4.642 1.928-3.456.427-3.95-1.621-6.903 1.647-.623.691-.862 1.638-1.604 2.338-1.178 1.11-3.345 1.92-4.259 3.652l1.298 4.523-1.187.452-1.467 7.774c1.092.009 2.193-.009 3.285 0v.657c-1.527 0-3.072-.017-4.6 0-1.177.017-2.372-.102-3.558.068l-.384.59c-1.092.016-2.193-.01-3.285 0l2.654-2.322c.12-1.348.05-2.876-1.664-2.935l-1.468 2.62-.828 2.636h-.657c-1.177.026-2.372-.102-3.558.068l-.384.59c-.435.042-.88-.035-1.314 0-.888.076-1.545.554-2.304.648-1.955.23-4.813-.845-5.581 1.322-4.506.922-9.208 3.73-13.799 1.972l-8.541-4.6c.281.128 1.186-.06 1.98.299 3.216 1.433 6.126 3.405 9.54 4.326l8.183-2.32c-2.364-1.29-4.395-3.098-6.58-4.592-16.17-11.059-28.458-25.822-34.26-44.928-1.332-.682-2.893-5.794-3.525-7.944-1.877-6.426-2.483-13.218-3.908-19.738-.649-.683-1.306-1.323-2.074-1.869-4.3-3.114-8.209-5.76-12.1-9.6-2.901-2.858-6.374-6.16-8.823-9.549-1.246-1.723-2.44-4.846-3.806-6.417-1.144-1.314-.683-.802-1.656-2.577-7.1-12.979-11.119-26.837-7.236-41.762.836-3.208 2.893-6.357 3.447-9.685l5.743-9.063 1.178-.759c-4.01-.46-7.262.563-10.965 1.843-.785.273-2.228 1.707-2.833.128 4.138-1.98 6.195-2.278 10.82-2.637.674-.05 1.323-.64 1.988-.64s1.314.59 1.988.64c11.87.896 22.392 8.423 29.884 17.408 1.81 2.168 3.473 5.24 5.24 7.57-.145 2.175 1.706 2.875 2.628 3.942 10.846 12.476 18.457 34.406 26.598 49.271.393.709.598 1.468 1.323 1.963l1.126-11.358c.717-2.995 1.87-5.896 3.806-8.345.273-.342 1.69-.59 1.314-1.972z"/><path fill="#86a846" d="M608.683 18.014c10.274 14.805 7.296 31.94 1.834 48.145-.503 1.493-1.621 2.56-1.177 4.412h1.314c4.403-.043 10.317-6.204 15.087-2.936 2.611 1.784 8.61 10.01 10.01 12.98 8.345 17.723 2.27 42.026-9.985 56.644-3.26 3.882-7.961 8.576-11.86 11.784-2.868 2.355-11.632 7.45-13.023 9.976-1.066 1.937-.46 2.79-.76 4.497-.861 4.855-2.116 9.489-3.276 14.13.606-2.653-.836-3.097-1.212-4.368-.23-.768.034-1.664-.196-2.432-.376-1.255-2.15-1.63-.538-4.053l-1.058-1.58c-1.271-.375-6.972.803-8.38 1.375-1.22.495-2.286 2.517-4.053 2.534-2.355-.025-2.236-1.843-2.918-2.338-1.545-1.126-7.57-1.246-9.583-.981-.563.076-.973.153-1.323.648l-.299 5.94c3.132-1.323.734-5.513 5.257-4.6-.333 1.8 1.74 5.146.026 6.272-1.52.998-3.482-.862-5.189 2.04-1.254 2.133-.41 3.66-.853 5.717-.162.734-1.11 1.723-1.092 2.09.017.325 2.927 4.19 3.524 5.547.478 1.092.299 2.278 1.05 3.55.486.82 1.604 1.468 1.8 2.142.657 2.244-.025 4.574-1.22 6.442l2.56 2.748c-1.843 4.412 2.116 5.94 5.87 4.105l.752-3.192c1.194.657 1.664 1.69 3.285 1.314-.008-2.662 2.654-4.693 4.54-6.306l.094-3.515 2.5-.786c1.152-1.68.392-3.84.836-5.41.265-.93 1.963-1.655 2.432-2.824.7-1.724.435-4.19.862-5.709.213-.76 2.27-3.183 2.534-4.36-2.875 11.562-5.649 19.464-12.125 29.585-1.545 2.414-8.687 12.245-10.872 13.107-.273.11-.99-.197-1.246.06s.051 1.04-.06 1.254c-.025.043-.4.273-.657.657-1.365-.393-2.295 1.783-2.935 1.818-.282.008-.802-.47-1.34-.478-1.425-.034-2.85-.034-4.266-.017l.503 3.635c-.973.614-1.476 2.312-1.946 2.799-.964.973-3.771 1.246-3.9 3.32l-6.468 2.073c-.418-.06-.887.034-1.314 0-.742-1.383-3.038.298-2.68-1.929l-1.586.615-3.618-.982c.776-1.015 1.954-.913 2.986-1.612 2.176-1.468 2.21-4.796 5.555-3.968l.06-2.569 5.845-3.02c3.03-2.015 2.16-3.064 2.74-5.795.35-1.63 2.176-2.594 2.432-3.482.222-.768-.043-1.68.17-2.449.427-1.484 3.183-1.4 3.217-4.027.128-1.656-2.304-3.098-2.585-4.02-.435-1.416 1.263-5.068.503-7.714-.222-.76-1.51-1.638-1.775-2.824s.009-2.244-.4-3.542c-.65-2.048-2.638-1.937-2.33-4.872.332-3.157.042-1.382-.572-3.396-1.51-4.916 2.21-7.527 1.869-11.717-.069-.836-.87-1.578-.598-2.551.572-2.014 4.028-2.671 5.837-3.072v-6.502c-1.69-.598-3.063-1.076-4.574.29-.546.495-.614 1.237-.99 1.655-.52.572-1.373.546-1.536.743-.145.17-1.134 3.635-1.288 4.292-.649 2.765.973 2.551-2.756 3.49.187-1.81.87-4.3 1.63-5.922 2.107-4.514 6.698-6.468 10.88-8.84 1.646-.93 3.89-2.168 5.563-3.61 5.854-5.052 8.192-10.47 12.05-16.854.545-10.504-.41-21.299.093-31.76 1.963-1.366 2.142-3.9 3.644-5.88 3.43-4.548 6.724-7.876 10.12-12.868 1.357-1.997 5.07-5.863 7.177-6.955l.094-1.895 1.638.043c.504-1.314.444-2.91 1.084-4.181.964-1.912 1.98-1.22 1.852-4.395 1.536-1.04 1.39-2.978 1.314-4.6 2.859-5.247 2.603-10.47 2.628-16.417l.691-.982-.69-.981c-.026-1.954.127-3.968 0-5.914-.206-3.157-1.716-8.303-2.928-11.195-.691-1.647-2.346-3.09-2.33-5.223z"/><path fill="#6f8e39" d="M386.662 68.6c.598 1.578 2.04.145 2.833-.129 3.695-1.28 6.955-2.304 10.966-1.843l-1.178.76-5.743 9.062c-.554 3.328-2.62 6.477-3.447 9.685-3.891 14.934.136 28.783 7.236 41.763.973 1.775.504 1.263 1.656 2.577 1.365 1.57 2.551 4.693 3.805 6.417 2.45 3.387 5.923 6.69 8.824 9.549 3.891 3.831 7.8 6.485 12.1 9.6.768.554 1.425 1.194 2.074 1.868 1.425 6.52 2.04 13.312 3.908 19.738.623 2.142 2.185 7.262 3.524 7.944 5.803 19.107 18.082 33.87 34.262 44.928 2.184 1.494 4.207 3.303 6.579 4.591l-8.184 2.321c-3.413-.921-6.323-2.892-9.54-4.326-.794-.35-1.698-.17-1.98-.299-7.407-3.285-15.078-9.446-20.394-15.428-7.126-8.013-13.099-20.83-15.6-31.676-1.97-8.55-1.578-17.254-3.054-25.847-3.456-2.005-7.066-3.849-10.445-5.982-13.312-8.397-25.387-19.994-31.642-35.362-4.335-10.641-6.818-28.774.999-38.11.17-.205.887-.444 1.331-.956 1.11-1.305 2.859-3.473 3.268-4.958 2.978-2.978 3.883-4.002 7.885-5.913z"/><path fill="#a1c05f" d="M610.654 70.562c7.808-5.436 18.423-6.144 27.127-2.492.666.282 4.122 1.81 4.31 1.963.179.137.008.785.23 1.016 2.261 2.414 5.402 3.89 7.757 7.057 8.96 12.032 6.553 29.329.981 42.393-4.062 9.532-11.605 18.859-19.388 25.609-.998-.128-1.706.367-1.97 1.314-1.23.998-2.57 2.603-3.969 3.584-2.602 1.826-17.229 9.881-17.63 11.272-.273 1.707.077 3.448-.093 5.163-.837 8.516-.88 17.17-3.405 25.498-5.905 19.473-19.507 34.33-37.965 42.504-1.34.589-4.736 2.313-5.692 2.518-3.754.827-12.783-1.997-17.297-2.518l-4.94-1.297c-11.53-1.314-23.066-1.425-34.8-1.323-1.083.009-3.072-.486-3.618.658-.222.008-.435-.018-.657 0-2.056.136-4.232-.18-6.272-.026-2.79.205-6.101.375-8.84.683v-.657c.435-.035.879.042 1.314 0 1.169-.111 2.38.17 3.558-.069l.384-.589h1.971c1.093-.008 2.193.018 3.286 0 1.177-.017 2.372.103 3.558-.068l.384-.589c1.528-.017 3.072 0 4.6 0 3.498-.008 7.014.009 10.513 0 4.155-.008 8.328.026 12.484 0 .555 1.152 2.526.623 3.61.657 3.157.086 6.016.768 9.181.675l10.855 1.954c.426.034.896-.06 1.314 0 .043 0 .136.495.444.571 1.45.35 2.782-.443 4.121-.93 4.173-3.993 12.723-8.192 15.795-12.783.256-.384.632-.614.658-.657l1.314-1.314c2.184-.87 9.318-10.692 10.871-13.107 6.477-10.12 9.25-18.022 12.126-29.585 1.152-4.642 2.415-9.276 3.277-14.131.298-1.707-.307-2.56.76-4.497 1.39-2.526 10.145-7.612 13.021-9.976 3.908-3.208 8.61-7.902 11.861-11.784 12.254-14.618 18.33-38.93 9.984-56.645-1.399-2.97-7.406-11.195-10.01-12.979-4.778-3.268-10.691 2.893-15.086 2.936z"/><path fill="#82a442" d="M608.683 18.014c-.017 2.133 1.638 3.575 2.33 5.222 1.211 2.893 2.721 8.039 2.926 11.196l-2.628-3.942-.674 4.582c-2.031.154-4.01.196-5.572-1.289-1.016-.733-.777-3.882-1.323-3.959-3.388-.444-2.338.162-3.567 1.673-1.988 2.449-6.178-.256-8.85.358-1.663.478-.503 4.838-2.747 5.794l-4.83-.623-.034-3.251h-3.942c.7 6.46-4.787 5.222-9.464 5.325-1.024.307-1.297 2.38-2.346 2.91-1.212.623-2.432.068-3.55.392-.913.265-1.596 1.826-2.373 2.227-1.22.632-4.701.436-4.633 2.603l.683 1.655h-1.955l-.674-1.97h-.657c-.034-.342-.597-.93-.64-1.64-.298-4.59.051-8.6 2.014-12.79 1.57 1.16 1.835-.905 2.987-1.255 1.254-.384 2.91-.154 4.181-.75l-1.647-2.63c-1.493-.033-.76 1.195-2.517 2.083-1.34.683-1.792.81-2.415-.768 1.46-2.227 2.253-3.388 4.258-5.282 6.306-5.965 19.106-13.696 28.228-14.447 7.168-.597 14.473 1.485 19.09 7.27.375.47.221 1.152.324 1.297z"/><path fill="#8a9d64" d="m374.178 80.418.094-.887c1.041-2.296 2.91-3.44 4.506-5.026-.41 1.484-2.16 3.652-3.269 4.957-.435.512-1.152.751-1.33.956"/><path fill="#a6bc78" d="M439.21 94.874c-.92-1.067-2.773-1.767-2.628-3.943.069.094.606.196.956.657.666.888 1.604 2.219 1.673 3.286"/><path fill="#abbc88" d="M472.055 126.404c-.298-1.39.948-1.544 1.315-1.97.375 1.381-1.041 1.629-1.315 1.97"/><path fill="#bfcd96" d="M631.68 146.108c-.99.862-1.664 1.066-1.971 1.314.264-.947.973-1.442 1.971-1.314"/><path fill="#89ab45" d="m490.445 232.815.828-2.637 1.467-2.62c1.715.06 1.784 1.588 1.664 2.936l-2.654 2.32h-1.314zm-5.914.657v.657c-2.201.248-5.59.845-7.885 1.314.768-2.167 3.619-1.092 5.581-1.322.76-.094 1.425-.572 2.304-.649m29.56-1.971v.657c-3.499.008-7.015-.009-10.513 0v-.657c3.49.034 7.014.025 10.513 0"/><path fill="#82a442" d="M540.373 62.029c.222-1.707-.179-3.465.657-5.257.188.205.734.094.692.956zm.657-5.914c.077-.7-.145-1.45.094-2.21.273-.87 1.186-.998 1.22-1.075.086 1.357.257 2.876-1.314 3.285m13.79-6.57c-.23.733-.819 1.16-1.33 1.68l-.325.171c-.222.017-.282-.537-.316-.537l.657-1.972z"/><path fill="#89ab45" d="m489.788 232.815-.384.589c-1.178.239-2.39-.034-3.559.068l.384-.589c1.178-.179 2.373-.051 3.559-.068m9.199-.657-.384.589c-1.178.179-2.373.05-3.559.068l.384-.589c1.178-.17 2.373-.051 3.559-.068"/><path fill="#82a442" d="M539.716 65.971c.137-1.416.615-2.893.657-3.285l-.068 2.893-.589.384z"/><path fill="#7b9e3e" d="M554.82 48.887c.06-.58.06-1.39 0-1.97h.657l-.068 1.56z"/><path fill="#89ab45" d="M571.904 222.31c-3.072 4.591-11.622 8.79-15.795 12.783-1.34.487-2.671 1.28-4.122.93-.316-.076-.4-.571-.444-.571l6.469-2.074c.128-2.073 2.944-2.347 3.9-3.32.477-.477.98-2.184 1.945-2.798l-.503-3.635c1.416-.018 2.841-.009 4.266.017.538.008 1.058.486 1.34.477.64-.025 1.562-2.201 2.935-1.817z"/><path fill="#82a442" d="M611.31 58.743c.078 1.622.223 3.559-1.313 4.6-.06-1.408-.23-2.961 0-4.6zm2.63-16.426c0-.657.008-1.314 0-1.971l.69.98-.69.982z"/><path fill="#89ab45" d="m573.875 220.34-1.314 1.313c.12-.213-.205-.99.06-1.254s.981.051 1.246-.06z"/><path fill="#e2ecb7" d="M543.659 235.443c4.514.53 13.55 3.345 17.297 2.518.955-.214 4.352-1.929 5.691-2.518-.597 1.374-2.466 1.954-3.746 2.518-.87.384-1.066-.077-.853 1.425 1.314.128 2.492.819 3.746 1.177 14.123 4.054 33.067 12.945 43.682 22.298 2.5 2.201 5.794 3.891 8.09 6.058a161 161 0 0 1 5.256 5.257c17.912 18.73 29.901 44.945 31.847 71.629.205 2.79.589 6.255.682 8.84.41 11.12-.315 22.35-.085 33.477-.478 1.664-5.069.98-6.827 1.058-1.561.068-2.756 1.382-4.65-.64-.93-8.081.222-16.546-.265-24.696-.35-5.785-2.142-11.63-1.305-17.672l-1.383-.726c-.529-14.028-4.761-27.52-10.342-40.166-.572-1.297-2.023-5.897-2.919-6.656-1.851-1.562-.554-.512-1.245-2.978-.256-.896-4.497-6.699-5.3-7.51-.128-.127-2.594-1.834-2.91-2.013-1.425-.794-3.49-1.118-5.068-.649-.128.034-2.185 1.237-2.279 1.331-.315.316-1.425 5.112-1.365 5.385.273 1.229 2.287 3.328 1.212 5.965l1.374.75c.264 4.336 2.858 7.527 3.814 11.862 3.43 15.462 5.572 31.078 6.042 47.164.239 8.243.87 21.094-.035 28.928-.093.793-.682 1.45-.69 2.27l-5.223.034c-21.461-2.876-43.273-4.19-64.555-8.687-3.806-.802-7.765-2.193-11.452-2.995-22.084-4.788-46.318-3.328-68.044 1.314-6.187 1.322-11.887 2.764-17.86 3.814-9.123 1.604-19.073 4.292-28.28 5.222-2.543.256-5.376-.247-7.893-.008-1.775.162-3.619 1.135-5.24 1.323-4.352.503-10.88.537-15.42.674-.435.008-.879-.009-1.314 0 .854-1.144.623-2.313.657-3.61.99-35.396 4.625-68.31 23.749-99.089 12.672-20.403 29.081-35.336 49.792-47.428 7.663-4.472 12.876-3.977 21.367-4.907 2.45-.273 6.084-1.152 8.226-1.297.222-.017.435.009.657 0 14.097-.81 29.526.358 43.358 1.971zm-50.637 42.087c-1.51.153-2.765-.623-4.19-.734-8.917-.709-18.159.392-26.931 0-4.054-.188-14.328-.53-17.656.802-1.945.776-2.04 2.97-1.775 4.83.248 1.75 2.782 2.338 4.284 2.935h42.027c4.471-.862 6.127-3.507 4.232-7.833zm63.573 33.587c-3.763.648-4.454 2.927-3.447 6.477l3.302 1.954h48.64c2.953-.93 3.61-3.746 2.628-6.597l-3.302-1.954-47.82.128zm-102.323 24.226c-1.655-.367-3.115-1.229-4.855-1.391-11.657-1.092-24.986.887-36.83.009l-3.559 1.365c-.546 2.876-.623 4.966 1.92 6.878l39.757.307c2.304-.273 1.86-1.195 2.466-1.81.248-.255.794 0 1.17-.554 1.066-1.604-.197-2.995-.06-4.804z"/><path fill="#c2ce9b" d="M499.644 233.472c-2.142.154-5.777 1.033-8.226 1.297-8.491.93-13.705.435-21.368 4.907-20.71 12.091-37.12 27.016-49.792 47.428-19.123 30.78-22.758 63.701-23.748 99.09-.034 1.296.196 2.474-.657 3.609-9.174.222-18.407-.162-27.588 0 .136-10.274-.188-20.6 0-30.874.546-30.14 8.396-56.798 28.074-79.624 10.752-12.468 24.977-23.834 40.807-30.208l1.937-1.076c2.91-1.74 3.882-2.21 6.502-3.26 5.265-2.107 11.75-3.396 16.606-5.742 1.323-.64 1.809.187.674-1.613 4.591 1.758 9.284-1.05 13.798-1.971 2.296-.47 5.684-1.067 7.885-1.314 2.74-.308 6.05-.478 8.84-.683 2.04-.154 4.216.162 6.273.025z"/><path fill="#eef5d3" d="m615.91 389.154 5.223-.034c0-.82.597-1.476.691-2.27.905-7.833.273-20.685.034-28.928-.47-16.094-2.611-31.71-6.041-47.164-.965-4.335-3.559-7.535-3.815-11.86l-1.374-.752c1.075-2.637-.938-4.736-1.211-5.965-.06-.273 1.05-5.06 1.365-5.384.094-.094 2.15-1.297 2.278-1.331 1.579-.47 3.644-.145 5.07.648.315.18 2.78 1.895 2.909 2.014.802.81 5.052 6.613 5.3 7.51.69 2.465-.598 1.416 1.245 2.977.896.76 2.338 5.35 2.918 6.656 5.581 12.647 9.814 26.138 10.343 40.167l1.382.725c-.836 6.042.956 11.887 1.306 17.673.495 8.15-.666 16.614.264 24.695 1.895 2.023 3.08.708 4.651.64 1.75-.077 6.349.606 6.827-1.058-.23-11.127.495-22.357.085-33.476-.094-2.586-.486-6.05-.683-8.84l1.34 8.84c0 11.503-.102 23.023-.026 34.517-1.015 1.434-.512 1.212-2.27 1.314-5.333.325-11.101-.315-16.435-.674-7.116-.478-14.472.282-21.359-.64z"/><path fill="#d1dfa3" d="m556.595 311.117 47.821-.128 3.302 1.954c.982 2.859.325 5.666-2.628 6.605h-48.64l-3.302-1.954c-.999-3.55-.316-5.82 3.447-6.477"/><path fill="#d0dfa2" d="M493.022 277.53c1.894 4.326.239 6.98-4.233 7.825h-42.026c-1.51-.59-4.037-1.178-4.284-2.927-.265-1.86-.18-4.054 1.775-4.83 3.32-1.323 13.593-.981 17.655-.802 8.773.4 18.014-.7 26.932 0 1.425.11 2.679.879 4.19.734zm-38.75 57.813c-.137 1.809 1.126 3.2.06 4.804-.376.563-.922.307-1.17.555-.605.606-.161 1.536-2.465 1.809l-39.757-.307c-2.535-1.912-2.458-4.002-1.92-6.878l3.558-1.365c11.844.87 25.173-1.11 36.83-.009 1.732.162 3.191 1.024 4.855 1.39z"/><path fill="#c2ce9b" d="M543.659 235.443c-13.833-1.613-29.253-2.773-43.358-1.971.546-1.143 2.534-.649 3.618-.657 11.733-.102 23.27 0 34.799 1.323l4.94 1.297z"/></svg>