<svg xmlns="http://www.w3.org/2000/svg" viewBox="0 0 1024 1024"><path fill="#bfcfd0" d="m883.515 613.933-1.817 2.287.034 308.289c0 2.543.29 4.924.452 6.255 0 1.067-.085 3.02-.307 4.01l-2.517 1.52.64 6.664c-3.823 16.665-14.712 33.988-26.513 46.438-1.383-.35-7.936-1.127-9.301.58l-7.57 9.455c-.187-.913-.571-4.343-.477-5.598l.281-3.806c.077-1.015-1.723-.503-4.369-.435l-10.316 6.05c-2.56 1.502-8.244 1.997-12.075 1.51l-14.643-1.877c-3.157-.4-8.96-.58-11.725-.298l7.962-3.038c13.56-5.18 25.634-13.449 37.128-22.22 11.4-8.696 15.923-16.24 20.633-30.09 2.646-7.781 4.497-16.494 4.497-24.745V876.27l-.136-314.143-.265-18.347-.708-30.66-.683-33.493.163-2.44-.427-39.996.614-49.953 1.203-37.94-.324-18.107-.47-25.872-.136-7.433-.35-11.11c-.733-23.083-13.072-44.458-31.402-58.461-2.295-1.75-7.45-4.25-9.881-5.479l-12.425-6.297-12.091-6.409c-3.559-1.886-8.704-5.384-10.863-8.456l-6.716-9.532c-1.587-2.253-2.85-8.849-2.858-11.562l-.137-47.863c0-1.656-2.637-5.888-4.403-5.88l-77.653.188-28.663.06-9.898 1.032-37.777-.128-8.44-.06-37.75-.034-10.019-.554-12.168-.205-37.862.341-16.922.29-21.426.24c-5.334.059-10.718.153-16.043-.103l-16.042-.76-84.198-.145-26.189.76-58.026-.982c-1.851-.034-6.4 1.298-8.285 2.014l.136 44.126c.06 20.224-6.588 30.762-23.842 39.91-5.802.879-13.952 4.113-19.413 6.818-10.41 5.145-6.315-5.376-16.367 5.777-6.681 7.415-5.026-1.118-14.685 6.613-2.535 2.031-4.515 3.584-6.119 4.497l-7.244 4.13c-9.635-12.663 17.843-26.538 13.405-28.62l-3.49-1.639c3.43-5 9.028-9.267 15.01-12.578l17.894-9.907c3.601-1.997 9.088-8.26 9.233-12.86.52-16.511.325-31.888-.452-47.086-7.757-1.51-13.27-2.841-19.353-5.862-15.864-7.868-17.81-31.13-13.082-41.532 2.014-4.42 12.578-7.73 12.698-13.235.17-8.072-12.442-9.258-13.227-33.16-.427-12.876 6.733-28.672 21.197-30.899C222.555.76 239.22.998 256.168.981L400.542.853l190.3.111 46.361.111 124.142-.47c26.274-.102 64.272-5.648 72.95 19.192 2.33 6.673 1.93 15.872.137 22.92-5.265 20.736-15.138 19.286-7.296 28.075 9.822 11 12.945 27.067 6.835 40.226-9.318 20.078-29.968 9.318-29.951 20.257l.06 43.017c.016 12.97 19.566 18.056 31.487 24.49 13.491 7.287 23.927 19.191 32.896 31.539 8.652 11.912 14.873 33.05 14.933 46.54l.341 80.546-.06 182.201-.136 74.325zM216.122 24.661v25.924l590.1.043V24.704zM803.38 70.783l-587.907.103v30.156l587.915-.102V70.783z"/><path fill="#ccd9d9" d="M230.125 212.82c-15.096 8.012-30.857 15.734-41.037 30.924-3.02 4.505-7.134 10.47-9.08 15.189-3.284 7.978-7.85 24.217-7.833 32.179l.333 150.262.12 14.267.81 6.545-.452 31.283-.75 38.28.161 68.198.555 11.554.068 20.412.18 10.41.58 13.91.136 3.634-1.186 10.24.35 14.32-.06 16.22c.205 3.26.657 7.817.674 11.418l.128 38.434v3.593l.034 10.461c0 1.81-.76 5.794-.64 7.612l.52 8.038-1.945 1.835.478 20.522-.128 27.913-.222 32.247-.162 67.506c0 3.405 2.398 10.607 3.704 13.252l6.485 13.116-6.938 2.108c-6.886 2.09-15.368-3.354-15.974.35l-1.024 6.237 1.86 3.72c.376.752-3.66.82-3.49.607-8.012-6.503-15.155-26.257-15.214-38.613l-.367-74.367-.026-110.66-.486-204.243.298-222.436c.034-28.28.751-65.459 17.203-86.22.88-.734 3.09-2.833 3.891-3.917l5.521-7.415c.87-1.17 2.21-3.772 2.68-4.966 1.783-2.117 4.207-4.557 6.323-6.383l3.49 1.638c4.437 2.082-23.031 15.957-13.406 28.62l7.245-4.13c1.604-.913 3.576-2.466 6.118-4.496 9.66-7.732 8.005.802 14.686-6.614 10.052-11.153 5.956-.631 16.367-5.777 5.47-2.705 13.61-5.939 19.413-6.818z"/><path fill="#b0c5c6" d="m181.937 956.585 2.057 2.074.648 5.103 8.986 7.79c1.425 1.238 4.77 2.74 6.408 3.406 1.545 1.228 4.72 3.618 6.75 4.684l12.459 6.528c7.313 3.832 23.722 8.141 30.941 8.286l48.06.973 15.897.17 31.965.282 14.498.324 70.152.657 334.359-.128c6.203 0 13.602-1.28 18.175-1.749 2.765-.281 8.568-.102 11.725.299l14.643 1.877c3.831.495 9.515 0 12.075-1.51l10.316-6.05c2.646-.069 4.446-.58 4.37.435l-.282 3.806c-.094 1.254.298 4.684.478 5.597l7.569-9.454c1.365-1.707 7.91-.93 9.3-.58-19.643 20.71-53.52 34.78-83.779 34.593l-56.575-.358-166.117-.265-24.32.103-134.176-.623-76.279-.154c-38.229-.077-66.465 2.38-103.653-10.334-17.52-5.99-44.988-26.077-52.198-42.743-.162.222 3.865.145 3.49-.606l-1.86-3.72 1.024-6.238c.606-3.703 9.096 1.74 15.974-.35l6.937-2.107z"/><path fill="#e7edeb" d="m851.447 437.2-7.594-5.861c-8.858-6.836.034-3.849-12.058-12.024-5.734-3.882-12.987-2.346-18.124 2.193l-10.308-6.05c-7.305-4.292 6.408-8.712 2.5-16.256l-5.82-11.22c-2.824-5.445-10.479-4.344-15.863-2.211-18.287 7.245-12.851.845-20.36 12.066-.854 1.28-4.43 4.454-5.556 3.439-7.21-6.502-.034-5.53-6.084-16.589-5.478-10.018-12.057-18.355-22.715-21.58l-9.89 9.13c-8.696 8.03-14.345-7.057-19.789.93-3.541 5.197-10.778 5.854-13.525 1.878l-2.381-3.44c-1.382-1.996-6.161 5.326-11.571.137-3.738-3.584-2.74-11.758-1.314-17.143l2.824-10.658c.546-2.056 1.289-5.76 1.4-7.569.324-5.282-11.46-.12-15.949-7.108-1.792-2.782-5.384-6.161-7.594-6.29-15.13-.844-13.543 12.98-17.4 10.608l-4.685-2.885 7.33-10.47-6.041-6.733-14.131-2.474-2.347 10.624c-2.295 10.419-1.851 3.464-23.347 1.45-2.124-.196-5.444-1.527-5.188-3.02l2.04-11.691c-3.09-7.902-20.514-20.497-27.264-13.85-5.231 5.155-8.388 10.54-11.972 16.717-2.031-.025-7.518-3.32-6.844-5.282.845-2.483 2.688-7.944 2.202-10.393-1.084-5.487-8.064-13.483-15.505-12.553-4.335.538-11.563 5.01-12.868 8.465l-3.627 9.583-9.498-1.928c-14.335-2.91-9.898 12.1-16.93 13.26-18.483-9.531-14.796 3.098-26.316 5.94l-5.914 4.974-13.311-3.95-11.46 10.12c-4.532-4.31-13.722-6.69-18.21-2.646l-9.524 8.576c-20.47 18.432-.836 1.826-16.494 18.338-2.987-2.167-5.462-4.207-6.725-4.292l-21.35-1.468c-10.735-.734-1.834 20.463-9.42 20.924l-15.924-5.18-14.515-4.855c-6.16-2.057-18.636 15.018-20.82 17.527-.735.836-3.448 2.244-4.447 2.526-1.34.375-3.413-4.036-3.387-5.547l.768-48.264c.145-9.378 7.97-35.276 13.021-42.52l11.614-16.666 7.441-10.607 13.944-18.611c-2.066-2.458-5.504-6.562-7.211-8.167-10.394-2.38-25.779-1.98-36.958-.435-15.547 2.15-7.654 2.15-28.39 9.046-11.716 3.89-22.246 13.166-27.946 23.986l-7.364 13.97c-1.195 2.278-2.193 9.284-2.253 11.895l-.708 30.114-.435 66.073-1.315 16.545c-.69 8.696-10.692 4.532-11.374 8.687-2.014 12.322 1.792 16.248-.436 16.546-9.54 1.272-7.202-5.393-14.327-2.338-13.798 5.905-13.815 6.29-16.845 15.89-1.34 4.249-3.712 10.81-3.43 14.37l1.1 13.823 9.652 12.68-1.869 9.677c4.284 10.385-3.114 24.542 1.17 32.845l-.82 7.893c-.205 2.005 1.698 7.185 1.937 9.37.282 2.491-2.748 8.387-2.713 11.05l.426 38.195c.214 19.336 2.065-.188.214 21.683l-1.212 14.25-7.646 7.057 2.193 4.386c2.466 4.924 2.517 12.757-1.024 16.777l-3.217 3.66-.58-13.909-.18-10.41-.068-20.412-.554-11.554-.162-68.198.75-38.28.453-31.283-.811-6.545-.12-14.267-.332-150.262c-.017-7.97 4.548-24.209 7.833-32.18 1.946-4.718 6.05-10.683 9.08-15.188 10.18-15.18 25.94-22.912 41.036-30.925 17.246-9.147 23.902-19.686 23.842-39.91l-.137-44.125c1.886-.717 6.434-2.04 8.286-2.014l58.026.981 26.189-.76 84.197.146 16.043.76c5.325.255 10.71.162 16.042.102l21.427-.24 16.922-.29 37.862-.34 12.168.204 10.018.555 37.751.034 8.44.06 37.776.128 9.899-1.033 28.663-.06 77.653-.187c1.766 0 4.403 4.224 4.403 5.88l.136 47.862c0 2.705 1.272 9.31 2.859 11.563l6.716 9.531c2.159 3.072 7.304 6.57 10.862 8.457l12.092 6.408 12.425 6.298c2.431 1.229 7.586 3.729 9.881 5.478 18.33 14.003 30.669 35.37 31.402 58.461l.35 11.11.137 7.433.47 25.873.323 18.107-1.203 37.94-.614 49.953zm-155.134-73.479 7.757 1.536c3.686-1.911 6.34-8.499 4.505-13.064-4.24-10.522-14.046-15.556-23.995-11.853l-5.7 15.94 11.818 5.624c1.024.486 4.267 1.544 5.615 1.809z"/><path fill="#ebf6f5" d="M215.473 70.834H803.38v30.157H215.473z"/><path fill="#e9f2f2" d="M216.087 50.602V24.678h590.1v25.924z"/><path fill="#e7edeb" d="m173.814 750.5-.128-38.435c-.009-3.6-.47-8.157-.674-11.417l.06-16.222-.35-14.319 1.186-10.24c2.679-.657 1.766 11.281 3.063 21.444 1.289 10.12.333 19.021-.435 29.124-.956 12.604-.649 24.85-.683 38.025l-2.048 2.03zm.034 14.053-.017-10.461c2.96-2.944 2.918 13.465.017 10.461"/><path fill="#ccd9d9" d="M200.036 974.958c-1.638-.657-4.983-2.168-6.408-3.405l-8.986-7.791-.648-5.103 10.726 9.805c1.579 1.442 4.139 4.83 5.316 6.485z"/><path fill="#fdfdfc" d="m851.447 437.2.427 39.996c-1.485.068-5.504-.205-6.886-1.058-18.176-11.255-6.016 1.391-20.37-7.927-4.001-2.603-12.756 9.318-11.792 11.665l8.362 20.25c-3.413 5.58-12.484 13.251-19.029 8.558l-9.429-6.758-7.637 5.35-5.53 3.848-1.749 20.01-8.508-.033-5.137.085c-7.415.12 9.873 18.492 9.814 18.415 2.5 2.841 2.816 12.237.52 15.215s-5.248 7.38-4.89 10.086l1.733 13.15c1.015 7.73-2.262 11.912-10.59 14.216-4.966 1.374-18.21 14.882-16.7 21.436l-7.5 7.62 4.24 13.303c6.076 19.038 4.549 5.35 8.167 25.497l-12.791 10.838c-.248 2.107-.384 8.601-1.289 10.777l-4.813 11.537c-1.544 3.695-5.725 6.417-10.615 7.936l6.801 8.772c1.681 2.168.947 7.774-1.203 9.404l-8.32 6.323-15.804 2.483c-1.638.256-5.632 1.092-5.93 1.203l5.59 13.62c1.1 2.67-4.882 7.876-7.34 9.514-14.497 9.685 2.057 16.179-24.95 27.58l-1.98 10.265-13.09 10.786c-2.33 1.92-4.924 7.04-7.356 10.666-2.56 3.815-8.806 7.501-12.757 11.102-3.891 3.55-6.93 12.92-10.863 15.949l-10.633 8.183c-3.217 2.475-5.956 5.06-8.925 7.126l-12.408 8.627 5.427 8.678-10.504 8.08-8.038-5.35c-2.279-1.518-8.832-2.44-11.29-1.254-.836.401-2.278 5.274-1.954 4.932 2.85 5.573 3.09 10.326 1.46 16.324l5.435 7.552c-.11 4.549-6.178 10.309-11.64 9.233-3.225-.64-5.589-1.373-6.997-2.244s-2.304-6.596-.964-7.56c6.562-4.677 18.628-7.774 7.526-8.56l-14.011-.998-8.047 9.037c-11.767 13.218-5.555 12.945-11.887 15.735-2.133.94-7.748-.554-9.489-2.124l-9.685-8.772c-3.226 2.116-6.775 4.872-10.078 7.697l-6.622 3.967c-15.146 21.564-19.72-6.545-41.062-.093 2.22 3.822 3.67 6.1 4.71 9.693 1.306 4.497-2.354 9.455-5.563 11.973l-9.36 7.372c-1.887.359-7.792-1.288-9.242-3.072l-5.64-6.946c-1.34-1.647-5.24-4.07-7.314-4.275-9.207-.896-4.778 13.295-19.165 9.028-1.391-.41-5.923-.802-6.29.435s-.887 3.354-1.382 5.496l-2.005 8.712-2.261 9.49-7.834 5.742c-1.911-.196-6.246-1.212-7.979-2.509l-14.148-10.572c-5.103 4.906-7.927 9.105-10.94 14.882-2.124 1.16-9.847 2.645-12.014 2.184l-5.188-7.927-8.38-.53c-.384-.818-2.91-4.437-4.292-4.855-1.92-.589-6.673 2.458-7.39 3.687l-5.999.076-22.297-.503-1.767 1.655-10.214-.426-23.68-1.664c-3.14-.222-8.925-4.403-11.537-5.666l-9.625-4.642-9.873-4.762c-1.476-.717-3.96-3.132-5.01-4.215l-6.203-6.4c-6.903-7.126-15.018-17.178-15.317-27.921l-1.067-39.39-1.937-10.862.666-77.926c.025-3.191.478-7.364.316-10.103l-1.297-21.786c-.24-4.053-.419-8.166-.29-12.364l.494-16.086c.29-9.506 1.903-18.568 3.892-27.835l-1.835-12.032c-.555-3.61-1.024-8.977-.435-12.032l2.03-10.615c-5.614-25.677 1.69-11.921.402-34.483l-7.595.683-2.193-4.386 7.646-7.057 1.212-14.25c1.851-21.872 0-2.348-.214-21.684l-.426-38.195c-.026-2.654 2.995-8.55 2.713-11.05-.247-2.176-2.15-7.356-1.937-9.37l.82-7.893c-4.284-8.303 3.114-22.451-1.17-32.844l1.869-9.677-9.651-12.68-1.1-13.824c-.283-3.559 2.09-10.12 3.43-14.37 3.029-9.6 3.046-9.984 16.844-15.89 7.125-3.054 4.796 3.619 14.327 2.339 2.228-.299-1.578-4.224.436-16.546.682-4.156 10.683 0 11.374-8.687l1.315-16.546.435-66.073.708-30.114c.06-2.611 1.058-9.625 2.253-11.895l7.364-13.969c5.709-10.829 16.23-20.096 27.946-23.987 20.736-6.886 12.843-6.886 28.39-9.045 11.179-1.545 26.556-1.946 36.958.435 1.707 1.604 5.145 5.709 7.21 8.166l-13.943 18.611-7.44 10.607-11.615 16.666c-5.051 7.253-12.868 33.151-13.021 42.52l-.768 48.265c-.026 1.51 2.048 5.922 3.387 5.546.999-.281 3.72-1.69 4.446-2.525 2.185-2.51 14.66-19.584 20.821-17.528l14.515 4.856 15.923 5.18c7.587-.453-1.314-21.658 9.421-20.924l21.35 1.468c1.263.085 3.738 2.124 6.725 4.292 15.658-16.504-3.977.094 16.494-18.338l9.523-8.576c4.489-4.045 13.68-1.673 18.21 2.645l11.46-10.12 13.312 3.95 5.914-4.974c11.52-2.842 7.825-15.471 26.316-5.94 7.032-1.16 2.603-16.17 16.93-13.26l9.498 1.928 3.627-9.582c1.305-3.456 8.541-7.928 12.868-8.465 7.44-.93 14.43 7.065 15.505 12.552.486 2.45-1.357 7.919-2.202 10.394-.666 1.97 4.821 5.265 6.844 5.282 3.584-6.178 6.741-11.563 11.972-16.717 6.758-6.647 24.175 5.948 27.264 13.85l-2.04 11.69c-.264 1.493 3.064 2.825 5.188 3.02 21.496 2.015 21.052 8.97 23.347-1.45l2.347-10.624 14.131 2.475 6.042 6.733-7.33 10.47 4.684 2.884c3.857 2.372 2.27-11.451 17.4-10.607 2.218.12 5.81 3.499 7.594 6.29 4.489 6.98 16.273 1.825 15.949 7.108-.111 1.809-.854 5.512-1.4 7.569l-2.824 10.658c-1.425 5.384-2.432 13.559 1.314 17.143 5.41 5.188 10.189-2.133 11.571-.137l2.38 3.44c2.748 3.976 9.985 3.327 13.526-1.878 5.436-7.987 11.085 7.1 19.789-.93l9.89-9.13c10.658 3.225 17.237 11.553 22.715 21.58 6.05 11.059-1.126 10.078 6.084 16.588 1.127 1.016 4.702-2.159 5.555-3.439 7.51-11.22 2.074-4.82 20.36-12.066 5.385-2.133 13.04-3.234 15.864 2.21l5.82 11.222c3.908 7.543-9.813 11.963-2.5 16.256l10.308 6.05c5.137-4.54 12.39-6.076 18.124-2.193 12.083 8.175 3.2 5.18 12.058 12.023l7.594 5.862z"/><path fill="#ededea" d="m851.874 477.205-.162 2.44c-1.382.453-5.086 4.787-5.461 7.126l-2.978 18.414c-.956 5.93-3.192 14.37-.94 19.32 12.536 27.588-2.772 14.557 6.375 37.529l-.921 13.892c-1.681 25.318.486 18.073-1.485 38.374-.512 5.265-.427 11.895.06 17.169 2.013 21.999.179 6.895.776 26.564l.99 32.29c.18 5.802-.137 11.409-1.263 17.177-4.07 20.83 1.655 3.31-.47 27.067-.605 6.759-1.143 14.891-.17 21.36 1.485 9.838.7 17.398.213 26.964l-1.382 27.281c-.452 8.823-2.33 16.051.324 24.473l-1.416 8.073c1.851 10.71 1.937 21.145.4 31.854l-1.936 13.551c-2.944 20.617 7.1 9.216 2.21 35.746l-10.957 15.385c-12.373 17.366-17.305 19.533-34.585 29.04-2.867 1.578-7.629 4.923-10.13 5.768-6.16 2.073-13.95 4.3-19.557 4.582l-24.09 1.195c-5.427.264-10.905.512-16.162.358l-15.957-.47c-7.432-.221-14.651.103-22.033.257l-14.14.29-37.99.316-31.99-.973-32.12-1.024-20.138-.504-18.176-.196-18.03-.956 3.908-2.85c3.072-2.244 7.816-8.755 8.388-13.03.665-4.95-19.217-9.557-25.762-1.877l1.51 8.123c.427 2.321 3.815 6.358 5.504 7.655 1.946 1.34 2.714 1.868 2.705 1.86-5.768.11-17.023.213-23.654-.546-31.547-3.644-9.932 2.235-40.883-.563-32.059-2.902-42.504 3.925-65.944-.692l2.26-9.489 2.006-8.712c.495-2.142 1.024-4.258 1.383-5.496s4.898-.844 6.289-.435c14.387 4.258 9.958-9.924 19.165-9.028 2.082.205 5.982 2.628 7.313 4.275l5.64 6.946c1.451 1.784 7.356 3.43 9.242 3.072l9.361-7.372c3.2-2.526 6.87-7.484 5.564-11.973-1.041-3.584-2.5-5.862-4.71-9.693 21.341-6.451 25.923 21.657 41.061.094l6.622-3.968c3.303-2.825 6.852-5.581 10.078-7.697l9.685 8.772c1.741 1.578 7.356 3.063 9.49 2.125 6.33-2.79.119-2.518 11.886-15.736l8.047-9.036 14.011.998c11.102.794-.964 3.883-7.526 8.559-1.348.955-.444 6.69.964 7.56s3.772 1.604 6.998 2.244c5.47 1.076 11.528-4.676 11.639-9.233l-5.436-7.551c1.622-6 1.391-10.76-1.459-16.325-.324.342 1.11-4.53 1.954-4.932 2.458-1.177 9.011-.256 11.29 1.255l8.038 5.35 10.504-8.081-5.427-8.678 12.408-8.627c2.97-2.065 5.708-4.651 8.925-7.126l10.633-8.183c3.942-3.03 6.972-12.407 10.863-15.949 3.95-3.6 10.197-7.287 12.757-11.101s5.035-8.747 7.356-10.667l13.09-10.786 1.98-10.266c27.007-11.4 10.453-17.894 24.95-27.579 2.45-1.638 8.431-6.844 7.34-9.515l-5.59-13.619c.298-.11 4.284-.938 5.93-1.203l15.804-2.483 8.32-6.323c2.142-1.63 2.884-7.228 1.203-9.404l-6.8-8.772c4.889-1.519 9.07-4.241 10.614-7.936l4.813-11.537c.913-2.176 1.05-8.67 1.289-10.777l12.791-10.838c-3.618-20.147-2.09-6.45-8.166-25.497l-4.241-13.303 7.5-7.62c-1.501-6.554 11.742-20.062 16.7-21.436 8.328-2.304 11.605-6.485 10.59-14.216l-1.732-13.15c-.359-2.714 2.696-7.236 4.89-10.086s1.97-12.374-.521-15.215c.068.077-17.22-18.304-9.814-18.415l5.137-.085 8.508.034 1.75-20.01 5.529-3.849 7.637-5.35 9.43 6.758c6.544 4.693 15.615-2.978 19.028-8.559l-8.362-20.25c-.964-2.337 7.79-14.267 11.793-11.664 14.344 9.327 2.193-3.32 20.369 7.927 1.382.853 5.41 1.127 6.886 1.058zm-19.183 16.657c.393-.999.982-5.043.094-4.685l-4.31 1.732c-1.006.401.146 3.047.573 4.028.281.648 3.379-.418 3.643-1.075m-11.588 34.969c-1.69-5.58-9.318-6.997-12.493-4.591-1.612 1.22.367 6.767 2.322 7.586 4.351 1.818 7.568.742 10.171-2.987zm-4.446 36.343c4.677 1.843 11.802-.947 14.055-4.369 1.425-2.159-1.366-8.38-3.712-9.404-11.571-5.026-3.823-13.448-12.911-11.46l-10.402 2.279c-1.255.273-4.72 2.09-4.395 3.157s1.579 3.524 2.492 4.096l9.327 5.811c.887 3.072 3.387 9.037 5.555 9.89zm-21.427 37.367c2.44-4.079 3.661-11.264.99-12.399-3.353-1.433-7.168-2.287-8.03-.708l-3.191 5.88zm-32.008 22.34c.76-1.86 0-8.328-1.613-9.011-2.287-.973-6.135-1.852-8.43-1.963-1.801-.085-3.218 4.634-2.808 6.409.93 4.002 11.153 8.687 12.843 4.565zm30.617 26.35c-3.063-1.382-9.318-1.774-10.999-.204-1.229 1.152-2.295 6.664-.76 7.262l5.718 2.236c1.553.605 5.615-1.434 7.031-2.279s.504-6.34-.99-7.014m22.443 48.495c0-4.181-3.388-7.577-7.578-7.577s-7.577 3.387-7.577 7.577 3.388 7.578 7.577 7.578 7.578-3.388 7.578-7.578m-80.511 47.641c-2.936-3.968-6.725-7.279-10.48-7.398-2.064-.06-5.733 5.76-4.257 7.108 1.186 1.084 4.113 2.953 6.323 3.874 1.74.734 5.751-1.476 8.414-3.592zm-58.555 67.541c.281-1.715-1.58-6.306-3.175-6.647-1.587-.342-5.58.861-6.451 2.235-1.468 2.304-3.089 5.154-2.517 6.588s2.918 4.173 4.215 5.308c.981.862 6.545.99 6.758-.316l1.17-7.16zm9.318-3.37c-1.963 1.245-.751 7.858.93 9.446s7.304 1.322 8.815-.427l4.24-4.898c1.912-2.21-7.278-8.397-13.994-4.13zm-16.614 58.23-9.071-8.712c1.655-4.455 15.018-.094 14.89-7.339-.094-5.546-13.952-16.58-18.67-16.06-4.796.53-11.947 7.348-10.897 11.102l3.413 12.237c-.103 5.06 1.894 10.641 6.707 11.887l8.78 2.27c.948.247 5.12-1.212 5.078-2.27-.026-.7-.137-2.159-.23-3.123zm24.362-10.777c1.681 1.783 7.083 2.739 8.943 1.698 4.284-2.39 6.852-7.424 5.956-10.871-1.015-3.909-8.252-7.032-10.64-4.805l-6.827 6.366c-1.033.964.529 5.444 2.568 7.612m-68.676 25.36-2.346-20.846 11.784 1.988c1.383.23 4.753-3.985 4.241-5.367-1.467-3.917-10.794-8.627-13.755-3.525-1.963 3.38-4.403 5.504-7.117 7.254l-9.455 6.084.589 17.22c.068 2.116 6.46 2.014 8.414 1.033l7.663-3.84zm74.752 21.231c1.416-3.78-2.117-8.55-4.54-9.02-2.935-.571-7.646 2.518-6.938 6.588.58 3.362 10.309 5.538 11.478 2.424zm-52.164.461c0-2.585-2.1-4.685-4.685-4.685s-4.685 2.1-4.685 4.685 2.1 4.685 4.685 4.685 4.685-2.1 4.685-4.685m-63.573 19.908c2.919-2.346 5.018-5.956 4.804-7.97-.179-1.613-3.31-5.666-4.923-5.419-2.748.419-8.448 3.79-9.515 5.803-.606 4.574 6.161 10.385 9.634 7.595zm-32.426.205c-1.254-.12-4.787 1.075-5.402 2.193-1.297 2.355-2.107 6.52-1.305 8.269s5.026 4.411 6.767 3.592c4.625-2.201 3.532-13.704-.06-14.046zm61.67 15.146c2.662-2.38 3.976-7.74 2.62-10.828-1.17-2.654-8.679-5.325-11.52-3.465-6.016 3.926-9.993 10.453-13.099 17.903-1.604 3.849 5.854 10.402 11.179 10.385 8.55-.017 2.107-6.204 10.828-13.995z"/><path fill="#e7edeb" d="M783.284 994.985c-4.574.46-11.972 1.74-18.176 1.75l-334.358.127-70.152-.657-14.498-.324-31.966-.281-15.897-.171-48.06-.973c-7.218-.145-23.628-4.454-30.94-8.286l-12.46-6.528c-2.03-1.058-5.205-3.456-6.75-4.684-1.177-1.656-3.737-5.044-5.315-6.486l-10.727-9.804-2.056-2.074-6.485-13.116c-1.306-2.645-3.712-9.838-3.704-13.252l.162-67.506.222-32.247.128-27.913-.478-20.522 1.946-1.835.4 14.191c.052 1.946.905 6.178 1.332 8.03l3.499 14.95c.776 3.328.239 10.163-.444 13.175-6.699 1.178-4.54 25.626-3.831 29.304 1.16 6.067 5.111 12.979 4.795 18.747l-.648 11.836c-.41 7.44 1.322 14.822.213 21.367-1.05 6.17-.939 10.394 2.219 14.984l7.859 11.435 3.285 10.257c.435 1.357 2.62 4.907 4.036 5.111l9.762 1.374c1.05 1.084 3.533 3.499 5.01 4.216l9.872 4.761 9.626 4.642c2.62 1.263 8.405 5.444 11.537 5.666l23.68 1.664 10.214.427 23.62.776.444-1.928 5.998-.077c3.721.845 7.715 1.11 11.683 1.17l8.38.528c-.436 2.492 1.766 8.337 4.215 9.336 2.389.972 7.884 1.937 9.6.981l9.787-5.427c18.492 3.806 11.878-3.678 23.944 1.621l2.714-2.568 7.834-5.743c23.44 4.616 33.885-2.202 65.944.691 30.96 2.799 9.336-3.09 40.883.563 6.63.768 17.886.657 23.654.546.939-.017 2.731.069 3.755.12l18.03.955 18.177.197 20.138.503 32.12 1.024 31.99.973 37.99-.316 14.14-.29c7.39-.153 14.6-.478 22.033-.256l15.957.47c5.256.153 10.735-.094 16.162-.359l24.09-1.195c5.606-.281 13.405-2.508 19.557-4.582 2.5-.845 7.262-4.19 10.13-5.768 17.288-9.506 22.22-11.682 34.585-29.04l10.956-15.385c4.89-26.538-5.162-15.129-2.21-35.745l1.937-13.551c1.528-10.71 1.451-21.145-.4-31.855l1.416-8.072c-2.663-8.422-.777-15.65-.325-24.473l1.383-27.281c.486-9.566 1.263-17.126-.213-26.965-.973-6.469-.436-14.592.17-21.36 2.125-23.764-3.6-6.245.47-27.067 1.126-5.768 1.442-11.374 1.262-17.177l-.99-32.29c-.605-19.677 1.23-4.565-.776-26.564-.486-5.273-.572-11.912-.06-17.169 1.972-20.3-.204-13.055 1.485-38.374l.922-13.892c-9.148-22.971 6.16-9.941-6.375-37.529-2.252-4.95-.017-13.38.939-19.32l2.978-18.414c.376-2.338 4.088-6.673 5.461-7.125l.683 33.493.708 30.66.265 18.346.145 314.143v38.613c-.017 8.252-1.86 16.964-4.514 24.746-4.719 13.858-9.233 21.393-20.634 30.089-11.502 8.772-23.568 17.04-37.128 22.22z"/><path fill="#ededea" d="m206.197 954.956-9.762-1.374c-1.408-.196-3.6-3.746-4.036-5.112l-3.285-10.257-7.86-11.434c-3.157-4.591-3.268-8.815-2.218-14.985 1.118-6.553-.623-13.926-.213-21.367l.648-11.835c.316-5.76-3.626-12.68-4.795-18.748-.709-3.678-2.868-28.126 3.831-29.303.683-3.012 1.22-9.847.444-13.175l-3.499-14.95c-.435-1.852-1.28-6.085-1.331-8.03l-.401-14.191-.52-8.039c-.12-1.817.64-5.794.64-7.611 2.892 3.003 2.943-13.406-.018-10.462v-3.592l2.031-2.031c.034-13.176-.264-25.42.683-38.025.76-10.103 1.724-19.003.435-29.124-1.297-10.163-.384-22.1-3.063-21.444l-.137-3.635 3.217-3.66c3.533-4.02 3.482-11.853 1.024-16.777l7.595-.683c1.288 22.562-6.025 8.815-.401 34.483l-2.031 10.616c-.58 3.055-.111 8.422.435 12.032l1.835 12.031c-1.989 9.268-3.602 18.33-3.892 27.836l-.495 16.085c-.128 4.198.052 8.311.29 12.365l1.298 21.785c.162 2.73-.282 6.904-.316 10.103l-.666 77.926 1.937 10.863 1.067 39.39c.29 10.743 8.405 20.803 15.317 27.92l6.204 6.4zm170.324 25.787-2.714 2.569c-12.066-5.3-5.452 2.184-23.944-1.622l-9.788 5.427c-1.715.948-7.21-.008-9.6-.98-2.448-1-4.65-6.845-4.215-9.336l5.188 7.927c2.16.46 9.89-1.024 12.015-2.184 3.012-5.786 5.837-9.976 10.94-14.882l14.148 10.572c1.732 1.297 6.067 2.313 7.979 2.51zM300.2 975.18l-.444 1.929-23.62-.777 1.766-1.655zm17.68 1.093c-3.959-.06-7.961-.325-11.682-1.17.717-1.228 5.47-4.275 7.39-3.686 1.383.418 3.909 4.037 4.293 4.856"/><path fill="#fdfdfc" d="M696.313 363.721c-1.357-.264-4.59-1.323-5.615-1.809l-11.818-5.623 5.7-15.94c9.95-3.704 19.754 1.33 23.995 11.852 1.835 4.566-.819 11.153-4.505 13.065l-7.757-1.536zM669.92 869.768c.093.956.196 2.415.23 3.123.043 1.059-4.122 2.51-5.077 2.27l-8.781-2.27c-4.821-1.245-6.818-6.835-6.707-11.886l-3.413-12.237c-1.05-3.746 6.11-10.564 10.897-11.102 4.718-.52 18.568 10.505 18.67 16.06.128 7.244-13.235 2.884-14.89 7.338l9.07 8.713zm146.737-304.594c-2.167-.853-4.667-6.818-5.555-9.89l-9.327-5.811c-.913-.572-2.167-3.02-2.491-4.096s3.14-2.884 4.394-3.157l10.402-2.279c9.08-1.988 1.34 6.434 12.911 11.46 2.347 1.024 5.137 7.245 3.712 9.404-2.253 3.422-9.378 6.212-14.054 4.369zM613.865 941.302c-8.713 7.791-2.279 13.97-10.829 13.995-5.325.009-12.783-6.545-11.179-10.385 3.107-7.45 7.083-13.977 13.099-17.903 2.85-1.86 10.35.81 11.52 3.465 1.357 3.089.043 8.448-2.62 10.828zM518.59 976.92c-1.024-.051-2.807-.136-3.755-.12.009 0-.75-.52-2.705-1.86-1.69-1.297-5.068-5.333-5.504-7.654l-1.51-8.123c6.545-7.68 26.427-3.072 25.762 1.877-.58 4.284-5.316 10.794-8.388 13.03l-3.909 2.85zm107.015-92.568-7.662 3.84c-1.955.972-8.346 1.075-8.414-1.033l-.589-17.22 9.455-6.084c2.722-1.75 5.162-3.874 7.117-7.254 2.96-5.111 12.287-.392 13.755 3.525.52 1.382-2.858 5.597-4.24 5.367l-11.785-1.988 2.346 20.847zm68.676-25.361c-2.04-2.168-3.61-6.64-2.568-7.612l6.826-6.366c2.39-2.227 9.626.896 10.641 4.805.896 3.447-1.672 8.482-5.956 10.87-1.86 1.033-7.253.086-8.943-1.697M801.127 699.726a7.578 7.578 0 1 0 15.155 0 7.578 7.578 0 1 0-15.155 0M584.621 925.951c-3.481 2.799-10.24-3.012-9.634-7.594 1.067-2.014 6.767-5.385 9.515-5.803 1.613-.248 4.744 3.806 4.923 5.419.222 2.013-1.877 5.623-4.804 7.97zm178.601-301.07c-1.69 4.122-11.904-.563-12.842-4.565-.419-1.775 1.007-6.494 2.807-6.409 2.295.103 6.135.982 8.43 1.963 1.605.683 2.373 7.15 1.614 9.011zm-76.688 186.656c6.716-4.275 15.906 1.92 13.994 4.13l-4.24 4.899c-1.511 1.749-7.126 2.013-8.816.426s-2.892-8.2-.93-9.446zm-9.318 3.371-1.17 7.16c-.213 1.305-5.777 1.177-6.758.315-1.297-1.126-3.635-3.874-4.215-5.308s1.05-4.283 2.517-6.587c.87-1.374 4.864-2.577 6.451-2.236s3.448 4.932 3.175 6.647zm116.623-163.676c1.494.674 2.407 6.17.99 7.014s-5.47 2.893-7.031 2.279l-5.717-2.236c-1.536-.598-.47-6.11.76-7.262 1.672-1.57 7.926-1.17 10.998.205m1.391-48.69L785 595.312l3.191-5.879c.862-1.579 4.677-.725 8.03.708 2.671 1.144 1.45 8.32-.99 12.4M552.195 926.155c3.601.35 4.693 11.853.06 14.046-1.733.827-5.957-1.844-6.767-3.593s0-5.913 1.305-8.269c.615-1.109 4.139-2.312 5.402-2.193zM735.77 747.367c-2.663 2.108-6.673 4.318-8.414 3.593-2.21-.93-5.129-2.79-6.323-3.874-1.476-1.348 2.193-7.168 4.258-7.108 3.754.119 7.543 3.43 10.479 7.398zm85.332-218.536c-2.603 3.729-5.82 4.804-10.171 2.987-1.955-.811-3.934-6.366-2.322-7.587 3.175-2.406 10.804-.99 12.493 4.591zM700.358 905.582c-1.17 3.106-10.897.939-11.478-2.423-.708-4.08 4.003-7.16 6.938-6.588 2.423.47 5.965 5.24 4.54 9.02zM638.824 906.043a4.685 4.685 0 1 0 9.37 0 4.685 4.685 0 1 0-9.37 0M832.691 493.862c-.256.657-3.362 1.723-3.643 1.075-.427-.973-1.58-3.618-.572-4.028l4.31-1.732c.887-.358.298 3.686-.095 4.685"/></svg>