<svg xmlns="http://www.w3.org/2000/svg" viewBox="0 0 1024 1024"><path fill="#e3e0b4" d="m340.36 844.356 13.364-11.153c6.843-5.709 13.832-11.076 19.166-16.418l4.369.205c8.277-8.67 15.547-17.929 23.475-24.243l26.837-21.402 11.495-8.354c.145.324 5.205-1.195 6.127-2.185l13.422-14.395c7.16-5.035 15.335-11.068 23.075-17.289l15.428-12.407c2.585 4.906 19.063-16.58 21.598-18.407l21.111-15.18c3.883-2.79 9.003-6.41 11.273-8.705l4.215.547 21.683-22.545c10.983-2.262 30.524-18.142 40.081-28.05 2.663-2.756-.247-10.692-.81-14.062-.7-4.224 4.403-11.512 7.97-13.56 10.103 10.982 40.354-10.803 46.942-26.564l-.487 7.552c4.344-2.185 11.196-5.581 16.077-9.011l32.086-22.52 36.915-23.492c14.464-9.208 29.073-17.11 44.126-24.542 2.85-1.408 9.164-2.313 11.57-4.096 2.185-1.621 7.04-5.086 9.96-6.374l23.927-10.573c44.953-19.866 79.547-32.606 128.213-42.914l3.703 3.89-8.004 6.12-118.118 93.294-47.044 37.93-41.225 33.597-33.246 27.306-35.678 29.312-36.659 30.917-75.213 61.286-56.874 46.728-35.9 29.611-80.026 66.219-17.834 14.805c-52.916 43.921-107.358 74.155-178.202 62.865-8.585-1.365-18.057-5.674-26.206-8.388l-7.586 1.519c1.707-2.279 6.528-5.743 9.182-4.83l24.337 8.337c.555-9.856 15.599-17.835 26.3-19.652 3.976-.674 7.978-11.153 4.975-13.756l-10.309-8.934c1.076-3.004 9.686-7.39 14.737-8.38l14.251-9.984 11.896-8.312c1.792-1.254 3.874-6.903 4.983-9.472 1.263-2.935 7.5-6.186 9.975-8.243 23.032-19.174 11.674 2.014 29.193-24.9l21.385-18.714z"/><path fill="#e5e2b8" d="M534.86 81.81c3.098-3.832 9.814-8.722 15.054-13.023-.026 1.826-.777 7.723-1.972 9.856l-17.604 31.608-29.244 49.894-31.7 52.728c-30.311 50.406-72.236 108.1-105.217 153.915-1.698 2.364-1.792 7.62-1.212 6.895l-11.494 10.249c-11.571 10.317-19.388 28.365-6.511 40.286-.41.674-1.894 3.353-.887 3.481l5.384.683 9.498 9.438c-1.878 1.98-5.35 4.958-7.56 4.292-1.98-.589-6.58-1.988-6.41-1.929l-10.29-9.66c-3.721-3.49-16.743-5.196-20.916-1.766-11.238 9.25-29.482 25.566-22.246 41.37-2.646 4.89-6.119 9.728-9.873 14.131l-7.254-.64c-4.198-.367-11.562 2.953-14.404 6.562l-11.127 14.157c-6.725 8.559-8.773 18.867-3.371 27.657l-6.741 10.29c-4.625-1.202-13.415-1.16-16.495 2.441l-16.87 19.72-3.346-1.945c-.862-.503-3.242 1.937-3.865 2.876l-15.565 23.398-7.85 12.613c-5.496 4.428-8.91 8.158-11.743 14.054l-8.234 5.026-8.986 14.6c-18.526 4.003-4.813 10.181-20.19 14.166-4.804 1.246-8.448 3.67-8.465 6.28-.136 19.448-9.207 7.928-7.543 24.764s-1.767 11.341-11.81 22.008l-5.786 6.144c-1.476 1.57-6.596-4.045-5.086-5.65l11.315-12.091c1.16-1.237-.674-6.588-2.09-7.552s-5.88-.53-7.211.486l-12.245 9.336c-11.23 8.559-6.673-4.258-15.992 3.806 5.897-18.842 32.299-57.336 47.283-76.715l103.288-133.572 19.336-24.49 32.256-40.099 40.781-51.302 21.376-26.676 36.42-45.917 45.201-56.466 48.384-61.064 34.927-43.179 44.877-55.475z"/><path fill="#8ca352" d="M815.078 378.197c15.028 6.204 33.51-14.225 37.095-24.277.836-2.347 1.177-7.86 1.877-10.078l1.229 4.096c3.67-1.57 8.661-3.652 11.947-5.504l36.514-20.66 29.508-15.47c24.909-13.065 48.836-23.492 78.404-29.013-9.694 14.25-35.763 28.825-51.771 44.757l-72.397 72.081c-31.616 31.48-57.976 65.144-85.726 98.808l9.72 1.126c-2.399 1.783-8.722 2.688-11.572 4.096-15.053 7.432-29.662 15.343-44.126 24.542l-36.915 23.492c-.18-.247-1.45-4.685-1.46-6.195l-.093-19.917c2.825-6.716 3.678-14.464 2.057-21.478l.145-7.441 8.226-1.084c11.221 4.19 29.764-11.085 36.25-22.426 5.281-9.241 3.703-21.768-.888-29.636l6.067-6.11c18.73 8.56 41.148-15.522 43.264-34.167.452-3.96-2.961-12.416-4.514-15.744l7.168-3.798z"/><path fill="#bac480" d="m565.794 167.962-24.08 23.987c-1.955 1.945-.752 11.46.05 12.689l-1.8 7.552c-.376 1.561-4.438 2.799-6.042 2.68l-7.168-.53c-13.926-1.024-41.096 14.985-37.265 41.515.632 4.369-1.297 10.001-4.104 12.39-17.366-9.967-35.252 4.344-44.382 20.037-3.55 6.1-1.75 16.35.827 24.448l-6.425 9.48c-2.082-2.116-8.278-3.499-12.058-3.456-21.367.248-41.873 24.627-34.355 41.148l.998 6.878c.384 2.62-3.865 6.698-6.135 7.629-6.315-.99-12.894-1.067-20.873-.717-.571.725-.486-4.531 1.212-6.895C397.175 320.98 439.1 263.287 469.41 212.88l31.701-52.727 29.244-49.895 17.604-31.607c1.195-2.142 1.946-8.03 1.972-9.856-5.24 4.3-11.956 9.182-15.053 13.022-4.975 1.22 11.588-14.447 20.062-25.83l17.817-23.954c.649-.87 5.41-3.891 5.65-2.96.358 1.416 1.365 5.358 1.1 7.065l-7.663 49.476-10.393 58.325c-1.784 10.018-4.796 18.432-7.851 29.688-1.365 1.143-.094.077 3.32-2.782l8.891-2.867z"/><path fill="#fbf1d5" d="M60.783 847.633c3.857-.904 13.79 0 17.835 2.705l24.66 16.452c20.097 13.415 86.094 77.628 76.929 97.297-1.058 2.262-5.572 6.784-7.288 8.602l-5.998 6.357c-7.578 5.556-21.71 7.663-29.125.265l-60.962-60.8-19.388-19.2c-2.466-2.44-5.538-6.238-6.46-8.593-9.053-23.1-3.865-25.865 9.805-43.085z"/><path fill="#e6d9b3" d="M50.97 890.71c.921 2.355 3.993 6.152 6.46 8.592l19.387 19.2 60.962 60.8-30.225 32.93c-6.178 6.733-16.623 10.522-24.533 2.654l-64.418-64.042c-7.749-7.697-8.576-17.98-.965-25.566L43.793 899.2c2.38-2.372 5.496-6.349 7.16-8.49z"/><path fill="#e5e2b8" d="m58.94 698.334 5.265 10.18 4.65 8.994 12.852-1.68-4.293 13.03c15.429 5.82 25.54-8.977 26.855-1.681l1.433 7.953-9.113 5.307c-5.146-3.038-21.419-5.444-20.335.052 1.579 5.384.4 13.909-3.66 18.252 2.158 13.09-.189 24.738-11.734 34.859l-16.64-9.378-1.263 10.829c-6.545-20.233 3.456-76.28 15.983-96.726z"/><path fill="#e3e0b4" d="m172.92 972.69 2.218 2.218c-1.835 1.578-6.093 3.592-8.226 4.138l5.999-6.357z"/><path fill="#e5ddc4" d="m541.764 204.638 9.856 7.33 2.842-12.459c.691-3.012 7.842-2.96 10.607-1.98l9.77 3.474-7.475 17.33-8.593 1.75c4.685 11.068 20.301 22.673 34.535 14.703 7.287-4.079 18.543-15.48 22.476-22.81 2.125-3.959-.145-16.06-3.029-19.916-7.142-9.55-23.125-21.829-32.444-25.967l8.167-3.243 3.746-3.95 3.183-7.169c.76 3.951 4.377 11.41 7.74 14.302l15.854 13.602c6.844 5.871 17.093 8.542 26.223 2.833 6.605-4.13 16.87-13.73 20.608-20.54 1.87-3.404 1.673-14.933-.93-17.757l-17.39-18.842c-1.92-2.082 3.25-11.503 5.444-9.48l15.078 13.943c17.903 16.546 35.95 1.331 48.768-13.841 9.668-11.443-6.87-34.944-20.403-39.22l-8.883-2.807 8.652-.7c16.069-1.288 1.605-14.54 26.292-31.914 11.153-7.85 19.814-12.288 33.851-3.559l19.96-23.065c42.581-28.638 48.247 14.148 65.314 6.46 7.603-3.422 19.695-8.423 27.708-7.928 18.099 1.118 32.614 14.012 36.079 31.317.913 4.557 5.282 8.056 10.3 9.208 16.844 3.857 31.163 21.811 28.117 39.996-1.579 9.446-4.497 20.411-6.452 29.278 14.106 13.107 23.083 33.706 14.618 47.232-3.328-8.338 3.405-32.7-15.334-38.93-2.398-.793-9.728 3.055-11 4.822l-11.34 15.77c-8.26 11.485-3.986 25.36 5.418 33.715l12.501 11.11 13.876-12.698-.18 3.883c-4.795 5.461-12.407 12.877-14.071 17.903l-4.062 12.305.026-14.874-14.9-10.7c-3.626-2.603-15.266-2.961-19.106-.026-8.84 6.776-26.905 29.97-14.856 45.525l15.616 20.156c-4.685 11.426-22.409-18.142-36.284-9.378-15.223 9.609-36.881 32.341-19.823 49.39l17.732 17.725-6.604 7.543-12.596-11.861c-5.316-5-17.62-9.122-24.994-5.129-9.77 5.282-18.56 14.14-22.707 24.064-3.985 9.55 2.927 21.317 9.08 28.39l16.733 19.235-7.168 3.797-19.234-17.732c-16.367-15.087-34.637 1.988-45.406 18.287-9.233 13.994 18.014 41.139 25.882 49.357l-6.067 6.11-14.174-12.963c-8.704-7.961-23.074-14.609-32.691-9.036-15.164 8.806-29.517 32.648-22.255 40.277l22.912 24.072c3.925 4.122 7.868 7.322 10.846 9.711l-8.226 1.084-.146 7.441-26.461-24.875c-4.557-4.283-19.226-9.156-24.679-5.683-8.593 5.462-16.819 14.618-23.876 22.434-2.04 12.92 2.005 23.006 11.025 32.052l21.393 21.47-9.549 5.956-9.992-9.72c-17.417-16.938-14.123-15.727-36.19-18.944-7.91 7.21-17.724 16.265-24.815 24.704-3.388 4.028-2.296 17.784 1.527 21.94l26.496 28.808c-3.567 2.048-8.67 9.335-7.97 13.56-10.231-19.166-22.954-37.377-48.589-32.436l-18.713 19.03c-4.523 4.6-6.682 20.155-1.8 25.122l29.832 30.395-21.683 22.546-4.216-.547 12.476-12.62-15.087-16.692c-7.39-8.175-17.434-19.925-31.13-11.622-12.748 7.723-28.202 27.196-22.314 38.955 4.574 9.122 16.102 19.336 23.68 25.873-2.535 1.826-19.013 23.313-21.598 18.406l9.31-10.624c-8.354-13.21-30.635-26.044-40.994-17.502-7.168 5.905-15.838 14.72-21.658 22.57-3.465 4.677-1.075 19.21 2.927 23.246l11.921 12.006-13.423 14.396c-.922.99-5.982 2.509-6.127 2.184l7.953-9.062c-4.975-5.41-13.815-14.08-21.674-13.764-11.879.478-35.047 17.408-35.448 40.857-.077 4.438 6.673 10.684 10.837 11.725-7.927 6.323-15.197 15.582-23.475 24.243l-4.369-.204 12.664-12.681c-2.202-2.944-11.572-10.658-16.282-9.48-12.843 3.217-46.72 34.27-28.91 49.723l-21.385 18.714c-17.52 26.914-6.162 5.734-29.193 24.9-2.475 2.057-8.713 5.308-9.975 8.243-1.11 2.569-3.192 8.226-4.984 9.472l-11.895 8.312-14.251 9.984c-5.052.99-13.67 5.367-14.737 8.38l10.308 8.934c3.004 2.603-.998 13.081-4.975 13.756-10.7 1.817-25.745 9.796-26.3 19.652l-24.337-8.337c-2.653-.913-7.475 2.551-9.181 4.83l-4.301 3.703-2.219-2.219c1.715-1.817 6.23-6.34 7.288-8.601 9.164-19.67-56.832-83.883-76.928-97.297l-24.662-16.452c-4.045-2.697-13.977-3.61-17.834-2.706-2.006-6.715-4.984-13.038-8.09-21.367l-7.97-21.393c.068-2.082.068-5.675 0-7.8-.017-.657-1.57-1.39-1.767-2.013l1.263-10.83 16.64 9.379c11.546-10.12 13.884-21.777 11.734-34.859 4.062-4.343 5.24-12.868 3.66-18.253-1.092-5.495 15.19-3.089 20.335-.05-4.915 1.774-10.333 6.894-11.57 11.826l-4.037 16.018c-3.533 14.037-5.112 29.294.76 44.407 5.853 15.095 33.348-14.242 42.256-42.453 4.054-12.817-18.816-24.73-27.409-29.807l9.114-5.308-1.434-7.953c-1.314-7.296-11.426 7.5-26.854 1.681l4.292-13.03-12.85 1.68-4.652-8.993-5.265-10.18 1.784-1.58c9.327-8.063 4.761 4.754 15.991-3.805l12.246-9.336c1.33-1.015 5.802-1.45 7.21-.486s3.251 6.315 2.09 7.552l-11.314 12.092c-1.502 1.604 3.618 7.219 5.086 5.649l5.785-6.144c10.044-10.676 13.508-4.873 11.81-22.008s7.399-5.316 7.544-24.764c.017-2.61 3.66-5.034 8.465-6.28 15.368-3.985 1.664-10.163 20.19-14.165l8.985-14.6 8.235-5.027c2.833-5.897 6.238-9.626 11.742-14.054l7.85-12.613 15.565-23.398c.623-.93 3.004-3.38 3.866-2.876l3.345 1.946-8.815 14.165c-5.555 8.926 20.335 30.063 27.085 35.354 4.01 3.148 17.485 1.638 21.384-1.716 6-5.162 14.652-14.062 19.414-20.377 3.763-4.984 2.56-20.514-1.647-24.917l-24.056-24.679 6.742-10.291 19.968 19.848c2.628 2.612 9.71 6.46 13.636 8.952l19.208-3.78c13.449-17.144 19.49-15.668 20.318-38.511l-17.792-18.475c-5.35-5.555-12.134-10.948-19.2-15.761 3.755-4.403 7.228-9.242 9.873-14.131 1.357 2.96 5.36 8.968 7.868 11.28l16.999 15.677c10.726 9.898 23.611 12.177 35.677 2.201 12.527-10.35 17.852-19.652 15.54-36.505l-22.63-22.605c-.18-.051 4.428 1.34 6.408 1.928 2.21.666 5.691-2.312 7.56-4.292 1.383 1.374 4.677 3.695 6.99 5.692 12.671 10.957 28.68 10.812 39.636-3.635 10.01-6.435 17.23-25.08 7.791-35.806-9.19-10.445-18.944-20.07-29.534-29.662 2.27-.93 6.52-5.01 6.136-7.629L389 359.86l28.151 29.355c3.285 3.422 12.646 7.944 17.237 7.979 9.754.085 29.876-16.171 31.778-29.253.768-5.299-2.978-17.587-6.732-21.401l-24.022-24.38 6.426-9.48 31.855 27.212c3.814 3.26 16.136 1.289 21.205 1.024l18.808-19.823c6.775-7.142 2.568-22.349-3.712-28.51l-24.602-24.396c2.808-2.39 4.736-8.022 4.105-12.39 7.304 10.418 28.979 33.672 44.194 35.455 5.384.632 15.291-6.485 20.113-10.598 12.04-10.249 16.478-28.886 5.265-40.781l-12.749-13.517c-2.321-2.457-10.547-4.173-14.234-4.702l-5.324-7.372 7.168.529c1.612.12 5.674-1.118 6.041-2.68l1.8-7.552zm-324.036 439.8c-1.45-6.742-2.1-14.507-4.207-17.707-5.888-8.935-22.238-24.141-34.97-24.679l-12.672 15.975-11.758 16.418c-3.456 4.821-5.231 11.008-6.546 18.227 8.508 8.38 14.763 14.635 23.91 20.343 8.406 5.24 21.411.965 27.299-6.041zm544.23-604.664-16.204 1.911c-5.487.649-30.712 21.368-34.979 30.328 6.179 7.1 13.014 14.105 21.044 17.39 17.826 7.288 43.972-16.93 41.796-32.99-.666-4.897-8.021-12.91-11.657-16.64M163.695 701.815c3.31-14.003-7.842-22.434-16.768-28.842-21.786-15.642-35.157 27.085-44.945 44.066.077 10.06 24.26 29.832 39.62 16.341 9.319-8.183 19.337-19.917 22.093-31.565M802.773 49.024c12.68-5.342 21.513-13.781 26.889-25.028l-14.106-11.179c-2.21-1.75-8.857-4.369-12.091-4.642-7.34-.632-13.347 6.878-13.398 13.141L776.073 41.89c6.195 8.772 15.556 11.827 26.709 7.134zm-117.376 210.74-34.048-33.34c-12.373-12.118-29.67-8.227-40.38 3.421-4.787 5.206-10.018 13.082-10.768 19.252-.623 5.111 4.377 14.668 8.772 18.841l31.155 29.628c12.151 11.554 28.612 9.864 40.107-3.26 8.405-9.608 14.6-25.31 5.17-34.543zm48.896-53.693-34.218-32.785c-3.226-3.089-14.26-7.142-18.51-6.024-17.083 4.48-35.506 23.296-27.425 43.64l39.893 36.735c11.093 10.215 28.032 2.774 35.857-6.886 9.063-11.196 11.17-22.554 4.412-34.68zm-140.228 67.072c-14.344-2.141-23.68.658-33.331 10.607-8.866 9.14-14.848 22.46-4.625 34.04 12.757 14.447 27.964 27.34 43.178 39.654 13.167 3.866 24.184-.333 33.11-10.538 26.462-30.294-18.953-53.837-38.332-73.754zm182.11-123.707c-13.474-13.782-29.875-35.874-50.278-26.061-8.815 4.241-18.22 12.604-22.708 21.069-2.389 4.514 2.176 16.298 6.076 20.01l33.058 31.42c8.44 8.021 23.006 2.577 30.942-3.627 14.404-11.264 15.514-29.926 2.918-42.811zM582.562 361.02l-31.607-29.423c-4.677-4.352-19.26-8.525-25.14-5.607-7.517 3.73-17.518 13.44-21.299 20.25-6.835 12.305.52 25.301 9.259 33.297l35.72 32.691c15.104 4.566 28.34-2.04 37.095-14.515 8.08-11.511 8.226-25.301-4.02-36.702zm-38.852 77.124-2.219-14.387-43.964-42.087c-12.91-3.865-23.176-3.32-32.904 5.64-10.3 9.481-14.729 19.431-13.397 33.52l31.12 30.609c8.867 8.721 22.179 22.664 38.435 14.959 10.64-5.043 19.08-17.715 22.937-28.254zm287.198-310.963c1.118-13.756-1.681-24.798-11.589-32.785l-20.036-16.162c-13.005-4.165-24.064-.547-34.722 9.335-4.804 4.454-12.544 17.613-6.938 23.535l26.036 27.494c5.81 6.136 19.396 12.886 27.025 6.955 7.065-5.487 12.868-11.264 20.232-18.372zM493.133 492.305c-1.587-5.461-3.968-15.82-7.885-19.541l-38.852-36.941c-13.756-5.444-24.303-2.552-34.287 7.339-10.931 10.82-13.807 23.73-6.682 37.999l40.696 37.905c5.17 4.82 18.261 5.58 24.559 1.954 11.443-6.588 17.536-16.939 22.45-28.723zm-54.946 38.511-42.838-41.557-26.154 2.27L355.02 507.4c-4.822 5.393-3.772 22.81 1.792 28.305l36.966 36.54c10.257 10.145 29.338 5.12 37.547-5.377 7.765-9.924 17.323-25.898 6.852-36.053zm-46.592 69.794c1.254-4.787-3.559-15.343-7.28-18.935l-36.505-35.2c-3.686-3.55-16.153-4.779-20.59-3.678-11.768 2.918-36.208 26.82-23.672 48.179l43.451 40.329c23.783 4.898 39.143-9.933 44.587-30.695zm-51.968 49.067c-1.485-6.81-7.757-15.13-12.015-19.055l-32.444-29.918c-9.788-9.028-31.454.64-41.557 18.014-8.807 15.147-3.712 31.667 11.417 39.381l30.03 28.092c24.96 10.052 47.717-22.084 44.577-36.506zM868.685 63.744c-9.353-12.553-19.755-23.33-31.318-22.306-6.715.597-13.056 3.584-18.235 7.757-7.928 6.383-11.734 17.237-4.702 25.352 7.117 8.21 15.778 16.896 25.259 22.025 8.064 4.36 19.89-1.937 24.934-7.518 4.386-4.864 9.472-18.048 4.07-25.31zm-581.82 654.9c6.665-21.462-20.915-41.131-39.134-57.32-10.675-9.48-25.42-7.858-35.132 2.774-6.442 7.057-12.74 15.138-15.479 24.687-1.75 6.118 4.693 17.51 9.13 21.752l31.54 30.122c16.136 15.411 39.193-8.362 49.075-22.024zm-55.21 58.947c9.48-20.88-17.042-40.012-34.484-55.406-12.356-10.906-27.656-6.366-37.768 5.12-9.037 10.274-20.02 27.29-10.274 41.198 6.229 8.884 34.67 39.023 47.189 36.822 15.727-2.774 28.373-12.425 35.328-27.734zm-52.208 60.357c3.892-20.685-12.16-33.971-26.956-44.075-4.156-2.842-16.393-3.08-20.762-1.092-13.303 6.058-29.32 32.537-24.917 51.917 18.312 18.491 19.874 24.2 45.994 20.326zM914.278 139.75c10.351-13.892 7.851-25.113.427-36.275-8.124-12.211-21.862-22.127-37.384-13.781-6.264 3.37-12.86 13.278-16.709 20.207.683 15.053 18.21 29.875 29.423 37.461 7.049 4.77 19.414-1.135 24.243-7.612m-33.33 57.054c7.526-9.403 12.535-24.627 5.665-33.997-11.29-15.402-32.896-40.695-52.787-25.821-7.048 5.273-16.239 15.76-16.623 25.216-.247 6.05 8.107 16.716 12.578 20.898l22.742 21.273c7.287 6.818 21.094 1.596 28.424-7.56zm-36.071 18.15-25.788-24.806c-4.198-4.036-16.35-8.354-21.308-6.297-9.258 3.84-16.341 10.453-22.442 18.099-6.238 7.816-6.332 20.104.879 26.99l37.188 35.482c9.685 1.827 18.048-.512 24.695-7.517 11.247-11.87 14.541-26.599 6.776-41.95M802.876 275.9c-9.395-12.647-21.794-24.585-32.751-33.391-12.698-10.206-27.008-6.11-37.154 5.393-6.614 7.5-15.574 22.477-6.699 32.316 10.88 12.057 23.185 24.072 35.055 35.114 10.18 9.472 23.595 6.221 32.657-3.25 8.124-8.492 18.27-23.561 8.883-36.182zm-57.754 92.655c12.058-10.411 15.915-21.974 12.885-36.822l-40.524-40.277c-21.334.512-25.353-.085-37.863 16.307-6.997 9.174-7.5 20.932.683 29.398l21.914 22.656c4.633 4.795 11.451 9.395 18.158 14.25 6.042 4.378 19.235-.742 24.756-5.512zm-41.37 11.05-27.016-26.956c-8.183-8.158-21.23-10.386-31.044-5.24-16.162 8.482-23.467 24.414-17.152 41.122l39.73 37.052c11.87 11.068 29.5.068 36.19-10.863 6.512-10.633 10.121-24.311-.707-35.115m-48.674 52.83-27.724-27.187c-4.293-4.207-13.338-7.373-19.678-8.909-13.005 6-24.064 13.287-30.131 26.624-2.407 5.29 1.032 18.705 5.154 22.767l30.78 30.31c13.107 12.903 28.808 8.286 40.183-3.097 11.682-11.69 15.599-26.607 1.425-40.508zM608.7 488.482l-20.284-19.823c-3.934-3.84-9.839-8.013-15.82-12.424-15.583-11.503-39.459 6.323-47.574 25.941 1.647 5.837 4.173 14.55 7.885 18.21l36.693 36.241 20.207 3.175c7.373-7.083 14.2-13.603 21.265-21.957 5.675-6.715 3.686-23.44-2.355-29.354zm-51.44 89.122c19.073-24.695-6.988-41.514-33.996-67.097-11.708-11.094-38.332-.094-46.302 23.978-5.308 16.034 12.954 30.712 23.5 39.902l23.024 20.062c14.25 2.867 23.97-4.156 33.775-16.845m-45.2 45.15c2.184-5.342-1.477-16.18-2.953-21.94l-37.64-34.79c-9.856-9.113-24.585-4.292-32.23 3.738l-8.389 8.815c-6.955 7.313-9.284 21.385-1.041 29.679l30.003 30.182c7.51 7.552 18.773 9.925 29.133 9.216 8.892-7.227 18.449-13.49 23.117-24.908zM396.604 699.76l-34.415-31.019-19.328 2.466c-6.511 7.126-14.481 15.386-19.08 23.254-7.211 12.339 1.322 25.48 9.719 33.33l22.92 21.428c12.792 11.964 28.092 12.263 41.054-.964 6.417-6.545 12.263-16.248 11.81-24.679-.426-7.987-5.418-17.271-12.68-23.808zm64.913-19.712c1.34-10.249 1.519-20.463-4.984-26.803l-32.768-31.923c-9.975-9.72-26.026-6.802-34.816 2.534-12.748 13.534-18.167 14.66-13.406 36.872l37.052 36.651c2.62 2.594 10.914 6.468 14.32 5.854l14.352-2.569 20.241-20.616zM352.998 792.243c7.032-11.571 2.91-23.586-4.667-31.053l-31.838-31.368c-5.342-5.265-19.2-5.769-24.764-1.1l-12.57 10.52c-9.745 8.159-15.428 27.964-6.46 36.984l34.603 34.8c17.886 7.508 35.78-2.467 45.696-18.774zm-59.75 64.452c9.975-9.147 13.713-25.07 3.447-35.686l-27.904-28.868c-4.812-4.984-16.307-10.48-23.09-8.5-19.679 5.744-41.993 37.684-28.041 52.651l19.447 20.856c6.58 7.048 17.835 14.13 27.793 14.233 10.889.12 20.386-7.407 28.34-14.694zm-65.579 61.27c5.803-1.647 9.66-6.016 11.034-12.954 11.912-26.393-14.814-44.202-33.86-59.759-28.288 2.867-41.822 22.434-45.483 49.52 8.107 13.004 28.032 34.61 42.829 30.412l25.489-7.228z"/><path fill="#fcf7e5" d="M927.761 218.146c0 4.284-.648 14.08-3.43 17.391l-17.852 21.222c-4.045 4.813-8.337 10.693-11.716 15.275-3.465 39.697-32.623 45.96-36.301 57.72l-4.412 14.08c-.7 2.218-1.04 7.73-1.877 10.077-3.584 10.053-22.067 30.482-37.095 24.278l-16.733-19.234c-6.153-7.066-13.065-18.842-9.08-28.39 4.147-9.925 12.945-18.783 22.707-24.065 7.373-3.993 19.678.128 24.994 5.129l12.596 11.861 6.604-7.543-17.732-17.724c-17.058-17.05 4.6-39.782 19.823-49.391 13.875-8.764 31.599 20.804 36.284 9.378l-15.616-20.156c-12.058-15.556 6.016-38.74 14.856-45.525 3.832-2.944 15.48-2.586 19.106.026l14.9 10.7-.026 14.874z"/><path fill="#fbf7e4" d="m687.53 73.933 8.884 2.807c13.534 4.275 30.063 27.776 20.403 39.22-12.817 15.172-30.865 30.387-48.768 13.84l-15.078-13.943c-2.193-2.03-7.365 7.398-5.445 9.48l17.391 18.842c2.603 2.816 2.8 14.353.93 17.758-3.737 6.81-14.003 16.41-20.608 20.54-9.139 5.709-19.379 3.046-26.222-2.833l-15.855-13.602c-3.363-2.885-6.98-10.351-7.74-14.302l-2.108-3.866c8.55-15.76 21.717-30.344 42.01-32.563 10.29-1.126 6.86-10.078 27.153-30.276 7.364-7.33 16.145-12.886 25.062-11.102z"/><path fill="#f6f3df" d="M565.794 167.962c1.52-1.51 5.29-3.183 7.416-4.08 1.945.58 5.41 1.451 7.116 2.21 9.319 4.148 25.302 16.427 32.444 25.968 2.884 3.857 5.154 15.957 3.03 19.917-3.934 7.33-15.19 18.73-22.477 22.81-14.234 7.97-29.85-3.636-34.535-14.704l8.593-1.75 7.476-17.33-9.771-3.473c-2.765-.982-9.916-1.033-10.607 1.98l-2.842 12.458-9.856-7.33c-.802-1.229-2.005-10.744-.05-12.69l24.08-23.986z"/><path fill="#f6efdc" d="M951.962 170.266c-.23 4.454-2.62 10.811-5.888 13.798l-13.876 12.698-12.5-11.11c-9.405-8.355-13.68-22.23-5.42-33.716l11.341-15.77c1.272-1.766 8.602-5.615 11-4.82 18.739 6.228 11.998 30.591 15.334 38.928z"/><path fill="#e5ddc4" d="m593.314 147.866 2.108 3.865-3.183 7.168-3.746 3.951-8.167 3.243c-1.706-.76-5.17-1.63-7.116-2.21l14.788-6.221z"/><path fill="#fefceb" d="M231.654 777.591c-6.954 15.31-19.61 24.969-35.328 27.734-12.518 2.201-40.96-27.938-47.189-36.822-9.745-13.909 1.229-30.924 10.274-41.198 10.112-11.486 25.412-16.026 37.769-5.12 17.442 15.394 43.963 34.525 34.483 55.406z"/><path fill="#fcf9e9" d="M293.248 856.695c-7.953 7.288-17.45 14.814-28.34 14.695-9.958-.111-21.213-7.185-27.792-14.234l-19.448-20.855c-13.96-14.968 8.363-46.908 28.04-52.65 6.785-1.98 18.28 3.515 23.092 8.498l27.904 28.869c10.266 10.615 6.528 26.538-3.447 35.686z"/><path fill="#fdfbeb" d="M339.627 649.677c3.14 14.421-19.618 46.558-44.578 36.505l-30.03-28.091c-15.129-7.714-20.223-24.235-11.417-39.382 10.104-17.374 31.77-27.033 41.557-18.014l32.444 29.918c4.258 3.926 10.53 12.246 12.015 19.055z"/><path fill="#fefced" d="M391.595 600.61c-5.453 20.762-20.813 35.593-44.587 30.695l-43.452-40.329c-12.544-21.359 11.904-45.26 23.672-48.18 4.437-1.1 16.904.129 20.59 3.679l36.506 35.2c3.72 3.592 8.534 14.148 7.28 18.935z"/><path fill="#fdfae9" d="M286.865 718.643c-9.882 13.662-32.939 37.436-49.075 22.025l-31.54-30.123c-4.437-4.232-10.88-15.633-9.13-21.751 2.74-9.558 9.028-17.63 15.48-24.687 9.71-10.633 24.456-12.254 35.131-2.774 18.227 16.188 45.799 35.857 39.134 57.319z"/><path fill="#fdfcee" d="M493.133 492.305c-4.915 11.776-11.008 22.136-22.451 28.723-6.307 3.627-19.388 2.867-24.56-1.954l-40.695-37.905c-7.125-14.268-4.24-27.179 6.682-37.999 9.984-9.89 20.531-12.783 34.287-7.339l38.852 36.941c3.908 3.72 6.29 14.072 7.885 19.542z"/><path fill="#fdfbec" d="M543.71 438.144c-3.866 10.547-12.305 23.21-22.938 28.254-16.256 7.705-29.568-6.238-38.434-14.96l-31.12-30.608c-1.332-14.089 3.097-24.039 13.396-33.52 9.728-8.96 19.994-9.505 32.905-5.64l43.964 42.087 2.218 14.387z"/><path fill="#fefced" d="M438.187 530.816c10.462 10.155.904 26.13-6.853 36.053-8.209 10.488-27.29 15.514-37.546 5.376l-36.967-36.54c-5.563-5.495-6.613-22.911-1.792-28.304l14.174-15.872 26.155-2.27 42.837 41.557z"/><path fill="#fdf9e9" d="M352.998 792.243c-9.907 16.316-27.81 26.283-45.696 18.774l-34.602-34.8c-8.969-9.02-3.286-28.825 6.46-36.983l12.57-10.521c5.571-4.66 19.43-4.156 24.763 1.1l31.838 31.369c7.577 7.467 11.699 19.481 4.667 31.053z"/><path fill="#fdfbec" d="M582.562 361.02c12.245 11.4 12.1 25.19 4.02 36.702-8.756 12.467-21.991 19.08-37.095 14.515l-35.72-32.691c-8.739-7.996-16.094-20.992-9.26-33.297 3.79-6.819 13.782-16.521 21.3-20.25 5.88-2.918 20.463 1.254 25.14 5.606l31.607 29.423z"/><path fill="#fdfaea" d="M396.604 699.759c7.253 6.545 12.254 15.82 12.68 23.808.444 8.43-5.401 18.133-11.81 24.678-12.97 13.227-28.262 12.928-41.054.965l-22.92-21.428c-8.397-7.85-16.922-20.992-9.72-33.33 4.6-7.869 12.57-16.129 19.08-23.254l19.329-2.466 34.415 31.018z"/><path fill="#fdfbeb" d="m461.517 680.047-20.241 20.616-14.353 2.569c-3.405.614-11.7-3.26-14.32-5.854l-37.051-36.65c-4.762-22.213.657-23.34 13.406-36.873 8.79-9.327 24.84-12.254 34.816-2.534l32.768 31.923c6.51 6.34 6.332 16.554 4.983 26.803z"/><path fill="#fdfbed" d="M557.26 577.604c-9.804 12.69-19.515 19.712-33.774 16.845l-23.023-20.062c-10.539-9.19-28.809-23.868-23.5-39.902 7.97-24.08 34.593-35.072 46.301-23.978 27.008 25.583 53.069 42.402 33.997 67.097"/><path fill="#fdfcee" d="M594.065 273.143c19.388 19.917 64.794 43.46 38.332 73.754-8.926 10.214-19.943 14.413-33.11 10.539-15.214-12.314-30.43-25.208-43.178-39.655-10.215-11.57-4.241-24.891 4.625-34.04 9.651-9.949 18.978-12.748 33.331-10.606z"/><path fill="#fefbea" d="M685.397 259.763c9.43 9.242 3.234 24.943-5.17 34.543-11.487 13.124-27.956 14.814-40.108 3.26l-31.155-29.628c-4.394-4.181-9.386-13.73-8.772-18.841.75-6.17 5.982-14.046 10.77-19.252 10.708-11.648 28.014-15.539 40.379-3.422l34.048 33.34z"/><path fill="#fefced" d="M608.7 488.482c6.05 5.905 8.038 22.64 2.355 29.355-7.066 8.362-13.892 14.873-21.265 21.956l-20.207-3.174-36.693-36.241c-3.704-3.661-6.238-12.374-7.885-18.21 8.115-19.619 31.991-37.445 47.573-25.942 5.982 4.412 11.896 8.585 15.82 12.425l20.285 19.823z"/><path fill="#fdfae9" d="M512.06 622.754c-4.668 11.418-14.234 17.681-23.117 24.909-10.36.708-21.624-1.664-29.133-9.216l-30.003-30.182c-8.243-8.295-5.914-22.366 1.041-29.68l8.388-8.814c7.646-8.039 22.375-12.852 32.23-3.738l37.641 34.79c1.468 5.769 5.137 16.598 2.953 21.94z"/><path fill="#fbf7e8" d="M655.078 432.435c14.174 13.901 10.257 28.817-1.425 40.508-11.375 11.375-27.076 16-40.183 3.098l-30.78-30.31c-4.121-4.063-7.56-17.477-5.154-22.768 6.059-13.329 17.126-20.625 30.131-26.624 6.34 1.536 15.386 4.702 19.678 8.909l27.725 27.187z"/><path fill="#fdfae9" d="M703.753 379.605c10.828 10.804 7.21 24.482.708 35.115-6.69 10.931-24.32 21.93-36.19 10.863L628.54 388.53c-6.315-16.708.99-32.64 17.152-41.122 9.813-5.146 22.86-2.927 31.044 5.24z"/><path fill="#fefbea" d="M734.293 206.071c6.759 12.118 4.651 23.476-4.411 34.68-7.817 9.66-24.764 17.1-35.857 6.886l-39.894-36.736c-8.08-20.343 10.343-39.16 27.426-43.64 4.25-1.117 15.284 2.936 18.51 6.025l34.218 32.785z"/><path fill="#fdfbed" d="m227.67 917.965-25.49 7.228c-14.797 4.198-34.722-17.417-42.829-30.413 3.661-27.085 17.187-46.652 45.483-49.52 19.047 15.549 45.773 33.366 33.86 59.76-1.373 6.937-5.222 11.306-11.033 12.953z"/><path fill="#fdfae7" d="M745.122 368.555c-5.52 4.77-18.713 9.89-24.755 5.512-6.699-4.855-13.517-9.455-18.159-14.25l-21.914-22.656c-8.183-8.457-7.688-20.224-.682-29.398 12.51-16.4 16.529-15.795 37.862-16.307L758 331.733c3.03 14.848-.828 26.411-12.885 36.822z"/><path fill="#fefaec" d="M802.876 275.9c9.386 12.63-.76 27.699-8.883 36.181-9.063 9.472-22.477 12.723-32.658 3.251-11.87-11.042-24.174-23.057-35.054-35.114-8.884-9.848.076-24.815 6.698-32.316 10.146-11.503 24.457-15.6 37.154-5.393 10.957 8.806 23.356 20.753 32.751 33.39z"/><path fill="#fdfae9" d="M776.175 149.436c12.595 12.877 11.486 31.539-2.918 42.811-7.936 6.204-22.503 11.648-30.942 3.627l-33.058-31.42c-3.9-3.703-8.466-15.496-6.076-20.01 4.488-8.465 13.892-16.828 22.707-21.07 20.403-9.82 36.804 12.28 50.278 26.062z"/><path fill="#fbf9ea" d="M362.965 373.692c7.988-.342 14.567-.273 20.873.717 10.581 9.591 20.343 19.217 29.534 29.661 9.438 10.727 2.218 29.38-7.791 35.806-10.948 14.447-26.957 14.592-39.638 3.635-2.312-1.996-5.606-4.317-6.988-5.691l-9.498-9.438-4.497-4.156c-12.885-11.92-5.06-29.969 6.51-40.286z"/><path fill="#fdfbeb" d="m344.994 440.183 22.63 22.605c2.305 16.845-3.02 26.155-15.539 36.506-12.066 9.975-24.951 7.697-35.678-2.202l-16.998-15.675c-2.509-2.313-6.51-8.329-7.868-11.282-7.236-15.803 11-32.119 22.247-41.37 4.173-3.43 17.194-1.723 20.915 1.767l10.291 9.66z"/><path fill="#fefbea" d="M844.877 214.955c7.765 15.351 4.48 30.08-6.776 41.95-6.639 7.014-15.01 9.352-24.695 7.517l-37.188-35.481c-7.211-6.887-7.117-19.175-.88-26.991 6.102-7.646 13.185-14.26 22.443-18.1 4.958-2.056 17.11 2.262 21.308 6.298z"/><path fill="#fcf9e6" d="m485.376 268.245 24.602 24.397c6.28 6.161 10.487 21.368 3.712 28.51l-18.808 19.823c-5.069.264-17.39 2.236-21.205-1.024l-31.855-27.213c-2.577-8.098-4.378-18.347-.828-24.448 9.13-15.701 27.017-30.003 44.382-20.036z"/><path fill="#fdfae9" d="m435.396 322.21 24.022 24.38c3.754 3.814 7.5 16.102 6.732 21.401-1.903 13.082-22.016 29.347-31.778 29.253-4.6-.043-13.96-4.557-17.237-7.979l-28.152-29.355c-7.517-16.52 12.988-40.9 34.356-41.147 3.78-.043 9.975 1.34 12.057 3.456z"/><path fill="#fdfbe9" d="M719.351 498.611c1.622 7.015.768 14.754-2.056 21.479-.82 1.868-4.079 7.833-6.042 9.54l-13.969 12.143c-4.454 3.865-15.385 4.215-20.53 2.236l-21.394-21.47c-9.02-9.054-13.065-19.14-11.025-32.052 7.048-7.808 15.283-16.972 23.876-22.434 5.453-3.464 20.122 1.4 24.679 5.684z"/><path fill="#fcf9ea" d="M667.213 549.956c2.96 6.178 4.394 13.551 3.968 20.224-6.588 15.761-36.839 37.547-46.942 26.565l-26.496-28.809c-3.823-4.156-4.907-17.911-1.528-21.94 7.083-8.43 16.905-17.493 24.815-24.703 22.068 3.217 18.774 2.005 36.19 18.944z"/><path fill="#fefceb" d="m179.447 837.948-26.64 27.076c-26.113 3.874-27.683-1.843-45.995-20.326-4.403-19.38 11.614-45.859 24.917-51.917 4.37-1.988 16.597-1.75 20.762 1.092 14.788 10.112 30.848 23.39 26.956 44.075"/><path fill="#fdfaeb" d="M281.668 484.258c7.066 4.813 13.85 10.206 19.2 15.761l17.792 18.475c-.827 22.852-6.87 21.367-20.318 38.51l-19.208 3.781c-3.925-2.492-11.008-6.332-13.636-8.951l-19.968-19.849c-5.402-8.798-3.354-19.106 3.37-27.656l11.128-14.157c2.833-3.61 10.206-6.93 14.404-6.562l7.253.64z"/><path fill="#fdfdec" d="M763.085 438.025c4.59 7.867 6.17 20.394.887 29.636-6.485 11.34-25.028 26.615-36.25 22.425-2.977-2.389-6.92-5.589-10.845-9.71l-22.912-24.073c-7.262-7.629 7.082-31.471 22.255-40.277 9.617-5.581 23.987 1.075 32.69 9.036z"/><path fill="#fcfae6" d="m526.746 214.34 5.324 7.373c3.687.53 11.913 2.236 14.234 4.702l12.749 13.517c11.213 11.887 6.775 30.532-5.265 40.78-4.83 4.114-14.729 11.23-20.113 10.599-15.215-1.784-36.89-25.037-44.194-35.456-3.832-26.53 23.347-42.53 37.265-41.515"/><path fill="#fefbea" d="M880.947 196.804c-7.33 9.157-21.137 14.37-28.424 7.56l-22.742-21.273c-4.471-4.19-12.825-14.848-12.578-20.898.384-9.446 9.575-19.942 16.623-25.216 19.891-14.874 41.498 10.42 52.787 25.822 6.87 9.37 1.86 24.593-5.666 33.997z"/><path fill="#fdf9e3" d="M807.902 381.995c1.553 3.328 4.966 11.793 4.514 15.744-2.116 18.645-24.533 42.726-43.264 34.167-7.868-8.217-35.123-35.362-25.882-49.357 10.76-16.307 29.03-33.382 45.406-18.287l19.234 17.733z"/><path fill="#fdfaeb" d="M616.269 610.304c.563 3.37 3.464 11.307.81 14.063-9.565 9.907-29.098 25.788-40.08 28.049l-29.833-30.396c-4.873-4.966-2.722-20.522 1.8-25.122l18.714-19.03c25.634-4.94 38.357 13.262 48.589 32.436m214.639-483.123c-7.365 7.108-13.167 12.885-20.233 18.372-7.62 5.922-21.205-.82-27.025-6.955l-26.035-27.494c-5.606-5.922 2.133-19.09 6.938-23.535 10.658-9.882 21.725-13.508 34.722-9.335l20.036 16.162c9.907 7.995 12.715 19.038 11.588 32.785z"/><path fill="#fcf8ea" d="m238.78 542.285 24.055 24.678c4.216 4.403 5.41 19.934 1.647 24.918-4.761 6.314-13.414 15.214-19.413 20.377-3.9 3.354-17.374 4.864-21.385 1.715-6.741-5.299-32.64-26.427-27.085-35.353l8.815-14.166 16.87-19.72c3.081-3.601 11.87-3.644 16.496-2.44z"/><path fill="#fdfbee" d="m217.728 644.437-18.944 22.537c-5.888 7.006-18.893 11.272-27.298 6.041-9.148-5.7-15.403-11.955-23.91-20.343 1.314-7.22 3.089-13.397 6.545-18.227l11.758-16.418 12.672-15.975c12.732.538 29.082 15.736 34.97 24.679 2.108 3.2 2.756 10.974 4.207 17.706"/><path fill="#fdfbec" d="M163.695 701.815c-2.756 11.648-12.783 23.382-22.093 31.565-15.36 13.491-39.552-6.28-39.62-16.341 9.788-16.981 23.16-59.708 44.945-44.066 8.926 6.408 20.087 14.84 16.768 28.842"/><path fill="#fdfaea" d="M551.091 674.415c-2.27 2.295-7.39 5.914-11.272 8.704l-21.112 15.18c-7.577-6.536-19.106-16.742-23.68-25.872-5.888-11.75 9.575-31.224 22.315-38.955 13.696-8.303 23.748 3.447 31.13 11.622l15.086 16.692-12.475 12.62z"/><path fill="#fdfbe9" d="M914.278 139.75c-4.83 6.477-17.194 12.39-24.243 7.612-11.204-7.586-28.74-22.408-29.423-37.461 3.84-6.93 10.437-16.836 16.709-20.207 15.53-8.354 29.269 1.57 37.384 13.781 7.424 11.162 9.924 22.383-.427 36.275"/><path fill="#fdfce8" d="M868.685 63.744c5.41 7.262.324 20.446-4.07 25.31-5.044 5.58-16.871 11.878-24.935 7.518-9.48-5.129-18.15-13.816-25.259-22.025-7.031-8.115-3.225-18.97 4.702-25.352 5.18-4.173 11.52-7.16 18.236-7.757 11.571-1.033 21.973 9.753 31.317 22.306z"/><path fill="#fdfbed" d="M96.589 740.437c8.593 5.078 31.454 16.982 27.409 29.807-8.917 28.211-36.403 57.55-42.257 42.454-5.863-15.121-4.292-30.37-.76-44.408l4.037-16.017c1.245-4.932 6.664-10.052 11.57-11.827zm400.52-23.73-15.428 12.407c-7.74 6.229-15.915 12.253-23.074 17.288l-11.921-12.006c-4.002-4.037-6.392-18.569-2.927-23.245 5.82-7.85 14.49-16.666 21.658-22.57 10.359-8.543 32.648 4.292 40.994 17.501l-9.31 10.624z"/><path fill="#faf4e2" d="M761.958 39.774c3.627 3.729 10.991 11.75 11.657 16.64 2.176 16.068-23.97 40.277-41.796 32.99-8.03-3.286-14.865-10.291-21.044-17.391 4.267-8.96 29.492-29.68 34.979-30.328z"/><path fill="#fbf8e6" d="m439.057 762.982-11.494 8.355-26.838 21.401c-4.164-1.04-10.914-7.287-10.837-11.725.401-23.45 23.57-40.38 35.447-40.857 7.851-.316 16.692 8.354 21.675 13.764z"/><path fill="#fbf5df" d="M802.773 49.024c-11.153 4.702-20.514 1.638-26.709-7.134l13.995-20.574c.042-6.272 6.058-13.773 13.397-13.141 3.234.282 9.882 2.893 12.092 4.642l14.105 11.179c-5.376 11.247-14.208 19.686-26.888 25.028z"/><path fill="#fbf7e8" d="M372.881 816.785c-5.333 5.342-12.322 10.71-19.166 16.418l-13.363 11.153c-17.81-15.454 16.068-46.506 28.91-49.723 4.711-1.178 14.08 6.536 16.283 9.48l-12.664 12.68z"/><path fill="#abb471" d="M676.762 544c5.154 1.988 16.085 1.638 20.53-2.236l13.97-12.143c1.963-1.706 5.222-7.671 6.041-9.54l.094 19.917c0 1.519 1.28 5.948 1.46 6.195l-32.086 22.52c-4.88 3.43-11.733 6.826-16.077 9.01l.487-7.551c.426-6.673-1.007-14.046-3.968-20.224l9.549-5.957z"/><path fill="#e5ddc4" d="m349.466 428.382-5.385-.683c-.998-.128.486-2.807.888-3.481l4.497 4.155z"/></svg>