<svg xmlns="http://www.w3.org/2000/svg" viewBox="0 0 1024 1024"><path fill="#844230" d="M497.778 113.778c52.963 59.278 79.445 125.497 79.445 198.627l-.057-6.272c51.001-48.924 115.044-75.548 192.142-79.886-4.465 79.374-32.568 144.925-84.266 196.622l4.394-4.48c70.642 1.48 134.742 27.947 192.342 79.389C822.5 550.74 756.28 577.223 683.15 577.223l6.272-.057c48.925 51.001 75.549 115.044 79.886 192.142-79.374-4.465-144.924-32.568-196.622-84.266l4.48 4.394c-1.479 70.642-27.946 134.742-79.388 192.342-52.964-59.278-79.446-125.497-79.446-198.628l.057 6.272c-51 48.925-115.043 75.549-192.142 79.886 4.466-79.374 32.569-144.924 84.267-196.622l-4.395 4.48c-70.642-1.479-134.741-27.946-192.341-79.388 59.278-52.964 125.497-79.446 198.627-79.446l-6.272.057c-48.924-51-75.548-115.043-79.886-192.142 79.374 4.466 144.925 32.569 196.622 84.267l-4.48-4.395c1.48-70.642 27.947-134.741 79.389-192.341"/><path fill="#c66e2e" d="M497.778 142.222c47.402 53.063 71.11 112.327 71.11 177.778q0 3.521-.084 6.997c45.24-43.207 102.03-66.73 170.34-70.585-3.983 70.557-28.943 128.825-74.91 174.792l4.324-4.452q3.476-.085 6.998-.085c65.45 0 124.714 23.708 177.777 71.11-53.063 47.403-112.327 71.112-177.777 71.112q-3.52 0-6.998-.085c43.207 45.24 66.73 102.03 70.585 170.34-70.556-3.983-128.825-28.943-174.791-74.91l4.452 4.324q.085 3.476.085 6.998c0 65.45-23.709 124.714-71.111 177.777-47.403-53.063-71.111-112.327-71.111-177.777q0-3.52.085-6.998c-45.24 43.207-102.03 66.73-170.34 70.585 3.983-70.556 28.943-128.825 74.909-174.791l-4.324 4.452q-3.477.085-6.997.085c-65.45 0-124.715-23.709-177.778-71.111C195.285 450.375 254.55 426.667 320 426.667q3.521 0 6.997.085c-43.207-45.24-66.73-102.03-70.585-170.34 70.557 3.983 128.825 28.943 174.792 74.909l-4.452-4.324a269 269 0 0 1-.085-6.997c0-65.45 23.708-124.715 71.11-177.778"/><path fill="#191919" d="m455.353 75.876-4.95 5.646c-32.611 37.774-56.419 78.492-71.153 121.785l-1.536 4.636-4.125-2.09c-43.136-21.263-91.349-33.423-144.142-36.41a56.89 56.89 0 0 0-60.003 60.004l.512 7.68c3.768 51.03 16.256 97.707 37.432 139.549l.527.995-1.138.356c-46.649 15.331-90.482 41.216-130.901 77.326a56.89 56.89 0 0 0 0 84.85l5.646 4.949c37.774 32.612 78.492 56.42 121.785 71.154l4.593 1.507-.526 1.01c-22.186 43.876-34.873 93.184-37.93 147.285a56.89 56.89 0 0 0 60.003 60.004l7.68-.512c51.03-3.769 97.707-16.256 139.549-37.433l.995-.54.356 1.137c15.331 46.65 41.216 90.496 77.326 130.916a56.89 56.89 0 0 0 84.85 0l4.949-5.646c32.612-37.774 56.42-78.493 71.154-121.785l1.522-4.65 4.138 2.104c43.136 21.262 91.35 33.422 144.142 36.409a56.89 56.89 0 0 0 60.004-60.004l-.512-7.68c-3.769-51.029-16.256-97.706-37.433-139.548l-.569-1.052.996-.3c46.834-15.33 90.666-41.215 131.086-77.325a56.89 56.89 0 0 0 0-84.85l-5.646-4.95c-37.774-32.611-78.493-56.419-121.785-71.153l-4.708-1.55.37-.712c22.457-44.131 35.143-93.44 38.201-147.54a56.89 56.89 0 0 0-60.004-60.004l-7.68.512c-51.029 3.768-97.706 16.256-139.548 37.432l-1.052.555-.3-.967c-15.33-46.848-41.215-90.68-77.325-131.1a56.89 56.89 0 0 0-84.85 0m234.083 342.513c70.642 1.48 134.742 27.947 192.342 79.389-55.694 49.75-117.49 76.146-185.401 79.16l-6.955.214 4.523 4.836c46.037 50.19 71.154 112.64 75.363 187.306-74.567-4.181-136.917-29.226-187.064-75.107l-5.078-4.75c-1.479 70.641-27.946 134.74-79.388 192.34-49.75-55.693-76.146-117.489-79.161-185.4l-.228-6.955-4.821 4.523c-50.19 46.037-112.64 71.154-187.307 75.363 4.182-74.567 29.227-136.917 75.108-187.064l4.75-5.078c-70.642-1.479-134.741-27.946-192.341-79.388 55.694-49.75 117.49-76.146 185.4-79.161l6.941-.228-4.508-4.821c-46.038-50.19-71.154-112.64-75.364-187.307 74.567 4.182 136.917 29.227 187.065 75.108l5.077 4.75c1.48-70.642 27.947-134.741 79.389-192.341 49.75 55.694 76.146 117.49 79.16 185.4l.214 6.941 4.836-4.508c50.19-46.038 112.64-71.154 187.306-75.364-4.181 74.567-29.226 136.917-75.107 187.065z"/><path fill="#ff9740" d="M497.778 512c37.93-50.944 56.889-107.833 56.889-170.667s-18.959-119.722-56.89-170.666C459.848 221.61 440.89 278.5 440.89 341.333S459.847 461.056 497.778 512"/><path fill="#ff9740" d="M483.556 497.778c50.944 37.93 107.832 56.889 170.666 56.889s119.723-18.959 170.667-56.89c-50.944-37.93-107.833-56.888-170.667-56.888S534.5 459.847 483.556 497.778"/><path fill="#ff9740" d="M497.778 483.556c-37.93 50.944-56.89 107.832-56.89 170.666s18.96 119.723 56.89 170.667c37.93-50.944 56.889-107.833 56.889-170.667s-18.959-119.722-56.89-170.666"/><path fill="#ff9740" d="M512 497.778c-50.944-37.93-107.833-56.89-170.667-56.89s-119.722 18.96-170.666 56.89c50.944 37.93 107.833 56.889 170.666 56.889S461.056 535.708 512 497.777"/><path fill="#844230" d="M497.778 170.667c37.93 50.944 56.889 107.833 56.889 170.666 0 39.41-7.467 76.487-22.386 111.218a56.5 56.5 0 0 1 10.738 10.738c34.702-14.933 71.808-22.4 111.203-22.4 62.834 0 119.723 18.958 170.667 56.889-50.944 37.93-107.833 56.889-170.667 56.889-39.41 0-76.487-7.467-111.218-22.386a56.5 56.5 0 0 1-10.737 10.738c14.933 34.702 22.4 71.808 22.4 111.203 0 62.834-18.959 119.723-56.89 170.667-37.93-50.944-56.888-107.833-56.888-170.667 0-39.41 7.467-76.487 22.386-111.218a56.7 56.7 0 0 1-10.738-10.737c-34.702 14.933-71.808 22.4-111.204 22.4-62.833 0-119.722-18.959-170.666-56.89 50.944-37.93 107.833-56.888 170.666-56.888 39.41 0 76.487 7.467 111.218 22.386a56.5 56.5 0 0 1 10.738-10.738c-14.933-34.702-22.4-71.808-22.4-111.204 0-62.833 18.958-119.722 56.889-170.666m8.291 383.388-2.645.341a57.6 57.6 0 0 1-13.91-.327c-12.657 29.327-19.342 60.487-20.11 93.64l-.07 6.513c0 41.43 9.073 79.787 27.32 115.414l1.124 2.119 1.123-2.134c18.247-35.612 27.321-73.941 27.321-115.399 0-35.584-6.684-68.906-20.153-100.167m148.153-84.722c-35.584 0-68.906 6.685-100.167 20.153a55.5 55.5 0 0 1 .014 16.555c29.327 12.658 60.487 19.342 93.64 20.11l6.513.071c41.43 0 79.787-9.074 115.414-27.32l2.119-1.124-2.134-1.124c-35.612-18.247-73.941-27.32-115.399-27.32m-312.889 0c-41.429 0-79.786 9.074-115.413 27.321l-2.12 1.124 2.134 1.123c35.613 18.247 73.942 27.321 115.4 27.321 35.583 0 68.906-6.684 100.166-20.153a55.5 55.5 0 0 1-.014-16.554c-29.326-12.658-60.487-19.343-93.639-20.11zm156.445-245.532-1.124 2.133c-18.247 35.613-27.32 73.942-27.32 115.4 0 35.583 6.684 68.906 20.152 100.166a55.5 55.5 0 0 1 16.555-.014c12.658-29.326 19.342-60.487 20.11-93.639l.071-6.514c0-41.429-9.074-79.786-27.32-115.413z"/><path fill="#ff9740" d="M469.333 497.778a28.444 28.444 0 1 0 56.89 0 28.444 28.444 0 1 0-56.89 0"/></svg>