<svg xmlns="http://www.w3.org/2000/svg" viewBox="0 0 1024 1024"><path fill="#f28725" d="M398.374 241.1c19.174 5.206 32.46 17.144 51.336 17.11-20.59 12.63-43.46 31.224-57.045 51.337l-22.92 14.156c-39.237 51.397-73.933 140.928-79.642 205.568-7.262 82.339-3.32 181.65 23.927 261.044 8.568 24.968 21.36 48.955 32.999 72.516-48.094 13.807-135.86.939-164.625-43.563-9.54-14.762-17.434-40.32-22.23-57.634-31.47-113.68-26.052-257.135 18.492-366.626 4.241-10.42 35.388-64.222 31.454-68.36-10.13-1.63-17.007 7.38-22.92 14.148-82.68 94.6-96.197 269.124-67.158 386.807l33.024 89.609C99.144 792.32 53.85 743.774 21.84 694.622c-7.39-9.122-5.614 4.267-5.666 8.508L4.876 665.94c-22.417-138.018 31.548-352.41 180.787-400.827 33.391-10.838 59.46-2.654 90.053-6.912 18.09-2.518 45.132-20.028 68.59-22.682 19.806-2.244 35.457.52 54.05 5.564zm-121.848 69.163c-12.347 2.407-36.983 26.599-41.01 38.938-19.414 59.494 44.313 47.13 57.6 6.264 5.29-16.265 8.413-50.083-16.598-45.202z"/><path fill="#f38725" d="M997.311 440.755c-19.55 8.465-9.557 36.864-11.545 54.05-3.874 33.536-26.633 96.59-48.572 122.556-5.572 6.588-9.71 13.56-19.738 11.631v-99.823c0-1.135-4.087-3.268-4.625-6.784-12.347-81.766-42.282-161.34-109.448-212.83l37.163 68.352c43.844 108.561 67.686 238.61 9.557 346.308-32.077 59.427-86.955 102.605-155.11 110.123 5-19.575 15.522-35.516 21.41-55.586 41.08-139.938 29.593-335.36-62.336-453.956-2.074-2.671-12.638-21.624-16.128-9.54-19.055-17.93-34.339-42.838-57.046-57.046 4.139.359 7.74-.947 11.478-2.534 9.31-3.96 30.31-19.15 34.159-20.284 24.38-7.177 73.574 4.676 98.585 12.646 27.11 8.636 16.137 10.112 46.6 9.933 118.648-.691 189.535 75.904 225.588 182.776z"/><path fill="#eb6e1c" d="M637.947 315.264c3.49-12.083 14.055 6.87 16.128 9.54 91.921 118.597 103.407 314.018 62.336 453.957-5.888 20.061-16.41 36.01-21.41 55.586 68.156-7.518 123.034-50.697 155.11-110.123 58.13-107.7 34.287-237.747-9.557-346.308l-37.163-68.352c67.166 51.481 97.101 131.063 109.449 212.83.529 3.524 4.625 5.657 4.625 6.784V629c10.035 1.928 14.174-5.044 19.738-11.631 21.947-25.967 44.697-89.02 48.571-122.556 1.989-17.186-8.004-45.585 11.546-54.05 36.975 109.619 36.813 229.359-8.465 336.64-26.445 62.651-90.965 135.21-160.896 147.131-18.185 3.098-38.067-1.74-55.023 2.023-11.537 2.56-28.834 18.987-43.64 24.815-40.66 15.991-86.81 19.405-125.568-2.927.538-.589-.452-7.032 2.842-11.162 93.056-116.659 103.33-270.225 88.525-413.9-2.116-20.557.776-46.686-11.512-65.502-2.935-51.687-24.08-97.255-45.636-142.61z"/><path fill="#eb6e1b" d="M392.665 309.555c-92.305 136.653-85.129 414.567-17.11 559.01 14.123 29.995 28.408 53.052 45.637 79.855-43.99 27.614-105.745 17.058-148.173-8.687-36.377-22.075-33.997-9.344-71.347-14.216-93.21-12.177-158.558-116.258-179.78-199.552l-.623-13.551-5.078-3.559c-.273-1.774-.017-3.874 0-5.7.052-4.232-1.723-17.63 5.667-8.508 32 49.152 77.303 97.699 131.225 122.59L120.06 727.63c-29.047-117.675-15.53-292.207 67.157-386.808 5.914-6.767 12.792-15.778 22.921-14.148 3.934 4.139-27.213 57.933-31.454 68.36C134.14 504.526 128.72 647.98 160.191 761.66c4.796 17.314 12.68 42.871 22.23 57.634 28.774 44.501 116.54 57.37 164.625 43.563-11.64-23.561-24.431-47.557-32.999-72.517-27.247-79.394-31.197-178.705-23.927-261.043 5.7-64.648 40.397-154.172 79.642-205.568l22.92-14.157z"/><path fill="#f38528" d="M603.72 948.429c-.538.589-10.035 1.135-15.394 4.412-37.223 22.707-60.1 30.77-106.138 23.014-23.808-4.01-38.28-23.347-60.996-27.418-17.229-26.811-31.514-49.868-45.636-79.855C499.383 914.423 608.029 826.24 652.3 714.658c32.145-81.024 36.207-170.308 31.283-256.776 12.28 18.816 9.387 44.936 11.512 65.501 14.805 143.676 4.54 297.242-88.525 413.901-3.294 4.13-2.304 10.573-2.842 11.162z"/><path fill="#649a3b" d="M580.902 64.273c-37.444 19.311-53.982 48.46-62.626 88.533-1.758 8.141.998 17.937-1.033 27.486-4.437 20.873-26.428 44.1-39.014 60.809-4.36 1.68-22.417 13.363-28.519 17.11-18.875.033-32.162-11.905-51.336-17.11 7.893-11.862 24.559-10.974 36.343-17.843 44.348-25.848 40.858-107.23 69.334-147.43 19.293-27.24 55.919-46.73 76.86-11.563z"/><path fill="#588d37" d="M626.538 235.4c-3.84 1.135-24.849 16.325-34.159 20.284-3.737 1.587-7.339 2.902-11.477 2.535-11.785-7.373-31.872-15.54-45.636-17.11l-3.363-5.077a205.7 205.7 0 0 0-38.903 0l-3.362 5.077c-3.635.299-9.08-.896-11.41 0 12.587-16.708 34.578-39.936 39.015-60.808 2.031-9.549-.725-19.345 1.033-27.486 8.652-40.073 25.182-69.222 62.626-88.533.205.34 4.147.145 5.154 3.379 6.588 21.256-17.016 36.045-25.225 53.555-24.559 52.412 15.139 100.25 65.707 114.193z"/><path fill="#f28725" d="M21.892 725.965c-.453-1.775-4.002-6.016-5.7-17.11l5.077 3.559z"/><path fill="#fa962a" d="M489.638 241.1c12.92-1.074 33.032-1.441 45.636 0 13.756 1.57 33.843 9.737 45.636 17.11 22.708 14.2 37.99 39.117 57.046 57.045 21.555 45.347 42.692 90.923 45.636 142.61 4.915 86.468.862 175.752-31.283 256.776-44.271 111.582-152.918 199.765-276.745 153.924-68.01-144.452-75.196-422.357 17.11-559.01 13.585-20.113 36.454-38.716 57.045-51.336 6.11-3.746 24.158-15.437 28.518-17.11 2.33-.896 7.774.299 11.41 0zm-47.83 80.538c-3.6 1.067-26.555 23.587-29.132 27.887-18.475 30.848-43.836 131.951 16.162 118.818 20.608-4.514 44.86-51.217 48.29-71.475 5.018-29.568 8.619-88.286-35.32-75.23"/><path fill="#fca64b" d="M276.526 310.263c25.012-4.88 21.88 28.937 16.598 45.202-13.287 40.866-77.014 53.23-57.6-6.264 4.027-12.34 28.655-36.531 41.01-38.938z"/><path fill="#649a3b" d="M535.274 241.1c-12.604-1.441-32.717-1.074-45.636 0l3.362-5.077a205.7 205.7 0 0 1 38.903 0l3.363 5.078z"/><path fill="#fcac4f" d="M441.808 321.638c43.939-13.056 40.338 45.662 35.32 75.23-3.439 20.258-27.69 66.961-48.29 71.475-59.998 13.142-34.637-87.961-16.162-118.818 2.577-4.3 25.531-26.82 29.132-27.887"/></svg>