<svg xmlns="http://www.w3.org/2000/svg" viewBox="0 0 1024 1024"><path fill="#35a872" d="M839.14 291.812c-5.263 0-10.525.568-15.645 1.763 24.093-30.976 19.883-76.032-9.529-101.717a70.06 70.06 0 0 0-99.214 6.684c-16.27-31.715-50.404-53.56-89.884-53.56-44.857 0-82.83 28.216-95.488 67.071a69.92 69.92 0 0 0-80.498 10.183 74.81 74.81 0 0 0-19.342 80.953c-26.824 17.494-39.197 51.087-30.35 82.46 8.817 31.375 36.778 52.936 68.55 52.964h371.4c39.452 0 71.424-32.881 71.424-73.386 0-40.562-31.972-73.415-71.396-73.415z"/><path fill="#f7b030" d="M310.613 423.936a132.124 128.569 90 1 0 257.138 0 132.124 128.569 90 1 0-257.138 0"/><path fill="#b1bd70" d="M539.164 467.968a132.124 128.569 90 1 0 257.138 0 132.124 128.569 90 1 0-257.138 0"/><path fill="#e9eef2" d="M382.037 350.52c0 16.214-12.8 29.356-28.558 29.356H182.073c-15.787 0-28.558-13.142-28.558-29.355a118.61 118.61 0 0 1 35.754-85.333 118.76 118.76 0 0 0 35.641-85.192v-5.632h85.732v5.632c-.029 32.228 12.857 63.033 35.612 85.192a118.61 118.61 0 0 1 35.783 85.333"/><path fill="#a3d4f7" d="M382.037 350.52c0 16.214-12.8 29.356-28.558 29.356H182.073c-15.787 0-28.558-13.142-28.558-29.355a118.56 118.56 0 0 1 35.754-85.333 115.5 115.5 0 0 0 14.735-17.437h127.544a115.3 115.3 0 0 0 14.706 17.437 118.61 118.61 0 0 1 35.783 85.333M182.044 556.06H353.48c15.787 0 28.558 13.142 28.558 29.355V717.54c0 32.426-25.571 58.737-57.116 58.737H210.63c-31.573 0-57.116-26.31-57.116-58.737V585.415c0-16.213 12.8-29.355 28.558-29.355z"/><path fill="#2d85cc" d="M224.91 115.627h85.732c15.758 0 28.558 13.141 28.558 29.354v29.383H196.352v-29.383c0-16.213 12.8-29.354 28.558-29.354"/><path fill="#a3d4f7" d="M182.869 379.876h169.842q29.355 0 29.355 29.354v29.383q0 29.355-29.355 29.355H182.87q-29.354 0-29.354-29.355V409.23q0-29.354 29.354-29.354M182.869 467.968h169.842q29.355 0 29.355 29.355v29.383q0 29.354-29.355 29.354H182.87q-29.354 0-29.354-29.354v-29.383q0-29.355 29.354-29.355"/><path fill="#99c7e8" d="M353.48 394.553H182.072a14.507 14.507 0 0 1-14.28-14.677 14.507 14.507 0 0 1 14.28-14.678h171.406a14.507 14.507 0 0 1 14.28 14.678 14.507 14.507 0 0 1-14.28 14.677m0 88.092H182.072a14.507 14.507 0 0 1-14.28-14.677 14.507 14.507 0 0 1 14.28-14.677h171.406a14.507 14.507 0 0 1 14.28 14.677 14.507 14.507 0 0 1-14.28 14.677m0 88.093H182.072a14.507 14.507 0 0 1-14.28-14.678 14.507 14.507 0 0 1 14.28-14.677h171.406a14.507 14.507 0 0 1 14.28 14.677 14.507 14.507 0 0 1-14.28 14.678"/><path fill="#eb423f" d="M843.89 908.402H205.88c-21.73 0-40.02-15.73-42.552-36.608l-52.68-433.21h828.474l-52.68 433.21c-2.53 20.878-20.82 36.608-42.552 36.608"/><path fill="#d13330" d="M239.218 849.664a14.507 14.507 0 0 1-14.308-14.677v-88.064a14.507 14.507 0 0 1 14.308-14.706 14.507 14.507 0 0 1 14.279 14.706v88.064a14.507 14.507 0 0 1-14.28 14.677m57.116-146.802a14.507 14.507 0 0 1-14.279-14.677v-88.093a14.507 14.507 0 0 1 14.28-14.677 14.507 14.507 0 0 1 14.307 14.677v88.093a14.507 14.507 0 0 1-14.308 14.677m0 146.802a14.507 14.507 0 0 1-14.279-14.677v-88.064a14.507 14.507 0 0 1 14.28-14.706 14.507 14.507 0 0 1 14.307 14.706v88.064a14.507 14.507 0 0 1-14.308 14.677m57.145-146.802a14.507 14.507 0 0 1-14.279-14.677v-88.093a14.507 14.507 0 0 1 14.28-14.677 14.507 14.507 0 0 1 14.278 14.677v88.093a14.507 14.507 0 0 1-14.279 14.677m0 146.802a14.507 14.507 0 0 1-14.279-14.677v-88.064a14.507 14.507 0 0 1 14.28-14.706 14.507 14.507 0 0 1 14.278 14.706v88.064a14.507 14.507 0 0 1-14.279 14.677m57.145-146.802a14.507 14.507 0 0 1-14.28-14.677v-88.093a14.507 14.507 0 0 1 14.28-14.677 14.507 14.507 0 0 1 14.28 14.677v88.093a14.507 14.507 0 0 1-14.28 14.677m0 146.802a14.507 14.507 0 0 1-14.28-14.677v-88.064a14.507 14.507 0 0 1 14.28-14.706 14.507 14.507 0 0 1 14.28 14.706v88.064a14.507 14.507 0 0 1-14.28 14.677m228.523-146.802a14.507 14.507 0 0 1-14.28-14.677v-88.093a14.507 14.507 0 0 1 14.308-14.677 14.507 14.507 0 0 1 14.28 14.677v88.093a14.507 14.507 0 0 1-14.28 14.677zm0 146.802a14.507 14.507 0 0 1-14.28-14.677v-88.064a14.507 14.507 0 0 1 14.308-14.706 14.507 14.507 0 0 1 14.28 14.706v88.064a14.507 14.507 0 0 1-14.28 14.677zm57.173-146.802a14.507 14.507 0 0 1-14.308-14.677v-88.093a14.507 14.507 0 0 1 14.28-14.677 14.507 14.507 0 0 1 14.307 14.677v88.093a14.507 14.507 0 0 1-14.307 14.677zm0 146.802a14.507 14.507 0 0 1-14.308-14.677v-88.064a14.507 14.507 0 0 1 14.28-14.706 14.507 14.507 0 0 1 14.307 14.706v88.064a14.507 14.507 0 0 1-14.307 14.677zm57.116-146.802a14.507 14.507 0 0 1-14.279-14.677v-88.093a14.507 14.507 0 0 1 14.28-14.677 14.507 14.507 0 0 1 14.279 14.677v88.093a14.507 14.507 0 0 1-14.28 14.677m0 146.802a14.507 14.507 0 0 1-14.279-14.677v-88.064a14.507 14.507 0 0 1 14.28-14.706 14.507 14.507 0 0 1 14.279 14.706v88.064a14.507 14.507 0 0 1-14.28 14.677m57.145-146.802a14.507 14.507 0 0 1-14.279-14.677v-88.093a14.507 14.507 0 0 1 14.28-14.677 14.507 14.507 0 0 1 14.278 14.677v88.093a14.507 14.507 0 0 1-14.279 14.677m0 146.802a14.507 14.507 0 0 1-14.279-14.677v-88.064a14.507 14.507 0 0 1 14.28-14.706 14.507 14.507 0 0 1 14.278 14.706v88.064a14.507 14.507 0 0 1-14.279 14.677M524.885 702.862a14.507 14.507 0 0 1-14.279-14.677v-88.093a14.507 14.507 0 0 1 14.28-14.677 14.507 14.507 0 0 1 14.278 14.677v88.093a14.507 14.507 0 0 1-14.279 14.677m0 146.802a14.507 14.507 0 0 1-14.279-14.677v-88.064a14.507 14.507 0 0 1 14.28-14.706 14.507 14.507 0 0 1 14.278 14.706v88.064a14.507 14.507 0 0 1-14.279 14.677M467.74 702.862a14.507 14.507 0 0 1-14.279-14.677v-88.093a14.507 14.507 0 0 1 14.28-14.677 14.507 14.507 0 0 1 14.307 14.677v88.093a14.507 14.507 0 0 1-14.308 14.677m0 146.802a14.507 14.507 0 0 1-14.279-14.677v-88.064a14.507 14.507 0 0 1 14.28-14.706 14.507 14.507 0 0 1 14.307 14.706v88.064a14.507 14.507 0 0 1-14.308 14.677m114.29-146.802a14.507 14.507 0 0 1-14.279-14.677v-88.093a14.507 14.507 0 0 1 14.28-14.677 14.507 14.507 0 0 1 14.278 14.677v88.093a14.507 14.507 0 0 1-14.279 14.677m0 146.802a14.507 14.507 0 0 1-14.279-14.677v-88.064a14.507 14.507 0 0 1 14.28-14.706 14.507 14.507 0 0 1 14.278 14.706v88.064a14.507 14.507 0 0 1-14.279 14.677"/><path fill="#f74643" d="M714.07 481.422 885.475 804.38c4.835 9.302 14.165 15.19 24.405 15.474s19.883-5.12 25.202-14.108c5.319-9.017 5.518-20.253.569-29.469L764.217 453.262l-50.148 28.132z"/><path fill="#d13330" d="M239.218 702.862a14.507 14.507 0 0 1-14.308-14.677v-88.093a14.507 14.507 0 0 1 14.308-14.677 14.507 14.507 0 0 1 14.279 14.677v88.093a14.507 14.507 0 0 1-14.28 14.677"/><path fill="#f74643" d="M335.701 482.02 164.295 805.006a28.16 28.16 0 0 1-38.684 11.634 29.78 29.78 0 0 1-11.463-39.765l171.406-322.959z"/></svg>