<svg xmlns="http://www.w3.org/2000/svg" viewBox="0 0 1024 1024"><path fill="#f1b561" d="M307.03 855.782c54.664 6.784 109.414 9.797 164.846 7.63 104.2-4.071 216.363-17.059 321.733-7.937 19.336 1.673 38.792 27.008 50.986 7.748 10.931-17.271-3.712-27.682-3.72-40.302 0-8.039 7.313-17.22 7.594-28.937.965-40.132-1.612-80.563-.094-120.627 46.84-1.895 46.541-42.607 0-44.39-4.642-92.442 5.402-189.44-.204-281.387-1.195-19.593 1.263-14.012-14.66-25.276 30.13 1.545 84.275 8.678 113.237 14.72 43.136 9.003 65.211 26.266 77.252 69.547-16.47 69.802-25.37 140.936-37.171 211.473-11.017 65.834-23.996 131.678-36.07 197.802-7.134 39.057-6.571 106.88-32.982 135.126-37.564 40.175-77.602 13.482-124.348 14.293-139.605-35.26-290.423-43.895-430.02-74.479-12.826-2.807-40.584-8.917-49.306-16.64-8.797-7.782-5.444-15.693-7.074-18.364m607.496-405.666c0-10.427-8.457-18.884-18.893-18.884s-18.893 8.457-18.893 18.884 8.457 18.885 18.893 18.885 18.893-8.457 18.893-18.885"/><path fill="#f2b661" d="M811.571 322.295c-9.864 142.447 13.116 302.038.299 442.437-2.227 24.414-13.739 41.66-36.497 51.217-154.257 6.11-310.332 3.336-465.272 2.935-14.668-.034-16.682 7.458-17.69 7.663-1.723.35-11.186-6.81-18.286-7.091-27.52-1.084-56.909 5.41-77.227-18.219-7.142-8.303-5.35-16.162-6.86-18.534l480.366-72.098 27.665 13.875 15.036-7.313c-1.937-23.97 20.335-39.04 24.158-56.243 10.94-49.212-13.756-137.31-20.617-188.945-3.95-29.756-19.95-131.661-13.73-152.32 2.757-9.165 18.16-13.406 13.415-29.96l-28.365-22.913-8.004-83.345c34.32 2.04 28.97 11.068 50.986 18.45 4.847 1.629 10.138-1.946 15.087-.36 8.696 2.8 45.858 15.591 47.6 18.117 16.076 30.071 7.73 60.877 10.512 92.1.461 5.137 2.44 8.773 7.433 10.547z"/><path fill="#de9644" d="M826.197 322.295c2.424-.017 4.898-.128 7.313 0 15.924 11.264 13.466 5.684 14.66 25.276 5.616 91.947-4.437 188.954.205 281.387 46.541 1.783 46.84 42.496 0 44.39-1.518 40.056 1.05 80.495.094 120.627-.281 11.717-7.603 20.899-7.594 28.937 0 12.62 14.651 23.031 3.72 40.303-12.194 19.26-31.641-6.067-50.986-7.748-105.37-9.114-217.532 3.865-321.733 7.936-55.424 2.167-110.174-.845-164.847-7.63-4.83-7.901-17.271-14.71-14.626-29.234 1.007-.205 3.021-7.706 17.69-7.663 154.94.4 311.023 3.174 465.271-2.936 22.767-9.557 34.27-26.803 36.497-51.217 12.817-140.399-10.163-299.99-.298-442.436 4.872-.026 9.753.034 14.626 0z"/><path fill="#dc9544" d="m679.953 183.45 8.004 83.345 28.365 22.912c4.745 16.554-10.658 20.787-13.414 29.96-6.213 20.66 9.779 122.564 13.73 152.32 6.86 51.627 31.556 139.725 20.616 188.945-3.823 17.203-26.095 32.273-24.157 56.243l-15.036 7.314-27.665-13.876-480.367 72.098c-.674-1.058-4.557-2.628-7.313-7.304-5.624-35.388 5.034-27.64 33.032-36.429 103.731-4.855 205.125-27.912 307.132-43.819 41.856-6.528 89.028-4.514 130.15-16.085 28.502-8.021 51.977-46.882 48.888-75.196-6.64-60.765-21.231-122.547-29.15-183.04-4.292-32.802-2.364-69.794-14.6-102.331l-.308-50.85c-4.377-21.726-13.55-51.917-14.669-73.08-.75-14.234-.631-10.522 11.17-11.119 8.355-.427 17.29-.486 25.592 0z"/><path fill="#f8ce83" d="M592.205 59.213c-24.098-3.158-13.03 8.661-11.034 21.99 22.042 147.098 40.115 293.828 55.057 441.924.913 9.012 6.665 17.443 7.501 29.09 4.565 63.591-35.934 84.353-91.904 91.478-143.624 18.278-288.444 36.164-431.411 58.522l-47.377.102c-.145-.376-4.856-.828-6.127-4.907-2.415-7.74-7.288-33.715-8.329-42.76-14.651-126.626-28.475-253.03-44.185-379.708-5.607-45.193-31.437-94.327 3.771-135.381 19.337-22.545 49.716-18.253 73.029-22.016 137.66-22.23 277.683-44.809 416.776-58.488 24.184-2.38 44.69-11.161 73.728-7.313 9.822 1.306 9.907 7.228 10.513 7.458zM80.35 329.609V216.337c0-14.84 38.878-42.01 51.149-51.157-19.815-27.614-79.6-1.818-86.793 22.843-9.89 33.903 4.207 93.935 7.134 129.886l6.443 8.175 22.058 3.533zm461.252-157.193c0-10.428-8.456-18.884-18.893-18.884s-18.892 8.456-18.892 18.884 8.456 18.884 18.892 18.884 18.893-8.456 18.893-18.884m-197.427 29.235c0-10.428-8.457-18.884-18.893-18.884s-18.893 8.456-18.893 18.884 8.457 18.884 18.893 18.884 18.893-8.456 18.893-18.884m-223.59 3.738c-16.547 4.71-16.777 44.868 7.27 43.818 26.632-13.55 22.033-52.164-7.27-43.818M456.61 286.77c0-10.47-8.49-18.96-18.97-18.96s-18.97 8.49-18.97 18.96 8.492 18.961 18.97 18.961 18.97-8.49 18.97-18.96M255.838 329.6c1.118-10.692 1.476-33.1-10.974-36.514-34.287-9.395-36.514 48.862 10.974 36.514m312.473 42.846c0-10.47-8.49-18.961-18.97-18.961s-18.969 8.49-18.969 18.96 8.49 18.962 18.97 18.962 18.97-8.49 18.97-18.961m-221.038 8.328c-15.582 11.529-15.582 24.995 0 36.523l25.531-18.261zM168.09 410.001c-47.488-12.348-45.261 45.91-10.974 36.514 12.45-3.413 12.091-25.822 10.974-36.514m313.02 75.605c0-9.924-8.048-17.97-17.98-17.97s-17.98 8.046-17.98 17.97 8.047 17.972 17.98 17.972 17.98-8.047 17.98-17.972m-217.95 41.31 29.235-10.974-18.296-25.54zm332.381 42.846c0-10.47-8.49-18.96-18.97-18.96s-18.969 8.49-18.969 18.96 8.49 18.961 18.97 18.961 18.97-8.49 18.97-18.96m-200.183 26.522c0-10.428-8.457-18.885-18.893-18.885s-18.893 8.457-18.893 18.885 8.457 18.884 18.893 18.884 18.893-8.457 18.893-18.884m-234.564 11.033c-1.118 10.693-1.477 33.101 10.973 36.514 34.287 9.396 36.515-48.861-10.973-36.514"/><path fill="#f2b966" d="M592.205 59.213c3.328 1.28 8.712-.58 14.43 3.541 32.964 23.774 33.305 76.68 36.753 113.408 47.872 3.78 117.717-14.2 153.83 25.284 22.912 25.054 12.373 63.907 14.31 95.582 1.204 19.584-1.27 14.012 14.66 25.276-4.872.034-9.753-.026-14.625 0-4.992-1.775-6.972-5.41-7.433-10.547-2.782-31.224 5.555-62.029-10.513-92.1-1.75-2.518-38.912-15.31-47.599-18.117-4.95-1.595-10.24 1.98-15.087.359-22.007-7.382-16.665-16.41-50.986-18.45-8.303-.494-17.23-.426-25.592 0-11.802.598-11.921-3.114-11.17 11.12 1.118 21.162 10.291 51.353 14.669 73.079l.307 50.85c12.237 32.546 10.308 69.538 14.6 102.332 7.92 60.493 22.511 122.274 29.15 183.04 3.098 28.313-20.386 67.174-48.887 75.196-41.122 11.57-88.295 9.557-130.15 16.085-102.008 15.906-203.401 38.955-307.132 43.819-27.998 8.789-38.656 1.04-33.033 36.428-5.248-8.925-11.178-12.706-7.321-29.26-39.459 11.852-74.275 6.46-98.833-29.39-4.037-5.887-2.262-11.17-3.533-14.43l47.377-.101c142.967-22.358 287.786-40.244 431.411-58.522 55.97-7.125 96.47-27.878 91.904-91.477-.836-11.648-6.596-20.08-7.5-29.09C621.268 375.03 603.195 228.3 581.153 81.202c-1.997-13.329-13.056-25.148 11.034-21.99z"/><path fill="#fadba3" d="m80.35 329.609-22.059-3.533-6.442-8.175c-2.927-35.951-17.033-95.983-7.134-129.886 7.193-24.661 66.978-50.458 86.792-22.844-12.27 9.14-51.149 36.318-51.149 51.158V329.6z"/><path fill="#dea457" d="M120.585 205.389c29.294-8.337 33.902 30.268 7.27 43.818-24.038 1.05-23.808-39.116-7.27-43.818"/><path fill="#dda254" d="M168.09 410.001c1.117 10.692 1.476 33.1-10.974 36.514-34.287 9.395-36.514-48.862 10.974-36.514"/><path fill="#dda350" d="M255.838 329.6c-47.488 12.348-45.26-45.91-10.974-36.514 12.45 3.413 12.092 25.822 10.974 36.514"/><path fill="#df9f4d" d="M160.794 607.317c47.488-12.347 45.26 45.91 10.973 36.514-12.45-3.413-12.091-25.821-10.973-36.514"/><path fill="#dea355" d="M306.39 201.651a18.893 18.884 0 1 0 37.785 0 18.893 18.884 0 1 0-37.786 0"/><path fill="#dda051" d="M503.817 172.416a18.893 18.884 0 1 0 37.785 0 18.893 18.884 0 1 0-37.785 0"/><path fill="#e0a353" d="M357.572 596.284a18.893 18.884 0 1 0 37.786 0 18.893 18.884 0 1 0-37.786 0"/><path fill="#dda150" d="M530.372 372.446a18.97 18.961 0 1 0 37.94 0 18.97 18.961 0 1 0-37.94 0"/><path fill="#dea659" d="M418.67 286.771a18.97 18.961 0 1 0 37.94 0 18.97 18.961 0 1 0-37.94 0"/><path fill="#dea357" d="M557.602 569.762a18.97 18.961 0 1 0 37.94 0 18.97 18.961 0 1 0-37.94 0"/><path fill="#dea152" d="M445.15 485.606a17.98 17.971 0 1 0 35.96 0 17.98 17.971 0 1 0-35.96 0"/><path fill="#dca357" d="m347.273 380.774 25.531 18.262-25.531 18.261c-15.582-11.528-15.582-24.994 0-36.523"/><path fill="#deac65" d="m263.16 526.916 10.94-36.514 18.295 25.532z"/><path fill="#d8903e" d="M876.74 450.116a18.893 18.884 0 1 0 37.786 0 18.893 18.884 0 1 0-37.786 0"/></svg>