<svg xmlns="http://www.w3.org/2000/svg" viewBox="0 0 1024 1024"><path fill="#fce6b8" d="m804.05 340.16-4.131 3.088c-.563-7.85-2.526-14.848-8.2-20.787-2.1-2.201-4.864-2.406-5.88-3.43s-1.229-3.78-3.422-5.88c-1.331-1.262-8.849-6.186-10.154-5.939l-5.385 1.971c-.367 3.636.393 7.34-.418 10.983-.99 4.488-6.75 11.887-7.663 15.104-.896 3.166.35 6.707-.546 9.804-.265.93-10.402 15.147-11.093 15.83-2.27 2.253-10.744 5.777-14.55 10.385-.904 1.1-.674 3.25-1.271 3.814-.76.725-4.42.026-6.537.674-2.952.905-6.434 2.85-9.139 3.32-12.603 2.201-63.197 2.21-76.202.392-3.644-.512-5.82-3.183-8.602-3.823-12.16-2.79-26.862-5.137-37.964-11.724-2.808-1.664-4.207-5.496-7.62-6.878-5.189-2.1-16.956-3.268-22.46-2.466-6.34.921-12.245 11.485-21.495 8.635l-.512 3.405c-20.736 9.907-44.425 19.413-67.439 24.738-6.767 1.562-8.047 3.149-12.254 4.378-7.774 2.261-36.215 1.39-47.368 2.32-27.93 2.339-57.583-8.686-84.59-14.42l-1.485-3.866c-10.47 1.579-11.162-2.176-17.673-6.238-9.13-5.709-29.14-12.936-32.87-22.989-.478-1.28.785-2.944.06-4.198-2.125-3.686-12.604-13.517-13.235-15.787-.726-2.585.162-5.47-.308-7.97-.972-5.111-2.27-11.878-4.095-16.588-.905-2.33-5.35 3.541-6.196-1.067.24-.18.717-1.826 2.134-3.046 2.875-2.484 5.341-1.289 6.135-8.337.794-7.066-1.869-10.872-2.142-16.47-4.207-86.783 25.464-169.573 95.41-223.589 3.133-2.423 13.185-6.878 14.038-7.808 13.508-14.72 52.693-29.44 73.438-35.148 127.112-34.97 257.688 18.21 311.004 141.166 18.236 42.06 22.57 90.453 17.596 135.679-1.707 15.514 15.24 23.33 23.68 34.21 4.966 6.391 6.34 11.784 9.403 18.543zM460.677 81.182l-.47-13.09-3.105-3.107c-9.327-.332-18.466-.221-26.701 3.977-7.1-4.454-17.775 4.94-19.891 12.22-10.3-1.426-18.142 3.976-24.755 11.528-6.759 7.723-3.132 2.577-10.317 6.195-3.012 1.52-8.712 11.58-8.38 15.463l-5.836.307-16.58 27.989c-.453 1.894-.538 3.857.042 5.734.316 1.007 10.06 16.657 11.162 17.835 3.95 4.24 11.033 4.932 16.546 4.156 2.363-.333 14.327-6.563 16.64-8.192 5.435-3.832 5.683-8.252 5.103-14.567 5.256 1.681 13.38-3.831 15.573-8.234 3.046-6.136-1.545-3.934 5.094-9.37 1.877-1.536 1.715-3.993 2.543-4.727 1.843-1.63 7.074-3.764 9.677-4.864l.264-5.905c3.525-.205 6.998.716 10.377-1.016 1.476-.76 20.95-16.443 21.726-17.604.495-.734 5.094-10.786 5.18-11.409.136-1.024.093-2.022-.24-2.978z"/><path fill="#fcdcac" d="M253.353 304.96c.854 4.599 5.3-1.263 6.196 1.066 1.826 4.71 3.131 11.477 4.095 16.589.478 2.5-.41 5.384.308 7.97.631 2.27 11.119 12.1 13.235 15.787.725 1.262-.538 2.918-.06 4.198 3.73 10.052 23.74 17.28 32.87 22.989 6.511 4.07 7.202 7.825 17.673 6.237l1.485 3.866c27.007 5.734 56.652 16.76 84.59 14.421 11.153-.93 39.594-.06 47.368-2.32 4.207-1.23 5.496-2.817 12.254-4.378 23.014-5.325 46.703-14.831 67.439-24.738l.512-3.405c9.25 2.859 15.146-7.714 21.495-8.636 5.513-.802 17.28.376 22.46 2.466 3.404 1.383 4.804 5.206 7.62 6.878 11.102 6.588 25.805 8.934 37.964 11.725 2.782.64 4.958 3.31 8.602 3.823 13.013 1.817 63.599 1.809 76.202-.393 2.714-.478 6.187-2.415 9.14-3.32 2.116-.648 5.776.06 6.536-.673.589-.564.358-2.714 1.271-3.815 3.806-4.608 12.28-8.132 14.55-10.385.682-.682 10.82-14.899 11.093-15.829.896-3.098-.35-6.639.546-9.805.905-3.217 6.665-10.615 7.663-15.104.802-3.643.051-7.347.418-10.982l5.385-1.971c1.305-.248 8.823 4.668 10.154 5.939 2.202 2.1 2.407 4.864 3.422 5.88s3.78 1.228 5.88 3.43c5.674 5.939 7.637 12.936 8.2 20.787l4.13-3.09c3.098 6.827 4.617 7.723 6.212 16.564h-1.075c-2.056 8.09-.776 17.246-.768 25.694l1.843 1.22c-1.305 7.262-3.387 12.254-6.212 18.637l-2.065-2.074c.23 2.185-.239 3.874-2.065 5.18l2.057 1.032c-1.4 2.705-2.97 4.267-4.14 6.213l-14.497 6.212 1.16 6.23-8.405 8.131-12.62-10.095-15.207 6.204-.137 16.401-6.203.034 1.502 4.096 2.551.188c-.785 2.184-1.886 3.43-1.971 6.067-15.027-1.11-31.889 1.476-46.669.085-6.826-.64-13.952-5.973-20.437-4.036-4.164 1.246-5.94 11.495-7.85 14.916-13.355 23.85-36.805 45.773-64.836 49.024-6.511.751-17.69-1.075-24.423-2.338-.964-.18-1.22-1.715-1.408-1.75l6.195-7.244-11.323-5.18 3.055 12.425c-1.895-.418-4.583.529-6.946-.256-2.475-.82-3.456-3.78-5.496-4.898-15.402-8.431-17.126-12.143-28.962-23.834-2.244-2.21-1.34-2.116-2.073-4.139-1.87-5.196-4.327-8.055-5.786-11.81-2.202-5.674-3.2-19.78-8.704-21.316-.52-.145-1.382-.017-2.074 0-4.027-8.763-7.842-1.903-11.793-.41-11.93 4.515-26.777 7.16-37.973 11.708-2.978 1.212-5.504 4.403-7.458 4.967-4.804 1.39-11.323-.828-16.008.546-2.637.776-4.088 4.924-6.724 5.7-3.977 1.17-9.677-.205-14.191.299-18.1 2.022-33.476 2.244-51.763-.077-7.535-.956-15.488-7.356-23.842-6.178-5.581-3.072-12.408-5.675-17.34-8.542-4.01-2.33-5.896-7.381-10.556-8.064-9.77-1.434-12.245 3.268-18.679 4.181-5.248.743-8.764-1.246-12.459-1.382-2.653-.094-6.51 1.664-5.145 5.53-.085-.163-1.929-.64-3.08-2.108-.888-1.127-.752-3.294-1.366-3.798-1.374-1.126-17.724-3.993-23.21-6.818-37.53-19.293-54.963-71.491-32.111-108.108 9.378-15.027 18.142-18.372 30.77-28.228zm438.901 140.782h-6.212v1.032l3.106 3.106h3.098v-4.13zm28.988 0c.76 11.076 9.856 2.705 3.098 0zM559.75 491.327c-4.753.878-6.793-2.176-10.343-4.182l7.245 10.351z"/><path fill="#fce6b8" d="M797.837 412.615c-1.681 2.782-7.202 14.678-8.653 16.197-.725.76-3.285.887-4.838 2.346-11.46 10.735-20.864 15.864-35.874 21.103-1.383 2.372-1.52 5.7-2.39 7.97l-1.894-1.22c-.324-.964-.205-1.937-.17-2.918.085-2.637 1.177-3.875 1.97-6.068l-2.55-.187-1.503-4.096 6.204-.034.137-16.401 15.206-6.204 12.62 10.095 8.406-8.132-1.16-6.23 14.497-6.212zm12.424-28.987-1.843-1.22c-.008-8.448-1.288-17.605.768-25.694h1.075c1.87 10.35 1.86 16.563 0 26.914"/><path fill="#fcf5dd" d="m460.678 81.183 3.652.34c.333.957.376 1.955.24 2.979-.086.623-4.685 10.675-5.18 11.409-.777 1.16-20.25 16.853-21.726 17.604-3.388 1.732-6.852.81-10.377 1.016l-.264 5.905c-2.594 1.1-7.825 3.234-9.677 4.864-.828.725-.666 3.191-2.543 4.727-6.639 5.436-2.04 3.234-5.094 9.37-2.193 4.411-10.317 9.924-15.573 8.234.58 6.315.34 10.735-5.103 14.567-2.313 1.63-14.277 7.85-16.64 8.192-5.521.785-12.595.085-16.546-4.156-1.093-1.178-10.846-16.828-11.162-17.835-.58-1.877-.495-3.84-.043-5.734l16.58-27.99 5.837-.306c-.332-3.883 5.36-13.944 8.38-15.463 7.194-3.618 3.558 1.528 10.317-6.195 6.605-7.552 14.455-12.954 24.755-11.528 2.116-7.28 12.791-16.683 19.891-12.22 8.235-4.198 17.374-4.3 26.7-3.977l3.107 3.106z"/><path fill="#fce6b8" d="M578.386 511.986c-.665-.137-1.416.145-2.073 0l-3.055-12.425 11.323 5.18zm-18.636-20.66-3.098 6.17-7.245-10.35c3.55 2.005 5.598 5.06 10.343 4.18m161.492-45.584h3.098c6.758 2.705-2.338 11.076-3.098 0m-28.988 0v4.138l-3.097-.008-3.115-3.098v-1.032z"/><path fill="#fbbd60" d="m692.254 592.728-2.073 4.138-2.065-2.073c1.288 3.933-3.96 5.82-4.147 6.212l-3.96-7.245 6.878-5.086z"/><path fill="#fbbd60" d="M454.167 511.986c-5.64 11.665-20.94 2.918-31.001 8.337-1.622 9.053 4.813 14.387 9.216 20.701 1.997 2.86 2.696 7.134 5.205 9.285 4.37 3.754 4.932 2.68 10.274 8.303 7.407 7.799 16.162 14.43 23.945 21.666 5.06 4.71 20.01 22.186 24.755 22.86 2.85.401 9.625.444 12.21-.307.777-.222 11.341-8.764 12.715-10.052 9.182-8.644 17.178-20.625 26.829-29.116 3.533-3.106 6.383-.008 4.94-6.86-.818-3.9-6.595-8.585-10.094-10.676-7.552-4.522-14.925-10.897-21.743-17.476-8.661-8.345-13.995-16.99-21.64-26.026l-5.18-1.041c-4.847 2.56-10.854 2.807-15.582 4.206 2.492-5.094 22.673-8.123 24.653-6.016.64 1.997 6.178 11.495 6.724 11.913 3.209 2.449 11.34 3.38 15.24 10.692 7.203 13.525 21.044 20.787 33.067 31.13 1.57 1.348 3.934 1.544 4.787 2.397 1.348 1.349 1.238 4.839 4.565 6.827 11.572 6.895 16.214-2.022 23.757-1.143l1.237 4.036c8.346-.068 13.841-6.502 23.373-3.635 2.68.802 4.634 5.606 9.6 3.857-1.433-11.819 6.238-13.61 16.563-12.433-2.662 1.058-6.067 2.858-9.173 4.155-2.287.956-1.126 2.33-1.178 4.113 7.62.512 9.643 8.96 14.43 13.526 6.119 5.828 16.222 10.257 19.012 19.285l18.313 6.528c-.999 2.133-1.903 10.47-1.946 13.312l1.946 1.177-8.278 18.637c-2.679-4.702-4.147 3.533-4.616 4.702-3.03 7.56-14.857 30.455-20.156 35.737-5.802 5.795-4.164-.802-9.378 9.225-3.268 6.28-13.004 8.294-17.587 11.435-1.937 1.33-14.216 11.613-14.48 12.526 3.105 7.74 9.463 13.952 15.444 19.576 1.827 1.715 5.06 2.261 6.315 4.036 2.227 3.157 1.348 10.086 5.12 12.484l-4.139 8.277-8.277 8.286c.674-3.174-.683-4.838-2.014-7.321-2.67-5.01-14.95-16.99-19.25-21.12-.7-.674-2.33-.393-3.056-1.11-.887-.87-.307-2.687-.742-3.285-.555-.768-7.032-.563-8.85-.034-1.697.495-9.813 8.934-11.733 11.093-3.771 4.233-4.625 6.836-7.133 11.392-2.296 4.173-8.03 5.564-10.385 8.295-2.987 3.473-6.562 12.228-10.291 16.623-2.185 2.568-3.764.332-8.363 6.033-5.282 6.553-11.153 12.834-15.343 20.07-.836 4.89 7.86 7.552 9.77 9.463 1.28 1.28 1.511 5.3 4.506 6.887 7.894 4.18 11.75-3.243 16.649-6.298 5.64-3.524 2.67.085 8.157-6.22 6.93-7.954 17.852-15.096 26.83-19.85-1.426-8.328 11.69-11.613 16.852-15.24 1.895-1.33 1.485-6.203 7.296-7.202l4.907 3.098c.46 2.637.196 5.188-.29 7.8-1.255 6.68-10.138 13.764-3.746 20.053-11.708 31.308-24.397 62.002-36.25 93.14-5.546 14.567-9.352 30.029-17.578 43.495 0-.59-1.502-1.545-1.092-4.14.861-5.41 5.99-10.794 7.27-16.443-1.374-.136-2.987-.247-4.07-1.118-3.542-2.833-9.763-11.997-12.886-15.138-1.45-1.459-7.219-3.404-9.13-6.391-2.475-.341-5.521-.76-7.868-.06-3.593 1.067-3.593 9.54-9.49 8.098l1.98-13.26c-6.724-6.324-15.829-12.118-25.488-9.208-1.613.487-2.79 2.654-4.822 3.456s-4.488.154-6.903 1.383c-4.343 2.193-6.724 9.241-8.61 11.05-.52.504-10.991 7.117-12.015 7.654-1.186.623-8.883 2.86-10.394 3.072.086-1.297-.392-2.636.197-3.9 15.368-8.49 27.887-20.786 43.238-30.31 2.03-1.254 3.166-3.933 5.461-4.983l20.489 7.885 4.172-3.832c4.37-8.499-3.968-11.997-6.314-16.58-1.348-2.637-.649-5.709-1.988-8.362-1.827-3.627-9.396-6.503-9.643-12.143-7.484 1.143-4.454-4.787-11.435-6.085-13.423-2.483-8.746 3.448-12.04 10.027-.87 1.732-24.252 26.99-25.95 27.93-9.83 5.444-5.59 4.795-12.365 12.424-2.32 2.62-4.488 4.932-8.123 5.342-3.43 11.682 4.983 13.764 8.268 22.4.436.47 4.617.375 6.033.179-.631 9.805-2.133 4.267-4.215 7.45-1.408 2.15-2.176 6.408-1.997 9.113l-2.073 2.074c-.205-.547-1.255-2.014-2.074-4.139 3.413-.691.495-7.057-.162-9.156-3.012-9.54-8.243-18.56-10.189-28.109l-2.065 2.074c-2.756 1.007-7.253-17.826-8.277-20.702l.904-8.311c2.065-2.74 8.38-2.364 11.529-5.129 5.103-4.48 8.106-16.452 18.432-17.792-1.272-10.53 2.159-6.937 8.422-11.255 3.302-2.27 9.242-8.858 10.07-12.698 2.602-11.998-5.257-13.406-12.186-20.343-14.131-14.165-27.384-25.464-43.366-39.381-2.202-1.92-2.21-4.787-5.436-6.99-3.533-2.405-11.75-4.172-14.319-.315l-3.328 10.13-7.987 2.363-6.298-15.505c-.7-4.591 4.822-4.036 6.392-6.485 7.168-11.205-4.147-18.398-11.443-25.728-3.815-3.823-5.01-2.816-8.883-9.694-.53-.939-1.903-9.515-4.6-4.71-6.041-16.487-12.527-33.075-18.637-49.69l4.139-6.22c-.358 5.239-.256 4.633 4.087 2.065l4.574 12.057c9.233 3.123 13.474 10.948 19.226 16.998 5.12 5.393 14.208 7.151 13.704 16.307 8.534-1.69 12.075 14.797 19.482 14.806 5.59-3.507 14.267-7.057 13.644-14.43 14.507-3.823 23.518-25.088 37.095-32.307 2.107-1.118 5.086-.623 5.93-1.263.837-.631 8.67-17.818 8.389-19.166-6.17-8.516-15.412-13.525-22.656-20.915-9.088-9.267-23.262-21.862-30.029-29.918-3.183-3.797-11.383-11.093-16.486-10.538-1.929 4.702-5.197 6.92-8.278 10.521-3.635 4.25-4.932 4.293-9.25 9.242-6.937 7.936-24.541 18.756-29.21 24.67-3.472 4.394-3.063 9.617-11.707 13.218-4.198 1.758-5.726-1.852-4.727 6.57-3.2-8.704-8.824-19.174-12.425-28.987 3.465-.888 2.97-6.451 4.608-7.928 8.883-8.03 19.251-17.05 27.443-27.306l21.846-17.485c1.97-1.553 2.61-3.831 1.928-6.187-.93-3.217-21.982-13.576-26.974-12.381l-3.89-8.525c-4.43-3.14-9.063-.708-11.205-1.203-1.63-.376-22.912-14.567-28.296-17.246-8.081-4.02-9.157-5.521-16.52-11.46 6.911-.854 14.565 4.667 19.984 5.888 10.232 2.312 20.506 3.464 30.336 4.932 15.155 2.253 25.677 12.484 37.657 13.21 1.997.119 4.463-2.117 8.039-1.076 5.563 1.622 7.006 12.459 17.8 4.95 10.624-7.39 4.89-2.467 15.599-2.902 6.699-.273 14.583-1.604 21.709-2.218zm187.98 123.792c.802-.802 7.458-9.72 8.397-11.264 7.108-11.69-3.78-10.376-6.989-15.172-7.987-11.955-10.479-12.245-19.575-21.828-4.796-5.052-12.92-14.532-19.704-15.48-5.418-.76-8.422.888-12.868 1.528-1.544.222-2.918-.956-3.737-.888-1.972.171-3.286 3.414-5.155 4.523-1.911 1.143-4.659.862-6.306 2.014-1.74 1.22-1.442 3.9-2.338 4.838-1.45 1.528-9.318 3.149-12.049 5.564-1.997 1.766-2.432 4.838-4.045 6.306-10.094 9.122-21.085 17.357-30.114 27.853-1.373 1.595-3.473 2.577-3.217 5.188 0 5.265 8.423 8.508 11.554 11.35 13.73 12.424 23.62 29.03 40.098 37.588l.401 5.718 11.247 3.771c8.389-2.244 11.375-10.709 16.478-16.05 11.785-12.34 26.581-24.244 37.94-35.559zM542.82 739.355c4.445-4.633 13.226-19.089 17.954-24.49 1.664-1.903 4.522-2.279 6.323-4.045l.827-2.995c-3.822-9.447-13.038-12.954-19.6-19.815-9.524-9.95-18.833-19.754-28.98-28.987-6.323-5.752-9.207-12.928-19.438-10.206-.982 7.5-9.268 10.103-13.688 14.259-12.424 11.69-24.098 24.926-36.215 36.25-2.475 2.312-9.83 4.889-11.409 7.219-1.681 2.474-1.195 7.133-4.95 9.36 3.576 1.912 5.923 9.003 8.048 10.411 16.844 11.145 26.623 25.08 41.48 39.253 4.121 3.934 11.469 4.608 13.534 11.503l6.954-.29c1.989-10.667 17.058-10.556 21.905-18.466 7.74-12.63 9.097-10.47 17.255-18.978z"/><path fill="#fbb452" d="M346.511 462.305c2.15 1.186 4.574 4.59 7.646 5.811 8.405 3.337 41.95 7.262 51.31 6.57 13.219-.972 34.782-2.73 47.335-6.493 2.483-.743 5.069-4.412 8.977-5.513 17.28-4.89 33.39-10.453 49.698-16.64 1.587-.597 3.183-.264 4.795-.298.683-.017 1.554-.145 2.074 0 1.033 5.964 2.645 13.636 4.531 19.276.666 1.997 2.876 3.098 3.465 4.822 1.826 5.393-3.473 10.7 6.502 9.028.725 2.022-.17 1.928 2.074 4.139-.87 6.357 6.041 11.767 10.3 15.573 37.648 33.63 89.454 22.425 116.974-15.625 2.893-4.002 9.873-14.95 11.878-19.174 1.195-2.509 1.843-4.855 1.681-7.654 7.885-1.63 14.148 3.481 21.598 4.19 15.146 1.425 29.687-2.356 44.595-2.15l-18.552 52.59c-6.493 1.809-3.174 4.471-5.154 9.617-4.275 11.093-8.806 20.821-18.935 8.311l-3.695.051c-6.263 1.886-15.42 15.036-19.14 16.12-4.216 1.229-9.694-.725-13.935.555-4.787 1.442-14.532 5.828-19.968 7.987-10.325-1.186-17.997.614-16.563 12.433-4.966 1.749-6.92-3.055-9.6-3.857-9.532-2.868-15.027 3.567-23.373 3.635l-1.237-4.036c-7.543-.88-12.177 8.046-23.757 1.143-3.336-1.988-3.217-5.478-4.565-6.827-.853-.853-3.217-1.05-4.787-2.397-12.023-10.343-25.864-17.605-33.067-31.13-3.9-7.313-12.031-8.243-15.24-10.692-.546-.418-6.084-9.916-6.724-11.913-1.971-2.099-22.161.922-24.653 6.016-10.547 3.115-12.075 5.112-24.84 6.213-7.126.614-15.01 1.945-21.709 2.218-10.71.444-4.975-4.488-15.599 2.902-10.794 7.509-12.237-3.328-17.8-4.95-3.576-1.04-6.042 1.195-8.039 1.075-11.989-.733-22.502-10.956-37.657-13.209-9.83-1.46-20.104-2.62-30.336-4.932-5.419-1.22-13.081-6.75-19.985-5.888-2.56-2.065-4.07-3.712-7.961-4.591l-.325-3.695-2.065 2.074c-2.91-7.8-7.125-22.673-10.35-28.988-1.366-3.866 2.491-5.624 5.145-5.53 3.695.128 7.21 2.125 12.459 1.383 6.434-.913 8.908-5.615 18.679-4.182 4.66.683 6.545 5.735 10.556 8.064 4.932 2.876 11.758 5.47 17.34 8.542z"/><path fill="#fbb14d" d="M460.38 899.132c1.501-.213 9.207-2.449 10.393-3.072 1.024-.537 11.494-7.15 12.015-7.654 1.886-1.809 4.267-8.858 8.61-11.05 2.415-1.22 4.966-.615 6.903-1.383s3.209-2.97 4.822-3.456c9.66-2.91 18.764 2.884 25.489 9.207l-1.98 13.261c5.896 1.442 5.896-7.031 9.489-8.098 2.355-.7 5.393-.281 7.868.06 1.903 2.987 7.671 4.932 9.13 6.391 3.132 3.15 9.353 12.305 12.885 15.138 1.084.87 2.688.982 4.07 1.118-1.28 5.65-6.408 11.034-7.27 16.444-.41 2.594 1.093 3.558 1.093 4.138-.077 7.305-4.907 13.833-7.33 20.617-6.247 17.459-12.587 39.526-20.566 56.038-3.182 6.596-9.429 14.498-16.947 16.17-34.107 7.604-38.331-30.446-47.257-53.512-5.623-14.532-12.058-28.936-17.621-43.451l2.005-1.17c.597-3.319-1.775-5.827-2.005-9.181-.188-2.705.589-6.963 1.997-9.114 2.082-3.183 3.584 2.356 4.215-7.45z"/><path fill="#fcce7e" d="M346.511 627.927c-.99-8.422.53-4.82 4.728-6.57 8.635-3.61 8.234-8.824 11.707-13.218 4.668-5.914 22.264-16.734 29.21-24.67 4.326-4.95 5.623-4.983 9.25-9.242 3.08-3.6 6.349-5.82 8.277-10.521 5.103-.555 13.304 6.741 16.486 10.538 6.767 8.064 20.941 20.651 30.03 29.918 7.244 7.39 16.485 12.39 22.655 20.915.282 1.349-7.552 18.535-8.388 19.166-.845.64-3.823.145-5.93 1.263-13.586 7.22-22.597 28.484-37.095 32.307.623 7.373-8.055 10.923-13.645 14.43-7.407-.009-10.948-16.495-19.481-14.805.503-9.157-8.585-10.915-13.705-16.308-5.751-6.05-9.992-13.875-19.225-16.998l-4.574-12.057c-4.352 2.568-4.446 3.174-4.088-2.065l-4.138 6.22c-1.178-3.208-1.383-6.4-2.074-8.277z"/><path fill="#fcce7c" d="M367.222 685.894c2.705-4.804 4.07 3.772 4.599 4.71 3.883 6.878 5.077 5.863 8.883 9.694 7.296 7.33 18.611 14.524 11.443 25.728-1.561 2.45-7.09 1.894-6.391 6.485l6.297 15.505 7.988-2.363 3.328-10.13c2.568-3.856 10.786-2.099 14.318.316 3.226 2.202 3.235 5.07 5.436 6.99 15.983 13.925 29.235 25.224 43.366 39.38 6.93 6.938 14.788 8.354 12.186 20.344-.836 3.831-6.767 10.419-10.07 12.697-6.271 4.318-9.702.725-8.422 11.256-10.325 1.34-13.329 13.32-18.432 17.791-3.157 2.774-9.472 2.398-11.528 5.129l-.905 8.311c-20.54-57.326-41.164-114.713-62.105-171.834z"/><path fill="#fccc7e" d="m292.692 483.007 2.065-2.074.324 3.695c3.891.879 5.402 2.526 7.962 4.59 7.372 5.94 8.44 7.442 16.52 11.461 5.385 2.68 26.667 16.87 28.297 17.246 2.141.495 6.775-1.937 11.204 1.203l3.89 8.525c4.993-1.186 26.044 9.164 26.975 12.382.682 2.355.042 4.642-1.929 6.186l-21.845 17.485c-8.192 10.257-18.56 19.285-27.443 27.306-1.639 1.477-1.144 7.04-4.608 7.928-14.14-38.51-27.085-77.585-41.404-115.933z"/><path fill="#fdce80" d="M617.725 793.55c-6.392-6.289 2.491-13.372 3.746-20.053.486-2.603.75-5.163.29-7.8l-4.907-3.097c-5.82.998-5.401 5.87-7.296 7.202-5.162 3.627-18.278 6.92-16.853 15.24-8.977 4.753-19.908 11.896-26.829 19.849-5.486 6.306-2.517 2.705-8.157 6.22-4.907 3.064-8.764 10.48-16.649 6.298-2.986-1.587-3.225-5.606-4.505-6.886-1.912-1.912-10.616-4.574-9.771-9.464 4.19-7.227 10.06-13.516 15.343-20.07 4.6-5.7 6.187-3.465 8.363-6.033 3.729-4.395 7.304-13.15 10.29-16.623 2.347-2.73 8.082-4.121 10.386-8.294 2.508-4.557 3.362-7.16 7.133-11.392 1.92-2.16 10.036-10.599 11.734-11.093 1.826-.53 8.303-.726 8.849.034.435.597-.145 2.415.742 3.285.734.717 2.355.435 3.055 1.11 4.292 4.13 16.572 16.119 19.251 21.12 1.323 2.482 2.68 4.146 2.014 7.32l8.277-8.285a153 153 0 0 1-5.154 16.589c-3.097 8.277-6.349 16.836-9.335 24.823z"/><path fill="#fbc97c" d="M744.009 456.093c-.034.99-.145 1.954.17 2.918l1.895 1.22c-17.05 44.476-37.188 87.85-53.828 132.497l-5.367-4.054L680 593.76l3.96 7.245-18.313-6.528c-2.79-9.028-12.903-13.457-19.012-19.285-4.788-4.566-6.819-13.014-14.43-13.526.05-1.783-1.11-3.157 1.177-4.113 3.106-1.297 6.52-3.106 9.174-4.155 5.427-2.15 15.172-6.545 19.968-7.987 4.25-1.28 9.719.674 13.934-.555 3.72-1.084 12.877-14.242 19.14-16.12l3.695-.05c10.12 12.51 14.66 2.781 18.936-8.312 1.98-5.146-1.34-7.808 5.154-9.617l18.551-52.59c-14.907-.206-29.448 3.575-44.595 2.15-7.45-.7-13.721-5.812-21.597-4.19.162 2.79-.487 5.137-1.681 7.654-2.006 4.224-8.986 15.172-11.879 19.174-27.52 38.059-79.317 49.263-116.974 15.625-4.258-3.806-11.179-9.225-10.3-15.573 11.836 11.69 13.56 15.402 28.962 23.833 2.04 1.118 3.021 4.079 5.496 4.898 2.363.777 5.051-.162 6.946.256.657.145 1.408-.136 2.073 0 .18.034.444 1.57 1.408 1.75 6.733 1.262 17.912 3.089 24.423 2.338 28.023-3.243 51.48-25.174 64.835-49.024 1.912-3.422 3.687-13.67 7.851-14.916 6.477-1.937 13.61 3.396 20.437 4.036 14.78 1.39 31.633-1.195 46.669-.085"/><path fill="#fbc97c" d="m690.18 596.875-6.211 18.636-1.946-1.177c.043-2.842.947-11.187 1.946-13.312.187-.401 5.435-2.287 4.147-6.212l2.065 2.073z"/><path fill="#facd7f" d="m675.691 634.14-39.338 109.72c-3.772-2.397-2.884-9.326-5.12-12.484-1.254-1.774-4.489-2.33-6.315-4.036-5.982-5.623-12.339-11.835-15.445-19.575.273-.922 12.544-11.204 14.481-12.527 4.582-3.14 14.319-5.154 17.587-11.435 5.214-10.018 3.567-3.421 9.378-9.224 5.3-5.29 17.118-28.186 20.156-35.738.47-1.169 1.928-9.403 4.616-4.701"/><path fill="#fccc7c" d="M450.029 913.622c-4.37-11.452-9.677-23.27-12.425-35.191l2.065-2.074c1.954 9.549 7.185 18.568 10.189 28.109.666 2.099 3.575 8.465.162 9.156zm4.138 12.424c-.879-2.295-1.186-5.947-2.073-8.277l2.073-2.073c.23 3.345 2.603 5.862 2.006 9.181z"/><path fill="#fbc97c" d="M516.281 445.742c-1.613.034-3.208-.307-4.796.298-16.307 6.178-32.418 11.75-49.698 16.64-3.908 1.11-6.493 4.77-8.977 5.513-12.552 3.763-34.116 5.52-47.334 6.494-9.36.69-42.905-3.226-51.31-6.571-3.072-1.22-5.496-4.634-7.646-5.811 8.354-1.178 16.307 5.222 23.842 6.178 18.295 2.321 33.672 2.1 51.763.077 4.514-.504 10.214.87 14.19-.299 2.637-.776 4.088-4.924 6.725-5.7 4.693-1.374 11.204.845 16.008-.546 1.946-.564 4.48-3.755 7.458-4.967 11.196-4.548 26.052-7.193 37.973-11.707 3.951-1.494 7.766-8.354 11.793.41zm16.563 33.126c-9.975 1.672-4.676-3.635-6.502-9.028-.58-1.724-2.8-2.825-3.465-4.822-1.886-5.649-3.49-13.312-4.53-19.276 5.503 1.536 6.501 15.641 8.703 21.316 1.46 3.755 3.917 6.613 5.786 11.81z"/><path fill="#fccc7b" d="M542.82 739.355c-8.158 8.508-9.507 6.349-17.255 18.978-4.847 7.91-19.916 7.808-21.905 18.466l-6.954.29c-2.065-6.895-9.413-7.577-13.534-11.503-14.857-14.182-24.644-28.108-41.48-39.253-2.125-1.408-4.472-8.499-8.047-10.41 3.754-2.228 3.268-6.887 4.949-9.361 1.579-2.33 8.934-4.907 11.409-7.22 12.117-11.323 23.782-24.558 36.215-36.249 4.42-4.156 12.706-6.758 13.688-14.259 10.231-2.722 13.124 4.454 19.438 10.206 10.147 9.233 19.456 19.038 28.98 28.987 6.57 6.861 15.778 10.368 19.6 19.815l-.827 2.995c-1.8 1.766-4.66 2.15-6.323 4.045-4.736 5.401-13.517 19.857-17.954 24.49zm99.327-103.577c-11.358 11.315-26.155 23.22-37.939 35.558-5.103 5.342-8.09 13.807-16.478 16.051l-11.247-3.771-.4-5.718c-16.47-8.559-26.369-25.156-40.099-37.589-3.131-2.833-11.545-6.084-11.554-11.35-.256-2.61 1.844-3.592 3.217-5.187 9.037-10.488 20.02-18.73 30.114-27.853 1.622-1.46 2.048-4.54 4.045-6.306 2.74-2.415 10.598-4.036 12.05-5.564.895-.947.596-3.618 2.337-4.838 1.647-1.152 4.395-.87 6.306-2.014 1.87-1.118 3.183-4.352 5.154-4.523.82-.068 2.194 1.11 3.738.888 4.446-.64 7.45-2.279 12.868-1.528 6.784.948 14.908 10.428 19.704 15.48 9.096 9.583 11.588 9.873 19.575 21.828 3.208 4.796 14.097 3.481 6.989 15.172-.939 1.545-7.595 10.47-8.397 11.264z"/><path fill="#fccb80" d="M479.016 505.782c4.736-1.4 10.744-1.647 15.582-4.207l5.18 1.041c7.645 9.037 12.987 17.681 21.64 26.027 6.818 6.57 14.182 12.945 21.743 17.476 3.49 2.09 9.267 6.775 10.095 10.675 1.442 6.844-1.408 3.746-4.941 6.86-9.643 8.491-17.638 20.472-26.829 29.116-1.374 1.297-11.938 9.83-12.714 10.052-2.586.751-9.361.709-12.211.308-4.745-.674-19.687-18.15-24.755-22.861-7.783-7.236-16.538-13.867-23.945-21.666-5.342-5.623-5.905-4.548-10.274-8.303-2.509-2.15-3.208-6.417-5.205-9.284-4.403-6.315-10.838-11.648-9.216-20.702 10.07-5.41 25.36 3.337 31.001-8.337 12.775-1.1 14.302-3.097 24.84-6.212z"/><path fill="#fccc7c" d="M460.38 899.132c-1.417.205-5.59.3-6.034-.179-3.285-8.635-11.699-10.726-8.268-22.4 3.626-.41 5.802-2.722 8.123-5.342 6.776-7.637 2.535-6.98 12.365-12.424 1.698-.939 25.08-26.197 25.95-27.93 3.294-6.579-1.391-12.51 12.04-10.026 6.989 1.288 3.951 7.228 11.435 6.084.247 5.64 7.816 8.516 9.643 12.143 1.34 2.654.64 5.726 1.988 8.363 2.346 4.59 10.683 8.08 6.314 16.58l-4.172 3.831-20.489-7.884c-2.295 1.04-3.439 3.72-5.461 4.983-15.351 9.523-27.87 21.82-43.238 30.31-.59 1.263-.111 2.603-.197 3.9z"/></svg>