<svg xmlns="http://www.w3.org/2000/svg" viewBox="0 0 1024 1024"><path fill="#6eac49" d="M705.186 58.3c94.507 47.727 126.25 194.56 116.873 292.181l-5.308 4.642c-5.197 64.649-52.122 116.01-59.469 180.566-2.347 20.65 2.202 42.496-1.4 63.53-12.202 71.305-82.79 119.612-151.5 127.702-47.522 5.597-85.496-18.475-130.082-12.928-8.167 1.015-8.807 6.46-9.361 6.596-21.812 5.273-26.07 3.78-45.449 19.481-12.194-3.003-.785-20.24 1.681-27.554 23.928-70.971 59.367-114.218 130.142-142.55 21.93-8.78 44.305-11.092 66.133-18.277 18.313-6.025 22.767-24.739 13.056-25.9-36.744-4.377-102.34 14.764-132.932 35.884-9.19 6.348-15.147 18.96-26.12 22.562L530.27 428.8c19.925-2.176 41.395 1.655 61.124-.546 29.773-3.32 127.625-43.674 132.898-74.948l-15.454-15.454c-48.768 33.672-97.152 65.544-159.488 58.07l74.991-155.478c5.624-10.41 1.588-22.35 2.927-32.802 4.668-36.31 39.774-78.208 48.947-116.625l28.971-32.709z"/><path fill="#83b953" d="m705.186 58.3-28.97 32.708c-9.174 38.417-44.28 80.316-48.948 116.625-32.495-2.893-68.24 110.387-81.16 110.353-13.927-17.39-30.763-40.72-34.458-62.908-3.183-19.123 7.108-60.45-17.485-60.45-28.117 0-14.472 60.945-8.362 79.804 9.668 29.815 36.702 55.74 37.683 85.76-10.573 15.846-55.091 124.501-61.807 126.635-8.457 2.68-24.772-22.972-29.235-29.176-5.607-7.79-14.575-19.242-18.09-27.358-9.336-21.52-8.005-56.755-17.392-73.514-6.272-11.205-19.883-5.479-22.434 3.925-8.192 30.234 13.67 91.665 29.005 119.364 7.62 13.765 35.806 40.115 35.772 48.905-25.942 53.905-46.755 109.875-68.745 165.444-5.726 14.473.836 17.118-16 6.673-1.357-23.321-8.892-21.956-12.988-32.46-1.11-2.85 1.246-9.814-1.194-14.763-19.61-39.808-61.833-57.49-89.822-92.246-45.21-56.132-53.948-132.335-9.344-191.377 18.278-24.192 49.11-44.74 68.01-68.343 29.841-37.265 45.415-89.182 70.375-130.082-2.808-2.415-3.891-7.663-5.564-9.634 22.392 1.39 30.985-28.331 40.294-37.615 2.697-2.688 10.095-3.303 15.002-7.527C498.16 57.83 619.366 14.967 705.17 58.3z"/><path fill="#6aa84a" d="m198.741 71.287.128 68.045 12.724 58.727c.06 9.531 1.058 19.66.136 29.056-1.954 19.814-8.9 36.403-6.775 61.96.947 11.367 5.316 33.494 13.26 41.933-5.82 8.661-14.08 22.955-19.481 32.46l-65.229-68.027-6.818-15.761-25.336-.614c-.964 9.446-.12 17.211 2.919 26.29 6.98 20.882 61.354 71.903 87.978 71.1-37.358 74.488-40.883 142.652 16.29 207.89 11.068 12.62 33.895 25.685 48.64 38.835-18.594-3.857-13.968 10.7-13.175 22.895.981 14.993 5.786 25.395 6.963 38.502.973 10.88 3.687 35.883-6.767 42.488-33.74-54.767-91.69-42.616-144.708-59.82-24.968-8.097-53.333-26.691-69.675-47.197-31.547-39.578-34.85-80.836-24.627-128.76 12.476-58.47 18.85-52.949 11.879-118.212-6.699-62.686-9.319-93.226 16.008-152.584C59.972 157.457 124.902 75.349 198.758 71.27z"/><path fill="#6ba84b" d="M536.371 837.453c-.546-.17-.665-5.444-9.318-6.63l-42.616-3.107c22.102-19.422 45.705-37.495 71.185-52.318 11.392-6.621 18.953 2.979 6.725-15.863 27.57 2.799 50.082 9.899 81.007 6.34 60.484-6.963 123.605-51.422 143.325-109.892 3.892-11.529-1.04-27.435 9.413-32.794-.094 6.366-.623 12.826.315 19.132 33.562 12.305 69.197 7.544 103.39.12l.197-25.737H796.092c1.169-10.479 4.89-20.36 6.494-32.47l64.921-48.682v-29.227c3.004-1.152 9.344.913 12.894-3.08l110.473-94.31c55.79 71.611 35.515 214.203-19.363 282.555-29.568 36.839-74.018 58.718-104.123 90.667-34.262 36.369-47.096 96.247-95.343 118.92-21.974 10.326-52.292 16.922-76.459 14.132-70.016-8.09-100.104-59.196-159.223-77.748z"/><path fill="#b1d86f" d="M627.277 207.642c-1.348 10.453 2.696 22.391-2.927 32.802L549.359 395.92c62.336 7.475 110.72-24.397 159.488-58.07l15.454 15.455c-5.274 31.274-103.117 71.628-132.898 74.948-19.738 2.201-41.2-1.63-61.125.546l-58.82 155.435c10.974-3.601 16.93-16.214 26.12-22.562 30.584-21.12 96.18-40.27 132.933-35.883 9.71 1.16 5.256 19.865-13.056 25.899-21.828 7.185-44.203 9.497-66.133 18.278-70.767 28.33-106.206 71.578-130.142 142.55-2.466 7.312-13.875 24.55-1.681 27.553-4.352 3.525-11 7.16-13.27 10.641-9.66 14.848-20.463 55.63-27.204 75.495-4.104 12.092-12.928 20.104 8.013 17.75-27.204 28.023-34.978 42.973-44.903 81.689-1.937 7.543-11.511 26.06-.546 28.697-5.555 5.018-10.206 17.067-19.481 22.708-19.251 11.699-53.026 7.227-64.12-13.773l-.81-190.729c.11.563 5.751 1.528 6.596 9.378 4.045 37.888-3.166 81.827-.085 120.474 6.562.768 13.269-14.524 15.863-19.831 4.864-9.959 28.169-56.824 27.964-61.534-.265-5.931-16-10.906-11.213-22.332l12.826-.188c9.173 17.152 16.102-1.331 19.737-9.48 11.81-26.488 27.358-59.614 25.72-87.91 16.827 10.444 10.274 7.799 16-6.674 21.99-55.569 42.803-111.539 68.744-165.444.034-8.79-28.151-35.14-35.772-48.905-15.334-27.69-37.196-89.13-29.004-119.364 2.551-9.404 16.162-15.13 22.434-3.925 9.386 16.75 8.055 51.985 17.39 73.514 3.516 8.116 12.493 19.567 18.091 27.358 4.455 6.196 20.77 31.855 29.236 29.176 6.715-2.125 51.234-110.78 61.806-126.635-.98-30.02-28.014-55.944-37.683-85.76-6.11-18.859-19.754-79.804 8.363-79.804 24.593 0 14.302 41.327 17.485 60.45 3.695 22.187 20.53 45.517 34.457 62.908 12.92.034 48.666-113.246 81.16-110.353z"/><path fill="#468b41" d="M374.05 162.193c1.681 1.971 2.756 7.22 5.564 9.634-24.969 40.9-40.533 92.817-70.375 130.082-18.9 23.595-49.732 44.143-68.01 68.344-44.612 59.042-35.866 135.245 9.344 191.377 27.99 34.756 70.212 52.446 89.822 92.245 2.44 4.958.085 11.913 1.194 14.763-11.468 16.964-24.55 25.25-32.46 45.448l-25.686-67.473c-11.776-5.862-16.17-14.421-26.257-23.424-14.737-13.158-37.572-26.214-48.64-38.835-57.182-65.246-53.657-133.401-16.29-207.889 2.167-4.318 4.105-8.79 6.494-12.988 5.401-9.506 13.653-23.808 19.481-32.46 8.372-12.45 16.248-12.579 25.694-23.305-8.977-21.717-3.788-42.564-12.373-64.777-5.427-14.062-7.177-9.685-19.814-15.803.93-9.404-.077-19.525-.137-29.056l-12.723-58.727-.128-68.044c41.873-2.313 100.676 25.489 133.222 51.822 9.276 7.51 35.217 30.985 42.087 39.075z"/><path fill="#478b40" d="m990.882 408.917-110.472 94.31c-3.55 3.994-9.89 1.93-12.894 3.081-19.815 7.62-51.422 18.142-61.85 38.784-6.451 12.766-1.374 26.232-3.08 39.134-1.596 12.109-5.325 21.99-6.494 32.46-.24 2.1.034 4.353 0 6.495-10.454 5.359-5.521 21.265-9.413 32.793-19.72 58.47-82.85 102.93-143.325 109.893-30.925 3.558-53.436-3.542-81.007-6.34-18.228-1.852-35.832-.231-54.204-5.948l-43.571 28.783-6.11-3.354 6.494-58.436c.554-.137 1.194-5.581 9.36-6.597 44.587-5.538 82.56 18.526 130.083 12.928 68.71-8.09 139.298-56.396 151.5-127.7 3.602-21.044-.955-42.88 1.4-63.532 7.347-64.554 54.272-115.916 59.469-180.565l5.308-4.642c52.54-1.783 135.637 15.855 168.815 58.436z"/><path fill="#a0c964" d="M562.347 759.535c12.236 18.842 4.667 9.242-6.725 15.863-25.48 14.823-49.083 32.896-71.185 52.318l42.616 3.106c8.653 1.187 8.772 6.46 9.318 6.63-17.57 1.793-38.485-2.602-55.33-.136-25.003 3.653-114.065 94.106-139.46 117.01-10.966-2.629-1.391-21.155.546-28.698 9.933-38.716 17.707-53.666 44.902-81.69 2.68-2.765 4.404-8.525 9.421-13.116 18.782-17.194 46.754-29.943 62.003-51.814l6.11 3.354 43.571-28.783c18.373 5.717 35.977 4.096 54.204 5.947z"/><path fill="#a2cc65" d="M257.178 623.19c10.095 9.002 14.49 17.57 26.257 23.423l25.685 67.473c-11.537 29.44 5.129 52.011 0 84.412l-12.826.188c-4.795 11.435 10.949 16.4 11.213 22.332.205 4.71-23.1 51.584-27.964 61.533-2.594 5.308-9.3 20.6-15.863 19.832-3.08-38.648 4.13-82.586.085-120.474-.836-7.85-6.485-8.815-6.596-9.378-3.738-18.918-.794-25.66-12.988-45.448 10.454-6.605 7.749-31.608 6.767-42.488-1.177-13.107-5.982-23.51-6.963-38.502-.794-12.194-5.419-26.744 13.176-22.895z"/><path fill="#f8faf5" d="m464.947 720.58-6.494 58.437c-15.249 21.862-43.221 34.62-62.003 51.814-5.009 4.59-6.741 10.35-9.42 13.116-20.941 2.355-12.118-5.658-8.013-17.75 6.74-19.865 17.544-60.646 27.204-75.494 2.27-3.482 8.909-7.117 13.27-10.641 19.378-15.693 23.636-14.208 45.448-19.482z"/><path fill="#f8faf4" d="M354.569 701.099c1.638 28.296-13.91 61.423-25.72 87.91-3.635 8.158-10.564 26.633-19.738 9.48 5.129-32.392-11.537-54.971 0-84.411 7.92-20.207 20.992-28.484 32.461-45.449 4.096 10.505 11.631 9.148 12.988 32.461z"/><path fill="#9ece60" d="M192.247 376.457c-26.624.81-80.99-50.22-87.978-71.1-3.038-9.08-3.883-16.845-2.919-26.291l25.336.614 6.818 15.761 65.229 68.028c-2.39 4.198-4.327 8.67-6.494 12.988z"/><path fill="#93c55f" d="M211.73 227.115c12.637 6.118 14.386 1.74 19.813 15.803 8.576 22.213 3.397 43.06 12.374 64.777-9.438 10.735-17.323 10.854-25.694 23.304-7.953-8.439-12.314-30.557-13.26-41.932-2.134-25.558 4.82-42.146 6.775-61.96z"/><path fill="#99cc61" d="M796.092 616.695h103.902l-.197 25.746c-34.193 7.432-69.828 12.185-103.39-.12-.938-6.306-.41-12.774-.315-19.132.034-2.142-.24-4.386 0-6.494"/><path fill="#90c260" d="M867.516 506.317v29.226l-64.93 48.683c1.706-12.902-3.371-26.36 3.08-39.134 10.428-20.642 42.035-31.163 61.85-38.784z"/></svg>