<svg xmlns="http://www.w3.org/2000/svg" viewBox="0 0 1024 1024"><path fill="#5fb03b" d="m851.22 238.922-4.634 1.766c-18.108-2.218-15.727 46.336-11.512 65.638 13.756 63.053-5.785 110.728-53.35 151.227l-16.503 14.054c-15.556 13.244-30.967 29.073-42.598 45.986L684.36 573.29c-20.395 29.678-70.127 51.745-104.72 56.644l-97.357 13.798c-22.442 3.183-45.158 9.36-67.028 16.546-39.629 13.022-65.297 47.368-88.985 80.946l-12.305 17.434-10.556-5.64 18.415-27.921 31.855-41.72c16.528-21.649 34.133-41.318 51.575-62.241L421.04 602.2c12.203-14.634 26.214-27.758 45.107-35.438 79.01-32.102 123.442-1.203 187.638-47.07l-5.29-5.845c-74.018 33.996-97.459 9.02-176.375 29.269 6.46-13.542 14.643-27.042 23.86-38.715l11.272-14.277c1.331-1.69 3.413-5.196 5.88-9.147 19.31-13.739 43.246-23.654 67.591-27.836l62.609-10.76c38.041-6.537 71.21-23.356 97.22-50.295-76.97 38.39-108.424 34.85-191.624 48.87l-1.519-5.888 23.962-30.379 15.223-18.705c24.021-29.508 36.352-42.342 79.88-50.773 26.197-5.077 92.45-24.712 99.2-53.025-20.574 9.37-37.265 21.094-57.515 26.3l-77.764 19.976 15.164-19.294 18.074-23.603 16.98-21.794 28.929-34.432 20.13-23.074c6.655-7.629 10.965-14.72 14.114-26.402-13.253 7.57-22.272 15.386-31.88 25.865l-14.37 15.675-17.972 19.806-31.633 35.754-27.28 31.54-5.214-.922c18.26-60.117 1.945-69.043 26.333-124.194 3.115-6.289 4.165-9.625-3.84-5.973-9.199 15.744-19.157 34.108-21.742 51.149l-7.441 49.049c-4.19 27.588-12.988 53.145-30.08 75.135l-68.027 87.5c13.858-91.869-20.839-121.735 24.627-212l-6.895-4.864c-63.24 106.128-6.477 156.338-49.74 248.787-3.84 3.038-9.114 7.783-13.082 12.169l-19.004 21c-6.57 7.262-15.786 15.42-24.507 22.963-.214-22.579-.564-38.365-2.876-60.62l-5.598-53.88c-.247-2.388 3.072-11.272 4.89-17.424 1.032-4.36-9.78-4.267-8.815-.034-16.342 53.29 12.083 124.884-20.676 168.916-25.566 34.363-55.51 63.35-86.86 91.946l-11.427 10.419-.435-9.216 15.3-23.688c18.1-28.015 24.124-65.067 22.067-98.423l-3.95-63.974c-1.69-27.306 12.432-49.868 28.347-69.657 27.699-34.449 18.193-69.026 39.859-122.922 28.1-69.904 93.73-84.215 113.91-105.01l40.67-41.907c10.863-11.196 33.502-14.225 49.894-14.976 8.397-.384 68.48-3.08 65.288-15.283l-2.065-7.91c4.531 3.14 14.9 4.906 19.797 2.79l27.042-11.674c34.816-15.027 73.25-10.59 103.611 11.776 37.282 27.477 55.407 73.327 38.955 120.226-2.338 6.673-1.178 16 2.261 21.128z"/><path fill="#a2de50" d="m278.577 387.452 9.105 6.434c14.831-2.816-2.116 2.09 18.321 11.708l6.409 3.012-18.697 20.01c-12.672 22.392-22.545 45.09-32.324 68.548l-16.776 40.269-21.35 49.237c-.29.12-3.337 1.834-3.619 2.278L196.18 627.05c-81.732 132.71-58.393 105.344-82.26 260.274 9.096-7.544 15.794-18.842 18.115-30.055l8.457-40.84c3.737-18.048 22.118-34.33 36.317-46.276l46.242-38.911 40.021-36.173c10.155-9.182 19.507-18.423 27.605-27.452l11.426-10.419c31.36-28.595 61.295-57.582 86.86-91.946 32.76-44.031 4.327-115.617 20.677-168.916-.965-4.232 9.847-4.326 8.815.034-1.818 6.153-5.137 15.036-4.89 17.425l5.598 53.88c2.312 22.254 2.654 38.04 2.876 60.62 8.72-7.552 17.936-15.701 24.507-22.963l19.004-21c3.968-4.387 9.241-9.14 13.081-12.17l19.285 5.641c2.714.794 8.84 3.183 9.174 5.573.222 1.578.179 5.341.179 6.75L495.996 504.4c-9.207 11.665-17.39 25.173-23.859 38.715 78.916-20.25 102.348 4.736 176.375-29.27l5.29 5.846c-64.196 45.867-108.628 14.968-187.638 47.07-18.893 7.68-32.904 20.795-45.107 35.438l-15.786 18.936c-17.442 20.923-35.046 40.592-51.575 62.241l-31.855 41.72-18.415 27.92c-21.615 32.768-42.112 66.125-60.356 103.876l-15.556 32.187c-5.145 10.65-43.69 9.609-49.083 33.084l55.97-14.54c21.281-5.53 43.835-13.714 62.113-25.694l46.669-30.6c15.044-9.865 29.252-21.812 42.692-33.818l27.135-24.243c3.994-3.567 9.174-8.61 12.177-10.863l32.41-24.286 72.712-54.459c2.824-2.116 8.627-5.103 10.53-5.93l16.187-3.286c3.106-.631 7.646-.862 9.907-.085 1.588.546 6.878 14.105 5.769 15.539l-5.786 7.458 9.822-.18c15.53-.238 32.427 1.46 48.99 5.445l64.537 15.53c-31.659 13.03-62.677-3.95-78.156-5.18-22.878-1.817-46.003.41-68.284 4.14-4.94 3.148-16.017 10.615-20.437 14.864l-60.885 58.513 2.407 5.188-12.544 6.503c-13.756 7.133-29.175 24.592-41.395 37.06l-39.919 40.746-19.165 19.55c-28.126 28.697-52.463 46.625-90.206 63.248-53.495 23.57-59.058-2.61-98.004 27.921l-17.784 6.306c6.605-43.306-32.452-72.592-63.385-96.187-28.006-21.359-57.66-3.43-54.86-20.582l6.639-14.498c10.12-22.127-12.152-90.88 45.294-166.493l35.064-46.156c27.349-36.01 50.064-62.063 61.448-103.048l1.595 8.098 22.485-32.375c10.966-15.787 24.56-33.766 30.055-52.625 16.913-58-19.635-107.127-27.7-165.69l9.669-6.409c11.178 55.39 31.948 79.232 39.15 130.295l15.736-35.823c4.275-9.736 8.337-19.584 11.52-28.049zM74.13 862.934c5.666-2.491 8.277-18.807 8.2-25.642-.666-59.28 6.707-47.76 9.643-97.28-23.868 9.447-38.451 71.783-38.878 101.214-.145 9.796 10.803 26.214 21.035 21.717z"/><path fill="#419b35" d="M957.245 430.997c5.607 1.954 15.625 3.883 21.308 7.68 21.29 14.25 32.443 37.803 24.712 63.215-14.626 48.093-51.609 57.872-55.295 110.497-3.013 43.102-22.69 81.885-61.252 104.243-62.669 36.334-98.44 9.31-150.075 60.603-34.892 34.662-82.704 49.86-130.243 36.6l-30.029-8.38c-19.993-5.581-47.01-11.435-66.883-4.762l-44.604 14.967-2.406-5.188 60.885-58.513c4.42-4.25 15.496-11.716 20.437-14.865 22.28-3.729 45.405-5.947 68.283-4.138 15.48 1.228 46.498 18.21 78.156 5.18l-64.537-15.531c-16.563-3.985-33.459-5.683-48.99-5.444 5.035-8.21 13.884-14.592 23.91-20.984 39.851-25.403 60.425-38.587 112.657-30.446l48.273 7.526c23.637 3.686 48.315 1.715 69.503-8.448l-79.99-8.644-62.831-11.443 29.124-18.483c68.778-43.648 65.459-31.787 152.55-37.444 6.544-.427 16.605-4.463 22.152-8.295l-82.474-4.821 94.523-63.786-1.007-9.097-43.887 24.858-82.875 44.202c5.342-37.649 34.654-62.677 49.288-97.552-14.233 10.231-25.813 20.659-35.695 34.278-30.566 42.129-22.485 66.116-55.705 83.302L648.947 636l-42.453 23.15-54.323 29.645c-3.746 2.048-9.557 7.15-11.358 8.926-1.911.828-7.705 3.806-10.53 5.93l-72.712 54.46-32.41 24.285-6.425-1.561 18.04-22.451c2.38-2.97 5.845-10.155 6.86-12.868 14.31 2.5 46.754-69.461 48.776-85.495 48.18-3.934 114.338-11.469 156.79-36.454 74.675-43.964 64.913-83.618 119.927-130.32 8.704-7.39 18.176-14.498 25.37-21.803l34.141-34.688c5.223-5.307 12.903-17.894 19.559-21.81 8.456-4.976 27.827-4.301 34.713.452 10.752 7.432 25.77 17.91 36.915 21.956 2.184.793 33.894 7.663 37.418-6.34z"/><path fill="#5faf3a" d="M406.15 35.054c-17.101-3.397-28.843 40.388-33.673 52.795l-14.114 36.224c.59-1.204-8.977 4.036-9.583 6.212l-18.55 67.071-19.286 69.649-10.402 35.003c-23.049-42.308-27.964-70.425-33.869-116.189 2.142-5.998-1.45-4.59-7.33.154-1.143 19.695-.486 40.354 4.915 58.65l17.434 59.024c8.192 27.724 6.51 58.222-3.123 83.805-3.183 8.465-7.245 18.304-11.52 28.049l-15.736 35.823c-7.21-51.063-27.972-74.905-39.15-130.295l-9.668 6.409c8.072 58.563 44.611 107.68 27.699 165.69-5.496 18.859-19.09 36.83-30.055 52.625l-22.485 32.375-1.596-8.098c2.202-28.382-.674-56.934-13.303-84.497l-32.17-70.169c-14.285-31.155-15.232-70.723 3.96-100.001l33.697-51.404c29.039-44.305 7.825-126.284 89.062-161.356 10.547-4.557 25.94-12.28 32.827-19.96l28.416-31.709c23.646-26.385 59.588-31.838 87.594-15.872z"/><path fill="#409b35" d="M406.15 35.054c37.768 21.52 17.954 26.837 37.614 39.125-3.67 6.289.145 22.57 3.43 30.583 14.277 34.841 21.18 36.804 16.3 76.91l-31.753 20.463c-45.815 29.525-60.68 72.789-71.023 124.364l-8.584 42.854c-.555 2.773-4.463 8.738-6.084 10.163l-1.212-11.614-42.504 27.964 5.427-29.747c4.847-26.539 9.156-52.079 15.82-78.199 11.76-46.071 75.52-63.035 85.171-116.052l-35.285 35.285c-12.953 12.962-25.062 22.903-40.985 35.302l25.873-118.4 14.114-36.223c4.83-12.408 16.571-56.192 33.672-52.796z"/><path fill="#439c35" d="m957.245 430.997-23.338-8.14c-45.61-15.898-26.155-27.23-69.896-28.527l-12.024-.359 6.4-45.456c3.09-21.897-14.95-77.568-11.81-107.835l4.634-1.767c39.876 5.41 85.316-22.331 116.692 13.022 13.5 15.215 20.864 38.067 13.312 58.65l-13.508 36.846c-9.062 24.704 3.448 28.237-6.536 67.942l-3.926 15.616z"/><path fill="#449d35" d="M659.537 94.658c-11.188 2.86-24.005 4.608-37.504 5.667l-42.965 3.379c-20.028 1.578-43.298 9.932-55.825 23.304l-30.48 32.555c-1.46 1.561-7.817 6.041-8.082 4.13l-1.39-9.993c-2.21-15.855-7.143-31.581-14.413-45.115l-10.76-20.028c-2.441-4.548-9.985-11.656-14.354-14.387 5.402-9.259 23.339-21.128 35.174-25.028 55.296-18.244 52.463-38.246 91.682-47.249 40.277-9.241 71.261 16.35 78.02 54.972 1.92 10.982 8.507 28.663 10.897 37.785z"/><path fill="#c4f077" d="M163.66 1010.688c-3.943 3.09-11.4 12.757-16.785 13.141-39.194 2.8-94.438-30.677-110.72-63.897L19.03 924.997c-2.96-6.033 3.32-21.999 8.593-24.772-2.799 17.152 26.854-.785 54.86 20.582 30.934 23.595 69.99 52.88 63.386 96.187l17.783-6.306z"/><path fill="#1e822b" d="M846.586 240.688c-3.14 30.268 14.899 85.939 11.81 107.835l-6.4 45.457 12.023.358c43.742 1.297 24.278 12.621 69.896 28.527l23.339 8.14c-3.524 14.004-35.225 7.135-37.419 6.341-11.144-4.045-26.163-14.532-36.914-21.956-6.887-4.753-26.257-5.427-34.714-.452-6.656 3.917-14.336 16.503-19.558 21.81l-34.142 34.689c-7.193 7.313-16.665 14.412-25.37 21.802-55.013 46.703-45.251 86.357-119.926 130.32-42.453 24.994-108.611 32.52-156.79 36.454-2.022 16.043-34.466 88.004-48.776 85.495l-38.255 2.517c11.904-29.78 45.022-51.344 68.753-82.986-72.192 9.652-58.82 8.619-95.394 42.948l-24.439 22.938c-12.885 12.091-25.617 22.647-38.144 32.844l-2.193-5.111 12.305-17.434c23.689-33.57 49.357-67.924 88.985-80.946 21.87-7.185 44.578-13.363 67.029-16.546l97.356-13.798c34.594-4.907 84.326-26.966 104.72-56.644l38.264-55.697c11.622-16.921 27.033-32.742 42.598-45.986l16.503-14.054c47.564-40.499 67.106-88.183 53.35-151.227-4.207-19.302-6.588-67.856 11.511-65.638z"/><path fill="#9adb51" d="M507.252 490.124c0-1.408.042-5.17-.18-6.75-.332-2.389-6.46-4.778-9.173-5.572l-19.285-5.64c43.264-92.45-13.491-142.66 49.74-248.788l6.895 4.864c-45.465 90.265-10.769 120.132-24.627 212l68.028-87.5c17.1-21.99 25.898-47.547 30.08-75.135l7.44-49.049c2.586-17.04 12.553-35.405 21.743-51.148 8.004-3.661 6.955-.316 3.84 5.973-24.38 55.15-8.072 64.076-26.333 124.193l5.213.922 27.281-31.54 31.633-35.754 17.971-19.805 14.37-15.676c9.609-10.479 18.637-18.295 31.88-25.864-3.148 11.682-7.458 18.773-14.114 26.402l-20.13 23.074-28.927 34.431-16.982 21.794-18.073 23.603-15.164 19.294 77.764-19.976c20.25-5.197 36.94-16.93 57.514-26.3-6.75 28.313-73.002 47.949-99.199 53.026-43.528 8.44-55.859 21.265-79.88 50.773l-15.223 18.705-23.962 30.378 1.52 5.888c83.199-14.02 114.652-10.479 191.622-48.87-26.018 26.94-59.178 43.759-97.22 50.295l-62.608 10.76c-24.354 4.182-48.29 14.098-67.592 27.836-2.457 3.951-4.548 7.458-5.88 9.148z"/><path fill="#1f8229" d="m659.537 94.658 2.065 7.91c3.191 12.212-56.892 14.9-65.288 15.284-16.393.75-39.032 3.78-49.894 14.976l-40.67 41.907c-20.181 20.795-85.802 35.106-113.91 105.01-21.667 53.888-12.16 88.465-39.86 122.922-15.914 19.797-30.037 42.35-28.347 69.657l3.95 63.974c2.057 33.356-3.967 70.408-22.066 98.423l-15.3 23.688c-.495.222-5.283 2.278-5.436 2.38-.128.086-2.031-6.374-1.98-6.228l19.533-64.367c3.038-10.01 4.318-20.215 6.067-34.03l-34.927 15.291c-1.467.64-7.381 6.929-8.849 7.484l-20.036 7.569c1.016-4.045 4.924-17.212 9.242-20.156l25.216-17.211c10.461-7.143 20.77-16.111 28.15-24.807l.811-65.527c.256-20.48 12.11-41.54 20.753-58.555l17.289-20.719c1.621-1.425 5.53-7.39 6.084-10.163l8.584-42.854c10.334-51.575 25.208-94.839 71.023-124.364l31.752-20.463c4.881-40.098-2.03-42.069-16.298-76.91-3.286-8.013-7.1-24.294-3.43-30.583 4.368 2.73 11.912 9.83 14.352 14.387l10.76 20.027c7.271 13.534 12.203 29.27 14.413 45.116l1.391 9.992c.265 1.903 6.622-2.577 8.081-4.13l30.481-32.554c12.527-13.38 35.789-21.735 55.825-23.305l42.965-3.379c13.5-1.058 26.316-2.807 37.504-5.666z"/><path fill="#5bae2e" d="M219.006 615.572c7.399-8.405-55.107 78.685-47.615 81.169-1.63 1.954-6.801 8.908-8.346 13.081l-13.269 35.976c-2.219 6.008-3.686 16.538-6.101 26.88l7.552-2.065 28.637-23.253 55.8-45.687c17.441-14.285 32.332-31.838 47.154-47.121-.042-.145 1.86 6.315 1.98 6.23.154-.103 4.94-2.16 5.436-2.381l.435 9.215c-8.098 9.029-17.442 18.27-27.605 27.452l-40.021 36.173-46.242 38.911c-14.2 11.947-32.58 28.228-36.318 46.276l-8.456 40.84c-2.321 11.213-9.02 22.52-18.116 30.055 23.867-154.922.537-127.564 82.26-260.274l23.467-38.1c.281-.453 3.328-2.168 3.618-2.28-2.97 6.853-2.714 17.946-9.762 25.183l5.504 3.72z"/><path fill="#5eb02e" d="m313.965 758.658 2.193 5.111c-10.027 8.158-20.028 21.624-26.667 34.535l-35.575 69.179c-1.75 3.405-.017 14.43 1.289 14.813 22.638-7.278 42.29-16.366 61.294-29.004 24.38-16.205 37.077-19.038 39.023-26.342l49.732-36.77c4.761-3.524 9.685-6.87 13.49-9.353l6.426 1.562c-3.003 2.253-8.183 7.296-12.177 10.863l-27.136 24.243c-13.44 12.006-27.647 23.953-42.691 33.817l-46.669 30.6c-18.278 11.981-40.832 20.165-62.114 25.694l-55.97 14.54c5.394-23.474 43.938-22.433 49.084-33.083l15.556-32.187c18.244-37.751 38.741-71.108 60.356-103.876l10.556 5.64z"/><path fill="#99db52" d="m576.73 717.17-9.822.178 5.785-7.458c1.11-1.433-4.18-15.001-5.768-15.539-2.253-.768-6.801-.537-9.907.086l-16.188 3.285c1.8-1.775 7.612-6.887 11.358-8.926l54.323-29.645 42.453-23.15 85.281-44.117c33.22-17.186 25.14-41.173 55.706-83.302 9.881-13.62 21.46-24.047 35.694-34.278-14.634 34.884-43.946 59.903-49.288 97.552l82.875-44.202 43.887-24.858 1.007 9.097-94.523 63.786 82.474 4.821c-5.538 3.84-15.6 7.868-22.153 8.295-87.099 5.649-83.77-6.204-152.549 37.444l-29.124 18.483 62.83 11.443 79.991 8.644c-21.188 10.163-45.857 12.126-69.503 8.448l-48.273-7.526c-52.232-8.141-72.806 5.043-112.656 30.446-10.027 6.392-18.876 12.775-23.91 20.984z"/><path fill="#96d951" d="M358.363 124.073 332.49 242.472c15.923-12.4 28.032-22.34 40.986-35.302l35.285-35.285c-9.66 53.017-73.412 69.98-85.17 116.052-6.665 26.12-10.975 51.66-15.821 78.199l-5.428 29.747 42.505-27.964 1.211 11.614-17.288 20.719-16.35 8.363-6.408-3.013c-20.429-9.617-3.482-14.515-18.321-11.707l-9.105-6.434c9.634-25.583 11.306-56.081 3.123-83.806l-17.434-59.024c-5.401-18.296-6.058-38.955-4.915-58.65 5.88-4.735 9.48-6.152 7.33-.153 5.905 45.764 10.82 73.872 33.869 116.189l10.402-35.004 19.285-69.648 18.551-67.072c.606-2.176 10.172-7.415 9.583-6.212z"/><path fill="#439b35" d="M328.761 400.243c-8.644 17.016-20.505 38.076-20.753 58.556l-.81 65.527c-7.373 8.695-17.69 17.664-28.151 24.806l-25.216 17.212c-4.318 2.944-8.226 16.11-9.242 20.155l-25.583 29.064-5.504-3.72c7.049-7.236 6.793-18.33 9.763-25.182l21.35-49.237 16.776-40.268c9.78-23.467 19.644-46.157 32.324-68.548l18.697-20.01 16.35-8.363z"/><path fill="#c0f173" d="M74.129 862.935c-10.232 4.505-21.18-11.921-21.035-21.718.427-29.43 15.01-91.758 38.878-101.213-2.936 49.519-10.309 37.999-9.643 97.28.077 6.843-2.534 23.15-8.2 25.642z"/><path fill="#f5f9f3" d="M443.636 745.508c-1.015 2.722-4.48 9.907-6.86 12.868l-18.04 22.451a299 299 0 0 0-13.49 9.353l-49.733 36.77-3.9-5.513c16.282-28.228 32.077-52.701 53.769-73.42l38.254-2.517z"/><path fill="#8dd23e" d="M405.382 748.025c-21.7 20.71-37.496 45.184-53.769 73.42l3.9 5.513c-1.945 7.296-14.643 10.138-39.022 26.342-19.004 12.63-38.656 21.726-61.295 29.005-1.297-.384-3.038-11.409-1.289-14.814l35.576-69.179c6.639-12.91 16.64-26.385 26.666-34.534 12.527-10.197 25.259-20.753 38.144-32.845l24.44-22.937c36.573-34.338 23.201-33.297 95.393-42.948-23.731 31.65-56.849 53.213-68.753 82.986z"/><path fill="#8ace40" d="M282.81 654.56c-14.823 15.284-29.713 32.837-47.155 47.121l-55.8 45.687-28.637 23.254-7.552 2.065c2.415-10.343 3.883-20.873 6.101-26.88l13.27-35.976c7.483-1.178 12.612-6.648 18.056-12.766l39.168-44.023c9.31-10.462 50.32-62.327 44.364-74.095 1.468-.554 7.382-6.835 8.85-7.483l34.926-15.292c-1.75 13.815-3.03 24.03-6.067 34.03L282.8 654.57z"/><path fill="#f6faf0" d="m181.102 697.048-9.711-.316c-7.492-2.483 55.022-89.574 47.615-81.169L244.59 586.5l20.036-7.569c5.957 11.768-35.054 63.624-44.364 74.095l-39.168 44.023z"/><path fill="#d7f1c2" d="M181.102 697.048c-5.445 6.118-10.573 11.596-18.057 12.765 1.536-4.172 6.716-11.127 8.346-13.081z"/></svg>