<svg xmlns="http://www.w3.org/2000/svg" viewBox="0 0 1024 1024"><path fill="#e65248" d="M650.052 269.431c61.048 47.924 93.142 121.515 108.04 196.182 4.515 22.63 4.37 70.23 10.983 85.87-26.291-5.973-28.723 24.227-19.763 41.84 1.058 2.082 12.023 15.513 12.962 15.931-5.197 15.77-4.036 32.896-6.92 49.152-6.614 37.265-19.422 75.99-33.886 110.567 8.362-24.653-27.725-65.912-39.288-30.763-4.983 15.155 10.76 52.062 32.487 44.356-11.47 25.55-19.337 45.184-34.526 69.146-9.814 15.48-23.527 29.55-30.089 46.396-1.357-2.876-12.817-15.787-15.667-16.649h-9.498c-16.648 10.914-11.323 32.717-2.048 47.232-29.73 19.883-53.23 50.15-87.398 63.915-6.417 2.585-11.17-3.02-4.42 7.45-113.092-47.523-230.127-159.079-300.817-258.415-118.366-166.332-141.628-331.887 52.565-448.419 3.422-2.048 8.78-2.423 10.206-6.792 2.39.043 6.946-1.357 6.801 1.698-25.003 25.754-37.811 58.42-44.203 93.449 50.193-1.955 93.338-25.387 125.893-62.797 6.587-7.57 11.562-19.874 20.326-25.55 4.864 32.64 20.736 66.493 45.85 88.423 4.215 3.678 27.136 20.43 30.651 20.489 7.27.128 14.61-17.596 17.076-23.91 9.591-24.568 14.097-57.012 7.748-82.595-1.306-5.265-11.05-27.998-9.49-29.585l39.758 16.342c40.234 8.294 79.402 4.198 116.676-12.945zm-408.09 309.24c4.412-14.123 8.696-22.238 3.405-37.385 8.9-12.91 9.31-29.875 14.336-45.14 7.28-22.11 45.85-88.176.965-94.192-39.544-5.3-72.721 68.096-76.433 100.335-3.738 32.435-1.357 103.023 45.414 96.333 11.068-5.461 9.737-11.7 12.322-19.96zm362.565-125.338c-20.804 6.119-4.71 64.393 19.66 57.029 16.846-5.095 8.816-46.891-4.65-55.825-4.3-2.313-10.47-2.543-15.01-1.204M403.84 514.432c-22.639 6.784-7.868 63.804 19.78 60.663 20.608-14.08 3.772-67.72-19.78-60.663M550.153 626.5c-2.313.666-11.188 9.617-11.896 12.066-6.485 15.01 9.412 53.982 28.083 48.598 18.108-5.223 10.966-44.98-1.28-55.842-3.02-2.68-10.76-6.016-14.899-4.822zm-210.91 54.46c-2.364.717-11.12 9.515-11.862 11.938-4.522 14.848 14.089 50.424 31.557 45.141 20.736-6.272 4.676-64.452-19.695-57.088zm142.865 108.646c-9.327 2.654-13.338 19.013-11.665 28.007 1.894 10.18 15.795 36.232 27.98 32.7 24.431-10.795 6.247-67.14-16.315-60.707"/><path fill="#db3b33" d="M531.02 1000.047c-6.75-10.47-1.996-4.864 4.421-7.45 34.168-13.764 57.668-44.032 87.398-63.914 21.726 33.98 40.218-2.953 27.205-30.584 6.562-16.845 20.275-30.908 30.088-46.396 15.19-23.961 23.057-43.596 34.526-69.145 2.133-4.745 4.463-8.004 6.801-13.594 14.464-34.577 27.273-73.301 33.886-110.566 2.884-16.256 1.724-33.383 6.92-49.152 20.14 8.84 22.921-21.06 19.85-35.123-1.767-8.081-10.156-15.804-13.048-22.648-6.622-15.65-6.469-63.24-10.983-85.87-14.899-74.667-46.993-148.259-108.04-196.182 4.89-2.253 10.086-4.002 13.585-8.5-13.338-13.678-25.148-26.58-41.83-36.343-11.674-6.826-28.144-10.445-36.37-19.729 48.598-.998 93.509-2.27 139.486 15.24 234.496 89.32 164.796 463.224 82.244 639.6-34.833 74.419-83.874 152.43-172.356 160.785-3.61.341-6.946 3.2-10.428 3.473-5.53.426-9.113-3.047-13.5-3.473-33.322-3.226-49.04-7.484-79.854-20.438zM771.099 354.62c-15.95 4.685-15.31 35.123-7.032 47.249 7.33 10.735 21.547 21.495 30.498 6.878 5.436-8.884 3.909-21.829 1.101-31.659-2.184-7.646-15.71-25.07-24.567-22.468"/><path fill="#84a934" d="M279.364 289.818c-31.88 2.568-64.717 1.757-92.979-14.132-9.907-5.572-18.364-13.252-26.027-21.546-.042-2.5 25.652-15.027 30.541-17.041 24.21-10.01 54.025-16.47 79.812-18.774 9.575-.853 16.726 1.204 25.66 3.533 2.15-8.363-2.022-5.453-4.454-7.373-17.272-13.653-33.988-38.067-32.956-60.586 8.414.35 17.016-.598 25.446.068 24.431 1.92 56.969 9.003 80.043 18.568 14.293 5.931 27.221 14.866 40.747 22.144 4.352-5.094-25.498-66.235-31.13-75.93-9.745-16.767-27.161-41.053-40.209-54.962-15.727-16.76-55.5-33.622-20.369-57.609 21.112-14.413 35.849-1.169 49.067 15.343 36.232 45.252 59.025 109.892 69.87 166.357l14.09-31.786 29.977-41.413 52.966-42.231c6.537-1.092 4.147.401 5.581 4.343 5.495 15.164 7.433 28.75 6.357 44.971-.546 8.303-5.649 16.111-3.541 25.336l53.444-29.85c11.094-4.37 77.056-22.409 82.586-17.715-10.249 47.744-43.136 87.44-90.095 101.956-4.881 1.74 1.553 3.234 1.672 3.38 8.227 9.284 24.696 12.902 36.37 19.728 16.682 9.762 28.492 22.665 41.83 36.344-3.507 4.488-8.696 6.246-13.585 8.499-37.274 17.143-76.433 21.23-116.676 12.945l-39.757-16.341c-1.562 1.587 8.183 24.328 9.489 29.585 6.349 25.583 1.843 58.026-7.748 82.594-2.467 6.315-9.805 24.038-17.076 23.91-3.515-.06-26.436-16.81-30.651-20.488-25.114-21.922-40.994-55.783-45.85-88.423-8.772 5.675-13.739 17.98-20.326 25.55-32.555 37.41-75.691 60.833-125.893 62.796 6.392-35.03 19.2-67.695 44.203-93.449.145-3.054-4.403-1.655-6.801-1.698-8.653-.145-12.86 3.337-13.602 3.397z"/><path fill="#d2cbb0" d="M292.975 286.421c-1.425 4.37-6.784 4.745-10.206 6.793l-3.405-3.396c.743-.06 4.95-3.55 13.602-3.397z"/><path fill="#e96b67" d="M245.359 541.286c-1.579-4.514-9.336-16.674-13.517-18.773-26.521-13.355-29.141 26.249-15.309 45.875 6.716 9.523 13.568 16.376 25.421 10.283-2.585 8.26-1.254 14.498-12.322 19.96-46.771 6.681-49.152-63.898-45.414-96.333 3.72-32.24 36.89-105.635 76.433-100.335 44.885 6.016 6.314 72.08-.965 94.19-5.026 15.267-5.435 32.231-14.336 45.142z"/><path fill="#f4d047" d="M403.84 514.432c23.552-7.057 40.38 46.583 19.78 60.663-27.64 3.15-42.419-53.879-19.78-60.663"/><path fill="#f4d044" d="M550.153 626.5c4.138-1.194 11.878 2.142 14.899 4.822 12.245 10.863 19.396 50.62 1.28 55.842-18.671 5.384-34.569-33.587-28.083-48.598.708-2.44 9.582-11.392 11.895-12.066z"/><path fill="#f5d14c" d="M245.359 541.286c5.3 15.147 1.015 23.254-3.405 37.385-11.844 6.093-18.705-.76-25.42-10.283-13.833-19.626-11.213-59.23 15.308-45.875 4.181 2.108 11.938 14.268 13.517 18.773"/><path fill="#f5ce43" d="M482.108 789.606c22.562-6.425 40.738 49.92 16.315 60.707-12.185 3.532-26.094-22.52-27.98-32.7-1.673-8.994 2.338-25.344 11.665-28.007"/><path fill="#f1cc3e" d="M650.052 898.1c13.014 27.63-5.487 64.562-27.204 30.583-9.276-14.516-14.6-36.318 2.048-47.24h9.498c2.85.87 14.31 13.78 15.667 16.656z"/><path fill="#f4cf44" d="M721.468 768.973c-2.338 5.59-4.668 8.849-6.801 13.593-21.718 7.697-37.462-29.21-32.487-44.356 11.554-35.149 47.65 6.119 39.288 30.763"/><path fill="#f5d045" d="M339.243 680.96c24.362-7.364 40.422 50.816 19.695 57.088-17.46 5.282-36.08-30.293-31.557-45.141.743-2.424 9.498-11.23 11.862-11.938z"/><path fill="#f3cf44" d="M604.527 453.333c4.548-1.34 10.71-1.109 15.01 1.204 13.466 8.934 21.496 50.73 4.65 55.825-24.379 7.364-40.464-50.91-19.66-57.029"/><path fill="#f1ce40" d="M769.075 551.484c2.893 6.843 11.281 14.558 13.048 22.647 3.072 14.063.29 43.964-19.849 35.123-.939-.41-11.904-13.85-12.962-15.931-8.96-17.622-6.52-47.821 19.763-41.84"/><path fill="#f0c537" d="M771.098 354.62c8.857-2.603 22.383 14.83 24.567 22.468 2.808 9.83 4.344 22.775-1.1 31.659-8.952 14.617-23.177 3.857-30.499-6.878-8.277-12.126-8.917-42.564 7.032-47.25"/></svg>