<svg xmlns="http://www.w3.org/2000/svg" viewBox="0 0 1024 1024"><path fill="#d09866" d="M719.21 100.165c-12.057 3.234.265 16.512 2.868 22.553 4.608 10.692 34.568 81.672 31.027 84.753l-76.296 20.565-98.799-37.495 84.719 53.75c2.252 8.159-36.907 49.733-39.134 62.754-2.338 13.67 34.645 29.56 42.137 41.48l2.936 8.56-39.637 79.163 95.828 59.255-53.512-51.072-14.02-5.666c-9.352-8.106 35.729-72.96 39.586-87.295l-2.833-8.721-48.256-36.437c17.656-9.524 26.496-47.599 39.347-56.644 9.89-6.963 57.54-15.556 73.583-19.601 10.035 36.454 23.125 78.668 28.108 115.907 13.526 101.068-.05 223.854-43.929 317.285-29.175 62.13-75.537 126.454-136.678 159.837-1.271-7.126-13.866-35.695-22.579-39.535l11.47 48.35c.315 7.449-5.65 7.662-5.838 8.132-20.377 3.464-37.623 18.048-56.388 25.506-86.382 34.295-185.889 34.44-272.8 1.527l-94.395-43.98c-54.434-101.043-63.88-181.589-50.833-293.69l2.808 22.579c38.126-14.029 72.72-38.707 110.062-53.734 6.067-2.44 20.821-8.593 25.6-8.619 16.068-.068 72.541 61.969 90.597 73.54l100.992-78.83 59.639 56.353-50.176-70.596 10.658-14.105c-3.567-3.046-24.934 9.19-30.19 12.151-30.32 17.092-59.426 43.546-85.59 66.568l-90.281-78.02c-34.628 16.64-66.62 39.305-100.65 56.866-13.602 7.023-28.126 16.487-43.46 15.847 11.741-100.89 35.874-190.164 83.617-280.668C309.288 38.734 519.003-106.767 719.21 100.165m-220.397-39.39c-49.382-24.567-51.268 51.592-11 31.07 11.06-5.64 12.843-19.934 11-31.07M384.219 123.81c-44.885 8.303-92.978 65.024-108.44 106.171-26.087 69.402-.376 150.63 81.825 98.773 44.459-28.049 80.836-94.796 85.043-146.969.828-10.308-9.822-37.273-16.913-45.124-11.11-12.305-25.489-15.82-41.515-12.86zm125.935 138.427c0-9.31-7.552-16.862-16.862-16.862s-16.862 7.552-16.862 16.862 7.552 16.862 16.862 16.862 16.862-7.552 16.862-16.862M222.249 412.602c0-9.25-7.5-16.75-16.75-16.75s-16.751 7.5-16.751 16.75 7.5 16.751 16.75 16.751 16.751-7.5 16.751-16.75m382.086 168.55c-31.112 6.826-37.239 57.386-6.621 61.422 50.721 6.699 60.8-73.318 6.621-61.422m-429.94 16.23c-26.496 21.495 9.48 67.123 26.274 31.94 7.031-14.746 6.212-18.782-6.537-29.474l-19.729-2.466zm317.011 102.254c-4.855 1.084-10.214 5.564-15.172 7.544l-4.94 6.357c-14.695 50.116 40.745 79.914 64.357 41.779 20.241-32.691-15.727-62.037-44.245-55.68m-259.847 22.682c-11.648 2.517-24.499 15.428-31.24 25.241-16.93 58.197 50.918 140.432 108.637 108.637 42.709-23.526 13.576-87.543-16.051-112.272-15.761-13.158-40.644-26.086-61.337-21.606z"/><path fill="#b77647" d="m623.203 1009.471-39.535-36.83 39.833-67.703-22.425-28.85c5.12-15.489 8.047-36.907 5.18-52.992 61.14-33.383 107.502-97.706 136.677-159.837 43.87-93.431 57.455-216.208 43.93-317.285-4.984-37.247-18.074-79.453-28.11-115.907 14.243-3.593 35.627-3.209 45.184-16.947 157.84 265.342 185.283 703.645-180.734 796.351m183.755-355.607c-14.49 3.916-15.778 47.863 16.538 39.125 14.49-3.917 15.778-47.863-16.538-39.125"/><path fill="#b67445" d="M589.308 840.034c-3.524 8.653-2.892 16.137-14.404 22.502l-2.133 7.825 27.272 34.56L550.2 978.47l44.766 36.659c-178.704 33.715-341.05-28.322-429.241-192.025l94.395 43.98c86.911 32.905 186.427 32.768 272.8-1.527 18.774-7.45 36.01-22.041 56.388-25.506zm-208.86 62.233-5.35 18.936c31.342 42.888 56.2-25.327 5.35-18.936"/><path fill="#aa6b3f" d="M803.929 213.12c-9.557 13.738-30.942 13.354-45.184 16.947-16.042 4.045-63.7 12.646-73.582 19.6-12.851 9.046-21.692 47.113-39.347 56.645l48.255 36.437 2.833 8.72c-3.857 14.337-48.938 79.19-39.585 87.296l14.02 5.666 53.512 51.072-95.829-59.255 39.637-79.163-2.935-8.56c-7.484-11.912-44.467-27.81-42.137-41.48 2.227-13.021 41.377-54.595 39.133-62.753l-84.718-53.751 98.798 37.495 76.296-20.565c3.541-3.072-26.419-74.06-31.027-84.753-2.603-6.041-14.916-19.32-2.867-22.553 38.57 39.859 56.55 65.612 84.718 112.955z"/><path fill="#a15e34" d="M606.255 823.096c2.868 16.085-.06 37.503-5.18 52.991l22.426 28.851-39.833 67.703 39.535 36.83c-10.932 2.773-17.844 3.686-28.237 5.649L550.2 978.461l49.843-73.548-27.272-34.56 2.133-7.825c11.52-6.366 10.88-13.85 14.404-22.502.188-.461 6.153-.683 5.837-8.133l-11.469-48.35c8.713 3.84 21.308 32.41 22.58 39.536z"/><path fill="#e1b785" d="M384.22 123.81c16.025-2.97 30.404.555 41.514 12.86 7.091 7.85 17.75 34.816 16.913 45.124-4.207 52.172-40.584 118.92-85.043 146.969-82.21 51.856-107.912-29.372-81.825-98.773 15.462-41.148 63.564-97.868 108.44-106.171z"/><path fill="#a26138" d="M231.56 722.318c20.7-4.48 45.575 8.448 61.336 21.606 29.628 24.73 58.76 88.746 16.051 112.272C251.228 888 183.38 805.756 200.31 747.56c6.742-9.813 19.601-22.716 31.24-25.241z"/><path fill="#a8693e" d="M114.892 529.406c15.334.64 29.85-8.824 43.46-15.847 34.03-17.561 66.014-40.225 100.65-56.865l90.282 78.02c26.163-23.023 55.27-49.468 85.589-66.569 5.257-2.96 26.624-15.197 30.19-12.151l-10.657 14.105 50.175 70.596-59.639-56.354-100.991 78.83c-18.048-11.57-74.53-73.616-90.598-73.539-4.779.017-19.533 6.17-25.6 8.619-37.341 15.027-71.935 39.705-110.062 53.734l-2.807-22.58z"/><path fill="#9f6037" d="M491.406 699.636c28.518-6.357 64.495 22.989 44.245 55.68-23.612 38.135-79.06 8.337-64.358-41.78l4.94-6.356c4.959-1.98 10.318-6.469 15.173-7.544"/><path fill="#9b5b34" d="M604.335 581.152c54.178-11.896 44.1 68.12-6.621 61.422-30.618-4.045-24.49-54.596 6.621-61.422"/><path fill="#9d5e36" d="m174.395 597.382 19.729 2.466c12.757 10.684 13.576 14.728 6.536 29.474-16.785 35.183-52.761-10.445-26.274-31.94z"/><path fill="#9c5e36" d="M498.813 60.775c1.852 11.136.06 25.43-11 31.07-40.268 20.522-38.382-55.637 11-31.07"/><path fill="#995c33" d="M476.422 262.237a16.862 16.862 0 1 0 33.723 0 16.862 16.862 0 1 0-33.723 0"/><path fill="#9a5d36" d="M188.748 412.602a16.75 16.75 0 1 0 33.501 0 16.75 16.75 0 1 0-33.501 0"/><path fill="#8b4d29" d="M806.958 653.864c32.316-8.738 31.027 35.208 16.538 39.125-32.316 8.738-31.027-35.209-16.538-39.125"/><path fill="#9c5a30" d="M380.448 902.267c50.858-6.391 26 61.824-5.35 18.936z"/></svg>