<svg xmlns="http://www.w3.org/2000/svg" viewBox="0 0 1024 1024"><path fill="#191919" d="M594.332 115.285a28.444 28.444 0 0 1-12.728 38.159 167 167 0 0 1-9.202 4.266c71.538 70.272 106.71 180.765 106.71 329.401a28.444 28.444 0 1 1-56.89 0c0-124.018-25.7-214.87-76.174-274.176 1.493 121.358-41.87 235.72-129.422 342.045a28.444 28.444 0 0 1-43.918-36.168c87.395-106.14 125.368-218.666 114.759-339.029-13.767 2.034-28.502 3.698-44.217 5.006a28.444 28.444 0 0 1-4.722-56.69c23.21-1.934 43.776-4.679 61.61-8.163a27.6 27.6 0 0 1 8.875-2.446l-1.308.17a29 29 0 0 1 4.21-.327h.44c17.75-4.11 32.37-9.06 43.805-14.777a28.444 28.444 0 0 1 38.172 12.73"/><path fill="#e0291d" d="M809.244 349.582c-65.422-17.536-134.357 9.7-184.647 65.28-78.833-6.585-151.21 22.912-186.496 84.025-53.333 92.388-1.706 222.037 115.3 289.593 82.347 47.545 175.132 51.67 241.465 17.75 62.122-27.962 115.228-91.222 137.258-173.426 34.56-128.982-20.451-255.787-122.88-283.236z"/><path fill="#ea4136" d="M612.978 731.307c-102.429-27.435-157.44-154.24-122.88-283.222 7.68-14.307 71.68-49.863 135.68-28.53 56.889-92.444 163.555-113.777 223.843-54.77 23.353 51.741 29.014 116.936 11.392 182.685-34.56 128.982-145.607 211.286-248.035 183.85z"/><path fill="#191919" d="M816.612 322.09c119.168 31.944 181.29 175.133 142.99 318.08-23.61 88.122-81.124 159.617-153.06 192-75.747 38.77-178.915 32.015-267.363-19.057C409.67 738.347 351.445 592.1 413.454 484.665l2.39-3.982c38.698-63.29 112.256-97.48 195.427-95.047l1.82.07 1.38-1.379c57.23-56.519 131.897-81.052 202.14-62.236m-14.735 54.955c-52.721-14.122-111.246 7.225-156.174 56.903l-9.443 10.44-14.024-1.167c-70.684-5.916-131.015 20.537-159.502 69.888-44.658 77.327.37 190.393 104.89 250.738 72.433 41.813 155.263 47.246 214.3 17.067 57.073-25.742 103.395-83.342 122.737-155.478 30.806-115.015-17.095-225.422-102.784-248.39"/><path fill="#e0291d" d="M241.351 392.476c66.162-17.72 136.249 11.62 187.193 70.4 76.33-3.896 145.564 25.984 179.968 85.547 53.945 93.454 1.72 224.626-116.65 292.978-113.096 65.28-245.647 49.635-304.314-33.394-30.065-32.953-53.959-75.89-67.228-125.426-35.57-132.778 18.617-262.656 121.031-290.105"/><path fill="#ea4136" d="M137.16 682.155c53.958 93.44 193.663 113.806 312.035 45.454 87.025-50.233 138.297-134.429 137.913-212.622-.143-28.189-82.22-74.098-160.441-45.654-53.96-93.454-135.111-85.333-172.871-80.156C135.424 457.529 83.2 588.687 137.159 682.155"/><path fill="#191919" d="M233.998 365C114.617 397 53.561 543.331 92.843 689.947l1.99 7.154c13.796 47.446 36.95 90.269 67.13 124.942l3.385 3.812-1.024-1.436c68.266 96.625 217.457 113.365 341.76 41.614 130.872-75.563 189.71-223.318 127.06-331.833l-2.417-4.04c-37.532-61.382-107.605-95.743-187.819-96.07h-2.104l-1.622-1.707c-57.884-59.847-133.86-86.485-205.184-67.385m14.72 54.954c53.134-14.222 112.654 8.846 158.322 61.54l9.102 10.495 13.838-.71c68.438-3.485 126.095 23.224 153.885 71.366 45.27 78.407-.341 192.996-106.226 254.109-99.228 57.301-213.689 45.482-264.547-22.002l-3.328-4.608-1.195-1.308c-27.776-30.436-48.981-69.632-60.772-113.622-31.857-118.926 15.46-232.362 100.921-255.26"/><path fill="#fff" d="M205.796 561.778A14.22 14.22 0 0 1 220.018 576c0 48.47 9.102 86.016 29.44 112.156a14.222 14.222 0 0 1-22.471 17.465c-24.903-32.028-35.414-75.406-35.414-129.621a14.22 14.22 0 0 1 14.223-14.222m3.342-69.86a14.222 14.222 0 0 1 26.07 11.364 183.4 183.4 0 0 0-9.444 27.378 14.222 14.222 0 0 1-27.549-7.112 211.5 211.5 0 0 1 10.923-31.63"/></svg>