<svg xmlns="http://www.w3.org/2000/svg" viewBox="0 0 1024 1024"><path fill="#ee9731" d="M532.552 224.76c185.12 9.532 339.41 145.04 372.767 327.38s-62.975 363.695-232.727 438.148c-3.866-9.848-11.162-2.27-14.985-1.041-26.854 8.627-74.325 10.735-103.355 9.182-181.8-9.694-335.425-131.942-385.353-307.292-28.715-100.829-16.162-194.916 23.978-289.252 4.804-11.289 3.789-7.722 8.516-15.18 1.255-1.98 9.447-16.614 2.953-18.057 72.456-87.26 178.567-139.646 291.906-144.11 12.1-.477 24.209-.4 36.3.223"/><path fill="#db8126" d="M204.346 368.657c6.494 1.442-1.698 16.068-2.953 18.056-4.727 7.467-3.712 3.892-8.516 15.181-40.14 94.335-52.693 188.423-23.978 289.252 49.928 175.35 203.552 297.597 385.353 307.291 29.03 1.545 76.501-.555 103.355-9.182 3.823-1.228 11.128-8.806 14.985 1.041-169.77 74.462-368.467 22.468-480.005-125.61C81.05 716.61 85.913 511.29 204.346 368.658"/><path fill="#669938" d="M502.814 173.297c-1.767 8.72-5.692 22.28-6.63 29.823.06-7.586 2.833-12.032-7.689-9.352-29.389 7.51-53.64 7.782-83.378 2.654-94.711-16.333-159.547-97.843-164.13-192.144 8.995 1.997 16.521-2.85 24.722-3.464 94.377-7.015 190.385 31.035 223.136 125.131l13.96 47.343z"/><path fill="#834b24" d="M532.552 224.76a399 399 0 0 0-36.3-.221c.452-7.979-.837-15.19-.06-21.427.939-7.552 4.855-21.103 6.63-29.824 4.685-23.091 14.387-50.585 26.965-70.8 6.63-10.659 16.76-24.679 30.507-21.538 8.414 1.92 37.128 21.563 35.14 30.668-27.887 23.467-47.966 51.823-58.658 87.347-2.253 7.492-4.471 16.179-4.215 25.796z"/></svg>