<svg xmlns="http://www.w3.org/2000/svg" viewBox="0 0 1024 1024"><path fill="#d1d7b3" d="M146.656 665.282a165.96 69.15 45 1 0 234.702 234.703 165.96 69.15 45 1 0-234.702-234.703"/><path fill="#65b62f" d="M347.61 418.932c142.905 39.186 235.114 130.24 276.607 273.145 108.335-41.484 191.312-88.747 248.941-141.76L724.484 349.793l93.343-131.385-193.6-155.598L347.62 418.922z"/><path fill-opacity=".253" d="m375.266 809.634 224.747-221.286L821.28 456.973l48.418 79.516-235.114 124.47L399.48 899.525z"/><path fill="#191919" d="M727.98 133.058c-28.614-21.464-63.853-39.083-105.647-53.01l-2.13-.636a27.66 27.66 0 0 0-28.904 10.51L377.39 381.598 134.397 624.59c-37.99 38.005 5.159 121.247 84.225 201.544l7.607 7.607 7.661 7.427c77.89 74.308 157.109 113.6 193.897 76.797L670.033 675.72l202.61-125.41a27.66 27.66 0 0 0 11.893-31.574c-12.654-41.573-31.159-74.862-55.804-99.507-24.3-24.299-47.7-39.913-70.948-46.247l-2.365-.54a27.66 27.66 0 0 0-18.532 3.14l-50.507 28.531L801.97 250.02a27.66 27.66 0 0 0 1.591-30.841c-21.34-35.543-46.524-64.324-75.58-86.12m17.15 97.557 1.065 1.549-183.317 244.445-1.328 1.909c-15.199 23.677 11.673 53.12 37.065 38.765l154.273-87.198.36.166c10.58 5.255 22.82 14.521 36.373 28.089l3.084 3.208c12.212 13.139 22.612 30.122 31.076 51.047l.913 2.323-186.54 115.48-1.77 1.204a28 28 0 0 0-3.236 2.766L390.847 876.669l-.871-.041a31 31 0 0 1-2.656-.305c-7.62-1.203-18.38-5.227-31.048-11.935-28.352-15.02-62.401-41.213-94.736-73.548-32.334-32.348-58.542-66.384-73.547-94.735-6.708-12.682-10.732-23.428-11.936-31.049l-.193-1.438-.125-1.217-.041-.871 242.301-242.302 1.438-1.549 1.314-1.66 202.928-276.723 2.254.87c27.08 10.622 50.023 23.028 68.86 37.162 18.476 13.858 35.266 31.588 50.34 53.3z"/><path fill="#191919" d="M320.217 732.16c64.558 64.558 98.152 136.543 68.459 166.236l-19.57-19.542c13.235-13.249-13.097-70.519-65.236-123.875l-3.222-3.264c-54.255-54.255-113.614-81.956-127.126-68.458L153.967 663.7c29.693-29.693 101.692 3.9 166.236 68.459z"/></svg>