<svg xmlns="http://www.w3.org/2000/svg" viewBox="0 0 1699 1024"><path fill="#feba55" d="M847.904 726.578c-.283 5.268-.687 12.272-.707 19.135l-.08 88.952-.142 165.33c0 7.933.666 16.067 1.252 22.244l-41.156 1.312c-1.01-1.575-1.312-2.463-2.443-2.443l-5.631.08-51.813-1.351-29.167-2.362c-98.479-7.993-193.608-26.845-285.144-62.814-57.707-22.687-99.73-49.169-130.027-103.404L265 783.498l-31.609-57.566-27.309-49.976-25.27-45.576c-11.304-20.386-21.517-41.176-29.954-61.139l2.26-1.312c104.394 71.897 270.289 107.966 394.16 131.723 83.321 15.986 181.8 22.042 267.644 25.614l32.941 1.373z"/><path fill="#f39518" d="M1546.16 572.935c-2.502 5.632-5.752 12.171-9.264 18.67l-22.788 42.206-17.116 31.367-18.59 33.607-28.54 52.176-28.4 52.257-31.003 57.223c-15.623 28.863-50.502 58.05-79.628 73.249-76.76 40.025-122.418 47.11-205.173 66.77-7.67 1.816-15.906 3.128-23.919 4.44l-40.772 6.661c-7.61 1.251-16.874 2.483-24.1 3.108l-35.787 3.089-20.71 1.695-43.9 2.624c-9.002.545-19.014 2.28-28.722 1.857l-39.542-1.716c-.585-6.176-1.251-14.31-1.251-22.243l.141-165.33.081-88.952c0-6.863.424-13.847.706-19.135l27.633-2.462c22.748-2.019 46.949 1.675 71.331-.04l56.617-3.977c93.474-6.58 217.164-25.533 307.933-50.865 61.239-17.096 143.127-42.992 195.929-74.5l25.997-15.501c3.694-2.2 9.366-4.804 12.817-6.278zM807.09 1023.53c-2.36.081-7.225-1.574-8.073-2.381l5.632-.081c1.13 0 1.433.888 2.442 2.442z"/><path fill="#fca344" d="M1638.867 249.28v32.92l.06 12.353c-36.17 12.898 24.807 32.174 11.001 88.064-2.583 10.496-7.872 25.27-14.048 34.616-26.986 40.813-81.444 57.687-126.193 58.938-13.604.384-25.936-6.156-36.674-15.622l-12.454-1.09c.04-6.742-1.575-17.702-6.076-18.852l-27.37-6.984c-3.754-.969-10.233-8.76-10.596-11.485.948 0 2.825 0 3.734.02l42.407 1.595 6.096-17.197c.746-2.12 2.825-5.51 4.158-7.307l12.635-12.575c10.738-9.688 25.331-20.951 33.203-33.587 12.737-20.446 8.276-47.473-5.127-62.934 5.854-5.834-10.031-28.238-13.422-31.831-37.967-40.328-78.073-61.017-129.24-83.321-17.44-7.61-34.536-14.775-52.46-20.305l-55.607-17.198c-26.2-8.093-53.025-16.147-80.415-20.668l-87.337-14.432c-6.661-1.09-14.533-1.978-21.8-2.644l-47.937-4.38-12.817-2.1-60.715-3.41c-68.102-3.815-140.907-1.918-208.06-.788-4.34.081-12.736 4.622-12.696 5.874-5.773-.666-18.065-2.22-24.383-1.534l-36.796 3.956-32.436 3.976-28.339 3.694-35.504 4.925-48.422 8.336c-42.367 7.287-153.381 40.43-193.063 57.283-21.436 9.103-41.338 19.075-62.35 29.671-25.977 13.1-47.958 31.205-69.212 51.33-24.2 22.908-39.723 55.466-29.49 88.608 7.227 23.394 45.294 35.888 64.752 68.768 8.417 1.171 22.607.808 31.528-.726l11.485-1.978c14.896 14.17 31.346 8.659 50.057 37.28l21.537 32.9c9.022 13.807 26.22 1.11 47.817-3.209l33.162-6.62H473c11.586-.02 50.763 10.839 55.386 20.467l2.644 10.496c5.066 20.063-9.81 15.3-4.703 28.258l8.639 21.92c11 1.393 29.428 32.476 28.58 43.982l17.299 8.215c2.866 1.352 12.776 2.442 12.393 1.594 14.533-33.627 10.718.807 23.03-31.609l6.681 21.093 2.2 7.004c2.2 7.024-20.285-.283-27.067 13.06l-5.187 10.233c-1.05 2.059 6.56 6.439 8.86 6.418l20.468-.14c3.592-.021 7.448 8.981 7.367 11.989-30.216 7.71-63.016 9.405-94.443-2.564-21.758-8.296-43.699-19.82-60.33-35.363l-25.837-24.14c-2.947-2.745-11.727-6.5-15.945-5.087l-24.383 8.114c-36.937 12.272-72.18 16.996-109.863 6.6-40.066-11.04-78.013-45.313-92.182-79.122-6.156-14.674-63.137 7.428-85.683 3.169l-19.66-4.864c-41.68-10.335-91.878-55.992-99.69-101.77-7.145-41.862 10.98-83.785 46.667-106.997 5.268-3.431 11.141-8.013 15.642-11.929-11.303-36.21 2.22-69.918 29.348-93.191 37.624-32.295 69.879-41.782 119.754-41.277 11.404-23.434 26.785-43.477 49.734-56.274 30.58-17.056 73.693-28.38 107.482-22.445l44.769 7.852c49.068-63.5 136.769-77.104 203.862-45.233 23.817 11.323 29.105-11.082 72.784-27.612C747.042-8.535 800.147-2.883 849.62 28.564c14.331 9.123 25.352-4.179 44.002-12.232 50.057-21.577 118.543-20.003 164.482 10.88l23.555 15.844c3.472 2.341 15.744-1.796 19.842-3.512 72.179-30.135 149.202-15.643 194.456 40.227 2.886 3.573 12.675 3.775 15.663 3.371l35.948-4.965c37.099-5.127 91.112 11.707 117.937 37.744 10.617 10.315 18.953 24.968 27.067 38.431 39.279 1.817 77.912 12.555 110.55 37.826 13.705 10.617 37.078 42.347 35.787 57.02z"/><path fill="#e26412" d="M1546.16 572.935c-3.45 1.474-9.123 4.077-12.816 6.278l-25.998 15.501c-52.822 31.508-134.69 57.404-195.93 74.5-90.768 25.352-214.458 44.285-307.932 50.865l-56.617 3.976c-24.382 1.716-48.583-1.998-71.331.04-1.615-39.904-32.012-15.642-41.176-39.641-4.481-11.748 23.575-9.951 20.87-18.65 46.485-1.474 82.272-20.508 121.591-48.423 6.943-4.925 17.924-5.954 25.493-1.615 44.022 25.251 90.85 46.02 142.219 35.242 43.598-9.143 78.456-32.8 107.28-66.124 21.334-24.645 92.908 51.289 185.413-8.013 19.356-12.413 34.212-27.753 46.383-47.494 20.73-33.607-1.291-32.355 19.155-50.32l6.883-2.886c44.769-1.25 99.206-18.125 126.193-58.938 6.176-9.345 11.464-24.12 14.048-34.616 13.786-55.91-47.191-75.187-11-88.064 30.8 19.357 44.728 34.454 56.94 70.605 13.12 38.794-11.102 93.917-45.557 118.583-51.53 36.856-66.184 17.964-77.992 42.367l-17.136 35.423c-1.494 3.108-7.206 9.527-9.023 11.424z"/><path fill="#e67721" d="M629.55 644.63c13.664-3.492 28.762-7.004 42.528-14.17l42.145-21.94 32.315 20.891c34.455 22.263 68.667 37.664 108.693 36.413 2.704 8.699-25.372 6.923-20.871 18.65 9.184 23.999 39.561-.242 41.176 39.642l-27.632 2.462-32.941-1.372c-85.844-3.573-184.324-9.628-267.645-25.614-123.87-23.757-289.766-59.826-394.16-131.723l-2.26 1.312c-2.664-2.08-8.901-8.76-10.778-12.676l-19.236-40.268c22.546 4.26 79.526-17.822 85.683-3.169 14.19 33.83 52.115 68.102 92.181 79.123 37.705 10.375 72.947 5.672 109.864-6.6l24.382-8.114c4.219-1.413 13 2.341 15.946 5.086l25.836 24.14c16.612 15.522 38.572 27.068 60.331 35.364 31.427 11.969 64.247 10.273 94.442 2.563"/><path fill="#e26412" d="M1638.887 282.22V249.3c.465.181 3.714 6.055 3.755 8.073l.323 21.113-4.057 3.734z"/><path fill="#fb9b3c" d="M1416.496 422.158c.364 2.745 6.843 10.536 10.597 11.485l27.37 6.984c4.501 1.15 6.096 12.11 6.076 18.852l12.453 1.09c10.738 9.466 23.05 16.006 36.675 15.623l-6.883 2.886c-20.466 17.944 1.575 16.692-19.154 50.32-12.172 19.74-27.027 35.08-46.384 47.493-92.505 59.302-164.079-16.632-185.413 8.014-28.844 33.324-63.682 56.98-107.28 66.123-51.37 10.779-98.197-9.99-142.219-35.241-7.57-4.34-18.53-3.33-25.493 1.614-39.319 27.915-75.126 46.95-121.59 48.423-40.026 1.271-74.238-14.15-108.693-36.413l-32.315-20.89-42.145 21.94c-13.766 7.165-28.864 10.677-42.528 14.169.08-3.008-3.775-12.01-7.368-11.99l-20.467.142c-2.3 0-9.91-4.36-8.86-6.419l5.187-10.233c6.782-13.362 29.267-6.035 27.067-13.06l-2.2-7.004-6.681-21.092c-12.333 32.396-8.498-2.039-23.03 31.608.383.868-9.527-.222-12.394-1.594l-17.297-8.215c.847-11.505-17.581-42.59-28.582-43.982l-8.638-21.92c-5.107-12.958 9.769-8.195 4.703-28.258l-2.645-10.496c1.474-.202 3.109-.767 3.856-.182l4.622 3.936 11.909 7.67 4.077 4.764 15.037 13.08 18.287 16.45c3.23 2.906 14.715-.142 18.69-1.958 1.595-.727 4.098-3.411 4.563-4.199l11.646-3.572c1.635-.505 4.48-3.633 4.743-4.3l15.26-4.036c1.655-.444 3.814-2.826 4.622-3.977 7.084-1.413 21.072-4.218 29.53-6.418 46.14-12.03 91.757-6.883 132.51 17.802l14.815 8.982 31.67 20.043c46.867-35.726 106.593-59.786 162.18-51.349 45.334 6.883 60.614 21.517 101.346 36.332l23.252-22.525c6.681-6.48 14.472-13.02 22.102-18.53 24.403-17.58 22.829-10.819 30.862-19.8l45.193-7.65c59.08-10.012 96.48 31.023 109.278 11.525l17.964-27.39c13.745-20.972 23.09-34.193 50.117-34.637zm-832.24 127.969-13.241-17.621c-2.523-3.35-12.353-4.965-19.175-5.49l3.492 26.32 28.924-3.189zm835.975-127.949 4.581-3.37 31.589.323c2.26.02 8.134-6.46 8.78-7.69l3.573-4.885-6.096 17.197-42.407-1.595z"/><path fill="#fecc36" d="M1513.583 290.173a231 231 0 0 0-25.452 10.94c-65.034 32.597-135.518 45.657-209.03 40.63-32.436-2.22-21.052 15.825-40.792 31.327l-20.951 16.43c-51.026 40.025-162.04 58.898-226.953 67.456l-91.415 12.05c7.105 3.734 16.43 6.984 24.342 7.771l37.22 3.714c78.921 7.872 136.75 1.796 213.773.222l19.64-.404c-8.054 8.982-6.48 2.22-30.863 19.801-7.65 5.51-15.42 12.05-22.102 18.53l-23.252 22.525c-40.732-14.815-56.012-29.449-101.346-36.332-55.587-8.437-115.313 15.623-162.18 51.35l-31.67-20.044-14.815-8.982c-40.752-24.685-86.39-29.832-132.51-17.802-8.458 2.2-22.445 5.005-29.53 6.418-1.615.323-4.501 3.411-4.622 3.976l-15.26 4.037c-1.675.444-4.602 3.714-4.743 4.3l-11.646 3.572c-1.595.485-4.26 3.512-4.562 4.199-3.976 1.816-15.441 4.864-18.69 1.957l-18.288-16.45-15.037-13.08c-.969-1.352-2.705-3.875-4.077-4.763l-11.909-7.67c-1.393-.888-3.33-2.906-4.622-3.936-.727-.585-2.362 0-3.855.182-4.623-9.628-43.8-20.507-55.386-20.487h-41.54c1.433-1.332 8.559-4.037 12.252-4.118l51.35-1.19 2.058-34.354c8.134-.606 17.258-1.595 23.454-1.555 58.757.505 161.657 2.2 219.04-19.296l-106.23-24.282c-29.53-6.761-55.99-19.498-82.392-34.394-11.162-10.374-23.656-30.115-26.038-41.983 1.231-4.965 3.27-12.151 5.51-17.944l11.183-28.702c15.28-30.64 31.487-35.868 43.497-62.834l29.792-9.022c35.706-10.82 69.575-22.788 102.637-39.4 11.122-5.591 22.809-15.905 31.548-25.311 4.158-4.461 5.995-21.254.929-24.403-6.116-3.835-14.371-7.347-18.933-7.872-.04-1.272 8.356-5.813 12.696-5.874 67.153-1.15 139.958-3.048 208.06.787l60.715 3.412 12.817 2.099 47.937 4.38c7.267.666 15.159 1.534 21.8 2.644l87.337 14.432c27.39 4.521 54.215 12.575 80.415 20.668l55.607 17.198c17.924 5.55 35.02 12.716 52.46 20.305 51.167 22.304 91.253 42.993 129.24 83.32 3.39 3.594 19.276 25.998 13.422 31.832zm-437.596-82.514c31.245-1.09 128.412-20.245 135.194-44.728 4.26-15.38-90.304-34.778-105.463-37.543-48.301-8.84-95.956-10.779-144.762-7.71-17.722 1.11-99.69 18.186-114.869 36.917 24.241 17.156 49.028 28.52 77.871 34.717l40.207 8.659c24.06 5.167 84.19 12.252 111.842 9.708z"/><path fill="#fb8601" d="M731.077 94.99c4.582.525 12.817 4.037 18.933 7.872 5.046 3.149 3.209 19.942-.929 24.403-8.74 9.406-20.426 19.72-31.548 25.311-33.062 16.612-66.931 28.601-102.637 39.4l-29.792 9.022c-20.992 6.358-43.094 10.315-66.326 15.179-58.313 12.212-83.442 10.86-143.854 9.668-13.1-.262-31.911 4.623-34.616 20.952-1.474 8.88 11.101 24.685 19.66 29.933 83.623 51.41 159.536 6.883 164.926 33.748 2.381 11.869 14.876 31.609 26.037 41.984 26.402 14.896 52.863 27.632 82.393 34.394l106.23 24.282c-57.384 21.496-160.304 19.78-219.04 19.296.686-6.156-40.57-1.01-64.772-5.107l-112.89-19.135c-22.405-3.794-45.335-4.238-64.005 5.107l-11.485 1.978c-8.922 1.534-23.111 1.897-31.528.727-19.458-32.88-57.526-45.375-64.752-68.768-10.233-33.143 5.269-65.7 29.49-88.61 21.274-20.123 43.235-38.229 69.212-51.328 21.012-10.577 40.913-20.568 62.35-29.671 39.682-16.854 150.696-49.997 193.062-57.283l48.423-8.337 35.504-4.925 28.339-3.693 32.436-3.977 36.796-3.956c6.318-.686 18.61.888 24.383 1.534"/><path fill="#fa7b01" d="M1513.583 290.173c13.402 15.461 17.863 42.488 5.127 62.935-7.872 12.635-22.445 23.898-33.203 33.586-4.24 3.815-8.922 8.357-12.636 12.575-1.312 1.817-3.39 5.188-4.158 7.307l-3.572 4.884c-.666 1.232-6.52 7.71-8.78 7.69l-31.589-.322-4.582 3.37c-.928-.04-2.785-.04-3.734-.02-27.027.444-36.372 13.665-50.118 34.637l-17.964 27.39c-12.776 19.498-50.178-21.537-109.278-11.525l-45.192 7.65-19.64.403c-77.023 1.575-134.851 7.63-213.772-.222l-37.22-3.714c-7.912-.787-17.237-4.037-24.342-7.77l91.414-12.05c64.913-8.559 175.927-27.431 226.953-67.457l20.952-16.43c19.74-15.481 8.356-33.526 40.792-31.326 73.511 5.026 143.995-8.054 209.03-40.631 8.84-4.42 17.6-8.114 25.452-10.94z"/><path fill="#fec713" d="M520.534 430.414c-6.197-.061-15.32.928-23.454 1.554l-2.06 34.354-51.348 1.19c-3.674.081-10.819 2.786-12.252 4.138l-33.163 6.62c-21.617 4.32-38.794 16.996-47.817 3.21l-21.536-32.9c-18.731-28.602-35.161-23.112-50.057-37.281 18.67-9.345 41.6-8.901 64.004-5.107l112.891 19.135c24.201 4.098 65.478-1.05 64.772 5.107z"/><path fill="#fb9b3c" d="M1472.891 399.27c3.714-4.22 8.397-8.74 12.636-12.576z"/><path fill="#fdf0c8" d="M1075.987 207.66c-27.633 2.542-87.782-4.522-111.842-9.71l-40.207-8.659c-28.843-6.216-53.63-17.56-77.871-34.717 15.178-18.73 97.147-35.807 114.869-36.917 48.785-3.048 96.46-1.13 144.762 7.71 15.179 2.786 109.722 22.163 105.463 37.544-6.782 24.483-103.95 43.638-135.195 44.728z"/><path fill="#febb11" d="M585.104 200.978c-12.01 26.967-28.218 32.194-43.498 62.834l-11.182 28.702c-2.26 5.793-4.279 12.959-5.51 17.944-5.39-26.865-81.303 17.661-164.926-33.748-8.559-5.248-21.133-21.052-19.66-29.934 2.705-16.329 21.517-21.213 34.616-20.95 60.412 1.19 85.541 2.542 143.854-9.67 23.232-4.864 45.334-8.82 66.326-15.178z"/><path fill="#fca344" d="M604.824 535.877c.302-.687 2.967-3.714 4.561-4.199-.464.808-2.947 3.472-4.561 4.199m36.19-16.128c.121-.545 3.028-3.653 4.622-3.976-.807 1.15-2.967 3.532-4.622 3.976m-104.191-23.898-4.623-3.936c1.292 1.03 3.25 3.028 4.623 3.936m15.986 12.434-4.078-4.764c1.353.868 3.089 3.391 4.078 4.764m68.202 19.8c.142-.585 3.069-3.855 4.744-4.299-.242.666-3.088 3.795-4.744 4.3m-36.755 22.042-28.924 3.189-3.492-26.32c6.822.524 16.672 2.14 19.175 5.49l13.24 17.62z"/></svg>