<svg xmlns="http://www.w3.org/2000/svg" viewBox="0 0 1024 1024"><path fill="#cfb1b7" d="m536.889 99.556 23.182 101.603a240 240 0 0 0 7.168 25.173l15.872-126.776L654.222 128c2.375 109.042 26.07 182.514 71.111 220.444l.711.598c105.714 28.87 184.178 135.452 184.178 262.514 0 149.233-108.245 270.222-241.778 270.222a218 218 0 0 1-48.597-5.462c-32.085 21.618-68.835 33.906-107.847 33.906-39.026 0-75.762-12.274-107.847-33.92a217.6 217.6 0 0 1-48.597 5.476c-133.533 0-241.778-120.989-241.778-270.222 0-118.728 68.508-219.577 163.754-255.844l-.199-.156A219.12 219.12 0 0 0 407.467 170.41l4.977-70.855z"/><path fill="#fceeed" d="m519.111 128 46.222 135.111L625.778 192l56.448 179.328C794.68 383.829 881.778 470.698 881.778 576c0 113.892-101.874 206.222-227.556 206.222-18.062 0-35.64-1.906-52.494-5.518A212.4 212.4 0 0 1 512 796.444c-32.057 0-62.464-7.068-89.742-19.74a250.5 250.5 0 0 1-52.48 5.518c-125.682 0-227.556-92.33-227.556-206.222 0-92.444 67.13-170.71 159.645-196.878a219.11 219.11 0 0 0 119.822-180.267L426.667 128z"/><path fill="#cfb1b7" d="M583.111 796.444h115.726C722.631 677.092 707.77 582.272 654.222 512c16.726 142.222-6.969 237.042-71.11 284.444"/><path fill="#191919" d="m536.889 99.556 23.182 101.603a240 240 0 0 0 7.168 25.173l15.872-126.776L654.222 128c2.318 106.61 25.031 179.228 68.139 217.87l3.683 3.172c105.714 28.87 184.178 135.452 184.178 262.514 0 149.233-108.245 270.222-241.778 270.222a218 218 0 0 1-48.597-5.462c-32.085 21.618-68.835 33.906-107.847 33.906-39.026 0-75.762-12.274-107.847-33.92a217.6 217.6 0 0 1-48.597 5.476c-133.533 0-241.778-120.989-241.778-270.222 0-118.728 68.508-219.577 163.754-255.844l-.199-.156A219.12 219.12 0 0 0 407.467 170.41l4.977-70.855zm-45.383 56.888h-26.027l-1.251 17.949A276.01 276.01 0 0 1 310.2 402.987l-4.366 2.076-.342.228a59 59 0 0 1-5.049 2.503l-2.66 1.08c-74.495 28.374-127.117 109.17-127.117 202.682 0 119.14 84.28 213.333 184.889 213.333 12.202 0 24.192-1.365 35.896-4.04a56.9 56.9 0 0 1 44.488 8.278c23.68 15.957 49.479 24.206 76.06 24.206s52.395-8.249 76.075-24.192a56.9 56.9 0 0 1 41.13-8.931l3.3.64a161.5 161.5 0 0 0 35.94 4.039c100.607 0 184.888-94.194 184.888-213.333 0-100.324-60.473-185.288-142.279-207.645a56.9 56.9 0 0 1-19.03-9.273l-3.341-2.674c-35.613-30.008-60.118-73.159-74.752-129.052l-.655-2.56-.469.668c-24.434 32.441-80.939 30.45-98.318-13.368l-1.024-2.788a300 300 0 0 1-8.875-31.061l-13.07-57.359z"/><path fill="#cfb1b7" d="M363.008 555.207a14.22 14.22 0 0 1 9.785 17.579c-2.19 7.68-3.015 14.52-3.015 24.547a14.222 14.222 0 0 1-28.445 0c0-12.515 1.138-21.902 4.096-32.341a14.22 14.22 0 0 1 17.579-9.785M668.444 640a14.22 14.22 0 0 1 14.223 14.222c0 101.846-76.118 184.89-170.667 184.89s-170.667-83.044-170.667-184.89a14.222 14.222 0 0 1 28.445 0c0 86.67 63.971 156.445 142.222 156.445s135.111-64 149.333-156.445c1.21-7.822-.74-14.222 7.111-14.222"/></svg>