<svg xmlns="http://www.w3.org/2000/svg" viewBox="0 0 1024 1024"><path fill="#699977" d="M35.507 635.742C2.91 588.348-6.912 527.36 12.28 472.533 49.775 365.372 194.423 295.22 294.23 258.005c59.094-22.033 120.5-40.601 182.016-53.495 47.002-9.856 96-17.058 143.924-11.657 84.061 9.48 147.507 68.045 164.676 150.69.179.845.008 1.75.034 2.603.47.546 8.456-1.852 10.146-2.108 20.164-3.114 40.277-3.55 60.715-2.124l13.346 3.165c-26.223-2.338-46.618-3.822-72.994.018-3.576.52-7.458 2.304-11.213 2.107l9.591 2.134-2.133 2.124h7.458c-41.011 6.127-82.261 30.004-108.68 60.177-8.286 9.464-15.343 18.663-21.36 29.799l2.424 1.826 12.493 5.086c7.322 4.685 15.488 8.107 22.775 12.92 16.973 11.195 27.401 26.128 42.249 37.12v1.066l-2.133.53c1.33 1.672 3.626 3.114 4.77 4.82 1.954 2.919 2.116 4.992 4.778 7.98 3.67 4.112 3.43 2.175 4.48 7.27.23 1.126 3.823 5.486 4.617 7.1 11.853 23.944 19.942 58.709 18.714 85.742-1.903 41.77-16.58 80.87-40.064 114.364-3.217 4.59-8.995 9.532-10.164 14.882-3.84-.589-2.62 1.033-4.13 2.748a188.5 188.5 0 0 1-18.218 18.03c-19.747 17.11-45.859 32.137-71.075 40.807-14.412 4.958-29.593 7.288-44.518 8.772-22.639 2.245-40.414 1.349-62.071-4.062-2.39-.597-7.868-.998-9.83-1.817-3.047-1.272-2.399-.367-1.144 1.596-19.593-10.82-40.389-18.697-58.112-32.982-16.435-13.243-31.446-30.011-41.925-48.623-6.638-11.793-11.673-24.55-15.112-37.606l-11.7 2.108c.095-.034.206-.632.752-.862 2.568-1.092 1.98-3.226 4.778-3.507.401-.333-.375-1.366-.478-2.048-1.962-13.841-6.092-31.676-5.102-45.27.23-3.191 1.715-5.342-.384-8.064-3.67-1.152-3.107-.597-5.598-.034-14.089 3.209-27.99 7.22-41.89 10.325-30.14 6.742-59.094 11.742-90.095 14.345-5.735.486-12.997.324-18.142 1.041-1.997.282-3.328 1.852-5.325 2.133-6.451.896-12.962-.05-20.275 1.05-2.552.384-5.948-.913-7.467 2.125-1.11 2.227.17 3.72-2.67 5.845-3.047 2.287-10.318 2.594-13.876 1.135-2.261-.93-4.454-3.67-6.912-3.823-.828-.051-7.108.905-8.474 1.144-4.181.733-8.32 2.722-12.62 3.055-1.588-.786-4.318-1.989-4.847-3.764-.23-.76-1.212-5.674-1.23-6.255-.042-2.082-3.327 4.515-3.762 2.39-5.752-.785-2.757 4.71-8.508 3.43-4.915-1.092-7.85-3.883-12.595-5.086-3.559-.904-9.498.094-13.227.512-9.66-5.606-9.207-5.427-19.08-8.013s-17.153-6.229-26.206-10.683c-6.042-2.97-15.326-6.64-22.435-9.797-2.858-1.271-11.793-8.977-14.583-8.14-3.806 1.143-4.147-8.098-4.275-6.17-.12 1.843-2.244 5.845-2.023 7.347.077.52 4.43 8.047 5.18 9.208v1.066zM698.53 234.359c.384-2.26-.384-3.481-2.116-4.804-4.72-.188-9.378-3.857-13.551-4.565-26.138-4.455-53.154-7.228-79.718-4.446-7.262.76-26.898 3.61-32.87 6.562-1.648.81-2.62 2.338-3.926 3.533 3.046 3.934 5.197 1.74 8.013 1.621 31.897-1.39 63.837-3.464 95.889-1.066l28.27 3.174zm-93.798 75.589c4.932 1.775 9.941-.802 14.609-1.912 23.057-5.461 46.72-11.793 70.16-16.162 10.25-1.911 26.002-2.611 35.21-6.357 4.317-1.758 3.088-4.01-1.093-4.344-29.431-2.355-65.553 6.537-93.337 15.429-7.766 2.483-14.601 4.659-21.65 9.25l-3.89 4.096zm147.097 25.557c-2.056-.29-3.669.504-5.299 1.621-5.94 4.088-12.808 11.742-18.662 16.495-19.26 15.633-40.645 27.947-60.288 43.051-3.593 2.765-7.757 4.6-10.607 8.559 1.34 1.647 1.305 1.596 3.234 1.11 3.464-.871 9.66-3.5 13.064-5.061 18.117-8.303 37.257-21.897 52.941-34.423 10.624-8.491 16.478-16.052 24.602-26.53 1.314-1.69 1.152-2.842 1.024-4.83zM163.422 369.58l-11.708 3.737C90.692 402.321 23.185 472.91 28.041 544.734c.136 1.963-.444 3.43 1.612 4.77 1.81.802 2.006-1.766 2.398-2.918 4.241-12.331 5.786-24.56 10.078-36.788 4.173-11.895 9.66-24.09 15.915-35.208 1.613-2.867 2.235-4.446 3.567-7.083.606-1.203 3.217-2.782 4.258-4.266 10.368-14.703 17.988-25.25 30.353-37.786 19.285-19.541 41.933-33.766 63.48-50.543 2.235-1.74 4.522-2.133 3.72-5.333M61.995 554.659c.315-.24.298-1.648 1.203-2.484 31.377-29.107 75.528-56.132 112.341-77.338 23.006-13.252 46.78-26.29 71.032-37.649 1.16-.546 3.703-1.45 3.191-3.2-1.715-2.346-1.98-1.365-3.976-.776-18.936 5.538-36.813 11.725-54.64 19.95-1.988.922-4.351 2.117-6.45 3.14-9.08 4.421-18.654 9.43-26.556 13.91-13.935 7.902-27.435 16.282-40.508 25.575-15.232 10.828-29.705 23.398-42.633 36.172-6.391 6.307-9.54 10.368-14.455 17.536-1.519 2.22-4.59 2.987-3.72 6.4.187.188 4.957-1.066 5.162-1.228zM416.06 684.714c9.43 50.705 60.731 97.578 108.697 112.35 142.328 43.852 284.945-97.246 243.072-239.053-1.33-5.683-3.6-11.665-5.845-17.058-35.584-85.675-133.93-120.662-219.375-90.249-87.15 31.01-145.51 120.9-131.848 213.222l5.307 20.78zM5.837 518.51l-1.238-3.08c.786 3.618-.827 6.835-1.109 10.06-.316 3.559.99 5.64 1.152 8.525.333 5.734-.188 11.383.964 16.99 3.405 1.34 3.482 3.772 5.334 6.536l6.45.478c1.016-3.976-1.006-6.212-1.902-9.284-2.842-9.71-7.518-19.217-7.629-29.525l-2.014-.709zm291.9 16.085-14.183 1.263c-64.606 19.388-129.561 34.381-194.39 50.722-3.993 1.007-9.335 1.545-13.183 2.8-1.613.528-3.567 1.68-3.149 3.771 5.811-.299 11.836.401 17.63.051 39.885-2.406 89.685-15.812 128.085-27.503 25.242-7.688 53-15.949 76.536-27.895 1.544-.785 3.106-.691 2.654-3.2zM47.113 611.14c4.266-6.835 5.009-10.462 3.097-18.295-2.33-9.558-8.277-22.955-17.886-26.855-4.463-1.809-8.422-2.056-11.195 2.688-3.055 5.223-2.757 10.641-1.391 16.273 2.287 9.379 7.603 20.455 16.452 25.088 4.198 2.202 6.357 2.125 10.914 1.101z"/><path fill="#608d6e" d="M35.507 634.675c.273.418 2.663 1.067 2.134 3.192l2.124-2.125.077 3.115c2.432 1.024 7.5.358 9.327 2.466.333.384.043 1.433.341 1.672.248.196 5.36 2.048 5.88 2.16 2.713.588 7.79 1.117 9.941-.385 1.622-1.135 2.16-3.31 4.71-2.568 4.08 2.688 6.068 7.74 9.14 11.127 2.858 3.149 6.144 4.122 9.66 6.323 10.29 6.46 21.708 14.823 32.682 19.525 8.568 3.669 22.673 7.39 30.166 11.93 14.464 8.763 35.054 6.715 51.72 8.498 2.278.248 4.634-.11 6.904.026-.171 1.903-2.5 1.596-3.243 2.79-1.195 1.912-1.092 4.608-1.024 6.793l-11.102.085-3.917 8.329c-2.253.247-4.557.06-6.835.102-1.289.026-3.977-.793-3.73 1.058 4.78.24 9.66-.298 14.44-.042 1.902.102 3.361 1.092 5.239 1.16 30.78 1.1 60.851-2.722 91.187-5.367l-16.546 3.174c-50.065 4.668-101.769 7.228-149.76-11.136-32.068-12.27-55.757-31.198-78.865-55.91.478-2.586-2.176-3.158-3.2-4.258-3.26-3.525-4.898-6.921-7.458-10.65v-1.067zm17.058 18.1h-2.133l1.604 2.124h.53z"/><path fill="#5d8a6a" d="M163.422 369.579c.793 3.2-1.493 3.592-3.72 5.333-21.547 16.777-44.195 31.01-63.48 50.543-12.365 12.535-19.994 23.083-30.353 37.786-1.05 1.484-3.652 3.063-4.258 4.266-1.332 2.637-1.954 4.216-3.567 7.083-6.255 11.119-11.742 23.321-15.915 35.208-4.284 12.22-5.837 24.457-10.078 36.788-.392 1.152-.589 3.72-2.398 2.918-2.056-1.34-1.484-2.816-1.612-4.77-4.856-71.825 62.66-142.404 123.673-171.418z"/><path fill="#5c8969" d="M61.995 554.658c-.214.162-4.984 1.425-5.163 1.229-.87-3.413 2.202-4.181 3.72-6.4 4.907-7.168 8.065-11.23 14.456-17.536 12.928-12.766 27.4-25.336 42.633-36.173 13.073-9.293 26.572-17.68 40.507-25.574 7.902-4.48 17.477-9.48 26.556-13.91 2.1-1.024 4.463-2.218 6.451-3.14 17.835-8.226 35.704-14.413 54.64-19.95 1.996-.581 2.252-1.562 3.976.776.512 1.75-2.031 2.654-3.192 3.2-24.252 11.358-48.025 24.388-71.031 37.649-36.813 21.205-80.965 48.23-112.342 77.337-.904.837-.896 2.245-1.203 2.484z"/><path fill="#5c8a6a" d="M297.737 534.596c.443 2.5-1.118 2.415-2.654 3.2-23.535 11.947-51.294 20.207-76.536 27.896-38.4 11.69-88.209 25.105-128.085 27.503-5.803.35-11.819-.35-17.63-.052-.41-2.082 1.545-3.242 3.149-3.771 3.848-1.255 9.199-1.792 13.184-2.8 64.828-16.34 129.783-31.334 194.39-50.721l14.182-1.263z"/><path fill="#5f8c6d" d="m698.53 234.36-28.27-3.175c-32.043-2.398-63.992-.333-95.89 1.067-2.816.12-4.975 2.32-8.013-1.622 1.306-1.186 2.279-2.713 3.926-3.532 5.973-2.961 25.608-5.803 32.87-6.563 26.564-2.79 53.58-.008 79.718 4.446 4.173.709 8.824 4.378 13.551 4.566 1.724 1.33 2.492 2.551 2.117 4.804z"/><path fill="#a2d88b" d="M47.113 611.14c-4.557 1.024-6.716 1.101-10.915-1.1-8.849-4.634-14.165-15.71-16.452-25.089-1.374-5.632-1.664-11.05 1.391-16.273 2.773-4.736 6.741-4.497 11.196-2.688 9.608 3.9 15.556 17.297 17.886 26.855 1.911 7.833 1.169 11.46-3.098 18.295z"/><path fill="#5f8c6c" d="m604.732 309.948 3.89-4.096c7.05-4.583 13.885-6.767 21.65-9.25 27.793-8.892 63.906-17.784 93.338-15.429 4.18.333 5.41 2.594 1.092 4.344-9.208 3.746-24.96 4.446-35.209 6.357-23.44 4.37-47.095 10.7-70.16 16.162-4.668 1.11-9.678 3.687-14.61 1.912z"/><path fill="#608e6e" d="M751.83 335.505c.127 1.988.29 3.14-1.025 4.83-8.132 10.479-13.977 18.04-24.601 26.53-15.685 12.527-34.825 26.12-52.941 34.424-3.396 1.561-9.6 4.19-13.065 5.06-1.928.486-1.894.537-3.234-1.11 2.859-3.959 7.023-5.802 10.607-8.558 19.652-15.113 41.028-27.418 60.288-43.051 5.854-4.753 12.723-12.4 18.663-16.495 1.63-1.118 3.242-1.92 5.299-1.621z"/><path fill="#5c876a" d="m5.837 518.51 2.014.71c.11 10.307 4.787 19.814 7.628 29.525.896 3.063 2.927 5.299 1.903 9.284l-6.45-.478c-1.853-2.765-1.92-5.197-5.334-6.537-1.152-5.606-.632-11.255-.964-16.99-.171-2.875-1.468-4.957-1.152-8.524.29-3.226 1.894-6.443 1.109-10.061l1.237 3.08z"/><path fill="#5c8969" d="M20.608 610.62s132.42 92.16 377.796 16.597c0 0 2.535 61.397 8.645 62.054 0 0-174.004 62.652-286.524 15.497-77.662-36.719-99.926-94.157-99.926-94.157z"/><path fill="#669770" d="M869.086 345.088c6.23.555 11.298 1.724 17.331 3.447 71.288 20.344 124.894 81.852 134.016 155.742.853 6.887 2.278 38.178-1.041 42.036-.137.162-.768.119-.939.657-.512 1.62.888 4.761-1.194 4.667.443-4.6-1.349-8.303 0-12.774l-4.258 2.125.017-33.605c-.197-1.433-1.067-1.433-1.093-1.527-.844-3.507-.563-6.101-1.083-9.028-17.912-100.002-112.367-160.086-211.038-145.349h-7.458l2.133-2.124-9.592-2.134c3.755.197 7.638-1.587 11.213-2.107 26.377-3.849 46.78-2.356 72.994-.017z"/><path fill="#6b967a" d="M1011.925 505.856c.026.094.888.094 1.093 1.527l-.017 33.605 4.258-2.125c-1.349 4.471.443 8.175 0 12.774 2.082.094.682-3.046 1.194-4.667.171-.538.794-.495.939-.657-.495 11.639-3.362 24.046-6.886 35.174-5.018 15.855-12.809 30.848-21.897 44.672-1.544.333-2.304 1.647-2.133 3.191-31.77 46.9-85.922 77.406-142.26 83.09-14.668 1.476-27.212.281-41.642-1.093-2.97-.281-6.528-1.032-7.97 2.108.256-2.082-.965-3.192 1.869-3.448l.34-1.817 4.182 1.015-.06-2.508 1.127-2.825c9.557-.896 20.173 1.604 30.43 1.11 77.329-3.747 149.222-55.587 170.777-130.731 2.833-9.865 6.042-22.673 6.699-32.7.76-11.597-.657-24.03-.043-35.712z"/><path fill="#a6beb3" d="M988.476 629.35c-.18-1.553.589-2.858 2.133-3.191a207 207 0 0 1-2.133 3.191"/><path fill="#eef6e5" d="M684.68 448.358a21 21 0 0 1-2.193-1.664c-.46-3.985 10.343-16.307 12.365-20.65 79.48-101.07 251.034-77.73 293.794 43.494l2.023.717c6.724 25.096 10.59 48.239 7.381 74.436-10.624 86.793-93.116 152.295-179.618 146.432-3.686-.247-10.257 1.536-12.237-2.15.094-.342-.11-.76 0-1.067.35-.973.683-1.135 1.067-3.191 1.945-10.411 4.779-21.829 5.376-32.427.793-14.165-1.391-28.433-1.11-42.103.06-2.979-.947-6.708 1.58-8.423 4.897 2.714 10.35-.375 15.479-.085v-4.25l3.097-.094c2.748-5.205.026-9.301-.947-14.31-1.621-8.414-2.637-19.132-5.58-27.435-.897-2.526-2.433-4.488-4.703-5.947-8.209-1.98-11.537 2.662-17.476 6.792l-3.183 4.779c-1.118.042-1.578.563-2.125-.674-.938-2.142-1.62-1.852-2.133-2.518-2.816-3.618-4.241-8.004-6.391-11.707-.393-3.55-.197-2.552 2.133-3.687 2.5-1.212 3.43-1.604 3.251-4.779 2.424.504 6.613-1.826 8.252-3.464.734-.725 1.16-3.285 2.918-4.01 1.058-2.032.709-7.834-.819-9.413-.264-.273-1.229-.051-1.613-.47-.418-.452-.136-1.407-.384-1.689-.4-.452-2.33 0-3.422-.333-7.628-2.346-21.725-7.936-29.2-11.315-5.24-2.372-2.578-1.126-7.058-1.476-6.912-.538-7.202-4.113-11.392-6.759-.87-.554-1.954-.392-2.107-.512-14.848-10.99-25.276-25.924-42.249-37.12-7.287-4.812-15.454-8.234-22.775-12.92zm196.924 29.594c8.55-10.863-4.224-18.244-12.493-22.699-.844-.452-1.373-1.715-2.141-2.124-1.178-.623-13.987-4.557-15.488-4.754-8.022-1.04-15.676-.29-16.547 8.986-.716 7.663 1.408 11.716 2.15 18.168.393 3.396-.247 7.133.052 10.598.205 2.38 1.766 5.393 1.178 8.405 4.155 4.489 6.17 8.679 12.62 5.41 1.929-.98 4.088-3.592 5.35-4.232 6.247-3.192 7.263-4.275 12.86-8.448 4.924-3.678 6.554-4.156 10.89-8.875.298-.324 1.33-.11 1.586-.435zm-74.24 25.609 9.89.025 4.839-5.888c.495-1.527-.845-2.748-.956-4.113-.503-5.811-.47-12.433-1.11-18.056-.298-2.603-3.652-15.685-4.778-17.588-3.08-5.17-8.175-6.203-13.875-5.359-2.057.308-3.687 3.055-6.793 2.313l-.298 1.724c-7.28 4.172-17.4 10.53-21.64 17.314-2.936 4.693-3.372 7.057-.419 12.083 2.33 3.96 9.13 6.93 13.61 7.228l.717 2.022c6.853.213 13.33 6.136 20.608 6.503l.214 1.8zm97.775 37.222c.393-.393.359-1.57 1.238-2.44 1.382-1.366 3.387-1.127 4.104-4.455 1.067-4.966.35-19.08-1.075-24.124-.691-2.449-3.405-6.041-3.917-7.8-.674-2.312.606-3.413-1.732-5.725-3.994-3.942-10.18-5.214-15.335-2.944l-.315 1.69c-9.566 4.317-16.154 11.86-25.2 17.476-1.407 4.121-6.954 5.999-6.519 10.803 1.289 1.22 1.971 3.31 3.064 4.454 2.568 2.688 16.648 7.399 21.043 8.79 5.077 1.604 14.302 4.59 19.166 5.376 1.519.247 4.429-.06 5.47-1.101zm-22.289 14.182c-8.712.512-18.918-7.526-27.093-8.652-4.54-.632-8.986-.692-11.7 3.217-2.363 3.413-.802 3.225-.588 5.853.384 4.651 1.732 6.486 2.159 9.558.827 5.905-.384 6.57 1.92 12.988 1.04 2.892 1.57 6.638 2.551 9.164.367.93 3.926 7.68 4.25 7.996 2.09 1.988 9.105 2.995 11.904 2.176 7.594-3.686 13.192-8.209 19.328-13.73.845-.76 4.096-2.833 4.531-3.38 1.374-1.723 5.606-8.464 6.204-10.359 2.287-7.313-6.87-11.648-12.75-12.783l-.724-2.048z"/><path fill="#b6e5a1" d="M1011.925 505.856c-.606 11.682.802 24.115.043 35.712-.657 10.035-3.874 22.835-6.699 32.7-21.563 75.144-93.457 126.976-170.777 130.73-10.249.495-20.873-2.005-30.43-1.109-.376.034-.794-.085-1.067 0-1.886-2.287-.52-3.925 0-6.391 1.545-1.613 2.552-6.221 3.2-8.517 1.98 3.687 8.55 1.903 12.237 2.15 86.502 5.863 168.994-59.639 179.618-146.431 3.209-26.206-.657-49.349-7.381-74.437l-2.023-.716c-42.76-121.216-214.314-144.564-293.794-43.495-2.022 4.344-12.834 16.666-12.365 20.65.623.539 1.528 1.238 2.194 1.665l-12.493-5.086-2.424-1.826c6.016-11.128 13.073-20.326 21.36-29.798 26.41-30.174 67.669-54.05 108.68-60.169 98.67-14.737 193.126 45.346 211.038 145.348.52 2.927.239 5.521 1.083 9.029z"/><path fill="#e5efd5" d="M749.696 498.398c.162.12 1.237-.043 2.108.512 4.19 2.645 4.48 6.22 11.392 6.758 4.471.35 1.817-.896 7.057 1.477 7.475 3.379 21.572 8.968 29.2 11.315 1.093.333 3.022-.12 3.423.333.247.281-.034 1.237.384 1.69.384.417 1.348.195 1.613.468 1.527 1.58 1.877 7.382.819 9.413-1.758.725-2.185 3.285-2.919 4.01-1.638 1.639-5.828 3.977-8.251 3.465.179 3.174-.76 3.567-3.252 4.779-2.33 1.135-2.525.136-2.133 3.686-1.519-2.62-4.463-5.154-5.333-8.516.426.17 1.382-.35 2.005.128l1.195 2.005.674-2.184c1.408-1.042 5.734-3.5 6.596-4.395.282-.29 2.39-5.171 2.38-5.675l-2.354-4.616c-2.236.341-3.533-1.75-4.796-2.134-5.538-1.655-11.221-4.514-16.913-5.461-4.36-.725-5.436-.81-3.704 3.166l-19.182-19.166v-1.067z"/><path fill="#e4efd5" d="M795.537 558.02c.512.657 1.195.376 2.133 2.518.547 1.245 1.007.716 2.125.674l3.183-4.779c5.93-4.139 9.267-8.78 17.476-6.792 2.27 1.467 3.806 3.421 4.702 5.947 2.944 8.303 3.96 19.021 5.581 27.435.964 5.009 3.695 9.105.947 14.31l-3.089.094v4.25c-5.137-.29-10.59 2.799-15.488.085-2.526 1.715-1.519 5.444-1.578 8.423-1.212-1.042-1.613-4.387-1.903-6.085-.248-1.416-.043-2.799-.265-3.993-2.74-14.6-8.533-28.322-13.824-42.095zm24.414 2.227c-2.859-.802-3.422-2.653-6.827-2.244-4.454.538-5.64 5.709-10.07 5.402.479 2.423-1.305 4.71-1.168 6.818.213 3.26 3.234 7.236 4.096 9.83.887 2.663 1.57 10.146 3.38 11.589 3.028-.043 8.097 1.45 10.487-.87.435-.419.05-1.938 2.38-2.467-.46-4.796.461-10.12-.076-14.814-.487-4.198-3.132-8.465-2.202-13.235z"/><path fill="#ecf6e2" d="M768.887 518.63c-1.732-3.985-.657-3.89 3.704-3.165 5.692.947 11.375 3.805 16.913 5.46 1.271.376 2.569 2.476 4.796 2.134l2.355 4.617c0 .503-2.1 5.384-2.38 5.674-.863.896-5.198 3.354-6.597 4.395l-.674 2.185-1.195-2.006c-.623-.47-1.579.043-2.005-.128-1.954-.76-11.486-16.879-14.925-19.166z"/><path fill="#b6e5a1" d="m806.195 687.915.111-2.535.947-.665c-.384 2.056-.716 2.218-1.066 3.191z"/><path fill="#e5efd5" d="m882.85 554.965.725 2.048c5.88 1.135 15.036 5.47 12.75 12.783-.59 1.895-4.83 8.645-6.204 10.36-.436.546-3.687 2.62-4.532 3.379-6.135 5.521-11.733 10.044-19.328 13.73-2.807.82-9.813-.18-11.904-2.176-.324-.316-3.89-7.057-4.25-7.996-.98-2.526-1.51-6.272-2.55-9.164-2.305-6.418-1.093-7.083-1.92-12.988-.427-3.072-1.776-4.907-2.16-9.558-.213-2.628-1.775-2.44.59-5.853 2.713-3.917 7.159-3.849 11.698-3.217 8.167 1.134 18.381 9.164 27.094 8.652zm-27.99-2.133c-4.095.64-5.93 5.06-4.803 8.764.281.921 1.561 1.51 1.834 2.423.563 1.912-.264 4.173.299 6.093.375 1.271 3.831 9.02 4.66 10.249 2.824 4.206 7.756 5.563 12.645 4.138 1.332-.384 2.543-2.68 3.875-3.584.861-.589 2.227-.512 3.174-1.092 3.96-2.44 9.463-12.587 4.3-15.983-.844-.555-2.167-.503-3.174-1.084-4.36-2.517-9.173-5.657-13.866-7.45-1.101-.417-8.474-2.56-8.935-2.483zm50.28-12.05c-1.042 1.042-3.943 1.34-5.47 1.102-4.873-.785-14.098-3.763-19.167-5.376-4.394-1.391-18.483-6.102-21.043-8.79-1.092-1.143-1.766-3.234-3.063-4.454-.444-4.804 5.103-6.682 6.52-10.803 9.053-5.615 15.632-13.159 25.198-17.476l.316-1.69c5.154-2.27 11.34-.998 15.334 2.944 2.338 2.304 1.058 3.413 1.733 5.726.512 1.758 3.225 5.35 3.916 7.8 1.417 5.034 2.142 19.157 1.076 24.123-.717 3.328-2.723 3.09-4.105 4.454-.879.87-.845 2.048-1.237 2.44zm-5.334-11.698c2.876-2.936.58-14.183.051-18.296l-5.845-6.937c-2.176-.034-5.197-.58-7.194 0-1.323.384-2.543 2.67-3.874 3.584-.879.597-2.295.486-3.174 1.092-2.944 2.005-3.286 4.932-8.5 3.755.41 3.831-3.268 5.324-5.341 8.012-.282.973 4.266 5.829 5.282 6.34 1.246.632 2.568.316 3.55.709 3.976 1.604 3.865 1.152 7.637 1.954 4.258.905 9.293 3.26 13.721 1.954.205-.06 3.542-2.014 3.695-2.167z"/><path fill="#e4efd5" d="m807.364 503.56-.213-1.8c-7.279-.367-13.747-6.28-20.608-6.502l-.717-2.023c-4.48-.298-11.28-3.268-13.61-7.228-2.953-5.017-2.51-7.39.418-12.083 4.24-6.784 14.361-13.15 21.64-17.314l.299-1.724c3.106.743 4.736-2.005 6.792-2.312 5.7-.845 10.795.188 13.876 5.359 1.126 1.894 4.48 14.984 4.778 17.587.64 5.623.606 12.237 1.11 18.057.119 1.365 1.459 2.585.955 4.113l-4.838 5.888-9.89-.026zm2.304-34.124c-.614-.538-.426-1.8-1.988-2.867-3.03-2.066-9.13-1.161-12.501.068-1.434.52-7.493 4.88-8.662 6.255-.725.853-3.464 5.06-3.481 5.794l2.995 7.902c7.543.529 17.604 12.757 24.806 10.59 1.11-.333 2.057-2.185 3.78-2.074l-.904-16.35-2.244-1.169.11-7.339c-.136-.947-1.407-.375-1.902-.81zm71.936 8.516c-.256.324-1.288.11-1.587.435-4.335 4.728-5.956 5.197-10.888 8.875-5.598 4.181-6.614 5.256-12.86 8.448-1.263.648-3.422 3.26-5.35 4.232-6.452 3.269-8.466-.921-12.621-5.41.588-3.012-.973-6.024-1.178-8.405-.29-3.465.341-7.202-.051-10.598-.743-6.452-2.867-10.505-2.15-18.168.87-9.276 8.524-10.035 16.546-8.986 1.501.197 14.318 4.13 15.488 4.754.759.4 1.297 1.672 2.141 2.124 8.27 4.446 21.044 11.836 12.493 22.699zm-10.538-11.34c-.18-.24-1.681-.427-2.535-1.17-1.1-.964-2.73-3.336-3.678-3.806-1.647-.81-3.191-.23-4.659-.665-.896-.265-1.485-1.46-2.5-1.767-1.45-.443-4.89-1.357-6.195-1.357-.802 0-5.376 1.11-5.7 1.366-.265.213-.103 2.073-2.347 2.509.589 9.762-1.263 19.831 1.595 29.277 1.28 1.946 6.452 1.622 8.414.828s3.311-3.695 4.984-4.625c1.04-.58 2.526-.299 3.02-.683.265-.196.444-1.672 1.178-2.517 1.494-1.715 8.303-7.006 8.457-7.552.571-2.065 1.194-8.226-.034-9.839"/><path fill="#edf7e4" d="M819.95 560.247c-.93 4.77 1.725 9.037 2.203 13.236.537 4.693-.376 10.026.076 14.814-2.338.537-1.954 2.048-2.38 2.466-2.381 2.312-7.459.827-10.488.87-1.809-1.434-2.492-8.917-3.38-11.588-.87-2.594-3.882-6.58-4.095-9.83-.137-2.108 1.647-4.387 1.169-6.819 4.437.307 5.615-4.855 10.07-5.401 3.404-.41 3.967 1.442 6.826 2.244z"/><path fill="#eef6e5" d="M854.86 552.832c.462-.068 7.834 2.065 8.935 2.483 4.685 1.784 9.506 4.932 13.867 7.45 1.007.58 2.338.529 3.174 1.084 5.163 3.396-.35 13.542-4.3 15.982-.948.58-2.305.504-3.175 1.093-1.331.904-2.551 3.191-3.874 3.584-4.89 1.416-9.822.068-12.646-4.139-.828-1.229-4.284-8.977-4.66-10.248-.563-1.912.265-4.182-.298-6.093-.273-.913-1.553-1.502-1.835-2.424-1.126-3.703.708-8.123 4.804-8.763z"/><path fill="#edf6e5" d="M899.806 529.084c-.154.153-3.49 2.107-3.695 2.167-4.429 1.306-9.464-1.05-13.722-1.954-3.771-.802-3.66-.35-7.637-1.954-.981-.401-2.304-.077-3.55-.708-1.015-.512-5.564-5.376-5.282-6.34 2.074-2.689 5.751-4.182 5.342-8.013 5.214 1.186 5.555-1.75 8.5-3.755.878-.597 2.295-.486 3.173-1.092 1.332-.905 2.552-3.2 3.875-3.584 1.996-.58 5.017-.043 7.193 0l5.846 6.937c.537 4.113 2.824 15.36-.052 18.296z"/><path fill="#eef6e5" d="M809.668 469.436c.495.435 1.767-.137 1.903.81l-.11 7.34 2.244 1.168.904 16.35c-1.724-.11-2.67 1.74-3.78 2.074-7.202 2.167-17.263-10.053-24.807-10.59l-2.995-7.902c.017-.734 2.756-4.94 3.482-5.794 1.169-1.374 7.219-5.735 8.661-6.255 3.37-1.229 9.472-2.125 12.501-.068 1.562 1.066 1.374 2.33 1.989 2.867zm61.398-2.825c1.237 1.622.614 7.783.034 9.84-.154.545-6.963 5.836-8.457 7.551-.734.845-.913 2.321-1.177 2.517-.495.376-1.98.103-3.021.683-1.673.93-2.953 3.797-4.984 4.625s-7.134 1.127-8.414-.828c-2.85-9.446-.998-19.515-1.595-29.277 2.244-.444 2.082-2.296 2.346-2.51.325-.264 4.89-1.365 5.7-1.365 1.306 0 4.745.914 6.196 1.357 1.015.307 1.596 1.502 2.5 1.767 1.476.435 3.012-.145 4.66.665.947.47 2.576 2.842 3.677 3.806.854.743 2.347.93 2.535 1.17"/><path fill="#5d8968" d="m749.696 499.465 19.183 19.165c3.439 2.287 12.97 18.407 14.925 19.166.87 3.362 3.814 5.905 5.333 8.517 2.15 3.712 3.584 8.09 6.392 11.707 5.282 13.773 11.084 27.495 13.824 42.095.221 1.195.017 2.577.264 3.994.299 1.698.7 5.034 1.903 6.084-.282 13.67 1.911 27.93 1.11 42.104-.598 10.598-3.431 22.016-5.377 32.426l-.947.666-.11 2.534c-.112.307.093.726 0 1.067-.65 2.304-1.648 6.903-3.2 8.516-.265.282-1.238.35-1.63.99-1.195 1.92-.854 5.257 1.109 6.46.324.042.426-1.033.529-1.058.273-.086.69.034 1.066 0l-1.126 2.824.06 2.509-4.182-1.016-.34 1.818c-2.843.256-1.622 1.365-1.87 3.448-.853 7.048-14.029 28.288-18.705 35.089-55.185 80.281-166.306 109.013-253.141 61.243-.802-.435-.922-1.51-1.041-1.578-1.255-1.963-1.903-2.868 1.143-1.596 1.963.82 7.441 1.22 9.83 1.818 21.658 5.41 39.433 6.306 62.072 4.061 14.925-1.476 30.106-3.814 44.519-8.772 25.207-8.67 51.328-23.697 71.074-40.806a188.5 188.5 0 0 0 18.218-18.031c1.51-1.715.29-3.337 4.13-2.748 1.17-5.359 6.947-10.3 10.164-14.882 23.483-33.485 38.16-72.593 40.064-114.364 1.228-27.033-6.861-61.798-18.714-85.743-.794-1.604-4.386-5.973-4.616-7.1-1.05-5.094-.811-3.148-4.48-7.27-2.663-2.978-2.825-5.06-4.78-7.979-1.143-1.706-3.438-3.14-4.77-4.82l2.134-.53z"/><path fill="#b7e5a2" d="M751.83 550.57c.23.29 1.254.444 1.996 1.707 1.664 2.842.888 6.853 3.968 8.892 3.123-1.579 4.796-.794 7.893.051l-1.058-7.45 3.192 4.259c41.881 141.798-100.736 282.897-243.072 239.053-47.966-14.78-99.268-61.654-108.698-112.35-.418-2.27-.563-5.086-1.066-7.45l8.516 2.125c1.937-4.736.392-8.858 0-13.833l6.622 22.665c8.9 25.515 23.44 46.618 42.922 64.657 5.94 5.504 12.084 9.105 18.688 14.336 84.617 52.804 192.009 16.102 242.475-63.351.572-.896.546-2.176 1.126-3.132 1.92-3.115 4.702-5.547 4.967-9.48l1.698-.308c16.666-34.304 23.68-71.142 18.312-108.954l-8.507-31.428z"/><path fill="#b3e49e" d="m767.82 558.02-3.19-4.258 1.057 7.45c-3.097-.845-4.77-1.63-7.893-.051-3.08-2.04-2.295-6.05-3.968-8.892-.742-1.263-1.766-1.417-1.997-1.707-3.131-3.968-2.935-6.647-4.778-10.658-13.662-29.67-40.756-58.13-71.817-70.468l-.82-1.929c-115.293-51.644-245.682 36.267-253.072 159.138-.794 13.142 1.186 26.027 2.176 38.904.384 4.983 1.928 9.096 0 13.832l-8.516-2.124c.503 2.372.64 5.188 1.066 7.45l-5.307-20.78c-13.662-92.313 44.697-182.203 131.848-213.222 85.444-30.404 183.8 4.574 219.375 90.249 2.236 5.393 4.514 11.375 5.845 17.058z"/><path fill="#6b967a" d="M802.995 703.88c-.094.035-.196 1.101-.529 1.059-1.954-1.204-2.304-4.532-1.11-6.46.402-.64 1.366-.708 1.63-.99-.52 2.458-1.885 4.105 0 6.392z"/><path fill="#eef6e5" d="M423.518 665.557c-.99-12.876-2.97-25.762-2.176-38.903 7.39-122.863 137.78-210.782 253.073-159.138l.82 1.928c31.06 12.34 58.154 40.798 71.816 70.469 1.851 4.019 1.655 6.69 4.778 10.658l8.508 31.428c5.359 37.811-1.647 74.65-18.312 108.954l-1.699.307c-.264 3.934-3.037 6.357-4.966 9.48-.589.956-.563 2.236-1.126 3.132-50.467 79.454-157.859 116.147-242.475 63.351-6.605-5.23-12.749-8.832-18.688-14.336-19.482-18.048-34.022-39.142-42.923-64.657l-6.622-22.664zm166.195-123.366c-1.434-1.818-13.448 1.997-16.324 1.954l-1.22 2.227c-4.933-.887-12.604 3.473-16.248 6.614-1.647 1.425-.418.776-3.405 2.363-1.647.87-2.645 3.883-5.248 3.832l-.247 4.07-2.04.683v7.339c2.484.58 2.1 2.27 3.234 3.242 2.663 2.287 6.69 4.122 9.396 6.136.324.239.11 1.356.435 1.587 4.915 3.499 11.52 5.794 14.635 9.37 3.464 3.985 10.538 5.41 15.377 3.532 1.075-.418 4.497-5.623 4.778-6.937 1.562-7.28.837-14.84 1.195-22.23.085-1.706 1.007-2.978 1.092-4.232.248-3.687.051-14.362-2.611-16.538-.802-.657-2.074-.802-2.483-1.288-.384-.444-.068-1.417-.307-1.716zm51.046 10.786c-.418-.486-10.316-6.596-10.956-6.69-3.098-.452-12.433-.734-13.901 2.133-.333 3.994-3.106 7.458-3.695 11.213-1.374 8.704-1.536 18.74-2.168 27.648-.076 1.11-.98 2.159-1.083 3.26-.273 3.14 2.995 7.953 6.05 8.857 2.005.59 4.992.103 7.15 0 6.341-3.669 12.87-7.27 19.55-10.29 3.542-1.597 7.237-3.21 10.693-5.291 2.056-1.238 3.183-3.183 5.53-3.533.264-4.924 1.851-6.81-.478-11.563-1.357-2.773-9.029-10.94-11.631-12.868-2.56-1.895-2.458.17-5.06-2.867zm-125.738 78.618c-.077 5.913 3.737 7.97 8.311 10.402 4.403-.342 10.172-2.535 14.191-4.72 5.675-3.071 5.325-3.959 12.169-5.947 1.135-.333 12.27-7.543 14.515-8.917 4.608-2.833 5.359-7.45 2.167-11.716-4.471-5.982-14.02-10.112-20.224-13.867-2.747-1.664-10.043-7.629-12.288-7.953-2.824-.41-6.528.196-9.48.153-1.408.401-4.344 5.018-5.137 6.58-4.233 8.32-4.147 16.768-5.146 25.736-.324 2.884-1.834 6.119-1.11 9.54l2.023.7zm151.347-30.797c-3.26-3.166-14.788-.359-18.697 1.707-2.585 1.365-3.524 3.985-7.031 3.626-4.924 4.054-22.989 10.402-24.064 16.504l2.142 8.73c4.386-.154 8.363 6.493 11.58 8.123 1.348.683 2.91.341 4.275 1.058 6.408 3.38 9.199 6 16.375 8.132.973.29 1.52 1.553 2.424 1.844 3.25 1.05 3.771-1.383 5.35-1.844 1.468-.435 3.004.154 4.668-.665 3.02-1.476 2.551-4.267 3.37-6.212.427-.999 1.4-1.588 1.724-2.535 2.825-8.252 3.943-26.283.435-34.09-.256-.572-2.372-4.19-2.551-4.37zm-93.713 92.34c-1.34-4.003 1.92-6.674 2.253-8.935 1.203-8.133 1.869-19.712 1.058-27.725-.444-4.429 1.143-8.397-3.243-11.665-3.507-2.62-9.941-1.408-13.892-.077-2.5.845-6.963 5.12-9.165 5.751-6.681 1.912-6.596 1.417-11.144 6.392-.384.427-2.688-.102-4.182.657-.222.11-3.84 2.74-4.01 2.91-.461.46-3.371 5.06-3.448 5.606-.17 1.22-.153 7.638.137 7.902.375.35 1.903.145 2.594 1.11.606.853.426 2.32 1.04 3.242 2.945 4.42 11.53 11.17 16.36 13.005l.28 1.732c2.953-.606 4.259 1.528 5.966 2.082 3.396 1.11 6.903 1.622 10.41 2.407l8.994-4.403zm34.108-46.593-8.329-.017c.307 2.398-1.707 1.877-2.773 3.02s-2.45 7.263-2.637 9.106c-.742 7.398-.922 24.687 0 31.897.137 1.101 1.024 3.892 1.579 4.805 1.186 1.962 3.695 1.587 4.326 4.31 3.405-.573 8.422.699 11.512-.206.836-.247 1.493-1.374 2.5-1.758 9.788-3.771 17.92-7.714 25.958-14.575.58-.494 1.698-.392 1.954-.665.393-.418-.076-2.321.273-3.43s1.758-1.605 2.014-3.354c.606-4.147-5.418-10.274-8.593-12.775-7.057-5.546-18.978-12.748-27.588-14.549l-.196-1.817z"/><path fill="#e5efd6" d="m515.02 631.595-2.022-.7c-.733-3.422.785-6.665 1.11-9.54.998-8.969.913-17.417 5.145-25.737.794-1.561 3.73-6.178 5.137-6.58 2.953.044 6.665-.562 9.48-.153 2.245.325 9.541 6.298 12.289 7.953 6.204 3.755 15.752 7.885 20.224 13.867 3.191 4.267 2.44 8.892-2.168 11.716-2.252 1.383-13.38 8.593-14.515 8.918-6.843 1.988-6.494 2.875-12.168 5.947-4.02 2.176-9.788 4.378-14.191 4.72-4.566-2.441-8.38-4.49-8.312-10.403zm35.252-25.524c-.41-.503-3.209.128-4.574-.273-1.135-.324-1.8-1.894-2.816-2.508-3.678-2.236-6.741-3.345-11.196-2.714-1.484.213-5.273 3.601-5.683 4.966-1.237 4.096-1.732 12.63-1.194 16.87.469 3.738 2.338 6.674 6.007 7.851 2.295-1.186 5.111-.486 7.15-1.066.829-.23 1.486-1.374 2.501-1.758 4.915-1.894 19.482-6.46 17.246-13.389-.068-.205-2.082-3.49-2.227-3.644-.802-.785-4.216-1.843-4.89-2.628-.384-.444-.068-1.416-.307-1.707z"/><path fill="#e4efd5" d="m572.655 693.137-8.994 4.403c-3.499-.776-7.006-1.288-10.41-2.406-1.708-.555-3.013-2.688-5.966-2.082l-.281-1.733c-4.83-1.843-13.406-8.584-16.359-13.004-.614-.922-.435-2.39-1.04-3.243-.692-.973-2.22-.768-2.595-1.11-.29-.272-.307-6.69-.136-7.901.076-.546 2.986-5.146 3.447-5.607.18-.179 3.789-2.799 4.01-2.91 1.494-.759 3.798-.23 4.182-.657 4.548-4.974 4.463-4.48 11.145-6.391 2.201-.631 6.664-4.907 9.164-5.751 3.951-1.323 10.385-2.535 13.893.076 4.386 3.269 2.799 7.237 3.242 11.665.802 8.013.145 19.601-1.058 27.725-.333 2.253-3.592 4.924-2.253 8.935zm-4.233-42.42c-3.114-1.501-5.111-.545-8.14.786-4.933 2.167-12.254 6.408-15.796 9.745-11.161 10.513-4.104 12.783 4.788 20.838l5.836.444 1.178 2.244c7.16.99 9.378-1.715 10.931-8.243 1.246-5.214 2.816-14.83 2.313-20.002-.17-1.75-1.528-3.66-1.11-5.811"/><path fill="#e5efd5" d="m606.763 646.545.196 1.818c8.61 1.8 20.54 9.002 27.588 14.549 3.175 2.492 9.2 8.627 8.593 12.774-.256 1.75-1.655 2.228-2.014 3.354s.12 3.004-.273 3.43c-.256.273-1.374.171-1.954.666-8.047 6.86-16.17 10.803-25.958 14.575-1.007.392-1.673 1.51-2.5 1.758-3.09.913-8.107-.367-11.512.205-.631-2.723-3.14-2.347-4.326-4.31-.555-.913-1.442-3.703-1.579-4.804-.913-7.21-.734-24.5 0-31.898.188-1.843 1.57-7.961 2.637-9.105s3.072-.623 2.773-3.02l8.329.017zm3.413 10.368c-.307-.29-.205-1.698-1.143-2.56-3.567-3.277-7.962.068-8.568 4.275-.623 4.327-.597 17.989 0 22.358.435 3.2 3.439 5.785 5.82 7.73 3.234-.955 6.067-.938 9.395-2.107 2.193-.768 7.296-3.336 9.276-4.574 2.295-1.433 3.473-4.531 5.248-6.52.298-1.348-2.936-7.32-4.147-8.379-1.152-.998-3.482-1.17-4.08-1.792-1.399-1.468-6.323-6.98-7.577-7.842-1.365-.939-3.703-.094-4.224-.597z"/><path fill="#e5efd7" d="M589.713 542.19c.239.3-.077 1.264.307 1.716.41.487 1.69.632 2.483 1.289 2.663 2.176 2.86 12.85 2.612 16.537-.086 1.263-1.007 2.526-1.093 4.233-.35 7.398.376 14.959-1.194 22.23-.282 1.313-3.704 6.519-4.779 6.937-4.83 1.886-11.904.452-15.377-3.533-3.115-3.576-9.72-5.862-14.635-9.37-.324-.23-.11-1.34-.435-1.587-2.705-2.014-6.733-3.848-9.395-6.135-1.135-.973-.751-2.663-3.234-3.243v-7.339l2.03-.682.248-4.07c2.594.05 3.601-2.962 5.248-3.832 2.987-1.587 1.758-.939 3.405-2.364 3.644-3.14 11.307-7.5 16.247-6.613l1.22-2.227c2.876.042 14.891-3.764 16.325-1.955zm-8.525 10.65c-2.952-1.416-4.394 1.374-5.93 1.827-1.263.375-2.671-.043-3.943.324-.41.12-6.622 3.678-7.475 4.241-6.067 4.045-7.33 8.363-2.833 14.25 4.608 6.034 12.996 9.08 16.862 13.569.426.495-.145 1.775.802 1.903l4.634-.154c.017-2.313 2.389-3.106 3.114-4.873 3.115-7.517.862-21.188-.938-29.047l-4.122-.205-.188-1.834z"/><path fill="#e4efd5" d="M666.368 600.798c.18.18 2.295 3.797 2.551 4.369 3.508 7.808 2.39 25.839-.435 34.09-.324.948-1.305 1.528-1.723 2.535-.82 1.946-.35 4.736-3.371 6.212-1.656.81-3.2.23-4.668.666-1.579.47-2.1 2.901-5.35 1.843-.905-.29-1.45-1.562-2.424-1.843-7.176-2.125-9.967-4.753-16.375-8.132-1.357-.717-2.919-.376-4.275-1.059-3.217-1.63-7.203-8.277-11.58-8.123l-2.142-8.73c1.075-6.101 19.14-12.45 24.064-16.503 3.507.367 4.454-2.262 7.031-3.627 3.909-2.065 15.437-4.864 18.697-1.707zm-8.44 9.489c-.264-.29-5.597-.222-6.8-.077-5.522.683-17.98 6.161-21.36 9.506-2.022 2.006-4.59 3.627-3.583 6.835.102.316 2.824 4.267 3.046 4.42 1.937 1.315 11.127 5.752 13.55 6.69 1.733.666 9.02 2.62 10.31 2.211.323-.102 4.283-2.825 4.436-3.046.53-.777 3.602-7.22 3.704-8.013.307-2.27.41-11.904-.128-13.713-.444-1.468-3.311-2.552-3.166-4.822z"/><path fill="#e5f0d6" d="M640.76 552.977c2.602 3.038 2.5.981 5.06 2.867 2.61 1.929 10.274 10.087 11.63 12.869 2.33 4.753.743 6.638.479 11.562-2.347.342-3.474 2.287-5.53 3.533-3.456 2.082-7.151 3.695-10.692 5.29-6.682 3.021-13.201 6.623-19.55 10.292-2.16.102-5.146.589-7.151 0-3.055-.896-6.332-5.709-6.05-8.858.094-1.1.998-2.15 1.083-3.26.632-8.9.794-18.943 2.168-27.647.589-3.755 3.362-7.22 3.695-11.213 1.46-2.867 10.803-2.586 13.9-2.134.632.094 10.54 6.204 10.957 6.69zm.435 27.69c1.672-1.458 4.667-1.894 5.128-5.051.555-3.797-.41-6.17-2.739-9.028-1.289-1.579-10.35-9.054-11.827-9.48-1.732-.496-6.323-.436-7.868.35-.572.29-3.942 3.83-4.104 4.42-.376 1.33.102 2.84-.163 4.095-.768 3.661-1.459 9.942-2.252 12.655-.3 1.016-1.733 1.52-2.006 3.311-.776 5.069 2.483 10.829 7.817 9.959 1.706-.273 6.937-2.987 8.618-4.02.922-.571 3.525-3.439 6.016-4.82 2.834-1.58 1.741-.974 3.371-2.399z"/><path fill="#eef6e5" d="M550.272 606.071c.239.29-.077 1.263.307 1.707.683.785 4.096 1.843 4.89 2.628.153.154 2.167 3.44 2.227 3.644 2.236 6.93-12.33 11.495-17.246 13.389-1.015.392-1.68 1.527-2.5 1.758-2.031.58-4.856-.12-7.151 1.066-3.67-1.186-5.53-4.113-6.008-7.85-.537-4.241-.042-12.775 1.195-16.87.41-1.357 4.199-4.754 5.683-4.967 4.455-.64 7.518.47 11.196 2.714 1.016.614 1.681 2.184 2.816 2.508 1.365.393 4.156-.239 4.574.273zm18.15 44.647c-.418 2.142.948 4.062 1.11 5.811.503 5.171-1.067 14.788-2.313 20.002-1.561 6.537-3.78 9.233-10.931 8.243l-1.178-2.244-5.836-.444c-8.892-8.047-15.95-10.325-4.788-20.838 3.542-3.337 10.863-7.578 15.796-9.745 3.02-1.331 5.017-2.278 8.14-.785m41.754 6.195c.52.504 2.867-.341 4.224.597 1.254.862 6.178 6.375 7.578 7.843.597.622 2.927.793 4.079 1.792 1.22 1.058 4.445 7.031 4.147 8.38-1.775 1.979-2.953 5.085-5.248 6.519-1.98 1.237-7.083 3.806-9.276 4.574-3.328 1.169-6.161 1.143-9.395 2.107-2.381-1.945-5.385-4.522-5.82-7.73-.597-4.361-.623-18.032 0-22.358.606-4.207 5-7.56 8.568-4.275.938.861.836 2.26 1.143 2.56zm-28.988-104.072.188 1.834 4.122.205c1.792 7.86 4.053 21.521.938 29.047-.734 1.767-3.097 2.56-3.114 4.873l-4.634.154c-.947-.137-.384-1.417-.802-1.903-3.874-4.489-12.254-7.535-16.862-13.568-4.497-5.88-3.234-10.198 2.833-14.251.853-.572 7.066-4.13 7.475-4.241 1.263-.358 2.68.051 3.943-.324 1.536-.453 2.978-3.243 5.93-1.826zm76.74 57.446c-.145 2.27 2.723 3.354 3.166 4.821.538 1.8.444 11.443.128 13.713-.11.794-3.174 7.237-3.703 8.013-.154.222-4.113 2.944-4.437 3.047-1.289.4-8.576-1.545-10.309-2.21-2.423-.94-11.614-5.377-13.55-6.69-.222-.154-2.945-4.097-3.047-4.421-1.007-3.209 1.562-4.83 3.584-6.835 3.388-3.354 15.846-8.824 21.359-9.506 1.212-.154 6.536-.214 6.801.076z"/><path fill="#edf6e5" d="M641.195 580.668c-1.63 1.425-.538.819-3.371 2.398-2.492 1.382-5.094 4.258-6.016 4.82-1.681 1.033-6.912 3.747-8.619 4.02-5.333.87-8.593-4.89-7.816-9.958.273-1.792 1.715-2.304 2.005-3.311.794-2.722 1.485-8.994 2.253-12.655.264-1.255-.213-2.765.162-4.096.162-.589 3.533-4.13 4.105-4.42 1.553-.785 6.135-.854 7.867-.35 1.485.426 10.548 7.893 11.828 9.48 2.32 2.859 3.293 5.231 2.739 9.029-.461 3.157-3.456 3.592-5.129 5.051z"/></svg>