<svg xmlns="http://www.w3.org/2000/svg" viewBox="0 0 1181 1024"><path fill="#f1e1c6" d="M656.089 11.657v3.836c-60.787-13.044-82.548-4.515-137.974 17.413-18.426 7.29-40.896 14.088-58.84 21.732-101.181 43.148-205.363 85.52-309.594 127.782-23.414 9.494-46.778 18.387-70.517 25.401-4.968 1.466-9.159 9.533-13.999 12.858-3.551 2.45-9.05 1.89-13.615 5.568-1.368 1.102-12.356 15.997-13.094 17.61-2.824 6.178 2.203 5.047 4.909 6.257 10.585 4.761 20.748 7.427 30.654 11.658 172.357 73.606 344.272 147.487 516.836 221.713l7.693 13.27-.03 516.128c7.585-.442 15.475.62 23.03 0-5.292 4.24-19.606 10.015-25.755 10.999-13.369 2.135-75.996-29.05-93.133-35.987-59.696-24.161-137.985-49.788-191.905-82.42-12.907-7.811-12.75-7.447-26.857-11.51-58.692-16.882-134.089-52.898-191.905-78.574-12.209-5.421-85.48-38.25-88.343-42.726L0 234.187c15.071 3.098 24.81-7.743 35.603-12.376 132.327-56.794 269.15-107.478 401.842-162.146 34-14.009 92.888-47.979 125.264-55.062 8.746-1.918 48.431-5.519 56.872-4.388 9.454 1.27 25.972 8.205 36.508 11.442M65.569 464.685c-1.112 11.923.246 24.014-.433 35.986-.473 8.353-4.506 26.503-3.935 34.452.344 4.781 4.682 8.874 4.161 15.337-.325 4.014-3.738 7.772-4.122 11.825-.56 5.913 13.694 30.851 19.35 34.354 3.237 2.006 7.832 1.928 11.314 4.033 16.055 9.74 32.032 19.36 48.717 27.998 11.146 6.365 33.468-14.009 37.836-22.351 9.434-18.023 12.06-69.68 9.473-90.143-1.377-10.88-9.67-25.106-19.144-30.724-8.864-5.253-58.889-26.503-67.86-28.057-15.957-2.764-21.949.197-35.348 7.28zm282.904 299.55c-19.036-6.926-61.496-22.962-62.687 7.102-9.306 21.053-5.086 44.614-5.587 67.212-.118 5.342-4.3 18.849-3.493 22.272 3.1 13.026 63.306 27.379 74.374 39.98l9.395-3.157c3.964-28.44 6.512-61.328 4.18-90.133-.442-5.5-3.088-21.466-4.525-26.159-1.593-5.194-11.136-9.306-11.648-17.108z"/><path fill="#fdf1d7" d="m1028.26 828.76-15.356 1.918c-.65-21.74 4.998-40.777-11.392-57.649-12.032-12.385-29.218-4.328-40.463 5.805-27.555 24.82-8.736 62.686-24.87 92.13-100.148 46.257-201.506 94.777-303.012 140.208-3.68 2.311-7.693 1.406-11.608 1.731-7.556.62-15.446-.433-23.03 0l.029-516.127-7.693-13.272c1.023.443 3.128-.196 5.204.59 3.473 1.319 6.493 6.503 8.224 6.513 1.83 0 4.604-5.45 8.205-6.571 15.396-4.781 11.186-.118 28.254-10.104 10.94-6.394 47.074-20.275 60.227-24.18 27.693-8.206 65.381-30.478 94.373-43.75 44.595-20.403 91.54-44.81 136.617-57.334l.777-6.493c59.292-22.744 115.79-51.953 176.283-71.382 9.277-2.981 13.428-12.593 21.623-16.744 8.283-4.191 18.82-4.958 27.979-4.663l3.482-9.503c.06-1.476-18.574-19.814-21.18-20.561-16.833-4.84-34.246-10.723-51.442-17.62-33.793-13.546-69.287-35.8-103.375-50.084-30.871-12.936-90.517-26.817-111.334-47.89 73.301 20.207 152.475 63.07 222.48 94.049 15.967 7.064 37.08 11.992 52.692 20.207 8.057 4.24 29.375 22.076 31.136 30.25l-.108 493.462c-2.971 10.113-4.22 15.298-13.212 21.318-37.767 25.313-97.374 45.697-139.51 65.756zm49.219-418.822c1.348-7.85 8.274-11.009 11.461-17.285 7.142-14.068 6.995-76.43-1.063-89.592l-7.84-3.926c-11.786-.669-42.352 17.167-51.855 25.195-3.138 2.656-2.863 6.994-4.565 8.736-2.784 2.862-12.012 3.433-14.077 10.88-.64 18.456-6.867 33.606-3.552 52.485 6.63 37.708 45.687 21.298 71.481 13.497zM823.675 652.95c-31.737 16.39-101.398 33.96-112.14 72.051-3.03 10.743-2.607 29.13-1.9 40.63.414 6.7 3.297 33.32 4.566 37.64.314 1.092 9.749 18.72 10.733 19.95 8.598 10.822 27.083 10.832 39.764 8.638 7.801-1.348 41.24-15.091 49.848-19.213 32.248-15.416 37.56-27.457 37.403-62.676-.04-9.002.128-17.689 0-26.543-.315-20.875 2.213-42.528-7.654-61.731l-20.61-8.736z"/><path fill="#f8e9c6" d="M936.18 870.964c16.133-29.444-2.686-67.32 24.87-92.13 11.244-10.133 28.43-18.19 40.462-5.805 16.39 16.872 10.743 35.908 11.392 57.65l15.357-1.919c-30.045 14.294-62.145 28.372-92.082 42.194z"/><path fill="#edd9b6" d="M310.774 905.485c-8.834-2.342-21.534-3.896-26.857-11.51 14.108 4.063 13.95 3.699 26.857 11.51"/><path fill="#eed9b5" d="M65.569 464.685c13.399-7.083 19.39-10.044 35.347-7.28 8.972 1.554 58.997 22.804 67.86 28.057 9.474 5.618 17.767 19.843 19.145 30.723 2.597 20.463-.03 72.121-9.474 90.144-4.368 8.342-26.69 28.716-37.836 22.351-16.685-8.637-32.661-18.259-48.717-27.998-3.472-2.105-8.076-2.027-11.313-4.034-5.657-3.502-19.912-28.44-19.35-34.353.383-4.053 3.796-7.811 4.121-11.825.522-6.473-3.817-10.556-4.161-15.337-.58-7.949 3.463-26.1 3.935-34.452.679-11.972-.679-24.073.433-35.986z"/><path fill="#edd9b6" d="M348.473 764.234c.511 7.802 10.054 11.904 11.647 17.108 1.437 4.693 4.083 20.66 4.526 26.159 2.322 28.815-.217 61.702-4.181 90.133l-9.395 3.158c-11.068-12.602-71.275-26.945-74.374-39.98-.816-3.414 3.375-16.931 3.493-22.273.502-22.597-3.719-46.159 5.588-67.212 1.19-30.064 43.65-14.028 62.686-7.102z"/><path fill="#fdf7df" d="M656.089 15.493a248 248 0 0 1 15.347 3.837c20.197 5.716 60.827 22.361 76.734 34.52 4.004 3.07 9.553 6.474 11.51 11.501-14.461 3.03-28.096 12.583-41.013 18.466-3.256 1.485-8.283.324-12.77 2.577-16.556 8.274-2.931 25.322 10.3 28.215 27.399 5.971 75.771-6.434 87.812-34.088 16.469-1.21 30.192 15.12 42.696 18.682 7.752 2.213 19.892 2.262 28.087 4.525 20.817 21.073 80.453 34.954 111.334 47.89 34.087 14.285 69.582 36.538 103.375 50.084 17.196 6.897 34.6 12.78 51.441 17.62 2.617.747 21.24 19.085 21.181 20.56l-3.483 9.504c-9.159-.285-19.695.482-27.978 4.663-8.195 4.142-12.347 13.763-21.624 16.744-60.492 19.44-116.99 48.647-176.282 71.382l-.777 6.493c-45.077 12.534-92.023 36.931-136.617 57.335-28.992 13.27-66.68 35.534-94.373 43.748-13.154 3.896-49.288 17.787-60.227 24.181-17.069 9.976-12.858 5.313-28.254 10.104-3.6 1.121-6.375 6.581-8.205 6.571-1.741 0-4.761-5.194-8.224-6.512-2.076-.787-4.181-.148-5.204-.59C418.31 409.278 246.396 335.396 74.039 261.79c-9.907-4.23-20.07-6.896-30.655-11.658-2.705-1.22-7.722-.078-4.909-6.256.738-1.614 11.727-16.508 13.094-17.61 4.565-3.68 10.064-3.118 13.616-5.568 4.84-3.335 9.021-11.392 13.999-12.858 23.738-7.014 47.103-15.908 70.517-25.401 104.23-42.263 208.413-84.634 309.594-127.783 17.934-7.643 40.413-14.451 58.84-21.731C573.57 10.998 595.32 2.468 656.108 15.513zm-3.04 334.553c-1.515 1.505-10.388 15.12-6.67 18.436 4.81 7.624 26.188 14.796 34.845 15.415 6.267.443 45.392-9.365 52.79-12.366 26.227-10.625 21.348-24.624-1.358-35.553-18.013-8.667-34.461-11.796-52.455-2.912-3.718 1.84-25.371 15.209-27.152 16.98"/><path fill="#f7eed0" d="M874.792 103.728c-8.195-2.263-20.335-2.312-28.087-4.525-12.494-3.561-26.227-19.902-42.696-18.682-12.05 27.654-60.413 40.06-87.811 34.088-13.232-2.883-26.857-19.941-10.3-28.215 4.495-2.243 9.513-1.092 12.769-2.577 12.917-5.883 26.562-15.436 41.013-18.466-1.957-5.027-7.506-8.43-11.51-11.5 17.698 3 36.833 10.605 53.754 17.226 14.314 5.597 65.391 25.086 72.858 32.651z"/><path fill="#f1e1c6" d="M671.436 19.33a248 248 0 0 0-15.347-3.837v-3.836c5.194 1.593 12.917 1.279 15.347 7.673"/><path fill="#faeecf" d="M653.05 350.046c1.78-1.771 23.423-15.14 27.151-16.98 17.994-8.884 34.452-5.755 52.455 2.912 22.706 10.93 27.575 24.919 1.358 35.553-7.398 3-46.523 12.819-52.79 12.366-8.657-.62-30.024-7.791-34.845-15.415-3.718-3.316 5.165-16.931 6.67-18.436"/><path fill="#f6e7c5" d="m823.675 652.95 20.61 8.736c9.867 19.193 7.349 40.846 7.654 61.732.128 8.854-.04 17.55 0 26.542.157 35.229-5.145 47.26-37.403 62.676-8.608 4.122-42.047 17.856-49.848 19.213-12.681 2.194-31.156 2.194-39.764-8.637-.984-1.24-10.418-18.87-10.733-19.951-1.27-4.32-4.152-30.94-4.565-37.64-.708-11.5-1.131-29.887 1.899-40.63 10.743-38.091 80.404-55.652 112.14-72.051z"/><path fill="#f7e8c4" d="M1077.479 409.938c-25.795 7.801-64.85 24.21-71.481-13.498-3.315-18.868 2.902-34.018 3.551-52.484 2.066-7.447 11.294-8.028 14.078-10.88 1.692-1.742 1.417-6.08 4.565-8.736 9.503-8.038 40.079-25.874 51.855-25.195l7.84 3.925c8.057 13.153 8.205 75.515 1.063 89.593-3.188 6.276-10.123 9.444-11.461 17.285z"/></svg>