<svg xmlns="http://www.w3.org/2000/svg" viewBox="0 0 1024 1024"><path fill="#bec6c5" d="M816.944 865.74c-110.857 40.107-222.686 53.462-340.557 49.358-75.861-2.646-149.64-13.048-222.421-34.714-79.284-23.595-167.91-63.89-219.375-130.278C-5.977 697.77-11.745 634.249 21.978 576.11c41.617-59.674 86.827-85.854 151.817-118.972-11.315-55.108-29.662-175.701-4.258-222.336 38.246-70.22 144.05-104.405 218.65-116.753 100.292-16.597 239.581-14.114 334.634 22.101 62.592 23.851 139.298 59.46 142.345 135.604l1.604 40.098c32.077 2.688 49.724-13.875 92.441 1.263 29.432 10.436 50.27 31.778 58.684 61.67 17.203 61.167-3.703 111.445-40.559 158.652-.554 2.534 2.808 10.803 5.453 13.739 40.038 44.33 53.265 111.778 25.216 167.219-19.857 39.245-50.526 69.982-87.014 94.071-32.837 21.675-66.68 39.766-104.039 53.282zM173.078 288.18c-.845 83.25 12.98 168.78 44.646 248.857 18.62 47.095 45.799 86.084 85.206 118.067 3.14 2.551 8.73 10.197 10.666 13.167-2.346-.12-6.05 3.063-7.825 4.6-9.941.076-20.079-6.162-27.306-14.302l-16.41-18.5-15.385-16.735-11.794-16.221c-1.211-1.664-6.792-4.344-7.543-4.48-1.382-6.622-4.045-14.575-7.287-21.172l-5.598-11.383c1.826-10.82-10.795-13.841-13.287-21.376l-5.811-17.562-17.971-54.263c-49.152 18.978-95.761 52.045-128.734 92.245-27.861 33.971-35.994 73.907-24.986 112.29 8.295 28.937 21.36 55.228 45.568 78.507 62.055 59.656 160.58 96.939 245.052 114.876 112.555 23.902 224.649 27.409 338.62 10.393 91.861-13.721 175.403-37.453 253.158-87.09 44.595-28.477 78.9-64.01 94.806-111.984s-.743-95.684-37.223-134.357c-66.44 47.667-97.971 50.705-175.48 62.737-6.058.939-13.508 12.185-15.274 16.896l-40.712 38.332c-55.237 52.01-111.215 68.787-185.268 75.426-59.946 5.376-125.977-4.71-178.807-27.47l3.507-18.738c31.48 19.456 139.136 33.783 170.138 27.776l21.103-4.088c24.533-4.753 73.787-11.409 97.868-24.627 38.17-20.958 68.165-43.443 94.038-76.791l17.553-22.63c67.03-7.553 102.246-9.806 157.815-45.057 32.623-20.693 57.182-50.218 71.33-86.903 1.11-2.867 1.946-9.455 2.765-12.032 14.114-44.809 2.125-99.823-52.65-121.78-17.699-7.09-34.373-5.623-51.072-2.55l-40.55 7.457c-1.87.342-8.022.29-9.678.128-1.655-.162-1.612-5.06-1.766-7.902l-1.297-24.354c-.853-16.077 5.367-36.113-1.587-52.813-64.837-155.613-509.278-174.37-646.776-33.97-19.294 19.694-25.489 44.688-25.745 69.367z"/><path fill="#efefed" d="M201.153 548.702c-13.107.879-30.592 3.6-40.807 11.63l-11.733 9.225c-3.447 2.714-8.883 11.213-8.84 15.514l.179 18.21c.025 2.56.367 9.045 2.124 10.914 1.75 1.869 4.72 2.91 8.739 4.753l24.277 6.759-3.797 16.298c-5.957 25.558-22.819 2.287-43.82 26.65-17.296 20.07-7.124 1.596-20.078 37.043l9.728 19.857c1.929 3.934 10.923 9.011 14.575 9.83 9.515 7.954 44.075.99 48.768-2.585 5.76-4.386 15.616-15.369 21.103-22.46 14.797-19.089 14.37 1.767 54.204-17.493 3.652 1.237 11.656 9.335 9.045 10.172l-13.27 7.902c-16.23 5.47-33.075 19.712-31.445 40.26.862 10.88 8.013 22.033 14.166 28.766 14.063 15.394 30.208 17.612 54.118 7.535 28.16-11.87 9.702-37.948 41.165-36.549 8.234-.307 18.73.82 26.974 3.448l15.53 4.94.043 25.54c.026 16.368 13.926 24.04 24.713 29.04 8.209 3.814 17.015 8.038 28.433 8.943 16.128 1.28 30.566-7.51 33.117-21.334l4.523-3.532-.29-21.667c68.6 5.82 125.773 1.349 195.132-16.119 10.189-2.569 19.754-3.78 28.91-3.857.342 3.729 2.288 8.823 3.935 11.784l7.33 13.21c1.723 3.106 10.897 7.253 13.09 7.16l15.872 5.282c20.71-.308 43.264-4.566 50.935-25.378 8.858.759 9.643-25.114 2.876-36.446-4.02-6.733-14.14-13.543-19.866-13.474l-3.652-4.42c6.332-24.875 16.512-16.41 16.051-53.232l-.367-29.44c1.767-4.71 9.216-15.948 15.275-16.896 77.517-12.032 109.039-15.07 175.48-62.737 36.488 38.665 52.753 87.51 37.222 134.358l-1.596-8.44c-19.046 30.737-43.938 57.344-74.769 80.896-5.657 4.318-13.124 10.24-18.577 13.176l-28.365 15.249c-33.203 17.851-67.405 33.22-103.885 43.494l-42.973 12.1c-12.894 3.627-26.974 7.023-40.696 9.122l-45.56 6.98c-69.691 10.676-153.523 13.16-223.214 4.865l-36.975-4.395c-27.93-3.32-64.094-9.515-89.54-16.614l-44.118-12.322c-40.798-11.392-109.79-42.548-143.838-66.996-20.096-14.43-54.698-42.854-66.159-63.087l-13.627-24.072-3.32 5.342c-11.008-38.392-2.876-78.328 24.986-112.29 32.973-40.2 79.573-73.276 128.734-92.246l17.97 54.264 5.812 17.561zM866.76 699.17c1.22-7.083 2.407-24.32-1.69-30.728-8.635-13.526-23.398-19.875-37.486-22.563-7.877.077-15.83.214-22.665 1.92-12.979 3.243-20.796 16.538-20.787 29.09.009 17.443 9.293 32.88 27.221 35.926 11.597 1.971 27.188 1.596 38.161.794l17.255-14.447z"/><path fill="#fdfdfc" d="M1000.854 686.114c-15.906 47.975-50.21 83.507-94.805 111.983-77.756 49.638-161.297 73.378-253.159 87.091-113.97 17.024-226.065 13.517-338.62-10.393-84.47-17.937-182.997-55.22-245.051-114.876-24.21-23.279-37.274-49.57-45.568-78.507l3.32-5.342 13.627 24.073c11.46 20.241 46.063 48.666 66.159 63.087 34.057 24.448 103.04 55.595 143.838 66.995l44.117 12.322c25.447 7.108 61.61 13.295 89.54 16.615l36.975 4.394c69.692 8.286 153.524 5.803 223.215-4.864l45.56-6.98c13.73-2.1 27.801-5.495 40.695-9.122l42.974-12.1c36.48-10.275 70.682-25.643 103.885-43.495l28.365-15.249c5.461-2.935 12.92-8.849 18.577-13.175 30.83-23.552 55.722-50.16 74.769-80.896l1.596 8.44z"/><path fill="#dcdcd7" d="M757.185 714.06c-22.102-9.096-45.927-2.235-62.003 18.049-5.504 6.954-9.26 16.222-8.517 24.226-9.147.077-18.722 1.288-28.91 3.857-69.36 17.468-126.533 21.94-195.132 16.12l-8.884-12.263c-18.082-24.968-59.212-35.183-73.66-12.023l-8.004 7.296-15.53-4.941c-8.243-2.628-18.748-3.746-26.974-3.448l26.018-15.778 12.493-17.476c52.83 22.75 118.86 32.845 178.807 27.469 74.053-6.64 130.031-23.424 185.267-75.426l40.713-38.332.367 29.44c.46 36.821-9.728 28.356-16.051 53.23"/><path fill="#fdd759" d="m313.596 668.27 36.736 1.861c4.78.24 12.271 10.752 12.007 14.515l-13.466-5.009c4.028 14.882 6.042 31.147-4.01 41.233-45.645 20.122-33.272 4.515-42.906 1.084l-19.652-6.997 14.617 33.433c3.601 8.244-8.72 26.795-17.416 29.509-15.147 4.736-31.027-.154-46.754-10.718l1.519 12.749c-6.153-6.733-13.304-17.886-14.166-28.766-1.63-20.54 15.215-34.782 31.446-40.26l26.052-1.58c1.817-5.793 3.772-15.36 6.263-17.518l21.897-18.944c1.783-1.536 5.478-4.72 7.825-4.6zm.666 25.968c0-4.583-3.72-8.303-8.311-8.303s-8.312 3.72-8.312 8.303 3.72 8.303 8.312 8.303 8.311-3.72 8.311-8.303"/><path fill="#f9c740" d="m362.339 684.646 9.25 14.294-3.507 18.739-12.493 17.476-26.018 15.778c-31.471-1.4-13.005 24.679-41.165 36.549-23.91 10.077-40.055 7.859-54.118-7.535l-1.52-12.75c15.728 10.565 31.608 15.455 46.755 10.719 8.695-2.722 21.017-21.274 17.416-29.509l-14.617-33.433 19.652 6.997c9.626 3.43-2.74 19.038 42.906-1.084 10.052-10.094 8.038-26.359 4.01-41.233l13.466 5.01z"/><path fill="#fdd047" d="m214.448 570.078 5.598 11.383c3.25 6.605 5.913 14.55 7.287 21.172-8.67 8.96-19.49 15.351-32.58 18.594-19.294 4.778-39.032-1.52-46.191-18.51l1.126-17.492c15.812-10.462-.648.093 27.972-2.356 10.684-.913 16.94-10.402 16.666-20.872l-23.15-3.268 19.993-4.702c4.813 3.038 9.514 6.033 13.107 8.652l10.163 7.399z"/><path fill="#f0ecde" d="M148.562 602.718c7.16 16.99 26.905 23.287 46.19 18.509 13.09-3.243 23.911-9.634 32.581-18.594.75.136 6.332 2.816 7.543 4.48l11.794 16.221 1.348 7.86c-15.932-4.318-35.61-5.317-54.767-2.04-9.899 1.69-18.944 18.466-23.194 28.945l-20.42 5.069-22.161 5.487c21-24.363 37.862-1.092 43.819-26.65l3.797-16.298-24.277-6.759c-4.028-1.834-6.99-2.884-8.739-4.753s-2.099-8.354-2.124-10.914z"/><path fill="#dddbca" d="m305.771 672.879-21.896 18.944c-2.492 2.15-4.437 11.725-6.264 17.519l-26.052 1.579 13.27-7.902c2.62-.837-5.394-8.935-9.046-10.172l3.934-7.117c15.462-10.18 2.859-41.028-11.69-54.528l-1.349-7.86 15.386 16.735 16.41 18.5c7.227 8.15 17.365 14.379 27.306 14.302z"/><path fill="#fadb78" d="M201.153 548.702c2.5 7.543 15.12 10.556 13.286 21.376l-10.163-7.399c-3.601-2.62-8.294-5.614-13.107-8.652l-19.994 4.702 23.151 3.268c.265 10.479-5.982 19.96-16.666 20.872-28.612 2.44-12.16-8.115-27.972 2.356.256-3.917-.708-11.452-1.075-15.668l11.733-9.224c10.215-8.03 27.7-10.76 40.807-11.631m-26.658 38.383 11.383-20.105-22.11 3.67 10.727 16.426z"/><path fill="#fdd95e" d="M248.018 631.194c14.55 13.5 27.153 44.347 11.69 54.528l-.674-29.142c-5.683 11.785-14.156 22.375-27.904 26.326-12.731 3.652-22.383-.768-30.267-8.15l-18.842-17.63c-3.098-2.824-5.01-4.556-3.849-3.49-7.594 16.316 17.81 21.206 12.442 41.037-7.731 28.561-43.947 30.464-69.214 26.522l10.3 14.19c-3.652-.819-12.655-5.896-14.575-9.83l-9.728-19.857c12.962-35.439 2.782-16.973 20.079-37.043l22.161-5.487 20.42-5.069c4.258-10.47 13.304-27.247 23.194-28.945 19.157-3.277 38.835-2.278 54.767 2.04m-27.503 7.424-18.466-1.605c-3.2-.281-6.4 11.93-3.38 13.133 2.262.905 8.9 2.748 11.777 2.279l11.648-1.903c1.757-.29.179-11.76-1.588-11.913z"/><path fill="#fdd045" d="m866.761 699.17-17.254 14.447c-10.965.802-26.564 1.186-38.161-.794-17.929-3.054-27.213-18.483-27.222-35.925 0-12.552 7.808-25.847 20.788-29.09 6.835-1.707 14.796-1.843 22.664-1.92 14.097 2.688 28.86 9.045 37.487 22.562 4.096 6.409 2.91 23.646 1.69 30.729z"/><path fill="#fdd759" d="M760.828 718.473c5.726-.069 15.847 6.732 19.866 13.474 6.767 11.332 5.982 37.205-2.876 36.446 2.526-8.781 3.03-15.01.88-28.152l-15.915 22.298c-13.33 18.68-42.548 19.08-61.859 8.601l-.793 7.22 10.871 10.137c-2.193.094-11.366-4.053-13.09-7.16l-7.33-13.209c-2.39-4.241 17.16-50.893 18.842-39.646l1.28 8.568c.87 5.836 15.146 10.171 19.712 6.698 4.787-3.643 8.883-5.623 8.268-7.62l-4.54-14.865c-2.824 1.963 2.714-1.886 3.593-2.509l23.091-.273z"/><path fill="#fdd858" d="m400.68 755.294-3.406 6.477c-.862 1.638 2.364 4.736 3.542 5.76.076 1.075 4.079 6.647 5.794 5.401l6.374-4.616c2.227.145 7.04-.086 8.807-1.45l13.866-10.787c11.657 6.016 20.549 20.241 21.7 33.51-15.53 6.759-19.754 21.888-49.928 14.132l-26.453-6.802c6.391 5.479 11.665 10.556 15.855 16.982-10.787-5.01-24.687-12.672-24.713-29.04l-.043-25.54 8.005-7.295 9.574-2.663c1.553-.435 6.963-1.51 7.62-.316z"/><path fill="#fcc633" d="m259.708 685.722-3.933 7.116c-39.834 19.269-39.407-1.595-54.204 17.494-5.496 7.082-15.352 18.073-21.103 22.46-4.693 3.575-39.253 10.538-48.768 2.585l-10.3-14.19c25.267 3.933 61.483 2.039 69.214-26.522 5.368-19.832-20.036-24.722-12.442-41.037-1.16-1.067.743.665 3.849 3.49l18.842 17.63c7.884 7.381 17.536 11.801 30.267 8.15 13.748-3.943 22.221-14.533 27.904-26.326l.674 29.141z"/><path fill="#fbc235" d="M777.827 768.393c-7.672 20.812-30.225 25.07-50.936 25.378l-15.872-5.282-10.871-10.138.794-7.22c19.31 10.488 48.529 10.079 61.858-8.6l15.914-22.298c2.142 13.132 1.639 19.37-.879 28.151z"/><path fill="#fadc85" d="m757.185 714.06 3.652 4.421-23.091.273c-.88.615-6.417 4.472-3.593 2.509l4.54 14.865c.606 1.997-3.482 3.977-8.269 7.62-4.565 3.473-18.841-.862-19.712-6.698l-1.28-8.568c-1.68-11.247-21.23 35.405-18.841 39.646-1.647-2.961-3.584-8.055-3.934-11.785-.743-7.995 3.012-17.271 8.516-24.226 16.077-20.283 39.902-27.153 62.003-18.048z"/><path fill="#fac93d" d="m457.358 789.598 1.032 11.912c-2.551 13.824-16.981 22.614-33.118 21.334-11.417-.905-20.224-5.129-28.433-8.943-4.19-6.426-9.463-11.503-15.855-16.982l26.454 6.802c30.173 7.756 34.397-7.373 49.928-14.132z"/><path fill="#fadd7e" d="m462.623 776.311.29 21.667-4.523 3.532-1.032-11.912c-1.152-13.27-10.036-27.495-21.7-33.51l-13.867 10.786c.273-3.482-2.688-14.32-6.861-13.705l-14.26 2.125-3.404-6.247c-.649-1.194-6.059-.11-7.62.316l-9.575 2.663c14.447-23.16 55.586-12.937 73.66 12.023l8.883 12.262z"/><path fill="#fbebbc" d="m149.688 585.225-1.126 17.493-8.61.563-.18-18.21c-.042-4.31 5.394-12.809 8.841-15.514.367 4.216 1.331 11.75 1.075 15.668"/><path fill="#fcedad" d="M297.64 694.238a8.311 8.303 0 1 0 16.622 0 8.311 8.303 0 1 0-16.623 0"/><path fill="#fdedb0" d="m174.495 587.085-10.718-16.427 22.11-3.67z"/><path fill="#fceaaa" d="M220.515 638.618c1.766.153 3.345 11.622 1.587 11.912l-11.648 1.903c-2.876.47-9.515-1.382-11.776-2.278-3.02-1.204.18-13.406 3.38-13.133l18.465 1.604z"/><path fill="#fdecab" d="M421.8 766.874c-1.759 1.373-6.58 1.595-8.807 1.45l-12.169-.793c-1.177-1.024-4.403-4.122-3.541-5.76l3.405-6.477 14.259-2.125c4.173-.623 7.134 10.223 6.86 13.705z"/><path fill="#fadd7e" d="m412.993 768.324-6.375 4.617c-1.715 1.246-5.717-4.327-5.794-5.402l12.169.794z"/><path fill="#efeeec" d="m709.893 404.429-2.159 24.823c-7.262 83.525-20.506 143.25-64.845 214.562-17.007 27.358-41.796 48.803-68.48 67.013-4.975 3.396-9.275 7.944-11.588 11.801l-21.103 4.088c-31.002 6.007-138.667-8.32-170.138-27.776l-9.25-14.294c.265-3.763-7.227-14.276-12.006-14.515l-36.736-1.86c-1.937-2.97-7.526-10.616-10.667-13.167-39.407-31.983-66.585-70.972-85.205-118.067-31.667-80.086-45.491-165.607-44.646-248.858l5.18 12.186c2.602 6.127 7.364 20.48 11.954 26.154 26.044 32.163 73.95 61.62 114.612 74.991 122.718 40.372 259.84 42.684 383.855 8.713 6.988-1.912 16.221-3.985 21.213-5.794zM308.007 600.866c4.71-12.988 5.077-22.485 2.014-31.624l-8.55-25.472c-3.79-11.299-7.757-23.715-10.3-35.508l-13.986-64.836c-4.344-20.121-30.251-45.508-46.114-37.24-21.539 11.222-4.224 62.064 2.235 81.93 9.669 29.73 35.226 106.299 74.701 112.759z"/><path fill="#e3dfd9" d="m900.46 330.257 1.766 19.362c21.188 4.164 40.294 7.39 59.358 15.684 9.036 3.934 24.456 18.842 27.963 27.939 6.844 17.749 8.9 36.864 10.693 56.985l3.95 4.36c-.81 2.586-1.655 9.166-2.764 12.033-14.14 36.685-38.707 66.21-71.33 86.903-55.57 35.251-90.786 37.504-157.816 45.056l-17.553 22.63c-25.873 33.357-55.868 55.843-94.037 76.792-24.081 13.218-73.336 19.874-97.869 24.627 2.313-3.865 6.613-8.405 11.588-11.801 26.675-18.21 51.473-39.655 68.48-67.013 44.33-71.304 57.575-131.037 64.845-214.562l2.159-24.823c12.988-4.71 26.923-10.803 40.576-17.664l31.3-15.744c12.322-6.195 25.77-18.74 35.815-29.312 23.125-24.371 14.276-21.53 29.602-36.113l1.297 24.354c.153 2.841.11 7.74 1.766 7.902s7.808.213 9.677-.128l40.55-7.458zm20.787 181.01c29.815-25.891 51.234-59.751 43.912-100.122-5.93-32.751-47.846-43.299-71.774-36.003-14.506 4.43-26.197 11.606-37.606 21.044-10.36 8.567-14.25 19.524-17.212 33.186-7.697 35.439-18.79 70.989-29.61 105.489-.726 2.32-.734 7.825-.393 10.018 1.672 10.914 76.407-2.116 112.674-33.613z"/><path fill="#fcfdfc" d="M847.186 305.596c-15.326 14.583-6.477 11.742-29.602 36.113-10.036 10.581-23.484 23.117-35.815 29.312l-31.3 15.744c-13.645 6.86-27.588 12.953-40.576 17.664-5 1.817-14.225 3.882-21.214 5.794-124.015 33.971-261.145 31.659-383.855-8.713-40.653-13.371-88.567-42.837-114.611-74.99-4.591-5.675-9.353-20.028-11.955-26.155l-5.18-12.186c.248-24.687 6.451-49.672 25.745-69.367 137.498-140.4 581.94-121.643 646.776 33.97 6.963 16.7.733 36.737 1.587 52.814M223.066 230.8c-25.36 22.093-25.702 61.833-2.713 88.414 9.506 10.99 21.17 22.016 33.758 29.508 119.082 70.87 306.03 72.115 436.736 34.697 42.845-12.271 105.028-39.663 124.049-81.442 11.443-25.131 7.253-53.71-13.568-70.998-2.51-11.076-43.606-36.855-56.713-43.204-84.94-41.14-187.315-50.278-281.873-44.63-76.27 4.557-188.544 29.867-239.684 87.664z"/><path fill="#fafbfa" d="m1004.19 454.588-3.95-4.36c-1.792-20.114-3.849-39.229-10.693-56.986-3.507-9.097-18.927-24.005-27.963-27.939-19.064-8.294-38.17-11.511-59.358-15.684l-1.767-19.362c16.7-3.072 33.374-4.54 51.072 2.552 54.784 21.956 66.765 76.97 52.651 121.779z"/><path fill="#fdfdfd" d="M308.007 600.866c-39.484-6.46-65.041-83.038-74.7-112.76-6.46-19.865-23.775-70.707-2.236-81.928 15.863-8.269 41.779 17.127 46.114 37.24l13.986 64.836c2.543 11.793 6.51 24.209 10.3 35.507l8.55 25.472c3.063 9.14 2.697 18.637-2.014 31.625z"/><path fill="#bec5c3" d="M921.247 511.266c-36.267 31.497-111.002 44.527-112.675 33.613-.332-2.193-.332-7.697.393-10.018 10.82-34.5 21.922-70.05 29.61-105.49 2.97-13.661 6.853-24.618 17.212-33.185 11.41-9.438 23.092-16.615 37.607-21.044 23.927-7.296 65.843 3.252 71.774 36.003 7.313 40.37-14.106 74.231-43.913 100.121zm-1.929-17.613c16.18-20.855 27.529-38.502 31.369-60.356 3.567-20.267-8.781-38.417-28.988-42.155-14.02-2.594-28.783.922-41.515 8.26-29.116 16.786-24.644 27.632-30.472 57.763l23.782 12.476 45.816 24.004zm-61.201 29.73c16.75-3.182 29.193-9.881 44.945-20.206l-57.847-29.475-16.111 55.194 29.013-5.504z"/><path fill="#e0ded7" d="m801.328 230.98-3.047 3.132c12.314 21.111 10.41 40.363 3.38 58.931-12.382-37.726-84.114-66.406-122.804-77.679-9.907-2.884-24.251-8.832-33.502-9.088l-46.813-1.263c.085-.708-6.076-6.843-8.38-6.954l-32.034-1.588-21.82-1.706c-17.144-1.34-35.465-1.101-52.89.017l-46.242 2.96c-7.117.453-14.814 2.68-21.982 6.136l-35.814 2.714c-3.925.299-13.286 4.207-17.45 5.427l-44.758 13.15c-7.86 2.304-16.572 5.658-22.938 9.242l-19.968 11.238c-11.562 6.502-23.142 15.3-32.495 24.516l-10.863 10.71c-3.968 3.908-4.992 15.658-3.942 20.428-20.719-24.132-10.428-34.244-2.432-67.413l-1.476-3.097c51.14-57.805 163.413-83.107 239.684-87.663 94.55-5.65 196.932 3.498 281.873 44.629 13.107 6.349 54.204 32.136 56.713 43.204z"/><path fill="#c3c6c1" d="m226.975 301.32 17.143 19.977c2.825 3.294 12.04 7.177 15.599 8.013 11.332 25.557 114.21 50.705 144.7 55.22 97.877 14.472 221.935 10.333 314.137-26.207 15.983-6.332 31.864-14.856 46.498-23.006 18.8-10.47 30.098-25.105 36.6-42.257 7.031-18.568 8.943-37.828-3.38-58.93l3.047-3.133c20.83 17.297 25.011 45.867 13.568 70.998-19.02 41.779-81.203 69.17-124.049 81.442-130.705 37.418-317.653 36.173-436.736-34.697-12.587-7.492-24.252-18.517-33.758-29.508-22.989-26.581-22.647-66.321 2.714-88.414l1.476 3.098c-7.996 33.169-18.287 43.28 2.432 67.413z"/><path fill="#fdfdfd" d="m919.318 493.653-45.815-24.004-23.783-12.476c5.828-30.13 1.357-40.977 30.473-57.762 12.731-7.338 27.486-10.863 41.514-8.26 20.199 3.738 32.547 21.888 28.988 42.155-3.848 21.853-15.19 39.5-31.368 60.356z"/><path fill="#f0f1ef" d="m858.117 523.383-29.013 5.504 16.11-55.193 57.848 29.474c-15.752 10.325-28.194 17.033-44.945 20.207z"/><path fill="#fbedd1" d="m598.542 205.022 46.813 1.263c9.25.247 23.604 6.204 33.502 9.088 38.682 11.264 110.422 39.944 122.803 77.679-6.493 17.16-17.8 31.786-36.599 42.257-14.635 8.15-30.515 16.674-46.498 23.006-92.203 36.54-216.252 40.678-314.138 26.206-30.498-4.506-133.367-29.662-144.7-55.22 6.375-18.449 17.741-34.688 34.117-48.486 20.437-17.229 80.136-39.945 108.006-44.74l88.09-15.138c6.605-1.135 13.508-2.176 18.773-2.663l-4.804 7.015 29.628 4.19L570.5 234.7c8.858 1.254 19.814 2.551 28.297 4.369l81.237 17.374 7.902-6.4c-6.554-5.496-13.765-11.426-18.987-13.056l-25.78-8.056c-5.443-1.698-16.724-2.261-23.235-3.345l-32.282-5.384c-4.634-.777-13.184-6.409-17.553-6.28-.452.144 5.12-1.605 8.533-2.672l19.891-6.238zm151.005 109.5c12.04-20.216 1.46-43.341-11.315-51.456-7.381-4.694-17.126-4.148-28.527 1.1l22.375 25.029c10.974 12.28-26.036 29.84-14.9 36.659 8.295 5.077 25.208.683 32.367-11.34z"/><path fill="#f6ddb6" d="m598.542 205.022-19.892 6.238c-3.413 1.066-8.985 2.816-8.533 2.67-9.02.265-25.882 1.076-36.113 2.023l-25.293 2.33c-5.265.486-12.168 1.527-18.773 2.662l-88.09 15.138c-27.87 4.787-87.569 27.512-108.006 44.74-16.376 13.799-27.742 30.038-34.116 48.487-3.559-.836-12.775-4.72-15.6-8.013l-17.143-19.976c-1.05-4.77-.025-16.521 3.943-20.43l10.862-10.709c9.353-9.216 20.933-18.013 32.495-24.516l19.968-11.238c6.366-3.584 15.079-6.93 22.938-9.242l44.757-13.15c4.165-1.22 13.526-5.137 17.451-5.427l35.814-2.714c7.16-3.456 14.857-5.683 21.982-6.135l46.242-2.961c17.425-1.118 35.747-1.357 52.89-.017l21.82 1.707 32.034 1.587c2.304.11 8.465 6.246 8.38 6.954z"/><path fill="#fdf8e7" d="M570.117 213.93c4.369-.127 12.92 5.513 17.553 6.281l32.282 5.385c6.51 1.083 17.792 1.647 23.236 3.345l25.78 8.055c5.222 1.63 12.424 7.56 18.986 13.056-5.965 4.83-7.996 6.469-7.902 6.4l-81.237-17.374c-8.483-1.817-19.44-3.114-28.297-4.369l-36.966-5.222-29.628-4.19 4.804-7.014 25.293-2.33c10.223-.939 27.093-1.758 36.113-2.022z"/><path fill="#fcf8e9" d="M749.547 314.522c-7.16 12.023-24.072 16.418-32.367 11.34-11.136-6.818 25.874-24.38 14.9-36.659l-22.375-25.028c11.4-5.257 21.137-5.794 28.527-1.1 12.775 8.123 23.356 31.24 11.315 51.455z"/></svg>