<svg xmlns="http://www.w3.org/2000/svg" viewBox="0 0 1024 1024"><path fill="#a7c3c5" d="M513.049 896.493c-6.28-5.734-12.177-13.098-16.393-20.957l.256-4.608 29.107-.564c54.34 2.705 121.165-5.99 170.41-34.176 20.899-11.963 27.034-41.25 28.05-63.18l1.971-42.59c4.096-88.269 11.35-190.225-3.132-275.584-1.877-11.042-.435-27.434-4.795-40.012-7.467-21.547-16.402-40.32-27.153-59.938l-12.152-22.178c-6.298-11.495-14.08-21.863-20.779-31.232-2.27-5.223-5.973-13.449-9.088-18.236-4.36-39.842-14.78-50.756-13.21-101.495l-16.537-.683c4.412-2.586 10.846-5.683 14.635-6.639l18.466-4.65 3.763 44.51c9.156 108.236 87.168 131.301 90.53 272.852 2.313 97.177.717 191.539-3.072 289.68-1.169 30.226-12.16 61.236-36.983 77.475-43.512 28.45-94.993 37.188-146.867 39.825l-38.349 1.954-8.695.443z"/><path fill="#be840f" d="m652.722 169.762-18.466 4.65c-3.789.956-10.223 4.045-14.635 6.64l-25.463 4.095c-5.624.905-11.853 2.373-17.374 4.003l-76.586-.316c-6.435-.026-18.347-2.688-25.635-4.062l-39.287-7.415-20.412-8.286c-5.691-4.702-21.376-17.297-21.452-25.72l-.811-86.698c-.068-7.467 8.678-23.458 14.9-28.075C450.507-3.396 532.555-2.236 585.171 2.5c31.992 2.885 90.12 16.922 91.486 58.897.879 27.068.657 59.367-1.553 85.385-.649 7.663-15.761 17.433-22.383 22.988zM443.562 159.3c4.557 1.553 9.975 3.422 17.45 5.495 37.786 10.514 83.175 9.83 122.513 5.718 2.671-.282 11.691-3.2 13.987-3.132 24.234.76 66.32-12.433 65.006-40.738l-2.04-43.904c-.4-8.61 1.272-22.903-1.066-30.396C644.163 3.61 407.935 1.87 408.43 60.296l.572 68.702c.06 7.083 6.852 20.668 12.211 22.596l22.357 7.689z"/><path fill="#a9c2c4" d="M435.276 177.348c-6.724 28.757 1.997 28.262-8.644 75.417-2.031 9.02-4.036 19.951-6.528 26.172l-8.772 21.94c-15.42 18.133-80.086 133.742-62.567 154.794-5.939 11.477-7.867 27.323-7.8 42.82l.897 201.548 4.181 30.285-1.374 59.452-20.181-.333c-1.271-.017-5.419-4.37-5.043-4.25l7.885-.665-4.583-179.055c-1.416-55.347-3.746-158.447 14.029-205.422 31.693-83.755 78.216-116.096 78.114-210.15l-.026-20.83 20.412 8.286z"/><path fill="#fbe8c8" d="M375.21 742.237c9.045 5.145 19.558 9.224 29.96 12.185 77.978 22.238 152.141 19.576 231.629 9.105 15.872-4.838 6.033 37.368-6.844 53.436-12.552 15.659-32.964 27.947-52.915 30.72l-42.376 5.888-38.033 4.702c6.835 4.753 11.05 7.116 14.907 8.158l14.481 3.925-29.107.563c.751-3.644-28.877-24.695-31.36-21.59-58.76-31.53-62.506 11.41-110.293-46.694l-10.59-12.876 1.374-59.452c9.472 4.838 19.465 9.284 29.167 11.921z"/><path fill="#e22726" d="M723.327 454.826c14.48 85.359 7.219 187.323 3.132 275.583l-22.324 10.761c-14.327 6.903-31.547 10.376-45.559 15.07l-10.342-1.45 1.74-59.512 3.09-132.719c.588-25.438-2.339-49.903-5.172-74.504-15.949-1.374-34.099 6.476-36.966-2.74 8.482-.75 17.57-1.817 26.01-3.404 23.159-4.36 47.376-10.522 70.169-20.199z"/><path fill="#fdf8e1" d="M594.277 266.24c8.636.162 22.469 3.396 31.292 7.074l23.791 9.915c3.115 4.788 6.827 13.022 9.088 18.236l-38.289 16.35-19.123 3.234c-38.161 6.46-70.136 6.758-109.235 2.483l-31.497-3.447-14.796 34.799-11.12 26.154c-3.037 7.151-6.254 16.768-8.49 24.32l-10.172 34.415-9.566 30.165-18.03-1.203-12.647-4.446c.768-4.71 2.1-12.381 3.678-17.706l12.296-41.472c13.696-46.2 68.122-101.965 20.003-96.691l-.145-7.552 8.772-21.94c3.413-.35 11.955-2.124 15.539-3.882l17.169-8.431 51.55-3.618 59.127.273c11.392 2.278 20.915 2.782 30.788 2.961z"/><path fill="#f5daaa" d="m723.327 454.826-16.222 6.886c-22.784 9.677-47.002 15.847-70.17 20.199l10.744-7.006-2.842-19.149c-1.066-7.185-2.841-18.449-4.821-24.738l-10.027-31.82-23.082-69.573 6.434-8.226 6.81-3.584 38.288-16.35c6.7 9.37 14.481 19.738 20.78 31.232l12.15 22.178c10.752 19.618 19.687 38.392 27.154 59.938 4.36 12.57 2.918 28.962 4.795 40.013z"/><path fill="#f4daa9" d="m526.02 870.356-14.482-3.925c-3.857-1.05-8.072-3.405-14.907-8.158l38.033-4.702 42.376-5.888c19.951-2.773 40.363-15.061 52.915-30.72 12.877-16.068 22.716-58.283 6.844-53.436l21.785-7.296c14.012-4.693 31.224-8.166 45.56-15.07l22.323-10.76-1.971 42.59c-1.016 21.93-7.151 51.217-28.05 63.18-49.245 28.186-116.078 36.89-170.41 34.176z"/><path fill="#b5e1ed" d="m619.613 181.051 16.537.683c-1.578 50.74 8.85 61.653 13.21 101.495l-23.79-9.915c-8.824-3.678-22.657-6.912-31.293-7.074-.563-1.076-2.9-4.062-4.6-4.224-.613-5.581-2.073-13.756-2.397-20.566l-2.466-50.782-8.03-1.518c5.521-1.63 11.75-3.098 17.374-4.003l25.463-4.096z"/><path fill="#f4daa9" d="m496.912 870.92-.256 4.607-13.696-9.498c-6.46-4.48-13.517-11.255-17.408-16.7 2.483-3.105 32.111 17.946 31.36 21.59"/><path fill="#edb837" d="M659.404 52.352c-2.833 6.784-8.047 11.98-14.345 16.734 0 .008-.29-5.427-.597-5.376l-6.323 1.118c-74.641 13.167-123.537 18.952-200.21-5.675-5.443-1.75-15.112-1.493-23.713-.606 9.276 26.283 27.801 10.547 27.35 32.248l-1.178 56.038c-.06 2.952 2.56 11.255 3.182 12.484l-22.357-7.688c-5.359-1.929-12.151-15.514-12.211-22.597l-.572-68.701c-.486-58.437 235.733-56.687 250.982-7.953z"/><path fill="#caeaf2" d="m576.784 189.15 8.03 1.518 2.466 50.782c.333 6.81 1.784 14.985 2.398 20.566-5.077-.504-16.085-2.578-21.308-2.663l-88.849-1.493-3.345-34.279c-.205-2.124-7.227-6.075-8.926-7.372-2.26-1.724-11.272 4.958-11.468 7.79l-2.961 42.625-17.17 8.43c-3.583 1.758-12.125 3.542-15.539 3.883 2.484-6.22 4.489-17.152 6.528-26.172 10.641-47.146 1.92-46.651 8.645-75.417l39.287 7.415c7.296 1.374 19.2 4.037 25.634 4.062l76.587.316z"/><path fill="#e8b332" d="M599.133 86.963c-.623 1.937-1.681 6.972-1.681 9.523l.06 70.904c-2.304-.069-11.316 2.85-13.987 3.131-39.33 4.113-84.727 4.796-122.512-5.717.273.939 9.856-4.139 9.864-6.494l.18-68.932c44.466 2.628 86.783 5.188 128.076-2.406z"/><path fill="#fde285" d="M645.06 69.086c-16.18 12.202-23.1 13.679-45.927 17.877-41.293 7.603-83.61 5.035-128.077 2.406l-.179 68.933c0 2.355-9.591 7.424-9.864 6.493-7.476-2.082-12.894-3.95-17.451-5.495-.623-1.22-3.243-9.532-3.183-12.484l1.178-56.039c.452-21.691-18.065-5.964-27.35-32.247 8.61-.887 18.27-1.143 23.714.606 76.68 24.627 125.568 18.841 200.21 5.675l6.322-1.118c.299-.052.598 5.393.598 5.376z"/><path fill="#d49a1f" d="m597.512 167.39-.06-70.904c0-2.551 1.058-7.586 1.68-9.523 22.827-4.198 29.748-5.675 45.927-17.877 6.298-4.745 11.512-9.95 14.345-16.734 2.346 7.492.665 21.785 1.066 30.396l2.04 43.904c1.314 28.296-40.772 41.497-65.007 40.738z"/><path fill="#ee3934" d="M371.114 464.025c2.364 5.606 3.96 13.593 3.96 21.495l.136 256.717c-9.702-2.637-19.686-7.083-29.167-11.921l-4.181-30.285-.896-201.549c-.068-15.496 1.852-31.343 7.8-42.82l22.34 8.354z"/><path fill="#fae9c8" d="M375.5 464.306c-1.527 0-3.328.111-4.386-.281l-22.34-8.354c-17.52-21.052 47.146-136.661 62.566-154.795l.145 7.552c48.12-5.273-6.306 50.483-20.002 96.691l-12.296 41.472c-1.58 5.325-2.919 12.996-3.678 17.707z"/><path fill="#f53a36" d="M610.934 485.315c2.868 9.216 21.018 1.366 36.967 2.74 2.841 24.601 5.768 49.058 5.171 74.504l-3.09 132.719-1.74 59.511 10.342 1.45-21.785 7.297c-79.488 10.47-153.651 13.124-231.628-9.105l.802-54.827 1.348-180.113c.12-15.564.435-29.576 2.253-43.008 66.005 14.627 134.186 16.495 201.36 8.841z"/><path fill="#fb726a" d="M388.147 468.744c6.323 3.166 14.259 5.99 21.418 7.74-1.817 13.44-2.133 27.451-2.253 43.007l-1.348 180.113-.802 54.827c-10.402-2.97-20.915-7.04-29.96-12.186l-.137-256.716c0-7.902-1.596-15.89-3.96-21.496 1.059.393 2.868.273 4.387.282l12.646 4.446z"/><path fill="#fbe8c7" d="m620.167 317.815-6.81 3.584-6.433 8.226 23.082 69.572 10.027 31.82c1.98 6.281 3.755 17.554 4.821 24.739l2.842 19.149-10.743 7.006c-8.44 1.587-17.528 2.654-26.01 3.404-67.174 7.663-135.356 5.786-201.36-8.84-7.169-1.74-15.105-4.565-21.42-7.74l18.032 1.203 9.565-30.165 10.172-34.415c2.236-7.552 5.453-17.169 8.49-24.32l11.12-26.154 14.796-34.8 31.497 3.448c39.1 4.275 71.074 3.985 109.235-2.483l19.123-3.234z"/><path fill="#e0f4f3" d="M589.678 262.016c1.698.17 4.036 3.148 4.6 4.224-9.865-.188-19.388-.683-30.789-2.962l-59.127-.273-51.55 3.619L455.773 224c.196-2.833 9.208-9.515 11.469-7.791 1.698 1.297 8.712 5.248 8.926 7.372l3.345 34.279 88.849 1.493c5.222.085 16.23 2.16 21.307 2.663z"/><path fill="#f3b866" d="M228.932 922.187c-52.437 30.61-105.796 39.638-157.2.563 22.595-29.892 39.747-56.26 85.52-53.606 25.438 1.476 42.18 17.016 55.356 35.994 3.695 5.324 14.924 11.648 16.324 17.058z"/><path fill="#fcd36f" d="M722.883 910.411c-17.954 9.728 4.642 15.403-28.604 35.84-15.496 9.523-28.902 10.061-49.988 10.71 1.937 1.373 9.003 5.504 14.003 8.055l9.233 4.702c-11.477 5.913-33.169-10.855-37.068-18.901-3.67-7.587-4.532-28.604.153-35.755 17.229-26.334 55.962-35.78 83.243-17.229 3.106 2.116 7.338 9.31 9.02 12.587zm-51.2-4.693c-5.103-3.806-19.66 2.449-20.002 9.967-.196 4.173 11.068 5.922 14.942 4.02l8.345-4.105c1.57-.777-1.74-8.73-3.285-9.89z"/><path fill="#fcd662" d="M813.362 1020.636c-8.141-26.718-27.315-9.378-44.024-58.035-.827.495-5.768 3.524-5.905 4.821l-2.09 19.704c-4.864-8.935-3.286-25.02 2.193-32.76 12.433-17.561 34.824-17.63 53.555-9.608 14.242 6.101 27.725 20.625 29.84 38.101 1.836 15.138-12.202 43.503-33.57 37.777"/><path fill="#fcd16e" d="m847.418 867.122-.7-16.828c-13.354 20.028-34.38 29.577-62.182 20.625-14.25-4.582-24.38-13.44-30.703-25.08l-1.024 17.195c-9.045-18.124-2.636-40.618 17.366-47.18 29.32-9.617 60.177-1.588 77.738 24.209 5.974 8.78 2.321 19.882-.495 27.05zm-44.236-33.263c-3.354-16.282-26.59-18.33-27.188-4.83-.392 8.78 23.885 12.51 27.188 4.83"/><path fill="#fdd268" d="M933.366 866.78c8.388-.153 14.293 10.684 17.11 17.17l-12.775-8.116 3.191 10.607c-.085 20.25-20.821 39.1-41.096 41.13-24.508 2.458-4.745-9.266-26.402 1.178-1.784.862 4.318 7.185 5.939 8.26l11.153 7.365c-3.866-.051-13.414-1.732-17.271-4.122-22.204-13.772-23.023-40.012-8.184-57.386 8.909-4.642 8.678 11.622 15.027 13.26 3.064.794 10.368-2.56 12.527-4.82l5.103-5.343c1.408-1.467-2.654-8.183-4.65-7.765l-22.648 4.787 17.783-15.377 45.184-.836z"/><path fill="#fcd173" d="M303.18 939.33c8.883 1.784 17.23 6.597 21.94 13.663-8.833-1.289 2.005 22.519-15.412 35.711-26.786 20.301-55.176 7.04-54.946 13.39l.188 5.034c-14.31-2.21-21.965-15.044-21.973-29.32 0-10.454 4.292-20.916 10.65-26.735l11.51-3.252-1.996 7.262c-.546 1.971.836 3.482 3.883 10.249 11.596-.717 18.62-2.79 30.233-12.647l-23.219-11.912 12.783.35 26.368-1.8z"/><path fill="#d19142" d="M228.932 922.187c2.159 8.38-8.85 18.5-15.957 22.511-58.437 33.007-73.174 30.464-130.483.87-3.354-1.732-10.957-8.004-12.382-11.11s.128-7.45 1.613-11.716c51.404 39.083 104.763 30.046 157.2-.563z"/><path fill="#f7be4d" d="M847.418 867.122c-15.454 39.347-64.239 27.127-84.744 11.733-3.746-2.807-8.9-12.587-9.865-15.82l1.024-17.195c6.324 11.64 16.453 20.497 30.703 25.08 27.802 8.942 48.828-.598 62.183-20.626z"/><path fill="#f8c552" d="M950.475 883.958c4.497 10.36 6.238 22.86-.554 35.302-4.762 8.713-18.697 17.238-29.509 20.25l-13.61 4.565-16.316.307-11.153-7.364c-1.63-1.075-7.731-7.398-5.94-8.26 21.658-10.436 1.895 1.28 26.403-1.178 20.284-2.03 41.011-20.88 41.096-41.13l-3.191-10.607z"/><path fill="#f5bf55" d="M333.073 982.236c-3.414 4.233-7.211 11.495-9.285 17.28-13.073 18.04-56.524 22.136-68.847 7.62l-.187-5.034c-.23-6.358 28.16 6.912 54.946-13.389 17.416-13.193 6.579-37 15.41-35.712 6.546 9.813 8.765 19.2 7.954 29.235z"/><path fill="#f8c551" d="m702.053 961.082-18.27 4.147-4.258 4.438-11.99.042-9.232-4.702c-5-2.542-12.066-6.681-14.003-8.055 21.077-.64 34.491-1.186 49.988-10.71 33.246-20.437 10.65-26.111 28.604-35.84 11.204 21.855-2.936 47.216-20.83 50.672z"/><path fill="#facb54" d="M813.362 1020.636c-9.071 12.903-55.202-14.122-52.028-33.51l2.09-19.704c.137-1.288 5.078-4.326 5.906-4.821 16.708 48.657 35.883 31.317 44.023 58.035z"/><path fill="#f9dc98" d="m303.18 939.33-26.368 1.801-12.783-.35 23.22 11.913c-11.614 9.856-18.637 11.93-30.234 12.646-3.046-6.775-4.429-8.277-3.883-10.248l1.997-7.262-11.511 3.251 6.954-8.943c13.56-9.335 48.478-12.527 52.608-2.816z"/><path fill="#f9de95" d="m933.366 866.78-45.184.837-17.783 15.377 22.647-4.787c1.997-.427 6.059 6.289 4.65 7.765l-5.102 5.342c-2.16 2.261-9.464 5.615-12.527 4.821-6.349-1.638-6.127-17.903-15.027-13.26 10.427-12.195 21.401-23.126 42.402-21.77l22.212 1.434 3.712 4.258z"/><path fill="#fcd36f" d="M702.053 961.082c-1.69 2.978-8.627 8.764-12.407 8.713l-10.12-.128 4.257-4.438z"/><path fill="#fcd173" d="M323.788 999.516c2.065-5.785 5.863-13.047 9.285-17.28-.751 9.404-3.508 15.667-9.285 17.28"/><path fill="#fdd268" d="M920.412 939.501c-2.867 1.937-9.796 4.497-13.61 4.566z"/><path fill="#fdecaf" d="M671.683 905.718c1.545 1.152 4.856 9.114 3.285 9.89l-8.345 4.105c-3.874 1.903-15.13.153-14.942-4.02.35-7.517 14.908-13.772 20.002-9.967z"/><path fill="#fce4a3" d="M803.182 833.859c-3.303 7.68-27.58 3.95-27.188-4.83.598-13.5 23.834-11.452 27.188 4.83"/><path fill="#d19345" d="M319.445 785.185c-.376-.12 3.772 4.232 5.043 4.25l20.181.332 10.59 12.877c47.787 58.103 51.533 15.155 110.293 46.694 3.891 5.436 10.949 12.22 17.408 16.7l13.696 9.498c4.216 7.867 10.112 15.223 16.393 20.957l13.9 12.69c3.687 3.37 13.125 15.487 9.054 18.449-9.898 7.176-24.012 14.199-34.235 18.841-30.131 13.688-57.174 28.706-91.034 22.195-48.674-9.36-44.254-41.105-85.853-46.805l-30.422-4.173c-27.656-3.789-49.519-19.857-62.49-44.015-15.624-29.09-29.67-20.403-66.295-40.72-18.159-10.079-32.358-28.442-36.864-48.794-13.235-59.716 4.378-37.308-23.355-80.623-1.331-2.082-3.516-7.39-4.224-9.412-.709-2.014 7.594-7.612 9.472-6.64 5.81 3.013 15.309 9.362 22.971 14.397 23.288 15.308 62.754-5.291 103.638 25.463 28.782 21.658 39.022 47.462 57.045 51.797l25.105 6.042zm198.46 136.337-32.632-34.867-21.368-23.843c-16.11-17.98-67.805-8.524-81.373-19.95l-33.366-28.11c-7.287-6.143-18.022-12.842-27.29-14.89l-32.323-7.15c-23.945-5.3-24.773-20.873-47.463-44.937-36.6-38.827-73.497-18.313-113.587-34.535l14.96 69.223c5.981 27.699 34.218 44.399 58.845 52.565 34.884 11.571 25.549 11.99 52.403 44.936 18.202 22.34 47.437 23.791 74.001 29.645 53.572 11.802 63.164 74.13 153.13 32.87l31.753-14.557c1.57-.717 5.282-5.35 4.31-6.392z"/><path fill="#efb361" d="M517.904 921.522c.973 1.04-2.73 5.674-4.31 6.391l-31.752 14.558c-89.966 41.259-99.558-21.069-153.13-32.87-26.573-5.854-55.8-7.305-74.001-29.645-26.854-32.956-17.519-33.365-52.403-44.937-24.627-8.166-52.855-24.866-58.846-52.565l-14.959-69.222c40.081 16.222 76.988-4.292 113.587 34.534 22.69 24.073 23.518 39.646 47.463 44.937l32.324 7.15c9.267 2.049 20.002 8.747 27.29 14.891l33.365 28.109c13.56 11.426 65.262 1.98 81.373 19.95l21.368 23.843 32.631 34.867zM243.09 797.507c2.218-11.725 3.626-28.271-2.816-33.988-20.301-18.023-62.532-46.148-78.95-18.73-12.562 20.983 5.18 50.952 35.66 61.473 16.734 5.777 32.35 4.002 46.106-8.755m99.942 82.372c14.925-8.858 10.64-32.683 2.423-43.58-19.2-25.446-53.674-39.782-76.091-16.35-11.341 11.862-5.914 33.963 6.195 44.621 16.512 14.541 46.105 27.99 67.473 15.31m127.863 21.623c-3.584-38.681-46.797-42.914-75.11-36.104-13.056 11.153-23.39 30.174-12.058 45.286 16.273 21.7 47.736 27.307 72.687 16.58 9.404-4.044 15.403-15.803 14.481-25.762"/><path fill="#fdd179" d="M470.894 901.502c.922 9.959-5.069 21.718-14.48 25.763-24.952 10.726-56.406 5.12-72.688-16.58-11.332-15.113-.998-34.134 12.058-45.287 28.305-6.81 71.526-2.577 75.11 36.104"/><path fill="#fdd37f" d="M243.089 797.507c-13.756 12.757-29.372 14.532-46.106 8.755-30.48-10.521-48.222-40.49-35.66-61.474 16.418-27.426 58.649.708 78.95 18.73 6.442 5.718 5.034 22.264 2.816 33.989"/><path fill="#fdd177" d="M343.03 879.88c-21.367 12.68-50.96-.769-67.472-15.31-12.109-10.666-17.536-32.768-6.195-44.62 22.408-23.433 56.883-9.097 76.091 16.35 8.218 10.896 12.502 34.721-2.423 43.58m-31.436-43.922c-1.502-8.96-2.944-17.28-6.434-17.562l-15.044-1.22c-2.466-.196-5.342 10.556-3.96 12.595 3.44 5.086 15.642 6.58 25.447 6.179z"/><path fill="#fde3a5" d="M311.594 835.958c-9.813.393-22.007-1.1-25.446-6.178-1.374-2.04 1.493-12.792 3.96-12.595l15.043 1.22c3.49.282 4.933 8.602 6.435 17.562z"/></svg>