<svg xmlns="http://www.w3.org/2000/svg" viewBox="0 0 1024 1024"><path fill="#fde78b" d="m838.033 531.012-34.722 28.97-18.722 15.352-17.348 14.814-15.71 14.072-24.448 22.383-23.979 22.57-34.492 32.162-17.075 15.036-15.582 14.148c-5.06 4.6-10.257 9.72-15.42 13.944l-25.745 21.052-12.296 10.095c-10.829 8.883-21.845 17.33-33.698 25.08l-10.889 7.116-17.997 12.732c-1.092.776-2.585 7.023-1.263 7.108l4.352.264c6.213-.503 13.15-.375 18.637 1.536l27.93 9.737c12.476 10.778-4.233-5.786 30.703 5.274 1.732.546 7.612 1.237 7.518-.547l-.418-8.499c-.35-7.134 2.158-10.308 5.47-13.884 2.576-2.781 3.088 12.34 8.072 23.33 1.143 2.518 8.055 5.385 10.573 7.186 2.568 1.843 1.723 9.301.247 12.015-7.543-2.671-15.078-6.187-22.51-9.737-.419-1.212-.581-2.432-1.375-2.415l-3.558.051c-.887.043-1.903.205-2.466-.11-.606-1.272-.708-1.955-1.46-2.117-.853-.188-2.824-.444-3.609-.7l-7.16-2.32-3.9-2.97c-1.04-.794-3.327 2.176-3.822 2.927-6.989 1.647-14.123 6.058-20.113 11.468l-15.727 14.2c-5.837 5.274-23.526 20.284-30.524 20.395-20.087.307-49.126-25.26-70.605-17.75-11.076 3.874-23.603 12.834-39.372-3.993l-16.922-18.057c-5.973-6.374-12.237-12.527-19.268-17.988l-6.588-5.12-4.139-8.363c-2.543-5.145-5.683-11.417-9.42-15.044l-16.512-16.017c-7.143-6.93-13.952-14.49-21.231-19.977-.273-2.09-1.4-8.473-2.091-10.965l-17.724-13.764c-4.847-3.763-8.746-8.354-13.44-11.068-27-15.582-7.304-11.05-28.416-19.473l-17.766-7.091c-15.77-6.29-14.234 7.031-23.808-7.953-6.468-10.12-10.496-.52-23.27-9.771l-13.33-9.651c-9.292-6.733-20.804-12.868-28.22-20.13l3.627-18.748c.606-3.149 7.774-4.65 11.29-3.251 6.775 2.705 14.336 2.21 19.831 3.643l44.834 11.7c4.011 1.05 11.947 2.056 16.214 2.355l22.52 1.57c2.994.205 7.073.23 10.043.051l29.414-1.792c3.875-.239 10.198-1.357 14.627-2.133l18.38-3.226 87.868-16.017 21.956-4.668 34.458-7.057 23.134-4.113 29.005-6.135 14.284-3.03 41.293-8.524 56.124-12.416 18.321-4.36 22.852-5.522 27.631-6.963 18.543-4.591 17.34-4.326 57.156-14.78c9.907-2.56 22.784-4.318 33.152-5.82 2.193.905 1.954 5.632.743 8.593zm-442.18 284.544c11.742-3.993 17.826-8.08 25.907-13.602l17.766-12.151 16.896-12.39 19.328-15.156c8.61-6.75 29.116-24.892 32.845-32.922.82-1.766-1.834-7.082-3.865-8.422l-42.343-27.87c-8.064-5.308-28.595-9.668-37.768-6.118l-35.584 13.756c-25.669 16.366-44.246 16.571-66.577 39.816l8.456 9.455 24.44 27.358c12.586 14.088 23.38 25.472 40.516 38.238z"/><path fill="#fde17e" d="M941.867 596.95c-.546-.086-1.485.247-2.287.443l-5.82-.196c-2.227-.077-6.332 3.746-6.741 5.367l-15.625 6.178c-23.97 9.48-45.21 22.332-65.374 38.255l-11.05 8.73c-11.947 9.43-23.612 18.833-34.168 29.747l-29.175 30.165c-5.487 5.675-11.29 12.186-16.017 18.202l-28.288 35.96-11.904 17.245c-2.944 4.267-7.441 6.895-7.237 12.502-6.75 1.322-14.421 4.932-19.413 10.214l-20.83 22.016c-12.066 3.183-12.194 14.626-21.444 14.6l-10.47-.025-4.301-2.261c1.476-2.722 2.312-10.18-.248-12.015-2.509-1.8-9.43-4.676-10.573-7.185-4.983-10.991-5.487-26.112-8.072-23.33-3.311 3.567-5.828 6.75-5.47 13.883l.418 8.5c.085 1.783-5.794 1.092-7.518.546-34.935-11.06-18.218 5.504-30.703-5.274l10.061-.145 34.782-36.65 14.805-16.965 10.394-11.912 16.06-18.424 17.22-19.789 14.908-17.075 18.61-20.864c13.825-15.496 31.992-32.768 49.204-43.912l27.247-17.639c2.219-1.433 6.784-3.652 9.361-4.83l16.742-7.637 17.357-7.919c4.728-2.159 10.368-4.787 14.695-6.306l20.522-7.194 14.934-5.555c5.555-2.065 13.295-5.47 18.278-5.888l21.043-1.758c6.161-.512 13.884-.554 18.671.734l6.204 15.266c1.186 2.919 1.502 9.122 1.195 12.22z"/><path fill="#e9a83e" d="M311.441 750.438c7.279 5.487 14.089 13.04 21.231 19.977l16.512 16.017c3.738 3.627 6.878 9.899 9.42 15.044l4.14 8.363c-24.33-13.713-45.517-20.156-72.423-34.534-6.682-3.576-13.457-7.663-20.232-10.659l-42.684-18.892-44.894-19.525c-18.714-8.14-37.572-15.513-56.926-21.418L81.93 691.473l-2.68-2.611 9.958 1.613 15.3 3.635c-1.288-8.764-5.921-11.093-12.586-13.449l-8.593-3.029c-11.64-4.105-24.013-7.066-34.927-12.672-11.05-5.683-21.94-14.293-29.192-24.047-6.025-8.098-11.068-21.163-10.112-30.234l1.433-13.661c.333-3.192 4.181-10.053 6.511-12.195l9.225-8.516c7.782-2.688 21.785-3.806 28.791-2.85 10.812 13.551 13.517 9.77 31.411 26.274l31.164 28.74c28.98 26.727 59.486 45.594 95.258 61.68 11.008 4.949 21.495 9.232 31.923 15.214l10.769 6.178 11.06 6.443c4.436 2.586 9.292 5.709 13.413 8.824l31.378 23.645z"/><path fill="#f8ca64" d="M826.291 794.556c-.145-.137-4.036 2.534-4.557 3.6l-8.541 17.511c-10.47 21.453-30.277 4.694-39.075 6.153l-29.755-9.216c-8.508-2.637-16.726-6.059-25.165-9.105l-11-3.977c-.204-5.606 4.293-8.235 7.237-12.501 3.396 11.503 6.195 6.332 26.052 14.225 4.104 1.63 9.532-.53 12.954-3.789l10.436-9.933 17.954-19.14 49.809-51.038c5.547-5.683 11.861-11.179 17.835-16.29l34.756-29.773c4.352-3.729 9.276-7.466 13.184-11.366l11.153-11.128 18.398-18.628 16.981-17.178c2.424-2.449 4.463-8.473 7.134-14.506l-10.206-1.545c.316-3.089 0-9.301-1.194-12.22l-6.204-15.266c-4.787-1.288-12.502-1.254-18.671-.733l-21.043 1.757 2.474-2.167 11.196-3.763 29.03-9.754c3.209-1.075 7.27-3.14 9.532-4.19 3.951-1.527 10.957-3.848 15.121-6.118l19.55-10.667c5.948-3.242 11.588-8.456 15.864-14.131 12.253-16.256 14.984-19.968 6.058-42.334l-12.493-13.431 11.102-1.084-8.652-10.872c.298.035 4.215 2.091 5.051 3.013l11.682 12.877c4.881 5.384 10.019 16.025 11.887 23.782 4.71 19.49-.41 33.8-6.741 51.72-6.426 18.202-30.345 39.723-44.851 53.18l-16.563 15.377c-9.524 8.84-17.92 17.98-26.846 27.657-4.694 5.086-11.546 10.291-15.744 16.239-29.287 41.446-54.545 83.712-79.036 128.008-1.946 3.525-4.992 8.03-6.101 10.718z"/><path fill="#fde17e" d="m589.602 826.726-7.723-.042c.487-.76 2.782-3.72 3.823-2.927zm19.618 7.612-4.932-2.364 3.558-.05c.803-.01.965 1.202 1.374 2.414m-7.398-2.475-5.06-2.816c.785.256 2.747.512 3.61.7.75.17.853.845 1.458 2.116z"/><path fill="#f5c251" d="m79.403 422.11 5.222-4.72z"/><path fill="#eaa434" d="M979.072 459.34c3.251.01 9.813 2.21 12.023 4.592l12.493 13.431c8.926 22.366 6.195 26.078-6.058 42.334-4.276 5.675-9.916 10.88-15.864 14.131l-19.55 10.667c-4.164 2.278-11.17 4.6-15.12 6.118-3.696.017-10.616.205-14.269-.443l-25.267-4.532-19.31-3.217-41.379-9.523-1.032-6.784c1.97-1.195 5.051-3.447 7.398-5.282l24.926-19.516 31.778-22.51c6.204-4.395 14.003-8.133 21.47-10.923 25.361-9.49 22.639-8.619 47.752-8.534z"/><path fill="#fde68f" d="m993.536 451.985 8.653 10.872-11.102 1.083c-2.21-2.38-8.772-4.582-12.024-4.59l-2.32-2.646-27.64 1.135c-8.994.367-16.606 2.116-25.122 5.23l-39.689 14.508c-2.56.938-7.611 4.036-10.146 4.838l-28.313 8.926-21.206 6.289-52.557 13.986-36.326 8.286-20.233 4.42-26.59 5.726-17.552 3.874-26.036 5.803-19.814 4.429-43.648 10.265-41.267 9.703-27.597 6.775-53.743 12.732-29.218 6.75-38.008 8.798-22.11 5.188-57.932 13.73c-4.037.956-9.498 1.425-13.073 1.698l-18.014-.734c-5.496-.222-8.56-9.753-4.753-14.378.179-4.42.563-11.026-.111-13.927l-2.876-12.34-13.218-18.917-15.053-19.26c-4.403-5.64-8.559-10.12-14.131-15.54-13.107-12.74-2.193-8.2-21.675-24.482-1.86-1.553-5.657-4.266-6.929-5.836l-9.856-12.186c-5.606-6.929-11.776-13.244-18.577-18.398l-5.64-4.275c-1.639-1.203-5.095-3.746-6.588-5.427l-12.74-14.37c-.734-1.468-2.603-4.48-3.857-5.931l-10.496-12.177a197 197 0 0 0-15.454-15.966l-11.819 5.564c-9.71 4.574-24.346 15.641-25.924 13.44l-1.81-2.526 5.223-4.719c.751.077 1.826.427 2.219.06l2.713-2.526 2.21.051 2.714-2.27c.802 0 1.81.205 2.21-.145l2.663-2.355c5.743-.358 12.16-5.359 12.655-12.45-5.829-5.692-11.11-11.102-16.734-15.821L55.09 348.22l-20.138-16.751c-1.596-1.331-3.226-6.63-2.313-8.26s5.171-4.583 7.108-4.805l19.943-2.244 27.102-2.85 19.575-1.767 22.306-1.365 36.693-2.1 20.02-1.842 19.848-2.202c26.88-2.987 79.522-15.599 105.967-23.663 38.195-11.656 103.066-33.954 135.381-55.287l26.47-17.477 12.093-8.285 20.309-14.123 21.495-15.309 14.678-10.103c21.81-15.01 22.246 15.829 45.005 8.635l37.572-11.887c16.444-5.205 34.398-6.195 51.507-4.471 3.294.333 10.018 3.789 13.568 5.197 9.02 3.575 17.75 8.567 24.21 15.343l22.066 23.15 26.513 27.265 10.078 9.36 27.913 28.664 37.777 38.776 22.016 22.528 96.435 94.984 22.05 20.548c5.171 4.822 11.34 9.319 15.19 14.157zm-141.892-109.09-14.055-15.761-9.224-10.351-15.369-16.82c-13.713-15.01-17.254-24.541-31.77-34.756l-20.855-23.424-13.85-15.59-29.44-29.96c-6.075-6.187-12.006-10.59-20.428-14.055l-6.92-5.248c-12.417-5.017-44.152 3.968-41.063 12.826.46 1.322 2.005 4.343 2.799 5.53l8.456 12.612c2.654 3.96 9.498 10.231 13.696 14.387l16.401 16.239c7.365 7.287 15.898 12.894 23.723 20.198l38.084 35.516 13.167 11.92 19.132 17.733c16.828 15.6 15.437 16.017 33.638 32.964l12.988 12.1c7.091 6.606 23.458 21.428 32.555 10.608 8.695-10.334-3.473-27.452-11.665-36.642zM422.238 558.583c5.76-6.272 3.968-16.878-2.552-20.659-7.927-4.6-15.889-6.57-24.584-7.432l-13.09-1.289c-22.895-2.253-47.505-1.05-70.998-.648-3.567.06-8.311 8.712-8.14 12.151.221 4.335 2.841 12.28 5.845 14.31 6.323 4.284 15.488 10.872 21.666 11.82 23.373 3.592 76.288 8.703 91.853-8.253"/><path fill="#fddd78" d="M148.762 439.706c-1.963-1.417-4.72-3.235-7.544-5.769l-20.121-18.022c-2.543-2.279-20.651 3.345-13.85 30.353l2.995 11.887 6.204 3.481c.99.555 3.686 3.968 2.603 4.258l-5.189 1.417c-1.544.418-4.266.776-3.89 1.442l2.653 4.736c14.012 24.969-1.835 14.362 15.061 29.039l18.347 15.94c17.92 15.574 14.507 14.524 32.205 31.821l29.943 29.278 9.976 9.967c3.49 3.49 7.8 7.202 11.912 10.317 12.288 9.31 38.204 21.828 42.351 3.49 2.594-11.503.862-19.388-5.845-27.537l-24.568-29.85-16.187-18.466-15.045-17.084-20.736-23.552-20.505-23.296-1.442-4.062 5.64 4.276c6.801 5.154 12.97 11.468 18.577 18.397l9.856 12.186c1.272 1.57 5.078 4.284 6.93 5.837 19.48 16.281 8.575 11.742 21.674 24.482 5.572 5.419 9.728 9.907 14.131 15.54l15.053 19.259 13.218 18.918 2.876 12.34c.674 2.9.29 9.506.11 13.926-3.805 4.625-.75 14.157 4.754 14.379l18.014.733c-5.47 3.934-49.502 6.571-58.36 3.474l-17.852-6.238c-25.617-8.952-51.66-12.322-76.945-22.161-10.598-4.122-21.64-7.126-32.802-9.268l-9.856-1.894c2.552 3.499 5.726 7.16 8.056 8.277l27.05 12.997 13.833 6.647c7.441 3.576 14.746 6.357 23.16 9.105l2.918 1.502c-5.496-1.434-13.056-.947-19.832-3.644-3.524-1.408-10.683.103-11.29 3.251l-3.626 18.748c7.416 7.262 18.927 13.398 28.22 20.13l13.329 9.652c12.774 9.25 16.802-.35 23.27 9.77 9.583 14.985 8.039 1.664 23.808 7.953l17.767 7.091c21.111 8.423 1.416 3.892 28.416 19.474 4.693 2.705 8.593 7.296 13.44 11.067l17.723 13.765c.692 2.491 1.818 8.874 2.091 10.965l-31.377-23.646c-4.122-3.106-8.986-6.238-13.414-8.823l-11.06-6.443-10.769-6.178c-10.427-5.974-20.915-10.257-31.923-15.215-35.772-16.086-66.278-34.944-95.257-61.68l-31.164-28.74c-17.895-16.503-20.6-12.723-31.411-26.274-7.006-.947-21.01.171-28.792 2.85l-9.224 8.517c-2.321 2.142-6.17 9.003-6.511 12.194l-1.434 13.662c-.956 9.07 4.088 22.135 10.112 30.233 7.253 9.754 18.142 18.373 29.193 24.047 10.905 5.607 23.287 8.568 34.927 12.672l8.593 3.03c6.673 2.355 11.298 4.685 12.586 13.448l-15.3-3.635-9.958-1.613c-12.297-1.997-33.946-11.733-46.712-19.635C6.238 652.92-4.71 622.703 1.894 593.092c1.528-6.852 8.73-17.229 13.893-21.197l20.019-15.377 37.009-28.04 36.164-29.33c2.142-1.731 6.682-6.869 4.822-8.823-5.684-5.973-15.668-14.617-20.276-17.706L68.08 455.543c-3.704-2.483-6.997-10.368-8.363-15.675l11.879-10.701c1.621-1.46 4.386-5.368 5.359-7.049.546-.358 1.51-.128 2.466-.034l1.809 2.526c1.578 2.202 16.213-8.866 25.924-13.44l11.819-5.564a200 200 0 0 1 15.454 15.966l10.496 12.177c1.254 1.46 3.123 4.463 3.857 5.931z"/><path fill="#f5c251" d="m108.962 499.174 2.987-7.978c-3.132-3.678-9.19-9.003-12.826-11.64l-10.35-7.5c-4.165-3.021-8.884-5.7-13.62-8.841L56.32 450.714c-14.19-9.421 13.687-23.945 20.617-28.57-.973 1.681-3.738 5.58-5.36 7.049l-11.878 10.7c1.357 5.308 4.66 13.193 8.363 15.676l25.446 17.075c4.6 3.09 14.592 11.742 20.275 17.707 1.86 1.954-2.679 7.091-4.82 8.823m-22.118-81.723 2.713-2.526zm4.923-2.475 2.714-2.27zm4.933-2.423 2.662-2.356zm882.372 46.788c-25.114-.086-22.391-.956-47.753 8.533-7.466 2.79-15.274 6.528-21.47 10.923l-31.778 22.51-24.925 19.516c-2.347 1.835-5.428 4.088-7.399 5.283-2.108 1.271-5.939 3.43-7.705 4.906 1.211-2.96 1.45-7.68-.743-8.593-10.368 1.502-23.245 3.26-33.152 5.82l-57.156 14.78-17.34 4.326-18.543 4.591-27.63 6.963-22.853 5.521-18.321 4.36-56.124 12.417-41.293 8.525-14.284 3.029-29.005 6.135L478.464 603l-34.458 7.058-21.956 4.667-87.868 16.017-18.38 3.226c-4.43.776-10.752 1.894-14.627 2.133l-29.414 1.792c-2.97.18-7.048.154-10.044-.05l-22.52-1.571c-4.266-.299-12.202-1.306-16.212-2.355l-44.835-11.7-2.918-1.501c-8.405-2.757-15.71-5.53-23.16-9.105l-13.832-6.648-27.05-12.996c-2.33-1.118-5.505-4.779-8.056-8.277l9.856 1.894c11.161 2.15 22.212 5.146 32.802 9.267 25.284 9.84 51.328 13.201 76.945 22.161l17.852 6.238c8.857 3.098 52.89.46 58.36-3.473 3.566-.273 9.036-.742 13.072-1.698l57.933-13.73 22.11-5.189 38.007-8.797 29.219-6.75 53.743-12.732 27.596-6.775 41.268-9.703 43.648-10.265 19.814-4.43 26.035-5.802 17.553-3.874 26.59-5.726 20.233-4.42 36.326-8.286 52.557-13.986 21.205-6.29 28.314-8.925c2.526-.794 7.586-3.9 10.146-4.839l39.688-14.506c8.517-3.115 16.128-4.856 25.123-5.231l27.639-1.135 2.321 2.645z"/><path fill="#fdf8d2" d="M851.644 342.895c8.192 9.19 20.36 26.308 11.665 36.642-9.105 10.82-25.464-4.002-32.555-10.607l-12.988-12.1c-18.201-16.947-16.81-17.365-33.638-32.964l-19.132-17.733-13.167-11.92-38.084-35.516c-7.825-7.305-16.358-12.903-23.723-20.199l-16.4-16.239c-4.2-4.156-11.043-10.436-13.697-14.387l-8.456-12.612c-.794-1.186-2.338-4.207-2.8-5.53-3.088-8.857 28.647-17.835 41.063-12.825l6.92 5.248c8.423 3.464 14.354 7.876 20.43 14.054l29.44 29.96 13.85 15.59 20.855 23.425c14.515 10.214 18.056 19.746 31.77 34.756l15.368 16.82 9.224 10.35 14.055 15.761z"/><path fill="#f5c251" d="m148.762 439.706 12.74 14.37c1.493 1.68 4.94 4.224 6.588 5.427l1.442 4.062 20.505 23.296 20.736 23.552 15.045 17.084 16.187 18.466 24.568 29.85c6.707 8.149 8.44 16.033 5.845 27.536-4.139 18.338-30.063 5.82-42.35-3.49-4.114-3.114-8.415-6.826-11.913-10.317l-9.976-9.967-29.943-29.277c-17.69-17.297-14.277-16.248-32.205-31.821l-18.347-15.94c-16.896-14.678-1.058-4.08-15.061-29.04l-2.654-4.735c-.375-.666 2.347-1.016 3.891-1.443l5.189-1.416c1.083-.299-1.605-3.704-2.603-4.258l-6.204-3.482-2.995-11.887c-6.801-27.008 11.315-32.631 13.85-30.353l20.121 18.023c2.833 2.534 5.58 4.36 7.544 5.768z"/><path fill="#fdfef5" d="M422.238 558.583c-15.565 16.965-68.48 11.845-91.853 8.252-6.178-.947-15.343-7.543-21.666-11.818-2.995-2.031-5.624-9.984-5.845-14.31-.171-3.44 4.573-12.093 8.14-12.152 23.493-.401 48.094-1.605 70.998.648l13.09 1.289c8.695.853 16.657 2.833 24.584 7.432 6.52 3.78 8.303 14.387 2.552 20.66"/><path fill="#f3bc4d" d="M946.987 550.613c-2.262 1.058-6.324 3.115-9.532 4.19l-29.03 9.754-11.196 3.763-2.475 2.167c-4.983.419-12.723 3.823-18.278 5.888l-14.934 5.556-20.522 7.193c-4.335 1.52-9.967 4.147-14.695 6.306l-17.356 7.92-16.743 7.637c-2.577 1.177-7.142 3.387-9.36 4.83l-27.248 17.638c-17.212 11.144-35.38 28.416-49.203 43.912l-18.611 20.864-14.908 17.076-17.22 19.788-16.06 18.424-10.394 11.912-14.805 16.965-34.782 36.65-10.06.145-27.93-9.736c-5.487-1.912-12.425-2.048-18.637-1.536l-4.352-.265c-1.331-.085.17-6.331 1.263-7.108l17.997-12.732 10.888-7.116c11.853-7.749 22.87-16.197 33.698-25.08l12.297-10.095 25.745-21.052c5.171-4.224 10.36-9.352 15.42-13.943l15.582-14.148 17.075-15.036 34.492-32.162 23.978-22.57 24.448-22.384 15.71-14.071 17.348-14.814 18.722-15.352 34.723-28.97c1.766-1.476 5.597-3.627 7.705-4.907l1.033 6.784 41.378 9.523 19.31 3.217 25.268 4.532c3.652.657 10.573.46 14.268.443z"/><path fill="#fdfad5" d="M395.853 815.556c-17.135-12.774-27.93-24.15-40.516-38.238l-24.44-27.357-8.456-9.455c22.34-23.245 40.917-23.45 66.577-39.817l35.584-13.756c9.173-3.55 29.696.811 37.768 6.119l42.343 27.87c2.039 1.34 4.684 6.656 3.865 8.422-3.729 8.03-24.235 26.172-32.845 32.922l-19.328 15.155-16.896 12.39-17.766 12.152c-8.081 5.53-14.157 9.608-25.907 13.602z"/><path fill="#e8a537" d="m715.426 787.03 11.904-17.247 28.288-35.959c4.728-6.016 10.53-12.527 16.017-18.202l29.176-30.165c10.555-10.914 22.22-20.318 34.167-29.747l11.05-8.73c20.165-15.923 41.396-28.774 65.375-38.255l15.624-6.178 12.561-5.171c.802-.196 1.733-.52 2.287-.444l10.206 1.545c-2.67 6.024-4.71 12.049-7.134 14.506l-16.981 17.178-18.398 18.628-11.153 11.128c-3.908 3.9-8.832 7.637-13.184 11.366l-34.756 29.773c-5.974 5.12-12.288 10.607-17.835 16.29l-49.81 51.038-17.953 19.14-10.436 9.933c-3.422 3.26-8.85 5.419-12.954 3.789-19.857-7.893-22.656-2.722-26.052-14.225z"/><path fill="#f8ca64" d="m939.58 597.385-12.561 5.17c.41-1.62 4.514-5.435 6.741-5.367z"/></svg>