<svg xmlns="http://www.w3.org/2000/svg" viewBox="0 0 1024 1024"><path fill="#eae5d2" d="m500.523 170.325 5.009 3.303c11.195 17.04 13.064 36.557 18.952 54.775 3.09 9.558 2.313 18.407 15.608 15.42-39.586 185.446-55.322 280.764-28.365 472.14 2.202 15.617-3.294 31.932 6.903 46.943 4.992.239 7.996 5.452 10.155 6.656h-11.298c-3.456 15.351 6.059 20.164 16.956 28.262-18.757-1.715-7.86 3.226-5.871 14.345 5.563 31.06 12.663 61.917 17.177 93.064l-11.315-.017c-.128 5.632.154 11.332 0 16.981l-25.71-11.042-26.463-109.192-15.658-26.752c4.044-10.846 6.878-15.096 5.649-28.263-1.835-19.789-9.122-45.457-11.205-65.11-10.205-95.973-8.96-198.86 5.667-293.75 9.66-62.652 29.226-124.135 39.526-186.761-6.827-34.91-24.192-21.982-48.486-25.225-7.57-1.007-7.62-5.657-8.107-5.777z"/><path fill="#eae4d2" d="M297.011 255.121c44.672 2.688 86.332 10.735 104.815 56.303 10.215 25.182 10.616 71.57 8.132 99.046-1.305 14.49-9.284 36.293-11.093 51.098-13.192 107.964-20.369 225.63.102 333.235 5.36 28.152 30.985 96.657 28.314 118.998-2.082 17.425-20.634 16.998-34.492 11.545-7.296-5.12-9.275-29.099-12.339-38.605-3.089-9.566-2.304-18.415-15.607-15.42 12.006-15.35.99-18.15 0-22.613-.24-1.092 5.418-6.903 4.42-12.953-1.826-11.102-8.081-23.996-9.873-35.303-18.005-113.33-14.046-219.878-.103-333.235 1.818-14.805 9.788-36.608 11.094-51.098 2.67-29.67 5.086-100.445-25.344-115.763-12.886-6.485-7.288 17.98-9.174 24.713-.836 2.986-4.753 3.14-4.932 3.541l-.708-47.334c-6.852-14.473-21.658-17.715-33.203-26.155zm407.023-33.92c-14.669 17.69-19.993 33.144-16.956 56.533-1.988-4.07-9.233-7.04-5.666-16.955-32.58 18.338-36.659 59.238-33.792 93.158 39.168 153.89 42.786 294.374 22.494 449.545-.162 1.228-4.232 16.315-5.649 22.613-.094.41-3.652 1.263-4.412 4.25-3.404 13.337-7.97 48.657-17.911 55.39-8.303 5.631-31.326 4.232-34.1-6.221 4.762-34.364 16.35-67.627 22.307-101.667 9.037-51.618 20.386-129.937 17.4-180.949-4.976-85.077-29.961-167.808-34.262-254.029-.341-6.895-6.468-13.115-5.752-22.45.751-9.865 8.517-40.398 12.681-49.98 8.474-19.525 32.384-43.597 53.436-48.308 10.41-2.33 20.77.435 30.19-.921z"/><path fill="#89c24a" d="M557.056 170.325h-22.622c-.085-9.378.137-18.875.009-28.262-.077-5.555-.487-11.46 0-16.956 2.654-30.114 39.722-83.473 65.792-100.975 31.923-21.435 99.302-40.985 123.545-.725 28.809 47.855-36.497 97.971-76.177 115.925-21.103 9.55-80.46 20.89-90.538 31.002zm-33.92-39.569c.905 2.552-.427 7.672 0 11.307.41 3.439.23 7.774 0 11.307-14.763-12.715-23.757-29.585-39.817-42.155-9.95-7.782-71.313-43.571-78.89-36.984-2.586 12.263 6.186 12.8 13.073 18.006 12.766 9.651 28.74 17.297 40.73 27.11 16.69 13.654 29.542 33.084 47.948 45.33-3.592.366-6.238 1.732-5.649 5.648h-50.876c-39.884-9.881-93.312-24.96-118.826-59.247-18.321-24.618-23.894-56.832 3.729-75.64C384.845 1.196 458.103 37.01 491.81 80.12c6.153 7.868 28.757 43.35 31.335 50.637z"/><path fill="#89c04a" d="M297.011 255.121c11.546 8.431 26.36 11.682 33.203 26.155l.709 47.334c-3.61 8.004-8.474 11.99-11.307 16.956-2.236-11.256-14.421 5.948-16.956 8.482-26.154 26.13-47.266 46.37-87.5 48.393-18.245.913-24.423-8.815-34.04-9.874-1.673-.187-2.586 3.926-2.825 3.883-8.422-1.365-13.508-9.694-16.955-11.307 19.285.658 16.145 3.644 16.938-14.071 1.844-41.08 26.24-70.724 60.169-92.561 10.18-6.545 23.5-12.62 35.95-12.1l-22.604-5.64c.572-.129-2.321-4.353 8.252-5.804 10-1.373 26.231-.494 36.966.154"/><path fill="#8ac149" d="M732.297 215.552c11.136 9.856 27.81 10.71 41.574 17.783 44.894 23.066 60.62 56.414 72.627 102.614.82 3.149 4.455 3.686 4.506 3.976.239 1.246-5.598 21.948-6.622 24.491-1.374 3.43-4.54 3.507-4.685 3.772l-5.623-19.763c-8.312 2.5-19.175 12.083-26.445 13.482-8.132 1.57-51.004-16.682-60.416-22.775-9.617-6.221-18.014-16.435-26.232-24.653-2.526-2.526-14.72-19.738-16.955-8.482-5.76-9.6-11.896-17.903-16.956-28.263-3.038-23.39 2.287-38.843 16.956-56.533 8.618-1.246 14.916-5 28.262-5.649z"/><path fill="#69a03e" d="M851.012 339.917c-.06-.299-3.686-.828-4.505-3.977-12.007-46.2-27.742-79.547-72.628-102.613-13.772-7.074-30.446-7.928-41.574-17.784 49.195-2.423 116.668 18.347 147.098 59.239 22.408 30.105 12.962 67.234-28.382 65.126z"/><path fill="#68a03b" d="m251.785 260.779 22.604 5.64c-12.45-.512-25.779 5.555-35.95 12.1-33.93 21.837-58.326 51.474-60.17 92.562-.793 17.715 2.348 14.728-16.938 14.071-14.694-6.852-25.864-.478-28.254-25.472-5.324-55.714 60.792-85.018 105.882-97.826 4.915-1.4 9.515-.316 12.817-1.075z"/><path fill="#decda9" d="M528.785 769.562c15.258 8.541 36.156 12.39 47.957 28.356 24.039 32.52 4.907 90.35 25.447 110.225 17.314 16.76 34.611 12.049 44.433 46.012 1.502 5.196 5 20.454-4.762 18.901.53-38.042-63.863-46.916-67.993-76.169-4.788-33.954 11.067-64.025-22.699-90.419-5.103-3.985-12.348-5.384-16.734-8.653-10.888-8.106-20.403-12.91-16.956-28.262h11.299z"/><path fill="#76ad43" d="M319.625 345.574c-5.325 9.353-8.116 20.267-16.854 31.198-29.303 36.642-106.7 92.28-124.476 19.687.24.034 1.152-4.07 2.825-3.883 9.626 1.058 15.804 10.795 34.04 9.873 40.234-2.022 61.337-22.263 87.5-48.392 2.543-2.535 14.729-19.738 16.956-8.483z"/><path fill="#76b043" d="M704.034 306.005c2.236-11.255 14.43 5.957 16.956 8.482 8.217 8.21 16.614 18.424 26.231 24.653 9.413 6.093 52.293 24.346 60.416 22.776 7.27-1.4 18.134-10.983 26.445-13.483l5.624 19.763c-6.63 11.657-13.91 16.99-26.47 22-48.769-3.26-83.09-37.684-108.178-76.562-1.63-2.526-.136-6.152-1.024-7.629"/><path fill="#b3c880" d="M534.443 142.063c.128 9.395-.094 18.893-.009 28.28h22.622c-13.722 13.755-12.706 53.572-16.956 73.48-13.295 2.987-12.518-5.862-15.607-15.42-5.888-18.218-7.757-37.734-18.953-54.775l-5.009-3.303c-.589-3.916 2.065-5.282 5.65-5.649 5.554-.571 11.4.453 16.98 0 .188-3.737-.264-7.569-.016-11.306.23-3.533.41-7.868 0-11.307h11.306z"/><path fill="#d8c7a5" d="M364.843 848.7c.99 4.463 12.006 7.262 0 22.613-23.936 30.592-16.248 23.168-22.725 59.247-4.096 22.827-12.723 48.683-39.458 53.803 33.605-28.664 14.43-69.07 29.44-103.39 4.847-11.076 18.33-32.964 32.743-32.273"/><path fill="#d8c8a6" d="M670.114 803.482c6.375 7.919 15.82 11.178 22.716 19.677 27.93 34.432 3.174 83.79 33.809 115.986-10.249 1.723-17.306-7.143-21.888-14.84-18.705-31.411-4.65-76.083-40.294-98.21 1.416-6.298 5.495-21.385 5.649-22.613z"/><path fill="#dbcaa8" d="M466.603 775.21c-3.252 8.713-9.942 15.65-11.307 25.456-3.465 24.815 7.083 55.04-14.14 76.296l3.055-42.658c-12.518-35.072-5.077-68.207 28.04-87.356 1.221 13.167-1.604 17.417-5.648 28.263"/><path fill="#decfb1" d="M545.75 905.233c2.969 20.497 8.251 35.183 5.52 59.221-2.33 20.54-15.624 38.742-16.836 59.512l-11.28-2.825c16.349-30.54 10.427-65.69 11.289-98.952.145-5.64-.137-11.341 0-16.982l11.315.018z"/><path fill="#e8f6d4" d="M534.443 142.063h-11.307c-.427-3.635.905-8.755 0-11.307l11.307-5.649c-.487 5.504-.077 11.4 0 16.956"/><path fill="#6eab3c" d="M523.136 153.37c-.247 3.737.205 7.569.017 11.306-5.58.453-11.418-.571-16.981 0-18.407-12.237-31.258-31.667-47.95-45.329-11.988-9.805-27.963-17.45-40.729-27.11-6.886-5.206-15.658-5.743-13.073-18.006 7.586-6.587 68.95 29.202 78.89 36.984 16.06 12.57 25.055 29.44 39.817 42.155z"/></svg>