<svg xmlns="http://www.w3.org/2000/svg" viewBox="0 0 1024 1024"><path fill="#fecd01" d="M888.875 379.904c-.53 2.193-3.806-.29-10.616 2.67l-26.769 11.632c-4.847 2.108-9.523 3.772-13.9 5.359-5.394 1.962-10.957 4.113-16.035 6.434-.981.213-2.773.58-3.678.862-3.9 1.229-11.153 4.36-15.249 5.811l-8.542 3.02c-5.273 1.861-10.53 3.824-14.14 8.107-2.448 1.17-6.16 2.944-8.251 4.549l-9.105 6.997c-1.997 1.536-4.036 3.2-5.538 4.557-.828.742-2.168 2.184-2.953 3.055-1.169.444-4.121 1.715-5.41 2.713l-9.216 7.126c-2.824 2.184-6.289 4.488-9.318 6.45-4.062 2.638-7.655 6.35-11.358 9.405-2.407 1.98-7.185 4.761-10.138 6.639l-7.774 4.94-8.542 6.136c-1.698 1.22-4.24 2.611-5.862 3.541-4.48 2.56-12.075 8.918-12.817 9.395l-9.813 6.426-16.367 9.822-9.472 6.297-16.069 9.353c-1.314.768-3.438 1.775-4.522 2.133-22.904 7.544-43.418 31.13-59.657 49.468-2.875-.11-6.195-.879-9.275-2.065l-16.171-6.23-23.313-8.976c-1.135-.436-2.68-2.868-2.586-3.695l5.103-5.684 20.94-22.425c6.82-7.305 13.654-13.841 21.095-20.881 31.625-29.892 64.23-56.627 99.345-82.475 25.49-18.765 70.307-48.81 97.844-62.882l31.027-15.855c.64-.324 2.415-1.8 2.577-1.997 1.732.214 4.77.64 6.86 1.238l56.773 16.384zm-110.67 28.22 29.407-17.826 16.682-10.317c1.11-.691 2.8-4.327 2.04-5.316-.572-.743-2.39-2.364-3.362-2.731l-17.016-6.426-11.34-4.002c-3.405-1.203-9.071-.162-12.237 1.69l-10.47 6.101-65.119 39.458c-1.39.845-3.097 4.344-2.884 5.837s2.398 4.548 3.934 5.197l23.893 9.992c3.968 1.656 9.976.453 13.466-1.706l18.261-11.29 14.746-8.67z"/><path fill="#fdd003" d="M755.695 341.205c3.848.495 10.675 2.5 14.157 3.644-.29.52-2.245 2.347-3.397 2.884-41.6 19.388-87.492 48.726-124.416 76.237l-15.001 11.179c-28.1 20.932-58.206 46.438-83.823 70.622-8.602 8.123-17.041 15.889-24.986 24.695l-25.36 28.109-13.253-4.736.836-3.277 11.827-13.62c17.34-19.959 36.199-37.674 56.389-54.826l35.729-30.353c17.194-14.6 83.277-63.786 100.104-73.241 3.567-1.997 7.27-4.19 11.256-6.656l14.745-9.105 14.396-8.107 19.03-10.505c3.234-1.783 8.405-3.379 11.758-2.952z"/><path fill="#fdf4cb" d="M773.129 345.097c0 .11 1.288 1.04 1.885 1.203 2.432.648 6.955 2.201 9.336 3.336-.162.197-1.929 1.673-2.577 1.997l-31.027 15.855c-27.537 14.071-72.355 44.126-97.844 62.882-35.114 25.848-67.72 52.583-99.345 82.475-7.44 7.04-14.276 13.576-21.094 20.88l-20.94 22.426-5.104 5.684c-.81.904-2.372 2.628-3.217 3.788l-17.288 23.826-11.247-4.446c3.217-6.571 15.701-23.663 18.201-26.437l25.361-28.108c7.945-8.798 16.376-16.572 24.986-24.696 25.626-24.183 55.731-49.69 83.823-70.622l15.001-11.178c36.933-27.512 82.816-56.858 124.416-76.237 1.152-.538 3.115-2.364 3.397-2.884.785.256 2.398.23 3.277.247z"/><path fill="#fcc802" d="m269.09 355.789-.017 1.715c-.87.393-3.012 1.425-3.968 2.057l-14.694 9.693-52.788 34.262-54.297 35.746-75.554 49.792-8.747 5.709-45.073 29.926L0 517.521c2.867-1.766 5.862-3.063 6.588-4.437l4.838-9.122 16.026 1.237 5.017-14.49 16.359.743 3.712-11.41c.554-1.697 3.797-3.507 5.52-3.37l12.442.956 4.412-13.227c.401-1.203 4.736-1.587 6.025-1.502l11.008.674 5.265-14.353 11.306.418c1.127.043 4.805-.529 5.137-1.51l4.515-13.047 16.384.546 4.394-14.089 7.134-.145 9.25-.085 4.813-13.918 11.443.665c1.733.103 5.376-1.911 5.93-3.763l3.064-10.163c1.699-.068 5.163-.12 7.296-.034l8.79.35 5.384-14.498 15.087 1.578 5.64-14.643 11.563.504c1.443.06 4.463-1.434 4.95-2.714l4.352-11.383 14.805 1.297 3.046-4.899a73 73 0 0 1 7.587 6.11z"/><path fill="#fdf5dd" d="M723.191 333.867c.163.102-2.577 1.288-3.515 1.314l-25.182.657c-3.268.085-7.04.708-9.336 1.04l-96.98.223-91.59.546-16.264-.913-1.604-2.808 11.298-1.911 14.421-1.297 11.299-1.502 12.893-1.8 87.151-13.483 25.617-4.48c1.818-.316 5.504.717 7.86 1.365l37.009 10.172 33.34 9.489c1.186.333 3.694 3.02 3.592 3.388z"/><path fill="#fed321" d="M507.785 254.797c.46.444.998.981 1.501 1.126 1.775.512 5.257 1.425 7.27 2.279l39.007 16.435 5.196 2.79c.12.026-1.723 2.048-2.397 2.398l-28.297 14.805-35.354 18.364-11.161 6.127c-.939.512-2.296 2.15-2.74 3.123-.998 2.21 3.167 10.607 9.191 9.762l-11.298 1.912 1.604 2.807c-3.089-.17-9.591-3.771-13.884-7.628-7.671-6.887 7.151-26.932 11.785-34.339l6.716-10.726c.717-1.152 1.672-4.378 1.911-5.3l10.274-10.717 4.42-7.714 3.184-5.581 3.063.068z"/><path fill="#fcc903" d="M286.737 371.738c.367-.24 1.289-.043 1.638.196l6.511 4.582-17.34 12.024-37.145 25.446-111.514 73.412-80.281 53.206c-.99.657-3.772 1.664-4.634 1.92l-7.629-4.83 57.55-38.323 14.557-9.677 14.507-9.66 7.722-5.111 18.578-12.237 34.833-22.904 7.765-5.12 10.598-7.023 8.773-5.82 21.384-14.182 33.86-22.622 13.722-9.088 6.545-4.206z"/><path fill="#fccb02" d="m274.193 362.172 5.094 1.98 1.468 1.433-.222 1.92c-.204.256-1.868 1.826-2.799 2.432l-43.323 28.22-9.634 6.152-15.625 10.377-16.478 10.923-57.318 37.939-14.294 9.42-18.534 12.16-67.635 44.894c-2.21 1.468-5.026 2.595-7.049 3.004l-6.417-3.413c-.179-.111 1.553-2.518 2.714-3.286l48.444-32 14.813-9.779 16.333-10.752 22.383-14.77 37.615-24.884 9.011-5.914 29.952-19.695 16.905-10.94 9.344-6.118 22.323-14.822 18.355-12.194c1.16-.768 3.652-1.886 4.583-2.27z"/><path fill="#fc7e01" d="m610.73 302.635-23.492 4.275-48.563 7.85-50.014 7.501c-.648.094-3.678-.085-4.172-.426-.751-.504-.7-1.297-.922-2.714l11.162-6.127 35.353-18.364 28.297-14.805c.674-.35 2.517-2.372 2.398-2.398 11.17 6 37.708 16.785 49.962 25.208z"/><path fill="#fed434" d="M755.695 341.205c-3.345-.426-8.525 1.17-11.759 2.953l-19.03 10.504-14.395 8.107-14.746 9.105c-3.993 2.466-7.688 4.66-11.255 6.656.896-.034-2.816-1.177-3.644-.828l-25.02 10.445c-3.208 1.34-5.597 2.202-7.901 3.012l5.538-8.533c1.425-2.193 3.49-7.168 5.137-9.045l12.168-13.799 6.093-7.16 8.696-10.196c.955-1.118.384-5.624-.419-5.556 2.296-.332 6.068-.955 9.336-1.04l25.182-.658c.938-.025 3.67-1.211 3.515-1.314l11.648 1.374c2.518.299 21.795 4.77 20.856 5.965z"/><path fill="#fb8002" d="M269.073 357.504c2.39.47 4.625 2.372 5.12 4.668-.939.384-3.422 1.502-4.582 2.27l-18.356 12.194-22.323 14.822-9.344 6.119-16.904 10.94-29.952 19.694-9.011 5.914-37.615 24.883-22.383 14.771-16.333 10.752-14.814 9.78-48.444 32c-1.16.767-2.893 3.174-2.713 3.285l-7.467-4.915 45.073-29.927 8.747-5.709 75.554-49.792 54.297-35.746 52.788-34.261 14.694-9.694c.956-.631 3.106-1.664 3.968-2.057z"/><path fill="#fb7e02" d="m286.737 371.738-6.545 4.207-13.722 9.088-33.86 22.621-21.384 14.183-8.773 5.82-10.598 7.022-7.765 5.12-34.833 22.904-18.578 12.237-7.722 5.111-14.507 9.66-14.558 9.677-57.549 38.323-8.516-4.693c2.023-.41 4.839-1.536 7.049-3.004l67.635-44.894 18.534-12.16 14.294-9.42 57.318-37.94 16.478-10.923 15.624-10.376 9.635-6.153 43.323-28.22c.93-.605 2.594-2.175 2.8-2.431 2.389.844 4.641 2.33 6.212 4.232z"/><path fill="#fdd409" d="M610.73 302.635c1.29-.23 30.61 5.214 30.66 6.818l-25.616 4.48-87.151 13.482-12.894 1.801-11.298 1.502-14.421 1.297c-6.025.845-10.19-7.552-9.19-9.762.434-.973 1.8-2.611 2.738-3.123.222 1.416.171 2.21.922 2.713.495.342 3.524.52 4.173.427l50.014-7.5 48.563-7.852 23.492-4.275z"/><path fill="#fbca03" d="M467.413 228.898c0 .632-1.527 3.345-2.645 4.045l-11.819 7.424-28.689 18.04-21.47 13.815-45.85 28.92-2.423-1.383-4.855-3.439c-.922-.657-3.712-1.297-4.565-1.348l4.317-8.96 10.394 1.083c1.408.146 5.257-.733 5.692-2.03l3.695-11.06 8.268.205c1.86.043 5.667-.128 7.254-.273l5.017-12.988 14.6 1.314 5.283-13.969 14.959 1.289 5.23-13.96 12.016 1.186c1.271.128 3.908-1.716 4.412-2.91l4.343-10.394c2.68-.47 8.73-1.058 10.641.47l6.178 4.923z"/><path fill="#fce7a1" d="M354.509 299.75c-.128.367-.896 2.944-1.28 3.798l-30.148 19.03-31.65 20.172-19.337 12.493-3.012.537a73 73 0 0 0-7.587-6.11l4.43-10.965 15.99.708 4.319-12.032c.469-1.305 3.652-2.799 5.094-2.696l11.674.793 5.35-14.31 15.13.836 5.76-13.337 9.736.435c1.613.068 4.463.18 4.873-.905l1.228-3.234c.854.051 3.644.7 4.566 1.348l4.855 3.44z"/><path fill="#fbca03" d="M494.6 246.69c.248.512-.913 3.857-1.962 4.523l-76.109 48.418c-6.502 4.13-11.554 7.518-16.708 11.571-1.8.734-4.36 1.903-6.4 3.09l-11.008 6.39-1.98-.016-3.132-2.979c-.486-.46-.682-1.86-1.33-2.022 2.039-1.621 4.701-3.66 7.252-5.282l17.75-11.315 75.469-48.086 11.87-7.33c1.732.82 4.804 2.125 6.297 3.038z"/><path fill="#fccd02" d="m475.563 235.281 4.966 3.533c-.213.47-2.176 3.055-3.046 3.61l-18.62 11.895-25.532 16.316-18.483 11.818-9.754 6.221-35.754 22.468-3.49-1.834c-.444-.23-1.067-.982-1.434-1.297l-1.195-3.405 47.42-29.56 47.974-30.557 10.266-6.52c1.698-1.075 4.924-2.244 6.682-2.696z"/><path fill="#052034" d="m507.785 254.797-3.064-.068-69.948 44.535-25.856 16.46c-3.225-1.126-6.912-2.875-9.113-4.53 5.154-4.054 10.206-7.441 16.708-11.572l76.109-48.418c1.058-.674 2.21-4.01 1.962-4.522l8.995 5.53 4.198 2.585z"/><path fill="#f98b02" d="m488.294 243.644-11.87 7.33-75.468 48.085-17.75 11.315c-2.543 1.622-5.213 3.661-7.253 5.283-1.963-.487-5.888-2.168-6.622-4.523l35.755-22.468 9.753-6.221 18.484-11.819 25.531-16.316 18.62-11.895c.87-.555 2.842-3.149 3.047-3.61l7.765 4.839z"/><path fill="#fa8d02" d="M475.563 235.281c-1.758.452-4.984 1.621-6.682 2.697l-10.266 6.52-47.974 30.557-47.42 29.56-4.915-.572c-.862-.103-.614-2.466-1.365-2.893l45.85-28.92 21.47-13.815 28.688-18.04 11.819-7.424c1.118-.7 2.637-3.413 2.645-4.044 2.961 1.459 6.05 3.9 8.15 6.383z"/><path fill="#f4a101" d="M430.61 582.955c-1.477.11-3.91 2.423-4.2 4.002l-4.812 25.975c-3.644 19.678-5.257 58.274-2.603 77.5l-145.962-48.299c-1.895-.631-5.47-.802-6.938-.879l-4.796-3.737 8.337 1.22c1.17-2.62 2.594-6.682 3.158-9.404l30.395-11.17 13.108-4.668 30.839-11.025 36.787-13.184 33.562-11.545 13.116 5.222z"/><path fill="#f9a101" d="M478.985 600.175c5.12 3.251 11.144 5.615 17.501 8.192l33.246 13.448c1.8.726 5.154 1.374 6.861 1.639l-9.199 52.992c-.93 5.342-.674 8.047.205 10.726l2.773 8.44c1.562 4.744 2.748 9.745 4.992 14.182 2.373 11.955 5.854 14.447 12.63 24.943l-83.977-28.416-.845-9.532-1.186-15.641c-.887-11.708-.35-23.535.495-35.448l.939-13.243a486 486 0 0 1 5.299-30.874c1.314-6.451-12.57-9.233-14.302-7.441.316-1.348 1.323-3.832 1.775-5.223.82-2.491 1.988-7.116 3.217-9.233l10.453 3.038c1.127.325 4.173 1.895 3.909 2.867l-1.195 4.352c-.41 1.485-2.995 6.162-1.698 7.066 1.963 1.365 5.973 2.756 8.09 3.166z"/><path fill="#fd6d01" d="m430.61 582.955 12.611 4.53c-10.069 37.283-11.767 69.445-8.175 107.965-5.563-.222-10.93-3.32-16.05-5.018-2.663-19.226-1.042-57.822 2.602-77.5l4.813-25.975c.29-1.579 2.73-3.891 4.198-4.002"/><path fill="#fc7501" d="M464.026 706.321c-5.376-1.818-10.718-4.13-15.847-6.263l-1.126-17.58c-1.929-30.045.776-60.108 7.364-88.345 1.732-1.8 15.625.99 14.302 7.441a492 492 0 0 0-5.3 30.874l-.938 13.244c-.845 11.912-1.382 23.74-.495 35.447l1.186 15.642.845 9.532z"/><path fill="#e2b972" d="M456.2 588.92c-.452 1.39-1.459 3.874-1.774 5.222-6.588 28.228-9.293 58.3-7.365 88.345l1.127 17.58c-3.866-1.614-9.984-1.324-13.142-4.617-3.6-38.52-1.894-70.682 8.175-107.964 7.732 2.782 8.935 4.966 12.98 1.433"/><path fill="#fddc65" d="m778.206 408.124-14.746 8.67-18.261 11.29c-3.49 2.158-9.498 3.361-13.466 1.706l-23.893-9.993c-1.536-.64-3.73-3.703-3.934-5.196-.213-1.494 1.493-4.992 2.884-5.837l65.118-39.458 10.47-6.102c3.167-1.843 8.833-2.893 12.237-1.69l11.341 4.003 17.016 6.425c.973.367 2.79 1.989 3.362 2.731.76.99-.922 4.625-2.04 5.316l-16.682 10.317-29.406 17.826zm-18.09 1.502-12.963-6.767c-.776-.41-2.85-1.878-2.551-2.586s1.757-2.662 2.568-3.149l12.553-7.535 15.198-9.207 18.491-11.435-2.193-1.886-19.498 11.41-15.173 8.891-14.558 8.542c-3.089 1.81-5.06 3.174-8.891 5.888 2.227 1.869 4.753 3.695 7.142 4.753l12.536 5.547c1.885.836 5.862-.717 7.338-2.475zm9.463-4.941 42.905-26.07c.606-.366 2.432-2.474 2.415-2.406.265-1.297-8.175-6.656-13.508-3.37l-16.034 9.855-27.213 16.717c3.37 3.226 5.999 4.65 11.435 5.29zm-23.646 12.484c-14.336-5.58-22.503-15.718-30.6-3.362 9.77 4.77 24.157 15.522 30.6 3.362"/><path fill="#fde695" d="M492.868 558.575c-2.5 2.773-14.976 19.866-18.201 26.436l11.247 4.446 17.288-23.825c.845-1.16 2.407-2.884 3.217-3.789-.085.836 1.46 3.26 2.586 3.695l23.313 8.977 16.17 6.23c3.073 1.186 6.392 1.954 9.276 2.065-2.568 2.9-5.359 6.28-7.919 9.94l-5.53 7.928c-2.807 4.02-4.496 9.31-4.343 13.748.077 2.27-1.22 4.59-3.336 5.418l1.39-7.816-17.962-7.74-34.688-14.438-6.383 10.325c-2.125-.401-6.135-1.8-8.09-3.166-1.297-.904 1.289-5.58 1.699-7.066l1.194-4.352c.265-.964-2.79-2.534-3.908-2.867l-10.453-3.038c5.785-9.94 13.593-20.565 21.034-29.124l-.836 3.277 13.252 4.736z"/><path fill="#f9faf3" d="M617.335 534.613c-4.471 2.825-8.686 6.964-11.554 11.392-2.96 2.074-5.777 4.924-7.893 7.894-4.326 3.49-8.218 8.004-11.085 12.791-3.26 1.954-6.246 5.163-8.158 8.525-4.548 3.14-8.507 7.543-11.153 12.382-3.208 2.056-6.16 5.188-8.09 8.499-4.053 2.705-7.765 6.596-10.086 10.837l-7.8 7.646-1.552-.153c-.154-4.438 1.536-9.728 4.343-13.748l5.53-7.927c2.551-3.66 5.35-7.04 7.919-9.941 16.239-18.339 36.753-41.925 59.656-49.468l-.077 1.263z"/><path fill="#fecf0a" d="m480.324 336.734 16.265.913 91.588-.546 96.981-.222c.803-.06 1.374 4.437.419 5.555l-8.696 10.197-6.093 7.16-12.168 13.798c-1.647 1.87-3.712 6.844-5.137 9.046l-5.538 8.533-47.412 27.136-29.79 16.768c-5.614 3.157-12.484 6.682-19.003 8.329l-94.012 23.756-57.822 14.618-62.908 15.889-27.315 6.835c-3.66.913-9.634 3.149-12.604 4.386-.494.205-2.048 1.425-2.124 1.954-.41 2.808 3.32 8.798 6.084 9.447l5.41 1.271c.333.077 1.058-.017 1.442-.042l3.2 2.176c2.355 1.604 4.856 3.635 6.784 5.683l2.44 2.594c.479.503-2.278 2.927-2.858 2.526-1.74-1.195-5.538-3.925-6.972-5.453-9.89-10.564-11.272.589-17.305-7.8-7.808-10.854-8.568-4.616-11.008-11.69-1.007-2.91 7.014-5.427 6.69-8.644l13.192-10.667 32.913-24.158 25.558-18.893c1.416-1.05 2.739-5.103 2.423-6.622-1.459-7.014-24.994-14.694-33.254-17.646-14.635-5.231-52.676 12.245-66.364 20.138-18.859 10.872-30.643 22.545-43.895 39.91-2.168 2.834-1.528 8.73.153 11.393l-46.797 14.532-36.864 11.144-28.433 8.739-25.531 8.183c-3.448 1.1-8.84 3.541-11.316 6.101-1.399 1.451 2.091 7.45 4.438 7.476l33.57.315c.162.154-2.671 1.425-3.627 1.425l-30.14.052-11.588.17-9.028-3.473c4.207-2.91 8.055-5.273 10.513-6.451.606-.29 1.434-1.135 1.971-1.536 7.552-5.547 22.861-15.812 30.917-21.094l17.015-11.162 17.596-11.657 110.95-73.668a106 106 0 0 0 8.49-6.255l11.24-4.804c2.022-.691 4.582-1.621 6.945-2.637l13.406-5.76 9.302-4.028 20.89-9.181 29.226-12.843 30.78-13.97c9.6-4.351 15.718-6.536 24.03-13.277l44.518-36.139 19.737-15.83 13.159-11.135c3.396-2.876 9.156-5.982 11.912-8.858-.247.922-1.194 4.156-1.911 5.3l-6.716 10.726c-4.633 7.398-19.456 27.443-11.784 34.338 4.292 3.857 10.803 7.45 13.883 7.629z"/><path fill="#fe7701" d="m179.465 549.129 7.04 10.129 8.814 12.586 24.09 34.995c-.307 1.554-1.015 4.31-1.672 5.837l-1.605 3.712c-.486-.017-1.33-.042-1.74.17-.794-.63-3.107-2.269-4.293-2.807l-13.5-6.092-85.358-35.209c-16.632-6.86-32.64-12.595-47.958-19.95l11.588-.171 30.14-.052c.947 0 3.78-1.271 3.627-1.425l44.749-.853 26.078-.862z"/><path fill="#fc7001" d="M327.56 357.308c2.57 1.246 4.924 3.379 6.93 6.289-4.643 3.746-7.595 6.024-11.58 8.559l-22.946 14.592-20.915 13.883c-5.871 3.9-11.316 7.655-16.094 11.776l-11.239 4.805c-3.541-1.647-7.526-2.859-11.306-3.226l37.145-25.446 17.34-12.024 28.868-17.595c.836-.512 3.166-1.408 3.798-1.622z"/><path fill="#fdd949" d="m64.777 542.575 1.97-1.536c-.537.401-1.365 1.246-1.97 1.536"/><path fill="#feedc7" d="M684.51 378.53c-16.836 9.455-82.919 58.641-100.105 73.242l-35.729 30.353c-20.19 17.152-39.048 34.867-56.388 54.826l-11.827 13.62c-7.441 8.567-15.258 19.191-21.035 29.124-1.229 2.108-2.398 6.733-3.217 9.233-4.045 3.533-5.248 1.34-12.98-1.434 1.085-4.002 2.714-7.611 5.044-13.115l-36.932-14.217-18.5-6.989-67.994-25.66c-5.897-2.227-11.674-4.36-16.947-6.015-.384.025-1.11.128-1.442.042-1.084-3.515-11.631-1.843-9.37-12.672 2.97-1.237 8.943-3.464 12.604-4.386l27.315-6.835 62.908-15.89 57.822-14.617 94.011-23.757c6.511-1.646 13.39-5.17 19.004-8.328l29.79-16.768 47.411-27.136c2.304-.81 4.693-1.673 7.902-3.012l25.02-10.445c.827-.341 4.54.793 3.643.828z"/><path fill="#fbb730" d="M356.94 301.133c.752.435.504 2.799 1.366 2.893l4.915.571 1.195 3.405c-1.775-.998-5.58-.768-7.441.418l-59.759 38.05-21.214 13.517 3.277 4.156-5.094-1.98c-.495-2.295-2.731-4.198-5.12-4.668l.017-1.715 3.012-.537 19.336-12.493 31.65-20.173 30.149-19.03c.384-.861 1.152-3.43 1.28-3.797l2.423 1.383z"/><path fill="#fd9501" d="M486.852 278.741c-2.756 2.876-8.516 5.982-11.912 8.858l-13.159 11.136-19.737 15.83-44.519 36.138c-8.311 6.75-14.43 8.926-24.03 13.278l-30.78 13.969-29.226 12.843-20.89 9.181-9.3 4.028-13.407 5.76c-2.363 1.016-4.923 1.954-6.946 2.637 4.779-4.122 10.223-7.876 16.094-11.776l20.915-13.884 22.946-14.592c3.985-2.534 6.938-4.813 11.58-8.559-2.005-2.91-4.352-5.043-6.929-6.289.06-1.433 16.282-12.16 17.63-11.11l5.58 6.477 12.1-7.57 5.198-3.302 7.074-4.505 11.383-7.254c.7-.444 1.69-2.492 1.17-3.02l-2.125-2.142c-.99-.999-2.458-3.064-3.166-4.199l11.008-6.391c2.04-1.186 4.6-2.356 6.4-3.09 2.201 1.648 5.888 3.405 9.113 4.532l25.856-16.461 69.948-44.535-3.183 5.58-4.42 7.714-10.274 10.718z"/><path fill="#fceeb4" d="m377.293 317.687 3.132 2.979c-.623 5.205-31.983 19.976-35.235 25.54-1.348-1.05-17.57 9.668-17.63 11.11-.63.214-2.96 1.11-3.797 1.622l-28.868 17.595-6.511-4.582c.068-.58 1.886-2.978 2.918-3.635l27.674-17.639 27.435-17.288 25.139-15.787 5.76.094z"/><path fill="#fab733" d="M369.34 311.142c.734 2.364 4.65 4.045 6.622 4.523.648.162.844 1.562 1.33 2.022l-5.76-.093-25.138 15.786-27.435 17.289-27.674 17.638c-1.024.657-2.841 3.055-2.918 3.635-.35-.247-1.272-.435-1.638-.196-1.57-1.903-3.823-3.388-6.213-4.232l.222-1.92c2.125-.29 5.786-1.323 7.953-2.723l42.48-27.315 36.206-22.895-1.536-3.353 3.49 1.834z"/><path fill="#fbeab0" d="M364.416 308.002c.375.316.99 1.067 1.434 1.297l1.536 3.354-36.207 22.895-42.48 27.315c-2.167 1.39-5.828 2.432-7.952 2.722l-1.468-1.434-3.277-4.155 21.214-13.517 59.759-38.05c1.869-1.186 5.675-1.417 7.441-.418z"/><path fill="#fdb101" d="M272.802 629.333c-.572 2.722-1.997 6.784-3.157 9.404l-8.337-1.22L232.55 624.4l-16.4-8.013 1.604-3.712c.657-1.527 1.356-4.283 1.672-5.837 3.183-2.602 10.044-29.158 11.435-34.91l7.79-32.255c.504.776 2.629 3.805 3.039 5.154l13.747 45.363 10.538 36.258c.53 1.818 5.36 3.311 6.844 2.901z"/><path fill="#fca130" d="M345.19 346.206c3.252-5.564 34.612-20.335 35.235-25.54l1.98.017c.708 1.135 2.175 3.208 3.165 4.198l2.125 2.142c.52.52-.47 2.577-1.17 3.02l-11.383 7.254-7.074 4.506-5.197 3.302-12.1 7.57-5.58-6.478z"/><path fill="#fdd016" d="M288.853 500.89c.325 3.217-7.688 5.734-6.69 8.644 2.44 7.065 3.2.828 11.008 11.69 6.033 8.389 7.416-2.764 17.306 7.8 1.433 1.536 5.23 4.267 6.972 5.453.58.392 3.328-2.023 2.858-2.526l-2.44-2.594c-1.929-2.048-4.42-4.08-6.784-5.683l-3.2-2.176c5.265 1.655 11.05 3.788 16.947 6.016l67.993 25.66 18.5 6.988 36.933 14.217c-2.33 5.504-3.96 9.113-5.043 13.115l-12.612-4.53-13.116-5.223-33.562 11.545-36.787 13.184-30.84 11.025-13.107 4.668-30.395 11.17c-1.485.418-6.315-1.083-6.844-2.901l-10.539-36.258-13.747-45.363c-.41-1.349-2.534-4.378-3.038-5.154 1.195-2.424-4.377-18.816-5.743-21.718-.768-1.63-5.913-.64-7.424.359l-22.912 15.18-13.312 7.382c1.331-2.296 3.618-6.28 5.65-8.26l29.32-28.63 6.724-6.127 30.55 10.923c8.046 2.876 15.248 2.415 21.657-4.08 1.212-1.228 4.42-2.772 5.709-3.822z"/><path fill="#fdd303" d="m536.627 619.853.342 2.167c-.128.435-.308 1.067-.376 1.442-1.715-.264-5.069-.913-6.86-1.638l-33.247-13.449c-6.357-2.568-12.381-4.932-17.501-8.192l6.382-10.325 34.688 14.439 17.963 7.74z"/><path fill="#fdd105" d="M769.579 404.685c-5.445-.632-8.064-2.065-11.435-5.29l27.213-16.718 16.034-9.856c5.333-3.276 13.773 2.082 13.508 3.371.017-.068-1.809 2.04-2.415 2.406l-42.905 26.07z"/><path fill="#fcd317" d="M760.115 409.626c-1.476 1.757-5.453 3.31-7.338 2.474l-12.536-5.546c-2.39-1.059-4.915-2.885-7.142-4.753 3.831-2.714 5.802-4.08 8.891-5.888l14.558-8.542 15.173-8.892 19.498-11.41 2.193 1.887-18.491 11.434-15.198 9.208-12.553 7.535c-.81.486-2.27 2.432-2.568 3.149s1.766 2.184 2.551 2.585l12.962 6.767z"/><path fill="#fcd107" d="M745.933 417.17c-6.443 12.16-20.83 1.407-30.6-3.363 8.097-12.356 16.255-2.219 30.6 3.362"/><path fill="#f41814" d="M288.853 500.89c-1.288 1.04-4.497 2.585-5.708 3.823-6.409 6.493-13.611 6.954-21.658 4.078l-30.55-10.922c-3.652-1.306-7.611-2.466-11.357-3.516-1.681-2.662-2.321-8.55-.154-11.392 13.252-17.374 25.037-29.039 43.896-39.91 13.687-7.894 51.729-25.37 66.363-20.139 8.26 2.953 31.796 10.641 33.255 17.647.315 1.519-1.007 5.572-2.424 6.622l-25.557 18.893-32.913 24.157-13.193 10.667zm38.665-64.367-5.163-2.031v-1.16l-1.502-1.58c-9.523-.733-9.054 5.71-14.933 3.798-3.106-1.007-8.986.324-9.105 2.74 4.241 4.983-6.639 10.282-8.03 10.478l-7.381 1.041c-.93.128-3.32 3.43-2.552 3.934s1.698 1.032 3.584 1.937l26.19 12.62c2.158 1.042 6.911-1.74 8.916-3.105l23.04-15.676c.87-.589 2.373-3.157 2.176-4.173s-2.099-3.473-3.165-3.908l-12.067-4.924zm-67.635 29.013c-2.526 2.483-.52-1.16-6.597 3.251l-14.668 10.65c-.683.495-1.86 2.32-2.193 3.046-.436.964 3.046 2.765 4.044 2.44l5.052-1.646c.444.333 1.314.99 1.562 1.502.546 1.143 1.911 4.838 2.918 4.318l9.745-5.018c.691-1.647.828-.46.751 1.792-1.74 2.645-1.98 7.714 1.263 9.335 4.13 2.074 9.967 1.178 13.781-1.527l24.704-17.46c1.033-.733 2.142-2.892 2.364-3.669.29-1.04-3.285-2.944-4.292-2.551-6.895 2.662-18.705 14.643-28.868 18.74 3.319-8.483 10.555-11.325 16.81-16.445l5.59-4.573c-1.187-1.502-5.41-3.107-7.143-2.048l-4.565 2.79-3.226-6.093c-.708-1.331-2.816-3.584-4.096-4.284-1.527-.836-5.802.41-7.057 1.647l-5.888 5.803z"/><path fill="#fdd949" d="m230.938 497.86-6.725 6.127-29.32 28.63c-2.031 1.98-4.318 5.964-5.65 8.26-3.165 1.758-6.911 5.76-9.778 8.252l-26.078.861-44.75.854-33.57-.316c-2.337-.026-5.836-6.025-4.437-7.475 2.475-2.56 7.868-5 11.316-6.102l25.531-8.183 28.433-8.738 36.864-11.145 46.797-14.532c3.755 1.041 7.706 2.202 11.358 3.516z"/><path fill="#fdd016" d="m306.45 521.54-5.411-1.271c-2.765-.649-6.502-6.64-6.084-9.447.076-.529 1.63-1.749 2.124-1.954-2.26 10.83 8.286 9.148 9.37 12.672"/><path fill="#c47001" d="m238.635 539.665-7.791 32.256c-1.391 5.752-8.252 32.316-11.435 34.91l-24.09-34.995-8.814-12.587-7.04-10.129c2.867-2.492 6.613-6.502 9.779-8.252l13.312-7.381 22.912-15.18c1.51-1.008 6.664-1.99 7.424-.36 1.365 2.902 6.937 19.295 5.743 21.718"/><path fill="#f9f9f7" d="m320.845 431.761 1.519 1.579v1.16l-16.026 10.949 11.076 5.623c2.304 1.17 4.344 2.057 7.109 2.91l-9.583-6.759c-.751-.529-1.8-1.365-2.304-1.774-.751-.623 1.194-3.619 2.056-4.148l6.946-4.172c1.17-.7 4.728-.666 5.871-.606l12.066 4.923c1.067.436 2.97 2.885 3.166 3.909s-1.305 3.584-2.176 4.172l-23.04 15.676c-1.996 1.357-6.758 4.147-8.917 3.106l-26.189-12.62c-1.886-.905-2.807-1.434-3.584-1.938s1.622-3.805 2.552-3.933l7.381-1.041c1.39-.197 12.262-5.504 8.03-10.48.128-2.406 5.999-3.746 9.105-2.739 5.88 1.912 5.41-4.53 14.933-3.797zm3.84 9.839-1.895 3.32 7.91 4.505 1.895-3.32zm-24.516 9.216c-1.792-.845-5.291.922-6.503 2.978 2.637.572 5.845-.93 6.503-2.978m15.479 7.731c-4.25-2.33-6.93-3.763-8.84-4.6-.726-.315-3.388 2.791-3.363 2.86l5.01 3.925c1.39 1.092 3.652.443 7.193-2.193z"/><path fill="#f8f7f6" d="m247.083 484.77 21.572-15.787-8.772-3.447 5.888-5.803c1.254-1.237 5.53-2.483 7.057-1.647 1.271.7 3.387 2.953 4.096 4.284l3.225 6.093 4.566-2.79c1.732-1.059 5.956.546 7.142 2.048l-5.59 4.573c-6.254 5.112-13.49 7.962-16.81 16.444 10.163-4.096 21.973-16.085 28.868-18.74.999-.383 4.583 1.52 4.293 2.552-.222.777-1.323 2.944-2.364 3.67l-24.704 17.459c-3.815 2.696-9.651 3.601-13.781 1.527-3.243-1.63-3.004-6.69-1.263-9.335.076-2.253-.052-3.448-.751-1.792l-9.745 5.018c-1.007.52-2.373-3.175-2.919-4.318z"/><path fill="#f6efee" d="m245.521 483.268-5.052 1.647c-.998.324-4.48-1.476-4.044-2.44.324-.717 1.501-2.552 2.193-3.047l14.668-10.65 4.864-.213c.717-.034 3.559 1.903 2.987 2.466-7.936 7.791-9.626 5.453-15.616 12.237"/><path fill="#e6544c" d="M247.083 484.77c-.248-.512-1.118-1.169-1.562-1.502 5.99-6.784 7.68-4.446 15.616-12.237.572-.563-2.27-2.491-2.987-2.466l-4.864.214c6.076-4.412 4.08-.768 6.597-3.252l8.772 3.448-21.572 15.787z"/><path fill="#d5827d" d="M327.518 436.523c-1.144-.06-4.702-.094-5.871.606L314.7 441.3c-.87.52-2.808 3.525-2.057 4.148a45 45 0 0 0 2.304 1.774l9.583 6.759c-2.765-.853-4.804-1.74-7.108-2.91l-11.076-5.623 16.008-10.949 5.163 2.031zm-5.154-3.183-1.52-1.579z"/><path fill="#fce896" d="m934.22 425.557 11.265.017 4.94 1.297c10.846 2.168 20.882 8.431 25.848 19.354 5.973 13.133-2.04 23.091-3.516 33.434-4.975-1.494-9.096-4.608-11.392-9.361l2.091-12.894c1.075-6.648-4.523-11.921-10.103-11.546-8.978-8.687-12.178-9.216-27.273-6.212l-12.877 2.56c11.4 1.1 25.046-2.38 35.055 5.811l3.644 2.987c2.927 4.872 5.615 13.124 3.234 19.157l-6.793 17.195c-14.651-7.731-9.344-10.01-9.446-14.353-.128-5.41-3.866-11.512-8.328-15.224-5.163-4.284-12.954-4.463-19.047-2.082 13.85 7.416 23.253 17.34 18.116 33.382l-1.706 5.334-11.862-3.422c-1.877-4.625-3.003-7.279-4.701-10.854l-1.562-3.286 2.39-1.8c3.353-2.526-11.81-9.899-26.113-9.822l-24.44.128c-4.812-1.144-10.743-3.524-14.165-7.723-4.036-4.95-4.283-11.34-3.26-16.64l12.263-8.286c3.055 6.878.23 18.398 5.905 19.038 3.26.367 6.759.666 8.952.7l9.967.128c4.113.051 13.354-1.425 13.909-5.24l13.585-3.754c-22.374-.99-18.39-13.944-25.335-21.88l-2.347-2.68c2.68-2.969 8.021-5.776 12.885-4.641 9.668 2.261 4.839 17.374 15.753 15.454l18.048-3.166 6.425-1.135z"/><path fill="#fcba19" d="M961.365 470.298c-4.6 4.616-4.446 12.962-1.007 18.628l4.6 3.976-3.738 1.477c-8.516 3.37 13.21 6.118 16.615 11.076 4.096 12.57 1.536 17.715-1.528 29.235-.298 1.118-.41 3.396-.52 4.583l-1.195 3.729c-.46 1.45-1.51 3.677-2.082 4.71l-7.015-2.961c-1.544-.657-3.635-3.942-3.822-5.368.179-2.33.503-5.358 1.015-8.106l3.09-16.777-12.118-3.25-3.055 6.8-11.887-2.96c-1.425-2.075-3.166-5.582-3.593-8.09l-2.73-15.898-4.48 3.328 1.706-5.333c5.137-16.052-4.266-25.967-18.116-33.383 6.093-2.372 13.892-2.201 19.046 2.082 4.472 3.712 8.201 9.814 8.329 15.224.102 4.343-5.205 6.622 9.446 14.353l6.793-17.195c2.39-6.033-.307-14.285-3.234-19.157.256-1.22 1.007-3.857 1.442-5.154 5.58-.376 11.179 4.898 10.103 11.545l-2.09 12.894z"/><path fill="#174261" d="M902.22 385.015c8.62.999 13.74 16.76 16.786 25.037l5.52 15.019 9.695.478-6.426 1.135-18.048 3.166c-10.914 1.911-6.084-13.201-15.752-15.454-4.864-1.135-10.215 1.672-12.886 4.642l-3.464 1.11c-.384-3.397-5.718-8.423-8.081-11.069l1.817-3.328c.709-1.297 2.961-4.505 4.267-5.29l18.005-10.855a88 88 0 0 1 8.568-4.582z"/><path fill="#fb7f02" d="m972.757 479.659 14.004 4.198c6.382 1.912 10.99 8.047 9.762 15.642-1.613 9.941-9.097 15.206-7.604 16.426l2.646 2.16c2.44 1.988 4.138 6.877 2.082 10.197-1.852 2.986-6.315 5.896-8.883 6.016l-8.457.384c3.072-11.52 5.632-16.666 1.528-29.236 1.519-1.655 2.816-3.328 5.29-6.673-2.218-1.109-5.316-2.568-6.784-2.944l-11.392-2.935-4.6-3.977c-3.438-5.674-3.592-14.02 1.008-18.628 2.295 4.753 6.417 7.868 11.392 9.361z"/><path fill="#021f3a" d="M902.22 385.015c-2.645 1.22-5.52 2.74-8.567 4.583l-18.005 10.854c-1.297.785-3.558 4.002-4.267 5.29l-1.817 3.329c-13.773-5.12-34.654 6.844-31.975-9.498 4.378-1.587 9.054-3.25 13.901-5.359l26.77-11.63c6.809-2.962 10.086-.478 10.615-2.671 1.45.443 13.252 2.227 13.346 5.111z"/><path fill="#fdeda9" d="m589.687 629.325.751 7.919c.649 6.878 7.885 7.142 12.476 6.314l6.025-1.092 16.4-3.097c6.452-1.22 14.294-4.958 20.643-4.967l21.24-.025c4.155.904 8.968 2.406 13.286 4.3l4.232 1.852 9.455 13.082.282 4.949c.025.444 1.459 1.579 1.493 1.493l-.102 6.366-1.255 3.499c-1.297 3.635-3.123 7.782-5.316 10.521l-2.807 3.516-17.178 7.74c-4.215 1.903-7.808 7.654-8.644 11.7-.76.98-1.758 3.515-1.69 4.914l.29 6.28c-1.672 15.31 1.485 4.25-5.956 14.49l-7.049-1.34c-.017-.409-.119-1.1-.187-1.578l-.12-24.414.017-4.787c13.893-22.153 15.958-15.462 29.261-24.183 2.97-1.955 5.624-5.556 5.675-9.046.179-11.853-16.137-17.322-26.582-16.87l-14.745.631 17.39 6.315c2.006.725 4.515 5.018 5.104 6.374l-8.457 8.645-4.454-2.51c-7.629-4.3-15.659-3.242-23.56 2.433-6.793 4.872-11.111 18.466-9.797 25.318.162.854 1.843 1.988 3.02 2.432 14.166 5.427 12.767 15.608 14.37 24.687l2.433 13.781c.973 5.504 5.59 9.908 10.436 11.691-.333-.17 1.425 1.545 1.903 1.545l12.459.11 4.028 6.017 2.585 3.857c-13.372 9.318-33.169 3.96-42.513-10.19-1.613-2.448-4.01-6.945-4.284-9.377l-1.109-9.728c-.649-5.65-1.81-12.203-3.03-17.784-6.672-3.89-17.493 2.176-23.782-3.823-1.322-1.254.743-5.862 1.946-6.971l4.958-.922c1.118-.205 1.467-2.662 1.536-3.814.153-2.646-.393-8.517.512-11.239l5.973-18.005 9.848-10.616c-12.544-.648-13.688 3.687-28.357.709-1.493-1.093-3.003-2.245-3.806-2.74-2.73-1.698-6.92-6.613-7.995-9.634-.197-.554-.939-1.348-1.306-1.698l-.486-3.32c-.128-1.168-.7-4.676-.24-5.981l3.2-8.994c.35-.99 1.946-2.646 2.783-3.123 2.474-1.408 8.55 5.666 8.806 8.388z"/><path fill="#fb7a03" d="M855.475 592.717c-.068 2.355-1.621 7.176-3.635 8.371l-8.405 4.966c-.751.444-3.055 4.199-2.253 4.583 3.72 1.783 11.4 4.036 15.812 4.574 2.577 3.422 6.818 6.05 10.931 7.85-2.986 5.64-11.46 8.952-18.244 7.433l-17.971-4.045-4.71 16.53c-3.286 11.51-13.953 19.395-26.394 17.236l-8.312-1.442-3.933-.682c2.662-15.224-.086-12.314 12.253-24.943 3.43 2.176 3.96 5.572 4.216 11.699 7.134 1.263 9.873-12.86 10.385-18.62l3.55-9.48c.392-1.05.145-4.054-.205-4.532 2.236-1.68 4.284-4.24 5.905-6.74 5.726-3.832 11.836-6.657 19.584-8.97l-14.575-5.503c2.125-.845 4.412-2.16 6.417-3.601 1.323.196 3.943.674 5.547 1.143l14.054 4.147z"/><path fill="#fca304" d="m894.123 561.946-4.002.802-2.373 7.458-1.68 5.308c-.777 2.449-1.784 6.17-2.134 8.44-.307 2.004 6.553 4.846 7.85 3.293 1.434-1.715 2.979-5.53 3.542-7.578l1.519-2.816 1.322-7.79c.384-2.27-.017-5.291-1.152-7.203l13.543 4.344c1.75.563 4.267.81 5.606.793 1.87.709 4.446 1.246 6.682 1.485.145.504 1.579 3.652 2.457 4.181l8.568 5.223c-8.363 12.032-23.578 2.517-24.235 5.367l-.75 3.26c-1.997 8.644-7.655 17.715-18.458 16.614-2.688-.273-7.757-1.954-11.17-2.85l-6.28 18.091c-.539 1.553-4.123 4.31-5.078 4.71-4.113-1.809-8.354-4.428-10.931-7.85 4.078-6.23 7.662-13.875 6.528-21.154l3.2-6.99c.742-1.612.34-5.742-.248-7.363a75 75 0 0 0 3.294-4.822c2.372-3.814 5.205-9.37 8.337-12.177l4.386-3.95c3.797.554 8.508 1.45 11.64 3.174z"/><path fill="#fcd95e" d="M723.166 679.441c5.154-7.142 6.033-5.862 14.55-9.796.35 1.724 1.475 5.615 1.151 7.356l-2.193 12.014c-.904 4.975-2.1 9.797-2.04 14.729l-3.447 9.463c-3.456 9.49-13.133 14.055-22.46 11.648l-9.958-2.568c-2.85-.734-7.842 2.68-9.361 4.872l-1.562 2.245c.495-5.573-6.314-8.568-10.777-9.626 2.765-9.685 16.307-14.472 25.258-12.262l9.643 2.38c1.4.342 5.086-1.228 5.393-2.62.555-2.525 1.16-6.758 1.46-9.53-7.732-3.696-14.157-6.128-21.257-7.212-1.186-.819-2.978-1.996-4.591-2.9l-6.494-3.662 2.808-3.515c2.193-2.748 4.01-6.895 5.316-10.522l1.254-3.499.043 7.091 23.398 8.329c1.05.375 4.165-1.911 3.866-2.406z"/><path fill="#f8be2e" d="m607.24 666.334-5.973 18.005c-.904 2.722-.358 8.593-.512 11.239l-1.945-2.868c-2.364-3.473-5.146-6.357-8.585-9.523l2.534 16.111c.026.188 1.477 1.007 1.502 1.016-1.203 1.109-3.26 5.708-1.945 6.971 6.289 6 17.11-.068 23.782 3.823 1.229 5.59 2.38 12.135 3.03 17.784l1.109 9.728c-4.37-.487-12.1.665-15.992 1.869l-3.481-3.286c-2.577-2.423-6.725-6.101-9.276-7.321l-5.018-2.398c1.639.077 5.957.298 8.013-.24l19.652-5.205-6.545-7.193c-2.295-2.526-11.699 5.052-19.029 2.398-5.751-2.09-9.643-8.073-10.368-13.62-.862-6.57-2.33-13.405-4.42-19.575l-.35-1.954c-.256-1.45-6.084-1.229-6.383-1.186 3.09-4.13 18.176-1.22 24.533-.034 3.422.64 7.851-5.99 6.093-8.491l-3.106-4.42c.58.239 2.014.367 2.662.41l10.01-2.04z"/><path fill="#fcd556" d="M789.308 628.19c.802.196 2.449-.034 3.268.017l3.337 1.331c1.476.922 3.515 2.509 4.693 3.627-12.34 12.63-9.583 9.72-12.254 24.943l-2.594 14.805c-.512 2.91-2.714 7.467-4.318 9.626-2.261-.086-5.274-.87-7.74-2.398-3.652-2.262-3.831-6.059-3.217-9.745l3.115-18.688-18.645-6.998c-5.394-2.022-8.303-9.65-8.483-14.77l-.102-2.953c-.017-.47.53-.546 1.212-.896-.256-.205 1.408 1.834 1.86 1.834l10.095-.085 2.5-3.465c-.785 2.279-.358 7.91 2.048 8.773l12.911 4.59c3.482-3.745 6.22-6.63 8.798-7.867l3.507-1.681z"/><path fill="#fbdd67" d="m570.743 702.327 3.849 14.857c1.382 5.342 6.938 9.353 11.887 10.308l5.018 2.398c2.551 1.22 6.707 4.89 9.275 7.322l3.482 3.285c-.777.239-2.38.248-3.217.282l-2.296.085c-.554.017-.75.649-1.032 1.314-10.607 2.884-33.485-2.005-36.472-18.09.154.819-5.794-19.772-8.908-17.92l.75-15.736c7.766.691 12.963 6.144 17.664 11.904z"/><path fill="#fce68e" d="m661.905 729.216 2.031 13.124c2.44-2.355 4.71-4.804 5.478-6.715l3.857-9.618 3.5-4.753c.212-.29.204-1.126.306-1.484 4.463 1.058 11.273 4.053 10.778 9.625-2.364 8.79-10.044 28.169-20.804 28.783l-2.586-3.857-4.028-6.016-12.458-.11c-.47 0-2.236-1.716-1.903-1.545l3.072-.325-2.518-12.527c-.315-1.587-.307-4.719-.367-6.058l7.049 1.34c7.441-10.232 4.284.819 5.956-14.49l.947 1.63 1.682 12.996z"/><path fill="#de6e05" d="M749.047 616.38c-1.04 2.218-1.203 7.125-1.467 9.71-.683.35-1.23.427-1.212.897l.102 2.952c.18 5.12 3.09 12.749 8.483 14.771l18.645 6.998-3.115 18.688c-.614 3.686-.435 7.483 3.217 9.745 2.466 1.527 5.479 2.312 7.74 2.398-2.142 2.875-9.02 6.604-12.493 6.092l-8.166-1.194 2.44-14.788c2.671-16.146-9.241-17.989-17.365-20.873-1.843-.657-5.265-2.406-7.475-3.78-2.048-1.272-2.748-7.885-1.784-10.377l7.458-19.345 3.482-3.968 1.502 2.09z"/><path fill="#f7950a" d="M951.834 534.801c-.052-.452-1.656 2.45-1.494 3.174l2.134 9.959c4.582-.52 7.466-4.352 7.398-8.525l1.818-.026c.179 1.426 2.27 4.72 3.823 5.368l7.014 2.961c-1.545 10.624-12.672 16.597-23.723 14.19l-7.961-1.731 1.792-10.863c.324-1.963 1.169-7.16-.29-8.482-2.424-2.22-8.192-3.15-11.196-2.697l3.2-8.132c3.857.717 13.96.537 17.493 4.821z"/><path fill="#fbcb45" d="m760.78 687.437-2.781 7.56c-.632 1.716-3.192 4.301-4.454 4.924.102.137-2.441-1.135-2.79-1.621l-6.503-9.122 4.258-19.363-4.37-3.447h5.027l-.35-10.667c-.034-1.135-2.714-3.507-2.952-3.934 8.115 2.893 20.027 4.728 17.365 20.873l-2.44 14.788z"/><path fill="#fce479" d="M940.826 560.17c-1.903 11.512-2.586 11.452-6.938 17.716l-8.567-5.223c-.88-.537-2.313-3.677-2.458-4.18l3.191-14.473c1.041-4.702 3.14-10.01 4.839-14.567l.239-1.322c3.003-.453 8.78.486 11.195 2.696 1.451 1.331.615 6.52.29 8.482l-1.791 10.863z"/><path fill="#db6a03" d="m578.202 703.625-2.467-2.492-4.983 1.194c-4.702-5.76-9.899-11.212-17.664-11.904l-.75 15.736c-.812.085-2.646.367-4.097.7l-12.868 2.952c-2.236-4.437-3.43-9.446-4.992-14.182l7.688-2.236 14.72-4.574c6.545-2.03 13.67-1.698 20.617-.392l.375-4.37c2.091 6.17 3.567 13.005 4.42 19.576z"/><path fill="#f48c06" d="m744.252 689.178 6.502 9.122c.35.486 2.893 1.758 2.79 1.621-3.942 6.144-12.996 6.409-18.892 3.832-.069-4.933 1.126-9.763 2.04-14.729l7.568.162z"/><path fill="#f8be2e" d="M601.037 740.762c-.52.324-2.39 1.143-3.337 1.4.29-.667.478-1.298 1.033-1.315l2.295-.085z"/><path fill="#e47404" d="m794.086 415.701 1.443 8.073c.435 2.44.494 8.857 2.688 10.462 6.98 5.12 10.496 2.014 26.427 8.968l-8.934 6.998 2.73 4.061-5.964-2.065c-1.579-.546-4.19-.964-6.793-1.4l2.646 5.317-7.126 3.874c-1.4.76-3.456 4.054-3.558 5.36-2.492-1.699-6.69-4.02-9.583-4.523l-9.08-1.57-.776 5.162 9.267 4.224-9.455 7.552c2.978 4.446 3.849 8.32 2.936 12.638l-1.477 7.014c-1.075 5.129.64 9.959 4.241 15.685-.221 2.244-8.73 3.353-9.48.392-2.483-9.805 4.65-20.736-2.466-30.327-9.13-12.314-20.642-16.273-34.108-19.448l4.608-.358.47-9.182-3.277.196 9.216-7.125c1.288-.998 4.24-2.27 5.41-2.714 3.89 6.99 3.473 13.551 1.476 22.759l8.858-1.86 1.698-11.64c.631-4.326-2.996-10.547-5.53-13.807l-3.558 1.493c1.502-1.348 3.532-3.012 5.538-4.556l9.105-6.998-.691 2.594c4.096 4.916 6.553 8.969 8.908 15.77l12.681.623c-13.039-8.636-8.619-14.208-12.646-23.535 3.61-4.284 8.857-6.246 14.14-8.107z"/><path fill="#e97e0a" d="M869.564 409.08c2.355 2.645 7.697 7.67 8.08 11.067-1.382.444-4.24 1.442-5.529 2.33l-7.091 4.89c-2.048 6.852-1.237 14.813 2.987 20.573l3.32 4.523c-2.185-.026-5.684-.333-8.952-.7-5.675-.64-2.85-12.16-5.905-19.038l-12.263 8.286-1.809-.077c-4.215-4.812-9.907-1.4-25.096-4.736-4.335-.955-10.94-6.596-11.665-10.564l-2.185-11.895-.836-1.041c4.104-1.451 11.35-4.583 15.249-5.812l.392 11.008c.111 3.004 4.48 7.006 7.8 7.117l16.785.572c4.574.154 9.992 3.362 14.293 6.152 1.997-.093 6.81-4.027 6.409-6.11-2.577-13.311-32.53 6.238-39.126-16.366-.315-1.093-2.355-3.277-2.884-3.243 5.077-2.321 10.633-4.471 16.034-6.434-2.68 16.341 18.202 4.377 31.975 9.497z"/><path fill="#eb7c0e" d="M692.924 512.102c3.422.06 8.67 3.542 11.187 5.982l6.758 6.554c-.239 1.34-.69 3.797-.69 5.077-4.78 1.323-9.106 5.914-12.81 8.064.325-3.592-1.33-10.044-5.068-12.015-6.212-3.26-13.517-2.68-20.344-2.03 6.153 3.225 12.066 6.587 15.625 12.321-.563.3-2.202 1.178-2.944 1.69l-9.319 6.443c-3.43-4.258-8.507-7.237-14.643-7.979l-17.254-2.09c-1.306-.163-4.105-2.398-3.789-3.533l1.237-4.36c.248-.88.436-3.969-.46-4.165-.623-.137-1.69-.17-2.398-.205l9.472-6.298c.503 1.272 1.22 2.774 1.911 3.78 2.466 3.602 7.21-2.9 16.137-6.032 2.184-.768 6.639-1.596 9.293-1.553l18.099.332z"/><path fill="#e78c1b" d="m758.818 498.97-.29 8.37c-.401 11.777 5.87 14.286 11.511 18.962l-10.112 1.22c-2.705.324-8.558-.921-10.914-2.44-4.77-3.064 4.89-17.929-1.749-31.505l-12.476 7.244-4.659-5.538c-3.012-1.382-14.746-6.57-15.795-.896-.888 4.813 5.495.342 10.462 14.413-4.438 1.929-8.713 4.95-12.578 8.166.085-8.234-9.182-11.392-16.086-11.366-2.287-4.582-11.844 2.56-22.477-6.263.743-.487 8.329-6.836 12.818-9.396-.282-.102 1.109 2.68 1.774 2.688l12.758.222c1.664-4.266 1.604-9.165-.128-12.586l7.774-4.941.307 1.92c.085.554 2.287 1.126 2.995 1.186l11.955.964c9.805.794 18.398 6.46 23.774 14.302 1.57-.265 5.555-.939 6.57.196l4.558 5.086z"/><path fill="#071a2c" d="m675.32 544.188-.205 5.051-5.12 3.218c-1.084.682-3.38 1.501-4.43 1.885-3.694-6.937-12.347-12.475-21.034-12.842l-22.844-.973c-2.022-.085-5.213-4.241-4.36-5.914l.077-1.263c1.083-.358 3.208-1.365 4.522-2.133l16.069-9.352c.708.034 1.775.076 2.398.204.896.188.716 3.286.46 4.165l-1.237 4.36c-.316 1.127 2.475 3.37 3.789 3.533l17.254 2.09c6.136.743 11.213 3.721 14.643 7.98z"/><path fill="#ed9e2b" d="M737.673 462.157c13.457 3.174 24.977 7.134 34.107 19.447-2.33-2.261-11.033 3.465-11.673 8.081l-2.961-3.84c-8.175-10.607-24.884-9.591-32.188-13.704l-6.153-3.465c3.704-3.046 7.296-6.758 11.358-9.403 2.321 1.186 5.018 2.201 7.51 2.884"/><path fill="#282425" d="m802.628 412.69.837 1.04 2.184 11.896c.725 3.968 7.33 9.617 11.665 10.564 15.19 3.336 20.881-.077 25.097 4.736.034 1.067.017 5.052-.59 6.374-.844 1.843-5.58 3.73-7.287 3.9-1.493-4.762-6.203-6.383-9.89-7.996-15.931-6.954-19.447-3.848-26.427-8.968-2.194-1.605-2.253-8.022-2.688-10.462l-1.443-8.073 8.542-3.02z"/><path fill="#934a0d" d="m760.098 489.685-1.28 9.285-4.557-5.086c-1.015-1.135-5-.461-6.57-.197-5.376-7.842-13.97-13.508-23.774-14.301l-11.955-.965c-.709-.06-2.902-.631-2.996-1.186l-.307-1.92c2.953-1.877 7.731-4.659 10.138-6.639l6.152 3.465c7.313 4.121 24.013 3.106 32.188 13.704z"/><path fill="#10202e" d="M821.555 406.007c.52-.034 2.569 2.15 2.884 3.243 6.588 22.605 36.54 3.047 39.126 16.367.4 2.082-4.403 6.016-6.409 6.11-4.3-2.79-9.72-5.999-14.293-6.153l-16.785-.571c-3.311-.111-7.689-4.113-7.8-7.117l-.392-11.008c.904-.282 2.696-.649 3.678-.862z"/><path fill="#0f1e2a" d="M754.1 442.965c.784-.862 2.115-2.312 2.952-3.055l3.558-1.493c2.526 3.26 6.161 9.48 5.53 13.807l-1.698 11.64-8.858 1.86c2.005-9.208 2.415-15.77-1.476-22.759z"/><path fill="#ae570c" d="m696.14 505.591-15.957.069-.23 4.403 11.546.333 1.433 1.706-18.099-.332c-2.654-.052-7.108.785-9.293 1.553l.58-6.588-2.26-.981 9.813-6.426c10.632 8.823 20.18 1.681 22.476 6.263z"/><path fill="#151e28" d="M771.695 428.365c2.1-1.613 5.811-3.38 8.252-4.548 4.027 9.326-.384 14.899 12.646 23.534l-12.68-.622c-2.364-6.802-4.813-10.846-8.91-15.77z"/><path fill="#161d27" d="M665.532 513.323c-8.926 3.131-13.67 9.634-16.137 6.033-.691-1.007-1.408-2.51-1.911-3.78l16.367-9.822 2.261.98z"/><path fill="#19242a" d="M686.481 489.933c1.621-.93 4.164-2.321 5.862-3.542l8.542-6.135c1.733 3.413 1.792 8.311.128 12.587l-12.757-.222c-.657-.009-2.057-2.79-1.775-2.688"/><path fill="#21272d" d="M737.673 462.157c-2.5-.683-5.197-1.707-7.51-2.884 3.03-1.972 6.494-4.276 9.319-6.452l3.276-.196-.469 9.182-4.608.358z"/><path fill="#fde17a" d="M834.534 451.209c3.38 10.811-1.97 17.109 4.591 17.536-2.97 2.568 19.695 1.314 20.881 1.211 16.069-1.416 30.806 3.055 41.225 13.986 2.927-2.602 6.528-5.538 8.567-7.074l1.562 3.286c1.698 3.575 2.825 6.229 4.702 10.854l11.861 3.422-3.089 11.298c-.529 1.929 2.09 7.689 4.156 7.987l9.745 1.383 11.887 2.96c1.894.47 5.777 2.663 6.946 4.25 2.321 3.15.58 10.198-2.193 12.083l-3.533.427c-3.533-4.275-13.636-4.096-17.493-4.821-6.972-1.306-13.61-4.395-19.618-8.09l-4.037-9.139c-1.928-4.36-.12-11.23.53-17.8.477-1.238-2.927 2.355-3.286 3.72l-3.592 13.867c-1.391 5.376-2.023 10.7-2.27 15.59-5.248-1.152-13.935-4.548-13.184-11.375l1.86-9.276 2.21-1.962c-1.246-25.029-28.032-23.347-47.223-22.793l-9.592.273-4.685-1.706c-17.237-6.264-6.16-21.487-13.03-27.034l-2.73-4.062 8.934-6.997c3.686 1.613 8.405 3.234 9.89 7.996z"/><path fill="#fcdb6a" d="M877.645 420.147c.896 7.962-.546 22.75 6.357 24.448l11.204 2.748c-.554 3.814-9.796 5.29-13.909 5.24l-9.967-.129-3.32-4.522c-4.232-5.76-5.034-13.722-2.986-20.574l7.091-4.89c1.289-.887 4.147-1.886 5.53-2.33z"/><path fill="#eb9714" d="M909.798 476.86c-2.04 1.536-5.649 4.48-8.567 7.074-10.42-10.931-25.165-15.403-41.225-13.986-1.194.102-23.85 1.357-20.88-1.212l17.757-.23c1.69-.026 4.813-2.287 4.77-3.15l24.44-.127c14.302-.077 29.457 7.296 26.112 9.822l-2.39 1.8z"/><path fill="#e28008" d="m895.206 447.351-11.204-2.747c-6.912-1.698-5.461-16.487-6.357-24.448l3.464-1.11 2.347 2.68c6.955 7.936 2.961 20.89 25.335 21.88l-13.585 3.754z"/><path fill="#b25b05" d="M861.645 465.374c.042.853-3.08 3.123-4.77 3.149l-17.758.23c-6.554-.427-1.203-6.724-4.591-17.536 1.707-.17 6.443-2.056 7.287-3.9.606-1.322.632-5.307.59-6.374l1.808.077c-1.024 5.299-.776 11.682 3.26 16.64 3.422 4.198 9.352 6.579 14.165 7.722z"/><path fill="#f9cb57" d="M953.353 445.858c-.436 1.289-1.195 3.934-1.443 5.154l-3.643-2.986c-10.01-8.192-23.655-4.72-35.055-5.812l12.877-2.56c15.095-3.003 18.295-2.474 27.272 6.213z"/><path fill="#b36610" d="m961.681 539.375-1.818.026c-.819-1.818-2.594-3.687-4.497-5.027 2.774-1.894 4.515-8.934 2.193-12.083-1.169-1.587-5.051-3.78-6.946-4.25l3.055-6.8 12.118 3.25-3.09 16.777c-.503 2.748-.827 5.777-1.015 8.107"/><path fill="#713e11" d="m938.735 515.08-9.745-1.382c-2.065-.29-4.685-6.05-4.156-7.987l3.09-11.298 4.48-3.328 2.73 15.897c.435 2.51 2.167 6.016 3.592 8.09z"/><path fill="#f8f2de" d="m964.958 492.902 11.392 2.936c1.468.375 4.565 1.835 6.784 2.944-2.475 3.345-3.78 5.017-5.29 6.673-3.406-4.958-25.131-7.706-16.615-11.076l3.737-1.477z"/><path fill="#7f3f0a" d="M546.27 679.45c5.41 2.005 15.573 2.278 20.779 1.459.298-.043 6.126-.273 6.382 1.186l.35 1.954-.375 4.37c-6.946-1.306-14.072-1.64-20.617.392l-14.72 4.574-7.688 2.235-2.774-8.44c5.7-2.773 8.935-7.645 9.08-14.293 4.95 8.576 5.547 5.07 9.583 6.563"/><path fill="#081b32" d="M539.938 629.325c.068 1.92 1.306 6.152 1.033 8.15l-2.398 17.86c-.785 5.845-1.758 11.656-1.886 17.552-.145 6.648-3.38 11.52-9.08 14.294-.878-2.68-1.134-5.385-.204-10.727l9.199-52.992c.068-.375.247-.998.375-1.442 1.963 1.28 2.876 4.702 2.97 7.305z"/><path fill="#e38414" d="m617.378 585.89-8.303 2.782-4.24 6.127c2.619 1.809 5.12 3.456 6.374 4.66l2.9 2.772c.803 2.714 2.578 6.947 3.005 9.609-1.502-.239-3.32-.265-4.95-.102l-10.342-8.867c-1.869-1.604-7.689.086-9.054 1.895l-5.23 6.929 8.217 4.122c4.087 2.056 2.252 11.374 8.396 18.201 1.443 1.604 3.815 3.704 5.829 5.59l-1.05 2.85-6.024 1.092-2.304-5.547c-1.101-2.654-4.497-7.586-6.366-9.455-.7-.7-4.216.453-4.557.768-.256-2.722-6.332-9.796-8.806-8.388-.837.478-2.432 2.133-2.782 3.123l-3.2 8.994c-.47 1.306.11 4.813.239 5.982-3.823 5.41-2.936 14.029 1.664 19.098 1.894 2.09 5.913 4.198 9.318 6.058l.589.7c-11.563-2.517-19.37 1.681-22.818 1.656l.623-3.772-4.89-8.943c-.017-.273-.085-.282-.384-.393 0-1.22-.043-3.498-.162-4.659l-.973-9.668-.35-3.558c-.068-.666-2.466-.077-3.388-.18l-11.98-1.34-2.44-4.727c-.095-2.602-1.008-6.024-2.97-7.304l-.342-2.168c2.116-.828 3.414-3.149 3.337-5.418l1.553.153c-1.255 5.675 8.67 7.518 12.766 6.852l16.145-2.61c1.092-.18 3.174-1.93 3.26-2.868.06-.623-.956-2.39-1.554-2.39l-8.234.026c-5.829.017-11.734-2.33-14.575-6.673 2.32-4.232 6.033-8.124 10.086-10.837 1.929 5.453 10.991 3.865 14.695 3.516l15.7-1.477c1.784-.17 4.626-1.894 6.324-3.294l-11.324-1.04c-6.391-.59-12.399-2.86-17.305-6.213 2.645-4.838 6.605-9.241 11.153-12.382.307 1.272 4.198 4.66 6.076 4.77l14.677.862c6.827.401 13.355 1.34 17.971 5.035z"/><path fill="#fcc741" d="M686.421 619.844c11.7 6.23 8.508 11.11 14.251 14.379-.239 1.869-1.024 5.768-1.16 7.927-.547 8.457 7.577 10.752 12.629 13.022 5.504 2.475 10.692 4.455 17.672 6.588l-1.954-3.294 11.23 6.759c-.597.435-1.613 3.217-1.365 4.428-8.517 3.934-9.404 2.654-14.55 9.797l.137-4.77-11.247-3.5c-6.374-1.987-11.913-6.382-16.094-11.11.043-2.397-.623-4.855-1.766-6.442l-9.455-13.082c.12-10.428-16.495-13.721-25.6-12.382l-12.16 1.792 1.066 2.466 15.378.265c.99.017 3.78 1.527 3.797 1.707l-21.24.025c-6.348.009-14.182 3.746-20.642 4.967l-16.4 3.097 1.049-2.85c-2.006-1.886-4.386-3.994-5.828-5.59l8.26-.964c1.4-.162 4.48-2.67 4.48-3.464l9.386 5.47c1.656-.009 2.484-.017 1.255 0l-3.763-5.496 16.222-.648-5.103-9.421 6.562-.299c16.478-.742 25.13-9.924 44.97.64z"/><path fill="#f98103" d="m711.979 709.888-.615-13.55-6.878 7.466c-.631.682-1.954 3.25-2.15 3.712-8.951-2.21-22.494 2.585-25.259 12.262-.102.359-.094 1.195-.307 1.485l-1.732-.077c-1.562-5.41-13.099 3.891-13.133 8.039l-1.681-12.997-.947-1.63-.29-6.28 1.63.034.34 2.773 7.058-5.282c8.559-6.408 20.907-.828 29.568-15.309 7.1 1.084 13.525 3.516 21.256 7.211-.298 2.773-.904 7.006-1.459 9.532-.307 1.39-3.993 2.97-5.393 2.62z"/><path fill="#fbbd34" d="M675.243 672.768c-13.304 8.73-15.369 2.04-29.261 24.183l-5.257-4.565c-2.483-2.159-6.178-3.908-9.25-4.685l-4.121-5.657c-.956-1.314-.12-6.144 1.365-6.827 11.87-5.436 15.027 6.596 19.942.768l3.883-4.6-3.354-5.077 4.455 2.51 8.456-8.645c1.895 1.34 4.557 4.557 5.154 6.733l1.98 7.244 6.025-1.373z"/><path fill="#e07104" d="m645.973 696.96-.017 4.787-1.374 1.835-.529 17.74-4.753 1.11c-1.51.35-4.94-.53-6.084-1.254-1.604-9.088-.196-19.269-14.37-24.687-1.17-.444-2.85-1.579-3.02-2.432 3.114 1.723 16.4-4.088 15.64-6.35 3.081.777 6.776 2.527 9.25 4.686z"/><path fill="#954b08" d="m649.182 666.308 3.353 5.078-3.882 4.6c-4.915 5.827-8.073-6.205-19.943-.769-1.484.683-2.32 5.513-1.365 6.827l4.122 5.657c.76 2.262-12.527 8.073-15.642 6.35-1.314-6.853 3.004-20.447 9.796-25.32 7.902-5.665 15.932-6.724 23.56-2.431z"/><path fill="#b95c04" d="m686.49 683.964 6.493 3.66c1.613.914 3.405 2.083 4.591 2.902-8.66 14.48-21.009 8.892-29.568 15.309l-7.057 5.282-.341-2.774.06-4.949c.836-4.045 4.42-9.796 8.644-11.7l17.178-7.739z"/><path fill="#ce780c" d="m675.243 672.768-6.025 1.374-1.98-7.245c-.588-2.167-3.26-5.384-5.154-6.733-.589-1.365-3.097-5.649-5.103-6.374l-17.39-6.315 14.745-.631c10.436-.444 26.76 5.017 26.581 16.87-.05 3.49-2.705 7.091-5.674 9.045z"/><path fill="#ba6008" d="m607.24 666.334-10.01 2.04c-.648-.043-2.081-.171-2.661-.41-2.142-.88-5.803-2.62-7.868-3.072l-.589-.7c-3.405-1.869-7.415-3.968-9.318-6.059l5.145.06c1.4.017 3.277-3.558 2.978-4.497.802.495 2.313 1.647 3.806 2.74 14.669 2.977 15.812-1.358 28.356-.71l-9.847 10.616z"/><path fill="#fabe32" d="M644.053 721.323c-.042 1.382 1.204 3.857 2.023 4.838.068.47.17 1.17.187 1.579.069 1.34.052 4.471.367 6.058l2.518 12.527-3.072.325c-4.847-1.784-9.464-6.187-10.437-11.691l-2.432-13.781c1.144.725 4.574 1.604 6.085 1.254l4.753-1.11z"/><path fill="#e97605" d="M723.166 679.441c.29.486-2.825 2.773-3.866 2.406l-23.398-8.328-.043-7.091.103-6.366c4.172 4.727 9.71 9.122 16.093 11.11l11.247 3.499z"/><path fill="#d57908" d="m684.74 640.538-4.232-1.852c-4.318-1.895-9.14-3.396-13.287-4.3-.008-.172-2.807-1.69-3.797-1.708l-15.377-.264-1.067-2.466 12.16-1.792c9.105-1.34 25.728 1.954 25.6 12.382"/><path fill="#4b270e" d="M602.914 643.558c-4.59.828-11.827.564-12.476-6.314l-.75-7.92c.34-.315 3.857-1.467 4.556-.767 1.87 1.869 5.265 6.8 6.366 9.455z"/><path fill="#553117" d="m575.625 642.364 1.305 1.698c1.084 3.02 5.274 7.936 7.996 9.634.299.939-1.579 4.514-2.978 4.497l-5.146-.06c-4.6-5.068-5.487-13.687-1.664-19.097l.487 3.32z"/><path fill="#95530f" d="M600.764 695.578c-.069 1.152-.418 3.6-1.536 3.814l-4.958.922s-1.476-.828-1.502-1.016l-2.534-16.11c3.439 3.174 6.229 6.05 8.584 9.522z"/><path fill="#fce68e" d="M646.076 726.161c-.82-.99-2.065-3.464-2.023-4.838l.53-17.741 1.373-1.835z"/><path fill="#fcd95e" d="M695.97 660.062c-.025.085-1.468-1.05-1.493-1.493l-.282-4.95c1.144 1.587 1.81 4.045 1.767 6.443z"/><path fill="#fce68e" d="m660.608 708.352-1.63-.034c-.068-1.4.93-3.934 1.69-4.915z"/><path fill="#e38414" d="m576.93 644.062-1.305-1.698c.366.35 1.109 1.143 1.305 1.698"/><path fill="#fcedb0" d="m770.048 526.293 12.655-1.69 13.09-1.612 3.226.572c1.28.46 3.328.955 4.958 1.228 8.09 1.349 16.008 5.172 19.908 14.08 1.638 3.738 3.2 10.727 2.108 14.149l-4.318 13.542c-.12.376.025 1.323-.24 1.613"/></svg>