<svg xmlns="http://www.w3.org/2000/svg" viewBox="0 0 1024 1024"><path fill="#e1463a" d="M281.036 184.618c14.396-.887 19.892 7.501 31.258 11.256 28.791 9.514 59.119 17.066 89.566 15.607-10.53 13.824-29.116 20.702-42.59 31.232-17.408 13.602-31.198 31.377-48.46 45.508-4.84 3.968-9.217 4.549-7.39 12.732 34.5 1.946 65.706-.52 98.61-11.008l66.944-29.252c3.977 39.723 12.297 83.644 42.513 111.846 23.416-31.36 41.225-71.97 38.042-111.846 2.449-2.611 52.761 22.733 61.363 25.89 35.447 12.98 66.176 17.314 104.2 14.379 2.825-11.008-2.662-7.177-5.862-9.711-21.572-17.067-38.485-40.798-58.94-57.49-7.475-6.1-16.734-10.342-24.687-15.573 7.416-11.025 18.978-4.932 28.988-6.81 30.293-5.682 58.7-15.965 87.356-26.76 8.012-.136 8.422 4.344 8.951 4.472-9.822 1.869 5.376 20.915 6.758 22.332 8.824 9.053 21.172 14.745 31.087 27.084 89.404 111.3 116.216 248.661 82.04 385.937-46.353 186.205-221.978 316.27-408.43 338.866-40.193 4.873-86.844 12.886-125.492 8.96-5.913-.597-11.852.026-17.775-.093l2.253 8.942-17.911-4.48 2.201-9.002-20.104 9.02c-132.65-60.04-237.167-180.967-267.46-325.461-35.063-167.296 22.409-353.314 179.336-436.13 18.97-10.01 63.505-29.218 83.652-30.455zm-63.872 90.189c-30.805 4.924-55.765 22.409-74.93 46.216-15.02 18.654-25.916 42.795-22.392 67.32 2.995 20.864 35.14 30.993 53.794 22.255 27.52-12.903 77.576-62.9 80.614-94.097 2.074-21.274-15.582-45.124-37.068-41.685zm-112.332 196.77c-6.562 1.928-22.827 21.939-24.423 29.26-3.532 16.154-3.84 62.593 12.57 70.972 21.504 7.45 37.35-1.246 46.908-20.446 14.302-28.731 6.698-92.057-35.055-79.786"/><path fill="#d03a2f" d="m285.508 976.664 20.104-9.02-2.201 9.003 17.911 4.48-2.253-8.943c5.922.12 11.862-.503 17.775.094 38.656 3.925 85.308-4.096 125.491-8.96 186.445-22.596 362.069-152.661 408.43-338.867 34.177-137.275 7.365-274.636-82.039-385.936-9.916-12.34-22.263-18.031-31.087-27.085-1.382-1.416-16.58-20.463-6.758-22.332 257.98 65.92 326.997 369.775 209.63 587.75-125.492 233.07-442.334 305.134-675.012 199.816z"/><path fill="#6f9744" d="M531.643 153.258c10.504-2.022 19.302 4.37 28.996 4.813 14.703.674 33.98-8.183 49.1-9.446 34.347-2.859 73.225 3.507 107.487.094 21.538-2.142 43.955-13.159 64.98-17.792l-11.366 22.186-28.902 31.505c-28.655 10.795-57.054 21.07-87.356 26.76-10.018 1.878-21.58-4.215-28.987 6.81 7.953 5.231 17.211 9.472 24.687 15.574 20.454 16.69 37.359 40.43 58.94 57.489 3.2 2.534 8.678-1.297 5.862 9.71-38.025 2.945-68.745-1.39-104.2-14.378-8.602-3.149-58.915-28.501-61.364-25.89 3.183 39.868-14.626 80.478-38.041 111.846-30.225-28.202-38.537-72.123-42.513-111.846l-66.944 29.252c-32.905 10.488-64.111 12.954-98.611 11.008-1.826-8.183 2.551-8.772 7.39-12.732 17.262-14.14 31.052-31.906 48.46-45.508 13.474-10.53 32.069-17.408 42.59-31.232-30.447 1.46-60.766-6.093-89.566-15.607-11.366-3.755-16.861-12.143-31.257-11.256l-28.903-31.505-11.366-22.186c18.005 4.693 37.333 15.658 56.038 17.783 35.158 4.01 76.527-3.328 111.949-.077 13.21 1.212 27.503 8.884 40.021 9.438 11.981.53 21.573-6.374 33.613-4.813.137-18.577-.11-37.256.034-55.884.06-7.347-3.294-20.898 4.463-24.627-1.314 32.273 1.954 64.571 2.722 96.213.111 4.471-3.379 10.718-3.03 17.954 1.025 21.017 28.775 35.225 38.452 15.718 6.699-13.508.606-30.592 2.884-48.742"/><path fill="#628942" d="M481.92 73.813c.673-16.512 5.17-25.335 11.613-41.395C505.932 1.51 518.69-2.62 551.74 1.178c12.424 1.425 18.398 6.937 19.626 19.387-16 23.603-26.76 50.176-34.414 77.636-2.629 9.438-.794 16.197-5.317 28.246-.136.367.367 5.188-.41 11.409-2.27 18.159.513 51.26-6.186 64.776-9.677 19.507-37.427 5.3-38.451-15.718-.35-7.236-3.849-12.4-3.96-16.87-.776-31.642-2.013-63.958-.7-96.23z"/><path fill="#f06a5b" d="M217.164 274.807c21.496-3.439 39.143 20.412 37.07 41.685-3.039 31.198-53.087 81.195-80.615 94.097-18.645 8.747-50.79-1.39-53.794-22.255-3.524-24.516 7.373-48.657 22.391-67.319 19.175-23.808 44.135-41.284 74.931-46.217z"/><path fill="#ee7569" d="M104.832 471.577c41.745-12.28 49.348 51.055 35.055 79.786-9.558 19.2-25.404 27.904-46.908 20.446-16.401-8.388-16.094-54.826-12.57-70.971 1.596-7.322 17.86-27.333 24.423-29.261"/></svg>