<svg xmlns="http://www.w3.org/2000/svg" viewBox="0 0 1024 1024"><path fill="#fcea9b" d="M533.803 638.754h-7.399c.461-.35 2.048-.853 2.936-.939l9.736-.878 9.49-1.152 6.57-.845 9.122-.828 6.511-.666 6.596-.682c2.484-.256 6.784 0 9.088-.487l3.678-.785 12.186-.222 3.695-.742 12.194-.563c1.374-.06 3.72-.495 5.325-.657l5.222-.53c3.268-.332 6.426-.366 9.694-.204l4.122-.205c3.933-.188 7.782-.213 11.451-.58l6.545-.657 6.537-.657 13.346-.802 5.453-.59 6.545-.708 10.189-.819 5.461-.606 6.545-.725c.998-.631 1.886-.87 1.818-1.314l-.478-3.064-14.439-1.792-5.111-.452-8.422-.76-9.097-.818-16.239-.888-5.24-.35-7.611-.99-15.428-.827-6.588-.538-10.513-.93-8.568-.794-4.172-.392-9.464-.905-9.685-.93-11.46-.862-7.45-.64-9.48-.87-9.507-.905-9.506-.717-8.397-.682-9.625-.836-9.378-.896-13.705-.811-5.385-.572-17.868.145c-1.314.009-3.917 1.383-5.163 1.613l.785-5.01-4.147-1.441c.82-1.374 1.775-2.867 2.705-4.088l1.715-2.261c.376-.495-.939-2.005-1.442-2.38l-4.215-3.107-9.02 3.192c-.282.221-1.434.964-1.22 1.228l1.732 2.185c.648.81 1.45 2.91.887 4.429-.358.964-3.6-.845-3.686-1.929-.145-1.817-.905-5.316-1.579-6.75-.273-.589-3.004-1.092-3.336-.546l-1.52 2.5c-.545.896-1.928 2.654-2.807 2.39-4.386-1.314-1.587-7.8-3.848-7.945l-5.026-.316c-2.535 1.92-16.069 5.112-18.373.64l-3.276 2.398c-.623.453-2.27 1.204-3.021 1.349-.939.179-2.219-2.117-2.313-3.192l-.418-4.505c-1.852-1.997-3.038-4.284-3.934-6.904-.623-1.818-4.71-4.31-6.63-4.25-2.407.077-6.187 1.357-8.141 1.161l-5.316-.53c-3.576-2.448-7.39-4.317-11.452-3.882-9.958 1.058-8.2-.742-11.008 3.226-3.09 4.369-1.766-7.535-9.182-5.35-7.757 2.278-9.899-3.004-12.783 2.414-.879 1.664-4.821 2.065-5.393.59-.614-1.58-1.579-4.421-2.637-4.873-1.8-.777-5.214-.35-7.671-.103-2.168.214-5.803-1.254-8.286-2.03l-4.233-1.323c-.947-.299-3.31.418-4.82 1.135-4.259 2.022-.129 6.937-1.178 10.24-2.612.256-5.112-.948-6.119-2.774l1.084-4.454c.136-.572 1.092-1.826 1.792-2.765l-3.576-4.343-7.108.196c-2.927 1.11-5.888 1.843-8.32.828L278 551.774c-7.817-3.251-3.951 2.705-13.022-1.306-1.485-.657-4.847-.665-5.274.248l-.597 7.876-3.388-3.03c-.725-.648-.631-3.677-1.032-4.863-.896-2.663-13.73-6.912-16.708-4.233l-3.704 3.328c-.537-.256-2.312-2.116-2.585-3.055-2.108-7.193-7.467-2.935-12.314-4.625l-6.741-2.364c6.195 2.168-20.276-4.59-14.908-4.104l-9.301-.845c-2.202-.196-5.445-.998-7.083-.708-2.185.375-3.943.537-4.992-.145-7.936-5.086-4.984 1.809-11.256-1.818-8.465-4.88-6.417 1.826-11.238-2.33-6.11-5.282-7.586 1.272-14.805-1.62-14.985-6-7.092-.811-13.765-2.33-4.266-.973-15.24-4.677-14.412.972-.444 1.22-.837 2.279-.777 2.117-1.63-3.047-3.541-5.436-5.777-5.172-12.655 1.52-.87-.477-13.798.308-1.707.102-4.958-.982-6.904-1.297l-7.953-1.28-1.152-3.175c.862-.247 3.004-.47 3.96-.307l9.139 1.562c3.063.52 6.52.793 9.839 1.066l15.505 1.263 19.43 1.587c5.786.47 10.556 1.596 12.706 1.596 2.398 0 6.085-.333 8.508.444l7.398 2.38c1.844.598 4.924 1.05 7.143 1.144l5.35.222c3.866 1.306 8.115 2.662 12.152 3.277l5.708.87 6.452.922 21.214 3.831 5.418.947c2.065.359 4.335.649 6.255 1.11l8.687 2.065c1.775.418 5.188.375 7.074.375.862.453 2.56.785 4.096 1.041l8.397 1.374 28.69 4.805 11.818 1.817 5.069.734 11.955 1.476 6.92.785c6.99.794 1.971.88 14.934 2.006l6.05.52 5.58.53 7.45.784 5.282.59 13.713.784 7.373.546c4.634.342 9.14.06 13.551.546l7.57.828 7.346.768 9.54.854 12.57 1.126 9.617.845 12.007 1.007 10.223.725 5.367.452 18.748.743 4.838.187 2.79.24 22.145.452 7.33.452 15.77.776 6.425.47 11.648.606 9.532.657 9.378.69 25.549.607 4.053.537 17.954.606 6.374.52 12.587.632 7.527.47 11.613.785c3.798.256 7.612.469 11.136.93l9.959 1.314 9.532 1.16 7.44.956 7.365.99 8.55 1.246 12.536 1.963 9.557 1.134 6.485.768 7.194.837 7.475.887 9.48.905 10.48.7 19.669.895c2.108.094 6.665-.256 8.934-.58 1.681-.239 3.303-4.335 3.525-5.956l.87-6.554c.111-.819-1.843-2.944-2.167-3.225-.384-1.954-1.494-3.678-3.107-5.743l-3.174.512c-.956-8.303 2.79-7.151.87-13.935-.452-1.613-3.643-3.635-5.145-3.866l-7.339-1.126c-.606-.094-2.722-1.357-2.38-1.289 1.33.094 3.746.086 5.06.325l8.047 1.476c9.745 1.792 1.732 14.524 10.29 14.396l7.322-.111 22.324-.299c5.623-.077 6.067-1.792 17.826-.777 16.264 1.4 4.659 2.902 23.245 1.263l9.557-.844c2.065-.18 13.44 2.645 13.636-2.475l.273-7.091c.051-1.366 1.118-3.337 2.006-4.549.81-.358 2.577-1.288 3.464-1.467l3.814-.768c2.048-.41 4.088-.82 5.888-.657 10.838.972-1.937-1.212 11.17.332 9.319 1.101 6.093-.35 13.748 1.272l16.452 3.473c1.306.273 3.439.162 4.625-.102l1.05-.094c1.05 1.638 3.473 2.184 5.205 1.143l1.058.086c-.145 0 1.536 1.211 2.031 1.254l6.4.546c10.539.905 7.245 2.543 12.698 2.159l2.116-.154 2.44.043c.59.009.76-1.502.845-2.022l3.277-5.282c1.058-1.707 2.057-3.661 2.85-5.257l1.434-1.971c-1.988-1.758-4.233-3.618-5.871-3.951l-8.064-1.664-4.147-.896c-.59-.24-2.424-.853-3.362-1.127-.248-.068-.64-.008-.973 0-.17-.187-2.1-.75-3.158-.947l-10.683-1.997c-.93-.17-2.748-1.015-3.2-1.774-2.535-4.216 14.788-4.42 17.945-4.856l7.518-1.041c7.066-.981 5.231 3.857 9.011 2.04l5.615-2.697c3.627-1.74 9.959-11.802 8.354-14.754-.571-1.058-3.72-2.313-5.111-2.347l-15.59-.384c-1.852-.043-4.19-.205-5.837-.486l-11.52-1.929c-4.088-.682-9.046-.281-13.474-.102l-12.74.495c-2.066.077-4.592.375-6.41.87l-6.647 1.775-1.211 5.478-2.398 5.641c-.734 1.732-4.438 4.181-6.46 4.241l-9.31.273c-.35.009-1.63 1.203-1.34 1.067l-1.058.051c-.938.188-2.756.666-3.225.87l-6.878.18-14.037-.111c-1.272-2.893-9.165 1.263-15.292-3.712-2.313-1.878-5.026-3.516-7.723-4.045l-7.782-1.528-6.417-1.05-15.19-3.011c-2.022-.402-4.958-.333-6.971-.342-.495 0-1.374-.042-1.903-.068l-1.093-.896-5.504-.998c-.529-.094-1.937.435-1.98.563h-1.057l-3.115-.683-1.058-.043c.042-.162-1.494-.879-2.16-.964l-6.476-.887-3.942-.59-5.368-.998-21.632-4.659c-3.2-.69-6.81-1.74-9.523-3.174l-4.813-2.543-7.671-4.088c-3.158-1.68-6.409-2.09-10.454-2.38-4.394-.316-22.528-5.931-36.855-6.895l-8.55-.572c-4.011-.273-9.106-2.884-19.926-4.574-2.628-.41-6.656-2.04-8.994-2.142l-3.789-.162-12.544-.563-4.266-.777h-5.283l-.87-1.126-6.528.068h-1.058l-.794-1.05h-6.596c-.393-.435-2.27-1.057-3.166-1.057h-5.282l-.802-1.059h-8.713c.086-.102-1.476-.819-2.056-.913l-5.487-.896-6.383-1.04-6.315-1.102-5.478-1.05c-1.212-.23-4.028-1.382-5.231-1.86l-8.79 1.844c-2.338-4.182-5.93-6.673-9.523-6.707-.733.836-2.773 3.481-3.72 3.404-1.886-.145-4.02-3.507-5.231-5.546-2.125-3.559-7.441-2.774-8.03-4.574-.008-.026.998-1.237 1.272-1.246l8.012-.145c.896-.017 3.371.58 4.438.606l10.274.205h5.282l.964 1.075 32.836-.017h3.166l.87 1.135 6.529-.077h2.116l2.133 1.067 2.091 1.04-7.407-.767c-2.97-.308-5.726-.675-8.636-1.195l-36.736-.282-5.367-.58-7.134.41c1.067 1.467 1.92 2.423 2.782 2.73l13.91 4.933c3.225 1.143 14.796 3.78 18.952 4.565l8.576 1.613 6.212 1.04 7.441 1.059 7.381.998 7.612.939 7.049.785 6.553.725c1.605.18 4.02.598 5.265.657l13.551.632c2.73.529 5.718.896 8.619.87l38.007-.29c3.235-.444 6.264-.742 9.515-.964l9.455-.64 11.63-.674 9.55-.956 7.415-.742 8.474-.845c2.765-.273 5.751-.546 8.448-1.092l14.421-2.91 6.86-1.45c2.237-.47 3.406-1.05 5.428-3.337-3.917-5.18-11.35-5.36-17.374-5.308l-19.575.179-3.72.845c-2.177.495-6.657.205-9.046.46l-6.613.709-6.554.691c-2.415.256-5.018.316-7.185.358v-1.058c.52-.05 1.544-.008 2.116 0l4.446.086.836-1.144h2.117l6.536.051.862-1.109h3.166c2.355.725 12.57-.896 11-.845l17.322-.52 6.443-.563c4.949-.436 9.736-.163 14.02-1.946 1.792-.742 3.268-1.067 4.548-.333 8.866 5.095 11.58-9.941 14.874-5.325l4.173 5.837c.904 1.272 4.266 3.627 5.82 3.482 2.081-.197 4.266-2.176 5.665-3.763l5.94 4.258c4.309 3.089 16.4-4.139 19.788 2.278l-2.252 5.504 17.587.35c-5.342-6.639-6.665-2.662-8.653-6.784-1.16-2.415 7.586-2.219 11.042-8.03-8.465-7.74-7.859 1.826-13.448-4.028-4.745-4.966-5.282-.324-8.44-3.976-4.505-5.197-15.804-2.006-23.193-3.106-13.74-2.048-13.756-3.926-25.003-6.315l-6.86-1.45-7.066-1.332c-2.45-.46-4.847-.7-7.356-.947l-5.487-.555-12.297-.793-6.545-.64-7.355-.837-7.663-.955c-4.83-.598-10.496-.649-15.412.017-10.555 1.425-6.263-6.042-11.87-4.267-3.54 1.126-7.176-3.516-6.911-6.042.102-.921 1.561-2.79 2.252-2.508 7.877 3.225-.35 3.447 16.222 4.949l11.836-4.753c1.672-.674 3.243-1.272 4.71-1.75l12.903-4.198 3.695-2.893c4.505-3.524 8.934-8.175 6.673-13.824-.53-1.314-5.257-1.664-9.174-.315l-5.026 1.732c-8.772 3.03-6.69.435-14.336 3.226-12.117 4.42-1.877 5.248-17.817 4.232-1.878-.12-5.24 1.434-7.501 1.997-6.11 1.536-2.347-.256-11.768 1.852l-15.522 3.473c-3.908-.538-8.405-.461-12.689.367-1.34.256-4.685-.487-6.135-.308l-7.245.922-4.267.384-6.425.52-6.597.598-10.948.665c-4.625 5.103-7.236 1.775-10.871 2.15l-10.42 1.085-2.355-.342h-6.34l-12.62-.264-5.343-.794-.793-1.05h-6.597c-.469-.418-2.21-.972-3.165-1.058-2.279-.196-4.72-.4-7.382-.87l-5.453-.956-5.376-1.058c-1.015-.196-3.063-.247-3.968-.29-.392-.435-2.27-1.058-3.165-1.058h-5.283l-.836-1.067h-5.504l-3.166.009-7.577-.069-.88 1.127h-24.302l1.553-1.195 2.586.077 8.73.12c1.552.025 4.633-.76 6.271-.837 8.056-.392 16.077-.76 23.979.094l8.687.939 6.127 1.015 7.56 1.17 8.508 1.56 5.521 1c1.417.255 4.77 1.16 6.391 1.177l28.246.247c1.433.009 3.848-.537 5.316-.75l8.363-1.22c2.782-.402 5.845-.777 8.559-.974l10.29-.75 7.57-.59 7.535-.682 11.511-1.22 6.93-.828 8.866-1.28 9.65-1.144c12.494-1.484 14.217-3.6 23.246-5.12 1.809-.307 4.48-.392 5.981-.75l14.67-3.49 7.406-1.784 9.83-2.133c2.177-.47 5.931-.828 8.201-.24 2.031.521 1.877 10.48-3.31 14.849l-7.177 6.041c-10.59 8.918-28.468 6.87-25.873 13.082.204.495 2.33 1.536 2.892 1.596l7.254.785 9.548 1.04 6.204.675 6.494.674 6.528.64 11.238.845 7.595.776 9.48.956 7.305.81 7.68 1.016c2.518.333 5.129 1.024 7.544 1.622l10.419 2.585 4.907.657c3.293.444 6.263 1.596 9.292 2.15l20.48 3.747c2.338.426 4.608.947 6.767 1.527l7.39 1.98 13.508 3.567c13.867 3.66 29.756 21.88 22.272 36.275-1.928 3.704-4.369 6.904-7.261 9.813l-4.37 4.412-.947 1.263c-1.365 1.818 5.487 3.302 6.213 3.302l49.1.384 4.574.845c4.463.82 10.215-.102 14.678.384l10.487 1.127 6.545.682 7.5.751c1.716.17 6.205 1.058 6.845 2.646 2.508 6.186-6.878 21.853-11.222 22.784-3.2.682-8.542 0-11.93-.29l-11.81-1.007c-.145 1.04-.315 2.201-.298 2.124l2.756.709 4.3 1.083 1.673.418 1.699.444 12.245 3.345c1.63.444 5.18 3.269 4.65 4.847-.767 2.296-2.338 5.18-3.26 7.151-1.672 3.584-3.336 7.646-7.15 9.242l-7.731-.393c-1.639-.085-3.653-.47-5.342-.717l-6.349-.921-10.402-1.289-7.407-.921-9.54-1.093c-4.122-.469-8.354.163-12.758-.426l-5.316-.709-23.202-.4c-1.263-.026-3.03 2.022-3.157 3.14l-.726 6.587c-.17 1.51-1.758 5.36-3.336 5.308l-12.519-.41c-15.906-.529-9.36 1.05-20.352 2.381-2.543.308-6.826-3.012-9.71-3.02l-27.649-.103-4.138 1.1-16.734-.17c-1.314-.017-3.9 3.021-3.2 4.122l3.447 5.427 20.933.418c1.63.034 4.736.743 6.408.973l8.534 1.212 8.49 1.433c9.114 1.536 11.571 3.883 19.635 1.784 2.048-.538 4.899-1.622 6.571-1.579l19.183.47 10.539.571c4.684.256 9.514.23 13.576 2.27 2.808 1.408 5.709 4.25 6.63 7.142.828 2.586-1.194 4.805-3.26 5.453-16.016 5.035-8.464 1.587-21.05 12.98l-12.826-.41-7.552-.47c-6.162-.383-12.502-.494-18.688 0l-6.853.555c-4.582.367-1.322 5.735-4.693 11.46l-5.513.547c-3.217.324-6.178.98-9.574.7l-9.387-.76-49.561-.538-4.54-.11-3.985-.53-46.61.18c-3.165.008-7.176.64-10.41 1.04l-6.391.786-11.674 1.348-4.207.529-6.553.836-9.114.82-6.562.708c-1.673.179-3.917.58-5.342.657l-11.153.597-3.618.734-12.228.213-3.772.837c-3.362.742-9.472.085-13.406.4l-9.592.777-7.586.606-14.421.836-7.578.632-7.56.631-10.249.862-6.502.555-8.431.836-9.515 1.118-7.646.939c-2.662.324-5.742.358-8.209.358zm372.821-188.1c-.623-.563-2.893.998-3.277 1.579l4.745 1.868c.256-.392 1.032-1.34.725-1.544s-1.075-.905-2.193-1.912zm-70.528 16.572c.7-1.349 1.212-3.08 2.005-3.328l4.267-1.366c-5.24-3.302-14.43-3.96-20.847-.12l-2.577 1.545c-.401.24-.017 2.296.222 3.004.478 1.442 4.275 2.057 6.093 1.8l10.846-1.535zm-20.002.64-5.786-.453-2.048 2.142 5.777.333 2.048-2.022zm82.21 24.362 8.064-3.652c4.94-2.236 9.54-5.282 11.998-10.513-.99-1.246-3.226-3.337-4.497-3.593l-11.256-2.312-6.698-1.17c-1.528-.264-3.806-.75-5.06-.844l-11.504-.845c-.426-.034-11.033-1.382-10.743-1.365-11.998-.691-32.222-.81-42.786 5.367l4.497 5.257.47 7.006c.093 1.425 3.566 3.097 5.034 3.345l7.339 1.212 6.485.972 8.49 1.11 8.363 1.024 9.609 1.109 7.415.785c5 .53 10.24-.845 14.763-2.893zm-82.048-8.277c2.406.503 9.77 2.005 9.327-1.81-.316-2.713-3.72-4.513-6.409-4.18l-9.028 1.092c-1.007.12-2.688 1.834-2.952 3.004l9.062 1.902z"/><path fill="#fdeaa3" d="M43.63 472.85c-7.372 5.819-9.787 5.486-12.552 10.376l1.596 7.509c.248 1.16 1.152 3.575 1.715 4.89l2.338 5.46c2.415 5.641 18.006 11.444 23.715 13.1l9.72 2.824 4.36 1.331 1.152 3.175 7.953 1.28c1.945.315 5.196 1.4 6.903 1.297 12.928-.785 1.135 1.211 13.799-.307 2.244-.274 4.147 2.124 5.777 5.17-.06.171.324-.895.776-2.116-.828-5.649 10.146-1.945 14.413-.972 6.673 1.519-1.212-3.67 13.764 2.33 7.22 2.892 8.696-3.67 14.806 1.62 4.812 4.165 2.773-2.55 11.238 2.33 6.272 3.618 3.32-3.268 11.255 1.818 1.059.674 2.816.52 4.992.145 1.639-.282 4.881.512 7.083.708l9.301.845c-5.367-.486 21.103 6.272 14.908 4.104l6.741 2.364c4.847 1.698 10.206-2.568 12.314 4.625.273.939 2.048 2.8 2.586 3.055l3.703-3.328c2.978-2.68 15.82 1.57 16.708 4.233.401 1.186.3 4.215 1.033 4.864l3.388 3.03.597-7.877c.427-.913 3.789-.905 5.274-.248 9.08 4.011 5.205-1.945 13.021 1.306l4.148 1.724c2.432 1.015 5.393.281 8.32-.828l7.108-.196 3.575 4.343c-.69.939-1.647 2.193-1.792 2.765l-1.083 4.454c1.007 1.826 3.507 3.03 6.118 2.774 1.058-3.294-3.072-8.218 1.178-10.24 1.51-.717 3.865-1.434 4.821-1.135l4.233 1.322c2.483.777 6.118 2.245 8.285 2.031 2.458-.247 5.88-.674 7.672.103 1.05.452 2.022 3.294 2.637 4.872.571 1.477 4.505 1.075 5.393-.589 2.875-5.418 5.026-.136 12.783-2.414 7.415-2.185 6.092 9.719 9.182 5.35 2.807-3.968 1.05-2.168 11.008-3.226 4.061-.435 7.876 1.442 11.451 3.883l5.317.53c1.954.195 5.734-1.085 8.14-1.161 1.929-.06 6.016 2.432 6.63 4.25.897 2.619 2.083 4.906 3.935 6.903l.418 4.505c.102 1.075 1.374 3.37 2.312 3.192.751-.145 2.398-.896 3.021-1.349l3.277-2.397c2.304 4.471 15.838 1.28 18.372-.64l5.026.315c2.262.145-.537 6.63 3.849 7.945.879.264 2.261-1.494 2.807-2.39l1.52-2.5c.332-.554 3.063-.042 3.336.546.665 1.442 1.433 4.933 1.578 6.75.086 1.084 3.328 2.893 3.687 1.929.563-1.52-.248-3.618-.888-4.43l-1.732-2.184c-.213-.264.939-1.007 1.22-1.228l9.02-3.192 4.216 3.106c.503.376 1.809 1.886 1.442 2.381l-1.716 2.261c-.93 1.23-1.885 2.714-2.705 4.088l4.148 1.442-.785 5.01-4.591.844c-2.629.486-5.573 1.135-8.244 1.246l-8.49.358-6.528.632c-3.507.34-7.143.35-10.368.367l-33.698.187h-5.479l-29.585-.247-5.384-.717-17.528-.538-5.419-.81-10.427.017-3.772-.93-12.151-.188-3.619-.768-13.158-.614-7.714-.683c-2.023-.18-4.668-.64-6.4-.7l-17.715-.623c-1.246-.042-3.943-.631-5.385-.99l-6.485-1.63c-.461-.11-1.51-1.493-1.767-1.962-.34-.623.965-2.79 1.605-2.978l7.628-2.219-1.015-2.321c-.256-.589-1.75.043-3.046.307-2.048.41-4.523-.281-7.049-.896-2.824-.683-6.639-.93-9.984-1.169l-11.674-.82-10.265-.52c-5.93-.298-9.754-1.732-11.153 3.627-.367 1.39-1.092 3.38-1.997 3.9-1.084.623-3.977-.017-5.419-.094l-15.3-.836-7.586-.59-9.49-.742-15.658-.776-7.757-.725c-2.662-.248-6.621.921-9.233.955l-21.299.273-7.245-.162c-.606-.017-2.346-.631-2.884-.87s.205-1.946.47-2.808c.23-.75-1.127-2.03-1.912-2.235-5.453-1.46-18.91-5.445-22.613-7.1l-6.588-2.936-6.247-2.705-6.468-2.799c-1.502-.648-5.53-.597-6.673.017-1.177 2.33-3.942 5.573-6.297 5.871l-15.471-9.147-3.968-2.347c-2.757 4.838 3.558 9.702 6.707 12.587 8.61 7.859.964-.29 11.46 8.644 1.272 1.084 4.6 2.253 6.178 3.234 4.907 3.046 9.25 4.804 14.703 6.648 7.467 2.525 7.842 3.89 18.176 6.963l11.426 3.396c2.074.614 4.403 1.425 6.562 2.202l6.221 2.227c2.116.76 5.171 1.015 7.433 1.613l17.39 4.582 6.093 1.425 5.99 1.4 12.204 2.594 6.289 1.066 7.193 1.067 8.465 1.126 6.545.87 7.049.794 5.427.606 7.39.81 9.523 1.042 8.286.734 5.444.58 6.545.7 11.239.82 6.528.656 7.424.751c3.234.324 6.741.53 9.736.606l7.22.188c1.62.042 3.558.187 5.29.4l7.535.897 9.941 1.007 11.025.827 9.362 1.417 8.38.683 6.51.563 8.431.828 9.515 1.092 8.473 1.118c10.54 1.39 3.132 1.28 15.821 1.254l.802 1.058h19.277l.853 1.058h19.226l.93 1.058h71.049l.913-1.058h10.82l.802-1.058h15.053l.802-1.058h9.77l.803-1.058h11.622l-.674 1.11-2.423-.035-2.202-.017c-.47 0-1.493.18-2.09.248l-7.399.827-7.415.743-11.205.503c-.734.034-3.055.81-3.678.81l-9.216.052-3.694 1.015-69.146.052-5.675-.87-20.574-.376-3.805-.82c-4.096-.878-10.889-.016-15.292-.435l-6.648-.623-8.43-.887-7.612-.87-9.148-.862-6.502-.632-6.494-.623-9.208-.853-5.444-.503-9.498-.862-5.205-.478-13.807-1.297-10.547-.99-12.484-1.17-7.595-.63-7.56-.632-9.191-.836-6.502-.632-6.52-.631-10.18-.854-7.62-.862-7.365-.81-6.51-.691-6.998-.768-6.426-.956c-8.772-1.306-5.06-.188-13.824-1.63l-5.495-.905-7.253-1.194c-1.826-.299-3.746-.623-5.393-1.024l-11.18-2.714-9.394-2.32-7.638-1.887-5.691-1.39c-2.16-.53-4.967-.88-7.015-1.57l-11.29-3.84-4.513-1.511-16.427-4.941c-2.1-.631-5.112-2.133-7.288-3.038l-7.5-3.123-6.725-2.799-5.128-2.022c-3.158-1.238-6.742-2.705-9.49-4.43l-5.324-3.344c-6.699-4.207-11.785-8.27-16.777-14.481-15.325-19.08-17.092-45.91-2.065-65.477l4.276-5.563c3.814-4.967 10.948-10.846 16.128-14.114l7.987-5.035c1.11-.7 3.592-1.34 4.838-1.425zm-1.066 95.692c-.085-3.746-.17-5.427-.725-8.021l-1.775-8.286c-.393-1.844-.631-4.293-.802-6.409l-.52-6.443-.717-17.612c-.043-1.076-.47-3.243-.623-4.438l-.956-7.569c-.154-1.246.102-3.626-.367-4.625s-2.637-2.312-3.601-2.568c-1.792 1.723-4.403 3.985-5.325 5.666l-5.632 10.291-2.244 4.275c-4.258 8.115-3.806 22.426 1.962 29.287 2.313 2.747 16.052 17.698 21.325 16.46zm335.983 1.45c0-1.237-1.007-2.244-2.244-2.244s-2.244 1.007-2.244 2.245 1.007 2.244 2.244 2.244 2.244-1.007 2.244-2.244m9.575 3.713h-2.339c.58 4.027 1.758 4.027 2.339 0m-210.876 13.388 6.041.59c2.637.255 15.582 2.107 14.729-2.305-.196-1.015-1.963-2.713-2.987-2.867l-4.6-.7c-1.663-.256-3.984-.682-5.315-.742l-17.63-.768-8.747-.598-9.549-.785c-3.686-.307-7.705-.145-11.4.043l-17.11.87c-1.672.086-3.882.23-5.29.521l-9.856 2.022c-1.033.214-2.62 1.468-4.028 2.868l8.721.443c1.178.06 4.045-.75 5.427-.75l36.301-.035 3.84.965c3.37.853 9.583.076 13.184.426l8.252.802zm220.313-1.288-2.38-3.849-2.731 3.525 5.111.315zm37.931 4.446.888-2.356c-1.92-1.297-3.875-2.781-5.01-2.747-2.312.068-2.739 4.232-1.527 5.777zm12.16 11.264c1.613-.052 3.388-.248 4.762-.376l9.199-.828 1.237-1.297c1.562-1.63-6.613-2.124-8.15-2.193l-15.99-.708-9.592-.648-9.395-.64-13.611-.914-6.622-.469-6.298-.82-29.312-.588-4.292-.563-13.679-.657-6.51-.418-12.084-.743-67.14-.375c-2.082-.009-5.308.717-7.364 1.092l-3.832.7-.026 3.26 14.405 1.305 6.502.461 14.447.836 7.586.632 7.655.648 12.074.64c.709.034 2.995.743 3.67.751l13.2.18 3.815.938 11.426-.017 5.308.802 16.683.555 5.341.785h53.99l5.454-.794 17.152-.537z"/><path fill="#fde086" d="M325.683 403.209c-.316 0-4.727.512-4.343 2.372.136.64 1.169 1.886 1.783 2.116l4.25 1.579c10.615 3.934 5.265 1.357 15.786 4.164 3.602.956 12.997 3.26 16.077 3.31l17.22.325c-2.15-.042 20.105 1.476 15.95.828l5.18.81 11.52.427c1.04.043 2.764 1.186 3.011 1.775l-4.872 1.45-7.748-1.091c-5.923-.837-6.05-1.699-10.249-1.86l-4.531-.171c-5.59-.214-11.085-.145-16.589.102l-7.765.358-8.346.205c-5.111 4.36-7.313 4.796-13.875 3.618-7.68-1.373-4.386 2.1-16.265 2.21l-.887 4.762c-.538 2.867-7.51-1.869-9.2-1.152l-9.463 3.994 3.192 6.681c-3.004.555-6.793-1.356-7.646-3.208-.247-.53.683-2.526.282-2.867l-2.313-1.997-1.544-1.323c-3.209-2.748-2.202 7.228-3.2 8.218l-9.711.324-2.45-4.847-1.98 3.789c-7.67 3.78-10.026 1.485-16.801 1.331l-8.44-.196-7.475-.145-5.308-.512-10.24-.947-6.485-.598-7.467-.768-8.678-.973-3.985.47-.93-.947c-.88-.222-2.936-.888-3.584-.896l-9.225-.111h-4.224c-.094-.325-1.246-1.647-1.664-1.263l-1.621 1.502c-.316 0-.785.017-1.058 0l-.598-1.22c-2.304-.316-4.343-.743-5.649-.803l-11.724-.572a28.6 28.6 0 0 0-5.155.248h-1.058l-1.297-.896-3.02-.017-33.767-.23c-2.227-.018-5.111.511-7.356 1.109-.725 1.45-2.15 4.394-2.543 5.649l.401 6.11c.035.503.009 1.459 0 2.014l-2.15 2.116-4.838-3.67-3.5-2.653c-3.993-3.03-16.349-12.288-15.897-16.905l2.586 2.833c1.724 1.895 13.133 14.933 16.196 11.443l3.883-4.428c1.348-1.536 3.575-4.54 3.61-6.486l.375-22.093c.026-1.433 3.2-10.956 5.427-14.634l3.695-6.093-5.146.503c-3.865.376-7.637 2.424-10.999 4.523l-4.343 2.859c-.564.375-3.158.981-3.644 1.459l-8.218 8.038c-3.686 3.61-6.8 8.491-6.733 13.33l3.32 8.763c-3.123-1.11-4.984-9.003-3.925-13.116l.7-2.739c-.922-2.526 10.188-12.851 12.006-14.097 7.168-4.924 15.283-10.453 22.835-11.221l8.542-.87 6.494-.905c1.169-.162 4.198-1.34 5.46-1.34l26.582-.077 3.934.999c2.244.571 7.612-.051 9.959.333l6.536 1.083 5.461.87 8.465 1.238 7.211 1.084 5.479.836 8.439 1.212 7.424 1.032 7.236 1.016c4.395.614 1.673 1.63 9.694 2.5l6 .649 9.625 1.288 5.248.862 6.494 1.1 8.482 1.52 8.448 1.246 5.41.785 10.248.819 6.571.674 5.35.708 12.715.384.913 1.024z"/><path fill="#fdeaa3" d="M81.638 424.294c-.452 4.617 11.904 13.876 15.898 16.905l3.499 2.654 4.838 3.67 2.15-2.117c-.068 6.57 8.679 9.122 14.934 10.735 9.463 2.432 6.34 5.436 11.486 5.299l11.818-.316.948 1.374-6.383.034-5.155.128c.23 7.723 1.775 2.74 11.46 9.216 2.8 1.878 7.851 2.569 10.736 3.917 1.348.632 3.456 2.44 4.744 2.38 2.8-.144 6.238-.221 7.595.812l5.726 4.334c.827.632 2.986.828 4.283.658l4.105 1.126 7.57 2.108c4.027 1.126 7.927 3.558 11.656 5.034 3.2 1.263 7.253 1.758 10.214 3.559l5.478 3.32c4.43 2.687 3.473-5.053 17.11 5.913l4.992 4.019c3.353 2.697 9.549-2.108 13.44 1.766l4.24 4.224 2.962-.52c8.533 5.401 18.594 5.785 25.045 9.549l5.59 3.25c2.21 1.29 4.352 3.56 7.048 6.205l-3.635.76-11.529 2.26-3.25.52c-.419-.144-1.247-.238-2.015-.34l-9.608-1.315-4.617-.733-5.188-.862-7.893-1.093-7.587-.938-8.413-.845-7.57-.631-13.576-1.144-9.199-.631-6.58-.88-7.398-.844-8.541-.853-8.457-.87-8.474-.794-6.212-.828-8.516-1.22c-2.133-.308-5.018-.845-6.87-1.391l-9.753-2.885-9.404-2.526c-1.024-.273-3.208-1.228-4.463-1.723l-6.118-2.398c-9.114-6.86-5.231-.196-17.587-9.617-4.113-3.14-7.655-4.745-12.493-8.798-4.523-3.789-10.06-9.088-13.013-14.268-3.994-6.989-1.528-16.819-4.387-16.188l-4.684 1.033.76-1.22 6.305-2.04.606-10.692c.137-2.45 1.024-5.87 1.417-8.482l1.092-7.245 1.16-7.518.888-5.316 1.434-9.455c.162-1.041 1.45-2.79 2.15-3.09l-.7 2.74c-1.058 4.113.802 12.007 3.926 13.116z"/><path fill="#fcdc73" d="M281.216 537.07c.503.172 1.775.854 2.304.931l13.978 2.065 13.064 1.937c1.758.265 3.234.068 5.948-.793a27.7 27.7 0 0 0-4.591-4.77l-5.427-4.404c-1.971-1.604-4.147-2.884-6.58-4.053l-6.289-3.02-2.85-1.366c3.874-.154 8.585.452 11.75 2.901l3.79 2.927c4.25 3.285 8.14 3.064 12.347 6.246l5.521 4.182c1.775 1.348 3.985 2.893 5.41 3.857l4.899-4.378 4.983 2.09c.52.214 1.306 1.486 2.432 2.996-3.234 2.279-13.022 5.112-16.691 1.767l-10.906-.82-13.858-2.261c-11.11-1.818-3.84 1.434-16.82-2.637-3.267-1.024-7.423-2.338-10.743-2.739l-10.683-1.289c-1.664-.196-3.653-.622-5.368-.98l-9.66-1.99c-2.09-.434-5.495-.494-7.927-.716l-7.595-.691-6.8-.64c-4.583-.435-8.56.06-13.8 1.621 1.793 1.852 3.61 2.927 5.496 3.26l7.689 1.357 12.732 2.628 6.57 1.254c.854.163 2.228.803 2.919 1.16-1.886 0-5.3.044-7.074-.375l-8.687-2.065c-1.92-.46-4.19-.742-6.255-1.109l-5.419-.947-21.214-3.832-6.451-.921-5.709-.87c-4.036-.615-8.294-1.972-12.151-3.277l-5.35-.222c-2.22-.094-5.3-.546-7.143-1.144l-7.398-2.38c-2.424-.777-6.11-.453-8.508-.444-2.15 0-6.92-1.127-12.706-1.596l-19.43-1.587-15.506-1.263c-3.32-.273-6.775-.546-9.839-1.067l-9.139-1.561c-.956-.163-3.098.06-3.96.307l-4.36-1.331-9.72-2.825c-5.708-1.655-21.29-7.458-23.714-13.099l-2.338-5.46c-.563-1.315-1.476-3.73-1.715-4.89l-1.596-7.51c2.765-4.89 5.18-4.548 12.553-10.376.674-.53 2.108-1.485 3.098-1.989l4.147-2.09 8.047-3.798c1.1-.52 2.79-1.288 3.678-1.484l4.684-1.033c2.859-.631.401 9.207 4.386 16.188 2.962 5.18 8.5 10.479 13.014 14.267 4.838 4.054 8.371 5.658 12.493 8.798 12.347 9.421 8.473 2.757 17.587 9.617l6.118 2.398c1.263.495 3.448 1.45 4.463 1.724l9.404 2.526 9.753 2.884c1.844.546 4.736 1.092 6.87 1.391l8.516 1.22 6.212.828 8.474.794 8.456.87 8.542.853 7.399.845 6.579.88 9.199.63 13.576 1.144 7.57.632 8.413.844 7.586.939 7.894 1.092 5.188.862 4.617.734 9.608 1.314c.768.103 1.596.196 2.014.341zm-229.3-27.613 5.018 2.022c1.929.777 13.406 4.78 13.1 3.013l-.36-2.065c-.332-1.912-1.399-5.052-1.441-6.801l-.512-21.163.503-6.562-.393-13.67c-1.962.179-4.488.588-6.033 1.305l-8.26 3.857c-8.15 3.806-12.203 8.397-15.966 16.785-1.903 4.233-2.85 8.883-.213 12.97 3.2 4.967 8.328 7.8 14.575 10.318z"/><path fill="#fdeca7" d="M179.772 434.04c.273.017.742 0 1.058 0 .947-.086 2.406-.24 3.285-.24h4.224l.854.914 6.391.546c2.219.187 4.727.7 6.485.495l3.985-.47 8.679.973 7.466.768 6.486.597 10.24.948 5.308.512c-4.523.341 10.094 1.937 7.569 1.749l9.813.725 9.165.572c6.937.435 11.11 1.971 12.731 1.997l25.097.435c1.98.034 5.675 1.22 7.697 1.417l15.701 1.501 7.407.803c2.637.281 5.308.529 7.732.98l7.142 1.34c6.733 1.264 13.26 2.774 19.84 4.506l10.291 2.705c10.325 2.714 4.489 2.697 12.92 5.743 13.755 4.958 11.357-.623 20.744 5.82 1.912 1.314 4.267 2.005 6.562 2.67l9.797 2.825 12.654 3.653c4.199 1.211 8.773 3.26 12.826 4.138 5.257 1.135 10.274 2.228 15.232 4.02 1.724.623 5.769.41 7.484.827 12.928 5.428 3.166-.99 17.928 3.746 1.17.376 3.345.726 4.873 1.076l7.296 1.664c2.108.478 4.727 2.466 6.87 3.558 16.187 8.269-1.801 1.894 11.383 14.481l2.782-2.765.41-6.596c1.228-.222 4.71-.597 6.015-.128 3.32 1.186 5.905 5.854 6.904 8.986 1.382-.299 2.91-.572 2.61-1.076l-1.057-1.809-1.255-2.159c-.222-.375 1.639-1.868 2.065-1.817l4.6.589c5.145.657 10.36 3.916 13.517 7.833 2.483 3.072 6.954 2.757 9.881.162l5.794-.99c2.996-.511 3.2 1.306 11.631 3.047l9.651 1.997c2.586.537 6.87 1.135 9.114 2.022 16.614 6.554 5.948.487 16.93 4.617 5.718 2.15.683-1.289 12.886.981 1.655.307 3.328.666 4.428.777 1.937.196 4.36.375 6.417.861l5.283 1.246c2.414.572 4.403 1.22 7.142 2.27 4.326 1.656 10.146 1.348 14.728 2.398l14.601 3.354 9.916 2.005c1.04.213 2.875-.094 3.405-.589 9.693 0 3.933 1.886 12.347 2.16-.307-.044 1.784 1.1 2.33 1.194l7.117 1.271c8.106 1.45 7.082 2.91 14.165 3.303l12.467.682c2.15.12 4.37.359 6.4.657l12.22 1.835 4.557.563 5.427.538 7.142.503c-.341-.077 1.775 1.195 2.381 1.289l7.339 1.126c1.502.23 4.693 2.253 5.145 3.866 1.92 6.775-1.826 5.632-.87 13.935-2.364 3.2.324 14.2-2.406 14.336l-6.264.298-8.209-1.459-11.64-2.005-7.364-1.203-10.624-1.886-6.476-1.007-7.424-1.024-7.399-1.016-7.347-1.007-8.388-1.152-7.356-1.032-7.56-1.118-6.238-.947-8.55-1.178-9.277-1.066-8.66-.803-8.62-.7c-3.029-.247-7.458.163-10.265-.452l-11.358-2.483-9.813-1.843-15.94-2.91-12.536-2.56-15.514-3.251c-4.975-1.041-9.933-1.963-14.762-3.268l-7.185-1.946-12.519-3.388-6.758-1.834-16.53-4.48-8.336-2.287-15.676-4.446-10.752-3.064c-1.74-.494-3.67-1.058-5.018-1.28l-.887-1.399c-7.433-3.055-9.967-2.398-15.702-4.37l-15.086-5.187-6.844-3.03-6.366-2.107-7.697-2.535c-1.681-.554-3.584-1.229-5.41-1.587l-6.306-1.237-8.969-2.475c-1.587-.435-5.256-.162-6.724-.734-1.732-.683-3.746-1.783-5.171-2.184l-10.147-2.85c-1.425-.402-3.6-1.263-4.445-2.083-.794-.768-1.997-1.612-3.55-2.312-10.949-4.932-4.907-1.007-11.136-2.338l-7.057-1.51c-12.8-2.74-4.685 3.2-13.218-2.894-2.117-1.51-6.315-3.25-8.594-4.096-3.9 2.688-4.906 1.349-14.327.47-1.655-.154-5.026-.862-6.502-1.698-3.67-2.065-8.337-.23-11.742-.87l-17.408-3.269-8.636-1.63c-3.797-.41-7.603-1.075-10.53-.836l-1.058-.06-.87-1.04c-1.776 0-3.525.101-4.447-.078 2.381-5.64 10.164-.384 8.884-4.685-1.528-5.162 7.116-4.164 6.186-8.302l-1.348-6c-.589-2.602-1.852-8.524-6.084-7.722-1.17.222-3.055.563-3.004 1.195.034.426.239 1.544.401 1.954l2.21 5.734-5.248 2.372c-.973.436-3.729-1.109-4.24-2.056-.376-.7-1.178-2.535-.718-2.884l2.15-1.605c.786-.588 2.177-2.79 1.656-3.626-2.201-3.499-8.72.426-15.198-1.152l-8.712-2.117c-13.764-3.353-8.49 3.03-15.88-.554l-5.735-2.782c-1.152-.555-4.42-.785-5.888-.905l-9.626-.776c-2.27-.188-4.403-.427-6.536-.708l-6-.803-9.633-1.143-7.28-.794c-2.15-.23-4.872-.46-6.664-.05l-5.214 1.21c-6.869-3.78-13.619.36-19.925-3.873l1.058-1.058h1.058c.342.35 2.1.955 2.885.998l8.02.452 4.976.393 7.245.512z"/><path fill="#fdd26a" d="M494.805 526.72c1.349.213 3.277.785 5.018 1.28l10.752 3.063 15.676 4.446 8.337 2.287 16.529 4.48 6.758 1.835 12.519 3.388 7.185 1.945c4.83 1.306 9.787 2.227 14.762 3.269l15.514 3.25 12.535 2.56 15.94 2.91 9.814 1.844 11.358 2.483c2.807.614 7.236.213 10.265.452l8.62.7 8.66.802 9.276 1.067 8.55 1.177 6.238.948 7.561 1.117 7.356 1.033 8.388 1.152 7.347 1.007 7.399 1.015 7.424 1.024 6.476 1.007 10.624 1.886 7.365 1.203 11.64 2.006 8.208 1.459c0 .136 1.613 1.178 2.116 1.169l6.144-.085 1.033-5.402c.162-.862.17-2.748.196-4.343.017-1.007 1.912-3.414 2.697-2.825l2.773 2.082c.324.273 2.279 2.398 2.168 3.226l-.87 6.553c-.214 1.622-1.844 5.71-3.525 5.957-2.27.324-6.827.682-8.934.58l-19.67-.896-10.479-.7-9.48-.904-7.475-.888-7.194-.836-6.485-.768-9.558-1.135-12.535-1.963-8.55-1.246-7.365-.99-7.44-.955-9.533-1.16-9.958-1.315c-3.524-.46-7.347-.674-11.136-.93l-11.614-.785-7.526-.47-12.587-.63-6.374-.521-17.955-.606-4.053-.538-25.549-.606-9.378-.69-9.532-.658-11.648-.606-6.425-.47-15.77-.776-7.33-.452-22.144-.452-2.79-.24-4.839-.187-18.747-.742-5.368-.453-10.223-.725-12.006-1.007-9.617-.845-12.57-1.126-9.54-.853-7.347-.768-7.57-.828c-4.411-.486-8.925-.205-13.55-.546l-7.373-.546-13.713-.785-5.282-.59-7.45-.784-5.58-.53-6.05-.52c-12.963-1.118-7.945-1.212-14.934-2.005l-6.92-.785-11.956-1.477-5.069-.733-11.818-1.818-28.69-4.804-8.396-1.374c-1.536-.256-3.243-.589-4.096-1.041-.691-.359-2.074-.999-2.919-1.16l-6.57-1.255-12.732-2.628-7.689-1.357c-1.885-.333-3.703-1.408-5.495-3.26 5.24-1.562 9.224-2.048 13.798-1.621l6.801.64 7.595.69c2.432.223 5.837.291 7.928.718l9.66 1.988c1.714.35 3.703.777 5.367.981l10.683 1.289c3.32.4 7.484 1.715 10.744 2.74 12.98 4.078 5.709.827 16.82 2.636l13.857 2.261 10.906.82c3.67 3.336 13.457.503 16.691-1.767-1.126-1.51-1.92-2.773-2.432-2.995l-4.983-2.09-4.899 4.377c-1.416-.965-3.635-2.51-5.41-3.857l-5.52-4.182c-4.208-3.183-8.099-2.97-12.348-6.246l-3.79-2.927c-3.165-2.45-7.884-3.055-11.75-2.901l-7.321-3.354-5.93-2.594-7.476-3.046-6.605-2.697-8.883-3.789-8.2-3.336-9.174-3.67-6.187-2.816-7.09-2.944c-1.375-.571-3.047-2.474-3.986-4.207 1.698-.81 3.66-1.732 4.745-1.664l12.322.794 9.139.853 6.622.683c2.637.273 5.23.52 7.663.939l6.101 1.05c2.978.511 5.7 1.04 8.482 1.723l5.419 1.323 5.359 1.365 5.299 1.57 19.465 4.284 6.4 1.724 11.29 2.508 11.263 2.339c1.937.4 4.446.802 6.332 1.024l7.304.853 6.213.802 9.164 1.254 5.735.709 9.6.887 7.484.691 6.306.785c.921.111 2.986.017 4.104.077l4.327.24 9.275.588 5.155.418 13.021.435 12.596.649 14.728.828 7.578.708c4.164.384 8.644.938 12.57 1.928l6.997 1.767c2.491.631 4.65 1.092 6.843 1.442z"/><path fill="#fde68e" d="M618.325 469.726h5.282l.803 1.058h8.712c.393.435 2.27 1.058 3.166 1.058h3.166l.82 1.135 3.412-.077h1.059l.853 1.067h11.819c-1.451.674 8.226 3.268 9.429 3.575 8.354 2.117 10.76-2.594 16.06 1.553 6.869 5.376 9.54-1.015 14.156 7.33 2.22-2.645 6.494-3.626 10.283-2.064 11.921-2.893 6.417 1.433 13.133 1.595l6.05.145c1.485.034 4.173.333 5.777.64l6.29 1.22 5.529 1.067c1.263.248 3.498 1.203 5.316 2.006 6.29 2.764 5.171-2.193 9.788.512 1.98 1.16 5.24 3.293 7.108 4.24l7.117 3.619c1.468.742 4.292 2.32 5.888 2.696l11.127 2.654 7.458 1.69 6.486 1.305c2.363.478 4.727.888 7.193 1.127l6.571.64 6.22.435 1.059.043c.23.367.998 1.058 1.519.964l1.596-.282h1.058c.46.273 2.099.948 2.816.99l5.751.333c.53.034 1.408.068 1.903.068-.256 0 1.63.81 2.219.93l11.597 2.245 7.227 1.271 6.477 1.067 8.755 1.561c7.1 1.272 2.893 5.24 13.218 7.075 3.602.64 6.964.75 9.882-.47l14.037.111 6.878-.18c.93-.025 2.825-.52 3.226-.87l1.058-.05c3.584-.18 10.641.016 14.635-.333 11.187-.982 14.583-3.021 24.354-1.059l2.688 3.934c.426.632.23 2.919.17 3.183l9.02 3.473c8.175 3.15 7.117 2.398 15.77 2.236.333 0 .725-.068.973 0 .597.41 2.201.87 3.362 1.126l4.147.896c.008.256 1.527 2.15 2.236 2.339l7.407 1.996c1.271.342 2.824 2.048 2.858 3.252-.793 1.595-1.792 3.55-2.85 5.256l-3.277 5.282-3.285 1.98-2.116.154-.896-1.204-8.653-1.647-8.883-1.519c-.47-.076-1.937-.81-2.082-.819-.103 0-.538 1.05-.606 1.23l-1.058-.086-.76-1.408-4.446.273-1.05.094-2.67-2.142-2.51-4.275-6.152-1.127 5.129-1.937-1.084-4.07-.725-4.165c-4.745-1.254-9.267-1.664-14.02-1.194l-6.819.674c-2.397.239-5.376.947-7.236 1.579l.111 5.324-5.393.41c-10.735.82-12.015.947-17.792 8.858-.887 1.211-1.954 3.183-2.005 4.548l-.273 7.091c-.197 5.129-11.563 2.296-13.637 2.475l-9.557.845c-18.586 1.638-6.972.136-23.245-1.263-11.759-1.016-12.202.7-17.826.776l-22.323.299-7.322.11c-8.559.129-.537-12.603-10.29-14.395l-8.048-1.476c-1.305-.24-3.729-.23-5.06-.325l-7.142-.503-5.428-.538-4.556-.563-12.22-1.834a67 67 0 0 0-6.4-.658l-12.467-.682c-7.083-.384-6.06-1.852-14.166-3.303l-7.117-1.271c-.546-.094-2.628-1.237-2.33-1.195l7.34.24c1.536.05 8.789 2.96 10.743 1.979-4.045.478 15.454 2.304 12.97 2.202 4.148.17 8.287-.154 12.297.674l4.523.938c4.096.845 7.85 1.263 12.049 1.144 12.143-5.18 11.75-1.229 15.642.11 13.064 4.49 9.787.146 16.657 6.179l6.297 5.53c3.977 3.498 2.68-3.32 9.651-.513 6.392-2.295 4.054 6.383 11.52 3.422 1.076-.426 4.037.504 5.044.308l6.212-1.238c.939-.188 2.867-2.184 3.746-2.56l6.246-2.662 8.704 4.804 5.931-1.323c.81-.179 1.835-2.594 1.11-2.884l-2.16-.862c-5.367-1.374-10.436-2.534-15.923-3.379-11.221-1.732-7.816 1.647-17.877-2.952-1.272-.58-3.2-1.246-4.557-1.605l-13.824-3.67-11.486-2.858-13.687-3.097-4.95-.52-12.049-1.938c-7.364-1.186-6.818-2.876-15.624-4.83-1.81-.4-4.181-1.032-6.264-1.186l-6.8-.503c-1.093-.077-3.218-.82-4.156-1.272-.64-.307-2.296-1.1-2.979-1.16l-6.144-.572-6.34-.597c-.614-.06-1.8 0-2.474.008a60 60 0 0 0-9.26-.939c-9.42-.452-3.72-1.62-10.58-2.056l-13.893-.888c-.913-.06-3.6-1.519-4.429-1.527l-10.094-.017c-2.108-.981-4.455-1.903-6.665-2.21l-6.357-.896c-1.912-.273-3.704-.802-5.573-1.647l-6.613-.751-9.762-1.092-8.431-1.05-7.407-2.423-12.092-2.117-7.142-1.263-6.349-.947c-4.292-.64-8.414-1.288-12.697-2.219l-7.638-1.664-9.71-2.218c-3.704-.845-7.442-1.792-11.196-2.407l-12.621-2.073-6.34-1.084-7.348-1.331-11.511-2.313c-1.946-.392-4.617-1.382-6.212-1.945 9.753-2.321 9.207.145 12.697 1.007 13.04 3.225 2.714-.043 11.802 1.92 12.151 2.628 8.738.554 19.814 4.386 3.49 1.203 6.366-3.49 9.609-.248 7.338 7.348 10.572-.076 16.443 3.644 6.904 4.378 14.473 4.898 22.06 2.705l2.96-3.294 8.107 3.345c.444-.315 1.715-3.123 2.21-5.068l-4.164-1.417c-5.044-1.715-2.082-5.547-8.2-4.65-1.87.272-4.515-.36-5.334-1.494-5.308-7.313-4.668-.12-11.478-8.166l-5.188 2.491c-4.045 1.937-9.591-1.587-10.129-5.427 6.997-3.67 2.355-10.231 7.28-11.648 5.98-1.724 5.904 7.228 11.203 4.634 7.143-3.499 6.895-.691 17.408-.691z"/><path fill="#fce898" d="m412.117 420.915 6.682.768c4.702.538 9.062 1.212 13.713 2.074l7.33 1.357c6.212 1.152 10.624 3.49 12.698 3.84 4.693.802 9.625 1.519 13.96 3.02l9.84 3.405c4.846 1.681 9.565 3.047 14.574 4.378l7.364 1.962c3.303.88 6.801 1.827 10.172 2.432l6.622 1.195c2.202.393 4.838.947 6.963 1.058l6.468.333 8.576.393 10.462.554 6.528.461 11.281.862 7.791.657c.862.077 2.731.717 2.944 1.033l-10.274-.205c-1.066-.017-3.533-.623-4.437-.606l-8.013.145c-.273 0-1.28 1.22-1.271 1.246.588 1.8 5.905 1.015 8.03 4.574 1.211 2.03 3.345 5.401 5.23 5.546.956.077 2.987-2.568 3.72-3.404 3.593.034 7.177 2.534 9.524 6.707l8.79-1.843c1.211.477 4.019 1.63 5.23 1.86l5.479 1.05 6.314 1.1 6.383 1.041 5.487.896c.58.094 2.142.81 2.057.913-10.513 0-10.266-2.807-17.408.692-5.3 2.594-5.223-6.358-11.204-4.634-4.933 1.416-.282 7.987-7.28 11.648.538 3.84 6.085 7.364 10.13 5.427l5.188-2.492c6.81 8.047 6.17.854 11.477 8.167.82 1.135 3.465 1.766 5.334 1.493 6.11-.896 3.157 2.936 8.2 4.65l4.164 1.417c-.494 1.946-1.766 4.753-2.21 5.07l-8.106-3.346-2.961 3.294c-7.595 2.193-15.164 1.672-22.06-2.705-5.87-3.72-9.104 3.703-16.443-3.644-3.242-3.243-6.11 1.45-9.608.248-11.077-3.823-7.663-1.75-19.815-4.387-9.088-1.97 1.238 1.306-11.801-1.92-3.49-.861-2.944-3.328-12.698-1.006-2.176-.146-5.248-.308-7.475-.854l-7.091-1.758c-7.817-1.928-4.557-.768-10.155-2.09-3.507-.828-7.031-1.775-10.436-2.39l-12.578-2.278c-1.852-.333-5.231-.316-6.767-.751-2.398-.683-4.48-1.374-6.571-1.775l-6.502-1.254L441.6 472.2c-.35.06-1.186 1.664-.794 2.082s1.622 1.34 2.253 1.493l10.42 2.645 14.327 3.533c3.285.81 6.69 1.81 10.01 2.475l7.756 1.544 12.365 2.646 12.561 3.114 14.96 3.328c8.217 1.826 7.525 2.458 16.468 4.728l13.21 3.362 6.528 1.928 21.572 5.078c10.172 2.398 7.288 1.16 18.16 4.028l10.854 2.858c4.77 1.255 9.66 2.27 14.6 3.243l16.18 3.183c1.749.341 3.54.793 4.923 1.177v1.059c-1.1-.111-2.773-.47-4.429-.777-12.202-2.27-7.168 1.17-12.885-.981-10.982-4.13-.316 1.937-16.93-4.617-2.244-.887-6.52-1.485-9.114-2.022l-9.651-1.997c-8.43-1.75-8.636-3.567-11.63-3.046l-5.795.99c-2.927 2.594-7.398 2.91-9.882-.163-3.157-3.917-8.37-7.168-13.516-7.833l-4.6-.59c-.427-.05-2.287 1.443-2.065 1.818l1.254 2.16 1.059 1.808c.298.504-1.238.777-2.612 1.076-.998-3.132-3.584-7.8-6.903-8.986-1.306-.47-4.787-.094-6.016.128l-.41 6.596-2.782 2.765c-13.184-12.595 4.805-6.212-11.383-14.48-2.133-1.093-4.762-3.073-6.87-3.56l-7.295-1.663c-1.52-.35-3.704-.7-4.873-1.076-14.763-4.736-5.009 1.682-17.928-3.746-1.724-.418-5.76-.204-7.484-.827-4.958-1.792-9.967-2.885-15.232-4.02-4.054-.87-8.627-2.927-12.826-4.138L434.5 474.87l-9.796-2.824c-2.295-.666-4.65-1.357-6.562-2.671-9.387-6.443-6.98-.853-20.745-5.82-8.43-3.038-2.594-3.02-12.92-5.743l-10.29-2.705c-6.571-1.732-13.108-3.242-19.84-4.505l-7.143-1.34c-2.432-.46-5.094-.7-7.73-.981l-7.408-.803-15.701-1.501c-2.023-.197-5.718-1.383-7.697-1.417l-25.097-.435c-1.621-.026-5.794-1.562-12.732-1.997l-9.164-.572-9.814-.725c2.526.188-12.091-1.408-7.569-1.75l7.475.146 8.44.196c6.775.162 9.13 2.458 16.802-1.331l1.98-3.789 2.449 4.847 9.71-.324c.99-.982 0-10.957 3.2-8.218l1.545 1.323 2.313 1.997c.392.34-.53 2.338-.282 2.867.854 1.851 4.642 3.763 7.646 3.208l-3.191-6.681 9.463-3.994c1.698-.717 8.67 4.02 9.2 1.152l.887-4.762c11.878-.102 8.584-3.584 16.264-2.21 6.562 1.178 8.764.743 13.875-3.618l8.346-.205 7.765-.358c5.504-.256 10.991-.316 16.589-.102l4.531.17c4.199.162 4.327 1.024 10.249 1.86l7.748 1.093 4.873-1.45z"/><path fill="#fcd364" d="m325.683 403.209 6.34-.043.888 1.058h16.017l1.1 1.067h102.435l.939 1.083 21.24-.034 3.216.367 2.705 1.195 5.18 2.278c12.484 5.504 7.006-.077 13.44 5.598 5.222 4.6 7.885.725 15.002 2.748 12.142 3.447 7.296.93 20.573 1.988l8.56.683 5.776.4c7.023.487 11.188-.119 16.41.419l8.508.879 23.057.683 6.041.179 7.8.222 21 .588 4.489.128 6.391.282c3.473.154 6.947.52 10.385.998l9.848 1.366c6.127.853 2.398 2.142 10.027 3.507l5.512.981 7.288 2.688 6.553 1.076 6.093.827 6.323.854 8.602 1.152 11.998 2.09 6.826.947 8.662 1.042c4.446.537 8.926 1.459 13.312 2.286l10.905 2.04c1.553.29 10.087 2.748 8.013 4.036-8.687 5.402-11.554 1.323-13.252 4.096h-3.166l-6.537-.025-.853 1.083h-2.116l-4.455-.042-.827 1.092c-.572-.009-1.588-.051-2.117 0l-7.321.725-9.6 1.152-6.486.947-6.357 1.076-7.236 1.22c-1.8.307-3.772.631-5.376.82l-7.134.835c-9.455 1.11-15.556 1.17-25.08-1.51l-15.112-4.241-8.798-2.526c-3.157-.904-11.076-2.722-13.491-2.722h-2.116l-.854-1.075-6.536.025h-3.166l-.964-1.075-32.845.017h-5.282c-.205-.316-2.082-.964-2.944-1.032l-7.791-.657-11.281-.862-6.528-.461-10.462-.555-8.576-.392-6.468-.333c-2.125-.111-4.762-.657-6.964-1.058l-6.621-1.195c-3.371-.606-6.87-1.553-10.172-2.432l-7.364-1.963c-5.01-1.33-9.728-2.705-14.575-4.377l-9.84-3.405c-4.334-1.502-9.267-2.227-13.96-3.02-2.073-.35-6.485-2.689-12.697-3.84l-7.33-1.358c-4.651-.861-9.012-1.536-13.714-2.073l-6.681-.768c-.248-.589-1.971-1.74-3.013-1.775l-11.52-.427-5.18-.81c4.156.648-18.098-.87-15.948-.828l-17.22-.324c-3.08-.06-12.476-2.356-16.077-3.311-10.522-2.808-5.171-.23-15.787-4.165l-4.25-1.578c-.614-.23-1.646-1.468-1.783-2.117-.392-1.86 4.02-2.372 4.344-2.372z"/><path fill="#fcd677" d="M526.404 638.754h-7.654l-.794 1.058h-10.564c-8.337 0-6.878-.623-13.841-.324l-11.366.495-5.76-2.901c-2.313-1.17-5.513 4.77-11.99 2.551-5.64-6.801-3.183 1.033-16.179-4.762-3.789-1.69-1.894 4.958-7.125 3.567-14.652-3.882-12.322.436-19.601-3.567-5.402-2.97 3.336 3.875-9.84 2.407l-5.939-.657c-6.63-.734-8.78-4.352-9.395-2.774l-1.16 2.996c-.282.716-1.758 1.595-2.705 1.817l-.273-7.134c-.017-.529 1.254-2.133 1.783-2.022l2.722.58c.52.111 1.86-.333 2.193-.75s.051-1.69-.478-1.767l-2.218-.316c-1.912-.273-4.813-1.39-6.008-2.739-.947-1.067-.947-4.66-.06-5.308l7.151-3.345c1.391.93 5.65 2.466 6.99 1.238.64-.59.614-3.107.537-5.291l-7.902 2.278c-.367-.136-1.758-2.193-1.997-3.2-.196-.836 1.664-2.782 2.518-2.637 1.877.325 6.306 1.417 7.526.026 1.638-1.869 5.12-4.232 6.98-2.244s2.961 2.099 5.163 1.596l11.255-2.578c.538-.119 1.98-1.092 1.903-1.143 3.226-.017 6.861-.026 10.368-.367l6.528-.631 8.49-.359c2.68-.11 5.616-.768 8.244-1.246l4.591-.844c1.246-.23 3.849-1.605 5.163-1.613l17.869-.145 5.384.571 13.705.811 9.378.896 9.625.836 8.397.683 9.506.717 9.506.904 9.48.87 7.45.64 11.46.863 9.686.93 9.464.904 4.172.393 8.568.793 10.513.93 6.588.538 15.428.828 7.612.99 5.24.35 16.238.887 9.097.82 8.422.759 5.111.452 14.439 1.792.478 3.063c.068.444-.81.683-1.818 1.315l-6.545.725-5.461.606-10.19.819-6.544.708-5.453.59-13.346.801-6.537.657-6.545.657c-3.669.367-7.518.384-11.451.58l-4.122.205c-3.268-.153-6.426-.128-9.694.205l-5.222.53c-1.613.161-3.951.597-5.325.656l-12.194.564-3.695.742-12.186.222-3.678.785c-2.304.495-6.604.23-9.088.486l-6.596.683-6.51.666-9.123.827-6.57.845-9.49 1.152-9.736.879c-.896.077-2.483.589-2.936.939z"/><path fill="#fce898" d="M759.885 454.93c1.698-2.774 4.565 1.305 13.252-4.097 2.074-1.288-6.46-3.746-8.013-4.036l-10.905-2.04c-4.386-.819-8.875-1.749-13.312-2.287l-8.662-1.04-6.826-.948-11.998-2.09-8.602-1.153-6.323-.853-6.093-.828-6.553-1.075-7.288-2.688c-.205-.298-1.817-1.425-2.594-1.715l-6.588-2.517-6.989-2.671c-1.194-.453-4.027-.743-5.188-.76-5.24-.077-10.47-.631-15.82-1.297l-7.066-.87-7.424-1.016-8.602-.904c-.691-.077-2.099-1.024-2.423-1.587-1.52-2.705 5.905.716 9.873-2.22l-1.878-5.34 10.42-1.085c3.635-.375 6.238 2.953 10.871-2.15l10.948-.666 6.597-.597 6.425-.52 4.267-.385 7.245-.921c1.45-.188 4.795.563 6.135.307 4.284-.828 8.781-.904 12.69-.367l15.521-3.473c9.421-2.108 5.658-.316 11.768-1.852 2.261-.571 5.623-2.116 7.5-1.996 15.94 1.015 5.7.196 17.818-4.233 7.646-2.79 5.564-.196 14.336-3.226l5.026-1.732c3.917-1.348 8.645-1.007 9.174.316 2.261 5.649-2.16 10.3-6.673 13.824l-3.695 2.893-12.903 4.198c-1.467.478-3.038 1.084-4.71 1.75l-11.836 4.752c-16.572-1.501-8.345-1.723-16.222-4.949-.69-.281-2.159 1.587-2.252 2.509-.274 2.526 3.37 7.168 6.912 6.042 5.606-1.775 1.305 5.691 11.87 4.266 4.906-.665 10.58-.614 15.41-.017l7.664.956 7.355.836 6.545.64 12.297.794 5.487.554c2.517.256 4.915.487 7.356.948l7.065 1.33 6.86 1.451c11.248 2.381 11.265 4.267 25.004 6.315 7.39 1.1 18.688-2.09 23.193 3.106 3.166 3.653 3.695-.981 8.44 3.977 5.598 5.854 4.983-3.712 13.448 4.028-3.456 5.81-12.211 5.606-11.042 8.03 1.988 4.121 3.311.153 8.653 6.783l-17.587-.35 2.252-5.503c-3.387-6.418-15.488.819-19.788-2.279l-5.94-4.258c-1.399 1.587-3.584 3.567-5.666 3.763-1.553.145-4.915-2.21-5.82-3.481l-4.172-5.837c-3.303-4.617-6.008 10.428-14.874 5.325-1.28-.734-2.756-.419-4.548.332-4.275 1.784-9.071 1.51-14.02 1.946l-6.443.563-17.323.52c1.57-.05-8.644 1.57-11 .846z"/><path fill="#fdfdf7" d="M632.055 454.93c.658.332 1.69.494 3.064.887l20.02 5.725c9.079 2.595 19.924 6.161 29.567 4.796l7.595-1.075 7.39-1.041 8.448-1.127 8.396-1.536 6.196-.716 6.545-.837 7.569-.964c.998-.128 2.466-.597 2.96-.947 2.16-.051 4.771-.111 7.186-.358l6.554-.692 6.613-.708c2.38-.256 6.87.034 9.045-.46l3.72-.846 19.576-.179c6.025-.06 13.457.12 17.374 5.308-2.022 2.287-3.191 2.867-5.427 3.337l-6.86 1.45-14.422 2.91c-2.697.546-5.683.82-8.448 1.092l-8.474.845-7.415.743-9.55.955-11.63.674-9.455.64c-3.251.222-6.28.52-9.515.965l-38.007.29c-2.901.025-5.888-.35-8.619-.87l-13.55-.632c-1.247-.06-3.662-.478-5.266-.657l-6.553-.725-7.049-.786-7.612-.938-7.381-.999-7.441-1.058-6.212-1.04-8.576-1.614c-4.156-.785-15.727-3.421-18.953-4.565l-13.91-4.932c-.861-.307-1.723-1.263-2.781-2.73l7.134-.41 5.367.58 36.736.281c2.91.52 5.666.888 8.636 1.195l7.407.768z"/><path fill="#fde086" d="m549.65 402.108.827 1.058h10.794c.436.427 2.253 1.015 3.166 1.058s2.961.085 3.968.29l5.376 1.058 5.453.956c2.663.47 5.112.674 7.381.87.393.436 2.27 1.059 3.166 1.059h3.166l.81 1.083 3.423-.025 5.342.793 12.62.265 1.716 2.142c.367.46 2.551-.273 2.978-.649l1.647-1.485 2.355.342 1.877 5.342c-3.96 2.935-11.392-.487-9.873 2.218.324.572 1.732 1.52 2.424 1.587l8.601.905 7.424 1.015 7.066.87c5.35.658 10.581 1.213 15.82 1.298 1.153.017 3.994.307 5.189.76l6.989 2.67 6.587 2.518c.777.298 2.39 1.416 2.595 1.715l-5.513-.982c-7.629-1.356-3.908-2.653-10.027-3.507l-9.847-1.365c-3.448-.478-6.92-.845-10.385-.998l-6.392-.282-4.488-.128-21-.589-7.8-.222-6.042-.179h-23.057"/></svg>