<svg xmlns="http://www.w3.org/2000/svg" viewBox="0 0 1024 1024"><path fill="#e3d32a" d="M749.447 619.493c-19.968 8.84-43.862 16.4-65.229 20.898-8.158 1.715-17.297-3.413-22.989 6.58 6.64 21.853 18.227 41.616 24.312 63.717 25.054 91.008.273 188.083-79.053 242.705-15.556 10.71-34.014 18.048-50.312 27.409-10.19.776-18.978 4.045-27.128 4.386-63.06 2.603-124.629-7.85-185.019-25.42-3.533-.12-2.603 16.622-2.125 21.034l-4.582-20.634c-93.38-43.758-141.235-153.616-116.24-253.541 9.07-36.267 24.694-61.295 45.191-91.35l29.568 10.343c5.863 3.968 4.037 12.476 4.045 19.063-20.25 42.095-31.291 80.085-25.139 128.077 2.697 21.043 25.25 63.249 50.458 50.594l7.799-8.994c3.823-12.937-6.349-28.877-7.808-41.634-3.908-33.98 5.598-94.191 23.108-123.913 1.707-2.892 5.905-3.584 6.204-4.13 17.007-3.268 32.887 3.08 48.136 4.386 73.48 6.29 163.336 8.38 235.554-4.292 5.333-.939 11.716 1.016 16.512-.299 1.638-.443 8.533-5.879 4.42-8.192l-31.522-33.604c13.193.768 26.94-1.04 40.098-.196 6.724.435 11.588 3.831 16.708 4.3 19.772 1.801 49.784-1.953 65.033 12.69zM344.669 872.25c-4.557 1.015-15.522 7.842-17.579 11.801-2.773 4.164-2.952 9.762-1.578 14.413 1.322 4.463 30.609 25.924 35.942 27.136 9.975 2.27 23.458-5.402 26.249-14.584 6.058-19.9-23.535-43.118-43.043-38.766z"/><path fill="#dcf4d2" d="M417.535 123.724c.102 4.122-.503 8.295.205 12.382 9.216 1.076 18.253 7.39 27.178 8.56 30.737 4.027 107.034 3.165 138.897.272 8.474-.768 9.609-4.25 10.18-4.403 3.286-.904 7.373.956 12.587-2.014 5.87-3.345 7.023-11.306 12.63-14.788l31.615 25.097c10.505 20.787-13.662 36.718-31.616 37.922V308.59c12.169.418 24.226-6.494 35.815-8.303 16.034-2.509 35.31-2.338 50.466-.213 15.42 2.159 28.288 4.258 42.777 11.81 17.852 9.301 47.445 43.81 55.014 62.626 7.049 17.527 7.177 71.51 4.899 91.528-1.835 16.12-16.163 57.566-22.844 73.788-9.993 24.252-27.06 46.31-35.874 71.262-7.544-5.974-14.993-2.996-23.006-4.31-18.193-2.978-85.418-15.232-98.841-12.493h-4.199c-10.863-23.56-35.567-46.933-45.354-70.177-9.472-22.486-16.393-67.132-17.843-91.392-4.523-75.366 4.044-155.05-.18-230.903l-3.669-4.736c-6.212-4.147-54.87-2.074-67.396-1.929-11.128-12.04-36.318-11.75-33.621-33.63l-8.431 2.15 2.33 19.056-31.71 12.424c-1.997-10.316-31.053-13.542-33.707-31.402-2.995-20.147 7.893-29.466 26.863-31.582l2.645-8.448h4.199zm254.992 223.48c-9.975 1.706-50.27 18.047-52.906 26.922-1.306 37.18-.87 79.317 16.998 112.418 9.148 16.947 46.96 61.115 62.532 71.919 10.991 7.62 18.868 10.018 27.136-2.031 21.573-44.749 41.438-93.705 35.67-144.794-2.51-22.237-15.616-41.736-33.622-54.613-16.358-11.699-36.198-13.167-55.808-9.813z"/><path fill="#cfbf16" d="M762.05 632.097c10.846 14.19 14.558 26.521 21.01 42.018l-.385 16.426c-12.424 2.313-18.61 10.684-16.537 23.527.742 4.565 4.318 7.893 4.318 8.362v84.028c0 15.522-19.849 64.554-28.595 80.648-13.637 25.088-35.473 45.687-47.036 68.506-2.176 4.3-7.083 3.788-7.723 4.744-.734 1.1-2.235 13.423-4.88 20.463-.794-11.247 5.768-18.697-10.65-16.964-24.67 2.602-54.904 14.2-79.778 16.87-11.537 1.246-24.022-.794-35.618.094 16.298-9.37 34.764-16.7 50.312-27.41 79.326-54.62 104.107-151.696 79.053-242.704-6.085-22.11-17.673-41.872-24.312-63.718 5.692-9.992 14.831-4.864 22.99-6.579 21.366-4.497 45.26-12.058 65.228-20.898 3.003 2.884 10.828 10.274 12.603 12.604z"/><path fill="#beb010" d="M556.184 980.819c11.597-.888 24.081 1.143 35.618-.094 24.875-2.68 55.108-14.276 79.778-16.87 16.418-1.733 9.856 5.717 10.65 16.964-6.178 16.444-11.682 17.553-28.22 24.303-63.855 26.07-222.864 24.618-286.95-1.135-10.274-4.13-14.259-6.648-20.949-14.763l-4.198-4.198c-.111-1.391.145-2.816 0-4.199-.478-4.411-1.408-21.154 2.125-21.034 60.39 17.57 121.958 28.023 185.019 25.42 8.15-.332 16.938-3.6 27.127-4.386z"/><path fill="#eafadf" d="m417.535 195.148 31.71-12.424-2.33-19.055 8.431-2.15c-2.696 21.879 22.485 21.589 33.621 33.63-2.799.033-5.606-.018-8.405 0l-33.4.213c-8.106 16.435-.477 30.941-.05 47.974 1.587 63.13-2.518 158.515-22.076 217.693-6.4 19.362-14.567 23.766-22.161 36.66-3.533 5.998-3.695 13.712-8.525 20.88-13.55 20.113-35.9 41.558-50.244 63.181-4.531 6.835-10.078 6.357-2.176 16.742-7.68-.597-13.483-4.437-23.117-4.428-13.397 0-25.72 7.261-39.902 4.428 22.707-26.222 51.32-47.07 73.583-71.236 17.4-18.884 41.873-47.368 50.509-71.466 7.663-21.376 13.389-59.383 14.737-81.894 3.498-58.274-2.97-120.107-.18-178.748z"/><path fill="#e2d529" d="M694.834 955.612c11.554-22.819 33.399-43.41 47.035-68.506 8.747-16.094 28.595-65.126 28.595-80.648V722.43c0-.47-3.575-3.797-4.318-8.362-2.082-12.843 4.105-21.214 16.538-23.527l.384-16.426c18.056 43.357 24.533 80.477 16.708 128.042-7.236 44.015-36.778 97.954-69.145 128.324l-35.797 25.122z"/><path fill="#f3894c" d="M615.004 22.895c-12.339-1.826-21.376 8.337-32.247 11.853-3.055.99-19.268 4.608-22.374 4.949-29.363 3.191-65.843-.154-94.61-4.13-5.495-.76-11.477.819-16.673-.128-10.701-1.963-20.096-9.472-31.565-8.337.589 32.12-.82 64.52 0 96.631h-4.198l1.996-100.94c3.704-2.91 6.836-8.116 10.641-10.36 6.528-3.857 31.847-9.634 39.97-10.445C491.57-.58 541.157-.632 566.86 1.715c15.002 1.374 41.097 7.236 48.137 21.18z"/><path fill="#e25f2c" d="M615.004 22.895c11.444 22.673.214 73.847 4.199 100.838-5.607 3.482-6.75 11.443-12.63 14.788-5.205 2.97-9.292 1.11-12.586 2.014h-33.621V39.697c3.106-.341 19.319-3.96 22.374-4.95 10.871-3.515 19.908-13.678 32.247-11.852z"/><path fill="#f9fcc3" d="M623.41 594.285h4.198c-21.419 4.378-21.453 0-35.712 0H407.03c-.469 0-3.771 3.397-8.362 4.242-21.316 3.925-16.273-2.543-31.556 16.759-6.016 7.603-14.242 13.943-12.766 25.062-20.617 1.246-49.417 4.002-37.658-25.062 5.01-3.61 10.266-4.198 8.397-12.595-21.785-1.374-38.937-.58-58.812 8.397 4.643-6.375 8.295-7.63 12.604-12.604 14.183 2.824 26.505-4.42 39.902-4.429 9.634 0 15.437 3.832 23.117 4.429 15.718 1.22 23.697-.717 37.81-4.199 66.117-16.315 173.893.726 243.687 0z"/><path fill="#eeee63" d="M266.282 611.096c19.874-8.977 37.026-9.77 58.812-8.397 1.868 8.406-3.388 8.994-8.397 12.596-7.424 5.341-11.802 19.012-16.802 29.405-.009-6.596 1.817-15.095-4.045-19.063l-29.568-10.342c.657-.965-.666-3.294 0-4.199"/><path fill="#f5f263" d="M627.608 594.285c13.423-2.739 80.648 9.515 98.841 12.493 8.005 1.314 15.463-1.664 23.006 4.31 3.772 2.986 13.33 15.564 12.604 21.009-1.775-2.33-9.6-9.72-12.604-12.604-15.249-14.643-45.26-10.889-65.032-12.69-5.12-.468-9.984-3.865-16.708-4.3-13.159-.853-26.906.964-40.098.196l31.522 33.605c4.113 2.32-2.782 7.748-4.42 8.191-4.796 1.306-11.18-.64-16.513.3-72.217 12.671-162.064 10.58-235.553 4.291-15.24-1.305-31.13-7.645-48.137-4.386 4.549-8.192 9.046-20.335 12.604-29.405 15.283-19.311 10.24-12.835 31.556-16.76 4.583-.845 7.894-4.241 8.363-4.241h184.866c14.259 0 14.293 4.378 35.712 0z"/><path fill="#e3d32a" d="M346.111 989.224c-.648-.785-4.403-.981-4.198-4.198z"/><path fill="#f7f491" d="M316.705 615.295c-11.767 29.064 17.041 26.308 37.658 25.062-1.485-11.12 6.75-17.46 12.766-25.062-3.567 9.07-8.056 21.213-12.604 29.405-.299.538-4.497 1.23-6.204 4.13-17.51 29.722-27.008 89.933-23.108 123.913 1.468 12.757 11.631 28.697 7.808 41.634l-7.8 8.994c-25.207 12.655-47.76-29.551-50.457-50.594-6.152-47.992 4.89-85.973 25.14-128.077 5-10.402 9.377-24.064 16.801-29.405"/><path fill="#f1e872" d="M344.669 872.25c19.499-4.344 49.1 18.867 43.042 38.766-2.799 9.182-16.273 16.862-26.248 14.584-5.334-1.212-34.62-22.673-35.943-27.136-1.374-4.65-1.203-10.257 1.579-14.413 2.056-3.968 13.022-10.786 17.579-11.801z"/><path fill="#edfde4" d="M488.959 195.148c12.527-.145 61.184-2.227 67.396 1.929l3.67 4.736c4.215 75.844-4.353 155.537.178 230.903 1.46 24.26 8.38 68.898 17.844 91.392 9.796 23.253 34.491 46.626 45.354 70.177-69.785.726-177.57-16.315-243.686 0 18.407-31.718 43.87-58.999 62.362-90.99 21.427-37.06 28.066-75.597 38.647-116.804l-.179-191.343c2.799-.017 5.606.034 8.405 0z"/><path fill="#fefefd" d="M672.527 347.203c19.601-3.353 39.45-1.885 55.808 9.814 18.006 12.876 31.104 32.375 33.622 54.613 5.768 51.097-14.089 100.044-35.67 144.793-8.268 12.058-16.145 9.66-27.136 2.031-15.573-10.803-53.384-54.971-62.532-71.919-17.869-33.1-18.304-75.238-16.998-112.418 2.637-8.866 42.931-25.215 52.906-26.922z"/><path fill="#ec763b" d="M560.383 39.697v100.838h33.612c-.571.154-1.706 3.635-10.18 4.403-31.863 2.893-108.168 3.755-138.897-.273-8.925-1.169-17.962-7.483-27.178-8.559-.708-4.087-.103-8.26-.205-12.382-.82-32.11.597-64.503 0-96.63 11.469-1.136 20.864 6.382 31.565 8.336 5.196.956 11.178-.631 16.674.128 28.766 3.977 65.237 7.322 94.609 4.13z"/><path fill="#fcfefa" d="m480.562 195.148.18 191.343c-10.582 41.207-17.221 79.752-38.648 116.804-18.492 31.983-43.964 59.264-62.362 90.99-14.122 3.482-22.092 5.428-37.81 4.199-7.894-10.377-2.356-9.907 2.175-16.742 14.345-21.624 36.694-43.068 50.244-63.181 4.83-7.168 4.992-14.882 8.525-20.881 7.595-12.885 15.761-17.297 22.161-36.66 19.559-59.178 23.663-154.563 22.076-217.693-.427-17.032-8.047-31.547.051-47.974l33.4-.213z"/></svg>