<svg xmlns="http://www.w3.org/2000/svg" viewBox="0 0 1024 1024"><path fill="#60463a" d="M462.595 55.441c-6.127-.666-13.014.46-19.286 0l8.244 2.799c2.517 30.916-9.302 60.288-11 90.889-31.71 136.524-67.618 273.373-108.766 407.91-25.224 82.466-57.634 161.997-86.878 242.415-5.666 3.567-8.806 13.824-11.58 20.113-10.205 23.15-20.582 46.84-32.938 69.026-8.15 14.626-20.105 29.534-27.665 43.98-2.594 4.959-5.845 9.67-4.975 15.685 4.267.956 6.699-.845 10.163-2.227 23.356-9.318 69.026-71.288 83.524-94.217v5.504l11.025-2.756c.87-4.113-1.211-5.683-4.13-8.252l-6.886 5.496c3.541-5.598 7.569-16.043 11.025-22.042 3.132-5.444 7.031-11.605 11.025-16.537-1.041 3.814-1.357 9.557-2.765 13.772 9.566-2.21 11.435 8.815 19.209 8.184l1.561-5.598c6.878 4.318 16.308-1.28 20.634 1.434 4.326 2.705 5.461 9.327 13.713 7.014v-8.294h8.269c-1.101 8.482.153 12.996 5.52 19.294l-5.093.324c1.425 9.702-4.42 6.8-6.008 9.642-2.236 4.003-6.238 13.236 2.833 6.571-10.487 14.26-18.756 29.713-33.152 42.744-1.792 1.62-5.052.998-5.427 1.348v-5.504h-5.513l5.513 5.504c-25.72 24.08-30.191 29.602-63.377 44.092l-8.252-12.4c4.13-8.678 10.488-3.361 13.739-5.316 4.702-2.824 14.515-11.793 16.546-16.742 2.816-6.895-11.136-3.593-13.679-4.036l-3.038 13.508c-5.103.367-15.385 1.365-19.243 4.224-6.178 4.582 2.578 2.944-11.81 7.364-9.412 2.893-11.63 15.761-10.069 24.423 5.205-2.185 11.469-1.673 16.529-2.757l-5.205 3.098-.307 5.171c-8.235-.418-16.734-1.305-24.798-2.756l-1.724-2.458-6.545-.298c-20.062-4.72-39.748-13.492-57.865-22.042l6.085-7.347c-3.132-137.48 43.75-274.253 89.804-402.424 57.515-160.06 124.1-317.585 204.04-468.326l.428-9.207c-1.733-1.963-13.04 7.125-13.773 8.26l-2.756-8.269c12.535-4.233 26.666-2.85 39.944-2.748 4.523.034 12.86-2.03 15.164 2.748zM284.188 843.494a3.412 3.412 0 1 0-6.827 0c0 1.886 1.528 3.414 3.414 3.414s3.413-1.528 3.413-3.414m46.14 33.127h-5.504v5.504zm-65.425 10.957a3.413 3.413 0 1 0-6.827 0 3.413 3.413 0 0 0 6.827 0m57.156-2.688-11 9.668-5.52 9.617c1.843 2.074 15.539-16.18 16.529-19.285zm-30.319 19.285c-3.558-4.25-5.077-.077-5.435 4.139-.495 5.82-1.664 9.702-2.816 15.146 8.797-3.541 9.088-10.777 8.26-19.285zm-11.016 13.773c-2.253-7.45-10.172-5.504-16.53-5.496v2.74zm-82.671 22.05h-5.504l4.138 5.504h1.366z"/><path fill="#5b4739" d="M410.234 63.71c-31.292 48.52-61.38 100.915-88.712 152.397-60.058 113.109-119.706 243.695-161.46 364.868-34.261 99.456-69.802 225.655-50.09 329.984 1.86 9.856 6.007 19.285 8.166 29.03-16.17-8.209-39.944-20.812-51.865-33.698-1.4-1.51-.163-4.557-.487-4.88l4.105-2.732c-56.525-113.408-11.034-267.477 33.066-380.33 52.6-134.596 126.038-272.009 217.66-383.062 2.705-3.276 2.953-6.75 6.955-10.956 1.962-2.065 17.903-12.809 13.781-16.53l-16.538-2.756 18.919-8.806.623-4.753c10.53 5.248 13.414-5.171 16.853-7.765 10.206-7.698 35.02-24.466 46.276-28.263l2.757 8.269z"/><path fill="#61493d" d="M1019.224 466.03c-7.697-4.983-5.026-2.568-5.495 4.14-1.033 14.78-16.137 40.985-24.815 53.734-.282.418-1.699 1.331-2.757 2.756-4.6 6.195-11.093 6.793-11.025 16.538-4.821 4.761-7.006 8.183-10.965 12.45-104.61 112.777-229.3 208.896-369.263 275.55l-74.445 28.894c3.226-2.1 12.86-7.672 13.526-9.89 2.764-5.052-2.876-13.03-2.21-15.924.452-1.97 3.285-3.14 3.797-4.54 3.61-9.89 8.269-21.631 9.096-32.161.768-9.822 2.006-20.822 3.883-32.018 1.126-6.74 6.844-13.755 7.731-19.814 1.758-12.049-2.364-23.526-16.529-23.432 8.636-3.311 17.442-10.258 24.798-13.782C704.156 641.75 834.836 564.224 967 484.08c12.604-7.646 28.62-13.884 40.337-23.04 4.693-3.66 7.825-3.456 6.383-11.529 6.076 9.216 3.533 7.97 5.513 16.538z"/><path fill="#eed8c1" d="M490.149 405.41c.367-.427 2.014-.316 2.423-1.707l3.277-29.79 17.707-7.082c6.186 3.268 2.244 13.969 8.294 16.538 5.735 2.432 4.216-10.624 12.39-8.26-.46 15.504-.153 31.325 0 46.847l-2.73 19.243c1.587 1.348 9.293-2.603 8.243 2.799-12.698-.691-5.146 14.515-5.777 17.587-.46 2.278-4.642 4.113-5.248 7.22-5.521 28.663-5.402 59.758-11.025 90.93-4.173 23.117-8.619 45.995-13.781 68.89-8.918 39.578-19.764 81.528-33.067 121.25-18.082 53.99-40.405 97.758-74.402 143.292-5.24 7.023-10.223 16.008-16.538 22.042-1.374 1.314-15.47 13.346-16.537 13.78-9.012 3.645-21.786 20.344-26.513 21.71-4.114 1.186-8.995-.512-13.108.674-3.353.964-5.026 6.084-9.062 7.466-12.792 4.378-26.581 9.515-39.492 11.486-17.238 2.637-42.087.948-60.621 0l.307-5.17 5.205-3.098c9.48-2.023 12.561-5.334 19.286-8.27 33.186-14.489 37.657-20.001 63.377-44.091.375-.35 3.635.273 5.427-1.348 14.396-13.022 22.665-28.485 33.152-42.744 71.637-97.408 101.043-212.224 126.123-329.933 4.147-19.447 18.346-125.21 22.681-130.252z"/><path fill="#ead1b9" d="M327.572 124.33c-4.002 4.216-4.258 7.69-6.955 10.957-91.622 111.053-165.06 248.466-217.66 383.062-44.1 112.853-89.591 266.922-33.066 380.33l-4.105 2.731c-.683-.683-3.746-2.21-8.14-6.937C7.153 840.252-6.228 786.048 2.46 712.713 24.647 525.43 152.783 292.036 278.02 153.318c9.284-10.282 21.222-27.033 33.015-34.5 1.869-1.186 7.936-1.903 11.017-5.512z"/><path fill="#ddc2a6" d="M1016.468 529.408c-35.43 140.834-213.487 292.582-340.89 352.145-129.433 60.51-240.299 75.708-379.759 88.696-6.81.631-13.798-.29-20.616.06 12.91-1.972 26.7-7.109 39.492-11.487 4.036-1.382 5.709-6.502 9.062-7.466 4.113-1.186 8.994.52 13.108-.674 4.727-1.366 17.51-18.065 26.513-21.71-4.77 6.921-2.748 5.897 4.198 5.582 8.892-.41 12.535-3.456 19.746-5.06 244.36-54.29 454.272-159.045 601.583-367.02.632-.887 4.685-2.508 6.827-5.555 9.02-12.791 18.585-31.274 20.736-46.796z"/><path fill="#e9d0b7" d="M410.234 63.71c.734-1.135 12.04-10.223 13.773-8.26l-.427 9.207C343.631 215.39 277.054 372.915 219.54 532.983c-46.055 128.171-92.937 264.943-89.805 402.424l-6.084 7.347c-1.852-.87-3.687-1.826-5.513-2.756-2.167-9.745-6.306-19.175-8.166-29.03C90.26 806.63 125.8 680.438 160.062 580.982c41.745-121.173 101.402-251.758 161.46-364.868 27.34-51.49 57.42-103.876 88.712-152.397z"/><path fill="#5d483a" d="M1010.964 446.737c-25.55 1.724-50.833 11.392-74.454 20.617-100.684 39.33-198.835 85.615-297.506 129.612-24.601 10.966-49.843 20.72-74.453 31.642 7.603-23.339 6.536-40.294 6.724-64.75.06-7.374 1.17-7.425-1.92-15.89-1.698-4.668-.819-8.986-7.569-7.535 4.745-1.911 11.802-6.408 16.538-8.269 114.27-44.928 262.912-89.813 384.46-99.149 9.976-.768 20.259.436 30.277-.05 5.376-.265 4.343.35 4.113-5.513 9.446 8.286 10.803 6.212 13.781 19.285z"/><path fill="#e8ceb6" d="M1010.964 446.737c.58 2.552 2.551 2.44 2.756 2.756 1.442 8.073-1.69 7.868-6.383 11.529-11.716 9.156-27.733 15.394-40.337 23.04-132.164 80.145-262.835 157.67-402.45 224.452h-5.512l2.757-15.155v-41.336c0-1.68 2.04-17.877 2.756-20.667.23-.888-.265-1.954 0-2.757 24.602-10.922 49.852-20.676 74.453-31.641 98.68-43.998 196.822-90.283 297.506-129.613 23.62-9.224 48.905-18.893 74.454-20.616z"/><path fill="#5d4a3c" d="M997.182 427.452c-7.68-1.178-15.581-4.924-23.304-5.624-66.347-6.05-164.693 13.304-230.955 28.305-56.09 12.706-107.69 31.266-161.834 48.965-2.1.682-6.162-.683-8.27 0l8.355-18.074.11-20.3 10.71-2.894c.41 4.864 2.586 9.182 8.371 8.192V452.25c-14.259 3.353-28.57 7.901-42.888 10.956-2.313.495-4.898-.307-6.707.069 2.107-3.687 8.652-4.284 12.595-5.317 12.501-3.268 25.139-6.144 37.717-9.13l21.333-7.603c63.77-13.705 127.002-31.207 191.574-38.52 11.264-1.28 22.818 1.067 34.39-2.816.648-4.796-6.298-2.68-9.644-2.748-27.084-.537-57.207-1.34-84.044 0 2.295-4.778 10.632-2.705 15.163-2.747 47.079-.419 91.589 1.348 137.83 5.444 34.783 3.08 62.311 3.772 89.498 27.614"/><path fill="#e9cfb5" d="m498.418 91.264-2.748 8.269 5.47-2.79c-.939 5.503 3.857 8.345 5.546 11.059 14.422 23.125 18.381 49.288 22 75.827 8.686 63.795 7.44 128.418 5.555 191.47-8.175-2.363-6.656 10.693-12.39 8.261-6.051-2.569-2.117-13.26-8.295-16.538l-17.707 7.083-3.277 29.79c-.41 1.39-2.056 1.288-2.423 1.707.35-16.615 2.628-33.238 5.512-49.605 5.376-30.506 7.501-65.74 8.389-97.706 1.536-55.33-1.767-105.2-11.802-159.326-.905-4.873-4.617-7.441 3.413-10.266l2.757 2.756z"/><path fill="#dac2ac" d="M754.69 397.141c26.838-1.34 56.96-.537 84.045 0 3.337.069 10.283-2.048 9.643 2.748-11.571 3.891-23.125 1.545-34.39 2.816-64.571 7.313-127.794 24.824-191.573 38.52-1.774.384-4.386-.436-6.715.06-11.614 2.457-22.93 6.305-34.62 8.2 2.475-7.151.444-15.454 8.26-19.286 55.143-13.107 106.377-30.122 165.334-33.066z"/><path fill="#c4ac96" d="M462.595 55.441c10.248 1.118 25.412 19.064 31.744 27.614 1.177 1.596 1.365 3.541 1.322 5.453-8.03 2.824-4.318 5.393-3.413 10.265C502.283 152.9 505.586 202.77 504.05 258.1c-.888 31.966-3.013 67.2-8.389 97.707.376-8.644-.588-17.476.06-26.12 4.907-65.665 10.308-150.452-3.447-214.358-2.842-13.21-9.737-24.738-10.394-37.837-3.174-.93-4.727 5.547-4.992 7.399-.964 6.784-2.458 14.48-3.268 20.155-1.152-18.38 7.27-46.609-19.286-46.84-1.271 4.421 2.518 8.287 2.219 11.88-2.261 26.956-10.155 53.896-16 79.052 1.698-30.6 13.525-59.972 11-90.888l-8.244-2.8c6.272.461 13.159-.674 19.286 0z"/><path fill="#c3ab95" d="M534.24 421.94c.052 5.495-.042 11.05 0 16.537 15.437 2.534 28.621-5.035 42.778-8.226 3.84-.87 8.926.768 12.34-.043-7.817 3.831-5.795 12.134-8.261 19.285 11.69-1.894 23.006-5.743 34.62-8.2 2.32-.495 4.932.324 6.716-.06l-21.334 7.603c-12.578 2.987-25.207 5.863-37.717 9.13-3.943 1.033-10.488 1.63-12.595 5.317-6.511 1.34-13.32 1.826-19.286 5.513h-2.756c.597-3.106 4.779-4.95 5.248-7.22.623-3.071-6.929-18.278 5.777-17.587 1.058-5.401-6.656-1.45-8.243-2.799l2.73-19.242z"/><path fill="#c6ad99" d="M1019.224 466.03c.853 3.713 1.843 7.331 2.756 11.026 1.45 10.103-6.331 18.15-10.564 26.752-1.118 2.27-.009 5.419-.46 6.315-1.195 2.355-5.897 6.673-7.843 10.078-7.202 12.595-14.242 26.683-25.224 36.77.725-1.152.904-5.777 3.174-9.216 3.234-4.881 12.902-15.89 13.44-19.644.939-6.648.87-9.02-5.59-4.216 8.679-12.748 23.774-38.954 24.816-53.734.469-6.707-2.202-9.122 5.495-4.139z"/><path fill="#b2a191" d="m324.815 105.045 16.538 2.757c4.122 3.72-11.819 14.464-13.781 16.529l-5.521-11.025c-3.072 3.61-9.14 4.326-11.017 5.512l13.781-13.781z"/><path fill="#96816f" d="M1016.468 529.408v-19.285c-2.142 15.53-11.708 34.014-20.728 46.796-2.142 3.038-6.203 4.668-6.826 5.556 5.043-14.66 15.155-25.916 21.58-40.414 1.528-3.448 6.716-9.643.47-11.938.452-.888-.657-4.045.46-6.315 4.233-8.602 12.007-16.649 10.565-26.752 3.6 14.481 1.596 13.047.051 26.223-.998 8.482 1.783 19.2-5.564 26.129z"/><path fill="#c4ac96" d="M506.686 107.802c-1.69-2.714-6.493-5.556-5.546-11.06l-5.47 2.79 2.748-8.268c4.463 4.446 9.31 9.839 8.268 16.538"/><path fill="#5a4337" d="M495.661 355.806c-2.884 16.358-5.154 32.99-5.512 49.604-4.335 5.052-18.535 110.805-22.682 130.253-25.08 117.7-54.485 232.516-126.122 329.933-9.071 6.656-5.07-2.569-2.834-6.57 1.588-2.843 7.442.059 6.008-9.644l5.094-.324c-5.367-6.289-6.613-10.803-5.52-19.294h-8.261v8.295c-8.243 2.304-9.387-4.31-13.713-7.015s-13.764 2.893-20.634-1.433l-1.561 5.598c-7.774.631-9.643-10.394-19.209-8.184 1.408-4.224 1.724-9.967 2.765-13.773 3.849-14.114 12.075-23.048 17.954-35.78 74.052-160.358 119.015-348.561 150.23-522.138 9.275-51.584 14.617-99.165 21.947-150.28.81-5.675 2.304-13.372 3.268-20.156.265-1.852 1.818-8.328 4.992-7.398.658 13.098 7.552 24.627 10.394 37.837 13.756 63.906 8.354 148.693 3.448 214.357-.649 8.644.324 17.476-.06 26.12z"/><path fill="#edd5bf" d="M473.62 105.045c-7.33 51.106-12.672 98.697-21.948 150.28-31.215 173.577-76.177 361.78-150.23 522.138-5.879 12.724-14.105 21.667-17.953 35.78-3.994 4.933-7.885 11.086-11.026 16.538l-6.869-2.773c-9.003 4.326-5.384 3.66-8.15 11.085-.93 2.492-3.558 4.975-3.848 7.245-.495 3.89 5.445 7.637-1.8 11.997-2.338-1.092-1.366-4.377-4.088-6.903-3.942-3.644-13.84-8.917-19.336-9.643-1.178-.879 6.058-9.25 6.81-11.084 3.174-7.723 6.468-21.283 9.727-30.243 29.253-80.41 61.654-159.948 86.878-242.415 41.148-134.536 77.056-271.377 108.766-407.91 5.845-25.156 13.739-52.096 16-79.053.299-3.592-3.482-7.458-2.219-11.878 26.556.239 18.134 28.459 19.286 46.84"/><path fill="#dac0ab" d="M244.9 799.462c-3.259 8.96-6.553 22.52-9.727 30.243-.751 1.834-7.987 10.205-6.81 11.084 5.496.726 15.394 6 19.337 9.643 2.73 2.526 1.749 5.811 4.087 6.903 7.236-4.352 1.306-8.106 1.8-11.997.29-2.27 2.92-4.753 3.85-7.245 2.764-7.416-.854-6.759 8.149-11.085l6.869 2.773c-3.456 6.008-7.484 16.453-11.025 22.042-14.498 22.92-60.169 84.898-83.524 94.216-3.465 1.383-5.905 3.183-10.164 2.228-.87-6.025 2.381-10.735 4.975-15.685 7.57-14.438 19.525-29.354 27.665-43.98 12.357-22.179 22.733-45.876 32.939-69.027 2.773-6.289 5.914-16.546 11.58-20.113"/><path fill="#5a4337" d="M220.103 962.04c-5.06 1.083-11.324.563-16.53 2.756-1.56-8.662.658-21.53 10.07-24.423 14.387-4.42 5.624-2.79 11.81-7.364 3.866-2.859 14.14-3.857 19.243-4.224l3.038-13.508c2.551.444 16.503-2.85 13.679 4.036-2.031 4.95-11.836 13.918-16.546 16.742-3.252 1.955-9.609-3.353-13.739 5.317l8.252 12.399c-6.725 2.935-9.805 6.238-19.286 8.268zm71.637-57.865c.837 8.508.546 15.752-8.26 19.285 1.152-5.444 2.321-9.327 2.816-15.146.358-4.224 1.877-8.389 5.436-4.14zm-30.302-52.36 6.887-5.496c2.927 2.56 5.009 4.13 4.13 8.252l-11.017 2.756v-5.504zm60.621 33.075c-.99 3.097-14.686 21.359-16.529 19.285l5.521-9.617 11-9.668zm-41.335 33.058-16.53-2.757v-2.739c6.358 0 14.277-1.954 16.53 5.496M258.076 887.578a3.413 3.413 0 1 0 6.827 0 3.413 3.413 0 1 0-6.827 0M277.37 843.494a3.413 3.413 0 1 0 6.827 0 3.413 3.413 0 1 0-6.827 0M330.328 876.62l-5.504 5.505-.009-5.504zm-132.275 63.378v5.512l-1.374-.008-4.139-5.504zm104.712-30.31-5.504-5.513h5.504z"/><path fill="#523c2f" d="M520.46 860.083c-10.437 6.784-18.518 9.848-30.311 13.782-8.064 2.688-17.348 6.033-24.798 8.268-18.509 5.538-40.67 11.785-59.75 16.026-5.24 1.169-10.607 2.97-9.14-5.01 33.997-45.533 56.32-89.3 74.402-143.29l68.89-27.555c14.165-.094 18.287 11.383 16.53 23.433-.888 6.067-6.597 13.073-7.732 19.814-1.877 11.196-3.115 22.195-3.883 32.017-.827 10.53-5.487 22.272-9.096 32.162-.512 1.4-3.345 2.577-3.798 4.54-.665 2.893 4.975 10.88 2.21 15.923-.665 2.21-10.3 7.791-13.525 9.89"/><path fill="#dfc5ae" d="M977.897 556.962c-1.894 3.02-7.04 6.776-11.025 13.781-3.302 1.63-7.85 5.35-9.702 8.329-1.443 2.321-.956 4.838-1.323 5.444-7.322 12.092-20.403 26.565-30.26 37.257C825.51 730.35 694.31 816.265 556.283 868.343c-14.413 2.398-29.457 5.001-41.335 13.782-.88.17-1.86-.137-2.757 0-5.307.793-13.525 3.746-17.587 2.483l-6.946-6.622 2.483-4.13c11.793-3.934 19.874-6.989 30.31-13.781l74.445-28.894c139.964-66.654 264.653-162.774 369.263-275.55 3.96-4.267 6.144-7.689 10.966-12.45 3.925-3.874 5.87-8.457 10.65-8.542l.366-7.996c1.058-1.416 2.475-2.338 2.757-2.756 6.46-4.804 6.528-2.432 5.589 4.215-.53 3.755-10.206 14.755-13.44 19.644-2.27 3.43-2.458 8.064-3.175 9.216z"/><path fill="#ba9c80" d="M503.93 628.608c1.937 11.29-3.2 19.908-5.504 30.31l66.133-27.554c-.716 2.79-2.756 18.987-2.756 20.668v41.335l-2.756 15.156h5.512c-7.355 3.515-16.162 10.47-24.797 13.781l-68.89 27.554c13.303-39.714 24.15-81.664 33.067-121.25z"/><path fill="#c6ad99" d="m986.157 526.652-.367 7.995c-4.787.086-6.732 4.668-10.65 8.542-.076-9.736 6.426-10.342 11.026-16.537z"/><path fill="#564031" d="M988.914 562.475C841.61 770.449 631.7 875.205 387.33 929.493c-7.22 1.605-10.863 4.651-19.746 5.06-6.947.316-8.969 1.34-4.199-5.58 1.067-.427 15.164-12.467 16.538-13.782 38.417-5.632 76.322-15.07 113.69-25.472 5.785-1.612 14.173-3.626 18.576-7.594.896-.137 1.878.17 2.757 0 14.643-2.85 27.724-8.644 41.335-13.782 138.027-52.078 269.227-137.992 369.306-246.57 9.856-10.692 22.937-25.165 30.259-37.257 3.302-1.63 7.85-5.35 9.702-8.328 1.442-2.321.93-4.762 1.323-5.445 3.985-6.997 9.122-10.752 11.025-13.78 10.982-10.087 18.031-24.176 25.225-36.771 1.945-3.405 6.647-7.723 7.842-10.078 6.255 2.296 1.058 8.5-.47 11.938-6.425 14.498-16.537 25.762-21.58 40.414z"/><path fill="#4e3c2d" d="M561.795 540.433c6.75-1.45 5.862 2.876 7.569 7.535 3.08 8.465 1.97 8.516 1.92 15.89-.188 24.464.879 41.411-6.725 64.75-.264.802.23 1.869 0 2.756l-66.133 27.554c2.304-10.402 7.441-19.012 5.504-30.31 5.154-22.895 9.609-45.773 13.781-68.89 13.492-9.062 29.15-13.269 44.092-19.285z"/><path fill="#aa907a" d="m531.484 468.787-2.747 46.848c12.424-6.903 26.675-9.318 40.166-13.679 2.568-.827 3.686-2.782 3.917-2.858 2.099-.683 6.17.682 8.269 0-3.951 9.728-3.474 21.205-5.35 31.505l2.593 1.561c-4.727 1.86-11.784 6.358-16.537 8.27-14.942 6.015-30.6 10.222-44.092 19.284 5.623-31.172 5.504-62.276 11.025-90.93z"/><path fill="#ad917e" d="m490.149 873.865-2.483 4.13 6.946 6.622c4.062 1.254 12.28-1.699 17.587-2.484-4.412 3.968-12.8 5.99-18.577 7.595-37.368 10.402-75.273 19.84-113.69 25.472 6.306-6.033 11.29-15.027 16.538-22.042-1.46 7.97 3.9 6.17 9.139 5.01 19.08-4.242 41.242-10.488 59.75-16.026l1.383 2.748h9.634v-2.74h-11.017c7.45-2.227 16.734-5.58 24.798-8.268zm0 11.025h-8.26v2.739h8.26z"/><path fill="#ead1bc" d="M997.182 427.452c.23 5.862 1.263 5.248-4.113 5.512-10.018.495-20.3-.708-30.276.051-121.549 9.327-270.19 54.221-384.46 99.15l-2.595-1.562c1.877-10.3 1.391-21.777 5.35-31.505 54.145-17.699 105.754-36.259 161.835-48.965 66.262-15.01 164.608-34.355 230.955-28.305 7.723.709 15.633 4.446 23.304 5.624"/><path fill="#47372a" d="M550.77 463.275c1.809-.376 4.394.426 6.707-.069 14.319-3.055 28.63-7.603 42.888-10.956v13.772c-5.785.982-7.961-3.328-8.37-8.192l-10.71 2.893-.111 20.301-8.354 18.074c-.23.076-1.349 2.03-3.917 2.858-13.491 4.352-27.742 6.776-40.166 13.68l2.747-46.849c5.965-3.686 12.783-4.173 19.286-5.512"/><path fill="#c6ad99" d="M955.847 584.525c.367-.606-.12-3.132 1.323-5.444 1.851-2.979 6.4-6.708 9.702-8.329-.393.691.128 3.123-1.323 5.444-1.851 2.978-6.4 6.707-9.702 8.329"/><path fill="#ad917e" d="M556.282 868.352c-13.61 5.137-26.692 10.931-41.335 13.781 11.878-8.772 26.922-11.375 41.335-13.781"/><path fill="#dfc5ae" d="m465.35 882.125 11.017.008v2.74h-9.634zm16.539 2.765h8.26v2.739h-8.26z"/></svg>