<svg xmlns="http://www.w3.org/2000/svg" viewBox="0 0 1024 1024"><path fill="#615034" d="M418.236 574.165c1.271-3.362 10.675-13.977 14.157-22.45 18.56-45.142-4.224-65.35-20.899-103.1-9.693-21.957-13.218-44.425-10.06-68.557 7.287-55.74 80.87-77.884 84.556-129.8 2.15-30.38-30.703-61.885-44.475-84.967-28.425-47.642-43.623-101.735-34.048-156.357l4.906-6.348L603.998.009c2.611 13.294-5.077 23.927-5.88 36.334-7.15 110.268 87.066 155.051 66.705 274.987-7.398 43.563-56.012 79.983-61.064 130.33-3.593 35.814 8.269 78.643 25.515 110.054 4.923 8.969 6.195 18.321 19.754 16.836-2.005 3.653-5.307 7.254-3.277 11.41l42.684 106.803c-9.77 20.053-4.906 18.782 0 33.775 1.272 3.89-9.651 69.35-12.638 80.239-6.86 24.968-29.397 58.7-32.392 80.187-3.414 24.457 4.07 46.575 5.615 70.358l-11.136-25.438-.12-36.48c-10.248 5.111-18.346 27.469-21.333 37.751-5.709 19.618-4.856 40.09-12.45 57.899 9.753-3.695 14.396 4.753 16.913 5.675-21.154-5.18-7.117 24.038-11.247 28.16l-202.564-.077-11.358-16.828c1.442-.708 11.392-7.834 11.554-8.926-1.357-21.342 1.254-43.307 5.333-64.247.58-2.978 10.966-25.933 11.256-28.143 33.817-44.34 86.673-93.235 47.718-151.86-15.24-22.937-46.532-31.197-61.55-62.293-19.167-39.697-6.75-63.198 7.21-99.498 1.792-4.66.068-10.42.99-12.843zm123.827 377.14c21.427-58.863 45.62-125.048 39.654-188.8-10.035-107.29-83.114-151.126-48.239-278.563 24.064-87.944 56.696-120.157 48.248-222.438-5.137-62.208-45.176-124.493-60.877-186.803-1.655-6.57-.828-13.517-2.44-20.08-1.246-5.068-3.107-16.784-10.095-15.214-3.15 49.681 20.027 93.227 32.392 139.272 14.729 54.802 19.303 116.284 5.82 171.964-12.612 52.08-50.458 104.738-55.356 158.55-8.567 94.14 21.043 124.16 49.698 204.083 21.513 60.006 24.133 115.003 11.281 177.75-3.003 14.642-9.36 28.833-13.167 43.127-1.595 5.981-8.03 17.851 3.072 17.152z"/><path fill="#4e3d28" d="M395.725 1001.975c-22.707 11.196-52.967 10.727-76.083 22.025-19.14-17.92-9.711-47.334-19.559-69.87 6.195-19.832 7.151-40.466 12.587-60.536 7.774-28.698 25.455-52.992 20.01-84.736-9.156-53.342-84.932-57.703-104.78-97.827-3.763-7.603-12.783-41.591-12.766-49.62.017-13.936 10.103-36.268 11.597-50.783 3.08-29.969-1.835-51.84-19.815-75.622-8.772-11.597-21.666-19.687-29.943-31.983-18.833-27.972-24.747-62.276-10.872-93.756 6.571-14.899 28.758-39.458 31.693-52.744 10.718-48.427-11.725-62.294-41.19-92.066-21.214-21.436-41.933-36.48-58.326-65.52-14.89-26.367-21.29-56.26-23.398-86.306l174.49-39.483c1.664 2.056 4.701 44.305 6.707 52.42 16.298 66.04 81.271 93.355 104.644 154.291 5.171 13.483 13.508 41.438 12.868 55.151-1.365 29.346-19.26 63.6-22.81 90.07-8.106 60.45 29.057 107.818 67.457 149.077-.922 2.423.802 8.183-.99 12.842-13.96 36.293-26.377 59.802-7.21 99.5 15.018 31.095 46.301 39.355 61.55 62.292 38.955 58.616-13.9 107.52-47.718 151.86 7.057-53.026-3.891-128.939-28.962-176.504-16.743-31.77-47.3-60.62-65.852-91.759-28.698-48.162-32.077-78.49-29.27-134.46 2.347-46.72 13.44-86.041 5.743-134.724-8.806-55.705-45.61-112.76-81.237-155.178l-48.085-78.55c4.77 46.61 39.919 82.287 61.039 121.882 17.007 31.889 31.786 65.971 39.082 101.64 16.094 78.703-22.1 143.02-3.268 222.806 17.536 74.308 89.02 122.624 119.979 189.627 23.475 50.808 19.874 108.843 19.575 163.371-4.087 20.94-6.69 42.914-5.333 64.248-.162 1.092-10.104 8.217-11.554 8.925"/><path fill="#4d3c27" d="M649.028 568.533c7.424-13.508 22.801-26.93 30.814-39.552 12.57-19.788 29.04-59.596 29.96-82.534 1.622-40.243-27.502-79.121-21.239-133.905 7.928-69.308 74.727-99.891 102.392-156.544 12.399-25.378 18.065-54.75 15.684-82.842L981 112.716c4.923 52.95-24.133 102.606-61.645 137.9-27.75 26.111-67.772 42.53-61.986 89.838 3.507 28.69 33.152 50.108 38.417 74.19 2.585 11.843 2.628 42.99.913 55.363-4.224 30.456-41.259 52.259-55.467 79.634-25.378 48.896 5.606 78.78-.913 128.554-9.31 71.083-89.557 65.57-111.411 119.39-2.185 5.376-6.69 25.822-5.854 31.369 4.95 32.955 28.612 72.149 32.785 108.407 1.655 14.396-4.207 85.427-19.422 86.22-37.308-14.36-78.148-19.284-115.541-32.878-2.518-.913-7.16-9.361-16.913-5.675 7.603-17.809 6.75-38.28 12.45-57.898 2.995-10.292 11.093-32.649 21.333-37.752l.12 36.48 11.136 25.438c-1.545-23.782-9.029-45.9-5.615-70.357 3.003-21.487 25.54-55.22 32.392-80.188 2.987-10.889 13.91-76.348 12.638-80.239 20.181-19.994 42.684-44.578 58.855-67.797 34.602-49.664 47.283-99.226 42.35-160.069-1.45-17.877-10.112-43.63-11.392-61.79-3.805-53.879 6.75-107.955 29.543-156.706 15.138-32.384 71.646-106.154 72.2-136.123.3-16.299-3.097-16.197-6.007-.384-2.065 11.238-13.184 32.298-19.635 42.334-8.55 13.294-24.858 27.4-33.391 39.79-34.56 50.194-66.082 109.338-70.852 171.205-5.795 75.136 26.163 154.214-11.904 224.52-13.219 24.406-38.238 47.582-49.775 71.254l-42.684-106.804c-2.031-4.147 1.271-7.748 3.277-11.409z"/><path fill="#897253" d="M542.063 951.305c-11.11.7-4.668-11.18-3.072-17.152 3.806-14.294 10.163-28.476 13.167-43.128 12.851-62.746 10.24-117.743-11.281-177.75-28.655-79.931-58.266-109.943-49.698-204.082 4.898-53.812 42.743-106.47 55.355-158.55 13.483-55.68 8.9-117.162-5.82-171.964-12.373-46.045-35.54-89.591-32.392-139.272 6.989-1.57 8.85 10.146 10.095 15.215 1.613 6.562.785 13.508 2.44 20.079 15.702 62.31 55.74 124.595 60.877 186.803 8.448 102.272-24.183 134.494-48.247 222.438-34.867 127.437 38.212 171.273 48.239 278.563 5.965 63.752-18.227 129.937-39.655 188.8z"/><path fill="#715b3e" d="M423.868 900.65c-.299 2.21-10.675 25.165-11.256 28.144.299-54.52 3.891-112.564-19.575-163.371-30.96-67.004-102.443-115.311-119.979-189.628-18.833-79.786 19.362-144.102 3.268-222.805-7.296-35.678-22.084-69.752-39.082-101.64-21.12-39.604-56.278-75.282-61.04-121.882l48.086 78.55c35.635 42.418 72.431 99.472 81.237 155.178 7.698 48.682-3.396 87.995-5.742 134.724-2.808 55.979.571 86.298 29.269 134.46 18.551 31.138 49.11 59.99 65.852 91.759 25.07 47.564 36.01 123.477 28.962 176.503z"/><path fill="#705a3d" d="M688.435 720.52c-4.906-14.993-9.77-13.721 0-33.774 11.537-23.672 36.557-46.848 49.775-71.254 38.067-70.306 6.11-149.384 11.904-224.52 4.77-61.867 36.292-121.011 70.852-171.205 8.525-12.381 24.84-26.496 33.391-39.79 6.452-10.036 17.57-31.087 19.636-42.334 2.91-15.813 6.306-15.915 6.007.384-.546 29.96-57.054 103.74-72.2 136.123-22.793 48.76-33.34 102.827-29.543 156.707 1.28 18.158 9.941 43.912 11.392 61.79 4.932 60.842-7.748 110.404-42.35 160.068-16.18 23.219-38.674 47.803-58.855 67.797z"/></svg>