<svg xmlns="http://www.w3.org/2000/svg" viewBox="0 0 1024 1024"><path fill="#383e02" d="m297.834 818.773-2.747-2.739c.819.649 2.235 1.8 2.747 2.74"/><path fill="#383e02" d="M472.375 258.048c-8.251 13.082-9.43 4.045-21.82 16.026l-20.915 20.215c-4.275 4.13-14.959 5.342-21.077 4.856l-29.687-2.373c-4.591-.367-13.705 4.386-15.506 8.525l-10.205 23.441c-.862 1.98-.359 8.004.955 9.097 5.752 4.761 40.133 6.374 48.666 4.88 4.565.59 9.523 2.399 14.285 4.626l8.26-1.067c2.398-.307 4.02 6.98 3.61 8.764-1.485-.487-7.134-3.123-8.09-1.784-2.33 3.286-1.758 12.68 0 16.24l8.277 16.776c2.108 4.267 9.515 8.994 13.756 8.764.478-.026 1.485.085 1.963.093l2.244 3.124 34.918-.427c11.418-.137 36.276 1.63 46.217 10.982l.546 16.23c.265 7.715 5.538 11.947 13.03 12.553l21.462 1.733 18.722 2.449 15.949 2.696c10.632 1.8 20.616 4.685 31.368 8.081 7.808 2.466 21.436-1.211 19.746-12.424-1.604-10.607-9.045-24.482-17.083-31.557l-19.917-17.536c-7.134-6.28-32.393 6.435-36.975-5.333l-7.91-20.318c-2.194-5.632-8.133-9.66-13.79-9.873l-14.635-.546c-1.212-.043-3.994-2.1-4.779-3.03s.265-5.034 1.101-5.964l10.257-11.494c2.483-2.782 2.287-11.7-.529-14.328l-10.035-9.37-.418-25.804-.137-4.856c-.068-2.415-2.415-6.69-4.318-8.252l-6.306-5.17c-.128-.624.069-2.015-.085-2.629l-4.105-16.418-3.54-4.08c-.027-.75.264-1.92.451-2.85-1.34-4.855-1.996-9.3-2.543-16.562l24.9 25.156 19.653 20.352c2.04 2.116 7.552 5.803 10.189 6.741l7.782 2.774c3.123 6.621 8.508 12.885 14.771 17.937l9.703-11.614c2.628-3.15 5.376-7.399 7.125-10.488 6.784-4.087 8.636-11.469 10.906-19.31l2.287-7.92c1.015-3.515-2.364-10.129-5.325-12.339l-4.617-6.135c6.562-15.053 11.29.153 21.3-11.648 4.18-4.933 9.95-6.878 17.169-6.75l24.174.444c2.33.042 7.484 1.903 9.25 3.737l16.606 17.229c1.246 1.289 4.361 3.891 6.127 4.975l27.793 17.067 11.887-7.808c2.253-1.485 3.175-6.52 3.03-10.641-1.127-.248 2.901.614 3.976.844 2.646 2.219 4.207 3.67 5.393 4.207l5.052 2.296c43.52 41.37 55.21 7.936 99.482 2.278l8.84 1.237c2.808 7.117 5.214 12.877 8.414 18.185l6.272 10.394c-7.962 5.384-9.745 9.753-8.738 16.358l.785 5.154c.145.964-2.884.597-4.864.81l-15.121 1.605c-3.576.384-6.357 11.554-5.112 14.908 1.938 5.23 9.319 13.03 15.378 14.378 5.572 1.238 12.953-4.548 17.092-7.27l14.19-9.327c-3.634 7.194-7.944 12.561-13.644 17.22l-15.864 12.971-18.764 14.84c2.406 4.138 7.44 10.231 10.914 11.528l8.542 3.2-23.774 11.093c-3.038 1.417-7.646 6.34-11.443 10.556l26.18 17.767 10.718-14.02c15.223-19.926 14.08-13.219 32.99-35.013 16.554-19.08 13.26-23.91 23.15-21.683 23.69 5.333 46.132-25.506 36.455-31.838-7.706-5.035-23.006-11.017-31.19-12.646l-7.278-3.934c-3.866.495-5.94 1.237-5.888.076.281-6.579 2.901-15.786 12.313-14.805 8.098.845 14.652 1.374 21.163.947l29.397-1.928 5.573-.359-16.777-2.577 8.422-2.295c6.912-1.877 18.193-2.372 24.09-.213l10.42 3.805c10.563 10.061 10.504 12.16 5.58 28.877l-5.675 6.306c-.69.162-3.481.828-1.783.427l.81-12.305c-9.582 20.872 3.67 8.994-5.35 22.28l-9.77 14.38-15.454 22.783c-1.57 2.321-5.504 2.816-12.195 2.884l1.613 8.628-10.129-4.19-13.824 2.901c-6.297 1.323-16.75 8.9-21.248 14.097-2.483 2.867-4.693 11.358-6.374 14.515l-11.341 21.257c-2.97 5.572-2.372 13.756-1.246 20.181l2.244 12.758c2.245 12.748 1.17 24.046-4.898 35.174l-6.715 12.322-9.566 9.267-3.661 3.55c-1.024.99-4.745-.648-5.496-1.177l19.516-16.256-9.958.605c-1.545 3.525-5.683 10.59-9.19 11.281l-16.376 3.2c-3.925.768-11.716 6.05-15.659 7.194l-24.746 7.177.256-6.307c-9.285 4.14-13.509 6.827-15.915 11.589l11.64-3.61c-11.981 4.95-25.165 33.579-25.336 42.155l-.853 41.72-5.513 6.894-3.866 4.967c-.827 1.066-3.84.324-5.81.29-12.639 21.034-13.023 8.704-34.493 19.78l2.253 9.66c-1.211-.017-3.507.247-4.821.375l-11.11-.256-2.432 3.047-7.843 2.5 10.257-10.42c11.375-5.512 23.774-11.997 29.347-23.056 12.168-24.133 4.155-2.364 19.183-31.463l-9.396-6.434c-3.413 3.66-5.598 6.392-7.492 7.262l-16.128 7.45c-27.392 12.646-4.232 9.54-25.003 16.819l1.443-3.712c.358-.922-3.49-1.92-4.591-2.21l-33.963-9.071c-8.354-2.236-16.614-6.878-18.483-14.396l5.47-4.728c.665-.17 1.826-.093 2.636-.042l3.798.4c1.348.146 3.695-2.013 4.045-2.713l23.773-4.087c34.236-5.897 34.577-22.494 58.863-26.658l5.837-15.88c2.44-6.64 8.696-15.95 13.68-21.326 20.914-22.553 39.952-18.372 61.72-41.113l3.832-19.166c-9.864-6.989-21.828-10.906-32.665-6.733l-11.683 4.497-14.532 5.905c-10.948 4.455-19.481 11.076-24.661 22.656-3.934 8.798-15.471 3.635-38.178 6.426-8.679 1.066-18.816 10.214-19.533 19.004-2.27 28.074 10.957 33.33-11.87 48.281l-10.598 6.938 8.303 6.23c5.794-.726 2.824 3.626-.914 5.179l-25.668 6.332c-9.105 2.244-47.164-5.436-67.456 19.208-8.9 10.803-15.027 24.798-20.224 37.914l-5.785 14.609-3.465 8.49c-.887 2.185-5.999 5.18-8.38 4.72-7.168-1.392-16.187-15.967-18.705-26.352l-14.438-2.082-31.522-5.674c-7.416-1.34-13.218-4.088-21.718-8.576l16.52-14.84c2.143-.853 6.341-2.893 8.44-4.386l13.406-9.54 37.206 10.445c1.356.384 4.258.69 5.504.793 1.86.162 3.2-6.946 2.218-8.405l-9.08-13.517 20.08-8.457c5.137-2.167 11.204-4.966 16.222-7.526l48.017-24.49c-14.942-10.326-47.25-20.549-60.783-23.749l-34.287-8.115-20.583-4.693c-9.489-2.16-20.71-8.355-28.603-14.328l-15.173-11.477c-13.721-10.385-28.305-2.15-41.181 5.325-28.92 16.793-30.695 8.815-48.342 16.563l-29.534 12.97-.264.76c-4.856-.043-12.433.75-18.68 1.74-27.793 4.438-21.649 13.577-35.968 12.45l-26.521-2.073-44.766-3.49c-12.382-.964-23.125 7.723-28.809 17.408-12.194 20.77-1.459 31.317-12.16 34.44l-22.57 6.597c-1.349.392-4.028 3.9-4.532 5.205-2.03 5.257 12.416 17.024 37.001 3.499 6.494-3.576 18.842-10.786 19.703-18.108l3.15-26.957c.34-2.935 9.096-5.384 12.006-6.673 33.775-14.916 69.086 1.954 101.435 1.468l9.592 1.587c.82-1.502.06-.11-1.63 3.004-5.956 1.86-11.29 2.867-17.041 2.45l-7.014-.513c-1.46-.102-2.296 6.11-.854 6.093l14.336-.23c33.963-.538 11.606 7.893 36.284 5.563 9.259-.87-.154 13.978-29.338 8.96-3.993-.682-6.596 11.478-3.123 13.713l11.06 7.117c-4.378 9.583-12.903 18.21-23.34 23.296l-4.505 13.688 19.345-10.863c1.178-.657 2.15-7.535 3.43-7.143l6 1.826c-2.245 5.103-8.005 12.834-13.33 15.446l-23.773 11.64c-7.356 3.6-14.26 7.747-19.994 12.415l-4.958 4.045-9.992-3.849c1.015 3.619 1.86 6.392 2.79 8.875.683 1.818 1.092 7.765-.299 9.08-1.732 1.638-4.437 1.382-9.07 1.664l-2.893 9.676c-.828 2.782-8.286 4.42-10.752 4.864-15.378-3.294-25.728 8.27-33.187 23.612 12.067 11.7 21.94 21.248 34.134 30.84l7.774 6.118c1.945 2.654 5.18 6.69 8.012 9.361l17.895 16.887c4.147-5.35 10.36-12.142 15.539-12.825 5.982-.785 35.396 18.338 30.976 38.553-.81 3.712-11.435 5.12-15.386 5.615-5.017.623-15.991 15.898-5.248 25.933l19.013.162 2.184 2.185-17.084 1.28-.7 11.733c1.375 5.018 1.81 7.979-.64 2.492-3.583-1.152-8.695-2.065-6.177.316l-4.83-7.296 3.166-2.68-.845-7.185-8.431 1.818-3.951-7.322 5.726-2.705c2.637-1.246-4.864-13.73-7.808-12.023l-6.272 3.626 5.615 8.363-4.89-.52c-20.531-13.944-43.554-21.112-68.514-10.044-15.812 7.014-45.747 19.413-58.001.478-17.673-27.316 1.152-18.373-28.442-53.18-4.104-4.83-9.25-8.542-15.931-7.424-.709-.051-1.989-.17-2.629-.17l-2.389-3.184-33.587.24-9.506 2.295-22.81.273c-.87.008-2.543-.453-3.43-.666-.06-1.135-.197-3.831-.145-2.91l19.823-1.092 21.939-1.203c1.152-.06 4.59-2.79 6.69-4.395l-23.56.555c-2.143.05-7.186.81-9.413.239l-19.746-5.078 7.578-1.809 22.041-9.65c16.452-7.203 11.52-11.094 30.464-5.659l26.795 7.698c7.876 2.26 17.066 2.858 26.189 3.788l2.491-3.746c9.25.273 7.63-23.663 6.75-29.969l-1.68-12.032c-.41-2.91.528-8.525.443-12.74-.077-4.062-8.875-8.661-12.169-11.204l-6.707-5.163c-5.606-4.318-9.608-11.153-11.972-19.26-2.995-10.291-15.505-7.705-11.605-12.638l2.935-3.712c.666-.836.546-4.335-.47-4.062l-3.379.888c-.674.18-2.875 1.681-3.31 1.928l1.996-7.577-5.999 2.867c30.166-29.005 15.053-67.874 9.421-96.47-5.973-30.276 9.225-59.63 35.917-74.273 24.747-13.585 60.902-.64 90.214-37.982 31.625-40.286-2.432-63.667 7.962-95.24 5.905-17.955 22.426-34.97 40.934-38.879l31.676-6.698c17.417-3.687 34.125-11.29 45.995-24.175l8.584-9.31c.342.281 1.536 1.254 1.323 1.067l6.827.46.187-35.95c0-.734 1.297-4.49 1.477-4.464s1.604 0 4.454.077l-.222-9.736c2.646-2.995 14.9-8.84 18.944-5.71 15.625 12.101 22.119 20.771 23.382 39.783l.964 14.541c.247 3.72 2.065 10.556 4.633 12.595 2.569 2.031 10.317 2.356 13.577 1.144 5.999-2.244 16.444.034 16.043 6.212l-.837 12.885zm241.255 85.87c2.782 1.06 12.697 1.93 13.636-.716 2.133-6.05 5.683-18.833 7.398-25.702l-15.223-2.1c2.585-3.635 4.429-11.22 1.493-14.694-7.031-8.32-18.415-12.851-28.979-9.472-11.4 3.652-57.097 20.07-58.274 32.205l16.614 1.519c14.95 1.365 30.225 6.425 44.348 11.767l18.995 7.194zm-386.466 99.167c5.026-2.262 11.477-3.294 17.8-4.429l.998-12.732c.325-4.173-5.785-12.015-10.197-11.93l-22.468.419c-4.898.094-41.276 14.822-39.637 24.618 6.971 11.981 22.289 18.074 34.107 12.775l19.388-8.713zm26.171 27.827-8.183-8.175c-2.671-2.67-8.977-7.586-13.389-8.986-6.059-1.928-13.722 7.305-14.797 12.058l-1.374 6.033c-.281 1.255 5.265 2.808 6.818 2.628zM122.722 736.435c-4.147-2.415-10.07-2.33-12.134.068 2.722 4.199 9.924 4.096 12.134-.068"/><path fill="#b9b865" d="m48.388 747.41 20.489.067 9.48-2.654 38.323.333c.64 0 1.92.128 2.629.17l4.88 2.27 11.06 5.155c29.593 34.816 10.769 25.873 28.441 53.18 12.254 18.944 42.19 6.536 58.002-.478 24.96-11.068 47.982-3.9 68.514 10.044l17.698 18.636 4.83 7.296c15.01 23.783 29.807 53.103 63.727 42.232a259 259 0 0 1 22.963-6.187c26.76-5.896 53.52 5.112 69.785 26.974 9.797 13.175 21.965 23.646 35.175 33.348 12.501 9.182 23.774.598 29.517-8.09l6.442-3.873-3.78 10.82c-18.159 17.732-48.956 20.42-64.64 12.424-36.105-18.389-52.804-53.93-105.438-43.904-26.36 5.018-50.645-5.555-65.084-27.699-11.093-17.007-30.208-39.407-50.892-42.974-42.266-7.287-60.357 20.566-85.12-1.851-8.235-7.45-16.145-15.028-24.039-23.314-61.252-64.273-75.4-4.667-124.126-56.652l-3.353-10.795 4.275 3.61c21.572-2.876 7.97 1.817 30.26 1.885z"/><path fill="#4c4e0c" d="m555.558 114.261-10.248 4.386 4.855 2.364-13.389 4.506 7.177 8.047 3.72 4.164-18.449.23c-28.62-13.115-15.547 1.92-31.556-1.211l-6.443-1.263c-.972-.188-1.245.887-1.766 2.184l-12.476-5.453c-1.22-.537-5.913-.145-7.176.12-1.886.392-3.021 6.955-2.296 8.704 9.967 23.902 16.435 21.658 29.816 45.525l18.585.982-4.036 3.328-13.21.179c-8.524 10.248-2.32 24.064 5.24 28.97 7.16 4.651-.717 6.725 3.9 17.067.998 2.227 5.87 3.217 8.49 3.567-.196.922-.478 2.1-.452 2.85l-9.216 4.216c-17.05 7.8-26.103 2.927-34.253 10.3l.837-12.886c.4-6.178-10.044-8.448-16.043-6.212-3.26 1.22-11.008.896-13.577-1.144-2.568-2.03-4.386-8.874-4.633-12.595l-.965-14.54c-1.262-19.013-7.748-27.674-23.38-39.783-4.037-3.132-16.3 2.714-18.945 5.709l.222 9.736c-2.842-.077-4.275-.05-4.454-.077s-1.477 3.73-1.477 4.463l-.187 35.951-6.827-.46c.213.187-.981-.786-1.323-1.067l.162-3.09 2.833-2.636v-5.257c.734-.34 2.637-1.578 2.629-2.628-.487-60.365-28.997-68.403 36.19-129.416 15.607-14.61 40.925-16.333 58.683.785 23.407 22.553 39.049 36.992 73.447 31.343zm-15.966 4.514-7.936-.537z"/><path fill="#404809" d="m161.165 678.86-10.974-.895-5.658 27.75c-.665 3.268-3.865 8.44-7.21 14.592l18.773.555-2.492 3.746c-9.114-.93-18.312-1.527-26.189-3.789l-26.794-7.697c-18.944-5.444-14.02-1.553-30.464 5.658l-22.042 9.65-7.578 1.81 19.747 5.077c2.227.572 7.27-.187 9.412-.239l23.56-.554c-2.107 1.604-5.546 4.335-6.69 4.394l-21.939 1.204-19.823 1.092c-.043-.922.094 1.775.145 2.91-2.227.145-8.124.162-10.76-.59l-25.771-7.33-1.144.231c.538 1.391-14.967-13.022-2.252-44.424 5.086-12.553 11.195-23.365 19.14-34.356 18.56-25.693 57.967-21.026 81.57-44.407l2.876-2.85 2.312-2.227 6-2.868-1.998 7.578c.436-.247 2.637-1.75 3.311-1.928l3.38-.888c1.015-.264 1.135 3.226.469 4.062l-2.936 3.712c-3.9 4.932 8.61 2.347 11.606 12.638 2.364 8.106 6.357 14.942 11.972 19.26l6.707 5.162c3.303 2.543 12.092 7.151 12.169 11.204.085 4.216-.854 9.83-.444 12.74z"/><path fill="#6f7121" d="M786.342 217.13c-7.552 4.762-13.943-6.809-17.51-11.52l-5.624-7.415c1.058 5.12 2.833 9.942 4.992 11.844l4.745 4.19c1.032.913-.905 4.08-2.15 4.642l-4.54 2.031c-1.323.59 1.715 4.753 2.858 5.624l11.051 8.38-7.697 7.577-13.739-8.021c.709-3.951-.264 1.51-.358 1.98l4.523 6.775-5.052-2.295c-.674-1.818-2.893-5.368-4.506-6.99l-17.032-17.151c-3.183-3.2-7.254-5.052-13.133-6.69L707.8 228.369c-1.57 1.869-5.743 3.789-8.166 3.9l-16.606-17.229c-1.766-1.835-6.92-3.695-9.25-3.738l-2.347-2.244-24.823-.572c-19.03-.443-35.96-30.84-45.73-45.738-9.592-14.635-17.17-24.994-34.748-25.003l-18.45-.017-3.72-4.164-7.176-8.047 13.389-4.506-4.856-2.364 10.249-4.386 22.818-3.754c33.92-5.581 38.86 18.142 57.873 46.31 15.863 23.5 46.054 21.888 70.51 9.301 45.774-23.56 53.804 24.756 79.574 51.013"/><path fill="#2d3302" d="M720.456 655.514c-6.988 8.524-15.334 7.082-25.898 20.975-25.84 33.98-10.445 50.141-12.997 89.6l2.492 2.338c0 1.638-1.579 4.266-2.534 5.47-1.17-1.332-3.234-3.687-1.093-1.246l-10.999 15.838c-.75 1.083-8.977-4.216-4.958-2.1l10.47-13.474-5.213-1.015-8.346 11.52-4.898-3.175-11.128 6.844c-.921.563-3.285 2.603-3.473 2.799l-18.005 6.741c-1.886.709-8.013.512-11.272.546l-2.347 2.168-2.893-.111-8.858-7.108c6.878-6.665 15.326-14.242 21.573-21.675l14.592-17.365 8.26-10.104c2.167-2.645 5.069-10.197 5.436-13.773l3.242-31.334c2.526-24.43 11.153-61.696 38.136-71.15l31.488-11.034c20.77-7.28-2.39-4.173 25.003-16.82l16.128-7.45c1.894-.87 4.078-3.6 7.492-7.261l9.395 6.434c-15.027 29.099-7.014 7.33-19.183 31.462-5.572 11.06-17.98 17.545-29.346 23.057l-10.257 10.42z"/><path fill="#505312" d="m1015.215 274.62-10.42-3.806c-5.905-2.16-17.177-1.664-24.09.213l-8.421 2.296 16.776 2.577-5.572.358-29.398 1.929c-6.519.426-13.064-.094-21.162-.948-9.412-.98-12.04 8.227-12.314 14.806-.051 1.152 2.023.418 5.888-.077l7.28 3.934c-3.303-.657-9.396-.956-14.226-1.493l-6.588 12.475 3.217 17.997c.7 3.934 5.923 10.24 8.995 12.757l3.345 2.74c-9.89-2.228-6.597 2.602-23.151 21.683-18.91 21.794-17.767 15.087-32.99 35.012l-10.718 14.02-26.18-17.766c3.797-4.216 8.405-9.14 11.443-10.556l23.774-11.093-8.542-3.2c-3.465-1.297-8.508-7.39-10.914-11.529l18.765-14.84 15.863-12.97c5.7-4.659 10.01-10.026 13.645-17.22l-14.191 9.327c-4.139 2.722-11.52 8.516-17.092 7.27-6.06-1.348-13.449-9.147-15.377-14.378-1.238-3.354 1.536-14.533 5.111-14.908l15.121-1.604c1.98-.214 5.01.162 4.864-.811l-.785-5.154c-1.007-6.605.777-10.974 8.738-16.359l-6.272-10.393c-3.2-5.3-5.606-11.068-8.414-18.185l-8.84-1.237c8.72-8.371 5.743 6.28 19.14-7.97 1.775-1.895 5.487-3.968 9.882-6.443l.05-11.759c11.623 3.926 10.59 30.25 32.829 43.034 14.694 8.448 32.332 8.627 48.759 6.639l23.987-2.893c7.723-.93 13.833 4.36 18.193 8.516z"/><path fill="#797a2b" d="m786.342 217.13 14.217 6.69c27.067 7.39 72.209-29.226 90.897-4.505l-.051 11.76c-4.395 2.482-8.107 4.556-9.882 6.442-13.397 14.25-10.42-.401-19.14 7.97-44.271 5.658-55.97 39.091-99.482-2.278l-4.523-6.776c.103-.47 1.067-5.93.359-1.98l13.739 8.022 7.697-7.578-11.051-8.38c-1.144-.862-4.181-5.026-2.859-5.623l4.54-2.031c1.246-.555 3.183-3.73 2.15-4.642l-4.744-4.19c-2.16-1.912-3.934-6.733-4.992-11.844l5.623 7.415c3.567 4.702 9.959 16.282 17.51 11.52z"/><path fill="#41451a" d="M899.452 497.869v5.256l-5.257 5.47-12.015 7.143c-4.77 2.841-13.832 4.002-19.499 3.805l-2.628 1.51-21.017.854-2.629 2.227-5.256.342-2.629 2.568c-.46.444-1.672.128-2.628.086l-2.628 2.423-5.248 2.193c-1.058.444-2.04 2.287-2.475 3.251-33.459 32.564 1.562 74.053-34.423 107.29-6.016 5.555-14.072 9.267-21.095 10.402l-1.911-2.67-11.46-.189-2.253-9.66c21.47-11.076 21.862 1.255 34.492-19.78 1.962.035 4.983.777 5.81-.29l3.866-4.966 5.513-6.895.853-41.72c.17-8.584 13.355-37.205 25.336-42.154l-11.64 3.61c2.407-4.762 6.64-7.45 15.915-11.589l-.256 6.306 24.747-7.176c3.933-1.144 11.733-6.426 15.658-7.194l16.376-3.2c3.507-.683 7.654-7.748 9.19-11.28l9.959-.607-19.516 16.256c.75.53 4.471 2.168 5.495 1.178l3.661-3.55 9.566-9.267z"/><path fill="#959149" d="m607.356 799.223 2.892.111 33.698 1.067-.964 7.526-1.365 10.659-2.227-.043c-2.407.529-6.708 1.826-8.081 2.509l-25.805 3.413c-16.615 2.202-30.567 9.208-42.078 20.147-1.178-1.169-2.45-5.299-2.825-7.987l4.881-15.846c9.592-9.669 22.17-15.813 36.02-19.84l5.862-1.707z"/><path fill="#464a2d" d="M1020.796 303.488c-1.059 3.593-2.663 10.223-4.864 13.466l-23.791 34.884c-4.591 6.733-12.297 15.863-19.482 18.978-21.137 9.165-39.356 14.097-51.644 32.802-5.837 8.875-9.924 20.523-8.516 30.84l1.946 14.173c2.585 18.902-.359 40.798-14.993 51.866v-2.628l6.715-12.322c6.067-11.128 7.143-22.426 4.898-35.175l-2.244-12.757c-1.135-6.426-1.732-14.61 1.246-20.181l11.34-21.257c1.682-3.149 3.892-11.64 6.375-14.515 4.497-5.197 14.95-12.775 21.248-14.097l13.824-2.902 10.13 4.19-1.614-8.627c6.69-.068 10.624-.563 12.195-2.884l15.453-22.784 9.771-14.379c9.02-13.278-4.232-1.408 5.35-22.28l-.81 12.305c-1.698.4 1.092-.256 1.783-.427l5.675-6.306z"/><path fill="#75742f" d="M664.042 800.12c-.085 1.083-.017 2.15-.537 2.653-1.852 1.246-4.352 3.695-5.743 5.59.12-.12-14.575 11.665-16.145 10.214l1.365-10.658.964-7.526-33.698-1.067 2.347-2.168c3.26-.034 9.387.163 11.273-.546l18.005-6.741 13.969 1.792c1.903.247 5.3 1.246 5.837 2.568l2.372 5.863z"/><path fill="#717462" d="m746.662 649.839 11.46.188 1.912 2.67-13.005 2.117c-15.633 2.543-28.92 5.145-39.33 16.025l-5.265 5.504-7.16 1.716-.7-1.562c10.565-13.892 18.91-12.45 25.9-20.975l7.842-2.5 8.738-.06c1.28-.008 4.488-2.244 4.804-2.73 1.314-.129 3.61-.402 4.821-.376z"/><path fill="#50532b" d="M681.519 773.888c-.802 4.378-3.106 10.223-5.88 14.08l-8.49 11.819-3.107.324-2.372-5.862c-.537-1.323-3.934-2.33-5.837-2.569l-13.969-1.792c.188-.205 2.56-2.236 3.473-2.799l11.128-6.844 4.898 3.175 8.346-11.52 5.213 1.015-10.47 13.474c-4.02-2.116 4.207 3.183 4.958 2.1l11-15.838c-2.142-2.44-.069-.077 1.092 1.246z"/><path fill="#95955c" d="M44.95 744.124c.887.205 2.56.674 3.43.665v2.629c-22.29-.077-8.687-4.762-30.26-1.886l-4.275-3.61 3.354 10.795c-6.511-2.236-7.731-10.624-9.925-16.265l1.144-.23 25.77 7.33c2.637.75 8.534.725 10.761.589z"/><path fill="#383e02" d="M381.777 222.071c.051-.98 2.073-2.21 2.833-2.636zm2.833-7.893c0-1.05 1.894-2.278 2.628-2.628 0 1.05-1.894 2.287-2.628 2.628M105.732 613.257l2.876-2.85z"/><path fill="#3c4207" d="m422.02 547.524-11.75 5.334c-7.126 3.234-13.79 10.58-20.062 16.11l-22.409 19.73 38.93 34.5c6.792 6.016 32.947 24.584 39.654 24.098l47.309-3.43c11.136-.811 20.676-.956 31.445-.87l6.315-6.955-2.595-3.832 14.439 2.082c2.517 10.385 11.537 24.96 18.705 26.351 2.38.46 7.492-2.534 8.38-4.719l3.464-8.49 1.272 9.924c2.517.281 8.797.682 11.562 1.476l20.933 6.008 15.291 15.88c28.877-21.427-17.817-33.348-4.07-61.662 8.892-18.304 24.388-30.25 43.947-35.336l8.328-2.168-5.47 4.728c1.869 7.518 10.12 12.16 18.483 14.395l33.963 9.071c1.1.29 4.95 1.289 4.591 2.21l-1.442 3.712-31.488 11.034c-26.983 9.455-35.61 46.72-38.136 71.151l-3.242 31.334c-.367 3.584-3.269 11.128-5.436 13.773l-8.26 10.104-14.592 17.365c-6.247 7.433-14.695 15.01-21.573 21.675l8.858 7.108-5.862 1.707c-13.841 4.036-26.42 10.171-36.02 19.84.7-2.51.803-2.85-3.652 2.082l-9.173-5.675c-11.887-7.347-20.028 9.293-26.445 11.136.06-3.396 1.724-13.824-1.1-16.691l-14.183-14.439c-1.186-1.211-7.885.342-9.395 1.246l-7.032 4.199c-4.156 2.483-16.358 3.533-16.426-1.681-.069-5.035.75-13.304-1.989-16.069L458.09 766.73l-12.032 16.4-18.781 25.54-5.854 7.493-13.449 7.834c-4.625 2.696-7.44 14.967-3.644 18.022l6.827 5.504c-6.946.248-20.668.58-26.547-5.256-1.775-1.767-4.95-4.557-7.518-5.692l-7.697-3.405c-4.6-2.04-9.617-3.618-13.781-4.284-5.18-2.96-11.913-3.737-18.287-3.26l-2.185-2.184-19.012-.162c-10.744-10.035.23-25.31 5.248-25.933 3.96-.495 14.575-1.903 15.386-5.615 4.42-20.215-24.995-39.338-30.976-38.553-5.18.682-11.392 7.466-15.54 12.825l-17.894-16.887c-2.825-2.671-6.067-6.707-8.013-9.361.384.315 4.088-2.04 4.3-3.14l2.578-13.142c1.536-7.842 3.285-16.077 4.3-23.757 1.264-9.497-13.465-16.12-19.907-20.522 2.457-.444 9.915-2.083 10.752-4.864l2.892-9.677c4.634-.282 7.339-.026 9.071-1.664 1.391-1.314.982-7.254.299-9.08-.93-2.483-1.775-5.256-2.79-8.874l9.992 3.848 4.958-4.045c-.205 2.885-.691 11.375 1.587 13.884 11.486 12.672 43.58 17.877 57.848 20.506 7.313 1.348 15.965 5.265 23.535-1.57l-4.873-9.344-6.494-13.96c-1.314-2.834-2.125-11.145-.4-14.2l12.577-22.298-15.974-9.78c-1.536-.938-4.591-5.657-6.144-4.914l-4.566 2.176-5.998-1.827c-1.289-.392-2.262 6.486-3.43 7.143l-19.346 10.863 4.506-13.688c10.444-5.077 18.97-13.713 23.338-23.296l-11.059-7.116c-3.473-2.236-.87-14.396 3.123-13.714 29.184 5.018 38.588-9.83 29.338-8.96-24.678 2.33-2.33-6.1-36.284-5.563l-14.336.23c-1.442.026-.606-6.195.854-6.093l7.014.512c5.751.418 11.085-.597 17.041-2.449l1.63-3.003-9.592-1.588c2.279-5.307 8.756 2.185 18.868-6.289l7.492-6.28c1.288-1.084 2.995-2.936 6.23-6.221l11.647 3.217c7.612 2.1 51.473 15.787 43.085 26.317zm6.511 170.889-2.167-31.352c-.512-7.398-10.428-15.198-17.827-13.423l-32.588 7.791c.827 23.697 20.983 35.55 40.422 45.526 3.985-.043 12.433-4.634 12.16-8.542"/><path fill="#565719" d="m492.138 603.102 7.826-11.418c1.536-2.244-2.108-8.78-4.498-10.12l-28.62-16.017c-3.269-1.835-7.202-6.324-7.92-9.575l-5.64-25.608-18.073 10.479c-4.36 2.526-9.114 4.821-13.184 6.673 8.388-10.53-35.473-24.218-43.085-26.317l-11.648-3.217c-3.234 3.285-4.941 5.145-6.23 6.22l4.899-12.074c-2.381-.222-8.005-.828-10.548-.853.282-.811.427-1.255.265-.76l29.534-12.97c17.647-7.749 19.422.23 48.341-16.564 12.885-7.483 27.46-15.718 41.182-5.324l15.172 11.477c7.894 5.973 19.115 12.16 28.604 14.327l20.582 4.694 34.287 8.115c13.534 3.2 45.833 13.423 60.783 23.748l-48.017 24.49c-5.017 2.56-11.085 5.36-16.222 7.527l-20.079 8.457 9.08 13.517c.981 1.459-.359 8.567-2.219 8.405-1.246-.111-4.156-.41-5.504-.794l-37.205-10.445-13.406 9.54c-2.1 1.494-6.29 3.534-8.44 4.387z"/><path fill="#353b02" d="m565.482 820.77-4.88 15.847c-.871 1.536-2.381 5.102-2.868 7.38l-4.736 22.085-.614 22.997-4.779 23.28c-1.519 7.398-6.707 6.732-13.721 17.356-5.743 8.696-17.016 17.28-29.517 8.09-13.21-9.703-25.378-20.173-35.175-33.348-16.264-21.863-43.025-32.87-69.785-26.974a261 261 0 0 0-22.963 6.186c-33.92 10.872-48.717-18.449-63.727-42.231-2.51-2.38 2.594-1.468 6.178-.316 2.449 5.487 2.014 2.526.64-2.492l.7-11.733 17.083-1.28c6.366-.478 13.107.299 18.287 3.26 3.763 4.173 22.451 14.455 28.996 13.389 5.88 5.836 19.601 5.495 26.548 5.256 3.148-.11 9.258 1.45 13.286 1.988l18.108 2.39c6.502.862 14.063 1.595 20.002 3.25l20.898 5.812c7.433 4.958 11.614 10.172 22.52 9.13l-6.947-10.982 9.208-1.425c3.456-.537 8.226-.46 8.67-2.526l1.758-8.234 7.543-18.586c6.417-1.843 14.558-18.483 26.445-11.136l9.173 5.675c4.446-4.932 4.352-4.591 3.652-2.082z"/><path fill="#5d5f1c" d="M681.596 579.2c-2.381.41-6.733 1.638-7.843 2.313-.81-.052-1.97-.128-2.636.042l-8.329 2.168c-19.558 5.086-35.063 17.032-43.947 35.336-13.747 28.314 32.948 40.235 4.07 61.662l-15.29-15.88-20.933-6.008c-2.765-.794-9.046-1.195-11.563-1.476l-1.271-9.924 5.785-14.61c5.197-13.124 11.324-27.11 20.224-37.913 20.293-24.653 58.351-16.964 67.456-19.209l25.669-6.331c3.737-1.545 6.707-5.905.913-5.18l-8.303-6.23 10.598-6.937c22.835-14.959 9.6-20.207 11.87-48.282.708-8.789 10.854-17.937 19.533-19.003 22.707-2.79 34.244 2.372 38.178-6.426 5.171-11.58 13.713-18.21 24.661-22.656l14.532-5.905 11.683-4.497c10.837-4.164 22.8-.256 32.665 6.733l-3.831 19.166c-21.769 22.75-40.807 18.56-61.722 41.113-4.983 5.368-11.238 14.686-13.679 21.325l-5.837 15.88c-24.285 4.165-24.618 20.77-58.863 26.659l-23.773 4.087z"/><path fill="#424809" d="m547.682 137.737 18.449.017c17.579.008 25.156 10.376 34.748 25.002 9.77 14.9 26.7 45.304 45.73 45.739l24.823.572 2.347 2.244-24.175-.444c-7.21-.136-12.98 1.81-17.169 6.75-10.01 11.802-14.737-3.396-21.3 11.648l4.617 6.136-6.289-3.619c-6.647 1.716-12.28 6.06-15.983 13.244 3.704 4.898 11.614 11.725 15.736 10.215 4.574-1.682 9.37-5.283 11.861-7.501l-2.287 7.919c-2.27 7.842-4.121 15.223-10.905 19.31l3.063-8.558-32.29 1.851-2.372 10.872-7.783-2.773c-2.628-.94-8.15-4.626-10.189-6.742l-19.652-20.352-24.9-25.156c.546 7.262 1.203 11.716 2.543 16.563-2.62-.35-7.492-1.331-8.49-3.567-4.617-10.342 3.259-12.424-3.9-17.066-7.553-4.907-13.756-18.731-5.24-28.971l13.21-.18 4.036-3.327c-.845-2.424 24.021-16.743 16.99-24.098l-11.58-12.126c-1.323-1.383-2.654-5.342-4.565-5.231l-6.085.367c-.768.042-2.159.247-2.628-.188l-2.628-2.458c-.734-.034-2.133.137-2.628-.179l-2.629-2.457-2.628-.171c-.495-1.331-.666-2.44-1.485-2.552a177 177 0 0 0-3.771-.452l-2.842-.316c.52-1.305.794-2.38 1.766-2.184l6.443 1.263c16.009 3.132 2.935-11.904 31.556 1.212l18.45-.23z"/><path fill="#6d6f2a" d="M515.844 243.533c.162 4.855 4.847 21.52 7.646 20.497.154.614-.043 2.005.085 2.628.47 2.33 2.987 6.434 4.753 8.047l5.871 5.376.137 4.856c-.478-.649-3.499 6.348-3.217 8.61l2.901 22.954-4.582 16.043c-.999 3.507-6.861 7.475-10.027 8.414l-6.818 2.014c-.683.205.213 4.036-.487 4.19l-4.164.913c-9.557-8.235-25.933-13.04-37.99-6.161l-25.984 14.822c-4.557-14.14-17.4-21.897-31.488-17.81-3.49 1.016-7.45 2.604-9.694 3.79-8.533 1.493-42.914-.12-48.666-4.881-1.322-1.093-1.817-7.117-.955-9.097l10.205-23.44c1.801-4.14 10.915-8.893 15.506-8.526l29.687 2.373c6.118.486 16.81-.726 21.077-4.856l20.916-20.215c12.39-11.981 13.576-2.944 21.82-16.026 8.14-7.373 17.202-2.5 34.252-10.3z"/><path fill="#64671e" d="m482.01 397.798-3.021-2.346-34.142-.35c-.487 0-1.494-.12-1.963-.094l7.049-13.389 9.583-3.968 56.337-22.767-7.91-6.818 4.163-.913c.7-.154-.196-3.985.487-4.19l6.818-2.014c3.174-.938 9.028-4.906 10.027-8.414l4.582-16.042-2.901-22.955c-.282-2.261 2.739-9.259 3.217-8.61l.418 25.805 10.035 9.37c2.816 2.628 3.012 11.536.53 14.327l-10.258 11.494c-.836.939-1.886 5.043-1.1 5.965.784.939 3.566 2.987 4.778 3.03l14.635.546c5.649.213 11.588 4.24 13.79 9.873l7.91 20.317c4.582 11.768 29.841-.947 36.975 5.334l19.917 17.536c8.038 7.082 15.488 20.958 17.083 31.556 1.699 11.213-11.938 14.89-19.746 12.425-10.752-3.397-20.736-6.29-31.368-8.081l-15.95-2.697-18.721-2.45-21.462-1.731c-7.492-.606-12.774-4.839-13.03-12.553l-.546-16.23c-9.941-9.353-34.799-11.12-46.217-10.983zm56.814-62.498-3.575 1.297c-1.289 4.83-.188 3.712 3.575-1.297"/><path fill="#616524" d="m492.138 603.102-16.52 14.84c8.5 4.48 14.302 7.236 21.717 8.575l31.522 5.675 2.595 3.831-6.315 6.955c-10.77-.077-20.31.068-31.445.87l-47.31 3.43c-6.706.487-32.87-18.081-39.654-24.097l-38.929-34.5 22.409-19.73c6.272-5.52 12.936-12.876 20.062-16.11l11.75-5.334c4.07-1.843 8.832-4.147 13.184-6.673l18.074-10.479 5.64 25.609c.717 3.242 4.65 7.74 7.92 9.574l28.62 16.017c2.39 1.34 6.033 7.876 4.497 10.12l-7.825 11.418z"/><path fill="#71742e" d="m368.892 668.314-.3 10.137-18.363.777c-14.26-2.637-46.353-7.834-57.847-20.506-2.279-2.509-1.792-11-1.588-13.884 5.735-4.667 12.638-8.815 19.994-12.416l23.774-11.64c5.325-2.61 11.076-10.341 13.329-15.444l4.565-2.176c1.553-.743 4.608 3.976 6.144 4.915l15.975 9.779-12.578 22.298c-1.724 3.063-.913 11.375.4 14.2z"/><path fill="#646b24" d="M355.409 511.292c2.543.025 8.166.623 10.547.853l-4.898 12.075-7.492 6.28c-10.112 8.482-16.59.982-18.868 6.29-32.34.486-67.66-16.385-101.435-1.468-2.919 1.288-11.665 3.737-12.007 6.673l-3.148 26.956c-.854 7.322-13.21 14.541-19.704 18.108-24.584 13.534-39.04 1.758-37-3.498.503-1.306 3.174-4.813 4.53-5.206l22.571-6.596c10.701-3.132-.025-13.679 12.16-34.44 5.684-9.686 16.427-18.373 28.809-17.409l44.766 3.49 26.521 2.074c14.31 1.118 8.175-8.013 35.968-12.45 6.247-.998 13.824-1.792 18.68-1.74z"/><path fill="#5e6121" d="m713.63 343.919-18.996-7.194c-14.114-5.35-29.397-10.402-44.347-11.767l-16.615-1.52c1.178-12.142 46.874-28.56 58.274-32.204 10.565-3.38 21.948 1.152 28.98 9.472 2.935 3.473 1.092 11.06-1.494 14.695l15.224 2.099c-1.715 6.878-5.265 19.652-7.399 25.702-.938 2.645-10.845 1.775-13.636.717z"/><path fill="#454809" d="m507.942 348.066 7.91 6.818-56.336 22.767-9.583 3.968-7.049 13.389c-4.241.23-11.648-4.497-13.756-8.764l-8.277-16.776c-1.758-3.559-2.33-12.954 0-16.24.947-1.339 6.605 1.298 8.09 1.784.41-1.775-1.22-9.07-3.61-8.763l-8.26 1.066c-4.753-2.218-9.711-4.028-14.285-4.625 2.244-1.186 6.204-2.773 9.694-3.789 14.088-4.087 26.922 3.678 31.488 17.81l25.984-14.823c12.066-6.878 28.441-2.065 37.99 6.161z"/><path fill="#595f18" d="m327.164 443.085-19.388 8.712c-11.81 5.308-27.128-.785-34.108-12.774-1.647-9.796 34.74-24.525 39.637-24.619l22.469-.418c4.411-.085 10.521 7.757 10.197 11.93l-.998 12.731c-6.332 1.135-12.783 2.168-17.8 4.43z"/><path fill="#4c5115" d="M255.629 679.185c6.442 4.403 21.162 11.025 19.908 20.523-1.016 7.671-2.765 15.906-4.3 23.757l-2.578 13.14c-.213 1.102-3.925 3.465-4.3 3.141l-7.775-6.118c-12.194-9.592-22.075-19.14-34.133-30.84 7.458-15.343 17.81-26.905 33.186-23.611z"/><path fill="#62631d" d="M933.79 295.902c8.183 1.63 23.483 7.612 31.189 12.646 9.685 6.332-12.766 37.171-36.454 31.838l-3.345-2.74c-3.072-2.516-8.286-8.831-8.995-12.756l-3.217-17.997 6.588-12.476c4.83.538 10.923.836 14.225 1.493z"/><path fill="#4b4d0c" d="M757.84 240.922c-1.177-.538-2.747-1.989-5.392-4.207-1.067-.23-5.095-1.093-3.977-.845.145 4.13-.776 9.165-3.03 10.64l-11.886 7.809-27.793-17.067c-1.775-1.083-4.881-3.686-6.127-4.975 2.423-.11 6.596-2.03 8.166-3.9L723.17 210.1c5.88 1.639 9.95 3.49 13.133 6.69l17.032 17.152c1.613 1.622 3.823 5.18 4.506 6.99z"/><path fill="#5b631d" d="m161.165 678.86 1.68 12.033c.88 6.306 2.51 30.242-6.75 29.969l-18.773-.555c3.346-6.152 6.546-11.315 7.211-14.592l5.658-27.75z"/><path fill="#606725" d="M607.876 274.978c-1.75 3.09-4.488 7.339-7.125 10.488l-9.703 11.613c-6.263-5.051-11.656-11.315-14.77-17.937l2.371-10.871 32.29-1.852z"/><path fill="#5b6020" d="m353.335 470.912-30.925 3.558c-1.553.18-7.1-1.373-6.818-2.628l1.374-6.033c1.075-4.753 8.747-13.986 14.797-12.058 4.412 1.4 10.718 6.315 13.389 8.986z"/><path fill="#5c6322" d="M615.744 235.4c2.96 2.21 6.34 8.833 5.325 12.34-2.5 2.218-7.288 5.82-11.862 7.5-4.121 1.51-12.023-5.316-15.735-10.214 3.703-7.193 9.335-11.537 15.983-13.244z"/><path fill="#3c4207" d="M297.834 818.773c-.503-.938-1.928-2.09-2.747-2.739l-5.615-8.363 6.272-3.626c2.952-1.707 10.453 10.777 7.808 12.023l-5.726 2.705z"/><path fill="#3c4207" d="m295.087 816.034 2.747 2.74 3.951 7.32 8.431-1.808.845 7.176-3.166 2.688-17.698-18.636z"/><path fill="#404809" d="m116.68 745.165-38.323-.342-9.48 2.654-20.489-.068v-2.628l22.81-.273 9.506-2.287 33.587-.24z"/><path fill="#454809" d="m482.01 397.798-34.919.427-2.244-3.123 34.142.35z"/><path fill="#404809" d="M122.722 736.435c-2.21 4.164-9.412 4.267-12.134.068 2.065-2.397 7.987-2.483 12.134-.068"/><path fill="#41451a" d="M741.84 650.223c-.315.486-3.523 2.722-4.803 2.73l-8.739.06 2.432-3.046z"/><path fill="#424809" d="M523.49 264.03c-2.799 1.024-7.484-15.642-7.646-20.497l3.541 4.079z"/><path fill="#3c4207" d="M681.596 579.2c-.35.7-2.706 2.859-4.045 2.714l-3.798-.401c1.118-.666 5.462-1.903 7.843-2.313"/><path fill="#404809" d="m135.24 752.76-11.059-5.155-4.88-2.27c6.68-1.117 11.826 2.595 15.93 7.424z"/><path fill="#424809" d="m534.19 280.073-5.87-5.376c-1.767-1.613-4.284-5.726-4.753-8.047l6.306 5.17c1.894 1.554 4.25 5.83 4.318 8.253"/><path fill="#353b02" d="m307.895 834.15 3.166-2.68z"/><path fill="#6e712a" d="m489.459 137.685 2.842.316 5.256 3.004 2.628.17c.461.47 1.955 2.031 2.629 2.458.495.316 1.894.145 2.628.18l2.628 2.457c.461.435 1.852.23 2.628.188 2.944 1.809 7.254 3.754 10.642 4.864l11.58 12.125c7.022 7.356-17.835 21.675-16.99 24.099l-18.586-.982c-13.38-23.876-19.849-21.623-29.816-45.525-.734-1.75.401-8.312 2.296-8.704 1.263-.265 5.956-.657 7.176-.12l12.476 5.453z"/><path fill="#6f7121" d="m539.592 118.775-7.936-.537z"/><path fill="#535513" d="m526.212 828.322-7.543 18.586-1.758 8.234c-.444 2.074-5.214 1.997-8.67 2.526l-9.208 1.425 6.947 10.983c-10.906 1.05-15.087-4.165-22.52-9.13l-20.898-5.812c-5.948-1.656-13.5-2.39-20.002-3.251l-18.108-2.39c-4.028-.529-10.138-2.099-13.286-1.988l-6.827-5.504c-3.797-3.063-.981-15.326 3.644-18.022l13.448-7.834c.598 5.214 6.818 9.848 12.194 10.13l17.016.887c6.767.35 19.473 3.089 25.105.418l13.926-6.597 14.652-6.869c2.645-1.237 5.257-8.516 2.842-9.515-3.994-1.664 1.083-3.9-12.655-1.988l7.031-4.198c1.51-.905 8.21-2.45 9.395-1.246l14.183 14.438c2.816 2.868 1.16 13.295 1.1 16.692z"/><path fill="#6a6d24" d="M494.502 802.628c13.739-1.92 8.662.316 12.655 1.989 2.415 1.006-.196 8.277-2.841 9.514l-14.652 6.87-13.927 6.596c-5.632 2.67-18.338-.068-25.105-.418l-17.015-.888c-5.376-.281-11.597-4.915-12.194-10.129l5.854-7.492 18.781-25.54 12.032-16.401 17.997 18.141c2.74 2.757 1.912 11.034 1.989 16.069.068 5.214 12.27 4.164 16.426 1.68z"/><path fill="#646725" d="M428.531 718.413c.273 3.908-8.175 8.499-12.16 8.542-19.439-9.976-39.595-21.829-40.422-45.526l32.588-7.79c7.399-1.767 17.315 6.032 17.827 13.422z"/><path fill="#383e02" d="M384.61 842.266c-6.545 1.066-25.242-9.216-28.996-13.39 4.164.675 9.182 2.254 13.781 4.285l7.697 3.404c2.569 1.135 5.743 3.934 7.518 5.692z"/><path fill="#646725" d="m350.23 679.228 18.363-.777.299-10.137 4.872 9.344c-7.569 6.835-16.222 2.918-23.535 1.57"/><path fill="#4c4e0c" d="M521.331 151.339c-3.396-1.11-7.697-3.055-10.641-4.864l6.084-.367c1.912-.111 3.243 3.848 4.566 5.23zm-23.774-10.326-5.256-3.003c.87.093 2.773.315 3.771.452.82.11.982 1.229 1.485 2.551m10.505 5.274-2.629-2.458zm-5.248-2.645c-.674-.427-2.168-1.989-2.629-2.458z"/><path fill="#6d6f2a" d="M538.824 335.3c-3.771 5.018-4.864 6.136-3.575 1.297z"/></svg>