<svg xmlns="http://www.w3.org/2000/svg" viewBox="0 0 1024 1024"><path fill="#acbc4b" d="M50.784 565.381a458.606 458.005 90 1 0 916.01 0 458.606 458.005 90 1 0-916.01 0"/><path fill="#d9e5b5" d="M721.383 159.568c-9.4-.763-6.78 1.254-3.034 7.627 2.94 5 16.238 29.393 18.255 30.766 3.62 2.458 22.646 6.551 24.587 4.517v-21.46c5.17 3.255 9.747 5.4 15.315 9.196l-2.72 1.814-.348 13.51 16.57-.331 1.804-2.729c5.679 4.416 9.976 7.62 15.307 12.255-6.95-.118-11.213-2.5-8.704 7.179 1.059 4.085 2.957 9.518 5.56 12.882 2.449 1.83 15.848-1.212 18.459-4.737 3.33 3.152 6.026 5.992 9.187 9.195l-24.502 6.136 9.204 33.698c2.415 2.551 23.476-6.814 24.34-11.01l-9.042-28.824c8.331 8.425 16.544 15.4 24.493 24.52-6.695 2.347-1.042 9.687.043 13.755 1.508 5.653 3.17 11.255 4.45 16.984l3.305 2.941 13.628-6.102c.814 1.11 3.432 1.89 6.128 6.128-7.247-1.34-19.553 15.128-18.316 19.73l19.9 10.603 7.603-15.019c6.712 10.222 12.526 19.883 18.374 30.647-7.933.475-11.162-3.661-13.78 6.043-5.84 21.722-7.976 44.724-16.807 65.802l36.706 20.086 15.315-45.97a339 339 0 0 1 9.187 24.52l-17.68 32.172 11.561 19.925c3.772-1.068 6.238-5.026 9.348-7.628 4.043-3.381 8.052.365 5.95-10.763 1.119 4.551 5.323 11.297 6.128 18.383-8.569-5.492-4.323-2.645-7.662 2.958-1.415 2.364-5.127 3.89-4.746 7.746l3.229 8.924 9.17 1.831c.051-4.077-.042-8.187 0-12.264l2.73 1.806c-.823 8.966 2.694 17.094 3.398 25.773l-9.187-4.594 6.136 32.173c5.407.67 2.983-8.577 3.05-12.256 5.315 2.56 3.01 11.832 3.052 16.866.229 25.96-.703 49.826-3.051 75.066l-10.721-12.247c-9.543 13.95-27.435 37.817-18.46 55.233 1.721 3.34 17.74 15.925 23.053 9.111-1.322 10.645-6.416 21.35-9.187 30.647 1.797-9.23-2.322-8.755-7.102-12.815-6.12-5.195-12.137-13.747-16.942-3.576-7.484 15.865 2.178 29.494 5.576 45.63 1.212 5.772-3.686 12.307 6.213 10.603-4.467 11.51-9.323 21.807-14.739 32.876-1.102 2.254-3.339 3.322-3.636 3.899-5.398.28-10.806 4.712-15.179 7.797-16.535 11.636-31.469 26.434-42.724 43.207-1.06 3.551 6.136 23.426 11.967 25.612-4.848 6.348-10.102 12.349-15.306 18.383a304 304 0 0 0-9.62-25.612c-.83-1.941-3.534-6.543-5.695-3.517l-42.64 55.58 15.087 16.451c-4.017 3.712-7.068 7.78-12.247 12.255l-13.764-15.323c-9.704 12.848-19.51 25.57-28.536 38.876-1.212 1.788-8.908 9.636-3.636 10.153-10.272 6.569-19.764 12.68-30.621 18.383 1.619-7.551-3.212-6.458-8.365-8.441-6.594-2.534-13.56-4.526-20.316-6.602-18.993 12.069-38.121 18.45-56.928 32.02-5.12 3.695-8.992 10.822-14.578 13.11-6.314 2.594-8.424-2.66-6.992 9.739-.28.068-.712 2.042-2.28 2.407l-19.154 3.72c1.882-4.288 8.221-8.466-1.593-9.077-7.136-.44-39.35-11.289-41.258-9.297l-3.085 21.434c5.094 0 10.221.025 15.315 0v1.593c-8.399 2.755-18.468 1.399-27.562 1.467l6.137-27.579-35.173-15.357-16.874 3.136 3.05 39.808c-11.093-.06-23.238 1.28-33.68-1.466v-1.594c6.11.017 12.264 0 18.375 0l-3.06-36.765h-42.868l3.06 33.706c-8.713-.975-13.535-1.56-21.434-3.068 10.61 1.178 4.712-3.195 3.746-8.34-1.433-7.594-1.704-15.272-5.136-22.442-1.73-2.467-28.808-10.637-34.08-11.874-4.636-1.085-5.06-.187-4.398 4.407 1.356 9.45 8.585 21.646 9.255 32.121-9.637-2.619-18.942-6.119-27.562-9.195 6.179-.348 11.416 3.195 7.797-6.272-3.017-7.908-5.56-16.019-8.136-24.045l-36.41-6.466-3.068 21.46c-5.805-2.679-10.907-7.001-15.306-9.197l6.128-15.323c-9.162 1.568-23.138-3.627-30.63 3.068-13.162-7.755-19.375-13.34-30.621-21.45l24.46-4.764c-2.628-26.443-16.74-29.706-39.767-35.07v30.638c-5.704-4.425-8.67-9.29-12.255-12.256l5.822-16.908c-5.517-7-15.297-7.763-23.45-9.882-2.814-.729-12.12-4.746-13.002-.797-6.34-6.33-12.263-11.569-18.374-18.383l6.11-24.502c-9.17-3.102-17.857-3.754-27.544-3.076-2.789-3.763-4.272-6.586-6.128-9.196l12.357-4.755c2.399-22.273-15.586-33.18-29.384-47.258l-10.526 12.18c-5.687-9.544-10.569-17.935-15.306-27.58l4.55-3.025c-7.135-9.086-5.33-29.333-4.686-41.546.72-13.628 10.137-24.197-10.39-31.969l-13.976 15.247c-5.755-17.391-8.467-27.705-12.247-45.961l16.544 5.992 14.23-22.875-39.953-56.666c-.06 3.051.06 6.136 0 9.196-5.314-2.551-3.009-11.823-3.051-16.866-.05-6.127-.025-12.255-.008-18.374.025-7.704-2.5-20.307 3.06-26.045.1 3.551-2.145 9.976 3.05 9.187l8.959-25.671c-.348-1.62-4.213-5.331-5.89-6.5-5.84-4.06-.967 6.61-6.128 7.66 2.466-41.748 12.916-78.141 27.561-116.441l8.916 9c5.492-12.306 14.315-24.273 15.62-38.231 1.466-15.68-2.271-7.866 5.39-25.079 1.238-2.771 6.145-12.086.687-13.103 6.526-11.687 13.823-22.722 21.434-33.706 3.255 7.814 9 .661 12.442-1.339 12.602-7.348 28.816-14.637 8.992-26.24 5.017-6.17 10.01-12.45 15.306-18.382-2.618 5.627 11.595 24.493 13.781 24.502 10.247-9.89 22.23-22.417 35.215-27.579 2.22-1.568-7.806-14.306-9.628-16.408-5.297-6.128-7.11-5.704-14.874-5.034 25.367-24.714 37.317-33.605 67.362-52.098-2.01 12.891 2.06 21.485 10.712 30.613 9.755-7.874 21.324-12.45 32.156-18.358 4.44.958 6.627 4.73 6.127 9.196l-33.655 19.908 9.145 12.425 52.072-7.822 2.737-1.797.34-13.527 12.238 3.068c.084 4.043-.238 8.137.084 12.17l13.756 3.272c2.67.034 8.509-4.28 10.662-6.255l10.39.34 1.857 2.729c-5.213 3.449-12.849 8.187-12.256 15.306 11.213 3.644 19.68 11.857 30.613 17.001 2.314 1.085 4.653.814 6.136 1.39 11.84 4.636 11.815 4.407 24.494 6.128 18.917 2.56 35.833 3.899 55.115 3.068 8.983-.39 11.797-1.712 18.374-3.068 9.238-1.899 18.502-3.433 27.553-6.136l-6.119-30.638c2.763-.272 10.196-2 12.247-3.068l6.153 27.57 27.528-6.128-12.12-29.231-15.434 1.661c18.553-17.332 14.485-6.051 27.562-9.196l10.628 30.732 6.22 3.16c18.214-2.482 33.817-14.56 47.446-26.239-4.543-6.017-12.213-5.415-18.358-7.661v-9.196c14.747.204 35.808 16.349 39.817-6.128-6.246.746-10.264-1.237-13.823-6.22-1.644-2.306-1.127-5.594-1.492-6.043l1.899-2.73 7.28-.338c3.5 6.551 7.331 10.73 15.18 9.102l12.373-21.35-15.298-7.652c6.755-8.925 16.078-3.721 22.994 1.22l7.619-11.95c9.323 2.814 11.628 5.916 18.374 9.196zm-16.84 15.34-16.841 22.951 22.73 13.721c3.272-3.44 11.527-8.678 10.739-13.306l-16.62-23.366zm-451.649 98.05c4.297.831 5.018-.313 7.577-3.135 3.39-3.73 13.933-18.697 13.933-22.918s-23.535-44.46-26.12-44.427l-32.198 19.968c.237 12.67 34.3 35.435 36.8 50.504zm427.13-67.336-13.748 16.773 22.935 19.917c3.381-6.213 15.679-15.96 13.696-22.858zm71.98 9.111-19.502-2.856c-3.424 2.95-24.171 20.9-20.315 24.29l25.977 12.272c8.873-9.093 11.23-21.849 13.84-33.706m39.817 27.57-5.984-23.137-22.858-1.119c-7.161 3.127-3.712 10.34-5.373 16.07-1.322 4.542-13.662 22.052-11.73 23.501l13.79 6.12c8.085-12.663 15.806-21.57 32.163-21.435zm-134.749 64.362 24.35-53.318-22.807-23.282c-9.382 8.577-22.528 18.942-34.291 23.977-3.068 1.313-5.06-.941-4.068 5.17.55 3.432 25.697 41.444 29.12 44.436 2.704 2.356 3.34 3.957 7.705 3.008zm-324.578-64.353c-16.908 4.907-43.529 1.653-45.936 24.51 7.738-1.517 13.086 5.179 19.908 6.137 8.077 1.135 17.697-.78 26.037 0v-30.647zm67.336 30.714c-19.17-6.212-29.172-23.62-48.978-29.214-3.213-.907-5.382.95-6.018 3.17-1.771 6.153 4.187 28.79 6.721 36.028 1.763 5.051 12.993 28.74 16.306 29.698 13.883 3.991 30.181-28.537 31.978-39.665zm301.83-27.604c-5.635 1.467-13.026 27.892-13.755 34.8 1.543 5.526 32.257 22.925 39.461 28.095 5.645 4.052 8.679 12.383 16.688 10.383 5.475-6.475 25.562-19.968 23.061-28.647-.449-1.568-21.027-19.018-24.442-21.57-5.704-4.263-36.732-24.18-41.02-23.06zm102.39 42.843c-2.61-6.11-4.762-39.817-10.704-39.809l-26.027 19.909 17.264 16.417 19.476 3.483zm-575.675-27.579c-4.661-1.144-4.992 1.017-7.653 3.06-4.992 3.822-30.57 24.07-29.028 28.977 3.483 9.882 48.733 23.443 51.945 20.01l5.865-22.51-21.129-29.528zm339.902 55.166c7.958 9.475 38.816 8.899 51.114 14.908l16.086-13.696-9.17-19.468c-1.746-2.008-44.42 10.679-51.92 12.128 0-2.296-11.136-3.39-3.11-7.712 7.39-3.975 24.315-8.882 33.647-12.323 3.068-1.127 6.009-1.814 9.28-1.424 4.255-3.297-11.51-24.528-16.764-26.985l-43.071 14.645c-2.34 3.195 3.737 18.027 5.365 22.409 2.11 5.695 5.102 13.424 8.534 17.51zm-251.09-30.638c-11.585 3.958-29.324-14.603-38.036-12.12-12.425 12.28-16.765 29.257-20.138 45.818l41.385 8.924zm541.995 33.698c.704-15.061-7.458-28.63-16.84-39.8l-25.926 17.086 10.543 25.426zm-520.594-36.766-18.188 3.203c.932 15.332-4.416 29.85-9.433 44.14l20.425 10.636 25.553-19.849c1.755-6.687-21.671-27.426-18.357-38.122zm113.331 3.068-36.554-2.882c-1.195 11.544-14.077 18.171-12.45 30.46l39.817 9.196zm85.669-3.017c-25.486 1.542-50.505 7.551-76.481 6.068 3.55 7.568-7.103 28.112-6.103 32.028 2.289 8.941 12.739 2.017 16.883 1.746 14.654-.958 28.52-1.805 42.868-3.06 7.882-.695 33.511 3.713 31.791-7.314zm189.922 48.961c1.17-4.703-1.076-5.009-3.06-7.653-10.042-13.382-30.451-19.146-41.342-32.155l-22.807 29.418c-.864 3.94 14.12 25.281 18.12 27.34 12.705 6.56 36.351-13.119 49.09-16.95m64.294 42.92c11.179-24.257 28.985-42.826 9.331-69.091l-21.536-4.424-12.458 22.925c5.085 11.916 12.247 23.146 17.137 35.13 2.144 5.255-.06 13.578 7.517 15.46zm-619.73-70.16c-11.035 11.85-34.427 15.095-40.258 30.198-3.136 8.128-3.026 18.671-7.144 26.74l.957 4.025 30.8 24.494c6.627-4.068 3.584-10.348 5.195-16.23 5.746-21.019 12.9-41.893 20.527-62.293.839-5.4-5.551-8.815-10.086-6.933zm68.573 27.257-44.385-12.272c-3.56 2.11-3.525 4.5-4.585 7.704-3.712 11.306-4.932 23.943-9.221 35.181l38.003 15.23c5.416-1.178 24.13-42.622 20.188-45.851zm413.374 18.383-13.78-27.57c-11.205 10.874-12.061 21.663-10.713 36.766zM399.73 328.234c-19.528-8.916-38.063 13.705-51.912 25.918l16.798 13.95 28.791-9.679zm361.454-.127c-12.518 10.78-22.79 10.001-21.324 29.045.847 11.06.737 21.85-.153 33.698-.237 3.186-2.992 6.238-3.042 9.314-.153 9.043 14.255 19.468 19.942 25.985l25.799-38.672-21.214-59.37zm-208.247 3.068-27.527 3.06c4.5 17.027 4.805 36.07.423 53.165l16.74 20.222 31.832-15.17zm67.404 9.187-48.995-9.187 19.883 45.877 24.688-12.001zm211.28-6.119 35.216 64.328c5.161.042 14.153-45.868 13.552-53.395-.873-2.423-2.67-3.313-4.84-4.339-13.459-6.348-29.451-12.908-43.927-6.594m-385.811 6.128-33.622-6.068-9.373 29.146 6.39 16.62 32.172-11.941 4.433-27.749zm-186.762-3.051-2.89 16.433c11.738 13.188 19.053 29.774 29.833 43.885 2.043 2.679 3.399 8.552 8.221 7.077 6.187-1.898 16.942-41.223 26.02-47.504-5.467-9.22-58.802-22.908-61.184-19.9zm257.149-.017-53.301 3.33-4.594 4.594-.254 22.697 58.157 15.349c4.831-16.383 2.602-29.596-.017-45.97zm214.365 15.323c-2.491-2.525-33.307 12.137-35.367 15.163-5.085 7.492 1.254 22.256 1.771 30.714l30.511.068 3.085-45.953zm85.736 85.796 21.536-53.624c0-4.203-13.577-27.451-16.942-29.104-4.755-2.339-6.772 6.89-8.23 10.137-8.161 18.111-15.831 36.037-26.96 52.69l30.605 19.909zm-137.892-27.698-3.331-37.808-10.662-10.933-65.472 30.528 15.273 45.919c7.424 2.136 9.577-3.34 14.23-5.678 7.34-3.687 14.772-5.73 21.595-9.035 9.441-4.577 18.391-12.103 28.367-12.993m-462.268 18.502c22.866 3.458 27.112 7.653 42.927-10.662 1.84-2.127 11.696-14.798 11.967-15.747 2.178-7.594-14.925-30.13-19.68-37.919zM338.613 371c-4.161-.78-5.076.262-7.61 3.102-2.865 3.203-10.188 19.298-12.324 24.442-4.246 10.222-21.713 61.81-19.645 68.743l26.095 16.951 4.424-1.229 17.95-25.07c-5.813-17.408-7.517-36.477-5.94-54.877.728-8.484 6.398-10.755 6.45-15.188.067-6.407-10.417-9.23-9.391-16.866zm64.31 30.646c2.755-25.587-10.61-39.257-33.663-22.976 3.83 4.915 28.341 28.443 33.664 22.976m-186.778-15.306-36.749-12.28-8.958 31.824 9.094 9.424 18.23 10.857zm235.757 39.825c7.035-1.847 13.637 3.662 19.773 3.179 3.034-.238 6.018-2.62 9.433-3.085 13.273-1.823 30.011-4.043 42.326-9.73 2.805-1.297 6.043-3.661 4.95-7.094-4.908-3.602-5.73-10.797-11.095-13.442-16.95-8.34-43.876-12.602-62.302-18.849l-3.076 49.021zm-9.17-45.961c-16.739 2.788-38.012 10.01-29.24 30.79 7.933 5.128 16.375 10.425 26.18 9.044zm-291.024 24.663c-13.485-2.966-18.375-21.146-33.554-21.604l-18.213 47.182c1.305 5.958 22.205 16.773 21.29 26.375 2.72-.059 4.652 1.679 6.093-1.813 2.89-6.984 5.857-14.18 9.679-20.688 2.907-4.95 19.603-25.18 14.705-29.444zm235.714 48.69 12.349-25.875c-6.772-2.907-41.673-32.926-44.3-32.155-4.263 1.263-4.365 6.941-4.679 10.628-1.195 14.052 3.365 30.511 6.433 44.3l30.197 3.094zm471.752 9.374c2.526-9.763-4.56-67.345-13.772-67.395-4.331 4.008-6.984 9.916-9.23 15.264-2.805 6.661-11.925 30.078-10.45 35.036 4.365 4.179 29.689 20.917 33.46 17.095zm-159.225-52.08c7.797 16.959 18.366 33.765 35.248 42.57l16.79-19.594-25.909-25.341zm-428.697 82.727 18.493-72.083-7.798-10.645c-4.797-1.517-6.178 4.408-8.204 7.069-8.483 11.145-13.628 20.95-26.9 28.138 8.12 12.323 12 26.705 18.205 39.944 1.39 2.975 1.703 7.238 6.204 7.577m312.28-82.694-36.647 15.332c-.263 7.908 6.145 27.875 14.111 30.206 8.433 2.475 13.993-1.305 21.13-2.619 6.135-1.127 12.416 2.416 16.746-4.644zm-395.084 30.757c-7.094 1.899-23.095-23.468-27.418-18.544l-24.51 55.157 39.808 6.145 12.112-42.758zm499.11-15.349-27.426 9.077 36.68 96.687 6.188 4.44 15.518-68.937-1.644-4.704c-10.713-11.188-24.714-21.044-29.316-36.554zm119.527 21.4-29.037-18.459-29.095 35.24 33.664 32.173zm-355.166-3.135-42.868-12.273-9.187 30.656 45.843 2.991zm119.417 98.05c-2.686-12.755-2.466-25.324-6.797-37.63-4.483-12.738-13.45-26.324-19.281-38.927-3.967-8.56-7.696-23.332-12.12-30.782-3.119-5.255-3.975-1.17-6.61-.34-4.29 1.348-8.806 3.882-13.485 4.908l-2.678 3.45 6.11 85.278 4.654 4.534zm339.258-88.227c-1.297-1.289-4.764-1.568-7.069-3.56-7.67-6.602-14.569-14.578-25.977-15.467.602 26.375.62 52.504-6.33 78.108l18.586 32.206c3.364.517 5.822-.026 7.695-3.017 6.23-9.959 9.79-30.655 15.213-42.995 2.755-6.272 5.975-12.044 10.493-17.24l-.051-5.203c-.39-2.026-11.12-21.4-12.56-22.832m-798.568 72.904 8.942-53.259-28.842-35.579c-6.178 6.509-15.857 13.459-16.925 23.01-.78 6.967 2.806 10.662 3.085 15.332.61 10.069-.618 20.222.365 30.282zm125.452-82.643c-8.569 2.467-21.087-6.407-27.63-1.77-2.534 1.796-13.662 36.875-12.052 38.41 12.637 2.169 22.29 13.84 32.47 21.213l28.739-2.78-21.527-55.064zm413.475-3.16-30.545 14c5.034 12.637 5.882 26.68 9.12 39.63.89 3.569 1.228 5.374 4.585 7.645l32.172-15.314-15.323-45.962zm-156.166 3.076-24.35 3.203-27.62 62.446c9.526 11.027 16.052 22.002 29.485 29.079l25.41-6.009c1.72-29.884-5.213-58.691-2.925-88.72m303.153 76.608 55.174-22.917c4.28-3.653 4.424-15.976 1.619-20.138-1.661-2.457-39.783-23.281-41.487-21.307l-24.002 47.555zM381.498 462.94l-24.375-2.95c-.568 10.187-23.315 28.096-17.111 36.791 1.847 2.594 17.306 11.874 21.629 15.12 3.085 2.323 6.314 7.815 9.136 9.247 5.983 3.026 4.543-5.043 4.585-7.645.288-18.239 3.61-32.723 6.136-50.572zm220.46-3.068-36.75 6.136 15.324 45.961 27.273-15.603-5.84-36.494zm-162.285 18.4c-8.976-1.11-36.851-8.866-42.996-4.73-5.373 3.62-6.814 44.589-9.06 53.742 5.374 1.458 7.23-1.229 10.764-3.009 23.138-11.636 32.698-20.807 41.283-46.012zm342.952 73.531c.051-.263 2.619-.67 3.102-4.416 1.763-13.713-3.856-20.959-12.23-30.884-11.204-13.272-26.73-25.002-38.333-38.232-4.755-.211-10.747 36.52-10.654 42.818l53.157 15.755 4.356 4.238c-.22 1.619-2.585 3.763-2.466 4.593-19.883 1.95-37.503-8.822-56.462-12.162-6.196 1.645-9.213 22.731-7.459 28.647.831 2.805 35.809 37.672 40.894 41.8 2.517 2.042 15.077 11.128 16.9 9.128 2.474-20.324 5.517-41.173 9.187-61.285zm-465.437.008 8.983-41.028c-5.322-4.806-26.468-24.765-31.926-23.341-2.915 2.28-4.161 3.771-4.695 7.594-2.365 16.772-4.416 33.774-6.052 50.614l33.681 6.161zm-146.979-58.225c-12.467-.83-24.036-4.763-36.749-3.076l-6.119 55.165 24.265-3.28zm3.06 36.758c3.407 2.873 48.445-10.518 52.038-19.909l-32.113-19.925zm747.156 79.684c14.916-13.9 21.84-35.672 30.765-53.716l-18.535-65.794c-4.314.39-4.958 4.356-6.221 7.552-5.916 14.925-8.069 33.664-15.764 48.572-2.678 5.186-8.357 7.161-8.806 12.814-.576 7.255 10.484 27.079 14.018 35.198 2.017 4.628 3.738 10.365 4.551 15.374zm-281.702-30.655c13.027-1.864 54.191-10.382 57.937-23.34.907-3.137-.178-4.806-1.127-7.434-2.093-5.754-24.782-52.013-27.723-51.928-9.975 6.289-19.654 15.222-32.087 15.383 1.042 22.34-3.06 45.69 3 67.32m-24.519-70.463-27.273 12.526c-.144 6.441-.933 13.34-.416 19.781.467 5.687 2.492 18.383 3.797 23.782 2.162 8.967 4.797 13.086 11.781 18.85 2.254 1.864 13.484 9.635 15.18 7.788l-3.06-82.727zm-346.012 3.06-28.79 3.355-14.061 16.561 38.266 38.3 1.593-38.24zm101.05 94.99c2.84-20.646 1.4-42.308 5.984-62.539l-39.655-26.324c-5.052 28.112-9.535 54.2-3 82.668zm477.677-82.727c-2.84-2.856-38.885 11.416-40.461 19.264-12.12 47.021-15.332 97.44-36.003 141.63l35.138 19.892zm-738.232 21.722-33.401-18.663c-.661 14.442-11.382 26.452-18.154 38.707l41.122 59.353 7.577-23.053zm352.42 85.524v-75.074l-29.088-29.096c-4.839 3.28-4.254 5.645-4.653 10.645-.788 9.933.61 20.544 0 30.647-.762 12.772-.449 15.111.195 27.502.602 11.705-.703 23.68-.135 35.385h33.69zm-244.97-88.872c-.695-.61-.907-3.458-2.873-4.703l-4.738-1.577-41.24 12.544-.145 39.698 30.545-.085c2.517-15.934 5.06-35.147 18.45-45.885l-9.178 49.03c20.027-1.789 39.232 3.432 58.174 9.195l-1.449-15.391c-15.866-14.239-31.579-28.74-47.538-42.826zm195.982 95.008 3.052-101.127-24.18 14.103-.373 36.401-9.145 49.072 30.646 1.56zm465.42-3.068c-.092-12.857 19.282-27.85 18.494-38.215-1.034-13.637-16.383-33.104-20.942-46.665l-9.78-13.179-18.18 74.684 30.409 23.384zm-345.994-15.323c2.135 2.543 41.656-28.096 44.47-33.63 4.33-8.518-.61-23.909-4.51-32.41l-52.207-7.5 12.255 73.54zm-55.132-61.293v67.412c10.679-.347 21.519.483 32.215 0 4.915-.22 4.924 1.237 4.61-4.661-.271-5.094-2.627-8.315-3.093-12.247-1.806-15.239-3.424-27.604-6.111-42.919-.678-3.882.729-8.484-.237-12.018-.602-2.195-2.789-4.526-5.975-3.305-6.916 2.644-13.68 7.17-21.41 7.72zm-192.906-3.06v61.285c8.263.212 13.984 4.127 22.917 3.026 27.341-3.365 12.721-15.798 10.84-32.215-.958-8.348.5-17.51-.068-25.977l-33.69-6.127zm-134.732 9.187h-21.442c2.068 11.67-1.56 21.833-3 32.232-.551 3.992.55 8.28-.12 12.136-1.88 10.849-9.254 26.816-9.356 36.826-.093 9.102 24.35 52.25 31.342 60.818 2.712 3.314 3.076 6.331 8.704 5.077-1.288-7.077 2.661-13.035 3.195-19.781 2.619-33.24-6.73-65.938-9.255-98.254-.754-9.611.39-19.451-.06-29.054zm529.74 107.255c2.347 2.39 22.595-5.594 25.993-9.221 3.89-4.153 31.783-50.521 31.783-53.64l-29.011-31.969-16.324 6.179-12.441 88.66zm-3.068-79.668-39.656 9.34c-.67 4.458.474 9.103-.204 13.586-3.339 22.324-6.161 45.156-9.077 67.523-1.229 9.407-1.635 19.57-3.11 29.053l33.655-9.213c-.542-12.9 4.051-25.68 6.094-38.333.797-4.916-.72-10.323.119-15.205 1.407-8.153 14.238-54.708 12.179-56.75m-67.37 79.668c4.06-19.688 2.991-39.8 5.856-59.488l-22.688-16.934-28.986 28.757zm-407.441-64.166-30.435-.195 6.136 67.42c12.51-3.313 33.359 1.01 39.24-11.288 2.73-5.704 3.89-14.298 6.467-20.528-10.255-9.704-17.62-21.67-21.4-35.41zm64.496 58.038V620.75c-4.915-6.271-52.504-15.925-55.114-13.78 12.602 24.773 34.884 40.223 55.114 58.216m639.961-52.097c-7.526-1.78-4.84 1.585-6.628 4.017-17.45 23.748-22.654 49.945-14.78 78.727 19.806-15.383 34.113-29.562 30.561-56.64-1.203-9.17-7.72-17.019-9.144-26.104zM363.04 619.3c-9.831-.856-21.12-6.5-30.613-1.695-17.959 9.103-4.373 38.164-6.043 53.7l32.291-15.18 4.373-36.825zm388.973 55.081c4.374-.381 4.925-4.399 6.247-7.534 2.195-5.179 9.89-30.08 8.916-33.554-3.882-3.365-20.595-18.425-24.231-13.984l-12.213 25.637zM598.89 729.54c-1.178-12.085 9.696-36.29 4.679-46.054l-52.31-55.022-19.586 10.959c5.966 18.79 1.593 39.757 3 59.386 22.63 5.034 43.724 19.764 64.226 30.731zm266.413-18.391c2.093 2.492 11.348-5.094 12.153-7.908.882-3.068-8.077-11-9.094-18.145-1.966-13.9 5.187-25.757 2.746-39.537-3.398-3.568-24.298-20.417-27.248-17.154l-5.84 34.884c13.468 13.959 24.172 28.223 27.274 47.851zm-554.233-79.676h-27.57c-.78 32.91 5.28 64.929 3.067 98.059l36.732-9.221c-1.525-30.028-13.085-58.819-12.238-88.838zm202.067 6.136-36.723 3.06c.339 9.627-.509 19.408.068 29.053.271 4.56 3.517 8.61 3.203 15.433-.356 7.814-7.043 18.35-1.864 26.121 3.5 5.246 17.747 2.373 24.578 2.983 4.331.39 8.535 4.458 13.823 3.018zm-48.97 6.127-39.817 3.06c.551 6.526-.737 13.68-.127 20.053.78 8.119 2.06 19.527 3.255 27.383.898 5.899 5.398 28.748 7.5 32.325 2.077 3.534 4.196 3.67 7.764 1.466 6.661-4.11 12.984-10.441 21.417-10.746v-73.549zm-55.106 9.188c-8.094 2.822-17.332-2.984-23.01-3.17-10.646-.34-6.688 13.603-7.67 19.976-1.45 9.467-5.027 18.45-3.018 29.172l36.757-3.076zM268.2 735.675l-3.373-53.326c-11.272-6.687-19.12-19.027-28.782-26.358-2.652-2.017-2.966-4.221-7.653-3.06l-9.246 22.96 21.56 59.708 27.486.076zm456.242 21.443 26.833-69.04-23.773-35.147c-3.356 2.33-14.222 14.866-14.925 17.239-5.628 19.078 7.382 50.953-9.179 70.15 2.83 2.958 17.756 20.595 21.044 16.815zM105.89 668.246c-9.077-2.28-6.678 9.569-12.153 13.815l16.755 13.755c10.73-7.746-5.102-17.832-4.602-27.57m251.106 52.098v-44.436c0-.534 7.806-11.205-1.508-7.645-6.967 2.661-14.222 9.857-23.096 10.594l-2.678 3.45 2.78 38.037zm342.944 12.255c-2.373-16.044 5.314-31.664 3.162-47.589-.509-3.754-1.62-5.272-4.645-7.382l-22.917 6.035-1.704 27.587c3.924 2.534 22.316 25.476 26.113 21.349zm137.783-55.157c-8.01-.61-5.094-.441-5.992 4.644-2.746 15.493-16.67 49.852-15.51 61.2.382 3.738 3.755 6.73 3.153 10.772l39.75-35.418-21.401-41.19zm-661.166 9.424-12.12 44.241 5.704 6.196 47.623-1.551 9.145-3.102c3.204-2.924 1.153-6.128.119-9.416-1.67-5.34-15.197-40.02-16.976-41.368l-33.495 4.992zm710.187 79.448c1.661 2.034 12.577-5.984 15.17-7.798 3.433-2.398 17.782-13.17 18.265-15.543-3.568-11.696-3.509-24.324-5.873-36.436-.865-4.415.525-7.33-4.61-10.704l-9.137 12.306-28.842 22.892 15.019 35.283zM733.63 778.56l58.26-22.9 10.772-41.537c-9.332-3.5-18.044-8.925-27.18-12.688-2.797-1.152-5.086-4.687-8.23-1.093l-33.613 78.21zm-621.603-21.442c8.925.94 10.874-8.764 15.247-13.849 3.772-4.381 8.764-7.738 12.222-12.441l-19.832-28.859c-3.958-2.55-7.645 7.11-7.645 7.653v47.496zm303.145-49.03h-42.869l.585 19.332 13.213 35.842c13.247-4.864 23.604-18.103 38.266-18.408zm168.183 73.32 9.543-32.011-1.491-4.687-56.81-30.494c.254 26.51-9.145 51.31-15.307 76.6 21.104-4.916 42.546-5.764 64.065-9.416zm63.565-57.429c-5.518 1.068-25.01 7.984-28.147 11.662l-16.933 53.725c-.187 9.442 27.943 22.612 35.333 29.02l38.029-75.481c-5.857-11.06-14.07-21.663-28.29-18.926zm-133.91 8.78c-11.89-3.94-24.298-3.5-36.588-6.28l3.052 36.775 30.604-.017zm-45.783-.152c-3.772-3.788-27.206 11.662-27.079 13.705l5.653 26.138 24.485-6.17zm-143.92 6.128-33.604 6.204c-1.296 15.645.83 30.536 2.992 45.894l26.197-9.018 4.416-43.072zm9.188-.009-2.754 50.267 19.416 14.027 22.918-28.63-14.925-34.274-24.655-1.381zm514.442 64.362c7.797 1.576 8.441-6.73 12.179-10.79 5.865-6.381 12.941-11.754 18.213-18.721l-13.577-34.842-31.91 26.417zM150.3 744.87c-5.721 5.61-21.968 21.027-19.705 28.8.627 2.143 17.78 18.746 21.239 21.747 2.186 1.898 3.865 5.67 7.645 4.593 20.535-21.078 5.56-36.8-9.17-55.148zm532.807 3.068c-2.56-.034-15.654 36.808-18.323 42.936-3.738 8.594-15.112 25.544-16.536 32.57-.55 2.713-1.076 5.111 1.026 7.366l12.713 8.89c3.517.822 22.163-18.51 25.773-22.773 5.543-6.543 22.722-30.342 24.104-37.308.542-2.73.89-4.992-1.102-7.255zm-442.47 3.051h-61.242c-.77 5.162 0 6.882 2.992 10.798 13.959 18.222 37.927 31.918 59.768 38.249l-1.517-49.038zm30.63 3.06-21.442-3.06 3.204 48.877 24.35 3.212zm128.605 45.97 35.384-21.443-9.382-24.527-35.07 18.535 9.068 27.443zm405.873-30.545-19.748 14.001c-1.339 9.874.738 20.502-.381 30.257-2.212 19.315-19.078 42.758-1.458 59.81l47.233-53.98-.102-5.28c-7.873-12.424-10.763-27.46-18.408-39.935-1.568-2.55-3.543-6.009-7.128-4.865zm-301.771 6.034c-14.29-.203-29.452-.856-42.953 4.51-9.298 3.694-9.433 4.813-7.645 13.924 2.585 13.17 7.51 26.324 7.755 39.775l30.375-3.28zm-257.217 76.6-4.433-33.859c-20.57-8.746-39.147-16.298-56.792-30.494l6.45 48.69 54.784 15.654zm529.74-64.344c-8.798-1.763-15.765 3.686-23.604 5.483-8.179 1.882-26.096 2.017-30.062 9.738-5.102 9.925 10.865 41.792 7.746 55.25l33.537-9.33 12.383-61.15zm-333.766 3.068-36.588 20.196 12.112 41.088 30.383-17.069-5.898-44.215zm113.29 58.216 21.433-55.165c-14.89 7.873-49.53 2.263-61.378 10.585-2.432 1.712-9.738 23.214-7.577 26.24zm-379.694-15.323-7.644-36.766c-9.798 8.213-9.459 23.578-3.12 33.757 2.586 4.162 6.611 3.077 10.773 3zm205.153-36.774c-4.687-1.17-5 1.042-7.653 3.06-3.119 2.372-18.857 18.052-19.51 20.306-1.288 4.416-1.187 22.095-.475 27.29.534 3.865 1.789 5.213 4.679 7.552l35.19-18.417-12.222-39.783zm-46.199 15.603-20.094-12.111-19.18 7.492.127 63.717c8.569 6.534 15.408 28.163 25.578 29.562 7.103.983 15.671-.805 23.045-.068zm262.082-6.39c-2.924-.094-17.307 32.189-20.375 37.808-2.542 4.661-10.272 12.568-11.416 16.204-2.085 6.653 5.594 22.782 10.552 28.613 8.763 2.34 68.92-29.214 71.692-38.41.848-3.797-2.5-5.153-4.517-7.475-12.416-14.239-30.359-26.01-45.936-36.75zm-319.985 12.238c-8.06 1.746-13.5-1.102-20.196-2.789-9.221-2.322-1.585 9.942-1.28 13.56.712 8.56-.56 17.307.195 25.85l21.29 6.28v-42.901zm443.97 45.927c-2.178-11.61-3.78-23.578-6.12-35.172-.855-4.23.865-7.5-4.568-10.738l-24.434 27.62-30.875 24.359 4.797 27.671 61.2-33.748zm-361.293 33.74c5.288 1.458 9.509-2.652 13.823-3.017 7.492-.635 30.172 2.899 32.07-4.805-4.347-7.475-3.263-42.14-10.704-44.275l-36.884 21.442zm192.914-3.06c.475-21.704-9.645-32.137-28.494-40.435-28.824-12.696-75.184-5.534-98.677 15.84l-1.45 24.604c27.536-1.517 53.657 4.543 81.287 3.195 5.382-.262 9.577-2.966 15.043-3.33 10.544-.704 21.689.78 32.291.127m-340.045-36.612-27.41-6.28 3.069 27.553 24.485 3.085-.144-24.367zm24.646 30.494 3-19.73-18.307-7.849.255 22.722 4.517 4.67 10.526.195zm519.442-27.308-37.334 18.103 10.738 26.215c22.689 4.763 37.097 3.17 42.792-21.214l-10.408-20.383-5.788-2.704zM271.26 873.568l-24.493-3.076-3.035 21.417 13.764 6.085c3.187-3.212 16.434-21.96 13.764-24.426m30.613 36.766c1.992-1.822-5.933-12.535-7.78-15.188-3.433-4.94-8.586-10.187-12.12-15.433l-13.628 22.654c7.178 12.476 21.17 6.992 33.528 7.967m339.893-27.578-42.826 18.433 9.154 36.724c4.813 1.254 5.042-1.23 7.627-3.085 10.272-7.374 20.019-18.027 32.113-21.553l-6.068-30.528zm70.43 3.05c-3.874-4.457-35.334 18.409-42.877 19.918-11.45 10.704 17.696 25.671 26.062 29.282 5.483.017 21.501-17.815 22.603-23.672zm-131.825 24.68-51.818 6.06-.076 33.63 24.629-4.458c6.543-4.119-1.933-23.773 10.577-29.24 9.569 7.56-1.907 20.282 1.526 30.63h24.502l-9.349-36.621zm-174.38 2.908c-11.144 1.152-24.56-1.543-35.307-.085-3.755.508-5.263 1.619-7.382 4.653l11.975 33.833 33.766 10.637c2.06-16.866-3.23-32.545-3.051-49.03zm70.422 3.068-52.064-3.068c-1.924 11.713 1.39 21.637 3.017 32.231.746 4.857-.94 10.552.314 15.01 2.136 7.645 16.298 4.144 22.646 4.916 7.992.966 16.552 5.28 26.087 3.008zm-116.357 33.706-12.213-32.342-33.723-1.356c.152 7.713 2.271 25.816 9.102 29.19l36.825 4.508zm131.672-33.706v49.03l24.561-7.595c7.441-7.127.958-17.001 0-24.637-.695-5.51.263-11.28-.06-16.798zm260.276 3.076-22.612-2.822-23.324 24.256 22.561 5.916 23.366-27.35zm-450.157 0c-15.992-.966-29.858-2.474-23.06 18.493l26.145 6.01-3.085-24.494zm379.736 27.587-29.486-18.17c-3.84-.874-34.248 19.89-36.427 24.213-4.33 8.594-1.05 27.308 1.61 36.85 20.68-13.22 39.58-27.298 62.489-36.782 3.492-1.45 1.763-3.382 1.814-6.102zm-85.753 12.239-33.605 3.136-6.212 27.51 42.876 9.196-3.06-39.834zm-42.86 6.136c-2.915-2.467-29.172 4.653-30.621 12.238l27.553 9.196 3.068-21.443z"/><path fill="#97663d" d="M482.54 107.47c5.679-13.603 2.764-50.69-11.289-57.649-10.755-5.33-44.529-4.882-57.538-3.568-19.112 1.924-40.64 13.221-58.31 15.18-13.662 1.508-18.96-2.535-19.493-16.24 3.305-17.967 46.74-30.697 63.174-35.036 49.988-13.205 101.72-12.544 152.25-3.695 49.25 8.619 76.66 20.688 128.774 15.28 19.875-2.059 25.273 4.4 22.714 24.24-9.543 3.424-18.95 7.263-29.003 9.289-30.909 6.22-63.615 2.085-94.753.05-3.746-.245-7.365-3.229-12.298-3.254-28.562-.153-47.546 33.766-32.155 58.471 4.509 7.238 11.602 11.806 15.069 19.95-15.968 18.74-41.919 13.019-64.056 13.756-1.958-1.127-4.204-1.915-6.128-3.068-8.382-4.992-18.019-6.865-9.187-18.383 3.322-4.33 9.458-8.636 12.247-15.323z"/><path fill="#d9e5b5" d="M482.54 107.47c-2.788 6.687-8.924 10.992-12.246 15.323l-25.663-5.898-14.137 16.611c.864 2.958 22.553 10.755 26.01 10.73 5.569-.043 15.087-5.755 22.977-3.06 1.924 1.144 4.17 1.933 6.128 3.068-2.509 13.306 18.696 3.043 25.46 3.662 2.61.237 5.593 2.652 9.754 2.729 4.992.084 23.18-6.238 28.215-8.798 15.12-7.678 11.399-18.78 3.932-31.299 8.738.11 13.908 2.534 18.375 3.068l-3.06 15.315c1.915 1.915 26.638-5.306 27.553-12.255 28.003 5.466 59.183 12.484 85.779 22.934 4.008 1.576 10.043 3.882 12.204 7.704-7.518-.729-15.56.695-23.104.135-9.11-.678-18.552-5.653-28.858-3.11l-3.017 16.484c4.932 4.289 10.204 8.484 15.366 12.476 1.703 1.314 4.729 1.17 5.568 2.06 1.364 1.449-.153 4.703.364 5.661l-7.28.34-1.898 2.728c-1.738-2.127-18.451-15.247-19.909-15.29L611.17 194.8l15.298 7.662v9.196c-5.187-1.899-19.747-9.28-22.943-9.255-6.704.068-18.306 8.128-22.993 9.255-13.077 3.144-9.01-8.145-27.562 9.195-1.568 1.467-4.687 5.39-6.127 6.128-2.051 1.06-9.484 2.797-12.247 3.068-10.323 1.009-20.265-1.712-30.469 3.22l.5 16.044 8.535 17.51c-6.569 1.348-9.39 2.679-18.375 3.068v-36.774l-39.613.195-15.501 33.52c-12.68-1.72-12.663-1.492-24.494-6.128 11.23 1.653 7.212-.796 10.56-6.161 2.441-3.933 14.56-20.773 13.942-22.926-2.144-3.534-4.475-3.517-7.704-4.577-7.077-2.322-27.257-7.509-33.257-5.771-1.737.5-5.526 4.068-8.035 5.729l-1.856-2.729-10.39-.339c2.534-2.322 12.636-14.255 12.102-16.544l-17.103-20.001-18.145 5.729c-2.62 3.72-1.475 16.052-1.356 21.629l-12.239-3.068-.339 13.526-2.737 1.797c-1.297-7.551 3.127-28.096-3.009-32.232-9.56-5.398-15.917 7.527-24.553 7.713.509-4.466-1.678-8.238-6.128-9.196.534-.288 1.458-2.56 3.772-3.763 4.95-2.585 11.23-1.55 14.518-6.941l-10.831-22.934c-6.662 3.856-13.578 1.958-19.697 2.992 14.662-10.28 32.333-18.205 48.996-24.52v1.594l30.63 1.466v-9.187h-6.128c7.407-2.314 15.137-6.738 24.493-9.196v1.594l33.639 1.398 3.085-7.602-3.043-1.526c8.594-1.585 19.587-4.754 29.147-6.077 9.178-1.27 19.637-1.635 29.036-3.118zm149.886 21.612c-14.467-7.102-25.689-.025-39.698 4.399l-12.205 7.695c6.374-.932 8.67 5.713 12.264 7.653 9.408 5.094 21.256 5.475 31.749 4.23 9.95-5.018 8.619-14.112 7.89-23.969zm-214.187 9.043-30.622-3.068c-1 8.764 4.399 16.239 10.866 21.4 4.093 1.22 17.382-14.111 19.756-18.332m153.089 33.706 12.247-16.857-13.764-10.069c-16.976 5.67-7.586 11.95-4.535 25.155.789 3.416 3.636 1.593 6.043 1.771zm-145.055-24.29-14.145 13.552 19.713 10.679 10.891-16.739c-3.644-4.102-11.23-8.992-16.459-7.492m-44.792 2.848-52.047 3.06c-1.932 1.864 2.51 18.069 4.611 21.433 11.959 19.172 35.774-4.763 50.403-9.305zm61.251 30.63c7.713-1.679 13.34 5.466 19.951 6.212 3.678.415 22.434-2.661 26.917-3.746 17.171-4.145 25.986-21.832 9.874-24.01-13.56-1.831-28.646 2.508-42.681-2.831l-14.07 24.375zm110.23-3.068c.991-.958-3.772-17.18-7.916-18.112l-25.765-.271v18.4l33.69-.009zm67.37-15.315-27.562-1.712-21.213 22.035 2.856 16.46c17.01-.136 32.986-12.993 42.936-25.986 2.991-3.907 3.771-5.636 2.991-10.789zm-192.906 21.46-29.096-15.528-16.849 9.4 18.392 27.57h4.568c3.797-3.196 6.856-7.79 10.797-10.654 5.831-4.246 14.307-2.602 12.188-10.789m131.663 3.05h-44.402c-.457 0-4.246 4.39-7.644 3.068 2.144 35.758 31.52 26.528 53.758 12.34zm-107.254 30.579 3.068-16.603-14.239-7.39-31.604 16.4 42.783 7.593zm45.936-21.332-27.333 3.161-3.204 18.222c12.993 5.288 25.799-2.399 39.8 0z"/></svg>