<svg xmlns="http://www.w3.org/2000/svg" viewBox="0 0 1024 1024"><path fill="#2f3234" d="M533.197 232.132c-3.37 2.142-8.713 11.785-9.174 14.908-.477 3.251 3.226 7.22 2.893 12.194-1.11 16.546-11.11 49.707-17.638 66.005-5.854 14.592-12.587 29.074-26.223 37.906-7.108 4.608-15.369 5.99-22.63 9.429-9.464 4.488-17.246 11.63-27.93 13.337-11.35-2.38-18.628-64.614-22.537-77.021l-14.617-6.213c-.205 5.308.264 10.727 0 16.034s1.638 13.842-5.086 15.762c-8.96 2.56-27.486-.683-38.34.136-14.106 1.067-35.96 6.707-49.681 11.238-4.352 1.434-12.536 4.992-15.907 8.141l-35.268 1.596 40.132 30.396c15.437 12.928 25.097 33.092 27.136 53.034.854 8.346-1.723 18.842-5.666 26.275-15.59 29.38-56.516 25.472-84.198 18.688-25.395-6.23-48.418-20.643-73.6-27.384 13.798 16.248 30.063 31.727 38.596 51.234 4.864-1.647 11.606-1.945 15.906-3.149 17.357-3.669 23.202 15.54 32.103 24.013 6.212 5.914 20.804 12.996 28.68 19.414 5.615 4.573 9.634 11.101 16.17 14.293 1.426 5.862-2.815 14.012-8.413 15.633-13.517 3.9-40.013-.589-52.48-7.637-5.3-2.996-23.5-21.897-27.127-20.77-14.336 12.518-19.44 27.537-26.787 43.852-1.169 2.594-3.498 12.92-8.618 10.599-9.805-4.43.205-23.177-9.634-28.834-9.72 11.758-26.095 17.996-41.063 15.377-5.248-.922-23.697-9.566-29.073-12.587-19.558-10.991-53.572-40.286-65.715-59.324-2.048-3.217-3.652-6.929-3.627-10.812L4.173 527.13c-.051-.282-2.842-.751-3.251-4.634-3.78-35.507 3.328-65.084 36.3-82.551 13.219-7.006 25.498-10.744 40.696-9.003-3.866-16.316-4.804-25.873 1.561-41.72 13.44-33.433 53.65-46.78 86.674-51.191l56.038 6.349c.82-96.615 130.637-100.523 184.363-41.703 5.52-3.541 4.6-9.932 7.304-15.12 23.416-44.826 68.36-77.082 119.339-55.4zm-74.889 32.47c-20.019 4.027-30.276 31.539-34.244 49.356l8.371 11.077c15.488-2.304 40.022-43.862 36.506-55.894l-7.894-5.086c-.913.18-1.826.359-2.73.547zM182.733 370.637c-9.114 1.561-19.354 6.622-18.424 17.024 1.52 16.973 59.64 41.642 75.623 43.255 20.88 2.117 31.77-15.641 15.889-32.025-12.877-13.295-54.852-31.377-73.088-28.254M80.026 453.862c-14.08 3.047-18.125 14.115-11.273 26.292 8.312 14.762 57.668 45.892 68.565 24.601 8.252-16.136-22.596-41.6-36.019-47.522-6.707-2.961-13.952-4.958-21.265-3.37zm76.433 44.416c-12.655 16.547-23.894 25.012-9.532 44.775 7.347 10.112 14.276 8.166 20.352-1.937 10.837-18.023 8.653-33.4-10.82-42.838"/><path fill="#121618" d="M578.082 283.435c1.084 8.499-6.955 8.687-11.29 12.757-15.453 14.515-27.938 27.418-30.31 49.826-1.408 13.278 1.391 18.859 9.472 28.851 31.172 38.554 89.668 33.442 132.455 20.113 5.888-1.834 39.082-16.768 40.738-15.36-50.023 52.608-22.477 92.544 46.626 86.7 21.026-1.776 99.405-26.531 115.345-38.555 17.8-13.422 36.702-36.326 27.187-59.357l16.034 4.787c11.827 17.425 14.242 42.197 3.209 60.92-.572.972-7.339 3.353-6.887 9.147-12.757 4.343-29.047 4.241-41.37 8.329-8.6 2.85-27.767 13.286-36.206 18.295-33.715 20.01-59.256 45.32-53.402 87.663 1.186 8.576 9.472 15.095 9.609 24.047-7.45-.094-14.993.153-22.443 0-3.2-.06-6.434.051-9.617 0 14.532-32.768 4.753-73.216-25.651-92.97-8.627-5.607-33.818-17.93-43.341-19.184-14.532-1.911-25.975 3.678-39.748 2.867-10.727-26.163-45.483-32.64-70.972-27.127-5.436 13.414-7.142 27.93-13.32 41.182-5.308 11.392-13.662 18.859-20.105 27.98-12.945 18.322 10.3 14.106 14.49 30.345 2.773 21.393-21.462 38.084-22.725 48.094-1.903 15.044 12.305 28.169 9.762 43.315-.64.478-4.121 4.378-6.408 6.409-8.892 7.876-4.89 6.118-16.068 11.102-25.745 11.494-51.593 30.208-57.83 59.28l-31.907 3.354a2740 2740 0 0 0-38.383.077c-1.05 17.127-20.36 36.3-35.294 43.264-61.525 28.69-173.278.111-200.584-65.766-1.63-3.926-.802-6.904-1.468-9.643-2.987-11.665 7.33-12.817 15.898-12.706.068 3.132 1.143 5.598 3.2 7.97 37.785 43.69 132.915 86.076 184.567 46.473 28.518-21.871 30.592-47.437 8.013-75.47-14.635-18.158-35.9-35.029-57.77-43.22v-3.21c2.243.7 6.715-.605 10.461.65 37.871 12.689 55.8 30.259 82.577 58.598 2.663 2.816 3.362 7.083 6.332 9.702 16.998 15.01 55.083-4.54 71.723-14.882 6.536-4.062 12.774-10.607 18.073-15.599 2.16-2.04 5.274-2.688 7.945-6.468 3.097-4.395 10.607-19.123 11.29-23.996 7.995-57.25-65.818-82.611-110.687-91.298l-23.97-1.672c4.13-6.375 8.807-4.13 14.405-4.83 50.85-6.383 87.825-4.233 134.178-32.546 33.092-20.216 49.126-44.604 13.38-73.302-58.991-47.36-168.32-15.351-211.524 41.882-17.195 22.767-17.92 55.757 11.084 68.787 7.006 3.149 14.968-1.997 12.826 8.013-9.463 2.628-20.139 5.197-28.86 9.634-11.153 1.971-15.232-8.926-22.579-14.285-33.433-24.405-66.073-29.645-106.479-20.292-1.647.384-2.073 2.432-2.39 2.517-4.291 1.203-11.033 1.502-15.905 3.149-8.542-19.499-24.807-34.978-38.597-51.234 25.182 6.741 48.205 21.154 73.6 27.383 27.683 6.793 68.608 10.701 84.199-18.688 3.942-7.424 6.52-17.928 5.666-26.274-2.04-19.95-11.7-40.115-27.136-53.034l-40.132-30.396 35.268-1.596c9.463 3.866 18.987 4.088 28.894 7.97 10.36 4.07 42.829 27.99 49.169 26.931 15.906-5.666 27.648-18.653 32.708-34.747 2.1-6.682 1.118-11.384 1.425-17.792.24-5.018 2.168-15.121-3.183-17.63.273-5.3-.196-10.727 0-16.034l14.618 6.212c3.908 12.416 11.187 74.641 22.536 77.022 10.693-1.698 18.467-8.85 27.93-13.338 7.253-3.439 15.522-4.83 22.63-9.43 13.637-8.831 20.37-23.304 26.223-37.904 6.537-16.299 16.53-49.45 17.639-66.006.333-4.974-3.37-8.942-2.893-12.194.46-3.123 5.803-12.757 9.173-14.907 3.021 1.28 6.63 1.109 10.804 3.6 15.104 9.037 31.914 29.586 34.082 47.693z"/><path fill="#1a1e1f" d="M1010.91 479.01c8.115 11.426 13.977 25.677 12.98 40.2-3.09 44.903-41.063 74.556-80.257 89.695-25.438 9.821-53.171 12.407-80.196 11.178.998 8.457 5.7 15.044 6.545 23.91 3.516 37.07-15.428 61.432-46.003 79.31-36.992 21.631-76.724 22.75-117.632 12.21-3.243 20.08-17.263 34.347-34.176 44.382-30.507 18.091-70.776 22.238-105.242 16.47-31.488-5.274-65.894-18.236-85.026-44.826 3.336-2.38 1.203-16.239 8.004-12.817 4.07 2.048 9.66 10.889 14.524 14.336 32.06 22.75 106.829 15.411 141.9.99 13.705-5.632 41.865-27.64 43.964-42.59 6.588-46.933-56.2-69.632-94.284-65.561-1.878-.29-2.424-4.182-5.095-6.58-3.567-3.2-7.415-7.79-9.617-9.617-8.217-15.684-.162-32.597 3.217-48.085l7.006 26.641c2.082 4.531 5.419 7.987 10.547 8.695 42.428 5.854 135.604-37.589 145.434-82.355 3.797-17.314-2.321-29.986-5.888-45.969 30.396 19.763 40.183 60.203 25.651 92.97 3.192.06 6.426-.059 9.617 0-11.264 6.597-12.544 15.489-19.234 25.652-.264.111-.717 2.97-3.217 4.65-14.49 9.746-27.605 20.498-41.668 30.618-.598.436-3.849-.281-6.34 1.545-6.162 4.523-12.331 13.005-11.401 20.95.81 6.937 18.116 28.995 24.243 33.518 11.955 8.832 23.407 7.083 36.779 11.281 7.347-4.454 15.633-1.852 22.4-3.217 28.467-5.751 68.275-30.054 74.88-59.776 2.082-9.36-1.937-19.703 2.935-28.467-.077-1.553-18.722-20.207-21.743-22.255-6.656-4.497-16.247-3.66-19.166-11.29 10.07.367 20.31-.588 30.396.052 12.706.802 25.028 2.397 38.494-.103 39.04-7.228 108.587-39.21 116.454-82.33 1.639-8.96-3.703-23.415 10.232-23.432z"/><path fill="#b6b7b6" d="M182.733 370.637c18.236-3.123 60.211 14.959 73.088 28.254 15.872 16.392 4.992 34.15-15.89 32.025-15.982-1.621-74.094-26.282-75.622-43.255-.93-10.402 9.302-15.463 18.424-17.024"/><path fill="#222528" d="M286.319 353.971c3.37-3.149 11.554-6.707 15.906-8.14 13.722-4.532 35.576-10.172 49.681-11.239 10.855-.82 29.38 2.432 38.34-.137 6.716-1.92 4.813-10.461 5.086-15.76 5.36 2.517 3.43 12.612 3.183 17.63-.307 6.416.674 11.11-1.425 17.791-5.052 16.094-16.802 29.073-32.708 34.748-6.34 1.058-38.81-22.86-49.17-26.931-9.906-3.891-19.438-4.105-28.893-7.97z"/><path fill="#919496" d="M458.308 264.602c.913-.18 1.826-.367 2.73-.547l7.894 5.086c3.516 12.032-21.017 53.59-36.505 55.894l-8.372-11.077c3.968-17.817 14.226-45.329 34.245-49.356z"/><path fill="#1c1f21" d="m4.173 527.104 9.608-19.234c-.034 3.883 1.57 7.595 3.627 10.812 12.151 19.037 46.157 48.332 65.715 59.323 5.376 3.021 23.834 11.665 29.073 12.587 14.968 2.62 31.343-3.618 41.063-15.377 9.839 5.658-.171 24.397 9.634 28.834 5.12 2.313 7.45-8.013 8.618-10.598 7.348-16.316 12.45-31.335 26.787-43.853 3.626-1.118 21.828 17.775 27.127 20.77 12.467 7.049 38.955 11.537 52.48 7.637 5.606-1.612 9.839-9.762 8.414-15.633l25.643-3.2-2.808 33.263c.666 2.321 11.093 11.204 12.425 11.623v3.208c-44.817-16.785-109.03-16.06-142.678 22.016-1.544-1.058-3.08-2.03-4.812-2.782-7.894-3.447-10.932-4.693-14.601-13.005-49.579 18.629-104.158-3.097-136.15-43.05-11.844-14.788-15.658-25.523-19.182-43.341z"/><path fill="#9e9fa2" d="M80.026 453.862c7.313-1.587 14.566.419 21.265 3.371 13.431 5.922 44.28 31.377 36.019 47.522-10.889 21.29-60.245-9.83-68.565-24.601-6.861-12.177-2.816-23.245 11.272-26.292z"/><path fill="#44474a" d="M156.459 498.278c19.473 9.438 21.657 24.815 10.82 42.838-6.076 10.103-12.996 12.049-20.352 1.937-14.362-19.763-3.123-28.228 9.532-44.775"/><path fill="#25282b" d="M340.821 536.721c-4.343 2.202-19.046 12.262-20.915 15.957-2.935 5.812-2.09 13.32-.077 19.473 7.552 23.083 49.69 28.118 70.008 35.798 39.484 14.925 76.902 39.97 120.917 34.585-5.3 4.992-11.528 11.537-18.073 15.6-16.64 10.342-54.725 29.892-71.723 14.881-2.97-2.62-3.67-6.886-6.332-9.702-26.777-28.34-44.706-45.918-82.577-58.598-3.746-1.255-8.218.05-10.462-.649-1.331-.418-11.759-9.301-12.424-11.622l2.807-33.263-25.643 3.2c-6.536-3.192-10.547-9.72-16.17-14.294-7.876-6.417-22.468-13.5-28.68-19.413-8.901-8.473-14.746-27.682-32.103-24.013.316-.085.742-2.133 2.39-2.517 40.413-9.353 73.053-4.113 106.478 20.292 7.347 5.368 11.426 16.265 22.58 14.285"/><path fill="#333539" d="M340.821 536.721c8.721-4.429 19.397-7.006 28.86-9.634 2.142-10.01-5.82-4.864-12.826-8.013-29.004-13.03-28.279-46.02-11.084-68.787 43.204-57.225 152.533-89.242 211.524-41.882 35.746 28.698 19.712 53.078-13.38 73.302-46.345 28.313-83.328 26.163-134.178 32.546-5.598.7-10.275-1.536-14.405 4.83l23.97 1.672c44.869 8.687 118.682 34.04 110.686 91.298-.682 4.873-8.192 19.61-11.29 23.996-2.662 3.78-5.776 4.429-7.944 6.468-44.015 5.385-81.433-19.66-120.917-34.585-20.318-7.68-62.456-12.715-70.008-35.798-2.014-6.152-2.858-13.661.077-19.473 1.869-3.695 16.58-13.747 20.915-15.957zm130.876-90.334c12.211-25.02-8.371-28.04-29.252-24.465-11.384 1.946-50.006 22.81-53.12 33.442-4.455 15.232 4.394 25.686 19.823 23.134 22.11-3.67 43.998-20.66 62.55-32.11"/><path fill="#323336" d="M555.64 636.109c2.534-15.147-11.666-28.28-9.763-43.315 1.263-10.01 25.506-26.701 22.725-48.094-4.19-16.24-27.435-12.024-14.49-30.345 6.443-9.122 14.797-16.589 20.105-27.98 6.178-13.253 7.884-27.768 13.32-41.182 25.49-5.504 60.245.964 70.972 27.127 13.773.81 25.216-4.779 39.748-2.867 9.515 1.254 34.714 13.576 43.34 19.183 3.576 15.983 9.686 28.655 5.889 45.969-9.822 44.766-103.006 88.2-145.434 82.355-5.128-.708-8.465-4.164-10.547-8.695l-7.006-26.642c-3.379 15.497-11.434 32.402-3.217 48.086-2.74-2.27-7.134-4.02-10.675-2.833-5.316 2.457-10.342 5.785-14.976 9.241zM670.088 492.45c-15.736 2.45-50.475 17.11-60.041 29.747-9.37 12.374-.11 20.438 14.029 17.22 9.122-2.073 48.623-24.354 55.04-31.522 9.472-10.58 4.505-17.553-9.02-15.445z"/><path fill="#b3b3b4" d="M657.306 280.892c12.586-1.579 34.33 3.712 29.457 19.831-10.309 18.014-76.177 38.64-88.005 21.342-9.531-13.935 19.627-29.824 30.567-33.877 8.106-3.004 19.575-6.247 27.972-7.305z"/><path fill="#2f3335" d="m578.082 283.435 7.57 2.816c49.185-40.141 204.142-48.145 194.363 43.63-.495 4.626-4.591 8.935-3.149 14.465 45.406-11.102 117.88-14.729 147.482 28.86l-16.034-4.788c9.523 23.032-9.387 45.935-27.188 59.358-15.94 12.023-94.319 36.77-115.345 38.554-69.103 5.845-96.648-34.091-46.626-86.7-1.655-1.407-34.85 13.526-40.738 15.36-42.786 13.33-101.282 18.433-132.454-20.112-8.081-9.993-10.88-15.573-9.472-28.851 2.372-22.409 14.856-35.32 30.31-49.826 4.335-4.07 12.373-4.259 11.29-12.758zm79.224-2.543c-8.406 1.058-19.866 4.3-27.973 7.304-10.94 4.054-40.098 19.943-30.566 33.878 11.827 17.297 77.687-3.337 88.004-21.342 4.873-16.12-16.87-21.419-29.457-19.832zm132.377 92.313c-8.414 2.842-20.284 11.188-19.405 20.864 1.238 13.722 39.1 28.852 45.048 15.992l-11.46-8.047 1.851-3.166c18.415-.247 51.67 3.703 54.306-20.565-3.84-5.59-10.606-10.565-17.442-11.495-14.02-1.903-39.287 1.818-52.898 6.409z"/><path fill="#9ca1a3" d="m805.717 398.857-25.634-14.43 9.6-11.222c13.61-4.59 38.878-8.311 52.898-6.408 6.836.93 13.602 5.905 17.442 11.494-2.636 24.269-35.89 20.318-54.306 20.566"/><path fill="#545a5c" d="m805.717 398.857-1.851 3.165 11.46 8.047c-5.948 12.86-43.81-2.278-45.048-15.991-.87-9.677 10.991-18.031 19.405-20.864l-9.6 11.221 25.634 14.43z"/><path fill="#585a5d" d="M712.738 642.526c14.063-10.12 27.179-20.873 41.668-30.618 2.51-1.68 2.961-4.548 3.217-4.65 1.084-.444 22.034-2.91 23.288-2.714 13.747 2.159 35.61 7.467 23.125 25.08-17.553 24.763-51.046 32.972-80.145 29.004-7.338-.998-12.595-8.362-11.153-16.102"/><path fill="#313437" d="M927.556 434.125c1.605 4.787-8.175 9.6 1.579 9.617 31.223.06 62.882 8.67 81.775 35.268-13.935.009-8.602 14.464-10.232 23.433-7.867 43.119-77.414 75.102-116.454 82.33-13.466 2.491-25.788.895-38.494.102-10.086-.632-20.326.315-30.396-.052 2.919 7.62 12.51 6.793 19.166 11.29 3.021 2.04 21.666 20.702 21.743 22.255-4.88 8.755-.862 19.106-2.935 28.467-6.605 29.722-46.413 54.025-74.88 59.776-6.767 1.366-15.053-1.237-22.4 3.217-13.372-4.198-24.824-2.449-36.779-11.28-6.127-4.523-23.432-26.582-24.243-33.52-.93-7.944 5.24-16.426 11.4-20.95 2.492-1.825 5.743-1.117 6.34-1.544-1.441 7.74 3.807 15.104 11.154 16.103 29.098 3.968 62.592-4.241 80.145-29.005 12.493-17.621-9.378-22.93-23.126-25.08-1.254-.196-22.203 2.27-23.287 2.714 6.699-10.155 7.97-19.055 19.234-25.651 7.45.145 14.993-.102 22.443 0-.137-8.952-8.423-15.471-9.609-24.047-5.862-42.35 19.687-67.652 53.402-87.663 8.44-5.009 27.605-15.445 36.207-18.295 12.322-4.088 28.612-3.985 41.37-8.329-.453-5.794 6.306-8.166 6.886-9.148zm-26.632 39.091c-9.651 1.647-41.95 18.1-48.674 25.062-1.656 1.707-8.21 12.305-8.218 14.37 3.9 23.877 32.93 13.961 49.17 7.348 12.919-5.265 42.213-20.6 40.968-36.173-1.118-14.029-22.725-12.408-33.238-10.607z"/><path fill="#b1b1ae" d="M900.924 473.216c10.521-1.8 32.12-3.413 33.237 10.607 1.246 15.573-28.049 30.908-40.968 36.173-16.23 6.613-45.261 16.529-49.17-7.347 0-2.066 6.563-12.664 8.218-14.37 6.733-6.964 39.023-23.416 48.674-25.063z"/><path fill="#343638" d="M321.587 607.258c21.871 8.192 43.136 25.062 57.77 43.22 22.58 28.024 20.515 53.599-8.012 75.47-51.652 39.603-146.782-2.782-184.567-46.473-2.048-2.372-3.132-4.838-3.2-7.97-8.56-.11-18.876 1.033-15.898 12.706-.068-.273-2.756-.589-3.251-4.625-2.56-20.608 6.767-33.809 9.668-53.086 1.724.751 3.26 1.724 4.813 2.782 33.647-38.076 97.86-38.81 142.677-22.016zm-71.612 10.146c-12.697 2.79-19.729 14.319-10.163 25.13 6.972 7.885 50.364 25.83 60.928 25.882 16.12.085 28.126-15.462 16.051-29.116-11.383-12.877-49.97-25.591-66.816-21.896"/><path fill="#b9b9b9" d="M249.975 617.404c16.845-3.695 55.433 9.028 66.816 21.896 12.075 13.654.069 29.201-16.05 29.116-10.565-.051-53.957-17.997-60.929-25.882-9.566-10.82-2.534-22.348 10.163-25.13"/><path fill="#323436" d="M590.908 639.317c2.67 2.398 3.225 6.29 5.094 6.58 38.084-4.07 100.873 18.628 94.285 65.561-2.1 14.95-30.26 36.958-43.964 42.59-35.072 14.421-109.84 21.76-141.9-.99-4.865-3.447-10.454-12.288-14.524-14.336-6.801-3.422-4.668 10.436-8.005 12.817-8.943-12.424-11.58-19.055-9.617-35.277-9.591-.025-19.268.052-28.86 0l31.907-3.353c6.23-29.073 32.085-47.787 57.83-59.281 11.179-4.992 7.177-3.226 16.068-11.102l3.294 4.907 38.383-8.107zm-25.174 50.833c.538.58 12.997 6.06 14.456 6.375 7.731 1.672 30.379 4.394 37.905 3.626 6.494-.665 33.331-8.285 30.464-17.399-1.331-4.215-16.623-12.98-21.3-14.063-14.583-3.396-32.656-3.362-47.06 0-4.651 1.084-18.962 8.038-17.963 13.585.077.427 3.208 7.57 3.507 7.885z"/><path fill="#919aa0" d="M581.282 629.7c2.21 1.826 6.05 6.417 9.617 9.617l-38.383 8.107-3.294-4.907c2.296-2.03 5.777-5.939 6.409-6.408 4.634-3.456 9.66-6.784 14.976-9.242 3.541-1.186 7.936.563 10.675 2.833"/><path fill="#b8b8b9" d="M565.734 690.15c-.298-.315-3.43-7.458-3.507-7.884-.998-5.539 13.312-12.502 17.963-13.585 14.413-3.354 32.478-3.388 47.061 0 4.676 1.083 19.977 9.847 21.3 14.062 2.867 9.114-23.98 16.734-30.465 17.4-7.517.768-30.173-1.954-37.905-3.627-1.459-.315-13.918-5.802-14.455-6.374z"/><path fill="#b6b5b7" d="M471.697 446.387c-18.551 11.443-40.44 28.442-62.55 32.111-15.428 2.56-24.285-7.902-19.822-23.134 3.114-10.64 41.728-31.496 53.12-33.442 20.88-3.575 41.472-.555 29.252 24.465"/><path fill="#a6a6a5" d="M670.089 492.45c13.525-2.1 18.491 4.873 9.02 15.445-6.418 7.168-45.91 29.449-55.04 31.523-14.14 3.217-23.4-4.856-14.03-17.22 9.566-12.639 44.306-27.299 60.041-29.748z"/></svg>