<svg xmlns="http://www.w3.org/2000/svg" viewBox="0 0 1024 1024"><path fill="#8f4d34" d="M1014.972 336.435c-28.083 28.937-61.585 50.04-92.57 75.11C781.218 525.79 639.266 640.923 494.404 750.08c-19.31 14.55-55.014 44.237-75.016 51.601-3.397 1.254-6.213 4.258-10.018 4.77L1.792 582.741c1.963-17.996 33.024-44.902 48.213-57.864 72.602-61.952 162.432-119.544 239.028-178.466C379.358 276.924 476.706 189.909 570.3 128.06c44.612-29.483 52.966-28.348 100.283-5.043 107.188 52.795 210.944 127.88 319.488 180.155 17.323 11.537 18.339 16.128 24.91 33.263zm-527.13-95.786-44.868 27.366 3.797 13.679c-22.297-3.891-62.012 24.013-81.852 37.93-17.843 12.519-46.156 33.494-61.824 47.685-6.203 5.623-8.789 7.97-6.937 17.015-20.318 4.839-31.232 11.094-44.868 27.367l3.797 13.679c-16.46-2.467-27.34 2.278-40.883 10.453-25.592 15.428-70.187 50.918-92.775 71.484-6.715 6.118-11.93 10.615-10.103 20.693-26.88 4.258-24.636 7.919-41.028 30.83-4.113 5.744-9.703 6.281-6.904 17.033L405.7 760.62l9.242-.896 545.28-416.487c2.116-9.736-1.45-11.17-6.724-17.203-3.79-4.335-28.613-23.893-34.347-27.63-6.118-3.986-9.702 3.523-13.705 3.814 1.844-9.097-.76-11.35-6.946-17.007-29.85-27.264-95.223-52.054-132.343-72.995-48.162-27.17-93.099-62.097-146.014-80.042-7.748-.683-28.467 11.29-36.275 16.273-17.494 11.179-49.331 36.804-65.349 51.004-11.4 10.103-29.738 24.84-30.668 41.181z"/><path fill="#6f3022" d="M398.848 917.999c17.246-9.472 10.453-9.933 13.986-23.356 8.465-32.136 7.27-59.75 6.545-92.962 20.002-7.364 55.706-37.052 75.017-51.601 144.87-109.158 286.822-224.29 427.998-338.534 30.976-25.071 64.486-46.174 92.57-75.11.213.562 5.776.648 6.98 9.83 3.447 26.29 4.616 106.461-13.876 123.545-21.905 20.241-54.937 39.049-78.83 58.052C775.432 650.18 621.584 772.43 466.994 893.747c-21.461 14.114-41.122 26.607-68.156 24.252z"/><path fill="#804029" d="M419.388 801.681c.717 33.212 1.92 60.826-6.545 92.962-3.533 13.423 3.26 13.884-13.986 23.356-16.265-1.417-48.197-19.789-63.983-28.416-102.136-55.825-200.27-120.644-302.405-176.7-6.408-9.728-27.008-22.17-29.815-31.778C-1.348 667.392-.12 600.33 1.8 582.75l407.577 223.71c3.806-.512 6.622-3.516 10.018-4.77z"/><path fill="#6f3021" d="M905.438 302.225c4.002-.29 7.577-7.79 13.704-3.814 5.735 3.729 30.558 23.296 34.347 27.63 5.274 6.034 8.84 7.467 6.724 17.204L414.933 759.73l-9.241.896v-68.42c2.32-11.375 113.476-72.312 123.221-95.787 2.227.17 4.608.086 6.844 0 2.841-.102 7.45-5.837 10.265-5.444 10.3 1.434 23.518 34.961 44.493 25.967V548.53l130.082-102.63h6.844c1.391.99 8.337-.427 13.483 3.353 11.323 8.312 18.073 25.959 34.432 24.013 2.713-21.615-6.75-58.479 6.852-75.255 7.731-9.532 44.988-30.166 58.342-40.9 9.387-7.553 64.043-50.723 64.888-54.887"/><path fill="#7d3e28" d="M111.326 528.009c.597 3.029 25.881 22.502 31.71 26.461 52.727 35.815 134.118 79.062 191.83 109.32 22.519 11.803 45.499 23.954 70.826 28.417v68.42L63.386 575.872c-2.8-10.752 2.79-11.29 6.903-17.033 16.393-22.92 14.148-26.572 41.028-30.83z"/><path fill="#7b3d27" d="M487.842 240.649h6.844c.87 4.206 3.208 7.662 6.87 9.94 65.766 40.995 134.143 83.406 202.982 119.007 23.73 12.27 50.287 30.259 77.67 28.416-13.602 16.768-4.139 53.64-6.852 75.255-16.359 1.946-23.109-15.701-34.432-24.013-5.146-3.78-12.092-2.363-13.483-3.353-.964-.683-1.92-6.64-6.895-9.942-85.29-56.516-184.5-103.517-273.783-154.265l-3.798-13.68 44.869-27.365z"/><path fill="#7c3d27" d="M296.158 384.333c1.05 5.137 18.62 15.36 24.994 19.49 59.571 38.63 135.808 82.645 198.545 116.292 22.383 12.007 45.61 23.808 70.827 28.416v68.412c-20.975 8.994-34.193-24.533-44.502-25.967-2.816-.393-7.432 5.342-10.265 5.444l-31.855-33.16-248.824-137.882-3.797-13.679c13.645-16.273 24.55-22.536 44.868-27.366z"/><path fill="#a76043" d="M255.087 425.378 503.91 563.26l31.855 33.16c-2.235.086-4.625.17-6.843 0-41.037-3.072-184.713-101.307-234.71-124.62-71.876-33.51-86.425 9.907-139.323 41.59-16.547 9.908-25.54 11.76-43.563 14.619-1.826-10.087 3.388-14.584 10.103-20.694 22.58-20.565 67.183-56.047 92.775-71.484 13.542-8.166 24.43-12.919 40.883-10.453"/><path fill="#ae6345" d="M905.438 302.225c-38.673 2.773-181.427-96.12-227.866-117.777-9.147-4.267-43.016-17.237-50.585-17.92-33.681-3.038-95.642 65.28-132.301 74.12h-6.844c.93-16.34 19.277-31.078 30.669-41.181 16.017-14.2 47.855-39.825 65.348-51.004 7.808-4.992 28.527-16.956 36.275-16.273 52.907 17.945 97.844 52.872 146.014 80.043 37.12 20.94 102.486 45.721 132.344 72.994 6.186 5.657 8.79 7.902 6.946 17.007z"/><path fill="#a66043" d="M446.771 281.702c89.284 50.748 188.493 97.75 273.784 154.266 4.975 3.294 5.93 9.25 6.895 9.941h-6.844c-89.745-15.078-171.955-99.874-252.954-126.916-28.962-9.668-43.793-8.482-68.616 7.373-45.773 29.227-42.906 43.708-102.878 57.975-1.852-9.045.725-11.392 6.937-17.015 15.668-14.191 43.981-35.157 61.824-47.684 19.832-13.918 59.555-41.822 81.852-37.931z"/><path fill="#904e34" d="M720.606 445.91 590.532 548.54c-25.216-4.608-48.443-16.41-70.826-28.416-62.729-33.647-138.974-77.67-198.545-116.293-6.383-4.138-23.945-14.361-24.995-19.49 59.973-14.267 57.097-28.74 102.878-57.975 24.824-15.855 39.655-17.041 68.617-7.373 80.998 27.042 163.208 111.846 252.953 126.916zM528.922 596.428c-9.754 23.475-120.9 84.412-123.222 95.786-25.327-4.462-48.315-16.614-70.826-28.416-57.72-30.259-139.102-73.506-191.83-109.32-5.828-3.96-31.112-23.441-31.71-26.462 18.023-2.859 27.017-4.702 43.563-14.618 52.89-31.675 67.448-75.101 139.324-41.591 49.997 23.313 193.672 121.549 234.71 124.62z"/><path fill="#8f4e34" d="M905.438 302.225c-.845 4.164-55.5 47.334-64.888 54.886-13.346 10.735-50.61 31.369-58.342 40.9-27.383 1.835-53.948-16.153-77.67-28.415-68.839-35.593-137.216-78.012-202.983-119.006-3.66-2.279-5.999-5.735-6.87-9.941 36.652-8.841 98.62-77.159 132.302-74.121 7.56.683 41.429 13.653 50.585 17.92 46.439 21.666 189.193 120.559 227.866 117.777"/></svg>