<svg xmlns="http://www.w3.org/2000/svg" viewBox="0 0 1024 1024"><path fill="#232222" d="m672.606 737.382-.043-3.788.324-1.827 5.871-2.713c1.468-.674 3.619-1.997 4.583-2.697 5.896.692 6.818-12.501 13.465-14.959l12.928-4.787c2.33-.862 7.732 1.715 8.184 4.08l2.278 11.715-4.522 3.414c-4.02 15.846-13.32 24.43-30.67 22.11-6.271-.845-11.477-5.376-12.398-10.54z"/><path fill="#e9ebeb" d="M825.583 461.687c-2.79-1.348-10.581 1.357-10.172 4.463.947 7.348 9.361 6.153 13.466 4.199 1.86 3.49 7.663 4.488 10.957 2.159 8.26-5.863 7.074 1.066 13.252-1.331l10.385-4.02c1.92-.742.973-5.589.614-7.535l3.84 2.22c2.117 1.228 7.604 3.472 10.061 3.361l9.054-.418c-3.823 5.624-12.98-1.519-15.292 9.37-.452 2.116 1.203 6.69 3.166 6.792l5.035.282c-.324.35-2.654 2.628-2.876 3.592-.546 2.398 5.88 4.668 8.124 4.557l3.26 6.904c-1.118-.419-5.078-1.92-6.554-1.86l-8.542.366-15.411-8.345c-1.895-1.024-4.65-1.86-7.441-2.552l2.841 7.39-6.485 2.27-1.357-9.225-11.213-6.698c-7.065 1.706-14.609 1.357-19.771-2.893l-2.919-9.651c.478-1.536 1.741-4.233 2.569-5.538l6.024-5.214c.128.973.41 3.362 1.17 3.968l4.215 3.379zm44.305 13.73c-3.575-4.112-9.173-5.674-12.27-4.573-1.708.606-.974 6.23.682 6.86 3.507 1.332 8.79.376 11.588-2.278z"/><path fill="#171717" d="M651.085 744.124c-11.418 6.656-28.476 8.678-33.297-1.886-3.115-6.827 14.976-19.004 33.4-7.629 2.2 1.357 2.5 7.996-.112 9.515z"/><path fill="#1b1b1b" d="M252.117 748.91c-14.31 9.9-33.075 5.496-32.529-1.143.837-10.171 28.544-17.757 34.85-7.39 1.059 1.733-.477 7.262-2.32 8.534"/><path fill="#191919" d="M533.948 755.584c-9.011 14.387-33.246 12.877-34.688 4.95-.273-1.503 1.271-5.155 2.5-6.179 14.327-11.887 37.615-7.415 32.196 1.229z"/><path fill="#2c2c2c" d="M327.637 763.23c-10.069 11.878-28.339 10.18-30.873 4.19-.546-1.297.384-5.146 1.288-6.204 9.319-10.897 26.744-12.407 30.9-5.94.998 1.554.11 6.273-1.315 7.954"/><path fill="#454443" d="m820.3 665.173 10.787-.332c1.826-.06 5.41-.905 6.946-1.366l.546 9.14c.418 7.03-4.258 14.199-11.46 17.109-2.432.981-8.576-.162-10.325-1.963-5.871-6.05-1.98-13.44 1.305-18.918z"/><path fill="#19191a" d="M386.884 783.582c-13.525 9.463-32.947 3.345-32.23-3.328.913-8.56 28.04-15.147 34.654-3.132.742 1.348-1.11 5.538-2.424 6.46"/><path fill="#1e1f1d" d="M973.167 585.805c-5.222 1.135-11.657.7-16.632-.64-3.404-.913-6.758-8.585-3.729-10.71 3.653-2.56 9.361-4.07 12.971-5.009-2.662-1.211-7.671-5.265-6.835-7.5 2.244-5.342 12.92-6.29 16.708-3.286 1.246.99.896 5.675-.205 6.776l-5.205 5.24c1.562 4.334 2.705 8.507 2.935 15.112z"/><path fill="#21211f" d="M309.769 729.71c-10.053 12.955-34.117 11.359-34.424 2.936-.427-11.58 37.112-17.783 34.424-2.935"/><path fill="#1c1c1b" d="M177.374 719.377c-9.225 7.817-21.188 7.339-32.043 1.826-.188-3.464.691-7.825 2.79-9.199 8.858-5.794 18.228-6.007 27.64-1.374 2.057 1.016 3.302 7.305 1.613 8.739z"/><path fill="#2a2a29" d="M790.724 764.365c1.127 6.434-18.133 11.818-29.602.12-1.152-1.178-2.688-5.198-2.27-6.76 2.227-8.32 29.568-6.561 31.872 6.64"/><path fill="#212020" d="M589.508 782.165c-11.682 2.51-20.318-.435-26.718-8.738-1.39-1.8.205-7.722 2.347-8.26 10.829-2.73 20.02.418 26.863 8.892 1.562 1.937.06 7.56-2.483 8.106z"/><path fill="#232322" d="m574.43 733.935 1.758.043 5.162 3.353-.307 9.882c-9.71 5.666-21.265 5.154-29.508-1.152-.265-1.895.418-7.339 1.655-8.431 4.173-3.67 15.625-5.65 21.24-3.704z"/><path fill="#2b2b2b" d="M749.355 737.954c-6.008 10.641-18.996 10.197-28.655 3.524-1.784-1.237-1.69-7.133.11-8.541 6.068-4.754 12.997-6.298 20.634-4.975 5.248.913 8.26 4.872 7.91 9.984z"/><path fill="#1c1d1b" d="M128.691 673.348c-6.22 8.371-15.94 10.94-25.66 8.056-2.26-.674-3.908-6.648-2.457-8.585 7.39-9.898 22.289-12.774 28.672-6.041.904.955.299 5.427-.555 6.57"/><path fill="#c3c0ba" d="M82.03 746.07c-8.584 5.555-16.05 3.72-23.756-.692-3.413-1.954-6.306-9.463-2.79-11.81 9.207-6.127 20.855-1.886 27.622 4.634 1.45 1.4.504 6.835-1.084 7.867z"/><path fill="#171717" d="M30.959 637.022C20.634 642.884 3.183 642.116.085 634.3c-.46-1.16 1.144-4.36 2.321-5.36 7.535-6.408 20.003-6.68 28.655-.025 1.622 1.255 1.98 6.938-.094 8.115z"/><path fill="#131213" d="M949.308 673.152c1.655 6.528-14.242 14.566-27.734 8.269-1.408-.657-3.89-3.644-4.036-5.137-.17-1.784 2.15-5.146 4.02-6.52 8.14-5.99 25.821-4.215 27.75 3.388"/><path fill="#434343" d="m616.559 712.883-5.99.35c-2.85 2.278-4.856 3.806-7.33 5.427l-5.479 3.593c.674 3.703-1.152 9.113-3.61 9.634l-7.543 1.604c-2.68-1.92-7.253-5.913-7.748-9.344-.734-5.034 11.358-9.335 10.598-10.794l-1.28-2.45c2.543.504 7.467 1.127 10.453.948l15.028-.88 2.892 1.895z"/><path fill="#121212" d="m133.325 636.604 3.149 3.456.29 5.947c-5.88 11.213-32.316 5.095-30.789-2.56 1.639-8.174 20.088-10.069 27.35-6.852z"/><path fill="#0f1010" d="m988.98 608.99-14.175.12c-.529 0-1.194.068-1.604-.01-1.724-1.62-4.71-3.054-7.22-3.677l-3.327-2.867c-.947-.82 1.075-4.975 2.125-5.632 8.303-5.231 20.6-3.465 27.648.904 1.706 1.058 3.66 6.426 2.398 7.706s-3.9 2.67-5.846 3.447z"/><path fill="#131213" d="M943.582 643.132c-9.43 5.88-19.456 2.312-26.01-3.072-1.357-1.118-2.415-6.332-.87-7.467 6.51-4.736 20.275-5.683 27.358 2.168 1.766 1.962 2.048 6.792-.478 8.362z"/><path fill="#303030" d="M823.296 723.354c-7.885 5.666-17.442 3.515-22.28-3.755-1.4-2.1-.393-9.276 1.98-10.232 6.544-2.645 15.01-1.954 20.889 1.596 4.028 2.44 3.294 9.6-.589 12.39"/><path fill="#1c1c1b" d="M53.069 566.118c1.382 5.803-15.787 14.302-29.176 6.35-1.066-.632-3.063-3.49-2.568-4.583 5.538-12.135 30.14-8.49 31.744-1.767"/><path fill="#1d1c1c" d="M93.355 509.56c-7.706 7.722-23.339 8.593-26.872 3.345-1.04-1.545.196-6.742 1.732-8.056 7.151-6.144 21.291-8.892 26.095-3.046 1.101 1.34.47 6.34-.947 7.756z"/><path fill="#1d1c1a" d="M475.264 745.506c-12.262 4.89-27.145-2.244-26.197-10.7.708-6.332 15.547-7.544 26.76.878 2.458 1.843 2.304 8.679-.563 9.822"/><path fill="#191919" d="M1022.54 572.63c-7.773 3.916-15.026.887-21.025-2.765-3.166-1.929-5.957-10.112-2.8-11.947 7.28-4.216 15.932-1.084 22.222 3.524 2.551 1.869 4.53 9.703 1.604 11.179z"/><path fill="#202020" d="M236.39 714.325c-8.285 4.327-17.68-1.766-22.365-8.738-1.238-1.834.034-7.757 2.022-8.26 6.357-1.621 12.424-.52 17.963 2.372 4.684 2.44 7.782 11.819 2.389 14.635z"/><path fill="#e0e0e1" d="m588.186 710.912 1.28 2.45c.76 1.45-11.333 5.75-10.599 10.794.495 3.43 5.069 7.424 7.748 9.344-1.245.205-5.384-.598-6.272-1.937l-3.822-5.794-7.612 5.256 5.53 2.927c-5.616-1.946-17.067.034-21.24 3.703-1.237 1.093-1.92 6.537-1.656 8.431-.358.137-2.688-2.483-2.363-3.362l2.261-5.999c.52-1.382-4.326-2.713-5.23-2.867v-1.937c.4.111 1.296.06 1.757.051l3.516-1.348c.631-.009 1.382.06 1.758-.137l3.763-1.98 6.033-2.517c14.711-6.135 6.69-18.722 25.165-15.06z"/><path fill="#2a2b29" d="M64.836 587.921c-.47 2.065-4.522 6.844-6.946 6.844l-14.174.017c-2.099 0-5.726-2.833-7.987-4.72-1.45-1.21.358-6.843 2.219-7.457 7.347-2.44 16.938-2.705 22.553.572.999 1.22 3.738 4.096 4.335 4.744"/><path fill="#a1a09d" d="M696.286 774.673c-10.24 3.38-21.888-.845-21.257-6.554.768-7.014 17.024-7.458 23.228-5.76 1.852.504 3.396 5.581 2.825 7.228s-3.08 4.523-4.788 5.078z"/><path fill="#252524" d="M35.73 527.266c-1.742.034-5.47-1.775-6.222-3.132-3.166-5.725 2.569-13.593 10.94-17.143 2.859-1.212 7.757 2.415 7.962 5.146.614 8.183-4.864 14.976-12.672 15.138z"/><path fill="#9c9d97" d="M863.121 734.61c-7.074 8.814-18.108 7.159-23.953 3.02-.683-.478-1.963-2.517-2.278-3.311-.427-1.05 1.228-4.386 2.295-4.958 6.016-3.183 20.523-6.434 23.928 5.248z"/><path fill="#1d1d1c" d="m887.049 464.777-9.054.418c-2.458.11-7.945-2.134-10.061-3.362l-3.84-2.22c-.248-1.347-.222-4.274-.043-5.631.418-3.2 12.766-5.743 23.305 1.596 1.152.802 2.782 4.667 2.04 5.751z"/><path fill="#b2b2ac" d="M891.861 698.35c4.77-4.658 19.465-1.305 19.934 6.503.137 2.287-3.328 6.776-5.64 7.151-4.267.691-9.14-.094-11.879-1.962-2.585-1.767-4.727-9.421-2.415-11.683z"/><path fill="#bdbdb9" d="m978.372 645.956-1.433-3.908 5.282-5.555c6.007-2.5 22.323.572 20.744 6.87-.384 1.518-2.398 3.651-4.386 4.718-12.228 6.562-21.965-9.813-20.207-2.125"/><path fill="#363634" d="M434.586 742.127c-5.897 9.378-18.97 6.391-23.74 1.434-.896-.94-1.46-5.129-1.246-5.658l18.645-2.466c1.297-.17 4.788.444 5.854.802 1.417.478 1.289 4.608.478 5.888z"/><path fill="#3d3b38" d="m90.829 580.514-1.391.085-3.524.29-3.943.171-8.234-3.626c-1.28-2.16-3.013-5.905-3.619-7.791l5.18-4.514c5.095.068 11.486 4.292 16.376 8.243 1.459 1.186.4 6.067-.854 7.142z"/><path fill="#6c6c69" d="M657.707 767.53c-4.284 8.227-14.652 12.348-18.816 7.706-.888-.99-.999-4.821-.342-5.965 2.415-4.215 7.996-7.884 13.176-8.652 2.986-.444 7.296 4.386 5.973 6.92z"/><path fill="#555452" d="m976.939 642.057 1.433 3.908c.06 2.38-2.995 6.408-4.855 6.135-16.17-2.346-17.255-11.759-16.068-12.313l4.096-1.903c5.572-2.594 11.955-.401 15.402 4.173z"/><path fill="#91928f" d="M199.049 447.607c-2.467.308-8.073-3.626-7.305-5.358 4.429-9.933 20.838-10.932 20.053-5.76-.836 5.444-6.024 10.282-12.748 11.118"/><path fill="#a3a19d" d="M859.085 707.541c.665 2.902-7.928 5.735-11 4.813-2.807-.845-6.741-5.197-7.671-8.448-.555-1.937 4.087-5.751 6.17-5.64 3.916.213 10.862 2.193 12.492 9.275z"/><path fill="#bbbbb8" d="M121.011 469.3c-.64 6.33-14.012 7.867-21.265 1.254 3.14-8.167 13.91-8.175 18.74-5.325.947.563 2.62 3.149 2.525 4.07"/><path fill="#ebebeb" d="m81.971 581.06-4.156 2.031c-1.015.495-3.37 3.123-2.739 3.968l2.287 3.03 5.658.759c.862.12 1.365-1.792 1.493-2.662.026-3.08.341-5.248 1.383-7.296l3.524-.29-2.381 3.686c-.026 2.637-.06 5.069-.785 6.434-2.253 4.224-6.136 1.084-10.667 1.775-1.203.188-2.713 2.79-2.585 4.002-1.989-.572-6.469-.887-8.44-.205-1.263.444-1.212 5.078-1.126 5.735-1.127-.58-2.168-2.85-3.192-4.762l-15.018-.597-1.52-1.878 14.175-.017c2.423 0 6.485-4.778 6.946-6.843l9.062.05-.162-10.53 8.235 3.627z"/><path fill="#7c7d79" d="M67.106 625.527c1.69 3.747-7.492 7.936-15.394 5.829l-2.807-5.547c-1.792-3.533 7.918-7.962 15.479-6.323l2.73 6.041z"/><path fill="#727373" d="M98.065 610.483c-2.893.589-8.866.418-9.745-1.672-.828-1.98.29-6.87 1.16-8.542l1.835-1.425 1.622-.094 8.806.196c1.39.094 2.995 4.634 2.022 5.64l-3.166 3.277-2.525 2.629z"/><path fill="#a3a3a3" d="M787.55 729.088c-1.852 5.717-9.907 4.54-14.933 2.995-1.366-.418-1.562-5.751-.751-6.989 2.159-3.302 11.025-4.42 14.08-1.356.802.802 1.945 4.317 1.604 5.359z"/><path fill="#272826" d="M940.774 621.815c-5.077.64-11.34-2.807-12.433-6.118-.435-1.314.427-4.54 1.468-5.367s4.66-1.52 5.828-.93l5.922 3.003c1.11.563 2.62 3.294 3.081 4.463s-2.45 4.77-3.874 4.95z"/><path fill="#8f8f8b" d="M87.876 642.944c-4.027 5.683-13.482 3.115-16.776.623-.862-.657-1.656-4.3-1.033-5.188.828-1.186 3.32-2.62 5.462-3.038 4.667-.913 10.632 3.14 12.347 7.603"/><path fill="#575857" d="M970.044 620.834c-4.514.913-10.19-2.372-11.47-6.127 1.964-2.952 8.918-5.103 12.187-3.456 1.117.563 3.14 3.004 3.694 4.045.683 1.297-2.739 5.214-4.403 5.547z"/><path fill="#696967" d="m874.667 682.581-5.36-6.366 7.937-6.237c.964-.76 4.94-.436 5.53.605l2.67 4.78-10.769 7.218z"/><path fill="#464645" d="M158.362 664.405c2.816 3.516-4.975 9.575-9.097 8.098-2.253-.802-3.712-1.245-4.087-2.03s-.163-3.38.23-4.233c1.45-3.132 9.907-5.632 12.954-1.835"/><path fill="#8a8b89" d="M550.272 759.808c.708.939 1.033 5.316.026 5.632l-6.102 1.971c-1.229.401-4.804-.956-5.487-2.056s-.307-4.13.418-5.325c1.955-3.217 8.815-3.303 11.136-.222z"/><path fill="#3a3b3a" d="M942.583 606.345a5.623 5.623 0 1 0 11.247 0 5.623 5.623 0 1 0-11.247 0"/><path fill="#b4b4b4" d="m73.02 596.497.717 6.52c-2.731.4-7.885.238-10.283-.99-.085-.649-.137-5.291 1.126-5.735 1.971-.682 6.451-.367 8.44.205"/><path fill="#757574" d="M340.446 728.627a4.813 4.813 0 1 0 9.625 0 4.813 4.813 0 1 0-9.625 0"/><path fill="#6c6b6b" d="M497.578 736.555a4.719 4.719 0 1 0 9.439 0 4.719 4.719 0 1 0-9.438 0"/><path fill="#585859" d="M910.6 674.125c1.323.435 3.78 4.796 2.97 5.82-1.015 1.28-4.173 2.363-5.982 2.235-1.348-.094-4.975-3.114-5.069-4.454-.153-2.116 5.436-4.472 8.082-3.601"/><path fill="#6a6a6a" d="M53.658 537.165c-1.98 2.765-3.951 4.966-5.556 5.034-2.184.094-5.137-2.457-6.835-5.358 4.89-3.269 7.194-3.166 12.4.324z"/><path fill="#858685" d="M77.03 483.644a4.574 4.574 0 1 0 9.148 0 4.574 4.574 0 1 0-9.148 0"/><path fill="#949492" d="M107.35 491.017c-2.97 4.804-5.795 5.597-10.804 5.23-.299-2.065-.41-5.273.674-5.785 2.125-1.007 6.426-.623 10.12.555z"/><path fill="#717170" d="M409.72 753.783c3.37.658 6.792 3.67 6.118 5.368s-5.035 4.232-6.503 3.294c-2.073-1.323-3.464-2.415-4.206-3.226-.99-1.075 2.96-5.76 4.59-5.444z"/><path fill="#515152" d="M885.205 489.378c-2.235.111-8.67-2.159-8.123-4.557.221-.964 2.551-3.242 2.875-3.592 1.434.077 4.395 1.05 6.23 1.809 1.416.589-.538 5.487-.982 6.34"/><path fill="#585859" d="M930.97 481.758c-.29 1.75-1.63 4.625-2.953 5.657-1.579 1.238-8.175-.614-7.782-2.79.734-3.994 7.321-5.163 10.735-2.867"/><path fill="#767675" d="M892.237 666.3a3.866 3.866 0 1 0 7.731 0 3.866 3.866 0 1 0-7.731 0"/><path fill="#5e5e5e" d="M961.178 525.97a3.831 3.831 0 1 0 7.663 0 3.831 3.831 0 1 0-7.663 0"/><path fill="#909090" d="M982.229 525.892a3.217 3.217 0 1 0 6.434 0 3.217 3.217 0 1 0-6.434 0"/><path fill="#777978" d="m954.513 512.265-5.077-1.11c-1.186-.256 1.587-4.292 2.765-4.062l4.454.888c.93.188-1.229 4.48-2.142 4.284"/><path fill="#252525" d="M683.332 726.357c-.964.7-3.114 2.023-4.582 2.697l-5.871 2.713c.145-.81.589-3.532 1.408-3.686z"/><path fill="#7e7e7d" d="M959.01 498.253a2.705 2.705 0 1 0 5.41 0 2.705 2.705 0 1 0-5.41 0"/><path fill="#575857" d="M988.98 608.99c.238-.111-1.494 1.664-1.972 1.68l-10.573.325-1.621-1.886 14.174-.12z"/><path fill="#c4c4c6" d="m126.464 482.867-5.53 1.425c1.22-1.007 3.516-1.45 5.53-1.425"/><path fill="#252525" d="m672.606 737.382-1.724-2.483c-.316-.46 1.255-1.066 1.681-1.297l.043 3.789z"/><path fill="#e0e0e1" d="m581.342 737.34-5.163-3.354c2.313.06 5.206 1.895 5.163 3.354"/><path fill="#575857" d="M973.201 609.1c-2.184-.426-5.53-2.218-7.22-3.677 2.51.614 5.496 2.056 7.22 3.678"/><path fill="#ebebeb" d="m89.48 600.277 1.835-1.425z"/><path fill="#242424" d="m551.475 730.607-3.516 1.348c.376-.853.47-1.45.999-1.433zm5.521-2.116-3.763 1.98c.427-.948.495-1.451 1.041-1.588.615-.153 2.16-.153 2.722-.392"/><path fill="#2c2b2b" d="m514.116 241.98-1.211 7.15c-.649 3.832-1.758 8.525-2.56 11.367l11.588 8.252c2.449 1.75 9.916.58 12.365 3.294 2.133 2.363 3.771 7.867 3.14 11.58l-2.176 12.723c-.53 3.123-7.706 6.621-9.216 9.403l-4.71 8.653c.281.657 1.203 2.842 1.194 2.816l5.658 1.604c4.736 1.349-7.091 14.925-2.227 22.161 1.749 2.603 5.282 5.897 6.212 8.645.75 2.193-1.869 6.826-3.798 10.829l2.944 2.389c18.816-5.171 10.002-7.57 24.858-6.084 4.454.443-3.362-14.908 3.49-14.737 12.484.298 16.367 13.977 12.05 23.38-5.334 11.632-15.258 3.525-19.525 10.522-4.07 6.69 3.934 12.544 6.57 17.673.828 1.604-9.284 4.65-7.364 13.056.23 1.015 4.011 3.789 4.71 3.004l3.15-3.55c4.155-4.685 9.207-6.119 15.189-2.842 2.85 1.562 8.038 4.668 10.095 7.1 1.46 1.74.427 8.371.665 10.846.547 5.59 10.249 3.558 10.923 13.986l8.721 5.956c2.142 1.468 7.766 5.112 7.894 7.689l.588 12.151-8.268 2.006c-.973 14.865-14.063 18.944.7 21.81l9.207 4.762 10.521-12.313c3.508-4.113 10.983-2.45 13.986 1.852 6.383 9.122-5.324 17.783-9.429 18.884-2.065.554-7.15-1.203-9.148-1.997l-3.328-1.323c-.7-.281-1.595 2.902-1.527 3.644l.623 6.886 9.241-.392c2.492-.102 7.1 2.876 8.773 5.512 7.193 11.299-1.127 16.205-4.65 25.234-2.663 8.251-4.814 15.36-11.734 18.96l-5.453.06c-7.8-10.615-4.412-12.501 1.229-22.041l-3.064-10.872-10.743-4.667c-2.475 7.159-6.119 11.912-13.466 13.337-.46 1.195-1.647 4.83-2.406 6.144l-5.871 10.18-6.409-5.76-7.364 10.112 12.16 6.716c1.98 1.092 5.94 4.105 7.774 5.803 3.9 3.584-2.68 11.52-6.997 11.05-2.142-.238-5.965-4.334-7.083-6.058-7.347-1.366-13.756-4.617-20.233-8.926l-8.712-5.794-2.782 5.171c-1.8 5.709-19.703 3.968-15.77 9.71 6.05 8.824 14.729 6.128 14.499 11.316-.043.999-1.426 3.738-2.339 4.173l-9.565 4.616c-1.323.64-5.41-1.075-5.735-2.423-.418-1.698-1.826-6.135-3.106-5.64l-4.958 1.91c-6.4 2.476 3.627.521 1.792 13.21-.921 6.375 5.171 4.702 6.818 21.42.154 1.57-5.128 1.945-6.664 1.228-14.567-6.741-11.06-3.635-22.426-9.25l-8.49 5.683 1.757 12.34c.308 2.158 2.936 7.44.802 8.473-5.29 2.551-8.277 7.313-4.659 13.022 1.536 2.423 2.45 8.286 1.86 11.298-.546 2.773-5.162 6.545-8.678 8.584-6.87-8.849-3.251-9.327-12.723-15.983 2.526-9.523 14.728-16.597 12.373-19.959l-6.212-8.866 2.603-13.508c-1.272-2.44-6.93-6.801-9.959-7.92-3.678-1.348-7.014 5.547-3.447 15.787.785 2.245 5.751 4.625 8.627 5.692l-9.728 4.053c-2.935 1.22-3.388 7.441-1.39 10.12 3.506 4.686 2.636 8.347 1.544 13.526-.598 2.833-2.321 22.69-10.744 21.052-1.69-.324-4.872-1.903-6.818-3.174-4.079-2.663-2.611-13.15-.256-15.565l3.575-3.652c.948-.973-2.918-3.678-3.26-3.15-3.2 1.989-6.809 4.08-9.778 5.445l-3.619 1.655c-2.61 1.195 3.021 4.062 7.63 12.86 1.083 2.074-2.85 7.85-4.395 7.723l-6.571-3.618-16.947 3.814c-1.86.418-5.223 1.92-7.527 2.73l-2.065 1.767c-17.997 1.912-14.6.888-30.814-7.313l.564 3.84c2.38 3.541 4.215 8.098 4.497 12.032-5.163 4.36-12.195 3.311-17.972.41l2.467 5.64c.836 1.903 1.126 6.853 1.399 9.174l6.733 2.56-6.878-.086c-7.51 8.585-19.806 12.527-30.635 9.532-1.886-.52-5.555-3.473-5.205-5.248l1.852-9.293-7.151-.247c-1.4 13.235-17.314 17.587-27.93 14.165-2.449-.794-5.128-3.098-5.58-4.94-.368-1.477.554-5.863 1.663-6.947l6.153-6.033c-3.746-.691-7.655-.87-10.624-.11l-14.183 3.634c-10.18 2.612-31.13-5.922-32.657-19.541l-16.844 1.306c-5.36.418-10.573-2.168-13.62-6.136l.103-3.618-.034-1.783c1.57-2.1 4.753-6.204 7.04-6.153l8.61.213c.648.017 3.063-1.536 2.594-1.954s-1.937-1.715-2.569-1.8l-9.199-1.238c-10.29-1.382-8.251-5.88-10.94-4.087l.743 9.975c-4.924-.341-8.994-.41-10.812-1.322l-4.82-2.424c-.078-7.1 11.621-10.154 8.643-10.957l-3.618-.972c-17.34-4.66-14.788-13.15-22.17-4.335-2.26 2.705-10.325 3.95-14.728 2.235-3.336-1.305-6.23-5.435-9.617-9.617-1.638-.546-3.558-1.186-.068-.025-.82 5.051-1.05 6.639-2.577 8.021l-.29-5.948-3.15-3.456 3.832-.281c-23.842-6.87-13.278-15.232-25.668-16.162l-7.586-.564c-.162-1.4-.376-6.041 1.186-6.74l6.477-2.894c1.476-2.901 3.823-7.671 6.101-9.472l9.89-7.825c-10.538-6.477-15.3 2.483-25.95-2.696-5.435-2.646-5.862-8.721-4.002-13.15l3.866-9.208-6.58-1.459c-1.774-.392-3.447-5.905-2.227-7.27l4.54-5.078c0 .41 0-2.278.017-3.234-6.826-9.156 4.72-15.949 1.997-17.032l-3.823-1.528c-1.382-.554-2.005-3.635-2.022-5.632l4.898-5.572c2.278-2.594 10.223-3.934 12.894-6.118l8.542-7.006c6.877-5.64-5.35-4.975-4.498-12.63.47-4.207 3.252-8.738 5.71-10.76l5.529-1.425c2.082.017 4.736.068 6.741-.026l1.596 1.45 10.624.3.188 1.732-1.178 8.772 19.38-7.134-7.595-2.602.452-5.7c-3.507-2.185-6.255-5.692-5.479-9.345 6.144-7.995 22.52-7.859 29.961 3.038l12.16-6.076-1.382-7.79c16.204-8.67 12.253-8.867 25.514-1.87.64.333 3.798.624 3.909-.093l.571-3.576c.845-5.324 3.806-11.443 8.96-14.259 19.994-10.931 19.098-1.75 24.337-11.025 6.35-11.238 10.172-7.27 8.645-13.312-1.494-5.905 1.809-13.867 8.533-16.81 6.059-2.654 10.368-4.114 18.167-1.827l3.013-3.14c-5.172-14.754 5.802-19.96 15.547-27 19.9-14.37 25.174 1.494 27.956-10.41l2.927-12.527 8.789-5.112c3.277-17.518 5.982-12.322 10.487-17.28 4.31-4.736 11.051-8.567 17.852-9.975l17.528-3.627c2.636-1.809 8.123-5.393 11.042-7.56 7.415-5.513-.666-13.048 13.61-20.173 3.26-1.621 7.646-3.772 10.317-5.359 2.424-1.442 3.755-9.387 6.306-10.556l12.527-5.726c2.313-1.058 8.115-1.05 11.35-1.373l5.418-8.013c9.592-14.183 18.68-4.89 24.175-9.711 11.486-10.078 22.238 4.147 24.704 2.799zm1.818 77.26c-1.673-.213-6.161-.486-5.94.419l.811 3.268c.333 1.331 3.806 4.574 4.72 3.575l2.713-2.952c.691-.751-1.289-4.181-2.304-4.31m-349.21 164.156a.878.878 0 1 0-1.758 0c0 .487.393.88.88.88s.878-.393.878-.88m360.21 66.919c4.147-3.456 3.984-9.361 1.34-12.834l-5.676-7.45c-5.094-6.682 8.397-6.93 2.543-17.818l6.153-9.506c1.937-2.986-1.408-11.076-3.917-12.706l-11.588 1.596c-11.571 11.998 1.22 9.6-3.977 28.365-3.294 11.895-15.667 8.49-13.568 12.629l2.85 5.615c2.79 5.495 5.888 13.227 11.785 15.94 3.055 1.408 11.272-1.51 14.054-3.831m-384.7-10.368 6.63-8.628c2.935-3.822 5.88-12.689 5.709-18.918-9.233.273-16.23 1.929-24.039 5.29l-2.816 7.39 6.076 3.124c3.209 1.647 5.171 6.067 5.521 10.154l.324 3.772c.06.666 1.946-1.34 2.612-2.184zM414.78 598.11l11.537-9.054c9.992-7.85 5.58-9.293 4.454-21.88l-1.024-11.4-10.402 7.168-3.575 15.633-9.6 1.365c-1.81.256-4.096 5.931-3.294 7.63 1.792 3.77 7.364 7.875 11.904 10.53zm-85.675 5.709c-8.678 5.111-16.145 10.188-24.388 16.955 2.543 4.173 7.287 6.477 10.684 5.155 9.66-3.764 18.483-10.343 13.696-22.119zm-53.564 72.789 9.14-8.175c9.898-8.849 14.199 2.867 22.007 1.46 3.046-.555 7.757-12.664 3.703-17.733-3.123-3.908-8.806 5.316-19.626-2.594l-3.985 9.318c-.802 1.87-3.448 5.206-5.282 6.972-4.045 3.9-12.911 3.328-13.987-2.347l-1.723-9.062-12.834 9.72 10.12 5.435c2.304 1.237 5.265 3.951 7.091 6.059l2.74 3.157c.35.401 1.774-1.433 2.645-2.21zm47.284 17.758 5.674-5.06c3.874-3.456 12.911-3.653 18.611-3.43l-5.683-13.193-16.631 1.758-12.75 1.638 4.02 6.929c1.075 1.852 1.297 6.238.973 7.57l5.777 3.78z"/><path fill="#070607" d="M802.765 445.474c.188 2.91.93 8.824 2.645 11.153l4.574 6.221 1.63 2.236 2.918 9.65c5.163 4.25 12.706 4.6 19.772 2.894l11.213 6.698 1.357 9.225 6.485-2.27-2.842-7.39c2.782.691 5.547 1.528 7.441 2.552l15.412 8.345 8.541-.367c1.477-.06 5.436 1.442 6.554 1.86.93 1.98 4.625 5.513 5.709 5.428 11.554-9.455 21.734-7.501 31.095.606 2.193 1.894 7.552 4.471 9.421 6.579l10.453 11.801c-3.882 4.702-5.87 9.89-4.88 14.268 11.929-4.318 31.223.444 29.38 9.498-.333 1.621-3.644 4.736-5.231 4.753l-10.47.136-1.767-2.466-10.974 1.656-3.473 7.44-10.41-.195c-1.084-.018-2.51 3.814-1.613 4.445l1.928 1.349c.478 1.92 1.562 5.828 2.936 7.048 16.69 14.78-.308 3.823 12.492 15.864 1.622 1.519 3.43 6.331 2.381 8.183-.896 1.587-3.883 4.036-6.127 5.3-11.306 6.34-23.065-4.592-20.633-.137l1.587 2.91c1.075 1.962 2.585 7.79 1.143 9.6-2.406 3.012-9.165 5.162-12.501 6.988-4.045 2.22-8.474 5.53-12.425 5.812l-7.535.529 4.267 4.027c2.79 2.637 5.154 5.001 7.987 8.013 3.303 3.516 2.637 11.06-1.297 14.183-4.25 3.37-9.267 4.864-14.455 5.265l-7.791.606c-2.176 5.145-9.899 5.29-12.97 2.244-4.626-4.608-14.422 6.451-26.667 5.478-1.536.453-5.12 1.306-6.947 1.366l-10.786.332-9.267-1.749-12.45 10.06c-1.86 1.503-4.907 3.55-6.682 4.447-18.875 9.54-13.26 3.294-22.52 6.733l-10.273 3.814c-.572.213-2.398 1.715-2.176 1.664-5.171.452 3.797 14.566-8.431 18.142-3.883 1.135-10.334-1.852-12.715-5.214-6.4-9.062 2.919-20.48-6.16-15.462l-16.607 9.19a132 132 0 0 1-6.852 3.533c-1.724.367-4.489 1.11-5.376 1.527l-2.202.086-3.797-2.322-2.876-1.757c-3.67-2.245 7.399.06 15.582-10.65 2.185-2.85 3.115-10.752.444-12.996-5.103-4.301-11.128-7.868-17.784-8.49-4.42-.41-15.513 11.084-14.02 17.8s8.807 6.357 9.387 13.397l-11.964 3.746c-.802.256-3.08 3.123-2.859 3.132l-6.613 1.68-2.176-8.874c-1.254-5.103-9.267-6.101-13.85-3.754-4.454 2.286-8.516 7.424-7.432 12.458l1.468 6.793-8.15.136c-.844.017-3.729 2.108-3.422 2.253-4.744.017-9.429-.316-13.977-1.638l-2.893-1.895-15.027.88c-2.987.17-7.91-.445-10.453-.948-18.467-3.66-10.445 8.926-25.165 15.061l-6.033 2.518c-.564.239-2.108.239-2.722.392-.547.137-.615.64-1.042 1.587-.375.197-1.126.12-1.757.137l-2.518-.085c-.52-.017-.623.588-.998 1.433-.46 0-1.357.051-1.767-.051l-4.83-1.289 12.69-8.311 8.917-5.615c2.074-1.306 3.652-7.296 2.748-9.608-3.507-9.02-22.494-4.19-28.945 6.11-3.644 5.82-7.97 9.352-15.42 8.464-8.977-1.066-6.349-14.788-17.246-17.518-5.751-1.443-12.843-.58-17.621 1.783-5.214 2.586-7.032 8.09-5.922 13.073l-6.93.589-1.314 2.184c-10.214.7-20.6-1.425-29.994-5.444l1.229-10.914 1.211-8.772c1.8.281 5.718 1.536 7.083 2.816 8.004 7.51 21.402 4.958 28.28-1.417 1.501-1.39 2.525-6.69 1.407-8.234-1.305-1.801-4.53-3.849-8.098-5.923-2.338-1.356-.06-7.432 2.262-9.668l2.858-2.32c.828-.675 2.73 1.373 3.968 2.883 7.28 8.832 13.466.52 14.754 9.515.598 4.164 4.122 7.57 8.696 7.296 4.318-.265 9.881-3.32 12.62-6.246l14.243-15.198 8.516 5.23c7.62 4.677 14.788 8.406 24.542 4.071l12.518 2.884c5.837 1.349 16.495-1.74 18.202-7.842.939-3.345-4.318-11.059-13.022-11.008l-10.82.06 1.365-16.427c.785-9.514 12.945-4.565 18.688-15.53.512-.982 1.656-4.77 2.16-5.965.332-.785 3.557-.487 4.436-.256 5.18 1.374-6.46 4.924-5.504 15.454.384 4.215 4.677 7.364 8.585 7.603 19.985 1.195 22.05-28.237 25.293-23.808l2.884 3.95c2.372 3.243.299 9.268 18.68 6.58l5.077-7.543c1.433-2.134.93-8.372.077-10.77l-1.289-3.635c-1.143-3.234 11.256-1.485 15.121-13.49-3.789-2.109-7.415-3.832-10.803-4.89l-5-1.554c-1.298-.4-3.55 1.716-4.805 2.936l-6.477 6.323c-1.425 1.391-7.244 2.227-7.782.145-1.442-5.564-8.337-12.467-14.626-8.354-8.516 5.555-7.28 13.466-10.12 12.254l-4.686-1.997c-3.677-1.57 8.073-10.18 5.342-18.568-1.97-6.034-13.935-9.822-8.96-17.076 12.066-17.587 14.191-6.485 17.878-14.387 6.912-3.6 9.062-10.71 11.733-18.96 3.533-9.038 11.844-13.936 4.65-25.234-1.68-2.637-6.288-5.623-8.772-5.513l-9.241.393-.623-6.886c-.068-.743.828-3.917 1.527-3.644l3.328 1.323c1.997.793 7.083 2.551 9.148 1.996 4.113-1.1 15.812-9.762 9.43-18.884-3.004-4.292-10.471-5.956-13.987-1.852l-10.521 12.314-9.208-4.762c-14.762-2.875-1.664-6.946-.7-21.81l8.27-2.006-.59-12.152c-.128-2.577-5.751-6.229-7.893-7.688l-8.72-5.956c-.684-10.428-10.386-8.406-10.924-13.987-.239-2.474.794-9.105-.665-10.845-2.048-2.441-7.245-5.539-10.095-7.1-5.982-3.277-11.034-1.843-15.19 2.841l-3.148 3.55c-.7.785-4.48-1.988-4.71-3.003-1.92-8.406 8.191-11.452 7.364-13.056-2.637-5.129-10.641-10.983-6.571-17.673 4.258-7.006 14.19 1.1 19.524-10.522 4.318-9.403.435-23.082-12.049-23.38-6.852-.163.973 15.188-3.49 14.736-14.857-1.485-6.042.913-24.858 6.084l-2.944-2.389c1.929-4.002 4.54-8.627 3.798-10.829-.93-2.747-4.463-6.041-6.213-8.644-4.864-7.236 6.964-20.813 2.228-22.161l-5.658-1.604s-.913-2.16-1.195-2.816l4.71-8.653c1.511-2.773 8.68-6.28 9.217-9.404l2.176-12.723c.631-3.712-1.007-9.216-3.14-11.58-2.45-2.713-9.916-1.544-12.365-3.294l-11.589-8.251c.803-2.842 1.912-7.535 2.56-11.367l1.212-7.15c2.347-1.29 8.098-3.363 10.957-2.535l18.074 5.222c3.814 1.101 6.869 3.73 8.465 7.885 3.063 7.953 8.32-2.056 17.766 7.996l12.382 13.184c8.67.623 10.01-6.998 15.923-1.425l4.37 4.121c10.06-1.817 22.297-4.198 26.205 7.68 1.869 5.684 5.402 9.583 8.405 14.345 8.039 12.74 5.786 14.08 13.287 21.043 9.327 8.653 19.055-5.734 28.339 8.175 5.146 7.714 16.017-2.398 19.388 12.433.418 1.835 2.355 4.838 3.89 6.69 8.014 9.694-2.277 9.89 5.915 21.803 2.013 2.927 6.425 3.166 10.077 2.04 6.99-2.151 2.339 8.225 11.017 8.6 4.497.197 11.204 1.34 12.851 4.054l8.226 13.526-1.374 10.257 9.293 12.006c6.426 8.303 16.461-9.643 35.857 9.472 4.933 4.864 8.918 10.598 9.319 16.913zM611.84 427.827c10.044-6.033 9.199-20.002 5.444-25.463-1.672-2.424-8.15-4.42-10.29-5.052l-9.396-10.547c-2.133-2.39-8.61.554-9.916 3.26-3.772 7.816-4.369 14.634 2.415 21.077 2.244 2.133 7.629.939 11.648-1.408.12.094 1.818 2.611 2.534 3.96zm321.357 123.46c-3.926-.742-6.87-.998-8.627-.34-.3.656 1.245 4.172 2.09 3.728l3.064-1.587zm-173.398 20.378c5.197-3.823 6.571-10.146 2.117-14.814-10.317-2.244-20.967 1.528-26.522 10.658-1.28 2.1.18 8.585 2.475 9.182 8.311 2.168 15.727-.46 21.93-5.026m3.525 58.044c3.131-2.364 2.594-8.44-.359-10.368-13.781-8.994-31.829 3.14-29.875 9.48 1.613 5.248 17.579 10.428 30.234.888m-129.63 59.247c-.282-1.22-1.639-4.088-2.637-5-11.016-10.07-23.987-6.085-35.541.58-2.023 1.169-1.8 7.278-.23 8.618 13.977 11.947 39.876 2.261 38.408-4.207z"/><path fill="#1d1c1d" d="M618.3 554.53c-3.687 7.902-5.82-3.208-17.878 14.387-4.975 7.254 6.998 11.042 8.96 17.076 2.74 8.388-9.02 16.998-5.341 18.568l4.684 1.997c2.842 1.212 1.605-6.699 10.12-12.254 6.298-4.113 13.185 2.79 14.627 8.354.538 2.082 6.357 1.255 7.782-.145l6.477-6.323c1.246-1.22 3.507-3.337 4.804-2.936l5.001 1.553c3.388 1.05 7.014 2.782 10.803 4.89-3.865 12.006-16.264 10.257-15.12 13.491l1.288 3.635c.853 2.407 1.356 8.645-.077 10.77l-5.077 7.543c-18.381 2.688-16.316-3.337-18.68-6.58l-2.884-3.95c-3.243-4.429-5.316 25.003-25.293 23.808-3.908-.23-8.2-3.388-8.585-7.603-.955-10.53 10.676-14.072 5.504-15.454-.878-.23-4.104-.53-4.437.256-.503 1.186-1.638 4.975-2.159 5.965-5.743 10.973-17.894 6.016-18.688 15.53l-1.365 16.427 10.82-.06c8.713-.051 13.96 7.663 13.022 11.008-1.707 6.102-12.373 9.19-18.202 7.842l-12.518-2.884c-9.754 4.335-16.922.606-24.542-4.07l-8.516-5.231-14.242 15.198c-2.74 2.927-8.303 5.981-12.621 6.246-4.574.273-8.098-3.132-8.696-7.296-1.288-8.994-7.475-.691-14.754-9.515-1.237-1.502-3.14-3.55-3.968-2.884l-2.858 2.321c-2.321 2.236-4.6 8.312-2.262 9.668 3.559 2.065 6.793 4.113 8.098 5.923 1.118 1.544.094 6.843-1.408 8.234-6.877 6.383-20.275 8.926-28.279 1.417-1.365-1.28-5.29-2.535-7.083-2.816l-1.211 8.772-1.23 10.914c-8.942 1.144-8.439 7.876-22.485 8.423-1.288.05-5.12-1.613-5.222-2.902l-.29-3.857 2.227-2.807c.41-.52-1.51-1.87-2.261-1.997l-13.884-2.338c-1.092 1.305-4.992 5.18-5.069 7.074l-.367 8.84c-1.544 4.259-6.52 7.433-12.236 6.4-5.795-1.04-12.698-7.8-13.304-13.448-.222-2.125 1.946-7.04 2.893-9.353l-3.73-2.918c26.266 6.536 19.952-8.166 37.283-2.355l4.864-3.917c-1.468-2.116-4.864-7.672-3.584-9.37 2.423-3.225 6.298-7.347 9.71-10.99l-5.426-5.368c-6.494 2.082-11.256 3.43-16.487 3.985l2.065-1.766c2.304-.811 5.666-2.313 7.527-2.731l16.947-3.814 6.57 3.618c1.545.128 5.479-5.65 4.395-7.723-4.608-8.798-10.24-11.665-7.629-12.86l3.619-1.655c2.97-1.357 6.579-3.456 9.779-5.444.341-.53 4.207 2.176 3.26 3.148l-3.576 3.653c-2.355 2.415-3.823 12.902.256 15.564 1.946 1.272 5.129 2.842 6.818 3.175 8.423 1.638 10.146-18.21 10.744-21.052 1.083-5.18 1.962-8.84-1.545-13.525-2.005-2.68-1.544-8.892 1.391-10.12l9.728-4.054c-2.876-1.067-7.85-3.44-8.627-5.692-3.567-10.248-.23-17.135 3.447-15.787 3.03 1.11 8.687 5.47 9.959 7.92l-2.603 13.508 6.212 8.866c2.356 3.362-9.847 10.436-12.373 19.96 9.472 6.655 5.854 7.133 12.723 15.982 3.507-2.04 8.132-5.811 8.679-8.584.588-3.013-.325-8.875-1.86-11.298-3.619-5.71-.632-10.47 4.659-13.022 2.133-1.033-.495-6.315-.803-8.474l-1.757-12.34 8.49-5.682c11.358 5.615 7.86 2.508 22.426 9.25 1.536.717 6.818.341 6.664-1.229-1.647-16.717-7.74-15.036-6.818-21.419 1.835-12.689-8.2-10.735-1.792-13.21l4.958-1.91c1.28-.496 2.688 3.95 3.106 5.64.333 1.348 4.412 3.063 5.735 2.423l9.565-4.616c.905-.435 2.296-3.175 2.339-4.173.23-5.18-8.448-2.492-14.499-11.315-3.933-5.735 13.97-4.002 15.77-9.711l2.782-5.171 8.712 5.794c6.477 4.31 12.886 7.552 20.233 8.926 1.118 1.723 4.94 5.82 7.083 6.058 4.318.478 10.897-7.458 6.997-11.05-1.843-1.69-5.794-4.702-7.774-5.803l-12.16-6.716 7.364-10.112 6.409 5.76 5.87-10.18c.752-1.306 1.938-4.95 2.407-6.144 7.347-1.425 10.991-6.178 13.466-13.338l10.743 4.668 3.064 10.872c-5.64 9.54-9.028 11.426-1.229 22.041l5.453-.06zm-116.43 89.84c5.01 4.47 10.676 3.575 16.283-.777 3.498-10.71-1.955-22.827-8.832-23.092-4.856-.187-10.283 4.233-13.876 8.124-.136 6.4 1.81 11.622 6.426 15.744"/><path fill="#060506" d="M394.957 679.441c5.23-.555 9.992-1.903 16.486-3.985l5.427 5.367c-3.413 3.653-7.287 7.774-9.71 10.991-1.28 1.707 2.124 7.254 3.583 9.37l-4.864 3.917c-17.33-5.811-11.016 8.883-37.282 2.355l-6.767-1.681-6.732-2.56c-.282-2.321-.572-7.262-1.4-9.173l-2.466-5.64c5.777 2.892 12.809 3.95 17.971-.41-.29-3.943-2.116-8.491-4.497-12.033l-.563-3.84c16.213 8.201 12.817 9.225 30.814 7.314z"/><path fill="#242424" d="M546.193 731.904v1.937l-10.88-1.638c-2.509-.376-5.41-5.777-5.845-8.27l-13.312-1.783c-2.381-.315-6.494 2.432-9.43 3.43l-15.155 5.163c-6.673 2.27-6.323-9.574-7.97-9.565-1.297 0-4.079.11-5.743.221l-5.538.384 1.314-2.184 6.93-.589c-1.11-4.983.707-10.487 5.921-13.073 4.779-2.372 11.87-3.226 17.622-1.783 10.897 2.73 8.268 16.452 17.246 17.519 7.45.878 11.776-2.654 15.42-8.466 6.45-10.3 25.437-15.13 28.944-6.11.905 2.322-.674 8.304-2.747 9.61l-8.918 5.614-12.689 8.312 4.83 1.288z"/><path fill="#252525" d="M670.703 703.83c6.87.4 3.405-1.434 8.994-2.885l2.714 9.122c-6.93 11.392-10.257 3.516-11.435 14.746-.12 1.177-3.422 3.584-4.267 2.739l-3.916-3.891-10.18-1.579c-4.114-.64-8.261-3.96-11.623-7.612l-10.453.043c-.308-.154 2.585-2.244 3.421-2.253l8.15-.136-1.468-6.793c-1.084-5.034 2.978-10.172 7.433-12.458 4.582-2.356 12.595-1.357 13.85 3.754l2.175 8.875 6.613-1.681z"/><path fill="#1b1b1b" d="M698.598 701.96c-.418.538-3.805 1.007-4.847.461l-6.562-3.413-7.492 1.946c-5.59 1.45-2.125 3.285-8.994 2.884-.213-.009 2.056-2.884 2.859-3.132l11.963-3.746c-.58-7.04-7.927-6.844-9.386-13.397s9.6-18.219 14.02-17.8c6.664.622 12.689 4.189 17.783 8.49 2.663 2.244 1.733 10.146-.443 12.996-8.184 10.7-19.243 8.405-15.582 10.65l2.876 1.758 3.797 2.32z"/><path fill="#3c3c3c" d="M756.94 690.159c-.221.051 1.597-1.45 2.177-1.664l10.274-3.814c9.259-3.44 3.644 2.807 22.52-6.733l1.91 7.176c1.213 4.549-.05 10.735-3.404 14.285-2.782 2.953-9.148 4.787-13.747 3.994-7.484-1.297-12.015-5.957-13.022-13.346l-6.699.093z"/><path fill="#181718" d="m86.067 535.245 4.438 13.457c-.811 9.677-14.891 10.163-22.272 9.199-2.979-1.272-6.477-3.73-7.28-6.272-2.064-6.554 6.503-15.326 13.722-15.736l11.4-.648z"/><path fill="#ebebeb" d="M103.902 619.597c-1.357-.103-1.724-3.021-2.398-5.282l-1.237-4.13c-.18-.606-1.647.281-2.21.298l2.525-2.628 3.166-3.277c.973-1.007-.631-5.547-2.022-5.64l-8.807-.197c-.136-.802 3.602-2.747 5.035-2.508l5.743.947c1.092.179 1.22 2.355 1.963 5.265.435.094 2.56.597 2.61-.265l.283-4.292c.076-1.229-1.997-3.67-3.115-4.156l-5.871-2.568c-2.782-1.22-4.958-7.535-5.376-11.008l-3.37.358c1.245-1.075 2.312-5.965.853-7.142-4.89-3.951-11.281-8.175-16.376-8.243-.631-1.4-2.201-3.909-3.353-4.694l-3.721-2.543c7.39.973 21.461.487 22.272-9.199l-4.437-13.457c7.338-4.744 1.937-2.747 7.321-8.857.017 1.996.64 5.077 2.023 5.632l3.823 1.527c2.713 1.084-8.824 7.876-1.997 17.033-.017.964-.026 3.643-.017 3.234l-4.54 5.077c-1.22 1.357.452 6.87 2.227 7.27l6.58 1.46-3.866 9.207c-1.86 4.429-1.434 10.505 4.002 13.15 10.65 5.18 15.411-3.772 25.95 2.697l-9.89 7.825c-2.279 1.8-4.625 6.57-6.102 9.472l-6.476 2.892c-1.57.7-1.349 5.342-1.187 6.742z"/><path fill="#212120" d="M189.201 672.358c0 .598-.094 1.28.085 1.622l1.895 3.67-.93 8.012c-.401 3.473-7.476 5.572-10.513 3.95-7.595-4.053-8.824-11.673-5.812-18.585l1.622-3.72 8.055-.077z"/><path fill="#d5d5d5" d="m200.243 670.447-1.826-3.166c-.52-.904-3.891-.538-5.163-.392l-5.99.733 1.946 4.736-5.598-5.128-8.056.077c.418-.965 1.664-2.39 2.705-2.432l4.088-.137c-.41-.75-1.442-2.278-1.45-3.097l4.82 2.423c1.81.913 5.88.981 10.812 1.323l-.742-9.976c2.688-1.792.648 2.705 10.94 4.088l9.198 1.237c.632.085 2.1 1.382 2.569 1.8s-1.946 1.972-2.594 1.955l-8.61-.214c-2.287-.06-5.47 4.054-7.04 6.153z"/><path fill="#626463" d="m820.207 454.34-6.025 5.214c-.836 1.306-2.09 3.994-2.568 5.538l-1.63-2.235-4.574-6.221c-1.715-2.33-2.457-8.243-2.645-11.153l2.841 4.949c2.68-3.191 10.684-4.77 12.894-1.766.854 1.16 1.536 4.369 1.707 5.683z"/><path fill="#656565" d="m414.327 718.003-.503-2.415c-.128-.597-.785-.614-3.763-1.86l-3.388 3.345c-.828 2.398-1.587 4.966-2.748 4.94l-5.708-.119-3.252 4.89.367-8.84c.077-1.895 3.977-5.77 5.07-7.075l13.883 2.338c.75.128 2.67 1.477 2.261 1.997l-2.227 2.808z"/><path fill="#c4c4c6" d="M145.604 486.323c1.46.23 4.19-.418 5.231-1.416l3.806-3.661-6.554-7.697 3.098-3.226c-.776 3.652 1.971 7.16 5.478 9.344l-.452 5.7 7.595 2.603-19.38 7.134 1.178-8.772z"/><path fill="#575858" d="M825.583 461.687c.81.649 3.183 2.142 3.2 3.15l.094 5.512c-4.113 1.954-12.519 3.149-13.466-4.199-.4-3.106 7.39-5.81 10.172-4.463"/><path fill="#464646" d="m953.933 549.35-10.564.026c.392 1.297.759 2.526.7 2.321l-3.593.922c-2.415.623 3.976 5.307 2.304 4.428.077.043-1.502 2.731-2.006 2.688l-9.847-.98c-1.46-.146-3.533-.769-3.482-.035l.18 2.842-1.929-1.349c-.896-.623.52-4.463 1.613-4.446l10.41.197 3.474-7.441 10.973-1.656 1.767 2.466z"/><path fill="#c4c4c6" d="m145.425 484.59-10.624-.298-1.596-1.45 11.375-.504z"/><path fill="#1b1b1b" d="M706.185 700.348c-1.374.657-3.49 1.22-5.376 1.527.887-.426 3.652-1.16 5.376-1.527"/><path fill="#d5d5d5" d="m191.18 677.65-1.894-3.67c.785.247 1.903.443 1.929 1.04.026.632.043 2.015-.026 2.62zm9.003-1.793c-.315-.026-2.739-2.065-1.928-2.509l2.03-1.11z"/><path fill="#141413" d="M526.933 550.315c-2.782 2.32-11.008 5.24-14.054 3.831-5.897-2.713-8.986-10.445-11.785-15.94l-2.85-5.615c-2.099-4.139 10.266-.734 13.568-12.63 5.197-18.764-7.594-16.366 3.977-28.364L527.377 490c2.509 1.638 5.854 9.72 3.917 12.706l-6.153 9.506c5.854 10.889-7.637 11.136-2.543 17.818l5.675 7.45c2.645 3.473 2.808 9.378-1.34 12.834"/><path fill="#0d0d0d" d="M275.541 676.608c-.87.777-2.295 2.611-2.645 2.21l-2.74-3.157c-1.825-2.108-4.786-4.822-7.09-6.059l-10.12-5.436 12.833-9.72 1.724 9.063c1.084 5.675 9.941 6.247 13.986 2.347 1.835-1.766 4.489-5.103 5.282-6.972l3.985-9.318c10.82 7.91 16.504-1.314 19.627 2.594 4.053 5.077-.649 17.186-3.704 17.732-7.808 1.408-12.108-10.308-22.007-1.459l-9.14 8.175z"/><path fill="#0a0909" d="M414.78 598.11c-4.54-2.654-10.12-6.759-11.904-10.53-.81-1.707 1.476-7.373 3.294-7.63l9.6-1.364 3.575-15.633 10.402-7.168 1.024 11.4c1.135 12.587 5.547 14.029-4.454 21.88l-11.537 9.053z"/><path fill="#070707" d="m322.825 694.366-5.778-3.78c.325-1.332.103-5.718-.972-7.57l-4.02-6.929 12.75-1.638 16.63-1.758 5.684 13.193c-5.7-.222-14.737-.034-18.611 3.43l-5.675 5.06z"/><path fill="#0c0c0b" d="M142.234 539.947c-.666.844-2.552 2.85-2.612 2.184l-.324-3.772c-.35-4.078-2.312-8.499-5.52-10.154l-6.077-3.123 2.816-7.39c7.808-3.362 14.806-5.018 24.039-5.29.17 6.228-2.765 15.095-5.71 18.917l-6.63 8.628z"/><path fill="#080808" d="M329.105 603.819c4.787 11.776-4.036 18.355-13.696 22.118-3.396 1.323-8.15-.981-10.684-5.154 8.244-6.776 15.71-11.844 24.389-16.956z"/><path fill="#070607" d="M515.934 319.24c1.015.129 2.995 3.567 2.304 4.31l-2.714 2.952c-.913.999-4.394-2.244-4.719-3.575l-.81-3.268c-.222-.905 4.266-.632 5.939-.418"/><path fill="#c4c4c6" d="M164.966 483.396a.879.879 0 1 0 1.758 0 .879.879 0 1 0-1.758 0"/><path fill="#202022" d="m611.84 427.827-7.56-14.174c-.717-1.348-2.415-3.865-2.535-3.96-4.02 2.339-9.404 3.542-11.648 1.409-6.784-6.443-6.178-13.26-2.415-21.077 1.306-2.706 7.783-5.65 9.916-3.26l9.395 10.547c2.142.623 8.627 2.62 10.291 5.052 3.755 5.461 4.591 19.43-5.444 25.463"/><path fill="#2a292c" d="M633.694 688.956c1.468 6.468-24.423 16.145-38.409 4.207-1.57-1.34-1.792-7.458.23-8.619 11.555-6.665 24.517-10.65 35.542-.58.998.913 2.364 3.78 2.637 5z"/><path fill="#2f2e30" d="M763.324 629.709c-12.655 9.54-28.621 4.36-30.234-.888-1.954-6.34 16.094-18.474 29.875-9.48 2.953 1.928 3.49 8.004.359 10.368"/><path fill="#282829" d="M759.8 571.665c-6.204 4.557-13.62 7.194-21.931 5.026-2.296-.597-3.746-7.082-2.475-9.182 5.555-9.13 16.196-12.902 26.522-10.658 4.454 4.668 3.08 10.991-2.117 14.814"/><path fill="#464646" d="m933.197 551.287-3.473 1.801-3.064 1.587c-.845.435-2.39-3.08-2.09-3.729 1.749-.657 4.701-.4 8.627.341"/><path fill="#2c2b2b" d="M501.87 644.37c-4.616-4.114-6.561-9.345-6.425-15.745 3.593-3.883 9.02-8.303 13.876-8.124 6.877.265 12.33 12.382 8.832 23.092-5.607 4.352-11.273 5.248-16.282.776"/><path fill="#6b696a" d="M869.888 475.418c-2.79 2.662-8.081 3.61-11.588 2.278-1.656-.631-2.39-6.255-.683-6.86 3.098-1.102 8.696.46 12.271 4.573z"/><path fill="#454643" d="M85.914 580.89c-1.05 2.056-1.357 4.224-1.383 7.296-.12.87-.631 2.781-1.493 2.662l-5.658-.76-2.287-3.029c-.64-.845 1.724-3.473 2.74-3.968l4.155-2.03 3.943-.171z"/></svg>