<svg xmlns="http://www.w3.org/2000/svg" viewBox="0 0 1024 1024"><path fill="#e9a14c" d="M634.871 210.492c-21.137-42.735 9.379-89.626 58.198-75.537 19.114 5.512 15.42 28.339 19.004 33.032 1.62 2.125 44.125 15.198 51.268 15.25 27.221.178 42.99-32.086 76.766-.846 10.974 10.147 9.173 25.353 30.907 28.11 3.883 14.864 3.934 38.032 7.902 51.14 2.833 9.352 16.41 13.696 19.038 22.638 2.825 9.609 5.402 31.864 7.791 44.306.53 2.747-15.565 30.83 1.007 47.616 26.035 8.132 43.648 8.704 68.454 21.845-34.551-1.4-1.297 35.004.171 44.98 1.51 10.248 1.596 38.715-1.032 47.922-8.431 29.5-97.332 18.961-109.295 71.382-4.557 19.96 4.24 22.903 12.92 37.145-20.14-13.073-9.883-5.009-16.99 7.177-19.371 33.203-82.177 94.694-87.263 128.281-3.643 24.005 6.699 14.004 12.169 18.705 5.675 4.873 12.97 28.69 26.829 32.99l37.478-13.517c-.947 1.246 2.227 11.606-6.69 17.596-12.527 8.423-45.96 12.621-62.9 20.472-48.528 22.51-50.141 76.638-90.35 104.132-41.558 28.416-65.314-2.944-94.387-30.49-38.35 16.726-51.943 2.833-79.062-21.41-4.71-10.223-12.33-20.053-13.892-31.274-2.833-20.395 1.929-44.886 0-65.963 10.615-27.145 22.81-55.168 31.659-82.927 4.54-14.242 4.923-22.648-3.874-35.149 6.766 2.372 15.974 4.07 23.236 6.016 59.912-10.914 84.019-102.16 39.279-137.984 31.249-31.838 47.77-61.184 41.557-107.537-4.232-31.599-33.519-65.963-17.229-100.804 9.378-20.062 41.899-40.986 37.41-64.802-1.996-10.582-14.933-22.085-20.061-32.461zm208.367 194.474c5.027-10.12 11.793-19.9 13.97-31.155-8.764-21.154-6.554-45.815-17.477-66.048-3.498-6.477-12.945-9.395-16.179-18.551-10.65-30.14-11.469-54.136-42.99-75.085-23.894-15.88-55.63-12.117-72.773-38.332l-9.677 23.518c26.453 29.414 37.555 80.12 16.563 115.311-6.878 11.537-27.008 17.715-24.243 34.773 26.889-10.368 52.062-5.342 79.718-7.074 13.603-.853 24.995-16.853 38.366 3.661 1.579 6.05-21.999 43.588-27.759 48.606-23.5 20.497-75.742 1.024-94.156 51.712-10.283 28.296 9.48 21.717 21.256 35.004 8.85 9.984 6.246 27.887 17.297 34.79 1.067 23.51 9.08 42.487 7.228 66.313-2.603 33.425-16.717 95.914-38.724 120.977-13.355 15.206-41.285 22.988-44.945 45.363-2.467 15.104 6.57 10.794 17.467 10.53 22.648-.555 38.05-12.561 55.638-27.725C813.9 652.17 738.85 509.44 801.365 449.93c11.426-10.872 29.893-17.127 38.528-31.224 3.61-5.888 2.236-11.511 3.337-13.73z"/><path fill="#d98834" d="m183.407 293.837 20.821.094c-1.433 37.367-19.294 68.258-13.866 107.554 2.799 20.275 31.803 52.394 35.089 76.476l-3.601 10.547c-61.04 52.48-20.736 89.813 44.91 97.05 10.514 17.399 11.828 37.648 24.491 55.38 4.139 5.803 30.2 39.237 32.128 41.046 3.251 3.038 10.155-.282 12.834.81 17.033 6.955 24.047 25.268 34.731 34.731l-13.739 52.378-.827 23.364c-34.612 2.313-13.475 35.917 4.94 41.515 12.425 3.78 26.565.964 37.41-6.127-1.254 2.543.521 12.92-3.157 20.932-15.718 34.168-53.615 47.684-86.86 30.874-12.067-6.102-32.666-28.143-39.34-30.106-18.38-5.41-46.455 2.628-67.464-1.988-15.47-3.405-49.288-24.678-60.288-36.958-37.23-41.557-52.352-90.914-34.918-145.331C42.615 616.755-15.957 561.68 3.959 472.098c2.629-11.827 31.412-51.703 40.542-67.115 1.647-2.781 9.396-4.923 7.237-13.85 15.906 12.007 24.73 2.663 41.378-.033 1.169 12.518-1.835 26.513-.137 38.647 1.306 9.31 6.93 9.378 7.091 9.967 2.45 8.653 4.037 19.567 6.947 27.785-10.83 14.37-40.636 16.145-42.138 38.246-.367 5.41 19.336 95.147 22.494 102.946 6.81 16.82 42.223 36.642 46.464 50.782 1.271 4.25 6.92 36.77 6.69 39.518-1.178 14.268-17.75 30.242-11.878 48.853 2.372 7.527 23.04 32.717 30.353 39.27 30.404 27.265 83.567 47.514 106.461 2.049 22.964-45.585-3.524-53.99-20.864-87.646-14.259-27.674-22.963-58.001-41.267-83.755-13.781-19.38-35.31-34.944-47.07-57.335-5.913-19.473 24.884-33.016 33.588-48.623 1.945-9.327-10.266-23.868-13.372-30.413-34.697-73.276-54.776-117.487 6.946-187.529z"/><path fill="#ce7b2a" d="M975.206 398.02c32.692 17.314 47.523 41.515 48.794 79.778-3.96 34.996-61.602 59.93-68.676 91.503-7.45 33.272 27.34 45.04 32.674 69.436 8.124 37.163-26.752 70.613-60.519 79.625-6.246 24.832-.964 51.268-8.942 77.935-2.757 9.207-25.08 36.155-33.827 42.58-26.368 19.389-50.636 18.092-78.395 25.789-36.37 10.077-32.828 53.913-56.593 75.375-11.495 10.385-54.93 28.842-69.42 27.793-30.42-2.193-58.563-38.144-77.72-40.986-11.452-1.698-50.808 18.67-64.948-.956 6.86.93 36.514 4.72 34.714-6.929-30.652-5.82-43.571-29.56-55.552-55.586 27.119 24.243 40.712 38.144 79.061 21.41 29.073 27.546 52.83 58.906 94.387 30.49 40.2-27.486 41.822-81.622 90.351-104.132 16.939-7.86 50.381-12.058 62.9-20.472 8.908-5.99 5.742-16.35 6.69-17.596 4.795-6.314 16.06-8.815 19.669-25.472 4.582-21.137-3.285-48.503 2.15-67.302 2.79-9.668 23.663-29.542 26.018-43.725 1.656-9.924-14.233-27.571-20.061-37.137-8.679-14.242-17.477-17.186-12.92-37.146 11.964-52.42 100.864-41.881 109.295-71.38 2.628-9.2 2.534-37.676 1.033-47.924-1.468-9.976-34.723-46.387-.171-44.98z"/><path fill="#f2b45d" d="m322.321 134.084-13.918 20.83 21.129 3.175 13.047 61.764c-26.692 42.086-65.186 101.154-53.845 152.73 3.592 16.358 23.816 32.58 19.703 53.23-33.68 49.093-47.727 99.653-41.676 159.753-65.647-7.228-105.95-44.57-44.911-97.05l3.6-10.547c-3.276-24.081-32.28-56.2-35.088-76.476-5.428-39.296 12.433-70.186 13.866-107.554l-20.821-.094c3.9-15.198-20.984-23.91-34.432-28.108l13.594-62.191c1.69-3.004 0-9.148 6.596-17.51 40.73-51.568 71.526-19.517 114.09-31.967 12.707-3.72 9.088-18.056 39.058-19.976z"/><path fill="#9b4617" d="M530.688 71.578c8.243 5.495 10.957 22.127 13.892 27.784 5.811 19.746-11.46 24.218-17.51 34.773-4.958 8.653-1.954 17.86-3.328 20.796-30.473 65.075-38.238 95.446-35.038 170.48.538 12.646 8.311 22.51 7.535 34.115-.998 14.891-16.777 48.427-28.066 59.341l-31.258-27.033c-3.396 1.903-6.775 5.478-10.419 6.195-4.326.853-11.179-1.272-13.892 0l-6.946-125.022c5.896-14.037 9.344-27.34 13.892-41.677 12.791-5.854 10.06-34.364 15.172-40.72 22.23-27.675 22.247-35.15 39.049-68.276 10.59-20.873 33.826-33.835 22.186-57.685 2.15-2.1 31.07 4.497 34.722 6.937z"/><path fill="#e1943b" d="M377.882 154.923c-4.83-1.494-12.16-8.815-13.876-6.964-7.773 12.724-2.747 58.923 10.428 62.516 26.667 7.27 39.339-46.089 65.937-48.606 2.671 3.046-16.503 43.537-19.481 53.717-1.767 6.025-.316 12.51-1.34 15.744-4.548 14.328-7.996 27.64-13.892 41.677-23.535 56.004-62.464 102.118-97.238 152.806 4.113-20.65-16.11-36.872-19.703-53.23-11.341-51.576 27.161-110.644 53.845-152.73l-13.047-61.764-21.129-3.175 13.918-20.83c21.01-1.348 45.91-.102 55.57 20.839z"/><path fill="#e0913d" d="m822.4 134.084 4.062 6.17c3.106 1.604 6.733.145 9.83.776 2.355.478 5.052-.657 6.946 0 2.168 10.087 10.718 15.036 20.839 13.893 8.567 6.289 8.158 7.355 13.892 13.892l-20.855 10.47.273 6.562c10.726 8.192 10.837 13.927 13.636 24.645-21.734-2.757-19.934-17.954-30.908-28.11-33.775-31.231-49.544 1.033-76.766.846-7.142-.051-49.647-13.125-51.268-15.25-3.584-4.684.111-27.51-19.004-33.032-48.827-14.088-79.334 32.794-58.197 75.537l-20.01 7.783c-1.58 14.703-2.962 23.995-14.72 33.885-.769-17.34 1.006-34.995.324-52.377-.743-19.038-2.347-20.557-.53-41.532 1.93-22.297 4.609-43.776 7.151-65.843 4.668-3.968 7.518-16.828 18.21-19.977 21.189-6.237 69.505 8.756 88.483 20.933 28.791 18.474 27.827 44.953 70.263 40.584 20.182-2.082 12.63-7.765 38.358.128z"/><path fill="#f6c372" d="m162.569 203.546-13.594 62.19c13.448 4.19 38.34 12.911 34.432 28.11-61.722 70.05-41.643 114.252-6.946 187.528 6.741 36.429-46.387 47.855-59.222 21.026-5.222-10.914-1.34-21.188-4.369-30.302-1.245-3.746-5.734-4.25-5.862-4.616-2.91-8.218-4.497-19.132-6.946-27.785.793-14.464-1.988-29.756 1.126-44.032 2.808-12.86 20.054-30.208 19.806-42.7-.136-7.109-6.545-13.936-7.262-21.249-2.048-20.847 21.376-38.75 21.043-58.718-6.417 4.66-14.506 4.557-20.82 6.947 25.54-15.335 28.5-45.714 40.14-67.806 2.654-5.035 7.663-7.143 8.474-8.593"/><path fill="#a9531d" d="M530.688 648.064c8.798 12.51 8.414 20.907 3.874 35.149-8.849 27.759-21.043 55.782-31.659 82.927-.179.452-4.949.76-6.075 4.36-5.436 17.46 6.741 38.733-19.013 50.816l-16.588-6.562c-.162-2.304.11-4.633 0-6.946-1.588-33.246 5.137-74.035.162-107.819-1.886-12.8-15.6-17.502-14.055-31.095 10.573-27.879 5.462-28.1 39.245-40.909 9.003-1.485 32.342 15.949 44.109 20.07z"/><path fill="#c16924" d="m461.227 807.817-31.045-27.572c-3.225 1.033-28.066 41.48-31.47 48.41-10.846 7.091-24.986 9.907-37.41 6.127-18.416-5.598-39.553-39.202-4.941-41.515l.827-23.364 13.739-52.378c17.74 15.719 53.64 37.197 62.49 3.448 5.282-20.139 6.212-31.761 13.917-52.07-1.536 13.593 12.177 18.295 14.055 31.095 4.966 33.783-1.75 74.573-.162 107.819"/><path fill="#d17e33" d="M530.688 71.578c-3.652-2.44-32.572-9.037-34.722-6.938 11.648 23.85-11.597 36.813-22.187 57.685-16.802 33.118-16.819 40.602-39.048 68.276-5.112 6.357-2.381 34.867-15.173 40.72 1.024-3.225-.426-9.719 1.34-15.743 2.978-10.18 22.153-50.663 19.482-53.718-26.599 2.518-39.27 55.877-65.937 48.606-13.184-3.592-18.202-49.792-10.428-62.515 1.715-1.852 9.045 5.478 13.875 6.963 5.282 1.63 12.314.273 17.46 6.076 18.764-17.52 19.344-46.575 34.815-68.403 22.127-31.24 68.122-52.36 100.532-21.018z"/><path fill="#e9aa56" d="M600.14 252.16c-2.397 2.014-11.05 6.895-13.891 6.946l-6.947-6.946c-.76-2.167.862-5.188 0-6.946-3.345-6.852-6.067-14.387-10.607-20.625-16.384-22.52-51.746-35.67-44.953-69.666 1.374-2.927-1.63-12.143 3.328-20.796 6.041-10.556 23.313-15.027 17.51-34.773 1.135 2.184 9.319 5.051 7.22 13.576 20.735 4.13 40.174-7.68 55.295-20.523-2.542 22.068-5.222 43.555-7.15 65.844-1.818 20.975-.214 22.485.529 41.531.682 17.383-1.093 35.038-.325 52.378z"/><path fill="#e49f47" d="M100.053 439.697c-.17-.589-5.794-.657-7.09-9.967-1.699-12.134 1.305-26.12.136-38.647-16.649 2.696-25.472 12.032-41.378.034 2.158 8.926-5.59 11.076-7.237 13.85.93-63.139 6.844-101.325 69.453-125.022 6.315-2.39 14.404-2.287 20.821-6.947.325 19.968-23.09 37.863-21.043 58.718.717 7.322 7.126 14.149 7.262 21.248.248 12.485-16.99 29.841-19.806 42.701-3.123 14.285-.341 29.568-1.126 44.032z"/><path fill="#d78630" d="M877.97 168.815c1.245 1.425 6.988 1.894 10.24 6.835 12.91 19.593 10.393 44.382 21.085 62.558 13.62 23.16 61.27 28.638 36.898 68.352l-40.44 22.007c-2.389-12.441-4.957-34.696-7.79-44.305-2.629-8.934-16.214-13.277-19.038-22.639-3.96-13.098-4.01-36.275-7.902-51.14-2.799-10.718-2.91-16.444-13.636-24.644l-.273-6.562 20.855-10.47z"/><path fill="#c16924" d="M516.796 863.377c11.99 26.018 24.9 49.758 55.552 55.586 1.8 11.648-27.853 7.86-34.714 6.93-12.783-1.733-11.844-6.06-13.892-6.947l-27.785-20.838c-1.322-1.468-6.878-1.963-10.24-6.827-13.764-19.95-22.818-52.267-24.49-76.518l16.588 6.562c25.754-12.083 13.577-33.357 19.013-50.816 1.126-3.601 5.896-3.908 6.075-4.36 1.929 21.077-2.824 45.576 0 65.962 1.554 11.221 9.182 21.043 13.893 31.275z"/><path fill="#e9a14c" d="M864.077 154.923c-10.112 1.152-18.671-3.806-20.839-13.893 10.957 3.806 13.594 8.576 20.839 13.893m-27.785-13.893c-3.097-.631-6.715.828-9.83-.776l-4.062-6.17c2.918.896 6.793-.776 9.788.947z"/><path fill="#ce7b2a" d="M523.742 918.946c-2.79-1.212-8.354.572-13.781-3.336-7.988-5.76-9.481-12.485-14.004-17.502z"/><path fill="#f2b057" d="m426.505 398.02 19.89 7.86c.41 6.997 7.211 15.018 7.894 19.925 3.251 23.373-2.338 52.164 0 76.39 8.21 8.943 37.93-29.56 44.911-34.944 29.645-22.826 46.805 9.933 45.96 38.008l6.358 3.882c13.977-.264 30.037-2.372 41.677 6.946 44.74 35.823 20.633 127.07-39.28 137.984-7.261-1.937-16.46-3.643-23.236-6.016-11.767-4.121-35.097-21.555-44.108-20.07-33.775 12.8-28.672 13.03-39.245 40.909-7.697 20.31-8.636 31.923-13.918 52.07-8.84 33.741-44.749 12.271-62.49-3.447-10.683-9.464-17.698-27.768-34.73-34.73v-6.947l-6.946-6.946c-1.92-9.549-6.819-25.49-7.126-31.736-.4-8.226 7.074-9.327 7.126-9.94l34.756 3.873c13.593-14.498 31.812-27.904 34.688-49.032 2.517-18.51 3.285-109.517-.862-124.143-3.396-11.99-20.95-21.317-33.86-18.236 7.526-11.682 36.53-36.02 48.623-41.677 2.713-1.271 9.566.854 13.892 0z"/><path fill="#d98c36" d="M843.238 404.966c-10.828-7.082-25.01-9.915-37.418-6.135-3.328 1.015-50.953 35.831-56.448 40.764-23.501 21.086-25.592 45.969-24.21 76.501-11.05-6.903-8.456-24.806-17.296-34.79-11.768-13.287-31.54-6.708-21.257-35.004 18.424-50.688 70.656-31.215 94.157-51.712 5.76-5.026 29.337-42.556 27.759-48.606-13.372-20.523-24.764-4.514-38.366-3.66-27.657 1.74-52.83-3.295-79.718 7.073-2.765-17.058 17.365-23.244 24.243-34.773 20.992-35.191 9.89-85.897-16.563-115.31l9.676-23.519c17.144 26.215 48.88 22.451 72.773 38.332 31.513 20.95 32.34 44.954 42.99 75.085 3.235 9.156 12.681 12.066 16.18 18.551 10.922 20.233 8.712 44.894 17.476 66.048-2.185 11.264-8.951 21.043-13.97 31.155z"/><path fill="#b7621e" d="M843.238 404.966c-1.1 2.22.265 7.843-3.336 13.73-8.636 14.09-27.102 20.344-38.528 31.224-62.515 59.511 12.535 202.249-79.548 281.626-17.587 15.163-32.99 27.17-55.637 27.724-10.897.265-19.934 4.574-17.468-10.53 3.66-22.374 31.59-30.157 44.945-45.363 22.008-25.062 36.122-87.552 38.724-120.977 1.852-23.825-6.16-42.803-7.227-66.313-1.383-30.532.708-55.424 24.209-76.5 5.504-4.933 53.12-39.75 56.448-40.765 12.407-3.78 26.581-.947 37.418 6.136z"/><path fill="#c57226" d="M593.195 516.096c-11.64-9.318-27.691-7.21-41.677-6.946 3.37-17.895 17.254-31.019 24.397-48.53 31.249-76.603 4.556-88.89-3.397-156.535-1.757-14.984-4.676-47.36 6.784-58.871.862 1.758-.76 4.77 0 6.946 1.289 3.66-.204 7.885 6.947 6.946 2.841-.051 11.494-4.932 13.892-6.946 11.759-9.89 13.141-19.183 14.72-33.886l20.01-7.782c5.129 10.376 18.074 21.88 20.062 32.46 4.489 23.809-28.032 44.74-37.41 64.803-16.29 34.841 12.996 69.205 17.229 100.804 6.204 46.362-10.308 75.7-41.557 107.537"/><path fill="#f1b262" d="M877.97 599.45c5.827 9.565 21.716 27.204 20.06 37.137-2.363 14.182-23.227 34.056-26.017 43.724-5.436 18.8 2.432 46.166-2.15 67.303-3.619 16.665-14.883 19.166-19.67 25.472l-37.478 13.517c-13.858-4.301-21.154-28.118-26.83-32.99-5.478-4.702-15.811 5.29-12.168-18.705 5.095-33.587 67.892-95.087 87.262-128.282 7.108-12.185-3.149-20.25 16.99-7.176"/><path fill="#f0b25f" d="M176.46 481.374c3.107 6.553 15.31 21.086 13.373 30.413-8.713 15.607-39.501 29.141-33.588 48.623 11.76 22.391 33.289 37.956 47.07 57.335 18.304 25.745 27.008 56.081 41.267 83.755 17.34 33.647 43.828 42.06 20.864 87.646-22.895 45.465-76.057 25.216-106.461-2.048-7.305-6.554-27.981-31.744-30.354-39.27-5.87-18.612 10.701-34.586 11.879-48.854.23-2.748-5.419-35.268-6.69-39.518-4.241-14.14-39.655-33.963-46.464-50.782-3.158-7.8-22.861-97.536-22.494-102.946 1.502-22.101 31.309-23.876 42.137-38.246.128.367 4.626.87 5.863 4.616 3.03 9.114-.853 19.388 4.369 30.302 12.834 26.829 65.963 15.394 59.221-21.026z"/><path fill="#c36c23" d="M412.612 398.02c-12.091 5.658-41.096 29.995-48.623 41.677-44.928 69.734-28.339 113.766-34.73 187.529-.052.605-7.527 1.715-7.126 9.94.308 6.247 5.206 22.188 7.126 31.736.862 4.267 2.073 7.56 6.946 6.947v6.946c-2.68-1.093-9.583 2.227-12.834-.811-1.929-1.81-27.99-35.234-32.128-41.045-12.664-17.733-13.978-37.982-24.491-55.382-6.05-60.091 7.987-110.66 41.677-159.752 34.773-50.68 73.702-96.802 97.237-152.807z"/><path fill="#e0913d" d="M579.302 245.222c-11.46 11.512-8.541 43.887-6.784 58.872 7.953 67.635 34.646 79.932 3.397 156.535-7.143 17.51-21.026 30.635-24.397 48.53l-6.357-3.883c.844-28.075-16.325-60.843-45.961-38.008-6.989 5.376-36.71 43.879-44.91 34.944-2.348-24.226 3.242-53.017 0-76.39l9.719-.751c3.54-.862 2.918-4.984 4.164-6.195 11.28-10.914 27.068-44.45 28.066-59.341.776-11.605-6.997-21.47-7.535-34.116-3.2-75.042 4.565-105.404 35.038-170.48-6.784 33.998 28.57 47.147 44.953 69.667 4.54 6.238 7.262 13.773 10.607 20.625z"/><path fill="#c36c23" d="M468.173 418.859c-1.255 1.211-.632 5.333-4.164 6.195l-9.72.75c-.683-4.906-7.484-12.927-7.893-19.925l-19.891-7.859c3.643-.717 7.022-4.292 10.419-6.195l31.257 27.034z"/><path fill="#e0913d" d="M586.249 259.106c-7.151.939-5.658-3.285-6.947-6.946z"/><path fill="#f8c779" d="M329.267 627.226c6.392-73.763-10.206-117.795 34.73-187.529 12.912-3.08 30.465 6.246 33.861 18.236 4.147 14.626 3.38 105.634.862 124.143-2.876 21.12-21.094 34.526-34.688 49.032l-34.756-3.874z"/><path fill="#d98834" d="M336.213 675.849c-4.872.614-6.084-2.68-6.946-6.947z"/></svg>