<svg xmlns="http://www.w3.org/2000/svg" viewBox="0 0 1024 1024"><path fill="#e09b2d" d="M614.606 684.88c21.583 0 39.06 17.478 39.06 39.061s-17.477 39.061-39.06 39.061-39.062-17.477-39.062-39.06 17.478-39.062 39.062-39.062M346.968 569.592c23.584 0 42.746 19.162 42.746 42.746s-19.162 42.746-42.746 42.746-42.746-19.162-42.746-42.746 19.162-42.746 42.746-42.746"/><path fill="#f95428" d="M839.498 82.642v133.82h-654.25V82.642z"/><path fill="#e54728" d="M339.704 82.642v133.82H185.249V82.642z"/><path fill="#a3e3e5" d="M813.492 402.292v92.967H211.254v-92.967c0-14.32 11.687-26.006 26.006-26.006h24.321c23.479 0 42.535-19.057 42.535-42.535v-50.327h197.096v88.125c0 27.269 22.11 49.378 49.38 49.378h8.949c27.27 0 49.379-22.11 49.379-49.378v-88.125h111.603v50.327c0 23.478 19.057 42.535 42.536 42.535h24.321c14.425 0 26.112 11.687 26.112 26.006"/><path fill="#99e2ff" d="M880.454 402.292V848.39c0 51.274-41.588 92.968-92.967 92.968H237.26c-51.274 0-92.968-41.588-92.968-92.968V402.292c0-51.274 41.588-92.968 92.968-92.968v-92.968h263.952v66.857h-196.99v50.537c0 23.478-19.057 42.535-42.535 42.535H237.26c-14.32 0-26.006 11.687-26.006 26.006v446.097c0 14.32 11.687 26.006 26.006 26.006h550.227c14.319 0 26.005-11.687 26.005-26.006V402.292c0-14.32-11.686-26.006-26.005-26.006h-24.322c-23.479 0-42.535-19.057-42.535-42.535v-50.327H609.026v-66.857h178.46v92.968c51.38-.106 92.968 41.483 92.968 92.757"/><path fill="#f7b239" d="M813.492 495.26v353.13c0 14.318-11.686 26.005-26.005 26.005H237.26c-14.32 0-26.006-11.687-26.006-26.006V495.26zM653.667 723.94c0-21.583-17.478-39.061-39.061-39.061s-39.062 17.478-39.062 39.061 17.478 39.061 39.062 39.061c21.584-.105 39.06-17.477 39.06-39.06M389.714 612.338c0-23.584-19.162-42.746-42.746-42.746s-42.746 19.162-42.746 42.746 19.162 42.746 42.746 42.746c23.584.105 42.746-19.057 42.746-42.746m219.311-328.914v88.125c0 27.269-22.11 49.378-49.378 49.378h-8.95c-27.27 0-49.38-22.11-49.38-49.378V216.567h107.814v66.857z"/><path fill="#e09b2d" d="M298.853 878.396h-50.327c-20.531 0-37.272-16.635-37.272-37.271V495.259h87.599z"/><path fill="#333" d="M804.542 293.636v-60.224h34.956c9.37 0 17.057-7.58 17.057-17.056V82.642c0-9.37-7.581-17.056-17.057-17.056h-654.25c-9.37 0-17.055 7.58-17.055 17.056V216.46c0 9.37 7.58 17.056 17.056 17.056h34.955v60.223c-52.538 8.213-92.968 53.801-92.968 108.656v446.099c0 60.645 49.38 109.919 109.92 109.919H787.38c60.645 0 109.92-49.379 109.92-109.92V402.293c.21-54.75-40.22-100.338-92.759-108.656M202.304 99.699h620.242v99.706H202.304zm560.861 293.643h24.322a8.943 8.943 0 0 1 8.95 8.95v75.912H228.31v-75.912a8.943 8.943 0 0 1 8.95-8.95h24.321c32.85 0 59.592-26.743 59.592-59.592v-33.376h162.983v71.068c0 36.64 29.797 66.436 66.436 66.436h8.95c36.64 0 66.436-29.796 66.436-66.436v-71.068h77.49v33.376c.105 32.85 26.848 59.592 59.697 59.592M228.31 512.315h568.125v336.18a8.943 8.943 0 0 1-8.95 8.95H237.26a8.943 8.943 0 0 1-8.95-8.95zm363.66-140.767c0 17.898-14.53 32.323-32.323 32.323h-8.95c-17.899 0-32.323-14.53-32.323-32.323v-138.03h73.7v138.03zm271.427 476.947c0 41.799-34.007 75.912-75.911 75.912H237.26c-41.8 0-75.912-34.008-75.912-75.912V402.292c0-41.8 34.007-75.912 75.912-75.912 9.37 0 17.056-7.581 17.056-17.057V233.41h229.84v32.955h-180.04c-9.371 0-17.057 7.58-17.057 17.057v50.327c0 14.108-11.476 25.48-25.48 25.48h-24.321c-23.69 0-43.063 19.267-43.063 43.062v446.203c0 23.69 19.268 43.062 43.063 43.062h550.227c23.69 0 43.062-19.267 43.062-43.062V402.292c0-23.69-19.267-43.063-43.062-43.063h-24.322c-14.108 0-25.48-11.476-25.48-25.48v-50.432c0-9.37-7.58-17.057-17.056-17.057H626.08v-32.849h144.348v75.912c0 9.37 7.58 17.057 17.057 17.057 41.799 0 75.911 34.007 75.911 75.912z"/><path fill="#333" d="M346.968 672.14c32.955 0 59.803-26.848 59.803-59.802s-26.848-59.803-59.803-59.803-59.803 26.848-59.803 59.803 26.848 59.803 59.803 59.803m0-85.492c14.214 0 25.69 11.582 25.69 25.69s-11.58 25.691-25.69 25.691c-14.213 0-25.69-11.581-25.69-25.69s11.477-25.69 25.69-25.69m267.638 193.306c30.954 0 56.117-25.163 56.117-56.117s-25.163-56.117-56.117-56.117-56.118 25.163-56.118 56.117c.106 30.953 25.163 56.117 56.118 56.117m0-78.017c12.108 0 22.005 9.897 22.005 22.005s-9.897 22.006-22.005 22.006-22.006-9.897-22.006-22.006 9.898-22.005 22.006-22.005M565.963 599.388a17.057 17.057 0 1 0 34.114 0 17.057 17.057 0 1 0-34.114 0"/><path fill="#fff" d="M755.479 772.794c-9.37 0-17.057-7.581-17.057-17.057V430.824c0-9.37 7.58-17.057 17.057-17.057 9.37 0 17.057 7.581 17.057 17.057v324.914c0 9.37-7.581 17.056-17.057 17.056m34.113-588.445c-9.37 0-17.057-7.581-17.057-17.056v-29.586c0-9.37 7.58-17.055 17.057-17.055 9.37 0 17.057 7.58 17.057 17.055v29.586c0 9.37-7.687 17.056-17.057 17.056M566.91 316.062c-9.37 0-17.057-7.58-17.057-17.057v-32.638c0-9.37 7.58-17.056 17.057-17.056 9.37 0 17.056 7.58 17.056 17.056v32.638c0 9.476-7.685 17.057-17.056 17.057M549.854 354.176a17.057 17.057 0 1 0 34.114 0 17.057 17.057 0 1 0-34.114 0M738.422 811.75a17.057 17.057 0 1 0 34.114 0 17.057 17.057 0 1 0-34.114 0"/></svg>