<svg xmlns="http://www.w3.org/2000/svg" viewBox="0 0 1024 1024"><path fill="#c9191d" d="m610.398 120.636 35.524 6.835 94.848 48.282 29.03 17.962 29.125 81.46-14.26 398.438-69.785 150.826-117.052 115.03-43.707 61.21-49.528 10.128-99.046-11.605-82.45-51.14-78.489-39.85-5.41-7.595-15.053-251.76 39.023-174.839 221.355-321.69 99.046-31.692z"/><path fill="#c9191d" d="M611.38 120.806c-.342 6.648.238 13.457 0 20.122-6.81 1.545-12.562-2.219-18.749-2.628-10.7-.717-49.51.239-40.413 17.792 4.411 8.507 42.973 21.666 53.495 24.448 30.148 7.987 64.427 13.636 93.67.58 1.468-7.04-6.144-13.56-11.648-17.22-12.22-8.115-30.455-14.379-44.697-17.937-3.268-.82-.777-9.361-1.476-12.578.861-6.332 1.16-9.174 2.517-15.087-.376 6.75-1.528 6.75 4.992 8.763 30.635 9.455 56.158 13.159 83.942 31.796 15.633 10.487 25.063 21.23 36.796 34.867-4.087 3.405-3.03 14.063-2.628 18.96 4.079 49.469 9.42 94.909 7.765 145.818-2.483 76.203-7.731 161.212-17.664 236.263-20.318 153.532-93.346 292.864-257.877 322.935-69.496 12.706-179.388 4.327-248.243-13.09-4.523-1.143-7.834-5.265-6.895 3.123-93.38-126.916-55.109-322.841 4.522-456.815 27.682-62.182 63.045-136.234 96.444-195.217 53.188-93.926 133.752-160.128 247.21-139.827 6.196 1.11 12.647 3.968 18.953 4.94zM397.635 807.16c.666-17.126-.836-34.517-.102-51.652 3.208-75.178 14.515-149.896 30.19-223.735.615-2.876-.477-6.417.624-9.438l34.67-135.032-28.953 55.262C383.54 555.47 344.081 677.948 391.98 799.002c1.246 3.157 1.177 7.44 5.666 8.157zm-90.888-286.242-10.624-2.688c-14.012 11.12-23.714 28.621-30.541 45.022-24.329 58.462-34.5 154.488-10.052 213.786 8.96 21.726 31.334 42.914 48.725 15.949 18.935-29.355 1.647-87.203-2.116-120.38-4.01-35.345-1.98-65.639 2.517-100.463 2.15-16.666 10.086-34.04 2.1-51.226z"/><path fill="#bc0012" d="M244.25 907.725c-.94-8.388 2.372-4.267 6.895-3.123 68.855 17.416 178.747 25.787 248.243 13.09 164.53-30.072 237.56-169.404 257.877-322.936 9.933-75.05 15.19-160.06 17.664-236.262 1.656-50.91-3.686-96.35-7.765-145.818-.401-4.898-1.468-15.565 2.628-18.96 83.78 97.322 61.61 243.13 65.271 363.4 1.4 46.003 2.006 92.424-4.966 138.12-16.008 104.918-74.957 242.338-170.086 297.575-75.947 44.1-160.973 34.005-242.944 14.899-70.486-16.427-129.007-40.423-172.826-99.985zm132.514 33.177c-6.725 1.16-15.147 5.846-16.785 13.176 5.41 5.103 10.496 12.049 16.631 16.153 30.925 20.677 104.081 32.64 140.425 27.964 24.362-3.132 22.963-15.087 4.727-27.264-31.257-20.88-108.399-36.352-145.007-30.02z"/><path fill="#3a1b13" d="M644.07 118.29c-1.356 5.913-1.655 8.754-2.517 15.086-.026.222-2.278.631-2.551 3.627-.862 9.275 3.865 33.05-11.256 31.658-2.082-.187-7.5-2.457-8.892-3.788-7.16-6.87-5.23-38.213-4.957-49.101.887-35.192 7.022-68.839 30.13-96.837 3.619-4.386 17.084-17.083 21.76-18.466 10.54-3.114 29.816 10.061 36.216 18.424 11.162 14.575-12.194 21.273-21.512 28.962-22.324 18.415-30.217 43.409-36.42 70.443z"/><path fill="#910015" d="M641.553 133.376c.7 3.217-1.792 11.759 1.476 12.578 14.242 3.559 32.478 9.822 44.698 17.937 5.504 3.661 13.116 10.18 11.648 17.22-29.244 13.056-63.522 7.416-93.67-.58-10.522-2.79-49.084-15.94-53.496-24.448-9.096-17.553 29.713-18.5 40.414-17.792 6.187.41 11.938 4.173 18.748 2.628.239-6.664-.333-13.465 0-20.121.06-1.186-.205-2.38.273-3.533l2.244-1.493c-.273 10.888-2.202 42.231 4.958 49.1 1.382 1.332 6.81 3.593 8.892 3.79 15.13 1.39 10.393-22.384 11.255-31.66.282-2.995 2.526-3.404 2.552-3.626z"/><path fill="#e14238" d="M306.748 520.917c7.987 17.178.05 34.56-2.1 51.226-4.497 34.833-6.527 65.126-2.517 100.463 3.763 33.177 21.043 91.025 2.116 120.38-17.39 26.965-39.765 5.768-48.725-15.95-24.44-59.289-14.276-155.314 10.052-213.785 6.827-16.4 16.53-33.903 30.541-45.022l10.624 2.688zm90.888 286.242c-4.48-.725-4.411-5-5.666-8.157-47.897-121.054-8.44-243.533 42.087-356.438l28.953-55.262-34.67 135.032c-1.093 3.02 0 6.562-.624 9.438-15.675 73.839-26.982 148.557-30.19 223.735-.735 17.135.767 34.518.102 51.652z"/><path fill="#910015" d="M376.764 940.902c36.6-6.331 113.75 9.14 145.007 30.02 18.235 12.186 19.635 24.133-4.728 27.265-36.343 4.676-109.5-7.28-140.424-27.964-6.144-4.105-11.222-11.05-16.632-16.154 1.639-7.33 10.061-12.015 16.785-13.175z"/></svg>