<svg xmlns="http://www.w3.org/2000/svg" viewBox="0 0 1024 1024"><path fill="#94652e" d="M783.104 194.02c130.93 75.59 204.828 194.872 170.837 271.943a11 11 0 0 1-1.052 3.37C928 519.111 887.467 581.02 789.333 647.111c-55.082 37.092-112.526 63.118-172.316 78.08a142.55 142.55 0 0 0-61.383 32.996C449.849 854.784 364.203 903.11 298.667 903.11 227.556 903.111 192 855.708 192 760.89a282.85 282.85 0 0 1 42.012-285.141 4182 4182 0 0 0 50.432-63.304c26.041-33.479 59.805-91.932 120.89-170.666 10.638-13.725 30.534-34.83 59.647-63.318 52.011-64.213 189.568-58.666 318.123 15.56"/><path fill="#b58245" d="M829.91 434.446c-23.126 46.222-60.744 103.709-151.567 165.22-50.403 34.133-102.883 58.254-157.483 72.348v.029a142.2 142.2 0 0 0-60.344 32.71c-97.224 88.833-175.93 133.334-236.146 133.519-16.84.569-20.523-32.341-11.037-98.716L192 597.333c40.334-64.654 75.89-116.807 106.667-156.444 16.1-20.736 84.835-103.694 206.222-248.889 165.93 123.264 274.261 204.089 325.02 242.446"/><path fill="#191919" d="M783.118 194.02c130.916 75.59 204.814 194.872 170.81 271.943a11 11 0 0 1-1.04 3.37l-3.27 6.415c-25.174 48.64-66.333 108.088-160.285 171.363-55.082 37.092-112.526 63.118-172.316 78.08a142.55 142.55 0 0 0-61.383 32.996C449.849 854.784 364.203 903.11 298.667 903.11 227.556 903.111 192 855.708 192 760.89a282.85 282.85 0 0 1 42.012-285.141l18.944-23.496a3495 3495 0 0 0 31.488-39.808c26.041-33.479 59.805-91.932 120.89-170.666 10.638-13.725 30.534-34.83 59.647-63.318 52.011-64.213 189.568-58.666 318.137 15.56m-28.444 49.265c-106.525-61.497-215.097-66.517-245.476-29.013l-2.076 2.56-13.54 13.34c-21.276 21.177-35.897 36.921-43.292 46.479a1658 1658 0 0 0-53.134 72.561l-6.728 9.757c-2.275 3.285-4.55 6.642-6.926 10.14l-25.842 38.4c-11.235 16.64-19.057 27.79-26.453 37.476l-9.06 11.605a4631 4631 0 0 1-43.946 54.97 225.96 225.96 0 0 0-33.55 227.782l4.238 10.354v11.193c0 66.375 14.222 85.333 49.778 85.333 47.616 0 122.425-42.197 218.595-130.048a199.5 199.5 0 0 1 85.945-46.165c53.262-13.326 104.647-36.608 154.354-70.087 70.87-47.73 110.208-91.776 138.994-145.494l2.133-4.096.043-.17 3.157-7.154c19.413-44.018-38.84-137.145-147.228-199.723z"/><path fill="#ef6c00" d="M515.55 227.911a213.333 99.556 30 1 0 369.504 213.333A213.333 99.556 30 1 0 515.55 227.911"/><path fill="#ffa41f" d="M540.184 242.133a184.889 85.845 30 1 0 320.237 184.89 184.889 85.845 30 1 0-320.237-184.89"/><path fill="#8a5b24" d="M346.411 693.93q24.633 14.222 10.411 38.856-14.222 24.633-38.856 10.411-24.633-14.222-10.411-38.856 14.222-24.633 38.856-10.411M673.522 509.041q24.633 14.222 10.411 38.856-14.222 24.633-38.856 10.411-24.633-14.222-10.411-38.856 14.222-24.633 38.856-10.41M431.744 437.93q24.634 14.222 10.411 38.856-14.222 24.633-38.855 10.411-24.634-14.222-10.412-38.856 14.222-24.633 38.856-10.411M385.577 596.174q18.475 10.666 7.808 29.142-10.666 18.475-29.142 7.808t-7.808-29.142 29.142-7.808"/></svg>