<svg xmlns="http://www.w3.org/2000/svg" viewBox="0 0 1024 1024"><path fill="#e0291d" d="M512 924.444c227.783 0 393.273-185.173 412.444-412.444 24.89-295.111-361.173-392.22-444.444-7.111-28.444 131.555-151.964 108.003-199.111 64-53.333-49.778-128-35.556-152.889-10.667s-30.62 82.105-13.27 123.662c56.847 136.121 222.75 242.56 397.27 242.56"/><path fill="#ea4136" d="M430.876 824.889c209.167 0 361.131-168.377 378.738-375.04C814.222 273.778 576 231.11 512 480s-230.485 136.021-273.778 96c-48.981-45.27-76.7-33.294-99.555-10.667-22.855 22.628-17.21 130.731 27.633 166.5 71.069 56.675 166.33 93.056 264.576 93.056"/><path fill="#191919" d="M480 504.889c83.271-385.11 469.333-288 444.444 7.111C905.273 739.271 739.784 924.444 512 924.444c-174.507 0-340.423-106.439-397.27-242.56-17.35-41.557-11.619-98.773 13.27-123.662 24.42-24.42 96.754-38.57 149.845 7.922l3.044 2.745c46.62 43.52 167.865 67.015 198.115-59.577zm255.701-195.086c-85.19-10.681-165.617 56.547-198.67 200.704l-1.422 6.4c-17.963 83.043-70.656 133.433-141.085 142.265-54.798 6.869-114.744-13.512-152.462-48.697-24.064-22.471-64.014-21.846-73.842-12.032-6.798 6.826-10.24 39.41-.995 61.51C215.965 776.648 362.667 867.557 512 867.557c189.867 0 338.318-153.487 355.755-360.335 9.173-108.686-50.688-187.207-132.054-197.404z"/><path fill="#58b250" d="M720.114 142.222h40.76a14.22 14.22 0 0 1 13.085 8.647L809.23 233.5a99.56 99.56 0 0 0 52.338 52.452l13.099 5.604a82.13 82.13 0 0 1 49.777 75.491v88.064l-42.382-47.673a56.9 56.9 0 0 0-36.224-18.745l-22.442-2.489a56.9 56.9 0 0 1-33.949-16.312l-7.225-7.225a54.96 54.96 0 0 0-50.773-14.791l-14.848 3.3a56.9 56.9 0 0 1-37.774-4.652l-21.86-10.936a56.9 56.9 0 0 0-35.627-5.078l-59.562 10.823 21.19-45.937a85.33 85.33 0 0 1 72.62-49.423l38.144-2.19a28.444 28.444 0 0 0 25.799-35.954l-13.127-47.601a14.222 14.222 0 0 1 13.71-18.006"/><path fill="#191919" d="M760.889 113.778h-40.775a42.667 42.667 0 0 0-41.13 54.002l13.126 47.616-38.144 2.176a113.78 113.78 0 0 0-96.81 65.905l-21.192 45.938c-9.67 20.907 8.25 44.018 30.905 39.908l59.563-10.838a28.44 28.44 0 0 1 17.806 2.56l21.86 10.923a85.33 85.33 0 0 0 56.675 6.969l14.834-3.285a26.51 26.51 0 0 1 24.505 7.125l7.225 7.225a85.33 85.33 0 0 0 50.915 24.462l22.443 2.503a28.44 28.44 0 0 1 18.12 9.387l42.381 47.644c17.352 19.57 49.693 7.282 49.693-18.887v-88.064a110.58 110.58 0 0 0-67.015-101.632l-13.085-5.618a71.1 71.1 0 0 1-37.404-37.447l-35.271-82.645a42.67 42.67 0 0 0-39.225-25.927m-9.415 56.889 31.587 73.998a128 128 0 0 0 67.314 67.413l13.085 5.618 2.645 1.223A53.69 53.69 0 0 1 896 367.047v14.222l-1.095-.981a85.33 85.33 0 0 0-45.938-19.854l-22.443-2.503a28.44 28.44 0 0 1-16.967-8.15l-7.225-7.225a83.4 83.4 0 0 0-77.07-22.442l-14.834 3.3a28.44 28.44 0 0 1-18.887-2.333l-21.86-10.937-3.84-1.806a85.33 85.33 0 0 0-49.592-5.831l-5.504.995.995-1.706a56.89 56.89 0 0 1 45.469-27.435l38.144-2.176a56.89 56.89 0 0 0 53.547-60.046l-.37-3.997a57 57 0 0 0-1.579-7.879l-8.163-29.596z"/><path fill="#fff" d="M617.472 429.483a14.222 14.222 0 0 1 23.723 15.701l-3.3 5.077c-1.963 3.13-3.541 5.803-5.02 8.505l-3.613 6.926-4.978 9.999a14.222 14.222 0 0 1-25.457-12.715l6.741-13.44 2.36-4.437c2.632-4.807 5.462-9.444 9.544-15.616m-20.793 89.642 1.664.029a14.22 14.22 0 0 1 13.17 15.19c-3.883 54.428-23.709 100.365-55.424 124.145a14.222 14.222 0 0 1-17.067-22.756c24.22-18.161 40.775-56.49 44.132-103.41a14.22 14.22 0 0 1 13.525-13.198"/></svg>