<svg xmlns="http://www.w3.org/2000/svg" viewBox="0 0 1024 1024"><path fill="#ab2f31" d="M446.618 271.573c.426 1.912 7.193 9.634 6.246 14.208-13.628 11.495-14.515 28.732-20.796 44.212-3.985 9.813-10.846 18.449-12.936 29.218l-3.482 3.072c-7.723 2.124-13.798-6.409-19.96-8.986-18.286-7.646-42.88-16.913-61.755-22.562-28.032-8.388-57.088-12.715-86.357-14.174-3.107-.904-9.447-8.226-11.307-11.392-4.275-7.253-2.569-21.999-8.568-23.868-5.282-1.647-6.784 4.352-8.046 8.15-3.67 11-3.67 22.52-3.286 34.005-.068-.282-2.79-.597-3.294-4.676-5.316-43.034 28.886-74.889 69.846-79.557 58.188-6.63 97.783 13.108 149.077 32.359 4.113 1.544 12.467 6.673 14.61 0z"/><path fill="#951d1f" d="M449.86 229.419c7.023-.82 8.892 4.411 12.408 8.67 10.547 12.765 14.378 21.563 7.825 38.468l8.61 9.574c-1.766 8.79-7.356 7.56-11.06 11.239-7.346 7.296-51.285 87.424-56.703 100.667l-76.826-28.57-14.984-1.228c-14.447-2.995-32.999-12.646-46.584-15.044-4.907-.87-8.917-1.963-12.399 2.688l8.115 6.485c-6.1-1.28-36.838-4.727-38.604-6.801-.35-.401-.922-5.146-3.55-9.412-6.528-10.607-6.75-10.317-9.728-22.699-.384-11.486-.384-22.997 3.285-34.005 1.272-3.798 2.765-9.788 8.047-8.15 5.999 1.87 4.3 16.615 8.567 23.868 1.86 3.166 8.201 10.488 11.307 11.392 29.27 1.46 58.325 5.786 86.357 14.174 18.876 5.649 43.47 14.916 61.756 22.562 6.153 2.577 12.237 11.11 19.96 8.986l3.481-3.072c2.09-10.77 8.952-19.405 12.937-29.218 6.28-15.48 7.16-32.717 20.796-44.212.947-4.582-5.82-12.296-6.247-14.208-2.534-11.383.333-30.967 3.243-42.154z"/><path fill="#a63030" d="M657.4 239.147c7.842-5.342 13.073-10.863 22.655-14.635 26.3-10.342 54.998-12.177 77.722 6.673 22.767 18.884 27.972 52.83 26.24 81.075-.76 12.305-12.058 20.156 9.583 17.69-1.766.46-7.518 6.17-14.481 3.405l-2.005-6.221c-2.1-2.961-15.847 1.4-19.2 4.412-4.207 3.78-3.132 8.115-10.633 12.066-17.51 9.241-32.282 6.118-39.74-13.534-6.656-17.545-9.634-62.805-21.572-74.12-1.476-1.4-5.658-.93-7.578-3.661-5.777-8.218-2.099-21.385-20.983-13.142z"/><path fill="#951d1f" d="m453.103 219.69 3.234 1.63.017 3.226-1.664 1.621-1.587-3.234c.375-.964-.393-2.372 0-3.242"/><path fill="#790911" d="M410.948 398.037c-4.753 11.623-8.047 37.854-6.434 50.21 2.116 16.214 12.143 26.838 22.648 37.35 1.314 1.324 2.116 4.327 4.693 6.554 5.794 5.001 25.702 15.787 27.366 21.376 1.63 5.479 2.85 13.03-6.118 10.983-1.946-.35-4.36.196-6.485 0-3.926-12.194-12.579-2.944-17.374-3.678-6.144-.93-15.616-13.85-21.538.435-3.132-.068-6.682-.333-9.728 0h-9.728c11.357-10.189-7.587-24.934-6.486-29.184 2.885-11.136.197-33.229-3.823-46.438-3.123-10.257-12.382-26.343-18.875-34.628-20.54-26.223-58.83-41.95-90.795-48.64l-8.115-6.486c3.481-4.65 7.5-3.558 12.399-2.688 13.593 2.407 32.136 12.05 46.583 15.044l14.985 1.23 76.825 28.569z"/><path fill="#b12b2f" d="M748.194 628.284c-10.7-.717-6.093 1.698-1.621 6.485 8.96 9.583 11.417 11.426 17.834 22.699l-3.771 33.519c-6.067 27.545-48.384 54.289-71.808 67.635-57.55 32.793-167.894 79.71-231.51 51.891-10.282-4.497-36.719-23.748-41.565-33.015-3.67-7.015-1.929-19.994-8.056-25.993 3.277-11.307 8.192-22.23 15.974-31.087l-3.003-4.582c1.595-.512 2.995-4.096 9.787-1.485 28.442-25.054 66.415-50.33 100.463-66.611 11.444-5.47 23.655-9.011 35.67-12.97 1.826-.607 3.353-.854 3.242-3.244 1.076-.136 2.228.197 3.243 0 23.364-4.573 46.089-13.098 69.786-16.145 17.843-2.295 43.153-2.423 60.928.555 12.339 2.065 32.606 8.55 44.399 12.348zM594.782 645.12c-15.317 2.645-85.333 32.973-89.404 46.771-3.038 10.283 1.186 18.006 11.486 20.182 13.03 2.756 49.05-11.316 62.763-17.255 14.566-6.315 60.723-24.943 43.759-43.87-6.682-7.458-19.294-7.432-28.604-5.82z"/><path fill="#90171e" d="M407.706 751.505c6.127 5.999 4.386 18.978 8.055 25.993 4.847 9.267 31.292 28.518 41.566 33.015 63.616 27.819 173.952-19.098 231.51-51.891 23.415-13.346 65.732-40.09 71.807-67.635l3.772-33.52c37.333 65.596-27.068 121.456-79.957 151.903-56.977 32.802-124.476 54.715-190.96 49.288-30.002-2.449-68.863-22.562-83.25-49.698-8.568-16.154-7.416-40.636-2.543-57.455"/><path fill="#fae1d4" d="M594.782 645.12c9.31-1.604 21.913-1.638 28.604 5.82 16.964 18.935-29.184 37.563-43.76 43.87-13.712 5.939-49.732 20.01-62.762 17.254-10.308-2.176-14.524-9.89-11.486-20.181 4.08-13.807 74.087-44.126 89.404-46.772z"/><path fill="#b22b30" d="M407.706 521.267c11.417.248 27.05 2.134 38.912 3.243 2.124.196 4.54-.35 6.485 0 9.378 1.69 38.741 13.099 47.087 19.396 5.3 3.994 22.425 21.444 24.943 26.94 13.832 30.293-15.906 63.215-40.516 77.593-69.052 40.346-186.3 53.974-262.588 34.176-40.448-10.496-67.149-28.356-99.772-52.642-4.779-3.558-6.886-9.992-6.408 1.545-.06-.282-2.8-.743-3.286-4.676-1.792-14.516 6.204-38.46 14.712-50.373 1.945-2.73 22.741-25.062 24.234-26.026 5.752-3.678 38.972-13.364 47.693-15.54 5.026-1.254 30.106-7.159 31.753-7.159h100.522c18.117 0 48.154-4.506 66.475-6.485 3.046-.333 6.596-.069 9.728 0zm-135.612 52.455c-.905.938-3.977 9.147-4.002 10.811 4.164 12.997 21.069 19.9 34.09 21.18 28.647 2.808 89.003-.913 113.178-16.802 26.01-17.092 5.487-36.318-18.867-38.596-28.851-2.697-79.309 3.217-106.436 13.815-3.166 1.237-16.512 8.098-17.955 9.592z"/><path fill="#8d151b" d="M605.517 430.473c-4.335 6.536-11.682 10.717-9.72 19.456l6.477-3.243c-16.128 9.301-70.434 49.067-81.152 63.155-12.16 15.992-4.582 12.664 5.01 21.094 10.026 8.815 14.122 15.3 21.008 26.01 3.738 5.811 4.984 13.602 12.97 16.213.65 1.639 1.366 2.885 3.244 3.243.034 1.084-.026 2.159 0 3.243-.24 2.773 1.373 2.585 3.242 3.242.922.325 2.202-.281 3.243 0-.29 2.356 1.152 2.893 3.243 3.243 1.911.324 4.36-.043 6.485 0-4.446 5.043-1.476 8.627 3.26 11.34 7.859 4.498 29.824 8.901 38.895 8.125l-34.663 12.356-20.471.623c-17.314-6.11-21.726-1.604-19.601-25.805l-12.826-3.38c-1.16 1.187.81 24.97 0 30.806-.717 5.12-5.205 12.672-7.245 18.697-2.04 6.033-6.468 10.043 4.002 8.866-34.048 16.281-72.02 41.557-100.463 66.611-6.8-2.611-8.192.981-9.787 1.485-77.858 24.84-252.11 22.323-297.83-60.502-5.965-10.794-4.899-13.371-6.998-23.808-.478-11.537 1.63-5.102 6.409-1.544 32.614 24.286 59.323 42.146 99.771 52.642 76.28 19.797 193.536 6.17 262.588-34.176 24.61-14.379 54.349-47.3 40.516-77.594-2.509-5.495-19.643-22.946-24.943-26.94-8.345-6.288-37.708-17.706-47.087-19.396 8.969 2.048 7.749-5.504 6.119-10.982-1.664-5.598-21.572-16.375-27.367-21.376-2.577-2.219-3.37-5.23-4.693-6.554 32.964 20.677 71.791 4.967 102.776-12.339 12.305-6.87 23.705-17.86 36.659-23.33 7.296-3.08 19.166-4.121 25.915-8.132 4.506-2.671 7.27-9.643 12.997-11.324z"/><path fill="#ec9691" d="M272.094 573.722c1.442-1.494 14.788-8.355 17.954-9.592 27.127-10.598 77.594-16.512 106.436-13.815 24.354 2.278 44.877 21.504 18.867 38.596-24.183 15.889-84.53 19.61-113.177 16.802-13.022-1.28-29.918-8.183-34.09-21.18.025-1.655 3.097-9.873 4.001-10.811z"/><path fill="#8d151b" d="M446.618 524.51c-11.862-1.11-27.495-2.995-38.912-3.243 5.922-14.285 15.394-1.365 21.538-.435 4.795.725 13.448-8.516 17.374 3.678"/><path fill="#64070d" d="M530.927 647.74c-10.462 1.177-6.042-2.833-4.002-8.866 2.04-6.025 6.528-13.577 7.245-18.697.819-5.837-1.16-29.61 0-30.805l12.825 3.379c-2.133 24.2 2.279 19.695 19.601 25.805 1.357.478 4.199 5.418 9.737 3.242l-3.251 9.728c-1.016.197-2.168-.136-3.243 0-2.09.273-3.516.948-3.243 3.243-12.015 3.96-24.226 7.5-35.67 12.97"/><path fill="#820f15" d="M566.596 634.77c-.273-2.296 1.152-2.97 3.243-3.244.11 2.39-1.417 2.637-3.243 3.243"/><path fill="#af2b2f" d="M602.274 190.498c-3.592-2.125-9.574-9.634-12.97-4.864 12.91 15.727 26.086 38.153 29.107 58.453 9.625 64.751-5.41 124.135-37.146 179.977-4.924 8.661-8.337 18.005-14.669 25.865-12.962 5.47-24.354 16.46-36.659 23.33-30.984 17.305-69.82 33.015-102.775 12.339-10.505-10.513-20.523-21.137-22.648-37.35-1.613-12.357 1.681-38.588 6.434-50.21 5.419-13.253 49.357-93.372 56.704-100.668 3.704-3.678 9.293-2.45 11.06-11.239l-8.61-9.574c6.553-16.905 2.721-25.703-7.826-38.468-3.515-4.259-5.384-9.49-12.407-8.67 1.664-6.4 3.089-6.093 3.242-6.486l1.588 3.234 1.664-1.62-.017-3.226-3.235-1.63c22.05-48.598 70.35-66.612 120.9-47.932 9.524 3.516 23.416 9.48 28.272 18.748zm-69.137 114.057c-8.107.674-14.882 6.639-19.891 12.56-7.672 9.063-36.147 57.26-39.22 67.798-5.025 17.28 3.593 33.084 22.358 28.834 19.174-4.343 42.624-40.15 49.186-57.813 3.934-10.581 12.425-39.808 1.732-47.232-1.698-1.178-12.04-4.318-14.173-4.147z"/><path fill="#9a1d22" d="M602.274 190.498c10.846 6.417 13.03 8.397 20.932 19.601 10.54 14.925 11.375 24.371 17.98 38.776-.921.725-2.372.776-2.68 2.27-3.916 13.081 2.117 26.487 2.817 38.126 2.747 45.637-10.513 103.049-35.815 141.202-5.726 1.68-8.49 8.652-12.996 11.323-6.758 4.01-18.62 5.052-25.916 8.133 6.332-7.868 9.745-17.204 14.67-25.865C613 368.23 628.027 308.838 618.41 244.087c-3.013-20.292-16.197-42.717-29.108-58.453 3.397-4.77 9.37 2.74 12.971 4.864"/><path fill="#fbe2da" d="M533.137 304.555c2.133-.18 12.476 2.97 14.174 4.147 10.692 7.415 2.193 36.65-1.732 47.232-6.571 17.664-30.012 53.47-49.186 57.813-18.765 4.25-27.384-11.554-22.358-28.834 3.064-10.539 31.54-58.735 39.22-67.797 5.017-5.922 11.792-11.887 19.89-12.561z"/><path fill="#75080f" d="M683.34 401.28c.88 1.1 1.375 3.593 2.834 4.813l-6.076 11.4c-22.835 4.412-58.035 17.767-77.824 29.184l-6.477 3.243c-1.962-8.738 5.385-12.92 9.72-19.456 25.301-38.153 38.562-95.573 35.814-141.201-.7-11.64-6.733-25.045-2.816-38.127.307-1.493 1.758-1.545 2.68-2.27 2.116 4.617 6.681 3.43 9.258 8.576 7.092 14.174 15.326 58.052 16.615 74.18 2.04 25.455-4.139 40.081 10.257 64.427 2.261 3.823 5.29 4.3 6.024 5.231z"/><path fill="#9b2425" d="M657.4 239.147c18.884-8.244 15.206 4.923 20.983 13.141 1.92 2.74 6.11 2.261 7.578 3.66 11.93 11.316 14.907 56.577 21.572 74.121 7.458 19.661 22.23 22.776 39.74 13.534 7.5-3.95 6.434-8.286 10.632-12.066 3.354-3.012 17.1-7.381 19.2-4.412l2.005 6.221c6.964 2.765 12.724-2.944 14.481-3.405 53.564-14.011 110.789-13.269 162.194 8.056 17.416 7.228 29.158 14.669 42.103 27.614l-.051 37.24c-1.69 12.987-14.114 29.03-27.512 30.856-24.286 3.302-55.73-1.8-81.203-.137-5.197.341-9.011 3.004-12.885 3.328-25.796 2.133-51.635 5.385-77.841 6.613-18.364-9.326-30.771-25.472-50.125-34.184-21.555-9.711-41.72-8.568-64.922-8.038-.742-.922-3.763-1.4-6.024-5.231-14.387-24.346-8.218-38.972-10.257-64.427-1.289-16.128-9.523-60.006-16.615-74.18-2.577-5.146-7.142-3.96-9.258-8.576 4.454-3.516 11.247-6.35 16.213-9.728zm156.117 132.488c1.613 1.681 29.312 9.626 33.664 10.12 14.447 1.648 50.696 1.989 64.776.078 6.23-.845 12.16-5.07 16.308-9.635 9.54-18.61-14.746-27.315-29.33-29.226-13.926-1.826-50.756-1.775-64.75 0-8.073 1.024-24.687 8.9-24.542 17.75z"/><path fill="#fbe3d8" d="m813.517 371.635-3.874-10.914c-.137-8.849 16.469-16.725 24.542-17.75 13.994-1.774 50.816-1.825 64.75 0 14.575 1.912 38.87 10.616 29.33 29.227-4.14 4.566-10.078 8.781-16.308 9.635-14.08 1.92-50.33 1.57-64.776-.077-4.352-.495-32.051-8.44-33.664-10.12"/><path fill="#b42d32" d="m761.165 436.958-.53 30.276c-10.299 23.458-30.463 44.476-51.438 58.82-4.924 3.363-27.734 13.79-28.68 15.104-1.409 1.955 1.04 5.078-3.67 9.293 3.814-28.424-39.066-19.652-56.073-15.539-13.696 3.32-49.578 16.299-55.884 28.425-2.253 4.326-1.69 8.473-1.536 13.056-1.878-.359-2.595-1.605-3.243-3.243-2.825-7.168-4.378-12.561-12.97-16.213-6.887-10.71-10.983-17.195-21.01-26.01-9.591-8.431-17.177-5.103-5.009-21.094 10.718-14.089 65.024-53.854 81.152-63.156 19.797-11.417 54.997-24.772 77.824-29.184 31.369-6.067 58.274-3.9 81.067 19.456z"/><path fill="#9f2024" d="M621.73 605.577c-9.07.785-31.036-3.619-38.895-8.124-4.736-2.705-7.705-6.29-3.26-11.341 31.352.691 73.908-14.763 97.28-35.67 4.71-4.215 2.262-7.338 3.67-9.292.947-1.314 23.757-11.742 28.68-15.104 20.975-14.345 41.14-35.362 51.44-58.82l.528-30.277c4.975 5.095 10.693 10.402 12.442 18.364 15.027 68.437-63.121 123.375-119.33 142.276-7.697 2.586-24.986 7.33-32.555 7.979z"/><path fill="#fae4d9" d="M676.855 550.451c-23.38 20.915-65.937 36.36-97.28 35.67-2.124-.043-4.573.324-6.485 0 .265-2.347-1.297-2.714-3.243-3.243-1.04-.282-2.32.324-3.242 0l-3.243-3.243c-.025-1.084.034-2.167 0-3.242-.153-4.583-.717-8.722 1.536-13.056 6.315-12.126 42.189-25.106 55.885-28.425 17.007-4.113 59.887-12.894 56.072 15.54"/><path fill="#9f2024" d="M560.11 573.15c-7.986-2.611-9.232-10.402-12.97-16.213 8.593 3.652 10.146 9.045 12.97 16.213m6.486 9.728c-1.869-.657-3.481-.47-3.242-3.243zm6.494 3.243c-2.09-.35-3.533-.888-3.243-3.243 1.946.529 3.508.896 3.243 3.243"/><path fill="#820f15" d="M984.926 475.87c-3.618 1.348-10.505 3.567-14.029 2.91-7.262-1.357-20.779-10.41-30.37-12.015-27.793-4.65-58.453-3.712-86.87-3.798l-56.729 9.754c1.903 19.652-1.186 33.306-9.165 50.825-13.26 29.132-25.856 37.034-44.424 59.34-2.731 3.277-6.204 4.156-4.864 9.728l43.844 9.669c58.283 1.843 119.458-2.987 174.353-23.33 17.937-6.648 35.73-14.9 47.778-30.046 4.804-6.042 5.419-14.823 12.911-17.903.068.273 2.688.571 3.285 4.667 1.767 12.135-5.18 33.144-11.468 43.904-37.573 64.3-184.081 69.138-247.996 51.96l-1.895-2.901-4.59-.342c-1.818-.529-4.762.555-6.486 0-11.793-3.806-32.06-10.282-44.399-12.347-17.775-2.979-43.085-2.85-60.928-.555-23.697 3.046-46.421 11.58-69.785 16.145l3.25-9.728c-5.537 2.176-8.379-2.765-9.736-3.243l20.472-.623 34.662-12.356c7.57-.657 24.858-5.393 32.555-7.979 56.209-18.9 134.349-73.847 119.33-142.276-1.75-7.961-7.467-13.27-12.442-18.364-22.792-23.355-49.698-25.523-81.066-19.456l6.075-11.4c-1.45-1.22-1.954-3.712-2.833-4.813 23.211-.529 43.367-1.672 64.922 8.038 19.354 8.722 31.761 24.867 50.125 34.185 26.206-1.229 52.045-4.471 77.84-6.613 3.875-.325 7.69-2.987 12.886-3.328 25.472-1.664 56.918 3.439 81.203.136 13.406-1.826 25.822-17.869 27.512-30.856l.051-37.24c13.97 13.97 24.004 29.389 25.967 50.39 2.04 21.777-18.543 52.292-38.938 59.87z"/><path fill="#a7282b" d="M984.926 475.87c-4.693 5.862-1.272 7.484 3.183 11.426 9.788 8.661 14.984 10.095 22.255 23.142 4.778 8.576 4.906 12.04 6.997 20.566-7.484 3.072-8.098 11.853-12.91 17.903-12.05 15.155-29.842 23.407-47.779 30.046-54.895 20.343-116.07 25.164-174.353 23.33l-43.844-9.669c-1.34-5.563 2.133-6.442 4.864-9.728 18.568-22.306 31.172-30.208 44.424-59.34 7.97-17.52 11.06-31.173 9.165-50.825l56.73-9.754c28.416.086 59.076-.853 86.869 3.798 9.6 1.604 23.108 10.658 30.37 12.015 3.516.657 10.402-1.562 14.029-2.91m-45.995 38.34c2.569-2.645 4.822-12.74 3.396-16.742-2.201-9.984-18.013-22.076-27.648-24.32-27.434-6.383-72.32-2.671-96.307 12.902-10.402 6.75-19.396 17.715-21.401 30.055.674 3.191 12.33 8.797 15.974 10.137 23.5 8.644 84.02 6.187 108.058-2.423 2.952-1.058 16.597-8.235 17.928-9.617z"/><path fill="#b12b2f" d="M761.165 631.526c-5.504-1.476-6.102-3.131-6.486-3.242l4.591.341z"/><path fill="#bc3e41" d="M938.931 514.21c-1.34 1.374-14.976 8.56-17.928 9.617-24.039 8.61-84.566 11.068-108.058 2.424-3.635-1.34-15.3-6.946-15.974-10.138 2.014-12.34 11-23.304 21.401-30.054 23.987-15.574 68.873-19.286 96.307-12.903 9.635 2.245 25.447 14.336 27.648 24.32 1.426 4.002-.827 14.089-3.396 16.743z"/><path fill="#aa2c2e" d="M226.108 346.155c2.628 4.266 3.2 9.01 3.55 9.412 1.775 2.065 32.503 5.521 38.604 6.801 31.966 6.699 70.264 22.417 90.795 48.64l2.842 43.375c-17.818 24.337-40.534 41.882-69.99 49.988C218.043 524.706 74.341 518.7 21.75 454.844c-6.417-7.791-9.753-19.73-19.396-24.38 4.412-22.835 13.79-38.852 32.572-53.367 19.524-15.087 63.172-31.66 87.415-27.708.171.025.657 2.082 2.407 2.56 3.524.964 7.168.512 10.624 2.253 4.924 2.483 9.532 12.74 16.153 14.643-.529.102-8.652 4.232-9.676 4.898-18.176 11.725 1.348 25.583 15.232 30.08 19.217 6.23 53.862 9.344 73.821 7.1 40.73-4.583 38.008-28.68-.52-38.23-3.67-.913-16.043-3.72-17.237-3.848l9.617-.103 3.242-12.612-6.374-3.499 6.101-.332.384-6.153z"/><path fill="#8d151b" d="m381.764 492.083-27.63 19.388-4.796 9.796h48.64c-18.321 1.98-48.359 6.486-66.475 6.486H230.98c-1.647 0-26.726 5.905-31.752 7.159-8.73 2.176-41.95 11.861-47.693 15.54-2.159.016-4.326-.018-6.485 0l-1.963-2.894-11.008-.35c-3.311-.58-7.544.717-11.17-.076-44.587-9.728-103.313-32.18-117.965-79.95-4.378-14.284-3.234-22.988-.58-36.71 9.642 4.651 12.979 16.59 19.396 24.38 52.59 63.855 196.292 69.863 270.157 49.528 29.465-8.107 52.173-25.66 69.99-49.989l-2.841-43.374c6.493 8.285 15.752 24.37 18.875 34.628 4.02 13.21 6.716 35.302 3.823 46.438"/><path fill="#951d1f" d="m219.622 352.64 6.375 3.499-3.243 12.612-9.617.102c-11.409-1.288-51.592-2.005-61.61 0-6.622-1.903-11.23-12.16-16.154-14.643-3.456-1.74-7.1-1.288-10.624-2.253-1.75-.478-2.236-2.534-2.407-2.56 12.655-2.466 24.303-4.283 37.436-3.387 5.18.358 9.08 3.037 12.894 3.32 15.804 1.16 31.3-.376 46.95 3.31"/><path fill="#b22b30" d="M145.033 550.451c-8.44.077-11.589-3.004-12.971-3.242l11.008.35z"/><path fill="#fce0d5" d="M213.137 368.853c1.195.137 13.568 2.944 17.237 3.849 38.537 9.54 41.25 33.638.52 38.23-19.959 2.243-54.604-.871-73.82-7.1-13.885-4.498-33.409-18.356-15.233-30.08 1.033-.666 9.148-4.796 9.677-4.899 10.018-2.005 50.201-1.288 61.61 0z"/><path fill="#66060c" d="M381.764 492.083c-1.1 4.25 17.843 18.995 6.486 29.184h-38.912l4.795-9.796z"/></svg>