<svg xmlns="http://www.w3.org/2000/svg" viewBox="0 0 1024 1024"><path fill="#e02e23" d="m1009.638 412.39 2.048-15.974c.248-1.894 5.206-7.057 5.59-6.741l-4.037 18.884-3.61 3.831zM681.071 157.867c7.68.06 17.118 1.04 26.445 2.551 71.927 11.657 165.896 34.663 227.934 71.902 58.922 35.37 106.453 84.915 81.98 153.907l-1.92-15.437-8.15 20.045c-2.67 6.562-6.639 13.944-11.46 19.004-37.863 39.714-80.965 68.215-132.941 86.426l-27.81 9.745-36.702 12.86c-28.211 118.843-107.213 218.222-221.73 262.75-73.071 28.407-127.966 29.917-202.232 29.567l-44.399-10.82-20.898-6.008-2.116 17.366-4.096-12.237c-6.101-18.219-8.294-10.266-31.488-23.177-91.81-51.131-151.714-109.474-200.892-202.513-12.441-23.543-23.39-47.155-31.82-72.328l-12.331-36.787c-1.366-4.08-2.714-11.435-2.927-14.976-.35-5.888-1.024-15.505-2.56-22.528l-4.94-22.64c1.202-.708 5.085-3.012 1.962-1.16l12.484 12.886c15.48 15.982 21.948 24.482 43.145 39.543 40.55 28.809 128.41 58.633 177.143 68.702l37.342 7.714c55.5 11.469 129.698 18.466 185.753 19.447l42.71.743 30.336-.717c19.686-.47 131.464-6.622 139.23-13.62l14.182-12.774c11.682 2.697 22.92 0 34.074-7.406 16.64-11.06 6.963-2.415 43.315-9.6l8.371-1.656c.828-.162-.478-1.297-1.288-1.852l-6.964-8.012c32.487-9.046 64.709-19.678 97.442-32.623 33.033-13.065 90.334-46.806 103.262-78.797 21.547-18.475 22.102-64.7-2.159-89.583-23.5-24.09-21.632-24.576-50.252-42.991-19.755-12.706-56.798-29.176-78.874-36.096l-48.393-15.164c-10.376-3.251-22.05-6.246-32.469-8.345l-40.738-8.227c-8.525-1.723-19.132-2.645-26.505-3.66-14.523-3.968-30.728-7.433-47.214-8.969l-38.238-3.558c-13.415-1.246-27.41-2.782-41.327-2.757l-103.501.154c-4.318 0-14.054 3.302-19.533 4.446l.46 31.496c.035 2.21 2.851 8.67 4.703 13.696l-5.444 5.675-2.962-15.223-.631-40.235-11.375-.23c1.877-1.212 7.356-2.936 10.846-3.294l30.455-3.14 40.457-4.49c8.465-.938 25.02-.477 33.28-.887 6.306-.315 13.056-5.802 49.143-2.227l30.285 3.004 23.16 2.287c9.779.964 20.471.76 29.406.828z"/><path fill="#c9100b" d="M1017.43 386.236c0 1.083.042 2.568-.146 3.439-.384-.316-5.35 4.847-5.59 6.741l-2.047 15.974c-7.014 54.708-35.055 129.87-63.19 179.9-47.138 83.806-118.084 152.312-206.378 193.365-18.185 8.457-4.582 20.352-13.79 26.078l-1.203-19.063c-39.492 15.897-103.655 33.647-145.4 36.343-43.887 2.842-109.917 3.26-152.209-4.565l-43.503-8.047c-2.85-.529-8.832-4.352-9.472-5.214 74.266.342 129.152-1.16 202.232-29.568 114.509-44.518 193.519-143.897 221.73-262.75l36.702-12.86 27.81-9.744c51.977-18.21 95.078-46.712 132.94-86.426 4.83-5.06 8.799-12.442 11.461-19.004l8.15-20.045 1.92 15.437z"/><path fill="#ed433b" d="M681.07 157.867c-8.933-.069-19.626.136-29.405-.828l-23.16-2.287-30.284-3.004c-36.088-3.575-42.846 1.912-49.144 2.227-8.26.419-24.806-.05-33.28.888l-40.456 4.488-30.456 3.14c-3.49.36-8.968 2.074-10.846 3.295l-22.033 2.304-41.25 4.855c-73.864 8.687-144.99 24.619-213.666 51.78-12.22 4.83-23.79 11.102-35.285 16.82-30.584 15.189-58.223 34.628-79.019 61.798-19.908 26.001-16.273 58.462 1.988 82.38l5.64-7.432c-5.742 11.606.018 19.234 7.067 26.607 7.065 7.381 15.001 17.229 24.874 23.322 23.902 14.754 47.352 28.151 73.617 38.323 69.24 26.829 140.758 41.43 214.46 50.944 10.035 1.297 20.147 2.603 30.2 3.31l63.735 4.472c12.237.862 24.823 1.929 37.171 1.605l67.09-1.767 52.966-3.567c21.487-1.45 42.35-4.01 63.658-7.543l33.178-5.504c8.055-1.34 19.627-2.031 25.796-3.533l3.763 6.135-3.763-6.135 33.596-8.166 6.963 8.012c.81.547 2.108 1.681 1.289 1.852l-8.372 1.656c-36.343 7.185-26.675-1.46-43.315 9.6-11.153 7.407-22.391 10.112-34.073 7.407l-14.183 12.774c-7.765 6.997-119.543 13.15-139.23 13.62l-30.336.716-42.709-.742c-56.055-.982-130.253-7.988-185.754-19.448l-37.341-7.714c-48.734-10.07-136.602-39.893-177.144-68.702-21.205-15.07-27.665-23.569-43.144-39.543l-12.485-12.886c3.123-1.851-.768.453-1.962 1.16l4.94 22.64c1.536 7.023 2.21 16.64 2.56 22.528l-2.952-3.985-12.536-47.932c-6.69-25.574-13.047-52.804-2.15-78.771 11.102-26.437 31.01-48.128 54.485-64.393 33.86-23.466 69.794-41.182 108.86-55.117 52.617-18.764 105.643-32.187 161.178-40.047l29.568-4.19 29.918-3.66c45.26-5.547 88.123-5.7 134.553-5.069l88.696 1.212c4.044.05 14.31 2.628 18.602 3.055l23.535 2.372 22.57 1.92 3.226 2.773z"/><path fill="#b30304" d="M374.494 811.187c.64.862 6.622 4.694 9.472 5.214l43.503 8.047c42.291 7.817 108.313 7.398 152.209 4.565 41.736-2.696 105.907-20.446 145.4-36.343l1.203 19.063c-.606 15.326-25.123 29.782-39.706 36.045-99.09 42.522-243.311 37.845-343.484-1.954-9.412-3.738-37.709-21.769-36.019-34.1l2.116-17.365 20.898 6.008 44.4 10.82z"/><path fill="#b40504" d="m434.04 165.786 11.374.23.632 40.235 2.96 15.223-3.677 3.482-27.204 2.91-28.502 3.046c-9.429 1.007-19.31 2.159-28.578 3.73-88.943 15.077-172.501 33.552-250.555 80.818-26.701 16.17-47.275 36.924-60.092 62.823l-5.64 7.432c-18.27-23.919-21.906-56.38-1.989-82.38 20.796-27.162 48.427-46.61 79.019-61.799 11.503-5.709 23.065-11.98 35.285-16.82 68.676-27.16 139.802-43.093 213.666-51.78l41.25-4.855 22.033-2.304z"/><path fill="#ee6259" d="M978.517 385.365c-12.876-34.295-30.284-52.992-62.609-74.41-42.564-28.194-114.304-52.677-164.3-62.831l-37.394-7.595c-22.212-4.514-43.656-7.134-65.553-9.378l-23.953-2.458-19.268-1.928c-14.89-1.485-30.217-1.417-44.1-1.289v-3.729l55.722.956 22.733 2.961c9.575 1.246 24.124-2.364 31.207-6.05l20.087-10.445c3.439-1.783 9.472-4.983 8.892-7.936l-2.116-10.846-1.391-6.903c-.24-1.203.861-1.34 2.653-2.185 7.373 1.007 17.98 1.937 26.505 3.661l40.738 8.226c10.42 2.1 22.093 5.095 32.47 8.346l48.392 15.163c22.076 6.921 59.119 23.39 78.874 36.096 28.629 18.415 26.76 18.893 50.252 42.991 24.27 24.884 23.715 71.109 2.16 89.583"/><path fill="#ed433b" d="M699.119 181.308c-1.792.853-2.893.99-2.654 2.184l1.391 6.904 2.116 10.846c.58 2.952-5.461 6.144-8.891 7.936l-20.088 10.444c-7.083 3.678-21.632 7.296-31.206 6.05l-22.733-2.96-55.723-.956-86.076.785c-9.745.085-21.205 1.493-29.917 2.432l3.677-3.482 5.445-5.674c-1.852-5.027-4.668-11.486-4.702-13.696l-.46-31.497c5.477-1.143 15.223-4.437 19.532-4.446l103.5-.153c13.919-.018 27.913 1.51 41.328 2.756l38.237 3.558c16.495 1.536 32.692 5 47.215 8.969z"/><path fill="#f7e5de" d="M561.323 225.476c13.883-.128 29.21-.196 44.1 1.289l19.268 1.928 23.953 2.458c21.897 2.253 43.341 4.864 65.553 9.378l37.393 7.595c49.997 10.154 121.737 34.637 164.301 62.83 32.333 21.42 49.732 40.116 62.61 74.411-12.929 31.992-70.23 65.733-103.263 78.797-32.733 12.954-64.955 23.578-97.442 32.623l-33.595 8.166c-6.179 1.502-17.741 2.202-25.797 3.533l-33.177 5.504c-21.308 3.533-42.172 6.093-63.659 7.544l-52.966 3.567-67.09 1.766c-12.347.324-24.934-.742-37.17-1.604l-63.736-4.472c-10.052-.708-20.164-2.014-30.2-3.31-73.702-9.515-145.22-24.116-214.46-50.945-26.265-10.18-49.715-23.569-73.616-38.323-9.873-6.093-17.81-15.94-24.875-23.321l-3.644-27.23 6.724 13.133 19.26 20.471c3.678 3.917 21.342 15.147 28.33 18.355l40.15 18.432c7.774 3.567 17.51 8.158 25.088 10.59l32.154 10.308c11.247 3.601 25.625 5.513 37.845 8.474l48.162 11.656c12.246 2.962 25.225 4.924 37.786 6.99l41.668 6.86c9.592 1.579 19.934 2.534 29.781 3.251l56.158 4.08c12.177.887 24.807 1.996 37.146 1.706l89.677-2.082c11.127-.256 22.579-1.52 33.527-2.833l67.123-8.03c37.41-4.472 123.145-22.332 155.537-36.583 14.166-6.229 27.52-12.441 40.926-19.31l34.117-17.494c7.108-3.644 31.53-20.181 34.892-32.128 2.996-10.624-21.401-38.11-31.923-46.575-15.061-12.109-29.303-24.132-46.302-32.93-35.592-18.415-73.412-31.548-112.964-39.117l-25.335-4.847-63.813-11.784c-18.688-3.448-36.847-6.946-56.149-7.979l-63.36-3.362c-4.173-.222-14.72-4.779-18.884-6.033l-85.402-.248-60.595-.793c4.147-4.72 9.352-6.801 14.763-7.049l26.53-1.237 23.176-1.894c7.757-.632 19.269-3.311 26.18-3.371l85.513-.785z"/><path fill="#f4c5af" d="M561.323 221.739v3.729l-85.513.785c-6.903.06-18.423 2.739-26.18 3.37l-23.177 1.895-26.53 1.237c-5.418.256-10.624 2.33-14.762 7.049l60.595.793 85.401.248c4.165 1.254 14.712 5.811 18.885 6.033l63.36 3.362c19.302 1.024 37.46 4.523 56.149 7.979l63.812 11.784 25.336 4.847c39.543 7.57 77.371 20.702 112.964 39.117 16.998 8.798 31.24 20.821 46.302 32.93 10.53 8.465 34.918 35.942 31.923 46.575-3.362 11.955-27.785 28.484-34.893 32.128l-34.116 17.493c-13.406 6.87-26.76 13.082-40.926 19.311-32.392 14.25-118.127 32.111-155.537 36.583l-67.123 8.03c-10.957 1.314-22.409 2.568-33.528 2.833l-89.676 2.082c-12.34.29-24.978-.828-37.146-1.707l-56.158-4.079c-9.847-.717-20.19-1.672-29.781-3.251l-41.669-6.86c-12.56-2.066-25.54-4.029-37.785-6.99l-48.162-11.656c-12.211-2.953-26.599-4.864-37.846-8.474l-32.153-10.308c-7.578-2.432-17.314-7.014-25.088-10.59l-40.15-18.432c-6.988-3.208-24.644-14.438-28.33-18.355l-19.26-20.472-6.724-13.132 3.644 27.23c-7.049-7.365-12.809-15.002-7.066-26.607 12.817-25.89 33.39-46.652 60.092-62.823 78.054-47.266 161.612-65.75 250.555-80.82 9.268-1.57 19.15-2.721 28.579-3.728l28.5-3.047 27.205-2.91c8.713-.93 20.173-2.338 29.918-2.431l86.076-.785zm-66.842 96.938c-1.681 1.937-3.789 5.564-6.246 9.6l-5.88-2.056c-3.9-6.596-10.948-12.783-17.732-15.181l-4.079-3.985c-.649-.64-2.432-.384-3.73-.222l-2.969-3.473-12.1.205-11.324.205c-10.308.187-22.826.256-33.868 3.268-35.866 9.788-78.755 27.46-87.433 67.652l5.402 7.424c-.052.956.06 2.671.12 3.73 3.353 7.32 15.811 13.678 22.723 15.427 1.937.495 5.47 2.066 7.467 2.902-.53-.265 3.37 4.104 4.506 4.13l31.88.631c1.289-.87-2.483 1.69-5.657 3.84l-8.457 1.4c-1.374.23 3.618 5.367 5.333 5.359l82.117-.145c5.623-.009 5.17-20.728 26.342-26.027 3.627 9.822 4.719 12.766 6.349 15.19 4.71 7.014 18.611 16.87 28.202 18.764l46.67 9.225c18.073 3.575 84.172 5.017 96.255-11.973 11.435-16.085 2.569-38.4-12.97-47.505-21.632-12.68-42.292-17.57-66.125-23.398l24.627-3.635c13.107-1.937 26.7-4.489 38.997-9.344 14.32-5.666 18.321-20.514 12.143-34.39-12.638-28.39-54.98-36.334-79.889-30.08-32.4 8.15-60.296 18.979-80.665 42.47z"/><path fill="#e02e23" d="m744.218 504.951 3.763 6.136z"/><path fill="#8a1612" d="M487.253 408.542c-.725-29.346 5.07-34.355 30.149-51.627-16.47-3.96-24.977-15.07-23.587-30.694l.675-7.552c20.369-23.492 48.264-34.33 80.665-42.47 24.909-6.264 67.251 1.68 79.89 30.08 6.177 13.875 2.175 28.723-12.144 34.389-12.296 4.864-25.881 7.415-38.997 9.344l-24.627 3.635c23.833 5.828 44.493 10.726 66.125 23.398 15.539 9.105 24.405 31.42 12.97 47.505-12.074 16.99-78.182 15.548-96.256 11.973l-46.669-9.225c-9.582-1.894-23.492-11.75-28.202-18.765z"/><path fill="#710707" d="m441.745 303.548 3.064 4.727 11.997-1.45c1.297-.154 3.08-.41 3.73.221l4.078 3.985c6.784 2.398 13.833 8.585 17.733 15.181 5.598 9.464 9.403 24.27 5.623 36.446-8.397 27.05-116.753 47.386-143.138 41.498-1.997-.837-5.521-2.407-7.467-2.902-1.612-1.501-5.606-4.633-8.38-6.383l-14.352-9.045c-.06-1.067-.171-2.773-.12-3.729l.717-13.704c2.108-1.81 4.625-3.721 4.787-4.267.777-2.5 3.925 29.85 15.83 24.243l25.736-12.126 37.675-17.433c12.006-5.556 33.604-6.443 41.642-19.584l-25.378 1.203c-2.978.145-8.815-2.338-10.103-4.625s2.415-8.585 5.009-8.226l10.112 1.39c6.485.888 21.086-1.885 27.298-3.9 1.911-.622 1.16-8.285-.666-9.13l-6.041-2.807c-3.294-1.528-9.148-6.946-10.727-9.378l11.324-.205z"/><path fill="#8f1916" d="M430.421 303.753c1.57 2.423 7.433 7.85 10.727 9.378l6.041 2.807c1.826.845 2.577 8.508.666 9.13-6.22 2.023-20.813 4.797-27.298 3.9l-10.112-1.39c-2.594-.359-6.298 5.939-5.01 8.226 1.29 2.287 7.126 4.761 10.104 4.625l25.378-1.203c-8.038 13.14-29.636 14.028-41.642 19.584L361.6 376.243l-25.737 12.126c-11.904 5.606-15.06-26.743-15.829-24.243-.17.546-2.688 2.457-4.787 4.267l-.717 13.704-5.401-7.424c8.678-40.192 51.566-57.873 87.432-67.652 11.042-3.012 23.56-3.08 33.869-3.268z"/><path fill="#daa697" d="M487.253 408.542c-1.63-2.424-2.722-5.368-6.348-15.19-21.172 5.291-20.72 26.01-26.343 26.027l-82.116.145c-1.715 0-6.699-5.137-5.333-5.359l8.456-1.4c3.166-2.15 6.946-4.718 5.658-3.84l-31.88-.63c-1.144-.026-5.036-4.395-4.506-4.13 26.385 5.887 134.74-14.44 143.138-41.498 3.78-12.177-.026-26.983-5.624-36.446l5.88 2.056c2.457-4.036 4.565-7.663 6.246-9.6l-.674 7.552c-1.391 15.625 7.117 26.727 23.586 30.695-25.08 17.263-30.874 22.272-30.148 51.626z"/><path fill="#8f1916" d="m456.815 306.825-11.998 1.45-3.072-4.727 12.1-.197zm-119.441 94.438c-6.92-1.75-19.38-8.107-22.724-15.428l14.353 9.045c2.773 1.75 6.767 4.881 8.38 6.383zm127.249-90.232-4.079-3.985z"/></svg>