<svg xmlns="http://www.w3.org/2000/svg" viewBox="0 0 1024 1024"><path fill="#5f9136" d="M880.471 548.782c-119.014.522-214.559 53.059-280.555 153.001V444.452h-102.4v327.117c-62.214-57.867-147.395-87.465-253.522-87.926l-.446 102.4c83.185.358 147.205 22.671 190.295 66.314 61.143 61.937 63.58 150.052 63.673 157.937v1.331h51.2l18.928.358 41.17 1.321c.036-.962 3.738-96.783 42.342-189.86 47.888-115.45 123.04-171.801 229.755-172.262z"/><path fill="#76ad43" d="M458.906 605.732c0-39.614-27.75-72.694-64.855-81.019a83.27 83.27 0 0 0-40.623-34.934c1.46-6.17 2.315-12.564 2.315-19.174 0-45.89-37.202-83.093-83.093-83.093-17.203 0-33.193 5.228-46.448 14.188a82.7 82.7 0 0 0-36.644-8.597c-40.745 0-74.583 29.353-81.67 68.055a83.3 83.3 0 0 0-14.745-1.382c-45.885 0-83.087 37.202-83.087 83.092a82.74 82.74 0 0 0 19.604 53.55 82.72 82.72 0 0 0-19.604 53.55c0 45.881 37.202 83.083 83.087 83.083 7.598 0 14.935-1.111 21.924-3.02 2.386 43.75 38.513 78.52 82.862 78.52 29.128 0 54.717-15.018 69.55-37.694a82.6 82.6 0 0 0 42.696 11.899c45.89 0 83.092-37.192 83.092-83.093 0-4.25-.42-8.396-1.04-12.477 38.032-7.624 66.679-41.19 66.679-81.454m551.818-129.147c0-18.903-7.64-36.02-19.994-48.44a69 69 0 0 0 1.408-13.922c0-32.486-22.569-59.632-52.864-66.795 1.751-6.067 2.74-12.452 2.74-19.082 0-37.95-30.767-68.7-68.711-68.7-37.94 0-68.7 30.755-68.7 68.7 0 10.286 2.324 20.014 6.374 28.774a74 74 0 0 0-7.408 4.352 73.56 73.56 0 0 0-32.62-7.654c-38.574 0-70.226 29.542-73.636 67.235a68.4 68.4 0 0 0-23.485-4.208c-37.94 0-68.7 30.756-68.7 68.705 0 25.344 13.762 47.432 34.191 59.336-10.148 12.662-16.302 28.656-16.302 46.151 0 24.91 12.35 46.895 31.227 60.299a68.3 68.3 0 0 0-3.784 22.323c0 37.944 30.761 68.705 68.705 68.705 18.704 0 35.64-7.496 48.031-19.625 3.666.558 7.393.912 11.208.912 19.963 0 38.052-7.947 51.359-20.803a73.6 73.6 0 0 0 48.563 18.263c40.55 0 73.441-32.64 73.922-73.083 33.403-7.127 58.476-36.777 58.476-72.315 0-19.594-7.64-37.376-20.091-50.585a68.47 68.47 0 0 0 20.09-48.543"/><path fill="#84b857" d="M833.782 132.465c-23.204-51.031-74.604-86.533-134.323-86.533-18.903 0-36.972 3.599-53.586 10.08-26.926-28.779-65.219-46.801-107.746-46.801-47.754 0-90.178 22.707-117.14 57.887a146.84 146.84 0 0 0-76.175-21.172c-81.48 0-147.528 66.054-147.528 147.533a146.78 146.78 0 0 0 25.871 83.436 146.8 146.8 0 0 0-25.871 83.435c0 73.006 53.033 133.586 122.665 145.408 10.214 53.3 57.062 93.584 113.341 93.584 34.13 0 64.784-14.828 85.919-38.37 21.13 23.547 51.789 38.37 85.919 38.37 59.14 0 107.858-44.488 114.606-101.817 45.916-18.206 80.532-58.777 90.363-108.288 51.788-22.896 87.956-74.695 87.956-134.968 0-50.586-25.467-95.206-64.271-121.784"/><path fill="#5d8b35" d="M402.857 452.726c-18.683 0-37.601-4.818-54.835-14.95a107.83 107.83 0 0 1-50.043-66.31 107.84 107.84 0 0 1 11.5-82.268 10.24 10.24 0 0 1 17.653 10.383 87.47 87.47 0 0 0-9.328 66.75 87.49 87.49 0 0 0 40.596 53.796c41.856 24.617 95.928 10.583 120.54-31.268a10.235 10.235 0 1 1 17.654 10.383c-20.198 34.34-56.504 53.484-93.737 53.484M621.44 439.68c-4.69 0-9.405-.323-14.136-.978a100.5 100.5 0 0 1-66.76-39.188 10.24 10.24 0 0 1 16.343-12.35 80.13 80.13 0 0 0 53.238 31.253c21.35 2.964 42.562-2.56 59.75-15.555a80.14 80.14 0 0 0 31.253-53.243 80.13 80.13 0 0 0-15.55-59.745 10.24 10.24 0 0 1 16.343-12.35 100.49 100.49 0 0 1 19.497 74.916 100.47 100.47 0 0 1-39.183 66.76c-17.756 13.414-38.927 20.48-60.795 20.48"/><path fill="#9cc569" d="M823.357 598.676a102 102 0 0 1-14.136-.983 100.5 100.5 0 0 1-66.765-39.183 10.24 10.24 0 0 1 16.343-12.35 80.15 80.15 0 0 0 53.243 31.253 80.13 80.13 0 0 0 59.75-15.55 80.15 80.15 0 0 0 31.253-53.242 80.13 80.13 0 0 0-15.554-59.745 10.24 10.24 0 0 1 16.343-12.35 100.48 100.48 0 0 1 19.502 74.916 100.52 100.52 0 0 1-39.184 66.765c-17.756 13.404-38.932 20.47-60.795 20.47M218.26 672.61a101.2 101.2 0 0 1-31.339-4.997c-25.697-8.34-46.607-26.189-58.88-50.258s-14.433-51.481-6.093-77.168a10.255 10.255 0 0 1 12.903-6.58 10.25 10.25 0 0 1 6.579 12.903 80.16 80.16 0 0 0 4.859 61.547 80.13 80.13 0 0 0 46.96 40.085 80.15 80.15 0 0 0 61.543-4.854 80.14 80.14 0 0 0 40.079-46.955 10.245 10.245 0 0 1 12.902-6.58 10.245 10.245 0 0 1 6.58 12.903 100.47 100.47 0 0 1-50.258 58.88 100.8 100.8 0 0 1-45.835 11.074"/><path fill="#5d8b35" d="M491.884 346.266c-3.067 0-6.155-.215-9.242-.64a65.73 65.73 0 0 1-43.669-25.631 10.235 10.235 0 1 1 16.333-12.35 45.4 45.4 0 0 0 30.152 17.7 45.36 45.36 0 0 0 33.833-8.811c9.733-7.358 16.02-18.064 17.7-30.152s-1.45-24.1-8.812-33.833a10.24 10.24 0 0 1 16.343-12.35 65.74 65.74 0 0 1 12.754 49.004 65.72 65.72 0 0 1-25.636 43.669 65.63 65.63 0 0 1-39.756 13.394m242.365-75.945a10.24 10.24 0 0 1-7.24-17.48 45.35 45.35 0 0 0 13.369-32.302 45.37 45.37 0 0 0-13.384-32.297 45.37 45.37 0 0 0-32.297-13.379h-.005a45.38 45.38 0 0 0-32.302 13.384 10.24 10.24 0 1 1-14.48-14.484 65.72 65.72 0 0 1 46.782-19.385h.01a65.7 65.7 0 0 1 46.771 19.38 65.7 65.7 0 0 1 19.385 46.776 65.72 65.72 0 0 1-19.37 46.786 10.2 10.2 0 0 1-7.239 3m-351.13 23.966c-.978 0-1.97-.138-2.954-.435-16.665-5.012-30.387-16.215-38.63-31.544s-10.025-32.952-5.008-49.618a64.7 64.7 0 0 1 31.54-38.625 64.75 64.75 0 0 1 49.617-5.013 10.24 10.24 0 0 1-5.893 19.615c-11.427-3.43-23.51-2.217-34.027 3.435s-18.192 15.058-21.627 26.486a44.38 44.38 0 0 0 3.43 34.028 44.39 44.39 0 0 0 26.486 21.627 10.24 10.24 0 0 1-2.934 20.044m198.62-69.063a10.23 10.23 0 0 1-9.38-14.341c4.783-10.937 5.013-23.081.661-34.192s-12.774-19.865-23.71-24.642a44.34 44.34 0 0 0-34.192-.66 44.42 44.42 0 0 0-24.642 23.705 10.24 10.24 0 0 1-18.765-8.197 64.73 64.73 0 0 1 35.937-34.576 64.73 64.73 0 0 1 49.859.963 64.73 64.73 0 0 1 34.58 35.942 64.74 64.74 0 0 1-.963 49.864 10.24 10.24 0 0 1-9.384 6.134"/></svg>