<svg xmlns="http://www.w3.org/2000/svg" viewBox="0 0 1024 1024"><path fill="#f3eac7" d="M593.28 178.722c25.062 7.347 27.298 15.394 44.288 31.89.273 11.067.947 25.659-7.902 33.723-9.941 9.062-16.324 1.997-26.64 3.482-2.185.315-18.715 7.91-20.003 9.224-.785.802-.853 2.842-2.065 4.088-2.936 3.003-6.161 5.734-8.9 8.942v1.554c5.538 3.524 10.479 13.917 15.257 16.7 6.87 3.993 19.32 4.018 27.75 7.68 24.645 10.683 41.029 32.861 51.806 56.251 2.125 4.608-.034 7.356 6.17 11.546 8.132 5.504 22.818 1.45 32.691 2.739 7.689 1.007 13.867 7.023 22.776 4.992 2.355-.538 8.755-4.992 10.94-6.759 8.746-7.074 14.643-18.32 22.963-24.866 2.62-2.056 5.649-2.68 7.961-4.437 6.725-5.103 12.194-9.592 15.582-17.673-15.01-22.391-13.73-47.718-31.454-69.12-10.453-12.62-24.9-24.44-40.772-29.2-.418-3.09 4.045-1.724 6.195-1.767 3.217-.068 6.554-.162 9.745 0 12.766.666 24.79 5.914 34.577 14.14 5.974 5.017 15.284 13.738 17.16 21.026l3.2 1.374c4.003 12.663 9.379 24.96 9.055 38.528 9.08 9.924 19.294 17.843 23.782 31.13 1.289 3.805.435 9.514 3.405 12.535 2.773 2.807 5.521 1.1 8.636 1.997 7.73 2.227 24.038 13.85 29.534 20.07 3.285 3.72 6.007 9.702 8.823 13.32l-4.429 6.99c-1.63-2.97-4.488-2.603-6.204-3.448-7.372-3.618-13.021-10.044-20.736-13.807-5.597-2.74-18.807-8.132-24.413-7.424-7.109.896-34.023 11.998-36.096 18.824-.419 4.839-2.79 18.629-5.974 21.581-.546.504-2.15.12-2.68.683-.92.981-.81 2.91-2.192 4.045-7.655 6.246-17.639 6.118-25.395 10.086-2.526 1.289-3.986 4.224-5.846 4.779-9.574 2.858-15.18-5.282-22.434-9.02-9.762-5.026-18.714-5.666-29.61-4.932v36.318c0 1.05-8.33 16.605-9.788 18.56-5.282 7.065-13.193 12.032-19.482 17.723-7.595 6.878-13.175 14.618-7.04 24.824 1.246 2.065 4.446 4.181 6.264 6.186 7.705 8.466 18.235 18.808 23.33 29.765 4.326 9.318 4.667 17.698 6.98 26.675 1.024 3.985 5.111 12.314 8.576 14.438 6.255 3.832 13.858-.571 19.106-4.804 26.795-21.598 53.188-69.845 70.332-100.608 1.22-2.184.589-4.864 1.809-7.048 8.269-14.789 18.517-33.562 37.222-35.414 6.366-.631 13.517 1.579 18.56 5.282-20.292-3.942-29.525 11.47-37.546 27.11-18.961 36.967-32.717 74.684-57.268 109.253-40.37 56.866-106.257 68.668-155.878 113.382-37.769 34.031-62.071 82.33-71.671 132.045l-2.688 20.344c-3.986-4.199-1.92-10.12-2.688-15.028-3.448-21.913-12.954-51.234-22.614-71.278-21.598-44.818-57.54-75.76-100.753-101.197-23.356-13.747-49.246-24.115-70.613-40.986-26.829-21.18-50.953-60.467-66.74-90.923-9.446-18.227-26.658-64.622-38.997-77.03-1.57-1.579-7.176-2.705-8.49-5.683 5.939.495 12.663 2.227 17.715 5.316 4.813 2.944 10.905 10.453 13.935 15.3 18.363 29.457 31.215 62.37 53.35 90.138 5.65 7.091 14.473 14.805 20.617 21.905l5.99.213c1.553-14.242 7.168-30.498 15.104-42.479 7.646-11.554 17.835-19.55 27.05-28.748 1.264-1.255 2.945-6.17 5.462-7.825.674-5.257.828-10.428-2.492-14.789l-23.893-20.394c-10.59-12.911-14.157-26.292-15.88-42.582-.7-6.562 3.302-12.424 1.518-19.234-2.184-7.577-18.952-7.125-25.42-6.374-7.245.836-14.618 5.666-22.844 3.277-1.886-.547-10.94-11.947-13.594-14.806-1.194-1.288-1.305-3.336-2.056-4.087-2.031-2.031-11.187-8.721-13.807-9.225-8.687-5.273-18.867-8.166-28.98-9.105l-9.992-10.385c2.321-.435 4.284-3.268 5.316-5.316 3.764-1.579 5.948-.597 9.592.136 14.174 2.85 31.949 7.817 43.477 16.768 6.042 4.694 10.906 11.904 17.11 16.59 3.208 1.288 5.913-1.272 8.678-1.58 14.157-1.57 23.125.274 37.154 1.784 1.39.145 2.56.657 3.593 1.579 2.764.008 3.771-11.52 4.761-14.533 6.86-20.83 23.868-43.605 43.315-54.118 6.776-3.66 14.285-4.497 20.088-9.14 6.22-.93 12.424-2.517 18.637-3.506 3.32-.53 7.227.648 10.368-.256.947-.273 8.627-7.612 9.122-8.585 3.823-7.467-5.863-19.43-11.64-23.893-7.185-5.547-14.77-5.078-23.594-6.52-9.174-5.632-15.676-19.285-13.534-29.866.495-2.45 8.414-13.116 10.632-15.94 9.728 4.983 2.885 19.43 7.877 28.44l2.099 1.443c5.598 1.016 11.844 2.065 17.11 4.147 3.77 1.494 14.19 7.987 16.835 10.624 2.842 2.842 5.94 10.368 8.38 13.765.981 1.356 2.244 2.61 3.704 3.464 6.8-.35 12.637-6.323 17.843-8.397 13.312-5.29 51.149-5.444 64.93-1.834 6.076 1.595 17.314 9.181 23.21 8.67l12.425-16.103c9.293-6.673 18.253-11.767 26.616-19.49 1.288-1.186 3.302-1.289 4.087-2.065.256-.248 3.558-5.752 3.66-6.093 3.218-10.931-4.633-30.49-14.574-36.053l2.423-3.542zm-10.274 290.074c12.766 9.796 14.95.614 23.526-6.673 15.369-13.065 40.389-24.926 38.076-48.649-.845-8.687-5.99-18.867-7.014-26.632-.734-5.581.503-12.084.05-17.767-1.151-14.378-6.05-28.348-12.142-40.994-.674-1.408-.137-3.797-1.186-5.896-5.189-10.36-36.267-17.204-47.027-20.293-27.128-38.058-85.547-45.687-123.922-19.515-5.478 3.737-16.486 17.058-20.633 18.338-5.018 1.536-12.612 1.083-17.434 2.048-16.887 3.396-33.45 9.275-46.122 21.188-13.295 12.501-22.076 32.316-23.843 50.551-.819 8.465 2.62 11.29 3.474 17.716 1.134 8.559-1.767 15.778.46 24.354 3.269 12.603 9.063 19.396 19.132 26.914 12.322 9.19 27.093 15.616 30.106 32.793 5.495-.221 11.238.59 16.725.026 11.87-1.229 11.102-3.866 18.68-9.66 2.27-1.732 6.34-5.051 7.406-5.794 30.14-21.086 71.604-22.664 106.454-12.484 11.503 3.362 19.208 8.9 28.962 15.326 3.848 2.534 4.66 3.848 6.297 5.12zm-14.157 190.37c19.994-16.487 45.62-27.034 65.092-42.087 6.725-5.196 18.39-18.022 19.559-26.496 4.369-31.513-13.253-64.477-43.776-74.905-9.523-3.251-21.632-3.473-30.712-6.485-6.784-2.245-8.542-9.268-12.296-12.502-10.77-9.267-38.204-20.932-52.19-22.204-31.89-2.9-60.723 10.309-81.784 33.51-7.961 1.016-16.69-.614-24.533.265-12.595 1.408-38.562 19.038-47.019 29.159-10.333 12.365-15.846 23.774-19.507 38.946-.998 4.147-4.343 12.373-3.32 15.795.257.888.99 1.383 1.537 2.048 1.595 1.946 17.63 10.41 21.342 12.305 60.996 31.087 98.747 49.135 137.344 108.886 1.97 3.046 8.678 15.112 10.555 16.017 3.15 1.51 3.73-5.342 5.922-6.469 13.44-24.004 33.144-48.76 53.786-65.775z"/><path fill="#fef8e0" d="M729.677 217.694c-3.2-.162-6.528-.068-9.745 0-2.142.043-6.605-1.323-6.195 1.766 15.88 4.762 30.327 16.58 40.772 29.201 17.715 21.402 16.435 46.729 31.454 69.12-3.397 8.081-8.858 12.57-15.582 17.673-2.313 1.758-5.35 2.38-7.962 4.437-8.32 6.545-14.216 17.792-22.963 24.866-2.185 1.767-8.593 6.23-10.94 6.759-8.909 2.03-15.087-3.994-22.775-4.992-9.873-1.289-24.56 2.765-32.691-2.74-6.204-4.19-4.045-6.937-6.17-11.545-10.778-23.381-27.162-45.56-51.806-56.252-8.43-3.66-20.88-3.686-27.75-7.68-4.779-2.782-9.72-13.175-15.258-16.7v-1.553c2.74-3.2 5.965-5.93 8.9-8.943 1.212-1.237 1.272-3.285 2.065-4.087 1.289-1.314 17.818-8.909 20.003-9.225 10.316-1.476 16.7 5.581 26.64-3.481 8.85-8.073 8.176-22.665 7.903-33.724 1.868 1.81 2.551 3.823 4.573 5.197 7.501-.802 15.002-2.637 22.861-1.63 6.4.828 13.142 6.204 19.542 7.023 10.93 1.39 19.063-4.028 28.347-5.248 4.301-.572 13.167-1.084 16.802 1.74zM593.28 178.722l-2.423 3.541c9.932 5.564 17.792 25.123 14.574 36.054-.102.341-3.404 5.837-3.66 6.093-.777.768-2.8.87-4.088 2.065-8.362 7.722-17.322 12.825-26.615 19.49l-12.425 16.102c-5.896.512-17.135-7.074-23.21-8.67-13.782-3.61-51.619-3.464-64.93 1.835-5.214 2.074-11.043 8.047-17.844 8.397-1.459-.854-2.73-2.1-3.703-3.465-2.44-3.396-5.53-10.922-8.38-13.764-2.637-2.637-13.065-9.13-16.836-10.624-5.265-2.082-11.52-3.132-17.11-4.147l-2.099-1.442c-4.992-9.012 1.852-23.458-7.876-28.442 10.684-13.662 27.614-26.027 45.201-28.314 7.543-.98 12.826 1.152 20.855-2.167 5.752-2.38 5.786-5.478 8.312-7.586s11.383-5.786 12.117-6.648c.538-.623.06-2.389.555-2.79.623-.503 13.508-4.975 15.155-5.308 22.793-4.574 45.278-1.493 63.471 13.799 5.231 4.394 10.633 13.269 17.681 14.208 5.572.742 7.356.034 13.287 1.775zm-104.516 1.775h-8.85c-.221 5.76 5.394 7.433 8.85 2.645z"/><path fill="#fef9e1" d="M386.022 217.694c-2.141 10.581 4.36 24.235 13.534 29.867 8.815 1.442 16.401.972 23.595 6.519 5.777 4.454 15.462 16.427 11.64 23.893-.504.973-8.176 8.312-9.123 8.585-3.14.913-7.048-.273-10.368.256-6.212.99-12.416 2.568-18.637 3.507-5.802.87-9.591-.367-15.974 2.628-3.575 1.673-4.838 4.062-7.066 5.334-2.56 1.467-6.545 1.484-8.857 3.541-6.972 6.204-13.91 13.5-20.37 20.429-1.39 1.493-3.711 1.468-4.13 2.014-.35.452-4.309 7.756-5.375 9.685-2.125 3.814-1.502 10.095-7.305 9.523 3.72-8.047-1.015-15.983-1.74-23.944-.615-6.81.853-14.703-.035-21.223-.563-4.138-5.777-8.695-5.265-10.487 4.634-6.562 10.052-8.226 17.75-8.918l3.464-11.588-30.165 2.603-3.49 3.592c16.657 10.292.17 16.163-9.84 6.264-5.785-1.869-7.048 18.765.3 20.975 3.72 1.118 9.028-2.202 7.756 3.763-19.26-2.534-9.66 15.3-12.62 25.463-1.682 5.769-19.312 13.688-15.728 24.141-1.382 1.596-10.555-3.84-10.64-4.429-1.016-6.826 1.663-3.652 6.254-4.377 2.185-.341 3.158-.981 4.36-2.808l-1.766-9.642c-4.411-.273-9.318 1.519-12.382-2.663l12.39-12.399c.146-4.044-15.427-2.338-18.67-2.73l-9.668 2.739 3.541-13.295c5.342-1.869 6.938 4.224 9.958 5.103 2.356.683 11.375.734 13.176-.555.725-3.123 4.232-7.09 4.95-9.267.665-2.014.033-4.053.255-5.896 4.992-.29 12.561 2.082 12.4-5.308-5.616-1.579-11.58-1.417-12.4 5.308-5.666.332-11.016.836-16.623 1.604-8.132-5.385-11.358-14.131-9.992-23.791.708-4.967 7.492-6.127 7.125-11.469-6.05-1.869-8.021 5.64-11.767 6.86-1.946.632-4.062.018-5.94.223-.469-4.267 2.475-4.668 5.3-6.221 4.42-2.432 14.301-5.026 17.408-8.277 1.638-1.716 4.19-10.454 6.57-13.807 4.37-6.136 19.345-18.168 26.146-21.684 13.457-6.963 31.343-8.814 46.439-6.707 6.16.862 16.87 7.996 23.031 8.858 5.265.734 13.73.614 18.603-1.775zm-77.952 5.316c-12.885-.981-20.343 5.956-28.339 15.053-1.75 1.997-4.24 2.918-3.541 6.195 6.084.12 9.011-6.059 14.105-8.038 7.058-2.74 18.304-2.014 17.784-13.218zm-15.94 24.798c-4.915-.794-9.72.82-10.624 6.195 3.311 4.83 6.298 1.681 10.539.802l.085-6.988zm15.949 10.633h-3.541v3.54zm-42.522 17.715c8.858.315 12.135-7.237 4.43-12.39-4.31 3.78-6.793 6.792-4.43 12.39m-1.152 2.577-1.408 4.232 9.037 3.004 1.408-4.232zm25.959 50.56c-.205-3.149 1.058-7.979-1.698-9.814l-8.926-.819v10.633h10.632z"/><path fill="#fdf8e1" d="m203.563 338.15 9.992 10.385c10.112.94 20.301 3.832 28.98 9.106-5.249-.999-7.664-2.21-11.82-3.235-5.546-1.365-11.238-2.491-16.443-.23-.862 7.987 1.203 15.778 10.547 14.106v8.832c-6.562-1.024-17.544 6.46-22.716 1.459-.256-.248-3.515-5.777-3.618-6.119-1.39-4.59 1.673-8.917 1.639-13.926-.034-5.026-2.56-8.14-.103-13.278-5.188-1.579-6.886 1.946-10.069 3.217-1.655.657-3.84.137-5.905 1.178-3.08 1.544-4.77 8.124-5.282 11.545l6.314 1.664c-.657 11.708 13.364 11.136 13.133 22.17-1.433 3.09-5.103 2.244-7.09 3.575-1.895 1.263-5.198 8.943-8.67 10.684 3.387 2.705 3.916 5.487 3.404 9.737l-10.684-.999c-3.533 3.704-5.623 11.008-8.73 14.362-1.877 2.03-5.213 2.714-6.323 4.3-2.355 3.371-2.21 10.992-4.471 15.002 3.763 2.39 6.468 2.381 5.41 8.081l-15.863.086-3.755 13.969-10.24 2.15-2.04 6.827c-1.006 1.05-10.888-2.722-12.066-3.866-.657-.631-.793-2.79-2.013-4.13-5.257-5.785-7.646-7.262-16.026-6.17 1.331 4.242 9.736 6.068 11.563 8.807.998 1.502.69 3.874 1.68 5.41 1.468 2.27 6.12 2.577 8.073 4.36 3.09 2.817.18 5.957 9.515 4.617 3.063.88 2.116 6.204 7.253 6.92 6 .845-.981-8.848 6.195-7.09l7.092 7.09c-3.235 8.79-3.064 13.38-8.858 21.257l-1.041-1.587-2.509-.188a99 99 0 0 0-3.541-3.541c-16.307-15.027-33.528-29.056-49.604-44.288l16.273-50.159c4.386-7.834 22.152-24.627 30.284-28.169 7.459-3.25 22.008-5.043 27.81-9.386 2.817-2.108 2.8-4.642 4.02-5.828.571-.555 2.15-.154 2.696-.658 1.349-1.237 4.378-9.838 7.501-12.962 6.852-6.852 21.094-13.388 30.097-15.07zm-26.573 24.807h-4.42l-2.654 2.662v2.646h7.082v-5.308zm7.091 12.407-13.21-1.75c-2.875 1.784-3.114 3.832-2.739 7.05l15.94 1.774v-7.074zm-38.98 31.88 15.991.94 5.146-12.229-7.92-9.916c-9.667 1.23-14.873 12.212-13.217 21.206m28.339-12.407v-5.316c-.649-.717-2.569 1.75-3.533 2.654l3.533 2.654z"/><path fill="#fdf8e0" d="M242.534 267.298c1.878-.205 4.003.41 5.94-.222 3.754-1.22 5.725-8.73 11.767-6.86.367 5.333-6.417 6.502-7.125 11.468-1.374 9.66 1.86 18.407 9.992 23.791a212 212 0 0 1 16.623-1.604c.81-6.733 6.784-6.895 12.4-5.308.161 7.399-7.408 5.026-12.4 5.308-.222 1.843.41 3.883-.256 5.896-.717 2.176-4.224 6.144-4.95 9.268-1.791 1.288-10.81 1.246-13.175.554-3.02-.879-4.625-6.971-9.958-5.103l-3.541 13.295 9.668-2.739c3.243.393 18.807-1.314 18.67 2.73l-12.39 12.4c3.064 4.181 7.97 2.39 12.382 2.662l1.767 9.643c-1.203 1.826-2.185 2.466-4.36 2.807-4.592.726-7.271-2.449-6.256 4.378.086.58 9.259 6.024 10.641 4.429-3.584-10.454 14.038-18.373 15.727-24.141 2.97-10.172-6.639-28.007 12.621-25.464 1.272-5.956-4.036-2.645-7.757-3.763-7.355-2.21-6.093-22.835-.298-20.975 10.01 9.89 26.487 4.028 9.839-6.263l3.49-3.593 30.165-2.602-3.465 11.588c-7.688.691-13.115 2.355-17.749 8.917-.512 1.792 4.702 6.349 5.265 10.488.888 6.52-.58 14.404.034 21.222.717 7.962 5.453 15.906 1.741 23.945 5.803.571 5.18-5.71 7.305-9.524 1.075-1.928 5.026-9.233 5.376-9.685.418-.546 2.739-.52 4.13-2.014 6.46-6.929 13.389-14.216 20.369-20.429 2.312-2.056 6.297-2.073 8.857-3.54 2.228-1.28 3.5-3.662 7.066-5.334 6.383-2.995 10.172-1.75 15.974-2.629-5.81 4.643-13.32 5.479-20.087 9.14-19.447 10.513-36.454 33.28-43.315 54.118-.99 3.012-1.997 14.54-4.762 14.532-1.032-.921-2.21-1.425-3.592-1.578-14.03-1.502-22.998-3.354-37.154-1.784-2.765.307-5.47 2.867-8.679 1.579-6.204-4.676-11.068-11.896-17.11-16.589-11.528-8.951-29.303-13.91-43.477-16.768-3.643-.734-5.828-1.724-9.591-.136 3.482-6.93.785-13.347 1.775-20.37.435-3.123 2.748-5.009 3.268-7.355.623-2.79-.196-5.752.52-8.337.811-2.91 9.703-17.929 13.79-15.412.572-7.355 7.254-13.303 14.311-14.062z"/><path fill="#f2e9c8" d="M867.849 371.814c9.164 11.768 13.9 8.67 25.318 14.541 4.028 2.065 6.972 5.65 10.129 7.629 1.63 1.015 4.028.444 5.026 1.212.495.375.051 2.184.64 2.722 1.033.939 2.816.887 4.036 2.219 9.575 10.461 21.18 33.186 23.595 47.317.734 4.275-1.22 10.146 2.108 12.945-14.643 14.003-31.3 33.032-47.83 44.288-1.69 1.152-7.458 1.971-8.857 5.316-5.163-12.151-13.056-25.378-16.802-39.006l-15.087-28.313c3.507 3.208 7.586 5.973 10.658 9.71 4.139 5.027 6.315 14.541 14.063 13.261 2.432-6.203 7.552-11.067 9.881-17.595 9.976-27.904-8.26-54.17-27.52-72.696 1.716.845 4.574.478 6.204 3.448l4.429-6.99z"/><path fill="#fef9e1" d="M583.006 468.796c-1.647-1.263-2.45-2.577-6.298-5.12-9.762-6.434-17.459-11.973-28.962-15.326-34.85-10.18-76.305-8.602-106.453 12.484-1.058.743-5.137 4.062-7.407 5.794-7.578 5.794-6.81 8.431-18.68 9.66-5.487.572-11.23-.247-16.725-.026-3.012-17.169-17.783-23.594-30.106-32.793-10.069-7.518-15.863-14.31-19.131-26.914-2.227-8.568.674-15.787-.461-24.354-.853-6.426-4.292-9.25-3.473-17.716 1.766-18.235 10.547-38.041 23.842-50.551s29.244-17.792 46.123-21.188c4.821-.973 12.416-.512 17.433-2.048 4.147-1.272 15.155-14.6 20.634-18.339 38.374-26.171 96.802-18.542 123.92 19.516 10.761 3.09 41.84 9.924 47.028 20.292 1.05 2.1.512 4.498 1.186 5.897 6.102 12.655 10.991 26.615 12.143 40.994.452 5.683-.785 12.186-.051 17.767 1.024 7.765 6.17 17.954 7.014 26.632 2.313 23.723-22.707 35.584-38.075 48.649-8.576 7.287-10.76 16.469-23.527 6.673z"/><path fill="#fef8e0" d="M568.85 659.166c-20.643 17.015-40.355 41.762-53.787 65.775-2.193 1.126-2.781 7.978-5.922 6.468-1.877-.904-8.584-12.962-10.555-16.017-38.605-59.75-76.357-77.798-137.344-108.885-3.72-1.895-19.747-10.36-21.342-12.305-.546-.666-1.28-1.16-1.536-2.048-1.024-3.422 2.32-11.648 3.32-15.796 3.66-15.172 9.173-26.58 19.506-38.946 8.457-10.112 34.415-27.75 47.02-29.158 7.85-.88 16.58.75 24.532-.265 21.06-23.202 49.895-36.411 81.784-33.51 13.995 1.271 41.43 12.936 52.19 22.204 3.754 3.234 5.52 10.257 12.296 12.501 9.088 3.012 21.197 3.234 30.712 6.485 30.523 10.428 48.145 43.392 43.776 74.906-1.178 8.474-12.834 21.3-19.559 26.496-19.473 15.053-45.098 25.6-65.092 42.086zm288.375-283.81c19.26 18.517 37.495 44.783 27.52 72.695-2.33 6.528-7.45 11.392-9.882 17.596-7.748 1.28-9.924-8.235-14.063-13.26-3.08-3.738-7.16-6.503-10.658-9.712-3.789-3.464-8.312-7.629-12.4-10.632-5.042-3.704-12.193-5.914-18.56-5.282-18.704 1.851-28.953 20.625-37.221 35.413-1.22 2.184-.59 4.864-1.81 7.048-17.143 30.763-43.528 79.01-70.331 100.608-5.257 4.233-12.86 8.636-19.106 4.805-3.473-2.125-7.552-10.462-8.576-14.439-2.313-8.977-2.654-17.357-6.98-26.675-5.095-10.948-15.625-21.29-23.33-29.764-1.827-2.006-5.027-4.122-6.264-6.187-6.136-10.206-.563-17.937 7.04-24.823 6.28-5.692 14.2-10.658 19.481-17.724 1.46-1.946 9.788-17.51 9.788-18.56v-36.318c10.897-.734 19.849-.094 29.61 4.932 7.254 3.738 12.86 11.87 22.435 9.02 1.86-.555 3.328-3.482 5.845-4.779 7.757-3.96 17.741-3.84 25.395-10.086 1.383-1.126 1.28-3.055 2.193-4.045.53-.572 2.134-.179 2.68-.682 3.183-2.944 5.555-16.734 5.973-21.581 2.074-6.827 28.988-17.929 36.096-18.825 5.607-.708 18.816 4.685 24.414 7.424 7.714 3.772 13.363 10.189 20.736 13.807zM150.417 488.73l-7.091-7.092c-7.177-1.757-.196 7.936-6.195 7.092-5.129-.726-4.19-6.042-7.254-6.92-9.335 1.339-6.434-1.801-9.514-4.617-1.954-1.784-6.614-2.091-8.073-4.361-.99-1.527-.683-3.908-1.68-5.41-1.827-2.74-10.224-4.565-11.564-8.807 8.38-1.092 10.77.376 16.026 6.17 1.22 1.348 1.357 3.499 2.014 4.13 1.177 1.135 11.06 4.915 12.066 3.866l2.04-6.827 10.24-2.15 3.754-13.97 15.864-.085c1.058-5.7-1.647-5.691-5.41-8.08 2.26-4.011 2.124-11.632 4.47-15.002 1.11-1.596 4.447-2.27 6.324-4.301 3.106-3.362 5.188-10.667 8.73-14.362l10.683.999c.512-4.258-.017-7.032-3.404-9.737 3.473-1.74 6.775-9.412 8.67-10.684 1.988-1.322 5.657-.477 7.09-3.575.231-11.034-13.78-10.47-13.132-22.17l-6.315-1.664c.512-3.422 2.202-10 5.282-11.545 2.065-1.033 4.259-.52 5.905-1.178 3.175-1.271 4.882-4.796 10.07-3.217-2.458 5.137.077 8.252.102 13.278.034 5.018-3.02 9.335-1.638 13.926.102.342 3.362 5.871 3.618 6.119 5.171 5 16.154-2.483 22.707-1.46v-8.831c-9.344 1.672-11.4-6.119-10.539-14.106 5.206-2.261 10.898-1.135 16.444.23 4.156 1.024 6.57 2.236 11.819 3.234 2.62.504 11.776 7.194 13.807 9.225.75.75.862 2.799 2.056 4.087 2.654 2.86 11.708 14.26 13.594 14.806 8.226 2.39 15.599-2.44 22.844-3.277 6.468-.742 23.236-1.203 25.42 6.374 1.784 6.81-2.218 12.672-1.518 19.235 1.732 16.29 5.299 29.678 15.88 42.58l23.893 20.396c3.32 4.36 3.166 9.531 2.492 14.788-2.517 1.655-4.198 6.562-5.461 7.825-9.208 9.199-19.396 17.195-27.05 28.749-7.937 11.98-13.552 28.236-15.105 42.479l-5.99-.214c-6.144-7.1-14.96-14.805-20.617-21.905-22.135-27.767-34.986-60.68-53.35-90.137-3.021-4.847-9.114-12.357-13.935-15.3l-5.35-12.391c-1.417 0-2.97-.248-4.361 0-4.779.845-11.273 1.63-16.009 1.783-3.191.103-8.388-4.94-10.59-4.94-2.807 0-7.15 6.51-11.52 4.923l1.238 3.525 2.287.05.025 2.612-7.082 5.325 5.316 6.195c-.708.828-1.041 2.637-1.775 3.541-.128.154-1.783.299-2.696 1.741-.956 1.51-.58 3.08-.845 3.576-.657 1.237-1.16 2.363-1.775 3.54h-10.633c.81 8.304.418 15.813-8.798 17.793-1.442 5.3 3.311 6.485 5.257 10.556-.077.179-1.152.29-1.536 1.135-.418.921-.034 1.868-.239 2.406z"/><path fill="#fdf8e1" d="m173.449 444.442-5.317-6.196 7.083-5.324-.026-2.612-2.287-.05-1.237-3.525c4.37 1.587 8.713-4.924 11.52-4.924 2.21 0 7.398 5.043 10.59 4.941 4.736-.154 11.23-.939 16.008-1.783 1.391-.248 2.944 0 4.361 0l5.35 12.39c-5.051-3.09-11.776-4.821-17.715-5.316-4.813-.401-9.992.042-14.84.222-1.638 2.508-6.596 4.215-7.824 5.46-1.05 1.059-4.216 5.001-5.675 6.725z"/><path fill="#fbfbfb" d="M488.764 180.497v2.645c-3.465 4.788-9.08 3.107-8.85-2.645z"/><path fill="#fdf8e0" d="M308.07 223.01c.52 11.204-10.717 10.48-17.783 13.218-5.086 1.971-8.021 8.158-14.106 8.039-.7-3.277 1.792-4.207 3.542-6.196 7.995-9.096 15.454-16.034 28.339-15.052zm-17.706 106.283H279.73V318.66l8.926.82c2.756 1.843 1.493 6.664 1.698 9.813z"/><path fill="#fbfbfb" d="M265.557 276.156c-2.363-5.598.12-8.619 4.43-12.39 7.705 5.153 4.428 12.705-4.43 12.39m26.573-28.348-.085 6.989c-4.241.887-7.22 4.028-10.539-.802.905-5.376 5.709-6.99 10.624-6.196zm-29.145 35.143 1.407-4.236 9.038 3.001-1.407 4.236zm45.094-24.51-3.541 3.54v-3.54zM145.1 407.245c-1.656-8.994 3.541-19.968 13.218-21.206l7.919 9.916-5.146 12.228zm38.98-31.88v7.073l-15.949-1.775c-.375-3.217-.136-5.265 2.74-7.048z"/><path fill="#fef8e0" d="M176.99 362.957v5.308h-7.083v-2.646l2.654-2.662z"/><path fill="#fbfbfb" d="m173.44 394.837-3.533-2.654c.964-.913 2.876-3.379 3.533-2.653v5.316z"/><path fill="#fdf8e1" d="M166.357 456.84c-4.753 9.242-10.078 18.825-14.174 28.34-1.945-4.07-6.698-5.248-5.256-10.556 9.216-1.98 9.608-9.49 8.798-17.792h10.632z"/><path fill="#71b041" d="m1002.479 635.759-1.766-4.42c-1.545 3.925-3.38 8.601-5.564 12.143-20.975 33.996-48.034 65.109-77.782 90.504l-14.088 8.047c1.024-4.736 3.413-8.926 4.881-13.722 4.94-16.179 11.503-37.836 12.91-54.4.513-6.058-1.057-13.448.214-19.268 1.075-4.915 9.967-12.245 12.98-17.135 9.002-14.626 20.377-38.349 27.11-54.374 4.838-11.52 8.32-24.235 12.757-35.951-4.659-.905-2.978 1.041-4.352 3.55-12.697 23.1-28.211 48.264-44.433 69.009-1.075 1.382-2.56 3.362-4.352 3.618-.307-4.326.47-8.969-.043-13.244-3.6-29.773-12.347-58.837-20.266-87.79l-9.805-17.656c16.53-11.256 33.186-30.285 47.83-44.288 11.127-10.641 23.176-24.09 34.508-33.69 3.064-2.594 13.62-10.53 16.768-11.57 13.201-4.379 21.453 1.22 26.283 12.876 2.534 6.11 5 16.153 5.657 22.681 5.76 57.319-.435 130.919-19.447 185.08"/><path fill="#639d36" d="m890.88 504.67 9.805 17.655c7.919 28.954 16.665 58.018 20.266 87.791.521 4.275-.264 8.918.043 13.244 1.792-.256 3.268-2.236 4.352-3.618 16.222-20.736 31.736-45.9 44.433-69.01 1.383-2.508-.307-4.454 4.352-3.55-4.437 11.717-7.919 24.432-12.757 35.952-6.733 16.025-18.1 39.748-27.11 54.374-3.013 4.89-11.905 12.211-12.98 17.135-1.271 5.82.299 13.21-.213 19.268-1.408 16.572-7.97 38.23-12.911 54.4-1.468 4.796-3.849 8.986-4.881 13.722l14.088-8.047c29.748-25.395 56.807-56.508 77.782-90.504 2.184-3.55 4.019-8.218 5.564-12.143l1.766 4.42c-25.865 73.677-68.19 133.222-141.688 163.891-8.243 3.44-17.638 7.475-26.598 7.945 26.394-29.73 45.346-57.225 56.687-95.659 17.937-60.8 12.322-127.812-5.675-188.297-1.058-3.558-2.85-12.885-3.174-13.653 1.39-3.345 7.168-4.164 8.858-5.316z"/><path fill="#89cb56" d="M132.702 710.161c5.675-.444 5.564 5.666 8.013 8.815 43.11 55.381 90.18 87.731 157.2 108.518 3.252 1.007 5.488 3.619 4.848-2.184 17.519 17.118 34.022 30.54 54.374 43.938 2.372 1.562 4.94 2.637 5.854 5.658-44.015-1.144-87.484-13.014-126.379-33.937l-31.274-20.984c-5.65-6.92-9.865-9.293-17.716-12.399 5.846.393 3.328-.93.888-3.541-27.716-29.636-44.22-54.358-55.8-93.884z"/><path fill="#86ca54" d="M890.88 711.927c-11.34 38.435-30.293 65.929-56.687 95.66-.452.511-7.688 4.906-10.632 7.082-3.286 2.432-4.924 1.143-8.858 7.082-.717 1.084-1.144 2.398-1.775 3.542l-2.458.153c-16.605 13.39-37.248 23.962-57.267 31.352-29.713 10.974-61.107 17.271-92.62 18.09 1.083-2.705 4.718-4.616 7.167-6.118 19.567-11.947 38.69-26.76 54.836-43.486.512 2.287 5.87-.034 7.517-.46 59.247-15.096 113.357-51.218 148.335-101.436l12.433-11.486z"/><path fill="#8dd85b" d="M823.57 814.669c-1.887 3.242-4.882 7.245-8.859 7.082 3.934-5.947 5.573-4.65 8.858-7.082M201.787 432.043c1.314 2.978 6.92 4.104 8.49 5.683 12.34 12.407 29.551 58.803 38.998 77.03 15.786 30.456 39.91 69.743 66.739 90.923 21.367 16.87 47.258 27.238 70.613 40.986 43.205 25.437 79.155 56.38 100.753 101.196 9.66 20.037 19.166 49.366 22.614 71.28.768 4.906-1.297 10.828 2.688 15.026l2.688-20.343c9.608-49.715 33.911-98.014 71.671-132.045 49.621-44.714 115.507-56.516 155.879-113.382 24.541-34.569 38.306-72.286 57.267-109.252 8.021-15.642 17.254-31.053 37.546-27.11 4.088 3.003 8.61 7.159 12.4 10.632l15.086 28.313c3.738 13.628 11.64 26.855 16.802 39.006.325.768 2.117 10.095 3.175 13.653 18.005 60.485 23.62 127.497 5.674 188.297l-12.433 11.486c-34.978 50.21-89.088 86.34-148.335 101.436-1.646.418-7.005 2.747-7.517.46 58.88-60.979 86.084-142.259 95.616-225.894.204-1.81 1.365-8.286-1.733-7.927-3.95 13.081-6.767 26.461-11.008 39.475-29.602 90.743-79.061 174.634-164.906 221.27l-43.742 20.914c-18.526-2.048-42.232-7.919-60.28-13.235-6.52-1.92-14.882-6.656-20.659-7.671-8.5-1.494-32.077 9.02-42.547 11.69-2.065.53-4.275.23-6.349.734-13.013 3.14-26.726 7.04-40.226 8.49l-32.427-16.29c-96.264-44.467-148.335-139.238-179.31-236.979-2.39-7.534-4.037-15.47-6.153-23.074-3.047-.435-1.775 4.105-1.758 6.187.06 8.32 2.21 21.53 3.575 30.089 11.154 70.033 41.643 142.95 92.084 192.238.64 5.812-1.596 3.2-4.847 2.185-67.021-20.787-114.09-53.137-157.201-108.518-2.45-3.15-2.347-9.26-8.013-8.815-3.763-12.826-7.399-26.795-8.858-38.972-2.304-19.192-2.04-40.644-1.775-60.228l1.579-1.041c.631-3.166-.085-6.435.196-9.592.205-2.33-.205-4.761 0-7.083.026-.307 1.357-1.254 1.775-5.316.615-6.084.854-11.409 1.775-17.715l1.579-1.1c.52-1.375.042-2.902.196-4.208 1.98-17.647 8.346-35.712 12.399-53.145.145-.632-.222-1.468 0-1.775 5.794-7.877 5.623-12.467 8.858-21.257.196-.546-.18-1.485.239-2.406.384-.845 1.459-.947 1.536-1.135 4.096-9.523 9.412-19.106 14.173-28.34.606-1.185 1.11-2.312 1.775-3.54 2.594-.538 3.738-2.757 3.542-5.317.725-.904 1.066-2.714 1.775-3.541 1.467-1.724 4.633-5.666 5.674-6.725 1.23-1.245 6.187-2.944 7.825-5.46 4.847-.172 10.027-.615 14.84-.223z"/><path fill="#74ba43" d="m596.821 873.13 43.742-20.915C726.41 805.59 775.876 721.698 805.47 630.946c4.25-13.013 7.057-26.393 11.008-39.475 3.097-.35 1.937 6.118 1.732 7.927-9.532 83.644-36.736 164.924-95.616 225.895-16.145 16.717-35.26 31.539-54.835 43.486-2.458 1.502-6.084 3.413-7.168 6.118-1.178.034-2.364-.026-3.541 0-10.54.222-21.35.29-31.89 0-4.684-.128-9.506.299-14.173 0-.393-.026-3.371-1.39-7.083-1.775-2.313-.239-4.779.256-7.083 0z"/><path fill="#74bb44" d="M426.76 873.13c-1.715.188-3.566-.05-5.316 0-2.594.077-5.222-.307-7.808.197l-1.04 1.579c-4.703.093-9.464-.017-14.175 0-11.178.034-22.485.247-33.655 0-.589-.017-1.178.017-1.775 0-.913-3.021-3.482-4.096-5.854-5.658-20.352-13.397-36.855-26.82-54.374-43.938-50.432-49.28-80.922-122.206-92.084-192.24-1.365-8.558-3.507-21.768-3.575-30.088-.017-2.082-1.289-6.621 1.758-6.186 2.116 7.603 3.763 15.547 6.152 23.074 30.976 97.74 83.047 192.512 179.311 236.98l32.427 16.29z"/><path fill="#89cb56" d="M398.421 874.906c-3.31 3.208-10.615 1.766-15.052 1.775-2.953 0-5.906.017-8.85 0s-8.268 1.305-9.745-1.767c11.17.248 22.477.034 33.656 0z"/><path fill="#86ca54" d="m657.05 874.906-15.053 1.775-16.828-1.775c10.539.29 21.35.221 31.89 0z"/><path fill="#8dd85b" d="m610.995 874.906-6.016-.197-1.075-1.578c3.712.384 6.69 1.749 7.083 1.775z"/><path fill="#fdf8e1" d="M168.132 453.3c.265-.496-.11-2.066.845-3.576s2.569-1.587 2.697-1.741c.196 2.56-.948 4.779-3.542 5.316"/><path fill="#6fad3f" d="M22.87 637.525C4.02 580.975-3.679 513.792 1.654 454.221c.598-6.699 4.42-23.97 7.373-29.824 6.784-13.432 24.064-12.305 34.74-4.301.537.401.187 2.193.725 2.637 14.054 11.52 27 24.977 40.38 37.649 16.068 15.223 33.288 29.252 49.604 44.288-5.521-1.007-2.884 2.543-3.908 5.811-3.678 11.793-9.925 22.613-13.44 34.415-4.796 16.102-6.87 32.82-9.26 49.203-1.416 9.737-4.923 19.192-3.515 29.261-3.456.47-5.94-3.012-7.893-5.393-14.191-17.289-27.332-40.824-39.134-60.126-1.408-2.295.444-4.54-4.335-3.567l7.945 24.824c7.74 16.571 15.394 32.153 24.746 47.88 3.994 6.716 16.495 24.277 16.905 30.037s-.53 11.367.042 16.786c1.451 13.875 7.177 35.336 11.017 49.211 1.195 4.327 3.823 9.105 4.804 12.911.939 3.635-1.578 2.705-4.25 2.475l-38.22-32.64c-17.878-21.521-34.79-42.462-48.785-66.398-1.81-3.098.81-5.171-4.327-1.835"/><path fill="#629c37" d="M22.87 637.525c5.145-3.345 2.517-1.263 4.326 1.835 13.986 23.936 30.899 44.877 48.785 66.398l38.22 32.64c2.672.23 5.189 1.16 4.25-2.475-.981-3.806-3.61-8.593-4.804-12.91-3.849-13.876-9.566-35.337-11.017-49.212-.571-5.42.35-11.316-.042-16.786l19.49 20.378 1.775-6.204c1.459 12.177 5.094 26.146 8.857 38.972 11.589 39.526 28.084 64.248 55.8 93.884 2.449 2.62 4.958 3.934-.888 3.541-6.22-2.466-13.235-3.652-19.515-6.17-42.983-17.245-75.418-44.066-102.716-80.63.341-2.689-.981-4.609-3.541-5.317-19.235-27.196-28.323-46.003-38.972-77.944z"/><path fill="#6fad3f" d="M65.39 720.785c-1.672-2.236-2.465-3.789-3.54-5.316 2.56.708 3.882 2.628 3.54 5.316"/><path fill="#57912f" d="M134.477 504.67c.836.768 2.748 2.688 3.541 3.541.93.999 1.152 3.345 3.541 3.542-4.053 17.433-10.427 35.498-12.398 53.145l-1.58 1.11c-.545 1.365-.008 2.952-.195 4.206-.922 6.307-1.152 11.631-1.775 17.716l-1.579 1.109-.196 4.207c-.205 2.33.205 4.753 0 7.083l-1.579 1.04c-.47 3.184-.145 6.41-.196 9.592-.273 19.584-.538 41.037 1.775 60.228l-1.775 6.204-19.49-20.378c-.41-5.76-12.911-23.321-16.905-30.037-9.36-15.718-17.007-31.309-24.747-47.88l-7.944-24.824c4.779-.981 2.935 1.272 4.335 3.567 11.801 19.302 24.951 42.837 39.134 60.126 1.954 2.38 4.437 5.862 7.893 5.393-1.408-10.07 2.09-19.516 3.516-29.26 2.39-16.385 4.454-33.102 9.258-49.204 3.516-11.793 9.763-22.622 13.44-34.415 1.024-3.277-1.62-6.818 3.909-5.811z"/><path fill="#6fad3f" d="M141.56 509.986c-.222.307.145 1.144 0 1.775-2.39-.196-2.612-2.543-3.542-3.541l2.509.187 1.041 1.588zm-19.49 100.967c.042-3.183-.274-6.409.196-9.592l1.578-1.041c-.273 3.157.435 6.426-.196 9.591zm5.316-40.739c.187-1.263-.359-2.841.196-4.207l1.579-1.109c-.146 1.306.324 2.833-.197 4.207l-1.578 1.1zm-3.542 23.032.197-4.207 1.578-1.11c-.41 4.062-1.74 5.01-1.775 5.317"/></svg>