<svg xmlns="http://www.w3.org/2000/svg" viewBox="0 0 1024 1024"><path fill="#f9f5ea" d="m704.623 294.161 4.036 2.85c33.263 23.501 48.7 115.499 48.504 162.244-.18 43.427-6.29 85.42-20.216 126.285-10.53 30.9-25.625 58.59-46.182 83.67l-10.496 12.808-18.774 15.53c-9.233 7.647-29.329 19.576-40.209 8.312-3.532-3.652-3.993-10.334-3.012-14.728 5.026-7.202 10.42-14.336 16.248-20.907 6.545-2.696 20.83-22.016 26.368-29.338 23.065-30.506 42.905-70.263 51.276-106.487 2.313-9.993 5.948-19.738 6.537-30.78l.333-6.178c.435-8.158 1.98-23.876 1.39-33.476-2.781-45.304-22.502-86.989-57.471-115.277l-9.472-7.663c-1.084-.879-3.013-3.191-4.318-4.036-13.935-8.926-23.433-15.027-38.912-21.794-67.874-29.654-153.796-24.645-214.784 15.974-15.89 10.581-30.865 21.93-43.836 37.29-.93 1.102-2.142 3.243-2.526 4.25-24.815 27.162-39.415 63.13-43.196 100.788-8.644 86.195 48.18 166.493 136.858 175.445 40.892 4.13 89.173-10.547 117.82-39.032 1.331-.52 3.635-1.996 4.932-3.345 21.734-22.45 37.496-50.918 38.46-81.647.17-.042 1.459-2.466 1.468-3.234l.128-8.414-1.545-1.262.145-1.835c.853-10.931-5.606-32.043-11.998-42.018-9.19-14.328-18.79-24.969-33.143-32.947-38.238-21.257-90.897-13.125-112.333 25.6l-.06 1.604c-.444.324-1.271 1.015-1.544 1.578-9.933 20.395-4.745 49.639 16.674 53.795 2.602.503 7.577-2.526 9.77-5.283 4.378-5.504-5.316-10.94-7.133-12.953-7.28-8.073-4.566-21.154-1.391-29.04 6.698-7.653 9.438-13.627 21.24-20.18 29.601-16.419 70.826-5.59 89.667 25.77 11.58 19.277 11.034 32.862 10.548 53.564-4.259 27.452-16.103 46.49-35.15 65.707-58.248 52.266-152.925 47.428-199.125-18.902-31.564-45.312-34.09-101.982-11.997-152.37 7.407-16.897 18.235-30.832 28.45-45.134l15.146-13.627c12.143-10.923 24.337-19.132 37.923-26.428 4.078-2.193 9.531-4.275 14.455-6.357 36.471-15.48 71.68-18.808 110.925-15.062 23.048 2.202 55.535 13.073 75.716 25.455l19.507 11.964 13.287 11.64c6.946 6.084 12.91 13.601 18.833 20.812 13.389 16.307 20.403 35.251 27.375 54.136l1.33 11.4c.538 3.49 1.503 8.013 1.545 11.162l.35 25.403-1.33 1.63c-.214 9.677-.547 18.671-3.218 27.512l-5.222 17.314c-3.124 10.35-10.198 23.15-17.246 32.563l-1.75-3.797c.734-3.55.743-9.66 1.041-14.268 2.441-37.53-3.72-75.554-22.067-107.307-3.285-5.691-6.562-11.613-10.897-17.493-20.753-28.151-47.991-47.172-81.57-57.455-16.964-5.188-33.886-6.724-51.447-6.673l-13.159.034-1.408 1.485-2.944.085-5.325-.094-1.117 1.596c-.538 0-1.23-.042-1.605.06l-5.026 1.4c-21.726 3.942-42.112 14.096-59.759 28.51-7.765 6.348-14.097 13.584-20.156 21.657-32.221 42.897-33.126 105.36 9.925 141.884 31.437 26.675 82.201 27.972 111.786 1.561 14.456-10.393 25.404-31.658 21.12-51.012-2.995-13.517-13.312-24.064-27.468-25.916-5.027-.657-9.967 3.243-10.641 7.791-2.006 13.585 22.297 7.714 19.276 29.73-1.152 8.423-6.118 15.437-11.767 22.127-12.032 9.395-22.076 15.616-39.28 16.99-35.609 2.842-68.402-22.067-75.075-57.975-5.615-30.191 4.514-60.758 25.403-82.808 16.717-17.647 34.339-27.4 56.628-33.007 17.297-4.352 31.906-6.255 51.464-3.78 31.719 4.01 61.04 15.82 81.587 40.747 18.39 22.306 29.33 49.356 31.326 78.523 3.96 58.053-19.388 115.166-63.462 153.216-33.639 29.03-71.97 43.273-115.755 49.144-17.39 2.338-44.459 3.149-61.85 1.596l-17.382-1.562-9.958-1.16c-17.485-2.04-33.11-6.05-49.442-12.886-8.91-3.729-16.487-9.643-24.09-15.974-4.787-3.985-14.635-16.273-14.592-11.606l.034 3.934c0 .589.205 2.313.367 3.183l1.673 9.173-.547 3.909 1.707 9.694c.512-.59-.495.58-1.45 1.69-18.228-1.801-34.876-4.532-52.48-9.072l-12.203-11.835c-.52-.504-2.048-1.613-2.424-1.87l-.247-1.791c-1.34-1.579-3.294-3.567-4.821-4.907l-1.383-3.089c-.503-1.126-2.457-2.765-3.396-3.32l-4.113-6.946c-18.193-30.728-27.972-60.885-31.42-97.1-2.62-27.537-1.331-54.238 4.045-81.639l-5.333-9.122-5.445-9.327c-22.852 70.485-12.424 165.205 34.262 219.98l1.083 5.71c-28.57-7.117-46.89-11.495-71.21-28.024l-6.818-4.633c-7.237-14.618-13.475-29.654-15.898-46.225l-2.39-16.308c-.23-1.57.402-5.034.76-6.545 4.753-20.079 1.792-28.407 5.606-51.669 4.856-29.594 14.473-56.772 29.236-82.833 6.98-12.322 14.566-24.721 24.149-35.157l12.425-13.526c4.403-4.787 10.094-9.156 14.259-14.259 18.167-22.204 23.45-36.181 45.346-55.51 12.407-10.956 37.777-26.53 53.009-28.654 10.206-1.425 12.68-3.004 16.094-3.149l18.85-.82-7.066 6.222-8.559 7.492c-25.625 22.443-63.914 78.515-70.698 107.486l-2.09 8.926c-2.433 10.376-11.376 26.786-13.458 52.847-.18 2.295 1.1 7.688 1.536 9.796l1.323 6.374c-.444 1.306-1.528 5.385-.93 6.656 1.322 2.808 9.489 2.065 11.067-.981 1.349-2.603 2.594-5 3.09-6.759l2.84-9.984.786-7.884 1.536-15.036c.393-3.883 4.574-10.607 6.306-14.729l6.349-15.095 5.359-12.075c11.537-25.992 31.036-58.163 50.287-79.07l9.207-10c3.294-3.585 6.818-7.024 10.565-10.19l6.929-5.845 11.844-9.89c-1.886-1.75-3.806-3.447-5.973-4.975l-7.348-5.171c-.665-.47-1.604-2.97-1.527-3.302 1.86-3.474 16.29-12.297 21.017-15.164l12.911-7.842c11.375-6.904 22.23-11.46 34.705-16.692 21.35-8.951 42.82-15.752 65.844-18.653l14.583-1.835c18.517-2.33 56.679-1.092 75.93 1.434 32.768 4.3 66.67 15.581 95.701 31.385 32.034 17.434 40.2 31.761 44.68 34.927z"/><path fill="#e4d5c1" d="M845.705 401.348c-.384.88-.683 3.934-1.007 5.632l-5.35 28.365-7.305 45.653-3.943 32.512-3.908 43.034-1.212 16.222c-1.058 14.148-1.382 27.435-1.604 41.78-.17 11.229 1.963 29.098 12.937 34.892 18.176 9.6 38.758-13.577 46.062-30.66 14.208-33.246 14.277-60.775 11.273-96.35-.299-3.567-4.062-9.48-7.21-10.087-7.169-1.374-10.761 5.206-10.3 10.658l1.032 12.05c2.176 25.437-.068 54.391-11.716 77.84-2.987 6.008-11.99 18.842-18.39 17.494-5.205-1.1-6.271-12.365-6.17-17.417l.82-40.183 1.52-22.332 1.629-19.268 1.348-12.74 2.108-16.692c2.065-16.34 4.693-32.256 9.89-47.872 2.722-8.192 8.798-15.283 16.666-18.56l7.867-.17c.52.247 2.987 2.04 3.832 3.191 18.287 25.054 26.035 53.257 30.054 84.753.453 3.559 1.203 7.953 1.23 11.307l.323 42.76c.487 2.253.811 5.479.53 8.431-5.12 52.745-27.657 94.464-75.58 117.01-4.165 1.962-10.607 3.123-15.659 3.874l-20.89 3.106-46.924 5.418-14.473 1.528-16.026 1.8-12.578.23c-1.066.018-4.36.99-5.29 1.196-7.117.281-14.396.324-20.574 1.561-.444.034-1.212.103-1.604.111l-17.255.589-16.367 1.04-28.808 1.315-30.447.632-12.954-.7 8.798-6.801c6.272-4.847 11.819-10.394 17.562-16l10.64-10.385c-.972 4.394-.511 11.076 3.013 14.728 10.88 11.264 30.976-.674 40.209-8.311l18.773-15.53c.487 2.448 1.946 7.184 3.482 9.25 1.758 2.363 15.01-5.087 16.375-6.068l4.847-3.473c-1.425 2.244-3.567 5.146-5.623 7.304l-12.561 13.202c20.915 1.271 42.812-8.474 58.317-20.122 17.408-13.073 32.486-35.72 40.524-55.962 25.088-63.206 29.568-170.59 19.303-236.85-3.849-24.841-11.452-50.62-27.11-70.478-1.613-2.048-5.172-5.939-6.64-7.569-4.206-4.685-9.233-.725-8.806-4.318 6.29 1.425 12.826 3.038 19.251 6.136 34.603 16.631 69.385 46.95 64.077 88.277z"/><path fill="#f8f5ea" d="M745.003 303.82c5.76-.067 11.69 1.835 17.374 3.124-.427 3.593 4.599-.358 8.806 4.318 1.468 1.63 5.026 5.53 6.639 7.569 15.659 19.848 23.262 45.636 27.11 70.477 10.274 66.261 5.786 173.653-19.302 236.85-8.039 20.25-23.117 42.89-40.525 55.963-15.505 11.648-37.41 21.393-58.317 20.121l12.561-13.2c2.057-2.16 4.199-5.061 5.624-7.305 6.51-4.668 22.314-29.347 27.255-38.153 18.065-32.213 29.449-66.509 36.02-102.92 12.876-71.356 12.236-171.614-28.886-234.044l-3.089-2.688 8.73-.103z"/><path fill="#e1c7a5" d="m745.003 303.82-8.73.103 3.09 2.688c41.121 62.43 41.761 162.688 28.884 234.044-6.57 36.412-17.962 70.707-36.019 102.92-4.94 8.815-20.744 33.494-27.255 38.153l-4.847 3.473c-1.365.973-14.618 8.431-16.376 6.067-1.536-2.065-2.995-6.8-3.481-9.25l10.496-12.808c20.557-25.08 35.652-52.77 46.182-83.67 13.927-40.874 20.036-82.867 20.216-126.285.196-46.745-15.25-138.743-48.504-162.244l-4.036-2.85 21.845 2.688c3.08.376 7.902 2.936 10.83 4.045l7.713 2.927z"/><path fill="#d6aa76" d="m880.734 435.166-7.868.17c-7.868 3.277-13.943 10.369-16.665 18.56-5.189 15.617-7.826 31.531-9.89 47.873l-2.108 16.69-1.349 12.741-1.63 19.268-1.518 22.332-.82 40.183c-.102 5.052.965 16.316 6.17 17.417 6.409 1.357 15.403-11.477 18.39-17.493 11.647-23.45 13.892-52.404 11.716-77.841l-1.033-12.05c-.47-5.444 3.132-12.031 10.3-10.658 3.149.606 6.912 6.52 7.21 10.087 3.004 35.575 2.944 63.104-11.272 96.35-7.305 17.083-27.887 40.26-46.063 30.66-10.982-5.803-13.116-23.663-12.937-34.893.222-14.353.547-27.64 1.605-41.78l1.211-16.22 3.909-43.035 3.942-32.512 7.305-45.653 5.35-28.365c.324-1.698.614-4.744 1.007-5.632l.922 5.291c10.129 5.436 30.344 19.106 34.099 28.527z"/><path fill="#f1e3cd" d="M339.251 286.61c-.068.332.862 2.832 1.528 3.301l7.347 5.172c2.167 1.527 4.087 3.225 5.973 4.975l-11.844 9.89-6.93 5.845c-3.745 3.157-7.27 6.605-10.563 10.189l-9.208 10c-19.251 20.908-38.75 53.078-50.287 79.07l-5.359 12.075-6.349 15.096c-1.732 4.122-5.905 10.846-6.306 14.728l-1.536 15.036-.785 7.885-2.841 9.984c-.504 1.758-1.741 4.156-3.09 6.758-1.578 3.047-9.744 3.79-11.067.982-.597-1.263.486-5.35.93-6.656l-1.323-6.375c-.435-2.107-1.715-7.5-1.536-9.796 2.074-26.06 11.025-42.47 13.457-52.847l2.091-8.926c6.784-28.97 45.065-85.051 70.699-107.486l8.559-7.492 7.065-6.22-18.85.819c-3.413.145-5.888 1.723-16.094 3.148l1.562-1.553 10.12-2.628c5.974-1.553 12.596-2.645 18.748-3.294l15.88-1.68z"/><path fill="#efe0cc" d="m653.244 443.102-7.322 1.561c-.76.163-2.62 1.118-3.2 1.52-.862.597-.606 3.447-.12 4.556l4.865 11.11c20.471 46.763 12.424 107.674-8.167 153.191-9.779 21.615-18.722 38.75-34.577 56.474-20.053 22.417-44.134 40.2-71.398 53.094l-4.924 1.818-46.182-.017-1.63-1.528-51.354.017-46.447-1.288-32.017-1.775-30.498-2.065-22.4-1.724-16.051-1.476-18.594-1.929-56.619-6.929c-6.775-.828-13.15-2.722-18.944-4.6-26.7-10.88-48.546-31.044-61.21-56.652l6.819 4.633c24.328 16.53 42.64 20.916 71.21 28.024l-1.083-5.709 3.618 3.405c1.527 1.442 6.007 2.645 8.601 2.253 3.354-.512 6.016-5.564 5.624-8.397.375.247 1.903 1.357 2.423 1.869l12.203 11.835c17.604 4.532 34.253 7.262 52.48 9.071.947-1.11 1.963-2.278 1.45-1.69l-1.706-9.693.546-3.908-1.673-9.174c-.153-.862-.358-2.585-.366-3.183l-.035-3.934c-.042-4.667 9.805 7.62 14.592 11.606 7.604 6.331 15.181 12.245 24.09 15.974 16.333 6.827 31.949 10.846 49.442 12.885l9.959 1.161 17.382 1.562c17.39 1.561 44.45.742 61.85-1.596 43.784-5.88 82.116-20.113 115.754-49.144 44.083-38.05 67.422-95.163 63.463-153.216-1.989-29.167-12.928-56.217-31.326-78.523-20.549-24.926-49.87-36.745-81.587-40.747-19.55-2.475-34.168-.572-51.465 3.78l3.712-4.411c7.074.529 13.167-3.44 16.077-9.362l11.767-1.928-3.985-6.767-11.545-.12 1.408-1.484 13.158-.034c17.562-.052 34.483 1.484 51.447 6.673 33.58 10.274 60.818 29.295 81.57 57.455 4.336 5.88 7.612 11.81 10.898 17.493z"/><path fill="#e07017" d="M366.643 378.974c-10.214 14.302-21.043 28.245-28.45 45.133-22.093 50.389-19.567 107.059 11.998 152.37 46.2 66.322 140.877 71.16 199.125 18.902 2.5-1.374 5.71-3.567 8.397-5.811l2.253-1.877c2.568-2.142 2.056 2.636 7.577 9.753 5.948 7.672-.196-.367-6.963 12.485-28.646 28.492-76.928 43.161-117.82 39.031-88.678-8.951-145.501-89.25-136.857-175.445 3.78-37.666 18.372-73.634 43.196-100.788l4.002-3.968c.93-.93 3.61.274 4.727 1.408l6.605 6.682 2.219 2.133z"/><path fill="#e5cdaf" d="m494.754 363 11.546.119 3.985 6.767-11.768 1.928c-2.91 5.923-9.002 9.89-16.076 9.361l-3.712 4.412c-22.29 5.607-39.91 15.36-56.628 33.007-20.89 22.05-31.018 52.617-25.403 82.808 6.673 35.9 39.475 60.817 75.076 57.975 17.203-1.374 27.247-7.603 39.279-16.99-1.238 1.46-2.637 3.158-4.566 4.984-7.662 7.21-2.082 14.2-.58 14.378 2.526.29 6.793 1.366 8.44.64l6.186-2.73c-29.585 26.41-80.35 25.113-111.786-1.562-43.042-36.523-42.138-98.987-9.925-141.884 6.06-8.064 12.39-15.308 20.156-21.657 17.639-14.413 38.025-24.576 59.76-28.51 1.655.06 4.334-.538 5.025-1.4.367-.102 1.067-.06 1.604-.06 2.228 0 4.933-.494 6.452-1.501l2.944-.086z"/><path fill="#d6b085" d="M653.244 443.102c18.346 31.752 24.507 69.777 22.067 107.307-.299 4.608-.307 10.717-1.041 14.267-6.016 29.005-14.54 61.142-30.191 88.039l-7.86 13.508c-.554.947-1.399 3.149-1.689 4.01-5.828 6.571-11.221 13.705-16.247 20.907l-10.641 10.385c-5.743 5.607-11.29 11.153-17.562 16l-8.798 6.801 12.954.7c-2.714 1.289-7.091 1.135-11.392 1.152l-54.434.24 4.923-1.819c27.264-12.893 51.345-30.677 71.399-53.094 15.855-17.724 24.798-34.859 34.577-56.474 20.59-45.516 28.638-106.427 8.166-153.19l-4.864-11.11c-.486-1.11-.742-3.951.12-4.557.58-.401 2.44-1.357 3.2-1.52l7.321-1.56z"/><path fill="#e8d1b2" d="M653.474 341.043c-1.271.256-4.19 1.34-5.248 2.21l-6.297 5.172c-.666.546-3.124 2.133-2.868 2.884l1.255 3.61-19.507-11.964c-20.182-12.374-52.668-23.245-75.717-25.455-39.245-3.755-74.453-.427-110.925 15.061-4.915 2.09-10.376 4.173-14.455 6.357l.87-2.62-15.948-3.063-9.174-2.048c60.98-40.618 146.91-45.628 214.784-15.974 15.48 6.767 24.977 12.868 38.912 21.794 1.306.836 3.234 3.157 4.318 4.036"/><path fill="#e4d1b6" d="M211.388 657.553c.648 1.092 2.372 2.654 3.396 3.32l1.382 3.089c.717 1.612 3.277 3.925 4.822 4.906l.247 1.792c.393 2.825-2.27 7.885-5.623 8.397-2.603.393-7.074-.81-8.602-2.253l-3.618-3.405c-46.686-54.766-57.122-149.495-34.261-219.98l5.444 9.327 5.333 9.122c-5.384 27.4-6.664 54.101-4.045 81.638 3.44 36.216 13.227 66.372 31.42 97.1l4.113 6.947z"/><path fill="#dfa566" d="m604.177 510.2-4.113-3.61-9.267-3.815c-.922-.375-3.482-2.423-3.738-1.544s-.87 3.268-.87 4.369v21.837c-.009.452-2.065 2.782-1.724 2.244.478-20.702 1.033-34.287-10.547-53.564-18.842-31.36-60.075-42.188-89.668-25.77-11.802 6.553-14.55 12.527-21.24 20.181 1.152-2.859 4.07-8.226 5.709-11.204-3.499-2.09-6.835-5.035-8.704-8.329l-1.553-2.739-7.637 8.738c-1.144 1.314-2.97 2.944-4.13 3.84 21.435-38.724 74.094-46.856 112.332-25.6 14.353 7.979 23.953 18.62 33.144 32.947 6.4 9.976 12.85 31.087 11.998 42.018z"/><path fill="#e0af77" d="m653.474 341.043 9.472 7.663c34.97 28.288 54.699 69.973 57.472 115.277.589 9.6-.947 25.327-1.39 33.476-.07-.11-1.426 2.355-1.699 3.217l-1.007 3.175c-.17.554-1.135-.632-1.86-1.374-2.697-21.769-7.552-41.745-14.652-60.98-6.972-18.884-13.995-37.836-27.375-54.135-5.922-7.21-11.878-14.728-18.833-20.813l-13.286-11.64-1.255-3.609c-.264-.75 2.202-2.338 2.868-2.884l6.297-5.171c1.058-.87 3.977-1.954 5.248-2.21z"/><path fill="#efe0cb" d="M712.158 534.409c-8.371 36.215-28.211 75.98-51.277 106.487-5.538 7.322-19.823 26.633-26.368 29.338.29-.854 1.135-3.055 1.69-4.011l7.859-13.508c15.659-26.897 24.175-59.034 30.19-88.039l1.75 3.798c7.049-9.413 14.123-22.221 17.246-32.564l5.222-17.314c2.663-8.832 3.004-17.834 3.217-27.511l1.332-1.63.145 17.562 4.027 14.122 2.603 9.916c.29 1.118 1.988 3.38 2.355 3.336z"/><path fill="#e09249" d="m604.177 510.2-.145 1.834-.06 12.911c-.964 30.729-16.717 59.196-38.46 81.647-1.305 1.348-3.6 2.816-4.932 3.345 6.767-12.851 12.911-4.813 6.963-12.484-5.52-7.126-5.009-11.904-7.577-9.754l-2.253 1.878c-2.688 2.244-5.896 4.437-8.397 5.81 19.055-19.216 30.89-38.246 35.15-65.706-.35.546 1.706-1.783 1.706-2.244V505.6c.008-1.1.623-3.49.887-4.37s2.816 1.161 3.738 1.545l9.267 3.815z"/><path fill="#ddbe97" d="m520.533 559.659-6.186 2.73c-1.647.726-5.914-.35-8.44-.64-1.502-.179-7.091-7.168.58-14.378 1.938-1.818 3.337-3.516 4.566-4.984 5.649-6.698 10.615-13.713 11.767-22.127 3.021-22.016-21.282-16.145-19.277-29.73.675-4.548 5.615-8.448 10.642-7.79 14.156 1.85 24.473 12.398 27.468 25.915 4.284 19.354-6.664 40.61-21.12 51.012z"/><path fill="#de934a" d="M463.002 470.528c-3.175 7.885-5.888 20.975 1.39 29.039 1.818 2.014 11.512 7.458 7.134 12.954-2.193 2.756-7.16 5.794-9.77 5.282-21.419-4.156-26.607-33.4-16.674-53.794l1.544-1.58.06-1.603c1.152-.896 2.987-2.526 4.13-3.84l7.637-8.739 1.553 2.74c1.87 3.294 5.206 6.238 8.704 8.328-1.638 2.987-4.556 8.354-5.708 11.204z"/><path fill="#e59e58" d="M419.712 338.918c-13.594 7.305-25.788 15.505-37.922 26.428l-15.147 13.628-2.218-2.133-6.605-6.682c-1.118-1.135-3.798-2.33-4.728-1.408l-4.002 3.968c.384-1.007 1.596-3.149 2.526-4.25 12.97-15.351 27.947-26.7 43.836-37.29l9.173 2.048 15.949 3.063-.87 2.62z"/><path fill="#e5ceaf" d="m719.027 497.46-.333 6.177c-.588 11.034-4.232 20.788-6.536 30.78-.367.043-2.065-2.227-2.355-3.336l-2.603-9.916-4.028-14.123-.145-17.561-.35-25.404c-.042-3.149-1.007-7.68-1.544-11.162l-1.331-11.4c7.1 19.234 11.946 39.21 14.651 60.979.734.742 1.69 1.928 1.86 1.374l1.008-3.175c.273-.862 1.63-3.32 1.698-3.217z"/><path fill="#dfa566" d="m603.972 524.945.06-12.91 1.545 1.262-.128 8.414c-.009.768-1.298 3.191-1.468 3.234z"/><path fill="#efe0cc" d="M491.819 363.085c-1.52 1.007-4.224 1.502-6.452 1.502l1.118-1.596 5.325.094zm-8.056 1.561c-.691.862-3.37 1.46-5.026 1.4z"/><path fill="#dfa566" d="M445.09 464.017c.273-.563 1.1-1.254 1.545-1.579z"/><path fill="#efe0cc" d="M214.784 660.881c-1.024-.666-2.748-2.236-3.396-3.32.938.564 2.893 2.194 3.396 3.32m6.195 7.996c-1.544-.982-4.104-3.294-4.821-4.907 1.536 1.34 3.481 3.328 4.821 4.907"/><path fill="#d6b085" d="m482.21 726.4-52.983.094v-1.596l51.353-.025z"/><path fill="#f9642c" d="m44.749 628.873-3.32 4.48c-9.71 13.098 2.279 26.504 13.56 33.459 19.618 12.083 45.013 19.763 67.976 25.301 12.92 3.115 54.776 12.945 64.692 10.991 5.794 1.877 12.168 3.772 18.944 4.6l56.618 6.929 18.594 1.928 16.052 1.476 22.4 1.724 30.498 2.065 32.017 1.775 46.447 1.289v1.604l-22.315.085c-.75 0-2.918.53-3.456.802-2.995 1.502-.76 11.973 2.406 15.847l1.69 6.758 10.103 5.29.58-5.452 2.364-3.533 8.687 3.985c2.057 1.374 4.02 2.68 6.076 3.857l6.29 3.593c5.41 3.097 7.116-3.601 21.034.367l4.164 1.186c.939.264.751 1.894.862 3.942l-24.055.265-12.792-.128c-.35-1.408-2.79-3.2-4.335-3.44l-7.347-1.125c-5.094-.786-4.924 3.976-25.182 3.208l-27.426-1.041-23.595-1.417-25.48-1.766c-52.446-4.224-103.945-9.899-155.785-19.67-11.452-2.158-55.373-11.75-62.353-14.898l-4.326-1.955-23.86-8.67c-3.029-1.1-8.149-3.993-10.88-4.548l-7.108-1.442c-9.907-2.014-50.517-27.29-53.111-45.602L0 638.302c6.673-14.703 17.041-23.441 30.242-30.242.606-.316 1.408-1.23 1.826-1.741.29-.282 1.28.205 1.605-.043l1.732-1.382 1.468.017.35 4.01 9.898 4.933 5.683 2.833c2.902 1.442-8.618 8.644-8.055 12.211z"/><path fill="#d33018" d="m393.984 761.993 1.374 1.288 16.324-.017 19.157.085 12.792.128c-.41-.213 1.74 1.391 2.167 1.391l18.782-.042 110.908-.59 41.207-1.117-1.783 1.928c-3.789.12-9.13 2.646-9.114 5.769.128 18.347-7.995 6.28-4.224 24.073l-14.071.46-1.408 1.673c-38.101 1.621-76.117 2.577-115.174.947l-80.214-3.345c-54.127-2.253-138.052-12.809-190.78-25.975-30.66-7.655-79.65-23.288-100.565-45.475 6.972 3.15 50.901 12.75 62.353 14.9 51.84 9.77 103.339 15.436 155.785 19.669l25.48 1.766 23.595 1.417 27.426 1.04z"/><path fill="#ec4419" d="m927.53 721.545-2.167 1.843-10.197 2.278-24.107 6.357-54.98 10.761c-6.87 1.34-13.747 2.142-20.77 3.055l-25.558 3.32c-19.712 2.56-58.734 6.655-78.626 8.115l-1.937-5.667-4.94 4.89 5.273.76c4.429 1.399-17.672 1.314-18.927 1.408l-.956-8.67-6.698-5.12 4.753-6.178c-11.11-5.846-4.275 1.262-20.438-6.58-1.97-.955-3.822-8.2-1.638-8.268l18.62-.564 2.858-1.826c.393-.017 1.161-.077 1.605-.11l19.234.29c8.337-3.508 18.782.63 19.208-3.286l16.026-1.8 14.473-1.528 46.924-5.419 20.89-3.106c5.052-.75 11.494-1.911 15.659-3.874-.649-.025 2.764 1.22 3.592 1.084l19.925-3.311c18.023-2.995 53.052-11.904 70.588-17.212.973-.29 2.535-1.032 3.345-1.51l1.605-.137 4.266.743 6.861-.043c1.988.418 1.81.375.299.051l-7.032 4.267c-9.642 5.854-.41 4.864-13.226 12.56-2.91 1.75 2.73 4.89-1.716 16.846l-2.082 5.59z"/><path fill="#b82018" d="M925.363 723.388c-9.352 13.994-50.218 30.66-67.464 36.369-29.662 9.813-59.546 16.75-90.727 21.248l-15.53 2.236-43.614 5.589-23.92 2.355-44.057 3.422-33.596 1.502-9.147.426-11.213.478 1.408-1.672 14.071-.461c-3.771-17.792 4.352-5.726 4.224-24.073-.025-3.123 5.317-5.649 9.114-5.768l1.783-1.929c.828-.025 2.253-.102 3.004-.076l17.698.46 1.792-1.732 28.775-1.408 22.63-1.698c1.263-.094 23.356 0 18.927-1.408.41.06 1.212.043 1.604.017 19.892-1.46 58.914-5.555 78.626-8.115l25.558-3.32c7.023-.913 13.91-1.706 20.77-3.055l54.98-10.76 24.107-6.357 10.197-2.279z"/><path fill="#b31812" d="m952.909 590.148-6.503 3.448c-.768.41-2.338 1.834-2.875 2.44s1.476 3.132 2.227 3.635l10.163 6.836c7.654 5.154 15.488 10.274 21.274 17.228l5.41 6.511c4.164 5.01 6.57 15.454 2.713 21.7-9.327 15.113-27.195 21.914-43.409 28.434l-1.766 1.152-1.604.136-3.345 1.51c-17.536 5.308-52.566 14.217-70.588 17.212l-19.925 3.311c-.82.137-4.233-1.109-3.593-1.083 47.923-22.545 70.468-64.265 75.58-117.01.29-2.952-.043-6.178-.53-8.43 2.791 1.237 6.17 2.585 9.61 3.652l25.923 8.09 1.212 1.211z"/><path fill="#e33614" d="M952.909 590.148c.384-.205 1.297-.102 1.664.077.247.785.367 1.621.921 1.604l2.287-.076c.555-.009 1.212-.069 1.605.076-.035.137 1.945 2.347 2.645 2.612l9.037 3.447 6.17 2.15c12.603 4.387 24.225 11.717 34.918 21.027 13.892 12.083 11.323 18.517 11.835 35.165.154 4.984-1.373 10.855-4.471 14.857-6.827 8.823-14.754 16.546-24.516 22.042-14.66 8.268-32.435 16.947-48.29 22.135l-19.192 6.28 2.082-5.589c4.446-11.964-1.194-15.095 1.715-16.845 12.818-7.705 3.584-6.715 13.227-12.56l7.032-4.267c1.519.332 1.69.367-.3-.052l-6.86.043-4.267-.742 1.767-1.152c16.213-6.52 34.082-13.32 43.409-28.433 3.857-6.247 1.45-16.692-2.714-21.7l-5.41-6.512c-5.785-6.963-13.619-12.083-21.273-17.228l-10.164-6.836c-.75-.503-2.764-3.037-2.227-3.635s2.108-2.03 2.876-2.44l6.502-3.448z"/><path fill="#ea4216" d="m110.55 600.226-3.474-3.132c-24.354 9.635-39.193 12.817-59.58 29.534l-2.739 2.245c-.563-3.567 10.957-10.761 8.056-12.212l-5.683-2.833-9.9-4.932-.349-4.01c2.219-3.56 15.283-8.312 20.557-10.079l46.84-15.658c1.63-.546 3.48-1.314 4.633-1.792-.358 1.51-.99 4.975-.76 6.545l2.39 16.307zm-76.877 6.042 1.732-1.383zm-3.43 1.792 1.825-1.741c-.418.512-1.22 1.434-1.826 1.74"/><path fill="#bd1b14" d="M110.55 600.226c2.423 16.572 8.67 31.608 15.897 46.225 12.672 25.609 34.517 45.773 61.21 56.653-9.916 1.954-51.772-7.876-64.692-10.99-22.971-5.53-48.367-13.21-67.976-25.302-11.281-6.955-23.27-20.36-13.56-33.46l3.32-4.48 2.739-2.244c20.386-16.717 35.226-19.9 59.58-29.534l3.473 3.132z"/><path fill="#f35521" d="m687.095 721.45-2.858 1.827-18.62.563c-2.184.068-.333 7.313 1.638 8.269 16.163 7.842 9.319.734 20.438 6.579l-4.753 6.178 6.698 5.12.956 8.67-22.63 1.698-28.775 1.408-17.928-.085-1.553 1.357c-.751-.017-2.176.06-3.004.076l-41.207 1.118-110.908.59-18.782.042c-.427 0-2.577-1.605-2.168-1.391l24.056-.265c-.102-2.048.085-3.678-.862-3.942l-4.164-1.186c-13.918-3.968-15.625 2.73-21.035-.367l-6.289-3.593c-2.065-1.177-4.02-2.483-6.076-3.857l-8.687-3.985-2.363 3.533-.58 5.453-10.104-5.29-1.69-6.76c-3.174-3.873-5.41-14.344-2.406-15.846.538-.273 2.714-.802 3.456-.802l22.315-.085 52.983-.094 46.182.017 54.435-.239c4.3-.017 8.678.128 11.392-1.152l30.447-.631 28.808-1.315 16.367-1.04 17.254-.59zm40.047-3.105c-.426 3.916-10.871-.214-19.208 3.285l-19.234-.29c6.186-1.246 13.457-1.289 20.574-1.562.921-.213 4.224-1.177 5.29-1.195l12.578-.23zM430.84 763.349l-19.157-.085-16.324.017-1.374-1.288c20.258.768 20.087-3.994 25.182-3.209l7.347 1.126c1.536.24 3.985 2.031 4.335 3.44zm280.286-6.075c-.392.025-1.194.042-1.604-.017l-5.274-.76 4.941-4.89z"/><path fill="#e33614" d="M938.556 681.677c-.81.478-2.373 1.212-3.345 1.51z"/><path fill="#d33018" d="m639.18 761.762-1.791 1.732-17.698-.452 1.561-1.357z"/></svg>