<svg xmlns="http://www.w3.org/2000/svg" viewBox="0 0 1024 1024"><path fill="#fedd79" d="M1021.71 248.96c-5.205 69.658 6.921 148.83.214 217.293-1.143 11.699-7.56 32.367-15.334 40.857-35.875 21.948-71.587 44.425-107.691 65.98-71.86 42.897-147.593 83.857-221.176 126.165-69.717 40.09-140.663 87.365-212.778 121.788-10.931 0-19.226 4.318-30.643 5.112l35.746-23.006c2.73-12.05-8.098-5.675-15.6-10.087-3.37-1.988-3.404-6.118-4.82-7.773l25.54 5.128c-1.715-8.619 3.763-15.445 5.034-23.083 5.137-30.873 8.124-51.473 10.292-84.198 2.423-36.6 8.652-67.797 10.214-107.264.794-20.087 3.499-50.782 17.86-66.551 3.397-3.73 8.653-3.584 11.7-6.332 1.69-1.52.418-6.724 1.86-7.834 2.654-2.048 9.386-.845 14.327-3.652 53.223-30.208 109.986-52.95 163.482-81.826 59.887-32.333 116.548-73.455 173.866-109.62 22.878-14.43 48.052-29.482 71.28-43.647 14.694-8.969 29.337-18.552 43.997-27.631l22.64 20.207z"/><path fill="#fef0b3" d="M265.743 371.55c6.331-7.22 6.135-10.77 19.678-11.273l1.501-8.123 39.399-12.288 1.288-8.355 39.51-12.117 1.587-8.064c97.22-45.21 194.261-99.225 288.828-148.181 34.5-17.86 72.507-42.795 111.462-46.89 21.265-2.237 23.407 6.442 36.437 9.326 8.047 1.784 16.58-.572 24.039 1.502 15.368 4.275 46.447 31.718 68.958 30.95l1.194 8.448c19.405-3.754 24.329 6.665 36.702 12.084 33.033 14.446 82.978 26.888 85.393 70.4l-22.639-20.207c-14.66 9.088-29.303 18.67-43.998 27.63-23.219 14.174-48.4 29.219-71.279 43.649 8.841-11.657 4.506-12.51-7.688-10.249-31.394 5.828-66.5 39.125-99.012 41.72l-1.289 8.354c-28.51 5.632-50.876 31.172-80.427 32.52l-1.33 8.32c-44.835 20.924-94.917 42.616-139.068 68.105-9.481 5.47-14.004 15.146-27.11 18.858-40.38 11.435-79.992 6.759-118.546-5.017l-1.118-8.55c-14.25 3.498-21.427-8.363-28.245-10.335-10.06-2.918-23.74.99-35.012-5.853l-2.475 15.146 25.42 15.54c-13.14-5.692-26.384-12.16-40.089-16.393l-1.348-8.312-19.857-3.387-66.407-43.418c8.773-8.755 17.255-16.102 25.54-25.54"/><path fill="#fef2bd" d="M265.743 371.55c-8.286 9.438-16.768 16.785-25.54 25.54-1.22 1.212-5.155 1.4-7.527 5.026-19.166 29.27-13.918 115.456-12.902 153.319.58 21.53-6.033 36.42 12.68 51.166 10.325 8.132 19.115 7.662 28.16 12.706 9.455 5.273 19.422 11.178 29.227 16.742 12.228 6.938 22.87 19.038 37.188 21.555 1.306 8.397-6.886 4.933-12.74 5.095-11.452.307-30.49-4.284-38.332 5.111-19.388 2.193-46.336 20.574-58.522 35.977-3.9 4.923-21.99 31.991-23.202 35.532l-15.3 10.223c.444-7.987-4.343-13.346-10.342-17.8-32.922-24.397-68.199-48.051-102.178-71.475-6.358-4.378-15.634-6.153-20.463-10.18-7.262-6.05-1.98-14.541-7.493-18.032-38.673 30.089-26.436 79.275-28.108 122.59-13.978-30.583-12.212-44.689-4.045-78.105 10.18-41.669 37.751-77.884 73.958-99.704 15.283.162 24.883-10.419 39.723-11.4 12.552-.828 44.134 5.717 55.432 11.375 10.641 5.333 13.022 14.754 29.125 16.93 2.62 5.24 10.12-4.523 10.12-5.095v-173.67c0-8.533 25.498-27.494 29.645-36.838l21.436-6.58z"/><path fill="#fde487" d="M41 795.503c1.263-14.234-22.408-30.473-24.909-38.938-4.454-15.112 1.886-41.292-.622-58.103l10.854 9.284c32.52.23 40.772 25.796 56.422 40.875 6.503 6.263 35.038 9.523 45.278 13.491 10.308 3.994 13.423 11.179 20.275 15.488 10.198 6.409 23.63.93 20.404 23.04l15.317-20.454c-2.978 38.255 6.366 84.42 41.003 104.584 22.707 13.218 35.165 3.149 52.778 8.49 5.317 1.614 9.276 11.316 15.65 9.396l12.724-12.663c-4.958-5.197-8.508-7.433-9.84-15.275-2.346-13.807 12.596-3.405 15.378-12.809 5.06-.128 10.317.47 15.326 0 29.465-2.764 39.808-25.403 59.57-29.815 13.74-3.064 32.47 4.6 42.582-5.94 1.698-.119 3.413.12 5.112 0 11.417-.784 19.72-5.102 30.643-5.11-1.434.682-3.96 5.819-9.788 7.927-22.426 8.115-44.143 6.05-67.046 9.728l-4.386 5.836c5.367 38.793-59.392 60.4-90.002 63.215-38.63 3.55-90.888-20.164-126.523-36.701-40.21-18.663-92.638-47.139-126.208-75.546z"/><path fill="#feeaa2" d="M10.349 754.645c1.664-43.306-10.573-92.492 28.1-122.581 5.52 3.49.23 11.98 7.492 18.03 4.838 4.029 14.114 5.795 20.463 10.181 33.98 23.424 69.265 47.079 102.178 71.475 6 4.446 10.786 9.814 10.343 17.8l15.3-10.222c-1.229 3.584.828 10.778 0 15.326-9.728 6.152-9.438 15.53-10.215 25.54l-15.317 20.455c3.217-22.119-10.206-16.632-20.403-23.04-6.852-4.31-9.959-11.495-20.275-15.488-10.249-3.968-38.776-7.22-45.278-13.492-15.65-15.078-23.902-40.644-56.423-40.874L15.46 698.47c2.509 16.811-3.831 42.991.623 58.104 2.5 8.465 26.163 24.712 24.909 38.937-18.62-15.76-20.796-19.31-30.643-40.866"/><path fill="#feeba4" d="m240.21 397.09 66.407 43.418 19.857 3.387 1.349 8.312c13.704 4.232 26.948 10.7 40.09 16.392 13.14 5.692 26.384 12.16 40.089 16.393l1.34 8.32c27.946-4.898 38.203 28.996 51.84 40.687 2.15 1.843 6.792.358 8.217 1.476 2.893 2.287 4.096 61.841 5.88 73.498 2.099 13.696 7.714 29.542 10.129 43.511l10.103-23.082c3.098-16.111-6.212-40.124 5.206-53.53-1.562 39.467-7.791 70.665-10.215 107.264-19.627-2.953-22.067-23.552-39.014-35.046-26.07-17.681-51.38-13.082-78.336-28.928-24.133-14.191-97.81-65.963-121.037-67.917-7.68-.649-21.504 7.961-32.333 4.198-1.015-37.862-6.263-124.049 12.903-153.318 2.372-3.627 6.314-3.806 7.526-5.026z"/><path fill="#fde590" d="M490.494 683.127c-2.168 32.726-5.146 53.325-10.292 84.199-1.271 7.646-6.74 14.464-5.034 23.083l-25.54-5.129c-6.87-7.979-12.331-3.439-20.557-7.552-6.776-3.388-12.374-13.27-25.413-17.988 10.403-22.716 1.391-38.016-12.996-55.962-14.745-18.39-18.364-11-33.212-17.869-11.63-5.384-19.652-14.6-33.97-17.109-12.57-2.202-34.8-2.45-47.523-1.007 7.842-9.395 26.88-4.796 38.332-5.111 5.854-.163 14.046 3.302 12.74-5.095-14.319-2.517-24.96-14.617-37.188-21.555-9.814-5.564-19.772-11.46-29.227-16.742-9.045-5.044-17.835-4.566-28.16-12.707-18.713-14.754-12.1-29.636-12.68-51.165 10.828 3.763 24.652-4.847 32.332-4.199 23.228 1.954 96.913 53.726 121.037 67.917 26.957 15.846 52.267 11.247 78.336 28.928 16.947 11.494 19.396 32.102 39.015 35.046z"/><path fill="#fdf5ca" d="m367.904 468.6-25.421-15.54 2.475-15.146c11.272 6.843 24.951 2.935 35.012 5.853 6.818 1.972 13.995 13.833 28.245 10.334l1.118 8.55c38.554 11.777 78.174 16.453 118.545 5.018 13.107-3.712 17.63-13.388 27.11-18.858 44.152-25.49 94.226-47.181 139.068-68.105l1.331-8.32c29.551-1.348 51.917-26.888 80.427-32.52l1.289-8.355c32.512-2.602 67.618-35.89 99.012-41.719 12.194-2.261 16.529-1.408 7.688 10.249-57.318 36.164-113.98 77.294-173.866 109.619-53.496 28.877-110.26 51.618-163.482 81.826-4.94 2.807-11.673 1.604-14.327 3.652-1.434 1.11-.17 6.315-1.86 7.834-3.055 2.756-8.303 2.602-11.7 6.331-14.353 15.77-17.066 46.464-17.86 66.552-11.418 13.406-2.116 37.419-5.205 53.53l-10.104 23.082c-2.415-13.96-8.03-29.815-10.129-43.511-1.783-11.657-2.987-71.22-5.88-73.498-1.416-1.118-6.067.367-8.217-1.476-13.636-11.69-23.893-45.585-51.84-40.687l-1.34-8.32c-13.704-4.233-26.948-10.7-40.09-16.393z"/><path fill="#fdd051" d="M224.885 759.748c.99-4.24 10.13-28.655 11.358-29.781 1.544-1.408 6.212-.256 7.774-1.92 2.62-2.79 2.338-8.269 6.306-11.674 2.603-2.235 19.004-14.788 20.395-15.505 8.149-4.224 37.913-4.318 46.25-.008 4.6 2.38 19.525 24.96 20.386 30.669 3.755 24.857-10.948 31.402-10.675 53.384l-45.389 5.248c-11.298-20.267 8.517-29.594 4.881-50.85-29.465-5.478-47.368 34.074-40.226 58.103 2.202 7.399 25.122 30.686 33.314 33.101 7.365 2.168 26.642 1.715 35.235.956 6.587-.58 27.136-9.182 32.904-13.065 13.013-8.763 22.648-21.546 21.325-37.691l8.567-1.101c1.647-10.044-1.408-18.953 8.704-24.96 5.479 2.133 12.621 3.26 17.656 5.077 13.039 4.72 18.645 14.6 25.412 17.988 8.226 4.114 13.688-.426 20.557 7.552 1.425 1.656 1.45 5.786 4.821 7.774 7.501 4.42 18.33-1.962 15.6 10.087l-35.747 23.006c-1.698.12-3.413-.12-5.111 0-12.442.853-26.12-1.494-38.23.085-24.576 3.2-43.955 22.562-63.931 35.67-5.001.469-10.266-.129-15.326 0-11.512.29-27.938 1.689-38.434.119-9.131-1.366-15.514-12.4-27.18-11.128-12.372-21.81-23.261-37.034-26.273-63.053 5.53-9.002 3.242-20.3 5.051-28.1z"/><path fill="#fde185" d="M275.966 667.81c12.723-1.442 34.952-1.195 47.522 1.007 14.319 2.509 22.34 11.725 33.97 17.11 14.849 6.869 18.459-.521 33.213 17.868 14.395 17.946 23.407 33.246 12.996 55.962-5.035-1.818-12.177-2.944-17.656-5.078-10.12 6.008-7.057 14.917-8.704 24.96l-8.567 1.101c1.323 16.137-8.311 28.92-21.325 37.692-5.768 3.883-26.317 12.493-32.904 13.065-8.585.75-27.87 1.211-35.234-.956-8.192-2.415-31.113-25.703-33.315-33.101-7.142-24.038 10.752-63.582 40.227-58.103 3.626 21.256-16.18 30.583-4.882 50.85l45.39-5.248c-.274-21.982 14.43-28.527 10.674-53.385-.861-5.709-15.778-28.296-20.386-30.669-8.337-4.3-38.101-4.215-46.25.009-1.383.717-17.784 13.27-20.395 15.505-3.977 3.405-3.686 8.883-6.306 11.674-1.562 1.664-6.23.503-7.774 1.92-1.229 1.126-10.377 25.531-11.358 29.78-4.156 1.452-6.383 18.458-12.825 5.164-4.14-8.534-.35-19.175-10.164-25.592l-7.654 15.317c.828-4.548-1.229-11.733 0-15.325 1.22-3.542 19.31-30.61 23.202-35.533 12.186-15.403 39.134-33.775 58.522-35.977z"/><path fill="#fedd79" d="m194.233 754.645 7.655-15.317c9.822 6.417 6.033 17.05 10.163 25.591 6.443 13.295 8.67-3.712 12.826-5.162-1.818 7.8.469 19.106-5.052 28.1 3.012 26.018 13.9 41.25 26.274 63.053 11.665-1.272 18.048 9.762 27.179 11.127 10.496 1.57 26.922.171 38.434-.12-2.782 9.413-17.715-.989-15.377 12.81 1.33 7.842 4.88 10.086 9.839 15.274l-12.724 12.664c-6.383 1.911-10.333-7.783-15.65-9.396-17.613-5.342-30.071 4.728-52.778-8.49-34.637-20.165-43.981-66.321-41.003-104.585.776-10 .486-19.388 10.214-25.54zm234.966 71.51c-10.112 10.538-28.843 2.875-42.582 5.939-19.771 4.412-30.114 27.042-59.57 29.815 19.976-13.107 39.355-32.469 63.93-35.669 12.11-1.579 25.789.768 38.23-.085z"/></svg>