<svg xmlns="http://www.w3.org/2000/svg" viewBox="0 0 1024 1024"><path fill="#599643" d="M804.608 611.14c7.288 5.393 9.216 15.352 17.297 20.182-20.642 10.018-41.199 15.07-64.11 11.494-24.03-3.738-31.241-12.783-46.883-28.791.768-3.021 4.267.017 5.769.725 29.363 13.918 59.17 9.864 87.936-3.601z"/><path fill="#60a84a" d="M875.247 588.083c-3.917 4.941-5.367 6.75-10.086 11.529-2.91 2.952-5.342 6.562-8.491 9.37l1.289 2.158c-3.917-.034-9.933 2.629-12.263 5.82-.776 1.067-.589 2.688-.717 2.825-.879.955-20.019 10.052-23.065 11.528-8.081-4.821-10.01-14.78-17.297-20.181 19.584-9.174 39.987-24.679 53.333-41.797-.324 2.876 2.014 4.054 3.61 5.76 4.215 4.523 8.798 9.19 13.687 12.971z"/><path fill="#69b34f" d="m770.014 436.753-7.245 7.893-11.085 6.247-1.851 6.033c-1.553 3.157-5.82 4.412-8.585 6.545-34.637 26.718-70.349 91.75-34.662 130.372l-3.567 1.408c-2.304-4.437-7.936-8.9-10.846-2.85-.512-1.024-1.894-1.911-1.715-4.13l-2.611-.196c-13.841-37.581-2.552-71.373 19.072-102.767.921-1.331.793-3.397 1.109-3.883.358-.546 4.523-3.55 5.837-5.018 1.365-1.536 1.229-3.49 1.374-3.626.17-.17 1.954.153 2.816-.717 17.783-17.903 28.612-25.532 51.959-35.31"/><path fill="#d9f0b1" d="M706.586 593.852c-35.687-38.622.017-103.655 34.662-130.373 2.765-2.133 7.032-3.387 8.585-6.545 36.352-24.524 103.321-32.512 121.83 17.272 16.981 45.687-23.33 102.391-62.225 123.742-30.524 16.76-76.706 24.183-102.844-4.105zm74.957-109.543c-1.246 8.96 2.363 16.299 9.548 21.445 4.762 1.39 19.192-.999 24.073-2.953 10.146-4.053-2.475-12.638-7.646-14.916-8.183-3.593-17.186-3.943-25.975-3.576m-10.13 7.245c-2.423-.034-4.898-.512-7.202.649-1.33.674-9.395 10.376-10.743 12.322-3.55 5.103-11.631 19.447-10.906 25.207.171 1.314 1.11 3.294 2.236 3.584.853.222 14.106-5.854 16.12-6.929 15.104-8.098 13.15-19.712 10.496-34.833m25.993 27.35c8.49.913 20.719-1.537 23.066-10.795-.939-3.687-9.285-.922-11.589-.06-4.335 1.621-10.82 5.854-11.477 10.854m25.941-1.443c-7.296.12-22.11 6.204-25.745 12.45-2.654 4.566-4.574 22.221-2.398 26.496 1.997 3.926 3.917 2.953 6.528.683 11.631-10.129 21.47-23.782 21.615-39.637zm-52.386 18.927c-5.76 3.354-14.447 5.248-19.686 9.174-5.052 3.78 3.294 8.004 6.212 9.65 3.541 1.998 11.239 5.727 14.925 6.7 1.46.383 11.708 1.8 12.578 1.527 1.553-.478 3.772-3.174 3.866-4.915-1.87-7.407-8.286-24.363-17.886-22.136z"/><path fill="#64ab4a" d="M882.45 523.23c5.384 1.766 10.128 6.664 15.172 8.619 3.456 1.34 1.177-3.943 3.566-4.293-.52 4.933-.213 9.174-1.442 14.413-.4 1.724-2.065 6.255-2.884 8.644-2.586 7.501-6.23 14.754-10.086 21.615.102-4.471-4.549-5.418-7.245-7.893-3.49-3.2-7.27-7.014-10.052-10.846 3.55-6.059 11.161-23.603 12.97-30.268z"/><path fill="#538e41" d="M901.188 527.556c-2.389.35-.11 5.632-3.566 4.293-5.044-1.955-9.788-6.853-15.173-8.62 2.944-10.802 5.496-27.57 2.91-38.22l-1.468-15.104c10.616 16.666 16.478 29.62 18.714 49.75.46 4.147-1.186 5.666-1.417 7.901"/><path fill="#549241" d="M886.776 572.228c-3.9 6.92-6.99 10.12-11.529 15.855-4.89-3.78-9.472-8.448-13.687-12.97-1.596-1.707-3.934-2.885-3.61-5.76 2.953-3.79 9.472-12.34 11.529-15.855 2.781 3.823 6.57 7.637 10.052 10.845 2.696 2.475 7.347 3.422 7.245 7.894z"/><path fill="#c5e292" d="M771.414 491.554c2.653 15.13 4.608 26.744-10.496 34.833-2.023 1.084-15.275 7.151-16.12 6.93-1.126-.29-2.065-2.27-2.236-3.585-.725-5.76 7.356-20.113 10.906-25.207 1.348-1.937 9.412-11.648 10.743-12.322 2.304-1.16 4.779-.683 7.203-.649m-4.284 14.379c-4.71-.802-6.614.99-9.302 4.386-1.69 2.133-7.73 11.64-2.926 12.902 6.81 1.792 14.011-11.247 12.236-17.288z"/><path fill="#c2df90" d="M823.347 517.461c-.153 15.855-9.984 29.509-21.615 39.638-2.61 2.27-4.53 3.242-6.528-.683-2.176-4.275-.256-21.94 2.398-26.496 3.636-6.246 18.45-12.33 25.745-12.45zm-8.652 7.211c-2.407-.393-3.252 0-5.078 1.408-3.003 2.321-14.054 15.445-7.125 17.306 8.533-.547 15.83-10.846 12.203-18.714"/><path fill="#c5e193" d="M770.961 536.388c9.6-2.227 16.017 14.729 17.886 22.136-.094 1.74-2.304 4.437-3.865 4.915-.88.264-11.128-1.144-12.579-1.528-3.677-.972-11.383-4.701-14.924-6.698-2.919-1.647-11.264-5.871-6.213-9.651 5.24-3.926 13.935-5.82 19.687-9.174zm-8.746 8.585c-1.937.563-2.765 2.858-2.185 4.813 1.34 4.514 15.693 9.062 18.586 2.927.187-7.954-10.402-9.472-16.401-7.74"/><path fill="#c4e192" d="M781.543 484.31c8.797-.368 17.8-.018 25.975 3.575 5.18 2.278 17.792 10.863 7.646 14.916-4.881 1.954-19.311 4.344-24.073 2.953-7.185-5.146-10.803-12.476-9.548-21.445m8.789 14.284c5.598 2.398 13.116 7.783 18.594 2.296 1.81-6.563-14.012-11.537-18.662-7.843l.068 5.556z"/><path fill="#c5e090" d="M797.406 518.903c.657-5 7.151-9.233 11.477-10.854 2.304-.862 10.641-3.627 11.589.06-2.347 9.258-14.575 11.708-23.066 10.794"/><path fill="#e4f7c4" d="M767.13 505.933c1.775 6.041-5.427 19.072-12.237 17.288-4.804-1.263 1.237-10.76 2.927-12.902 2.688-3.396 4.59-5.188 9.301-4.386z"/><path fill="#e2f4c0" d="M814.695 524.672c3.626 7.868-3.678 18.167-12.203 18.714-6.93-1.86 4.122-14.985 7.125-17.306 1.826-1.408 2.671-1.792 5.078-1.408"/><path fill="#e2f3bd" d="M762.215 544.973c5.999-1.732 16.588-.214 16.4 7.74-2.892 6.135-17.237 1.587-18.585-2.927-.58-1.955.239-4.25 2.185-4.813"/><path fill="#dff3bb" d="m790.332 498.594-.068-5.555c4.659-3.686 20.471 1.288 18.662 7.842-5.478 5.487-12.996.111-18.594-2.295z"/><path fill="#6eb952" d="m1012.182 478.55 1.408 23.748c-2.467 11.375-4.07 23.116-8.62 33.903-3.711 8.789-11.545 21.17-17.296 28.825-2.953 3.925-6.656 8.269-10.087 11.529-16.64 15.812-35.541 27.067-57.66 33.152-17.416 4.787-29.968 6.681-48.264 4.292-4.25-.555-9.301-2.816-13.721-2.85l-1.289-2.16c3.149-2.807 5.58-6.416 8.49-9.369-.938 3.388 2.817 3.866 5.07 4.301 65.134 12.493 138.103-49.818 130.397-117.402-4.702-41.25-54.86-61.627-91.468-55.492-14.217 2.381-29.176 8.781-41.106 16.546 5.854 7.032 10.991 14.712 15.847 22.34l1.468 15.105c2.585 10.65.034 27.409-2.91 38.22-1.818 6.665-9.43 24.21-12.971 30.268-2.065 3.516-8.576 12.066-11.528 15.855-13.355 17.118-33.758 32.623-53.334 41.796-28.757 13.474-58.573 17.52-87.936 3.601-1.493-.708-4.992-3.746-5.768-.725-5.282-5.41-12.45-11.546-17.297-17.297-1.187-1.408-.973-3.388-1.443-4.326 2.91-6.05 8.542-1.58 10.846 2.85l3.567-1.408c26.138 28.28 72.32 20.864 102.844 4.104 38.895-21.359 79.215-78.054 62.225-123.742-18.509-49.792-85.478-41.804-121.83-17.271l1.851-6.033 11.085-6.247 7.245-7.893c.273-.11 1.169-1.57 2.79-2.201 28.04-11.043 60.195-12.246 85.846 5.162 11.059-6.024 21.24-12.066 33.519-15.582 31.658-9.054 67.49-6.092 93.371 15.48 11.537 9.608 20.199 25.506 26.641 38.937z"/><path fill="#589343" d="M931.465 631.322c-16.691 4.83-30.96 7.082-48.265 4.292-13.73-2.21-26.863-8.021-38.23-15.83.129-.136-.059-1.757.718-2.824 2.33-3.191 8.345-5.854 12.262-5.82 4.42.043 9.472 2.304 13.722 2.85 18.295 2.381 30.848.495 48.264-4.292a306 306 0 0 1 10.334 16.324c1.254 2.125 3.43 2.535 1.195 5.291z"/><path fill="#61a74b" d="M990.558 596.727c-16.794 16.734-36.284 27.981-59.102 34.586 2.227-2.756.06-3.166-1.194-5.29a306 306 0 0 0-10.334-16.325c22.118-6.076 41.02-17.34 57.66-33.152l2.201 7.168 10.778 13.005z"/><path fill="#66ac4f" d="M1019.392 550.613c-4.207 13.748-9.173 20.72-17.297 31.71-.597-2.952-3.806-7.142-5.734-9.395-2.364-2.756-5.658-5.854-8.679-7.902 5.752-7.654 13.585-20.028 17.297-28.825z"/><path fill="#598f45" d="m1019.392 550.613-14.413-14.412c4.549-10.787 6.153-22.528 8.619-33.903l-1.408-23.749c12.134 25.31 15.625 44.536 7.21 72.064z"/><path fill="#569346" d="M1002.095 582.315c-3.66 4.958-6.733 9.625-11.528 14.412l-10.778-13.004-2.202-7.168c3.43-3.26 7.143-7.604 10.087-11.529 3.02 2.04 6.314 5.146 8.678 7.902 1.929 2.253 5.137 6.443 5.735 9.395z"/><path fill="#daefb2" d="M883.891 469.905c-4.864-7.629-10-15.309-15.846-22.34 11.93-7.766 26.889-14.157 41.105-16.546 36.608-6.144 86.767 14.242 91.469 55.492 7.705 67.592-65.263 129.894-130.398 117.402-2.253-.436-6.007-.914-5.069-4.301 4.72-4.779 6.178-6.588 10.087-11.529 4.54-5.734 7.637-8.934 11.528-15.855 3.866-6.86 7.51-14.114 10.087-21.615 4.096 3.064 10.308 7.348 14.293 2.048 1.16-6.289-1.818-12.296-6.366-16.452l-2.159 9.37-2.884-3.61c1.229-5.24.921-9.48 1.442-14.413.239-2.227 1.877-3.746 1.416-7.902-2.235-20.13-8.098-33.083-18.713-49.749zm59.043 27.315-.623-7.185c-9.677-8.618-22.119-14.31-35.363-12.936-.853 7.048 2.322 17.152 8.662 20.89 1.596.938 10.419 3.447 11.972 3.327 4.326-.341 10.675-3.55 15.343-4.104zm1.493 5.854c-8.508-2.876-16.836.23-23.049 6.46 6.178 6.195 16.034 4.173 22.409-.649zm-25.941 25.2c-1.093 4.906 0 17.074 0 23.056 0 1.946 4.215 2.424 6.272 1.954 9.932-2.278 22.604-26.93 25.292-36.565l-6.092-3.37c-5.897 3.532-16.743 2.679-21.206 7.67-.717.803-4.138 6.648-4.275 7.263z"/><path fill="#c4e194" d="M918.486 528.273c.136-.614 3.558-6.451 4.275-7.262 4.463-4.992 15.309-4.13 21.205-7.671l6.093 3.37c-2.688 9.635-15.36 34.287-25.293 36.566-2.056.47-6.272-.009-6.272-1.954 0-5.982-1.092-18.16 0-23.057zm5.768 9.37c8.038 4.548 20.523-10.334 13.679-17.297-4.378-1.067-15.07 12.032-13.679 17.297"/><path fill="#c3df92" d="M942.934 497.22c-4.668.555-11.017 3.763-15.343 4.105-1.553.12-10.377-2.39-11.973-3.328-6.348-3.738-9.514-13.841-8.661-20.89 13.244-1.374 25.685 4.318 35.362 12.937l.623 7.185zm-26.505-11.358c-1.118.325-2.671 2.134-2.27 3.49 1.86 4.156 16.93 12.135 18.68 5.718 2.048-7.492-10.983-10.803-16.419-9.208z"/><path fill="#c0de8e" d="m944.427 503.074-.64 5.811c-6.375 4.822-16.23 6.844-22.409.649 6.213-6.238 14.541-9.336 23.049-6.46"/><path fill="#c0e291" d="M896.862 550.613c.82-2.389 2.483-6.929 2.884-8.644l2.885 3.61 2.159-9.37c4.548 4.156 7.526 10.163 6.365 16.452-3.985 5.308-10.197 1.024-14.293-2.048"/><path fill="#e3f4c3" d="M924.254 537.643c-1.39-5.265 9.301-18.364 13.679-17.297 6.844 6.963-5.64 21.845-13.679 17.297"/><path fill="#e4f4be" d="M916.429 485.862c5.436-1.595 18.466 1.716 16.418 9.208-1.758 6.417-16.82-1.562-18.68-5.717-.409-1.357 1.153-3.158 2.27-3.49z"/><path fill="#6cb64e" d="M654.695 381.986c-16.282-1.425-28.169-.299-41.105 10.06-51.021 40.85-56.9 144.496-26.642 198.913-22.826.077-45.687-.068-68.53-.068-64.658 0-130.697.068-195.909.145l-1.587-3.038-17.946-1.365c-.947-.069-1.945.102-2.884 0-.393-.043-4.113-2.782-7.21-1.443l-64.095-8.695c-49.425-9.813-98.816-24.619-140.595-53.274-.316-.213-.094-2.235-2.867-1.442l-2.176 4.318-3.601-2.876c.188-2.68-2.159-4.565-2.654-6.715-.46-1.972-1.502-7.433-1.664-9.14-.444-4.667-.46-12.637 0-17.297.504-5.051 2.995-13.414 4.634-19.148.896-3.14 2.577-4.054 2.577-8.235 3.746.81 2.765-1.664 4.036-3.857 38.374-65.988 123.895-74.035 192.691-76.877 122.07-1.775 245.197-2.492 367.608-1.408 2.372.017 6.732-1.067 7.936 1.434zm-318.567 47.565c-7.722.998-14.933-.905-22.297-1.493-30.26-2.415-60.433-2.893-90.923-1.46-35.738 1.673-106.377 16.282-129.613 46.243-.879 1.134-4.54 6.297-3.66 7.142 2.27.324 3.865-1.195 5.683-2.244 58.624-33.733 137.625-44.16 203.989-46.823 10.539-.418 21.214.273 31.778.06 1.75-.034 5.385 1.075 5.043-1.434zm-4.326 92.237c-5.965-.316-12.126.392-18.082.06-22.4-1.263-45.167-2.902-67.661-4.412-50.133-3.37-100.113-10.087-149.914-14.413-2.355-.205-4.992-2.27-7.953-1.408 1.084 2.304 4.523 4.25 6.716 5.538 9.617 5.658 23.706 9.011 34.705 11.426 56.474 12.4 125.218 10.957 182.707 6.067 1.494-.128 2.91-1.28 4.386-1.382 3.337-.239 6.716.026 10.061-.034 1.74-.026 5.385 1.067 5.043-1.434z"/><path fill="#62a648" d="M88.192 523.23c-2.867.572 1.52 3.678 2.16 4.326 9.403 9.421 17.706 18.483 29.047 25.72 49.561 31.616 114.184 36.275 171.383 36.318l12.186-2.944 17.945 1.365 1.587 3.038c65.212-.077 131.252-.137 195.909-.145 22.843 0 45.704.145 68.53.068 7.928 14.26 26.275 35.08 42.744 38.69 2.535.555 6.469-.921 7.706 1.664-108.894 3.03-219.315-1.092-327.97-1.408-76.723-2.67-172.416-10.385-220.075-79.735L78.09 526.123c.315-.922 1.39-2.117 1.442-2.885l3.6 2.876 2.177-4.318c2.773-.793 2.551 1.23 2.867 1.442z"/><path fill="#549040" d="M654.695 381.986c7.338.64 14.498 4.583 20.18 8.644l-1.313.828c-1.092 4.241 1.954 7.86 1.314 12.143-22.323-18.423-49.86-10.47-66.97 10.146-32.631 39.339-36.079 117.274-15.94 162.825 7.714 17.442 21.743 35.89 40.687 41.472 22.332 6.579 44.587-11.58 55.202-29.97l2.611.197c-.179 2.219 1.204 3.098 1.716 4.13.469.939.256 2.91 1.442 4.326-7.382 12.98-17.391 25.387-31.693 31.01-9.156 3.602-15.044 3.32-24.525 3.585-1.237-2.586-5.171-1.11-7.706-1.664-16.469-3.61-34.816-24.431-42.743-38.69-30.26-54.418-24.38-158.063 26.641-198.913 12.937-10.359 24.824-11.485 41.105-10.06z"/><path fill="#605630" d="M68.01 487.202c1 .273 3.397 2.517 6.341 1.621l.862 1.263c-.46 4.66-.444 12.63 0 17.297l-17.297-1.442c-12.885-.008-27.11-4.181-38.946-9.344-3.84-1.672-14.157-6.647-16.563-9.378-8.67-9.864 7.97-29.363 20.01-25.77 2.082.622 8.593 7.38 11.042 9.13 10.974 7.774 21.888 13.218 34.535 16.632z"/><path fill="#588343" d="M75.213 507.375c.162 1.707 1.212 7.16 1.664 9.14.495 2.15 2.842 4.035 2.654 6.715-.051.76-1.127 1.963-1.442 2.884-2.253 6.648-5.274 13.688-10.061 19.482-6.485 7.842-16.734 14.959-27.34 13.593-6.153-20.787 8.106-39.74 24.43-51.097l-7.202-2.16z"/><path fill="#588341" d="M82.424 462.694c0 4.182-1.673 5.095-2.577 8.235-1.639 5.734-4.13 14.089-4.634 19.149l-.862-1.263c-2.944.887-5.342-1.357-6.34-1.621-12.058-11.512-18.244-30.046-12.305-46.174 2.696-7.313 4.898-9.37 11.614-4.301 6.502 4.907 15.095 17.647 15.104 25.975"/><path fill="#4f853c" d="m682.087 396.399-1.28 2.159.477.717c2.057 1.749 3.508 4.633 6.563 4.326 8.047 11.682 14.404 19.285 19.473 33.135 4.172 11.383 6.818 23.953 7.91 36.045-.136.136 0 2.09-1.374 3.626-1.314 1.468-5.478 4.472-5.837 5.018-2.022-16.264-5.452-32.563-12.228-47.582-3.968-8.79-13.602-24.192-20.924-30.242.64-4.284-2.406-7.902-1.314-12.143l1.314-.828c1.886 1.349 4.941 3.994 7.211 5.769z"/><path fill="#549040" d="M687.847 403.61c-3.064.315-4.506-2.577-6.563-4.327l-.477-.717 1.28-2.159c4.53 3.533 3.481 3.883 5.768 7.203z"/><path fill="#5a9b41" d="M331.802 521.788c.341 2.509-3.303 1.408-5.043 1.433-3.345.052-6.733-.204-10.061.034-1.468.103-2.884 1.255-4.386 1.383-57.49 4.89-126.234 6.332-182.708-6.067-10.999-2.415-25.079-5.76-34.705-11.426-2.184-1.289-5.632-3.235-6.715-5.539 2.97-.861 5.598 1.204 7.953 1.408 49.8 4.327 99.78 11.043 149.913 14.413 22.494 1.51 45.261 3.158 67.661 4.412 5.956.333 12.117-.376 18.082-.06z"/><path fill="#599b3f" d="M336.128 429.55c.342 2.51-3.294 1.4-5.043 1.435-10.564.213-21.24-.487-31.778-.06-66.364 2.654-145.365 13.081-203.99 46.822-1.817 1.05-3.413 2.577-5.683 2.244-.879-.844 2.782-6.007 3.661-7.142 23.236-29.96 93.875-44.561 129.613-46.242 30.481-1.434 60.655-.956 90.923 1.46 7.355.588 14.575 2.49 22.297 1.492z"/><path fill="#58953f" d="m292.881 585.199.854 1.288 6.357.154c.939.102 1.937-.068 2.884 0l-12.185 2.944c-57.2-.043-121.822-4.702-171.384-36.318-11.34-7.236-19.644-16.307-29.047-25.72-.649-.648-5.035-3.754-2.16-4.326 41.78 28.655 91.17 43.46 140.596 53.274l64.094 8.695z"/><path fill="#62a648" d="m300.092 586.641-6.357-.154-.854-1.288c3.098-1.34 6.818 1.4 7.21 1.442"/><path fill="#daf0b1" d="M674.876 403.61c7.322 6.041 16.964 21.444 20.924 30.242 6.775 15.027 10.197 31.317 12.228 47.582-.316.495-.196 2.551-1.11 3.882-21.623 31.394-32.904 65.186-19.071 102.767-10.607 18.381-32.862 36.548-55.203 29.97-18.944-5.582-32.972-24.03-40.686-41.473-20.14-45.55-16.692-123.486 15.94-162.824 17.11-20.617 44.646-28.578 66.97-10.146zm-33.673 49.177c-4.676.913-16.742 14.96-19.439 19.499-3.25 5.495-4.625 9.984-5.324 16.341-.145 1.323-1.528 2.21.734 3.652 5.427 3.456 14.711 1.673 20.974 2.16l2.16-.717c2.5-2.364 5.239-5.095 5.725-8.687.777-5.692.82-23.211.043-28.869-.418-3.055-2.065-3.933-4.89-3.379zm15.676 1.28c-6.323 1.758-2.517 28.007-2.04 33.707 1.315 4.523 17.904 5.512 22.145 8.064 6.05-1.52-1.468-18.833-3.26-22.622-2.517-5.333-7.902-14.217-12.51-17.758-1.416-1.092-2.295-1.963-4.343-1.39zm20.873 53.282c3.31-10.231-16.709-11.426-18.637-4.906-2.321 7.85 14.029 6.81 18.637 4.906m-36.028 44.706c2.227-8.61 5.572-29.277 1.237-36.548-5.282-8.857-17.817-9.864-27.187-9.574-.435 7.466 1.272 15.351 4.531 22.135 2.424 5.043 12.22 19.635 16.589 22.323 1.485.914 2.961 1.92 4.821 1.664zm11.528-26.666c-1.117 6.57 0 18.577 0 25.941 0 .435 2.373 2.714 3.602 2.16 11.537-10.412 22.084-25.558 20.906-41.797-6.451-.154-18.79 2.978-22.332 8.661-.315.512-2.124 4.762-2.176 5.035"/><path fill="#c5e394" d="M641.203 452.787c2.825-.554 4.463.324 4.89 3.38.777 5.657.725 23.176-.043 28.868-.486 3.584-3.225 6.314-5.726 8.687l-2.158.716c-6.264-.477-15.557 1.297-20.975-2.159-2.262-1.442-.88-2.33-.734-3.652.7-6.357 2.073-10.854 5.325-16.341 2.688-4.548 14.762-18.586 19.438-19.499zm-4.386 12.937c-3.387.981-11.742 17.05-5.905 18.594 5.99 1.587 10.564-11.11 12.109-15.326l-2.048-3.388c-1.365-.05-2.833-.264-4.156.12"/><path fill="#c6e395" d="M641.724 552.055c-1.86.256-3.337-.75-4.821-1.664-4.37-2.688-14.166-17.28-16.59-22.323-3.259-6.784-4.966-14.669-4.53-22.135 9.37-.29 21.905.708 27.187 9.574 4.335 7.27.99 27.947-1.238 36.548zm-4.326-17.297c1.698-4.966-2.168-22.186-9.234-20.079-5.504 1.639-3.131 7.672-1.595 11.452 2.116 5.197 4.386 9.856 10.829 8.627"/><path fill="#c5e292" d="M656.88 454.067c2.047-.572 2.918.299 4.343 1.391 4.599 3.55 9.984 12.425 12.51 17.758 1.783 3.789 9.31 21.103 3.26 22.622-4.233-2.56-20.83-3.55-22.145-8.064-.478-5.7-4.292-31.957 2.04-33.707zm9.096 16.103c-.854-.837-6.324-2.339-6.955-1.707-.435 7.714 1.946 18.022 9.387 21.487 5.691-3.533 3.362-8.679 1.024-13.875-.35-.777-3.209-5.675-3.448-5.914z"/><path fill="#c5e393" d="M653.252 525.389c.043-.273 1.852-4.523 2.176-5.035 3.542-5.683 15.881-8.823 22.332-8.661 1.178 16.239-9.37 31.385-20.906 41.796-1.23.555-3.602-1.724-3.602-2.159 0-7.364-1.117-19.37 0-25.941m17.298-7.928c-2.424-.367-3.235 0-5.078 1.408-5.666 4.335-8.38 11.768-7.893 18.765 8.217 4.284 15.206-17.877 12.97-20.173"/><path fill="#c2e08d" d="M677.752 507.35c-4.608 1.902-20.958 2.935-18.637-4.907 1.928-6.52 21.948-5.325 18.637 4.906"/><path fill="#e2f5bf" d="M636.817 465.724c1.323-.384 2.79-.17 4.156-.12l2.048 3.388c-1.545 4.215-6.118 16.913-12.109 15.326-5.837-1.545 2.518-17.613 5.905-18.594"/><path fill="#e2f4bf" d="M637.398 534.758c-6.443 1.22-8.713-3.43-10.83-8.627-1.535-3.78-3.908-9.813 1.596-11.452 7.075-2.107 10.932 15.113 9.234 20.08"/><path fill="#e3f5be" d="M665.976 470.17c.247.239 3.097 5.137 3.447 5.913 2.347 5.188 4.676 10.343-1.024 13.875-7.441-3.464-9.813-13.772-9.387-21.487.632-.64 6.102.862 6.955 1.707z"/><path fill="#e2f4bb" d="M670.55 517.461c2.235 2.296-4.754 24.457-12.971 20.173-.487-6.997 2.227-14.438 7.893-18.765 1.843-1.408 2.646-1.775 5.078-1.408"/></svg>