<svg xmlns="http://www.w3.org/2000/svg" viewBox="0 0 1024 1024"><path fill="#f7ac31" d="M1014.58 466.185c-.708-.598-1.954-1.682-2.398-2.492z"/><path fill="#fbd46e" d="m421.573 256.316 4.002 6.203 7.663 11.887c3.44-1.843 4.839-2.645 5.94-3.157l-3.533 4.216c-6.016 7.176 7.518 17.484 12.066 19.788 17.647 8.943 38.699 19.943 56.567 13.654 1.835-.649 5.88-3.883 5.479-5.65l-1.306-5.683 4.028 6.716.597-9.907c.188-3.046 3.763-7.1 6.92-7.492l6.879 3.02c8.968-3.174 18.543-7.415 28.1-8.925 20.796-3.286 42.479 2.892 56.747 16.41l-8.576 7.167c-17.878 14.934-18.074 22.699-32.811 22.28l-25.182-.716-3.67-6.776c-.733-5.794-7.97-20.172-14.14-23.09-1.313 9.65-2.064 17.51-4.795 23.637-5.41 12.134-36.377 27.323-48.947 31.906-13.278 4.847-31.522 2.824-45.9.614-17.221-2.654-33.946-9.975-47.216-20.59l-11.255-9.003.981 8.806c.597 5.367 1.536 16.392-1.058 21.137-11 20.105-40.329 33.331-59.819 38.98-11.989 3.473-25.514 5.171-38.732 3.755-19.5-2.1-30.055-8.934-43.998-21.461-2.347-2.108-4.31-5.888-4.95-8.568 3.371-28.33 25.515-50.432 51.055-61.355l-6.946 6.784c1.92 5.453 6.323 25.387 15.855 23.783 13.244 4.181 29.141 8.397 45.312 4.463 18.637.042 3.695-12.98 21.222-25.814l-3.694-5.06 18.67 10.633 3.815-12.271c8.03-25.848 31.309-42.274 54.622-50.321z"/><path fill="#fede86" d="M734.354 625.212c7.39 1.015 16.41 2.96 23.765 4.778 4.455 1.11 6.972 2.577 14.729.256.555 0 3.814 7.185 5.7 9.088 8.414 8.474 23.117 19.38 27.128 32.478 4.3 14.063-6.99 23.458-1.92 27.597.657.538 3.916.282 4.411-.41l5.564-7.825c1.493-2.099 5.743-5.273 8.107-6.528 2.39 10.804.29 25.25-4.062 35.951-8.226 20.233-24.585 35.252-44.544 43.025-14.584 5.675-29.841 9.37-45.602 8.713-26.522-1.11-46.362-4.565-68.216-19.456-8.26-5.632-12.92-16.401-15.334-26.078-6.733-26.906-3.115-34.586 6.724-57.216l1.775-4.139c20.036-23.458 51.09-39.21 81.767-40.243zm11.35 24.584c-10.804-16.392-27.53-11.58-42.403-5.051-7.313 3.208-16.46 8.439-19.038 16.017-1.015 2.995 2.885 9.804 5.607 10.99 12.356 5.394 47.394-5.75 55.833-21.956"/><path fill="#f6ac36" d="m729.95 481.033-19.395 16.29c-4.523 3.797-8.79 9.745-11.162 14.498l-4.625 5.205c-1.17 1.314-4.83.555-7.194-.11-4.659-1.306-40.951-11.145-39.134-5.087-10.146-2.508-25.932 3.695-35.131 8.26-13.406 6.657-23.8 15.036-34.031 25.182-5.752 5.7-9.686 12.758-13.457 18.987-3.448 5.692-6.067 11.102-8.346 18.398l-20.6-2.142c-64.725-6.716-103.748 52.241-87.85 74.095 5.675 7.8 11.802 14.814 20.079 19.234 16.52 8.824 33.886 15.684 52.702 17.178 30.754 2.44 64.47-9.558 78.643-36.694l9.003-2.568c1.519-.435 5.35 4.198 5.87 5.675 5.539 15.684 1.204 16.034 4.933 16.392-1.656 11.153-8.977 24.09-18.014 31.966-28.151 24.525-64.546 26.957-99.226 17.946-32.708-8.491-57.37-29.577-62.242-64.862-8.251 2.585-17.34 5.367-25.71 5.717l-17.673.742c.341-1.97.392-6.348.008-8.482l-2.85-15.914-2.534-14.191c5.7-1.067 9.42-1.87 12.066-3.243 20.736-4.471 32.077-17.698 47.565-33.425 4.761-4.83 10.53-12.851 13.047-18.662l5.64-1.886 6.657-2.219c4.13-1.374 6.434-3.772 8.44-10.283l14.625-1.578c1.212-.128 4.412-1.468 4.549-1.733 33.809-3.276 70.69-26.94 82.824-59.639 5.7.358 11.64-2.142 14.131-7.083 6.98-13.84-14.89-32.947-26.24-41.301l-5.034-3.712c-.24-.546 4.147-2.022 5.145-1.39l19.183 12.1c3.644 2.295 7.74 6.186 10.65 9.275l7.168 16.205c3.703 8.38 6.204 17.365 8.926 26.581l7.833.606c8.269-1.928 16-3.396 22.067-6.707 16.547-9.037 31.403-22.724 39.34-41.114 2.09-4.847 3.284-11.093 4.189-15.428l5.658-5.205 5.649 11.528c11.255 22.963 17.911 19.115 23.859 32.589z"/><path fill="#fbd777" d="m946.416 375.962 3.516 5.589-6.068 10.487c-14.515 25.08-14.233 24.995-47.197 34.765l-10.88 3.226c-5.42-20.02-.692-35.456-25.421-52.489-2.765 5.393-3.994 10.385-4.804 16.359-2.688 19.814-13.133 36.522-26.846 50.782-4.165 4.334-11.12 7.133-15.548 10.231l-24.354 1.118c-18.594.853-31.923 4.224-50.569 9.992-16.426-2.67-31.897-29.039-32.29-41.813l-.333-10.871c-1.655-2.125 10.326-26.897 13.372-25.865l3.217 14.9c.82 3.788 5.905 11.69 9.72 11.698l13.619.043c1.894 0 4.668-3.925 6.204-5.103l18.483-14.182c5.461-4.19 10.547-9.788 14.105-14.183 9.233-3.908-.068-7.535 8.662-17.16 2.201-2.432 5.145-5.496 6.929-6.033l15.078-4.531-6.46-5.325c11.7 1.126 30.277 12.732 41.873 20.454 30.447-19.746 72.576-17.203 95.992 7.928z"/><path fill="#fbd676" d="M219.598 373.367c-1.34 5.112-4.796 1.34-3.96 7.066-2.082 7.339-5.256 18.33-10.632 24.764-17.272 20.659-38.537 36.522-63.377 46.856 27.861 22.025 27.178 25.25 42.052 59.76 19.96-5.701 35.652-14.414 59.58-9.831 13.107 2.509 26.598 6.187 37.82 11.98 7.577 3.917 16.494 15.241 17.254 24.065.7 8.106-4.625 17.22-9.02 23.279-8.67 11.963-20.284 19.925-32.947 26.914-12.126 6.681-23.398 12.655-36.762 17.502-10.82 3.925-33.297.597-43.554-4.267-20.326-9.634-17.647-13.944-33.928-18.569l.887-14.319c.546-8.797 3.61-17.399 7.091-25.284l6.119-13.832-9.643 6.17-9.78 4.82c10.24-14.515 12.545-7.842 21.454-17.305l11.426-12.151c4.915-12.288-11.725-35.43-17.784-39.843l-13.047-9.497c-4.386-3.192-13.133-7.023-17.715-8.474-.478-.153-1.562.094-1.937-.239l-2.134-1.911c-.776.042-1.68.188-2.184-.068-.444-1.135-.563-2.023-1.272-2.074l-3.285-.256-6.204-.444c-.426-.316-3.37-1.254-4.744-1.408l-6.63-.725c-2.28-4.045-6.76-6.272-11.043-4.66l1.408-8.157 2.961-15.24.751 10.683 15.659-4.335 9.881 8.405c24.9-.879 19.951 12.869 37.274 2.97 18.628-10.641 10.3-2.722 21.683-11.273l21.35-12.953c1.878-7.015 3.2-14.515 2.85-21.444l-.34-6.844c-.052-1.084 3.481-1.579 4.923-1.92l12.484-2.97.538-6.297 6.46 1.365zm27.494 153.455c1.826-6.024-6.528-11.016-11.426-10.828-23.253.913-22.11-.18-42.7 10.93-4.097 2.21-5.974 12.989-.88 14.37 16.99 4.592 52.224-5.298 55.006-14.472"/><path fill="#fdd97c" d="m294.154 586.155 20.224.367c2.21.042 7.466 1.356 9.65 2.167 20.472 7.62 31.267 13.09 46.533 28.527 12.612 12.757 13.082 30.677 1.894 45.073-27.067 34.825-77.627 40.96-118.988 29.636-16.965-4.642-23.33-13.047-30.985-13.448-2.73-8.098-4.855-15.138-4.838-24.124l3.643-4.642-3.626-4.48c0-.512.05-1.391.094-1.988l4.556-9.003c8.252-16.307 19.32-29.662 36.241-37.709 11.12-5.29 23.817-10.598 35.593-10.385zm18.474 19.447c-17.877-14.72-49.8-.512-58.948 9.865-1.81 2.048-1.16 9.497.82 11.375 12.415 11.793 72.08-9.745 58.12-21.24z"/><path fill="#fcd26d" d="M883.218 542.43c14.754-.085 29.662 8.217 41.95 16.896 22.903 16.188 8.533 13.474 19.328 20.685l-.051 1.97 1.698 2.006.375 2.185-.648 1.519-9.037-6.221c-8.064 24.661-5.018 24.84-21.675 43.324-22.52 24.977-66.363 34.577-99.746 26.658-2.773-.657-7.245-.837-8.806-.53 6.374 12.74 12.697 22.187 15.249 33.724-2.372 1.255-6.613 4.43-8.107 6.528L808.184 699c-.494.692-3.754.948-4.411.41-5.078-4.139 6.212-13.534 1.92-27.597-4.002-13.098-18.714-24.004-27.128-32.478-1.886-1.903-5.145-9.088-5.7-9.088-7.757 2.321-10.274.854-14.729-.256l10.386-1.254 2.457-18.27 10.215-18.449c4.215-7.612 9.89-14.84 16.657-18.748l2.9 12.63c.513 2.227 3.38 8.627 5.582 8.755l17.604 1.007 2.193-3.055 25.916-10.692c2.85.11 7.262-1.118 10.18-3.55 4.83-4.02 1.434-6.58 5.513-22.366.614-2.372 1.62-5.496.827-6.818-.998-1.656-5.051-3.849-7.031-4.088l-4.984-.623 2.048-1.911 24.636-.145z"/><path fill="#fedc7e" d="M136.799 540.433c-26.078 12.868-44.757 18.688-78.814 14.694-15.915-1.868-30.763-8.789-43.99-16.87-3.745-2.287-6.869-3.755-10.384-4.267-1.485-5.504-4.037-12.783-3.55-18.986 1.28-16.546 12.714-45.449 27.153-50.825.316.683 4.394 3.951 5.453 5.47l10.88 15.659c4.386.802 12.373 2.03 16.145 1.69l14.31-1.272 3.73-2.321 4.872-1.374c6.681-1.886 15.803-4.992 20.727-9.446 1.152-1.042 2.74-2.876 4.967-5.283 4.701-5.077 14.702-3.106 14.233-7.048l-.64-5.376c-.034-.256-.572-1.331-.742-1.724 4.582 1.45 13.329 5.282 17.715 8.474l13.047 9.497c6.059 4.404 22.69 27.554 17.784 39.842l-11.426 12.152c-8.91 9.472-11.213 2.799-21.453 17.306z"/><path fill="#fdd774" d="M968.5 431.121c14.746 4.096 35.362 17.237 43.674 32.58.444.811 1.68 1.895 2.398 2.492.017.538.085 1.297.017 1.698-4.702 26.36-12.68 39.791-38.98 53.88-17.17 9.199-35.482 14.78-55.561 14.814-11.119.017-13.107-17.127-33.357-32.163-4.36-3.234-24.072-15.889-28.032-16.418-2.722-4.744-1.246-10.76 2.364-15.727l10.64-14.643c15.446-21.248 62.985-35.908 96.837-26.504zm-57.25 43.614c6.767-2.458 34.893-11.64 33.314-18.671-2.551-11.375-15.624-12.169-17.647-11.69l-20.992 5.008-11.784 6.435c-3.635 1.98-8.918 7.39-8.457 12.066.973 9.881 14.413 10.897 25.558 6.843z"/><path fill="#fcdb7b" d="M742.853 310.613c.504.734 1.733 1.733 2.424 2.279l-.273 2.005-3.738 12.134c-4.488 14.584-13.824 25.046-24.61 34.125-13.304 11.205-29.133 19.584-48.307 19.26-7.296-.128-19.192-2.014-24.363-6.707l-16.708-15.164c-12.374-11.23-33.016-16.717-29.184-23.8l13.858-25.65c1.476-2.731 2.287-7.109 2.125-9.78 1.621-.298 5.709-1.493 7.637-2.654 27.588-16.529 45.26-24.985 79.89-14.361 17.424 5.342 31.846 14.669 41.25 28.313m-33.527 5.846c2.637-1.076 6.477-9.404 4.497-11.537-14.831-15.975-56.661-18.5-58.658-4.011-1.622 11.759 34.867 23.424 54.152 15.548z"/><path fill="#f8b442" d="m329.644 553.788-2.697 2.099.188-7.279c.077-3.098-4.967-8.2-8.15-8.713l-8.831-1.425-1.152 10.053c-7.151 6.886-24.815 23.586-13.056 31.701l4.642 3.209c-1.878-.026-5.65 1.851-6.443 2.73-11.776-.213-24.465 5.095-35.593 10.385-16.921 8.039-27.989 21.393-36.24 37.71l-4.557 9.002c-37.189-4.31-64.811-18.117-76.024-57.89-9.113 2.483-18.662 6.058-27.05 6.903-33.076 3.328-61.927-1.655-88.525-21.99-12.34-9.438-18.978-23.023-22.562-36.267 3.515.512 6.638 1.98 10.385 4.267 13.218 8.08 28.074 15.001 43.989 16.87 34.048 3.994 52.727-1.826 78.814-14.694l9.779-4.822 9.643-6.17-6.119 13.833c-3.49 7.894-6.553 16.495-7.091 25.285l-.887 14.318c16.273 4.617 13.602 8.926 33.928 18.569 10.257 4.864 32.734 8.192 43.554 4.267 13.363-4.856 24.636-10.82 36.762-17.502 12.663-6.98 24.277-14.95 32.947-26.914 4.395-6.059 9.711-15.173 9.02-23.28-.76-8.823-9.677-20.146-17.255-24.063 1.187 0 5.803-.24 5.974-1.852l.674-6.298c4.36 2.765 9.105 6.221 13.542 10.01l9.327 7.979c7.663 6.553 17.374 15.291 21.99 21.828l-2.935 8.166z"/><path fill="#f7b541" d="M852.097 544.768c-13.372 2.517-48.29 16.563-54.255 28.51-6.767 3.908-12.442 11.136-16.657 18.748l-10.214 18.449c-.06-.504-3.38-3.32-5.001-3.636l-28.817-5.64c-1.911 10.155-4.028 17.911-2.79 24.013-30.678 1.024-61.73 16.785-81.767 40.243l-1.775 4.139c-.068-.854-3.166-3.243-4.795-3.456l-23.109-3.021-3.157 1.305c.828 3.183 1.28 4.241 1.16 5.035l-.648 4.378c-3.73-.359.606-.709-4.932-16.393-.52-1.476-4.352-6.11-5.871-5.675l-9.003 2.569c3.038-5.82 8.824-18.551 5.726-25.335l-6.733-14.738c-.76-1.655.853-6.835 2.628-7.244 13.517-3.09 7.774 39.074 66.671 16.674l7.774-2.953c9.14-3.473 17.954-8.601 24.764-14.558.614-.12 3.9-1.476 4.855-2.278l16.436-13.892 13.474-11.392 1.664-12.57 7.68.691c14.66 1.314 29.423.538 43.443-6.997l45.389-24.405 5.487-3.038 6.238 1.16c1.894.35 6.323 3.106 6.954 4.83.632 1.715-.085 4.207-.819 6.503z"/><path fill="#fac46a" d="M404.088 623.505c-2.653 1.365-6.374 2.168-12.066 3.243l2.535 14.19 2.85 15.915c.384 2.134.333 6.52-.009 8.482-5.589 32.367-31.232 56.508-65.911 63.122-27.145 5.18-44.792.05-70.818-9.438-9.105-3.32-17.075-9.327-23.936-15.813-8.115-7.654-11.196-15.735-14.234-24.73 7.655.402 14.02 8.799 30.985 13.45 41.36 11.323 91.92 5.196 118.988-29.637 11.188-14.396 10.718-32.316-1.894-45.073-15.266-15.437-26.07-20.907-46.532-28.527-2.193-.82-7.45-2.125-9.651-2.167l-20.224-.367c.785-.88 4.565-2.757 6.442-2.731l16.939.239 2.884-8.465c.418 1.229 2.714 3.336 4.6 3.831l15.462 4.096c14.25 6.648 28.228 13.688 38.92 25.327l13.808 15.019 10.88.034z"/><path fill="#fedc7e" d="m213.138 371.994-.538 6.297-12.484 2.97c-1.442.341-4.975.836-4.924 1.92l.342 6.844c.35 6.929-.973 14.43-2.85 21.444l-21.35 12.953c-11.384 8.55-3.056.623-21.684 11.273-17.323 9.899-12.373-3.857-37.274-2.97l-9.881-8.405-15.659 4.335-.75-10.684c5.742-29.542 37.29-53.248 66.628-60.049 21.7-5.026 43.878 1.374 60.424 14.072m-87.902 33.868c9.208-4.625 13.389-9.702 16.606-18.628-2.688-3.473-8.038-7.51-10.786-6.545-10.496 3.678-17.493 11.742-17.724 22.204-.077 3.388 8.55 4.659 11.904 2.97"/><path fill="#f7ac31" d="M944.487 580.01c-10.786-7.21 3.576-4.488-19.328-20.684-12.288-8.687-27.195-16.99-41.95-16.896l-1.885-2.1-13.201-.383-.444-17.502-1.963-1.929c.017-1.032 0-3.012-.11-4.01-.206-1.929-1.622-5.07-2.399-6.853l-5.913-13.602c-.7-1.604-2.253-4.736-1.297-5.615l2.662-2.44c3.96.52 23.68 13.175 28.032 16.418 20.25 15.036 22.238 32.18 33.357 32.162 20.079-.026 38.391-5.615 55.56-14.814 26.292-14.088 34.27-27.528 38.98-53.88 16.974 24.167 10.181 59.82-13.951 81.093-34.168 30.114-65.971 17.024-56.15 31.036m2.031 6.17c16.948 26.872 2.492 63.113-23.62 81.613-32.674 23.151-64.316 22.58-101.043 16.853-2.552-11.537-8.875-20.983-15.25-33.723 1.562-.316 6.034-.137 8.807.529 33.383 7.919 77.227-1.673 99.746-26.658 16.657-18.475 13.611-18.663 21.675-43.324l9.037 6.22.648-1.518zM968.5 431.121c-33.843-9.404-81.39 5.257-96.836 26.505-5.163 2.355-11.179 7.415-14.43 12.817l-8.849 14.711c-10.41-7.45-21.137-13.636-32.17-17.792l-13.552-5.103 10.496-7.347c4.43-3.098 11.384-5.905 15.548-10.231 13.713-14.26 24.167-30.968 26.846-50.782.81-5.974 2.04-10.966 4.804-16.359 24.73 17.033 20.002 32.47 25.421 52.489l10.88-3.226c32.964-9.77 32.691-9.685 47.198-34.765l6.067-10.487-3.516-5.59c2.236 2.398 6.58 5.684 9.088 9.072 6 8.09 10.667 18.124 11.486 27.989l1.502 18.1z"/><path fill="#f7b94c" d="M614.085 299.315c.162 2.671-.648 7.049-2.125 9.78l-13.858 25.65c-3.823 7.083 16.811 12.57 29.184 23.8l16.709 15.164c-3.252.213-8.696 2.32-10.599 4.326 3.815 12.05 6.102 21.59 7.484 33.263l.973 8.226c-3.832 1.912-9.19 4.207-12.954 6.656l-22.801 14.84c-4.241 2.765-8.627 7.867-11.477 11.682l-19.183-12.1c-.999-.632-5.385.844-5.146 1.39-4.898-.998-9.011-2.858-14.856-6.434l8.243-2.5c.785 0 1.655-.17 2.022.154l2.202 1.98h2.022c.24.597 2.5 4.411 3.414 3.49l3.404-3.422c10.377-11.077 37.393-27.631 45.987-39.134 14.088-18.85-9.208-43.06-24.978-50.236-12.544-5.709-37.162-7.228-49.69-6.57l4.105-3.303c.99-.794 1.664-5.214 1.28-4.736-4.283-.486-10.555-.913-10.845-3.208l-1.11-8.747 3.67 6.775 25.181.717c14.729.418 14.934-7.347 32.811-22.28l8.576-7.168 2.347 1.911z"/><path fill="#fadf8f" d="m784.376 347.392 19.875-.068c1.083 0 3.225.153 4.3.256l6.46 5.325-15.078 4.53c-1.792.538-4.728 3.602-6.93 6.034-8.729 9.625.572 13.252-8.66 17.16.733-2.022 1.902-7.714 1.22-10.521-5.103-20.796-65.605 17.758-51.943 37.598 1.843 2.68 9.873 3.814 12.834 2.91l5.3-1.622c-1.536 1.178-4.31 5.103-6.204 5.103l-13.62-.043c-3.814-.008-8.9-7.91-9.719-11.699l-3.217-14.899c1.604-2.79 3.73-6.212 5.956-9.37l2.97-4.215 29.056-19.78 3.686-2.21 8.773-1.92c4.949-1.084 10.914-2.552 14.941-2.569"/><path fill="#f9d684" d="m513.016 277.82 7.04 6.954-.05 2.117c-3.158.392-6.734 4.446-6.921 7.492l-.598 9.907-4.027-6.716c.05-.768.222-1.672-.034-2.184-.726-1.46-2.646-3.584-3.994-4.668-15.684-12.527-45.423-28.706-65.246-19.473-1.1.512-2.5 1.314-5.94 3.157l-7.662-11.887-4.002-6.203c13.354-4.608 27.708-5.965 42.803-3.55 20.847 3.328 34.645 11.23 48.64 25.062z"/><path fill="#fae193" d="M68.754 443.682c2.406-.239 7.168.964 10.317 1.229l13.687 1.126 6.63.726 4.745 1.408 6.204.443 4.557 2.33c.512.265 1.416.11 2.184.068l2.134 1.912c.375.341 1.459.085 1.937.239.17.392.708 1.467.742 1.723l.64 5.376c.47 3.943-9.54 1.98-14.233 7.049-2.228 2.406-3.806 4.232-4.967 5.282.324-2.73-2.082-7.441-5.342-9.361-17.647-10.402-42.265-7.236-54.784 10.325-3.32 4.651 5.965 11.06 10.13 10.88l24.396-1.024-3.729 2.321-14.31 1.272c-3.772.333-11.76-.888-16.145-1.69l-10.88-15.658c-1.059-1.52-5.129-4.788-5.453-5.47 6.963-11.75 29.721-19.345 41.54-20.506"/><path fill="#f9de8e" d="m344.466 308.284 3.695 5.06c-17.527 12.834-2.594 25.856-21.222 25.813l4.019-3.072c2.227-1.698 4.045-3.234 5.137-4.548 6.699-8.072-28.945-27.802-57.097-14.78-1.868.862-4.89 4.293-5.034 6.093-.145 1.81 1.57 5.956 2.97 7.194l4.701 4.633c-9.54 1.605-13.935-18.33-15.855-23.782l6.946-6.784c23.143-9.899 49.724-8.388 71.757 4.156z"/><path fill="#f8bd4d" d="m309.334 391.757-1.177 4.437c-20.856 7.646-10.94 13.218-30.166 9.72-7.782-1.417-17.493-.956-25.489.4l-14.976 2.544c-3.37-3.354-8.78-8.952-10.846-12.843l-8.652-16.29-2.398.708c-.836-5.717 2.628-1.954 3.96-7.066l2.064-7.884c.64 2.688 2.603 6.468 4.95 8.567 13.943 12.527 24.499 19.362 43.998 21.461 13.218 1.426 26.743-.273 38.732-3.754"/><path fill="#f4b84b" d="m760.67 351.88-3.686 2.21-29.056 19.78-.546-8.43c-.239-3.67-8.209-6.23-10.726-4.284 10.786-9.08 20.122-19.541 24.61-34.125l3.738-12.134c9.6 2.842 12.518 38.136 15.667 36.984"/><path fill="#fedc7e" d="m92.758 446.037-13.687-1.126c-3.14-.256-7.91-1.46-10.317-1.229l2.005-1.8 10.957-.512c4.275-1.605 8.764.614 11.042 4.659z"/><path fill="#fbd777" d="m804.25 347.324-19.874.068 2.014-1.783 16.077-.009z"/><path fill="#f8b442" d="m217.66 654.353.018-9.122 3.626 4.48z"/><path fill="#f6ac36" d="M620.92 669.457c.12-.794-.332-1.86-1.16-5.035l3.157-1.305z"/><path fill="#fbd46e" d="m520.056 284.783-7.04-6.955z"/><path fill="#f7ac31" d="m946.134 583.996-1.698-2.006z"/><path fill="#f4b84b" d="M745.277 312.892c-.691-.546-1.92-1.553-2.424-2.279z"/><path fill="#f6af36" d="m541.492 319.351 1.11 8.747c.29 2.296 6.562 2.722 10.845 3.209.393-.478-.281 3.942-1.28 4.736l-4.104 3.302c-.563.026-1.536 0-2.185-.017-1.945.358-5.555 1.485-6.494 2.133l-18.082 7.185c-22.826 9.071-40.388 27.12-45.32 49.349-3.883 4.394-4.728 11.793-3.67 18.526 3.602 22.843 15.028 27.195 9.404 34.124l-3.703 4.557c-18.381 10.658-39.27 35.14-41.515 56.687-9.788 1.587-12.109-2.15-28.28-2.202l-3.882-6.81c5.171-1.595 8.644-2.286 10.812-3.336l13.662-6.656c3.916-1.911 8.14-17.621 6.647-23.04l-4.881-17.664 5.128-8.576-.546-4.087c3.03 1.229 4.77 1.877 4.805 1.963.025.06.887-1.451 1.186-2.04l20.113-40.15c-12.015-12.757-30.575-18.005-48.717-16.196-10.155 1.016-19.831 4.822-28.476 8.295-3.942 1.587-9.591 6.289-11.042 9.822-.205.495 3.251 3.2 2.995 3.678l-1.194 2.218-3.79-.145-1.697-2.218-7.33.221h-8.397c-2.074.47-5.76 1.51-7.023 2.023-10.872 1.92-23.347 5.828-32.495 13.022l-10.923 8.593c-32.315-20.105-71.381-14.49-99.908 9.873-6.016 5.137-17.818 19.626-18.697 26.07-1.408 10.248 63.292 23.696 74.437 21.495l18.688-25.959 9.002-11.622-1.228 13.406-1.98 8.337c-.145-.273-2.407 3.737-2.398 4.753l.18 21.674 6.45 9.2-.674 6.297c-.17 1.613-4.787 1.852-5.973 1.852-11.221-5.794-24.713-9.472-37.82-11.981-23.919-4.582-39.62 4.13-59.58 9.83-14.873-34.517-14.182-37.734-42.052-59.759 24.84-10.325 46.106-26.188 63.377-46.856 5.376-6.434 8.55-17.425 10.633-24.764l2.398-.708 8.652 16.29c2.066 3.891 7.476 9.49 10.846 12.843l14.976-2.543c7.996-1.357 17.707-1.818 25.49-.401 19.225 3.498 9.31-2.074 30.165-9.72l1.177-4.437c19.499-5.65 48.828-18.876 59.819-38.98 2.594-4.745 1.655-15.77 1.058-21.137l-.981-8.807 11.255 9.003c13.27 10.615 29.995 17.937 47.215 20.59 14.379 2.22 32.623 4.233 45.901-.614 12.561-4.582 43.537-19.771 48.947-31.906 2.73-6.127 3.473-13.986 4.796-23.637 6.17 2.918 13.406 17.297 14.14 23.091z"/><path fill="#b65d2b" d="m504.423 290.722 3.994 4.668c.256.512.085 1.416.034 2.184l1.306 5.684c.4 1.766-3.635 5-5.479 5.649-17.877 6.297-38.929-4.71-56.567-13.654-4.557-2.312-18.082-12.612-12.066-19.788l3.533-4.216c19.822-9.233 49.561 6.938 65.245 19.473m-3.55 5.12c-4.846-4.062-9.932-8.883-14.583-10.837l-17.16-7.22c-3.917-1.646-13.167-2.286-17.11-2.064-1.203.068-3.234 4.25-2.474 5.18.503.614 2.44 2.423 3.566 2.892l41.54 17.092c1.025.418 3.602.7 4.421.657s.87-1.826 1.792-5.691z"/><path fill="#faf1cb" d="M326.93 339.157c-16.162 3.934-32.06-.281-45.312-4.463l-4.702-4.633c-1.39-1.246-3.106-5.393-2.97-7.194.146-1.8 3.166-5.23 5.035-6.093 28.152-13.021 63.795 6.708 57.097 14.78-1.092 1.314-2.91 2.85-5.137 4.548l-4.02 3.072z"/><path fill="#fcf0bf" d="M745.703 649.796c-8.44 16.205-43.485 27.35-55.833 21.957-2.714-1.187-6.622-7.996-5.607-10.991 2.577-7.578 11.725-12.809 19.038-16.017 14.874-6.528 31.608-11.35 42.402 5.051"/><path fill="#f7b541" d="m770.962 610.475-2.458 18.27-10.385 1.254c-7.355-1.826-16.375-3.763-23.765-4.779-1.246-6.101.879-13.858 2.79-24.013l28.818 5.641c1.62.316 4.94 3.132 5 3.635z"/><path fill="#fcd572" d="M668.758 623.684c-58.897 22.4-53.154-19.763-66.67-16.674-1.776.41-3.388 5.58-2.629 7.245l6.733 14.737c3.098 6.784-2.688 19.516-5.726 25.335-14.174 27.136-47.898 39.134-78.643 36.694-18.825-1.494-36.19-8.346-52.702-17.178-8.277-4.42-14.413-11.434-20.079-19.234-15.889-21.854 23.125-80.81 87.85-74.095l20.6 2.142c2.279-7.296 4.898-12.698 8.346-18.398l-.777 13.816 28.135 16.145c12.552 7.202 20.053 21.068 27.955 24.09l11.75 4.488c10.326 3.942 6.81-2.603 23.194-.632l12.68 1.528zm-133.657-12.441c2.67-1.306 3.242-9.89 1.843-12.092-8.969-14.089-47.019-2.364-58.308 9.335-1.698 1.767-.418 9.942 1.536 11.486 11.409 8.977 43.63-3.217 54.929-8.72z"/><path fill="#fdd97b" d="M648.449 511.82c18.483 4.575 45.594 12.562 60.33 27.777 14.541 15.01 21.897 34.927 6.452 51.6l-8.593 9.277-5.342 5.7c-6.81 5.956-15.625 11.076-24.764 14.558l-7.774 2.952-12.68-1.527c-16.384-1.971-12.86 4.582-23.194.631l-11.75-4.488c-7.902-3.021-15.403-16.88-27.955-24.09l-28.135-16.145.777-13.815c3.771-6.23 7.705-13.295 13.457-18.987 10.231-10.138 20.633-18.526 34.03-25.182 9.191-4.565 24.986-10.778 35.132-8.26zm5.794 29.15c2.082-2.295.504-10.145-2.27-12.279-12.791-9.839-40.755 3.482-50.884 14.66-2.167 2.39 1.647 10.138 4.156 12.152 12.68 10.189 37.82-2.193 48.99-14.54z"/><path fill="#fdd671" d="M587.436 494.089c-12.135 32.7-49.016 56.362-82.825 59.639l-19.251-.947-12.62-15.906c-9.32-11.742-23.203-19.371-36.25-24.986 2.244-21.547 23.125-46.029 41.514-56.687 10.547-6.118 22.724-11.085 35.584-14.737 6.477-1.835 16.606-.299 23.339-1.254 16.12-2.287 1.374-3.269 29.875 10.547 20.002 9.702 28.553 22.98 20.634 44.322zm-63.958-37.095c-5.88-16-40.917 10.641-48.725 16.41-1.655 1.22-13.61 15.394-6.084 23.45 9.088 9.719 60.1-25.464 54.81-39.86"/><path fill="#fcd677" d="M464.7 571.426c-2.517 5.811-8.285 13.824-13.047 18.663-15.488 15.726-26.82 28.945-47.565 33.425l-10.88-.035-13.806-15.018c-10.701-11.64-24.67-18.671-38.921-25.327l-15.462-4.096c-1.886-.495-4.182-2.603-4.6-3.832l4.36-12.893c.726-2.134 2.134-4.899 2.168-6.418l2.697-2.099c22.033-30.421 61.636-48.042 99.703-32.384 12.766 5.248 28.032 13.799 34.509 26.658 2.62 5.206 3.157 18.014.845 23.356M398.91 539.06c-3.14-8.874-12.297-10.317-18.919-7.134l-18.201 8.756c-3.687 1.766-9.976 6.894-12.331 10.65-1.476 2.354 3.516 10.18 6.477 10.717 16.06 2.918 34.799-11.238 42.982-22.989z"/><path fill="#fbd778" d="m839.724 532.275-5.487 3.038-45.39 24.405c-14.01 7.535-28.773 8.32-43.442 6.998l-6.35-5.718c-12.773-11.511-23.747-32.426-38.775-42.752l-.887-6.434c2.364-4.744 6.639-10.692 11.162-14.498l19.396-16.29 12.168-4.489c33.758-12.441 60.817-11.665 90.983 9.327 9.233 6.426 23.782 24.593 15.343 35.32l-8.721 11.085zm-72.781-26.581 16.452-8.875c2.552-1.374 3.67-8.14 1.613-11.213-8.5-12.637-52.565 4.881-57.182 18.1 3.66 15.692 30.797 6.468 39.117 1.98z"/><path fill="#fbd070" d="m692.327 424.448 4.779 6.477-2.321 11.196c-.896 4.334-2.1 10.58-4.19 15.428-7.936 18.398-22.784 32.085-39.339 41.113l-9.01.23-13.244-15.615c-3.926-4.625-18.996-21.444-23.74-21.308-2.91-3.089-7.006-6.98-10.65-9.276 2.85-3.814 7.228-8.917 11.478-11.682l22.8-14.84c3.764-2.448 9.123-4.744 12.954-6.655l2.432-.06c2.355-.026 5.41-.614 7.091-1.596 16-1.22 26.18 1.741 40.952 6.58z"/><path fill="#f7c463" d="m380.144 505.77-2.782 3.824 30.857.093c16.17.052 18.491 3.79 28.279 2.202 13.048 5.615 26.923 13.244 36.25 24.986l12.62 15.906 19.252.947c-.137.265-3.345 1.604-4.549 1.732l-14.626 1.579c-2.005 6.502-4.31 8.9-8.44 10.283l-6.655 2.218-5.64 1.886c2.312-5.333 1.774-18.15-.846-23.356-6.476-12.868-21.734-21.41-34.508-26.658-38.068-15.658-77.67 1.963-99.704 32.384l2.936-8.166c-4.625-6.537-14.328-15.275-21.99-21.828l-9.328-7.98a120.5 120.5 0 0 0-13.542-10.009l-6.451-9.199-.18-21.674c-.008-1.016 2.245-5.026 2.398-4.753-2.193 11.119 5.419 29.465 16.58 33.945 48.479 19.448 40.781 11.367 80.095 1.63z"/><path fill="#f8c45c" d="m813.168 454.903-10.496 7.348 13.55 5.103c11.034 4.155 21.76 10.342 32.172 17.792l8.849-14.712c3.25-5.401 9.267-10.462 14.43-12.817L861.03 472.26c-3.61 4.967-5.094 10.983-2.363 15.727l-2.663 2.44c-.955.88.598 4.003 1.297 5.616l5.914 13.602 2.398 6.852c.11.998.128 2.978.11 4.01l-.264 19.627 2.671-.196 13.201.384 1.886 2.1-24.636.144-2.048 1.912c-1.1-.137-3.345.077-4.437.281.725-2.295 1.45-4.787.82-6.502s-5.061-4.471-6.955-4.83l-6.238-1.16 8.72-11.085c8.44-10.727-6.11-28.894-15.342-35.32-30.157-20.983-57.216-21.768-90.983-9.327l-12.168 4.489c-5.948-13.474-12.604-9.626-23.86-32.589l-5.648-11.528-5.658 5.205 2.321-11.196-4.779-6.477 9.216 3.021 1.784-9.796c.179-.998 1.971-4.02 2.304-4.352l.333 10.871c.392 12.775 15.863 39.143 32.29 41.814 18.645-5.777 31.974-9.14 50.568-9.993l24.354-1.118z"/><path fill="#f7be52" d="m563.687 433.067-8.243 2.5c5.846 3.575 9.959 5.427 14.857 6.434l5.034 3.712c11.341 8.354 33.212 27.46 26.24 41.301-2.491 4.941-8.43 7.441-14.13 7.083 7.918-21.342-.632-34.628-20.634-44.322-28.502-13.824-13.756-12.834-29.876-10.547-6.732.955-16.861-.58-23.338 1.254-12.869 3.644-25.037 8.619-35.584 14.737l3.703-4.557c5.632-6.929-5.794-11.28-9.404-34.124-1.066-6.733-.221-14.132 3.67-18.526l3.439 20.77c.879 5.308 5.418 12.766 8.55 16.623l14.276-4.702c17.827-5.871 46.925-5.496 61.44 2.39z"/><path fill="#f7c565" d="m699.402 511.812.887 6.434c15.027 10.326 26.001 31.24 38.775 42.752l6.35 5.718-7.68-.691-1.665 12.57-13.474 11.391-16.435 13.892c-.956.811-4.241 2.16-4.856 2.279l5.342-5.7 8.593-9.276c15.446-16.674 8.09-36.591-6.45-51.601-14.738-15.215-41.848-23.202-60.331-27.776-1.81-6.059 34.474 3.78 39.133 5.086 2.364.665 6.033 1.416 7.194.11l4.625-5.205z"/><path fill="#f4b955" d="M651.265 498.67c-6.067 3.312-13.798 4.78-22.067 6.708l-7.834-.606c-2.722-9.216-5.222-18.201-8.926-26.581l-7.168-16.205c4.736-.136 19.815 16.683 23.74 21.308l13.244 15.616 9.011-.23z"/><path fill="#f6ab31" d="m727.928 373.87-2.97 4.216c-2.226 3.158-4.351 6.58-5.955 9.37-3.047-1.033-15.028 23.74-13.372 25.865-.324.324-2.116 3.353-2.304 4.352l-1.784 9.796-9.216-3.021c-14.78-4.838-24.951-7.8-40.951-6.58l-7.091 1.597-2.432.06-.973-8.227c-1.382-11.673-3.67-21.222-7.484-33.263 1.912-2.005 7.347-4.104 10.599-4.326 5.17 4.693 17.066 6.579 24.362 6.707 19.166.333 35.004-8.055 48.307-19.26 2.51-1.945 10.488.615 10.727 4.284l.546 8.43z"/><path fill="#fcf4d5" d="M784.35 380.638c-3.558 4.395-8.643 9.992-14.105 14.182l-18.483 14.183-5.3 1.621c-2.96.905-10.99-.239-12.833-2.91-13.662-19.84 46.848-58.393 51.942-37.598.691 2.808-.486 8.49-1.22 10.522"/><path fill="#fcf2ce" d="M247.092 526.822c-2.782 9.182-38.016 19.064-55.006 14.473-5.094-1.374-3.217-12.152.88-14.37 20.59-11.11 19.438-10.018 42.7-10.931 4.898-.188 13.252 4.795 11.426 10.828"/><path fill="#fedc7e" d="m114.885 450.953-4.557-2.33 3.286.256c.708.051.828.939 1.271 2.074m-10.76-2.782-4.745-1.408c1.374.153 4.318 1.083 4.745 1.408m15.078 4.761-2.133-1.911z"/><path fill="#fbf5d3" d="M312.628 605.602c13.96 11.495-45.704 33.033-58.12 21.24-1.98-1.878-2.629-9.327-.82-11.375 9.148-10.377 41.063-24.585 58.949-9.865z"/><path fill="#faf3d4" d="m852.037 581.922-25.915 10.692-13.628-.076c-3.516-.12-8.047-9.2-5.41-11.853 13.525-13.62 30.464-22.648 50.15-20.472 3.251.359 7.808 9.259 5.709 11.785-2.919 3.516-7.765 8.636-10.897 9.924z"/><path fill="#f9d887" d="M852.097 544.768c1.092-.205 3.337-.418 4.437-.282l4.984.623c1.98.248 6.033 2.44 7.031 4.088.802 1.322-.213 4.446-.827 6.818-4.08 15.787-.683 18.347-5.513 22.366-2.918 2.432-7.322 3.66-10.18 3.55 3.14-1.297 7.978-6.417 10.897-9.925 2.099-2.525-2.458-11.426-5.709-11.784-19.678-2.168-36.625 6.86-50.15 20.471-2.629 2.654 1.894 11.734 5.41 11.853l13.627.077-2.193 3.055-17.604-1.007c-2.21-.128-5.069-6.528-5.58-8.755l-2.902-12.63c5.965-11.946 40.883-26 54.255-28.51z"/><path fill="#fcf6dc" d="M103.323 472.602c-4.924 4.454-14.046 7.569-20.728 9.446l-4.872 1.374-24.397 1.024c-4.164.17-13.44-6.23-10.13-10.88 12.52-17.562 37.138-20.728 54.785-10.325 3.25 1.92 5.666 6.63 5.342 9.36"/><path fill="#faf2cd" d="M911.25 474.735c-11.153 4.053-24.584 3.038-25.557-6.844-.461-4.685 4.821-10.086 8.456-12.066l11.785-6.434 20.992-5.01c2.022-.477 15.087.317 17.647 11.692 1.578 7.031-26.547 16.213-33.314 18.67z"/><path fill="#f9eec8" d="M709.326 316.459c-19.286 7.876-55.774-3.79-54.153-15.548 1.997-14.49 43.827-11.964 58.658 4.01 1.98 2.134-1.86 10.462-4.497 11.538z"/><path fill="#f6af36" d="M326.947 555.887c-.043 1.527-1.45 4.284-2.167 6.417l-4.36 12.894-2.885 8.465-16.939-.239-4.642-3.209c-11.759-8.115 5.905-24.823 13.056-31.7l1.152-10.053 8.832 1.425c3.183.512 8.226 5.615 8.15 8.712l-.188 7.28z"/><path fill="#faecbb" d="M125.236 405.862c-3.353 1.681-11.98.41-11.904-2.97.23-10.461 7.228-18.525 17.724-22.203 2.74-.964 8.098 3.072 10.786 6.545-3.217 8.926-7.398 14.003-16.606 18.628"/><path fill="#f7b541" d="m868.131 539.947-2.67.196.255-19.627 1.963 1.929zm-2.526-23.441-2.398-6.853c.777 1.775 2.185 4.924 2.398 6.853"/><path fill="#fbd571" d="m576.743 435.277-6.818-.068h-2.022l-2.202-1.989c-.367-.324-1.237-.153-2.022-.153-14.524-7.885-43.614-8.26-61.44-2.39l-14.276 4.702c-3.14-3.857-7.672-11.315-8.55-16.623l-3.44-20.77c4.933-22.23 22.486-40.277 45.32-49.348l18.083-7.185 6.494-2.134c.657.018 1.63.043 2.184.018 12.527-.658 37.146.861 49.69 6.57 15.77 7.177 39.066 31.377 24.977 50.236-8.593 11.503-35.61 28.058-45.986 39.134zm21.863-52.941c3.149-1.562 6.758-6.477 6.707-9.31-.23-13.005-30.993-20.403-42.743-22.144-9.088-1.34-36.839 2.586-35.021 12.348.546 2.91 5.265 9.13 8.67 10.334 14.506 5.137 47.88 15.974 62.378 8.772z"/><path fill="#f7be52" d="m576.743 435.277-3.404 3.422c-.913.921-3.183-2.893-3.414-3.49zm-8.84-.068-2.202-1.98z"/><path fill="#fbd46e" d="m508.417 295.39-3.994-4.668c1.349 1.084 3.269 3.209 3.994 4.668"/><path fill="#fddd85" d="M382.004 411.392c18.424 8.85 46.439 22.29 35.465 50.765-6.486 16.828-14.03 34.116-31.121 40.909l-4.54 2.449c-.495.068-1.263.153-1.664.256-39.313 9.728-31.616 17.817-80.094-1.63-11.162-4.48-18.773-22.827-16.58-33.946l1.98-8.337 5.47-11.196c1.988-4.07 6.314-10.026 9.045-13.49 15.368-6.964 8.72-6.87 22.733-14.763 10.513-5.923 22.596-9.865 34.867-10.24l24.44-.76zm6.016 35.473c2.85.657 9.566-2.68 10.658-5.077 1.101-2.398.325-8.91-1.476-11.153-10.522-13.125-31.795-17.92-48.35-10.872-2.423 1.033-5.137 8.738-3.456 10.795 3.354 4.104 10.76 8.926 15.565 10.035l27.05 6.264z"/><path fill="#fcd06a" d="m362.002 404.95 1.835 2.039 7.193-.043 3.79.145c1.979 1.238 5.315 3.396 7.184 4.292l-24.44.76c-12.27.384-24.353 4.318-34.866 10.24-14.012 7.893-7.365 7.79-22.733 14.763-2.731 3.473-7.057 9.42-9.046 13.49l-5.47 11.197 1.23-13.406-9.003 11.622-18.688 25.958c-11.145 2.202-75.845-11.246-74.437-21.495.888-6.443 12.68-20.932 18.697-26.07 28.527-24.353 67.592-29.977 99.908-9.872l10.923-8.593c9.148-7.203 21.623-11.11 32.495-13.022 2.253-.401 5.188-1.246 7.023-2.023h8.397zM250.736 448.69c8.004.666 18.67-5.034 19.66-12.988.419-3.396-5.862-10.29-9.173-10.675-10.564-1.211-29.568 1.997-34.91 12.63-1.177 2.338 3.107 9.25 5.863 9.48l18.568 1.553z"/><path fill="#fcd068" d="M441.14 439.433c-5.06-.777-13.482-12.621-23.108-20.523s-21.709-11.332-32.87-15.13l-8.568-2.91 7.458-9.48c8.644-3.473 18.321-7.28 28.476-8.295 18.142-1.817 36.702 3.43 48.717 16.197l-20.113 40.15z"/><path fill="#f5bd4f" d="m384.06 391.39-7.457 9.48 8.567 2.91c11.162 3.798 23.68 7.578 32.87 15.13s18.04 19.746 23.109 20.523c-.299.597-1.16 2.099-1.186 2.039-.026-.085-1.775-.734-4.805-1.963l.546 4.088-5.128 8.576 4.881 17.664c1.502 5.418-2.73 21.137-6.647 23.04l-13.662 6.656c-2.168 1.058-5.64 1.74-10.812 3.336l3.883 6.81-30.857-.094 2.782-3.823c.392-.094 1.16-.18 1.664-.256l4.54-2.449c17.092-6.784 24.635-24.081 31.12-40.909 10.975-28.467-17.04-41.915-35.464-50.765-1.869-.896-5.205-3.063-7.185-4.292l1.195-2.218c.256-.478-3.2-3.175-2.995-3.678 1.45-3.525 7.108-8.235 11.042-9.822zm-13.021 15.565-7.194.034-1.843-2.04 7.33-.222z"/><path fill="#f7b94c" d="m545.87 339.328-6.494 2.133c.947-.64 4.557-1.775 6.494-2.133"/><path fill="#f5bd4f" d="M353.605 404.95c-1.834.776-4.778 1.62-7.023 2.022 1.263-.512 4.95-1.545 7.023-2.023"/><path fill="#e6b68e" d="M500.874 295.842c-.922 3.866-.973 5.65-1.792 5.692s-3.405-.24-4.42-.657l-41.541-17.092c-1.135-.47-3.063-2.27-3.567-2.893-.76-.93 1.272-5.112 2.475-5.18 3.942-.213 13.2.418 17.109 2.065l17.16 7.22c4.651 1.953 9.729 6.775 14.584 10.837z"/><path fill="#fcf3d2" d="M535.1 611.243c-11.306 5.504-43.52 17.698-54.928 8.72-1.954-1.535-3.234-9.719-1.536-11.485 11.28-11.7 49.33-23.424 58.308-9.336 1.4 2.202.836 10.787-1.843 12.092z"/><path fill="#f9ecb7" d="M654.243 540.97c-11.17 12.348-36.31 24.722-48.99 14.541-2.509-2.013-6.323-9.762-4.155-12.151 10.12-11.179 38.092-24.5 50.884-14.66 2.773 2.133 4.352 9.984 2.27 12.28z"/><path fill="#fbf3d4" d="M523.478 456.994c5.291 14.396-45.721 49.579-54.81 39.86-7.526-8.056 4.43-22.23 6.085-23.45 7.808-5.769 42.846-32.41 48.725-16.41"/><path fill="#fbf2d0" d="M398.909 539.06c-8.184 11.75-26.923 25.898-42.983 22.988-2.96-.538-7.953-8.363-6.476-10.718 2.355-3.755 8.652-8.875 12.33-10.65l18.202-8.755c6.63-3.183 15.786-1.74 18.918 7.134z"/><path fill="#fbf4d0" d="M766.943 505.694c-8.32 4.488-35.456 13.713-39.117-1.98 4.617-13.218 48.691-30.737 57.182-18.1 2.065 3.073.947 9.84-1.613 11.214l-16.452 8.874z"/><path fill="#f7b94c" d="M651.367 417.869c-1.672.981-4.727 1.57-7.09 1.596z"/><path fill="#ba6530" d="M598.606 382.336c-14.498 7.202-47.872-3.635-62.379-8.772-3.405-1.203-8.132-7.424-8.67-10.334-1.817-9.762 25.933-13.696 35.021-12.348 11.75 1.732 42.513 9.13 42.744 22.144.05 2.833-3.567 7.748-6.708 9.31zm-52.941-24.704c-1.212.265-4.71 3.66-3.772 4.181.615.35 3.226 2.612 4.062 2.825l44.988 11.324c.947.239 4.642-.922 5.547-1.076 12.91-2.159-24.047-23.074-50.825-17.263z"/><path fill="#f9eec2" d="m388.02 446.865-27.05-6.263c-4.796-1.11-12.203-5.931-15.565-10.036-1.681-2.056 1.032-9.762 3.456-10.794 16.546-7.049 37.828-2.253 48.35 10.871 1.8 2.244 2.568 8.755 1.476 11.153-1.101 2.398-7.808 5.735-10.658 5.078z"/><path fill="#f7c463" d="m386.348 503.066-4.54 2.449z"/><path fill="#fbe195" d="m250.736 448.691-18.569-1.553c-2.756-.23-7.031-7.142-5.862-9.48 5.342-10.641 24.346-13.85 34.91-12.63 3.31.384 9.6 7.28 9.173 10.675-.99 7.962-11.656 13.662-19.66 12.988z"/><path fill="#f5c693" d="M545.665 357.632c26.778-5.811 63.735 15.104 50.825 17.263-.905.154-4.591 1.314-5.547 1.075l-44.988-11.324c-.836-.213-3.447-2.474-4.062-2.824-.938-.53 2.56-3.925 3.772-4.181z"/></svg>