<svg xmlns="http://www.w3.org/2000/svg" viewBox="0 0 1024 1024"><path fill="#fbdca6" d="M753.54 30.754c14.652-.401-5.691 7.552-5.674 9.95 4.164 10.71 21.12 9.386 25.062 13.329 1.11 1.11.862 4.463 3.286 6.553 5.24 4.506 15.513 9.14 20.07 14.114 4.173 4.557 6.946 16.205 9.105 18.074 9.608 8.328 8.917 14.916 14.088 26.948 1.58 3.67 5.189 6.23 6.614 10.436 10.521 31.087 14.302 67.03 15.76 100.932.368 8.585-4.889 16.47-5.324 23.287-.674 10.667 1.476 5-2.867 17.067-2.313 6.417-2.21 15.343-3.977 21.59-3.43 12.108-12.04 23.5-15.027 36.13-9.924 11.468-27.17 6.68-35.362 21.622-1.04 4.728 6.93 10.735 7.962 14.31 4.488 15.429-9.233 22.179-16.58 33.767-31.429 11.665-58.3 37.88-81.1 60.91-3.423 3.457-12.57 11.307-14.2 14.38-1.502 2.815-.828 6.74-1.818 8.063-.76 1.016-6.767 1.366-9.506 6.136-7.723 13.423-18.705 29.85-23.577 44.62-15.813 47.932-17.468 102.818-28.92 152.968-3.9 17.058-8.064 33.886-11.486 51.038-2.32 11.63-6.63 8.704-7.97 10.368-1.86 2.312-4.847 20.215-8.917 26.316-3.618 5.41-2.022-2.466-6.204 11.221-1.245 4.088-8.951 7.988-10.521 15.113-2.21 10.018-2.756 22.912-3.66 33.288-5.309 10.488-9.26 5.513-15.327 5.564-10.82.102-27.63 32.11-35.345 40.397-3.268 3.507-7.509 7.261-11.366 11.272-8.209 8.516-24.815 25.634-34.253 31.198-4.616 2.73-13.465 3.9-18.158 6.997-2.577 1.707-1.323 4.676-2.108 5.29-2.603 2.049-15.01 2.382-19.55 4.745-3.908 2.04-7.595 9.14-13.278 12.305-6.144 3.422-43.426 15.411-46.335 11.904l-2.748-12.92c-6.468-4.41-13.978.7-19.123.897-9.182.35-18.654.52-27.776.776-17.357.495-40.96-2.543-57.02-.196-4.573.666-11.784 6.955-15.522 10.163-1.015 3.968 14.046 19.473-.042 18.321-48.46-27.358-92.083-78.736-112.298-130.687-34.287-88.115-5.888-200.114 62.514-264.472 28.894-27.187 67.004-47.761 100.94-70.92 13.014.708 9.242 4.889 12.75 11.332 1.023 1.885 16.238 16.622 17.424 16.878 10.633-1.467 18.765-7.569 27.46-11.784 9.387-4.557 23.612-8.823 27.41-18.005 12.091-1.007 22.442-7.706 19.9-20.95-4.66.47-7.186-4.65-10.138-5.495-4.028-1.16-8.73.162-13.21-.99-5.273-1.348-20.377-7.176-23.364-7.176-3.618 0-7.697 6.425-12.749 4.923 3.815-3.703 4.139-8.32 5.683-11.357 7.928-15.625 17.698-28.288 19.823-46.96 6.537-57.351-8.661-121.06 6.349-178.388 7.117-27.195 33.971-79.974 53.282-100.197 30.72-32.17 70.229-59.273 113.689-73.873 50.167-16.862 103.406-16.896 155.058-23.987 15.275-2.1 46.106-7.39 58.214-17.1zM469.434 169.906c8.192-2.398 11.546 7.04 15.88 8.286 4.233 1.212 9.242-.563 13.483.725 3.525 1.076 5.291 7.049 11.725 5.283 4.583-2.432 3.593-7.817 5.735-11.333 2.491-4.079 9.028-9.318 11.349-14.216 7.569-15.966-18.97-25.08-30.933-28.228-8.303 6.562-15.531 14.976-19.175 25.054l-8.115.366.051 14.055zm316.79-22.613c-11.366 15.061-5.82 34.526-10.53 51.976-2.33 8.628-7.629 22.998-11.366 31.266-3.405 7.535-12.604 17.664-13.67 26.163-1.92 15.412 23.201 32.367 32.853 18.518.972-1.391-.965-3.815-.043-5.683 2.722-5.487 8.823-10.83 11.4-16.99 8.55-20.489 13.56-45.534 14.942-66.406-3.737-7.151-1.203-14.37-3.584-21.93-3.277-10.394-14.37-7.587-20.002-16.93zm-141.268 39.322c1.228-1.562.469-5.334 1.98-8.039 3.131-5.606 13.456-10.624 15.496-18.705 1.57-9.25-23.56-8.26-29.33-6.562-7.355 2.168-18.397 20.105-30.37 17.946-2.312 14.617-15.274 17.51-22.672 25.642-4.02 4.412-8.73 15.25-12.791 21.316-5.18 7.731-8.175 5.769-7.1 18.705 1.092 13.15 21.504 25.83 34.287 19.857 1.792-.921 8.72-10.598 9.83-12.902 11.042-22.963 19.635-36.523 34.773-51.883 2.022-2.056 5.615-5.026 5.888-5.375zm-175.633 114.14c5.556-11.238 7.424-24.293 16.717-33.04v-19.191c-11.708-10.94-25.787-22.597-42.171-24.457-.256 6.477-6.793 10.07-8.073 16.094-1.143 5.376-.102 18.39-.614 25.002-.222 2.868-3.055 5.837-2.552 8.252 9.276 12.826 23.21 19.857 36.693 27.34m-8.772 59.93c-10.965-2.927-30.276-34.33-39.04-12.56-6.118 15.214-5.29 42.87 2.876 57.257l20.983 14.567c8.235.188 5.863-7.663 7.467-12.083 5.888-16.265 10.718-28.817 7.714-47.18M673.31 405.4c.871-.803 6.281-13.261 6.034-14.712-.401-2.39-3.38-4.864-4.105-7.39-1.11-3.882-1.135-8.166-2.577-11.622-3.533-8.5-14.122-22.699-21.427-28.305l-28.057 47.334c2.764 15.343 10.93 33.792 29.448 32.435 8.422-.614 12.399-12.8 16.358-16.674.913-.887 3.44-.256 4.318-1.066zm-153.803-2.031c-17.92 2.927-16.444 27.844-19.448 40.354-1.433 5.973-8.08 16.708-8.072 20.445.025 8.517 14.19 20.694 21.785 23.945 15.215-4.958 15.369-21.948 18.68-34.73.93-3.61 3.985-6.478 4.659-9.55 1.579-7.219-.93-15.103 3.388-22.357l-1.425-4.266c-4.37-3.985-13.423-14.84-19.567-13.833zm77.584 133.145c-.477-6.315 6.562-8.542 8.192-13.142 3.926-11.033 14.592-28.322 16.24-34.935.63-2.526-1.58-4.821-1.119-6.758.709-2.97 5.47-4.514 5.325-8.9-.077-2.33-2.236-4.574-2.278-6.307-.086-3.404 3.26-6.186.964-9.412-8.363-7.979-19.123-13.474-30.967-10.871-11.537 2.526-8.44 7.671-10.983 14.583-5.632 15.3-10.94 30.686-16.375 46.054 2.705 3.567-.205 8.798.29 10.931 1.562 6.733 27.016 23.04 30.72 18.774zm-178.388 85.913c1.365-1.425 7.475-2.364 10.795-4.864 17.05-12.851 30.327-36.13 44.1-52.523 4.71-11.366-.7-31.317-15.642-24.157-3.968 1.903-19.9 11.613-22.69 14.25-12.808 12.083-28.1 26.351-42.624 34.048-4.215 2.236-11.093 11.674-17.083 14.25l30.148 29.68c9.08.238 10.103-7.663 12.996-10.676zm136.626 13.09c-1.476-1.587-1.305-4.694-3.524-6.486-3.746-3.029-9.881-5.674-14.13-8.678-4.728-3.345-6.7-8.909-12.844-9.89-12.56-1.997-8.31 2.39-10.598 5-1.246 1.426-4.574 1.349-6.536 3.5-2.74 3.003-3.874 9.719-6.87 13.268-.623 3.584 10.513 13.799 14.106 16.538 4.028 3.072 22.843 12.39 26.811 12.98 5.615.835 12.57-.564 18.458-.146.742-7.91 5.99-18.244-.563-25.011-.768-.785-3.44-.145-4.31-1.084zm-359.695 43.87c-3.6.469-15.906 3.327-15.872 6.39 3.78 6.606 1.664 17.938.47 25.754.256 6.324 23.125 12.647 29.013 15.522 8.371-10.282 18.68-45.576-.384-47.829-2.262-.264-4.241 1.622-5.717 1.57-2.86-.085-5.36-1.68-7.501-1.408zm291.148 72.677 43.716 13.884c27.588-13.363 24.686-48.776 18.047-74.06l-2.312-3.37c-10.547.494-26.99-12.016-35.37-9.516-5.112 1.52-16.111 22.136-20.327 28.024-4.557 6.357-7.51 11.64-11.28 17.143-4.797 7.006-16.12 10.88-7.177 21.444l14.037 1.741.657 4.71zm-176.179 9.498c-1.348 10.172-8.09 21.197-10.504 30.703-1.391 5.487-1.272 6.664-3.559 13.517-4.036 12.074-10.803 20.65.76 29.363 19.985 15.06 31.77-16.59 38.852-29.56 4.079-7.466 5-7.927 8.661-16.921 2.296-5.64 8.56-7.126 3.823-16.24-.828-1.595-18.884-19.216-20.232-19.609-7.979-1.97-10.053 7.757-17.792 8.747zm176.298 68.283c2.603-2.705 13.875-5.307 13.867-13.277 0-10.36-17.058-13.654-22.887-17.076-2.21-1.297-3.61-4.403-5.768-5.597-8.329-4.6-15.403-7.185-24.627-9.643l-3.73.887c-7.295 5.82-16.818 18.774-13.934 28.263.264.879 9.497 12.885 11.042 14.592 7.057 7.756 21.743 21.213 32.35 18.03.546-.162 9.42-5.367 9.821-5.785 1.963-2.048 1.929-8.371 3.866-10.394m-63.172 104.516c.41-7.279 1.929-17.254-5.512-21.299-2.031-1.11-4.446 1.357-6.656 1.007-5.905-.947-21.197-9.71-26.462-10.436-3.09-.427-6.323 3.422-10.513 2.227-9.43-2.688-17.45-8.414-31.113-11.733-3.276-.794-10.7-4.634-12.04-4.557-2.867.17-14.848 13.534-8.15 16.554 7.092 3.2 8.756 7.749 14.294 10.949 5.564 3.217 11.06 2.346 15.3 4.59 12.143 6.426 8.644 3.96 20.915 7.501 2.919.845 5.334 5.573 9.395 7.655 13.824 7.082 27 2.133 40.542-2.466z"/><path fill="#efc587" d="M753.54 30.754c7.203-5.777 15.6-17.203 22.034-23.441 1.058-1.024.469-3.584 1.22-4.3 12.305-11.76 33.92 14.08 42.171 23.423 81.766 92.629 119.125 253.174 53.496 363.39-45.807 76.928-154.393 120.806-161.672 216.31-7.458 97.81 16.213 169.165-36.267 262.143-87.628 155.238-276.444 198.22-429.693 111.71 14.088 1.152-.965-14.353.042-18.321 3.746-3.217 10.957-9.498 15.522-10.163 16.06-2.347 39.663.69 57.02.196 9.113-.265 18.594-.435 27.776-.777 5.145-.196 12.655-5.307 19.123-.896l2.747 12.92c2.91 3.507 40.192-8.482 46.336-11.904 5.683-3.166 9.37-10.266 13.278-12.305 4.54-2.364 16.947-2.697 19.55-4.745.776-.614-.47-3.584 2.108-5.29 4.693-3.107 13.533-4.276 18.158-6.998 9.438-5.572 26.044-22.69 34.253-31.197 3.866-4.011 8.107-7.766 11.366-11.273 7.714-8.286 24.525-40.294 35.345-40.397 6.067-.05 10.018 4.924 15.326-5.563.905-10.377 1.45-23.27 3.66-33.289 1.57-7.116 9.268-11.016 10.522-15.112 4.182-13.687 2.586-5.811 6.204-11.221 4.079-6.102 7.066-24.013 8.917-26.317 1.34-1.664 5.65 1.263 7.97-10.368 3.422-17.152 7.587-33.98 11.486-51.038 11.452-50.15 13.107-105.027 28.92-152.967 4.872-14.771 15.854-31.207 23.577-44.62 2.748-4.771 8.747-5.12 9.506-6.136.99-1.323.316-5.24 1.818-8.064 1.638-3.072 10.777-10.914 14.2-14.379 22.8-23.023 49.671-49.237 81.1-60.91 7.347-11.597 21.06-18.347 16.58-33.767-1.041-3.575-9.003-9.574-7.962-14.31 8.2-14.942 25.438-10.155 35.362-21.623 2.987-12.63 11.597-24.013 15.027-36.13 1.767-6.255 1.673-15.173 3.977-21.59 4.343-12.066 2.193-6.408 2.867-17.066.435-6.818 5.692-14.703 5.325-23.288-1.46-33.91-5.231-69.844-15.761-100.931-1.425-4.207-5.035-6.767-6.614-10.436-5.17-12.024-4.48-18.612-14.088-26.949-2.159-1.868-4.932-13.516-9.105-18.073-4.557-4.975-14.831-9.609-20.07-14.114-2.424-2.082-2.176-5.444-3.286-6.554-3.942-3.942-20.89-2.61-25.062-13.329-.026-2.398 20.326-10.342 5.675-9.95z"/><path fill="#f3ce8d" d="M347.134 471.268c-1.544 3.038-1.869 7.654-5.683 11.358 5.06 1.51 9.13-4.915 12.749-4.924 2.986 0 18.099 5.82 23.364 7.177 4.48 1.152 9.182-.171 13.21.99 2.952.844 5.486 5.964 10.137 5.495 2.543 13.244-7.808 19.942-19.9 20.95-3.797 9.172-18.022 13.448-27.409 18.004-8.695 4.224-16.827 10.317-27.46 11.785-1.186-.256-16.4-14.993-17.425-16.879-3.507-6.451.265-10.632-12.748-11.332 15.513-10.59 27.357-19.61 39.662-32.725 3.345-3.567 7.117-7.749 11.495-9.908z"/><path fill="#efc88b" d="m486.782 752.064-.658-4.71-14.037-1.74c-8.943-10.565 2.381-14.439 7.177-21.445 3.771-5.504 6.724-10.786 11.28-17.143 4.216-5.888 15.216-26.496 20.327-28.024 8.38-2.5 24.823 10.01 35.37 9.515l2.313 3.37c6.639 25.285 9.532 60.698-18.048 74.061l-43.716-13.884z"/><path fill="#f2cb8c" d="M644.955 186.615c-.273.35-3.866 3.319-5.888 5.375-15.13 15.36-23.723 28.92-34.774 51.883-1.109 2.304-8.038 11.98-9.83 12.902-12.791 5.974-33.194-6.707-34.287-19.857-1.075-12.928 1.92-10.965 7.1-18.705 4.062-6.067 8.772-16.896 12.791-21.316 7.39-8.132 20.36-11.025 22.673-25.642 11.973 2.159 23.015-15.77 30.37-17.946 5.76-1.698 30.9-2.688 29.33 6.562-2.04 8.081-12.365 13.099-15.497 18.705-1.51 2.705-.751 6.477-1.98 8.039z"/><path fill="#f0c98d" d="M786.223 147.293c5.632 9.344 16.725 6.537 20.002 16.93 2.39 7.56-.153 14.788 3.584 21.93-1.382 20.865-6.391 45.918-14.942 66.407-2.568 6.16-8.678 11.494-11.4 16.99-.93 1.868 1.015 4.292.043 5.683-9.66 13.85-34.774-3.115-32.854-18.517 1.059-8.5 10.266-18.637 13.67-26.164 3.738-8.268 9.038-22.638 11.367-31.266 4.71-17.45-.836-36.915 10.53-51.976z"/><path fill="#f1c887" d="M418.703 622.427c-2.893 3.012-3.917 10.905-12.996 10.675l-30.148-29.679c5.981-2.586 12.868-12.015 17.083-14.25 14.524-7.698 29.816-21.965 42.624-34.048 2.79-2.629 18.722-12.348 22.69-14.25 14.933-7.152 20.352 12.79 15.642 24.157-13.773 16.384-27.05 39.671-44.1 52.522-3.328 2.509-9.43 3.44-10.795 4.864z"/><path fill="#f3cb8b" d="M597.091 536.514c-3.703 4.266-29.158-12.04-30.72-18.774-.494-2.133 2.424-7.364-.29-10.93 5.445-15.37 10.752-30.746 16.376-46.055 2.543-6.912-.555-12.058 10.982-14.583 11.844-2.595 22.596 2.892 30.967 10.871 2.296 3.226-1.04 6.007-.964 9.412.043 1.732 2.202 3.977 2.279 6.306.145 4.386-4.617 5.94-5.325 8.9-.461 1.946 1.75 4.242 1.118 6.759-1.647 6.613-12.314 23.902-16.24 34.935-1.63 4.591-8.669 6.827-8.191 13.141z"/><path fill="#f3cb8f" d="M310.603 761.562c7.74-.99 9.822-10.718 17.792-8.747 1.357.393 19.405 18.023 20.233 19.61 4.736 9.113-1.528 10.598-3.823 16.239-3.661 8.994-4.583 9.455-8.662 16.921-7.082 12.962-18.875 44.62-38.852 29.56-11.554-8.713-4.787-17.289-.76-29.363 2.296-6.861 2.168-8.03 3.56-13.517 2.406-9.506 9.147-20.531 10.504-30.703z"/><path fill="#f1cb91" d="M486.901 829.845c-1.946 2.023-1.903 8.346-3.866 10.394-.392.41-9.275 5.615-9.821 5.786-10.607 3.191-25.293-10.275-32.35-18.031-1.545-1.698-10.778-13.713-11.042-14.592-2.884-9.49 6.63-22.434 13.935-28.263l3.729-.887c9.224 2.458 16.298 5.043 24.627 9.643 2.159 1.194 3.558 4.3 5.768 5.597 5.829 3.414 22.887 6.716 22.887 17.076 0 7.961-11.273 10.572-13.867 13.277"/><path fill="#f3c88b" d="M469.322 300.756c-13.482-7.484-27.417-14.515-36.693-27.34-.503-2.424 2.33-5.394 2.552-8.253.512-6.613-.52-19.618.614-25.002 1.28-6.025 7.817-9.617 8.073-16.094 16.375 1.86 30.463 13.517 42.171 24.457v19.19c-9.293 8.756-11.161 21.803-16.717 33.042"/><path fill="#f0c78a" d="M673.31 405.4c-.878.81-3.404.179-4.317 1.066-3.96 3.874-7.945 16.06-16.358 16.674-18.518 1.357-26.684-17.092-29.449-32.435l28.058-47.334c7.304 5.606 17.894 19.806 21.427 28.305 1.433 3.456 1.467 7.74 2.577 11.622.725 2.526 3.703 5 4.104 7.39.248 1.46-5.162 13.91-6.033 14.712z"/><path fill="#efc587" d="M423.73 934.361c-13.535 4.6-26.71 9.549-40.543 2.466-4.061-2.082-6.476-6.81-9.395-7.654-12.28-3.541-8.772-1.084-20.915-7.5-4.24-2.245-9.736-1.375-15.3-4.592-5.53-3.191-7.194-7.748-14.293-10.948-6.707-3.02 5.273-16.392 8.149-16.555 1.34-.076 8.764 3.764 12.04 4.557 13.662 3.32 21.684 9.045 31.113 11.733 4.198 1.195 7.424-2.653 10.513-2.227 5.265.726 20.557 9.49 26.462 10.437 2.21.358 4.625-2.108 6.656-1.007 7.44 4.044 5.913 14.02 5.512 21.299z"/><path fill="#efc686" d="M519.507 403.369c6.144-1.007 15.197 9.847 19.567 13.832l1.425 4.267c-4.327 7.262-1.818 15.138-3.388 22.357-.674 3.072-3.73 5.948-4.66 9.549-3.31 12.791-3.464 29.772-18.679 34.73-7.586-3.251-21.76-15.428-21.785-23.944-.009-3.73 6.63-14.464 8.072-20.446 3.013-12.51 1.528-37.436 19.448-40.354z"/><path fill="#f0c989" d="M460.55 360.685c3.004 18.372-1.826 30.916-7.714 47.18-1.604 4.42.768 12.272-7.467 12.084l-20.983-14.567c-8.166-14.387-8.994-42.035-2.876-57.258 8.756-21.777 28.075 9.634 39.04 12.561"/><path fill="#efc98b" d="m469.433 169.906-.05-14.054 8.114-.367c3.644-10.078 10.872-18.492 19.175-25.054 11.963 3.14 38.502 12.254 30.933 28.228-2.321 4.899-8.858 10.138-11.35 14.217-2.141 3.516-1.16 8.9-5.734 11.332-6.434 1.767-8.2-4.207-11.725-5.282-4.232-1.288-9.25.486-13.482-.725-4.335-1.246-7.68-10.693-15.88-8.286z"/><path fill="#f2cc8e" d="M555.33 635.517c.87.938 3.55.29 4.309 1.084 6.562 6.766 1.305 17.1.563 25.01-5.888-.418-12.843.982-18.458.146-3.968-.59-22.775-9.907-26.811-12.98-3.593-2.739-14.729-12.953-14.106-16.537 2.996-3.558 4.13-10.266 6.87-13.27 1.962-2.15 5.29-2.073 6.536-3.498 2.287-2.611-1.963-7.006 10.598-5 6.144.98 8.116 6.545 12.843 9.89 4.258 3.012 10.385 5.657 14.131 8.678 2.219 1.792 2.048 4.898 3.524 6.485z"/><path fill="#e9c587" d="M195.634 679.386c2.142-.281 4.642 1.315 7.501 1.408 1.476.043 3.464-1.843 5.717-1.57 19.064 2.253 8.755 37.547.384 47.83-5.888-2.876-28.757-9.208-29.013-15.523 1.186-7.816 3.311-19.14-.47-25.753-.025-3.055 12.272-5.922 15.873-6.392z"/></svg>