<svg xmlns="http://www.w3.org/2000/svg" viewBox="0 0 1024 1024"><path fill="#e69755" d="m937.37 641.092-7.424-13.431c-9.071 38.383 3.857 65.672-42.974 92.723-12.28 7.091-24.389 15.787-36.72 24.619-16.187 11.588-38.595 12.672-57.104 2.355-15.855-8.84-32.768-43.273-20.446-64.418l-2.321-5.666c18.176-22.759 29.832-22.008 53.282-40.969 7.373-5.965 15.232-18.97 23.714-23.825 24.78-14.19 56.67-11.477 80.606 2.193 6.741 3.849 9.054 19.396 9.378 26.42zm-75.085 4.199c3.652-6.332 6.605-14.626 7.048-18.654-14.13-4.173-24.883 8.311-24.465 18.466.188 4.437 14.882 4.574 17.417.18zm5.999 66.065c11.63-7.33 37.205-29.67 34.782-38.81-.316-1.177-3.414-3.32-4.301-2.492l-4.958 4.608c-13.602 12.655-27.264 23.953-41.25 34.074z"/><path fill="#dd7239" d="m196.932 404.779-5.333 4.454c-8.32 1.929-15.437 5.419-25.037 10.564L165.3 431.07l21.206-11.913c10.188 6.58-19.567 26.76-26.445 28.485l-33.34 8.328c-11.955 2.987-30.455 2.645-42.7.947l-22.222-3.072c-4.207-.58-13.09-3.61-17.775-5.324-2.705-.99-7.611 3.242-8.738 5.87l-1.177 2.748-12.467-12.348-13.952-17.954c-3.004-3.857-10.249-15.249-6.75-19.02l26.99-29.1c23.51-25.352 43.393-22.118 75.23-24.498 20.48-1.528 44.041-6.306 63.13-.751 22.972 6.681 31.002 31.778 30.652 51.336zm-76.723-15.847c1.963-.256 7.51-8.977 5.675-9.574l-7.544-2.466c-19.123-6.255-52.224-5.163-65.613 13.44-.896 1.237 5.197 6.818 6.69 6.622l60.8-8.022z"/><path fill="#dd7138" d="m664.764 782.49-8.986 5.691-10.018 13.295c-7.15 9.49-33.007 25.37-45.15 30.789l-53.94 24.08c-2.798 1.255-6.519 3.226-7.747 3.952-13.96-.171-27.128-4.958-40.158-12.783l-19.644-7.04 6.417-25.677-3.934-3.362c8.32-50.629 80.137-68.25 123.589-75.58 25.565-4.31 60.373 12.348 59.57 46.618zm-132.822 18.935 21.7-11.418 18.996-10c3.67-1.93 3.43-9.575 2.466-16.786l-23.902 5.223c-23.62 5.162-39.953 37.188-29.918 35.575 1.775-.281 8.576-1.502 10.667-2.602z"/><path fill="#e5894b" d="M635.708 559.505c-32.888 3.038-69.607 31.548-65.528 68.634l-23.492 1.305c-21.615 1.203-41.6-10.06-50.39-28.842l-5.572-11.921c5.521-4.634 14.149-11.11 19.363-16.59L546.329 534c8.62-9.062 15.565-24.218 20.395-35.43 24.005-23.296 50.569-30.157 84.378-15.258 6.878 3.03 20.975 49.468-7.202 70.17l-8.192 6.016z"/><path fill="#df753c" d="m734.225 234.189-.41-6.494c-.093-1.502-4.411-1.596-5.666-.794l-15.36 9.83c-41.446 26.53-82.244 17.144-123.878-2.918l-15.522-7.475c-4.745-2.287-13.68-2.073-17.767-.162-.733-.802-2.645-.546-4.24-.631-9.183-15.002-12.698-36.224-4.182-52.114 14.575-27.195 48.913-37.051 75.119-22.707 13.764 7.535 29.039 16.802 43.366 19.695l30.328 6.127c30.84 6.23 44.399 33.263 38.22 57.643zm-145.041-62.652c11.486 23.21 32.674 26.12 52.147 18.586-5.615-18.543-43.238-26.292-52.147-18.586"/><path fill="#de743b" d="M473.02 688.939c-20.523 6.741 7.714 1.74-24.09 32.486-22.553 2.944-10.888-7.424-48.196-12.91l-22.05-9.43c-12.561-5.368-22.64-18.279-30.874-31.232-17.305-27.222-33.1-14.25-33.1-47.454v-8.14c.776-.018 6.39-4.856 4.454-5.804-1.391-.674-3.397-1.902-4.694-2.67 39.083-39.023 110.149 1.98 143.582 40.37 11.571 13.287 14.746 29.304 14.976 44.784zm-59.862-41.745c9.754-15.992-36.659-51.747-57.378-33.067-1.553 1.4 3.661 6.938 6.17 8.158z"/><path fill="#de733a" d="m420.471 262.707-2.338-7.424 2.526-16.648c-7.296-3.08-17.75-5.846-25.233-4.062-17.98 4.275-9.796 22.11-36.087 35.2l-30.234 15.044c-22.178 11.042-49.57 5.402-72.243 1.74l-26.3-15.043-5.547 3.447 17.58-34.21c14.036-24.5 30.668-36.25 61.038-36.736 29.013-.47 66.773-28.04 103.57 5.632 16.895 15.454 22.4 35.627 13.277 53.06zM311.34 242.833c2.816-1.553 7.978-8.695 6.52-11.255-7.945-14.012-39.86-2.893-45.51 8.704 11.359 11.767 23.954 10.854 38.99 2.551"/><path fill="#dd7239" d="m234.53 689.22-9.66 1.724 20.78 29.85c.64.913 6.715 4.027 6.996 4.053 9.763 1.015-33.032 27.964-61.277 32.324-26.24 4.045-57.165-7.671-79.42-19.456l-21.171-11.213c-2.014-11.306-5.59-26.675-4.549-37.725l1.4-14.908 38.588-16.017c20.898-7.987 53.555 19.908 63.232 21.427l35.763 5.598c2.398.375 7.56 3.114 9.327 4.343zm-70.707 14.746c-3.942-9.882-14.635-20.856-24.815-24.866-3.115-1.23-13.705 1.066-13.389 4.352 1.391 14.745 22.895 28.578 38.204 20.514"/><path fill="#dc7038" d="M388.412 393.216c-9.848 12.006 22.434 9.301 34.986 43.665-5.034 9.822-12.97 26.291-24.209 30.106-27.093 9.182-59.912-8.013-61.363-4.71l-3.362 7.611c-11.674-17.306-54.144-17.331-64.887-4.634l-15.727.99c-17.844-27.187-8.5-63.104 22.75-78.276 47.257-22.938 67.379 7.629 77.951-11.034l5.189-9.156c-2.142 22.895 23.373 12.817 28.663 25.438zm-24.508 29.79c.64-2.372-1.11-11.605-3.456-12.314-24.218-7.338-52.634-18.637-76.723-1.894-1.8 1.254.418 9.549 2.594 9.71l7.953.564c37.94 2.697 66.44 15.684 69.632 3.934"/><path fill="#dd713a" d="m1018.445 506.53-2.543-16.068-33.74.529c-1.068.017-6.683 1.476-7.288 2.244-.922 1.152-2.04 2.518-1.58 1.954l35.67 6.366-21.47 7.407c-22.903 21.163-82.551 3.66-110.6-6.775l-26.7-9.942c-2.612-.972-9.14-5.828-10.215-6.434.469-3.917-3.72-23.245 20.744-39.722 40.96-27.589 123.938-36.395 151.27 31.24 6.46 15.983 14.482 25.165 11.29 26.77zm-69.18-45.721c1.826-.026 6.639-4.105 8.021-5.308 5.027-4.37-19.592-18.876-44.228-11.06-2.637.837-7.885 8.338-6.323 10.36 1.169 1.51 5.734 6.502 7.646 6.477l34.876-.478z"/><path fill="#de7339" d="m872.559 307.618-12.16 1.903c-7.083 1.11 4.65 12.57-12.536 21.794l-12.791 6.87 26.795 12.202c-11.367 22.033-28.348 34.116-50.006 35.593l-54.613 3.712c-19.02 1.288-18.62-13.33-36.147-17.05l-19.738-4.19c-7.398-8.866 3.917-33.186 9.063-40.055 12.134-16.18 32.477-21.385 52.01-22.204 42.215-1.766 29.782-10.931 65.033-13.167 17.34-1.1 34.67 3.934 45.064 14.592zm-79.172 15.514c-1.826-1.22-9.268-5.095-11.392-4.549l-34.714 8.85c-1.86.477-4.241 7.645-2.654 8.72 24.337 16.444 58.13-6.732 48.768-13.021z"/><path fill="#d16028" d="M423.842 327.45c2.91-.59 8.926-.436 11.879-.128.435 27.605 11.596 49.903 32.622 69.657l13.005 12.211-32.05 19.252c-1.144.69-8.833.913-7.877.793l-8.687-9.344c-10.889-11.708-28.39-30.046-44.322-26.675-5.29-12.62-30.806-2.543-28.664-25.438 4.805-20.89 45.201-36.531 64.094-40.328"/><path fill="#cf5a25" d="M872.559 307.618c8.678 6.605 16.99 21.137 16.81 30.968l-.486 26.513-16.273 16.042c-10.726 10.573-29.192 19.49-44.808 23.262L793.02 412.8c-15.676.128-33.664-1.698-50.296-4.25l-20.198-18.32c-3.66-3.32-4.241-14.559-1.408-17.588 17.527 3.72 17.126 18.338 36.147 17.05l54.613-3.712c21.658-1.468 38.64-13.551 50.006-35.593l-26.795-12.202 12.792-6.87c17.186-9.224 5.452-20.685 12.535-21.794l12.16-1.903z"/><path fill="#d2602c" d="m1018.445 506.53-22.648 18.415c-9.164 7.45-26.078 17.22-37.214 17.75l-53.956 2.568c-12.27.589-32.537-5.069-43.836-10.044-21.478-9.472-22.937-31.573-20.812-49.416 1.075.597 7.603 5.461 10.214 6.434l26.7 9.941c28.05 10.436 87.698 27.938 110.601 6.776l21.47-7.407-35.67-6.366c-.46.563.658-.802 1.58-1.954.614-.768 6.22-2.228 7.287-2.245l33.74-.529 2.544 16.069z"/><path fill="#cd7737" d="M937.37 641.092c.443 9.737 2.662 30.746.35 39.902-4.6 18.236-16.495 36.472-30.354 46.353-19.686 14.038-37.265 26.232-56.943 38.716-25.352 16.085-59.059 8.849-77.866-12.62-19.891-22.708-22.033-56.056-2.168-76.178l2.321 5.666c-12.322 21.146 4.583 55.578 20.446 64.418 18.51 10.317 40.918 9.233 57.105-2.355 12.34-8.832 24.44-17.527 36.72-24.619 46.83-27.05 33.902-54.34 42.973-92.723l7.424 13.432z"/><path fill="#d15c26" d="m440.67 437.29 4.395 16.436c-1.366 24.047-33.75 22.997-52.455 60.715l-29.056 1.117c-2.056.077-5.982-.725-8.132-1.152l-5.58-4.625c-18.663-15.488-4.797-25.813-14.857-28.16-.316-2.918-.41-8.482-.512-11.733l3.362-7.612c1.459-3.302 34.27 13.893 61.363 4.71 11.238-3.805 19.174-20.275 24.209-30.105 5.521.768 11.392.87 17.263.418z"/><path fill="#b64318" d="M314.7 612.267v8.14l-4.914 3.849c-3.772 30.575 2.73 37.99 25.583 60.561 15.078 14.89 45.713 38.707 61.917 46.447 18.919 9.037 39.766 1.647 51.644-9.83 31.804-30.746 3.567-25.737 24.09-32.487.264 17.758-1.391 36.352-13.287 47.778-23.526 22.605-59.998 20.386-84.53 1.826l-27.896-21.102c-9.054-6.844-18.415-14.183-26.88-22.016-23.928-22.136-24.09-68.156-9.788-87.22 1.152.538 4.07 2.44 4.07 4.07z"/><path fill="#b54317" d="m87.62 673.877-1.4 14.908c-1.04 11.05 2.544 26.42 4.55 37.726.912 5.128 3.813 15.778 8.268 19.149 23.723 17.894 37.683 21.905 66.398 31.36 7.04 2.32 22.272 1.169 31.462 1.211 39.407.154 55.364-23.773 61.918-56.345 7.049 23.996-13.21 73.625-55.1 70.357-15.616-1.22-36.667 1.084-53.154-2.79-36.685-8.627-64.017-28.135-74.462-64.657l-8.32-29.116c-1.348-4.727-.307-16.478 4.07-18.586 3.653-1.757 11.666-2.978 15.745-3.208z"/><path fill="#b4461c" d="M664.764 782.49c-.734 31.095-12.177 57.881-36.924 68.804l-35.285 15.573c-47.31 20.881-62.567 14.481-104.491-4.446-7.202-3.25-16.683-8.004-18.816-13.363-1.826-4.59 2.065-16.17 4.215-20.66l8.133-16.955 3.934 3.362-6.417 25.677 19.643 7.04c13.03 7.834 26.198 12.612 40.158 12.783l4.292 5.794c1.152 1.553 6.784.068 9.148-.623l41.216-12.023c13.79-4.02 79.77-39.399 62.191-65.272l8.986-5.691z"/><path fill="#b54418" d="M420.471 262.707c-4.104 7.842-7.278 18.262-12.612 22.742-33.8 28.45-64.793 40.38-109.278 39.867-22.468-.256-39.398-10.214-54.553-25.113-15.693-15.429-19.772-11.52-19.021-25.242l5.547-3.447 26.3 15.044c15.863 53.495 146.534 6.016 161.28-31.275z"/><path fill="#b94b1e" d="M728.14 226.893c1.255-.802 5.573-.708 5.667.793l.41 6.494c-5.94 23.441-13.654 42.735-40.517 50.245-22.605 6.314-50.372 3.643-74.163-5.095-23.441-8.61-66.568-28.612-68.164-53.803 1.596.086 3.507-.179 4.24.632l7.4 8.158c6.04 6.656 20.462 11.904 29.49 15.949 34.194 15.291 97.588 39.168 124.084 2.491 6.613-8.798 11.4-16.802 11.545-25.864z"/><path fill="#b7491b" d="m701.38 368.452 19.738 4.19c-2.833 3.038-2.253 14.268 1.408 17.587l20.198 18.321c16.632 2.56 34.629 4.387 50.296 4.25l34.782-8.397c15.624-3.772 34.082-12.68 44.808-23.262l16.273-16.042c-.597 32.793-33.698 50.466-58.65 54.818-64.213 11.187-74.837 14.72-117.213-26.48-7.655-7.44-12.28-16.537-11.648-24.985z"/><path fill="#b25631" d="m34.108 457.122 1.177-2.748c7.586 5.521 17.698 11.981 25.865 16.657l25.608 2.45 31.983.58 19.482-7.015 27.042-5.913c5.333.503 27.281-24.295 27.11-29.346l-.768-22.562 5.334-4.455c8.61 8.84-1.656 36.984-6.562 43.128-10.343 12.953-28.34 20.582-43.52 24.772l-27.008 7.467c-13.577 1.604-28.084 1.62-41.609-.137l-27.784-7.006c-6.11-1.536-14.541-11.068-16.342-15.88z"/><path fill="#c26e3b" d="M794.505 548.036c-7.34 12.664-18.569 19.269-36.344 25.302-.239-1.955-.12-.99.128 1.075-5.751-3.396-11.179-8.423-14.933-13.867 1.928.367 11.605-.017 14.762-1.288l25.583-10.309c2.705-1.092 8.303-7.458 10.07-9.506l.725 8.602z"/><path fill="#cf5926" d="m234.53 689.22 11.179 7.791c-.026 1.903-.487 8.636 1.826 8.482 1.613-.11 5.316.24 6.596.342l4.71 16.034c-6.562 32.572-22.51 56.508-61.917 56.345-9.19-.034-24.423 1.11-31.463-1.211-28.714-9.455-42.675-13.466-66.398-31.36-4.462-3.362-7.355-14.02-8.268-19.15l21.17 11.214c22.256 11.784 53.18 23.5 79.42 19.456 28.254-4.36 71.04-31.31 61.278-32.325-.281-.025-6.357-3.14-6.997-4.053l-20.779-29.85 9.66-1.723zm80.17-76.953c0-1.63-2.918-3.525-4.07-4.07l3.823-4.412c1.297.776 3.311 1.996 4.694 2.67 1.937.948-3.678 5.795-4.455 5.803z"/><path fill="#dd7239" d="M254.123 705.835c-1.272-.103-4.984-.453-6.597-.342-2.312.162-1.851-6.57-1.826-8.482 3.653 2.543 7.714 6.434 8.423 8.824"/><path fill="#c6622e" d="M607.693 449.911c.503 1.084 6.434 6.588 9.258 7.109l45.014 8.286c18.108 21.649 15.411 75.528 18.739 76.032l9.267 1.408c3.004.46 10.812 3.413 11.768 4.266l-23.407-.819c-2.51 2.748-9.242 8.098-13.278 8.764l-15.087 2.466-14.268 2.082 8.192-6.016c28.177-20.702 14.08-67.132 7.202-70.17-33.809-14.899-60.382-8.038-84.377 15.258.503-6.758 2.628-19.174 1.237-25.37l23.714-11.315-2.005-21.299 3.157-7.083 7.731 11.196 7.134 5.205z"/><path fill="#ca7033" d="M704.82 521.173c-18.714-25.856 51.72 19.183 28.748 18.868-6.528-.094-20.122-6.955-23.817-12.058l-4.923-6.81z"/><path fill="#d37c3c" d="m708.395 440.44-12.886 5.717-18.585-19.866c-1.101-1.169-6.963-2.901-8.636-3.439s1.894-4.155 4.932-7.782c14.643 9.148 18.62 11.887 35.166 25.36z"/><path fill="#d37e3f" d="m868.284 711.356-15.727-2.62c13.986-10.112 27.648-21.419 41.25-34.074l4.958-4.608c.887-.827 3.993 1.315 4.3 2.492 2.424 9.14-23.15 31.48-34.781 38.81"/><path fill="#f9b87c" d="M862.285 645.29c-2.535 4.387-17.229 4.259-17.417-.179-.418-10.154 10.334-22.638 24.465-18.466-.443 4.028-3.396 12.314-7.048 18.654z"/><path fill="#c95523" d="m191.599 409.233.768 22.562c.17 5.06-21.777 29.85-27.11 29.346l-27.043 5.914-19.481 7.014-31.983-.58-25.609-2.449c-8.166-4.676-18.278-11.136-25.864-16.657 1.126-2.62 6.024-6.86 8.738-5.871 4.685 1.715 13.568 4.745 17.775 5.325l22.22 3.072c12.246 1.698 30.738 2.04 42.701-.947l33.34-8.329c6.878-1.715 36.642-21.905 26.445-28.484l-21.205 11.912 1.263-11.272c9.6-5.154 16.725-8.636 25.036-10.564z"/><path fill="#f69a63" d="m120.21 388.932-60.8 8.022c-1.503.196-7.587-5.385-6.691-6.622 13.389-18.603 46.49-19.687 65.613-13.44l7.543 2.466c1.835.597-3.703 9.318-5.674 9.574z"/><path fill="#d05a25" d="M538.931 860.297c1.22-.726 4.95-2.706 7.748-3.951l53.94-24.081c12.143-5.42 37.999-21.308 45.15-30.789l10.018-13.295c17.578 25.873-48.41 61.253-62.191 65.272l-41.216 12.023c-2.364.691-7.996 2.176-9.148.623l-4.292-5.794z"/><path fill="#f2905a" d="M531.942 801.425c-2.09 1.1-8.891 2.313-10.666 2.603-10.027 1.613 6.297-30.413 29.918-35.576l23.901-5.222c.965 7.21 1.204 14.856-2.466 16.785l-18.995 10.001-21.7 11.418z"/><path fill="#d45d27" d="M728.14 226.893c-.144 9.062-4.931 17.075-11.545 25.864-26.504 36.677-89.89 12.792-124.083-2.491-9.028-4.037-23.458-9.293-29.491-15.95l-7.399-8.157c4.088-1.912 13.022-2.125 17.767.162l15.522 7.475c41.634 20.062 82.44 29.449 123.878 2.919l15.36-9.83z"/><path fill="#f3965f" d="M589.184 171.537c8.909-7.706 46.532.043 52.147 18.586-19.464 7.535-40.661 4.625-52.147-18.586"/><path fill="#cf5926" d="M448.93 721.425c-11.878 11.477-32.717 18.867-51.644 9.83-16.196-7.74-46.83-31.556-61.917-46.446-22.861-22.571-29.364-29.987-25.583-60.562l4.915-3.848c0 33.195 15.795 20.224 33.1 47.454 8.235 12.953 18.322 25.864 30.874 31.232l22.05 9.43c37.308 5.486 25.634 15.854 48.197 12.91z"/><path fill="#f59661" d="m413.158 647.194-51.208-24.91c-2.517-1.22-7.723-6.758-6.17-8.157 20.72-18.671 67.14 17.084 57.378 33.067"/><path fill="#f9ecde" d="M502.349 424.619c-23.586-2.057-42.539 11.34-57.293 29.107l-4.395-16.435c.436-1.698 2.16-6.554.76-8.064-.956.12 6.733-.103 7.876-.794l32.051-19.251 15.821 5.376c2.253.768 4.71 7.424 5.18 10.044z"/><path fill="#de733a" d="M502.349 424.619c.222 1.246.537 5.299 1.8 5.256l8.875-.281 21.487-.666 1.536 21.606c.427 6.042-5.675 18.185-9.336 24.303 4.19 10.83 3.584 21.812-4.736 30.575l-11.938 12.578-36.181 33.144c-18.509 16.947-46.473 16.486-65.655 4.625l-9.14 1.562-8.021-20.873.623-17.033-19.942-.776c-2.014-.077-8.867-2.953-8.167-3.09l29.056-1.117c18.697-37.717 51.09-36.668 52.455-60.715 14.754-17.775 33.706-31.163 57.292-29.107zm-16.205 45.363c4.608-4.036 9.583-13.03 12.715-21.325-20.83-10.095-37.308 20.002-44.945 37.88l10.555 2.466zm-48.23 43.469c2.124-1.613-.043-13.483-2.723-12.493-7.517 2.782-19.029 15.83-15.564 26.402z"/><path fill="#b74114" d="M550.793 413.278c1.271.879 4.087 2.713 4.454 4.275l4.762 20.198 7.953 35.448c1.39 6.195-.743 18.611-1.238 25.37-4.821 11.212-11.776 26.376-20.394 35.43l-36.241 38.093c-5.214 5.478-13.842 11.955-19.363 16.589-32.179 9.275-46.685 18.705-82.423-.274-8.755-4.65-16.376-19.072-16.614-27.801l-.649-24.15 8.021 20.873 9.14-1.562c8.174 32.64 46.967 28.928 75.656 18.168 7.416-2.782 14.805-10.726 20.233-16.606l25.71-27.819c10.53-11.4 23.988-30.617 23.186-46.49l-1.605-31.555-11.528 1.322-1.306-19.635c-.068-1.041-2.807-4.25-4.036-4.215l-21.487.665-8.875.282c-1.263.042-1.578-4.02-1.8-5.257l20.804-7.859c7.228-2.73 20.02-3.524 27.631-3.482z"/><path fill="#cf5925" d="M408.2 555.767c19.183 11.862 47.147 12.323 65.656-4.625L510.037 518l11.938-12.578c8.32-8.764 8.926-19.746 4.736-30.575 3.653-6.119 9.763-18.261 9.336-24.303l-1.536-21.606c1.229-.035 3.968 3.174 4.036 4.215l1.306 19.635 11.528-1.322 1.605 31.556c.802 15.872-12.647 35.089-23.185 46.49l-25.711 27.818c-5.428 5.871-12.817 13.816-20.233 16.606-28.689 10.769-67.482 14.472-75.656-18.168"/><path fill="#f39860" d="m486.144 469.982-21.675 19.02-10.555-2.465c7.637-17.87 24.123-47.975 44.945-37.88-3.132 8.294-8.107 17.289-12.715 21.325"/><path fill="#f8955b" d="m437.914 513.45-18.287 13.91c-3.465-10.573 8.047-23.612 15.564-26.402 2.671-.99 4.847 10.88 2.723 12.493"/><path fill="#cf5925" d="M418.133 255.292c-14.737 37.29-145.416 84.77-161.28 31.274 22.673 3.653 50.065 9.293 72.244-1.74l30.233-15.045c26.291-13.081 18.108-30.924 36.088-35.2 7.483-1.783 17.945.982 25.233 4.062l-2.526 16.649z"/><path fill="#f59760" d="M311.339 242.833c-15.036 8.303-27.64 9.216-38.99-2.551 5.658-11.606 37.573-22.716 45.51-8.704 1.458 2.568-3.704 9.702-6.52 11.255"/><path fill="#f69e66" d="M163.823 703.966c-15.3 8.064-36.813-5.769-38.204-20.514-.307-3.286 10.283-5.581 13.389-4.352 10.18 4.01 20.873 14.984 24.815 24.866"/><path fill="#f5935b" d="M363.904 423.006c-3.191 11.75-31.693-1.246-69.632-3.934l-7.953-.563c-2.185-.154-4.395-8.457-2.594-9.711 24.09-16.743 52.505-5.453 76.723 1.894 2.355.717 4.105 9.95 3.456 12.314"/><path fill="#c04714" d="M441.43 429.235c1.399 1.51-.325 6.366-.76 8.064-5.871.461-11.742.35-17.263-.418-12.553-34.355-44.843-31.659-34.987-43.665 15.94-3.38 33.442 14.959 44.322 26.675z"/><path fill="#f2965d" d="m949.265 460.809-34.876.477c-1.92.026-6.485-4.966-7.646-6.476-1.561-2.023 3.687-9.524 6.324-10.36 24.635-7.816 49.254 6.682 44.228 11.06-1.382 1.203-6.195 5.281-8.021 5.307z"/><path fill="#f39a65" d="M793.387 323.132c9.36 6.289-24.431 29.465-48.768 13.022-1.588-1.076.802-8.244 2.654-8.721l34.713-8.85c2.133-.546 9.575 3.328 11.392 4.549z"/><path fill="#f8ebe0" d="m589.67 440.593 2.006 21.3-23.714 11.314-7.953-35.447 15.982-.418c3.311-.085 11.23 2.227 13.67 3.26z"/><path fill="#d37b38" d="M355.422 514.406c-2.458 1.05-7.143 8.073-7.62 11.913-3.405 27.452-22.11 46.114-46.908 55.518-14.61 5.546-26.24 13.073-40.047 22.067-33.86 22.059-85.342 12.851-116.352-17.17-16.913-16.375 11.23-64.545 22.178-81.032l10.53-4.54c1.45-.016 4.352-.264 4.95.897l2.295 4.42c-5.146.691-13.141 7.91-16.247 12.066-13.09 17.51-17.827 26.573-15.514 52.95 15.428 14.02 35.345 24.32 56.738 26.837 23.68 2.79 42.027-9.634 60.058-22.81 8.994-6.562 21.606-11.99 32.128-17.604l18.628-9.941c13.542-17.178 16.631-48.999 14.746-66.381 10.06 2.346-3.806 12.68 14.856 28.16l5.58 4.625z"/><path fill="#eda161" d="m269.585 465.246 8.9 1.86-6.545 4.548 9.046 10.257c-7.023 6.255-21.3 12.553-28.997 12.314-1.288-.043-5.111-5.922-5.589-7.117s-3.9 2.227-3.575 3.448l2.568 9.583c1.417 5.282-19.686 13.38-31.898 15.394-4.138.682-12.603.375-16.102 2.534l7.586-14.344-20.531 2.747-2.295-4.42c-.598-1.16-3.5-.913-4.95-.896 4.958-4.804 14.225-9.762 22.102-11.75l40.345-10.18c5.171-1.306 13.278-9.19 14.208-12.997l15.727-.99z"/><path fill="#e69650" d="M334.464 469.88c.102 3.25.196 8.814.512 11.733 1.886 17.382-1.203 49.203-14.746 66.38l-18.628 9.942c-10.521 5.615-23.134 11.034-32.128 17.604-18.03 13.167-36.377 25.592-60.057 22.81-21.394-2.518-41.31-12.826-56.739-26.838-2.312-26.385 2.424-35.447 15.514-52.949l-.102 9.327c-.026 2.261 7.108 2.697 8.55 2.995l-5.171 9.967-3.917 8.2c-.853 1.784 7.97 2.168 9.43 1.084l20.42-15.104c1.493-1.109 20.71-18.389 16.093-19.481 12.212-2.023 33.315-10.112 31.898-15.394l-2.568-9.583c-.325-1.212 3.089-4.634 3.575-3.448s4.31 7.074 5.59 7.117c7.688.24 21.973-6.059 28.996-12.313l-9.046-10.258 6.545-4.548-8.9-1.86c10.735-12.698 53.205-12.672 64.888 4.634z"/><path fill="#f8b87a" d="m197.393 518.084-20.744 12.792c-1.451-.299-8.576-.743-8.55-2.995l.102-9.327c3.106-4.156 11.11-11.375 16.247-12.067l20.531-2.747z"/><path fill="#d57c39" d="M213.495 515.55c4.617 1.092-14.592 18.372-16.093 19.481l-20.42 15.104c-1.46 1.084-10.283.692-9.43-1.083l3.917-8.2 5.171-9.968 20.745-12.791c3.49-2.15 11.963-1.843 16.102-2.535z"/><path fill="#b84416" d="M701.747 547.02c15.89.555 30.08 7.194 41.617 13.518 3.755 5.452 9.182 10.47 14.934 13.866l15.727 11.75c13.986 10.454-3.849 23.416-10.078 43.35-14.43 46.131-49.494 43.546-87.493 55.398-30.25 9.43-61.337 6.332-85.88-15.078-4.59-4.01-12.893-15.138-14.821-21.973l-5.556-19.712c-4.079-37.086 32.632-65.596 65.528-68.634l14.268-2.082 15.086-2.466c4.037-.657 10.761-6.016 13.278-8.764l23.407.82zm-114.159 81.46 2.765 13.466c.512 2.474 9.95 3.618 11.99 4.121-.504 2.048-1.144 4.523-1.366 5.846-.845 5.154 29.039 29.457 69.41 18.602l39.424-10.607c12.928-3.473 29.048-14.976 39.92-23.031 1.032-7.979 1.928-18.04 3.83-24.423 1.153-3.857 5.13-10.521 7.843-16.042l-25.822-19.73c-8.772-6.698-23.885-16.28-35.55-15.888-24.175.81-61.44 10.06-82.893 19.771-18.346 8.303-28.689 27.589-29.568 47.915z"/><path fill="#dd7139" d="m753.57 612.454-17.92 9.43c-36.181 19.038-82.748 32.153-123.742 27.682l-18.551-14.08c-1.52-1.152-6.025-7.603-5.769-7.006.87-20.326 11.222-39.603 29.568-47.915 21.453-9.71 58.71-18.96 82.893-19.771 11.665-.393 26.778 9.19 35.55 15.889l25.822 19.729c-2.714 5.512-6.69 12.185-7.842 16.042zm-69.205-23.714c3.797-.896 11.878-6.536 13.448-9.71-15.18-23.169-92.86 19.694-75.648 21.486 1.758.18 7.697 1.041 9.745.555l52.446-12.34z"/><path fill="#d05c27" d="M753.57 612.454c-1.903 6.375-2.799 16.444-3.831 24.423-10.872 8.055-26.991 19.558-39.92 23.031l-39.423 10.607c-40.363 10.863-70.255-13.448-69.41-18.602.213-1.323.853-3.798 1.365-5.846-2.048-.503-11.486-1.647-11.99-4.121l-2.764-13.466c-.256-.589 4.24 5.854 5.768 7.006l18.552 14.08c40.994 4.471 87.56-8.644 123.742-27.682l17.92-9.43z"/><path fill="#f39760" d="m684.365 588.74-52.446 12.34c-2.057.486-7.987-.376-9.745-.555-17.212-1.792 60.467-44.655 75.648-21.487-1.579 3.174-9.66 8.815-13.449 9.71z"/><path fill="#e69551" d="m794.505 548.036-.726-8.601c-1.766 2.048-7.373 8.414-10.07 9.506l-25.582 10.308c-3.157 1.272-12.826 1.656-14.763 1.289-11.537-6.332-25.72-12.963-41.617-13.517-.956-.854-8.772-3.806-11.767-4.267l-9.267-1.408c-3.328-.503-.632-54.383-18.74-76.032l-45.013-8.286c-2.825-.52-8.764-6.024-9.259-7.108l-.938-17.17c-.29-5.307 4.198-17.134 6.263-21.486l26.667-8.73-15.386-10.103-32.136 21.87c-10.676 7.263-24.969 7.348-36.907 3.244-.367-1.562-3.183-3.388-4.454-4.276-1.997-1.886-9.873-3.114-16.367-4.275-21.684-6.997-43.674-17.485-62.08-31.83-21.3-16.605-26.001-48.742-36.625-49.85-2.953-.308-8.969-.462-11.879.127l8.994-5.171c7.63-14.908 17.792-30.865 30.447-37.333 18.185-9.293 39.117-8.38 56.2-.58 37.701 17.211 33.29 22.22 64.24 27.733 13.636 2.432 34.474 9.378 39.79 22.621l17.767 44.237c71.228 3.67 70.34 50.629 102.025 71.885l22.767 15.275c27.118 18.201 44.714 53.794 28.424 81.911zM505.07 315.298l-2.432-9.472-30.737-.913.034 9.592 33.135.802zM708.395 440.44c-16.546-13.474-20.523-16.213-35.166-25.36-3.038 3.626-6.605 7.244-4.932 7.782s7.534 2.261 8.635 3.439l18.586 19.865 12.885-5.717zm-3.576 80.734 4.924 6.81c3.695 5.103 17.288 11.964 23.816 12.058 22.972.324-47.453-44.724-28.748-18.868z"/><path fill="#d3793b" d="M550.793 413.278c-7.612-.043-20.404.75-27.631 3.481l-20.805 7.86c-.469-2.62-2.927-9.285-5.18-10.044l-15.82-5.376-13.005-12.211c-21.035-19.746-32.196-42.044-32.623-69.658 10.624 1.11 15.326 33.246 36.625 49.852 18.407 14.344 40.397 24.832 62.08 31.83 6.494 1.16 14.362 2.389 16.367 4.274z"/><path fill="#d47638" d="m607.693 449.911-7.134-5.205-7.731-11.196-3.158 7.083c-2.449-1.032-10.36-3.345-13.67-3.26l-15.983.418-4.762-20.198c11.939 4.096 26.232 4.02 36.907-3.243l32.137-21.87 15.385 10.103-26.666 8.73c-2.057 4.352-6.554 16.17-6.264 21.486l.939 17.17z"/><path fill="#d27e3a" d="m505.07 315.298-33.134-.802-.034-9.591 30.737.921z"/></svg>