<svg xmlns="http://www.w3.org/2000/svg" viewBox="0 0 1024 1024"><path fill="#85ad3f" d="M789.06 206.19c-4.207 3.9-11.707 5.556-10.479 13.979-10.956 8.038-20.062 18.525-29.644 28.108l-50.714 45.261c-7.117-6.767-44.203-39.936-48.913-41.924 6.05-4.514 5.128-14.61 8.764-20.932 17.143-29.824 40.294-54.366 50.636-87.382l4.207 2.492c26.641-40.081 50.961-91 83.072-126.592 29.44-32.64 72.602-20.42 96.06 12.39 19.942 27.896 7.714 58.454-12.066 82.091-23.083 27.58-64.751 68.275-90.914 92.527z"/><path fill="#76a13c" d="m712.192 129.323-3.115 2.167-.375 8.312c-.307 1.092.324 2.449 0 3.49-10.343 33.015-33.493 57.549-50.637 87.381-3.635 6.323-2.714 16.418-8.764 20.932-13.534-5.726-23.202-13.772-31.445-17.467 1.05-37.795-1.348-75.904-.154-113.707.197-6.144 3.525-10.948 3.798-17.17 1.613-36.599-11.742-75.366 28.86-93.43 17.075-7.604 30.557-9.182 47.923-1.127 15.283 7.083 28.953 28.706 28.117 45.55-.998 20.182-9.737 54.008-14.208 75.06z"/><path fill="#719b3c" d="M729.668 328.482c-4.437-6.622-11.955-14.83-17.467-20.966-5.283-5.88-8.508-8.781-13.978-13.978l50.714-45.26c9.582-9.584 18.688-20.071 29.644-28.11 2.27-1.663 8.363-5.81 10.48-6.988 17.305-9.634 47.402-22.375 66.329-29.756 8.875-3.456 23.79-9.515 32.563-8.124 17.587 2.8 38.383 21.735 40.866 39.63 3.32 23.952-.554 48.46-24.388 59.46-41.25 19.046-108.851 31.436-154.633 44.526-7.15 2.048-17.553 1.331-20.138 9.566z"/><path fill="#dce8c5" d="M789.06 213.18c-2.116 1.177-8.217 5.325-10.479 6.989-1.22-8.423 6.272-10.078 10.48-13.978z"/><path fill="#85ad3f" d="m708.702 139.81.375-8.311 3.115-2.168c-1.263 5.956-2.953 8.56-3.49 10.48"/><path fill="#f58931" d="M617.856 234.146c8.243 3.695 17.92 11.742 31.445 17.468 4.71 1.997 41.797 35.166 48.913 41.924 5.47 5.197 8.696 8.098 13.978 13.978-4.779 10.897-2.313 21.734-4.164 32.529-5.223 30.566-40.235 81.706-59.631 106.513-.836 1.067-4.36.367-5.197 1.433-4.395 5.624-6.827 15.565-13.397 20.08-7.953 2.26-32.649-18.253-36.36-5.018-6.136 12.808 19.404 23.978 17.33 31.172L506.138 613.342c-13.756 7.245-16.666-15.915-31.557-12.33-5.111 11.46 2.757 20.735 9.908 29.644.017 2.722-20.395 29.858-23.783 31.582-10.445 5.316-25.02-6.58-27.964 3.507-2.918 10.001 6.17 16.973 6.144 20.856-.05 7.91-46.173 49.8-55.21 59.34-51.098 53.965-102.29 110.524-158.84 159.113-24.883 21.376-74.607 62.182-103.193 75-6.537 2.935-17.033 4.454-24.406 5.299-.008-.188-2.628-.7-3.003-2.279-.683-2.859 2.705-6.647 2.918-10.035 7.287-112.845 110.9-287.334 167.262-388.292 54.886-98.313 110.225-192.461 175.24-284.229l80.214 43.828 26.59 22.365c13.423-2.056 9.13-15.462 3.165-24.166-13.363-19.499-59.502-45.201-81.928-54.323-5.436-2.21-12.16-5.94-17.553-1.681 11.511-15.787 13.875-23.868 29.747-38.272 27.41-24.883 48.964-31.898 87.22-28.032 10.82 1.092 41.062 9.557 50.738 13.9z"/><path fill="#ed7927" d="M729.668 328.482c7.126 10.641 17.835 29.32 22.767 41.873 28.502 72.525-14.396 109.372-57.77 158.96-106.292 121.522-225.827 246.263-347.657 354.644-43.281 38.503-90.7 82.023-140.237 111.335-23.51 13.9-70.51 40.166-95.445 23.16-15.923-10.855-13.141-16.538-14.072-33.101 7.373-.845 17.86-2.364 24.406-5.3 28.595-12.817 78.319-53.623 103.193-75 56.55-48.588 107.742-105.155 158.84-159.112 9.037-9.548 55.16-51.43 55.21-59.34.026-3.892-9.062-10.863-6.144-20.856 2.944-10.078 17.52 1.818 27.964-3.507 3.388-1.724 23.791-28.86 23.783-31.582-7.151-8.9-15.02-18.185-9.908-29.645 14.883-3.584 17.8 19.584 31.557 12.33L610.79 494.226c2.074-7.194-23.466-18.372-17.33-31.172 3.711-13.227 28.407 7.279 36.36 5.017 6.57-4.522 9.002-14.455 13.397-20.079.836-1.066 4.36-.366 5.197-1.433 19.396-24.807 54.408-75.947 59.63-106.513 1.844-10.795-.614-21.632 4.165-32.53 5.513 6.136 13.039 14.337 17.468 20.967z"/><path fill="#ea7924" d="M439.663 300.535c3.738-5.282 7.142-9.395 10.479-13.977 5.401-4.258 12.126-.53 17.553 1.68 22.426 9.115 68.557 34.825 81.928 54.324 5.965 8.704 10.258 22.11-3.165 24.167l-26.59-22.366-80.214-43.828z"/></svg>