<svg xmlns="http://www.w3.org/2000/svg" viewBox="0 0 1024 1024"><path fill="#dd2861" d="M660.817 323.25c.615.393 2.5-.477 3.84.359 7.066 4.403 12.527 15.974 15.821-.358l-8.44 1.425c-4.906-10.735-4.249-25.028 11.248-23.91l2.807 8.439 5.623-8.423c13.637 12.271 24.935 23.714 36.506 38.076l3.831 1.024c1.383-.435 1.647-2.56 1.8-2.586 37.71-6.212 40.423 20.65 58.991 44.945 5.129 22.946 1.51 45.85-2.918 68.702 22.502 60.893 38.289 131.728 33.945 196.88-.264 4.01-1.109 6.28-2.952 9.66 1.724.486 4.514-.479 5.632.05.947.444 12.689 14.063 13.67 15.83 10.786 19.276 4.839 47.487 3.183 68.445-13.21 20.821-26.112 36.514-42.726 52.659-11.878 11.546-10.735 17.1-17.621 31.667-12.86 27.213-26.53 54.434-46.2 77.457v5.137l5.428 4.437c-5.35 22.041-16.478 41.787-30.9 58.99-9.676 2.817-22.57 7.382-32.366 8.363-8.388.836-20.412-1.621-27.622.46-3.337.965-10.65 8.099-14.882 10.394-77.764 42.249-159.624 43.418-238.881 3.798-28.416-14.208-22.528-8.85-52.761-11.844-9.856-.982-20.37-5.658-29.56-8.363-16.64-17.544-26.325-34.03-25.284-58.99.043-.99 2.176-2.825 2.381-4.626.444-3.942-20.326-32.383-24.43-39.347-7.28-12.347-14.832-25.224-20.651-38.34-10.454-23.552-14.268-50.099-30.285-70.843-16.708-21.632-20.616-27.784-33.758-51.916-.98-19.44-9.267-57.754 4.199-73.045 2.645-3.004 9.08-5.513 12.655-8.414.955-.777 3.447-.888 4.3-2.628 3.627-5.931.538-36.489 1.195-46.652 1.485-22.843 7.808-50.705 13.943-73.139 1.17-4.266.896-10.24 5.846-12.416.11 3.26-1.98 9.14 2.799 8.423l1.408-11.239 1.604 5.334 12.586 2.97 6.887 25.411 5.615-8.422c-12.595 87.321-18.671 161.006 6.946 247.278 63.035 212.265 300.525 308.956 445.25 110.821 112.238-153.667 97.21-400.8-33.536-539.389-4.301-4.556-11.802-5.606-14.157-12.526z"/><path fill="#e12661" d="M430.479 182.801c.145-.307 2.201-.145 2.867-1.288 7.09-12.1 10.385-16.649 24.797-9.515 3.67 8.85 7.305 16.538 8.952 26.223.802 4.736-1.75 4.779 5.52 4.25 1.085-14.763 11.743-38.742 23.826-47.821 27.059-20.326 44.748 27.759 52.036 47.812l9.77-33.758 6.99-9.856c13.183-6.818 16.784 9.626 25.369 15.53 4.872 65.801 58.495 88.039 101.128 126.404l-5.624 8.423-2.807-8.44c-15.505-1.117-16.154 13.176-11.247 23.91l8.44-1.424c-3.286 16.332-8.756 4.761-15.822.358-1.33-.828-3.225.043-3.84-.358-37.145-24.047-73.053-51.448-119.448-56.115C410.664 253.969 321.55 350.933 273.185 460.9c-1.707 3.891-1.647 3.848-2.808 8.43-.222.888.248 1.955 0 2.808l-8.243 1.203c8.132 8.218-4.523 15.523-5.53 20.241-.478 2.228 2.27 5.888 2.535 9.455.068.862.187 2.108 0 2.808-.256.981-2.048 2.61-2.808 8.43-.12.922.128 1.895 0 2.808l-5.615 8.422-6.886-25.412-12.587-2.97-1.604-5.333-1.408 11.239c-4.778.717-2.696-5.163-2.799-8.423-.06-1.868.026-3.746 0-5.614l2.68-1.52c.367-2.73.367-5.478 0-8.2l-2.68-1.519v-2.807c-.05-8.406.043-16.888 0-25.293h-5.623c-.615-9.873-.137-20.872 0-30.89 7.85-10.428 9.25-25.515 15.47-36.497 2.996-5.29 16.103-20.395 21.12-23.825 10.095-6.895 17.434-3.157 28.015-4.292 1.272-.137 2.603.247 3.84-.342 5.905-2.27 10.402-13.969 14.541-19.2 10.897-13.772 31.12-33.63 44.766-45.124 26.274-22.118 58.649-36.607 73.13-70.135 4.693-10.88 6.127-28.834 9.796-36.556zm-168.55 283.715c-.776-3.388 2.927-6.247 2.415-9.344-.282-1.732-2.108-8.482-5.214-7.51-.572 5.522-8.507 18.689 2.8 16.854"/><path fill="#a7c44c" d="M430.479 182.801c-.606-10.547.887-21.802-.06-32.247-1.647-18.125-10.505-41.651-11.358-58.99-.299-6.042 1.852-9.942 3.115-15.386 26.367-3.533 44.322 33.954 49.86 55.304 1.322 5.086-1.451 7.57 6.195 6.366.827-18.176-1.067-36.719-.12-54.895.743-14.148 3.047-36.334 5.837-50.338 1.724-8.61 7.492-31.607 18.133-32.554 6.4-.81 13.415 6.639 16.802 11.46 15.3 21.777 27.05 70.51 29.688 96.716.588 5.82-.649 12.416-.12 18.381l6.912-19.763c9.609-17.032 18.859-48.222 43.52-39.117-.154 9.694.717 19.627.06 29.33-1.255 18.457-3.968 37.443-5.436 56.362-.538 6.912-4.591 13.32-2.927 20.949-8.585-5.905-12.186-22.349-25.37-15.53l-6.988 9.855-9.77 33.758c-7.288-20.045-24.978-68.13-52.037-47.812-12.083 9.08-22.741 33.058-23.825 47.82-7.262.53-4.71.487-5.52-4.25-1.648-9.684-5.283-17.373-8.952-26.222-14.404-7.134-17.707-2.577-24.798 9.515-.665 1.143-2.722.981-2.867 1.288z"/><path fill="#a6c24e" d="M792.844 382.241c-18.568-24.294-21.282-51.157-58.99-44.945-.88-13.192 1.254-27.656-.06-40.67-1.178-11.613-17.638-58.196-1.135-63.069 13.483-3.976 33.169 25.643 39.006 36.437 17.8 32.905 22.698 75.358 21.18 112.247"/><path fill="#a6c447" d="M284.406 354.15c-10.581 1.135-17.92-2.612-28.015 4.292-5.018 3.43-18.125 18.534-21.12 23.825-6.22 10.982-7.62 26.069-15.47 36.497.528-39.757 3.003-88.798 19.105-125.56 3.388-7.73 13.432-27.826 21.555-28.995 21.521-3.106 16.657 10.402 18.381 23.884 2.236 17.4 1.485 31.01 2.816 47.753.418 5.256 4.753 11.613 2.748 18.32z"/><path fill="#a7c449" d="M200.14 629.442c-3.567 2.91-10.01 5.418-12.655 8.414-13.466 15.291-5.18 53.606-4.199 73.045-18.61-34.176-38.135-70.238-42.06-111.01-.88-9.105 1.698-15.206 2.773-23.808 14.985-1.638 32.913 18.159 42.155 29.432 5.102 6.229 11.494 16.162 13.994 23.927z"/><path fill="#a9c655" d="m826.56 657.533 41.13-27.69 15.053-.401c2.551 40.985-18.117 78.933-39.33 112.366 1.655-20.958 7.594-49.169-3.183-68.445-.982-1.758-12.723-15.386-13.67-15.83"/><path fill="#a9c851" d="M290.03 915.964c-1.042 24.96 8.643 41.446 25.283 58.99-21.87-6.442-44.56-14.993-61.217-31.487-1.17-1.16-10.206-17.22-10.633-19.004-.725-2.995 1.596-5.282 1.971-8.175 4.352-4.65 37.103-4.77 44.604-.333z"/><path fill="#a6cc53" d="M742.285 913.156c6.16-2.107 39.432 3.772 39.295 9.822l-14.591 20.497c-18.142 15.258-33.127 22.144-55.603 28.672 14.42-17.203 25.557-36.95 30.899-58.99"/><path fill="#dd2861" d="M219.8 449.663h5.624c.034 8.396-.06 16.878 0 25.284l-2.45-1.698c-.486-8.27-2.645-15.198-3.165-23.586zm5.615 39.321c-.06-3.738.026-7.492 0-11.238l2.68 1.519c.367 2.722.367 5.47 0 8.2z"/><path fill="#f3f3f3" d="M660.817 323.25c2.356 6.921 9.865 7.97 14.157 12.527 130.747 138.598 145.774 385.73 33.536 539.39C563.785 1073.3 326.296 976.617 263.26 764.343c-25.617-86.262-19.54-159.956-6.946-247.277.128-.913-.12-1.886 0-2.807l2.5-1.75.308-6.673c.187-.7.068-1.945 0-2.807l2.338-1.792c2.833-9.77 6.118-19.337 8.891-29.107.248-.854-.221-1.92 0-2.808l2.5-1.749.308-6.682c48.367-109.968 137.48-206.923 268.201-193.765 46.395 4.676 82.304 32.068 119.449 56.115zM516.17 337.306c-8.926 2.423-3.695 33.715 5.598 30.89 9.907-7.364 9.634-35.029-5.598-30.89m-82.884 47.744c-.111-8.286 1.493-16.197-3.149-23.527-6.204-9.796-19.908-4.48-16.222 7.791.828 2.74 16.768 18.577 19.371 15.736m179.788 11.238c5.743 5.914 30.702-19.2 15.436-28.083-11.98-3.302-17.05 19.644-15.436 28.083m-47.761 53.367c9.003 2.654 16.913-11.213 16.998-18.21.162-13.158-11.938-13.491-15.71-1.562-2.124 6.708-1.22 12.971-1.288 19.772m-199.449 0c3.209-3.038-12.296-22.87-18.201-22.553-2.569-.7-6.426 2.483-6.98 4.394-3.857 13.235 14.182 20.37 25.181 18.16m126.421 11.247c15.744-.29 10.086-41.037-5.384-23.646-2.987 10.368 2.773 14.96 5.384 23.646m-68.812-2.807c-12.578 3.345 2.628 23.816 11.23 25.258 8.26.324 1.8-28.723-11.23-25.258m228.922 22.46c14.165 4.957 40.132-9.464 20.77-22.315-12.228 2.056-16.188 12.253-20.77 22.314M579.36 522.69c13.132 6.119 32.375-18.542 18.244-22.46-10.846-3.011-15.386 15.548-18.244 22.46m-47.804-8.37-9.617.119-4.147 4.275 2.577 20.838c10.718-1.11 15.642-16.76 11.179-25.233zm-188.159 22.416c4.642-13.858-25.446-23.116-28.091-12.612l7.313 12.322 20.778.282zm98.312 22.477c-2.244-12.015-12.33-31.445-25.284-18.227 1.792 11.793 14.123 17.792 25.284 18.227m280.848 5.547c2.68-23.484-21.624-14.208-30.822-1.332 7.662 8.235 21.512 3.815 30.822 1.332M607.45 576.066c7.74 1.17 28.408-4.121 25.276-15.437-3.695-13.329-27.477 4.37-25.276 15.437m-95.513 33.715c.128-13.09 3.618-25.096-14.037-22.477-2.176 9.652 2.21 13.33 5.58 20.736 1.64 3.601 5.633 1.212 8.457 1.741m36.523 8.422c8.576 1.639 28.765.154 25.275-12.629-2.901-10.624-29.653.154-25.275 12.63m-174.165 2.808c4.608-13.312-22.681-18.952-25.275-9.822-3.763 13.26 17.416 9.651 25.275 9.822m64.674-.077c8.081 2.014 18.628 6.904 25.207-1.331-6.263-6.707-17.527-18.944-25.113-8.277l-.094 9.6zm238.71 36.59c2.048-19.156-11.776-16.11-25.301-14.036.546 2.833-1.86 6.818 1.75 8.456 8.473 3.849 12.51 7.85 23.551 5.58m-157.823-5.12c-.862-.878-12.467-7.252-13.534-6.109-.588 9.455-.69 18.62 7.04 25.276 9.54-.965 12.578-12.988 6.494-19.166m-225.142-.11c-2.509.546-9.532 4.437-10.206 6.767-2.688 19.575 28.297 10.675 30.797 2.67 2.125-6.775-15.701-10.512-20.591-9.437m279.03 19.285c-3.234 3.064 14.592 30.071 22.374 15.352 3.797-13.338-12.296-16.726-22.374-15.352M469.8 674.387c-12.578-1.118-25.02 5.708-22.468 19.66 13.653 3.26 21.649-6.852 22.468-19.66m-78.651 5.615c-14.481-1.187-27.418-1.059-25.276 16.844l19.686-4.19 5.598-12.654zm132.103 61.738c21.018 2.722 15.488-16.077 4.13-25.207-4.607-2.117-6.732 7.1-7.082 9.864-.768 6.144 2.022 9.856 2.952 15.343m167.193-25.097c-1.092.316-5.683 3.951-2.944 5.496 6.972 8.533 20.164 17.16 29.5 7.006 3.524-12.97-18.475-14.814-26.556-12.502m-262.782 19.542-21.206 8.285c-3.558 10.001-.981 15.668 10.095 12.817 7.347-1.894 10.88-13.243 11.11-21.094zm168.933 36.13c.563.52 8.38 3.421 9.335 3.182 5.692-1.425 6.076-13.951 1.536-18.26-2.124-2.015-9.352-5.948-12.646-7.007-3.977 1.067-3.942 4.78-2.97 8.542.59 2.279 4.19 13.04 4.736 13.543zm-250.392-5.231c-10.436-.751-29.116 4.24-25.182 18.159 3.891 13.772 30.993-5.982 25.182-18.16m132.027 8.43c-5.231-1.177-5.487 1.673-7.97 4.66-5.735 6.895-10.326 16.367-1.844 23.424l9.908-4.122c6.007-6.946 1.715-16.06-.094-23.961m182.996 50.134c6.997 6.587 17.903.221 16.256-9.148-6.17-8.277-14.182-14.43-25.088-12.902 3.046 4.437 6.016 19.387 8.832 22.041zM548.46 845.743c1.22-10.786-.64-26.547-14.038-28.091.154 10.71-6.297 17.766 2.663 26.829zm-148.77 30.789 9.37 2.722c7.057-1.485 15.437-25.37 5.965-30.703-10.155 8.857-18.244 11.819-15.343 27.972zm196.53-19.559c-.58 10.044-.06 32.324 15.343 27.98 15.497-8.345-9.497-33.979-15.343-27.98m-101.34 75.64c2.755-10.445 1.39-22.64-6.819-30.678-3.516.017-11.511 21.538-9.625 26.428l9.634 6.613 6.8-2.372z"/><path fill="#dd2861" d="M270.36 472.13c-2.773 9.771-6.059 19.337-8.892 29.108l-2.338 1.792c-.264-3.576-3.012-7.228-2.534-9.455 1.007-4.719 13.653-12.023 5.53-20.241l8.243-1.203zm-8.43-5.614c-11.307 1.835-3.372-11.332-2.8-16.853 3.098-.982 4.924 5.777 5.214 7.509.503 3.097-3.191 5.956-2.415 9.344m-5.616 47.752c.76-5.82 2.552-7.45 2.808-8.43l-.308 6.672-2.5 1.75zm14.046-44.945c1.16-4.574 1.1-4.54 2.807-8.43l-.307 6.681z"/><path fill="#333" d="M294.714 652.294c4.89-1.075 22.716 2.662 20.59 9.438-2.508 8.004-33.484 16.904-30.796-2.671.674-2.33 7.689-6.22 10.206-6.767"/><path fill="#303030" d="M596.22 856.973c5.846-5.999 30.84 19.635 15.343 27.98-15.41 4.336-15.923-17.936-15.343-27.98m-101.34 75.64-6.802 2.372-9.634-6.614c-1.886-4.898 6.11-26.419 9.626-26.427 8.2 8.047 9.574 20.232 6.818 30.677z"/><path fill="#2f2f2f" d="M516.17 337.305c15.232-4.139 15.505 23.518 5.598 30.89-9.293 2.825-14.524-28.467-5.598-30.89"/><path fill="#323232" d="M346.204 767.084c5.811 12.177-21.282 31.931-25.182 18.159-3.934-13.918 14.746-18.91 25.182-18.16"/><path fill="#393939" d="M399.69 876.532c-2.9-16.154 5.18-19.124 15.343-27.973 9.472 5.334 1.093 29.21-5.964 30.703l-9.37-2.722z"/><path fill="#292929" d="M652.395 480.553c4.582-10.06 8.542-20.266 20.77-22.314 19.362 12.86-6.605 27.28-20.77 22.314"/><path fill="#2e2e2e" d="M613.074 396.287c-1.613-8.44 3.447-31.377 15.436-28.083 15.266 8.883-9.685 33.988-15.436 28.083"/><path fill="#2d2d2d" d="M722.556 564.76c-9.31 2.483-23.16 6.903-30.822-1.332 9.198-12.876 33.501-22.152 30.822 1.332"/><path fill="#2f2f2f" d="M690.445 716.643c8.081-2.312 30.08-.469 26.556 12.502-9.336 10.154-22.528 1.527-29.5-7.006-2.74-1.545 1.852-5.18 2.944-5.496"/><path fill="#2a2a2a" d="M433.286 385.049c-2.603 2.841-18.551-12.997-19.37-15.736-3.687-12.27 10.009-17.587 16.221-7.79 4.65 7.33 3.038 15.24 3.149 23.526"/><path fill="#2f2f2f" d="M661.227 825.648c-2.816-2.654-5.786-17.613-8.832-22.042 10.906-1.527 18.918 4.617 25.088 12.902 1.655 9.361-9.259 15.727-16.256 9.148z"/><path fill="#2c2c2c" d="M365.864 449.654c-10.999 2.21-29.038-4.924-25.181-18.159.554-1.911 4.411-5.086 6.98-4.394 5.905-.316 21.41 19.515 18.201 22.553"/><path fill="#303030" d="m343.396 536.736-20.778-.281-7.313-12.322c2.654-10.505 32.742-1.246 28.091 12.612z"/><path fill="#343434" d="M565.313 449.654c.068-6.81-.836-13.064 1.288-19.772 3.772-11.93 15.872-11.596 15.71 1.562-.085 6.997-7.995 20.864-16.998 18.21"/><path fill="#363636" d="M478.23 775.515c1.81 7.901 6.102 17.015.095 23.961l-9.908 4.122c-8.482-7.057-3.89-16.53 1.844-23.424 2.491-2.995 2.747-5.846 7.97-4.66"/><path fill="#2c2c2c" d="m548.46 845.743-11.375-1.262c-8.96-9.063-2.509-16.111-2.663-26.83 13.398 1.545 15.258 17.306 14.038 28.092"/><path fill="#333" d="M427.663 736.185c-.222 7.85-3.755 19.2-11.11 21.094-11.077 2.85-13.654-2.808-10.096-12.817l21.206-8.286z"/><path fill="#343434" d="M441.708 559.213c-11.161-.435-23.492-6.443-25.284-18.227 12.962-13.218 23.04 6.212 25.284 18.227"/><path fill="#323232" d="M607.45 576.066c-2.201-11.068 21.572-28.757 25.276-15.437 3.14 11.307-17.536 16.606-25.276 15.437"/><path fill="#343434" d="M548.46 618.203c-4.386-12.475 22.365-23.244 25.275-12.629 3.49 12.775-16.69 14.268-25.275 12.63"/><path fill="#303030" d="m391.149 680.002-5.598 12.654-19.687 4.19c-2.141-17.903 10.795-18.03 25.276-16.844z"/><path fill="#2f2f2f" d="M579.359 522.69c2.867-6.912 7.398-25.471 18.244-22.46 14.131 3.918-5.112 28.579-18.244 22.46"/><path fill="#303030" d="M423.473 458.094c13.03-3.474 19.49 25.574 11.23 25.258-8.602-1.442-23.8-21.913-11.23-25.258"/><path fill="#3d3d3d" d="M523.252 741.74c-.93-5.496-3.712-9.2-2.952-15.343.341-2.765 2.466-11.98 7.082-9.864 11.358 9.13 16.896 27.929-4.13 25.207"/><path fill="#393939" d="M596.596 772.315c-.546-.504-4.147-11.264-4.736-13.543-.973-3.763-1.007-7.475 2.97-8.542 3.293 1.059 10.521 4.992 12.646 7.006 4.548 4.31 4.164 16.845-1.536 18.261-.964.24-8.772-2.662-9.336-3.182z"/><path fill="#313131" d="M492.285 460.901c-2.611-8.687-8.38-13.286-5.384-23.646 15.479-17.382 21.128 23.356 5.384 23.646"/><path fill="#303030" d="M677.68 657.525c-11.043 2.27-15.07-1.732-23.553-5.58-3.618-1.64-1.203-5.624-1.749-8.457 13.517-2.074 27.35-5.112 25.301 14.037"/><path fill="#373737" d="M469.8 674.387c-.82 12.808-8.815 22.911-22.468 19.66-2.552-13.943 9.89-20.77 22.468-19.66"/><path fill="#333" d="M573.744 671.58c10.078-1.375 26.171 2.013 22.374 15.35-7.782 14.72-25.6-12.287-22.374-15.35"/><path fill="#2a2a2a" d="M531.555 514.32c4.463 8.473-.46 24.123-11.178 25.232l-2.577-20.838 4.147-4.275 9.617-.12z"/><path fill="#313131" d="M374.295 621.01c-7.859-.17-29.038 3.44-25.275-9.82 2.594-9.131 29.883-3.491 25.275 9.82"/><path fill="#2f2f2f" d="m438.97 620.934.093-9.6c7.586-10.675 18.85 1.57 25.113 8.277-6.57 8.235-17.126 3.346-25.207 1.332z"/><path fill="#393939" d="M519.856 652.405c6.093 6.178 3.047 18.21-6.494 19.166-7.73-6.648-7.628-15.821-7.04-25.276 1.067-1.143 12.672 5.231 13.534 6.11"/><path fill="#313131" d="M511.937 609.781c-2.833-.529-6.818 1.86-8.456-1.74-3.37-7.408-7.757-11.085-5.581-20.737 17.655-2.62 14.165 9.387 14.037 22.477"/></svg>