<svg xmlns="http://www.w3.org/2000/svg" viewBox="0 0 1024 1024"><path fill="#f5b8b3" d="M769.02 113.13c-5.768-.35-11.818-.136-17.638 0-7.765.18-14.89-3.737-12.842 7.604 5.376 10.862 28.202 9.881 37.444 13.525 4.753 1.877 2.952 4.173 3.2 4.275-36.582-2.39-56.5-1.698-88.14 16.043-24.858 13.926-47.02 36.275-72.986 48.99-25.07 12.279-69.538 28.637-96.58 35.549-69.282 17.724-142.105 7.825-211.14 27.716C74.838 334.697-12.705 622.696 153.984 806.938c57.011 63.019 130.705 96.452 213.546 109.167 88.755 13.628 186.837-5.47 264.276-55.902 8.047 11.247 5.01 11.64-2.517 20.37-7.586 8.797-22.793 21.426-26.871 26.453-3.405 4.19-21.078 33.34-21.598 36.94-2.475 17.203 13.337 34.961 30.66 38.212-267.929 127.88-550.517-51.993-569.427-342.825-8.67-133.392 30.396-247.721 134.81-333.191 116.658-95.496 225.116-60.834 354.609-97.706 77.883-22.178 144.485-87.535 210.67-99.32 7.577-1.347 22.937-5.05 26.88 3.994"/><path fill="#e8807a" d="M819.845 372.32c13.679 13.594 18.517 23.655 40.26 25.831l.41 14.83 20.317-5.085c-51.771 94.574-64 167.167-56.004 276.871l-20.164 96.034-9.156 3.95c-15.735 40.09-35.208 74.727-62.054 105.95-7.595-5.367-14.575-.563-15.334-12.467-1.989-30.984 18.841-38.306 31.905-62.762l9.097-3.84-.265-47.991-15.231 5.077v-40.653c66.243-105.522 9.873-225.714 63.445-340.572 4.445-9.532 12.151-14.003 12.791-15.18z"/><path fill="#f4d9d1" d="M977.387 57.229c-35.652 3.26-40.721 36.317-60.885 58.538-15.59 17.186-33.067 21.538-48.376 37.734-9.72-12.689-25.472-14.412-38.118-20.044-10.044-4.472-21.623-11.836-30.49-15.25 12.63-1.587 28.024-18.372 35.67-27.86 14.77-18.339 21.051-39.979 33.075-58.402 21.12-32.359 45.022-43.435 78.42-17.707 16.206 12.484 25.123 23.364 30.712 42.982z"/><path fill="#ec8985" d="M880.824 204.607c6.067 9.267 11.972 25.856 15.249 35.576 13.892 41.224 22.041 84.923 7.876 127.308-4.736 14.182-16.136 27.622-23.125 40.396l-20.318 5.086-.41-14.83c-21.75-2.177-26.58-12.237-40.26-25.83 1.272-2.373 1.101-8.645 3.917-13.697 26.71-47.88 57.557-80.657 40.969-140.483-2.142-7.732-8.764-12.04-9.31-13.526-1.664-4.53.921-13.687-5.086-20.317 17.997-3.883 15.906 6.929 23.1 15.214 2.764 3.192 7.15 4.728 7.398 5.103"/><path fill="#e8c3b8" d="M977.387 57.229c20.121 70.69-16.205 95.863-56.14 144.75-5.275 6.46-12.92 12.843-13.705 13.85-4.224 5.393-10.786 17.143-11.47 24.362-3.276-9.72-9.181-26.308-15.248-35.575-6.426-28.851-34.355-48.273-50.824-71.15 12.637 5.631 28.39 7.355 38.118 20.044 15.317-16.196 32.793-20.548 48.375-37.734 20.164-22.23 25.233-55.279 60.885-58.539z"/><path fill="#f1a19b" d="M672.458 824.628c13.013 14.908-6.69 8.371-4.958 12.493 4.668 11.119 3.2 16.213 5.76 24.823 2.15 7.253 14.916 19.686 14.413 31.377l-5.052 43.119c-27.887 21.913-37.862 29.85-71.15 45.738-17.323-3.25-33.127-21.017-30.66-38.212.52-3.6 18.192-32.75 21.597-36.94 4.079-5.018 19.285-17.656 26.871-26.454 7.527-8.73 10.565-9.122 2.518-20.369 12.578-8.192 29.15-24.704 40.66-35.575"/><path fill="#ea8a83" d="M743.608 733.151v35.567l15.232-5.077.265 47.99-9.097 3.84c-13.064 24.457-33.894 31.779-31.906 62.763.768 11.904 7.74 7.091 15.335 12.467-19.541 22.733-28.792 28.433-50.825 45.739l5.052-43.119c.504-11.69-12.262-24.124-14.413-31.377-2.56-8.61-1.083-13.704-5.76-24.823-1.732-4.122 17.963 2.415 4.958-12.493 29.5-27.878 52.3-54.664 71.15-91.477z"/><path fill="#f3a6a3" d="M769.02 113.13c10.88.657 20.097 1.084 30.49 5.086 8.866 3.414 20.446 10.77 30.49 15.25 16.469 22.868 44.398 42.299 50.824 71.15-.248-.376-4.625-1.912-7.399-5.103-7.193-8.286-5.102-19.098-23.1-15.215 6 6.63 3.423 15.778 5.087 20.318-7.877-5.052-8.994-15.18-15.147-22.955-4.804-6.067-11.221-8.653-15.343-12.62-18.389-17.673-21.188-20.156-45.738-30.49-.248-.102 1.553-2.406-3.2-4.275-9.242-3.644-32.068-2.671-37.444-13.525-2.048-11.341 5.077-7.424 12.842-7.604 5.82-.136 11.87-.35 17.639 0z"/><path fill="#fce3df" d="M779.184 138.543c24.55 10.333 27.349 12.817 45.738 30.489-.938 20.65 7.407 36.813 4.95 58.334-4.096 35.908-40.55 96.554-53.308 134.715-25.13 75.178-23.612 149.495-32.862 226.32-5.103 42.342-17.809 91.024-35.66 129.501-.53 1.135-9.353 13.79-12.945 20.105-27.153 47.743-81.766 93.251-128.597 118.16l-1.502 8.081c-44.689 6.485-99.857 42.12-139.827 51.046-17.134 3.832-39.662-1.04-57.642.802-82.841-12.714-156.535-46.148-213.546-109.166-166.69-184.234-79.146-472.233 156.347-540.09 69.035-19.89 141.858-10 211.14-27.716 27.05-6.92 71.517-23.278 96.58-35.55 25.966-12.714 48.127-35.063 72.985-48.989 31.65-17.732 51.567-18.423 88.14-16.042zm-32.068 51.814c-27.29 4.804-47.54 25.608-69.777 36.915-45.397 23.082-130.645 41.13-83.84 109.661 29.807 15.906 86.118 67.396 117.982 70.22 28.134 2.492 42.12-50.568 51.447-68.88 18.833-36.975 64.145-96.068 29.09-133.785-13.27-14.276-25.762-17.502-44.902-14.131M636.883 412.973c-18.296-14.105-41.89-27.98-56.073-42.999-25.924-27.443-45.115-65.024-88.55-69.017-131.413-12.1-261.904 20.65-332.303 135.688-42.146 68.863-53.948 170.666-23.74 245.767 31.13 77.397 103.978 135.552 180.42 165.162 18.602 7.202 40.934 13.218 61.055 12.63 29.27 16.178 115.353-3.363 148.83-16.342 133.4-51.754 221.703-180.326 190.505-325.528-2.082-9.711-5.922-27.802-9.924-35.814-3.413-6.836-9.318-9.285-11.895-13.722-2.475-4.267-1.818-9.165-2.415-10.078-5.76-8.798-7.339-9.403-15.25-15.249-13.704-10.12-27.152-20.079-40.66-30.49z"/><path fill="#fad5cf" d="m708.033 717.902 17.792 25.404 15.25-20.301 2.533 5.06v5.086c-18.85 36.813-41.65 63.599-71.15 91.477-11.503 10.871-28.083 27.383-40.661 35.575-77.44 50.432-175.513 69.53-264.276 55.902 17.98-1.843 40.507 3.02 57.642-.802 39.97-8.935 95.138-44.561 139.827-51.046l1.501-8.081c46.831-24.91 101.444-70.426 128.597-118.16 3.593-6.316 12.416-18.97 12.945-20.105z"/><path fill="#f8cbc4" d="M855.42 204.607c.546 1.485 7.168 5.794 9.31 13.526 16.589 59.835-14.26 92.603-40.968 140.483-2.816 5.052-2.646 11.324-3.917 13.696-.632 1.178-8.346 5.65-12.791 15.18-53.573 114.859 2.79 235.05-63.446 340.573l-2.534-5.06-15.249 20.3-17.792-25.403c17.852-38.485 30.566-87.159 35.66-129.501 9.26-76.825 7.732-151.15 32.863-226.32 12.757-38.153 49.211-98.799 53.307-134.715 2.458-21.521-5.888-37.683-4.95-58.334 4.13 3.968 10.54 6.554 15.344 12.62 6.152 7.775 7.27 17.904 15.146 22.955z"/><path fill="#f8a19d" d="M377.692 860.203c-20.121.59-42.461-5.427-61.056-12.629-76.44-29.61-149.298-87.773-180.419-165.162-30.2-75.101-18.398-176.904 23.74-245.767 70.4-115.038 200.89-147.78 332.303-135.688 43.435 4.002 62.626 41.574 88.55 69.017 14.191 15.019 37.777 28.894 56.073 43-18.253-1.255-6.477 3.302-3.943 11.562 11.913 38.86 10.07 62.353-3.447 100.47-22.699 8.33-24.056 16.863-36.01 35.133-9.353 14.284-11.99 4.036-8.295 24.072.478 2.568.785 4.642-1.331 6.63-14.533 16.214-32.854 30.276-55.51 31.224l-5.964 4.198c-6.665 50.346-52.045 69.094-78.72 104.234-17.143 22.588-32.657 41.199-50.952 60.86-6.272 6.741-8.55 17.527-14.925 25.745-9.011 11.613-26.231 24.132-40.746 27.87l37.205 10.999c2.773 1.092 2.97 3.968 3.447 4.232m-66.62-456.821c-20.846-10.018-38.911-5.632-58.981 3.413-17.716 7.979-39.544 34.876-49.476 52.181-18.108 31.556-18.663 63.36-22.486 98.03l14.31 31.6 35.405 1.775 30.874-87.842 10.538-6.119c-4.42-21.213 3.525-14.353 12.536-22.22 23.373-20.412 39.85-38.801 27.28-70.818"/><path fill="#f79993" d="M636.883 412.973c13.5 10.41 26.956 20.37 40.66 30.49v15.257l15.25-.008c.597.921-.06 5.82 2.415 10.078 2.577 4.437 8.473 6.886 11.895 13.721 4.01 8.013 7.842 26.103 9.924 35.814 31.198 145.203-57.105 273.774-190.506 325.529-33.467 12.987-119.56 32.52-148.829 16.34-.478-.264-.674-3.14-3.447-4.232l-37.205-11c14.515-3.737 31.735-16.247 40.746-27.869 6.374-8.209 8.653-19.004 14.925-25.745 18.295-19.66 33.809-38.272 50.952-60.86 26.675-35.14 72.055-53.887 78.72-104.234l5.965-4.198c22.655-.947 40.976-15.01 55.509-31.223 2.116-1.988 1.809-4.062 1.33-6.63-3.686-20.037-1.057-9.788 8.295-24.073 11.964-18.278 13.312-26.803 36.01-35.132 13.517-38.118 15.36-61.61 3.448-100.47-2.534-8.26-14.31-12.818 3.943-11.563z"/><path fill="#f89693" d="M747.116 190.357c19.14-3.371 31.633-.154 44.902 14.13 35.046 37.727-10.266 96.811-29.09 133.786-9.327 18.312-23.313 71.372-51.447 68.88-31.864-2.815-88.166-54.305-117.982-70.22-46.805-68.54 38.443-86.587 83.84-109.661 22.238-11.307 42.496-32.111 69.777-36.915"/><path fill="#f8a19d" d="M692.784 458.712h-15.257l.008-15.25c7.91 5.846 9.49 6.452 15.25 15.25"/><path fill="#fab4af" d="M311.073 403.382c12.57 32.017-3.908 50.415-27.281 70.818-9.011 7.867-16.956 1.007-12.536 22.22l-10.538 6.119-30.874 87.842-35.404-1.775-14.31-31.6c3.814-34.67 4.368-66.482 22.485-98.03 9.932-17.305 31.76-44.202 49.476-52.18 20.07-9.038 38.135-13.432 58.982-3.414"/></svg>