<svg xmlns="http://www.w3.org/2000/svg" viewBox="0 0 1024 1024"><path fill="#f4a8a2" d="M602.53 297.403c30.634-60.885 33.8-121.617 92.799-171.135 45.312-38.025 103.16-40.005 159.974-37.052L840.455 0l103.398 8.124c6.81 31.266 36.625 39.381 60.143 55.1-1.186 7.261 4.804 14.899-4.352 18.61-11.972 4.865-45.653 20.873-51.729 29.5-5.615 7.97-1.911 16.282-3.38 22.503-.119.494-5.563 1.152-6.416 4.761-1.34 5.624 6.656 17.715 6.767 28.408 1.066 107.007-10.556 140.04-58.317 232.285-104.397 201.65-262.869 363.895-472.012 457.36-24.661 11.017-53.52 21.197-79.693 28.118 10.002-67.422-3.396-160.657-59.792-204.143-69.172-53.342-128.197 10.402-154.18 75.673-26.317 66.134-.598 177.306 58.009 221.218 3.857 2.893 27.895 18.27 29.568 18.782l-7.433 7.433c-15.786-7.16-34.96-18.816-48.46-29.603-12.63-10.103-24.44-28.791-37.052-37.299-3.627-2.449-31.787 67.09-59.383 59.41-9.583-2.663-19.79-55.664-47.727-52.668L.299 832.724l81.774 14.856c-1.783-56.2 7.851-115.592 44.485-159.982 50.286-60.928 112.904-68.113 178.576-100.233 42.42 47.454 84.71 100.625 111.428 158.976 4.207 9.19 13.517 3.541 22.238 4.54 19.883-54.733-1.126-116.241-36.872-159.932-9.924-12.134-27.76-32.435-44.749-33.322 38.391-24.158 71.996-52.156 104.09-81.784 8.302 36.386 52.095 53.521 74.478 77.935 12.092 13.193 52.65 83.516 70.468 78.191 10.232-3.063 10.735-16.794 11.401-25.847 4.642-63.522-57.216-139.7-111.744-167.458 15.027-17.476 45.747-61.03 59.477-81.784 20.497 17.391 53.829 20.549 76.578 31.232 16.24 7.63 90.087 62.447 101.854 50.543 5.777-79.249-77.738-118.707-141.252-141.252m138.76-147.456c-29.244 6.554-60.562 56.372-64.282 84.386-5.171 38.912-3.405 62.174 40.951 55.8 27.11-3.891 29.602-45.722 44.621-66.876 13.192-18.577 40.909-27.409 32.52-55.185-6.254-20.71-35.123-22.306-53.81-18.116z"/><path fill="#e88c8a" d="m201.045 1003.723 7.432-7.433c53.59 16.188 119.424-64.511 126.396-111.521 26.172-6.921 55.031-17.101 79.693-28.118 209.134-93.465 367.615-255.71 472.012-457.36 47.752-92.245 59.374-125.278 58.316-232.285-.102-10.684-8.106-22.784-6.767-28.408.854-3.61 6.298-4.275 6.417-4.761 29.022 4.369 67.44 69.828 73.157 94.13 16.81 71.51-4.156 130.287-32.137 195.96C875.34 682.7 672.494 880.169 414.43 990.343c-76.535 32.674-133.88 49.433-213.384 13.38"/><path fill="#d86b5e" d="M461.269 475.843c11.724-10.82 35.217-26.248 44.612-37.17 54.528 27.758 116.386 103.935 111.743 167.457-.657 9.045-1.16 22.784-11.4 25.848-17.818 5.324-58.376-65.007-70.468-78.191-22.383-24.414-66.185-41.549-74.479-77.935z"/><path fill="#d87367" d="M357.18 557.627c16.98.887 34.815 21.188 44.748 33.322 35.754 43.69 56.755 105.19 36.872 159.932-8.72-.99-18.03 4.659-22.238-4.54-26.709-58.35-69-111.522-111.428-158.976 19.175-9.378 34.185-18.5 52.045-29.738"/><path fill="#d86d60" d="M602.53 297.403c63.513 22.545 147.028 62.003 141.251 141.252-11.767 11.904-85.615-42.914-101.854-50.543-22.75-10.683-56.072-13.85-76.578-31.232 9.754-14.728 29.415-44.049 37.172-59.477z"/><path fill="#fbc2bf" d="M334.873 884.76c-6.972 47.01-72.806 127.71-126.396 111.522-1.672-.504-25.71-15.89-29.567-18.782-58.607-43.912-84.327-155.084-58.01-221.218 25.975-65.271 85-129.015 154.18-75.673 56.397 43.494 69.794 136.72 59.793 204.142zm-152.37-170.982c-24.739 22.835-32.888 74.197 14.557 66.628 20.915-5.956 15.88-66.517-14.558-66.628m81.757 74.35c-13.099 3.568-12.903 29.04-10.667 40.38 22.878 29.014 44.962 1.562 36.164-28.757-5.615-9.992-14.216-14.694-25.497-11.622"/><path fill="#fccbc4" d="M741.29 149.947c18.687-4.19 47.556-2.594 53.81 18.117 8.389 27.776-19.328 36.608-32.52 55.185-15.027 21.154-17.51 62.984-44.62 66.875-44.357 6.375-46.123-16.887-40.952-55.8 3.72-28.014 35.038-77.831 64.281-84.385z"/><path fill="#fcdbd7" d="M182.502 713.778c30.43.11 35.473 60.672 14.558 66.628-47.445 7.57-39.287-43.793-14.558-66.628"/><path fill="#fddedd" d="M264.26 788.129c11.29-3.072 19.882 1.638 25.497 11.622 8.798 30.328-13.286 57.77-36.164 28.757-2.236-11.34-2.432-36.82 10.667-40.38"/></svg>