<svg xmlns="http://www.w3.org/2000/svg" viewBox="0 0 1024 1024"><path fill="#e4b985" d="M911.454 267.853c15.932.554 61.832 54.903 71.22 70.255 66.064 108.032 51.89 281.89-35.107 374.843-42.479 45.39-101.632 64.675-144.248 112.982-25.25 28.63-43.852 59.238-74.393 85.086-108.68 91.989-268.314 96.964-380.885 10.29-5.888-4.53-9.797-13.021-12.775-15.53-.793-7.134-4.54-19.516-10.197-23.415-2.637-1.818-7.177 2.005-10.385.315-5.308-2.807-27.69-26.897-33.434-33.484-7.825-8.977-11.392-8.602 2.569-15.437 1.365 1.263 4.027 3.883 5.145 5.145 9.55 10.83 12.135 7.757 15.437 10.292.58.443 9.882 9.685 10.291 10.29 2.8 4.097-.35 18.1 15.437 15.438 26.462 32.708 100.813 74.214 142.456 81.33 10.65 1.818 41.548 6.554 50.466 6.554 8.96 0 40.908-4.096 51.336-5.691 106.547-16.307 146.15-76.314 213.513-146.603 43.733-45.636 101.982-70.844 143.078-111.582 3.337-3.31 9.48-18.236 14.157-24.43 60.808-80.607 63.974-179.866 38.366-272.88-19.294-70.084-48.017-88.14-97.75-133.76l2.612-5.17c7.15-1.332 10.675 8.14 15.385 8.84 2.842.418 6.221-3.72 7.723-3.67z"/><path fill="#ecd6b7" d="M823.996 149.53c-9.003-7.962-30.106-28.46-25.77-2.552.596 3.541 8.447 2.8 12.884 7.595 6.52 7.048 9.396 18.918 12.886 25.822-17.741-16.999-32.043-38.588-51.67-53.794C701.09 71.398 565.094 44.757 479.19 69.675c-41.08 11.912-74.99 36.872-112.862 51.763-75.34 29.61-163.191 33.45-226.56 89.83l-7.645-9.54-12.937 4.395c59.682-64.734 134.741-67.166 212.403-93.705 45.022-15.385 87.757-44.066 132.088-58.265 107.528-34.441 262.903-.256 347.545 74.709 6.221 5.512 13.662 11.315 12.775 20.668"/><path fill="#e6c193" d="M36.881 494.208c-6.272 8.55-3.422 7.125-5.146 15.437-10.376 3.328-14.344 24.712-15.317 33.561-2.295 20.864.213 35.738 5.026 53.897 18.663 70.4 49.383 129.152 113.434 166.946 50.364 29.722 105.045 29.056 148.94 69.7-13.968 6.836-10.401 6.46-2.568 15.437 5.743 6.588 28.126 30.677 33.434 33.485 3.208 1.698 7.748-2.125 10.385-.316 5.649 3.9 9.404 16.282 10.197 23.416-.597-.504-6.374.887-10.214-2.44-21.171-18.39-42.889-48.888-65.084-63.728-32.247-21.564-77.943-29.482-113.502-45.977C73.421 759.73 20.54 696.832 6.025 617.676c1.134-27.255-1.58-55.107 0-82.312.102-1.706-.154-3.447 0-5.145l10.29-30.865c.419-1.835-.648-4.276 0-5.146 1.989-2.67 13.04-4.881 10.309-15.445l10.266 15.445z"/><path fill="#e5c7a1" d="M139.767 211.26c-19.396 17.263-45.883 69.828-51.302 95.317C74.522 372.19 80.486 434.8 36.873 494.208l-10.266-15.445c2.73 10.564-8.329 12.774-10.308 15.445 6.092-30.131 35.285-61.679 40.158-91.025 12.86-77.38 3.925-133.282 62.728-197.069l12.937-4.395z"/><path fill="#e6c9a3" d="M823.996 149.53c32.452 28.697 25.839 47.189 43.767 77.132 9.95 16.606 34.014 24.508 43.69 41.2-1.501-.052-4.88 4.087-7.722 3.669-4.71-.7-8.234-10.172-15.385-8.84l-2.612 5.17c-39.944-36.642-38.024-40.542-61.738-87.458-3.49-6.903-6.366-18.773-12.886-25.822-4.437-4.795-12.296-4.053-12.885-7.594-4.343-25.908 16.768-5.41 25.77 2.551z"/><path fill="#e5c7a1" d="M6.007 617.685c-.093-.486-3.985-1.228-4.292-3.567-3.225-24.09-1.442-54.963 1.622-78.754h2.679c-1.579 27.205 1.135 55.057 0 82.313zm0-87.458c.922-9.95 2.578-18.184 6.025-27.571l4.267-3.294z"/><path fill="#fcfcf8" d="M823.996 180.395c23.705 46.916 21.785 50.816 61.738 87.458 49.733 45.619 78.447 63.676 97.75 133.76 1.04 40.704-8.371 91.28-21.666 130.09-12.877 37.598-58.607 102.409-91.58 124.493-21.94 14.695-52.557 25.925-74.616 43.708-32.861 26.487-57.548 67.106-84.565 95.351-47.744 49.929-104.371 75.648-172.407 84.95-29.85 4.079-76.604 1.553-107.316-6.178-83.78-21.095-116.164-79.89-175.71-127.821-38.314-30.84-94.003-35.832-137.924-57.549-17.63-8.721-24.072-24.448-43.725-30.882l-52.522-76.092c-.103-27.033 4.906-46.046 10.291-72.021 1.724-8.303-1.126-6.887 5.146-15.437 43.605-59.409 37.649-122.027 51.592-187.63 5.419-25.49 31.906-78.055 51.303-95.318 63.368-56.38 151.219-60.22 226.56-89.83 37.87-14.891 71.782-39.843 112.861-51.764 85.905-24.917 221.901 1.724 293.137 56.926 19.627 15.206 33.929 36.796 51.67 53.794zm-149.189 133.76c-101.128-116.267-313.915-88.96-371.447 55.859l-8.405 1.305c-26.309 77.705-19.943 122.061 9.455 194.919 3.396 8.422 7.125 17.305 10.29 25.72 1.195 3.19-1.928 10.188 2.296 15.743 16.598 6.469 19.388 28.92 33.758 43.375C427.281 728.064 565.07 736 654.106 676.71c91.28-60.783 126.916-194.636 76.262-292.172-4.096-7.894-1.604-16.666-14.396-13.799-7.475-16.93-29.047-42.666-41.156-56.593z"/><path fill="#f6e5cb" d="M983.475 401.613c25.609 93.013 22.443 192.281-38.366 272.879-4.676 6.195-10.82 21.128-14.156 24.43-41.097 40.739-99.346 65.946-143.079 111.583C720.512 880.802 680.91 940.8 574.362 957.107c-10.42 1.596-42.377 5.692-51.337 5.692-8.917 0-39.816-4.736-50.466-6.554-41.643-7.116-115.994-48.623-142.456-81.33-4.437-5.488-6.81-13.33-15.436-15.438-.41-.597-9.711-9.847-10.292-10.29-2.039-7.433-7.645-11.265-15.436-10.292-1.11-1.263-3.78-3.883-5.146-5.146-43.895-40.644-98.568-39.978-148.94-69.7C70.81 726.255 40.08 667.503 21.418 597.103c-.017-5.146.017-10.291 0-15.437l52.522 76.092c19.653 6.434 26.095 22.17 43.725 30.882 43.921 21.717 99.61 26.71 137.924 57.549 59.546 47.932 91.93 106.726 175.71 127.82 30.712 7.732 77.466 10.266 107.315 6.179 68.037-9.302 124.664-35.021 172.408-84.95 27.008-28.245 51.695-68.864 84.565-95.351 22.067-17.784 52.677-29.013 74.616-43.708 32.973-22.076 78.703-86.895 91.58-124.493 13.294-38.81 22.707-89.386 21.666-130.09z"/><path fill="#e6c193" d="M330.12 874.906c-15.786 2.67-12.629-11.333-15.436-15.437 8.627 2.099 11 9.95 15.437 15.437m-25.727-25.72c-3.294-2.534-5.88.538-15.437-10.291 7.782-.981 13.389 2.859 15.437 10.291"/><path fill="#e5c7a1" d="M21.444 581.666c.017 5.146-.017 10.291 0 15.437-4.813-18.159-7.321-33.033-5.026-53.897.973-8.849 4.94-30.225 15.317-33.561-5.384 25.975-10.393 44.988-10.29 72.021"/><path fill="#fed432" d="m674.807 314.155-15.394 2.526c27.128 48.802 27.136 125.883-.776 174.225-7.262 12.57-19.968 33.245-27.623 44.407-21.725 31.701-66.33 55.782-100.471 69.3-7.689 3.046-16.46 10.623-23.782 12.236-13.876 3.046-50.86 2.347-66.262 1.058-47.12-3.934-91.776-22.076-125.815-54.246-7.578-7.16-11.452-14.353-10.291 2.577-29.39-72.866-35.755-117.214-9.455-194.919l8.405-1.305c57.54-144.82 270.319-172.126 371.447-55.86zm-206.583 76.373c14.37-22.537 25.643-39.322 21.487-68.787-3.456-24.525-50.244-27.648-68.83-22.29-1.877.547-31.71 19.542-33.092 20.924-3.9 3.9-16.376 28.092-19.158 34.868-9.216 22.485-12.125 36.488 7.646 54.22 8.303 4.259 37.974 3.823 48.171 1.596 14.95-3.268 27.477-20.403 43.776-20.531"/><path fill="#fdb929" d="M674.807 314.155c12.11 13.926 33.682 39.654 41.157 56.593.802 1.817-.768 7.44.81 11.835 75.939 211.14-141.124 367.275-330.026 273.647l-72.064-64.264c-3.158-8.414-6.895-17.297-10.291-25.72-1.161-16.93 2.713-9.728 10.29-2.577 34.04 32.171 78.695 50.313 125.816 54.247 15.411 1.288 52.386 1.988 66.262-1.058 7.313-1.605 16.093-9.19 23.782-12.237 34.142-13.517 78.746-37.598 100.471-69.3 7.655-11.161 20.36-31.829 27.623-44.407 27.912-48.333 27.895-125.423.776-174.225l15.394-2.526z"/><path fill="#f2e7d1" d="M715.964 370.74c12.791-2.877 10.3 5.904 14.395 13.798 50.654 97.536 15.02 231.39-76.262 292.172-89.037 59.29-226.824 51.354-303.351-25.634-14.37-14.464-17.17-36.915-33.758-43.375-4.224-5.555-1.093-12.552-2.296-15.744l72.064 64.265c188.894 93.628 405.965-62.507 330.027-273.647-1.579-4.395 0-10.018-.81-11.836z"/><path fill="#fdea98" d="M468.224 390.528c-16.299.128-28.826 17.263-43.776 20.531-10.197 2.227-39.868 2.671-48.17-1.596-19.772-17.732-16.863-31.735-7.647-54.22 2.782-6.776 15.25-30.968 19.158-34.868 1.382-1.382 31.215-20.377 33.092-20.923 18.586-5.36 65.374-2.236 68.83 22.289 4.156 29.465-7.117 46.25-21.487 68.787"/></svg>