<svg xmlns="http://www.w3.org/2000/svg" viewBox="0 0 1024 1024"><path fill="#f9f4e8" d="M6.848 499.763c6.084-34.739 22.758-79.249 47.846-105.549 15.36-16.102 56.312-35.985 65.238-46.387 15.308-17.843 8.78-6.152 33.314-11.434 31.923-6.878 74.47-38.674 93.9-62.285 18.697-22.725 27.358-36.753 51.286-57.157 9.045-7.705 20.232-21.47 22.135-22.954 3.985-3.123 85.684-34.586 93.423-35.908 45.415-7.74 116.207-8.884 160.069 6.024 14.77 5.018 42.385 23.697 56.362 27.972 19.345 5.914 17.98 4.284 35.132 18.705 61.252 51.482 83.089 49.605 162.543 48.675 9.617-.111 17.084-6.23 23.8-6.23 10.145 0 30.788 9.054 39.1 11.964l-21.053 6.007c11.657 15.855 26.701 30.848 36.062 48.154 20.694 38.272 1.34 74.487-3.976 113.562l-9.78 1.587c-5.64 37.52-56.396 50.517-49.024 91.955l-12.697 6.69c6.204 54.264-27.315 113.656-68.736 147.166-13.312 10.77-58.146 36.702-73.156 41.122-9.771 2.876-96.768 2.884-106.522 0-4.796-1.416-8.482-7.953-14.097-9.958-20.224-7.228-41.097-15.54-61.636-19.618l-.376-17.596c-28.92 5.342-19.831-5.632-29.892-15.087-12.97-12.194-48.12-34.005-65.613-34.082l-1.51-9.848c-93.218-30.882-187.648 17.383-284.263-7.014l-4.24-11.264c-17.033-.666-42.232-14.652-56.739-24.78-13.943-9.737-20.83-34.723-28.382-41.157-2.551-2.176-8.021-.401-9.677-1.732-3.686-2.987 6.674-45.611-18.833-29.534zm332.066-257.382c-1.297 1.314-21.094 26.897-22.263 28.86-2.39 4.027-15.241 36.445-14.789 38.46 9.976 18.167 31.88 18.568 50.97 15.76 16.93-2.491 38.946-30.276 56.883-39.347 10.01-5.06 42.453-18.09 52.412-19.763 30.088-5.052 52.975 5.018 67.567-33.442-12.066-26.607-34.176-36.514-62.993-34.116-14.985 1.245-45.696 4.403-58.889 7.236-7.083 1.519-64.196 31.616-68.898 36.36zm-73.42 113.024c-12.715.947-26.54-1.545-39.007.11-5.649.752-54.016 17.264-56.311 19.158-1.604 1.323-.487 11.657-13.252 14.165l6.604 44.485c15.121-1.22 36.13 3.447 49.98-.564 12.476-3.61 35.08-27.605 51.43-29.764l.555-47.582z"/><path fill="#faecd1" d="M891.012 265.19c51.533 18.065 86.264 40.107 111.036 90.454 19.456 39.535 27.085 83.012 18.398 126.08-.034.153-3.047-.316-3.132 0l-5.999-30.063c-.734 12.945-1.715 31.018-16.939 30.89-9.48 47.36-55.773 69.906-78.37 111.386-18.466 33.912-14.302 69.171-29.721 102.596-12.561 27.23-36.08 48.009-50.654 72.653-103.501 83.362-214.861 83.2-325.93 13.543-5.326-3.337-3.056-9.677-4.848-10.787-36.676-22.604-79.974-48.35-123.366-54.374-63.727-8.85-131.926 11.17-197.453 4.983-39.313-3.712-82.773-31.982-113.98-54.434L6.848 577.946c-.128-.837-5.3-2.407-6.315-14.558-2.099-25.097 2.415-41.378 6.315-63.633 25.497-16.077 15.138 26.547 18.833 29.534 1.655 1.34 7.125-.436 9.677 1.732 7.552 6.434 14.438 31.42 28.382 41.156 14.506 10.13 39.705 24.124 56.738 24.78l4.24 11.265c96.615 24.397 191.054-23.868 284.263 7.014l1.51 9.848c17.494.077 52.643 21.896 65.613 34.082 10.061 9.455.973 20.437 29.893 15.087l.375 17.596c20.548 4.078 41.421 12.39 61.636 19.618 5.624 2.005 9.302 8.542 14.097 9.958 9.754 2.884 96.751 2.876 106.522 0 15.01-4.42 59.844-30.353 73.156-41.122 41.421-33.51 74.932-92.902 68.736-147.166l12.698-6.69c-7.364-41.438 43.392-54.434 49.024-91.955l9.78-1.587c5.315-39.075 24.678-75.29 3.976-113.562-9.361-17.306-24.397-32.299-36.062-48.154l21.052-6.007z"/><path fill="#efe1c2" d="M1017.314 481.724c-21.897 85.82-49.971 77.55-89.395 136.158-30.038 44.655-24.371 107.392-60.86 155.673-70.69 93.534-193.954 121.182-300.945 78.166-62.26-25.037-123.503-91.785-189.517-99.192-58.726-6.588-109.525 16.546-162.509 12.152-96.315-7.988-183.577-70.486-207.13-165.99-1.595-6.452.846-14.422-.119-20.728l63.207 90.171c31.206 22.443 74.666 50.723 113.98 54.435 65.535 6.186 133.734-13.833 197.452-4.984 43.392 6.025 86.69 31.77 123.367 54.374 1.792 1.101-.478 7.442 4.847 10.787 111.061 69.657 222.43 69.82 325.93-13.543 14.575-24.636 38.093-45.423 50.654-72.653 15.42-33.425 11.256-68.693 29.722-102.596 22.596-41.48 68.898-64.025 78.37-111.385 15.215.128 16.205-17.946 16.939-30.891l5.998 30.063z"/><path fill="#fdfdfb" d="M338.914 242.38c4.702-4.744 61.815-34.84 68.898-36.36 13.193-2.833 43.904-5.99 58.889-7.236 28.825-2.398 50.927 7.51 62.993 34.116-14.592 38.469-37.479 28.39-67.567 33.442-9.967 1.673-42.402 14.703-52.412 19.764-17.937 9.07-39.944 36.855-56.883 39.347-19.09 2.807-40.994 2.406-50.97-15.761-.452-2.014 12.4-34.424 14.789-38.46 1.169-1.971 20.957-27.546 22.263-28.86z"/><path fill="#fdfcf9" d="m265.493 355.405-.554 47.582c-16.35 2.159-38.955 26.154-51.43 29.764-13.85 4.01-34.86-.657-49.98.563l-6.605-44.484c12.765-2.5 11.648-12.834 13.252-14.165 2.295-1.895 50.67-18.407 56.311-19.158 12.468-1.655 26.292.836 39.006-.11z"/></svg>