<svg xmlns="http://www.w3.org/2000/svg" viewBox="0 0 1024 1024"><path fill="#faf2db" d="M745.002 128.052c-8.363.964 1.04 19.37 2.756 23.262 62.78 143.104 92.348 304.623 47.864 457.95C713.335 892.91 393.105 976.99 164.096 798.55c-11.034-8.602-16.213-10.582-14.413 5.743-55.279-115.021-48.785-266.172-15.94-388.736 75.853-282.99 344.089-597.282 611.259-287.505m-348.544-10.419c-47.48 8.371-103.748 86.357-118.366 130.167-11.22 33.639-17.97 72.397 4.404 102.895 3.148 4.292 17.066 18.219 21.077 19.388 65.8 19.157 139.443-59.247 161.194-114.79 25.754-65.758 26.334-154.36-68.3-137.66z"/><path fill="#f4e1b7" d="M149.683 804.293c-1.8-16.325 3.38-14.345 14.413-5.743 229.009 178.44 549.239 94.37 631.526-189.287 44.484-153.326 14.907-314.845-47.864-457.949-1.707-3.891-11.119-22.298-2.756-23.262C887.295 293.035 964.539 587.418 880.92 792.824c-51.115 125.568-161.8 204.748-294.972 225.211-183.372 28.177-354.466-43.554-436.266-213.742"/><path fill="#fdfdf5" d="M396.458 117.633c94.635-16.691 94.055 71.91 68.301 137.66-21.751 55.543-95.386 133.947-161.195 114.79-4.01-1.17-17.928-15.087-21.077-19.388-22.374-30.498-15.624-69.256-4.403-102.895 14.618-43.81 70.886-121.796 118.366-130.167z"/></svg>