<svg xmlns="http://www.w3.org/2000/svg" viewBox="0 0 1024 1024"><path fill="#f3ead2" d="M430.208 141.389c10.223 22.613 24.132 2.372 39.057-3.012 28.152-10.155 62.507-5.189 81.613 19.84l8.414-22.443c.264 10.521-4.275 21.154-4.062 25.48.273 5.42 18.457 17.016 15.505 39.151-1.212 9.097-13.918 21.812-22.673 25.165-4.36 1.673-27.367 1.621-28.288 8.79l.239 210.082 11.213-16.828c-1.118 16.708-5.3 33.792-5.854 47.462-2.944 72.312-1.203 152.013.247 224.743.137 6.81-4.173 20.949 5.598 19.635l11.34-114.944c8.986-65.255 32.018-130.85 33.588-196.514.222-9.31-4.241-26.146 5.598-30.882l5.598 33.664c-3.012-24.175 7.065-47.036 11.068-70.298 1.493-8.695 5.41-22.23 5.785-25.105l39.28 5.623-16.82 95.403c14.873-10.667 30.856-6.656 39.27-22.451l.017 11.153c12.604-2.509 23.8 7.671 33.656.077l2.62 11.255c32.896 25.48 24.482 69.64-19.346 67.44-.622 4.428.632 9.121-.307 13.55-16.734 78.968-36.326 156.45-44.595 236.194-7.031 67.857-2.27 140.638-11.35 207.53-3.114 22.938-19.626 31.02-41.616 24.79-12.834-3.635-9.754-35.567-8.773-47.112 6.503-76.672 16.086-152.645 22.435-230.119l34.32-178.944c7.493-19.575 50.356 4.625 44.17-31.616-13.859.435-35.568-4.24-47.173-11.776-10.138-6.579-5.316-16.486-14.567-16.281l-16.947 109.337c-6.886 44.442-17.007 90.3-22.238 134.904-9.642 82.261-7.782 166.553-22.425 246.963-2.142 11.767 3.575 26.197-11.204 33.672-17.724 8.969-28.544-4.309-41.984-3.165-13.944 1.186-23.365 11.238-42.078-.06-1.775-26.931 1.305-54.392-.034-81.34-4.583-92.023-15.753-183.1-22.682-274.816l-5.624 2.859c-.042-.495-5.085-1.391-5.7-8.098-3.063-33.477-1.331-70.059-5.52-104.15l33.672-11.23 16.93 131.798 11.11 42.18c-1.578-26.65 2.116-55.228.256-81.613-2.39-33.86-9.13-67.37-11.469-103.586 16.794 3.09 11.18-8.61 11.205-19.6.042-18.459-5.103-30.14-5.837-44.699-2.688-53.572.247-111.684.247-165.802l39.339-2.816-.06-19.627-39.279 11.221c-7.347-6.579-22.024-7.91-28.057-11.22-6.99-3.84-25.515-19.576-27.4-25.9-5.846-19.626 6.476-26.419 9.676-39.552 1.971-8.08.52-16.256.879-24.345zm61.73 11.23c-23.108-4.455-46.387 8.251-44.885 33.664 25.916 4.855 41.66-8.26 44.885-33.664"/><path fill="#e0ceac" d="M761.335 360.269c-16.153 61.653-29.815 127.146-44.902 190.814-26.778 113.066-67.601 238.924-78.447 356.488-3.865 41.83 8.26 61.773 44.766 30.754l.017 39.288c-13.61 23.142-51.652 32.648-77.064 37.99-54.776 11.512-162.125 11.964-214.98-6.92-15.839-5.658-36.174-16.564-44.698-31.07l.017-39.288c18.193 21.07 30.302 4.642 44.885 5.615 2.227.145 9.02 3.943 11.221 5.615.982.743 1.605 5.59 5.539 8.269 9.241 6.298 19.353 10.615 30.685 8.329 5.854-3.414 7.936-6.895 8.85-13.62 3.097-22.963 1.083-65.467.076-90.206-2.56-63.172-12.015-132.07-17.083-193.382-1.366-16.572 1.365-33.937 0-50.509l5.623-2.858c6.93 91.716 18.1 182.792 22.682 274.816 1.34 26.948-1.741 54.417.034 81.34 18.713 11.297 28.134 1.245 42.078.06 13.44-1.144 24.26 12.133 41.984 3.165 14.78-7.475 9.062-21.905 11.204-33.673 14.643-80.41 12.783-164.701 22.425-246.963 5.231-44.604 15.352-90.47 22.238-134.903l16.948-109.338c9.241-.205 4.428 9.703 14.566 16.282 11.605 7.535 33.314 12.21 47.172 11.776 6.187 36.24-36.668 12.04-44.168 31.616L598.682 688.7c-6.35 77.474-15.932 153.455-22.435 230.118-.98 11.546-4.061 43.477 8.773 47.113 21.982 6.229 38.502-1.844 41.617-24.79 9.08-66.892 4.318-139.673 11.35-207.53 8.268-79.744 27.852-157.218 44.594-236.194.939-4.43-.315-9.123.308-13.551 43.818 2.193 52.24-41.959 19.345-67.44l-2.62-11.255 48.068-174.157c-15.855-8.303-39.8-27.178-36.215-46.549 3.379-18.236 34.91-40.602 52.693-43.068 57.95-8.038 81.22 19.832 97.39 71.143-4.82 29.696-37.486 42.257-63.35 30.003-7.476 1.51-21.086 49.46-24.26 60.16-5.556 18.714-7.69 38.87-12.587 57.566z"/><path fill="#f3ead2" d="M284.288 253.636c14.455 11.324 23.398-13.44 33.715-19.6 20.574-12.28 43.05-9.678 64.683-3.039 10.573 3.243 15.59 12.852 13.85-5.427.196.922 6.988 14.217 8.482 16.743 5.939 10.035 17.647 14.583 19.66 30.976 2.953 24.055-14.011 22.698-16.913 42.077-11.392-1.314-20.744-.025-22.613 13.867-3.994 29.602 8.73 63.104 11.4 92.774 23.868.615 16.436-27.622 16.828-44.902l5.743 39.134 44.766 11.375c10.394 8.013 4.728 26.274 5.615 39.287l-7.578.82c-14.677 12.945-28.51 18.679-48.452 16.11-1.143 5.3 1.024 12.032-.094 16.743-8.653 36.497 1.374 56.004 5.496 92.715 2.773 24.73 1.937 52.855 5.709 78.523l5.632-2.875c5.068 61.312 14.515 130.21 17.083 193.382 1.007 24.747 3.021 67.251-.077 90.206-.904 6.724-2.995 10.214-8.849 13.619-11.332 2.287-21.444-2.04-30.685-8.329-3.926-2.67-4.557-7.526-5.539-8.268 4.028-17.11-4.932-32.47-5.853-47.463-7.757-125.713-8.329-237.243-33.434-362.24 14.344-10.376 1.553-30.669.102-42.189-4.556-36.113-5.393-75.707-11.443-112.034-2.901-17.433-12.97-35.089-11.153-53.41-1.468-1.672-21.786 1.212-28.015-.025-5.256-1.041-31.522-20.43-33.16-25.882.98-18.74 6.135-32.879 5.094-52.685z"/><path fill="#f0e5cb" d="M828.68 410.778c-10.043 19.08-19.447 46.822-28.057 67.345-51.183 122-102.92 297.668-112.486 429.098-1.451 19.9 2.747 43.06.392 62.345-.981 8.03-5.41 7.467-5.76 8.055l-.017-39.287c-36.506 31.019-48.623 11.076-44.766-30.754 10.855-117.564 51.67-243.422 78.447-356.489l5.871 3.115c13.15-42.744 30.6-84.284 49.126-124.894 6.093-13.363 13.568-30.37 23.57-40.969.921 5.36-.897 10.044 5.41 14.208l28.27 8.244z"/><path fill="#e0ceac" d="m598.58 175.061-4.993 3.499-.614 13.338c-1.144 4.616.768 11.596 0 16.836-15.915 9.873-35.798 30.788-25.412 50.688.69 1.323 18.61 21.376 19.797 22.272l-5.615 95.411c-9.839 4.736-5.376 21.572-5.598 30.882-1.57 65.664-24.602 131.26-33.587 196.514l-11.34 114.944c-9.772 1.323-5.462-12.817-5.599-19.635-1.45-72.73-3.191-152.422-.247-224.742.554-13.67 4.736-30.754 5.854-47.463 3.464-51.652 6.28-103.065 10.982-154.581 1.408-15.428 9.566-30.217 5.854-47.462 8.755-3.354 21.461-16.069 22.673-25.165 2.944-22.136-15.24-33.724-15.505-39.151-.213-4.327 4.326-14.96 4.062-25.48-.094-3.661.529-7.356-.154-10.992-78.669-13.2-20.66-86.877 36.642-78.78 23.62 3.337 54.35 38.554 52.915 63.804-10.606 19.405-30.754 17.05-47.59 25.694l-2.526 39.56z"/><path fill="#f3ead2" d="M233.78 405.163c39.517 65.416 68.035 148.25 89.574 221.952l5.836-3.072c20.523 89.642 47.02 184.473 61.62 277.922 1.723 11.033 4.027 31.232.11 41.975-14.583-.964-26.692 15.454-44.885-5.615l-.017 39.288c-.35-.598-4.616.025-5.743-8.047-2.09-14.933 3.823-28.988 3.55-39.663-.683-26.12-10.172-53.359-14.524-78.677-25.13-146.014-64.913-289.246-129.194-423.62l33.305-11.717.376-10.735z"/><path fill="#e0cfad" d="M278.673 225.57c2.278 10.018 5.052 17.297 5.615 28.058 1.033 19.806-4.122 33.945-5.094 52.685 1.638 5.452 27.904 24.84 33.16 25.881 15.684 69.453 36.48 137.77 50.509 207.659 25.096 124.996 25.677 236.518 33.434 362.24.921 14.993 9.89 30.344 5.853 47.462-2.201-1.672-9.002-5.461-11.22-5.615 3.916-10.743 1.612-30.942-.112-41.975-14.609-93.449-41.096-188.28-61.62-277.922-.759-3.32.743-7.86 0-11.222l-.613-13.337-4.992-3.499c-.384-3.635.571-7.731 0-11.221l-.615-13.338-4.992-3.499c-10.42-57.847-20.446-117.888-34.97-175.488-13.14-52.113-33.425-102.698-43.605-155.63.64-.248 1.895-8.594 8.977-10.514 9.421-2.551 25.174 1.536 30.31-.716z"/><path fill="#e3d2b2" d="M396.535 225.57c-5.017-23.85-3.003-61.721-5.742-86.86-5.504-50.544-20.71-27.734-56.03-44.988-32.23-28.425 16.128-84.455 48.657-91.717 65.945-14.72 141.687 71.168 47.138 94.831-1.203 14.754.316 29.79-.341 44.553-.359 8.09 1.092 16.264-.88 24.345-3.2 13.133-15.53 19.926-9.676 39.552 1.886 6.332 20.412 22.06 27.4 25.9l16.837 196.428-44.766-11.375-5.743-39.134c.256-11.136.316-22.545 0-33.672-.18-6.324.904-12.74-.615-19.055l-5-3.397c.008-1.826-.265-3.84 0-5.615 2.91-19.379 19.874-18.022 16.913-42.077-2.014-16.393-13.722-20.941-19.66-30.976-1.494-2.526-8.287-15.821-8.483-16.743zM351.642 62.805c24.67 1.639 47.82-17.834 25.224-39.27-17.75 5.06-28.92 21.103-25.224 39.27"/><path fill="#f2ebd2" d="M643.473 40.363c35.823-54.4 119.177-53.812 144.845 9.497 18.415 45.423-5.282 56.943-46.865 57.814-16.598.35-10.018.025-19.405 11.264-.12-3.661.546-7.365-.154-11-15.095.154-25.693-11.511-39.133-.23l-.495-10.641c-26.215-11.503-40.832-26.744-38.793-56.704"/><path fill="#f4ead3" d="M699.597 225.57c-.504 22.904 24.815 41.404 2.97 61.9-13.483 12.647-19.388 9.225-25.421 33.511-2.415-8.738 7.995-21.589-8.278-22.46-9.318-.494-18.807.982-28.091-.093-14.738-1.715-26.104-15.906-36.591 5.717-.393-27.29-8.67-16.264-16.837-22.451-1.186-.896-19.106-20.95-19.797-22.272-10.385-19.9 9.498-40.815 25.412-50.688 21.71-13.474 38.895-12.57 64.043-10.94l8.917-11.511c-.102 5.836-1.135 11.895 2.518 17.083z"/><path fill="#e9dbbe" d="M278.673 225.57c-5.137 2.253-20.881-1.835-30.31.717-7.083 1.92-8.337 10.257-8.977 10.513-.965.375-4.941-3.584-8.15-3.174-42.146 5.359-66.04-.862-59.178-50.134 2.978-21.401 39.338-53.435 59.827-58.01 35.61-7.952 91.81 16.385 86.076 58.01-3.081 22.34-17.059 24.875-33.733 33.835-4.147 2.227-5.086 8.047-5.546 8.243zm-69.598-72.397c-10.752 3.09-29.226 33.733-11.69 38.64 20.667 4.232 27.844-10.147 36.078-25.541l-8.192-13.568c-5.324-.188-11.033-1.015-16.187.47z"/><path fill="#f3ebd4" d="M228.164 388.326c-2.73 1.144-9.42-1.058-16.589 2.876-8.02 4.395-21.29 18.953-22.69 19.576-14.455 6.4-50.662-2.492-55.722-20.395-1.477-5.231 6.545-33.144 9.6-39.757 15.974-34.62 52.795-40.55 85.623-27.05 17.246 7.09 27.384 19.276 21.572 38.852-.477 1.621-20.224 25.25-21.785 25.898z"/><path fill="#e0ceac" d="M682.76 107.716c13.44-11.29 24.039.384 39.134.23.7 3.636.035 7.33.154 11 1.033 32.802-25.097 71.143-22.451 106.633l-31.155-22.204c-3.653-5.188-2.612-11.247-2.518-17.084.418-24.567 12.578-54.05 16.837-78.575"/><path fill="#e3d3b4" d="M228.164 388.326c-.392 6.332 2.5 11.691 5.615 16.837l-.375 10.735-33.306 11.716c-3.132-6.545-8.516-10.368-11.221-16.836 1.4-.623 14.677-15.173 22.69-19.576 7.168-3.934 13.858-1.732 16.589-2.876z"/><path fill="#f4ead3" d="m592.964 191.898.615-13.338 4.992-3.499c4.3 10.684-5.376 15.89-5.615 16.837z"/><path fill="#f3ead2" d="M323.575 584.755c-.153-.956-3.788-6.698-5.614-16.836l4.992 3.499.614 13.337zm5.615 28.066c-.068-.298-3.968 1.502-4.992-3.498l-.614-13.338 4.992 3.499z"/><path fill="#e1d0ae" d="M604.186 304.145c10.487-21.623 21.853-7.432 36.59-5.717 9.285 1.083 18.782-.401 28.092.094 16.273.87 5.863 13.721 8.278 22.46l-11.222 72.96c-8.414 15.795-24.405 11.784-39.27 22.45l16.82-95.402-39.28-5.624c.452-3.464.051-7.603 0-11.22z"/><path fill="#dfd0b2" d="M469.495 466.901c.376 5.564-.358 11.264 0 16.837 2.339 36.207 9.08 69.725 11.47 103.586 1.86 26.385-1.835 54.963-.257 81.613l-11.11-42.18-16.93-131.798-33.673 11.23c-.444-3.593-1.664-6.187-5.615-5.615 1.118-4.71-1.05-11.443.094-16.743 19.943 2.569 33.775-3.165 48.452-16.11l7.578-.82z"/><path fill="#fcf9ed" d="M604.186 304.145c.05 3.627.452 7.757 0 11.221-.376 2.876-4.284 16.401-5.786 25.105-4.002 23.262-14.08 46.123-11.068 70.298l-5.598-33.664 5.615-95.411c8.167 6.187 16.453-4.839 16.837 22.451"/><path fill="#fcf9ea" d="M418.987 506.189c4.19 34.09 2.457 70.664 5.52 104.15.615 6.706 5.667 7.602 5.701 8.097 1.365 16.572-1.365 33.937 0 50.51l-5.632 2.875c-3.772-25.668-2.935-53.794-5.709-78.524-4.121-36.71-14.148-56.226-5.495-92.715 3.95-.571 5.17 2.014 5.615 5.615z"/><path fill="#fdfbf2" d="M491.938 152.619c-3.225 25.403-18.97 38.52-44.885 33.664-1.502-25.413 21.777-38.119 44.885-33.664"/><path fill="#e1d3b4" d="m475.11 242.406 39.27-11.212.06 19.626-39.33 2.816z"/><path fill="#e4d3b3" d="m828.68 410.778-28.27-8.244c-6.298-4.164-4.489-8.849-5.41-14.208-3.747-21.87-6.904-14.805-11.222-22.45-4.693-8.304-7.782-32.282-5.043-41.55 16.512-18.346 44.322-24.601 68.66-19.26 33.697 7.39 62.386 78.49 28.296 88.176-19.764 5.615-32.905-9.268-47.01 17.536"/><path fill="#f8f0de" d="M351.642 62.805c-3.695-18.167 7.475-34.218 25.224-39.27 22.596 21.436-.555 40.909-25.224 39.27"/><path fill="#f3ead2" d="m413.372 343.433-5-3.397c-1.366-6.323-.658-12.706-.615-19.055l5 3.397c1.52 6.314.436 12.723.615 19.055"/><path fill="#fcf7ec" d="M209.075 153.173c5.163-1.484 10.863-.657 16.188-.469l8.192 13.568c-8.235 15.394-15.411 29.764-36.079 25.54-17.536-4.906.939-35.541 11.69-38.639z"/></svg>