<svg xmlns="http://www.w3.org/2000/svg" viewBox="0 0 1024 1024"><path fill="#f9beb6" d="M920.269 427.622c-3.234 16.768-27.955 52.967-40.807 66.313-8.337 8.653-30.916 21.58-35.14 26.078-1.68 1.792-.043 10.897-1.613 16.128-7.748 25.822-18.022 35.191-9.497 64.572-57.686 24.712.717 56.977.725 84.514 0 7.936-15.198 42.76-20.66 46.13-4.692 2.894-11.707 1.025-14.694 3.303-1.467 1.118.76 6.443-3.805 9.464-35.857 23.714-103.936 14.267-146.51 26.163-45.132 12.604-76.757 20.625-122.478 30.55-9.259 2.013-16.205 12.168-21.948 13.755-7.808 2.167-16.537-.862-24.175 1.331-6.417 1.835-10.026 12.109-16.529 14.055-13.022 3.882-25.412-1.716-37.649-4.463.956-11.051 4.89-17.314 10.206-25.506h5.103c8.055 11.4 29.9-5.12 44.433-9.123 43.836-12.066 88.124-18.346 130.483-32.75 62.037-21.095 85.94-17.827 148.873-24.56 8.251-.878 19.183-6.263 28.407-7.295 8.798-16.564 27.384-40.133 17.75-59.034-1.366-2.68-13.108-13.653-16.069-14.515-10.376-3.038-54.903-1.86-68.224-.64l7.646-15.31c-101.956 1.085-184.09 40.705-268.023 94.14-83.508 53.163-150.895 99.661-249.925 142.84-18.517 8.073-35.874 19.106-55.646 23.424l4.916 45.636c20.318-4.71 40.943-2.935 61.15-5.085l-33.272 10.086c-65.11 5.103-128.46-5.666-164.975-64.341-55.006-88.389-18.62-225.8 14.61-318.106l4.445-3.268.657-6.938c15.719-2.756 9.566 7.825 10.215 17.81.998 15.282 2.176 47.598 5.802 60.535 3.38 12.023 29.133 36.224 40.09 44.074 10.829 7.766 15.641 10.3 29.312 14.046 108.348 29.747 216.738-28.484 310.92-74.24 71.006-34.492 125.04-72.414 207.89-77.756 38.024-2.449 68.215.845 107.426-4.795 25.992-3.738 35.345 2.628 51.379-25.378 16.068 6.988 32.29 7.577 45.704-5.078 5.419-5.111 5.914-11.98 8.44-14.498 8.516-8.5 24.397-17.39 32.46-31.65l-.682-20.523 23.296-10.078z"/><path fill="#fdd8d1" d="M160.239 340.907c49.45-66.79 101.786-131.2 173.491-176.034 9.43-5.897 21.53-11.486 32.359-18.518C479.719 72.55 640.546 55.91 768.69 97.161c9.37 3.012 66.338 23.082 69.223 25.378.742.597 2.525 8.465 10.94 14.327-15.318-2.449-17.767 22.511-23.024 30.532-3.84 5.863-11.503 9.652-15.104 15.505-9.036 14.67-13.226 33.059-20.573 45.73-1.451 2.5-40.662 37.06-43.23 38.392-26.036 13.449-60.22 22.835-88.721 38.801-22.571 12.647-31.966 14.157-52.753 23.757-22.11 10.214-43.299 37.487-75.478 41.847-9.634 1.306-20.95-1.877-29.892.709-8.49 2.457-18.355 21.836-26.77 24.234-9.727 2.774-20.564-1.024-32.776 2.927-13.329 4.318-30.617 25.669-44.049 32.461-17.322 8.755-33.058 3.396-49.229 6.878-13.644 2.935-33.262 21.393-42.35 23.962-15.284 4.309-47.855 8.012-65.451 11.059-15.138 2.628-69.308 15.599-69.154-7.894-.316-11.008 18.654-18.67 20.164-26 .794-3.866-4.113-10.795-4.702-17.264 15.25 12.886 21.794 18.577 43.495 15.42 9.608-1.4 13.056-9.506 20.906-14.797 4.6-3.097 10.812-3.396 14.14-5.47 4.139-2.577 2.321-6.971 4.403-9.173 1.775-1.869 6.75-.717 7.834-2.082 2.193-2.773.81-9.583 3.541-14.438 3.456-6.153 12.774-10.659 17.229-18.595 6.152-10.973 6.263-23.705 11.085-35.14-27.478-53.453-68.608-5.538-99.687 17.946-2.543 2.893-22.144 42.53-22.929 45.926l-45.9 5.095-.035-15.292 20.583-2.45 1.954-18.175 12.945-5.163c2.551-7.279-2.168-12.663-3.797-18.654-3.124-11.443 3.319-15.752-11.247-6.57zM674.662 137.89c-1.911-1.536-41.89-10.496-47.812-11.102-42.393-4.3-96.222 3.874-136.815 15.983-6.425 1.912-18.398 13.713-28.612 17.306-17.502 6.16-21.547 7.373-37.76 18.32-26.598 17.972-73.856 45.936-78.959 79.352-1.655 10.846.922 16.53 5.01 26.309 7.397 2.61 13.96 5.862 22.135 6.195 22.425.904 68.608-21.743 89.284-33.553 37.111-21.197 95.914-36.062 140.433-43.196 9.549-1.527 20.66 1.894 29.781-.82 4.941-1.475 7.339-8.37 15.88-9.608 9.029-1.314 18.714 1.656 27.734-.333 6.844-19.012 24.866-31.12 10.82-52.548-2.773-4.232-6.937-2.364-9.088-4.429-1.911-1.834-.75-6.818-2.048-7.867z"/><path fill="#fccbc1" d="M894.763 203.187c1.578 10.94 9.915 20.847 15.3 30.61-3.968 9.156 4.719 14.438 5.103 15.3 3.848 8.763 3.746 11.656 5.103 20.403.554 3.592-1.041 8.209.563 12.134l4.54 3.166c.47 4.94-.854 10.829 0 15.3 3.942 23.987-18.168 20.753-30.567 28.092-14.302 8.465-31.385 32.35-49.4 37.308-27.425 7.552-55.415 15.897-80 32.213-8.78 5.828-17.586 19.362-23.551 22.357-6.852 3.44-15.207 1.246-20.753 4.753-5.777 3.653-7.518 17.426-12.476 23.228-6.664 7.791-44.988 27.947-56.26 30.456-70.605 15.675-74.914 28.586-133.282 60.552-45.048 24.67-108.212 40.875-148.148 66.09-8.337 5.266-20.684 19.525-25.13 20.78-31.087 8.772-78.131 11.844-110.882 21.742-8.047 2.432-14.149 16.896-21.743 19.064-19.303 5.521-37.29 1.775-56.406 20.488l-52.633-9.66c-10.957-7.85-36.71-32.05-40.09-44.074-3.635-12.936-4.804-45.252-5.802-60.535-.649-9.984 5.504-20.566-10.215-17.81v-5.102c.103-9.788 6.827-17.024 10.206-25.507 22.084-15.078-.18 15.54 5.24 20.242 13.721-1.016 30.378 22.57 38.75 25.036 9.89 2.91 58.069 2.057 70.988.837 13.491-1.272 24.03-8.858 35.584-10.326 12.937-1.647 27.085 1.98 39.91-.896 20.523-4.59 46.849-25.216 68.105-28.808 21.444-3.627 44.126 3.242 64.367-7.04 9.242-4.694 13.116-13.867 22.29-18.518 32.946-16.7 42.922-1.903 72.84-34.278 4.659-5.035 109.9-57.07 122.35-61.278 11.009-3.729 21.974-.853 32.811-7.996 9.003-5.93 10.189-16.375 21.718-24.183 21.401-14.498 64.878-23.364 90.24-32.18 7.833-2.721 13.5-14.037 21.905-18.9 7.313-4.242 16.221-4.6 22.297-8.312 6.212-3.789 43.52-63.104 56.022-76.595 13.661-14.746 28.407-28.322 46.003-38.161h5.103z"/><path fill="#fcd4cc" d="M848.853 136.875c7.365 5.137 14.882 11.434 20.404 15.3l-5.078 2.543c12.945 11.426 24.21 31.54 25.48 48.46-17.595 9.84-32.35 23.416-46.002 38.162-12.502 13.5-49.81 72.806-56.022 76.595-6.076 3.703-14.984 4.07-22.297 8.311-8.397 4.873-14.072 16.18-21.905 18.902-25.362 8.815-68.839 17.68-90.24 32.179-11.529 7.816-12.715 18.253-21.718 24.183-10.846 7.143-21.802 4.267-32.81 7.996-12.45 4.216-117.692 56.243-122.351 61.278-29.918 32.375-39.894 17.579-72.84 34.278-9.174 4.651-13.048 13.824-22.29 18.518-20.241 10.282-42.931 3.422-64.367 7.04-21.256 3.592-47.582 24.217-68.104 28.808-12.835 2.867-26.974-.75-39.91.896-11.546 1.468-22.094 9.054-35.585 10.326-12.92 1.211-61.099 2.073-70.989-.837-8.37-2.457-25.028-26.043-38.75-25.036-5.418-4.702 16.845-35.328-5.239-20.242 29.91-75.153 54.443-119.372 102.016-183.628 14.566-9.19 8.124-4.873 11.247 6.57 1.638 5.99 6.357 11.375 3.797 18.654l-12.945 5.163-1.954 18.176-20.582 2.449.034 15.292 45.9-5.095c-1.023 4.438-.486 15.113 0 20.403.598 6.46 5.505 13.398 4.702 17.263-1.51 7.33-20.48 14.993-20.164 26.001-.145 23.493 54.016 10.514 69.154 7.894 17.596-3.047 50.176-6.75 65.451-11.06 9.088-2.568 28.706-21.026 42.35-23.961 16.172-3.482 31.907 1.877 49.23-6.878 13.44-6.792 30.728-28.143 44.049-32.46 12.211-3.952 23.048-.154 32.776-2.928 8.423-2.397 18.279-21.777 26.77-24.234 8.942-2.594 20.258.589 29.892-.709 32.179-4.36 53.367-31.624 75.477-41.847 20.787-9.609 30.182-11.11 52.753-23.757 28.493-15.966 62.677-25.352 88.721-38.8 2.569-1.324 41.78-35.892 43.23-38.392 7.356-12.68 11.537-31.07 20.574-45.73 3.6-5.846 11.264-9.643 15.104-15.506 5.256-8.02 7.705-32.98 23.023-30.532z"/><path fill="#f8aa9e" d="M226.551 937.702c-20.215 2.142-40.84.367-61.15 5.086l-4.915-45.636c19.772-4.318 37.129-15.351 55.646-23.424 99.03-43.179 166.417-89.677 249.925-142.84 83.933-53.427 166.067-93.055 268.023-94.14l-7.646 15.31c-44.834 4.104-88.482 30.685-131.891 41.83l-1.468 8.14c-45.218 17.665-92.57 44.946-131.891 72.44-11.042 7.723-18.082 14.055-25.506 25.506-5.308 8.192-9.242 14.456-10.206 25.507-2.688 31.052 15.727 29.49 40.806 30.609 28.579 1.271 56.15-1.835 84.08-5.189 16.52-1.988 39.952-9.557 56.08-10.427 21.3-1.152 53.462 18.176 28.143 33.442-14.336 8.644-33.382 10.35-48.222 2.27l-3.43 9.514-29.935 11.187c-57.412 8.022-110.464.24-165.675 5.206-54.69 4.924-107.17 29.91-160.785 35.6z"/><path fill="#f9b4a7" d="M961.075 238.89c65.075 82.928 87.322 205.202 29.91 297.703-11.81 19.038-23.587 25.566-37.752 38.758-21.402 19.934-22.059 102.4-53.367 127.71l-25.49 30.6c5.47-19.959-7.014-26.512-12.868-40.695-7.782-18.833-6.383-39.74-22.613-54.17-1.126-4.82 15.642-22.954 20.036-25.13 7.757-3.848 16.862-1.732 25.916-4.693 4.48-1.468 39.723-23.586 40.43-25.882 4.967-16.256-6.732-10.735-12.705-17.578-5.06-5.795-8.721-19.653-13.38-27.529-7.97-13.483-22.298-23.535-19.713-44.05 12.852-13.345 37.573-49.544 40.807-66.312 5.555-28.817 17.732-65.8 15.172-94.259-.913-10.154-8.815-26.632-10.078-33.263-.853-4.48.47-10.368 0-15.3-.35-3.652 1.007-7.834-.81-11.597l-4.293-3.703c-1.356-8.747-1.254-11.64-5.103-20.403 3.269-9.353-3.234-11.93-5.103-15.3-5.393-9.754-13.721-19.67-15.3-30.61l12.732-20.394c15.983 11.912 26.044 29.49 38.178 43.426 4.463 5.128 13.628 10.41 15.403 12.672z"/><path fill="#fabcb1" d="M879.462 493.935c-2.585 20.514 11.742 30.566 19.712 44.049 4.66 7.876 8.32 21.726 13.38 27.529 5.983 6.852 17.682 1.33 12.707 17.578-.7 2.296-35.951 24.423-40.431 25.882-9.045 2.96-18.16.845-25.916 4.693-4.386 2.176-21.154 20.31-20.036 25.13 16.23 14.43 14.83 35.337 22.613 54.17 5.863 14.183 18.338 20.736 12.868 40.696l25.49-30.6c-.18 9.19-4.958 15.99-10.095 23.073-20.967 28.894-54.622 58.94-84.216 78.994-7.168 4.855-13.662 10.368-23.006 10.154.999-2.167-.768-7.577 2.381-10.393l12.28-.248c.06-16.418 22.698-13.423 21.034-30.165-38.989-2.91-76.74 9.002-114.85 15.206-61.312 9.984-127.368 21.163-187.563 36.873-16.938 4.42-40.994 13.218-49.536 29.534-25.08-1.118-43.494.452-40.806-30.61 12.228 2.748 24.619 8.355 37.65 4.463 6.501-1.937 10.111-12.21 16.528-14.054 7.646-2.193 16.367.836 24.175-1.331 5.743-1.596 12.69-11.75 21.948-13.756 45.721-9.924 77.346-17.945 122.479-30.55 42.564-11.895 110.651-2.448 146.509-26.162 4.565-3.021 2.338-8.346 3.805-9.464 2.987-2.27 10.001-.4 14.695-3.302 5.461-3.37 20.659-38.195 20.659-46.131 0-27.538-58.41-59.802-.725-84.515-8.525-29.38 1.758-38.74 9.497-64.571 1.57-5.231-.068-14.336 1.613-16.128 4.233-4.497 26.812-17.417 35.14-26.078z"/><path fill="#fab2a6" d="M466.287 856.09c8.542-16.308 32.589-25.105 49.536-29.534 60.194-15.702 126.25-26.889 187.563-36.873 38.11-6.204 75.86-18.116 114.85-15.206 1.664 16.742-20.975 13.738-21.035 30.165l-12.28.248c-3.148 2.816-1.382 8.226-2.38 10.393-14.626 31.821-190.797 76.194-229.538 81.613l29.935-11.187 3.43-9.515c14.83 8.073 33.886 6.366 48.222-2.27 25.318-15.257-6.852-34.585-28.143-33.442-16.12.87-39.552 8.44-56.081 10.428-27.93 3.362-55.492 6.46-84.08 5.188z"/><path fill="#fbc5ba" d="M961.075 238.89c-1.775-2.26-10.94-7.543-15.402-12.671-12.135-13.944-22.196-31.522-38.179-43.426l-12.731 20.394h-5.103c-1.272-16.921-12.536-37.034-25.48-48.46l5.077-2.544c.972.683 5.922-.162 9.873 2.671 31.249 22.366 66.96 47.463 81.945 84.045zM920.27 427.623 896.973 437.7l.682 20.523c-8.055 14.26-23.944 23.15-32.46 31.65-2.518 2.517-3.021 9.387-8.44 14.498-13.414 12.655-29.636 12.066-45.704 5.078-16.034 28.006-25.387 21.64-51.38 25.378-39.21 5.64-69.401 2.338-107.426 4.795-82.85 5.342-136.883 43.264-207.889 77.756-94.182 45.756-202.564 103.987-310.92 74.24-13.662-3.755-18.475-6.28-29.312-14.046l52.633 9.66c19.115-18.714 37.103-14.976 56.406-20.489 7.594-2.167 13.696-16.631 21.743-19.063 32.742-9.907 79.795-12.97 110.882-21.743 4.437-1.254 16.793-15.522 25.13-20.779 39.936-25.216 103.092-41.412 148.148-66.09 58.368-31.966 62.685-44.877 133.282-60.553 11.272-2.5 49.595-22.664 56.26-30.455 4.966-5.803 6.699-19.576 12.476-23.228 5.546-3.507 13.9-1.314 20.753-4.753 5.965-2.995 14.771-16.53 23.552-22.357 24.584-16.316 52.574-24.67 80-32.214 18.014-4.958 35.097-28.842 49.4-37.307 12.398-7.34 34.508-4.096 30.566-28.092 1.254 6.622 9.156 23.1 10.078 33.263 2.56 28.458-9.618 65.442-15.173 94.259z"/><path fill="#fbc9c2" d="M726.434 652.058c13.312-1.22 57.84-2.398 68.224.64 2.961.861 14.703 11.835 16.068 14.515 9.643 18.91-8.951 42.47-17.749 59.033-9.224 1.041-20.156 6.417-28.407 7.296-62.934 6.733-86.836 3.465-148.873 24.56-42.36 14.404-86.639 20.676-130.483 32.75-14.532 4.002-36.378 20.523-44.433 9.122 9.37-5.265 20.855-14.19 20.403-25.506 39.313-27.494 86.673-54.775 131.891-72.44l1.468-8.14c43.409-11.145 87.057-37.734 131.891-41.83"/><path fill="#fabcb1" d="M440.79 799.983h-5.104c7.424-11.452 14.464-17.784 25.507-25.506.452 11.315-11.034 20.24-20.404 25.506"/><path fill="#fde9e5" d="M674.662 137.89c1.297 1.041.128 6.033 2.048 7.868 2.15 2.065 6.315.188 9.088 4.429 14.046 21.427-3.976 33.536-10.82 52.548-9.02 1.988-18.713-.973-27.733.333-8.542 1.246-10.94 8.14-15.88 9.608-9.123 2.722-20.233-.708-29.782.82-44.51 7.133-103.322 21.998-140.433 43.195-20.685 11.819-66.859 34.466-89.284 33.553-8.175-.333-14.737-3.575-22.136-6.195-4.087-9.78-6.664-15.462-5.009-26.308 5.112-33.408 52.37-61.38 78.959-79.352 16.213-10.956 20.258-12.16 37.76-18.32 10.214-3.593 22.187-15.386 28.612-17.306 40.585-12.11 94.422-20.284 136.815-15.983 5.922.597 45.892 9.557 47.812 11.102z"/><path fill="#fde9e4" d="M185.745 402.116c.785-3.405 20.395-43.033 22.93-45.926 31.078-23.484 72.208-71.399 99.686-17.946-4.813 11.435-4.933 24.167-11.085 35.14-4.455 7.945-13.765 12.45-17.23 18.595-2.73 4.855-1.347 11.665-3.54 14.438-1.084 1.374-6.06.213-7.834 2.082-2.082 2.193-.256 6.588-4.403 9.174-3.328 2.073-9.54 2.38-14.14 5.47-7.85 5.29-11.298 13.397-20.907 14.796-21.7 3.166-28.245-2.526-43.494-15.42-.486-5.29-1.024-15.965 0-20.403z"/><path fill="#fbc5ba" d="M915.166 249.088c-.376-.862-9.071-6.144-5.103-15.3 1.869 3.379 8.371 5.947 5.103 15.3m10.197 35.712-4.54-3.166c-1.595-3.925 0-8.542-.563-12.134l4.293 3.703c1.826 3.772.46 7.945.81 11.597"/></svg>