<svg xmlns="http://www.w3.org/2000/svg" viewBox="0 0 1024 1024"><path fill="#e5ad96" d="m529.527 61.55 50.023-22.22c-9.728 15.317-28.4 22.52-44.459 27.776.512-3.891-2.005-5.12-5.555-5.555z"/><path fill="#ec9d7e" d="M90.47 78.225c-5.734 10.206-15.462 22.724-27.784 22.23 5.205-5.829 9.037-14.73 16.802-19.568 4.676-2.91 9.66-1.894 10.982-2.662"/><path fill="#fc9e77" d="M696.26 661.786c7.262.802 15.864-2.287 22.554 2.457l5.922 19.09c79.283 39.201 175.573 62.591 260.531 28.466-10.146 22.016-15.061 45.065-28.655 68.6C907.12 866.082 846.55 900.412 759.05 938.53c-46.789 20.386-126.405 51.047-176.59 45.457-17.339-1.928-36.752-14.677-50.15-16.546-14.66-2.04-32.094 1.365-47.24 0 .486-.043 1.305-4.872 8.021-5.649 11.648-1.34 24.568 1.041 36.446.077l-27.785-77.799 11.12-38.903c19.2-2.978 30.028-24.55 44.697-35.883 26.368-20.377 61.38-33.544 88.687-53.034.205 54.621 51.806 108.185 96.18 134.468 6.886 4.079 45.183 23.8 48.323 21.137L704.76 822.8l-36.266-83.226c6.545-7.278 14.174-26.077 22.127-36.224 6.647-8.473 24.09-20.19 27.878-27.707 7.049-14.003-21.606-3.601-22.22-13.875zm197.93 84.01c-11.715 3.43-41.54 60.621-53.324 74.488-13.286 15.624-37.547 26.035-47.377 41.549-4.66 7.347-.034 15.214 5.658 16.7 8.38 2.175 21.068-5.931 28.808-10.01 26.684-14.072 88.738-64.461 95.3-93.645 5.257-23.399-4.659-36.216-29.064-29.065z"/><path fill="#fea27c" d="M757.402 222.72c-9.379 2.048-5.393 17.408-5.556 25.011-.921 44.092 1.357 75.35-15.573 117.82-23.142 58.06-64.435 105.864-117.82 135.057l-3.276-4.95c-16.538.803-58.496-5.802-63.412-22.843-.486-1.69.367-3.789 0-5.555 6.452-26.41 25.2-46.737 28.024-74.803 6.639-66.142-43.887-119.143-16.905-180.856v-5.555c14.712 1.903 28.152-9.225 41.77-11.025 50.049-6.596 90.872 5.478 137.72 17.75 8.721 2.286 14.157 9.693 15.028 9.94zm-129.664.947c-19.183 4.062-26.659 20.318-17.758 38.11 7.893 15.77 25.702 9.062 38.946 11.06 5.93.895 11.315 4.906 16.879 5.35 12.655 1.015 59.708 4.48 63.42-8.585 11.34-47.053-70.674-52.463-101.496-45.935z"/><path fill="#fca079" d="M985.267 711.808c-2.048-9.37-17.408-5.402-25.011-5.555-81.297-1.664-180.847-11.657-231.142-82.867-8.064-2.023-16.751.938-24.85-.393-6.818-1.126-7.509-5.615-7.995-5.666h27.801l-.631-24.5-4.94-3.285c.34-.076 1.049-3.916 3.89-4.573 13.38-3.064 28.04-3.738 42.001-7.894 92.067-27.375 179.311-87.364 209.767-182.058 58.47 52.292 61.884 224.375 28.979 292.974-4.139 8.628-15.25 18.142-17.869 23.817m-5.905-249.762c-21.094-4.583-37.862 4.736-44.254 24.533l11.631 83.593-17.425 88.79 20.506 24.618c32.41-.615 43.323-41.925 46.43-69.18 5.435-47.701 2.355-108.407-16.888-152.363z"/><path fill="#fca079" d="M968.593 389.453c-13.397 7.219-18.27 25.054-27.69 36.224-43.708 51.857-104.841 90.462-170.957 106.922-24.645 6.136-49.349 7.928-73.677 12.468l-5.922-16.333-16.308-.333c7.092-21.743 27.947-33.297 41.438-50.261 43.41-54.588 55.151-128.666 52.924-196.95l-11-58.47c6.264 1.81 17.118-1.69 24.858.128 81.016 19.03 171.145 81.587 186.343 166.605zM805.223 261.93c-12.562 2.764-27.81 31.189-17.409 44.322 14.644 14.012 34.577 20.429 50.27 33.084 19.14 15.428 49.707 61.943 67.44 66.005 16.52 3.789 31.726-6.665 28.978-23.168-4.608-27.682-38.51-67.055-60.629-84.181-8.858-6.861-62.114-37.504-68.65-36.062"/><path fill="#ed673e" d="m501.743 884.096 27.784 77.798c-11.878.965-24.797-1.416-36.445-.076-6.716.776-7.535 5.606-8.022 5.649-9.054.768-18.628-.273-27.784 0v-2.893c-13.5-5.7-29.782-1.536-44.459-2.663-65.809-9.096-144.648-26.743-194.475-75.076-2.013-1.954-18.935-23.381-19.66-24.79-7.894-15.24-3.15-26.17 14.054-27.963 13.27-1.382 27.844.981 41.574-.11 62.703-5.01 103.441-10.343 165.632 12.44 27.93 10.232 52.924 30.635 81.8 37.693z"/><path fill="#ee916f" d="m123.819 61.55 55.569-11.11c3.985 17.613-19.627 13.918-29.346 17.775-3.09 1.23-3.61 4.293-3.994 4.455-17.271 7.236-42.94 13.943-55.578 27.784-.213.23-4.138-.921-5.546 2.782v8.329h8.345c2.245-.964 2.074-5.248 2.757-5.547 4.027-1.766 10.837-3.174 16.674-5.555l13.218-.614 3.456-4.95c40.79-10.035 82.935-4.215 124.936-5.444l141.833 27.674 3.362 4.949 18.867.606c1.81.273 3.738-.248 5.555 0l27.785 5.572c-4.096 14.583-19.857 11.281-33.348 11.102-3.601-.401-7.586.495-11.12 0l-3.276-4.95-24.508-.605c-75.92-12.664-182.494-35.354-255.872-14.114-26.82 7.765-55.074 22.297-71.338 45.38-4.813 41.984-1.272 68.633 24.55 101.88 4.71 6.058 34.73 37.4 38.682 39.133 2.432 1.067 9.173 1.383 8.311-2.756l-16.657-41.685c19.004 4.215 36.702-3.644 52.907-5.453 24.311-2.714 53.24-2.347 77.602-5.769 111.991-15.718 212.25-58.957 325.222-44.365v5.556c-14.959 2.244-26.82-6.63-41.779-5.931-50.287 2.355-92.834 17.032-139.716 27.298-52.412 11.477-105.959 15.283-160.18 23.22-34.312 5.025-65.851 16.972-102.937 10.99-2.97 10.633 8.038 12.792 10.257 20.301 4.77 16.102 5.555 35.558-.239 51.183l-9.242 1.4-.793 16.025c23.74-2.39 41.31.75 61.005 14.037 51.678 34.868 106.308 81.553 170.521 96.256 43.93 10.061 127.864 23.407 170.65 11.213 7.654-2.184 15.59-16.299 31.343-10.342.367 1.766-.487 3.865 0 5.555-18.355 3.976-32.956 14.984-52.566 16.904-93.235 9.123-209.493-28.535-286.318-80.947-13.73-9.36-36.89-34.747-49.87-39.048-24.72-8.2-53.375-9.054-79.666-20.378C23.313 323.5-7.475 268.46 1.553 203.281c2.995-21.598 45.858-85.743 61.124-102.827C75 100.95 84.736 88.431 90.462 78.225c10.615-6.204 22.357-14.805 33.348-16.674zm-16.674 266.761c-8.21-16.896-26.53-22.766-39.006-36.01-19.397-20.6-26.496-39.74-34.56-65.485-1.767-5.65-2.356-16.563-9.797-15.19-7.38 51.926 29.005 110.388 83.354 116.694z"/><path fill="#f7875f" d="m512.862 845.193-11.12 38.903c-28.876-7.057-53.861-27.46-81.8-37.692-62.19-22.784-102.929-17.45-165.632-12.441-13.721 1.092-28.305-1.263-41.574.11l50.022-5.572c-16.75-18.764-52.215-70.903-36.352-94.694 10.906-16.35 83.414 2.645 103.194 8.405 68.164 19.874 130.756 55.91 183.253 102.972z"/><path fill="#f0754d" d="M974.148 395.017c-30.455 94.685-117.7 154.683-209.766 182.058-13.97 4.156-28.62 4.83-42.001 7.894-2.842.648-3.542 4.497-3.891 4.573-27.683 6-55.63 7.587-83.363 11.12-3.942.503-8.226-.854-12.893.767-9.908 3.448-12.732 19.951-26.001 1.989l22.22-30.55c.922-.597 1.51-6.545 9.19-10.086 18.492-8.508 48.12-13.884 68.617-17.707 24.337-4.531 49.033-6.332 73.677-12.467 66.116-16.46 127.25-55.074 170.957-106.923 9.42-11.178 14.293-29.013 27.69-36.224 1.016 5.666 4.148 4.293 5.556 5.556z"/><path fill="#f0724b" d="M674.03 528.401c-35.822 15.522-75.988 23.168-105.6 50.022l-16.699-.034 5.581-33.305c22.98-27.981 31.24-28.11 61.133-44.459 53.384-29.192 94.677-76.996 117.82-135.057 16.921-42.462 14.643-73.72 15.573-117.82.162-7.603-3.823-22.963 5.555-25.01l11 58.47c2.218 68.283-9.515 142.361-52.924 196.949-13.491 16.964-34.347 28.518-41.438 50.261z"/><path fill="#f0764e" d="M696.26 617.327c.487.051 1.178 4.54 7.996 5.666 8.098 1.34 16.785-1.63 24.85.393 50.295 71.202 149.844 81.203 231.141 82.867 7.604.153 22.964-3.815 25.012 5.555-84.958 34.125-181.248 10.735-260.532-28.467l-5.922-19.09c-6.69-4.744-15.291-1.655-22.553-2.457-23.612-2.611-32.427-8.235-55.339 3.012-19.61 9.626-46.669 41.157-64.162 47.002-3.942 1.314-3.439-4.275-2.808-8.363 3.328-21.615 55.885-79.539 75.862-85.316 9.13-2.637 35.67-1.894 46.447-.794z"/><path fill="#ec9d7e" d="M418.38 67.106c.487.077 1.34 4.3 3.85 4.642 19.336 2.611 44.125 2.253 62.847-1.75v-2.892c5.504-.358 11.188.478 16.674 0l13.202-.614 3.464-4.95c3.473-.221 7.74-.41 11.119 0 3.55.436 6.067 1.664 5.555 5.556-5.811 1.903-9.549 4.113-16.674 5.555-3.678.742-9.003-1.229-13.218.614l-3.456 4.95c-1.843.102-3.72-.146-5.555 0-6.195.494-12.655-1.11-18.867.605l-3.363 4.95c-100.104 2.662-193.68-23.689-292.019-16.913-12.211.844-23.057 8.311-35.882 5.802.375-.162.904-3.225 3.993-4.454 9.72-3.857 33.331-.162 29.346-17.775l-55.569 11.11c10.727-8.106 34.492-15.07 47.377-16.537 74.539-8.525 172.357 10.752 247.185 22.101z"/><path fill="#ee7047" d="m668.476 739.593 36.266 83.225 86 89.054c-3.132 2.662-41.43-17.058-48.325-21.137-44.373-26.283-95.974-79.846-96.18-134.468 5.18-3.704 19.482-13.62 22.23-16.674z"/><path fill="#e9a185" d="M423.936 122.684c74.65 10.052 158.097 11.204 229.444-17.878 16.128-6.57 28.152-15.078 42.599-24.098 4.795-2.995 11.494-14.472 16.955-5.273-32.768 34.176-74.607 52.983-120.763 62.634-42.368 8.858-122.855 12.809-165.658 6.99-10.462-1.426-7.56-5.641-8.132-5.71 13.491.18 29.252 3.482 33.348-11.102l-27.784-5.572z"/><path fill="#fdf0e6" d="m674.03 528.401 16.308.333 5.922 16.333c-20.488 3.814-50.125 9.199-68.616 17.706-7.689 3.542-8.27 9.48-9.19 10.087-1.81 1.177-8.141-.17-14.123 5.154-3.96 3.524-9.558 11.878-13.662 17.075v-16.666c-3.593-3.618-17.323 7.126-22.23 11.11v-11.118c29.611-26.854 69.769-34.5 105.6-50.022z"/><path fill="#ea8360" d="m618.453 572.86-22.22 30.55c13.269 17.962 16.102 1.458 26-1.99 4.668-1.62 8.944-.264 12.894-.767-25.787 19.277-45.49 45.61-69.47 66.688-6.254 5.495-9.164 13.312-19.447 11.11-6.289-6.69 36.096-72.79 44.459-83.362 4.113-5.197 9.702-13.55 13.662-17.075 5.982-5.325 12.313-3.977 14.122-5.154"/><path fill="#ea8563" d="m557.32 545.075-5.58 33.306 16.7.034v11.119c-20.856 16.913-27.145 46.165-50.006 61.133 1.417-29.03 14.174-76.263 30.703-100.13 2.705-3.9 7.339-4.438 8.192-5.47z"/><path fill="#fc9e77" d="M457.284 967.458c-20.002.589-30.114-3.575-44.458-5.555 14.685 1.135 30.967-3.03 44.467 2.662v2.893z"/><path fill="#e9a185" d="M407.262 139.358c-11.298-1.596-20.65-4.37-27.785-5.555l24.508.606zm11.119-16.674-18.867-.606-3.363-4.95c11.546-4.915 21.001 5.368 22.23 5.556"/><path fill="#e5ad96" d="m496.188 78.225-3.362 4.95c-6.255 1.493-12.604.435-18.868.605l3.363-4.95c6.212-1.723 12.672-.11 18.867-.605"/><path fill="#ec9d7e" d="m129.374 94.9-3.456 4.949-13.218.614c7.057-2.876 7.364-3.268 16.674-5.555z"/><path fill="#e5ad96" d="m518.417 61.55-3.464 4.95-13.202.615c.956-.086 2.885-4.685 16.675-5.556z"/><path fill="#ec9d7e" d="M96.026 106.01c-.683.298-.512 4.582-2.757 5.546h-8.354v-8.32c1.408-3.703 5.334-2.551 5.547-2.782l5.555 5.556z"/><path fill="#e5ad96" d="m518.417 72.661-3.883 4.753c-4.155 1.81-8.559.564-12.791.811l3.456-4.95c4.215-1.834 9.54.137 13.218-.614"/><path fill="#fcbea1" d="M894.19 745.796c24.398-7.15 34.322 5.666 29.065 29.065-6.562 29.184-68.616 79.573-95.3 93.645-7.74 4.079-20.437 12.194-28.808 10.01-5.7-1.486-10.317-9.345-5.658-16.7 9.83-15.514 34.1-25.916 47.377-41.55 11.793-13.866 41.609-71.048 53.325-74.487z"/><path fill="#fc8a66" d="M562.876 211.61c-26.983 61.713 23.543 114.713 16.904 180.855-2.816 28.066-21.563 48.393-28.023 74.803-15.753-5.956-23.68 8.158-31.343 10.343-42.795 12.194-126.729-1.152-170.65-11.213-64.205-14.703-118.835-61.389-170.521-96.256-19.695-13.287-37.265-16.427-61.005-14.037l.793-16.026 9.242-1.4c5.803-15.624 5.01-35.072.239-51.182-2.227-7.51-13.235-9.66-10.257-20.301 37.086 5.982 68.625-5.974 102.938-10.991 54.22-7.936 107.776-11.742 160.179-23.22 46.882-10.265 89.43-24.942 139.716-27.298 14.95-.7 26.812 8.175 41.78 5.931zm-252.45 85.444c0-14.831-12.024-26.863-26.863-26.863S256.7 282.214 256.7 297.054s12.023 26.863 26.863 26.863 26.863-12.024 26.863-26.863"/><path fill="#fdbe9f" d="M627.738 223.667c30.83-6.528 112.836-1.126 101.495 45.935-3.712 13.065-50.773 9.6-63.42 8.585-5.563-.444-10.956-4.455-16.879-5.35-13.252-1.998-31.052 4.71-38.946-11.06-8.909-17.783-1.425-34.048 17.758-38.11z"/><path fill="#fcbd9e" d="M979.362 462.046c19.243 43.955 22.323 104.661 16.888 152.363-3.107 27.255-14.02 68.565-46.43 69.18l-20.506-24.62 17.425-88.789-11.63-83.592c6.39-19.798 23.167-29.125 44.253-24.534z"/><path fill="#fdbe9f" d="M805.222 261.93c6.537-1.441 59.793 29.202 68.651 36.063 22.118 17.134 56.021 56.499 60.63 84.18 2.747 16.504-12.46 26.958-28.98 23.169-17.724-4.062-48.298-50.577-67.439-66.005-15.701-12.655-35.626-19.072-50.27-33.084-10.402-13.133 4.856-41.558 17.408-44.322"/><path fill="#fef0e5" d="M107.145 328.311c-54.35-6.306-90.735-64.768-83.354-116.693 7.441-1.374 8.03 9.549 9.796 15.19 8.064 25.745 15.164 44.893 34.56 65.484 12.467 13.244 30.797 19.115 39.006 36.01z"/><path fill="#423333" d="M256.7 297.054a26.863 26.863 0 1 0 53.726 0 26.863 26.863 0 1 0-53.726 0"/></svg>