<svg xmlns="http://www.w3.org/2000/svg" viewBox="0 0 1024 1024"><path fill="#fec5b7" d="m764.365 168.687-9.148-2.202 9.626 40.192c7.21 30.106-12.578 65.698-36.31 82.97-20.625 15.019-45.004 22.417-69.939 26.556-40.559 6.724-130.56 21.563-164.267 36.923l-24.302 11.077c-34.757 15.838-51.294 31.658-76.007 61.226l-24.09 28.817-19.746 23.587c-3.302 3.942-13.388 11.733-17.809 14.378-68.966 41.31-131.08 47.326-151.304 60.68l-34.5 22.776-22.563 14.916c-21.717 14.354-72.234 25.575-96.776 4.156L7.049 577.126c-1.178 12.527-2.424 22.955-1.775 31.3L0 604.127c1.519-14.942 3.115-30.473 9.941-42.547 30.03-53.103 34.475-45.073 64.154-110.379 12.34-27.145 23.535-51.31 40.183-75.682C156.501 313.719 204.8 273.178 275.2 245.87l59.887-23.228c4.506-1.75 14.447-7.885 18.295-10.573l68.344-47.71c44.066-30.762 92.04-47.086 146.859-50.807 56.413-3.831 88.064.18 140.492 20.053 21.257 8.056 39.535 21.777 55.27 35.09zM604.5 190.967l37.64 4.08c8.33.904 22.776-7.442 22.333-15.088-1.059-18.44-12.408-26.077-27.478-29.414-37.376-8.277-63.172-6.963-98.858 4.804l-26.036 8.585c-5.307 1.75-43.605 25.327-28.518 35.789 49.579-.726 70.51-14.225 120.909-8.764zm-156.518 28.408c-3.772-2.27-10.539-6.033-13.099-5.769-9.608.999-24.226 11.998-26.504 23.262 17.118 6.221 34.654.64 39.611-17.493zM278.187 322.039l26.052-26.606c9.14-9.336 17.835-20.685 25.122-31.343l23.57-34.45-8.125-7.987c-31.189 14.908-34.159 36.25-47.343 50.833l-48.196 53.325c-5.453 6.033-7.492 13.44-3.558 22.665 13.508-9.933 23.023-16.785 32.478-26.437M171.87 400.563l14.925-14.19c7.108-6.76 13.619-19.269 7.236-29.628-9.301-15.104-70.656 45.14-62.293 74.82.7 2.492 9.668-2.006 11.511-3.772l28.612-27.23z"/><path fill="#fdb1a3" d="M764.365 168.687c47.718 40.38 97.783 101.854 61.653 166.22l-7.236 8.005c-2.722 3.012-7.228 7.603-10.206 7.893l-.333-7.927-39.629-6.042c-21.947-3.345-71.227-.717-94.105 4.002-57.25 11.81-93.568 25.609-141.56 58.147l-72.08 48.861c-53.889 36.54-80.59 51.115-125.381 104.073l-31.47 37.205c-13.33 15.761-16.462 31.25-40.68 31.079l-69.11-.487c-39.86-.281-80.086 8.542-117.838 17.997-5.88 1.476-21.051 3.686-26.854 4.813-1.16.222.46 5.854.358 5.726-19.618-4.403-41.489-18.569-44.612-39.825-.648-8.346.597-18.782 1.775-31.3l20.181 17.612c24.542 21.419 75.06 10.206 96.777-4.156l22.562-14.916 34.5-22.775c20.224-13.355 82.338-19.362 151.305-60.68 4.42-2.646 14.507-10.437 17.809-14.38l19.746-23.586 24.09-28.817c24.72-29.568 41.258-45.388 76.006-61.226l24.303-11.077c33.707-15.36 123.7-30.2 164.267-36.923 24.934-4.139 49.314-11.529 69.939-26.556 23.731-17.28 43.52-52.873 36.31-82.97l-9.626-40.192 9.147 2.202zM270.13 547.19c-12.39 4.054-22.246 7.945-34.022 13.005l-34.97 15.036c-2.346 1.007-6.408 4.668-7.987 6.05-20.48 17.98 94.14-9.318 76.98-34.1z"/><path fill="#f78f84" d="M808.576 350.805c-6.997.692-21.35.504-30.643.52l-60.732.154c-61.986.154-131.38 32.58-181.803 66.279L498.79 442.23l-75.801 52.335c-20.71 14.302-60.083 53.607-76.032 73.14l-46.72 57.224c-11.324 13.875-21.871 1.707-25.267 11.81l-56.423.188c-24.166.077-48.384-.239-72.234 3.2l-71.484 10.308c-7.288 1.05-18.048-.631-24.926-2.176.102.128-1.519-5.504-.358-5.726 5.802-1.126 20.974-3.336 26.854-4.812 37.751-9.455 77.978-18.279 117.837-17.997l69.111.486c24.218.17 27.35-15.317 40.679-31.078l31.47-37.206c44.792-52.957 71.493-67.532 125.38-104.072l72.082-48.862c47.991-32.538 84.31-46.336 141.56-58.146 22.877-4.719 72.166-7.347 94.105-4.002l39.629 6.041.333 7.928z"/><path fill="#fddad2" d="M604.501 190.967c-50.406-5.46-71.33 8.039-120.908 8.764-15.096-10.462 23.21-34.04 28.518-35.789l26.035-8.584c35.687-11.768 61.483-13.09 98.859-4.804 15.07 3.336 26.419 10.973 27.477 29.414.444 7.646-14.003 15.991-22.332 15.087l-37.64-4.079z"/><path fill="#f9a096" d="M278.187 322.04c-9.447 9.65-18.97 16.503-32.478 26.436-3.934-9.225-1.886-16.632 3.558-22.665l48.196-53.325c13.184-14.583 16.154-35.925 47.343-50.833l8.124 7.988-23.569 34.449c-7.296 10.658-15.983 22.007-25.122 31.343z"/><path fill="#fddbd2" d="m171.87 400.563-28.612 27.23c-1.852 1.758-10.812 6.264-11.512 3.772-8.371-29.67 52.992-89.916 62.293-74.82 6.375 10.35-.136 22.869-7.236 29.627l-14.925 14.191z"/><path fill="#fddbd0" d="M447.983 219.375c-4.958 18.133-22.494 23.714-39.612 17.493 2.287-11.264 16.896-22.272 26.505-23.262 2.56-.264 9.335 3.5 13.098 5.769z"/><path fill="#f89386" d="M270.131 547.191c17.16 24.781-97.45 52.07-76.979 34.1 1.579-1.383 5.632-5.044 7.987-6.05l34.97-15.036c11.776-5.06 21.632-8.952 34.022-13.005z"/><path fill="#fec5b9" d="m965.487 421.513-12.083-4.762 2.637 26.598 5.512 53.342-26.795 35.738-21.41 28.902c-9.566 28.348-20.667 78.814-55.8 82.219l-52.035 5.043c-11.529 1.118-25.08 4.3-36.6 7.22l-19.644 4.966-16.41 4.138c-2.116.53-7.073 3.456-7.62 4.156-14.574 3.533-55.765 21.632-67.02 36.693l11.221 2.987c-.034 7.322-20.147 1.263-33.05 3.994-13.542 2.875-34.32 7.816-48 12.407l-29.772 10.01c-10.462 3.515-18.202 8.08-26.778 17.433 16.435 4.327 55.817-10.231 72.576-10.624l100.65-2.338c9.063-.213 25.9-10.786 34.228-13.278l25.6-7.637c5.948-1.775 16.145-8.346 23.893-13.491l-11.255-9.498 11.383 1.144 8.858 6.468c-5.914 67.012-90.914 94.387-152.73 94.336l-52.335-.051-56.354-.862c-11.52-.18-24.516 1.579-36.079 2.952l-36.437 4.335c-10.991 1.306-25.575 1.86-35.943 5.402l-77.422 26.41-30.166 10.326c-38.118 13.047-63.983 19.046-105.02 14.353-18.85-2.159-42.077-35.046-46.83-54.63l-6.528 3.183c5.888-17.101 15.718-33.374 28.467-47.71l9.873-11.102c11.699-13.159 25.25-26.377 35.157-40.824l48.478-70.698-8.926-2.023c3.396-10.103 13.944 2.065 25.267-11.81l46.72-57.224c15.95-19.533 55.313-58.838 76.032-73.14l75.802-52.335 36.608-24.473c50.415-33.698 119.816-66.125 181.803-66.279l60.731-.153c9.302-.026 23.646.162 30.644-.52 2.978-.29 7.483-4.882 10.205-7.894l7.237-8.004-5.248 12.8 17.587 3.234c26.64 4.898 53.734 13.85 76.851 27.05 10.829 6.187 50.39 34.134 50.278 43.53zm-376.721 56.183 29.67-12.023c60.792-24.636 135.416-7.757 172.348-37.172 4.992-3.976 5.419-22.69.299-26.479-20.822-15.42-54.076-22.442-73.037-18.022l-39.783 9.267c-18.875 4.395-62.097 25.02-80.648 35.021-72.909 39.296-90.223 83.712-73.011 79.556 24.72-5.973 33.04-17.536 64.162-30.14zM488.49 542.882c1.066-2.005 3.567-11.085 2.568-12.373-4.966-6.434-22.34-8.815-30.43-4.036-9.847 5.81-14.43 16.759-13.448 29.943 15.65 10.846 33.809.538 41.318-13.525zm-187.554 173.44 25.992-28.552c34.176-37.539 85.419-52.95 66.065-88.85-24.465 8.158-38.05 19.883-51.191 35.576l-18.62 22.23c-13.5 16.119-22.315 31.854-32.572 52.437l10.326 7.15z"/><path fill="#fdb2a2" d="M209.971 905.199c-34.509-9.728-68.343-37.171-54.041-78.712l5.99-17.408 6.528-3.182c4.753 19.592 27.98 52.48 46.83 54.63 41.038 4.693 66.902-1.314 105.02-14.353l30.166-10.325 77.423-26.411c10.376-3.541 24.96-4.096 35.942-5.402l36.438-4.335c11.562-1.374 24.559-3.123 36.079-2.952l56.354.862 52.335.05c61.815.06 146.816-27.323 152.73-94.335l-8.858-6.468 13.926 2.44 35.03 4.002 38.058 3.849-22.98 62.438c-3.49 9.472-39.885 38.52-49.425 44.698-20.463 13.244-45.765 18.628-69.64 23.014l-36.677 6.733c-20.48 3.755-40.619 9.498-60.348 16.631l-17.63 6.375-29.124 10.965c-27.708 10.428-55.868 13.841-85.521 10.308l-29.193-3.481c-38.126-4.548-77.371-12.604-115.2-5.53l-53.316 9.967c-30.012 5.615-61.27 7.629-91.98 8.525-1.724.051-6.17 2.005-6.017 3.439.103.964.854 3.166 1.11 3.942zm604.843-109.372c5.06-2.79 10.897-8.601 11.665-12.458.606-3.081-3.243-11.196-5.956-12.783-4.463-2.603-16.436 5.597-18.031 10.555l-4.608 14.362c6.22 1.135 13.781 2.056 16.93.316zM412.15 855.22l49.852 1.408c2.8.077 8.525-7.44 10.3-9.651 1.314-1.63-4.3-8.337-6.767-8.815-55.586-10.803-111.42 15.01-98.005 16.452 23.262 2.492 11.648-.324 44.612.606z"/><path fill="#feb2a2" d="M965.487 421.513c37.026 33.68 67.004 114.568 56.337 166.1-4.241 20.498-17.937 43.82-30.925 56.884l-2.108-7.185-11.161 9.062c-17.613 2.262-33.323 7.877-47.983 17.485l-33.707 22.084c-2.585 1.699-11.042 4.54-12.825 4.77l-56.696-8.482-27.972-3.959-48.725-7.398-24.5-1.784c.547-.7 5.504-3.618 7.62-4.156l16.41-4.138 19.644-4.967c11.511-2.91 25.07-6.101 36.6-7.219l52.036-5.043c35.131-3.405 46.233-53.871 55.8-82.219l21.41-28.902 26.794-35.738-5.513-53.342-2.636-26.598 12.083 4.762zm-21.41 194.338 13.252-26.786c2.884-5.837 5.99-20.634 2.014-25.737-4.36-5.598-18.09 2.74-20.224 7.996l-9.685 23.867c-2.86 7.058-3.132 22.06-3.525 32.035 6.298 1.28 9.754 2.807 11.222.819 1.604-2.176 4.983-8.243 6.937-12.194z"/><path fill="#f79487" d="M990.9 644.497c-3.406 3.422-10.173 11.145-14.968 13.628l-15.019 7.79c-28.945 15.02-67.396 36.592-76.203 69.078-9.881 36.463-30.515 66.048-62.361 86.52-14.055 9.028-31.88 19.328-48.256 23.85-73.549 20.327-73.319 7.177-152.9 40.406-52.404 21.879-91.666 25.617-149.581 17.62l-43.64-6.024c-33.39-4.608-65.11-4.07-97.553 2.978l-37.24 8.099c-26.256 5.708-58.751 3.643-83.208-3.252-.247-.776-1.007-2.986-1.11-3.942-.153-1.434 4.293-3.388 6.017-3.439 30.711-.887 61.969-2.91 91.98-8.525l53.317-9.967c37.828-7.074 77.073.982 115.2 5.53l29.192 3.482c29.654 3.532 57.814.128 85.522-10.309l29.124-10.965 17.63-6.374c19.729-7.143 39.867-12.877 60.347-16.632l36.677-6.733c23.876-4.386 49.177-9.77 69.64-23.014 9.549-6.178 45.944-35.226 49.425-44.698l22.98-62.438-38.058-3.849-35.03-4.002-13.926-2.44-11.383-1.144c-23.783-9.224-83.004 6.264-108.092 13.022l-11.221-2.987c11.264-15.06 52.454-33.16 67.02-36.693l24.5 1.784 48.725 7.398 27.972 3.96 56.696 8.482c1.783-.23 10.24-3.072 12.825-4.77l33.707-22.085c14.66-9.6 30.37-15.223 47.983-17.485l11.161-9.062 2.108 7.185z"/><path fill="#fddad3" d="M588.766 477.696c-31.121 12.612-39.441 24.175-64.162 30.14-17.203 4.155.102-40.26 73.01-79.557 18.552-10 61.774-30.626 80.65-35.02l39.782-9.268c18.96-4.411 52.215 2.603 73.037 18.023 5.12 3.789 4.693 22.502-.299 26.479-36.932 29.423-111.556 12.535-172.348 37.171l-29.67 12.023z"/><path fill="#fdd9d2" d="m777.523 695.74 11.256 9.497c-7.749 5.146-17.946 11.725-23.894 13.492l-25.6 7.637c-8.328 2.483-25.164 13.064-34.227 13.278l-100.65 2.338c-16.76.392-56.141 14.95-72.577 10.624 8.576-9.353 16.316-13.918 26.778-17.434l29.773-10.01c13.679-4.599 34.457-9.54 48-12.407s33.015 3.32 33.05-3.993c25.087-6.759 84.309-22.247 108.091-13.022"/><path fill="#fddad2" d="m300.937 716.322-10.326-7.15c10.257-20.583 19.072-36.319 32.572-52.438l18.62-22.23c13.141-15.692 26.726-27.417 51.191-35.575 19.354 35.9-31.889 51.311-66.065 88.85l-25.992 28.552zm187.554-173.44c-7.51 14.072-25.669 24.371-41.319 13.525-.981-13.184 3.601-24.132 13.449-29.943 8.09-4.77 25.463-2.39 30.43 4.036.998 1.289-1.494 10.368-2.569 12.374z"/><path fill="#fa9788" d="M412.151 855.22c-32.964-.93-21.35 1.885-44.612-.607-13.414-1.433 42.42-27.255 98.006-16.452 2.457.478 8.08 7.185 6.766 8.815-1.774 2.21-7.5 9.728-10.3 9.651l-49.851-1.408z"/><path fill="#fdcabf" d="M814.814 795.827c-3.14 1.732-10.71.82-16.93-.316l4.608-14.361c1.587-4.958 13.568-13.159 18.03-10.556 2.714 1.587 6.563 9.694 5.957 12.783-.76 3.857-6.596 9.66-11.665 12.459z"/><path fill="#f99588" d="M944.077 615.85c-1.954 3.952-5.334 10.019-6.938 12.195-1.468 1.988-4.924.46-11.221-.82.392-9.975.657-24.976 3.524-32.034l9.685-23.867c2.134-5.257 15.864-13.594 20.224-7.996 3.977 5.103.87 19.908-2.013 25.737l-13.253 26.786z"/></svg>