<svg xmlns="http://www.w3.org/2000/svg" viewBox="0 0 1024 1024"><path fill="#9fe266" d="M950.11 488.013c18.73 61.329 21.956 115.686 17.792 179.447-.24 3.72-1.656 8.175 4.028 6.998-1.87 2.04-5.214 3.268-5.769 5.145-9.626 85.188-57.506 157.107-128.384 202.846-12.723 8.21-27.648 14.029-40.388 22.084l-5.948-.981c15.334-25.216 25.045-55.322 30.635-84.403 37.077-39.885 64.631-87.254 80.017-140.143 2.509-8.61 7.535-26.906 8.422-35.217.222-2.09 1.007-5.581-2.056-5.026-2.176 7.227-4.113 14.814-6.93 21.836-14.344 35.764-35.242 70.503-56.516 100.182l-17.886 18.807c-.443-9.549.555-19.294.086-28.842-1.476-29.978-6.323-65.374-14.456-94.635-1.1-3.968-2.56-8.03-3.968-11.904-.768-2.116-.725-5.905-3.481-5.436 2.073 7.057 1.4 13.747 2.022 20.787 2.842 32.47 3.738 60.74 0 93.295-3.78 32.922-12.638 69.65-27.375 99.567-1.672 3.397-12.595 22.187-14.276 23.407-2.278 1.656-3.755 1.144-5.035-.99-2.406-3.993-4.19-11.264-6.468-15.351-18.372-32.93-47.59-60.851-77.867-82.79-1.928-1.4-10.513-8.338-11.81-7.023-.785 3.669 1.997 4.71 3.968 6.937 27.896 31.659 51.08 51.268 68.463 92.203 2.773 6.536 9.48 26.487 8.952 32.717-.606 7.04-4.71 6.391-5.504 7.38-.999 1.247-1.11 3.184-2.398 4.592-4.523 4.975-10.428 9.02-13.97 14.84-3.635.614-9.505 5.068-14.899 5.921-71.04 11.239-129.1 9.362-199.313 3.994 5.564-2.748-1.135-4.958-2.61-6.315-56.193-51.908-30.9-131.848 30.386-165.24 6.494-3.54 15.045-5.537 21.76-9.975 18.014-11.904 33.297-34.372 53.027-42.18 21.777-8.618 44.467-4.531 66.645-8.72 32.136-6.077 60.168-25.422 79.624-51.278 13.125-17.45 16.163-30.668 37.385-41.95 15.47-8.226 31.54-6.775 47.573-11.93 27.64-8.882 51.123-31.538 63.804-57.19 7.424-15.018 8.414-27.246 20.838-40.66 2.577-2.783 6.392-2.117 6.315-6.478l15.565-8.32z"/><path fill="#9fe266" d="M65.493 486.033c13.056 9.737 12.075 25.848 16.35 40.175 7.399 24.755 26.846 45.474 49.195 57.907 15.855 8.824 35.243 9.558 49.46 17.98 9.573 5.666 18.55 18.261 23.44 28.126 6.187 12.467 7.8 14.558 15.744 24.815 2.944 3.806 4.318 8.627 8.38 12.544 18.159 17.485 45.9 29.585 70.52 32.623 19.054 2.346 40.737-1.46 57.164 8.294 15.59 9.25 23.612 23.1 40.286 33.1 4.053 2.433 17.911 7.732 19.601 10.147 3.473 4.966-3.635 8.457-4.719 13.295-4.676 21-9.762 41.335-8.337 63.232 2.193 33.826 22.29 74.564 49.724 95.061 1.015.76 5.683 3.286 5.888 3.03l2.278-7.646c11.495-6.835 16.47 4.147 26.564 7.569l-1.083 8.004 19.848 3.977c-4.181-.419-8.644.495-12.85-.052-8.841-1.143-26.429-8.09-33.767-8.047-14.6.086-37.095 7.262-53.462 8.184-32.358 1.818-59.178-1.476-90.334-6.033l-39.62-24.84C263.723 893.721 246 884.89 237.961 867.9c5.46-30.097 20.992-56.474 37.717-81.4l37.717-44.586c-2.901-.273-5.649 1.459-7.885 3.02-21.751 15.284-53.504 46.558-67.183 69.675l-17.16 32.41c-5.325-2.68-18.065-29.355-21.231-36.293-23.364-51.174-29.679-101.546-27.281-157.004.444-10.223-.495-20.608-.094-30.831l-5.487 17.314c-6.818 32.828-10.905 65.613-8.303 98.628.384 4.838-.435 10.07-.094 14.959-13.081-10.402-24.345-24.943-33.408-38.98-14.438-22.366-28.894-51.354-39.014-76.024-2.074-5.06-3.482-10.632-4.932-15.897l-1.954 4.923c8.601 36.173 18.926 72.645 37.973 104.84 4.343 7.34 11.58 18.365 16.597 25.055 8.252 11.008 23.501 22.954 29.688 33.783 5.077 8.892 9.08 33.639 13.824 45.68 7.594 19.259 18.159 38.246 30.805 54.476 2.953 3.789 3.635 5.564-1.971 4.95-5.223-4.924-5.146-3.107-10.624-6.239C89.95 829.85 46.387 743.28 45.628 620.902c-.316-49.945 7.023-87.219 19.831-134.877z"/><path fill="#76ba45" d="M896.555 277.769c-5.547 4.25-4.36 17.894-3.926 24.755 1.152 18.227 3.08 26.36-2.526 45.158-1.006 3.38-1.356 7.1-4.454 9.42-2.415-.076-16.887-27.152-19.925-31.64-19.661-29.057-39.714-54.64-68.395-74.42-5.069-3.499-12.638-4.275-15.394-10.402l-2.406 1.425c-3.465-7.279-8.525-8.448-11.904-13.884-10.957-17.655-21.94-23.876-39.578-34.799-32.452-20.104-63.804-25.446-102.195-22.673l-14.917 5.905c-16.648-4.138-34.551-5.93-51.566-7.936-12.485-1.467-26.292-4.121-39.672-3.968-20.164.24-43.187 3.5-63.47 5.948 3.19-5.145 2.38-3.14-2.04-4.88-6.733-2.655-15.258-5.147-21.76-7.024-2.79-5.111-7.885-9.42-13.884-9.924 5.453-5.948 7.083-9.301 5.999-17.792l26.487-2.279c6.153-3.797 6.213-12.825 15.053-11.741l-.06-7.706-11.776-4.113V97.27c9.498-2.167 21.905-10.94 33.101-13.508 23.842-5.461 46.515-.836 67.448 11.145 10.479 5.999 19.268 13.423 27.537 22.152l1.63-.042c14.865-12.314 30.08-22.964 48.75-28.707 44.254-13.61 89.66.444 119.092 35.712 6.144 7.356 10.052 16.751 15.795 23.877 19.456 24.14 36.65 19.072 61.55 29.687 31.276 13.33 58.497 47.54 63.395 81.4.896 6.16-2.287 14.387 4.01 18.799z"/><path fill="#8ad654" d="M942.174 460.245c.051 9.925 5.111 18.518 7.936 27.768l-15.565 8.32c.077 4.36-3.738 3.695-6.315 6.477-12.424 13.414-13.405 25.642-20.838 40.66-12.68 25.644-36.164 48.308-63.804 57.191-16.034 5.154-32.102 3.704-47.573 11.93-21.222 11.281-24.26 24.5-37.385 41.95-19.456 25.856-47.488 45.2-79.624 51.277-22.187 4.198-44.877.11-66.645 8.72-19.73 7.809-35.013 30.277-53.027 42.18-6.715 4.438-15.266 6.435-21.76 9.976-61.286 33.391-86.579 113.332-30.387 165.24 1.476 1.365 8.175 3.575 2.611 6.315-1.305-.103-2.67.128-3.968 0l-19.848-3.977 1.084-8.004c-10.095-3.422-15.07-14.405-26.565-7.57l-2.278 7.647c-.213.256-4.873-2.27-5.888-3.03-27.435-20.497-47.53-61.244-49.724-95.061-1.425-21.905 3.661-42.24 8.337-63.232 1.075-4.839 8.192-8.329 4.72-13.295-1.69-2.415-15.549-7.714-19.602-10.146-16.683-10.001-24.704-23.842-40.286-33.101-16.426-9.754-38.11-5.94-57.165-8.294-24.618-3.038-52.36-15.139-70.519-32.623-4.07-3.917-5.436-8.738-8.38-12.544-7.944-10.257-9.557-12.348-15.744-24.815-4.89-9.865-13.866-22.451-23.44-28.126-14.217-8.423-33.605-9.148-49.46-17.98-22.349-12.441-41.796-33.16-49.195-57.907-4.283-14.319-3.302-30.438-16.35-40.175.282-1.058-.076-2.782.393-4.48 1.246-4.489 5.077-11.682 5.555-15.351 3.61-2.876 4.557-.777 6.98 1.954 10.488 11.827 11.401 34.875 17.784 49.647 10.06 23.27 33.195 41.634 56.482 50.62 14.908 5.75 32.7 5.307 44.783 16.708 12.425 11.724 17.673 34.978 27.767 49.578 19.03 27.512 54.196 45.67 87.1 47.77 22.366 1.433 40.721-4.122 59.631 11.776 6.545 5.504 12.16 13.431 18.893 18.799 11.29 9.002 26.317 15.351 39.586 20.915 3.499 1.468 16.478 7.782 17.852 7.936 4.59 6.187-3.448 12.33-5.555 17.254-17.758 41.583-15.19 84.992 8.627 123.537 1.57 2.543-.512 5.103 4.855 3.994 2.082-2.5-4.719-14.054-5.606-17.203-11.998-42.675 26.086-97.246 61.235-118.562 16.009-9.711 32.947-16.58 46.55-28.766 13.371-11.98 21.47-25.063 39.244-32.222 19.61-7.893 32.81-3.66 51.917-5.598 34.432-3.49 66.321-17.655 88.346-44.544 10.572-12.91 19.225-35.567 31.786-45.568 19.96-15.889 46.72-13.005 69.368-21.87 25.173-9.857 43.75-32.41 54.545-56.526 3.336-7.466 6.033-19.345 9.898-25.804 6.06-10.12 24.03-20.805 32.376-29.142l6.28-.623z"/><path fill="#5da533" d="m779.537 242.065 2.406-1.425c2.765 6.127 10.334 6.903 15.395 10.402 28.672 19.78 48.725 45.363 68.394 74.42 3.038 4.488 17.502 31.564 19.926 31.64 3.097-2.32 3.447-6.04 4.454-9.42 5.606-18.799 3.678-26.931 2.526-45.158-.435-6.861-1.621-20.506 3.925-24.755 1.75-1.34 10.42-3.644 12.937-3.917 73.694-8.013 117.512 72.047 101.683 137.386-2.918 12.058-10.18 24.286-13.056 36.532-9.105 38.715 15.582 60.091 22.929 95.249 11.819 56.559-13.457 92.544-49.126 131.439-5.684 1.177-4.267-3.269-4.028-6.998 4.164-63.77.939-118.127-17.792-179.447-2.825-9.25-7.876-17.843-7.936-27.768-.009-2.218-.29-4.454.247-6.656l14.063-19.695c6.938-17.783 9.105-38.613-.7-55.697-3.857-6.715-13.977-15.735-21.452-18.218-3.217-1.076-13.747-3.192-16.88-2.893-13.67 1.297-31.112 13.44-39.739 23.893-2.253 2.73.922 5.888-4.966 1.912-.905-5.496-7.126-11.384-9.916-15.864-12.501-20.045-27.98-42.82-43.597-60.535-7.808-8.858-32.691-29.099-35.388-38.059-.708-2.355.035-4.787-.35-6.528-.238-2.952.427-6.17.06-9.054s-1.98-2.688-2.04-2.85c-1.083-2.816-1.603-7.142-1.979-7.936"/><path fill="#5ba534" d="m126.985 250.001 7.901 5.077c-2.978 5.223-1.143 10.641-1.988 15.71-1.561 9.413-6.792 20.72-7.842 29.841-1.4 12.16 1.05 26.309-.051 38.63-.017.171-2.134.487-2.048 2.85.094 2.663 4.215 13.202 5.623 16.376 2.432 5.496 6.008 13.03 12.288 14.49-1.186 1.963-4.753 9.276-5.947 11.904-8.158 5.649-7.518-4.13-10.164-8.678-1.843-3.175-8.832-11.956-11.707-14.072-14.883-10.965-36.07-7.688-50.245 2.876-1.672 1.246-1.066 2.799-1.775 3.507s-2.483.375-2.935.93c-15.488 18.961-14.481 39.757-10.12 62.823l3.234.512c1.92 10.854 12.066 19.49 19.302 27.443 1.169 1.8 1.203 3.96.939 5.99-.478 3.67-4.31 10.863-5.556 15.352-.469 1.698-.11 3.421-.392 4.48C52.685 533.7 45.355 570.974 45.67 620.919 8.823 591.36-8.994 539.273 4.506 493.474c5.248-17.826 19.712-35.268 21.418-53.956 1.997-21.914-6.792-32.743-11.57-52.07-10.642-43 1.962-92.229 37.358-120.491 22.007-17.57 48.034-21.666 75.281-16.947z"/><path fill="#70b23c" d="M454.246 97.271v7.928l11.776 4.113.06 7.706c-8.84-1.084-8.9 7.944-15.053 11.741l-26.487 2.279c1.084 8.49-.546 11.844-6 17.792 6 .503 11.094 4.804 13.885 9.924-49.852-14.387-88.935-14.524-135.56 10.223-19.133 10.155-41.353 31.25-54.887 48.256-4.267 5.368-7.484 12.817-11.827 17.92-5.615 6.605-14.67 11.119-20.899 16.785-27.707 25.19-53.188 51.968-73.3 83.388-1.69 2.645-2.86 7.287-4.976 8.909-4.864 3.729-4.429-3.277-5.973-4.984 1.1-12.322-1.357-26.47.051-38.63 1.05-9.122 6.28-20.429 7.842-29.841.845-5.07-.99-10.488 1.988-15.71l-7.901-5.077c3.379.588 6.604 1.143 9.915 1.988 4.01-19.14 16.453-38.264 30.712-51.661 1.553-1.46 5.069-5.103 5.393-5.359 10.479-8.235 29.67-16.896 42.65-19.925 10.367-2.424 20.496-2.048 30.83-4.864 27.887-7.595 34.219-32.657 51.03-52.113 20.027-23.185 58.035-37.325 88.388-34.757 21.376 1.81 48.691 18.45 68.343 13.97"/><path fill="#f5fed4" d="M206.319 896.606c5.606.614 4.924-1.16 1.971-4.95-12.655-16.238-23.21-35.217-30.805-54.476-4.745-12.04-8.747-36.787-13.824-45.68-6.187-10.82-21.436-22.766-29.688-33.783-5.017-6.69-12.254-17.715-16.597-25.054-19.038-32.196-29.372-68.667-37.973-104.84l1.954-4.924c1.45 5.265 2.858 10.838 4.932 15.898 10.12 24.678 24.576 53.657 39.014 76.023 9.063 14.038 20.335 28.578 33.408 38.98-.34-4.89.47-10.129.094-14.958-2.602-33.016 1.485-65.8 8.303-98.629l5.487-17.314c-.4 10.215.53 20.608.094 30.831-2.39 55.458 3.917 105.83 27.281 157.005 3.166 6.938 15.906 33.613 21.231 36.292l17.16-32.41c13.671-23.125 45.432-54.39 67.184-69.674 2.227-1.57 4.974-3.302 7.884-3.02l-37.717 44.586c-16.725 24.926-32.256 51.31-37.717 81.4 8.038 16.99 25.762 25.821 37.802 39.577l39.62 24.84c-20.727-3.037-35.797-3.532-54.946-11.494-12.518-5.205-46.378-16.887-54.144-24.2z"/><path fill="#f5fdd7" d="M724.002 928.341c3.55-5.828 9.455-9.864 13.97-14.84 1.288-1.416 1.399-3.344 2.397-4.59.794-.99 4.898-.333 5.504-7.381.538-6.23-6.17-26.19-8.951-32.717-17.374-40.935-40.568-60.544-68.463-92.203-1.963-2.227-4.745-3.277-3.968-6.937 1.305-1.315 9.881 5.623 11.81 7.022 30.285 21.94 59.494 49.86 77.866 82.79 2.279 4.08 4.062 11.359 6.469 15.352 1.28 2.125 2.756 2.646 5.034.99 1.681-1.22 12.604-20.019 14.277-23.407 14.737-29.918 23.594-66.645 27.375-99.567 3.737-32.563 2.85-60.825 0-93.295-.615-7.04.05-13.73-2.023-20.787 2.756-.47 2.705 3.32 3.482 5.436 1.408 3.874 2.867 7.936 3.968 11.904 8.132 29.26 12.97 64.657 14.455 94.635.47 9.548-.52 19.293-.085 28.842l17.886-18.807c21.265-29.67 42.163-64.418 56.516-100.182 2.816-7.022 4.745-14.609 6.93-21.836 3.063-.555 2.278 2.935 2.056 5.026-.888 8.32-5.914 26.607-8.423 35.217-15.385 52.89-42.94 100.258-80.017 140.143-5.598 29.081-15.3 59.187-30.634 84.403l5.947.981c-6.067 3.832-10.112 4.574-17.263 7.535-22.391 9.276-32.222 12.229-56.123 16.265z"/><path fill="#9cdf41" d="M559.369 168.678c-20.156 13.142-48.163 11.452-67.354 26.863-10.086 8.098-14.072 18.74-6.972 30.6 17.067 28.528 58.215 32.547 85.624 47.276 11.426 6.135 22.869 14.344 32.384 23.15l32.964 18.603c4.386 1.272 16.367-.717 21.197-2.04 3.234-.887 3.934-2.824 5.299-3.626 5.06-2.953 8.311-5.794 11.904-9.916 15.565-17.886 25.805-35.336 44.587-51.61 2.397-2.073 15.88-13.422 16.896-13.849 4.258-1.783 14.216-5.222 18.884-5.905 4.079-.597 8.678.273 12.851-.043 3.38 5.436 8.44 6.605 11.904 13.884.376.794.905 5.12 1.98 7.936.256 2.552-.384 5.513 0 7.936-13.099-1.45-25.711 2.56-35.738 10.931-1.613 1.349-1.476 3.601-2.38 4.497s-3.175.768-4.498 2.381c-13.772 16.751-14.046 36.924-36.036 49.306-19.166 10.786-32.794 9.173-52.855 12.595-4.241.725-8.662 3.729-12.69 5.163-6.502 2.32-18.97 5.683-23.978 10.735-.87.878-.947 3.182-2.304 4.573-5.393 5.547-9.498 9.336-13.662 16.145-9.276 15.156-13.252 33.528-24.073 47.326-22.604 28.843-49.117 23.97-77.312 39.714-13.081 7.305-25.873 21.607-37.768 28.681l-3.832-.102c-2.099-3.857-1.297-8.645-2.397-12.57-.717-2.543-3.533-2.91-3.695-3.2-.52-.981-.333-3.405-1.528-5.35-6.46-10.522-16.614-18.142-27.52-24.116-5.982-3.276-4.744-.853-8.985-5.768-.717-.836-5.974-2.39-8.62-4.403-8.25-6.28-18.388-25.054-20.41-35.124-3.346-16.682-1.673-36.369-17.92-46.498.656-6.622-10.104-11.759-16.146-14.643-19.499-9.301-40.704-9.182-55.603-27.7-17.596-21.87-14.797-65.706-55.5-60.526.332-1.16-.462-3.277.059-4.821 3.243-9.558 5.93-18.586 17.195-20.574 15.872-2.8 16.964 3.703 28.339 8.61 2.159.93 5.743.717 5.973.913.154.128-.136 2.287.99 3.883 3.183 4.514 9.284 8.524 12.936 12.936 11.631 14.055 18.842 32.145 29.714 46.652.29.392-.188 2.543.972 3.908 4.779 5.607 8.653 8.371 14.9 11.964.187.102.187 1.4 1.262 1.715 3.917 1.152 10.053.683 14.328 2.654l1.468 3.635c7.586-1.502 10.64 5.555 15.675 9.84 6.264-8.824 16.862-20.242 26.778-24.782 4.48-2.048 14.882-1.766 20.48-3.32 17.664-4.906 19.55-17.723 32.043-27.46 12.108-9.437 27.562-13.252 42.683-13.849 1.16-4.881-1.024-3.14-2.602-4.3-7.86-5.786-26.198-17.469-28.851-26.727-1.152-4.01 1.723-10.163-2.262-12.612.196-4.19-.367-8.295.393-12.51 3.31-18.484 31.65-33.178 48.281-37.01 4.233-.972 6.75 1.989 2.893-4.036 13.372-.162 27.187 2.5 39.672 3.968zM529.62 430.49c4.037-1.58 8.27-1.98 12.604-4.259 9.122-4.787 23.049-19.498 26.172-29.363 2.637-8.345 8.815-38.084 13.158-43.46.444-.555 2.424-.017 3.123-.623 1.007-.87 1.835-5.256 3.5-7.543 3.66-5.027 20.027-18.176 25.855-19.823 2.97-.837 3.37 1.066 2.867-4.011-12.023-3.95-23.466-9.404-33.638-16.956-4.574-3.396-11.093-11.358-15.915-13.832-8.252-4.233-20.616-8.124-29.824-11.827-9.002-3.619-11.562-7.988-22.87-7.058-11.579.956-25.958 4.011-36.641 8.969-9.686 4.497-13.363 11.162-19.755 17.929-13.414 14.199-20.241 13.934-38.34 17.203-5.282.955-21.12 8.286-24.764 11.93-1.766 1.766-3.524 7.816-7.458 9.505l-.632.973c2.168 4.762 6.008 11.435 7.34 16.24 4.3 15.462 1.808 32.076 4.633 44.953.375 1.706 6.323 14.105 7.518 15.983 1.058 1.664 2.824.93 3.575 1.69s.324 2.508.853 3.012c4.523 4.3 24.167 10.316 31.318 15.402 4.83 3.43 13.329 12.408 16.973 16.657 3.421 3.985 6.05 8.474 9.94 12.024l2.928-.905c10.59-11.05 23.364-20.138 37.538-25.941 3.226-1.323 6.161-1.34 10.018-2.876 3.294-1.305 6.622-2.68 9.916-3.968z"/><path fill="#b6ee6e" d="M610.944 176.614c3.772.94 9.702 3.072 14.464 4.378 6.665 1.826 12.877 5.393 19.968 5.854l1.263 1.672c-4.326 1.51-.691 6.272.034 8.9 5.163 18.62 9.301 40.26 7.987 59.615-.367 5.367-3.515 10.709-2.073 16.768-1.23 1.373-9.908-5.684-11.81-7.023-21.496-15.156-45.748-32.88-70.119-42.94-1.945-.802-5.913-3.345-7.321-.615 23.705 16.794 47.513 34.031 67.473 55.501 6.886 7.407 13.866 17.297 20.744 24.875 2.97 3.277 5.735 6.87 10.957 5.905-1.365.802-2.065 2.74-5.3 3.627-4.838 1.33-16.81 3.31-21.196 2.04l-32.964-18.604c-9.524-8.797-20.967-17.006-32.384-23.15-27.4-14.729-68.557-18.748-85.624-47.275-7.1-11.87-3.114-22.503 6.972-30.6 19.191-15.412 47.19-13.722 67.354-26.864 17.024 2.006 34.918 3.798 51.566 7.936z"/><path fill="#5eac34" d="M432.435 158.763c6.503 1.877 15.019 4.369 21.76 7.023 4.42 1.74 5.24-.265 2.04 4.88-4.702.572-9.225 1.298-13.884 1.98-4.813.709-5.436.487-9.916 1.98-13.039 4.352-27.23 8.073-39.671 11.904-16.307 5.026-31.906 9.89-47.633 16.828-19.687 8.67-39.45 19.123-57.49 30.78-.23-.197-3.822.017-5.973-.913-11.375-4.907-12.467-11.41-28.339-8.61-11.264 1.988-13.952 11.016-17.195 20.573-.52 1.536.282 3.661-.06 4.822-1.783 6.127-5.563 18.97-8.976 23.748-9.003 12.62-38.255 39.979-50.526 51.618l-2.97-1.98c-5.598 3.926-1.237 5.06-.998 5.948.742 2.816-12.348 16.538-14.789 19.917-4.07 5.623-7.227 11.998-10.99 17.766-.521.802-4.702 3.891-5.948 5.948-6.28-1.46-9.856-8.994-12.288-14.49-1.408-3.183-5.53-13.721-5.624-16.375-.085-2.364 2.031-2.68 2.048-2.85 1.545 1.706 1.11 8.712 5.974 4.983 2.116-1.621 3.285-6.263 4.975-8.909 20.121-31.42 45.593-58.197 73.3-83.387 6.23-5.666 15.284-10.18 20.9-16.785 4.343-5.112 7.56-12.553 11.826-17.92 13.534-17.007 35.755-38.102 54.887-48.256 46.626-24.747 85.708-24.61 135.56-10.223"/><path fill="#b7ee6d" d="M519.706 164.71c3.857 6.025 1.34 3.064-2.893 4.037-16.632 3.831-44.97 18.526-48.282 37.009-.75 4.215-.196 8.32-.392 12.51-.034.657.06 1.33 0 1.98-3.73.426-9.14 1.143-12.51 2.372-21.555 7.833-41.353 19.217-61.841 29.397-2.279 1.135-3.499 2.901-6.972 1.946.384-6.81-.58-14.02.043-20.788.93-10.163 4.864-29.627 8.26-39.347.922-2.645 7.757-7.373.614-7.304-1.015.008-2.432-.23-2.97 0 12.442-3.832 26.633-7.552 39.672-11.904l8.747-.214 1.169-1.766c4.66-.683 9.182-1.417 13.884-1.98 20.283-2.457 43.306-5.709 63.47-5.948"/><path fill="#61ad38" d="m610.944 176.614 14.916-5.905c38.392-2.773 69.743 2.577 102.195 22.673 17.639 10.932 28.621 17.144 39.578 34.8-4.181.315-8.772-.555-12.851.042-4.668.683-14.626 4.122-18.884 5.905-23.126-12.954-45.696-27.332-70.016-38.084-5.146-2.279-11.64-5.163-17.255-5.555-.495-.922-.495-1.972-1.98-1.98l-1.262-1.673c-7.092-.46-13.304-4.027-19.968-5.854-4.762-1.305-10.693-3.438-14.464-4.377z"/><path fill="#7cc54e" d="M872.755 382.89c5.888 3.977 2.714.82 4.967-1.91 8.627-10.454 26.069-22.597 39.74-23.894 3.131-.299 13.661 1.817 16.878 2.893 7.467 2.491 17.596 11.511 21.453 18.218 9.805 17.076 7.637 37.905.7 55.697L942.43 453.59c-.538 2.202-.256 4.438-.248 6.656l-6.28.623c-8.354 8.337-26.317 19.021-32.376 29.142-3.865 6.46-6.553 18.338-9.898 25.804-10.795 24.116-29.38 46.67-54.545 56.525-22.648 8.866-49.408 5.982-69.368 21.871-12.56 10.001-21.214 32.657-31.786 45.568-22.016 26.897-53.914 41.054-88.346 44.544-19.106 1.937-32.307-2.295-51.917 5.598-17.775 7.16-25.873 20.241-39.245 32.222-13.593 12.185-30.54 19.055-46.549 28.766-35.149 21.325-73.233 75.895-61.235 118.562.887 3.14 7.688 14.703 5.606 17.203-5.367 1.11-3.285-1.45-4.855-3.994-23.817-38.545-26.385-81.962-8.627-123.537 2.099-4.923 10.146-11.067 5.555-17.254.93.102 1.834.094 2.739-.188 5.82-3.336 6.707-10.504 10.206-15.624 2.526-3.704 15.573-22.605 16.81-23.85.188-.189 2.91.323 4.941-1.938 15.215-16.922 28.024-44.083 44.638-59.546 2.79-2.594 6.613-5.017 9.916-7.936 8.9-7.867 18.696-16.742 29.756-21.82 4.352-1.996 12.689-5.077 17.834-6.963 26.454-9.702 45.048-9.77 63.488-34.688 2.125-2.875 5.829-10.811 7.936-13.883 18.023-26.326 32.768-47.582 61.483-63.471 3.814-2.108 10.71-6.588 13.884-7.936 2.782-1.178 9.25-3.226 11.904-3.968 5.999-1.673 15.223-2.509 21.82-3.968 7.722-1.707 17.518-2.219 24.439-4.327 12.322-3.746 24.508-15.104 33.118-24.396 12.006-12.945 22.468-27.879 33.638-41.728 4.924-6.11 11.477-11.205 15.684-18.1.3-1.51.478-3.157.222-4.667z"/><path fill="#7cc34f" d="M134.912 384.87c-.41.888-1.929 6.247-1.835 6.708 1.536 2.466 4.02 3.89 5.53 6.45 11.656 19.807 28.877 54.768 49.271 65.767 10.36 5.59 24.85 8.73 36.284 12.305 9.037 2.825 19.234 5.248 27.768 9.916 12.689 6.946 28.765 22.246 37.683 33.715 2.85 3.67 5.401 7.979 7.936 11.904 7.407 11.495 12.339 24.866 18.858 35.687 6.52 10.811 18.876 23.73 30.14 29.363 15.787 7.893 31.48 11.264 48.188 20.24 2.321 1.247 4.915 2.1 7.936 3.969 6.647 4.104 13.986 8.584 19.831 13.884 4.199 3.805 12.032 11.656 15.864 15.863 3.908 4.292 10.607 11.708 13.884 15.864 3.55 4.505 8.396 15.07 11.904 19.831-4.89 4.95-11.734 11.52-15.907 16.828-3.276 4.173-7.893 10.573-10.786 15.001-3.14 4.796-7.552 9.694-7.031 15.778-13.27-5.555-28.288-11.904-39.586-20.915-6.733-5.367-12.34-13.295-18.893-18.799-18.91-15.897-37.265-10.342-59.631-11.776-32.913-2.107-68.07-20.266-87.1-47.77-10.103-14.6-15.351-37.853-27.767-49.578-12.083-11.4-29.875-10.957-44.783-16.708-23.288-8.986-46.421-27.35-56.482-50.62-6.383-14.771-7.296-37.82-17.784-49.647-2.415-2.722-3.37-4.83-6.98-1.954.265-2.03.23-4.19-.939-5.99-7.227-7.962-17.382-16.59-19.302-27.444l-3.234-.512c-4.36-23.065-5.368-43.86 10.12-62.822.453-.555 2.219-.213 2.936-.93s.102-2.261 1.775-3.507c14.174-10.565 35.353-13.841 50.244-2.876 2.876 2.116 9.865 10.897 11.708 14.071 2.645 4.549 2.005 14.328 10.163 8.679z"/><path fill="#62b13c" d="M478.054 702.225c-1.237 1.246-14.284 20.156-16.81 23.85-3.499 5.13-4.386 12.297-10.206 15.625-.905.282-1.81.29-2.74.188-1.373-.145-14.352-6.468-17.851-7.936-.52-6.084 3.891-10.982 7.031-15.778 2.893-4.42 7.51-10.829 10.787-15.002 4.164-5.307 11.016-11.87 15.906-16.827.35.477 2.79 1.22 4.002 2.867 3.149 4.283 5.393 10.487 9.881 12.996z"/><path fill="#b3ee6c" d="M781.517 257.937c.52 3.311 1.928 3.738 1.98 3.968.384 1.74-.359 4.173.35 6.528 2.696 8.969 27.58 29.201 35.387 38.059 15.616 17.706 31.096 40.49 43.597 60.535.444 3.96-2.773 5.581-4.966 7.928-6.998 7.5-30.063 28.834-33.741 35.729-2.859 5.367-6.767 11.076-11.802 15.974-7.014 6.81-20.173 17.673-30.208 21.308-3.38 1.22-8.78 1.945-12.51 2.364.051-.657-.042-1.323 0-1.98 1.997-33.16-2.287-63.07-11.742-94.37-.819-2.705-.12-6.05-4.121-6.784.247 6.22-.393 12.57.034 18.799 1.997 29.022 3.396 53.145-2.022 82.355-.956 5.163-.103 4.94-.35 8.601-.384 5.769-6.605 16.734-7.586 23.134-2.654.743-9.114 2.79-11.904 3.968 1.322-4.463-2.322-6.246-3.593-9.301-2.125-5.086-3.183-11.887-6.323-16.478-10.65-15.573-21.607-32.546-33.681-46.652-11.836-13.832-26.718-25.898-39.706-38.639-.836 4.335.615 5.172 2.953 7.954 23.407 27.758 37.53 56.72 52.574 89.241.256.555-.265 1.468 0 1.98-4.498.879-6.836 4.855-9.942 6.92-22.51 14.96-32.614 28.621-47.317 51.857-2.253 3.559-5.64 8.704-2.253 12.621-1.946-1.297-3.499-2.227-5.948-3.968-21.205-15.053-46.558-31.795-70.818-41.25-5.632-2.193-12.313-4.6-18.432-4.369l45.534 28.843c10.906 9.95 23.057 18.568 33.8 28.672 1.357 1.271 2.646 2.662 3.969 3.968-3.96-.444-5.573 2.773-7.928 4.966-4.838 4.497-7.45 8.064-13.892 10.906-9.78 4.31-23.475 6.912-33.8 10.829-3.44 1.305-22.46 8.584-23.45 9.378-.555.443-.017 2.423-.623 3.123-.512.597-10.684 5.453-13.449 7.51-7.373 5.47-29.26 23.944-32.836 30.677-2.944 5.546-1.75 3.268-4.403 6.34-4.335 5.017-14.157 25.736-19.405 27.34-5.069-.759-7.074-8.004-9.967-11.801-14.83-19.465-28.715-34.193-48.512-47.684-5.23-3.567-10.556-7.535-15.957-10.82-2.808-1.707-8.465-1.98-9.686-6.273-1.476-5.196 8.628-16.563 10.838-22.51 5.81-15.625 8.021-28.852 17.809-43.674 2.901-4.395 12.578-13.133 13.91-15.838 1.936-3.95.946-10.914 5.204-15.59 3.576-3.013 7.535.247 10.36-.47 1.203-.307 1.126-1.775 1.237-1.843 11.896-7.074 24.687-21.367 37.769-28.68 28.194-15.744 54.707-10.88 77.312-39.715 10.82-13.806 14.805-32.17 24.072-47.325 4.173-6.819 8.27-10.607 13.662-16.145 1.357-1.391 1.434-3.695 2.304-4.574 5.01-5.052 17.476-8.406 23.979-10.735 4.028-1.434 8.44-4.446 12.689-5.163 20.062-3.422 33.69-1.809 52.855-12.595 22-12.382 22.264-32.563 36.037-49.306 1.33-1.613 3.592-1.476 4.497-2.38s.768-3.158 2.38-4.498c10.027-8.37 22.64-12.381 35.738-10.93z"/><path fill="#a2e453" d="M872.755 382.89c.248 1.52.077 3.158-.222 4.668-4.207 6.895-10.752 11.99-15.684 18.1-11.17 13.858-21.632 28.783-33.638 41.728-8.619 9.292-20.796 20.65-33.118 24.396-6.912 2.1-16.717 2.612-24.44 4.327 2.16-6.92 1.289-13.85 2.014-20.856.222-2.124 1.886-4.044 1.946-4.932 3.729-.418 9.13-1.143 12.51-2.364 10.035-3.635 23.202-14.498 30.208-21.307 5.034-4.89 8.943-10.607 11.801-15.975 3.678-6.903 26.744-28.228 33.741-35.729 2.193-2.355 5.41-3.968 4.966-7.927 2.79 4.48 9.012 10.368 9.916 15.863z"/><path fill="#76ba45" d="M783.505 261.897c-.051-.23-1.46-.658-1.98-3.968-.384-2.424.256-5.385 0-7.936.06.162 1.681.076 2.04 2.85s-.299 6.101-.06 9.054"/><path fill="#a1e252" d="M146.816 367.027c6.716 11.785 11.469 24.568 18.159 36.386 4.156 7.348 11.93 20.276 17.45 26.19 3.738 4.001 15.164 12.603 20.49 15.206 8.703 4.25 17.28 2.227 25.215 7.509 1.579 9.967 3.226 13.192-5.734 20.83l1.775 2.978c-11.444-3.576-25.925-6.716-36.284-12.305-20.395-11-37.615-45.96-49.272-65.767-1.51-2.56-3.993-3.985-5.53-6.45-.093-.462 1.426-5.82 1.836-6.708 1.194-2.62 4.761-9.933 5.947-11.904s5.427-5.146 5.948-5.948z"/><path fill="#b3ee6c" d="M236.075 250.001c40.704-5.171 37.905 38.665 55.5 60.527 14.9 18.517 36.105 18.406 55.604 27.7 6.041 2.883 16.802 8.02 16.145 14.642 16.256 10.13 14.575 29.824 17.92 46.499 2.022 10.077 12.16 28.842 20.411 35.123 2.646 2.014 7.894 3.575 8.62 4.403 4.24 4.915 3.003 2.492 8.985 5.768 10.905 5.965 21.051 13.594 27.52 24.116 1.194 1.945 1.007 4.369 1.527 5.35l-2.193 9.702c-3.473 1.818-8.636 1.562-11.725 3.158-.87.452-13.508 11.4-14.899 12.868-7.927 8.303-19.934 30.157-24.303 41.148-5.47 13.738-7.51 27.776-10.393 42.172-2.193.29-4.344.145-6.528-.325-14.413-3.089-28.963-11.955-38.008-23.483-7.279-9.268-11.955-21.65-17.886-31.693-1.8-3.055-2.048-6.503-6.954-5.94 1.792-1.058 4.215-3.012 5.947-3.967 20.796-11.486 41.165-21.095 64-28.237 2.014-.632 5.914-.845 5.419-3.499-4.241.222-8.61-.401-12.851.034-19.44 1.997-48.649 13.551-66.483 21.777-2.654 1.22-5.436 2.748-7.936 3.968 1.425-3.413 4.616-3.328 3.097-7.978-.708-2.176-7.1-10.676-9.011-12.886-5.214-6.024-17.818-17.561-24.397-21.222-3.439-1.912-9.404-3.874-13.32-5.521.247-.555-.248-1.442 0-1.98 15.607-33.963 42.982-66.1 70.374-91.281 3.857-3.55 10.65-6.05 12.928-11.861-5.393-.657-8.516 4.761-11.947 6.895-36.411 22.656-56.098 37.88-82.918 71.825-1.126 1.425.58 3.84-4.3 2.602.35-7.543-3.448-15.462-4.054-22.724-2.313-27.742 1.177-56.243 8.5-82.91 2.15-7.825 5.844-15.317 7.449-23.287-4.105 3.31-8.542 11.238-10.83 15.949-20.044 41.3-23.107 78.634-16.938 122.897.094.648-.102 1.34 0 1.98-7.944-5.283-16.512-3.26-25.216-7.51-5.325-2.603-16.75-11.204-20.488-15.206-5.521-5.914-13.295-18.842-17.451-26.19-6.69-11.826-11.435-24.6-18.159-36.385 3.763-5.769 6.92-12.143 10.991-17.767 2.45-3.379 15.54-17.11 14.788-19.917 2.671-.153 3.004-3.054 3.968-3.968 12.271-11.639 41.523-38.997 50.526-51.618 3.413-4.778 7.194-17.621 8.977-23.748z"/><path fill="#b6f16d" d="M519.706 434.458c-3.866 1.536-6.801 1.553-10.019 2.875-14.182 5.812-26.948 14.9-37.538 25.942l-2.927.904c-3.89-3.55-6.528-8.047-9.94-12.023-3.653-4.25-12.144-13.218-16.974-16.657-7.15-5.078-26.794-11.094-31.317-15.403-.53-.503-.128-2.278-.853-3.012s-2.518-.026-3.576-1.69c-1.195-1.869-7.142-14.276-7.518-15.983-2.824-12.868-.333-29.491-4.633-44.953-1.34-4.805-5.172-11.478-7.339-16.24l.631-.972c3.943-1.69 5.7-7.74 7.459-9.506 3.643-3.653 19.473-10.974 24.763-11.93 18.091-3.268 24.926-3.004 38.34-17.203 6.392-6.767 10.07-13.432 19.755-17.929 10.684-4.957 25.063-8.012 36.642-8.968 11.307-.93 13.859 3.43 22.87 7.057 9.207 3.703 21.572 7.595 29.824 11.827 4.821 2.475 11.34 10.445 15.914 13.833 10.172 7.543 21.607 12.996 33.639 16.955.503 5.086.102 3.175-2.867 4.011-5.829 1.638-22.187 14.788-25.856 19.823-1.664 2.287-2.492 6.673-3.5 7.543-.699.606-2.679.069-3.122.623-4.344 5.376-10.522 35.115-13.159 43.46-3.123 9.865-17.05 24.577-26.171 29.364-4.335 2.27-8.568 2.68-12.604 4.258-2.133-11.196 6.903-18.526 11.588-27.085 9.557-17.45 18.048-38.195 18.16-58.197l-5.044 7.842c-5.376 16.777-14.55 35.524-26.65 48.725-1.817 1.98-2.96 3.55-5.982 2.936-8.67-23.578-24.303-45.474-43.64-61.491.086 7.185 7.869 12.689 10.872 17.877 11.444 19.738 21.453 47.548 22.844 70.434.35 5.769 4.804 2.065 7.928 2.927z"/><path fill="#a1e456" d="M448.299 474.13c.153.29 2.978.656 3.695 3.2 1.1 3.916.298 8.712 2.397 12.569l3.832.102c-.111.068-.034 1.536-1.237 1.843-2.825.717-6.784-2.551-10.36.47-4.258 4.684-3.268 11.648-5.205 15.59-1.331 2.705-11.008 11.443-13.91 15.838-9.796 14.822-12.006 28.049-17.809 43.673-2.21 5.948-12.313 17.323-10.837 22.511 1.22 4.293 6.878 4.566 9.685 6.272 5.41 3.277 10.727 7.254 15.958 10.82l7.927 12.895c-2.816 5.316-6.972-.256-8.943 2.926l-.964 11.947c-5.845-5.3-13.184-9.78-19.831-13.884l1.766-1.169c1.672-7.893-.717-16.827-8.764-10.794l-.938 7.995c-16.709-8.968-32.41-12.347-48.188-20.24-11.264-5.633-23.62-18.552-30.14-29.364-6.52-10.82-11.452-24.192-18.859-35.686 2.825-2.953 7.083-3.311 9.89-4.975 2.671-1.579 5.36-3.405 7.962-4.941 4.907-.555 5.146 2.884 6.955 5.94 5.93 10.051 10.615 22.433 17.886 31.692 9.054 11.52 23.594 20.395 38.007 23.484 2.176.47 4.327.614 6.528.324 2.876-14.396 4.915-28.425 10.394-42.172 4.377-10.99 16.375-32.845 24.303-41.147 1.4-1.468 14.028-12.416 14.899-12.869 3.089-1.595 8.252-1.34 11.725-3.157l2.193-9.702z"/><path fill="#b6ed6c" d="M392.764 186.53c-.828.359-8.534 13.235-9.515 15.283-9.13 19.106-12.834 42.855-12.484 63.88-15.642 7.11-26.496 21.146-39.492 31.916-10.872-14.507-18.083-32.598-29.714-46.652-3.652-4.412-9.753-8.423-12.936-12.937-1.126-1.595-.836-3.754-.99-3.882 18.04-11.648 37.803-22.102 57.49-30.78 15.735-6.93 31.325-11.802 47.632-16.828z"/><path fill="#b1ed6a" d="M468.13 218.266c3.994 2.44 1.11 8.601 2.261 12.612 2.654 9.259 21.001 20.94 28.852 26.726 1.57 1.16 3.763-.58 2.602 4.301-15.12.597-30.575 4.412-42.683 13.85-12.493 9.736-14.38 22.553-32.043 27.46-5.598 1.553-16 1.271-20.48 3.32-9.916 4.54-20.514 15.957-26.778 24.78-5.034-4.284-8.09-11.34-15.675-9.839l-1.468-3.635c-4.275-1.971-10.402-1.493-14.328-2.654-1.075-.316-1.083-1.604-1.263-1.715 5.257.546 6.06.58 9.592-3.294 15.215-16.657 29.466-32.205 47.846-45.389 16.615-11.912 35.67-23.15 53.726-33.544 6.648-3.832 8.96-.87 9.83-10.991.06-.657-.034-1.323 0-1.98z"/><path fill="#b9ef70" d="M735.898 234.13c-1.016.426-14.499 11.767-16.896 13.849-18.782 16.273-29.022 33.723-44.587 51.61 1.075-6.725-3.456-8.287-8.03-11.051.282-7.91-.017-15.83 0-23.74s1.11-15.411.051-23.68c-2.227-17.493-9.66-35.448-17.809-50.62 5.615.384 12.109 3.277 17.255 5.555 24.32 10.752 46.89 25.131 70.016 38.085z"/><path fill="#def9b5" d="M392.764 186.53c.529-.23 1.945.009 2.97 0 7.133-.06.307 4.668-.615 7.305-3.388 9.72-7.33 29.184-8.26 39.347-.623 6.758.35 13.969-.043 20.787 3.482.956 4.693-.81 6.972-1.946 20.48-10.188 40.277-21.563 61.84-29.397 3.371-1.22 8.782-1.945 12.51-2.372-.87 10.129-3.182 7.168-9.83 10.99-18.048 10.394-37.111 21.633-53.726 33.545-18.372 13.184-32.631 28.724-47.846 45.39-3.533 3.873-4.335 3.84-9.591 3.293-6.247-3.593-10.121-6.357-14.9-11.964-1.16-1.357-.682-3.515-.972-3.908 12.996-10.77 23.85-24.806 39.492-31.915-.35-21.017 3.353-44.766 12.484-63.88.981-2.048 8.687-14.916 9.515-15.283z"/><path fill="#eefccd" d="M648.627 190.498c8.15 15.164 15.582 33.127 17.81 50.62 1.057 8.269-.026 15.991-.052 23.68s.273 15.83 0 23.74c4.574 2.764 9.105 4.326 8.03 11.05-3.593 4.13-6.844 6.963-11.904 9.916-5.222.964-7.979-2.628-10.957-5.905-6.87-7.578-13.858-17.468-20.744-24.875-19.96-21.47-43.768-38.707-67.473-55.5 1.408-2.731 5.376-.188 7.321.614 24.363 10.06 48.623 27.784 70.119 42.94 1.911 1.348 10.59 8.405 11.81 7.023-1.442-6.06 1.706-11.41 2.073-16.768 1.314-19.354-2.824-40.995-7.987-59.614-.725-2.629-4.352-7.39-.034-8.9 1.493.016 1.485 1.066 1.98 1.98z"/><path fill="#eefdcb" d="M519.706 434.458c-3.132-.862-7.578 2.841-7.928-2.927-1.39-22.887-11.4-50.697-22.844-70.434-3.012-5.189-10.794-10.693-10.871-17.878 19.336 16.017 34.97 37.914 43.64 61.491 3.02.615 4.172-.955 5.981-2.935 12.1-13.201 21.265-31.949 26.65-48.725l5.043-7.843c-.11 20.003-8.593 40.747-18.159 58.198-4.693 8.559-13.721 15.889-11.588 27.085-3.294 1.288-6.63 2.662-9.916 3.968z"/><path fill="#5ba534" d="M176.563 325.367c-.964.914-1.288 3.815-3.968 3.968-.239-.887-4.6-2.022.999-5.947z"/><path fill="#70b23c" d="m442.35 172.646-1.168 1.767-8.747.213c4.48-1.493 5.103-1.28 9.916-1.98"/><path fill="#a2e558" d="M610.944 571.315c-1.46 2.995-4.335 6.084-7.305 7.57-7.466 3.745-16.904 4.718-24.533 7.201-4.121 1.349-6.63 6.068-9.088 6.776-2.722.785-5.606-.333-8.712 1.203-.982.486-9.55 9.464-9.703 10.214l1.826 8.687c4.54-2.696 9.421-11.025 13.884-1.98-11.05 5.078-20.847 13.953-29.756 21.82l-3.968-9.915-11.827 4.044c-1.809 6.99 2.73 8.824 5.88 13.799-16.615 15.47-29.432 42.632-44.638 59.545-2.04 2.262-4.762 1.75-4.941 1.938-4.48-2.51-6.733-8.713-9.882-12.997-1.211-1.647-3.652-2.39-4.002-2.867-3.507-4.762-8.354-15.334-11.904-19.831l4.07-5.018-2.175-7.902c-.035-4.864 6.912-3.089.136-11.92-1.809-2.356-4.983-4.626-7.15-6.836-3.226 2.1-7.595 3.055-10.795 4.864-4.293 2.432.861 4.113 2.705 5.316 4.411 2.867 3.805 3.499-.683 5.64-3.832-4.206-11.665-12.065-15.864-15.863l.965-11.946c1.97-3.183 6.135 2.389 8.943-2.927l-7.928-12.894c19.798 13.49 33.673 28.22 48.512 47.684 2.893 3.797 4.898 11.034 9.967 11.802 5.248-1.596 15.07-22.324 19.405-27.341 2.654-3.072 1.46-.785 4.403-6.34 3.576-6.733 25.464-25.208 32.836-30.678 2.765-2.056 12.928-6.912 13.449-7.51.606-.699.068-2.679.623-3.122.99-.794 20.01-8.073 23.45-9.378 10.325-3.917 24.02-6.511 33.8-10.83zm-146.782 77.363h-3.96v2.97l2.97 2.978h.982v-5.948z"/><path fill="#a2e551" d="M706.15 474.13c-1.288 3.703 1.306 4.71 1.98 5.947 1.963 3.567 4.446 7.023 4.02 11.853l5.896.05c-28.715 15.89-43.46 37.146-61.483 63.472-.017-6.016-7.356-8.866-11.904-11.904-3.388-3.926 0-9.071 2.253-12.621 14.703-23.236 24.806-36.898 47.317-51.857 3.106-2.065 5.436-6.042 9.942-6.92.81 1.604 1.792 1.706 1.98 1.98"/><path fill="#a2e455" d="M632.764 555.452c4.565 4.53 8.968 13.175 15.863 13.883-18.449 24.918-37.034 24.995-63.488 34.688-5.137 1.886-13.482 4.958-17.834 6.964-4.463-9.046-9.336-.717-13.884 1.98l-1.826-8.688c.153-.742 8.72-9.728 9.702-10.214 3.115-1.536 5.99-.41 8.713-1.203 2.457-.708 4.966-5.436 9.088-6.776 7.628-2.491 17.058-3.464 24.533-7.202 2.97-1.485 5.845-4.574 7.304-7.569 6.443-2.841 9.046-6.4 13.893-10.905 2.355-2.185 3.968-5.41 7.927-4.967z"/><path fill="#caea92" d="M731.93 484.045c-3.175 1.34-10.07 5.828-13.884 7.936l-5.897-.051c.418-4.83-2.056-8.286-4.019-11.853 1.1-3.798-.896-4.378-1.98-5.948-.187-.273-1.169-.384-1.98-1.98-.264-.52.257-1.433 0-1.98 6.512-.605 11.103-6.562 17.801-6.007l.051-5.896c3.14 4.59 4.199 11.392 6.324 16.477 1.271 3.055 4.915 4.839 3.592 9.302z"/><path fill="#cae895" d="M751.77 448.341v3.968c1.322 1.366 15.112-2.534 17.851-3.968-.042.657.052 1.323 0 1.98-.068.888-1.723 2.808-1.945 4.932-.734 7.006.145 13.935-2.014 20.856-6.596 1.459-15.82 2.287-21.82 3.968.981-6.4 7.202-17.366 7.586-23.134.248-3.67-.614-3.439.35-8.602z"/><path fill="#cae698" d="M638.711 539.58c2.458 1.74 4.003 2.67 5.948 3.968 4.548 3.038 11.879 5.88 11.904 11.904-2.108 3.072-5.802 11.008-7.936 13.883-6.895-.708-11.298-9.352-15.863-13.883-1.323-1.306-2.611-2.697-3.968-3.968l3.729-.197c.4-4.096 3.865-5.836 5.939-8.994z"/><path fill="#a2e455" d="M527.633 640.742c-3.149-4.983-7.688-6.818-5.88-13.798l11.828-4.045 3.968 9.916c-3.303 2.918-7.126 5.342-9.916 7.936z"/><path fill="#a5e455" d="M259.874 464.213c3.917 1.647 9.882 3.61 13.32 5.521 6.588 3.661 19.184 15.198 24.397 21.223 1.912 2.21 8.303 10.71 9.012 12.885 1.51 4.65-1.673 4.565-3.098 7.979-4.36 2.133-11.921 3.516-13.884 7.936-8.917-11.478-25.002-26.77-37.683-33.715.546-7.365 4.881-14.968 7.936-21.82z"/><path fill="#cbe69d" d="M259.874 462.225c-.247.546.248 1.434 0 1.98-3.046 6.852-7.39 14.455-7.936 21.82-8.533-4.677-18.73-7.092-27.767-9.916l-1.775-2.978c8.96-7.638 7.321-10.863 5.734-20.83-.102-.64.094-1.331 0-1.98l31.736 11.904z"/><path fill="#a1e456" d="M438.383 650.658c4.488-2.142 5.094-2.773.683-5.64-1.844-1.195-6.998-2.885-2.705-5.317 3.2-1.809 7.569-2.764 10.794-4.864 2.168 2.21 5.342 4.48 7.151 6.836 6.776 8.832-.18 7.065-.136 11.92l2.176 7.902-4.07 5.018c-3.286-4.164-9.976-11.58-13.885-15.863z"/><path fill="#cce89d" d="m311.441 507.844.307 3.72 3.354.496.341 5.666 5.914.034c-1.732.956-4.156 2.91-5.948 3.968-2.603 1.536-5.29 3.362-7.962 4.94-2.807 1.665-7.065 2.032-9.89 4.976-2.526-3.926-5.077-8.235-7.936-11.904 1.963-4.412 9.524-5.803 13.884-7.936 2.5-1.22 5.282-2.748 7.936-3.968z"/><path fill="#b3ee6c" d="M402.68 620.902c-3.021-1.86-5.615-2.722-7.937-3.968l.94-7.995c8.046-6.033 10.435 2.901 8.763 10.794z"/><path fill="#f1fdcd" d="M704.162 470.161c-15.044-32.52-29.175-61.474-52.574-89.242-2.338-2.773-3.789-3.61-2.952-7.953 12.979 12.74 27.87 24.807 39.705 38.64 12.066 14.105 23.032 31.078 33.681 46.651l-.05 5.897c-6.7-.555-11.29 5.401-17.801 6.007z"/><path fill="#effdc7" d="M769.621 448.341c-2.739 1.434-16.529 5.334-17.851 3.968v-3.968c5.418-29.21 4.027-53.324 2.022-82.355-.427-6.23.205-12.578-.034-18.799 4.002.743 3.302 4.08 4.121 6.784 9.455 31.3 13.74 61.21 11.742 94.37"/><path fill="#eefdc9" d="m638.711 539.58-.247 2.713c-2.082 3.158-5.538 4.898-5.94 8.994l-3.728.197c-10.744-10.104-22.904-18.722-33.8-28.672l-45.535-28.843c6.119-.23 12.809 2.168 18.432 4.37 24.26 9.454 49.613 26.188 70.818 41.25z"/><path fill="#f1fdce" d="M228.139 450.33c-6.17-44.263-3.115-81.596 16.938-122.897 2.287-4.702 6.725-12.638 10.83-15.95-1.605 7.98-5.3 15.463-7.45 23.288-7.33 26.667-10.812 55.168-8.5 82.91.606 7.262 4.404 15.19 4.054 22.724 4.88 1.23 3.183-1.186 4.3-2.602 26.82-33.954 46.507-49.17 82.919-71.825 3.43-2.134 6.553-7.552 11.947-6.895-2.287 5.81-9.071 8.311-12.928 11.861-27.392 25.173-54.767 57.31-70.375 91.281l-31.735-11.904z"/><path fill="#ecfcc8" d="M311.441 507.844c17.843-8.226 47.044-19.78 66.483-21.777 4.241-.435 8.61.18 12.851-.034.495 2.654-3.404 2.867-5.418 3.499-22.835 7.142-43.204 16.75-64 28.237l-5.914-.035-.341-5.666-3.354-.495-.307-3.72z"/><path fill="#a1e456" d="M464.162 648.678v5.948l-.981-.008-2.978-2.979v-2.96z"/><path fill="#b3ee6c" d="M708.13 480.077c-.683-1.238-3.277-2.244-1.98-5.948 1.084 1.579 3.09 2.15 1.98 5.948"/></svg>