<svg xmlns="http://www.w3.org/2000/svg" viewBox="0 0 1024 1024"><path fill="#e69634" d="M366.094 346.547c75.06-14.652 107.264-91.503 173.927-121.045 102.852-45.585 185.83 46.916 265.497 95.428l9.49 15.01-3.79 10.112-50.406 11.102c66.671 63.488 136.687 124.604 212.395 178.074 10.172 7.185 44.655 25.386 48.734 32.05 2.022 3.295 1.758 5.104 2.005 8.457-13.389 11.768-39.953 10.351-57.199 8.389-21.41-2.432-41.566-16.563-60.33-20.31-12.382-2.474-28.263-.665-40.91-5.777-9.378-3.797-19.123-21.982-26.726-24.209-9.404-2.747-23.091.896-33.416-.537-5.666-.785-58.13-30.806-65.681-36.182-41.302-29.371-81.707-118.878-131.013-37.427-37.17 61.397-57.036 136.49-100.582 196.506-7.987 11.008-21.018 22.144-29.414 34.244-5.846 8.43-8.235 18.987-14.883 27.563-10.18 13.132-62.472 55.16-77.687 62.37-40.073 18.986-88.465 15.454-126.003-7.382l-51.038-44.458c-10.556-25.13-18.773-51.354-29.713-76.4 7.031-4.317 4.983-20.428 4.138-27.485-3.2-26.76-23.637-69.504-44.381-87.177-22.81-19.43-51.806-24.09-72.039-51.037-8.064-10.744-9.822-21.197-15.65-31.036-11.563-19.533-30.165-31.207-33.271-55.85-1.374-10.923.972-23.032 0-34.126-.444-5.068-4.284-5.751-4.31-6.127-1.211-14.506.965-30.122.188-44.748-.47-8.79-5.103-15.386-4.702-25.344 1.16-29.133 30.131-67.448 55.629-80.393 6.118-3.106 47.812-15.599 50.748-15.036.367.069 1.1 3.968 6.16 4.267 17.298 1.041 30.2-.623 46.354 9.003 15.633 9.327 30.865 35.447 45.141 43.99 14.114 8.447 35.968 10.87 50.79 21.367 21.871 15.488 19.081 34.508 32.052 52.83 15.104 21.316 38.46 28.356 63.786 25.642 5.137-.555 5.76-4.241 6.127-4.31zm198.247-96.7c-17.238 2.373-38.417 13.398-51.9 24.474-13.653 11.221-41.276 45.5-8.448 46.95 25.07 1.11 32.375-18.944 49.024-31.829 6.75-5.222 42.248-25.173 42.24-29.892-8.943-12.45-16.666-11.665-30.916-9.694zm85.546 28.229c.683-.691 4.864-12.135 4.523-13.756-1.886-8.994-21.214-16.82-27.443-7.04l-1.8 21.197c7.201 2.483 18.756 5.615 24.72-.401m-491.759-7.92-36.147 21.138C93.061 316.04 76.5 345.429 62.42 380.288l4.497 12.954c3.968.99 13.329-5.556 17.05-8.397 20.283-15.471 60.603-64.52 68.983-88.047 3.106-8.721 6.494-17.05 5.17-26.65zm466.765 38.085c4.241-24.465-16.102-28.945-29.517-10.257 4.728 17.271 15.531 15.83 29.517 10.257m-386.125 25.583c-6.434-1.203-10.274.862-15.718 3.38-41.472 19.14-85.64 93.14-96.964 136.498-2.023 7.732-1.963 7.62 4.488 12.92 28.997-11.503 43.034-42.308 61.432-65.877 6.331-8.107 17.348-14.968 23.313-23.373 6.178-8.696 30.361-56.542 23.45-63.548m218.624.384c-15.863 7.381-46.054 39.518-44.842 56.9 1.143 16.359 19.131 10.505 27.998 2.313 6.425-5.94 27.596-37.078 27.613-44.783l-10.777-14.43zm69.974 194.842c8.644-27.99 2.432-62.097-5.274-90.206-6.041-22.033-17.4-54.469-37.145-66.825-3.294 53.436 5.777 97.895 31.786 144.333 2.663 4.745 4.122 11.708 10.633 12.698M353.363 410.214c-28.544 3.09-43.981-.836-63.65-21.222 4.258 18.825-5.146 32.589-8.44 48.862-1.246 6.135.896 13.26-.853 20.36-10.411 42.112-37.283 79.113-28.903 125.995l19.021-50.987c14.293-28.091 31.82-55.415 51.174-80.392 4.182-5.393 37.777-37.018 31.642-42.616zM99.053 433.52c0-6.059-4.908-10.965-10.966-10.965S77.12 427.46 77.12 433.519s4.907 10.965 10.966 10.965 10.965-4.906 10.965-10.965m292.505-10.573c-20.728-3.78-47.224 21.965-50.876 40.354-.853 4.31-.393 10.863-.828 16.248-.213 2.602-6.041 9.173 2.936 11.306 16.281 3.875 52.813-49.757 48.768-67.916zm8.499 8.49c-11.426 33.23 1.835 66.928 8.397 99.824 1.211 6.075-.572 13.013.973 20.25 6.417 30.02 19.182 64.947 39.432 87.876 14.635-12.869 2.73-34.083 1.937-48.606-1.416-25.959 4.113-53.965-6.007-78.874-3.132-7.705-9.993-13.167-13.073-20.88-8.15-20.396-7.663-47.685-31.65-59.59zm333.175 12.733c-12.143 7.85-3.84 22.63 4.062 29.866 14.14 12.945 42.684 13.15 36.088-10.632-2.5-9.012-16.128-5.231-22.63-7.074-6.102-1.724-10.701-14.157-17.52-12.169zm-532.42 28.066c0-7.527-6.101-13.637-13.636-13.637s-13.636 6.102-13.636 13.637 6.1 13.636 13.636 13.636 13.636-6.101 13.636-13.636m594.15 39.637c31.429 6.28 34.407-21.666 6.153-25.438-16.154 3.055-9.566 14.003-6.152 25.438M162.37 495.104c-6.212-.649-19.225-.853-21.205 6.374-5.453 19.9 28.382 21.197 21.205-6.374m386.228 4.241c-.649 6.212-.854 19.226 6.374 21.205 19.9 5.453 21.197-28.381-6.374-21.205M175.11 541.781c33.655 9.148 33.271-32.725 6.51-25.31l-4.54 3.951-1.979 21.368zm178.27 165.53c7.91 1.271 11.895-3.618 12.842-10.488 4.054-29.371-4.181-76.27-14.916-104.166-2.082-5.41-23.313-51.695-31.89-42.376-1.117 38.067.897 78.848 14.79 114.645 5.47 14.097 16.597 27.068 19.174 42.385m129.775-84.557c-15.83 4.65-16.436 35.815 7.995 29.218 8.005-2.159 7.33-16.239 6.23-22.912-3.49-5.777-7.34-8.328-14.225-6.306m-19.107 48.435c0-6.058-4.906-10.965-10.965-10.965s-10.965 4.907-10.965 10.965 4.906 10.966 10.965 10.966 10.965-4.907 10.965-10.966m-153.3 61.756c-10.403-3.934-14.695-3.942-25.115 0l1.801 21.197c19.405 12.706 26.906-2.714 23.313-21.197"/><path fill="#cb6f25" d="M1023.937 575.735c1.494 20.463-23.296 26.18-40.38 29.654-44.85 9.105-76.74-4.728-118.86-.017-28.894 3.234-33.698-15.6-51.644-24.593-16.128-8.081-39.859-4.677-56.388-15.761-17.178-11.52-25.42-38.272-45.414-43.708-5.078-1.383-10.872.077-15.66-1.323-13.584-3.968-23.261-52.522-46.762-45.798-14.558 4.164-36.284 72.277-42.871 88.892-3.465 8.738-12.51 20.343-14.234 28.21-2.33 10.608 1.502 23.425-1.22 32.726-3.32 11.332-36.241 28.928-41.233 52.139-1.647 7.646.998 15.41-2.688 22.775-3.738 7.458-24.969 20.31-27.307 27.964-2.807 9.216 3.815 14.618 3.908 20.796.3 19.771-29.44 24.815-42.393 33.996-17.818 12.63-30.157 38.528-48.836 53.027-33.383 25.932-80.683 38.545-121.106 23.321-59.92-22.562-79.095-75.452-101.794-129.51l51.038 44.458c37.538 22.836 85.922 26.368 126.003 7.382 15.215-7.21 67.508-49.238 77.688-62.37 6.647-8.576 9.037-19.124 14.882-27.563 8.397-12.1 21.427-23.245 29.414-34.244 43.546-60.015 63.412-135.109 100.583-196.506 49.314-81.45 89.72 8.056 131.012 37.427 7.552 5.376 60.015 35.388 65.681 36.182 10.325 1.433 24.013-2.21 33.417.537 7.603 2.219 17.348 20.412 26.726 24.21 12.638 5.11 28.518 3.31 40.909 5.776 18.765 3.747 38.92 17.878 60.33 20.31 17.246 1.962 43.81 3.379 57.2-8.389"/><path fill="#c96d26" d="M366.094 346.547c-.367.068-.99 3.755-6.127 4.31-25.327 2.713-48.682-4.327-63.786-25.643-12.98-18.321-10.18-37.342-32.052-52.83-14.822-10.496-36.676-12.92-50.79-21.367-14.276-8.542-29.5-34.671-45.141-43.99-16.145-9.625-29.056-7.961-46.353-9.002-5.052-.308-5.794-4.199-6.161-4.267 29.764-43.102 92.706-46.985 125.098-4.139 8.226 10.88 6.34 22.861 25.566 25.361 17.493 2.279 24.252-2.312 41.856 9.071 18.466 11.93 24.21 27.588 28.083 48.307 1.22 6.511-1.237 14.038.606 20.617 1.212 4.318 18.125 19.174 22.64 28.288 3.686 7.441 6.783 16.862 6.544 25.284z"/><path fill="#cb7026" d="M179.35 652.126c-10.657-24.397-27.946-55.117-48.733-72.226-22.28-18.338-54.34-29.765-77.807-47.377-11.06-16.896-10.428-33.997-14.225-51.576-3.115-14.447-20.37-18.68-29.09-30.327-17.63-23.56-7.458-66.048 4.326-91.333.034.376 3.866 1.059 4.31 6.127.98 11.085-1.374 23.203 0 34.125 3.106 24.644 21.717 36.318 33.271 55.85 5.828 9.848 7.578 20.302 15.65 31.037 20.241 26.956 49.237 31.607 72.039 51.037 20.744 17.673 41.181 60.416 44.381 87.177.845 7.057 2.893 23.168-4.138 27.486z"/><path fill="#ba5d24" d="M400.057 431.437c23.987 11.912 23.492 39.193 31.65 59.588 3.08 7.714 9.941 13.176 13.073 20.881 10.12 24.909 4.591 52.915 6.008 78.874.793 14.523 12.697 35.737-1.937 48.606-20.25-22.92-33.016-57.848-39.433-87.877-1.545-7.236.239-14.174-.973-20.25-6.562-32.895-19.814-66.593-8.397-99.822z"/><path fill="#c05f26" d="M238.768 333.824c6.912 7.006-17.271 54.86-23.45 63.548-5.973 8.397-16.99 15.257-23.312 23.373-18.398 23.569-32.435 54.374-61.432 65.877-6.45-5.3-6.502-5.188-4.488-12.92 11.332-43.366 55.492-117.359 96.964-136.499 5.436-2.509 9.284-4.574 15.718-3.379"/><path fill="#d17827" d="M353.363 410.214c6.126 5.607-27.47 37.223-31.642 42.616-19.354 24.977-36.881 52.3-51.174 80.392l-19.021 50.987c-8.38-46.882 18.483-83.883 28.902-125.995 1.758-7.1-.384-14.225.853-20.36 3.294-16.282 12.698-30.037 8.44-48.862 19.67 20.386 35.098 24.32 63.65 21.222z"/><path fill="#be5f25" d="M353.38 707.31c-2.577-15.316-13.705-28.287-19.175-42.384-13.892-35.806-15.906-76.578-14.788-114.645 8.576-9.319 29.807 36.966 31.889 42.376 10.735 27.896 18.978 74.803 14.916 104.166-.947 6.87-4.94 11.76-12.842 10.488"/><path fill="#ba5d25" d="M158.128 270.157c1.323 9.591-2.065 17.92-5.17 26.65-8.39 23.526-48.71 72.575-68.984 88.046-3.72 2.842-13.09 9.387-17.05 8.397l-4.497-12.953c14.089-34.86 30.643-64.248 59.563-88.995l36.147-21.137z"/><path fill="#c06126" d="M527.366 529.05c-6.511-.982-7.979-7.945-10.633-12.698-26.01-46.438-35.08-90.897-31.786-144.333 19.746 12.356 31.104 44.792 37.145 66.825 7.706 28.109 13.918 62.216 5.274 90.206"/><path fill="#f4b44b" d="M564.34 249.847c14.251-1.962 21.983-2.756 30.917 9.694.008 4.72-35.49 24.67-42.24 29.893-16.649 12.885-23.962 32.938-49.024 31.829-32.828-1.45-5.205-35.73 8.448-46.95 13.474-11.077 34.662-22.102 51.9-24.474z"/><path fill="#f4b44a" d="M391.558 422.946c4.045 18.16-32.487 71.783-48.768 67.917-8.977-2.133-3.15-8.704-2.936-11.307.435-5.384-.025-11.938.828-16.247 3.652-18.398 30.157-44.135 50.876-40.354z"/><path fill="#f3b248" d="m457.392 334.208 10.778 14.43c-.017 7.705-21.197 38.844-27.614 44.783-8.866 8.192-26.863 14.046-27.998-2.313-1.211-17.382 28.98-49.519 44.843-56.9z"/><path fill="#d27a27" d="M733.232 444.169c6.819-1.997 11.427 10.444 17.52 12.168 6.502 1.835 20.13-1.937 22.63 7.074 6.596 23.774-21.948 23.57-36.088 10.633-7.91-7.237-16.205-22.016-4.062-29.867z"/><path fill="#cc7424" d="M649.887 278.076c-5.964 6.016-17.519 2.884-24.72.4l1.8-21.196c6.22-9.78 25.549-1.963 27.443 7.04.341 1.621-3.84 13.073-4.523 13.756"/><path fill="#cf7423" d="M483.155 622.754c6.886-2.022 10.734.53 14.225 6.306 1.092 6.673 1.775 20.753-6.23 22.912-24.43 6.597-23.825-24.567-7.995-29.218"/><path fill="#cd7626" d="M310.747 732.945c3.601 18.475-3.908 33.903-23.313 21.197l-1.8-21.197c10.419-3.942 14.71-3.934 25.113 0"/><path fill="#cd7423" d="M794.963 511.872c-3.414-11.435-10.002-22.383 6.152-25.438 28.262 3.772 25.276 31.719-6.152 25.438"/><path fill="#cb7220" d="m175.11 541.781 1.98-21.367 4.54-3.951c26.751-7.407 27.144 34.458-6.512 25.31z"/><path fill="#c87122" d="M624.893 308.241c-13.986 5.572-24.79 7.014-29.517-10.257 13.415-18.688 33.758-14.208 29.517 10.257"/><path fill="#c97124" d="M173.54 472.235a13.636 13.636 0 1 0 27.272 0 13.636 13.636 0 1 0-27.272 0"/><path fill="#c86d1f" d="M548.597 499.345c27.562-7.176 26.274 26.658 6.374 21.205-7.228-1.98-7.023-14.993-6.374-21.205"/><path fill="#cd7623" d="M162.37 495.104c7.176 27.563-26.659 26.274-21.206 6.374 1.98-7.227 14.993-7.023 21.205-6.374"/><path fill="#ce7525" d="M77.121 433.519a10.965 10.965 0 1 0 21.931 0 10.965 10.965 0 1 0-21.93 0"/><path fill="#cf7725" d="M442.118 671.19a10.965 10.965 0 1 0 21.93 0 10.965 10.965 0 1 0-21.93 0"/></svg>