<svg xmlns="http://www.w3.org/2000/svg" viewBox="0 0 1024 1024"><path fill="#230501" d="m783.175 227.71-2.628-3.003c-17.613 9.958-48.742 21-67.95 25.566l-10.582 2.517-23.628 4.54-8.21-.384c-.682-38.238 4.045-44.57-13.67-79.539l-12.305-24.286-6.238-11.673c-9.557-17.894-6.698-21.513-19.208-20.02-38.51 4.6-51.805 4.054-90.273 3.482l-22.69-.341-41.216-1.263-19.422-1.45-23.611-1.613c-4.634-.316-9.856-1.152-14.626-1.81l-6.793-.93-26.982-4.548-16.12-4.164c-3.686-5.29-9.915-7.885-16.665-8.704-4.36-2.432-9.805-5.675-14.276-6.844l-17.707-4.616-8.67-2.27c-1.254-.333-2.824-2.38-2.679-3.763l1.485-14.438 6.135 2.867 1.647.068c1.366 2.773 5.112 4.804 8.269 4.779.606 0 1.263-.111 1.647.094.273.793.384 1.612.913 1.62l2.321.052c.538 0 1.263-.051 1.647.06 1.707 2.287 5.402 3.558 8.286 3.106.537 0 1.237-.034 1.647.102.426.777 1.476 2.031 2.372 1.929l2.705-.307c56.49 12.544 124.876 17.177 184.122 17.006 18.219-.05 35.499.035 53.367-1.083 37.402-2.33 113.228-8.764 144.665-26.846l9.037-5.197c2.492 23.416 10.794 33.946 23.901 55.424l11.998 19.66c8.55 14.02 14.439 29.491 18.38 45.534 3.141 12.8 1.52 30.088 1.622 40.695z"/><path fill="#d6d4d2" d="m624.286 7.109.256 6.988c.273 7.484-6.725 11.35-14.285 15.488l-11.938 6.537c-1.442.793-3.149 1.894-4.02 2.534l-11.434 6.016-18.901 9.95.922 3.481c11.699.555 21.82.555 33.638-.844 4.556-.538 23.978-5.155 22.8-9.848-.17-.665-1.604-2.449-2.235-2.662l-13.184-4.531-3.772-2.893 10.215-6.349c3.695-2.304 11.477-2.347 16.315-1.604l11.844 1.817c20.293 3.115 46.558 10.13 63.701 20.847 2.253 1.408 4.779 2.304 7.04 2.569-22.033 10.718-61.08 17.732-87.056 18.91l-20.13.913c-.342.068 2.33-1.946 3.097-2.176l14.063-4.242c1.118-.332 15.514-8.703 16.393-11.588l.605-6.374c-3.43 3.063-8.601 8.345-13.337 9.907-11.887 3.925-23.85 6.92-36.113 7.117l-63.581 1.024c-18.68.298-34.304-.546-52.633-3.354-2.833-.435-8.329-5.23-8.2-7.927l.494-10.291c-2.918 1.126-7.467 4.07-10.018 7.006-1.604 1.843.102 8.755 2.38 9.745 5.957 2.585 12.178 3.865 18.603 4.505 3.08.307 7.629 1.28 9.95 1.357l29.363.913 8.73.264c2.355.069 6.075 1.92 8.465 2.944l8.268 3.533c1.75.751 5.94 1.195 7.8 1.11l-1.425 1.664c-27.093-1.016-43.742.742-70.92-.615l-11.75-.589-32.845-1.954-47.77-4.795-10.163-1.4c-12.1-1.672-52.155-8.15-58.862-15.65 20.42-20.25 101.478-29.329 130.158-30.344l49.288-1.75c2.73-.093 6.938-1.425 9.856-2.414l8.619-.086c1.732-.017 5.111 2.185 5.896 3.67a355 355 0 0 1-20.24 9.284l-12.127 5.128c-.469.196-2.082 2.338-1.783 2.756.444.623 2.449 2.62 3.217 2.654 22.622 1.041 16.256-4.975 45.064.777 1.579.316 5.863 3.03 7.518 2.858 6.835-.69 25.753-4.701 29.764-10.393l-35.02-4.728c-1.801-.247-4.31-1.075-7.058-2.116 15.369-12.62 44.57-7.688 63.462-4.753 2.407.376 7.194-3.823 7.834-6.477 2.005-8.277-39.082-8.516-44.33-8.234-3.44-1.05-6.434-2.45-10.855-4.693l-12.868 2.244c-6.997 1.22-14.788 1.066-22.272 1.203l-24.942.46c-2.578.052-8.244-.511-11.085-.87-1.425-.179-2.628-5.47-1.255-5.64 2.663-.341 8.056-1.007 10.778-.99l42.93.299 13.134.085 16.819-.043 1.476-2.073c13.994-.026 27.87-1.502 42.743 1.578l24.917 5.155z"/><path fill="#380902" d="m304.638 71.031-6.136-2.867-1.484 14.438c-.145 1.383 1.425 3.43 2.68 3.764l8.669 2.27 17.706 4.616c4.472 1.169 9.916 4.403 14.277 6.844 6.75.827 12.979 3.421 16.665 8.704l-13.491-2.885c-8.96-1.92-6.46 7.518-18.603 26.539l-15.377 24.09c-10.487 16.426-23.21 39.577-23.398 59.365l-.247 26.615c-9.088-2.184-18.424-5.196-27.494-9.65l-15.147-7.425-2.756.487c-.077-30.37-1.374-37.308 11.63-66.935 13.244-30.165 45.995-66.33 44.365-92.97 2.944.682 6.46 2.67 8.14 5"/><path fill="#f5f4f1" d="m730.909 44.851-.154 8.431c-21.043 19.31-76.765 29.175-104.925 31.863l-24.943 2.381-18.124 1.314-31.24 1.647c-25.472 1.34-50.262 1.212-75.716-.162l-21.36-1.152-48.792-3.968c-22.033-1.792-43.093-5.845-64.81-10.812-10.65-2.432-20.813-6.297-30.686-10.555-9.395-4.062-7.049-4.898-16.879-5.376-2.816-6.63-2.065-13.816 3.106-18.5l3.123.11c-.06 8.193 9.566 14.004 15.138 14.482 6.707 7.492 46.763 13.977 58.863 15.65l10.163 1.399 47.77 4.796 32.844 1.954 11.75.589c27.179 1.356 43.818-.401 70.92.614l1.425-1.664 18.355-.828 22.426-1.536 14.89-1.118 20.13-.913c25.976-1.177 65.024-8.192 87.057-18.91 3.08-.247 14.805-8.61 13.158-15.07l1.536-1.1c2.005 1.587 3.883 4.224 4.975 6.434"/><path fill="#b5b2b1" d="m556.625.376-1.476 2.073-16.819.043-13.133-.085-42.93-.299c-2.723-.017-8.116.657-10.778.99-1.374.17-.17 5.461 1.254 5.64 2.842.367 8.508.922 11.085.87l24.943-.46c7.483-.137 15.266.017 22.272-1.203L543.91 5.7c4.42 2.252 7.424 3.643 10.854 4.693l-3.345 1.1c-11.213 3.678-21.606 7.69-32.964 12.143-.785-1.484-4.164-3.686-5.896-3.669l-8.62.086c-2.917.98-7.116 2.312-9.855 2.414l-49.288 1.75c-28.689 1.015-109.747 10.095-130.158 30.344-5.564-.478-15.19-6.28-15.138-14.48l-3.123-.112c9.122-8.269 20.53-14.14 33.151-18.005 25.336-7.757 62.2-15.386 88.106-17.126l52.284-3.516c3.277-.222 7.373-.794 10.828-.802l75.861-.145z"/><path fill="#bdb7b4" d="m727.282 66.398-9.036 5.196C686.809 89.676 610.982 96.111 573.58 98.44c-17.869 1.118-35.149 1.033-53.367 1.084-59.247.17-127.64-4.463-184.123-17.007l-5.077-1.63c-.41-.128-1.11-.102-1.647-.102-.094-.145-2.193-1.391-2.91-1.596l-5.367-1.51c-.375-.111-1.11-.052-1.647-.06l-3.234-1.673c-.384-.196-1.041-.093-1.647-.093.051.017-1.314-1.152-1.724-1.366l-6.545-3.413-1.647-.068c-1.68-2.33-5.196-4.318-8.14-5l-3.217-7.561c9.83.469 7.475 1.314 16.878 5.376 9.873 4.266 20.036 8.123 30.686 10.555 21.717 4.967 42.777 9.02 64.81 10.812l48.793 3.968 21.36 1.152c25.454 1.374 50.243 1.51 75.715.162l31.24-1.647 18.125-1.314 24.943-2.38c28.16-2.689 83.882-12.553 104.925-31.864l.153-8.43c4.839 9.753-3.822 19.617-3.618 21.546z"/><path fill="#a19f9f" d="m725.934 38.417-1.536 1.1c1.655 6.46-10.078 14.832-13.158 15.07-2.262-.264-4.787-1.16-7.04-2.568-17.144-10.718-43.409-17.723-63.701-20.847l-11.844-1.817c-4.839-.743-12.621-.7-16.316 1.604l-10.214 6.349 3.771 2.893-7.125-2.51-4.48.948c.87-.649 2.577-1.75 4.02-2.534l11.937-6.537c7.56-4.139 14.558-8.004 14.285-15.488l-.256-6.989 13.065 1.05c25.574 2.048 67.805 13.798 88.575 30.259z"/><path fill="#481102" d="M678.387 257.33c-1.084 4.318-11.691-1.639-13.33 3.02l-39.466 4.677-18.04 1.604-19.796 1.476-32.956 1.75c-28.774 1.527-56.797 1.476-85.58-.018l-21.461-1.109-14.694-1.015-28.143-2.108c-4.489-.333-8.952-.82-13.235-1.382l-11.298-1.494-13.543-1.783c-2.355-.307-5.947-1.587-7.944-2.466l.7-21.018.87-24.635c3.797-12.45 8.44-23.731 14.558-34.987l10.598-19.464c4.574-8.397 17.22-33.178 14.49-40.849l6.792.93c4.762.649 9.984 1.494 14.626 1.81l23.612 1.612 19.421 1.45 41.216 1.264 22.69.341c38.468.572 51.763 1.118 90.274-3.482 12.51-1.493 9.65 2.117 19.208 20.02l6.238 11.673 12.305 24.286c17.723 34.969 12.987 41.3 13.67 79.538l8.21.384z"/><path fill="#7c3626" d="m357.015 108.8 16.12 4.164 26.982 4.548c2.73 7.671-9.916 32.452-14.49 40.849l-10.598 19.464c-6.127 11.256-10.76 22.528-14.558 34.987l-.87 24.635-.7 21.018-1.792.4c-23.8-2.124-47.744-9.659-70.698-14.805l-.512-1.553.247-26.615c.188-19.789 12.911-42.93 23.398-59.366l15.377-24.09c12.143-19.011 9.643-28.45 18.603-26.538l13.491 2.884z"/><path fill="#380902" d="M329.367 80.793c-2.884.453-6.579-.819-8.286-3.106l5.368 1.51c.725.205 2.816 1.443 2.91 1.596zm6.716 1.724-2.705.307c-.896.103-1.946-1.16-2.372-1.928l5.077 1.63zm-21.53-6.647c-3.157.025-6.911-2.006-8.268-4.779l6.545 3.413c.418.214 1.783 1.383 1.723 1.366m4.882 1.757-2.322-.05c-.529-.01-.64-.828-.913-1.622z"/><path fill="#82827f" d="M518.465 23.637c11.357-4.454 21.75-8.465 32.964-12.142l3.345-1.101c5.248-.282 46.344-.051 44.33 8.234-.649 2.654-5.436 6.853-7.834 6.477-18.9-2.935-48.093-7.867-63.462 4.753 2.757 1.041 5.257 1.869 7.058 2.116l35.02 4.728c-4.01 5.692-22.929 9.702-29.764 10.393-1.655.171-5.948-2.542-7.518-2.858-28.817-5.752-22.45.273-45.064-.777-.76-.034-2.773-2.04-3.217-2.654-.299-.41 1.314-2.56 1.783-2.756l12.126-5.128a361 361 0 0 0 20.241-9.285z"/><path fill="#9f9c9a" d="m604.053 74.41-14.89 1.118-22.426 1.536-18.355.828c-1.86.085-6.05-.358-7.8-1.11l-8.268-3.532c-2.39-1.024-6.118-2.876-8.465-2.944l-8.73-.265-29.362-.913c-2.322-.068-6.87-1.05-9.95-1.356-6.426-.64-12.647-1.92-18.603-4.506-2.278-.99-3.985-7.91-2.38-9.745 2.56-2.935 7.1-5.88 10.017-7.006l-.494 10.291c-.128 2.697 5.376 7.493 8.2 7.928 18.33 2.807 33.962 3.652 52.633 3.353l63.582-1.024c12.262-.196 24.217-3.191 36.112-7.116 4.736-1.562 9.9-6.844 13.338-9.908l-.606 6.375c-.879 2.884-15.274 11.247-16.392 11.588l-14.063 4.241c-.768.23-3.44 2.244-3.098 2.176z"/><path fill="#32332f" d="m605.905 40.21 13.184 4.53c.623.214 2.065 1.997 2.236 2.663 1.177 4.693-18.245 9.31-22.801 9.847-11.819 1.4-21.94 1.4-33.638.845l-.922-3.482 18.901-9.95 11.435-6.015 4.48-.948z"/><path fill="#d01717" d="m783.175 227.71.256 26.42.128 192.323-1.664 1.834c.017 108.458.017 229.938.026 328.804 0 3.934-1.664 6.477-1.843 6.46-18.1-20.864-30.08-32.367-55.697-45.406-10.291-5.239-20.523-9.608-31.701-13.354-6.759-2.261-21.222-4.864-22.434-6.912l.341-24.602.17-61.883-.332-36.94 1.203-9.89 6.025-8.312 3.14 10.035c1.007 3.217 9.054 5.632 12.552 3.926 6.597-3.217 11.938-6.64 17.468-10.334 1.015 4.54 5.163 9.301 10.189 8.542 17.8-2.68 40.004-42.71 33.843-39.953-7.27 3.242-11.162 18.722-23.228 24.977-.64.333-1.672-3.61-1.348-4.36l10.624-24.594 15.274-36.88-18.193.477c-12.663-8.422-29.909 9.029-36.198 19.217l-15.76 25.515-8.15 13.662c-1.894 3.174-7.347 8.362-11.23 9.881-7.424 2.901 2.338-26.504 4.147-30.583 3.047-6.852 16.137-17.877 23.194-26.317l14.976-17.903c8.362-9.992 15.385-20.624 22.476-31.41 5.496-2.433 12.527-5.223 17.084-9.25 7.484-6.622 23.142-23.561 24.345-32.82l-15.624 13.253c-5.248 4.445-11.332 7.611-18.927 10.342l5.163-10.667c1.212-2.5.7-8.37-.563-11.11-8.593-18.637-45.85 29.585-49.903 34.543l-1.468 1.792c-.23.281-.06.964-.025 1.519-1.681 1.382-3.584 3.293-4.873 4.949l-.05 1.647-3.303 3.353c-.24.248-.034.811.042 1.34l-6.092 4.156.477 2.526-4.625-11.443-.861-8.081c-.444-4.173-.086-9.02.93-12.894l5.111 1.237c.35.085 1.041.017 1.52 0 1.04 1.877 4.581 4.3 6.664 4.719.392.077 1.152.094 1.646.102-.273 1.92 3.363 1.733 3.311.069 4.258-3.934 7.86-8.61 11.333-13.705l-31.113-17.109c-.69-3.499-1.118-7.475-1.11-11.887l.078-128.289-.17-25.728c-.01-1.45-4.771-2.68-5.377-2.38 1.63-4.66 12.237 1.296 13.33-3.021l23.628-4.54 10.581-2.517c19.2-4.557 50.338-15.608 67.95-25.566l2.629 3.004z"/><path fill="#cf1818" d="m778.627 808.297 3.302 5.146-.017 80.622c0 .547.145 1.28 0 1.647-.827.359-1.4.435-1.39.947l.06 2.475c1.313.58-12.033 28.68-13.398 26.513l-4.676 3.32-11.785 8.038c-3.6 2.449-19.345 9.907-20.753 10.334l-36.753 11.212c-1.911.58-4.454 1.084-6.647 1.57l-21.52 4.83-11.18 2.108-8.31 1.51a189 189 0 0 1-10.096 1.57l-13.218 1.673-11.486 1.374-8.686 1.007c-3.593.418-10.727-.111-14.072.657l-5.896 1.348-23.731.17c-.88 0-3.755 1.477-3.559 1.622-28.125-.12-56.362-.35-84.061-1.425l64.426-.29 8.354-1.237 32.145-.598 5.735-1.194c4.07-.845 11.4-.308 15.769-.743l10.317-1.032 11.443-1.297 13.226-1.681c3.44-.436 6.818-.965 10.095-1.562l8.303-1.51 11.273-2.108c5.922-1.11 11.682-2.628 17.39-4.164l12.945-3.473c3.968-1.067 9.387-2.987 13.048-4.233l7.85-1.11c1.707-.238 5.103-2.329 6.63-2.807l10.164-3.174c3.567-1.11 7.885-2.347 10.82-4.036l12.902-7.433c12.288-7.082 14.131-23.722 10.377-23.074l-3.55.615-16.017.145-13.167 13.371c-.776.794-2.551 2.62-3.396 3.226l-10.436 7.492c-3.354 2.407-16.23 5.752-22.613 6.23l-15.121 1.126c-6.136.46-11.836 3.96-17.425 7.253l-12.97 3.388-8.739 2.167c-9.37 2.321-2.594-2.637-19.797-4.89l-7.953-1.04-13.696 1.425c-3.797.392-10.496 2.858-14.012 2.602l-13.986-.99c-2.15-.153-7.04-2.363-7.134-4.394l-.512-11.264 8.918-8.414c12.1-11.417 22.698-1.997 26.777-21.982 1.254-1.706 3.09-3.686 5.137-5.486 8.627-7.612 26.99-26.095 29.483-35.874 2.09-1.528 4.642-4.668 5.922-7.467l8.644-19.004c5.743-12.62 12.032-34.687 12.126-47.692 0-.46.162-1.297.256-1.766 42.555-10.607 81.458-4.455 117.938 19.703z"/><path fill="#f22924" d="M633.74 864.523c-2.491 9.78-20.863 28.262-29.482 35.874-2.048 1.81-3.883 3.78-5.137 5.487-2.116 1.041-4.83 2.432-7.194 3.96l-9.745 6.297c-22.203 14.353-47.419 20.864-73.505 25.148-24.03 3.95-53.188 1.05-77.277-.248l-16.205-.879-5.385-.162-16.366-.41c-13.201-.332-3.269.862-16.333 6.016-12.066 4.762 3.31 9.336-3.388 20.199l7.689 1.058 7.842 1.1 2.654 1.989c-5.974-1.144-12.604-1.186-19.14-2.492l-27.256-5.444c-30.148-6.025-51.566-15.19-78.438-26.539-6.767-4.821-12.996-11.613-17.314-19.387l-3.652-6.588c-2.082-3.763-5.367-12.373-5.384-17.288l-.265-93.482.333-13.27c1.45.478 3.712 1.315 5.47 2.142l13.32 6.29c7.808 3.686 16.06 7.056 23.723 9.369.571 2.773 1.203 6.673 1.186 10.12l-.418 73.54c-.069 12.237 10.01 22.033 19.933 27.144 10.923 5.632 40.346 18.185 49.963 11.256.546-.393 1.408-1.152 1.698-1.758l1.527-3.157 1.664-1.818.282-16.18 1.57-1.424v-12.22l-1.57-1.425v-4.668c1.783-1.39 1.775-5.495-.026-6.852v-3.02l1.545-1.622v-44.757l-1.51-1.621-.026-11.247 1.357-2.236c1.612-5.18 17.484-6.51 27.818-9.992l21.086-7.1 6.963-2.62 5.538-2.218 10.274-4.617c3.618-1.63 7.774-3.729 11.298-5.034l14.583-5.41c16.623-6.17 7.134-5.342 17.903-3.909 8.824 1.178 11.998-6.792 14.933-7.296 1.51-.264 5.044-.495 6.35-1.032 4.044-1.647 10.418-4.275 14.327-4.617l12.373-1.066c10.428-.905 21.785-1.17 32.187.025l11.93 1.374 11.46 1.195c1.587.162 4.173.589 5.043 1.45l6.332 6.28c.375-.136-1.297 3.713-2.534 3.593l-5.718-.554c-5.222-.504-11.076-.717-15.897-1.681-4.002-.802-7.97-2.057-11.793-2.381l-11.708-.99c-2.824-.239-8.226 2.756-11.537 3.934-7.364 2.62-14.908 3.558-22.656 4.369l-8.763.913c-9.174.956-7.194 6.903-19.695 3.063-2.654 3.405-6.033 6.059-10.13 7.86-11.468 5.051-2.431 2.21-19.916 9.907l-11.264 4.958c-1.69.742-3.993 5.341-5.009 6.715-21.145 7.117-10.06.367-34.85 7.381-6.912 1.955-12.407 4.327-14.378 12.476l-10.991-.29-.606 20.377c-.085 2.996-.35 6.938.026 9.532l1.484 10.402-.75 5.427c3.157 3.874 4.002 6.213 5.196 10.257l3.49 11.81c1.212 4.113 3.593 10.77 6.196 14.268 1.518 2.048 8.422 2.44 11.05 2.859 22.775 3.677 17.024-3.849 30.285 1.723l13.56 5.7c3.455.743 10.154.342 14.796-.127 12.936-1.297-.444 4.82 22.681.844 5.99-1.032 13.56 2.023 19.704 3.32 4.317.913 8.09 1.672 12.526 3.149 14.097 4.684 15.446-9.942 23.117-9.984 20.582-.103 12.535-11.768 32.085-13.875 7.305-7.595 4.489-4.48 15.113-8.602 11.016-4.275 9.053-11.69 24.61-16.273l10.547-3.106c4.104-1.212 2.79-9.967 4.855-10.368l5.086-.981c1.212-.23 4.54 1.519 4.702 2.133z"/><path fill="#f02f2a" d="m285.899 242.524.512 1.553c-2.577 26.744-1.494 54.059-1.52 82.236l-.067 88.822-.077 44.553c-6.366 7.97-11.631 18.013-16.452 27.716-11.665 23.432-18.569 55.44-6.494 79.632 3.763 7.544 11.716 15.386 19.763 17.536l2.739 2.995c.691.76.282 3.507.282 5.325l-.069 98.704-.367 45.082-5.853-.768c-11.887-6.451-22.008-14.831-33.656-24.354-.384 2.32-.887 5.657-.99 8.004l-1.493-2.944c-.324-3.541-1.212-7.688-1.229-10.274l-.358-50.935.23-87.27V403.829l-.017-28.194-.085-83.83-.17-65.852 2.756-.487 15.146 7.424c9.071 4.446 18.406 7.467 27.494 9.652z"/><path fill="#fefefd" d="M278.279 735.901c.793.691 2.688 2.21 3.771 2.833l8.406 4.847c17.587 10.138 36.76 16.316 56.806 20.787 4.044.905 8.567.999 11.852 1.579l9.813 1.732c13.568 2.398 39.663.896 53.18-1.237 28.228-4.463 52.19-14.046 78.933-24.371l13.661-5.274c48.802-18.841 99.225-29.388 150.237-18.97l5.504 2.629c-1.92 22.639-5.111 45.9-9.745 68.13-.094.46-.247 1.305-.256 1.766-6.51 2.458-15.991-9.48-32.384-16.81-15.522-6.938-30.523-12.084-47.052-15.804-.504-.111-19.362-3.123-18.193-3.064l-19.396-1.015a46 46 0 0 0-8.448-.12l-16.213 1.255c-12.595.973-32.674 6.366-44.638 11.025l-29.534 11.503-10.385 4.454-9.105 3.985-27.588 10.487c-4.25 1.613-9.053 3.269-13.431 4.352l-18.628 4.6-4.94 1.305-11.435 1.349c-19.234 2.261-48.358.674-65.758-4.583-7.663-2.312-15.914-5.683-23.722-9.37l-13.32-6.288c-1.759-.828-4.02-1.664-5.47-2.142l.563-12.988 2.287-52.923c.102-2.347.605-5.683.99-8.004 11.647 9.514 21.768 17.894 33.655 24.354z"/><path fill="#a7a6a6" d="M536.58 1000.953c27.273-.153 79.701-6.51 108.518-12.049 24.798-4.77 47.77-12.757 70.844-20.53-.786 14.642-11.341 26.725-25.882 31.419-27.366 8.823-54.17 15.197-82.824 18.884-79.573 10.231-154.273 4.642-233.521-7.672-20.31-3.157-61.013-13.593-65.638-35.976l-1.391-6.724 12.757 3.737 22.588 6.998c44.56 13.807 87.918 19.106 134.356 21.341 20.514.99 40.345.683 60.185.572z"/><path fill="#e4dedc" d="m391.9 969.969 9.744 1.869c4.54.87 8.85 1.177 13.286 1.553l21.479 1.843 34.346 1.331c27.699 1.075 55.936 1.314 84.061 1.425l5.325.81-6.784 1.264-1.16 5.546c-2.16 4.463-3.414 8.354-4.617 13.636l-9.591.086-1.417 1.613c-19.84.11-39.662.418-60.185-.572-46.438-2.244-89.787-7.535-134.356-21.342l-22.588-6.997-12.757-3.738c-13.355-7.842-33.903-17.92-39.637-32.802 26.871 11.35 48.29 20.514 78.438 26.539l27.255 5.444c6.536 1.306 13.167 1.348 19.14 2.492z"/><path fill="#cfcac9" d="M715.942 968.373c-23.074 7.774-46.046 15.761-70.844 20.531-28.817 5.538-81.245 11.904-108.517 12.05l1.416-1.614 9.592-.085c1.203-5.282 2.457-9.173 4.616-13.636l1.16-5.547 6.785-1.263-5.325-.81c-.196-.145 2.67-1.622 3.558-1.622l23.731-.17 5.897-1.349c3.353-.768 10.479-.239 14.071-.657l8.687-1.007 11.486-1.373 13.218-1.673c3.439-.435 6.8-.973 10.095-1.57l8.311-1.51 11.179-2.108 21.52-4.83c2.194-.495 4.737-.99 6.648-1.57l36.753-11.213c1.408-.427 17.152-7.876 20.753-10.334l11.784-8.038 4.676-3.32c-5.691 10.275-14.003 21.163-24.891 27.46z"/><path fill="#e8332a" d="M665.058 260.35c.605-.298 5.367.93 5.376 2.381l.17 25.728-.077 128.29c0 4.411.419 8.387 1.11 11.886-5.555-3.055-14.183-4.121-21.444-4.872-7.22-.743-16.214 3.643-22.827 3.823-1.63.042-12.441-6.776-32.955 2.389-27.128 12.117-50.39 33.459-67.985 57.139-5.692 7.654-10.666 15.402-15.923 23.423-12.356 18.876-24.508 49.673-13.116 70.98 3.985 7.45 11.947 12.484 20.113 14.063 31.992 6.195 58.513-27.562 66.927-53.504.196.035 1.433-1.271 1.467-1.962l.359-6.264c.358-.128 1.485-2.432 1.476-3.464l-.12-9.865c.598.06 2.313 3.653 2.151 5.018l-1.425 11.614c-.956-.88 1.835 1.758 1.835 1.766l5.999-3.413-3.337 6.383c-.435.281-1.51 1.152-1.826 1.766-6.05 11.802-16.12 28.825-10.445 43.588 3.37 8.755 15.3 10.342 22.699 6.212 10.956-6.118 19.285-14.933 25.437-25.531l9.097-15.676c1.69.009 6.681 1.485 7.697 2.244-2.5 10.547-4.335 18.697-2.978 28.69.734 5.41 8.567 10.598 14.156 9.377 5.675-1.237 10.727-4.89 14.96-7.961l-1.204 9.89.333 36.94-.17 61.884-.342 24.601-5.325-.043c-51.003-10.419-101.426.128-150.237 18.97l-13.661 5.273c-26.744 10.326-50.705 19.909-78.933 24.371-13.517 2.134-39.612 3.644-53.18 1.238l-9.813-1.733.094-185.803 16.375-.529c13.688 1.237 25.302 6.46 35.857 16.563 13.995-8.584 32.802-8.892 47.573-5.87l16.896 3.455c-17.843-16.324-39.782-26-64.358-28.57-6.477-.673-17.288-.016-22.81-.076-1.979-.026-13.158-1.314-11.69 1.638-.418 0-1.22.094-1.647.069l-6.895-.47-1.297 1.903c-.4 0-1.203.068-1.647.094-.23.085-3.532-.99-3.524-1.911l.128-11.213 5.163 1.792 9.557-.376c.589-.025 2.176-1.809 1.911-1.715l1.647-.06 3.252-1.612c6.792-3.38 13.038-7.518 20.684-13.133 1.195 5.896 3.251 14.933 11.34 15.599 6.537.537 13.142-3.303 19.371-7.441l4.736 5.444c17.016 12.22 44.186-26.905 52.429-38.963-1.553-1.382-2.082-1.886-2.552-2.219-.682-.486-2.867 1.23-3.507 1.989-7.168 8.61-14.575 16.571-23.108 24.951l-3.95-3.26 9.087-16.665 13.815-26.001 6.179-11.895 4.292-8.414-19.405-.111c-3.396-.017-13.892-8.815-32.896 10.393-10.82 10.94-19.43 22.895-28.194 35.635-7.415 10.786-16.682 20.881-30.241 24.371-20.25-5.333 20.283-75.016 35.122-63.18l-10.709 10.923c-.913.93-1.092 5.358-.435 6.476.82 1.4 3.891 2.893 6.067 3.277 6.801 1.22 11.708-11.588 12.69-17.04.878-4.873-3.969-12.135-8.423-13.654-13.065-4.454-27.563 6.246-36.113 15.232l-11.947 12.544c-1.365 1.433-6.57 2.15-7.1 1.638 2.492-9.847 3.79-17.4 2.885-27.136l5.862-4.676 2.458-8.49-8.508-5.223-1.365-6.28c2.03-4.318.64-12.442-.708-16.53l-.948-2.875c-.861-2.62-1.459-7.962-1.45-11.785l.025-146.311c0-2.867.657-6.81.905-8.815l-2.961-2.748 1.792-.4c1.997.878 5.59 2.158 7.944 2.465l13.543 1.784 11.298 1.493c4.283.563 8.738 1.05 13.235 1.383l28.143 2.107 14.694 1.016 21.461 1.11c28.774 1.492 56.797 1.544 85.58.016l32.956-1.75 19.797-1.475 18.04-1.605 39.466-4.676zM514.625 488.564l7.705-13.815-18.39-.145c-3.284 4.983-5.588 9.258-7.986 14.651z"/><path fill="#fcfcfb" d="M671.637 584.572c-4.233 3.072-9.293 6.724-14.959 7.962-5.59 1.22-13.423-3.96-14.157-9.378-1.357-9.984.478-18.134 2.978-28.69-1.015-.759-6.007-2.235-7.697-2.244l-9.096 15.676c-6.153 10.598-14.481 19.413-25.438 25.532-7.398 4.13-19.328 2.551-22.698-6.213-5.683-14.762 4.394-31.786 10.444-43.588.384-.23 1.502-1.143 1.827-1.766l3.336-6.383 12.894-13.474c7.313-7.646 19.61-15.701 31.027-12.228 12.117 3.686 4.369 25.165 2.073 32.025l-1.066 3.2c-.487 1.46 6.767 2.466 8.593-2.278 8.584-22.263 20.471-44.228 33.664-63.7-.077-.53-.282-1.093-.043-1.34l3.302-3.354.051-1.647 4.873-4.95c-.034-.554-.213-1.237.026-1.518l1.467-1.792c4.062-4.958 41.31-53.18 49.903-34.543 1.263 2.74 1.775 8.61.563 11.11l-5.163 10.667c7.586-2.73 13.68-5.897 18.927-10.342l15.625-13.253c-1.195 9.259-16.854 26.198-24.346 32.82-4.548 4.019-11.58 6.817-17.083 9.25-7.092 10.785-14.114 21.41-22.477 31.41l-14.976 17.903c-7.066 8.44-20.147 19.465-23.193 26.317-1.81 4.07-11.572 33.476-4.148 30.583 3.883-1.519 9.336-6.699 11.23-9.881l8.15-13.662 15.76-25.515c6.29-10.188 23.535-27.639 36.199-19.217l18.193-.478-15.275 36.881-10.624 24.593c-.324.751.708 4.693 1.348 4.36 12.066-6.254 15.958-21.734 23.228-24.976 6.17-2.748-16.034 37.282-33.843 39.953-5.026.759-9.173-4.003-10.189-8.542-5.53 3.695-10.871 7.108-17.467 10.334-3.5 1.706-11.546-.709-12.553-3.926l-3.14-10.035-6.025 8.312zm33.646-87.21 9.268-11.29 11.878-14.78-14.746-1.032.478-4.428c8.252-10.198 5.93-11.281 20.83-13.073 3.294-3.166 9.788-18.876 4.873-20.002-6.81-1.57-17.81 17.075-21.325 22.365l-9.873 14.89c-5.282 7.971-9.958 16.197-14.379 24.739l-12.45 24.072c-1.374 2.663-2.15 6.315-2.867 10.675 6.255-6.45 11.145-11.707 16.7-18.32l11.605-13.807zm-.614 76.168c11.068-12.843 16.913-23.483 22.835-37.29l8.303-19.354c-6.87-8.004-26.052 27.64-27.52 31.428l-7.876 20.267zm-69.538-29.798 4.796-16.375c.802-2.731-.495-6.853-2.32-11.068-4.942 1.783-7.75 2.918-10.94 5.24-5.633 4.087-6.307 12.39-.871 16.955 2.645 2.227 5.538 3.601 9.344 5.24zm-3.353 7.663-16.956-13.312-10.069 23.202c-1.357 3.123-2.483 9.54-2.56 13.508-.034 1.655 5.052 4.036 6.46 3.14 13.866-8.9 14.916-13.354 23.125-26.538"/><path fill="#fc312e" d="m678.293 454.56-5.112-1.238c-1.015 3.874-1.374 8.72-.93 12.894l.862 8.08 4.625 11.444-.478-2.526 6.093-4.156c-13.192 19.473-25.088 41.438-33.664 63.701-1.826 4.745-9.08 3.746-8.593 2.278l1.067-3.2c2.295-6.86 10.044-28.338-2.074-32.025-11.417-3.473-23.714 4.582-31.027 12.228l-12.893 13.474-6 3.414s-2.781-2.637-1.834-1.767l1.425-11.614c.17-1.365-1.553-4.957-2.15-5.017l-3.542-7.031c-5.64-7.962-17.382-6.75-23.705-2.006-17.954 13.474-22.562 24.713-27.81 47.215l3.464 3.242 16.017-13.32c2.748-2.287 5.445-5.64 6.622-9.335 6.656-20.933 20.463-23.467 21.786-18.262 3.276 12.869-4.95 30.686-13.022 40.081-9.617 11.196-14.788 16.981-28.22 21.598-3.225 1.11-11.502-.452-13.457-3.439-13.107-20.079 3.951-53.094 14.541-71.936 8.721-15.522 24.9-34.696 37.675-47.564 7.91-7.97 32.784-28.808 43.016-24.09-17.536 13.295-34.313 30.072-33.775 51.968.12 4.813 6.118 8.303 10.556 6.81 11.11-3.746 18.892-12.109 24.43-22.008 8.039-14.37 8.995-18.773 8.517-36.77 9.83-3.618 26.052 5.522 35.66 10.983l10.624 6.033 1.306 1.894z"/><path fill="#fdfdfc" d="m671.645 428.635 31.113 17.11c-3.473 5.094-7.074 9.77-11.333 13.704l-3.31-.069c-.495-.008-1.255-.025-1.647-.102-1.818-1.579-4.327-3.294-6.665-4.719-.478.017-1.16.086-1.519 0l-1.305-1.894-10.624-6.033c-9.6-5.453-25.83-14.592-35.66-10.983.477 17.997-.479 22.392-8.517 36.77-5.538 9.899-13.32 18.27-24.43 22.008-4.438 1.493-10.437-1.997-10.556-6.81-.538-21.905 16.238-38.673 33.774-51.968-10.231-4.718-35.106 16.128-43.016 24.09-12.774 12.868-28.953 32.042-37.674 47.564-10.59 18.842-27.648 51.857-14.541 71.936 1.954 2.995 10.223 4.548 13.457 3.439 13.431-4.617 18.61-10.402 28.22-21.598 8.072-9.395 16.298-27.213 13.021-40.08-1.322-5.206-15.13-2.672-21.785 18.26-1.178 3.687-3.874 7.04-6.622 9.336l-16.017 13.32-3.465-3.242c5.248-22.503 9.856-33.74 27.81-47.215 6.324-4.744 18.065-5.948 23.706 2.005l3.541 7.032.12 9.864c-.803.393-1.289.478-1.323.99l-.154 2.483-.358 6.264c-.17.017-1.254 1.314-1.468 1.962-8.414 25.942-34.935 59.7-66.926 53.504-8.167-1.579-16.128-6.613-20.113-14.063-11.392-21.316.76-52.104 13.115-70.98 5.257-8.03 10.232-15.77 15.924-23.423 17.604-23.68 40.865-45.022 67.984-57.14 20.514-9.164 31.326-2.337 32.956-2.389 6.604-.179 15.598-4.565 22.826-3.822 7.262.75 15.88 1.809 21.444 4.872zm-46.873 10.522c-12.877 6.4-40.678 43.886-30.737 49.501 10.3 5.811 37.675-34.995 30.737-49.501"/><path fill="#f1eae9" d="M670.254 717.879c1.212 2.048 15.667 4.65 22.434 6.912 11.179 3.746 21.41 8.124 31.701 13.354 25.617 13.04 37.607 24.542 55.697 45.406.128.478 1.639 4.386 1.647 5.649l.248 20.855-3.354-1.766c-36.48-24.158-75.383-30.31-117.938-19.703 4.642-22.238 7.833-45.491 9.745-68.13l-5.504-2.628 5.324.042z"/><path fill="#fc312e" d="M691.425 459.449c.043 1.664-3.584 1.86-3.31-.069zm-4.957-.17c-2.083-.419-5.624-2.842-6.665-4.72 2.338 1.425 4.847 3.149 6.665 4.72m5.077 6.962 1.468-1.792zm-4.898 6.477c1.297-1.655 3.2-3.567 4.872-4.95zm-3.345 4.992 3.302-3.354z"/><path fill="#e83329" d="M660.433 790.36c-.094 13.005-6.383 35.072-12.126 47.693l-8.644 19.004c-1.272 2.798-3.832 5.939-5.922 7.466-.163-.614-3.49-2.364-4.702-2.133l-5.086.981c-2.065.401-.76 9.156-4.856 10.368l-10.547 3.106c-15.556 4.591-13.593 11.998-24.61 16.273-10.624 4.122-7.808 1.007-15.112 8.602-19.541 2.107-11.503 13.772-32.085 13.875-7.672.034-9.011 14.669-23.117 9.984-4.429-1.468-8.209-2.236-12.527-3.149-6.144-1.297-13.704-4.352-19.703-3.32-23.125 3.977-9.745-2.141-22.681-.844-4.643.46-11.341.87-14.797.128l-13.56-5.7c-13.26-5.573-7.509 1.945-30.284-1.724-2.628-.427-9.532-.81-11.05-2.859-2.595-3.499-4.976-10.154-6.196-14.267l-3.49-11.81c-1.195-4.045-2.04-6.383-5.197-10.258l.751-5.427-1.485-10.402c-.366-2.594-.11-6.536-.025-9.531l.606-20.378 10.99.29c1.98-8.158 7.476-10.53 14.38-12.475 24.797-7.006 13.712-.265 34.849-7.382 1.015-1.382 3.328-5.973 5.01-6.715l11.263-4.958c17.485-7.697 8.448-4.856 19.917-9.907 4.096-1.8 7.483-4.455 10.129-7.86 12.492 3.84 10.521-2.107 19.694-3.063l8.764-.913c7.757-.81 15.292-1.74 22.656-4.369 3.31-1.178 8.72-4.173 11.537-3.934l11.708.99c3.822.324 7.79 1.57 11.793 2.38 4.82.974 10.675 1.178 15.897 1.682l5.717.555c1.238.119 2.91-3.73 2.535-3.593l-6.332-6.28c-.862-.854-3.447-1.289-5.043-1.451l-11.46-1.195-11.93-1.374c-10.402-1.203-21.76-.93-32.187-.025l-12.374 1.066c-3.916.342-10.282 2.961-14.327 4.617-1.314.538-4.838.776-6.349 1.032-2.927.504-6.11 8.474-14.933 7.296-10.769-1.442-1.28-2.26-17.903 3.909l-14.583 5.41c-3.516 1.305-7.68 3.413-11.298 5.034l-10.274 4.617-5.538 2.219-6.963 2.62-21.086 7.099c-10.334 3.481-26.206 4.804-27.819 9.992l-1.356 2.236c0-1.852.785-5.06 1.373-7.057l4.941-1.306 18.628-4.599c4.386-1.084 9.19-2.74 13.432-4.352l27.588-10.487 9.105-3.985 10.385-4.455 29.533-11.503c11.964-4.659 32.043-10.043 44.638-11.025l16.213-1.254a46.6 46.6 0 0 1 8.448.12l19.396 1.015c-1.169-.06 17.698 2.952 18.193 3.063 16.538 3.72 31.54 8.858 47.053 15.804 16.392 7.33 25.873 19.268 32.383 16.81z"/><path fill="#e31617" d="m470.755 976.565-34.346-1.331-21.479-1.843c-4.428-.384-8.738-.683-13.286-1.553l-9.745-1.87-2.654-1.987-7.842-1.101-7.688-1.058c6.698-10.863-8.679-15.437 3.387-20.199 13.065-5.154 3.132-6.348 16.333-6.016l16.367.41 5.384.162 16.205.88c24.09 1.296 53.248 4.197 77.277.247 26.078-4.284 51.302-10.795 73.506-25.148l9.745-6.298c2.364-1.527 5.077-2.918 7.194-3.959-4.08 19.993-14.678 10.564-26.778 21.982l-8.917 8.414.512 11.263c.094 2.031 4.983 4.241 7.134 4.395l13.986.99c3.515.247 10.214-2.21 14.011-2.603l13.696-1.425 7.953 1.041c17.203 2.253 10.42 7.21 19.797 4.89l8.738-2.168 12.971-3.387c5.59-3.294 11.29-6.801 17.425-7.254l15.121-1.126c6.383-.478 19.26-3.823 22.613-6.23l10.436-7.491c.845-.606 2.62-2.432 3.397-3.226l13.166-13.372 16.017-.145 3.55-.614c3.755-.649 1.912 15.991-10.376 23.074l-12.903 7.432c-2.935 1.698-7.253 2.927-10.82 4.037l-10.163 3.174c-1.527.478-4.924 2.568-6.63 2.807l-7.85 1.11c-3.662 1.246-9.08 3.174-13.048 4.232l-12.945 3.473c-5.717 1.536-11.469 3.055-17.391 4.164l-11.272 2.108-8.303 1.51a188 188 0 0 1-10.095 1.562l-13.227 1.681-11.443 1.297-10.317 1.033c-4.369.435-11.699-.111-15.77.742l-5.733 1.195-32.145.597-8.354 1.238-64.427.29z"/><path fill="#fc5451" d="M360.497 806.505c-.598 1.997-1.383 5.206-1.374 7.057l.025 11.247-.034 48v3.02l.026 6.853v19.746l-.282 16.18c-.324.204-1.365 1.194-1.664 1.817l-1.527 3.157-1.698 1.758c-9.609 6.929-39.032-5.632-49.963-11.256-9.924-5.111-20.002-14.907-19.933-27.144l.418-73.54c.017-3.447-.615-7.347-1.186-10.12 17.399 5.256 46.532 6.844 65.757 4.582l11.435-1.348z"/><path fill="#e83329" d="m359.114 872.809.026-48 1.519 1.622v44.757zm.017 29.619V887.35l1.579 1.425v12.228zm0-19.746-.025-6.852c1.8 1.357 1.8 5.461.025 6.852m-1.945 37.743c.298-.615 1.348-1.613 1.664-1.818zm-3.234 4.906 1.698-1.758c-.29.606-1.152 1.366-1.698 1.758"/><path fill="#fa554f" d="m357.109 258.883 2.961 2.747c-.248 1.997-.905 5.948-.905 8.815l-.025 146.312c0 3.823.589 9.165 1.45 11.784-9.446-11.827-30.788-4.83-42.282 1.971-12.988 7.68-24.465 17.775-33.578 29.176l.076-44.553.069-88.822c.025-28.177-1.067-55.492 1.519-82.236 22.963 5.146 46.899 12.68 70.698 14.806z"/><path fill="#fb5553" d="m375.583 579.614-16.375.53-.094 185.803c-3.294-.58-7.808-.674-11.852-1.579-20.045-4.471-39.22-10.65-56.806-20.787l-8.406-4.847c-1.083-.623-2.978-2.133-3.771-2.833l5.853.768.367-45.081.069-98.704c0-1.818.41-4.566-.282-5.325l-2.74-2.995c14.311 3.822 29.56 1.723 44.502-1.289 8.516-1.715 45.806-8.525 49.527-3.66z"/><path fill="#fefdfd" d="m360.599 428.541.947 2.876c1.348 4.087 2.74 12.211.708 16.529-2.133 4.531-8.26 9.651-13.26 11.272-3.917 1.272-8.704-6.664-6.4-9.557 2.841-3.567 6.306-6.886 9.566-9.634l3.532-2.978c.973-.82-1.066-4.472-2.244-4.984-12.817-5.538-33.851 16.444-40.294 25.754l-12.988 18.773c-5.222 7.544-8.977 16.572-12.595 25.267-7.646 18.398-14.233 44.783-4.07 62.668 7.467 13.15 24.755 16.88 37.589 14.277 15.693-3.175 30.302-6.23 44.458-10.454.444-.025 1.246-.102 1.647-.093l6.972.102 1.22-1.536c.427.026 1.22-.06 1.647-.068l10.3-.137 1.39-1.502c5.522.06 16.333-.597 22.81.077 24.576 2.56 46.515 12.245 64.358 28.57l-16.896-3.457c-14.78-3.02-33.578-2.713-47.573 5.871-10.555-10.112-22.16-15.325-35.857-16.563-3.72-4.864-41.01 1.946-49.527 3.661-14.941 3.012-30.182 5.111-44.5 1.289-8.048-2.15-16-10.001-19.764-17.536-12.074-24.192-5.171-56.192 6.494-79.633 4.83-9.694 10.086-19.746 16.452-27.716 9.105-11.4 20.59-21.495 33.579-29.175 11.494-6.801 32.836-13.798 42.282-1.971z"/><path fill="#fdfdfc" d="M363.816 472.624c.905 9.737-.392 17.289-2.884 27.136.529.512 5.734-.205 7.1-1.638l11.946-12.544c8.55-8.986 23.057-19.687 36.113-15.232 4.454 1.519 9.31 8.789 8.422 13.653-.981 5.444-5.888 18.253-12.689 17.04-2.176-.392-5.24-1.876-6.067-3.276-.657-1.118-.478-5.546.435-6.477l10.71-10.922c-14.848-11.827-55.373 57.847-35.123 63.18 13.567-3.498 22.826-13.593 30.242-24.37 8.763-12.741 17.373-24.696 28.193-35.636 19.004-19.217 29.5-10.419 32.896-10.393l19.405.11-4.292 8.414-6.178 11.896-13.816 26-9.088 16.666 3.951 3.26c8.533-8.388 15.94-16.341 23.108-24.951.64-.768 2.825-2.484 3.507-1.989.47.333.999.837 2.552 2.219-8.243 12.049-35.413 51.183-52.429 38.963l-4.736-5.444c-6.229 4.138-12.834 7.978-19.37 7.44-8.09-.665-10.146-9.702-11.34-15.598-7.647 5.615-13.884 9.753-20.685 13.133l-3.252 1.612-1.647.06c-4.061.026-10.026-.034-14.617-.392-3.209-.248-8.9-6.187-9.532-9.344-1.092-5.419-1.4-14.046.342-18.535l7.517-19.336-4.206-1.4c-.922-.307-1.997 1.955-2.629 3.2-6.792 13.338-22.331 38.767-36.403 43.904-7.33 2.671-16.477-1.852-18.73-10.052-5.12-18.62 10.385-46.344 21.913-60.595 7.834-9.685 24.15-21 35.772-15.095 1.655.845 4.557 4.24 5.598 5.359zm-10.556 27.144c3.823-8.456 5.854-15.846 3.73-24.03-.692-2.67-8.346-.938-9.874 1.34l-7.978 11.87c4.275 6.178 6.937 8.9 14.122 10.829zm88.968 29.466 12.263-20.3 15.505-26.599-4.199-3.703c-10.521 7.671-43.793 49.45-35.029 60.586 5.146-2.919 8.883-5.726 11.452-9.984zm-91.528-22.92c-2.056-1.101-4.838-2.39-5.913-3.294l-9.387-7.86c-5.401 8.739-17.996 31.761-12.194 39.527 5.846 7.816 26.257-23.97 27.494-28.374"/><path fill="#fa3f3d" d="m362.263 447.946 1.365 6.28 8.508 5.223-2.458 8.49-5.862 4.677c-1.041-1.118-3.942-4.515-5.598-5.36-11.622-5.904-27.93 5.41-35.771 15.096-11.529 14.25-27.034 41.967-21.914 60.595 2.253 8.2 11.4 12.723 18.73 10.052 14.072-5.137 29.611-30.566 36.404-43.904.631-1.237 1.706-3.498 2.628-3.2l4.207 1.4-7.518 19.336c-1.75 4.489-1.433 13.124-.341 18.534.631 3.158 6.323 9.088 9.531 9.344 4.591.359 10.556.427 14.618.393.264-.094-1.323 1.69-1.912 1.715l-9.557.376-5.162-1.792-.128 11.212c-.009.922 3.293 1.997 3.524 1.912-14.157 4.224-28.774 7.279-44.459 10.453-12.834 2.594-30.122-1.126-37.589-14.276-10.154-17.886-3.575-44.27 4.07-62.668 3.619-8.704 7.382-17.724 12.596-25.267l12.988-18.774c6.442-9.301 27.468-31.291 40.294-25.753 1.177.512 3.217 4.164 2.244 4.983l-3.533 2.978c-3.26 2.748-6.733 6.068-9.566 9.634-2.304 2.893 2.484 10.83 6.4 9.558 5-1.622 11.128-6.742 13.261-11.273z"/><path fill="#fbf1ef" d="m514.625 488.564-18.671.691c2.398-5.393 4.693-9.668 7.987-14.651l18.39.145z"/><path fill="#fa3f3d" d="m388.742 565.116-1.391 1.502-10.3.137c-1.468-2.953 9.711-1.656 11.69-1.639m-13.33 1.698-1.22 1.545-6.98-.111 1.306-1.894z"/><path fill="#fc312e" d="m586.261 533.85.154-2.483c.034-.503.52-.589 1.323-.99.008 1.033-1.118 3.337-1.477 3.465z"/><path fill="#fa3f3d" d="m383.69 553.246-3.251 1.613z"/><path fill="#fc312e" d="M584.435 542.076c.214-.648 1.306-1.945 1.468-1.962-.043.682-1.271 1.997-1.468 1.962m6.562 1.562c.316-.614 1.391-1.485 1.826-1.766-.324.614-1.442 1.536-1.826 1.766"/><path fill="#da1b1c" d="m705.283 497.362-11.605 13.807c-5.555 6.613-10.444 11.87-16.7 18.32.717-4.36 1.494-8.012 2.868-10.674l12.45-24.073c4.42-8.541 9.088-16.768 14.378-24.738l9.873-14.89c3.508-5.29 14.515-23.936 21.325-22.366 4.924 1.135-1.57 16.836-4.872 20.002-14.9 1.792-12.578 2.876-20.83 13.073l-.478 4.429 14.745 1.032-11.878 14.78-9.267 11.29z"/><path fill="#f23031" d="M631.778 551.395c-8.21 13.184-9.259 17.638-23.125 26.538-1.4.896-6.494-1.485-6.46-3.14.085-3.968 1.212-10.385 2.56-13.508l10.07-23.202z"/><path fill="#dc1b1a" d="m704.67 573.53-4.259-4.95 7.876-20.266c1.468-3.789 20.66-39.432 27.52-31.428l-8.303 19.354c-5.922 13.798-11.767 24.439-22.835 37.29"/><path fill="#f13c37" d="M635.131 543.732c-3.805-1.639-6.698-3.012-9.343-5.24-5.436-4.565-4.762-12.868.87-16.955 3.191-2.321 5.999-3.456 10.94-5.24 1.826 4.216 3.123 8.337 2.32 11.068l-4.795 16.375z"/><path fill="#f6332d" d="M624.772 439.157c6.938 14.506-20.437 55.312-30.737 49.501-9.941-5.615 17.86-43.101 30.737-49.501"/><path fill="#ee2d29" d="M442.228 529.234c-2.568 4.258-6.306 7.074-11.451 9.984-8.764-11.136 24.507-52.915 35.029-60.586l4.198 3.703-15.505 26.598-12.262 20.3z"/><path fill="#f83e3c" d="M350.7 506.313c-1.237 4.404-21.657 36.199-27.494 28.374-5.802-7.766 6.801-30.788 12.194-39.527l9.387 7.86c1.075.904 3.857 2.193 5.913 3.293"/><path fill="#f04347" d="M353.26 499.768c-7.185-1.928-9.847-4.642-14.122-10.828l7.978-11.87c1.528-2.278 9.182-4.01 9.873-1.34 2.125 8.192.094 15.582-3.729 24.03z"/></svg>