<svg xmlns="http://www.w3.org/2000/svg" viewBox="0 0 1024 1024"><path fill="#f7b239" d="M621.112 105.228v56.055H403.423v-56.055c0-14.436 11.696-26.132 26.132-26.132h165.427c14.436.001 26.13 11.697 26.13 26.132"/><path fill="#e09b2d" d="M488.771 79.097h-59.216c-14.436 0-26.132 11.696-26.132 26.132v56.055h59.218v-56.056c-.001-14.435 11.694-26.13 26.13-26.13"/><path fill="#f7b239" d="M609.838 342.833h-195.14c5.268-29.504 7.902-59.428 7.902-89.563v-25.077h179.336v25.077c0 30.134 2.74 60.06 7.902 89.563"/><path fill="#e09b2d" d="M476.127 228.192H422.6v25.077c0 30.135-2.634 60.06-7.902 89.563h53.527c5.268-29.504 7.902-59.428 7.902-89.563z"/><path fill="#f95428" d="M422.6 161.283h179.336v66.91H422.6z"/><path fill="#e54728" d="M422.6 161.283h47.732v66.91H422.6z"/><path fill="#f95428" d="M690.761 669.262V908.34c0 20.23-16.437 36.668-36.668 36.668h-283.65c-20.231 0-36.669-16.437-36.669-36.668V669.26c0-35.824 3.794-71.439 11.169-106.316 7.481-34.876 18.544-68.91 33.191-101.68a510.2 510.2 0 0 0 36.458-118.432h195.246c.949 5.584 2.108 11.274 3.267 16.859 7.481 34.877 18.544 68.91 33.19 101.68a508.3 508.3 0 0 1 44.466 207.89m-87.034 178.07 26.341-255.41c-37.616-16.333-77.76-24.551-117.8-24.551a295.2 295.2 0 0 0-117.802 24.55l26.342 255.412z"/><path fill="#e54728" d="M417.859 908.34V669.263c0-35.825 3.793-71.44 11.168-106.317 7.482-34.876 18.545-68.91 33.192-101.68a510.2 510.2 0 0 0 36.457-118.432h-84.083a510 510 0 0 1-36.458 118.432c-14.645 32.664-25.71 66.804-33.191 101.68s-11.169 70.492-11.169 106.317V908.34c0 20.23 16.438 36.668 36.669 36.668h84.083c-20.23 0-36.668-16.438-36.668-36.668"/><path fill="#f7b239" d="m630.175 591.921-26.342 255.412H420.81L394.467 591.92c37.617-16.332 77.656-24.55 117.801-24.55 40.145-.106 80.29 8.113 117.907 24.55"/><path fill="#fff" d="M560.316 317.755c-7.376 0-13.592-5.585-14.225-13.066a515 515 0 0 1-2.212-40.25c-.211-7.902 6.111-14.436 14.014-14.646h.316c7.797 0 14.12 6.217 14.33 14.014.211 12.644.948 25.499 2.107 38.248.738 7.903-5.058 14.857-12.96 15.595-.527.105-.95.105-1.37.105m71.018 246.77c-6.323 0-12.118-4.214-13.803-10.642-6.217-23.286-14.436-46.467-24.34-68.7-8.85-19.703-16.543-40.145-23.075-60.797-2.424-7.587 1.792-15.595 9.377-18.018s15.595 1.79 18.019 9.378a550 550 0 0 0 21.916 57.636c10.642 23.708 19.282 48.259 25.92 73.125 2.002 7.691-2.528 15.49-10.22 17.491-1.37.317-2.53.527-3.794.527M646.822 915.4c-7.902 0-14.33-6.427-14.33-14.33V776.314c0-7.902 6.427-14.33 14.33-14.33s14.33 6.427 14.33 14.33V901.07c0 7.903-6.426 14.33-14.33 14.33M558.314 379.71a14.33 14.33 0 1 0 28.66 0 14.33 14.33 0 1 0-28.66 0M543.668 194.053a14.33 14.33 0 1 0 28.66 0 14.33 14.33 0 1 0-28.66 0M567.586 113.446a14.33 14.33 0 1 0 28.66 0 14.33 14.33 0 1 0-28.66 0"/><path fill="#333" d="M659.467 455.47c-28.66-63.958-43.2-132.026-43.2-202.095v-77.761h4.846c7.903 0 14.33-6.427 14.33-14.33v-56.056c0-22.338-18.122-40.461-40.46-40.461H429.555c-22.338 0-40.461 18.123-40.461 40.46v56.056c0 7.903 6.427 14.33 14.33 14.33h4.847v77.656c0 70.07-14.541 138.138-43.2 202.096-30.241 67.751-45.625 139.612-45.625 213.791v239.08c0 28.133 22.864 50.997 50.998 50.997h283.65c28.133 0 50.997-22.864 50.997-50.998V669.262c0-74.18-15.383-146.146-45.624-213.792M436.93 253.27v-10.854h150.676v10.853q0 38.091 5.373 75.233H431.556q5.374-37.141 5.374-75.233m-19.177-148.042a11.78 11.78 0 0 1 11.802-11.802h165.427a11.78 11.78 0 0 1 11.801 11.802v41.725h-189.03zm169.853 70.386v38.248H436.93v-38.248zM676.43 908.34c0 12.327-10.01 22.338-22.338 22.338h-283.65c-12.328 0-22.338-10.01-22.338-22.338V669.26c0-70.069 14.54-138.137 43.2-202.095 15.91-35.614 27.712-72.388 35.299-110.004h171.433c7.586 37.616 19.387 74.39 35.299 110.004 28.66 63.958 43.2 132.026 43.2 202.096z"/><path fill="#333" d="M388.672 578.75c-5.69 2.53-9.167 8.43-8.535 14.646l26.341 255.411c.738 7.27 6.955 12.855 14.225 12.855h182.918c7.376 0 13.487-5.584 14.225-12.855l26.342-255.411c.631-6.217-2.846-12.118-8.535-14.646-78.288-34.244-168.377-34.244-246.981 0m226.119 22.338-23.92 231.914H433.77l-24.023-231.914c65.748-25.815 139.295-25.815 205.045 0"/></svg>