<svg xmlns="http://www.w3.org/2000/svg" viewBox="0 0 1024 1024"><path fill="#4a4884" d="m330.586 115.702 57.411-33.237L507.65 63.129l90.648 19.942 103.943 41.096 124.483 94.266 65.16 33.536 2.244 10.044s50.329 93.114 50.329 94.923 18.833 178.669 18.833 178.669l-78.156 262.67L582.98 961.838l-163.565 24.175-185.213-53.18-32.734-24.02-4.079-7.86L69.955 589.792l9.063-211.505s79.162-139.595 84-143.221c4.839-3.627 167.568-119.372 167.568-119.372z"/><path fill="#59579a" d="m350.698 79.393 28.262 58.171c3.243 21.478-36.454 57.019-26.077 77.115 4.292 4.65 7.219 8.362 14.037 9.318 26.752 3.763 60.586-3.37 88.276.358 13.201 14.43 41.583 54.212 61.192 55.688 25.13 1.895 43.954-41.813 61.132-55.577 33.058-3.328 67.78 4.668 99.489-5.47.332-8.072 1.228-16.656-.53-24.643-3.046-13.841-26.743-43.324-27.51-52.044-1.647-18.808 22.135-36.497 28.27-53.598 76.475 31.624 146.208 79.504 200.676 142.087 5.197 5.973 8.96 14.634 13.909 21.069-8.772 2.167-.555 14.506 1.195 19.788 62.779 189.156-33.314 419.809-180.708 544.334-139.894 118.194-316.318 140.978-488.706 91.946-6.605-1.878-18.176-8.85-22.195 1.186-228.4-190.64-225.354-555.428 6.92-741.255 41.113-32.896 89.061-57.472 137.871-76.671 5.026-3.328 3.968-7.109 4.497-11.802m-104.08 164.094c-74.844 3.132-133.502 88.942-124.422 159.802 10.632 82.942 120.42 68.265 160.74 11.613 31.837-44.74 52.693-141.737-11.375-165.527-4.966-1.843-20.599-6.067-24.942-5.88z"/><path fill="#4a4884" d="M201.427 909.13c4.019-10.044 15.581-3.064 22.195-1.187 172.388 49.032 348.812 26.248 488.706-91.945C859.713 691.472 955.806 460.82 893.036 271.664c-1.758-5.291-9.967-17.621-1.195-19.789 267.243 347.456-38.963 840.147-468.653 764.312-80.033-14.122-160.023-55.526-221.753-107.05z"/><path fill="#444374" d="M677.24 88.711c-6.145 17.1-29.927 34.79-28.272 53.598.768 8.712 24.465 38.194 27.512 52.044 1.757 7.987.861 16.571.529 24.644-31.71 10.137-66.431 2.15-99.49 5.47-17.185 13.755-36 57.47-61.131 55.576-19.601-1.476-47.991-41.266-61.192-55.688-27.69-3.729-61.524 3.405-88.276-.358-6.818-.956-9.745-4.668-14.037-9.318-10.377-20.096 29.32-55.637 26.077-77.115l-28.262-58.17c.691-6.136-1.911-13.125 2.1-18.885 6.067-8.9 40.771-5.845 51.455-4.326 10.29 1.467 28.74 9.113 37.486 9.275C466.853 65.92 485.233 2.415 516.303 0c24.336 4.181 30.932 28.458 44.236 44.518 15.607 18.841 24.797 18.133 48.972 16.136 11.742-.973 30.685-7.279 42.973-8.345 11.443-.99 26.931 8.814 28.8 20.83-1.314 4.82-2.45 11.17-4.036 15.58zm-178.704-8.43c-9.318 1.595-47.461 14.318-56.012 18.61-19.49 9.771-27.059 36.898-21.264 56.832.998 3.43 18.738 21.043 22.851 23.782 12.826 8.559 33.05 12.032 47.94 17.356 12.552 4.489 12.766 11.384 33.595 8.371 4.472-.648 55.014-20.906 60.04-23.884 33.502-19.848 35.66-55.415 7.552-80.938-33.57-10.163-58.077-26.384-94.693-20.13z"/><path fill="#736eaa" d="M246.619 243.487c4.352-.18 19.984 4.036 24.942 5.88 64.068 23.79 43.212 120.787 11.375 165.527-40.32 56.652-150.108 71.329-160.74-11.614-9.088-70.86 49.578-156.661 124.423-159.802z"/><path fill="#3a3859" d="M498.536 80.28c36.616-6.254 61.124 9.976 94.694 20.13 28.108 25.523 25.958 61.09-7.552 80.938-5.026 2.978-55.569 23.236-60.04 23.884-20.83 3.004-21.043-3.89-33.595-8.37-14.9-5.325-35.115-8.79-47.94-17.357-4.105-2.74-21.845-20.352-22.852-23.782-5.803-19.934 1.775-47.061 21.265-56.832 8.559-4.283 46.694-17.015 56.012-18.61z"/></svg>