<svg xmlns="http://www.w3.org/2000/svg" viewBox="0 0 1024 1024"><path fill="#b30101" d="M861.244 714.752c0 5.495.87 17.092 2.304 23.313l35.567 154.624c3.046 13.235 6.331 28.69 6.238 42.078l-.666 89.233c-11.085-2.543-14.694-3.439-17.46-5.265l13.5-.239-.034-85.316-76.817-5-33.246-1.503-5.248 26.104c-.588 2.91-7.552 8.38-10.513 7.885-3.695-.615-10.334-8.303-10.666-12.22l-1.997-23.595-37.658-3.516-1.886 23.058c-.34 4.147-14.395 7.168-16.725 5.597l-6.784-20.701c-.75-2.287-3.985-6.98-6.161-7.706-7.825-2.594-23.492-4.002-33.118-4.062l-1.263 49.144c-.153 6.05 1.272 16.955 3.465 21.64-.88-.452-10.957-6.272-13.585-4.488l-18.5 12.57c-3.952 2.687-15.514 5.46-19.243 2.602l-26.812-20.583-22.51 15.548c-2.68 1.852-8.159 4.958-10.898 4.625-2.057-.247-5.794-2.935-8.286-4.796l-25.07-18.73-10.676 4.113.154-65.895-38.298-.179-.623 40.107-29.414 10.581-3.746-37.854-.854-8.32c-.222-2.201-6.724-3.686-8.943-3.635l-11.469.265c-7.372.17 4.088 22.323-13.26 33.843-4.651 3.089-16.555 1.271-22.434-1.493l-4.617-28.963c-53.35-.99-12.203 14.012-56.866 5.146-8.78-1.74-23.663.017-34.347.52l-43.161 2.023-52.992 3.72-62.115 5.436.154 84.634-5.043-4.096 1.288-80.316c.145-9.028 3.15-21.87 5.07-29.679l4.18-.768c.769.41 8.175 1.954 10.957 1.75l75.913-5.59 132.796-8.559c103.91-6.698 204.92-7.543 308.864-1.51l126.592 7.339 41.907 2.858c5.145.35 13.721-.375 19.652-.938l-16.631-22.366-1.502-17.562c-8.21 4.779-18.142 11.904-24.363 11.913l-110.575.093c-12.151.009-22.52-12.5-22.536-22.698-.017-10.36 11.392-22.204 22.826-22.102l99.473.896c10.146.094 20.617-9.472 20.31-20.19l-2.023-69.034c3.08-2.645 11.589-8.78 16.026-10.496l34.398-13.286z"/><path fill="#b90101" d="m435.994 25.941 14.447 10.53c4.087 2.979 12.765 4.165 17.817 2.39l.555 35.6.563 36.524 36.326 1.143 1.28-55.919c.18-7.962-1.723-18.978-3.285-26.12l21.308 13.474 18.474-8.773c-.708.948-5.051 10.752-5.009 14.02l.777 60.289c7.27 4.25 22.263 3.25 26.402-2.808l-.546-80.546 27.332 17.894 23.783-21.384c14.31-12.868 29.926 19.02 46.472 16.947-2.244 5.24-2.295 16.717-2.449 23.544l-.99 44.057 34.475-2.406.495-86.272 13.372 6.818c7.278 3.712 14.634 6.955 21.051 9.276-4.71 4.3-4.181 19.481-4.173 26.419l.052 44.057c52.77 3.96 45.107-19.191 59.392-11.622 4.838 2.569 15.505 7.97 20.505 7.57l100.463-8.056c.188 15.718-2.415 32.665-6.434 49.553L862.95 291.482c-3.003 12.646-1.45 34.32-1.459 46.634l-44.663-11.545-6.511-9.737c-3.405-83.499 1.886-57.899 25.677-126.763 5.743-16.622 14.592-45.602 18.97-61.371.673-2.432-9.174-4.967-11.956-4.779l-65.852 4.463-79.641 4.813-66.543 2.97-70.323 4.223-83.858.316-3.865-4.565-58.317.256-92.561-4.028-61.44-3.61-70.75-4.633-65.382-5.24c-4.992-3.14-10.001-124.791-.495-114.807l-.589 89.08 66.773 4.624c14.626 1.016 29.304 1.22 43.93 1.383l35.362 3.729c57.011 6.016 34.586-4.804 79.565 1.92l22.997 3.439c5.666-11.75 12.536-17.4 24.61-21.342l11.614 19.95 26.334 2.646 1.374-83.575z"/><path fill="#f22a1e" d="m414.643 136.405 4.173 4.523 58.01-.213 83.857-.316 3.234 6.494c-21.922 8.124-36.813 6.485-57.387 4.07l-29.431-3.456c-20.199-2.372-31.932.964-52.037 8.15l-26.461 9.463c-2.782 17.152 8.32 32.435 15.001 44.86 3.285 6.101-6.528 18.116-11.656 22.818l-2.262-21.385c-.69-6.494-16.554-14.182-23.654-14.959l-173.491-18.833c-3.397-.367-11.094 2.364-13.201 4.779-10.71 12.262 21.53 72.081 23.364 99.396l2.978 44.28-50.85 12.544c.034-14.328.998-37.026-2.407-51.712l-31.436-135.655c-1.4-6.041-2.51-14.097-3.252-19.012-.4-2.637-2.5-8.132-3.293-9.037l.06-4.335 65.382 5.24 70.75 4.633 61.44 3.61 92.56 4.028z"/><path fill="#d50a02" d="m435.994 25.941-1.374 83.576-26.334-2.646-11.614-19.95c-12.075 3.942-18.935 9.591-24.61 21.341l-22.997-3.439c-44.98-6.724-22.554 4.096-79.565-1.92l-35.362-3.729c-14.627-.162-29.304-.367-43.93-1.382l-66.773-4.625.588-89.08c.333-1.587 9.822-1.501 12.51.555l33.024 25.31 35.67-26.726c38.366 24.874 17.758 24.772 39.722 15.965 8.918-3.575 16.802 14.32 21.504 11.486l10.548-6.357 22.152-13.013 31.787 25.07 21.947-16.298c3.764-2.799 14.627-2.918 18.356.043l25.062 19.865 24.704-17.34c2.065-1.45 8.098-4.027 9.78-2.235l5.188 5.53z"/><path fill="#d60802" d="m467.746 953.19-.17 29.04-17.23-6.281c-1.023-.376-3.413-.563-4.411 0-2.799 1.57-6.58 4.693-9.43 7.33l-14.31 13.38c-3.746 3.499-15.061 3.67-19.32.435l-24.208-18.397-22.98 19.993c-2.817 2.45-12.638 8.115-15.48 6.349l-26.931-16.717c-3.712-2.304-14.806 5.376-18.262 8.474l-17.245 15.42-26.343-15.514c-3.14-1.843-12.638-4.122-15.855-1.647l-29.807 22.895-36.83-22.451-35.669 27.221c-1.664 1.271-9.54-1.519-9.549-3.627l-.153-84.633 62.114-5.436 52.992-3.72 43.161-2.023c10.684-.503 25.558-2.261 34.347-.52 44.664 8.857 3.516-6.136 56.866-5.146l4.617 28.962c5.88 2.765 17.783 4.582 22.434 1.493 17.348-11.52 5.888-33.68 13.26-33.843l11.47-.264c2.218-.052 8.712 1.433 8.942 3.635l.854 8.32 3.746 37.854 29.414-10.582z"/><path fill="#fb7377" d="m816.862 326.57 44.663 11.546-.281 376.636-34.398 13.286c-4.437 1.716-12.945 7.851-16.026 10.496l-3.498-.486c.076-.341 2.048-8.815 2.048-10.906l.145-232.746v-40.457l-1.28-128.554c2.252.238 6.52.648 8.635 1.194z"/><path fill="#fdcbcc" d="M215.689 326.084c1.33-.324 3.993-.315 5.333-.52l-7.006 10.231.41 69.683-.035 74.932.427 114.756-.375 119.432c-.017 5.829.904 13.696 1.459 18.057l-3.337.196-48.213-18.056-.162-84.523.648-291.644z"/><path fill="#cb0401" d="m887.228 1018.735-32.273-21.274-27.904 17.272c-2.51 1.553-11.546 3.61-13.688 1.911l-30.242-24.004-35.686 20.932-27.589-25.489c.675.333-3.805-5.453-5.06-4.736l-21.606 12.297-.162-74.061c2.176.725 5.41 5.419 6.16 7.706l6.785 20.701c2.32 1.57 16.384-1.45 16.725-5.597l1.886-23.058 37.657 3.516 1.997 23.595c.333 3.917 6.963 11.597 10.667 12.22 2.952.495 9.924-4.975 10.513-7.885l5.248-26.104 33.246 1.502 76.817 5 .034 85.317-13.5.239z"/><path fill="#cf0701" d="m904.909 92.587-100.463 8.055c-5 .401-15.667-5.009-20.506-7.569-14.276-7.569-6.622 15.573-59.392 11.622l-.05-44.057c0-6.938-.539-22.119 4.172-26.42l22.4-20.454c1.758-1.604 11.068-2.585 13.141-1.177l28.98 19.626 23.722-21.487c5.53-5.009 15.573-4.036 22.272.606l23.731 16.453L903.826 0z"/><path fill="#f93931" d="M212.557 732.851c.802 23.399-26.462 80.947-14.464 95.633l-37.538 42.684c-10.505 11.947-21.24 22.972-31.386 33.067l-4.181.768-.418-4.83c.418-.35 2.68-6.972 3.293-9.703l27.648-123.588c4.72-21.103 8.867-35.985 8.832-52.079l48.214 18.057z"/><path fill="#e51104" d="M503.697 30.089c1.562 7.142 3.465 18.158 3.285 26.12l-1.28 55.919-36.326-1.143-.563-36.523-.555-35.601 18.628-14.575c1.75-1.374 10.53-2.611 11.939-.725z"/><path fill="#e20e02" d="m506.513 979.157-18.74 16.965c-4.42 4.002-19.156-2.048-19.506-8.064l-.692-5.829.171-29.039.623-40.106 38.298.179z"/><path fill="#e10d02" d="m693.01 921.574.161 74.061c0 1.34-.256 3.917-.384 5.453-5.171 3.558-15.07 5.197-19.754.247-5.556-5.87-9.447-9.847-10.949-13.038-2.193-4.685-3.618-15.59-3.464-21.641l1.263-49.143c9.625.068 25.292 1.467 33.118 4.061z"/><path fill="#e51105" d="m694.238 18.125-.495 86.272-34.475 2.406.99-44.057c.154-6.827.213-18.304 2.45-23.544 3.959-9.259 28.97-30.148 31.53-21.077"/><path fill="#e81306" d="m565.12 25.745.546 80.546c-4.139 6.059-19.132 7.057-26.402 2.808l-.777-60.288c-.042-3.269 4.301-13.073 5.01-14.02l12.313-13.603c1.34-1.476 9.242 4.028 9.327 4.557z"/><path fill="#b90101" d="M127.744 132.258c-1.792-.81-3.26-1.288-3.268-2.773l-.026-6.255c.785.904 2.893 6.391 3.294 9.037z"/><path fill="#b30101" d="M719.838 988.075c-8.883 2.474-18.765 7.313-27.05 13.022.119-1.536.383-4.114.383-5.453l21.607-12.297c1.254-.717 5.734 5.069 5.06 4.736zm-252.263-5.846.692 5.829c-6.119-3.704-12.8-8.124-17.929-12.1l17.229 6.28zm-342.997-82.056-.12-6.784c-.025-1.604 1.537-2.065 3.414-2.919-.614 2.731-2.876 9.361-3.294 9.703m311.91 83.106c2.86-2.637 6.63-5.76 9.43-7.33-2.338 1.903-7.16 5.205-9.43 7.33"/><path fill="#d80a01" d="m781.781 749.577 25.54-11.538 3.5.487 2.022 69.035c.315 10.717-10.155 20.275-20.31 20.19l-99.473-.897c-11.426-.102-22.843 11.742-22.826 22.102.017 10.197 10.385 22.707 22.536 22.698l110.575-.093c6.23 0 16.154-7.143 24.363-11.913l1.502 17.562 16.631 22.365c-5.93.564-14.507 1.289-19.652.94l-41.907-2.86-126.592-7.338c-103.945-6.025-204.954-5.188-308.864 1.51l-132.796 8.56-75.913 5.588c-2.773.205-10.188-1.34-10.956-1.749 10.146-10.095 20.88-21.12 31.385-33.067l37.538-42.683 13.457-.06c2.859-.009 7.458.418 14.678.913l3.703-4.395c.708.035 2.304-.102 4.352-.239l133.88-15.667 103.569-10.777c14.865-1.545 31.701 0 49.612.187l4.054-3.669 22.34-.939 88.124 3.508 56.909-.043c9.139 0 78.412 5.333 72.192-24.2-1.272-6.008-2.057-11.333-4.404-12.34l-9.736-4.181-.418-50.279c-.017-2.158 6.203-7.543 7.1-6.024s4.83 6.554 4.923 8.303l2.347 45.995c6.8-1.443 13.363-3.346 17.007-4.984z"/><path fill="#e32011" d="M816.862 326.57c-2.108-.545-6.383-.955-8.636-1.194-10.684-4.523-20.753-6.972-39.782-7.919l-.256 426.334c0 4.582 12.731 7.031 13.585 5.786-3.644 1.646-10.206 3.55-17.007 4.983l-2.347-45.995c-.085-1.749-4.036-6.81-4.924-8.303s-7.125 3.866-7.1 6.025l.419 50.278 9.736 4.182c2.347 1.007 3.14 6.323 4.404 12.339 6.229 29.534-63.053 24.192-72.192 24.2v-21.009c0-2.235-3.414-8.627-3.823-8.772l2.33-277.709-.35-171.426c-.01-4.616-4.907-14.02-6.281-14.421 2.483-4.557 5.419-15.292 5.675-23.108.119-3.772-13.423-6.955-17.195-4.83-19.772 11.136-46.6 26.743-67.934 35.788l-34.987 14.84.273 26.385-.46 4.181-17.34 3.883-1.092-30.327-4.916.69-3.754-.324-6.264.137c-1.502.034-1.988 1.545-2.79 3.354l-20.514 2.739-.29 28.493-.751 395.989-18.569.068-1.886-2.858.128-389.923c0-4.719 2.321-14.182 3.832-22.408l-5.735-7.783-30.097-3.319-.827 30.37-1.426 22.11.922 375.202-22.391 2.39c-.23-.222-1.699-6.102-1.699-8.312l-.076-373.265-1.937-22.639-.623-26.308c-.052-2.33-9.259-4.037-15.65-5.171l-.453 30.583-.904 406.58c-1.28.085-3.106.323-4.088.255l-18.261-1.322.538-413.065.042-27.46-23.688-1.997-3.482 21.077-14.046-4.463-.162-19.567-27.648-2.065-1.058 447.88-22.776-4.215 1.05-224.35V317.663l-40.38.853-1.45-52.582 103.219-14.413c16.47-2.295 27.665-8.132 39.22-18.73 5.128-4.703 14.932-16.717 11.656-22.819-6.682-12.424-17.784-27.708-15.002-44.86l26.462-9.463c20.096-7.194 31.838-10.522 52.036-8.15l29.432 3.457c20.573 2.415 35.464 4.053 57.386-4.07l-3.234-6.495 70.323-4.224 66.543-2.97 79.642-4.812 65.852-4.463c2.781-.188 12.629 2.347 11.955 4.779-4.386 15.77-13.227 44.749-18.97 61.371-23.79 68.864-29.081 43.256-25.677 126.763l6.511 9.737zM713.37 307.517l-.128 459.537h35.933l.128-459.52H713.37zm50.457 5.282h-13.244v382.455h13.244zM476.834 140.715l-58.01.213-4.18-4.523 58.325-.256z"/><path fill="#fe9e9e" d="M401.954 232.806c-11.554 10.599-22.75 16.427-39.22 18.731L259.517 265.95l1.45 52.582-.443 25.558.23 405.674c-1.485-.187-4.13-.4-5.384-.836.853-134.434.742-300.05.682-415.89 0-9.872-10.317-11.28-12.757-10.905l-22.272 3.43c-1.34.206-4.002.197-5.333.521l-2.979-44.28c-1.834-27.314-34.073-87.133-23.364-99.395 2.108-2.415 9.805-5.146 13.201-4.78l173.491 18.834c7.1.768 22.964 8.465 23.655 14.959z"/><path fill="#fea6a7" d="m808.226 325.376 1.28 128.555v40.456l-.136 232.747c0 2.09-1.972 10.556-2.048 10.905l-25.54 11.538c-.854 1.245-13.586-1.204-13.586-5.786l.256-426.334c19.03.947 29.099 3.405 39.783 7.919z"/><path fill="#fefcfb" d="M255.369 748.928c-10.078-3.499-29.133-11.366-39.476-16.273-.563-4.352-1.476-12.228-1.459-18.057l.376-119.432-.427-114.756.034-74.932-.41-69.683 7.006-10.231 22.272-3.43c2.45-.376 12.758 1.032 12.758 10.905.06 115.84.17 281.455-.683 415.889z"/><path fill="#fe7e7e" d="M255.369 748.928c1.254.435 3.9.64 5.384.836 12.587 5.555 26.01 9.967 39.544 12.476l22.775 4.215 30.421 4.574c4.31.649 12.98-.435 17.374-.239l36.19 1.58 3.797-4.95c.982.068 2.816-.17 4.088-.256l21.333-1.468 22.392-2.39 35.08-1.39 18.569-.069 35.353.043.086 31.94-22.34.94-49.136-1.614-4.53 5.095-103.57 10.777-133.88 15.667c-2.047.137-3.643.274-4.351.24l-14.37-.734-4.011 4.224-13.457.06c-11.998-14.687 15.266-72.235 14.464-95.634l3.336-.196c10.343 4.907 29.39 12.774 39.476 16.273z"/><path fill="#fc6260" d="m570.078 761.77 26.112.555 27.05 1.11 20.318 1.715 22.494 1.092 22.912 1.263c.41.145 3.823 6.537 3.823 8.772v21.01l-56.9.042-88.124-3.507-.085-31.94 3.43-.427 18.987.316zm-44.68 33-4.054 3.668c-17.911-.187-34.748-1.732-49.613-.187l4.531-5.095z"/><path fill="#f93931" d="m229.93 824.934-3.703 4.395c-7.219-.495-11.818-.922-14.677-.913l4.01-4.224 14.37.734z"/><path fill="#fe7429" d="M300.297 762.24c-13.534-2.509-26.957-6.912-39.544-12.476l-.23-405.674.443-25.558 40.372-.853v220.203l-1.041 224.35z"/><path fill="#fd5c15" d="M392.585 766.089c-3.78-.274-10.445.4-17.946.768l-3.772 3.925c-4.386-.188-13.064.887-17.374.239-1.186-4.847-3.32-15.121-3.208-20.66l1.57-76.066-.102-21.7-.444-57.54c-.145-18.304 1.024-35.9 2.551-52.224l14.25 8.192 2.168-13.099-1.587-186.752-16.478-2.67-.281-8.312 14.046 4.463 3.481-21.078 23.689 1.997-.043 27.46-.538 413.065z"/><path fill="#fe6f1a" d="m713.28 767.089.16-459.537 35.934.012-.16 459.537z"/><path fill="#fe7124" d="m547.712 362.13 1.17 26.555.059 362.35c0 3.96 1.886 10.48 2.15 10.42l-3.43.427-35.354-.043.751-395.99 34.654-3.728z"/><path fill="#fd782d" d="m351.94 340.19.282 8.311-1.058 159.625c-.111 16.939 1.229 25.25 2.705 34.705-1.536 16.333-2.697 33.928-2.552 52.224l.444 57.54.102 21.7-1.57 76.067c-.11 5.53 2.014 15.803 3.209 20.659l-30.421-4.574 1.058-447.88 27.648 2.064.162 19.567z"/><path fill="#fe7122" d="m493.739 761.916-35.08 1.39-.922-375.201 1.425-22.11 30.609.11.307-27.152 5.734 7.782c-1.51 8.226-3.831 17.69-3.831 22.408l-.128 389.923 1.886 2.858z"/><path fill="#fd7527" d="M684.655 303.957c1.374.393 6.272 9.805 6.28 14.422l.35 171.426-2.33 277.709-22.911-1.263c-.572-5.726-1.255-13.125-1.255-21.462l.094-418.38c0-2.86-.034-8.03-1.468-8.201l-5.674-.666c1.45-1.476 7.176-6.476 9.788-7.415z"/><path fill="#fd6e20" d="m595.72 348.783.461 413.542-26.112-.554.999-251.921-1.058-152.636.46-4.181c6.366-.743 19.456-1.639 25.242-4.25z"/><path fill="#df1503" d="m570.078 761.77-18.987-.315c-.264.06-2.15-6.468-2.15-10.42l-.06-362.35-1.169-26.556c1.22-.128 3.473-.7 4.966-1.032l17.34-3.883 1.058 152.636z"/><path fill="#fd6b20" d="m432.563 361.463 1.937 22.64.077 373.264c0 2.21 1.468 8.09 1.698 8.312l-21.333 1.468.904-406.58 16.726.896z"/><path fill="#d80a01" d="M750.583 312.798h13.244v382.455h-13.244z"/><path fill="#fc7270" d="m684.655 303.957-17.126 6.17c-2.62.939-8.346 5.94-9.788 7.415l-14.49 9.507c-9.002 2.466-18.236 6.681-25.506 11.801l-22.016 9.933c-5.786 2.611-18.876 3.507-25.242 4.25l-.273-26.386 34.987-14.839c21.333-9.045 48.162-24.653 67.934-35.789 3.772-2.125 17.314 1.058 17.195 4.83-.248 7.817-3.183 18.552-5.675 23.108"/><path fill="#fd9088" d="m547.712 362.13-34.654 3.728.29-28.493 20.514-2.739c2.62-.35 6.99-2.261 9.054-3.49l3.755.324 1.05 30.67z"/><path fill="#663a34" d="m490.078 338.944-.307 27.153-30.61-.11.82-30.371z"/><path fill="#271210" d="m432.563 361.463-16.725-.896.452-30.583c6.4 1.135 15.6 2.842 15.65 5.171z"/><path fill="#fd782d" d="m392.585 766.089 18.26 1.322-3.796 4.95-36.19-1.58 3.771-3.924c7.501-.367 14.166-1.042 17.946-.768z"/><path fill="#fd6e20" d="M552.678 361.097c-1.501.332-3.746.904-4.966 1.032l-1.05-30.669 4.916-.69 1.092 30.327zm-9.77-29.961c-2.057 1.22-6.426 3.132-9.054 3.49.802-1.809 1.288-3.32 2.79-3.353z"/><path fill="#f53d09" d="M617.745 338.85c.862-.256 6.238 7.015 6.23 9.412l-.154 30.328-.205 44.518-.11 66.245.417 167.594-.102 44.092-.572 62.396-27.05-1.11-.461-413.542 22.016-9.933z"/><path fill="#d61503" d="m666.044 766.242-22.494-1.092-.299-438.11 14.49-9.506 5.674.665c1.434.171 1.468 5.342 1.468 8.201l-.094 418.38c0 8.338.683 15.736 1.255 21.462"/><path fill="#fc5e17" d="m643.251 327.049.299 438.11-20.318-1.716.572-62.396.102-44.091-.418-167.595.11-66.244.206-44.519.153-30.327c.009-2.398-5.359-9.668-6.229-9.412 7.27-5.12 16.503-9.336 25.506-11.802z"/><path fill="#e32011" d="M353.86 542.83c-1.476-9.454-2.816-17.765-2.705-34.704l1.058-159.625 16.478 2.671 1.587 186.752-2.167 13.099z"/></svg>