<svg xmlns="http://www.w3.org/2000/svg" viewBox="0 0 1024 1024"><path fill="#c0d96b" d="M502.688 174.63c.008.077 1.135-.392 1.356.896.393 2.236.137 4.489.163 6.725 6.067 1.203 12.202-2.313 17.39.11l2.407-3.157.836 3.14c45.977 1.937 89.42 26.283 115.6 63.898 45.27 65.023 43.896 150.425 73.14 222.19 22.357 54.877 63.948 98.994 86.86 153.684 50.355 120.192 19.26 249.48-79.249 333.345-65.117 55.432-128.315 68.966-212.428 68.522l-20.19-4.932c-161.16-44.305-242.908-213.58-200.276-371.429 16.487-61.03 55.313-108.91 73.54-168.524 24.755-80.964 19.891-175.368 71.603-246.56 11.998-16.513 34.543-37.71 53.563-45.406 4.284-1.733 9.361-2.22 13.193-3.601 1.11-.402.853-1.204.947-1.298.12-.119 1.118.154 1.365-.87l.154-6.741zm84.71 58.035-3.806 3.806c-2.936 10.146 8.516 21.87 13.278 30.49 12.27 22.169 14.856 42.487 24.302 64 3.448 7.85 8.662 16.776 18.663 13.473 8.746-2.884 8.192-16.742 7.603-24.499-1.587-20.872-13.713-51.242-26.786-67.6-6.596-8.252-21.93-22.93-33.246-19.661zM692.545 546.29c-8.636 1.886-13.833 16.947-13.27 24.926 1.622 22.963 13.159 52.778 17.997 76.399 9.626 46.958 10.795 88.908 7.936 136.61-.102 1.774-1.45 3.609-1.561 6.05-.768 17.057-1.4 36.342 13.815 47.214 14.669 10.487 30.694.887 40.252-11.443 24.55-31.667 28.765-94.967 23.645-133.094-5.785-43.085-32.435-101.12-60.86-134.007-7.585-8.78-15.453-15.385-27.954-12.655"/><path fill="#83af36" d="M501.16 182.242c-.094.094.162.896-.947 1.297-3.823 1.382-8.9 1.869-13.192 3.601-19.021 7.697-41.575 28.885-53.564 45.406-51.712 71.193-46.848 165.605-71.603 246.56-18.227 59.614-57.053 107.495-73.54 168.525-42.632 157.848 39.108 327.123 200.277 371.428l20.19 4.932c-67.251-.35-123.06-9.523-179.643-48.016-111.496-75.836-158.48-212.923-110.925-340.564 24.738-66.389 74.53-116.317 98.347-183.304 28.919-81.348 27.17-193.774 107.929-245.263 22.621-14.422 49.825-23.45 76.68-24.585z"/><path fill="#d5e691" d="M692.545 546.29c12.501-2.723 20.369 3.882 27.955 12.654 28.433 32.887 55.074 90.922 60.86 134.007 5.12 38.127.904 101.435-23.646 133.094-9.566 12.33-25.583 21.93-40.252 11.443-15.215-10.872-14.583-30.157-13.815-47.215.11-2.44 1.45-4.275 1.561-6.05 2.859-47.701 1.69-89.65-7.936-136.61-4.838-23.62-16.375-53.435-17.996-76.398-.564-7.97 4.633-23.04 13.269-24.926"/><path fill="#d3e490" d="M587.398 232.665c11.315-3.268 26.658 11.41 33.245 19.66 13.073 16.36 25.2 46.738 26.786 67.602.59 7.756 1.144 21.606-7.603 24.499-9.992 3.302-15.215-5.624-18.662-13.474-9.438-21.513-12.032-41.83-24.303-64-4.762-8.61-16.213-20.343-13.278-30.49l3.806-3.805z"/><path fill="#5c9445" d="M746.364 5.68c1.98.486-.042 4.949-.392 6.46-24.84 106.862-111.112 163.787-219.4 137.863l-2.568 3.328c-.017-.4-1.289-4.616-1.52-7.611 7.502-2.595 14.763-8.91 21.326-13.696.819 3.225 4.573.008 5.998-.854 42.949-26.026 85.811-57.352 127.897-85.273.999-.665 7.587-3.618 4.694-5.205 7.51-4.318 15.744-10.581 23.842-14.985 13.107-7.125 26.974-12.996 40.123-20.019z"/><path fill="#80b354" d="M746.364 5.68c-13.15 7.023-27.016 12.902-40.123 20.019-8.098 4.403-16.324 10.666-23.842 14.984-50.27 28.894-91.784 57.13-138.59 91.332-6.562 4.796-13.823 11.102-21.324 13.696-.196-2.5.213-5.111 0-7.612l10.36-28.467c22.229-51.379 61.465-90.58 117.127-103.645 26.505-6.22 61.457-8.038 87.987-3.328 2.287.41 6.912 1.297 8.405 3.012z"/><path fill="#7c562c" d="M522.485 138.1c.213 2.5-.196 5.102 0 7.611.239 2.987 1.502 7.21 1.519 7.612.452 8.559-.324 17.297 0 25.873l-2.407 3.157c-5.196-2.432-11.323 1.092-17.39-.111-.026-2.236.23-4.488-.163-6.724-.221-1.28-1.348-.81-1.356-.896-3.79-26.982-7.211-47.915-21.564-72.064-5.197-8.746-13.184-14.993-16.29-24.32 2.236-8.73 9.19-14.6 17.613-17.45 13.568-4.583 16.99.529 22.545 11.827 8.806 17.928 15.795 45.593 17.493 65.476z"/><path fill="#518741" d="M682.399 40.683c2.893 1.587-3.695 4.54-4.694 5.206-42.086 27.912-84.957 59.238-127.897 85.273-1.425.862-5.188 4.079-5.998.853 46.805-34.193 88.32-62.43 138.589-91.332"/></svg>