<svg xmlns="http://www.w3.org/2000/svg" viewBox="0 0 1024 1024"><path fill="#191919" d="M551.822 62.578a28.444 28.444 0 1 1 34.134 45.51c-30.35 22.756-45.512 56.89-45.512 105.245a28.444 28.444 0 1 1-56.888 0c0-65.422 22.755-116.622 68.266-150.755"/><path fill="#dd3937" d="M753.778 384c21.76 101.532 113.778 170.667 128 298.667 20.409 183.665-71.41 286.762-256 256a369 369 0 0 1-14.82-2.774C587.52 954.951 551.88 967.111 512 967.111c-39.993 0-75.705-12.231-99.186-31.388a367 367 0 0 1-14.592 2.944c-156.444 28.444-276.409-72.391-256-256 14.222-128 106.24-197.135 128-298.667S355.556 128 512 156.444C668.444 128 732.018 282.468 753.778 384"/><path fill="#ff5755" d="M323.556 298.667c60.444-177.778 323.128-101.533 344.888 0 21.76 101.532 113.778 170.666 128 298.666 20.41 183.666-71.41 286.763-256 256-54.57-9.102-74.666 0-128-35.555 0 0-14.222 35.555-92.444 49.778-40.391 7.338-85.476-8.15-119.225-17.252C163.555 832 177.778 704 174.222 657.778c14.222-128 88.89-167.111 149.334-359.111"/><path fill="#191919" d="M753.778 384c21.76 101.532 113.778 170.667 128 298.667 20.409 183.665-71.41 286.762-256 256a369 369 0 0 1-14.82-2.774C587.52 954.951 551.88 967.111 512 967.111c-39.993 0-75.705-12.231-99.186-31.388a367 367 0 0 1-14.592 2.944c-156.444 28.444-276.409-72.391-256-256 14.222-128 106.24-197.135 128-298.667l2.233-9.984c23.723-101.32 88.15-245.092 239.545-217.572C668.444 128 732.018 282.468 753.778 384m-55.623 11.918c-27.108-126.506-85.775-199.907-175.972-183.51L512 214.259l-10.183-1.85c-88.846-16.141-147.1 54.828-174.734 177.878l-1.238 5.632c-7.879 36.765-21.902 68.793-45.653 109.938l-7.708 13.127-16.171 26.809c-37.177 61.625-52.38 96.654-57.543 143.16-15.574 140.104 64.782 216.378 189.27 193.75a316 316 0 0 0 12.372-2.503l26.966-6.03 21.404 17.493c13.511 11.022 36.836 18.56 63.218 18.56 26.311 0 49.579-7.495 63.09-18.489l21.006-17.066 26.496 5.546a296 296 0 0 0 12.544 2.333c142.649 23.78 206.89-42.553 190.094-193.593-4.978-44.957-19.37-79.19-53.902-137.074l-19.812-32.896-3.669-6.187c-24.832-42.197-39.751-74.524-48.327-110.79z"/><path fill="#191919" d="M464.327 842.155a14.222 14.222 0 1 1 16.939 22.855l-5.917 4.466c-22.627 17.251-37.305 25.912-71.85 39.722a14.222 14.222 0 0 1-10.553-26.396c28.615-11.45 41.614-18.546 58.851-31.218zm76.117 3.498a14.22 14.22 0 0 1 19.912-2.901l5.205 3.925c20.864 15.887 33.408 23.282 65.507 36.125a14.222 14.222 0 0 1-10.552 26.396c-31.005-12.402-46.08-20.65-65.224-34.674l-11.946-8.974a14.22 14.22 0 0 1-2.902-19.91z"/><path fill="#fff" d="M332.914 506.212a14.222 14.222 0 0 1 25.984 11.576l-3.37 7.325c-5.036 10.567-10.497 20.195-22.714 40.604l-13.667 22.799a461 461 0 0 0-16.214 29.354c-12.33 24.576-18.489 45.227-18.489 64.797a14.222 14.222 0 1 1-28.444 0c0-24.676 7.381-49.351 21.476-77.526l2.944-5.745c3.982-7.624 8.32-15.332 14.122-25.16l20.622-34.488c9.16-15.545 13.085-23.055 17.75-33.536m29.326-85.903a14.222 14.222 0 1 1 25.557 12.473 212 212 0 0 0-6.058 13.64 14.222 14.222 0 1 1-26.368-10.682c2.133-5.262 4.409-10.41 6.869-15.43"/><path fill="#191919" d="M627.812 774.912a14.222 14.222 0 0 1 24.376 14.62c-31.032 51.74-78.35 78.024-140.188 78.024s-109.156-26.283-140.188-78.024a14.222 14.222 0 0 1 24.376-14.62c25.856 43.08 63.872 64.2 115.812 64.2s89.956-21.12 115.812-64.2"/></svg>