<svg xmlns="http://www.w3.org/2000/svg" viewBox="0 0 1024 1024"><path fill="#907935" d="m801.92 141.625 80.455 80.455-170.98 170.965-80.455-80.455z"/><path fill="#191919" d="m897.45 207.004-80.454-80.455a21.333 21.333 0 0 0-30.152 0L615.864 297.5a21.333 21.333 0 0 0 0 30.18l80.456 80.455a21.333 21.333 0 0 0 30.165 0L897.451 237.17a21.333 21.333 0 0 0 0-30.166m-45.254 15.076-140.8 140.8-50.276-50.29 140.8-140.8z"/><path fill="#bbdb4a" d="m252.117 771.883-83.015-7.794 21.262-82.261-73.742-35.912 47.744-71.608-55.58-59.705 68.494-52.295-30.72-76.288 80.967-26.681-2.133-83.67 83.655 2.134 26.695-80.953 76.274 30.72 52.31-68.494 59.69 55.58 71.609-47.758 35.91 73.742 82.276-21.262 7.794 83.015 83.015 7.794-21.262 82.275 73.742 35.911-47.758 71.61 55.58 59.69-68.48 52.31 30.706 76.273-80.953 26.695 2.134 83.67-83.67-2.134-26.68 80.953-76.289-30.72-52.295 68.494-59.705-55.58-71.608 47.744-35.912-73.742-82.26 21.262z"/><path fill="#fff399" d="M252.117 771.883C300.985 689.82 366.28 607.943 448 526.223s172.928-156.331 273.607-223.83l83.015 7.794-21.262 82.275 73.742 35.911-47.758 71.61 55.58 59.69-68.48 52.31 30.706 76.273-80.953 26.695 2.134 83.67-83.67-2.134-26.68 80.953-76.289-30.72-52.295 68.494-59.705-55.58-71.608 47.744-35.912-73.742-82.26 21.262z"/><path fill="#191919" d="m807.282 281.87-83.015-7.794a28.44 28.44 0 0 0-18.49 4.694c-102.214 68.508-194.844 144.298-277.901 227.342-83.3 83.314-150.06 167.04-200.207 251.221a28.44 28.44 0 0 0-3.882 17.21l7.793 83.014.3 2.247a28.444 28.444 0 0 0 35.142 22.642l59.762-15.46 25.742 52.85.996 1.878a28.444 28.444 0 0 0 40.348 9.33l52.893-35.272 43.235 40.25 1.579 1.365a28.444 28.444 0 0 0 40.42-4.907l39.153-51.3 56.206 22.642 2.091.754a28.444 28.444 0 0 0 35.541-18.233l20.068-60.9 62.55 1.608 2.417-.043a28.444 28.444 0 0 0 26.738-29.127l-1.593-62.55 60.885-20.053 2.077-.782a28.444 28.444 0 0 0 15.402-36.864l-22.613-56.206 51.271-39.14 1.607-1.322a28.444 28.444 0 0 0 1.949-40.676l-40.25-43.236 35.272-52.906 1.11-1.806a28.444 28.444 0 0 0-12.317-39.538l-52.85-25.742 15.445-59.748a28.444 28.444 0 0 0-24.888-35.442zm-2.66 28.317-21.262 82.275 73.742 35.911-47.758 71.61 55.58 59.69-68.48 52.31 30.706 76.273-80.953 26.695 2.134 83.67-83.67-2.134-26.68 80.953-76.289-30.72-52.295 68.494-59.705-55.58-71.608 47.744-35.912-73.742-82.26 21.262-7.795-83.015C300.985 689.82 366.28 607.943 448 526.223s172.928-156.331 273.607-223.83z"/><path fill="#191919" d="m807.282 281.87-59.563-5.59-5.59-59.562-.298-2.233a28.444 28.444 0 0 0-35.129-22.641l-59.776 15.43-25.728-52.835-.995-1.877a28.444 28.444 0 0 0-40.363-9.33l-52.907 35.271-43.235-40.249-1.565-1.365a28.444 28.444 0 0 0-40.42 4.92l-39.153 51.272-56.192-22.613-2.09-.754a28.444 28.444 0 0 0-35.556 18.233l-20.054 60.87-62.549-1.578-2.418.029a28.444 28.444 0 0 0-26.737 29.127l1.578 62.535-60.87 20.082-2.092.782a28.444 28.444 0 0 0-15.402 36.85l22.627 56.192-51.285 39.168-1.607 1.322a28.444 28.444 0 0 0-1.934 40.676l40.249 43.221-35.272 52.907-1.123 1.82a28.444 28.444 0 0 0 12.33 39.538L157 697.202l-15.445 59.776-.47 2.204a28.444 28.444 0 0 0 25.359 33.238l59.562 5.575 5.575 59.562.3 2.247a28.444 28.444 0 0 0 35.142 22.642l59.762-15.46 25.742 52.85.996 1.878a28.444 28.444 0 0 0 40.348 9.33l52.907-35.272 43.235 40.25 1.565 1.365a28.444 28.444 0 0 0 40.42-4.907l39.153-51.3 56.206 22.642 2.091.754a28.444 28.444 0 0 0 35.541-18.233l20.054-60.9 62.563 1.608 2.418-.043a28.444 28.444 0 0 0 26.738-29.127l-1.593-62.55 60.885-20.053 2.077-.782a28.444 28.444 0 0 0 15.402-36.864l-22.613-56.206 51.271-39.14 1.607-1.322a28.444 28.444 0 0 0 1.949-40.676l-40.25-43.236 35.272-52.906 1.11-1.806a28.444 28.444 0 0 0-12.317-39.538l-52.85-25.742 15.445-59.748a28.444 28.444 0 0 0-24.888-35.442zm-38.557 53.518-12.913 49.949-.498 2.318a28.444 28.444 0 0 0 15.587 30.379l44.473 21.632-29.696 44.53-1.194 1.976a28.44 28.44 0 0 0 4.039 33.18l34.204 36.737-43.548 33.28-1.835 1.522a28.44 28.44 0 0 0-7.296 31.715l19.4 48.128-52.168 17.21-2.176.81a28.44 28.44 0 0 0-17.351 26.922l1.38 53.732-53.746-1.365-2.333.028a28.44 28.44 0 0 0-25.4 19.499l-17.195 52.138-48.143-19.37-2.247-.797a28.44 28.44 0 0 0-30.976 9.913l-33.28 43.549-36.736-34.19-1.749-1.508a28.44 28.44 0 0 0-33.422-1.337l-44.516 29.668-21.646-44.445-1.124-2.09a28.444 28.444 0 0 0-31.573-13l-49.934 12.9-4.693-49.778-.342-2.517a28.444 28.444 0 0 0-25.315-23.14l-49.778-4.693 12.914-49.92.497-2.333a28.444 28.444 0 0 0-15.587-30.364l-44.459-21.66 29.682-44.516 1.209-1.963a28.44 28.44 0 0 0-4.053-33.194l-34.205-36.75 43.563-33.266 1.82-1.522a28.44 28.44 0 0 0 7.296-31.701l-19.385-48.157 52.153-17.18 2.19-.825a28.44 28.44 0 0 0 17.352-26.909l-1.394-53.76 53.76 1.394 2.318-.043a28.44 28.44 0 0 0 25.415-19.484l17.18-52.167 48.157 19.399 2.233.796a28.44 28.44 0 0 0 30.99-9.927l33.28-43.562 36.736 34.218 1.75 1.494a28.44 28.44 0 0 0 33.407 1.35l44.516-29.695 21.646 44.473 1.124 2.076a28.444 28.444 0 0 0 31.573 13.013l49.949-12.928 4.679 49.792a28.444 28.444 0 0 0 25.657 25.657z"/><path fill="#fcd74b" d="M380.558 748.501c42.51 39.424 180.736 32.171 272.356-59.449s112.54-224.725 59.449-272.355C659.27 369.08 338.063 709.063 380.558 748.5"/><path fill="#fff" d="m652.231 576.142-1.237-1.11a14.22 14.22 0 0 0-19.982 2.376c-17.138 21.76-49.152 48.697-84.239 72.092a14.222 14.222 0 0 0 15.787 23.666c37.362-24.903 71.467-53.618 90.809-78.165a14.22 14.22 0 0 0-1.138-18.873zm47.573-54.343a14.222 14.222 0 0 0-27.136-8.533 125.7 125.7 0 0 1-8.334 20.067 14.222 14.222 0 1 0 25.259 13.085c4.195-8.107 7.595-16.313 10.211-24.619"/><path fill="#729008" d="M371.854 310.812a14.22 14.22 0 0 1 14.222 14.223v21.319h21.334a14.22 14.22 0 0 1 14.122 12.444l.1 1.792a14.22 14.22 0 0 1-14.222 14.222h-35.556a14.22 14.22 0 0 1-14.222-14.222v-35.555a14.22 14.22 0 0 1 14.222-14.223m-128 184.89a14.22 14.22 0 0 1 14.222 14.222v21.319h21.334a14.22 14.22 0 0 1 14.122 12.444l.1 1.792a14.22 14.22 0 0 1-14.222 14.222h-35.556a14.22 14.22 0 0 1-14.222-14.222v-35.555a14.22 14.22 0 0 1 14.222-14.223M528.3 282.367a14.22 14.22 0 0 1 14.222 14.222v21.32h21.333a14.22 14.22 0 0 1 14.123 12.444l.1 1.792a14.22 14.22 0 0 1-14.223 14.222H528.3a14.22 14.22 0 0 1-14.223-14.222V296.59a14.22 14.22 0 0 1 14.223-14.222M359.367 440.533a14.22 14.22 0 0 1 14.222 14.223v21.319h21.334a14.22 14.22 0 0 1 14.108 12.444l.114 1.792a14.22 14.22 0 0 1-14.222 14.222h-35.556a14.22 14.22 0 0 1-14.222-14.222v-35.555a14.22 14.22 0 0 1 14.222-14.223"/></svg>