<svg xmlns="http://www.w3.org/2000/svg" viewBox="0 0 1024 1024"><path fill="#191919" d="M833.806 190.194a28.444 28.444 0 0 1 0 40.22l-80.44 80.455a28.444 28.444 0 1 1-40.235-40.234l80.455-80.441a28.444 28.444 0 0 1 40.22 0"/><path fill="#e82626" d="m215.538 798.848-35.414-16.967c-6.528-3.115-10.808-9.344-11.676-17.01l-4.92-41.074a22.5 22.5 0 0 0-5.917-12.9l-27.023-28.273c-5.063-5.305-7.21-13.227-5.845-21.547l6.727-43.093c.81-5.476.142-10.866-1.92-15.488l-16.91-37.447c-3.314-7.282-3.172-16.356.356-24.633l17.294-40.846a32.85 32.85 0 0 0 2.36-16.868l-5.887-43.136a34.35 34.35 0 0 1 6.855-25.4l26.453-34.305a34.13 34.13 0 0 0 6.741-16.398l5.476-44.487c1.11-9.387 6.002-17.92 13.227-23.04l34.033-23.865c4.722-3.271 8.505-8.064 10.838-13.724l16.796-41.103c3.556-8.789 10.51-15.274 18.788-17.493l39.666-10.297c5.39-1.365 10.296-4.508 14.08-9.045l27.633-33.124c5.831-6.969 14.237-10.467 22.784-9.472l42.454 5.191a25.6 25.6 0 0 0 16-3.228l37.091-21.035a26.07 26.07 0 0 1 24.605-.398l41.273 20.722c5.12 2.574 10.808 3.527 16.312 2.745l43.805-6.016c8.547-1.138 17.351 1.92 23.964 8.291l35.243 33.963c4.224 4.082 9.444 6.884 15.019 8.064l46.08 9.927a32.31 32.31 0 0 1 20.935 15.588l24.39 42.837a32.6 32.6 0 0 0 12.232 12.231l42.809 24.377c7.964 4.551 13.696 12.231 15.602 20.92l9.927 46.095c1.18 5.575 3.982 10.795 8.064 15.019l33.962 35.242c6.372 6.6 9.416 15.417 8.292 23.98l-6.016 43.804c-.782 5.504.17 11.178 2.745 16.298l20.722 41.273c3.982 7.965 3.84 17.038-.399 24.605l-21.034 37.091a25.6 25.6 0 0 0-3.229 16l5.191 42.453c.996 8.534-2.503 16.968-9.472 22.784l-33.123 27.634c-4.537 3.783-7.68 8.69-9.045 14.08l-10.312 39.666c-2.204 8.277-8.69 15.218-17.479 18.773L765.64 793.6c-5.66 2.332-10.439 6.116-13.724 10.837l-23.865 34.048c-5.12 7.211-13.654 12.103-23.04 13.213l-44.487 5.475a34.13 34.13 0 0 0-16.399 6.742l-34.304 26.453a34.35 34.35 0 0 1-25.4 6.855l-43.136-5.888a32.85 32.85 0 0 0-16.868 2.361L483.57 910.99c-8.263 3.527-17.351 3.67-24.633.356L421.49 894.45a27.78 27.78 0 0 0-15.502-1.92l-43.08 6.727c-8.334 1.365-16.241-.782-21.546-5.86l-28.274-27.008a22.5 22.5 0 0 0-12.9-5.916l-41.073-4.921c-7.68-.882-13.895-5.148-17.01-11.69l-16.967-35.414a20.4 20.4 0 0 0-9.614-9.6z"/><path fill="#ff5252" d="m187.093 656.626-35.413-16.967c-6.528-3.115-8.576-77.327-9.458-84.992l21.334-56.89-7.112-56.888L184.89 384l21.333-56.889 42.667-35.555 28.444-56.89 56.89-28.444 28.444-35.555h56.889l56.888-21.334 56.89 14.223h56.888L640 206.222l64 21.334 42.667 49.777L796.444 320c1.18 5.575 31.474 73.984 35.556 78.222l23.78 54.955a25.6 25.6 0 0 0-3.229 16l5.191 42.453c.996 8.534-2.503 16.967-9.472 22.784l-33.123 27.634c-4.537 3.783-7.68 8.69-9.046 14.08l-10.31 39.666c-2.205 8.277-8.69 15.218-17.48 18.773l-41.102 16.81c-5.66 2.333-10.44 6.116-13.725 10.838l-23.864 34.048c-5.12 7.21-13.654 12.103-23.04 13.213l-44.488 5.475a34.13 34.13 0 0 0-16.398 6.741l-34.304 26.454a34.35 34.35 0 0 1-25.4 6.855l-43.137-5.888a32.85 32.85 0 0 0-16.867 2.36l-40.846 17.295c-8.264 3.527-17.352 3.67-24.633.356l-37.447-16.896a27.78 27.78 0 0 0-15.503-1.92l-43.079 6.727c-8.334 1.365-16.242-.783-21.546-5.86l-28.274-27.008a22.5 22.5 0 0 0-12.9-5.916l-41.074-4.921c-7.68-.882-13.895-5.149-17.01-11.69l-16.966-35.414a20.4 20.4 0 0 0-9.615-9.6"/><path fill="#191919" d="m827.96 311.993 9.928 46.094c1.18 5.575 3.982 10.795 8.064 15.019l33.963 35.242c6.371 6.6 9.415 15.417 8.291 23.98l-6.016 43.804c-.782 5.504.17 11.178 2.745 16.298l20.722 41.273c3.982 7.965 3.84 17.038-.398 24.605l-21.035 37.091a25.6 25.6 0 0 0-3.228 16l5.19 42.453c.996 8.534-2.502 16.968-9.471 22.784L843.59 704.27c-4.537 3.783-7.68 8.69-9.045 14.08l-10.311 39.666c-2.205 8.277-8.69 15.218-17.48 18.773L765.654 793.6c-5.66 2.332-10.439 6.116-13.724 10.837l-23.865 34.048c-5.12 7.211-13.653 12.103-23.04 13.213l-44.487 5.475a34.13 34.13 0 0 0-16.398 6.742l-34.304 26.453a34.35 34.35 0 0 1-25.401 6.855l-43.136-5.888a32.85 32.85 0 0 0-16.868 2.361l-40.846 17.294c-8.263 3.527-17.351 3.67-24.633.356l-37.447-16.896a27.78 27.78 0 0 0-15.502-1.92l-43.08 6.727c-8.334 1.365-16.241-.782-21.546-5.86l-28.274-27.008a22.5 22.5 0 0 0-12.9-5.916l-41.073-4.921c-7.68-.882-13.895-5.148-17.01-11.69l-16.967-35.414a20.4 20.4 0 0 0-9.614-9.6l-35.414-16.967c-6.528-3.115-10.808-9.344-11.676-17.01l-4.92-41.074a22.5 22.5 0 0 0-5.917-12.9l-27.023-28.273c-5.063-5.305-7.21-13.227-5.845-21.547l6.727-43.093c.81-5.476.142-10.866-1.92-15.488l-16.91-37.447c-3.314-7.282-3.172-16.356.356-24.633l17.294-40.846a32.85 32.85 0 0 0 2.36-16.868l-5.887-43.136a34.35 34.35 0 0 1 6.855-25.4l26.453-34.305a34.13 34.13 0 0 0 6.741-16.398l5.476-44.487c1.11-9.387 6.002-17.92 13.227-23.04l34.033-23.865c4.722-3.271 8.505-8.064 10.838-13.724l16.796-41.103c3.556-8.789 10.51-15.274 18.788-17.493l39.666-10.297c5.39-1.365 10.296-4.508 14.08-9.045l27.633-33.124c5.831-6.969 14.237-10.467 22.784-9.472l42.454 5.191a25.6 25.6 0 0 0 16-3.228l37.091-21.035a26.07 26.07 0 0 1 24.605-.398l41.273 20.722c5.12 2.574 10.808 3.527 16.312 2.745l43.805-6.016c8.547-1.138 17.351 1.92 23.964 8.291l35.243 33.963c4.224 4.082 9.444 6.884 15.019 8.064l46.08 9.927a32.31 32.31 0 0 1 20.935 15.588l24.39 42.837a32.6 32.6 0 0 0 12.232 12.231l42.809 24.377c7.964 4.551 13.696 12.231 15.602 20.92zM688.883 249.23l-34.745-7.466a87.8 87.8 0 0 1-42.738-22.756l-25.884-24.974-29.554 4.082a84.3 84.3 0 0 1-46.336-6.514l-3.584-1.707-26.78-13.44-22.386 12.686a82.4 82.4 0 0 1-47.403 10.724l-3.769-.398-25.23-3.087-17.053 20.466a84 84 0 0 1-39.608 26.596l-3.869 1.08-25.102 6.5-11.861 29.042a88.14 88.14 0 0 1-27.407 36.124l-3.342 2.46-24.704 17.31-4.267 34.773a91.1 91.1 0 0 1-15.53 40.334l-2.589 3.527-20.679 26.837 4.594 33.85c1.877 14.221.2 28.742-4.779 42.381l-1.578 4.082-13.156 31.062 11.904 26.396a84.34 84.34 0 0 1 6.741 43.477l-.512 4.096-4.465 28.559 15.53 16.27a79.2 79.2 0 0 1 20.694 41.5l.583 3.94 2.66 22.144 17.521 8.39a77.3 77.3 0 0 1 34.404 32.684l1.849 3.626 8.362 17.437 22.414 2.702a79.53 79.53 0 0 1 42.24 18.574l2.93 2.66 16.27 15.516 28.9-4.494a84.9 84.9 0 0 1 43.563 4.75l3.769 1.565 26.282 11.847 31.29-13.227a90 90 0 0 1 42.154-6.713l4.352.47 33.578 4.565 26.866-20.68a91.04 91.04 0 0 1 39.751-17.464l4.41-.683 34.445-4.252 17.195-24.491a87.77 87.77 0 0 1 35.001-29.298l3.897-1.72 28.843-11.805 6.428-24.747a83.7 83.7 0 0 1 24.69-41.116l3.058-2.702 20.48-17.067-3.058-24.96a82.35 82.35 0 0 1 8.362-47.858l1.807-3.342 12.8-22.613-13.398-26.71a84.4 84.4 0 0 1-8.76-45.767l.455-3.883 4.124-29.909-24.96-25.884a87.9 87.9 0 0 1-21.774-38.571l-.939-3.954-7.538-34.944-33.308-18.972a89.5 89.5 0 0 1-31.289-29.782l-2.276-3.754z"/><path fill="#d81616" d="m446.52 653.255-9.528 38.073a12.729 12.729 0 0 1-21.333 5.916L387.1 668.686a12.729 12.729 0 0 1 5.917-21.333l38.073-9.529a12.73 12.73 0 0 1 15.43 15.431m199.41 70.4-9.528 38.073a12.729 12.729 0 0 1-21.334 5.916l-28.558-28.558a12.729 12.729 0 0 1 5.902-21.347l38.088-9.53a12.73 12.73 0 0 1 15.43 15.446m-91.406-44.871L520.86 698.98a12.729 12.729 0 0 1-19.27-10.909V647.68a12.729 12.729 0 0 1 19.27-10.908l33.65 20.195a12.73 12.73 0 0 1 0 21.817z" opacity=".697"/><path fill="#fff" d="m412.302 323.228-33.664 20.196a12.729 12.729 0 0 1-19.27-10.908v-40.392a12.729 12.729 0 0 1 19.27-10.908l33.65 20.196a12.73 12.73 0 0 1 0 21.816z" opacity=".851"/><path fill="#d81616" d="m657.707 602.965-9.53 38.087a12.729 12.729 0 0 1-21.333 5.903l-28.558-28.559a12.729 12.729 0 0 1 5.917-21.333l38.073-9.529a12.73 12.73 0 0 1 15.43 15.431M373.49 739.13l-33.65 20.195a12.729 12.729 0 0 1-19.271-10.908v-40.391a12.729 12.729 0 0 1 19.271-10.909l33.65 20.196a12.73 12.73 0 0 1 0 21.817m-67.94-106.681-8.178 38.386a12.729 12.729 0 0 1-21.134 6.656l-29.525-27.549a12.729 12.729 0 0 1 5.163-21.532l37.717-10.852a12.73 12.73 0 0 1 15.957 14.891m475.42-159.744-.014 39.253a12.729 12.729 0 0 1-19.285 10.895l-34.617-20.793a12.729 12.729 0 0 1 .57-22.144l34.644-18.447a12.73 12.73 0 0 1 18.703 11.236M678.045 692.551l9.53-38.073a12.729 12.729 0 0 1 21.333-5.902l28.558 28.558a12.729 12.729 0 0 1-5.902 21.334l-38.087 9.528a12.73 12.73 0 0 1-15.432-15.445m63.545-71.097-20.195-33.65a12.729 12.729 0 0 1 10.908-19.27h40.391a12.729 12.729 0 0 1 10.909 19.27l-20.196 33.65a12.73 12.73 0 0 1-21.817 0M431.502 754.49l10.795 37.731a12.729 12.729 0 0 1-15.53 15.787l-39.012-10.439a12.729 12.729 0 0 1-5.547-21.447l28.217-27.278a12.73 12.73 0 0 1 21.077 5.646m74.61 31.331-20.196-33.664a12.729 12.729 0 0 1 10.923-19.27h40.391a12.729 12.729 0 0 1 10.909 19.27l-20.196 33.664a12.73 12.73 0 0 1-21.831 0" opacity=".697"/><path fill="#fff" d="m503.41 269.255-9.53 38.073a12.729 12.729 0 0 1-21.332 5.916l-28.559-28.558a12.729 12.729 0 0 1 5.917-21.333l38.073-9.529a12.73 12.73 0 0 1 15.43 15.431" opacity=".851"/></svg>