<svg xmlns="http://www.w3.org/2000/svg" viewBox="0 0 1024 1024"><path fill="#e69050" d="m539.298 4.6-39.543 4.778c-29.398 3.55-30.575-.264-65.11 15.616l-30.49 14.02c-2.815 1.297-10.273 7.74-11.989 10.317l-6.203 9.319C364.56 90.795 495.556 13.073 561.92 59.836l33.621 23.697c14.831 10.453 30.405 28.092 41.387 43.076l26.479 36.139c2.859 3.908 7.782 9.301 10.36 11.853l10.675 22.553c61.917 130.825 86.075 269.645 54.8 412.757-8.865 40.585-30.318 92.92-51.105 128.035-31.429 53.068-78.567 98.9-134.315 126.566-68.94 34.21-128.478 42.24-205.048 32.051-52.625-6.997-94.08-30.029-141.764-56.422l.46 19.644c-45.618-60.826-68.914-137.088-76.236-216.295-11.119-120.311 9.566-237.84 56.832-349.602 22.22-52.548 51.157-99.106 85.112-145.11C318.362 87.544 399.598 17.682 476.5 6.614L521.95.077c4.369-.632 18.022 2.927 17.348 4.531zM410.812 241.381c2.005-27.161-17.852-52.847-45.765-48.998-26.478 3.652-47.027 23.424-60.774 45.252-28.68 35.43-90.436 156.169-17.971 171.836 83.174 17.98 119.86-105.054 124.51-168.09m-108.928 210.85c-3.26-6.681-19.96-19.865-27.05-19.524-17.196.828-33.588 16.367-37.385 28.075-5.078 15.667-2.228 38.033 11.144 47.974 16.12 11.981 38.613 5.41 48.82-6.434 11.067-12.851 13.738-31.078 4.47-50.09"/><path fill="#d67437" d="M694.733 77.372c18.15 18.022 41.42 33.92 57.745 57.566 26.41 38.255 51.61 76.049 70.238 119.023 21.384 49.33 40.422 97.783 52.565 150.425 34.09 147.806 30.353 307.311-48.375 440.235-40.824 68.924-102.076 122.496-176.214 153.523-57.284 23.97-117.632 29.167-179.106 24.073-86.118-7.134-159.718-46.738-220.936-105.046-18.603-17.724-29.492-39.134-43.188-57.386l-.46-19.644c47.692 26.393 89.147 49.425 141.764 56.422 76.56 10.18 136.107 2.15 205.047-32.051 55.749-27.665 102.887-73.498 134.315-126.566 20.796-35.115 42.24-87.45 51.106-128.035 31.275-143.12 7.117-281.932-54.8-412.757l-10.676-22.553c1.57-2.825 8.636-18.51 6.263-23.527l-14.814-31.292c-2.926-6.178-6.502-15.641-6.835-20.608s9.566-13.2 14.25-14.711z"/><path fill="#dd813f" d="M539.298 4.6c3.277-.393 11.358.025 15.437.571 57.839 7.748 102.997 35.456 139.998 72.2l-22.11 7.092c-4.693 1.502-14.592 9.736-14.25 14.711s3.908 14.43 6.834 20.608l14.814 31.292c2.373 5.018-4.693 20.702-6.263 23.527-2.577-2.56-7.492-7.954-10.36-11.853l-26.479-36.139c-10.973-14.976-26.547-32.623-41.386-43.076L561.91 59.836c-66.363-46.771-197.367 30.959-175.957-1.186l6.204-9.319c1.715-2.577 9.173-9.02 11.99-10.317l30.489-14.02c34.534-15.88 35.712-12.066 65.11-15.616L539.29 4.6z"/><path fill="#fedcbf" d="M410.812 241.382c-4.65 63.036-41.336 186.07-124.51 168.09-72.465-15.667-10.71-136.405 17.971-171.836 13.747-21.828 34.296-41.6 60.774-45.252 27.913-3.849 47.77 21.845 45.765 48.998"/><path fill="#fbd8bb" d="M301.884 452.233c9.267 19.012 6.596 37.239-4.472 50.09-10.206 11.844-32.7 18.415-48.819 6.434-13.372-9.932-16.222-32.307-11.144-47.974 3.797-11.716 20.19-27.256 37.384-28.075 7.091-.341 23.791 12.851 27.05 19.525"/></svg>