<svg xmlns="http://www.w3.org/2000/svg" viewBox="0 0 1024 1024"><path fill="#e65d63" d="M408.465 165.615c8.516-.154 17.126-.009 25.651 0 9.669.008 19.405-.12 29.073 0l1.007 1.527c3.072.453 6.187.145 9.259.188 5.06.068 10.394-.358 15.394 0l1.067 1.52 4.062.187c67.737 8.362 124.791 22.57 185.292 54.989 84.907 45.49 167.757 129.177 211.473 215.219 82.987 163.336 53.863 327.535-82.978 448.034-70.331 61.935-152.687 94.916-243.669 114.611l-104.909-56.695c-50.918-31.736-99.626-67.943-153.847-94.132-46.49-22.46-97.502-37.81-144.87-58.64-26.966-11.862-53.146-25.558-78.635-40.218-43.384-90.718-58.053-203.435-29.978-301.04 41.745-145.117 136.815-252.014 289.033-278.74 8.533-1.502 17.126-3.704 25.72-5.06l11.084-.035c3.225 1.545 6.468-1.69 6.844-1.707 7.773-.477 16.068.146 23.944 0z"/><path fill="#f7cac6" d="M564.087 1001.89c-87.645 18.978-179.421 25.54-269.277 20.446-14.14-.802-23.006.666-37.342-3.703-17.084-5.197-30.422-14.942-41.327-28.792-49.698-63.112-98.961-148.156-130.074-222.225-1.86-4.42-2.833-12.459-4.25-15.42 25.49 14.66 51.67 28.357 78.635 40.218 47.369 20.83 98.381 36.181 144.87 58.64 54.221 26.19 102.93 62.397 153.848 94.132l104.909 56.696z"/><path fill="#f5dad8" d="M145.22 451.883c11.179-3.328 44.8 14.6 55.962 20.565 31.275 16.725 65.536 36.215 95.77 54.724 11.332 6.938 40.9 24.807 47.052 35.038 9.626 16.009-15.641 12.749-24.26 10.581-27.477-6.912-65.673-26.572-90.675-41.01-21.675-12.52-72.047-43.956-85.726-63.062-2.065-2.876-5.453-8.755-3.524-11.972 1.766-1.246 3.464-4.301 5.393-4.873z"/><path fill="#f5d7d6" d="M171.81 589.952c7.612-2.227 22.187 5.87 29.201 9.71 15.54 8.509 233.233 137.575 247.424 148.157 6.554 4.89 18.227 13.644 18.961 22.084.939 10.846-6.477 13.9-16.281 12.851-20.625-2.193-273.502-154.146-282.445-172.988-3.746-7.893-4.839-14.37 3.14-19.823z"/><path fill="#e7837f" d="M787.149 785.007c-.555-3.396-.256-11.008.136-14.763 1.98-18.91 30.891-87.031 39.988-103.714 10.197-18.713 22.528-17.024 28.74 5.538 3.26 11.827-6.093 34.919-10.65 45.04-7.936 17.638-20.079 43.127-29.26 58.785-4.327 7.382-13.671 22.699-20.267 20.677-2.236-.683-8.133-8.167-8.687-11.572z"/><path fill="#7cb25b" d="M743.654 136.542c7.083 26.223 7.962 52.727 6.81 79.488l-3.388 16.281-87.185-45.346c-73.31-31.47-152.508-45.85-231.688-48.785-17.118-.631-33.425 2.68-50.518 1.784-.017 4.548.034 9.139 0 13.687-2.901-1.374-1.766-6.664-1.698-9.404 1.314-51.498 54.52-105.693 99.149-126.583 103.637-48.503 238.25 6.75 268.527 118.886z"/><path fill="#7eb35b" d="M914.68 430.694c2.184-3.089 2.056-5.137.947-8.644-1.007-3.2-4.139-9.497-5.735-13.073-17.433-39.091-45.329-75.187-74.76-104.755-13.824-13.892-27.64-26.983-42.83-39.399-.767-1.271 5.616-22.289 6.043-26.555 3.319-32.965.768-65.024-8.935-97.024-1.374-4.523-3.464-8.653-4.821-13.142-2.79-.221-5.65-.179-8.44-.11l14.575-3.388c137.242-10.3 233.788 128.384 181.274 254.805-12.05 29.013-28.894 40.568-57.319 51.277z"/><path fill="#659e48" d="M776.15 127.991c2.798-.076 5.657-.11 8.439.111 1.357 4.489 3.447 8.62 4.821 13.142 9.703 31.991 12.254 64.05 8.935 97.024-.427 4.266-6.81 25.284-6.042 26.555 15.18 12.416 28.996 25.507 42.829 39.399 29.431 29.568 57.327 65.664 74.76 104.755 1.596 3.576 4.72 9.873 5.735 13.073 1.109 3.516 1.237 5.555-.948 8.644-7.876 2.97-16.41 4.634-23.944 8.55-43.716-86.04-126.566-169.727-211.473-215.218-60.493-32.419-117.547-46.627-185.293-54.99-.29-.033-.981-1.407-5.128-1.706-5.001-.358-10.334.068-15.395 0l-1.007-1.527c-3.072-.453-6.186-.145-9.258-.188-9.668-.12-19.405.008-29.073 0l-1.007-1.528c-8.132.009-16.785-1.083-24.644.632v.887c-7.877.145-16.171-.477-23.945 0l-5.043-.076-.384-3.892-1.417-1.169c0-2.278-.017-4.565 0-6.843.034-4.549-.025-9.14 0-13.688 17.093.896 33.4-2.415 50.518-1.783 79.18 2.935 158.378 17.314 231.688 48.785l87.185 45.346 3.388-16.282c1.16-26.76.273-53.265-6.81-79.488 10.309-4.403 21.206-8.251 32.495-8.55z"/><path fill="#7cb25b" d="m377.677 160.486 1.416 1.17.384 3.89 5.044.077c-.376.026-3.61 3.252-6.844 1.707zm56.44 5.129c-8.526-.009-17.136-.154-25.652 0v-.888c7.86-1.715 16.52-.622 24.644-.631l1.007 1.527zm39.33 1.715c-3.073-.043-6.187.265-9.26-.188l-1.006-1.527c3.072.034 6.186-.265 9.258.188zm20.522 1.707-4.062-.188-1.066-1.519c4.155.299 4.838 1.673 5.128 1.707"/></svg>