<svg xmlns="http://www.w3.org/2000/svg" viewBox="0 0 1024 1024"><path fill="#fbc34f" d="M722.794 139.52c46.592 25.805 91.537 68.523 120.157 113.911 5.513 8.739 15.787 25.268 18.066 34.697 3.26 13.508 2.33 45.32 1.553 60.254-7.817 149.214-91.93 291.772-214.153 375.85-85.111 58.548-213.709 104.124-315.725 119.749-89.856 13.756-180.795 3.823-266.086-28.297l-2.236.751c6.904 6.221 12.851 13.466 19.32 20.062-2.97.333-4.182-2.082-5.94-3.72C44.018 801.348 4.705 742.784.49 696.038c-6.213-68.983 48.102-132.48 82.97-187.443 27.442-43.264 50.107-85.717 74.768-130.32 86.178-155.862 231.945-292.976 422.648-277.42 45.875 3.747 101.24 16.146 141.91 38.674zm-233.771 21.12c-82.022 7.706-179.925 90.445-221.73 158.737-6.92 11.298-15.625 27.358-10.863 40.508 3.481 9.625 13.952 14.959 23.97 12.714 12.493-2.798 24.585-15.872 34.39-23.569 38.579-30.267 77.857-59.392 121.616-81.996 22.81-11.785 47.232-19.806 70.443-30.618 21.828-10.172 48.572-23.987 41.822-52.813-.427-1.843-2.893-6.135-4.19-7.697-1.476-1.783-7.834-6.8-9.873-7.961-12.373-7.015-31.548-8.62-45.577-7.305z"/><path fill="#faaa3e" d="M877.366 325.282c13.295 37.393 19.397 72.09 22.298 111.454 2.1 28.476.026 53.154-4.412 81.041-24.84 156.117-132.045 268.97-272.443 332.433-2.15.973-4.83 1.408-5.539 4.122-10.29.606-29.235 11.392-40.115 15.616-132.471 51.481-281.916 81.578-416.179 20.045-24.371-11.17-58.453-34.27-77.286-53.496-6.469-6.605-12.416-13.85-19.32-20.062l2.236-.75c85.29 32.119 176.23 42.052 266.086 28.296C434.7 828.365 563.306 782.78 648.417 724.233c122.232-84.08 206.336-226.646 214.153-375.851.785-14.933 1.706-46.746-1.553-60.254h1.484c4.753 12.407 10.411 24.627 14.865 37.154"/><path fill="#fcd687" d="M489.023 160.64c14.02-1.314 33.195.282 45.576 7.305 2.04 1.16 8.397 6.178 9.874 7.961 1.297 1.562 3.763 5.854 4.19 7.697 6.75 28.826-19.994 42.641-41.822 52.813-23.211 10.82-47.634 18.842-70.443 30.618-43.75 22.604-83.038 51.729-121.617 81.996-9.814 7.697-21.897 20.77-34.39 23.57-10.01 2.244-20.488-3.09-23.97-12.715-4.761-13.15 3.951-29.21 10.863-40.508 41.805-68.292 139.708-151.023 221.73-158.737z"/><path fill="#71bd2e" d="M899.664 436.745c-2.901-39.373-8.994-74.061-22.298-111.454 3.371 1.04 6.742 3.072 9.967 4.155 19.166 6.46 49.16 18.057 68.07 21.103 1.417.23 5.104.53 3.704-2.218-.862-1.707-13.175-13.602-15.573-15.633-3.26-2.765-9.114-7.006-12.723-9.566-20.916-14.874-44.604-26.633-67.567-37.957l-.743 2.97h-1.484c-2.279-9.43-12.553-25.958-18.066-34.696-28.62-45.39-73.565-88.107-120.157-113.912 9.779-.734 19.157-2.03 29.047-1.553 136.67 6.656 236.706 110.566 269.389 238.89 7.373 28.937 1.118 54.46-31.676 59.845-21.24 3.49-58.88 2.696-80.537.35a63.4 63.4 0 0 0-9.353-.316z"/><path fill="#59a61c" d="m862.51 288.128.742-2.97c22.963 11.324 46.652 23.083 67.567 37.957 3.61 2.568 9.464 6.81 12.723 9.566 2.398 2.03 14.712 13.926 15.574 15.633 1.39 2.747-2.287 2.449-3.704 2.218-18.91-3.046-48.904-14.651-68.07-21.103-3.217-1.083-6.588-3.114-9.967-4.155-4.454-12.519-10.112-24.747-14.865-37.155z"/></svg>