<svg xmlns="http://www.w3.org/2000/svg" viewBox="0 0 1024 1024"><path fill="#90be5d" d="M897.162 415.898c.196.375 1.698.955 2.38 2.44 4.464 9.711.726 23.8-.383 33.835-.802 7.219 1.706 8.516 4.01 14.515l11.623.137c-.981 4.855-1.127 12.578-2.227 16.375-.495 1.69-2.885 2.773-3.38 4.463-.81 2.799.086 6.101-.58 9.207-2.91 13.517-27.255 46.26-37.845 56.175-40.414 37.854-95.258 37.18-136.218 73.37-22.562 19.934-38.024 48.077-61.918 65.4-14.805 10.734-43.272 24.55-60.936 29.166-33.144 8.662-67.106 5.163-99.012 14.592-36.463 10.778-58.641 33.4-90.812 50.219-19.695 10.3-41.592 18.953-64.376 21.811-46.899 5.871-128.187-8.269-170.01-31.658-17.04-9.524-50.84-31.036-64-43.734-2.056-1.98-2.252-5.154-4.863-6.528l-9.95 3.507-.879 7.936-3.917-7.833c6.528-11.06 34.663-15.77 47.087-20.497 22.656-8.61 52.079-23.86 71.791-37.897 2.526-1.8 5.53-2.841 6.485-6.246.623-.128 4.25-3.678 7.834-1.963-1.186 1.067-1.545 2.347-3.866 2.1l1.835 5.648-3.405.401c-13.781 48.93.563 94.063 49.878 112.922 40.951 15.659 119.133-.128 149.512-33.869 30.328-33.69 31.207-72.755 1.963-107.81-3.004-3.6-13.252-14.396-16.606-16.691-2.33-1.587-12.015-6.52-14.771-7.757 8.917 2.398 14.822 2.074 23.577-.904 18.705-6.366 33.332-16.811 48.896-28.476 3.397-2.543 6.204-5.598 9.797-7.834 1.647 10.291-5.052 18.227-5.957 28.322-.827 9.174.256 23.996 2.424 32.999 2.944 12.237 19.95 36.668 30.242 44.185 8.533 6.238 15.48 7.373 24.832 10.428 1.86.606 2.91 2.714 4.6 3.234 41.096 12.8 91.383-15.018 122.026-39.927 15.727-12.783 31.275-40.448 33.34-60.68.589-5.727-.649-19.696-2.193-25.14-.427-1.51-2.518-2.73-3.243-4.59-6.204-15.813-14.25-27.333-26.871-37.71-6.69-5.495-19.55-14.165-27.802-17.305-13.79-5.248-46.421-2.304-61.286 1.544l1.254-1.621c6.596-1.98 13.457-3.285 20.292-4.25 6.776-.955 7.441.12 12.655.094 7.876-.042 15.753-.17 23.629-.042 14.268-9.344 26.633-21.385 39.091-33.383 1.707-1.638 4.36-2.244 6.016-3.789 6.767-6.323 7.595-13.994 12.638-19.678-.282 6.076-3.234 9.797-3.883 14.72-2.457 18.637 6.878 45.227 18.595 59.75.725.897 5.111 5.138 6.75 6.845 32.042 33.476 89.087 36.684 125.363 7.722 31.7-25.301 66.875-72.96 62.728-115.439-.316-3.268-3.055-6.826-1.92-10.82z"/><path fill="#669a4d" d="m948.089 411.972-1.929 1.007-.102 1.929.102 1.928 1.929 1.007c.76 56.926-14.182 117.547-52.796 159.667-37.683 41.114-80.102 38.81-124.168 63.932-31.872 18.168-46.285 46.473-71.885 71.168-13.68 13.193-30.404 25.711-48.853 33.357-35.883 14.874-65.024 9.77-100.864 14.703-51.218 7.048-96.24 52.497-145.408 70.059-29.287 10.461-59.452 11.673-89.6 10.129-35.892-1.844-63.215-5.248-97.076-18.492-29.943-11.716-95.633-47.113-111.368-74.71-2.168-3.805-4.694-11.255-4.25-15.513.299-2.833 1.937-2.662 2.048-2.842l3.917 7.834.879-7.936 9.95-3.507c2.611 1.374 2.807 4.54 4.864 6.528 13.158 12.697 46.959 34.201 64 43.733 41.83 23.39 123.119 37.53 170.01 31.659 22.792-2.85 44.68-11.512 64.375-21.811 32.17-16.82 54.349-39.442 90.812-50.22 31.906-9.428 65.868-5.93 99.012-14.591 17.664-4.617 46.123-18.432 60.936-29.167 23.894-17.323 39.356-45.466 61.918-65.4 40.96-36.19 95.804-35.515 136.218-73.37 10.59-9.915 34.935-42.657 37.845-56.174.666-3.106-.23-6.417.58-9.208.487-1.69 2.885-2.764 3.38-4.462 1.109-3.798 1.246-11.529 2.227-16.376 2.108-10.436-1.007-15.624.017-24.448.188-1.63 3.61-12.143 4.139-12.544.785-.597 3.652-.102 5.64-1.169 4.344-2.338 4.173-11.802 10.829-7.313l2.782-2.62c.213-3.149-.128-6.212.46-9.352 1.212-6.417 4.045-4.404 5.257-5.41.956-.794-.717-9.046 2.219-11.572.367 5.598 1.775 12.852 1.962 19.584z"/><path fill="#89bb57" d="M399.635 437.436c1.1 4.872-1.605 5.913-3.917 8.815-6.085 7.62-9.157 28.296-9.882 39.09-1.237 18.424 5.274 39.271 17.673 53.01 9.89 10.957 18.304 12.638 30.822 18.142 2.219.973 3.96 3.55 5.726 4.07 3.644 1.058 9.173.068 13.38.316 1.997.12 3.917 1.903 5.93 1.903 3.508 0 15.148-1.417 19.56-1.971 4.027-.512 20.573-7.638 22.442-5.658l.12 3.73-17.63 21.546c-3.593 2.236-6.392 5.29-9.797 7.833.802-7.04-2.372-2.713-5.299-2.372-7.253.862-9.608-1.34-15.19-1.63-11.485-.589-30.122-1.126-41.173.128-14.327 1.63-30.822 10.198-45.465 13.295-9.387 1.98-23.347-1.314-26.078 10.155 2.824.631 4.395-1.63 6.852-1.971 5.427-.743 8.004 1.612 11.793 1.928 7.467.632 16.367-1.775 22.486 3.96-42.906-7.697-82.057 3.541-117.53 25.463 1.058-6.033-3.004-3.67-6.835-3.925-75.972-4.958-126.396-23.62-187.162-67.49-13.175-9.515-25.54-17.605-36.156-30.439l-4.53 8.858c3.114 3.874 8.336 8.209 10.401 12.732 1.22 2.688.564 4.25.982 5.828-3.84-2.398-7.894-6.34-10.693-9.882-9.548-12.1-22.442-32.495-27.58-46.856-.733-2.048-2.858-9.327-2.884-10.872-.153-8.849 11.973-17.485 20.523-16.623 16.077 1.613 38.025 10.914 54.955 13.67 16.776 2.731 35.6 1.75 52.804 1.963l30.404-5.836c-3.507 1.885-6.92 4.497-11.75 3.925-.435 3.464 4.446 1.835 6.87 1.954 7.014.341.093 5.094-1.417 8.397-1.886 4.139-5.18 11.102-6.511 15.036-4.113 12.236-5.82 31.77-.504 43.741 5.189 11.691 17.502 29.219 28.971 35.661 1.135.632 2.705-.571 3.883.069 7.714 4.232 11.34 7.936 21.017 10.29 26.437 6.426 48.026 4.165 74.087-1.484 19.686-4.267 41.958-10.402 56.72-25.549 9.908-10.155 20.054-29.952 20.737-44.023.153-3.14-1.135-5.436-1.297-7.877-.077-1.135 1.211-2.645 1.04-3.865-.537-3.994-3.6-12.22-5.35-16.128-5.572-12.467-14.472-23.766-23.833-32.905-4.523-4.411-9.515-8.166-13.799-12.706 24.2 3.413 49.374 2.15 71.185-10.103 7.612-4.276 13.927-10.59 20.873-15.36z"/><path fill="#b4d85b" d="M307.577 462.908c4.292 4.54 9.276 8.286 13.798 12.706 9.361 9.148 18.262 20.437 23.834 32.904 1.75 3.909 4.813 12.143 5.35 16.128.162 1.22-1.118 2.731-1.04 3.866.161 2.45 1.45 4.736 1.296 7.876-.682 14.072-10.828 33.87-20.736 44.024-14.762 15.138-37.043 21.282-56.72 25.549-26.07 5.649-47.66 7.918-74.087 1.484-9.677-2.355-13.304-6.058-21.018-10.29-1.177-.65-2.747.562-3.882-.07-11.478-6.442-23.783-23.97-28.971-35.66-5.316-11.964-3.61-31.505.503-43.742 1.323-3.934 4.617-10.905 6.511-15.036 1.51-3.302 8.431-8.055 1.417-8.396-2.424-.12-7.305 1.51-6.87-1.954 4.83.571 8.244-2.04 11.75-3.926 25.985-13.952 51.047-29.295 81.204-31.428 25.14-1.775 43.725 2.586 67.66 5.965m-110.268 23.919c-6.835.896-14.797 4.855-20.028 9.335-2.807 2.407-14.054 15.89-14.105 18.62-.188 9.207 7.723 11.844 15.727 10.41 4.087-.725 16.358-6.673 20.386-8.985 2.67-1.536 20.241-16.213 21.18-17.997 5.111-9.788-16.137-12.305-23.151-11.392z"/><path fill="#b0d551" d="M507.368 396.305c12.288.12 12.433 2.961 21.564 6.835 2.38 1.016 4.923.666 6.46 1.383 20.778 9.66 46.284 31.13 48.452 55.364.614 6.903-.777 22.016-2.919 28.587-2.474 7.611-11.776 14.583-16.845 20.42-1.348 1.553-1.68 4.267-2.167 4.633-1.408 1.084-7.714.598-9.49 5.206l11.751.973c-10.01 4.42-22.408 11.818-32.051 17.903-5.453 3.438-11.213 8.354-14.822 12.56-2.876 3.346-8.56 2.953-7.979 10.684l-7.825-1.97-.12-3.73c-1.86-1.98-18.414 5.146-22.442 5.658-4.412.563-16.051 1.97-19.559 1.97-2.005 0-3.933-1.783-5.93-1.902-4.216-.248-9.737.742-13.38-.316-1.767-.512-3.508-3.089-5.726-4.07-12.527-5.504-20.941-7.185-30.823-18.142-12.399-13.739-18.91-34.586-17.672-53.01.725-10.785 3.797-31.462 9.881-39.09 2.313-2.902 5.018-3.943 3.917-8.815 31.13-21.385 49.348-33.579 88.14-39.177 3.346-.478 10.284-1.852 11.751-1.962 2.56-.188 5.257-.026 7.834 0zm-5.888 23.518c-9.259 1.818-18.79-1.237-28.356.026-5.658.742-11.102 5.46-17.536 3.78l-1.289 3.746c-9.608-2.432-10.906 4.881-15.454 7.176-2.509 1.263-5.418.606-7.91 1.886-1.724.888-21.709 17.408-22.486 18.646-1.646 2.645-2.065 7.21-3.328 10.376-.759 1.912-3.037 3.268-3.336 4.591-.205.905 2.005 7.373 2.74 8.542 3.805 6.084 14.676 9.327 21.546 7.825 8.823-4.514 19.208-6.775 27.853-11.324 3.473-1.826 8.874-7.116 11.673-7.961 10.641-3.2 14.592-10.198 24.226-14.95 2.014-.99 5.24-.837 5.607-1.204.452-.452.094-3.678 1.143-5.675 1.272-2.414 5.846-4.403 6.63-7.116 1.63-5.615-.238-12.86-1.723-18.356z"/><path fill="#abce4c" d="M716.955 282.7c5.137 1.938 5.76 1.161 10.778 1.963 7.33 1.17 5.41 3.542 7.185 5.436 1.433 1.528 5.896 1.587 7.509 2.398-1.34 7.1 1.22 4.719 3.806 6.886s5.103 4.42 6.494 7.476c1.596 3.507 1.758 10.043 2.39 13.132.545 2.637 3.071 6.315 2.73 8.448-.273 1.707-2.304 3.38-2.79 5.103-3.977 14.038-5.607 10.454-11.632 19.695-2.884 4.42-2.218 6.98-7.816 11.819-5.99 5.18-2.552 2.313-5.888 7.714-3.234 5.231-32.239 35.943-37.154 39.288-2.611 1.783-5.453 1.647-7.049 2.79-3.012 2.167-1.152 2.27-7.705 5.914-2.91 1.612-5.436 6.46-9.105 8.576-1.733.998-12.058 5.359-13.73 5.862-5.385 1.621-14.311-.555-20.284.282-3.55-2.987-17.477-4.907-25.378-10.855-10.735-8.08-16.043-15.872-21.206-27.767-.964-2.219-3.592-3.985-4.07-5.726-1.493-5.393-2.748-23.185-2.33-29.184.265-3.84 2.458-6.87 2.057-10.7 17.408-25.072 24.806-36.404 52.215-52.583 22.067-13.022 55.902-25.43 80.982-15.975z"/><path fill="#7baf56" d="M903.041 274.859c6.682 10.325 10.735-4.25 10.71-9.89l2.022-1.58c7.56.496 9.78 7.604 17.75 9.388l1.075 7.748 5.606 3.285c-3.678 5.572.18 8.798.222 13.577.026 3.31-2.031 6.127-2.21 9.702-.572 11.375.589 22.98.094 34.364 3.413.46 1.903-4.48 1.954-6.852.128-6.52-.043-13.056 0-19.584.025-3.218-1.442-9.148 1.954-10.778-.845 29.918 1.963 58.675 3.917 88.14-2.936 2.535-1.263 10.778-2.219 11.572-1.212 1.007-4.045-1.007-5.256 5.41-.59 3.14-.256 6.204-.461 9.353l-2.782 2.62c-6.656-4.49-6.485 4.974-10.829 7.312-1.98 1.067-4.855.572-5.64 1.17-.53.4-3.951 10.905-4.14 12.543-1.015 8.832 2.1 14.02-.016 24.448l-11.623-.136c-2.304-5.999-4.812-7.305-4.01-14.515 1.11-10.035 4.847-24.124.384-33.835-.683-1.485-2.185-2.065-2.381-2.44-2.645-5.035-4.053-11.444-6.903-15.625-8.466-12.425-29.466-31.377-43.418-36.89-6.306-2.491-15.471-2.67-22.17-6.289l1.989-3.874-5.675.265-1.289 3.763c-3.498.11-7.236-.46-10.675-.111l9.77-1.98.026-5.87c2.467-.794 4.634 1.92 5.871 1.97 1.477.06 9.558-5.46 11.665-6.946 20.489-14.353 54.23-47.522 66.688-69.452z"/><path fill="#87b453" d="M634.685 435.482c5.342 4.497 13.901.315 20.292 2.235 1.903.572 2.816 3.2 6.102 3.687 5.717.845 14.233-1.349 19.396.196.777.23 8.917 7.023 9.054 7.595-6.272 2.415-14.072 2.585-20.156 4.326-26.445 7.552-53.82 28.97-71.893 49.536-2.338 2.654-5.095 2.867-1.963 6.852-6.835.965-13.687 2.27-20.292 4.25l-1.254 1.621c-1.86.487-7.22 2.782-9.797 3.917l-11.75-.973c1.775-4.608 8.08-4.121 9.489-5.205.478-.367.81-3.08 2.167-4.634 5.07-5.836 14.379-12.808 16.845-20.42 2.134-6.57 3.533-21.692 2.919-28.587-2.168-24.234-27.674-45.696-48.453-55.364-1.527-.708-4.07-.367-6.46-1.382-9.13-3.874-9.275-6.716-21.563-6.835l20.156-4.327c11.4-4.65 24.61-9.173 34.645-16.281 9.361-6.63 15.112-15.104 21.59-24.44.4 3.832-1.793 6.86-2.057 10.7-.41 6 .836 23.792 2.33 29.185.486 1.74 3.105 3.499 4.07 5.726 5.162 11.887 10.47 19.686 21.205 27.767 7.902 5.956 21.828 7.876 25.378 10.855"/><path fill="#83b35c" d="M836.439 267.025c-.555-6.298-1.579-13.235-1.869-20.642-.17-4.489-2.859-7.416-.094-12.655l-3.917 9.788-5.87-1.954 1.91 5.768-3.455.41c-5.897 29.192-16.768 56.021-29.406 83.336l-14.106 24.09c.197-2.483 2.117-5.069 1.758-6.588s-3.046-2.696-3.123-4.104c-.068-1.212 1.604-2.961 1.16-5.573-.861-4.975-6.954-8.354-9.326-12.382-1.758-2.995-5.223-15.283-6.375-16.153-.93-.708-3.831.051-5.674-1.135-3.243-2.074-8.32-13.073-15.625-16.742-1.613-.811-6.076-.87-7.51-2.398-1.766-1.886.146-4.267-7.184-5.436-5.018-.794-5.632-.026-10.778-1.963 4.702-.47 10.223.691 14.737.043 7.347-1.058 46.805-31.505 53.811-38.255 3.362-3.243 11.128-11.878 13.457-15.923 7.57-13.167 8.576-28.843 8.2-43.708 6.392-3.191 35.09-3.678 37.027 2.961l-7.697 54.767-.043 24.448z"/><path fill="#699949" d="M41.183 562.799c-.418-1.57.24-3.14-.981-5.828-2.065-4.523-7.287-8.858-10.402-12.732l4.531-8.858c10.607 12.826 22.98 20.924 36.156 30.439 60.766 43.87 111.19 62.532 187.161 67.49 3.832.247 7.902-2.116 6.836 3.925-12.852 7.945-17.17 16.188-27.427 25.464-3.584-1.724-7.219 1.826-7.833 1.962-1.988.418-34.5-6.937-39.748-8.243-43.384-10.829-88.534-34.62-121.89-64.196-6.221-5.513-24.705-23.066-26.403-29.423"/><path fill="#84b76a" d="M903.041 274.859c4.182-7.356 7.203-18.091 12.058-26.138 7.902-13.099 10.641-12.1 26.095-11.042 4.685.324 12.74 1.288 17.63 1.954 14.071 1.937 40.73 8.218 51.865 16.691 9.822 7.475 16.58 24.431 11.742 36.054-25.01 1.442-47.778-14.968-73.156-11.46-7.56 6.382-6.801 14.36-7.057 23.304-3.396 1.63-1.929 7.56-1.954 10.777-.051 6.528.128 13.065 0 19.584-.051 2.373 1.459 7.314-1.954 6.853.503-11.384-.666-22.98-.094-34.364.179-3.575 2.236-6.4 2.21-9.702-.034-4.78-3.9-8.005-.222-13.577l-5.606-3.285-1.075-7.749c-7.97-1.783-10.19-8.891-17.75-9.386l-2.022 1.578c.017 5.632-4.028 20.207-10.71 9.89z"/><path fill="#649a45" d="m779.632 355.174 14.106-24.09c12.638-27.314 23.51-54.143 29.406-83.336l3.456-.41-1.912-5.768 5.871 1.954 3.917-9.787c-2.765 5.23-.077 8.157.094 12.654.29 7.407 1.314 14.354 1.869 20.643 1.118 12.714-2.313 38.17-3.968 51.857-1.289 10.718-8.798 21.205-7.791 32.367-1.246-.052-3.413-2.765-5.871-1.972l-.026 5.871-9.77 1.98c-7.868.81-18.185 2.927-25.464 5.88h-3.917c.128-2.578-.204-5.257 0-7.834z"/><path fill="#87b453" d="M499.534 396.305c-1.467.111-8.414 1.476-11.75 1.963l1.152-1.75 10.607-.213z"/><path fill="#7baf56" d="m948.089 417.852-1.929-1.007-.102-1.929.102-1.928 1.929-1.007c.051 1.954-.026 3.917 0 5.88z"/><path fill="#bce168" d="M382.005 611.772c7.006 1.254 12.979 2.91 19.584 5.88 2.756 1.237 12.45 6.16 14.77 7.756 3.354 2.295 13.603 13.099 16.607 16.691 29.252 35.047 28.373 74.12-1.963 107.81-30.379 33.741-108.561 49.528-149.512 33.87-49.315-18.86-63.66-63.992-49.878-112.922l3.405-.402-1.835-5.649c2.321.248 2.68-1.032 3.866-2.099 10.248-9.276 14.575-17.527 27.426-25.463 35.473-21.922 74.624-33.16 117.53-25.464zm-44.05 16.486c-23.492 2.74-59.255 15.463-75.468 33.425-1.715 1.895-8.371 10.897-8.935 12.758-1.007 3.31.854 4.334 1.016 6.903.102 1.673-1.835 3.38-.956 4.898s8.9 11.12 10.138 11.477c7.21-.307 16.435 1.306 23.313.29 4.77-.708 15.539-6.98 20.471-8.908 15.821-6.187 44.246-14.567 55.85-26.41.675-.692 6.47-8.5 6.631-9.038.768-2.62.768-14.515 0-17.143-1.553-5.316-9.548-7.655-14.464-8.235-2.901-.35-14.677-.341-17.587 0z"/><path fill="#badf67" d="M809.021 357.129c3.44-.359 7.177.221 10.675.11l1.289-3.763 5.675-.264-1.989 3.874c6.699 3.618 15.864 3.797 22.17 6.289 13.952 5.512 34.952 24.465 43.418 36.89 2.85 4.18 4.258 10.59 6.903 15.624-1.135 3.994 1.596 7.544 1.92 10.82 4.147 42.48-31.027 90.13-62.729 115.44-36.275 28.961-93.32 25.753-125.363-7.723-1.638-1.707-6.024-5.948-6.75-6.844-11.716-14.524-21.051-41.114-18.594-59.75.649-4.924 3.61-8.653 3.883-14.72 5.461-6.162 6.699-12.655 10.803-19.559 10.18-17.126 35.72-40.021 51.968-51.848 8.132-5.923 22.161-15.02 31.258-18.697 7.279-2.944 17.595-5.06 25.463-5.88m3.516 56.524c1.135-7.142 6.332-12.364 4.07-20.044-8.883-12.297-13.644-12.75-27.75-8.645-26.982 7.85-58.351 33.178-70.844 58.437-3.891 7.876-6.477 15.078-2.073 23.466.947 1.8 9.574 7.544 11.75 7.842 2.978.41 6.51-.187 9.796 0 1.886.111 3.755 1.92 5.632 1.639.837-.128 9.558-3.934 10.974-4.71 13.09-7.194 25.404-22.742 35.303-33.255 6.954-7.39 17.715-14.413 20.027-24.15z"/><path fill="#bce166" d="M573.962 515.789c14.865-3.857 47.497-6.793 61.286-1.545 8.26 3.14 21.112 11.81 27.802 17.306 12.62 10.376 20.668 21.896 26.871 37.709.726 1.86 2.816 3.089 3.243 4.59 1.545 5.445 2.782 19.414 2.193 25.14-2.065 20.232-17.613 47.897-33.34 60.68-30.651 24.918-80.93 52.728-122.026 39.928-1.69-.53-2.74-2.628-4.6-3.234-9.352-3.055-16.298-4.19-24.832-10.428-10.29-7.518-27.298-31.957-30.242-44.186-2.167-9.002-3.251-23.825-2.423-32.998.904-10.095 7.603-18.031 5.956-28.322l17.63-21.547 7.825 1.971c-.58-7.73 5.103-7.338 7.979-10.683 3.61-4.207 9.37-9.114 14.822-12.561 9.643-6.085 22.042-13.483 32.051-17.903 2.577-1.135 7.936-3.44 9.796-3.917zm15.966 61.107c1.058-.81 3.678-.29 5.564-1.34 7.304-4.07 15.556-16.99 17.442-25.19-2.765-6.084-9.54-14.029-16.444-14.976-6.818-.939-20.838 1.203-27.06 4.275-2.832 1.4-4.411 4.685-6.476 5.282-2.927.845-6.4-.375-9.318.47-4.497 1.297-16.828 12.347-20.83 14.48-6.92 3.687-4.651 3.721-7.706 5.914-1.57 1.127-4.429 1.05-7.048 2.79-5.658 3.747-9.208 13.68-15.633 17.665-2.936 6.493-.222 10.922 4.992 14.694 10.069 7.287 21.742 9.805 33.809 6.485 7.688-2.116 18.935-10.043 26.99-14.2 8.184-4.215 14.627-10.888 21.718-16.34z"/><path fill="#5d9139" d="M382.005 611.772c-6.127-5.735-15.019-3.328-22.486-3.96-3.788-.315-6.374-2.67-11.793-1.928-2.457.333-4.027 2.602-6.852 1.97 2.73-11.476 16.691-8.174 26.078-10.154 14.652-3.097 31.138-11.665 45.465-13.295 11.051-1.254 29.688-.725 41.174-.128 5.58.29 7.927 2.492 15.19 1.63 2.918-.35 6.1-4.668 5.298 2.372-15.564 11.666-30.2 22.11-48.896 28.476-8.746 2.978-14.66 3.303-23.577.905-6.614-2.961-12.578-4.617-19.584-5.88z"/><path fill="#62913e" d="M689.529 449.195c-.043 1.305.06 2.62 0 3.916-5.043 5.684-5.871 13.355-12.638 19.678-1.655 1.545-4.31 2.15-6.016 3.79-12.459 11.997-24.823 24.038-39.091 33.382-7.876-.128-15.753 0-23.629.042-5.214.026-5.88-1.05-12.655-.094-3.132-3.985-.367-4.198 1.963-6.852 18.073-20.565 45.448-41.984 71.893-49.536 6.093-1.74 13.884-1.911 20.156-4.326z"/><path fill="#cfeb96" d="M197.31 486.827c7.014-.913 28.262 1.604 23.15 11.392-.93 1.783-18.5 16.469-21.18 17.996-4.027 2.304-16.307 8.252-20.386 8.986-8.004 1.425-15.914-1.203-15.727-10.41.052-2.731 11.298-16.214 14.106-18.62 5.23-4.48 13.192-8.448 20.028-9.336z"/><path fill="#cbe68a" d="M501.48 419.823c1.485 5.487 3.353 12.74 1.724 18.355-.785 2.714-5.368 4.702-6.63 7.117-1.05 1.997-.692 5.222-1.144 5.675-.367.367-3.593.213-5.607 1.203-9.634 4.753-13.585 11.759-24.226 14.95-2.799.845-8.2 6.127-11.673 7.962-8.645 4.548-19.021 6.8-27.853 11.324-6.87 1.501-17.75-1.741-21.547-7.826-.734-1.169-2.944-7.637-2.74-8.541.3-1.323 2.57-2.68 3.337-4.591 1.263-3.158 1.682-7.732 3.328-10.377.777-1.237 20.762-17.766 22.486-18.645 2.5-1.28 5.401-.615 7.91-1.886 4.548-2.296 5.837-9.609 15.454-7.177l1.289-3.746c6.434 1.681 11.878-3.03 17.536-3.78 9.565-1.254 19.097 1.8 28.356-.026z"/><path fill="#95be4d" d="M742.419 292.489c7.304 3.669 12.381 14.668 15.624 16.742 1.852 1.186 4.745.427 5.675 1.135 1.152.87 4.616 13.158 6.374 16.153 2.372 4.028 8.474 7.407 9.327 12.382.452 2.612-1.229 4.36-1.16 5.573.085 1.408 2.747 2.508 3.123 4.104s-1.562 4.113-1.758 6.588.128 5.256 0 7.842h3.917c-9.088 3.67-23.117 12.766-31.258 18.688-16.247 11.827-41.78 34.722-51.968 51.849-4.104 6.903-5.342 13.405-10.803 19.558.06-1.306-.043-2.611 0-3.917-.137-.572-8.277-7.364-9.054-7.595-5.154-1.544-13.679.649-19.396-.196-3.286-.486-4.199-3.114-6.102-3.686-6.391-1.92-14.95 2.261-20.292-2.236 5.973-.836 14.9 1.34 20.284-.282 1.672-.503 11.998-4.864 13.73-5.862 3.67-2.116 6.195-6.963 9.105-8.576 6.554-3.635 4.693-3.746 7.706-5.914 1.595-1.143 4.437-1.006 7.048-2.79 4.915-3.345 33.92-34.056 37.154-39.287 3.337-5.41-.102-2.543 5.888-7.715 5.598-4.838 4.933-7.398 7.817-11.818 6.024-9.25 7.654-5.658 11.63-19.695.487-1.724 2.518-3.396 2.791-5.103.342-2.142-2.184-5.82-2.73-8.448-.64-3.09-.803-9.634-2.39-13.133-1.39-3.055-3.985-5.367-6.494-7.475s-5.145.213-3.806-6.886z"/><path fill="#d6ef98" d="M337.956 628.258c2.91-.341 14.685-.341 17.587 0 4.915.589 12.91 2.919 14.464 8.235.768 2.628.776 14.524 0 17.143-.162.538-5.956 8.354-6.63 9.037-11.606 11.844-40.039 20.224-55.851 26.41-4.933 1.93-15.702 8.201-20.472 8.91-6.878 1.015-16.102-.598-23.313-.29-1.237-.359-9.241-9.933-10.137-11.478s1.058-3.226.955-4.898c-.162-2.569-2.022-3.601-1.015-6.904.563-1.86 7.228-10.854 8.934-12.757 16.214-17.963 51.977-30.686 75.469-33.425z"/><path fill="#d2ec98" d="m812.537 413.653-3.115.58c-2.32 9.737-13.081 16.76-20.027 24.15-9.9 10.513-22.213 26.06-35.303 33.254-1.416.777-10.137 4.583-10.974 4.71-1.877.282-3.746-1.527-5.632-1.638-3.285-.196-6.818.41-9.796 0-2.176-.298-10.803-6.041-11.75-7.842-4.404-8.397-1.818-15.599 2.073-23.466 12.493-25.26 43.862-50.578 70.844-58.437 14.106-4.104 18.867-3.643 27.75 8.645 2.27 7.68-2.927 12.902-4.07 20.044"/><path fill="#d1ec8f" d="M589.928 576.896c-7.091 5.453-13.534 12.117-21.717 16.341-8.056 4.156-19.294 12.075-26.991 14.2-12.067 3.32-23.74.802-33.81-6.486-5.213-3.771-7.927-8.2-4.991-14.694 6.417-3.985 9.975-13.918 15.633-17.664 2.628-1.74 5.478-1.664 7.048-2.79 3.055-2.193.785-2.219 7.706-5.914 3.993-2.133 16.333-13.184 20.83-14.481 2.927-.845 6.4.375 9.318-.47 2.065-.597 3.644-3.882 6.477-5.281 6.22-3.072 20.24-5.214 27.059-4.276 6.903.948 13.679 8.9 16.444 14.976-1.886 8.2-10.138 21.12-17.442 25.19-1.886 1.05-4.506.53-5.564 1.34z"/></svg>