<svg xmlns="http://www.w3.org/2000/svg" viewBox="0 0 1024 1024"><path fill="#e3a501" d="M865.058 66.355c.359 2.663.606 10.035-.537 13.67l-27.674 87.467c-1.51 4.779-3.354 11.921-3.362 17.63l-.367 341.06c-13.397.333-28.083-1.177-41.344.163l-28.672-.282.222-50.142.102-78.66-.077-55.22-.222-170 2.313-13.577 30.933-34.74c4.37-4.906 10.795-9.898 16.103-14.856l25.839-24.106c.887-.828.972-4.634.094-5.06l-358.656.307-28.596-.342-6.536-.017-91.239-.503-97.143-.145-26.078-.043-35.388-.538-27.204-.7c-1.237-.034-6.246 2.433-5.922 2.526-1.237-3.916-2.321-8.857-2.406-13.55l55.159-.58 128.444-.129 76.109-.11 47.351.016 16.734-.802c8.985-.435 18.201-.222 27.35-.06l31.829.564 34.193-.427 94.404-.213 52.59-.248 99.593-.102 23.877.205c6.306.05 12.85.862 18.184 1.544"/><path fill="#fed40e" d="m444.62 79.642-4.394 7.33c-1.032 1.715 5.385 3.61 7.74 3.643 2.193.035 5.47-4.718 4.864-6.374l-1.673-4.574 28.596.342-.043 2.508-16.043 4.839c-1.869.563-4.232 6.87-5.026 8.414l-14.114 4.608c-6.57 2.15-13.935 11.084-16.486 19.635l-3.115 10.428-10.027 4.275-1.169 14.14-1.724 25.6c-.307 4.514-2.03 16.29-6.579 17.646l-75.324 1.007c20.71-.281-36.078 3.567-26.06 2.91-7.356.478-13.312.487-22.008-.444-15.13-1.604-7.774 12.297-16.708 9.037-3.132-1.143-11.025-2.568-13.679-1.186-2.38 1.237-2.33 10.59-.307 12.348 2.995 2.594 9.054 7.16 11.34 10.172 4.344 5.708-2.995 18.97 1.52 24.755l-8.713-7.091c-1.22-.99-18.509-4.037-23.79 2.995-1.819 2.415-3.662 6.997-4.182 9.344l-2.364 10.573-.316 300.407c-11.793.589-22.417.905-31.539 3.064-1.971-6.076-2.005-12.468-1.997-20.975l.265-371.892c0-10.743-6.11-21.657-9.063-31.001l-20.83-65.895c-.315-.093 4.685-2.551 5.923-2.525l27.204.7 35.388.537 26.078.043 97.143.145 91.238.503zm-63.65 51.985.914-7.988c.085-.725 3.328.59 4.275.427l16.896-2.884c4.855-.828 14.029 1.75 17.263-4.42 1.835-3.508-6.605-10.249-9.993-8.389-3.976 2.185-8.175 3.286-12.33 4.625l-16.401 5.291c-3.644 1.178-13.005.922-18.202 1.178-2.893.145-1.69 11.87 1.178 12.023 4.505.24 13.815.23 16.392.128zm-168.925 5.452-.06 54.068 194.825.222.06-54.068z"/><path fill="#fccd05" d="M862.165 5.914c-.324-.53 3.166 2.457 3.098 3.353l-1.067 15.292-13.448-3.866c-22.119-6.366-26.454.922-43.17 1.349l-59.683 1.519-17.092.426-8.004.589-351.019.23-178.38.077-33.306.086-.657-21.163 3.097-.99 15.156 8.78c2.5 1.451 9.13-5.52 11.22-7.577 11.487-11.35 17.23 9.37 29.33 7.262C222.08 7.936 228.966-.4 232.644.725c5.683 1.741 13.432 7.399 18.68 11.008 5.52.7 15.863-14.114 20.411-11.102l11.23 7.424 6 3.943c2.517 1.655 11.11-11.512 19.95-11.196 5.043 1.331 13.261 7.407 18.227 11.076l11.418-8.277c3.533-2.56 10.453-2.67 13.918-.205l11.366 8.09L382.61 1.382c7.765-4.18 13.44 13.935 22.212 8.807l14.908-8.713c3.388-1.98 11.75 4.984 14.848 8.098 7.603 7.63 15.923-9.804 23.714-8.064 11.384 2.552 12.817 16.086 24.26 7.877 3.55-2.552 9.268-6.392 12.485-8.252 4.027-2.338 14.216 13.815 22.306 9.233 4.028-2.278 11.452-7.825 15.198-7.578 5.41.359 12.168 5.41 18.184 9.131l16.99-7.825c5.043-2.321 16.213 3.95 21.018 6.801l21.444-7.014c25.49 8.755 11.648 1.74 44.98 2.107l28.816.325 37.137-.478c5.632-.068 14.439 1.604 20.736 2.68 27.384-14.405 29.91 8.106 41.822.144 3.09-2.065 10.027-6.929 13.278-6.75 9.14.512 12.706 14.388 23.56 7.442l14.61-9.336 16.443 11.546 10.633-5.64z"/><path fill="#e9a702" d="M160.077 24.951c.068 2.1-.043 5.658-.137 7.885l-.546 12.63 65.485-1.75 29.192-.35 408.704-.17 201.95.034-.222-7.595-.315-11.076 1.066-15.292c.06-.896-3.421-3.882-3.097-3.353.998-.837 3.993-3.951 4.343-2.45.23.999 1.135 4.643 1.127 5.812l-.137 28.62-.102 23.33c0 1.511-2.031 5.377-2.347 5.13l-.367-10.54-67.891-.119-44.723.102-178.142-.025-29.03-.094-78.66-.307-36.438-.145-26.496-.632-36.804-.213-18.364.145-57.78-.102-65.501-.12-49.895-.11-15.983-.35-2.406-13.244c-.12-13.184-1.118-26.368 2.825-36.813l.657 21.162z"/><path fill="#f4c403" d="M865.058 66.355c-5.325-.682-11.878-1.493-18.184-1.544l-23.877-.205-99.592.102-52.591.248-94.404.213-34.193.427-31.83-.563c-9.148-.163-18.364-.376-27.35.06l-16.733.801-47.351-.017-76.11.111-128.443.128-55.16.58-.238-12.834 15.983.35 49.894.111 65.502.12 57.779.102 18.364-.145 36.804.213 26.496.632 36.437.145 78.66.307 29.031.094 178.142.026 44.723-.103 67.891.12.367 10.538z"/><path fill="#dfa210" d="M830.814 547.055c.648 0 1.775-.068 2.517-.12l-.239 20.42-69.973.248.085-20.88 67.61.34z"/><path fill="#d65f02" d="m833.126 526.174.214 20.77c-.751.051-1.878.12-2.518.12l-2.15-2.962-64.939.017-.486-14.907 28.544-2.876c13.26-1.331 27.938.17 41.344-.162z"/><path fill="#ffcd07" d="m765.44 158.447-5.12 5.564-14.327 15.249c-5.402 5.751-13.85 18.244-13.978 26.095l-.47 29.192-.119 49.86-.017 26.223-.026 76.126v96.999l-.41 42.419-12.654.606c-6.81.324-13.926.085-21.103.008l-68.608-.742c-1.57-.017-6.383.939-6.656 2.457l-1.562 8.517c-.486 2.662 3.712 8.132 5.948 8.448 3.43 8.106 3.405-1.05 12.143 9.165l8.312 9.719c.06 0-2.262.333-5.044.75-2.61.863-9.822 3.525-13.073 3.406-121.19-4.412-240.307 5.094-361.89-4.762 0-77.858.009-228.505.017-305.561 0-1.664-1.75-4.643-2.62-5.248v-2.245c-4.505-5.794 2.834-19.055-1.51-24.755-2.287-3.004-8.346-7.569-11.34-10.172-2.023-1.758-2.074-11.102.306-12.347 2.663-1.383 10.548.042 13.68 1.186 8.934 3.26 1.578-10.641 16.708-9.037 8.695.922 14.651.922 22.007.444-10.018.657 46.763-3.192 26.06-2.91l75.325-1.007c4.548-1.348 6.272-13.133 6.579-17.647l1.724-25.6 1.169-14.14 10.026-4.275 3.115-10.428c2.56-8.55 9.916-17.493 16.486-19.635l14.115-4.608c.785-1.544 3.157-7.85 5.026-8.414L479.7 82.51l.043-2.509 358.656-.307c.87.426.785 4.232-.094 5.06l-25.839 24.107c-5.308 4.958-11.733 9.95-16.102 14.856l-30.934 34.74z"/><path fill="#f8be02" d="m763.102 526.046-32.12.136.419-42.419v-96.998l.017-76.126.017-26.223.12-49.86.468-29.193c.128-7.85 8.576-20.343 13.978-26.095l14.328-15.249 5.12-5.564-2.313 13.577.222 170.001.077 55.22-.103 78.66-.222 50.141z"/><path fill="#f27d02" d="m730.982 526.182 32.12-.136 28.672.281-28.544 2.876.486 14.908 64.939-.017 2.15 2.96-67.61-.34-33.057-1.443-90.83-.264-12.978.478c-2.236-.316-6.435-5.786-5.948-8.448l1.561-8.516c.282-1.52 5.086-2.475 6.656-2.458l68.608.742c7.186.077 14.294.316 21.103-.008l12.655-.606z"/><path fill="#ffcd07" d="m451.157 79.667 1.673 4.574c.606 1.656-2.671 6.409-4.864 6.374-2.355-.034-8.772-1.928-7.74-3.643l4.395-7.33 6.536.017z"/><path fill="#feea94" d="M263.62 570.078c-4.795-1.22-11.707-2.74-17.68-2.16l-20.907 2.032c-10.3.998-21.368.358-31.753.034 9.122-2.159 19.746-2.466 31.54-3.063l.315-300.408 2.364-10.573 5.973-5.666c3.251-3.08 9.199-6.357 15.54-5.504 7.44.999 11.963 9.557 15.163 17.374l-.017 300.143-.538 7.782z"/><path fill="#f9f2dd" d="m211.997 191.152.067-54.067 194.824.238-.066 54.067z"/><path fill="#facc29" d="M264.183 250.7v2.245l2.62 5.248c0 77.056-.008 227.695-.017 305.562 121.583 9.856 240.7.35 361.89 4.761 3.26.12 10.462-2.543 13.073-3.405 2.782-.41 5.103-.759 5.044-.75l-8.312-9.72c-8.73-10.214-8.712-1.058-12.143-9.165l12.98-.478 90.828.265 33.058 1.442-.085 20.881c-6.306 7.416-20.634-4.48-33.894 2.74l-14.157.64c-3.678.161-9.49-.018-13.184-.333l-15.002-1.28c-6.135-.521-12.348-.069-18.893.179l-21.205.819-9.924.23-11.153-.136c-2.535-.034-8.226 1.869-10.437 2.867-3.37-2.074-8.03-2.005-12.757-2.04l-18.705-.136-9.472-.23c-6.63-.163-13.55.12-20.113.614-3.789-.393-9.762-1.152-14.387-1.152h-63.121l-17.775.708c-3.712.145-8.918.384-12.595.307l-16.572-.35-10.48.06-16.375-.068-13.226-.017-23.177-.631h-99.703c-.777 0-2.279-.205-3.183-.308l.537-7.782.017-300.143c-3.208-7.817-7.722-16.375-15.163-17.374-6.34-.853-12.28 2.424-15.54 5.504l-5.973 5.666c.52-2.346 2.372-6.929 4.182-9.344 5.282-7.031 22.57-3.993 23.79-2.995l8.713 7.091z"/><path fill="#ffcd07" d="M380.97 131.627c-2.585.094-11.886.102-16.392-.128-2.867-.154-4.079-11.879-1.177-12.024 5.196-.256 14.557 0 18.201-1.177l16.401-5.291c4.156-1.34 8.346-2.44 12.33-4.625 3.389-1.86 11.837 4.89 9.993 8.388-3.234 6.17-12.407 3.584-17.263 4.42l-16.896 2.885c-.947.162-4.198-1.152-4.275-.427l-.913 7.987z"/><path fill="#f2b301" d="m864.196 24.559.316 11.076-41.463-1.203-89.25-.154-78.627-.085-63.155-.205c-7.663-.025-16.043-.93-23.373-.606-7.321.333-14.071.811-21.017.76l-23.791-.188-28.928-1.015-185.984.094-36.898.05-91.785-.11-20.31-.137c.095-2.227.206-5.785.137-7.885l33.306-.085 178.38-.077 351.02-.23 8.004-.589 17.092-.427 59.682-1.518c16.717-.427 21.052-7.706 43.17-1.349l13.449 3.866z"/><path fill="#fbc702" d="m864.512 35.627.222 7.594-201.95-.034-408.704.17-29.193.35-65.484 1.75.546-12.63 20.31.137 91.784.111 36.898-.051 185.984-.094 28.928 1.016 23.79.187c6.947.052 13.688-.426 21.018-.76 7.322-.323 15.71.581 23.373.607l63.155.205 78.626.085 89.25.153 41.464 1.204z"/><path fill="#fed40e" d="m266.803 258.193-2.62-5.248c.88.606 2.62 3.584 2.62 5.248"/><path fill="#dc9801" d="M833.673 837.982c.46 7.518-.632 19.627 1.843 27.033l27.75 82.987c1.826 5.453 2.33 13.141 2.227 18.227l-126.361-.204-65.63-.094H536.994l-115.328-.205-42.035.043-41.993.145-55.108-.163-24.55-.35-40.832-.392-57.276-.555-.017 12.297v8.508l-.077 10.82.196 7.398-.554 15.437-3.055-2.193.495-47.915c0 .333 2.295-28.663 4.83-23.483l.41 5.435h7.398l165.87-.085h503.186c-5.82-7.834-11.495-15.002-17.673-21.146l-21.29-21.162c-4.788-4.762-10.667-9.2-15.813-12.502-.128-.537-1.775-4.864-2.654-6.041l-11.605-15.625c-5.794-12.475-5.402-27.98-4.514-41.566l34.67.137c3.525.017 33.588 2.816 34.006 5.214z"/><path fill="#e4ad4b" d="M823.228 743.774c-12.015 38.613-6.46 41.199-16.342 69.478l-5.52 15.813 16.298 2.073c5.427.691 10.871 1.058 15.667 1.263-.025 1.4.248 4.062.342 5.58-.419-2.397-30.482-5.196-34.006-5.213l-34.67-.137-20.182-.571c1.98-8.371 9.233-21.496 17.826-29.705l-.12-19.422c-20.394 11.956-31.12 26.47-36.266 47.446l-8.021-.197c.213-12.68 14.054-33.527 24.61-43.22l18.065-16.598c3.6-3.303 2.09-16.52.81-19.542l-9.531-1.604c3.9-9.455 10.36-23.612 9.6-33.408l-1.528-19.567 3.644-4.207-1.647-39.5-28.45-3.337c-2.338-.273-7.27 1.203-8.056 2.142-10.734 1.493-22.289 5.87-32.034 12.057l-5.12 3.252c-.665.418-1.288-.87-2.04-1.835l-1.603-5.214c22.946-11.221 47.197-20.01 76.92-18.415l.75-15.351c11.64.281 68.523 21.452 66.159 49.024l-1.493 17.4c-.214 2.448-5.086 8.43-5.82 8.882 1.638 6.486 2.841 14.106 2.585 20.924l-.819 21.7zm-45.807 20.198c18.423-1.024 30.268-26.197 30.182-36.104l-.264-31.744c-2.654-2.961-7.501-8.55-10.343-10.41L780.1 674.644c-2.577-2.159-3.575.162-2.577 2.961 16.99 16.504 16.615 27.58 15.6 45.577-1.503 26.547-10.676 24.815-15.702 40.798z"/><path fill="#fac60d" d="M863.13 1005.491c.682.495 2.858 3.345 2.141 4.48l-2.858 4.497c-18.134-3.78-9.583 3.004-23.373 8.482-8.294 3.294-14.217-18.184-30.293-4.915-14.72 12.152-22.622-8.465-31.463-3.439-23.927 13.602-18.637-1.86-44.356 3.576-27.87 5.888-14.84-6.033-42.308-.29-25.617 5.359-5.888-6.503-39.288 1.135-6.52 1.493-18.474-3.482-24.746-3.806-9.583 1.203-20.472 7.569-29.978 2.116-20.267-11.614-18.79 11.733-39.543-2.321-9.592-6.494-19.73 9.037-29.722 4.25l-15.386-7.373c-7.227 4.53-14.48 8.405-20.548 10.265l-16.205-10.624-12.288 7.825c-3.285 2.091-12.603-.324-15.735-2.389-15.224-9.984-17.468 12.27-34.8 1.118l-10.828-6.972c-25.08 26.496-28.561-11.776-44.774 6.34-2.245 2.51-10.897 6.008-13.73 4.173l-14.934-9.702-17.561 9.753c-8.636 4.796-16.615-14.677-25.771-8.115l-9.882 7.083c-9.403 6.741-15.368-8.602-24.823-9.447-5.692 4.736-12.015 10.761-16.487 11.043-5.768.367-12.723-5.675-17.8-10.744-2.116.87-7.177 3.183-9.318 4.591L194.398 1024c-5.828-3.917-12.647-8.329-17.306-11.076-4.582-2.705-17.058 12.766-17.664 5.982l.555-15.437c5.94.324 13.56 1.092 19.942.998 13.816-.196 26.232.342 39.817.444l96.87.75 31.258-.63c5.308-.112 10.42-.035 15.991.076l41.95.845 65.408-.862c15.693-.205 30.413.051 47.676.24l15.752.178 316.783.47c4.463.785 10.53 2.935 11.717-.487z"/><path fill="#e5a102" d="m862.413 1014.468 2.858-4.497c.717-1.135-1.459-3.985-2.141-4.48l-3.098-2.312c-19.67-.248-38.059 1.945-57.37-2.663 7.245-6.878 62.6 2.065 62.38-5.325l-.3-9.94-72.951-.282-212.864.102-317.099-.017-76.39.264-25.583-.06v-8.507l21.402-.913 38.382-.922 117.624.026 16.128.043 76.1.119 34.1-.23 26.282-.06h86.57l123.273.008 86.597.111 71.022.12c1.997 0 6.98-.47 7.305-2.014l.82-3.951c.264.196 1.339 3.814 1.356 5.035l.23 18.636.3 18.441c.025 1.485-1.64 6.784-2.646 5.7l-2.262-2.423z"/><path fill="#fed512" d="m264.585 832.375 1.518.555-2.423 7.535c-7.117 22.127-10.41 31.266-27.119 48.751l-28.28 29.61c-4.676 4.899-11.23 9.567-16.776 14.507l-14.677 13.065c-1.536 1.365-7.134 4.079-7.339 4.36h-7.398l-.41-5.435 20.181-60.826c3.482-10.496 8.227-21.973 8.645-33.186l.674-18.1 12.595-.196 26.283-.315z"/><path fill="#f6bb03" d="m865.493 966.23-.05 2.858-.82 3.95c-.324 1.554-5.308 2.023-7.305 2.015l-71.023-.12-86.596-.11H576.427l-86.571-.01-26.283.06-34.099.231-76.1-.12-16.128-.042-117.624-.026-38.383.922-21.401.913.017-12.297 57.276.555 40.832.393 24.55.35 55.108.162 41.993-.145 42.035-.043 115.328.205h76.143l41.984-.017h18.38l65.63.102 126.362.205z"/><path fill="#dedbd6" d="M209.17 627.849c.008 1.33-.146 3.831-.223 5.307-3.891 1.323-.222 8.124-.213 11.802l.478 124.774.23 59.563-16.785.82-.068-144.172.23-49.928.051-39.612.094-23.142 15.761.998.436 53.59z"/><path fill="#d5a968" d="m807.142 571.802.12 39.808c6.067 3.746 14.19 9.864 15.812 16.896 1.408 6.118-1.11 13.508-3.362 21.128l11.068 9.89c-1.212 17.81 4.847-1.467 1.04 29.406-1.612 13.082-1.774 26.59-.895 38.87-1.144-.76-1.715-.956-2.09-1.622l-2.049-3.61c-.921 8.696-1.664 15.122-3.558 21.206l.819-21.7c.256-6.819-.947-14.439-2.586-20.924.726-.46 5.607-6.434 5.82-8.883l1.493-17.4c2.364-27.571-54.52-48.75-66.159-49.024l-36.53-.87c-16.47 5.59-31.045 12.1-44.826 21.316-1.468.981-3.985 4.395-5.035 3.618l-4.446-3.31c1.11-2.296 4.42-6.998 6.741-8.432 6.05-3.746 19.021-9.753 26.351-11.784l19.78-5.479 13.185-4.207c6.784-2.167 17.723-2.56 24.832-1.945 7.73.665 25.642 6.357 32.964 11.008l20.59 13.09c.82-.068 4.856-7.083 3.679-8.516L807.484 615.1c-8.824-15.719-21.154-7.817-44.408-15.71.034-1.391-.46-4.053-.682-5.479l3.746-22.937c20.173-2.603 29.389 2.133 41.002.828m19.371 137.634.555-7.92z"/><path fill="#f1d48f" d="M224.853 745.822c-1.058.427-2.176.81-2.295 1.724l-.563 4.335-5.786.204 5.786-.204 2.287.264.716 77.065 36.105 1.288 1.152-13.5c.17-1.98 1.877-6.297 1.903-8.226l5.837 8.192-5.897.265.487 15.146-34.526.325-26.283.315-12.595.197c.034-.913.973-2.33 1.476-3.098l16.785-.82-.23-59.562-.478-124.774c-.017-3.678-3.678-10.47.213-11.802.324 1.16 2.193 6.417 2.5 8.508l.402 72.986c.017 2.568.119 6.818 1.638 6.869l6.792.239c1.51.051 2.407-5.658 2.202-7.194l-2.09-15.795c-.205-1.57 1.655-6.775 1.646-8.576l-.162-32.734-.034-8.533-.145-25.66c.785-.29 2.236-.341 3.217-.418l-.051 122.974zm-4.864-15.386c-4.147-3.89-7.227-4.181-2.918 3.414.188 2.107.776 1.203 2.918-3.414"/><path fill="#c8bfb5" d="m830.925 727.79 1.169 16.402c1.587 22.22 1.587 65.963 1.237 88.2-4.796-.204-10.231-.571-15.667-1.262l-16.299-2.074 5.521-15.812c9.882-28.28 4.327-30.865 16.342-69.479 1.894-6.092 2.637-12.51 3.558-21.205l2.048 3.61c.376.657.947.861 2.09 1.62"/><path fill="#c5bfba" d="M833.007 573.013c-.367 23.313-.76 64.922-2.227 86.511l-11.068-9.89c2.261-7.62 4.77-15.01 3.362-21.128-1.613-7.032-9.745-13.15-15.812-16.896l-.12-39.808 15.821-1.775c2.432-.273 8.79 2.15 10.035 2.986z"/><path fill="#e5af4b" d="m763.119 567.603 69.973-.247-.085 5.649c-1.246-.828-7.603-3.26-10.035-2.987l-15.821 1.775c-11.614 1.306-20.83-3.43-41.003-.828l-3.746 22.938-23.347 4.463-20.173 3.208c3.448-6.365 15.906-24.832 10.351-31.232 13.26-7.219 27.588 4.677 33.894-2.739z"/><path fill="#dbcdb5" d="m225.033 569.958-.128 52.89c-.982.077-2.432.137-3.218.418l-12.518 4.583-.435-53.59-15.761-.998c0-.82.205-2.364.307-3.26 10.385.324 21.453.964 31.753-.034z"/><path fill="#f3b501" d="m327.006 829.67 12.928 1.528c8.559 1.015 17.886 3.123 24.021-1.075l2.15.025 10.497-.136c5.367 4.471 14.25 2.415 22.28 1.92l25.72-1.579 44.552-.392c5.146 1.68 12.86 2.79 17.613.136l8.354-.239c4.796 4.412 13.995 3.09 21.316 1.297l4.95-1.212c1.621 7.151 21.41.214 26.376.214l18.39.017 45.977.964c6.613.137 14.55 1.425 21.026.81 4.608-.434 8.235-.767 11.247-.426 6.605.76 13.636.657 19.448-1.74 9.745 3.609 20.113 3.942 31.155.904l7.552 1.613 15.676-2.125 8.02.196c6.043 1.007 12.323 1.502 18.56 1.681l20.182.572c-.887 13.585-1.288 29.09 4.514 41.566l-9.523 3.328-84.24-.154c-4.088 0-10.24 2.569-11.82 5.402s-.768 11.144 1.58 13.482c3.233 3.226 9.872 4.387 13.465 2.185l89.01-.026c5.351 0 11.461-1.22 15.77-2.56 5.155 3.303 11.026 7.74 15.813 12.502l21.29 21.162c6.187 6.153 11.862 13.312 17.673 21.137H335.36l-165.87.094c.212-.281 5.802-2.995 7.338-4.36l14.677-13.065c5.547-4.94 12.1-9.608 16.777-14.506l28.28-29.611c16.699-17.485 20.001-26.624 27.118-48.751l2.423-7.535c3.098-1.126 6.682-1.34 11.904-1.178l43.136 1.34c1.69.051 6.656-3.388 5.863-3.43z"/><path fill="#f8c202" d="m865.033 995.191-167.885.7-154.752-.017-23.723.111-36.198.256-42.505-.46-23.603-.069-39.032.393-16.06.238-36.778-.179-83.891-.12-36.344.317-19.217.179-25.267-.461.077-10.82 25.574.06 76.39-.265 317.1.017 212.863-.102 72.952.281z"/><path fill="#eaab03" d="M865.033 995.191c.221 7.39-55.134-1.553-62.38 5.325 19.312 4.608 37.701 2.415 57.37 2.663l3.098 2.312c-1.186 3.422-7.253 1.272-11.716.487l-316.783-.47-15.753-.179c-17.263-.196-31.983-.452-47.675-.239l-65.408.862-41.95-.845c-5.573-.11-10.684-.179-15.992-.077l-31.257.632-96.87-.751c-13.586-.102-25.993-.64-39.817-.444-6.375.094-14.003-.674-19.943-.998l-.196-7.399 25.267.461 19.217-.17 36.352-.316 83.883.12 36.779.178 16.06-.247 39.03-.393 23.596.077 42.513.461 36.198-.256 23.723-.11 154.743.016 167.893-.7z"/><path fill="#ecb523" d="m769.502 874.197 11.605 15.625c.87 1.177 2.526 5.504 2.654 6.041-4.31 1.34-10.42 2.56-15.77 2.56l-89.01.026c-3.593 2.202-10.232 1.041-13.466-2.184-2.356-2.339-3.158-10.659-1.579-13.483s7.723-5.41 11.819-5.402l84.24.154 9.524-3.328z"/><path fill="#fce187" d="m337.638 591.164 10.897 10.146 16.768 15.172c15.779 14.276 11.222 20.053 20.267 24.73 8.312 15.206 13.96 32.802 17.425 50.543l.99 5.077c.188.947 2.21-.503 4.07-1.45 32.717-15.216 62.541-21.377 96.717-6.17 19.985 8.891 30.055 18.073 42.812 32.947a449 449 0 0 0 16.393 18.065c3.694 9.498 9.036 19.098 15.803 26.65-.12.76-.375 1.903-.375 2.585 0 .973 1.758 2.432 2.534 2.97 7.945 13.56 21.735 21.436 39.45 22.178 6.485.273 13.047-3.652 14.728-9.318 1.34-.862 4.71-3.388 6-4.83l18.687-20.77c13.517-15.028 24.5-41.942 18.73-61.935l-3.412-11.82c-.862-2.986-1.878-6.015-3.183-8.003l-2.065-4.89 2.133-11.366c.205-1.11 3.848-3.49 4.744-2.868l4.173 2.868 4.625 3.166c.751.964 1.374 2.252 2.04 1.834l5.12-3.251c9.745-6.187 21.299-10.564 32.034-12.058l10.684 1.263-.828 11.93c-.418 6.11-18.628.333-17.545 5.768l-12.125 4.07c-3.183 1.068-9.157 5.573-10.334 8.38 9.318 38.529 2.466 44.519-11.572 76.289-2.09 1.723-5.87 5.18-7.782 7.603l-13.218 16.742c-3.174 4.02-6.28 9.054-8.337 12.988-10.616 7.048-16.094 17.715-20.548 32.162l-19.328 1.374 6.007-16.81c-23.39-2.791-42.88-8.756-55.432-31.548l-13.261-24.107c-13.867-25.2-34.185-44.271-61.62-54.136-37.222-13.38-76.305 3.294-103.62 27.358l-14.925-.776c-7.74-.401-2.926-24.329-8.234-23.245-6.272-51.849-47.642-90.59-98.995-97.05l-1.101-39.543c.904.102 2.406.307 3.183.307l.136 23.083 21.445 5.009c52.471 12.262 89.395 61.534 93.056 115.524l6.869-5.146c3.481-2.61-9.208-38.22-12.68-45.994-22.29-49.92-55.664-64.555-103.527-78.379 25.54-18.67 41.668-3.32 65.544 6.682z"/><path fill="#f9cc67" d="m671.778 646.596 4.446 3.311c1.05.785 3.567-2.637 5.035-3.618 13.781-9.216 28.347-15.727 44.825-21.316l36.531.87-.75 15.352c-29.722-1.596-53.974 7.193-76.92 18.415l1.604 5.213-4.625-3.165-4.173-2.868c-.896-.614-4.53 1.767-4.744 2.868l-2.133 11.366c-1.699-1.886-4.233-4.873-6.315-6.938l-12.433-12.347 7.987 19.225-14.643-.315-.717 8.09c-11.443-17.033-10.846-38.93-3.055-57.96 4.395-2.38 11.298-2.389 15.411-.409l-.768 12.775 15.454 11.434z"/><path fill="#d6a756" d="m760.252 696.252 1.527 19.567c.76 9.787-5.7 23.944-9.6 33.408-3.14 7.62-22.972 26.163-34.244 39.466-5.257 6.204-22.895 36.446-15.377 43.623l-7.552-1.613c-11.05 3.038-21.41 2.714-31.155-.905 3.72-11.972 9.036-23.321 15.317-34.26l2.27-.283-9.84 33.784 18.851.102c14.814-70.05 71.424-55.296 48.657-153.617-.742.453 2.108-5.828 3.328-5.367 4.437 1.672 11.128 9.651 13.022 14.302l4.796 11.801z"/><path fill="#fcd778" d="m718.234 830.182-15.676 2.125c-7.518-7.168 10.112-37.41 15.377-43.622 11.272-13.304 31.104-31.847 34.244-39.467l9.532 1.604c1.288 3.013 2.79 16.23-.81 19.542l-18.066 16.597c-10.556 9.694-24.397 30.532-24.61 43.221z"/><path fill="#c7a87c" d="M777.42 763.972c5.027-15.983 14.2-14.25 15.702-40.798 1.016-17.996 1.391-29.073-15.599-45.576-.998-2.808 0-5.12 2.577-2.961l16.896 11.068c2.842 1.86 7.689 7.45 10.343 10.41l.264 31.744c.086 9.907-11.759 35.08-30.182 36.105z"/><path fill="#fbd472" d="M744.815 832.06c-6.238-.18-12.518-.674-18.56-1.681 5.146-20.967 15.872-35.49 36.267-47.446l.12 19.422c-8.594 8.21-15.839 21.334-17.827 29.705"/><path fill="#f1c467" d="m760.252 696.252-4.796-11.802c-1.886-4.642-8.585-12.62-13.022-14.302-1.22-.46-4.07 5.82-3.328 5.368l-5.564-5.871-8.849 3.865c-1.493.657-1.374 6.528-1.33 7.288l-2.68-5.29-2.637-5.19c-1.084-5.435 17.118.334 17.544-5.768l.828-11.93-10.684-1.262c.794-.947 5.718-2.415 8.056-2.142l28.45 3.337 1.647 39.5-3.644 4.207z"/><path fill="#e0b74d" d="M269.995 816.964c9.02 2.108 17.024 7.28 26.675 12.655l30.336.051c.785.043-4.173 3.482-5.863 3.43l-43.136-1.339c-5.222-.162-8.806.051-11.904 1.178l-1.518-.555-.487-15.147 5.897-.264z"/><path fill="#f1d18d" d="m221.687 623.266.146 25.66.034 8.533.162 32.734c.008 1.8-1.852 7.006-1.647 8.576l2.09 15.795c.205 1.536-.69 7.245-2.201 7.194l-6.793-.24c-1.519-.05-1.62-4.3-1.638-6.868l-.401-72.986c-.307-2.09-2.176-7.347-2.5-8.508.076-1.476.23-3.976.222-5.307l12.518-4.583z"/><path fill="#f9cc67" d="M729.225 570.342c5.563 6.4-6.895 24.867-10.351 31.232l20.172-3.208 23.348-4.463c.221 1.434.716 4.087.682 5.478l-.41 15.369c-7.108-.615-18.039-.222-24.831 1.945l-13.184 4.207-19.78 5.479c-7.33 2.03-20.31 8.038-26.352 11.784-4.232-1.792-7.304-4.53-10.999-8.874l10.249-8.866-11.136-11.102c-1.707-1.698 2.227-10.906 4.54-10.172l7.944 2.526 12.996 4.07c6.136-7.006 13.602-14.993 17.033-22.255l5.913-12.51 14.157-.64z"/><path fill="#f3bc4c" d="M701.875 570.658c-1.826 3.908-4.429 8.2-7.663 12.34-13.218 16.92-14.848 9.608-15.095 18.687l-7.945-2.526c-2.312-.733-6.246 8.474-4.54 10.172l11.137 11.102-10.249 8.866c3.695 4.335 6.767 7.083 11 8.875-2.322 1.433-5.633 6.144-6.742 8.43l-15.454-11.434.768-12.774c-4.113-1.98-11.016-1.971-15.41.41 4.334-10.6 11.34-21.59 19.711-30.44l18.5-19.557c.197.17-2.457-2.185-2.62-2.33l-11.554 7.944c-.221-1.092-3.464-4.974-5.256-5.026l-13.79-.375.094-2.62 21.205-.82c6.545-.255 12.758-.707 18.893-.178l15.002 1.28z"/><path fill="#e5af4b" d="m762.675 614.758.41-15.368c23.253 7.902 35.584 0 44.407 15.71l12.416 15.232c1.17 1.433-2.858 8.456-3.678 8.516l-20.59-13.09c-7.322-4.65-25.234-10.334-32.965-11.008z"/><path fill="#c8bfb5" d="m826.513 709.436.555-7.92z"/><path fill="#f8edd2" d="m263.62 570.078 1.101 39.543.017 8.474.026 17.57-.214 8.329.111 18.201c.017 2.927.248 8.064-.085 10.727l-2.355 18.449c-1.715 13.423.589 28.032 1.058 41.634l1.254 36.25.077 6.152-.452 33.365c-.026 1.929-1.732 6.247-1.903 8.226l-1.152 13.5-36.105-1.288-.716-77.065.58-6.332.051-122.974.128-52.89 20.907-2.03c5.982-.58 12.885.93 17.68 2.159z"/><path fill="#fbdc7f" d="m366.106 830.157-2.15-.026-19.26-.76c-13.73-19.464-32.828-33.117-58.83-27.024l29.432 16.102c4.028 2.202 9.284 7.731 11.708 11.213l-30.336-.051c-9.651-5.376-17.647-10.548-26.675-12.655l-5.837-8.192.452-33.366c1.024.393 5.572 1.605 7.228 1.596 38.289-.17 79.735 19.32 94.268 53.154z"/><path fill="#f1d18d" d="M219.99 730.436c-2.134 4.617-2.731 5.521-2.92 3.414-4.308-7.587-1.228-7.305 2.92-3.414"/><path fill="#dedbd6" d="m224.282 752.154-2.287-.265.563-4.335c.12-.913 1.237-1.297 2.295-1.724l-.58 6.332z"/><path fill="#f1d18d" d="m221.995 751.88-5.786.205z"/><path fill="#fcd877" d="M419.285 571.11c4.813 15.232 13.799 29.201 26.53 40.815 32.308 29.5 68.165 36.37 110.908 27.879 1.92-5.12 3.405-12.544 3.2-15.24-50.611 26.188-115.567-4.088-130.15-53.513l16.572.35c22.946 41.164 74.965 58.205 118.553 35.396l15.232-30.379c.615-1.237 3.157-4.548 3.678-5.256l18.705.136c-7.748 18.014-12.885 21.146-20.676 43.921-11.503 33.639-5.214 67.78 12.928 96.401l2.782 5.41-16.308 3.183c-1.152-.887-5.632-5.248-6.562-7.372l-13.602-31.01c-45.081 7.714-66.611 2.713-110.378-11.666-22.912-7.526-44.425-17.74-60.63-33.766l-8.49-10.479-8.158-10.274c-.606-.76-1.724-3.541-2.014-4.463-1.084-3.439 10.044-6.323 15.65-1.391l5.982 5.265 5.427 4.838c10.189 9.088 20.59 18.475 33.348 23.826 29.662 12.441 67.883 27.153 99.704 24.866l26.146-1.886-.111-11.46-26.112 4.07c-28.595 4.463-66.884-9.464-89.48-27.844-7.604-6.187-14.891-13.406-21.18-20.95-4.455-5.342-21.223-33.834-17.852-39.458l16.375.068z"/><path fill="#daa241" d="M402.91 571.042c-3.37 5.624 13.397 34.116 17.852 39.458 6.289 7.544 13.576 14.771 21.18 20.95 22.596 18.38 60.885 32.307 89.48 27.844l26.112-4.07.11 11.46-26.145 1.886c-31.821 2.295-70.042-12.425-99.704-24.867-12.749-5.35-23.15-14.737-33.348-23.825l-5.427-4.838c-2.424-5.734-7.56-10.812-13.142-15.514l-8.115-6.835 12.536-13.013c1.792-1.86 4.463-6.528 5.376-8.67l13.226.017z"/><path fill="#fcd877" d="M636.843 570.607c-5.3 11.264-9.498 12.954-19.874 30.464-14.277 24.081-19.866 53.973-9.43 80.708 4.25 10.88 10.454 21.427 15.719 30.797-1.622 2.005-4.958 5.01-7.211 6.067-5.794 2.705-14.174-8.968-16.35-11.912-26.231-35.362-15.693-101.095 15.565-133.402 2.219-.998 7.91-2.893 10.436-2.867l11.153.136z"/><path fill="#d7ac56" d="m366.507 570.385-6.878 10.837-14.976 6.767-7.023 3.175c-23.876-10.001-40.004-25.353-65.545-6.682 47.864 13.824 81.238 28.459 103.527 78.379 3.473 7.774 16.162 43.383 12.68 45.994l-6.87 5.146c-3.66-53.99-40.584-103.262-93.055-115.524l-21.444-5.01-.137-23.082h99.704z"/><path fill="#fad070" d="M476.706 570.385c4.292 5.982 10.7 11.657 18.074 15.599 21.333 11.4 46.182 4.053 59.443-14.438 6.554-.495 13.483-.768 20.113-.615-4.523 15.079-25.916 31.258-43.435 35.362-26.504 6.204-53.487-4.719-68.48-27.212l-3.473-7.988 17.775-.708z"/><path fill="#d29e40" d="m458.931 571.093 3.473 7.988c14.993 22.485 41.976 33.416 68.48 27.212 17.52-4.104 38.92-20.283 43.435-35.362l9.472.23c-.512.709-3.055 4.02-3.678 5.257l-15.232 30.379c-43.588 22.81-95.616 5.768-118.554-35.396 3.678.076 8.884-.154 12.596-.308z"/><path fill="#d19d3d" d="M429.773 571.05c14.583 49.426 79.539 79.702 130.15 53.513.205 2.697-1.28 10.12-3.2 15.24-42.752 8.491-78.6 1.622-110.908-27.878-12.723-11.622-21.708-25.591-26.53-40.815l10.48-.06z"/><path fill="#f2c365" d="M389.683 571.017c-.913 2.141-3.584 6.81-5.376 8.67L371.772 592.7l8.115 6.835c5.58 4.702 10.726 9.78 13.141 15.514l-5.982-5.266c-5.606-4.932-16.733-2.048-15.65 1.391.29.922 1.408 3.704 2.014 4.463l8.158 10.274 8.49 10.48c-2.568-2.544-6.203-5.266-10.111-8.432.537 1.98 1.365 4.754 1.903 5.837l3.72 7.424c-9.045-4.667-4.488-10.453-20.267-24.73l-16.768-15.172-10.897-10.146 7.023-3.174 14.976-6.767 6.878-10.837 23.177.631z"/><path fill="#d1a03e" d="m646.767 570.377-.094 2.62c-38.997 40.635-50.927 94.02-12.51 139.613.205-.043-1.809 4.574-2.773 4.088l-8.132-4.122c-5.265-9.37-11.47-19.917-15.719-30.797-10.436-26.726-4.847-56.618 9.43-80.708 10.385-17.519 14.574-19.2 19.874-30.464z"/><path fill="#cf9e3e" d="M615.253 573.33c-31.257 32.306-41.787 98.03-15.564 133.4-.06 1.008-.197 4.293-1.46 4.634-.827.23-2.61.222-3.481.248-18.142-28.621-24.431-62.763-12.928-96.401 7.782-22.776 12.928-25.908 20.676-43.921 4.727.034 9.387-.035 12.757 2.04"/><path fill="#c79745" d="M554.223 571.546c-13.252 18.5-38.101 25.839-59.443 14.438-7.365-3.934-13.773-9.617-18.074-15.599h63.121c4.625 0 10.59.76 14.387 1.16z"/><path fill="#d69f46" d="m715.068 570.982-5.914 12.51c-3.43 7.262-10.897 15.25-17.032 22.255l-12.997-4.07c.248-9.08 1.878-1.767 15.096-18.688 3.234-4.139 5.828-8.431 7.663-12.34 3.695.316 9.506.496 13.184.333"/><path fill="#fce188" d="m566.144 830.19-18.39-.016c1.528-33.331-14.096-65.647-40.396-88.533-6.784-5.897-28.152-18.654-32.768-16.248 37.24 20.002 65.032 58.641 65.271 103.484l-18.483 1.075c-.324-36.13-17.323-67.908-51.755-85.103-30.95-15.454-49.996-7.117-76.817 8.73l-14.78 2.645c-.673-1.22-.733-8.388 1.178-10.274l10.812-10.641c15.932-11.879 32.99-11.102 42.103-18.202 8.141-6.34 17.903-10.726 28.835-10.35 61.807 2.116 106.675 68.573 105.181 123.425z"/><path fill="#dba743" d="m521.387 829.952-4.95 1.212c-7.321 1.792-16.52 3.114-21.316-1.297l18.773-1.118c-1.536-18.944-5.435-32.913-14.48-47.812-12.528-20.643-40.099-39.774-64.393-32.12-11.938 3.763-24.286 9.83-35.149 17.4l-9.207 6.425c-1.895-2.56-5.547-6.024-8.107-8.15l6.007-6.39 4.258-4.532c26.82-15.855 45.867-24.192 76.818-8.73 34.44 17.204 51.43 48.973 51.754 85.103z"/><path fill="#f8c966" d="M486.767 830.114c-4.753 2.654-12.467 1.536-17.613-.136.623-13.85-4.275-26.744-17.075-35.508-10.556-4.505-39.305.811-35.396 14.746-.948-1.05-3.388-4.079-4.378-5.794l-8.9-15.275 4.215.99 10.368-5.649c6.426-3.499 16.453-8.602 24.482-7.962 13.62 1.084 27.239 8.653 35.192 19.021 7.876 10.274 8.934 23.91 9.105 35.559z"/><path fill="#d29838" d="m469.146 829.97-44.553.392-3.157-8.244-4.762-12.91c-3.908-13.935 24.84-19.26 35.396-14.746 12.8 8.764 17.699 21.666 17.076 35.507"/><path fill="#d9a94c" d="m421.444 822.127 3.158 8.243-25.72 1.579c-8.03.495-16.913 2.551-22.28-1.92l19.473-.828c-16.393-39.74-57.387-69.709-100.156-75.426l-25.498-3.405c-6.135.725-3.806-2.44.359-4.173 53.709-4.044 87.757 16.256 119.8 54.605 5.478 6.554 14.318 28.45 15.615 28.544l15.215 1.118.043-8.337z"/><path fill="#d5a143" d="M455.748 765.013c23.083 7.245 42.291 41.976 39.373 64.862l-8.354.24c-.17-11.64-1.229-25.285-9.105-35.56-7.962-10.367-21.58-17.945-35.192-19.02-8.03-.64-18.056 4.463-24.482 7.962l-10.368 5.649-4.215-.99-2.509-2.867-.12-2.398c15.668-9.737 35.593-23.92 54.98-17.87z"/><path fill="#d5a549" d="m376.593 830.02-10.496.137c-14.532-33.835-55.979-53.325-94.268-53.154-1.655 0-6.203-1.204-7.227-1.596l-.077-6.153c42.777-2.97 95.932 18.927 112.06 60.766z"/><path fill="#d7a748" d="M547.763 830.174c-4.966 0-24.755 6.929-26.376-.213l18.483-1.076c-.248-44.842-28.032-83.49-65.272-103.483 4.617-2.407 25.984 10.342 32.768 16.247 26.3 22.886 41.925 55.202 40.397 88.533z"/><path fill="#fcdb76" d="M679.168 795.529c-6.28 10.94-11.597 22.289-15.317 34.26-5.812 2.399-12.843 2.501-19.448 1.742 3.311-11.29 7.791-22.255 12.758-33.041l10.606-11.094 11.538 1.622-.146 6.52z"/><path fill="#d9a94e" d="M363.955 830.131c-6.127 4.19-15.462 2.082-24.021 1.075l-12.928-1.527c-2.424-3.482-7.68-9.011-11.708-11.213l-29.431-16.102c26-6.093 45.098 7.56 58.828 27.025l19.26.76z"/><path fill="#d7a143" d="m654.686 796.39 2.475 2.1c-4.975 10.786-9.447 21.751-12.758 33.04-3.012-.34-6.639-.016-11.247.427-6.477.615-14.413-.665-21.026-.81l-45.977-.965c1.493-54.86-43.375-121.318-105.182-123.426-10.932-.375-20.694 4.01-28.834 10.351-9.114 7.1-26.172 6.323-42.104 18.202l-7.979 2.696 4.839-7.321c27.315-24.073 66.406-40.738 103.62-27.358 27.435 9.856 47.761 28.936 61.62 54.135l13.26 24.107c12.544 22.801 32.034 28.757 55.433 31.548l-6.008 16.81 19.328-1.373c4.455-14.456 9.933-25.123 20.548-32.163z"/><path fill="#dba23c" d="M390.05 636.39c16.205 16.026 37.726 26.24 60.63 33.767 43.767 14.378 65.305 19.379 110.378 11.665l13.602 31.01c.93 2.133 5.41 6.494 6.562 7.373.282.025-4.335 2.27-5.444 2.253l-28.203-.308c-12.748-14.873-22.826-24.055-42.811-32.947-34.176-15.206-64-9.045-96.717 6.17-1.869.947-3.891 2.398-4.07 1.45l-.99-5.077c-3.465-17.74-9.114-35.336-17.425-50.543l-3.72-7.424c-.547-1.084-1.366-3.857-1.904-5.837 3.917 3.166 7.544 5.888 10.112 8.431z"/><path fill="#efba53" d="M636.117 785.28c-24.832-.102-39.893-15.556-56.337-18.406-6.775-7.552-12.109-17.152-15.803-26.65-1.775-8.414 50.346 13.193 57.156 15.795 4.019 1.536 11.776-.776 14.515-2.807l6.127-4.54 2.859-.375 8.533 1.894c2.688.597 3.635-6.477 4.668-8.85 6.604-15.257 20.266-18.644 15.948-50.636l2.339-4.779 3.413 11.82c5.768 19.993-5.205 46.907-18.73 61.934l-18.689 20.77c-1.297 1.442-4.659 3.968-5.999 4.83"/><path fill="#facc63" d="M657.681 704.077c-1.86 7.919-7.048 17.152-13.303 23.074l-15.07 14.268-4.241.734c3.26 5.597 4.062 6.98 3.242 5.58 8.585-1.228 10.752-1.356 13.466.948l-6.127 4.54c-2.748 2.03-10.496 4.343-14.515 2.807-6.81-2.603-58.931-24.21-57.156-15.795a455 455 0 0 1-16.393-18.066l28.203.308c1.109.008 5.717-2.236 5.444-2.253l16.307-3.183-2.782-5.41c.87-.026 2.646-.017 3.482-.248 1.263-.35 1.4-3.626 1.46-4.633 2.184 2.944 10.555 14.617 16.349 11.912 2.261-1.05 5.598-4.062 7.21-6.067l8.133 4.122c.964.486 2.97-4.13 2.773-4.088 6.733.248 10.599-7.057 10.095-13.576l9.259 7.586 4.164-2.543z"/><path fill="#f7c24f" d="m709.94 758.554-14.951 19.353-13.551 17.34-2.27.282.145-6.52-11.537-1.621-10.607 11.093-2.475-2.1c2.057-3.933 5.163-8.968 8.337-12.987l13.219-16.742c1.911-2.424 5.691-5.888 7.782-7.603l.631 3.49c.171.947 1.673-.214 4.276-1.408 7.518-12.74 14.43-28.075 15.07-43.682l1.382-33.86c10.394-2.262 14.524 28.5 14.302 33.356-.64 14.097-5.01 25.865-10.087 38.178z"/><path fill="#fcd877" d="m660.105 672.973 4.556 6.613c.794 1.152 4.045 3.209 5.36 3.866 1.68.836 2.619-3.601 2.91-5.53 1.305 1.988 2.32 5.026 3.182 8.004l-2.338 4.78c4.318 31.99-9.336 35.378-15.949 50.636l-8.422 4.207c-1.767.879-4.25 2.338-4.779 2.748l-2.859.375c-2.713-2.304-4.88-2.176-13.465-.947.819 1.408.008.017-3.243-5.581l4.241-.734 15.07-14.268c6.255-5.922 11.443-15.155 13.304-23.074-.896-3.191-3.44-9.199-5.402-12.117l-7.535-11.213.717-8.09 14.643.316z"/><path fill="#d9aa4e" d="m363.716 706.68.316 16.563c.077 4.079-2.27 11.494-4.326 15.291l-3.857 7.126-2.578.042-2.304-2.577c.64-3.558 2.398-9.327 3.934-14.31 7.706-37.999-15.232-77.722-48.196-96.085-13.184-7.348-28.092-10.863-41.967-14.627l-.017-8.473c51.354 6.46 92.732 45.192 98.995 97.05"/><path fill="#dca947" d="m718.054 670.319 2.637 5.188 2.68 5.29c7.466 34.117 7.543 50.595-13.432 77.757l-.333-3.43c5.07-12.306 9.438-24.073 10.087-38.179.222-4.864-3.908-35.618-14.302-33.357l-1.382 33.86c-.64 15.608-7.552 30.942-15.07 43.683-2.612 1.194-4.105 2.355-4.276 1.408l-.631-3.49c14.046-31.779 20.89-37.769 11.571-76.288 1.178-2.808 7.151-7.305 10.334-8.38l12.126-4.07z"/><path fill="#facd5e" d="m386.884 730.692-4.838 7.322 7.979-2.697-10.812 10.641c-1.92 1.886-1.852 9.054-1.178 10.275l14.78-2.646-4.258 4.531-6.008 6.392c-17.826-14.814-19.993-8.5-26.7-18.85l3.857-7.126c2.056-3.797 4.403-11.212 4.326-15.291l-.316-16.564c5.317-1.083.504 22.844 8.235 23.245l14.925.777z"/><path fill="#d3973a" d="M636.117 785.28c-1.672 5.666-8.234 9.591-14.728 9.318-17.715-.733-31.505-8.61-39.45-22.178l-2.534-2.97c0-.673.256-1.817.375-2.585 16.444 2.85 31.505 18.304 56.337 18.406z"/><path fill="#efba53" d="m670.874 673.033 2.065 4.89c-.29 1.928-1.23 6.365-2.91 5.529-1.314-.657-4.566-2.714-5.36-3.866l-4.556-6.613-7.987-19.226 12.433 12.348c2.082 2.074 4.616 5.06 6.315 6.938m-88.935 99.387c-.776-.537-2.534-1.997-2.534-2.97z"/><path fill="#d6a340" d="M641.69 622.797c-7.791 19.03-8.389 40.926 3.055 57.958l7.534 11.213c1.963 2.918 4.498 8.926 5.402 12.117l-4.164 2.543-9.259-7.586c-20.95-27.435-21.111-67.874.487-94.635l20.983-26 11.554-7.945c.162.145 2.816 2.509 2.62 2.33l-18.5 19.558c-8.363 8.84-15.369 19.84-19.712 30.438z"/><path fill="#fce187" d="M739.106 675.516c22.767 98.32-33.843 83.558-48.657 153.617l-18.85-.103 9.839-33.783 13.55-17.34 14.951-19.353c20.975-27.153 20.89-43.64 13.432-77.756-.043-.768-.171-6.64 1.33-7.288l8.85-3.865 5.564 5.87z"/><path fill="#fcd877" d="m665.72 578.406-20.984 26.001c-21.598 26.761-21.436 67.2-.486 94.635.495 6.52-3.363 13.824-10.095 13.577-38.409-45.594-26.488-98.978 12.51-139.614l13.79.375c1.791.051 5.034 3.934 5.256 5.026z"/><path fill="#fce188" d="m350.976 743.125 2.304 2.577 2.577-.042c6.707 10.342 8.875 4.036 26.7 18.85 2.56 2.125 6.205 5.59 8.108 8.15 2.875 3.882 6.212 7.67 10.112 10.23l.119 2.399 2.509 2.867 8.9 15.274c.998 1.707 3.43 4.736 4.378 5.795l4.761 12.91-.042 8.338-15.215-1.118c-1.297-.094-10.138-21.982-15.616-28.544-32.043-38.35-66.091-58.658-119.8-54.605-4.164 1.724-6.494 4.898-.358 4.173l25.497 3.404c42.778 5.718 83.772 35.687 100.156 75.427l-19.473.827c-16.128-41.839-69.282-63.744-112.06-60.766l-1.254-36.25c-.47-13.593-2.773-28.202-1.058-41.633l2.355-18.45 7.979 2.108c20.411 5.385 38.596 25.404 34.764 48.359-.247 1.468.922 5.896 2.313 5.504 7.825-2.185 8.474-30.823-7.987-46.456-10.675-10.137-23.501-17.194-36.984-20.24l-.11-18.202c26.12 7.031 54.544 21.103 64.136 50.978 3.055 9.506.674 28.202-.888 37.197-.247 1.425 4.958 4.642 5.803 3.532 9.796-12.791 5.854-36.036-1.374-51.515-13.653-29.21-38.203-43.99-67.456-48.512l-.025-17.57c13.875 3.763 28.783 7.278 41.967 14.626 32.955 18.363 55.893 58.095 48.196 96.085-1.536 4.983-3.294 10.752-3.934 14.31zm-64.29-15.957c11.153 1.1 5.273-30.822-21.922-37.41-.137 9.78.034 16.691 1.613 25.096l1.98 10.513 18.32 1.81z"/><path fill="#d8aa4d" d="m264.559 643.994.213-8.329c29.261 4.523 53.811 19.302 67.456 48.512 7.237 15.48 11.179 38.733 1.374 51.516-.853 1.11-6.05-2.108-5.803-3.533 1.57-8.994 3.943-27.69.888-37.197-9.592-29.875-38.016-43.946-64.137-50.978z"/><path fill="#d7a853" d="M264.576 672.922c.341-2.663.11-7.808.085-10.727 13.483 3.047 26.309 10.104 36.984 20.241 16.452 15.633 15.812 44.271 7.987 46.456-1.39.384-2.56-4.045-2.313-5.504 3.832-22.955-14.361-42.974-34.764-48.359z"/><path fill="#fcdf80" d="M495.121 829.875c2.918-22.886-16.29-57.617-39.373-64.862-1.024-.964-4.88-3.96-6.639-4.625l-13.047-4.94c-1.639-.615-1.365-5.214-1.041-6.622 24.294-7.655 51.857 11.477 64.392 32.12 9.046 14.898 12.945 28.867 14.481 47.811z"/><path fill="#f7c960" d="M435.02 748.826c-.323 1.416-.597 6.007 1.042 6.621l13.047 4.941c1.75.666 5.615 3.661 6.64 4.625-19.38-6.05-39.314 8.133-54.981 17.87-3.9-2.56-7.228-6.35-10.112-10.232l9.207-6.426c10.855-7.569 23.211-13.636 35.15-17.4zm-31.624 39.321-2.509-2.867z"/><path fill="#facc63" d="M644.634 748.305c.529-.41 3.02-1.869 4.778-2.748l8.423-4.207c-1.033 2.381-1.98 9.447-4.668 8.85z"/><path fill="#facd5e" d="m353.28 745.702-2.304-2.577z"/><path fill="#d6a554" d="m286.686 727.168-18.321-1.81-1.98-10.512c-1.587-8.405-1.75-15.309-1.613-25.097 27.196 6.588 33.075 38.511 21.922 37.41z"/></svg>