<svg xmlns="http://www.w3.org/2000/svg" viewBox="0 0 1024 1024"><path fill="#f1f3f2" d="M23.245 440.021a173 173 0 0 1-9.78 12.809l-4.616 5.495c-1.382 1.647 4.403 6.827 6.724 6.853l45.739.631 214.468-.435 84.915.307 321.263-.205 143.02-.213c4.343 0 12.594 1.203 16.468 1.553l-6.46 12.34c-3.421 61.567-12.987 119.986-34.039 177.817C752.128 791.049 636.46 886.366 495.3 907.776c-18.432 2.799-35.473.128-32.674 4.6l-162.841.597c-7.936-4.813-16.555-9.404-26.42-14.31C139.87 832.23 48.418 711.492 14.652 567.048c-7.603-32.521-10.48-62.823-14.498-96.64-1.852-15.574 14.464-29.415 23.1-30.388zm307.95 357.154-13.832-14.89-21.726-24.184c-5.615-6.255-12.458-16.358-16.554-23.705l-21.777-39.074c-3.67-6.58-7.424-16.59-10.403-24.465-17.322-45.816-27.912-91.828-33.194-140.613-1.289-11.861-8.909-21.393-19.55-25.745l-87.893.862c-10.01.094-15.932 16.87-14.627 25.702 9.558 64.914 30.106 123.375 65.52 177.784 27.426 42.146 53.46 67.755 93.175 99.499 3.925 3.14 15.684 2.517 20.24 1.382l22.034-5.478c5.769-1.434 16.828 7.961 20.898 11.665l13.116 11.93c4.898-5.42 9.13-10.488 10.163-14.559.862-3.396-2.645-12.92-5.606-16.12z"/><path fill="#c0bfd0" d="m727.671 912.99-155.178-.743-56.883.359-52.975-.248c-2.8-4.463 14.242-1.8 32.674-4.6 141.158-21.41 256.836-116.718 305.647-250.802 21.051-57.822 30.617-116.25 34.04-177.818l6.459-12.34c.904.086 2.449-.016 3.516-.016 44.936-.103 122.675 1.783 163.114-3.465 4.165-.537 10.923-4.6 14.789-7.296.546 5.189 1.51 15.394.98 22.068-11.306 142.549-72.686 272.768-182.98 363.724-26.751 22.068-54.715 42.59-86.766 55.604-11.256 4.573-19.73 7.278-26.428 15.564z"/><path fill="#fefefc" d="M319.087 402.398c-.708-2.705-25.284 22.187-22.997 23.262l-7.706 9.668 49.621-.085c9.865-.017 19.533.307 29.978 1.143l200.678.196c5.078 0 11.554-.827 15.113-1.058 3.03-.196 8.235-.12 11.358.103 3.865.264 9.489.879 15.454.879l391.859.085 16.674 11.307c0 1.442 3.063 4.155 3.55 4.087.051 1.05.102 3.055.205 4.045-3.857 2.696-10.616 6.758-14.789 7.296l-159.556-.504-3.558 3.968c-1.067 0-2.612.103-3.516.017-3.874-.35-12.126-1.561-16.47-1.553l-143.018.214-321.263.205-84.915-.308-214.468.436-45.74-.632c-2.32-.034-8.106-5.214-6.723-6.852l4.616-5.496c3.857-4.59 7.27-9.164 9.78-12.808l3.805-3.584 219.81.11c20.873.01 11.444-10.418 29.44-28.424l25.566-25.566c1.767-1.766 9.242-5.708 9.361-6.101 2.629-.12 9.814 1.963 10.786 4.386 2.057 5.146.325 17.314-2.918 21.555z"/><path fill="#a9b0c9" d="m462.635 912.358 52.975.248 56.883-.359 155.178.743 1.076 35.038c.435 14.174-10.343 33.05-27.495 33.032l-132.616-.077 7.927-6.681-140.842-27.093-124.186-23.902c-3.004-.58-9.856.222-11.563.785l-.179-11.145 162.842-.597z"/><path fill="#f3f3f4" d="m568.627 980.983-248.78.384c-25.865-28.808-19.405-28.151-19.875-57.267 1.707-.563 8.56-1.365 11.563-.785l124.186 23.902 140.842 27.093-7.927 6.682z"/><path fill="#fefefc" d="M331.196 797.175c2.97 3.2 6.468 12.724 5.606 16.12-1.032 4.07-5.265 9.13-10.163 14.558l-13.116-11.93c-4.079-3.703-15.13-13.107-20.898-11.665l-22.033 5.479c-4.557 1.134-16.316 1.757-20.241-1.383-39.723-31.752-65.75-57.36-93.176-99.499-35.413-54.408-55.953-112.861-65.518-177.783-1.298-8.832 4.616-25.609 14.626-25.702l87.893-.862c10.641 4.343 18.261 13.875 19.55 25.745 5.282 48.785 15.872 94.797 33.195 140.612 2.978 7.876 6.732 17.886 10.402 24.465l21.777 39.074c4.096 7.339 10.93 17.45 16.554 23.706l21.726 24.183 13.833 14.891z"/><path fill="#f1f3f2" d="M1008.085 463.326c-40.44 5.248-118.186 3.362-163.114 3.464l3.558-3.968z"/><path fill="#faf9f4" d="m618.308 77.926 3.857 12.817c-36.915 11.12-40.072-20.488-64.896-13.218l10.001 26.94 7.1 1.391c7.313-2.372 17.707-5.282 23.876-6.374 2.893-.512 9.609 7.74 8.397 10.461l-5.734 12.894c0 .82.068 7.22.06 6.46l28.876 4.429c1.52-1.024 6.426-4.31 5.777-3.874-.452-9.148-.896-13.628 1.246-16.256 10.718-13.167 61.15 9.25 68.182 26.095 1.092 2.62-5.59 9.822-8.585 9.984-26.607 1.425-30.387-17.204-51.294-10.59 3.345 9.805 2.987 23.731-3.345 24.03-13.61.648-22.895.102-34.022-1.16l-19.345-2.185c-1.434-.163-5.573 6.127-4.216 6.442l6.622 1.528c15.932 3.67 27.196 13.636 26.206 30.395l-1.835 31.19c8.167-4.531 19.738-11.844 22.52-17.946l11.187-24.482c1.963-4.292 14.157-5.811 19.797-4.907-1.45-1.877-5.81-15.232-2.312-18.62 4.087-3.95 18.509-2.244 23.73.308 15.515 7.586 50.783 21.197 43.111 38.767-8.951 20.497-50.67-11.529-61.55-16.342-6.512 47.19-19.824 35.619-34.808 76.971l31.616-10.65c3.439-14.276 12.399-32.674 20.668-41.105 2.602-2.653 16.35-2.414 17.553.76 2.594 6.878 1.561 18.159-.88 31.386-2.218-.709 2.689.887 7.1 2.32l14.738 6.597c3.293 1.476 2.799 12.604.367 15.3-4.515 5.018-15.215 8.704-22.52 10.727l-18.568 5.145 14.566 12.97 5.649 18.117 16.41 53.453c1.595 5.197-10.556 18.611-14.396 15.727-4.565-3.43-10.599-10.308-12.817-13.705l-5-7.654c-2.023-3.098-10.906 27.563-23.109 45.158-2.944 4.25-10.368 9.942-13.133 13.287l-10.36-3.482-4.522-3.72c-.879-4.805-.99-14.354-.418-19.32.085-.76.375-2.236.529-3.089.495.009 3.37-2.569 3.925-4.053 7.074-18.91 18.876-41.353 40.798-44.16l-3.26-20.395c-.443-2.765-4.846-8.661-8.285-9.822l-58.505-19.772-12.348 12.988c10.19 10.624 16.23.964 41.626 16.128 3.089 1.843 3.575 12.63 1.724 15.727s-9.233 8.277-12.92 8.021l-30.55-2.107-32.588 19.362c-2.577 1.536-6.989 6.272-8.192 8.209l-.802 12.655-7.646 11.409c-4.062-.913-10.504-2.68-15.19-4.77l-21.828-9.728c-1.51-.674-7.552 2.253-8.277.682-.486-1.05-2.398-5.802-3.234-6.63l-18.637-18.56c-2.125-2.116-6.297-9.813-4.65-12.16 10.368-14.711 18.227-6.093 18.73-15.104.367-6.528-11.836-20.915-18.253-19.516l-29.004 6.323c7.074 14.925 9.95 28.562 7.543 45.005l-5.999 40.96c-.597 4.096-8.815 10.667-12.638 10.496-3.183-.145-10.581-4.027-11.656-6.835l-7.697-20.224c-14.251 12.245-42.488 31.659-58.018 39.782l-9.455 4.941c-4.216 2.202-13.449-6.212-13.645-11.161l-2.006-50.031-.622-15.65-25.157 6.843c-8.806 2.398-20.94 9.626-27.059 13.713-5.282-1.996-12.407-4.428-17.084-5.53l-11.998-2.815c-3.703-.87-8.942-13.841-5.785-15.795 8.72-5.376 22.733-11.964 36.565-18.398.87-.572-6.605-6.375-10.462-8.167l-21.333-9.898c-2.91-1.349-12.595-3.627-13.628-.623-.768 2.253-1.519 5.649-2.756 10.786l-12.322 51.217c-.862 3.567-10.027 10.334-13.218 8.994-2.56-1.075-6.92-4.65-8.892-7.637-20.975-31.89-43.247-30.447-42.573-27.938 6.451 24.004 14.626 24.251 22.545 61.977 1.579 7.544-16.315 14.976-21.666 11.657l-40.764-25.276c-13.38 9.873-80.674 35.14-78.498 12.194.768-8.124.103-13.721-2.491-17.707-5.607-8.593-11.691-25.258 3.507-31.581 9.113-3.79 17.732-13.688 19.405-25.02 1.501-10.189 8.413-15.377 15.325-22.58 41.575-43.34 33.86-65.57 56.474-79.325 30.618-18.62 10.65-30.686 43.836-39.894l16.682-12.919c4.796.043 16.23-2.901 18.629-7.262l8.507-15.454 32.803-.64 12.936-14.327c3.388-3.755 5.811-15.07 6.758-19.712 11.623-35.533 35.943 3.464 63.6-31.062l33.757-8.285c6.085-1.494 15.497-11.008 21.171-16.23 19.5-17.955 15.053.887 52.267-7.442l22.716-5.086c28.006-6.272 21.751-18.96 47.104-5.538 8.772 4.642 20.642 3.627 32.734 3.149 6.8-.273 18.295 3.49 26.026 5.222 17.178 3.857 32 8.542 41.78 20.992z"/><path fill="#dfd2c8" d="m993.621 431.89-343.031-.291c.657-2.671 2.705-8.405 4.59-10.692 2.757-3.345 10.181-9.037 13.134-13.287 12.194-17.595 21.077-48.256 23.108-45.158l5 7.654c2.22 3.397 8.252 10.274 12.817 13.705 3.832 2.884 15.992-10.53 14.396-15.727l-16.41-53.453-5.648-18.116-14.567-12.97 18.569-5.146c7.304-2.023 18.005-5.71 22.52-10.727 2.431-2.705 2.926-13.832-.368-15.3l-14.737-6.596c-4.412-1.434-9.31-3.03-7.1-2.321 2.44-13.227 3.473-24.508.88-31.386-1.204-3.183-14.951-3.413-17.554-.76-8.269 8.44-17.22 26.83-20.667 41.106l-31.616 10.65c14.984-41.362 28.296-29.782 34.807-76.972 10.88 4.813 52.59 36.847 61.55 16.342 7.672-17.57-27.596-31.181-43.11-38.767-5.222-2.552-19.643-4.258-23.73-.307-3.508 3.387.861 16.734 2.312 18.62-5.632-.905-17.835.614-19.797 4.906L637.78 211.38c-2.782 6.093-14.353 13.406-22.52 17.946l1.836-31.19c.99-16.768-10.275-26.726-26.206-30.395l-6.622-1.528c-1.366-.315 2.773-6.605 4.215-6.442l19.345 2.184c11.128 1.255 20.412 1.81 34.023 1.16 6.34-.298 6.69-14.224 3.345-24.03 20.906-6.604 24.678 12.016 51.294 10.59 2.995-.161 9.676-7.364 8.584-9.983-7.031-16.837-57.455-39.254-68.181-26.095-2.142 2.628-1.69 7.108-1.246 16.256.657-.435-4.258 2.85-5.777 3.874l-28.877-4.429c0 .76-.051-5.64-.06-6.46l5.735-12.894c1.212-2.713-5.504-10.973-8.397-10.461-6.161 1.092-16.563 4.01-23.876 6.374l-7.1-1.39-10.001-26.94c24.823-7.271 27.972 24.336 64.896 13.217l-3.857-12.817c9.395 11.964 29.918-8.797 43.221-1.28 16.06 9.08 9.848 28.143 19.303 29.713 19.396 3.226 7.953-5.06 39.654-6.357 20.412-.828 9.318 23.45 20.6 38.298l12.757 16.785 22.997-14.507c4.088-2.577 14.26-1.826 17.639.947 3.404 2.8 5.145 13.611 3.123 18.04l-9.285 20.403c19.994 1.075 26.83-15.565 40.064-8.986 3.619 1.792 8.935 11.392 8.687 15.804l-1.62 29.048c6.723-.035 27.425-19.755 36.803-5.189 1.664 2.586 3.021 10.488 2.048 14.012l-6.033 22.025c11.29-1.929 23.51-4.916 32.103-1.374 10.334 4.258 7.8 19.14 3.2 25.36l-8.977 12.16 13.2 14.2 16.453-8.84c3.012-1.622 11.733-1.929 13.824.785 1.672 2.167 3.994 7.808 5.35 11.434l6.588 17.545c7.765 20.693-9.515 40.977 4.045 40.252l20.693-1.11c4.566-.247 13.099 6.307 14.712 10.65 1.621 4.343-1.408 15.172-4.685 18.509L974.6 396.646l13.107 11.913c4.514 4.096 6.05 17.143 5.939 23.339zM757.88 331.707l22.255-17.605c7.057-5.58 11.964-14.387 16.956-25.693-13.2-20.489-39.74 4.676-57.14 17.28-7.065 5.111-9.044 14.754-8.123 25.241 10.206 1.792 17.374 1.903 26.052.777"/><path fill="#f2eadc" d="M269.568 368.324c-.18.418-4.335 4.839-5.999 5.82l-26.018 15.3c-7.057 4.156-11.546 11.665-14.916 23.074 7.628.666 14.899.82 21.145.154l10.343-1.1c1.988-.214 3.072 3.788 3.823 5.648l-3.695 11.623c-.598 1.877-5.974 3.464-7.39 3.771l-204.544.145c-3.601 0-9.353-.69-11.657-.938l9.54-26.522c1.263-3.516 1.92-11.887 2.091-14.387 2.594 3.985 3.26 9.574 2.492 17.707-2.176 22.946 65.118-2.321 78.498-12.194l40.764 25.275c5.359 3.32 23.253-4.113 21.666-11.656-7.919-37.726-16.085-37.974-22.545-61.978-.674-2.509 21.598-3.95 42.573 27.938 1.962 2.987 6.323 6.562 8.891 7.638 3.192 1.34 12.357-5.428 13.219-8.995l12.322-51.217c1.237-5.137 1.98-8.541 2.756-10.786 1.032-3.003 10.718-.725 13.628.623l21.333 9.899c3.857 1.792 11.332 7.595 10.462 8.166-13.833 6.434-27.844 13.014-36.565 18.398-3.158 1.946 2.082 14.925 5.785 15.795l11.998 2.816z"/><path fill="#f1f3f2" d="m650.59 431.599 343.031.29c6.477 0 25.276 8.457 25.49 12.22v3.78l-16.675-11.307-391.859-.085c-5.965 0-11.58-.614-15.454-.879-.887-.136 5.88-2.611 7.74-2.662l47.718-1.357zm-403.72 1.024v3.925l-219.82-.11 3.619-4.609c2.312.248 8.055.939 11.656.939z"/><path fill="#faf9f4" d="M197.538 179.61c22.554-17.46 12.263-2.091 19.652-18.782 1.588-3.593 7.168-11.29 10.573-11.418l26.931-1.007c5.368-.205 13.253-12.1 16.316-16.776l6.161-9.413c-.947 4.643-3.362 15.958-6.758 19.712l-12.937 14.328-32.802.64-8.508 15.454c-2.397 4.36-13.832 7.304-18.628 7.262"/><path fill="#efe6db" d="M553.378 395.477c1.033 1.784 1.203 2.97 2.364 2.842l7.74-.836 4.3-7.86-2.884-18.193c3.704 2.876 11.469 5.01 15.71 3.849l17.135-4.685c1.254-4.668 8.132-16.674 12.467-15.59 27.179 7.944 17.792 43.588 29.67 39.381-.571 4.966-.46 14.515.419 19.32.29 1.587 2.995 3.208 4.522 3.72l10.36 3.482c-1.886 2.287-3.934 8.021-4.591 10.692l-47.719 1.357c-1.868.05-8.627 2.526-7.74 2.662-3.122-.213-8.328-.299-11.357-.102l-3.823-2.8-219.426.026 4.062-7.543c15.53-8.124 43.759-27.537 58.018-39.782l7.697 20.224c1.067 2.807 8.473 6.698 11.656 6.835 3.823.17 12.032-6.4 12.638-10.496l6-40.96c2.406-16.444-.47-30.08-7.544-45.005l29.005-6.323c6.417-1.4 18.61 12.987 18.252 19.515-.503 9.012-8.362.393-18.73 15.104-1.647 2.339 2.517 10.044 4.65 12.16l18.637 18.56c.836.828 2.748 5.581 3.234 6.63.726 1.571 6.767-1.356 8.278-.682l21.828 9.728c4.685 2.09 11.127 3.857 15.19 4.77zm38.434 13.38c4.557-.912 10.19-11.75 9.532-16.324-.666-4.684-5.53-10.846-11.281-16.034l-14.592 14.285c-4.25 4.164 3.439 20.668 16.341 18.065z"/><path fill="#f1f3f2" d="m364.587 425.207-4.062 7.544 219.426-.026 3.823 2.8c-3.55.23-10.035 1.066-15.113 1.057l-200.678-.196c-10.445-.836-20.113-1.16-29.978-1.143l-49.621.085 7.706-9.668c7.458-6.187 17.34-15.855 22.997-23.262 3.243-4.241 4.975-16.41 2.918-21.555-.964-2.415-8.158-4.497-10.786-4.386-2.833.128-8.038.81-12.04 1.62l-16.077 3.244c-3.738 13.806-14.481 32.512-25.148 35.9-.75-1.87-1.843-5.863-3.823-5.65l-10.342 1.101c-6.255.666-13.517.512-21.146-.154 3.37-11.409 7.85-18.918 14.916-23.074l26.019-15.3c1.672-.981 5.82-5.393 5.999-5.82 4.676 1.101 11.801 3.533 17.083 5.53 6.11-4.096 18.253-11.324 27.06-13.713l25.156-6.844.623 15.65 2.005 50.031c.196 4.95 9.438 13.372 13.645 11.162l9.455-4.941z"/><path fill="#e6dbcf" d="m644.326 387.234-3.925 4.053c-.154.854-.435 2.33-.529 3.09-11.878 4.206-2.492-31.429-29.67-39.382-4.335-1.084-11.213 10.923-12.468 15.59L580.6 375.27c-4.24 1.16-12.006-.972-15.71-3.848h-3.071c1.211-1.946 5.615-6.69 8.192-8.218l32.588-19.362 30.55 2.108c3.686.256 11.067-4.924 12.92-8.021s1.365-13.884-1.725-15.727c-25.395-15.164-31.428-5.504-41.625-16.128l12.348-12.988 58.504 19.772c3.44 1.16 7.842 7.057 8.286 9.821l3.26 20.395c-21.922 2.808-33.724 25.25-40.798 44.16z"/><path fill="#f1f3f2" d="m553.378 395.477 7.646-11.409.802-12.655h3.072l2.884 18.21-4.3 7.86-7.74.836c-1.16.128-1.331-1.058-2.364-2.842m87.032-4.19 3.925-4.053c-.555 1.485-3.43 4.062-3.925 4.053m4.411 26.13c-1.527-.512-4.232-2.142-4.522-3.721z"/><path fill="#fafaf7" d="M757.88 331.708c-8.679 1.118-15.847 1.007-26.053-.777-.921-10.487 1.058-20.13 8.124-25.241 17.4-12.604 43.938-37.769 57.14-17.28-4.993 11.315-9.891 20.113-16.957 25.693z"/><path fill="#faf9f4" d="M311.22 376.457c-.12.392-7.604 4.334-9.362 6.1l-25.566 25.567c-17.997 18.005-8.567 28.433-29.44 28.424v-3.925c1.425-.316 6.801-1.894 7.399-3.772l3.695-11.622c10.658-3.388 21.41-22.093 25.147-35.9l16.077-3.243c3.994-.802 9.208-1.493 12.04-1.62zm-15.13 49.203c-2.279-1.084 22.297-25.967 22.997-23.262-5.666 7.407-15.548 17.084-22.997 23.262"/><path fill="#f1f3f2" d="M591.812 408.858c-12.902 2.594-20.59-13.91-16.341-18.065l14.592-14.285c5.751 5.188 10.615 11.35 11.281 16.034.657 4.574-4.983 15.411-9.532 16.324z"/></svg>