<svg xmlns="http://www.w3.org/2000/svg" viewBox="0 0 1027 1024"><path fill="#aa8b5e" d="M907.594 845.935c-47.19 56.115-113.212 94.336-180.719 122.445-160.802 66.96-350.566 82.662-502.673-14.37-103.765-66.193-184.815-190.644-211.66-310.614-38.913-173.943 16.383-346.078 115.344-488.943-.068 7.373-5.427 13.398-8.192 19.661-13.303 30.191-20.65 61.61-24.405 94.345-8.568 74.718 6.144 151.338 34.159 221.243 80.418 200.645 289.485 377.302 505.42 408.815 84.071 12.271 181.334 2.45 255.224-42.231 4.3-2.603 8.26-5.837 12.587-8.431 1.63-.981 2.56-2.475 4.915-1.92"/><path fill="#8fb237" d="M907.594 845.935c-2.355-.555-3.285.939-4.915 1.92-4.318 2.594-8.286 5.837-12.587 8.43-73.89 44.681-171.153 54.503-255.223 42.232-215.936-31.522-425.003-208.17-505.421-408.815-28.015-69.905-42.727-146.525-34.16-221.243 3.756-32.734 11.103-64.154 24.406-94.345 2.757-6.255 8.124-12.28 8.192-19.66 41.148-59.401 74.547-98.987 143.949-126.652 214.22-85.376 471.714 48.964 610.526 212.317 126.797 149.223 217.557 400.393 67.294 565.376-12.809 14.063-30.49 26.693-42.052 40.44zM388.187 25.412C272.509 31.13 174.273 89.148 134.414 201.438c-28.936 81.527-16.187 181.248 13.952 260.932 76.246 201.609 280.56 365.397 493.875 397.244 136.918 20.437 284.425-19.849 341.556-157.636 55.364-133.539 1.988-290.287-77.824-402.458C793.256 141.099 587.338 15.573 388.187 25.412"/><path fill="#a9d248" d="M388.187 25.412C587.338 15.573 793.256 141.09 905.973 299.52c79.812 112.17 133.196 268.92 77.824 402.458C926.666 839.765 779.159 880.05 642.24 859.614 428.925 827.767 224.603 663.979 148.366 462.37c-30.131-79.684-42.888-179.405-13.952-260.932C174.274 89.148 272.51 31.13 388.187 25.412m153.72 292.975c-2.86 5.188-5.539 10.582-8.406 15.761l-2.065-.025c-.7-3.755-1.638-8.764-4.241-11.537.58-1.707 1.877-7.211 2.074-8.96.938-8.116.571-16.88-8.38-19.414-9.685-28.544-17.587-58.24-28.885-86.186-2.339-5.786-4.856-12.792-8.44-17.827-1.28-1.792-2.423-2.483-4.702-2.124-2.244 1.647-.281 4.915-1.553 7.381-.188.358-4.352 4.523-4.736 4.719-2.116 1.1-5.743.427-7.356 3.191-.332 1.272 2.048 3.328 2.142 5.223.077 1.561-1.007 2.748-.904 3.985.597 7.56 2.893 11.759.29 19.61-.18.554-1.186 1.04-1.553 2.687-.597 2.629 1.212 2.953-3.149 2.595-4.395-9.558-10.3-23.322-15.923-31.89-2.09-3.19-4.967-8.439-9.293-8.038-.606 6.23.973 11.955 2.594 17.895 4.122 15.044 12.126 33.826 18.415 48.315l-6.827 11.563c-1.126 1.058-2.645 1.425-3.729 2.577-2.44 2.611-1.169 7.74-6.263 6.878-15.932-22.485-32.52-46.737-50.458-67.763-3.464-4.062-6.724-10.112-12.586-11.051-.222 9.242 6.075 18.67 10.666 26.633 4.463 7.73 9.686 16.554 14.55 23.808 1.015 3.157 1.382 3.635-.18 6.656-1.416 2.739-7.372 11.477-9.429 13.678-1.305 1.4-2.176 2.194-4.053 2.774-4.164-4.045-8.994-7.646-13.159-11.537-7.517-7.032-22.818-23.8-31.983-26.872-6.75-2.261-3.857 2.296-1.595 5.803 3.02 4.693 7.629 10.71 11.008 14.737l-2.023 5.64c.384 1.605 2.569 3.294 2.919 4.506.418 1.468-.137 2.97.657 4.6 1.186 2.432 4.002 2.628 5.794 3.66 2.551 1.46 2.415 2.833 6.844 3.243 2.048.188 3.532-1.664 5.777 2.005l-5.248-1.578 2.09 3.678-3.148 2.107 6.306 6.306c-2.867 5.035-6.315 2.748-9.848 3.806-1.374.41-2.184 2.663-3.806 3.021-.418-.247-1.8-.222-2.833-.81-3.055-1.75-20.07-12.033-22.383-9.694-.042 1.51-.221 2.799.495 4.224.52 1.04 8.926 9.139 10.513 10.504 2.808 2.424 6.887 5.086 10.001 7.339l2.304 7.68c2.347 3.379 4.83 6.81 3.909 11.136l-3.055 1.672v2.62c2.244-.247 4.522.41 4.198 3.157-3.857-.443-7.398 1.23-11.068 2.065-1.16.265-2.585-.11-3.968.24-2.491.622-5.555 2.739-7.569 2.969-3.729.435-6.673-2.372-9.932-3.738-1.929-.81-4.515-.469-6.35-2.056-1.894-1.63-1.57-4.37-2.585-5.82-.29-.418-5.743-4.232-6.323-4.232-3.072.571-6.58 3.96-9.48 4.283-2.381.273-4.028-.955-6.247-1.126-4.625-.358-8.951 1.05-7.927 6.349.648.153 1.62-.18 2.099 0 1.954.742 10.598 8.217 14.344 10.35 37.24 21.155 89.114 35.9 129.912 50.825 3.797 1.391 7.833 2.816 11.255 5.026 4.19 6.324 8.542 12.485 12.613 18.919.418 3.737-1.204 1.51-2.842 1.271-17.707-2.602-36.3-6.46-53.897-8.627 4.207-1.775.956-5.555-1.032-7.902-4.062-4.796-14.046-10.624-20.352-8.764-5.026 1.485-7.51 9.361-3.832 13.509-1.655-.325-3.882.23-5.76-.017-20.019-2.714-39.944-5.837-59.938-7.313-5.555-.41-10.811.853-16.29 1.527l-2.048 3.115c1.11 3.626 11.81 6.656 15.463 7.697 14.702 4.173 30.14 5.777 44.945 8.644l53.051 6.323c-.563.854-1.211 4.54-1.075 5.769.768 6.75 10.786 8.499 16.29 7.867 2.108-.238 12.758-3.302 13.15-4.718.46-1.673-2.867-5.803-4.19-6.819l20.446 3.2c2.825-.452 6.801.572 9.37-.179 2.073-.606 3.166-5.29 5.913-3.02 1.835 3.234 5.905 8.422 5.112 11.92-.307 1.357-2.338 4.78-3.175 6.315-5.256 9.694-12.006 19.499-17.698 29.065l-18.116 4.471-5 2.884c-8.201-.546-10.351 2.014-16.811 4.207-24.2 8.192-48.81 15.019-72.525 24.679-7.706 3.14-19.994 7.816-26.633 12.245-9.395 6.264-3.447 8.073 5.086 7.185 20.139-2.09 50.458-13.38 70.204-20.164 8.815-3.03 18.031-6.366 25.967-10.283.768-.384 2.56 1.016 3.712 1.101 3.883.282 11.264-4.702 14.148-7.407l1.442.947c2.057-1.194 3.875-2.551 6.375-1.928l.597.981c-7.603 12.646-14.421 25.882-23.117 37.828a210 210 0 0 0-20.966 13.184c-4.318 3.08-19.004 13.474-19.883 17.963-.862 4.403 4.31 3.891 7.544 3.328 5.777-1.007 19.712-9.19 25.258-12.57 5.94-3.618 14.149-8.823 19.55-13.021 1.238-.965 2.577-2.168 3.2-3.636 26.402-1.8 52.89-5.043 79.292-6.348 2.91-.146 12.382-.427 14.26.537 2.918 2.748 4.274 6.682 6.271 10.01-.7 2.227-3.575 2.287-4.727 4.207-3.345 5.58-6.102 20.3-8.38 27.349-7.458 23.125-15.991 46.677-22.366 70.11-2.423 8.909-6.255 22.349-5.538 31.3.785 9.796 9.054-4.028 10.743-7.176 7.109-13.253 13.108-33.118 17.408-47.744 1.656-5.64 3.013-11.4 4.455-17.084 3.703-.222 6.434-3.567 7.185-7.006.58-2.62.623-13.389.17-16.12l3.96-14.43c.555-2.943.87-6.092 1.51-9.002.487-2.253.615-3.686 2.936-1.792 4.045 7.22 7.654 14.925 11.563 22.067-.76 1.468-2.919 1.673-3.704 3.132-2.398 4.488-1.963 16.947-2.628 22.596-2.279 19.268-5.615 38.665-7.313 57.84-.487 5.529-1.622 14.822-1.05 19.916.324 2.901 1.51 8.107 5.223 7.91.93-3.148 2.96-6.024 3.993-9.156 7.066-21.384 10.027-56.081 11.76-78.618.238-3.106-.99-7.509 1.074-9.958 5.521 10.146 11.102 20.437 16.811 30.473.12 2.244-.213 4.565.026 6.81 2.201 20.71.648 42.657 4.198 63.052.666 3.831 1.835 7.407 3.183 11.017 7.731 1.365 6.733-8.91 7.33-14.132 1.852-16.298.708-32.042-.068-48.315-.256-5.41.281-10.923.042-16.333 4.148-9.814 8.508-19.61 12.613-29.423 3.464 5.828 4.522 12.851 6.383 19.362.435 1.51.597 3.994 2.03 4.804-.605 6.23-.503 13.91 3.687 18.902.768.913 2.517 1.066 2.62 2.116.819 8.985 4.855 21.461 7.611 30.745 2.697 9.088 7.817 28.288 12.911 35.43.845 1.187 2.569 3.133 4.173 3.175 1.144-.333 2.577-5.683 2.671-6.878.128-1.723-.981-2.858-1.067-4.172-1.604-23.433-8.448-41.865-14.728-63.557-.367-1.263.17-3.652-.205-5.58-.717-3.653-3.797-6.7-5.052-10.19 2.253-.767.419-3.336-.017-4.718-4.096-13.167-7.774-26.496-12.595-39.424 1.4-3.303 2.73-7.04 4.207-10.513 3.61 2.38 4.378 7.705 6.093 11.247 5.564 11.486 11.69 22.75 17.237 34.261 10.283 21.35 20.608 48.828 33.988 67.942 2.27 3.243 4.515 7.356 8.884 6.358.452-6.81-1.605-13.551-3.636-20.01-2.764-8.773-6.826-17.819-10.53-26.25-6.28-14.301-17.45-40.285-25.762-52.522 2.338.384 3.866-.17 5.99-.845 3.917-1.254 4.651-3.592 5.573-7.56 10.146 16.264 20.352 33.28 30.635 49.757 7.936 12.732 18.449 31.463 28.194 42.215 2.398 2.645 4.565 5.52 8.422 4.71 1.536-1.536-3.891-14.882-5.043-17.553-13.636-31.565-40.073-70.144-59.221-99.464-4.284-6.563-8.687-12.971-13.526-19.047-.435-.546-2.884-3.413-1.024-3.712 6.247.512 12.664.76 18.919 1.05.29 2.662 2.21 5.18 3.72 7.313 2.526 3.567 20.463 25.83 22.528 26.863 1.17.58 2.773.938 4.224 1.561-5.401-.708-2.568 2.014-2.125 4.753.162 1.016-.153 2.168.052 3.098 1.356 6.008 6.758 16.06 13.294 17.254.547.103 5.129-.742 5.59-.938 3.763 3.78 8.098 8.072 11.58 12.066 8.977 10.308 19.31 23.518 29.909 32.094 1.672 1.348 6.417 4.719 8.397 4.164l1.647-2.611c-.026-2.253-9.097-15.582-11.12-18.338-21.913-29.824-50.295-57.13-74.564-85.163l3.678-1.05c7.706.504 15.42.59 23.117 1.05 9.677 10.385 21.222 19.055 32.051 28.373l.546-3.14 6.29 1.041c-1.724-.145-3.525.094-5.257 0-1.118 9.762 9.165 25.412 19.968 19.968-.102 2.509 2.927 3.866 4.719 5.265 5.24 4.07 11.614 10.053 18.398 9.447-.299-4.591-3.883-6.955-6.323-9.959-3.755-4.625-7.535-9.139-12.067-13.158-1.066.358-.332 2.261-.69 3.499-.171.58-.863.648-.88.708-.136-2.082.487-4.378-.495-6.332-.827-1.647-7.125-6.485-8.96-7.33 3.44.23 2.245-.563.359-1.937-6.963-5.077-15.48-11.375-21.922-16.956-2.39-2.065-4.43-4.744-6.81-6.852l6.306-.52h6.306c17.639 10.811 35.038 22.502 53.231 32.417 4.113 2.245 27.076 14.422 29.79 11.717-.068-1.152.213-2.424-.12-3.55-.298-.981-7.918-8.337-9.378-9.532-19.968-16.392-50.38-32.41-73.147-45.602-2.304-1.34-5.018-3.422-7.723-3.31-3.866-5.923-7.68-11.973-11.563-17.87l5.547 1.28c28.945 9.48 58.291 23.373 87.706 31.045 6.895 1.8 12.979 3.037 20.232 2.355.273-1.767 0-2.355-1.024-3.704-5.359-7.014-30.771-16.46-39.944-19.95-10.693-4.071-21.684-7.587-32.59-11.026.675-2.32-.119-6.357-1.57-8.414-.699-.802-6.39-3.763-7.534-4.027-6.212-1.46-10.462-1.212-16.606-.12-1.937.342-4.3-1.408-3.712 2.057l-22.067-6.306c-3.874-5.897-7.68-11.93-11.563-17.87.947-2.38 3.541-.52 4.975-.238 35.533 6.903 71.04 13.542 106.923 18.125 11.972 1.527 21.427 3.336 33.672 2.107 3.951-.392 5.171-2.38 2.1-5.299-3.465-3.294-16.205-6.852-21.257-8.166-19.328-5.026-39.492-7.313-59.153-10.727 5.47-17.826-18.782-14.003-28.05-7.526l-.324 3.328c-4.915-1.263-11.29-1.297-16.273-2.116-7.68-1.272-15.556-3.328-23.16-4.182-3.865-.435-4.3 2.381-7.858 2.1-3.209-5-6.887-9.711-9.225-15.24 6.443-10.053 12.954-20.131 19.73-29.953l6.792 3.183c22.246-6.28 44.92-11.435 67.038-18.15 8.132-2.467 18.295-5.453 26.018-8.662 2.526-1.05 10.837-5.103 11.537-7.39 1.39-4.582-13.688-3.814-16.256-3.635l-41.532 10.488c-.205-3.584-3.31-6.853-6.827-7.356-8.174-1.152-17.894 7.253-21.7 14.029-1.596 2.85-.247.802 1.203 2.773-4.778-.299-8.678 1.74-13.15 3.14-1.382.436-3.942 2.262-4.718.017 10.385-15.01 21.17-29.764 31.044-45.14l2.585-2.143c3.098-1.212 6.87-3.498 9.822-5.418 4.941-3.218 23.945-15.582 24.773-20.472-.88-4.207-5.12-3.95-8.653-3.336-13.372 2.33-37.3 19.25-50.466 26.248-1.46.777-3.38 1.11-3.857 2.978-1.17.094-2.39-.068-3.627.026-13.773 1.024-27.725 2.287-41.566 3.132 1.826-3.32 5.248-4.557 7.876-7.356 1.451-1.545 2.944-2.33-.52-2.1.06-.008.222-.69.785-.827 8.03-1.988 19.089-6.264 19.183-15.992l8.951-6.289c5.948-5.342 11.017-11.494 16.248-17.382 6.255-7.049 13.576-13.193 15.778-23.057-.751-1.05-1.272-1.485-2.603-1.664-5.273-.691-12.262 7.006-16.853 9.48l-30.976 29.97 3.149 1.578c-6.426-.725-9.942 5.47-13.662 9.455l-7.902 5.231-19.422 19.985c-4.164.205-8.013.794-12.04 1.1-2.048.154-5.513.231-7.467-.016-1.536-.196-1.383-.999-1.51-1.075-.564-2.586.802-3.166 2.099-4.728 16.4-19.627 31.488-41.13 45.662-62.575 7.645-11.571 23.09-34.005 25.6-46.908 1.51-7.773-3.397-5.947-7.706-2.457-11.494 9.318-29.252 37.393-38.332 50.466-1.92-11.674-13.116-12.177-18.09-1.8-2.748 5.734-3.09 13.388-2.927 19.669 1.314 1.331 9.583-3.934 11.204-5.052.47-.324 1.186-.034 1.408-.205-2.765 5.018-5.487 10.249-8.55 15.096-4.404 6.989-9.217 13.935-13.68 20.992-.964 1.527-1.851 4.394-4.044 3.84-3.209-6.963-6.29-14.038-9.455-21.018-.418-2.184.47-3.831 1.058-5.777 7.543-25.156 16.964-51.524 22.87-76.962 1.441-6.22 3.873-15.804 4.42-21.845.384-4.259 1.024-16.64-5.803-11.051-1.63 1.331-6.221 11.085-7.33 13.687-9.285 21.743-17.041 52.881-22.58 76.203-.383 1.621-.127 3.849-2.099 4.728-4.915-10.82-9.557-21.871-14.711-32.58.512-12.656-.666-25.797-.043-38.4.418-8.363.88-17.605.026-26.207-.196-1.988-1.664-8.44-2.611-10-3.175-5.266-5.487.545-6.563 3.933-4.556 14.32-4.872 38.784-5.563 54.34-.256 5.76.281 11.623.042 17.383-4.608 8.192-9.088 16.913-13.661 25.224l-9.421-55.202c-2.663-15.624-4.915-37.956-10.77-52.283-3.029-7.424-6.997-10.838-8.157-.205-1.28 11.776 1.69 24.08 2.099 35.686l16.794 89.873zm164.983 117.7-.53-1.05c-1.535-.392-2.85.897-4.223 1.033-4.514.444-10.095.308-14.524 1.238-6.818 1.433-8.217 11.247-.17 12.433 3.882.572 6.314-.947 9.412-1.092 34.218-1.562 68.207-2.023 101.99-6.238 6.827-.854 18.953-1.425 25.003-4.42 1.57-.777 2.68-2.279 3.84-3.55.367-1.23-1.715-2.996-2.782-3.43-8.346-3.363-30.148-2.783-39.791-2.33-10.394.494-21.154 2.27-31.496 3.174-5.317.47-10.923.375-16.265 1.067-.12 1.57.222 3.25.034 4.804s-1.015 1.4-1.075 1.502l-.128-7.749c-7.646-8.635-22.016-1.97-29.295 4.6zM454.389 452.08c-30.712 3.447-61.96 3.9-92.672 7.15-12.015 1.272-35.226 3.073-45.748 7.843-9.198 4.164-1.69 8.2 4.77 8.926 30.635 3.447 72.15-4.088 102.98-7.313 11.308-1.178 23.561-1.357 34.655-3.175 9.685-1.578 8.874-14.882-3.985-13.44zm31.829 146.893c4.676 3.729 10.871-.691 13.09-5.3 2.142-4.445 2.1-8.507 2.688-13.073.435-3.379 2.347-6.638-1.067-10 1.255-1.434 6.819-14.985 7.894-17.852.776-2.057 1.886-4.668 1.604-6.861l-2.807-3.533c-1.86-.11-4.301-.503-6.042 0-3.38.973-12.075 21.069-14.481 25.455-11.486 20.983-23.731 41.71-34.722 63.01-3.687 7.151-10.513 19.84-11.341 27.546-.213 2.014-.265 3.524 1.604 4.693 4.07 1.118 11.392-8.576 13.577-11.588 3.345-4.6 6.886-10.436 9.864-15.352 7.322-12.066 13.133-24.908 20.13-37.145zm-23.117-40.986 1.579 5.257c2.568-3.473 8.508-8.824 7.919-13.159-.435-3.191-3.857-4.36-6.724-3.515-3.03.896-13.1 11.562-15.907 14.566-1.45 1.553-2.944 2.33.53 2.1-4.378 3.063-9.473 7.636-8.406 13.661-.025-.06-.717-.12-.879-.708-.358-1.23.367-3.14-.691-3.499-5.59 5.666-10.982 11.426-16.307 17.314-13.073 14.456-32.324 33.946-42.513 49.963-1.878 2.952-4.028 6.963-3.704 10.479 1.613 1.621 8.687-3.499 10.462-4.77 13.073-9.37 22.955-22.776 34.74-33.562l24.149-28.92c5.324 1.042 8.567-1.689 11.417-5.922 3.883-5.785 4.95-12.441 4.352-19.293z"/><path fill="#f3f2ae" d="M565.032 275.302c.06-.11 1.28-.503 1.954-1.69 1.954-3.455 3.72-7.32 5.41-10.922 2.39-.341 1.664-.025 2.279 1.365 1.518 3.456 3.438 6.802 5.068 10.198 5.154 10.71 9.797 21.76 14.712 32.58 3.03 6.673 5.615 13.662 8.61 20.267.239.537.802.64.853.75 3.166 6.98 6.247 14.055 9.455 21.018 1.826 3.968 3.627 7.962 5.402 11.955.333 1.118 1.22 1.246 1.954 1.707.128.077-.026.88 1.51 1.075 1.954.256 5.419.171 7.467.017 4.028-.298 7.876-.896 12.04-1.1 6.742-.333 13.313-.649 19.969-1.05 13.84-.845 27.793-2.108 41.565-3.132 1.23-.094 2.458.069 3.627-.025 7.791-.606 17.314-2.304 24.704-2.1 2.057.06 4.241-1.083 3.67 2.1l-2.586 2.142c-9.865 15.377-20.66 30.13-31.044 45.14-2.706 3.91-5.726 7.68-8.406 11.564-6.775 9.821-13.286 19.9-19.729 29.952 2.33 5.52 6.008 10.231 9.225 15.24 2.602 4.045 5.623 8.346 8.405 12.612 3.883 5.94 7.689 11.964 11.563 17.87 3.712 5.657 7.987 11.383 11.562 16.81 3.883 5.896 7.689 11.946 11.563 17.869 3.072 4.701 7.748 10.93 10.018 15.727 1.476 3.106-.76 2.082-2.662 2.141h-6.306c-.88-1.826-4.054-1.032-5.786-1.05-6.912-.059-12.8-.656-19.439-1.049-7.697-.46-15.42-.546-23.117-1.05-5.18-.34-11.119-.784-16.81-1.049-6.247-.29-12.672-.538-18.919-1.05-.085 0-.281-.844-.734-.879-3.831-.256-8.226-.605-11.878.333v.546l-.93.615c-2.808 5.606-4.967 11.52-7.475 17.254-1.75 3.994-3.473 8.431-5.257 12.612-1.476 3.474-2.807 7.203-4.207 10.514a6101 6101 0 0 0-8.405 19.968c-4.105 9.813-8.465 19.61-12.612 29.422-.64 1.52-.94 2.825-1.536 4.25-.555 1.34-3.721 8.363-4.25 8.354-3.243-4.719-6.11-9.745-8.934-14.711-5.71-10.044-11.29-20.327-16.811-30.473-2.44-4.488-4.941-9.233-7.356-13.662-3.9-7.142-7.51-14.848-11.563-22.067-2.278-4.07-4.82-8.388-7.355-12.612-1.997-3.337-3.354-7.27-6.272-10.01-1.886-.973-11.35-.682-14.26-.537-26.402 1.314-52.89 4.548-79.291 6.348-2.953.205-6.033-.238-8.977-.042-2.569.17-4.984 1.74-7.834 1.092l2.1-6.306c8.703-11.955 15.513-25.19 23.116-37.828 3.806-6.332 7.791-12.587 11.563-18.919 5.7-9.557 12.441-19.362 17.698-29.064.836-1.536 2.859-4.958 3.174-6.315.794-3.499-3.276-8.687-5.111-11.921-2.39-4.207-4.77-7.475-7.356-11.563-4.07-6.434-8.414-12.595-12.612-18.918-4.975-7.51-10.547-15.411-15.761-23.117-7.766-11.486-14.95-23.45-23.117-34.68 3.302.197 6.741-.264 10.027-.05 26.496 1.732 53.23 5.299 79.77 6.4 7.32.298 14.72-.35 22.05 0l4.795-9.507c2.45-3.302 4.429-7.125 6.306-10.513 2.876-5.188 5.547-10.573 8.406-15.76 3.234-5.872 6.272-12.075 9.455-17.87 4.573-8.303 9.053-17.032 13.661-25.224z"/><path fill="#abd34e" d="M478.862 188.083c-.785 11.179 1.63 22.102 4.455 32.845 7.74 29.406 19.43 58.752 28.945 87.706 2.338 7.108 6.989 28.5 11.238 32.896 1.69 1.74 4.378-.18 3.704 3.131l-4.796 9.506c-7.33-.35-14.729.3-22.05 0-26.547-1.1-53.274-4.667-79.77-6.4-3.294-.213-6.733.24-10.027.052 8.167 11.23 15.352 23.193 23.117 34.68l-11.861-3.38-15.462-6.084c1.868.247 10.453.503 10.504-1.57-4.36-9.652-10.94-22.06-23.51-19.311-5.682 3.814-4.42 10.76-.656 15.633-25.43-9.157-51.576-20.941-77.492-28.118-4.744-1.314-13.064-3.831-17.646-3.439-2.356.205-3.747.3-3.644 3.183-.478-.179-1.45.145-2.1 0-1.023-5.299 3.303-6.707 7.928-6.348 2.219.17 3.866 1.39 6.246 1.126 2.91-.333 6.409-3.712 9.481-4.284.58 0 6.033 3.806 6.323 4.233 1.016 1.45.7 4.19 2.586 5.82 1.843 1.587 4.429 1.245 6.349 2.056 3.26 1.365 6.212 4.181 9.932 3.738 2.006-.24 5.078-2.347 7.57-2.97 1.373-.341 2.807.026 3.967-.239 3.67-.836 7.22-2.509 11.068-2.065.324-2.748-1.954-3.396-4.207-3.157v-2.62l3.064-1.673c.921-4.326-1.562-7.765-3.909-11.136l-2.304-7.68c7.826 5.64 16.692 11.46 24.858 16.657 3.448 2.194 18.637 12.212 21.052 12.664 1.809.341 3.558-1.178 6.076-.947 3.925.358 8.37 4.667 10.018-1.562-6.392-4.215-12.553-8.917-18.91-13.141 1.775-2.236.025-2.244-1.067-3.67-2.108-2.764-6.477-10.137-8.397-2.636-9.045-5.905-20.369-13.628-29.423-18.919 1.622-.358 2.432-2.61 3.806-3.02 3.533-1.059 6.98 1.228 9.848-3.806l-6.306-6.307 3.148-2.107-2.09-3.678 5.248 1.579c-2.236-3.678-3.73-1.818-5.777-2.006-4.43-.41-4.293-1.783-6.844-3.242-1.8-1.024-4.608-1.23-5.794-3.661-.794-1.63-.24-3.132-.657-4.6-.35-1.211-2.526-2.901-2.919-4.505l2.023-5.64c19.294 23.048 47.488 48.033 69.896 68.283 4.224 3.814 9.694 10.035 14.191 13.124 5.137 3.533 9.31.956 8.252-5.103-4.506-5.7-9.617-10.658-14.635-15.872-1.032-1.075-.981-2.688-3.106-3.695 3.02.623 2.244-1.723 2.133-3.703-.64-10.855-11.443-28.843-22.092-16.265-7.1-5.444-12.561-12.74-18.919-18.918 1.878-.589 2.757-1.374 4.054-2.773 2.056-2.21 8.02-10.94 9.429-13.68 1.562-3.02 1.195-3.498.18-6.655 6.186 9.216 14.344 19.055 21.017 28.373-3.473-.102-3.072-.725-3.15 2.611-.101 4.08.496 6.417 4.711 7.928l2.646-4.233c13.09 18.176 26.914 35.883 39.91 54.144 4.25 4.728 8.38 7.288 12.553.896.367-1.297-1.357-5.692-2.16-7.083-9.924-17.237-26.086-37.87-37.7-54.255 5.095.862 3.823-4.266 6.264-6.877 1.075-1.152 2.603-1.52 3.729-2.577l6.827-11.563c.128.299 1.63 1.05 1.612 2.03l5.743 14.78c-2.594-.06-2.577.862-3.148 1.05-1.067.359-3.269.504-4.02 1.246-.153.145-2.073 3.439-2.133 3.635-1.98 6.699 4.028 13.21 8.764 17.203 1.459 1.238 8.763 6.767 10 5.24.282-2.611.93-4.617 1.05-7.356l20.975 42.599c5.086 4.966 10.974 1.911 9.48-5.283-12.082-29.218-25.343-57.907-38.382-86.698-.555-1.238-.273-2.714-.478-3.166 3.567.913 8.064-5.12 7.339-7.842-.478-1.784-6.033-2.176-7.86-2.73l-2.636 4.266c-.88-1.929-1.485-3.909-2.1-5.257 4.361.359 2.552.034 3.15-2.594.366-1.638 1.373-2.133 1.552-2.688 2.595-7.85.308-12.04-.29-19.61-.094-1.237.982-2.423.905-3.985-.094-1.894-2.475-3.95-2.142-5.222 1.613-2.765 5.24-2.1 7.356-3.191.384-.197 4.548-4.361 4.736-4.72 1.263-2.466-.692-5.742 1.553-7.38z"/><path fill="#d5e883" d="M380.08 414.02c1.707.333 5.146 3.695 8.952 4.19 5.59.717 12.22-1.527 16.273-1.032 17.604 2.159 36.19 6.016 53.896 8.627 1.639.239 3.26 2.466 2.842-1.272 2.586 4.08 4.966 7.356 7.356 11.563-2.748-2.27-3.84 2.415-5.914 3.02-2.568.752-6.545-.28-9.37.18l-20.445-3.2c-.214-.162-.939.12-1.408-.205-5.504-3.772-13.167-8.072-19.601-4.522-.256.136-3.047 2.449-3.158 2.62l-53.051-6.324c-14.806-2.867-30.251-4.471-44.945-8.644-3.653-1.041-14.354-4.07-15.463-7.697l2.048-3.115c5.487-.674 10.735-1.937 16.29-1.527 19.994 1.476 39.91 4.6 59.938 7.313 1.878.256 4.105-.308 5.76.017z"/><path fill="#d4e883" d="M392.693 367.778c4.292 1.545 9.83 4.745 13.662 5.257l15.462 6.084 11.861 3.38c5.214 7.713 10.786 15.615 15.761 23.116-3.422-2.21-7.458-3.644-11.255-5.026-40.807-14.925-92.68-29.67-129.912-50.825-3.746-2.133-12.399-9.6-14.344-10.35-.111-2.885 1.28-2.979 3.644-3.184 4.573-.392 12.902 2.125 17.647 3.44 25.915 7.184 52.061 18.96 77.49 28.117z"/><path fill="#d4e882" d="M454.389 452.079c12.86-1.442 13.67 11.853 3.985 13.44-11.102 1.818-23.356 1.988-34.654 3.174-30.831 3.226-72.337 10.76-102.98 7.313-6.46-.725-13.97-4.761-4.77-8.925 10.521-4.77 33.74-6.571 45.747-7.843 30.711-3.25 61.96-3.703 92.672-7.15z"/><path fill="#d4e982" d="M441.034 284.757c11.614 16.384 27.776 37.01 37.7 54.255.802 1.391 2.526 5.794 2.16 7.083-4.174 6.4-8.304 3.84-12.553-.896-12.997-18.261-26.83-35.96-39.91-54.144-1.468-2.04-2.748-4.267-4.208-6.306-6.664-9.319-14.83-19.158-21.017-28.374-4.864-7.253-10.087-16.068-14.55-23.808-4.59-7.961-10.888-17.39-10.666-26.632 5.862.939 9.122 6.989 12.586 11.05 17.946 21.027 34.526 45.278 50.458 67.764z"/><path fill="#d6e884" d="M730.007 466.56c2.39.614 7.74 5.632 11.503 6.886 5.546 1.844 13.167 2.45 16.87-2.68 19.66 3.414 39.817 5.701 59.153 10.727 5.052 1.314 17.792 4.873 21.257 8.167 3.072 2.918 1.851 4.906-2.1 5.299-12.245 1.229-21.7-.58-33.672-2.108-35.883-4.582-71.39-11.221-106.923-18.125-1.433-.281-4.027-2.141-4.975.24-2.79-4.259-5.81-8.56-8.405-12.613 3.558.282 3.994-2.534 7.86-2.1 7.611.854 15.479 2.92 23.159 4.182 4.983.828 11.349.862 16.273 2.116z"/><path fill="#d5e982" d="M642.788 540.126c-1.87.299.58 3.157 1.024 3.712 4.847 6.076 9.241 12.484 13.525 19.046 19.14 29.32 45.585 67.9 59.221 99.465 1.152 2.662 6.58 16.017 5.043 17.553-3.865.82-6.024-2.057-8.422-4.71-9.745-10.753-20.25-29.492-28.194-42.215-10.283-16.478-20.489-33.485-30.635-49.758-3.379-5.41-3.302-8.977-9.455-13.662-1.169-9.941-15.701-19.712-8.405-29.423h-6.306v-.546c3.66-.93 8.047-.58 11.878-.333.444.026.64.87.734.88z"/><path fill="#d3e882" d="M462.052 237.474c.614 1.348 1.22 3.328 2.099 5.257 1.04 2.278 2.32 4.463 3.149 6.306.204.444-.077 1.928.477 3.166 13.04 28.791 26.292 57.48 38.383 86.698 1.502 7.194-4.394 10.249-9.48 5.282l-20.975-42.598c.264-5.965-2.406-19.123-9.455-19.968.102-.742-.35-1.032-1.05-1.05l-5.743-14.78c.018-.98-1.476-1.732-1.612-2.03-6.298-14.481-14.294-33.263-18.415-48.316-1.63-5.94-3.209-11.665-2.594-17.894 4.335-.401 7.202 4.847 9.292 8.038 5.624 8.568 11.537 22.332 15.924 31.89"/><path fill="#d5e984" d="M620.72 362.53c-.733-.46-1.621-.589-1.954-1.707a893 893 0 0 0-5.401-11.955c2.193.555 3.08-2.312 4.044-3.84 4.463-7.057 9.276-14.003 13.68-20.992 3.054-4.855 5.776-10.078 8.55-15.095 4.318-3.294 5.666-8.67 8.405-12.612 9.08-13.074 26.837-41.148 38.332-50.467 4.31-3.49 9.216-5.316 7.705 2.458-2.5 12.902-17.945 35.337-25.6 46.908-14.173 21.444-29.26 42.948-45.661 62.575-1.306 1.561-2.663 2.142-2.1 4.727"/><path fill="#d5e883" d="m621.77 557.986 4.685 5.3 7.927 13.61c.29 2.594 2.8 8.798 4.327 10.914 1.254 1.74 2.688 1.74 4.079 3.797 8.311 12.237 19.481 38.221 25.762 52.523 3.703 8.431 7.774 17.476 10.53 26.249 2.03 6.46 4.087 13.2 3.635 20.01-4.369.999-6.622-3.114-8.883-6.357-13.38-19.123-23.706-46.6-33.988-67.942-5.539-11.503-11.665-22.767-17.238-34.262-1.715-3.541-2.483-8.866-6.093-11.247 1.775-4.172 3.508-8.618 5.257-12.612z"/><path fill="#d4e882" d="m706.89 436.087.094 1.972c7.902 4.258 20.523 9.804 28.348 2.782.546-.487.674-1.067.98-1.596.07-.111.897 0 1.076-1.502s-.153-3.234-.034-4.804c5.342-.692 10.948-.606 16.265-1.067 10.342-.905 21.111-2.688 31.496-3.174 9.643-.453 31.445-1.033 39.791 2.33 1.067.426 3.149 2.2 2.782 3.43-1.16 1.271-2.27 2.773-3.84 3.55-6.059 2.995-18.176 3.566-25.003 4.42-33.783 4.215-67.772 4.676-101.99 6.238-3.098.145-5.53 1.672-9.412 1.092-8.047-1.195-6.648-11 .17-12.433 4.429-.93 10.01-.802 14.524-1.238 1.374-.136 2.688-1.425 4.224-1.032l.529 1.05z"/><path fill="#d5e884" d="M520.897 294.22c-4.258.683-7.296 2.697-8.243 6.998-1.553 7.049 6.46 19.047 11.938 23.475 1.084.768 2.5-1.749 2.62-2.099 2.603 2.773 3.541 7.783 4.241 11.537l2.065.026c-1.877 3.379-3.857 7.202-6.306 10.513.674-3.311-2.014-1.383-3.703-3.132-4.25-4.395-8.9-25.788-11.239-32.896-9.506-28.953-21.197-58.3-28.945-87.705-2.833-10.752-5.248-21.667-4.454-32.845 2.278-.359 3.43.333 4.702 2.125 3.584 5.043 6.101 12.04 8.44 17.826 11.297 27.938 19.2 57.642 28.884 86.186z"/><path fill="#d4e782" d="M500.93 570.598c-1.477 1.681-5.837 3.525-7.902 5.24-2.04 1.698-6.34 5.922-7.715 8.047-3.02 4.659-3.763 11.366.905 15.095-6.997 12.237-12.8 25.08-20.13 37.146-2.987 4.915-6.528 10.752-9.865 15.351-2.184 3.004-9.506 12.698-13.576 11.589-1.86-1.17-1.818-2.68-1.604-4.694.827-7.705 7.654-20.394 11.34-27.545 10.983-21.3 23.228-42.027 34.722-63.01 2.398-4.387 11.102-24.483 14.482-25.455 1.74-.504 4.18-.103 6.041 0l2.808 3.532c.281 2.193-.828 4.805-1.605 6.861-1.075 2.867-6.639 16.41-7.893 17.852z"/><path fill="#d4e883" d="M551.37 300.527c-3.191 5.786-6.22 11.99-9.455 17.869l-16.794-89.873c-.41-11.606-3.37-23.92-2.099-35.687 1.152-10.64 5.129-7.219 8.158.205 5.854 14.328 8.107 36.66 10.77 52.284z"/><path fill="#d2e87f" d="M389.544 279.51c6.357 6.169 11.81 13.473 18.918 18.918-1.527 7.654 3.806 13.329 10.198 16.597 2.875 1.468 7.133 2.125 9.762 3.37 2.116 1.008 2.073 2.62 3.106 3.696 5.017 5.214 10.129 10.171 14.635 15.872 1.058 6.058-3.115 8.635-8.252 5.103-4.506-3.09-9.976-9.31-14.191-13.125-22.409-20.258-50.603-45.235-69.897-68.283-3.379-4.037-7.978-10.044-11.008-14.737-2.261-3.508-5.145-8.064 1.596-5.803 9.165 3.072 24.465 19.84 31.983 26.871 4.164 3.892 8.986 7.493 13.158 11.537z"/><path fill="#d5e883" d="M603.91 327.85c-.051-.11-.606-.213-.854-.75-2.995-6.605-5.572-13.602-8.61-20.267 1.98-.879 1.715-3.106 2.1-4.727 5.529-23.33 13.286-54.469 22.579-76.203 1.109-2.603 5.7-12.356 7.33-13.688 6.826-5.58 6.186 6.802 5.802 11.051-.546 6.042-2.978 15.625-4.42 21.845-5.905 25.43-15.334 51.806-22.87 76.963-.58 1.945-1.467 3.592-1.057 5.777"/><path fill="#d5e884" d="M540.857 562.193c-2.33-1.903-2.45-.46-2.936 1.792-.631 2.91-.955 6.059-1.51 9.003l-3.96 14.43c-.008-.06-.7-.23-.819-.785-.41-1.852-.896-3.678-1.28-5.522-1.621-1.834-7.68 4.796-8.883 6.35-5.418 6.98-8.79 23.807 3.635 23.073-1.45 5.684-2.799 11.452-4.454 17.084-4.292 14.626-10.3 34.492-17.408 47.744-1.69 3.157-9.958 16.981-10.743 7.177-.717-8.952 3.114-22.392 5.538-31.3 6.374-23.433 14.916-46.985 22.366-70.11 2.27-7.049 5.026-21.778 8.38-27.35 1.151-1.92 4.027-1.98 4.727-4.207 2.534 4.216 5.077 8.542 7.355 12.613z"/><path fill="#d4e883" d="m413.71 494.933-2.15 6.81c.222 2.824 2.995 4.582 4.25 6.852-7.937 3.917-17.161 7.254-25.967 10.283-19.747 6.784-50.066 18.073-70.204 20.164-8.534.888-14.481-.921-5.086-7.185 6.639-4.429 18.927-9.114 26.632-12.245 23.723-9.66 48.325-16.487 72.525-24.679"/><path fill="#d4e983" d="m678.517 542.225-3.678 1.05c24.269 28.032 52.65 55.347 74.564 85.162 2.031 2.757 11.093 16.094 11.119 18.338l-1.647 2.612c-1.971.546-6.724-2.816-8.397-4.165-10.598-8.576-20.932-21.785-29.91-32.093-3.48-3.994-7.816-8.278-11.579-12.067.632-.273 2.978-4.556 3.149-5.777 1.621-11.426-11.853-14.933-19.96-18.389-1.45-.623-3.054-.973-4.223-1.562-2.066-1.024-20.003-23.296-22.528-26.863-1.51-2.133-3.43-4.65-3.721-7.313 5.692.265 11.64.709 16.81 1.05z"/><path fill="#d4e883" d="M724.75 499.14c3.994 7.638 18.364 21.163 26.838 13.705.41-.359 2.525-3.004 2.585-3.2 10.906 3.43 21.897 6.946 32.589 11.025 9.173 3.49 34.586 12.936 39.945 19.95 1.024 1.34 1.297 1.93 1.024 3.704-7.254.683-13.338-.554-20.233-2.355-29.414-7.663-58.76-21.555-87.706-31.044l-5.546-1.28c-3.576-5.427-7.851-11.162-11.563-16.81z"/><path fill="#d5e884" d="M693.228 417.17c2.68-3.884 5.7-7.647 8.405-11.564.768 2.253 3.337.419 4.72-.017 4.47-1.4 8.362-3.439 13.15-3.14 2.218.137 3.788.99 5.734 1.1 7.407.402 22.195 0 21.589-10.555l41.532-10.487c2.568-.18 17.647-.948 16.256 3.635-.691 2.287-9.011 6.34-11.537 7.39-7.723 3.208-17.878 6.195-26.018 8.661-22.11 6.707-44.792 11.861-67.038 18.15l-6.793-3.182z"/><path fill="#d4e883" d="M559.775 597.922c-2.056 2.45-.836 6.86-1.075 9.959-1.724 22.545-4.685 57.233-11.759 78.617-1.032 3.123-3.055 6.008-3.993 9.156-3.712.197-4.899-5-5.223-7.91-.572-5.103.555-14.396 1.05-19.917 1.698-19.174 5.034-38.57 7.313-57.839.665-5.649.23-18.107 2.628-22.596.777-1.46 2.944-1.664 3.704-3.132 2.415 4.43 4.915 9.174 7.355 13.662"/><path fill="#d3e882" d="M725.8 527.514c2.705-.111 5.419 1.97 7.723 3.31 22.766 13.193 53.18 29.21 73.147 45.603 1.46 1.203 9.08 8.559 9.378 9.531.342 1.127.06 2.398.12 3.55-2.705 2.705-25.677-9.48-29.79-11.716-18.185-9.916-35.593-21.606-53.231-32.418 1.903-.06 4.139.964 2.662-2.142-2.27-4.796-6.954-11.025-10.018-15.727z"/><path fill="#d4e881" d="M442.084 576.905c.793 2.022 2.858 5.836 5.256 6.306l-24.15 28.92c-11.792 10.785-21.674 24.2-34.738 33.56-1.775 1.272-8.85 6.392-10.462 4.77-.325-3.523 1.826-7.526 3.703-10.478 10.18-16.026 29.432-35.507 42.513-49.963 5.325-5.888 10.718-11.648 16.307-17.314 1.067.359.333 2.261.692 3.499.17.58.862.648.879.708z"/><path fill="#d3e883" d="M360.12 302.626c9.055 5.29 20.379 13.013 29.424 18.919 3.123 2.039 6.52 4.352 9.455 6.306 6.357 4.224 12.527 8.926 18.91 13.141-1.656 6.23-6.093 1.92-10.018 1.562-2.518-.23-4.259 1.288-6.076.947-2.415-.452-17.596-10.462-21.052-12.664-8.166-5.196-17.032-11.008-24.858-16.657-3.114-2.244-7.193-4.915-10-7.338-1.588-1.366-9.993-9.455-10.514-10.505-.716-1.434-.537-2.714-.495-4.224 2.313-2.338 19.328 7.945 22.383 9.694 1.033.589 2.415.563 2.833.81z"/><path fill="#d5e883" d="M591.297 630.502c.23 5.41-.298 10.923-.042 16.333.768 16.273 1.92 32.017.068 48.316-.589 5.214.401 15.488-7.33 14.131-1.348-3.61-2.509-7.185-3.183-11.016-3.55-20.395-1.997-42.334-4.198-63.053-.24-2.253.102-4.566-.026-6.81 2.825 4.967 5.692 9.984 8.934 14.712.53 0 3.687-7.015 4.25-8.354.589-1.426.896-2.731 1.536-4.25z"/><path fill="#d4e984" d="M618.621 646.263c4.958.649 9.122-.768 11.563-5.256 6.28 21.692 13.124 40.124 14.728 63.556.094 1.314 1.195 2.45 1.067 4.173-.094 1.203-1.527 6.545-2.67 6.878-1.605-.043-3.329-1.988-4.174-3.175-5.086-7.15-10.214-26.342-12.91-35.43-2.757-9.284-6.793-21.76-7.612-30.746z"/><path fill="#d4e884" d="M579.743 274.253c-1.63-3.396-3.55-6.733-5.068-10.198-.615-1.39.11-1.706-2.279-1.365-1.69 3.601-3.447 7.467-5.41 10.923-.674 1.186-1.894 1.578-1.954 1.69.23-5.76-.299-11.623-.043-17.383.691-15.556 1.007-40.013 5.564-54.34 1.075-3.388 3.388-9.2 6.562-3.934.947 1.561 2.406 8.013 2.611 10 .862 8.594.393 17.844-.025 26.207-.623 12.604.554 25.745.042 38.4"/><path fill="#d3e782" d="M689.021 335.206c.034-3.558-2.901-6.732-6.306-7.355l-3.149-1.579 30.976-29.97c4.591-2.465 11.58-10.162 16.854-9.48 1.33.171 1.851.615 2.602 1.664-2.201 9.856-9.523 16.009-15.778 23.057-5.222 5.888-10.3 12.041-16.247 17.383l-8.952 6.289z"/><path fill="#d5e883" d="M735.263 358.323c.572-3.183-1.612-2.04-3.669-2.099-7.39-.205-16.913 1.493-24.704 2.1.478-1.87 2.398-2.202 3.857-2.979 13.158-6.997 37.086-23.91 50.466-26.248 3.524-.615 7.766-.87 8.653 3.336-.828 4.89-19.831 17.254-24.772 20.472-2.953 1.92-6.725 4.206-9.822 5.418zM418.967 540.126l-2.1 6.306c2.85.649 5.266-.922 7.834-1.092 2.944-.197 6.025.247 8.977.042-.623 1.468-1.962 2.671-3.2 3.636-5.401 4.198-13.61 9.403-19.55 13.021-5.546 3.38-19.481 11.563-25.258 12.57-3.234.563-8.406 1.075-7.544-3.328.88-4.488 15.565-14.882 19.883-17.963 6.656-4.744 13.832-9.275 20.966-13.184z"/><path fill="#d5e988" d="m624.927 625.246-8.908-7.39c-2.688-.085-3.482 5.18-3.695 7.39-1.434-.81-1.596-3.294-2.031-4.804-1.86-6.52-2.919-13.543-6.383-19.363 2.799-6.69 5.657-13.465 8.405-19.968 4.821 12.92 8.5 26.249 12.595 39.424.427 1.383 2.27 3.943.017 4.72z"/><path fill="#d4e982" d="m726.858 545.382-6.306.52c2.38 2.109 4.42 4.788 6.81 6.853 6.442 5.581 14.958 11.887 21.922 16.956 1.877 1.374 3.072 2.167-.359 1.937-2.03-.939-6.084-1.903-8.405-2.1l-6.29-1.04-.545 3.14c-10.83-9.318-22.375-17.988-32.052-28.373 6.64.4 12.527.99 19.44 1.05 1.732.016 4.906-.777 5.785 1.049z"/><path fill="#402d0f" d="M754.173 509.653c-.06.197-2.176 2.842-2.585 3.2-8.474 7.458-22.844-6.075-26.838-13.704-.58-3.465 1.775-1.715 3.712-2.057 6.144-1.083 10.394-1.33 16.606.12 1.135.264 6.827 3.225 7.535 4.027 1.45 2.057 2.244 6.093 1.57 8.414"/><path fill="#3f2c0e" d="M380.08 414.02c-3.677-4.147-1.194-12.032 3.832-13.508 6.315-1.86 16.299 3.96 20.352 8.764 1.98 2.346 5.24 6.127 1.032 7.902-4.053-.495-10.683 1.749-16.273 1.032-3.806-.486-7.244-3.848-8.951-4.19z"/><path fill="#3e2c0e" d="M486.218 598.972c-4.668-3.73-3.925-10.437-.905-15.096 1.374-2.116 5.675-6.349 7.715-8.047 2.056-1.706 6.425-3.55 7.901-5.24 3.414 3.363 1.51 6.623 1.067 10.002-.589 4.565-.546 8.627-2.688 13.073-2.219 4.608-8.414 9.028-13.09 5.3z"/><path fill="#3e2d0e" d="M433.678 436.087c1.323 1.007 4.65 5.146 4.19 6.819-.392 1.416-11.042 4.471-13.15 4.719-5.504.631-15.522-1.118-16.29-7.868-.136-1.229.512-4.915 1.075-5.769.111-.17 2.91-2.483 3.158-2.62 6.434-3.55 14.097.751 19.6 4.523.47.324 1.187.034 1.409.205z"/><path fill="#3f2e0e" d="M758.38 470.767c-3.695 5.128-11.315 4.531-16.87 2.68-3.763-1.255-9.114-6.273-11.503-6.887l.324-3.328c9.267-6.477 33.519-10.3 28.05 7.526z"/><path fill="#3e2c0d" d="M648.044 296.32c-2.74 3.942-4.087 9.31-8.405 12.612-.214.162-.939-.12-1.408.205-1.622 1.118-9.89 6.383-11.204 5.052-.163-6.272.179-13.935 2.926-19.67 4.975-10.368 16.171-9.873 18.091 1.801"/><path fill="#402e0f" d="M682.724 327.85c3.404.624 6.34 3.798 6.306 7.356-.094 9.728-11.145 14.004-19.183 15.992-.555.136-.726.81-.785.828-.888.162-5.274.324-5.257-.53l5.257-14.182c3.712-3.985 7.236-10.18 13.662-9.455z"/><path fill="#3f2d0f" d="M692.179 576.905c8.106 3.456 21.58 6.971 19.959 18.389-.17 1.22-2.517 5.504-3.149 5.777-.452.196-5.043 1.041-5.59.939-6.544-1.195-11.937-11.247-13.294-17.255-.213-.93.11-2.082-.051-3.097-.444-2.748-3.277-5.462 2.125-4.753"/><path fill="#3f2d0d" d="M746.817 393.003c.606 10.547-14.173 10.956-21.589 10.555-1.945-.102-3.516-.955-5.734-1.1-1.451-1.972-2.8.068-1.203-2.774 3.805-6.784 13.516-15.19 21.7-14.029 3.516.495 6.622 3.764 6.826 7.356z"/><path fill="#3f2c0e" d="M624.927 625.246c1.255 3.49 4.335 6.528 5.052 10.189.376 1.92-.162 4.318.205 5.58-2.432 4.48-6.605 5.897-11.563 5.257-.094-1.05-1.852-1.203-2.62-2.116-4.19-4.992-4.292-12.672-3.686-18.902.213-2.21 1.007-7.475 3.695-7.39l8.909 7.39z"/><path fill="#412e0e" d="M736.313 439.236c-.307.53-.444 1.11-.981 1.596-7.825 7.023-20.446 1.476-28.348-2.782l-.094-1.971c7.279-6.562 21.649-13.235 29.295-4.6l.128 7.749z"/><path fill="#3e2d0f" d="M430.52 490.735c2.715.18 7.476.776 9.464 2.637.393 1.578-4.915 7.629-6.306 8.926-2.893 2.696-10.265 7.688-14.148 7.407-1.152-.086-2.944-1.477-3.712-1.101-1.254-2.27-4.028-4.037-4.25-6.853l2.15-6.81c6.46-2.184 8.61-4.752 16.811-4.206z"/><path fill="#3f2d0d" d="M520.897 294.22c8.952 2.535 9.319 11.299 8.38 19.414-.205 1.75-1.502 7.253-2.073 8.96-.12.341-1.536 2.867-2.62 2.1-5.479-4.438-13.491-16.436-11.938-23.476.947-4.3 3.993-6.315 8.243-6.997z"/><path fill="#3f2d0e" d="M644.887 569.549c6.152 4.685 6.084 8.252 9.455 13.662-.922 3.968-1.656 6.306-5.573 7.56-2.124.683-3.652 1.229-5.99.845-1.4-2.057-2.824-2.057-4.079-3.797-1.527-2.117-4.036-8.32-4.326-10.914-.273-2.432-.35-7.672-.034-10.019.179-1.322.614-1.783 1.604-2.585 2.91 1.911 6.152 3.123 8.934 5.248z"/><path fill="#402d0f" d="M525.096 610.534c-12.425.734-9.054-16.093-3.635-23.074 1.203-1.553 7.262-8.183 8.883-6.349.384 1.844.87 3.67 1.28 5.522.12.554.81.725.819.785.452 2.73.401 13.5-.17 16.12-.752 3.43-3.474 6.783-7.186 7.005z"/><path fill="#3f2c0c" d="M463.101 557.986c.598 6.86-.46 13.508-4.352 19.294-2.841 4.241-6.084 6.963-11.417 5.922-2.398-.47-4.463-4.284-5.257-6.306-1.067-6.025 4.028-10.598 8.405-13.662 3.72-2.603 8.175-4.284 12.613-5.256z"/><path fill="#3f2c10" d="M740.511 569.549c2.321.196 6.375 1.16 8.406 2.099 1.826.845 8.132 5.683 8.96 7.33.99 1.954.367 4.25.495 6.332-.862 2.21-.41 2.824-3.15 4.207-10.794 5.444-21.085-10.215-19.967-19.968 1.732.102 3.533-.145 5.256 0"/><path fill="#d4e786" d="m669.062 337.306-5.257 14.182c-.017.853 4.37.7 5.257.53 3.473-.231 1.98.554.52 2.098-2.628 2.8-6.058 4.045-7.876 7.356-6.656.41-13.218.717-19.968 1.05l19.422-19.985z"/><path fill="#d0e87e" d="M758.38 585.31c.026-.06.717-.12.879-.708.358-1.238-.367-3.14.691-3.5 4.531 4.012 8.303 8.526 12.066 13.16 2.44 3.003 6.025 5.375 6.324 9.958-6.776.606-13.159-5.376-18.398-9.447-1.8-1.4-4.83-2.756-4.72-5.265 2.74-1.382 2.288-1.997 3.15-4.207z"/><path fill="#d8e887" d="M453.638 483.38c-3.772 6.33-7.749 12.586-11.563 18.918l-.597-.982c-2.5-.623-4.318.734-6.375 1.929l-1.442-.947c1.391-1.297 6.699-7.348 6.306-8.926-1.988-1.852-6.75-2.458-9.463-2.637l5-2.884 18.117-4.472z"/><path fill="#d4e58a" d="M450.489 563.243c-3.465.23-1.971-.555-.53-2.1 2.808-3.003 12.87-13.67 15.907-14.566 2.867-.853 6.289.316 6.724 3.516.589 4.326-5.35 9.685-7.919 13.158l-1.578-5.256c-4.438.972-8.892 2.654-12.613 5.256z"/><path fill="#a9d14e" d="M630.175 540.126h6.306c-7.296 9.72 7.237 19.481 8.406 29.423-2.782-2.125-6.025-3.337-8.935-5.248-.99.802-1.425 1.263-1.604 2.585-.324 2.347-.239 7.578.034 10.019l-7.927-13.611-4.685-5.3c2.509-5.734 4.668-11.647 7.475-17.254z"/><path fill="#3e2d10" d="M406.355 373.035c-3.832-.512-9.37-3.712-13.662-5.257-3.764-4.872-5.026-11.819.657-15.633 12.57-2.748 19.149 9.66 23.509 19.311-.043 2.082-8.636 1.826-10.504 1.57z"/><path fill="#3f2e0f" d="M462.052 281.609c1.373.11 2.85-.163 4.207 0 7.057.844 9.728 14.003 9.454 19.968-.119 2.739-.768 4.744-1.05 7.355-1.236 1.536-8.541-4.002-10-5.24-4.728-3.993-10.744-10.504-8.764-17.202.06-.205 1.98-3.49 2.133-3.636.751-.733 2.953-.887 4.02-1.245"/><path fill="#3d2c0e" d="M408.454 298.42c10.65-12.579 21.453 5.41 22.093 16.264.119 1.98.887 4.326-2.134 3.703-2.637-1.246-6.886-1.903-9.762-3.37-6.4-3.269-11.733-8.943-10.197-16.598"/><path fill="#a9d248" d="M467.3 249.028c-.837-1.843-2.117-4.027-3.15-6.306l2.638-4.267c1.826.555 7.38.948 7.859 2.731.725 2.722-3.763 8.755-7.339 7.842zm-43.085 35.73c1.459 2.039 2.739 4.266 4.207 6.305l-2.646 4.233c-4.215-1.51-4.812-3.849-4.71-7.927.085-3.337-.316-2.714 3.149-2.612m-25.216 43.093c-2.936-1.946-6.34-4.267-9.455-6.306 1.92-7.501 6.289-.128 8.397 2.636 1.092 1.425 2.841 1.434 1.066 3.67zm66.201-47.292c.7.017 1.152.316 1.05 1.05-1.357-.163-2.833.11-4.207 0 .572-.188.563-1.11 3.149-1.05z"/></svg>