<svg xmlns="http://www.w3.org/2000/svg" viewBox="0 0 1024 1024"><path fill="#191919" d="M551.822 48.356a28.444 28.444 0 1 1 34.134 45.51c-30.35 22.756-45.512 56.89-45.512 105.245a28.444 28.444 0 1 1-56.888 0c0-65.422 22.755-116.622 68.266-150.755"/><path fill="#8bc149" d="M668.444 142.222c35.158 0 64.342 7.822 70.088 43.25 4.906-.412 10.012-.583 15.246-.583 39.267 0 71.11 9.756 71.11 56.889 0 13.354-2.56 28.26-7.11 42.794 35.925 1.21 64 12.516 64 56.761a139.2 139.2 0 0 1-4.48 33.465c19.797 6.756 32.924 21.618 32.924 51.869 0 29.667-12.615 67.057-31.744 90.695 2.134 6.457 3.3 14.08 3.3 23.082 0 27.919-11.179 62.692-28.445 86.4-.469 47.048-32.142 112.712-71.11 112.712-5.064 0-9.999-1.11-14.763-3.13-4.352 45.796-34.276 102.685-70.571 102.685-15.104 0-29.099-9.856-40.619-24.661l-3.868 2.787c-7.282 43.748-35.542 92.985-69.29 92.985-7.965 0-15.603-2.73-22.756-7.495-12.687 20.864-29.682 35.94-48.356 35.94s-35.67-15.076-48.356-35.94c-7.153 4.765-14.79 7.495-22.755 7.495-33.75 0-62.009-49.237-69.29-92.985l-3.87-2.773c-11.52 14.791-25.514 24.647-40.618 24.647-36.28 0-66.219-56.889-70.57-102.713a37.2 37.2 0 0 1-14.763 3.158c-39.268 0-71.111-66.646-71.111-113.778l.014 1.08c-17.28-23.708-28.459-58.481-28.459-86.414 0-8.988 1.166-16.64 3.314-23.096-19.143-23.624-31.758-61.014-31.758-90.681 0-30.265 13.127-45.113 32.924-51.869a139 139 0 0 1-4.48-33.465c0-44.245 28.075-55.552 64-56.775-4.55-14.506-7.11-29.44-7.11-42.78 0-47.133 31.843-56.89 71.11-56.89 5.234 0 10.34.172 15.26.584 5.732-35.428 34.916-43.25 70.074-43.25 19.384 0 36.977 2.375 49.792 10.454 12.8-8.079 30.378-10.454 49.763-10.454 23.268 0 43.933 3.428 56.903 16.029 12.957-12.615 33.607-16.029 56.875-16.029 19.385 0 36.978 2.375 49.792 10.454 12.8-8.079 30.379-10.454 49.763-10.454"/><path fill="#c3ed7f" d="M682.667 128c39.267 0 71.11 9.756 71.11 56.889 0 4.58-.298 9.358-.881 14.222h.882c39.267 0 71.11 9.757 71.11 56.889 0 9.5-1.293 19.797-3.683 30.18 27.065 4.423 46.35 18.474 46.35 55.153 0 43.762-27.448 104.363-62.819 112.783 3.812 7.637 5.93 17.294 5.93 29.44 0 27.918-11.178 62.691-28.444 86.4-.47 47.047-32.142 112.71-71.11 112.71-5.064 0-10-1.109-14.764-3.128-4.352 45.795-34.275 102.684-70.57 102.684-15.104 0-29.099-9.856-40.619-24.661l-3.868 2.787c-7.282 43.748-35.542 92.985-69.291 92.985-7.964 0-15.602-2.73-22.756-7.495-12.686 20.864-29.681 35.94-48.355 35.94-26.354 0-49.351-30.01-61.653-64-10.952 12.942-23.965 21.333-37.903 21.333-36.096 0-65.905-56.306-70.5-102.002a11 11 0 0 1-.554-.483 37.3 37.3 0 0 1-14.279 2.93c-39.268 0-71.111-66.646-71.111-113.778v-1.152C149.134 558.25 128 481.806 128 408.889c3.556-131.556 124.217-273.778 312.889-273.778 64.1 0 124.075 6.756 175.331 23.111C626.418 133.832 652.316 128 682.667 128"/><path fill="#191919" d="m668.444 113.778-5.29.057c-15.616.327-29.156 2.147-41.117 6.115l-3.356 1.195-3.37-1.195c-13.299-4.409-28.545-6.172-46.422-6.172l-4.722.042c-20.238.37-37.191 3.243-51.385 9.87l-.782.385-.768-.399c-15.303-7.125-33.792-9.898-56.12-9.898l-5.292.057c-15.616.327-29.155 2.147-41.116 6.115l-3.356 1.195-3.371-1.195c-13.298-4.409-28.544-6.172-46.421-6.172l-3.954.028c-41.742.711-72.078 12.843-86.471 41.998l-.342.712-2.133.056c-56.974 2.006-91.99 27.08-91.99 85.206l.114 5.461c.143 3.684.427 7.41.854 11.193l.313 2.36-.939.257c-35.968 10.098-57.23 35.712-57.23 80.284l.114 5.547c.142 3.74.455 7.538.896 11.392l.156 1.323-.939.71c-18.574 14.422-28.672 36.922-28.672 66.362l.086 4.807c1.01 28.9 10.95 61.44 26.453 87.196l3.1 4.95-.327 2.318a117 117 0 0 0-.867 14.506l.085 4.936c1.081 29.852 11.69 63.7 28.146 89.827l.597.925.029.44c4.295 59.094 39.893 120.975 86.997 130.233l3.499.583.412 1.622c13.767 52.764 49.493 98.546 93.568 98.546l3.47-.086a66.1 66.1 0 0 0 23.083-5.546l.725-.342.669 1.693c17.11 42.752 48.284 75.392 85.83 75.392l3.699-.114a62 62 0 0 0 7.324-.853l1.806-.37 1.82 2.048c15.873 17.35 34.945 27.733 56.463 27.733l3.37-.085c20.14-1.024 38.045-11.193 53.078-27.634l1.82-2.062 1.82.384a64.7 64.7 0 0 0 11.023.953l3.115-.071c36.153-1.75 66.09-33.764 82.716-75.321l.654-1.693.726.342a65.85 65.85 0 0 0 26.567 5.632l3.058-.072c42.666-2.062 77.056-46.933 90.51-98.46l.398-1.65.384-.028c48.384-7.054 85.419-69.888 90.055-129.351l.114-1.906.597-.896c17.351-27.591 28.217-63.758 28.217-94.749l-.1-4.963a113 113 0 0 0-.767-9.543l-.342-2.304.143-.214c18.09-27.804 29.51-64.924 29.51-96.753l-.056-3.983c-.882-27.505-10.894-48.64-28.615-62.378l-.953-.711.17-1.323c.669-5.774 1.01-11.449 1.01-16.939l-.057-3.769c-1.166-42.24-22.243-66.716-57.173-76.515l-.953-.256.327-2.361c.64-5.689.967-11.25.967-16.654l-.042-3.74c-1.494-55.467-36.196-79.517-91.961-81.466l-2.134-.056-.327-.712c-14.848-30.08-46.649-42.026-90.425-42.026m0 56.889c28.758 0 38.912 4.65 41.714 17.749l.285 1.607a28.444 28.444 0 0 0 30.492 23.794c3.869-.327 8.135-.484 12.843-.484 33.863 0 42.666 5.69 42.666 28.445 0 10.154-2.02 22.186-5.802 34.275a28.444 28.444 0 0 0 26.169 36.935c28.942.982 36.522 6.585 36.522 28.345 0 7.922-1.237 17.067-3.612 26.525a28.444 28.444 0 0 0 16.355 33.08l2.048.783c9.956 3.413 13.654 8.747 13.654 24.946 0 23.708-10.71 54.641-25.415 72.803a28.44 28.44 0 0 0-5.547 24.548l.668 2.318c1.167 3.527 1.85 8.192 1.85 14.108 0 22.187-9.43 51.044-22.998 69.647a28.44 28.44 0 0 0-5.447 16.469c-.185 18.532-6.87 41.941-17.323 60.089-9.386 16.313-19.399 24.462-25.344 24.462a7.8 7.8 0 0 1-2.275-.37l-1.337-.497a28.444 28.444 0 0 0-39.21 21.46l-.271 2.02c-1.764 18.731-9.003 40.107-19.058 56.064-8.875 14.123-17.792 20.879-23.182 20.879-4.167 0-10.766-4.167-18.162-13.682a28.444 28.444 0 0 0-39.111-5.604l-3.854 2.788a28.44 28.44 0 0 0-11.42 18.403c-6.145 36.978-28.246 69.206-41.23 69.206a11.15 11.15 0 0 1-5.306-1.693l-1.692-1.038a28.444 28.444 0 0 0-40.05 8.903c-9.13 14.976-18.46 22.272-24.064 22.272s-14.933-7.296-24.05-22.272a28.444 28.444 0 0 0-38.13-10.098l-1.948 1.21c-2.944 1.948-5.205 2.716-6.983 2.716-12.985 0-35.086-32.214-41.245-69.206a28.44 28.44 0 0 0-11.633-18.574l-3.513-2.517a28.444 28.444 0 0 0-39.21 5.504c-7.396 9.515-14.01 13.682-18.177 13.682-5.376 0-14.293-6.756-23.182-20.879-10.055-15.971-17.294-37.333-19.058-56.078a28.444 28.444 0 0 0-37.66-24.178l-1.906.74a8.9 8.9 0 0 1-3.527.84c-5.831 0-15.616-7.866-24.918-23.724-10.382-17.706-17.194-40.732-17.72-59.377l-.015-1.536a28.44 28.44 0 0 0-5.461-16.37c-13.554-18.603-22.997-47.474-22.997-69.66 0-4.921.469-8.989 1.308-12.246l.54-1.877a28.44 28.44 0 0 0-4.878-26.88c-14.705-18.134-25.415-49.067-25.415-72.775 0-15.247 3.271-20.879 11.975-24.32l1.693-.64a28.444 28.444 0 0 0 18.39-33.863 110.9 110.9 0 0 1-3.613-26.51c0-21.76 7.594-27.364 36.522-28.346a28.444 28.444 0 0 0 26.17-36.963c-3.784-12.046-5.803-24.093-5.803-34.247 0-22.756 8.803-28.445 42.666-28.445 4.708 0 8.989.157 12.886.484a28.444 28.444 0 0 0 30.008-21.632l.441-2.176c2.319-14.308 12.09-19.342 41.999-19.342 15.744 0 26.638 1.849 33.109 5.205l1.522.882a28.44 28.44 0 0 0 28.16 1.223l2.176-1.237c6.2-3.912 17.55-6.073 34.588-6.073 18.788 0 30.421 2.617 36.04 7.068l1.052.925a28.444 28.444 0 0 0 37.845 1.578l1.806-1.607c5.12-4.978 16.996-7.964 37.035-7.964 15.744 0 26.638 1.849 33.11 5.205l1.521.882a28.44 28.44 0 0 0 28.16 1.223l2.176-1.237c6.2-3.912 17.55-6.073 34.588-6.073"/><path fill="#fff" d="M281.543 302.876a14.222 14.222 0 0 1 21.277 18.86l-7.965 9.2a106.5 106.5 0 0 0-7.85 10.838 14.222 14.222 0 0 1-23.993-15.289c2.403-3.754 4.721-7.054 7.253-10.325l2.603-3.271c2.247-2.745 3.868-4.594 8.675-10.013"/><path fill="#86bd42" d="M512 640q14.229 42.667 42.667 42.667c28.438 0 33.18-14.223 42.666-42.667zm85.333-341.333q14.23 42.666 42.667 42.666c28.437 0 33.18-14.222 42.667-42.666zM412.444 768q14.23 42.667 42.667 42.667c28.437 0 33.18-14.223 42.667-42.667zm-85.333-85.333q14.23 42.666 42.667 42.666c28.437 0 33.18-14.222 42.666-42.666zm298.667 14.222q14.229 42.666 42.666 42.667c28.437 0 33.18-14.223 42.667-42.667zm64-312.889q14.229 42.667 42.666 42.667 26.176 0 42.667-42.667zM234.667 583.111q14.229 42.667 42.666 42.667 26.176 0 42.667-42.667zm512-113.778Q760.896 512 789.333 512q26.176 0 42.667-42.667zm-28.445 128Q732.452 640 760.89 640q26.175 0 42.667-42.667zm-128-56.889q14.23 42.667 42.667 42.667 26.175 0 42.667-42.667z"/><path fill="#d8d8d8" d="M277.96 411.861c-6.884 7.78-11.55 13-17.167 21.831"/></svg>