<svg xmlns="http://www.w3.org/2000/svg" viewBox="0 0 1024 1024"><path fill="#945c3f" d="m702.714 40.536 58.188 86.664c18.842 33.962 39.194 91.417 15.557 126.02-28.066 41.078-82.884 50.789-129.783 47.333-161.15-11.853-465.617 1.8-579.647 135.96-13.517 15.907-19.942 35.26-38.289 47.437-13.491-42.624-14.472-56.925-5.7-103.253C55.56 208.906 212.299 64.003 377.383 19.681 500.39-13.343 586.781-3.752 702.714 40.536m-308.29 42.248c-42.111-18.543-88.54 1.22-125.328 23.714-32.64 19.96-71.534 52.872-72.2 93.704 6.204 4.3 12.084 14.993 18.808 16.956 39.287 11.451 111.222-26.633 141.26-52.352 22.544-19.302 55.073-52.096 37.452-82.03z"/><path fill="#7f4d36" d="M649.51 661.314c-2.996-15.454-4.029-24.525-5.914-41.387 37.273.444 77.917-8.738 113.85-19.174 37.18-10.786 124.979-41.915 137.71-81.049 15.812-48.614-14.907-74.094-52.351-96.033-144.17-84.48-449.754-86.485-602.91-27.136-45.413 17.596-149.135 67.729-107.536 128.63 39.842 58.334 174.676 88.32 242.166 94.942 17.553 1.723 15.94-4.685 14.856 17.553-1.271 7.065.888 16.11.009 23.67l-17.75-.025c-108.5-12.364-293.143-46.284-340.203-159.58-3.013-7.245-1.417-13.713-2.706-17.784 18.347-12.177 24.773-31.53 38.29-47.436 114.03-134.16 418.496-147.813 579.647-135.96 46.907 3.447 101.716-6.255 129.782-47.334 23.637-34.603 3.285-92.057-15.556-126.02l-58.188-86.663c166.833 63.734 325.936 243.112 301.42 434.445-7.637 59.588-84.582 113.8-135.79 136.165-67.404 29.448-145.765 43.904-218.835 50.167z"/><path fill="#ecd1b3" d="M549.004 460.304c9.856 38.741 23.382 82.073 29.449 121.318 13.09 84.718 3.575 225.431-42.07 300.6-30.847 50.8-67.915 67.644-126.206 75.102l-79.914-12.22c-34.492-67.694 10.94-134.893 34.21-199.32 9.01-24.934 14.899-51.054 24.866-75.638l-17.69-8.824 17.75.026c.87-7.56-1.28-16.606-.01-23.671.095-.512 5.36-1.494 6.008-8.534 2.961-32.187-8.746-119.303 8.738-139.305l60.288-28.399c34.193-5.222 50.926-9.472 84.599-1.126z"/><path fill="#ddba94" d="M643.596 619.927c1.885 16.854 2.918 25.933 5.913 41.387.435 2.244-7.398 29.038-6.152 44.612 5.726 71.62 6.289 146.337-20.37 215.61-33.1 86.015-93.66 110.514-183.217 100.282-46.83-5.35-88.447-35.361-109.516-76.714l79.914 12.22c58.291-7.458 95.368-24.303 126.207-75.101 45.645-75.17 55.16-215.883 42.07-300.601-6.068-39.236-19.585-82.568-29.45-121.318 28.51 7.057 78.26 22.878 82.765 56.175 3.635 26.914 3.038 60.705 6.024 88.763.675 6.34 5.47 11.673 5.812 14.694z"/><path fill="#ad7759" d="M394.424 82.784c17.613 29.935-14.916 62.72-37.452 82.03-30.037 25.72-101.973 63.804-141.26 52.352-6.724-1.963-12.603-12.655-18.807-16.956.666-40.831 39.56-73.753 72.2-93.703 36.787-22.494 83.216-42.257 125.328-23.714z"/><path fill="#cda989" d="M643.596 619.927c-.342-3.02-5.137-8.354-5.812-14.694-2.986-28.057-2.389-61.849-6.024-88.763-4.497-33.297-54.254-49.117-82.764-56.174-33.672-8.337-50.406-4.088-84.599 1.126l-60.287 28.399c-17.476 20.01-5.777 107.118-8.738 139.305-.649 7.04-5.914 8.022-6.008 8.534 1.084-22.238 2.705-15.83-14.856-17.553-67.49-6.614-202.324-36.608-242.166-94.941-41.6-60.91 62.122-111.035 107.537-128.63 153.154-59.35 458.74-57.353 602.909 27.135 37.444 21.939 68.172 47.42 52.351 96.033-12.732 39.125-100.53 70.255-137.71 81.05-35.933 10.427-76.586 19.617-113.85 19.173zm-118.903-227.47-8.345 36.923 15.718 3.558 8.345-36.923zm-164.88 85.562c-17.825-25.079-54.92-26.265-82.764-29.542-3.336 14.6 6.068 12.459 16.17 16.273 20.566 7.774 44.527 14.114 66.586 13.26zm-124.15 53.222c18.364-1.066 37.802 1.63 56.03-.12 7.014-.673 44.45-8.2 44.44-14.65-7.602-11.273-15.231-8.645-26.58-8.927-20.002-.503-40.952 5.735-60.476 10.676-10.777 2.722-15.931-3.013-13.414 13.03z"/><path fill="#b89071" d="M235.663 531.241c-2.517-16.042 2.637-10.3 13.414-13.03 19.524-4.94 40.482-11.179 60.476-10.675 11.349.281 18.969-2.347 26.58 8.926.01 6.45-37.426 13.977-44.44 14.651-18.228 1.75-37.666-.947-56.03.12z"/><path fill="#b69175" d="M359.814 478.02c-22.059.844-46.029-5.488-66.586-13.261-10.103-3.823-19.507-1.673-16.17-16.273 27.844 3.276 64.93 4.454 82.764 29.542z"/><path fill="#b48a6b" d="m516.343 429.37 8.348-36.922 15.723 3.555-8.348 36.92z"/></svg>