<svg xmlns="http://www.w3.org/2000/svg" viewBox="0 0 1024 1024"><path fill="#a2dd9e" d="m834.39 138.539 50.275 50.29-170.951 170.95-50.29-50.275z"/><path fill="#191919" d="m899.74 173.739-50.275-50.29a21.333 21.333 0 0 0-30.165 0L648.334 294.414a21.333 21.333 0 0 0 0 30.166l50.276 50.29a21.333 21.333 0 0 0 30.18 0l170.95-170.966a21.333 21.333 0 0 0 0-30.165m-45.255 15.075L713.7 329.614l-20.11-20.11 140.8-140.8z"/><path fill="#b4cb33" d="M541.924 883.442c120.106-40.064 198.442-159.844 218.965-293.22 13.34-86.755 168.064-273.99 34.603-394.098-133.462-120.12-275.343 59.122-354.603 88.32-126.791 46.706-277.333 120.89-298.667 270.223-11.022 77.127-7.11 234.666 56.89 298.666s222.69 70.144 342.812 30.109"/><path fill="#d4e66c" d="M485.035 755.442C605.14 715.378 683.477 595.598 704 462.222c8.078-52.48 67.897-141.738 84.338-230.684C789.333 199.11 682.667 170.667 640 192s-98.532 84.58-177.778 113.778C335.432 352.484 207.46 506.88 163.556 576s1.308 168.15 15.644 175.431c76.302 38.685 204.729 37.703 305.835 4.01"/><path fill="#191919" d="M440.889 284.444c79.246-29.198 221.141-208.44 354.603-88.32 132.124 118.898-18.205 303.616-34.162 391.467l-.441 2.631c-20.523 133.376-98.859 253.17-218.965 293.22-120.121 40.035-278.813 33.891-342.813-30.109s-67.911-221.54-56.889-298.666C163.556 405.333 314.098 331.15 440.89 284.444m285.184-66.588c-37.419-15.417-80.64-.796-149.973 47.076l-55.51 39.338-3.114 2.134c-22.144 15.075-39.467 24.988-56.918 31.43-160.569 59.137-247.907 126.11-262.016 224.882-13.127 91.876 2.958 212.552 40.79 250.397 42.865 42.851 176.184 52.48 284.586 16.355 91.335-30.435 159.815-123.946 179.77-241.777l.98-6.116c2.646-17.28 8.363-35.3 17.536-57.827l2.361-5.732c2.503-5.973 5.149-12.06 8.391-19.342l19.74-43.876c19.471-43.804 30.579-74.567 36.225-103.651 9.515-49.152.839-83.641-31.488-112.74-10.724-9.657-21.134-16.341-31.36-20.551"/><path fill="#fff" d="M507.08 370.66a14.222 14.222 0 1 1 9.84 26.68 1256 1256 0 0 0-41.6 16.128c-70.684 28.914-129.706 65.622-165.859 107.79a14.222 14.222 0 1 1-21.589-18.517c39.609-46.222 102.187-85.12 176.668-115.598a1284 1284 0 0 1 42.54-16.498zm96.966-62.777a14.222 14.222 0 1 1 16.27 23.338l-13.653 9.643-17.067 12.231a14.222 14.222 0 0 1-17.962-21.973l1.564-1.266 25.614-18.304z"/></svg>