<svg xmlns="http://www.w3.org/2000/svg" viewBox="0 0 1024 1024"><path fill="#f9c131" d="M12.416 632.508c-11.75-35.9-6.51-81.255-3.413-118.127l7.347-5.06 1001.19-174.464.034 425.028-12.441 21.444c-20.173 2.406-39.305 8.85-59.068 12.28-260.369 45.192-520.508 91.246-781.858 136.328C109.739 939.332 54.357 945.05 0 954.957v-161.22c90.377-11.597 100.693-141.918 12.407-161.22zm835.746-197.419c-27.06 4.156-50.918 31.01-53.896 57.993-6.938 62.941 62.464 96.563 108.723 52.838 41.557-39.279.819-119.373-54.827-110.84zM277.82 588.39c0-21.649-17.562-39.193-39.22-39.193s-39.219 17.544-39.219 39.193 17.562 39.194 39.22 39.194 39.219-17.545 39.219-39.194m300.143-1.647c0-16.35-13.261-29.61-29.628-29.61s-29.628 13.26-29.628 29.61 13.261 29.611 29.628 29.611 29.628-13.26 29.628-29.61M754.705 709.99c0-21.947-17.8-39.74-39.765-39.74s-39.766 17.793-39.766 39.74 17.8 39.74 39.766 39.74 39.765-17.792 39.765-39.74m-384.375-8.115c-15.932 2.944-47.01 17.323-56.867 29.978-32.34 41.514-18.474 99.114 42.292 85.666 19.183-4.25 57.233-35.874 63.36-54.477 12.16-36.932-9.012-68.514-48.785-61.167"/><path fill="#eea823" d="M848.162 435.09c55.646-8.543 96.384 71.56 54.827 110.839-46.26 43.724-115.661 10.103-108.723-52.839 2.978-26.99 26.837-53.845 53.896-57.992z"/><path fill="#eca622" d="M370.33 701.875c39.765-7.356 60.945 24.235 48.785 61.167-6.127 18.611-44.169 50.236-63.36 54.477-60.766 13.448-74.624-44.143-42.292-85.666 9.856-12.655 40.935-27.034 56.867-29.978M675.174 709.99a39.765 39.74 0 1 0 79.531 0 39.765 39.74 0 1 0-79.53 0"/><path fill="#eca924" d="M199.381 588.39a39.22 39.194 0 1 0 78.439 0 39.22 39.194 0 1 0-78.439 0"/><path fill="#eda824" d="M518.707 586.743a29.628 29.61 0 1 0 59.256 0 29.628 29.61 0 1 0-59.256 0"/><path fill="#fdde73" d="M12.416 632.508c-3.575-.785-8.414.589-12.407.008l2.944-124.185c29.909-30.277 66.858-53.206 99.55-80.333 65.1-54.033 139.818-131.268 207.871-176.708 25.959-17.332 47.429-9.037 71.066-40.593 34.133-45.577 38.426-45.133 80.922-80.342 14.882-12.33 61.397-59.196 75.264-61.26 6.365-.58 11.912 4.88 17.826 5.17C722.483 82.356 974.985 164.558 1024 343.92l-.247 437.436c-6.093.478-12.621-.734-18.629-.017l12.442-21.445-.034-425.028L16.35 509.321l-7.347 5.06c-3.098 36.872-8.337 82.227 3.413 118.127m582.332-422.58c1.169-.93 11.4-22.024 13.312-26.854-6.23-23.065-120.465-28.305-96.487 21.888 15.676 13.577 36.002 14.089 56.022 11.955 3.763-.4 26.06-6.11 27.153-6.988m172.808 14.652c-26.803 3.584-72.618 16.888-65.834 50.748 9.395 31.565 106.214 27.017 129.638 12.988 3.712-2.227 23.987-22.707 24.73-25.14-11.051-32.537-58.428-42.615-88.534-38.587zm-248.499 80.256c-10.923 2.398-21.453 12.647-28.877 20.753 7.177 25.814 37.47 24.687 57.745 14.294 36.864-18.893.726-41.54-28.868-35.047m-235.716 37.248c-10.206 2.227-29.304 15.352-29.304 26.88 7.006 41.182 103.595 33.212 111.65 5.666 9.984-34.15-60.5-37.307-82.338-32.546z"/><path fill="#f9c53a" d="M767.556 224.58c30.114-4.027 77.483 6.05 88.534 38.588-.743 2.432-21.018 22.912-24.73 25.14-23.424 14.028-120.243 18.585-129.638-12.989-6.784-33.86 39.031-47.163 65.834-50.747z"/><path fill="#f9c237" d="M283.34 342.084c21.846-4.761 92.323-1.595 82.339 32.546-8.047 27.537-104.644 35.516-111.65-5.666 0-11.528 19.097-24.653 29.303-26.88z"/><path fill="#f8c33c" d="M594.748 209.929c-1.093.87-23.39 6.587-27.153 6.988-20.02 2.134-40.337 1.622-56.022-11.955-23.987-50.184 90.249-44.953 96.487-21.888-1.912 4.839-12.135 25.924-13.312 26.855"/><path fill="#f7c646" d="M519.057 304.836c29.594-6.494 65.732 16.154 28.868 35.047-20.283 10.393-50.577 11.52-57.745-14.294 7.433-8.106 17.963-18.355 28.877-20.753"/></svg>