<svg xmlns="http://www.w3.org/2000/svg" viewBox="0 0 1024 1024"><path fill="#fe8a23" d="m1002.497 678.767 2.807-18.475 11.247-48.495c1.621-7.006 1.314-16.179-.11-22.86l-3.977 18.91c-1.562 7.44-2.45 15.965-5.487 21.597L993.81 653.85c-6.468 11.98-12.98 24.09-20.745 34.858l-21 29.116c-2.978 4.122-10.667 11.281-14.89 14.805l-17.06 14.26c-10.137 8.473-20.795 13.858-34.858 19.481l-2.15-11.247c12.655-30.976 21.273-64.008 25.95-98.585l3.729-27.563c5.555-41.071 5.154-87.356 0-128.427l-3.132-24.909c-.82-6.502-1.98-14.788-3.499-20.94l-8.55-34.552c-6.963-28.126-20.642-67.055-33.843-92.126l-10.641-20.207c-4.89-9.275-11.418-18.986-17.622-27.468l-15.872-21.675c-14.48-19.78-56.925-57.66-78.105-69.419l-25.72-14.276c-1.442-.401-4.505 3.465-4.275 5.146l27.162 19.012c19.14 13.397 34.253 29.431 49.647 48.11 16.742 20.319 29.115 42.906 41.668 65.938 25.813 47.385 45.303 108.766 52.215 162.372l2.808 21.803c3.67 28.484 5.333 66.722 2.85 94.933l-2.978 33.946-2.586 21.316-2.824 18.901c-4.907 32.845-18.705 88.278-36.608 113.28-.64.35-4.531 2.893-5.769 4.122l-18.184 18.184c-1.23 1.23-3.738 4.856-4.088 5.504-1.246 1.05-4.522 1.912-5.896 2.8l-15.104 9.719c-12.911 8.311-22.426 10.854-25.174 15.155-.785.137-2.201.17-3.072.196l-3.029 2.902c-2.313.836-6.588 2.278-8.84 2.875l-12.937 3.43-2.773 3.013-11.879 3.072-3.61 2.594-5.64.214c-1.98.076-6.238 2.133-6.647 2.841l-20.899-.085c-8.106-.034-17.69-3.866-26.47-7.373l-1.032-13.978 2.065-9.173 4.497-19.96c5.086-22.596 11.05-54.74 13.721-77.917l3.243-28.126c1.015-8.79 2.15-18.671 2.526-27.221l2.39-55.33c.28-6.435 1.697-15.079 1.501-21.556l-1.502-49.305-2.201-52.515c-.359-8.601-1.878-18.508-2.868-27.409l-3.089-27.716-2.893-21.598-3.225-20.975c-.76-4.915-1.707-10.854-2.833-15.77l-9.814-42.905c-3.2-13.977-22.937-67.848-30.25-82.68-2.714-5.512-47.488-83.285-50.833-60.304 3.882 5.265 9.224 12.842 10.922 16.972l19.653 47.727c2.61 6.34 5.137 16.384 7.04 23.757l8.234 31.83a538 538 0 0 1 10.966 53.222l3.31 21.538 3.047 21.444 2.722 21.573 2.85 33.809 2.381 42.717c.222 4.02 1.63 11.358 1.638 15.471l.043 98.74c0 5.452-1.331 13.286-1.621 18.602l-2.637 48.53-1.57 21.887c-.53 7.433-1.306 14.848-2.321 21.871l-3.072 21.078-3.584 24.576-2.39 16.392-10.922 36.233-7.655 7.16c-8.746 8.174-19.9 15.547-30.685 21.085l-16.24 8.15-52.377 15.854-58.752-.657c-4.796-.051-15.599-2.85-19.9-4.343l-18.654-6.503c-4.463-1.553-13.098-7.048-16.819-9.787l-8.985-6.605c-1.323-3.542-5.615-10.189-6.784-14.362l-7.348-26.248c-3.336-11.921-5.196-24.158-7.108-36.386l-2.475-15.838-3.097-20.856-2.901-24.738c-6.068-51.686-6.392-169.941-.137-221.192l3.004-24.636 2.918-21.598 3.192-21.444 5.52-31.019c7.527-42.257 18.987-82.432 33.306-122.377 7.757-21.649 17.442-41.326 29.014-61.081 14.677-25.063 12.339-13.389 22.331-34.38-6.331.238-11.025 1.108-13.269 2.832l-14.14 10.837-15.001 19.482c-50.816 65.997-80.606 171.529-90.437 252.902l-3.302 27.333-2.543 25.08c-1.408 13.891-.998 28.04-1.98 42.572l-1.28 18.859c-1.519 22.391-2.918 44.364-.307 66.816l1.434 12.356 1.809 34.09 2.509 31.07c1.51 18.723 7.637 54.58 12.629 72.252l14.123 50.074c-.128 2.108-3.286 10.948-6.486 12.399-26.334 11.912-48.52 6.289-74.965-1.383-22.008-6.383-54.093-21.726-71.86-35.123l-11.946-9.011c-14.071-24.593-22.57-29.551-35.883-66.645l-8.994-25.071c-1.97-5.504-4.173-12.715-5.367-18.466l-6.972-33.673c-1.655-7.979-3.31-16.998-4.053-25.335l-2.483-27.947c-1.997-22.477-2.057-45.116-.018-67.533l2.816-30.805c.64-7.049 1.34-14.524 2.646-21.615l8.013-43.298c2.756-14.882 7.065-28.834 11.52-43.042l3.276-10.462 9.49-28.45c1.646-4.933 5.887-12.254 8.03-17.408 21.879-52.72 56.268-103.424 100.582-139.512l13.85-11.281c3.165-2.577 8.38-6.707 11.349-8.03 9.292-4.13 26.188-16.213 36.266-19.285l52.805-16.111c13.397-4.088 24.73-2.552 39.031-.341l30.55 4.718c25.787 22.06 52.838-17.757 115.55 13.065 19.737-4.821 16.28-7.945 30.532-13.184 8.098-2.978 24.277-4.745 35.993-5.29l17.144-.811c1.672-4.634 3.677-11.128 6.314-12.263l17.101-7.415c-16.563-12.459-36.087-14.02-37.538-19.678 19.772-.043 33.22 18.116 48.734 18.312l43.102.547c21.854.281 74.965 26.103 94.882 38.17 72.678 44.031 133.487 122.52 162.986 202.103 25.387 68.488 35.09 128.204 30.302 201.557l-1.04 16.026c-.444 6.767-1.272 14.907-2.706 21.359l-13.022 58.58-3.558 3.218z"/><path fill="#fe8a23" d="m486.094 118.656-3.311 6.835c-7.91-6.477-18.774-10.189-30.473-9.916l-45.807 1.084c-3.703.086-47.812 13.474-52.429 21.231l23.749 7.783c1.092.358 3.473 4.795 3.823 5.845.35 1.058-2.023 2.611-3.559 2.884-24.388 4.344-49.766 10.513-73.293 20.506-9.531 4.053-50.901 25.523-52.343 33.647-14.208 9.19-39.842 32.384-50.526 46.686l-29.124 39.014c-3.388 4.54-8.389 11.528-10.77 16.282l-20.82 41.582c-2.603 5.197-4.976 11.836-7.211 17.664l-14.49 37.829c-8.559 22.357-19.208 73.591-21.598 98.722l-2.33 24.473-1.834 24.815c-1.254 16.965-1.63 35.072-.009 52.088l2.654 27.836c.632 6.63 1.741 14.882 3.055 21.17l6.955 33.136c2.944 14.003 14.438 47.24 20.616 61.218l11.299 25.532c-1.349-3.047 7.936 19.285 1.885 18.33-7.535-1.195-20.616-10.027-28.083-15.352l-14.865-10.607-25.591-18.244c-3.78-2.688-8.773-7.92-12.348-11.64l-3.2-3.336c-.589-.615-2.193-.316-1.929.494 2.808 8.397 7.56 15.94 13.611 24.832l10.146 14.908c15.471 22.733 7.672 5.709 14.686 22.528-8.482-3.882-13.525-13.56-17.45-19.592l-9.959-15.275c-13.739-21.086-25.984-42.095-35.396-65.818C.155 623.07-2.295 567.86 1.238 488.354c1.596-35.823 23.364-109.645 40.934-142.48l14.166-26.488C76.33 282 104.21 249.549 134.92 219.759c5.043-4.89 10.803-10.104 16.316-14.242l23.339-17.57c29.047-21.871 93.056-51.525 129.903-52.796l47.044-1.63c32.145-22.451 85.956-29.875 120.755-19.132l13.824 4.267z"/><path fill="#fa6511" d="M1002.497 678.767c-1.937 12.783-22.076 59.383-30.123 73.318-34.005 58.923-66.44 93.782-125.355 127.88-28.253 16.35-53.538 23.706-83.993 26.198-1.306.111-3.268 2.492-3.414 3.08-6.135 4.438-19.515 11.316-27.332 12.366-7.714-.359-14.737 1.544-22.912 4.121l-26.257 8.286-48.956-.887-18.397-3.772-15.924-1.954 6.486-3.2c2.688-1.323 7.424-3.798 9.139-5.325l14.754-13.159.691 13.526c.35 6.826 21.231 20.207 44.186 3.874l18.04-12.826c6.408-4.556 29.456-6.81 28.082-15.12-1.39-8.406-11.195-14.303-20.599-18.97l-24.311-12.084 10.112-4.667 2.926-3.158 20.899.086 4.608-.128c1.092-.034 1.51-1.4 2.04-2.714l5.64-.213c1.263-.051 3.686-2.236 3.61-2.594l11.878-3.072c5.58-.487 12.151-2.748 15.71-6.434 2.252-.598 6.527-2.04 8.84-2.876 1.118-.401 2.551-2.134 3.03-2.902.87-.025 2.286-.06 3.071-.196 2.774-.486 8.824-2.27 11.281-3.678l19.857-11.366c3.124-1.784 7.885-7.526 9.14-9.839 1.374-.887 4.65-1.75 5.896-2.799l11.819-9.967c3.746-3.157 7.748-6.11 10.777-8.2l-1.612 7.133c-2.97 13.176-7.774 26.326-14.507 38.537-3.994 7.253-9.08 17.348-13.56 22.946l-21.017 26.283c-4.292 5.367-9.557 10.402-14.293 14.95 1.22.17 7.023 1.144 8.55.905l15.795-2.5c10.436-1.656 16.077-11.154 33.323-15.514l-7.023-.896c-2.074-.265-2.842-7.936-1.604-9.976l21.384-35.148 12.698-21.803c5.973-10.257 11.127-21.12 16.503-32.145l11.05-27.042 2.151 11.247c14.072-5.624 24.721-11.008 34.859-19.482l17.058-14.26c4.216-3.523 11.913-10.683 14.89-14.804l21.001-29.116c7.774-10.77 14.285-22.878 20.745-34.859l13.167-24.405c3.038-5.624 3.917-14.157 5.487-21.598l3.976-18.91c1.425 6.69 1.741 15.864.111 22.86l-11.247 48.496-2.807 18.474zM797.509 847.053l9.259-14.857-13.654 8.312c-1.203.734-4.932 5.24-3.532 5.435zm-51.73 40.217-11.98 3.78 2.005 6.358 11.981-3.78z"/><path fill="#788d2a" d="m624.453 39.433 3.055-4.958-16.316-20.37c-8.806 9.123-22.22 5.325-31.966 19.525-14.66 21.367-23.944 44.715-27.562 70.408l-3.405 24.2-3.413 25.106c-.359 2.654-.052 9.301 2.32 10.155l8.602 3.106c4.992 1.8 9.566 3.806 14.934 6.204.187.042 8.695-.692 10.717-1.98l16.7-10.65c-20.992-26.197-16.939-18.073-16.648-52.813 0-.887 3.737-4.317 3.328-3.686l3.08 11.785c-13.329 24.67 14.703 35.319 15.94 48.913-14.25 5.24-10.794 8.362-30.532 13.184-62.703-30.823-89.762 8.994-115.55-13.065-3.362-11.102 9.361-6.58 25.063-39.006l3.31-6.835c8.653-17.869 10.078-76.092 69.76-110.967 46.243-27.017 75.785 25.787 74.83 26.58l-6.23 5.164z"/><path fill="#fb6c13" d="M138.335 776.61c1.587 1.468 5.034 5.828 6.639 8.619l18.466 32.06c5.043 8.763 16.503 22.297 24.251 30.617 30.499 32.777 4.77 31.684 22.537 37.752l19.03 6.493c2.116.726 7.492 2.091 10.47 2.33l15.377 1.22 25.284 3.32c7.185 8.917 17.954 12.638 27.05 13.892 18.578 2.56 3.969 12.032 33.178 10.385 4.873-.273 11.7.359 16.17 1.954 34.953 12.459 29.833.982 45.91 1.374 6.153.145 17.306-1.425 22.699-3.755 4.548-1.962 16.384 4.02 21.973 7.126 31.36 17.408 20.6 5.453 45.893 12.27 29.644 7.996 88.968-3.029 98.218-15.888l8.354 1.032 15.924 1.954 18.397 3.772 48.956.888 26.257-8.286c8.184-2.577 15.198-4.48 22.912-4.122-1.647 4.821-29.337 11.588-36.446 12.792l-19.225 3.25c-19.883 3.363-42.291 1.443-60.903-4.676-25.694-8.439-20.949 4.259-55.73 12.937-3.286.82-10.198 2.321-13.228 2.406l-32.938.99c-28.246.854-54.767-2.39-79.778-15.855-8.85-4.761-18.51-3.012-28.322-1.194l-18.654 3.456c-4.66.862-15.505 1.05-20.327.367l-19.14-2.705c-27.802-3.926-53.393-13.253-77.372-26.983-24.217-13.867-42.888 5.82-127.061-56.917-6.05-4.506-12.39-10.692-18.022-15.932l-24.21-22.52c-2.816-2.62-6.894-9.207-8.277-12.526-7.014-16.82.785.204-14.686-22.528L67.815 761.07c-6.05-8.892-10.803-16.444-13.61-24.832-.274-.81 1.34-1.1 1.928-.495l3.2 3.337c3.575 3.72 8.567 8.951 12.348 11.639l25.591 18.244 14.865 10.607c7.458 5.325 20.549 14.148 28.083 15.352 6.05.964-3.225-21.368-1.885-18.33z"/><path fill="#5c741e" d="m624.453 39.433-20.83 22.186c-10.393 11.068-13.739 28.612-18.833 42.052.41-.631-3.32 2.8-3.328 3.687-.29 34.73-4.343 26.607 16.649 52.813l-16.7 10.65c-2.023 1.288-10.53 2.022-10.718 1.979-5.359-2.398-9.941-4.403-14.933-6.204l-8.602-3.106c-2.372-.853-2.68-7.51-2.321-10.155l3.413-25.105 3.405-24.2c3.618-25.694 12.903-49.041 27.563-70.409 9.745-14.2 23.168-10.393 31.966-19.524l16.315 20.37-3.055 4.957z"/><path fill="#f85c08" d="M642.817 118.903c1.45 5.658 20.975 7.228 37.538 19.678l-17.1 7.416c-2.63 1.143-4.635 7.629-6.316 12.262l-17.143.81c-11.716.556-27.896 2.322-35.994 5.292-1.246-13.594-29.278-24.244-15.94-48.914 2.756-5.077 53.752-.119 54.946 3.448z"/><path fill="#fc6710" d="M759.604 909.244c.145-.598 2.108-2.978 3.413-3.08-.443.503-2.372 2.329-3.413 3.08"/><path fill="#ed5005" d="m396.869 856.798 9.89 26.385c9.19 24.525 12.655 23.16 18.637 39.688-5.393 2.322-16.538 3.9-22.699 3.755-.554-1.365-2.534-5.632-3.754-7.347l-20.37-28.638c-17.058-23.979-12.262-29.423-22.041-43.426l-14.123-50.074c-4.983-17.68-11.11-53.53-12.63-72.251l-2.508-31.07-1.809-34.09-1.434-12.357c-2.61-22.451-1.211-44.425.308-66.816l1.28-18.859c.99-14.532.571-28.68 1.98-42.573l2.542-25.08 3.303-27.331c9.83-81.374 39.629-186.906 90.436-252.903l15.002-19.481 14.14-10.838c2.244-1.715 6.937-2.594 13.269-2.833-9.993 20.984-7.655 9.319-22.332 34.381-11.571 19.746-21.257 39.433-29.013 61.082-14.31 39.953-25.78 80.12-33.306 122.376l-5.521 31.019-3.192 21.444-2.918 21.598-3.004 24.636c-6.246 51.25-5.93 169.506.137 221.192l2.901 24.738 3.098 20.856 2.474 15.838c1.912 12.228 3.772 24.473 7.109 36.386l7.347 26.248c1.169 4.173 5.461 10.82 6.784 14.362z"/><path fill="#ed4c03" d="M661.829 834.944c-8.38 3.191.981 6.34-6.69 21.555l-17.528 34.74c-2.244 4.445-7.594 10.64-7.398 14.489l-14.754 13.158c-1.715 1.528-6.451 4.003-9.14 5.325l-6.485 3.2-8.354-1.032c28.97-40.295 27.025-65.954 35.456-93.935l10.923-36.233 2.39-16.392 3.583-24.576 3.072-21.078c1.024-7.023 1.792-14.438 2.321-21.87l1.57-21.889 2.637-48.529c.29-5.324 1.622-13.15 1.622-18.602l-.043-98.74c0-4.104-1.408-11.451-1.639-15.47l-2.38-42.718-2.85-33.81-2.723-21.572-3.046-21.444-3.31-21.538a538 538 0 0 0-10.966-53.222l-8.235-31.83c-1.911-7.373-4.437-17.416-7.04-23.757l-19.652-47.727c-1.698-4.13-7.04-11.716-10.923-16.972 3.345-22.972 48.111 54.8 50.833 60.305 7.313 14.84 27.05 68.702 30.25 82.68l9.814 42.905c1.127 4.915 2.074 10.854 2.833 15.77l3.226 20.974 2.893 21.598 3.089 27.716c.99 8.9 2.509 18.808 2.867 27.41l2.202 52.514 1.501 49.305c.197 6.477-1.22 15.121-1.501 21.555l-2.39 55.33c-.367 8.551-1.51 18.433-2.526 27.222l-3.242 28.126c-2.671 23.168-8.628 55.321-13.722 77.918l-4.497 19.96-2.065 9.172z"/><path fill="#ef5004" d="M299.077 195.507c-2.97 1.323-8.175 5.444-11.35 8.03l-13.849 11.281c-44.314 36.08-78.703 86.784-100.582 139.512-2.142 5.154-6.383 12.475-8.03 17.408l-9.49 28.45-3.276 10.462c-4.454 14.208-8.764 28.168-11.52 43.042l-8.013 43.298c-1.314 7.091-2.005 14.566-2.645 21.615l-2.816 30.805c-2.048 22.426-1.988 45.065.017 67.533l2.483 27.947c.742 8.337 2.398 17.356 4.053 25.335l6.972 33.673c1.195 5.751 3.396 12.97 5.368 18.466l8.994 25.07c13.312 37.095 21.81 42.044 35.882 66.646 1.187 2.082 3.209 7.228 4.822 9.6l9.199 13.5c2.201 3.234 20.659 27.332 22.238 28.953l23.031 23.578c1.34 1.374 3.849 4.847 4.557 5.99l-15.377-1.22c-2.978-.239-8.354-1.604-10.47-2.33l-19.03-6.493c-17.775-6.068 7.962-4.975-22.537-37.752-7.748-8.32-19.2-21.854-24.251-30.617l-18.466-32.06c-1.605-2.782-5.052-7.151-6.64-8.619l-11.297-25.532c-6.187-13.977-17.682-47.223-20.617-61.218l-6.955-33.135c-1.322-6.289-2.423-14.54-3.055-21.17l-2.653-27.837c-1.622-17.024-1.246-35.131.008-52.087l1.835-24.815 2.33-24.474c2.389-25.13 13.038-76.364 21.597-98.722l14.49-37.828c2.227-5.828 4.608-12.459 7.21-17.664l20.822-41.583c2.38-4.753 7.381-11.742 10.769-16.282l29.124-39.014c10.675-14.302 36.318-37.495 50.526-46.686 1.792-1.16 5.922-2.654 8.337-4.01l12.928-7.28 22.016-12.373c1.647-.93 9.208-.665 8.388.59l-5.051 10.017z"/><path fill="#ee4d03" d="m883.107 755.132-11.05 27.042c-5.377 11.016-10.53 21.888-16.504 32.145l-12.698 21.803-21.384 35.148c-1.238 2.04-.47 9.711 1.604 9.976l7.023.896c-17.246 4.36-22.895 13.858-33.323 15.513l-15.795 2.5c-1.528.24-7.33-.733-8.55-.904 4.736-4.54 10-9.574 14.293-14.95l21.017-26.283c4.48-5.598 9.566-15.693 13.56-22.946 6.733-12.22 11.528-25.361 14.507-38.537l1.612-7.133c2.424-1.673 4.404-6.716 5.453-9.652 17.903-25.002 31.702-80.435 36.608-113.28l2.825-18.9 2.585-21.317 2.978-33.946c2.475-28.22.82-66.449-2.85-94.933l-2.807-21.803c-6.904-53.606-26.394-114.986-52.216-162.372-12.544-23.032-24.917-45.62-41.668-65.937-15.394-18.68-30.515-34.714-49.647-48.111l-27.161-19.012c-.222-1.681 2.833-5.547 4.275-5.146l25.72 14.276c21.179 11.76 63.615 49.639 78.105 69.419l15.872 21.675c6.212 8.482 12.74 18.193 17.621 27.468l10.641 20.207c13.201 25.071 26.88 64 33.843 92.126l8.55 34.552c1.52 6.144 2.68 14.43 3.5 20.94l3.131 24.91c5.163 41.07 5.564 87.347 0 128.426l-3.729 27.563c-4.676 34.577-13.295 67.61-25.95 98.585z"/><path fill="#fc6710" d="M591.48 926.379c-9.241 12.86-68.574 23.884-98.218 15.889-25.293-6.818-14.533 5.137-45.893-12.271-5.598-3.106-17.425-9.088-21.973-7.126-5.982-16.529-9.446-15.163-18.637-39.688l-9.89-26.385 8.986 6.605c3.72 2.73 12.356 8.234 16.819 9.787l18.654 6.503c4.3 1.502 15.104 4.292 19.9 4.343l58.751.657 52.378-15.855 16.239-8.149c10.786-5.538 21.94-12.902 30.686-21.086l7.654-7.16c-8.44 27.982-6.485 53.633-35.456 93.936"/><path fill="#fd6910" d="M356.532 847.206c9.78 14.004 4.992 19.448 22.042 43.427l20.369 28.637c1.22 1.724 3.2 5.982 3.754 7.348-16.068-.384-10.948 11.093-45.91-1.374-4.47-1.596-11.289-2.227-16.17-1.954-29.21 1.647-14.609-7.825-33.177-10.385-9.097-1.255-19.866-4.975-27.051-13.893l-25.284-3.32c-.709-1.134-3.217-4.616-4.557-5.99l-23.032-23.577c-1.578-1.622-20.036-25.72-22.237-28.954l-9.2-13.5c-1.612-2.372-3.635-7.517-4.82-9.6l11.946 9.012c17.766 13.406 49.86 28.74 71.86 35.123 26.444 7.671 48.63 13.295 74.965 1.382 3.2-1.45 6.357-10.29 6.485-12.399z"/><path fill="#f96b0c" d="M482.791 125.483c-15.701 32.426-28.424 27.904-25.062 39.006l-30.55-4.72c-14.293-2.21-25.634-3.746-39.031.342l-52.804 16.11c-10.078 3.073-26.974 15.156-36.267 19.286l5.052-10.018c.827-1.254-6.733-1.519-8.389-.589l-22.016 12.374-12.928 7.279c-2.414 1.356-6.545 2.85-8.337 4.01 1.434-8.115 42.812-29.593 52.344-33.647 23.518-9.992 48.904-16.17 73.293-20.505 1.536-.273 3.916-1.826 3.558-2.885-.35-1.058-2.73-5.487-3.823-5.845l-23.748-7.782c4.608-7.757 48.717-21.146 52.429-21.231l45.807-1.084c11.707-.273 22.562 3.439 30.472 9.916z"/><path fill="#fc6710" d="m689.332 856.294-2.927 3.158-10.112 4.667 24.311 12.084c9.404 4.676 19.209 10.564 20.6 18.97 1.374 8.31-21.675 10.564-28.083 15.12l-18.04 12.826c-22.954 16.324-43.844 2.944-44.185-3.874l-.692-13.526c-.196-3.84 5.155-10.043 7.399-14.49l17.527-34.738c7.672-15.207-1.68-18.356 6.69-21.556l1.033 13.978c8.78 3.499 18.364 7.339 26.47 7.373zm148.087-66.884c-3.02 2.09-7.031 5.043-10.777 8.2l-11.819 9.968c.35-.649 2.859-4.276 4.088-5.504l18.184-18.185c1.237-1.237 5.129-3.78 5.769-4.122-1.05 2.927-3.03 7.97-5.453 9.652zm-68.77 45.841c2.748-4.3 12.263-6.844 25.174-15.155l15.104-9.72c-1.255 2.305-6.016 8.047-9.14 9.84l-19.857 11.366c-2.457 1.408-8.507 3.191-11.28 3.678zm-14.942 5.974c-3.558 3.694-10.12 5.956-15.71 6.434l2.774-3.013 12.936-3.43zm-36.83 12.322c-.529 1.314-.955 2.68-2.039 2.713l-4.608.128c.41-.708 4.668-2.765 6.648-2.841m45.67-15.198 3.03-2.902c-.478.777-1.903 2.5-3.03 2.902m-40.029 14.984 3.61-2.594c.085.359-2.347 2.552-3.61 2.594m74.991-6.28-7.927-1.11c-1.4-.196 2.33-4.701 3.532-5.435l13.654-8.312zm-63.663 43.914 11.98-3.78 2.004 6.356-11.979 3.78z"/></svg>