<svg xmlns="http://www.w3.org/2000/svg" viewBox="0 0 1024 1024"><path fill="#eee4cd" d="M1021.875 341.88c.103 11.306-.298 33.382 1.698 45.226-1.476 2.671-2.927 6.793-2.892 10.974l1.68 224.82-363.767 168.584-12.134 11.358 1.288-5.172-21.88 9.592c-1.655.725-5.358 1.69-7.073 1.775l-.077-4.233c-.111-1.886-1.11-5.598-1.818-6.52l.069-11.937-.077-4.788.256-37.367c.034-5.393 1.092-3.14 1.11-19.354l.025-20.471.11-15.224.368-52.13.068-50.346.085-64.802 2.543-4.395 16.632-7.655 10.18-4.556 16.358-7.237 15.847-7.04 68.044-30.506 14.413-6.46 25.882-11.767 21.7-10.027 11.597-5.18 32.597-14.233 18.893-8.372 21.726-9.65 20.07-8.927 13.39-5.965 54.843-24.601 24.627-11.486c4.292-2.005 9.353-2.637 13.602-1.92z"/><path fill="#fbf8e9" d="M1021.875 341.88c-4.25-.717-9.31-.086-13.602 1.92l-24.627 11.485-54.844 24.602-13.389 5.965-20.07 8.926-21.726 9.65-18.893 8.372-32.597 14.234-11.597 5.18-21.7 10.026-25.882 11.767-14.413 6.46-68.044 30.507-15.847 7.04-16.358 7.236-10.18 4.557-16.632 7.654c-2.09.965-7.16 2.407-8.311 4.352l-2.944 4.975c-.854 1.442-5.803 1.383-6.605-.102-1.732-3.2-6.212-9.813-9.575-10.539-25.267-5.453-8.482-10.206-25.403-5.674l-4.199-8.423c-16.298-6.972-17.254-.444-26.555-6.007-16.145-9.652-9.336 1.4-24.662-7.262l-6.425.734-25.49-11.11c-2.73-1.187-6.63-3.363-9.719-5.061l-9.796-5.385c-1.877-1.032-6.784 1.357-9.447 2.86l-11.144-2.365c-2.901-.614-6.4-8.047-9.216-9.088l-11.443-4.24c-4.634-1.716-7.731-1.793-13.824-1.451-10.658.588-9.993-6.324-28.246-6.05l-11.153-6c-9.958-5.35-3.567-9.924-15.701-6.553-1.971.546-6.477-1.126-8.508-2.236-1.69-.93-7.629-.708-9.531-1.664l-21.052-10.564c-9.575-4.804-1.528 2.313-21.555-2.645-6.307-1.562-42.838-10.607-42.275-17.579l-11.28.026-9.712-7.91c-15.94-5.556-16.025-2.74-32.546-9.166l-10.163-3.95-12.433 4.701c-.52 4.276-1.493 10.13-1.587 13.876l-.64 24.985c-.683 26.488 4.02 10.872-7.177 26.334l-10.257-2.628c-3.618-.93-5.64-3.243-9.455-4.907l-15.47-6.733c-15.548-6.767-8.841 9.498-21.496-.495-2.867-2.261-7.458-5.845-10.01-6.698l-11.451-3.849c-18.603-6.255-2.936 1.74-22.912-3.703L48.7 416.614c-8.431-2.295-16.478-3.626-25.097-4.83l-11.016-1.535 2.466 14.011 2.159 13.099-2.953 25.31-1.536 13.235c-.247 2.116-1.28 5.948-2.346 7.39l-2.671 3.618c-1.86 2.526 9.864 2.56 7.816 9.438l-3.055 10.257c-.614 2.074-.793 6.306-.76 9.054l10.258-4.275c1.809-.751 4.454-1.408 5.939-1.05 6.545 1.596-3.67 8.44-.794 14.165 5.871 11.7-1.868-.725-1.783 28.783.06 20.318-11.17 16.444-4.856 22.972l6.563 6.784c.58.597 4.13 2.167 4.07 1.331l-.367-5.384c-.051-.794-1.707-3.388-1.075-3.874l4.164-3.2c.999-.768 6.29-.82 6.665.358 3.763 11.665.239 18.338 2.227 18.799l4.429 1.007c3.737.853 10.658 1.126 14.77-.734 6.025-2.73-2.824-12.954-1.023-13.97l4.548-2.585 5.103-2.68c1.084-.57 2.756 3.141 2.927 4.455l1.929 14.831c2.577 19.883 15.291-2.159 21.478 9.515 1.408 2.645 3.345 6.75 4.932 7.816 4.497 3.03 12.544-1.68 13.696-7.219.435-2.09 1.255-4.787 2.33-5.23 11.64-4.745 18.645 8.968 20.096 6.962l3.26-4.54c9.352-13.004 8.55.794 9.65-10.436l1.383-14.088c5.683 2.04 9.865 8.166 9.609 14.413l-.7 16.571c-.162 3.79 2.722 10.676 3.831 14.243l4.762 15.342 5.222 17.716c2.688 9.122 14.985 2.67 19.363 10.666l3.106 5.675-18.279-6.485c-12.834-4.549 3.866-12.305-20.778-19.67l-6.153-1.834-16.828-5.231-10.863-3.635-23.1-7.996-17.749-5.419-17.536-6.024-9.796-3.994-21.922-6.426-12.425-4.104-13.568-4.634c-11.417-3.9-7.15-18.85-6.895-23.62.64-11.99 1.366-23.381.692-35.558l-1.152-20.881c-.854-15.48-.23-30.627-.094-46.115l.11-12.876-.63-51.456c11.946-10.13 9.744-6.221 24.754-10.343 24.995-6.87 10.01-4.796 40.227-18.236 4.753-2.116 9.37-5.358 14.711-8.337 10.291-5.751 10.778.837 27.657-9.344 16.861-10.171 5.538-1.97 25.42-10.129l15.514-6.366 11.69-4.684 25.285-11.162c11.546-5.094 28.015-5.982 37.862-2.918l12.98 4.036 13.738 4.036c6.963-2.056 21.863 4.122 30.148.393l13.304-5.982 9.404-4.028 13.764-5.453c27.784-11.008 11.674-7.8 29.039-13.824l18.15-6.297 22.451-8.243c4.856-1.784 9.182-3.84 13.901-6.034 18.927-8.763 18.168-5.802 30.96-12.433l15.504-8.038c4.915-2.551 10.744-4.898 16.282-7.142l10.829-4.395 17.92-7.27c17.834-7.237 9.762-5.487 26.197-11.068 8.943-3.038 17.033-6.998 25.788-11.17l7.765-1.656c22.58-4.813 12.305 1.494 23.723 2.688 4.54.478 12.339 1.664 16.879 2.79l17.135 4.267 12.151 3.021 16.802 5.274 25.02 6.69 18.884 5.052 15.565 3.694 11.571 2.68c4.566 1.058 10.454 3.004 14.49 4.95 18.577 8.95-.376-.615 25.805 6.433l17.058 4.591c14.83 3.994 23.671 3.209 37.862 12.621l10.744 2.748 9.02 2.287 12.97 3.038 12.749 2.833 11.648 3.055 19.763 5.495c4.335 1.203 11.802 2.458 15.3 3.943 7.126 3.029 14.089 6.434 21.436 8.209l16.956 4.096 9.002 4.061c2.543 1.152 5.888 1.801 7.868 3.5 1.775 1.527 5.265 3.848 6.93 3.916l12.594.546c28.092 1.212 20.276 16.862 36.395 6.963l8.115 2.057c2.031.512 5.752 1.911 5.769 3.635zM129.05 610.772l-11.81-7.884 1.97 12.108z"/><path fill="#f4f2e1" d="m170.308 422.903 1.639 1.895 1.826 15.18 2.492 16.743c.238 1.604-.419 5.555-1.255 6.648l-3.686 4.838c-.837 1.092 1.928 4.19 2.79 5.478l5.154 7.706-6.007-1.596c-1.442-.384-3.908 2.185-5.043 3.985-7.296 11.606 15.232 19.985 1.954 36.77l3.106 12.911 4.377 17.57c.794 3.183 2.586 10.684 4.967 12.638l9.608 7.86c12.212 9.992-1.851 16.571.487 30.805l-8.371 1.561c-2.62.487-7.407 3.03-7.015 5.308 3.004 17.476-3.541 19.209.068 22.887 2.296 2.338 8.474 5.785 11.418 6.331 5.163.965 7.296-8.567 23.168 4.916.452 8.345 1.348 15.001 6.016 21.836 2.33 3.405 10.556.094 12.51-3.66 6.852-13.1 27.102 2.525 33.98-13.91.879-2.099 4.463-5.76 5.7-4.557 2.534 2.467 7.236 7.33 10.01 8.457l17.373 7.023 7.595-6.23 8.44 4.08c1.612.785 7.5 1.45 8.797 2.636l14.806 13.662 8.72 3.874c3.303 5.607 7.476 10.599 11.077 14.643 1.681 2.091 3.84 9.848 6.758 10.317l27.46 4.386c1.247.197 5.436-1.732 5.77-.631l1.714 5.59c.675 2.21 2.313 8.814 4.591 9.3 2.108.453 7.749-.853 10.061-1.365l10.266 8.994c.597.52 2.96 2.193 3.635 1.775 5.538-3.404 6.29-6.63 6.451-6.596 11.862 2.432 12.655 5.65 18.065 7.381 5.12 1.639 11.853 2.569 15.727 5.325 2.637 1.878 6.178 5.462 8.192 4.898 1.775-.495 5.683-3.464 7.552-4.6 1.596-.963 5.368 3.798 6.127 5.334l-4.838-.23c-1.033-.051-1.929 4.582-1.605 5.59 3.926 12.031 20.378-6.665 23.98 2.431l8.447 2.057 6.357 11.076c1.51.154 7.365.29 9.234.981l14.6 5.41 9.318-5.009c2.356-1.271 7.86 4.455 10.54 4.873 4.53.708 12.458.384 17.646.18l10.027-.41 4.923-11.563c.282-.657-.042-4.557-.725-4.497l-4.625.41c-3.072.272-9.37-2.842-9.301-6.503.042-2.21 6.024-2.884 8.712-2.901 2.45-.017 5.521-6.213 4.984-8.79-.734-3.533.503-7.321 2.056-10.274 2.279-4.36 1.792-19.644-7.296-21.393l4.787-3.106c1.298-.845 3.32-3.618 3.303-5.154-.094-8.474-13.09-2.1-16.222-11.136-3.831-11.06 8.977-9.319 4.634-23.33l-4.028-12.988-4.207-13.338c-.734-2.338-.52-6.997.333-9.574 6.758-20.514-.862-10.436 6.792-22.357l-2.32-10.027 9.83-8.619c1.749-11.178 14.77-17.374 18.534-14.48 1.348 1.032 2.082 5.35 2.1 7.167l.11 12.527c.017 1.45-.128 4.335-.264 6.656l-.922 16.504c-1.254 22.45 5.854 15.189.393 24.226l-5.957 9.847-2.637.785c3.465 7.689 6.802 13.62 6.776 19.79l-.205 48.596c-.094 21.146 8.653 9.583 1.425 21.172-1.271 2.03.99 7.16 3.047 8.303l-.256 37.367c-.205-.273-3.08 2.586-2.168 3.226l2.244 1.57-.068 11.938c-.008 1.783 1.11 5.615 1.818 6.52l.077 4.232c-1.963.094-5.871-.538-8.227-1.255l-9.94-3.029-19.346-6.383-24.269-7.484c-8.004-2.466-16.333-5.964-24.226-8.951-30.012-11.35-16.529-1.502-36.318-11.605-4.744-2.424-11.221-4.694-16.597-6.332l-14.712-4.472-11.101-3.6-14.575-5.086-13.125-4.89-23.372-7.987-9.26-3.106-13.055-4.327-13.124-4.343-18.535-6.127-14.378-4.745c-7.126-2.346-14.814-6.366-22.05-8.192-23.305-5.888-16.752-6.323-27.828-9.839l-19.473-6.178c-10.334-3.277-20.412-6.067-30.396-9.805-7.842-2.935-15.385-5.452-23.407-8.02l-14.097-4.524-3.106-5.674c-4.377-8.005-16.674-1.545-19.362-10.667l-5.222-17.715-4.762-15.343c-1.11-3.567-3.993-10.445-3.831-14.242l.7-16.572c.264-6.246-3.926-12.373-9.61-14.413l-1.382 14.089c-1.1 11.23-.298-2.569-9.65 10.436l-3.26 4.54c-1.443 2.005-8.457-11.708-20.096-6.963-1.076.435-1.895 3.14-2.33 5.23-1.152 5.539-9.199 10.25-13.696 7.22-1.579-1.067-3.524-5.171-4.932-7.817-6.196-11.673-18.902 10.377-21.479-9.514l-1.928-14.831c-.17-1.315-1.843-5.018-2.927-4.455l-5.103 2.68-4.548 2.585c-1.8 1.024 7.048 11.247 1.024 13.97-4.113 1.86-11.025 1.587-14.772.733l-4.428-1.007c-1.989-.452 1.536-7.125-2.228-18.799-.375-1.177-5.666-1.118-6.664-.358l-4.164 3.2c-.64.486 1.015 3.08 1.075 3.874l.367 5.385c.06.836-3.49-.726-4.07-1.332l-6.563-6.784c-6.314-6.528 4.915-2.662 4.856-22.971-.086-29.509 7.654-17.084 1.783-28.783-2.876-5.726 7.339-12.57.794-14.166-1.485-.358-4.13.29-5.94 1.05l-10.257 4.275c-.034-2.748.146-6.98.76-9.054l3.055-10.257c2.048-6.878-9.677-6.912-7.817-9.438l2.671-3.618c1.058-1.442 2.1-5.273 2.347-7.39l1.536-13.235 2.952-25.31-2.158-13.098-2.467-14.012 11.017 1.536c8.61 1.203 16.666 2.534 25.096 4.83l13.406 3.652c19.985 5.444 4.318-2.551 22.912 3.704l11.452 3.848c2.552.853 7.142 4.437 10.01 6.699 12.655 9.992 5.947-6.264 21.495.495l15.471 6.732c3.823 1.664 5.845 3.977 9.455 4.907l10.257 2.628c11.196-15.462 6.494.154 7.177-26.333zM289.715 668.81c3.115-3.311 3.337-5.778-2.73-2.33-1.69.145-.965.623 2.73 2.33m151.458 61.755-4.019 4.924 7.723 6.306 4.019-4.924z"/><path fill="#f6efdd" d="m621.466 517.47-2.543 4.395-.086 64.802-.068 50.346-.367 52.13-.11 15.224-.026 20.471c-.017 16.205-1.076 13.96-1.11 19.354-2.065-1.135-4.318-6.263-3.046-8.303 7.228-11.588-1.52-.026-1.425-21.171l.205-48.597c.025-6.17-3.303-12.1-6.776-19.79l2.637-.784 5.956-9.848c5.462-9.037-1.647-1.775-.392-24.226l.921-16.503c.128-2.33.273-5.214.265-6.656l-.111-12.527c-.017-1.818-.751-6.136-2.1-7.168-3.763-2.893-16.784 3.302-18.534 14.48l-9.83 8.62 2.32 10.026c-7.662 11.921-.042 1.835-6.792 22.357-.844 2.577-1.066 7.237-.332 9.575l4.207 13.337 4.027 12.988c4.335 14.003-8.473 12.263-4.633 23.33 3.131 9.037 16.128 2.663 16.222 11.136.017 1.536-2.006 4.31-3.303 5.154l-4.787 3.107c9.088 1.749 9.583 17.032 7.296 21.393-1.545 2.96-2.79 6.74-2.057 10.274.538 2.577-2.534 8.78-4.983 8.79-2.688.016-8.661.682-8.713 2.9-.076 3.67 6.23 6.776 9.302 6.503l4.625-.41c.674-.06.998 3.849.725 4.497l-4.924 11.563-10.026.41c-5.189.213-13.116.529-17.647-.18-2.68-.418-8.184-6.135-10.539-4.872l-9.318 5.009-14.6-5.41c-1.87-.691-7.723-.828-9.234-.982l-6.357-11.076-8.448-2.056c-3.601-9.097-20.054 9.6-23.979-2.432-.333-1.007.572-5.64 1.604-5.59l4.839.23c-.76-1.535-4.531-6.297-6.127-5.333-1.869 1.127-5.777 4.105-7.552 4.6-2.005.563-5.555-3.03-8.192-4.898-3.874-2.757-10.607-3.678-15.727-5.325-5.41-1.732-6.204-4.95-18.065-7.381-.154-.035-.913 3.191-6.451 6.596-.674.418-3.038-1.255-3.636-1.775l-10.265-8.994c-2.313.512-7.962 1.817-10.06 1.365-2.27-.486-3.91-7.083-4.592-9.301l-1.715-5.59c-.341-1.1-4.531.828-5.769.632l-27.46-4.386c-2.918-.47-5.077-8.218-6.758-10.317-3.601-4.045-7.774-9.037-11.077-14.643l-8.72-3.874-14.806-13.662c-1.297-1.195-7.176-1.86-8.798-2.637l-8.44-4.079-7.594 6.23-17.374-7.024c-2.782-1.126-7.475-5.999-10.01-8.456-1.237-1.203-4.82 2.457-5.7 4.557-6.878 16.435-27.136.81-33.98 13.909-1.962 3.755-10.188 7.066-12.51 3.66-4.667-6.834-5.563-13.49-6.015-21.836-15.872-13.483-18.006-3.96-23.168-4.915-2.953-.555-9.122-3.994-11.418-6.332-3.61-3.678 2.936-5.419-.068-22.886-.393-2.279 4.395-4.822 7.014-5.308l8.371-1.562c-2.338-14.242 11.725-20.821-.486-30.805l-9.608-7.86c-2.381-1.953-4.173-9.454-4.967-12.637l-4.377-17.57-3.107-12.911c13.278-16.785-9.241-25.173-1.954-36.77 1.135-1.8 3.601-4.37 5.043-3.985l6.008 1.595-5.154-7.705c-.862-1.289-3.627-4.386-2.79-5.479l3.686-4.838c.836-1.092 1.493-5.043 1.254-6.647l-2.492-16.743-1.826-15.18-1.638-1.895.64-24.986c.094-3.746 1.067-9.6 1.587-13.875l12.433-4.702 10.163 3.951c16.52 6.426 16.606 3.61 32.547 9.165l9.71 7.91 11.282-.025c-.564 6.972 35.968 16.017 42.274 17.578 20.027 4.958 11.98-2.158 21.555 2.646l21.052 10.564c1.903.956 7.842.734 9.531 1.664 2.031 1.118 6.528 2.79 8.508 2.236 12.134-3.362 5.743 1.203 15.701 6.553l11.153 6c18.262-.274 17.588 6.638 28.246 6.05 6.101-.342 9.19-.265 13.824 1.45L432 459.315c2.816 1.041 6.315 8.474 9.216 9.088l11.145 2.364c2.662-1.502 7.569-3.891 9.446-2.859l9.796 5.385c3.09 1.698 6.998 3.874 9.72 5.06l25.489 11.11 6.425-.733c15.318 8.66 8.517-2.39 24.662 7.261 9.31 5.564 10.257-.964 26.555 6.008l4.199 8.422c16.921-4.53.136.222 25.404 5.675 3.362.725 7.842 7.339 9.574 10.539.802 1.484 5.751 1.544 6.605.102l2.944-4.975c1.152-1.945 6.23-3.388 8.311-4.352zm-2.74 287.343c-.708-.913-1.826-4.745-1.817-6.52.708.93 1.698 4.642 1.817 6.52m-1.74-18.466-2.245-1.57c-.913-.64 1.963-3.5 2.168-3.226l.077 4.787z"/><path fill="#f4f2e1" d="m129.05 610.773-9.84 4.224-1.97-12.108z"/><path fill="#f6efdd" d="m437.154 735.424 4.02-4.925 7.722 6.302-4.02 4.925zm-147.439-66.615c-3.686-1.707-4.412-2.185-2.73-2.33 6.067-3.448 5.836-.981 2.73 2.33"/></svg>