<svg xmlns="http://www.w3.org/2000/svg" viewBox="0 0 1024 1024"><path fill="#f9b000" d="M310.87 310.87a2049 2049 0 0 1 48.241-46.692c95.19-89.145 236.046-100.21 342.528-34.49h64.213a28.444 28.444 0 0 1 28.445 28.445v64.228c65.735 106.482 54.67 247.339-34.475 342.528a2049 2049 0 0 1-94.933 94.933c-95.19 89.145-236.032 100.196-342.514 34.49h-64.242a28.444 28.444 0 0 1-28.444-28.445l-.014-64.242C163.968 595.143 175.019 454.3 264.164 359.11a1993 1993 0 0 1 46.691-48.242z"/><path fill="#fbd700" d="M222.08 354.247a235 235 0 0 1 13.255-12.245 1352 1352 0 0 0 77.554-71.78c4.92-4.92 9.813-9.77 14.691-14.52 104.036-101.79 261.263-122.397 386.987-54.386l77.924.028a28.444 28.444 0 0 1 28.444 28.444v82.176c29.525 67.13 24.804 147.513-19.555 212.566a220 220 0 0 1-17.977 22.94 2239 2239 0 0 1-137.814 140.686c-103.296 96.57-256.483 107.663-371.228 34.816l-60.373-.014a28.444 28.444 0 0 1-28.445-28.444v-60.928c-51.356-88.42-39.182-203.62 36.551-279.325z"/><path fill="#191919" d="M270.649 270.649a2106 2106 0 0 0-47.986 49.579l-3.698 3.982C121.6 431.53 103.723 587.534 170.61 712.932l2.19 4.053v48.882l.085 3.612a85.333 85.333 0 0 0 85.263 81.707H307l4.067 2.204c126.962 67.726 285.298 48.54 392.704-52.053a2106 2106 0 0 0 97.565-97.565l3.698-3.982C902.4 592.455 920.277 436.452 853.39 311.054l-2.204-4.039v-48.882l-.071-3.612a85.333 85.333 0 0 0-85.263-81.721h-48.867l-4.04-2.204c-126.961-67.727-285.297-48.54-392.717 52.053a2106 2106 0 0 0-49.593 47.971zm40.22 40.22a2049 2049 0 0 1 48.242-46.691c95.19-89.145 236.046-100.21 342.528-34.49h64.213a28.444 28.444 0 0 1 28.445 28.445v64.228c65.735 106.482 54.67 247.339-34.475 342.528a2049 2049 0 0 1-94.933 94.933c-95.19 89.145-236.032 100.196-342.514 34.49h-64.242a28.444 28.444 0 0 1-28.444-28.445l-.014-64.242C163.968 595.143 175.019 454.3 264.164 359.11a1993 1993 0 0 1 46.691-48.242z"/><path fill="#fff" d="M359.637 342.57a14.222 14.222 0 0 1 20.224 20.011 1642 1642 0 0 0-22.969 23.709 14.222 14.222 0 1 1-20.636-19.556 1562 1562 0 0 1 23.381-24.163m42.198-41.03A226.82 226.82 0 0 1 631.11 252.7a14.222 14.222 0 0 1-9.287 26.88 198.37 198.37 0 0 0-200.548 42.71 14.222 14.222 0 0 1-19.441-20.765z"/><path fill="#f9b000" d="M519.111 753.778q21.333 0 21.333 21.333t-21.333 21.333-21.333-21.333 21.333-21.333M533.333 654.222q21.334 0 21.334 21.334 0 21.333-21.334 21.333-21.333 0-21.333-21.333 0-21.334 21.333-21.334M448 696.889q21.333 0 21.333 21.333 0 21.334-21.333 21.334t-21.333-21.334T448 696.89"/></svg>