<svg xmlns="http://www.w3.org/2000/svg" viewBox="0 0 1024 1024"><path fill="#c3eaea" d="M815.333 300.467c1.937 3.78 3.993 7.227 3.558 11.784-.41 112.09.051 224.223-.145 336.27l-6.827 20.47c-4.207.93-8.738-1.501-9.907-5.443-2.628-8.875-.239-35.703-.34-47.436-.052-5.606 2.516-15.93-3.406-18.78l-20.47-10.24V348.226c-19.754.734-38.33 7.5-57.001 12.953-8.098 2.364-19.336-.136-24.541 9.583-1.468 30.59.691 61.344-.205 91.935-.18 6.016-3.55 10.76-3.712 16.767-.785 29.61.888 59.373.162 89.008-.247 10.086.06 6.093-6.835 11.81l-208.351 42.452c-9.472 6.272-6.622 53.827-6.622 66.737H446.8c-.094-19.285.145-38.714 0-58.008 8.174 6.323 15.385 2.074 22.356-3.234l1.681-234.078c.512-4.557-1.715-7.996-3.558-11.784 10.018 2.858 16.34-4.736 23.884-6.827 41.727-11.57 86.32-20.018 128.678-30.002 65.082-15.334 130.641-28.944 195.501-45.071zm-171.72 150.522c-13.328 2.543-27.732 18.594-29.6 32.042-2.714 19.507-2.62 56.65 22.185 59.765 24.738 3.098 38.28-39.618 35.754-59.722-1.63-12.988-12.808-35.037-28.339-32.076z"/><path fill="#b3e5e6" d="M214.76 310.698c5.077 4.812 6.553 2.363 11.263 4.096 29.414 10.836 60.235 20.24 90.1 29.328 43.681 13.286 88.497 24.942 131.939 37.989 6.638-4.591 12.074-8.678 5.563-16.81 3.422 4.795 9.967 9.514 13.653 17.057 1.852 3.789 4.07 7.228 3.558 11.784l-1.68 234.079c-6.972 5.316-14.183 9.557-22.357 3.234 0-1.135.008-2.278 0-3.413-.094-9.028 1.442-19.063-1.639-27.298h-1.774c-.128-14.685.247-29.507-.163-44.192-24.012-8.619-48.254-16.648-72.47-24.78-19.405-6.52-51.609-21.725-72.259-19.771-10.896 1.032-46.76 15.88-56.343 22.297-1.613 1.083-13.039 10.956-13.738 11.852-9.48 7.27-18.04 1.63-20.548-8.456l.077-230.41c1.536-3.984 1.467-3.652 3.413-6.826-1.032 6.17-.068 6.937 3.413 10.24z"/><path fill="#ebebe3" d="M665.194 109.369c-3.951-.128-9.412 6.57-10.24 6.826-55.072 16.956-129.02 18.876-185.91 30.78l-151.913 27.228c-2.552-2.253-8.678-3.934-12.023-6.024l-5.043 2.61c1.98-30.462-2.629-63.886-.137-93.974.87-10.546 7.893-15.376 16.076-21.46 104.684-17.527 208.318-37.06 313.24-51.873C633.04 2.945 636.352.36 639.73.061c11.554-1.016 23.892 10.896 25.445 22.288 3.601 26.384-2.636 59.782 0 87.011z"/><path fill="#d7f1f0" d="M815.333 300.467c-64.86 16.127-130.411 29.737-195.501 45.071-42.358 9.975-86.943 18.431-128.678 30.002-1.187-12.304 17.595-14.002 20.052-22.604-4.966-38.8 25.676-62.666 46.343-90.151 32.596-43.34 65.97-87.805 95.604-133.022 1.937-2.952 8.807-11.998 1.792-13.568.828-.256 6.29-6.954 10.24-6.826l100.81 129.523c14.053 18.056 39.209 41.82 49.329 61.566z"/><path fill="#cde8e3" d="M228.413 546.15c-4.224 5.41-4.779 18.337-6.972 25.446.828 87.625-.623 175.268.154 262.886.05 5.614-2.518 15.93 3.404 18.78.23 4.882-.947 8.824 1.622 13.739 1.34 2.568 18.832 19.37 22.348 22.015 19.003 14.31 48.194 26.965 69.356 39.841 28.765 17.501 57.07 37.068 86.355 53.553 17.527 9.865 36.197 21.12 38.85-7.85 6.042-65.969-2.354-143.952-.29-211.858.87-28.535 1.024-47.913.146-76.627-.59-19.25.23-38.74 0-58.008h3.413c.008 1.135 0 2.279 0 3.413.136 19.294-.094 38.723 0 58.017h23.892v274.687c6.443 24.328 23.15 24.592 45.345 21.46 79.758-25.215 165.66-39.866 244.804-65.721 17.68-5.777 32.196-10.65 37.435-30.813-3.55-92.83 4.778-189.143 0-281.514-.18-3.396.11-6.843 0-10.24 5.922 2.842 3.353 13.167 3.405 18.782.102 11.733-2.287 38.552.341 47.435 1.169 3.942 5.7 6.374 9.907 5.444l6.826-20.47c-.145 83.555.111 167.205 0 250.803-5.495 19.48-17.953 31.427-36.572 38.5-51.65 19.627-118.038 31.65-172.453 45.934-25.625 6.724-51.002 15.76-76.61 22.348-16.563 4.258-68.333 18.986-81.055 17.8-16.435-1.536-39.389-13.2-54.202-21.025-60.184-31.786-116.929-73.282-176.13-107.09l-16.53-31.248-.17-555.066c.367-1.8 2.842-1.98 2.927-2.193l-.077 230.41c2.509 10.085 11.076 15.726 20.548 8.456z"/><path fill="#8ecdcc" d="M317.13 174.203c6.98 6.178 13.21 22.715 18.85 30.625 8.192 11.494 17.186 22.75 25.514 34.21-2.432 15.802-26.777 17.654-37.682 22.04-31.47 12.646-64.723 26.674-95.476 41.01-5.248 2.449-8.772 5.88-13.576 8.61-3.482-3.303-4.446-4.07-3.414-10.24 27.127-44.312 61.703-85.288 88.719-129.668l5.043-2.611c3.345 2.09 9.471 3.763 12.023 6.024"/><path fill="#e2f5f4" d="M654.954 116.195c7.014 1.57.145 10.607-1.792 13.568-29.635 45.217-63.008 89.682-95.604 133.022-20.667 27.485-51.31 51.343-46.343 90.151-2.458 8.602-21.239 10.3-20.053 22.604-7.543 2.09-13.866 9.685-23.884 6.827-3.678-7.552-10.231-12.262-13.653-17.058-30.232-42.4-61.532-84.136-92.131-126.255-8.328-11.46-17.322-22.715-25.514-34.209-5.64-7.918-11.87-24.455-18.85-30.625l151.914-27.229c56.882-11.903 130.838-13.823 185.91-30.779z"/><path fill="#e1f7f7" d="M685.664 580.274c6.895-5.718 6.588-1.724 6.835-11.81.726-29.627-.947-59.39-.162-89.008.162-6.008 3.533-10.743 3.712-16.768.887-30.59-1.263-61.344.205-91.935 5.214-9.71 16.443-7.21 24.54-9.582 18.671-5.453 37.256-12.22 57.002-12.954v238.866c-1.997 10.308-32.665 27.383-42.631 27.289-3.286-.026-6.665-2.782-10.368-3.311-11.008-1.562-18.935-1.092-28.961-8.55l-3.755-16.734-6.408-5.52z"/><path fill="#e7f1e6" d="m685.664 580.274 6.409 5.52 3.754 16.734c10.027 7.458 17.962 6.988 28.961 8.55 3.704.52 7.091 3.277 10.368 3.31 9.967.095 40.643-16.98 42.64-27.288l20.47 10.24c.111 3.396-.179 6.843 0 10.24-6.323-3.2-17.765-8.372-23.372-2.85-1.169 1.151-1.262 5.46-3.771 8.02-11 11.204-25.053 13.875-40.106 18.005-54.833 15.061-111.834 27.946-167.205 40.95-29.567 6.938-59.782 12.356-89.63 17.86-2.117 1.817 3.651 20.718-3.5 23.799V689.48c0-12.92-2.84-60.466 6.622-66.737l208.352-42.452z"/><path fill="#def5f4" d="M643.613 450.99c15.53-2.962 26.709 19.088 28.339 32.075 2.526 20.104-11.016 62.82-35.754 59.723-24.805-3.106-24.89-40.259-22.186-59.765 1.87-13.449 16.273-29.5 29.601-32.042z"/><path fill="#e1f1e7" d="M228.413 546.15c.7-.905 12.125-10.777 13.738-11.852 9.582-6.417 45.447-21.265 56.343-22.297 20.65-1.954 52.854 13.252 72.258 19.77 24.217 8.133 48.46 16.162 72.471 24.78.419 14.686.035 29.508.163 44.193.076 9.071-.111 18.236 0 27.298.23 19.267-.59 38.757 0 58.007l-70.688-29.976-147.699-79.213c3.149 91.287-4.232 185.44 0 276.394-5.922-2.841-3.353-13.166-3.404-18.78-.777-87.618.674-175.261-.154-262.887 2.193-7.108 2.748-20.036 6.972-25.446z"/><path fill="#94d7d7" d="M453.625 365.3c6.51 8.141 1.075 12.22-5.563 16.81-43.442-13.038-88.258-24.694-131.938-37.988-29.874-9.088-60.687-18.492-90.1-29.328-4.702-1.733-6.179.716-11.264-4.096 4.804-2.73 8.328-6.161 13.576-8.61 30.753-14.336 64.006-28.364 95.476-41.01 10.905-4.377 35.25-6.238 37.682-22.04 30.6 42.118 61.899 83.862 92.131 126.254z"/><path fill="#c3eaea" d="M446.799 628.05h-3.413c-.111-9.07.076-18.226 0-27.297h1.774c3.08 8.234 1.536 18.27 1.639 27.297"/><path fill="#f8f5e4" d="M798.275 607.57c4.778 92.371-3.558 188.684 0 281.515-5.24 20.172-19.754 25.036-37.435 30.812-79.144 25.856-165.046 40.507-244.804 65.722-22.186 3.132-38.902 2.867-45.336-21.46V713.354c7.142-3.08 1.374-21.981 3.49-23.799 29.848-5.503 60.064-10.922 89.631-17.86 55.37-13.004 112.38-25.889 167.205-40.95 15.052-4.13 29.106-6.8 40.105-18.004 2.518-2.56 2.603-6.87 3.772-8.021 5.606-5.521 17.049-.35 23.372 2.85"/><path fill="#fbfbee" d="M443.386 686.058c.87 28.722.716 48.092-.145 76.627-2.065 67.906 6.331 145.889.29 211.858-2.654 28.978-21.324 17.715-38.851 7.85-29.286-16.477-57.59-36.052-86.355-53.553-21.162-12.876-50.353-25.53-69.356-39.84-3.516-2.646-21.009-19.44-22.348-22.016-2.569-4.915-1.391-8.857-1.622-13.738-4.232-90.954 3.149-185.108 0-276.394l147.699 79.212 70.688 29.977z"/></svg>