<svg xmlns="http://www.w3.org/2000/svg" viewBox="0 0 1024 1024"><path fill="#cb7c4d" d="M1018.138 427.819c1.1-23.936.477-49.997 0-74.138-.12-6.187 3.805-19.08-5.103-17.886.682 17.186-2.296 35.951-6.187 52.608-27.068 115.9-130.38 267.239-218.77 346.155-71.628 63.957-185.036 120.747-281.18 132.924-165.351 20.932-346.514-42.94-442.104-184.175-27.222-40.226-53.308-94.294-53.82-143.019-8.9-1.195-4.975 11.7-5.103 17.886-.316 16.077-.58 32.563 0 48.572-8.866-4.259-5.035-19.738-5.094-28.135-.982-129.51 1.433-246.741 126.037-318.72 119.313-68.906 243.123-35.831 364.945-74.726C599.424 150.784 661.862 58 780.322 44.305c6.733-.776 12.05-5.87 20.292-5.23 5.231.4 10.24 4.71 15.668 5.23 66.312 6.349 125.56 28.33 163.379 87.117 51.191 79.582 44.382 176.87 43.571 268.254-.077 8.405 3.772 23.867-5.094 28.134zM771.268 76.15c-89.08 9.575-177.502 106.514-273.1 135.894-95.958 29.491-200.662 11.059-293.103 44.322C-39.322 344.31 12.39 650.53 203.383 769.655c299.495 186.804 627.456-33.51 745.805-321.314 50.594-123.042 62.934-303.641-84.36-360.576-31.497-12.177-59.836-15.24-93.56-11.614"/><path fill="#b45f34" d="M506.889 867.49c5.879 36.181-10.334 25.037-35.183 31.326 0 13.167-19.192 25.651-15.787 37.461 2.074 7.202 31.77 19.798 40.755 18.142l-5.12 20.429c8.482-.137 17.075.222 25.557 0l-53.785 10.12c-226.714.547-448.58-133.077-457.455-378.222-.58-16.009-.316-32.495 0-48.572.12-6.187-3.806-19.08 5.103-17.886.503 48.725 26.59 102.801 53.82 143.019 95.59 141.235 276.753 205.107 442.103 184.175z"/><path fill="#ab552c" d="M788.07 734.566c13.347 7.109 14.072 22.34 15.343 35.806l30.66-10.265 2.56 15.351 17.904-10.206-5.112 20.438c-79.65 87.73-208.666 185.967-332.314 189.158-8.482.222-17.075-.145-25.557 0l5.12-20.429c-8.985 1.656-38.681-10.94-40.755-18.142-3.396-11.801 15.787-24.294 15.787-37.461 24.849-6.29 41.053 4.864 35.183-31.326 96.153-12.177 209.561-68.966 281.181-132.924"/><path fill="#a24924" d="M1018.138 427.819c-6.307 137.002-79.565 259.686-168.713 357.87l5.112-20.437-17.903 10.206-2.56-15.351-30.66 10.265c-1.272-13.465-1.997-28.697-15.344-35.806 88.389-78.916 191.702-230.255 218.77-346.154 3.89-16.657 6.869-35.43 6.186-52.608 8.9-1.195 4.975 11.699 5.103 17.886.478 24.14 1.1 50.201 0 74.137z"/><path fill="#fbdec8" d="M771.268 76.151c33.724-3.626 62.072-.554 93.56 11.614 147.294 56.943 134.954 237.543 84.36 360.576-118.349 287.796-446.31 508.11-745.805 321.314C12.39 650.53-39.322 344.311 205.065 256.367c92.433-33.263 197.137-14.831 293.102-44.322 95.6-29.38 184.022-126.32 273.101-135.894M634.701 182.417c-30.584 20.37-75.964 42.863-112.333 53.82-49.783 15.001-102.161 20.898-153.49 28.032-.357 22.263 5.88 40.636-.938 62.933-7.79 25.464-35.61 47.642-16.819 74.897 13.97 20.267 50.978 25.438 74.052 33.306 9.43 3.217 17.622 11.366 28.05 12.842 41.565 5.897 47.641-17.595 74.35-38.11 30.882-23.722 65.255-32.784 102.127-15.65 17.314 8.047 22.776 24.943 40.807 28.212l5.128 10.214c-9.08.051-18.073.725-27.144-.981-30.234-5.692-26.616-22.272-64.965-6.75-37.444 15.155-42.393 53.794-90.487 68.002-5.683 1.681-32.41 2.714-32.222 8.875 14.345 54.22 70.588 50.474 112.725 66.167 54.17 20.164 52.489 57.028 79.198 94.626 55.177 77.654 137.873-34.756 171.034-79.215 11.426-15.317 21.009-16.674 15.19-43.084-30.567-7.877-61.245-6.05-91.837-18.091-8.123-3.2-53.316-26.308-40.823-38.409 24.303-4.258 51.226 15.753 74.12 15.753 19.098 0 46.857-13.645 63.907-20.864 70.698-29.927 84.155-63.215 97.135-138.035 8.857-51.064 10.29-103.382-16.145-150.008-4.122-7.27-21.197-33.502-25.805-38.093-2.569-2.56-23.057-17.723-27.776-20.795-24.943-16.222-67.013-23.467-96.316-21.06-65.382 5.367-92.476 39.364-140.698 71.466zM445.542 570.965c-1.63-.836-6.306.768-10.274-2.304-7.697-5.956-25.54-36.975-29.508-47.385-8.107-21.265-4.727-41.788-28.134-53.666-25.583-12.988-70.221-22.05-75.222-57.686-6.041-43.059 30.831-75.622.086-117.691-11.043-15.113-20.02-19.337-38.656-17.989-39.527 2.859-100.301 38.46-125.142 69.129-50.253 62.063-1.015 52.958 41.105 71.552 22.716 10.026 36.916 28.476 44.809 52.326 12.34 37.29 4.113 82.978 39.33 108.937 25.916 19.106 71.21 12.92 99.797 35.686 1.605 1.28 19.678 21.828 20.165 23.288 2.167 6.57 1.783 15.931-7.348 12.467-13.474-5.112-28.765-22.392-43.28-28.297-24.372-9.924-52.813-5.325-78.362-13.662-17.605-5.743-27.836-17.843-43.606-25.395-21.444-29.713-15.12-71.731-29.004-101.376-12.067-25.762-46.183-26.419-70.7-19.473-50.132 14.217-25.258 96.82-11.229 132.07 15.65 39.34 55.484 102.332 94.737 119.988 44.365 19.95 65.331-24.568 104.525-28.254 17.954-1.69 61.474 1.98 76.237 11.093 6.323 3.9 9.898 6.511 8.328 14.678h-74.129c-1.237 0-21.188 10.316-22.076 11.178-2.423 2.347-5.009 14.029-10.752 17.639-3.012 12.885 24.38 30.48 35.277 35.2 50.245 21.751 138.658 27.801 191.719 17.68 61.994-11.827 103.458-60.432 94.677-125.14-7.117-52.455-113.152-73.993-153.37-94.593"/><path fill="#e97d6e" d="m634.7 182.417 5.112 15.326 14.985-4.881.998 9.045 60.706 21.41c-7.91 7.373-19.31 25.242-23.185 35.61-30.319 81.041 67.004 103.714 122.983 61.628 14.89-11.196 24.115-29.27 38.246-41.003l2.372 15.42c13.876 11 38.008 7.023 48.905 12.552 9.489 4.813 16.58 32.17 35.635 33.383-12.98 74.82-26.436 108.108-97.135 138.035l-5.06-10.146c-20.258-.828-29.867-19.49-43.41-30.857-17.689-14.848-27.212-22.741-51.14-20.24-21.41 2.243-22.835.57-41.062-.018-5.222-.17-11.34 5.257-12.706 5.018-2.859-.512-7.97-11.384-20.446 0-18.03-3.269-23.492-20.165-40.806-28.212-36.873-17.134-71.245-8.064-102.127 15.65-26.701 20.515-32.785 44.007-74.351 38.11-10.42-1.476-18.611-9.625-28.05-12.842-23.073-7.868-60.082-13.04-74.051-33.306-18.79-27.255 9.036-49.433 16.819-74.897 6.818-22.306.589-40.67.938-62.933 51.337-7.134 103.715-13.03 153.49-28.032 36.369-10.966 81.749-33.46 112.332-53.82z"/><path fill="#e97d6e" d="M690.935 422.707v15.335c-3.379.162-6.835-.18-10.222 0 1.536-6.102 5.196-7.117 0-15.326h10.222zm-10.222 15.335c-4.43 17.536.315 14.566.452 28.125.094 9.353-6.511 17.87-5.965 27.717-8.294-1.357-16.29 5.444-22.665 5.59-7.73.178-14.122-7.894-21.188-9.516-7.8-1.783-16.051.316-23.808-1.757-14.506-3.883-29.073-11.273-43.801-14.96l-5.854-26.914c-.282-7.944 30.669-9.378 26.043 6.853 22-12.638 45.833 2.406 67.636-5.93 12.783-4.882 9.48-8.116 29.141-9.208z"/><path fill="#eb8678" d="M445.542 570.965c40.218 20.6 146.253 42.138 153.37 94.592 8.772 64.709-32.691 113.314-94.677 125.142-53.06 10.12-141.474 4.07-191.719-17.681-10.897-4.72-38.289-22.315-35.277-35.2 5.735-3.601 8.32-15.284 10.752-17.639.888-.862 20.839-11.178 22.076-11.178h74.13c1.57-8.175-2.006-10.778-8.33-14.678-14.753-9.105-58.282-12.774-76.236-11.093-39.185 3.686-60.16 48.205-104.525 28.254-39.253-17.656-79.087-80.657-94.737-119.987-14.029-35.26-38.903-117.854 11.23-132.07 24.508-6.956 58.632-6.29 70.699 19.472 13.883 29.645 7.56 71.663 29.004 101.376 15.77 7.552 26.001 19.652 43.606 25.395 25.549 8.329 53.99 3.738 78.361 13.662 14.516 5.905 29.807 23.194 43.281 28.297 9.14 3.464 9.524-5.897 7.348-12.467-.487-1.46-18.56-22.016-20.165-23.288 7.032-5.094 5.018-13.167 12.578-20.66 5.632-5.58 39.783-24.114 43.657-20.232l-5.103 20.438c14.387 2.782 23.817-8.636 30.669-20.446z"/><path fill="#ea8273" d="M844.314 478.942c-17.05 7.22-44.809 20.864-63.907 20.864-22.894 0-49.817-20.002-74.12-15.753-12.493 12.1 32.7 35.209 40.823 38.409 30.592 12.04 61.27 10.214 91.836 18.09 5.82 26.411-3.763 27.777-15.19 43.085-33.16 44.468-115.856 156.869-171.033 79.215-26.71-37.598-25.028-74.462-79.198-94.626-42.137-15.693-98.38-11.947-112.725-66.167-.188-6.161 26.539-7.194 32.222-8.875 48.085-14.208 53.043-52.847 90.487-68.002 38.35-15.522 34.731 1.05 64.965 6.75 9.07 1.706 18.065 1.032 27.144.981L670.49 422.7c12.475-11.384 17.595-.512 20.445 0h-10.222c5.196 8.226 1.536 9.241 0 15.334-19.661 1.092-16.359 4.326-29.142 9.208-21.802 8.337-45.636-6.716-67.635 5.93 4.625-16.23-26.325-14.797-26.044-6.852l5.854 26.914c14.729 3.686 29.295 11.076 43.802 14.959 7.757 2.074 16.008-.026 23.808 1.758 7.065 1.613 13.448 9.694 21.188 9.515 6.374-.146 14.37-6.947 22.665-5.59-.547-9.847 6.058-18.364 5.964-27.716-.136-13.56-4.88-10.59-.452-28.126 3.388-.188 6.844.154 10.232 0V422.7c1.356.239 7.475-5.18 12.697-5.018 18.227.589 19.652 2.261 41.063.017 23.927-2.509 33.45 5.393 51.14 20.241 13.542 11.367 23.15 30.029 43.409 30.857l5.06 10.146zm-117.598-10.215c-10.77-.725-22.187-1.911-25.558 10.198l25.558-5.112zm40.909 0c-6.392-3.328-17.86 8.175-15.335 10.198 6.392 3.328 17.86-8.175 15.335-10.198m35.788 10.206c-4.19-13.832-18.875-10.188-30.677-10.197 4.19 13.833 18.876 10.189 30.677 10.197"/><path fill="#e98071" d="M445.542 570.965c-6.852 11.81-16.281 23.228-30.668 20.446l5.103-20.437c-3.875-3.883-38.025 14.66-43.657 20.232-7.56 7.493-5.547 15.557-12.578 20.66-28.587-22.767-73.882-16.58-99.797-35.687-35.218-25.958-26.991-71.646-39.33-108.936-7.894-23.851-22.093-42.3-44.81-52.327-42.128-18.594-91.366-9.489-41.104-71.552 24.832-30.669 85.615-66.27 125.141-69.128 18.637-1.349 27.623 2.884 38.656 17.988 30.746 42.07-6.127 74.633-.085 117.692 5 35.635 49.638 44.697 75.221 57.685 23.399 11.887 20.02 32.401 28.135 53.666 3.968 10.402 21.81 41.43 29.508 47.386 3.968 3.072 8.644 1.468 10.274 2.304z"/><path fill="#e87667" d="M634.7 182.417c48.223-32.11 75.325-66.1 140.698-71.467 29.304-2.406 71.373 4.839 96.316 21.06 4.72 3.073 25.208 18.236 27.776 20.796 4.608 4.6 21.692 30.831 25.805 38.093 26.436 46.626 25.003 98.953 16.145 150.008-19.055-1.212-26.146-28.57-35.635-33.383-10.897-5.53-35.03-1.544-48.905-12.552l-2.372-15.42c8.858-33.306 13.508-70.972-23.987-85.93-34.953-13.944-87.313 4.752-114.048 29.695l-60.706-21.41-.999-9.045-14.984 4.88-5.112-15.325z"/><path fill="#fcece0" d="M854.537 279.552c-14.123 11.733-23.356 29.807-38.247 41.003-55.979 42.086-153.301 19.413-122.982-61.628 3.882-10.368 15.283-28.237 23.185-35.61 26.735-24.943 79.095-43.64 114.048-29.696 37.495 14.96 32.845 52.625 23.987 85.931zm-36.728 4.181c7.27-21.333 24.568-38.17 6.264-58.069-22.64-24.619-62.123-11.716-82.091 10.342-15.94 17.613-17.11 32.649-15.514 56.013l13.355 13.355c19.968-.248 40.277 1.8 58.445-7.962 5.691-3.063 9.975-12.877 19.55-13.679z"/><path fill="#e97d6e" d="M803.413 478.933c-11.793-.008-26.487 3.636-30.677-10.197 11.793.009 26.487-3.635 30.677 10.197m-76.697-10.206v5.086l-25.558 5.112c3.371-12.109 14.789-10.923 25.558-10.198m40.909 0c2.517 2.023-8.943 13.526-15.335 10.198-2.517-2.023 8.943-13.526 15.335-10.198"/><path fill="#f3d8bf" d="M817.81 283.733c-9.575.802-13.86 10.624-19.55 13.68-18.168 9.761-38.478 7.713-58.446 7.96L726.46 292.02c-1.605-23.364-.427-38.4 15.513-56.013 19.968-22.058 59.46-34.96 82.091-10.342 18.304 19.908 1.007 36.736-6.263 58.07z"/></svg>