<svg xmlns="http://www.w3.org/2000/svg" viewBox="0 0 1024 1024"><path fill="#ec5563" d="M882.551 380.143c-.34-.137-.23 5.666.675 6.852l13.85 18.262 13.234 15.82c-4.915 21.052 48.657 33.664 57.515 45.218 5.265 6.87 10.249 14.106 13.67 19.175-.315-.478-5.384 5.598-5.879 8.03L963.9 550.528c-2.825 13.73-10.684 32.017-16.24 43.477-10.461 21.581-51.976 26.232-73.147 29.568-34.603 5.445-40.243-10.965-89.404-3.592l-52.795 7.919c-6.093.913-69.718-16.7-54.34-30.541 55.722-50.15 31.462-20.3 104.917-40.073 8.038-2.449 7.398-3.362-.965-5.307l-51.908-4.386c-5.222-.444-16.427 3.797-19.797 6.485-39.356 31.326-45.56 42.376-97.647 34.654l-70.042-10.377c11.981-19.123 19.013-11.597 35.67-38.664 6.98-11.341 12.33-23.936 15.76-36.438l7.578-27.58c.35-1.27-.384-7.27-.93-7.125s-3.533-.025-4.702-.05c5.419-9.183 12.945-18.604 20.958-28.076 25.378-30.02 54.161-24.823 84.736-42.752l.103-46.523 2.9 3.413 1.238 42.052c45.133-21.086 47.667-46.395 103.808-47.488 29.398-.571 57.259 7.578 72.909 31.01zm-8.482 94.455c-7.825-6.246-21.666-13.798-24.473-20.352l-9.105-21.265c-40.175-23.185-50.526-11.852-92.126-8.9l-8.098 7.57 53.64-.53c51.601-.512 28.621 42.163 80.154 43.477z"/><path fill="#d43646" d="M386.304 677.965c12.578 28.057 43.264 65.237 80.17 65.433l81.878.444c6.98.034 21.342 3.823 27.802 6.195l50.457 18.518c34.296 12.586 71.945 7.594 102.059-6.144.939-.93 10.035 3.865 10.428 6.732l5.7 41.088c1.613 11.614 3.558 21.257 5.59 31.523l11.331 1.868 13.876-27.776c8.874-17.757 15.104-36.121 19.635-55.637l6.895-29.73 2.986-8.627c1.298-3.755 5.138-14.72 8.286-17.152 50.048-38.682 66.526-36.753 105.293-63.667l23.637-16.41c40.252-27.947 47.642-86.127 43.939-128.316l8.456 7.8.46-13.765 4.737-5.956c5.12 12.8 6.784 28.578 8.875 44.135 12.518 93.081 31.138 85.222-10.223 172.057-20.335 42.684-59.136 64.103-102.955 78.968-25.259 8.567-45.705 21.222-64.393 41.139-34.5 36.77-78.301 66.304-130.568 71.014-35.422 3.192-71.091-6.826-103.893-17.212l-42.94-13.585c-70.212-22.212-113.28-9.395-147.559-46.404-11.835-12.774-22.237-30.054-23.278-47.513l-3.243-54.46c-.853-14.328 2.594-23.39 6.553-34.56z"/><path fill="#ec5464" d="M576.154 750.037c-6.452-2.363-20.822-6.152-27.802-6.195l-81.877-.444c-36.907-.196-67.593-37.376-80.171-65.433 6.844-19.328 17.766-36.958 35.977-48.504l8.934-7.808c1.015-.887 2.56-2.91 3.507-4.062 46.046 3.098 49.51-17.57 104.576-16.315 23.416.537 42.948 4.633 65.596 10.504 38.212 9.907 32.614-16.162 83.67 13.073 33.006 18.902 96.136 62.046 64.81 104.9l-61.09 20.208c-18.663 6.178-40.5 3.763-60.271.05l-43.341-8.149c-3.354-.631-13.5 7.083-12.527 8.192z"/><path fill="#fbacb1" d="M981.495 485.47c1.664 2.457 4.515 7.868 4.78 10.829 3.703 42.188-3.687 100.369-43.939 128.315l-23.637 16.41-28.408 3.652c-17.911 2.304-34.142-3.08-51.26-8.209-20.292-6.076-77.508-13.09-88.874.401-1.604 1.903-.487 9.984 1.203 11.819l24.303 26.47c6.51 7.092 5.572 26.752 17.152 34.722 6.784 16.521-53.47 47.668-64.128 52.532-30.106 13.738-67.763 18.73-102.059 6.144l-50.457-18.518c-.973-1.109 9.173-8.823 12.527-8.192l43.34 8.15c19.78 3.72 41.609 6.127 60.271-.052l61.09-20.206c31.326-42.855-31.803-86-64.81-104.9-51.047-29.236-45.457-3.167-83.67-13.074-22.647-5.87-42.18-9.975-65.595-10.504-55.066-1.255-58.53 19.413-104.576 16.315l4.25-5.922c4.249-1.416 10.043-4.113 15.129-7.142l44.646-26.616-8.584-.477 11.964-5.846c33.33-16.281 55.842-38.75 74.35-70.118l19.44-32.956c1.16.026 4.164.188 4.701.051s1.28 5.854.93 7.126l-7.577 27.58c-3.43 12.5-8.781 25.096-15.761 36.437-16.657 27.067-23.689 19.541-35.67 38.664l70.042 10.377c52.087 7.714 58.291-3.328 97.647-34.654 3.37-2.68 14.575-6.92 19.797-6.485l51.909 4.386c8.362 1.945 9.002 2.867.964 5.307-73.455 19.772-49.186-10.077-104.918 40.073-15.377 13.841 48.248 31.454 54.34 30.54l52.796-7.918c49.161-7.382 54.802 9.037 89.404 3.592 21.171-3.328 62.686-7.978 73.148-29.568 5.555-11.46 13.414-29.747 16.239-43.477L975.65 493.5c.495-2.424 5.564-8.508 5.88-8.03z"/><path fill="#db4353" d="m999.91 484.378-4.736 5.956-.46 13.764-8.457-7.8c-.256-2.96-3.115-8.362-4.779-10.828-3.43-5.069-8.405-12.314-13.67-19.175-8.858-11.554-62.43-24.166-57.515-45.218l-13.235-15.82-13.85-18.262c-.895-1.186-1.006-6.989-.674-6.852l20.566 18.876c15.3 14.037 30.651 26.069 49.271 35.942 20.898 11.076 39.151 28.501 47.522 49.425z"/><path fill="#fbeeef" d="m431.215 621.645-8.934 7.808c.128-1.946.162-7.902 2.389-7.774 1.57.085 5.47 0 6.545-.034"/><path fill="#fca9af" d="M874.07 474.598c-51.533-1.314-28.553-43.989-80.154-43.477l-53.64.53 8.097-7.57c41.6-2.952 51.943-14.285 92.126 8.9l9.105 21.265c2.808 6.554 16.649 14.115 24.474 20.352z"/><path fill="#eb5360" d="M918.682 641.024c-38.767 26.914-55.237 24.986-105.293 63.667-3.14 2.432-6.98 13.398-8.286 17.152l-2.987 8.627-1.39-12.714c-.3-2.757-5.735-6.358-7.937-7.877-11.57-7.961-10.64-27.63-17.152-34.722l-24.303-26.47c-1.68-1.835-2.799-9.916-1.203-11.819 11.358-13.49 68.574-6.477 88.875-.4 17.118 5.12 33.348 10.504 51.26 8.208l28.407-3.652z"/><path fill="#f6888d" d="m802.125 730.47-6.895 29.73c-4.531 19.516-10.76 37.88-19.635 55.638l-13.876 27.776-11.332-1.869c-2.03-10.266-3.976-19.908-5.59-31.522l-5.7-41.088c-.4-2.867-9.497-7.672-10.427-6.733 10.658-4.864 70.912-36.01 64.128-52.531 2.201 1.51 7.629 5.12 7.936 7.876l1.39 12.715z"/><path fill="#ec5563" d="M491.35 136.738c39.39 10.257 44.458 24.295 92.347 44.826 21.94 9.403 45.201 16.708 60.408 32.554-3.943 6.81 26.948 47.053 35.165 47.326l-1.135 6.87c-3.626 21.017-6.57 43.733-18.414 62.899-26.573 42.982-117.325 48.776-150.836 70.741-35.814 23.475-35.754 43.068-62.43 62.72-1.288-.017-3.003.051-3.925-.162-61.525-13.96-115.31.282-99.413-39.595 5.205-13.064 7.057-27.29 7.612-41.745l.972-25.43c1.937-7.61 1.289-7.56-2.705-.204l-9.608 27.631-15.369 45.32c-19.191 25.652-45.756 41.02-74.445 54.486-13.55 6.357-38.647 23.79-36.411 39.33l-5.044.316-.725-7.74c-3.865 3.507-5.999 6.443-7.688 5.7l-5.837-2.577c-9.028-3.985-18.5-8.55-27.426-11.938l-30.814-11.716c-3.678-1.4-8.918-6.477-11.554-8.755 6.767-12.084-18.978-38.324-32.777-47.224-32.555-21.017-36.804-53.248-26.829-88.994 10.232-36.685 43.913-51.627 77.176-63.607 90.248-32.504 85.802-7.151 143.283-14.31 13.158-1.64 28.348-9.558 40.747-14.44l20.335-8.003c-12.348-.692-25.327 1.373-39.663 5.896-38.272 12.092-75.188 5.82-64.564-2.39 91.367-70.596 67.311-79.726 201.208-100.104 33.562-5.111 17.152-15.872 48.35-17.698zm-12.698 66.773c-29.893-3.328-35.405 51.559-24.679 68.89 17.707-28.749-6.758-29.414 24.679-68.89m-47.872 99.192c-2.987-2.398-46.268 3.925-45.867 19.32l25.83-10.992 20.395-.682c12.28-.41 52.591 16.708 90.727-5.683 22.442-13.184 22.81-26.607 53.145-30.49l40.61-5.205 20.617-2.714 8.175-1.11c1.75-.238-.307-7.5-1.937-6.817-30.03 12.586-58.786-9.583-107.87 15.658l-30.413 15.642c-11.895 6.118-27.187 6.903-41.225 8.183l-32.196 4.907zm184.414 14.31 18.184-6.562c-23.04-12.885-52.087-5.956-61.491 20.95zm-433.17 73.037c-2.952-8.132-.563-24.542.572-36.779-10.479 7.092-17.169 28.818-13.977 41.618 1.169 4.693 11.443 12.185 15.744 13.192l31.48 7.407c.195-16.947-30.192-15.47-33.818-25.446z"/><path fill="#d33544" d="m701.696 351.155-.102 46.524c-30.575 17.928-59.358 12.732-84.736 42.752-8.013 9.472-15.54 18.893-20.958 28.075l-19.44 32.955c-18.5 31.369-41.01 53.837-74.35 70.119l-11.964 5.845c-23.868 6.494-45.013 14.012-68.71 22.733-7.731 2.85-17.28 10.24-23.228 13.329-17.297 8.977-32.23 17.331-48.486 27.469-44.297 27.622-88.645 30.609-141.09 27.716-8.005-.444-21.07-4.335-28.246-6.835l22.417-22.52c21.479-48.239 32.964-43.23 38.648-103.722.35-.811.844-2.526 1.143-3.345 39.731 3.072 70.204-3.14 109.773-17.699 8.823-3.242 18.688-8.968 27.221-13.056l21.743-10.419 13.799-6.46c.11-.119 3.985 6.247 4.463 8.33l11.025 48.554c7.543-8.738 14.643-22.417 14.856-32.222l.964-44.595c26.676-19.653 26.616-39.245 62.43-62.72 33.51-21.957 124.263-27.76 150.835-70.742 11.845-19.157 14.789-41.873 18.415-62.899l1.135-6.87c-8.217-.272-39.108-40.515-35.166-47.325 3.175.794 10.83 3.976 13.594 6.366 39.757 34.406 44.109 82.602 44.006 130.662z"/><path fill="#e24a58" d="M124.075 487.612c2.636 2.27 7.876 7.355 11.554 8.755l30.814 11.716c8.917 3.388 18.398 7.953 27.426 11.938l5.837 2.577c1.68.743 3.823-2.193 7.688-5.7l.725 7.74 1.886 36.471c.657 12.655 2.603 30.106-.46 40.875l-9.933 34.901 3.2 2.432-22.417 22.52c-20.318-7.083-36.608-19.277-51.567-33.366-47.864-45.064-74.249-44.066-105.114-72.166-12.902-11.742-20.471-28.228-21.017-43.563 15.232-42.555 16.443-69.068 29.696-113.416l17.834 27.315c18.74 28.715 51.567 41.754 73.848 60.954z"/><path fill="#f9a7a9" d="M491.35 136.738c-31.199 1.826-14.789 12.595-48.35 17.698-133.897 20.378-109.842 29.517-201.208 100.105-10.624 8.209 26.291 14.48 64.563 2.39 14.336-4.532 27.315-6.597 39.663-5.897l-20.335 8.004c-12.407 4.88-27.597 12.8-40.746 14.438-57.49 7.168-53.044-18.193-143.284 14.31-33.263 11.981-66.944 26.923-77.175 63.608-9.967 35.746-5.726 67.977 26.829 88.994 13.79 8.9 39.543 35.14 32.776 47.224-22.28-19.209-55.108-32.248-73.847-60.954L32.4 399.343c-13.26 44.348-14.464 70.86-29.696 113.416C-.69 508.083-.247 500.036.65 494.797l8.302-48.444c9.063-52.855 12.195-98.756 47.881-138.36 32.026-35.54 81.51-48.494 126.14-63.598 65.843-22.272 74.598-52.728 146.85-87.143 33.98-16.179 74.24-26.64 112.828-25.455l39.705 1.22c2.253.069 9.284 3.482 8.994 3.73z"/><path fill="#fbeeef" d="m490.155 577.425 8.584.478-44.646 26.615c-5.086 3.03-10.88 5.726-15.13 7.143l12.996-10.027c1.289 1.715-2.141-2.833-5.026-6.656l-18.594 7.86c-9.412 6.655-19.78 10.803-30.122 10.657 5.939-3.08 15.488-10.478 23.227-13.329 23.697-8.72 44.843-16.239 68.71-22.732z"/><path fill="#fbb4b7" d="M442.522 464.52c-.419.47-5.018 3.994-7.288 5.138l-19.874 9.992c-30.814-12.646-42.803-2.432-86.613-15.394L279.91 487.45c-17.28 8.209-31.496 28.902-37.307 44.8-.299.819-.794 2.525-1.144 3.345-10.368-1.195-20.693-4.668-28.305-11.281-2.236-15.54 22.86-32.965 36.412-39.33 28.689-13.466 55.253-28.835 74.445-54.486l15.368-45.32 9.609-27.631c3.993-7.356 4.642-7.407 2.705.204l-.973 25.43c-.555 14.447-2.398 28.68-7.612 41.745-15.897 39.868 37.88 25.634 99.414 39.595"/><path fill="#fcaeb4" d="m431.138 310.349-.358-7.638 32.196-4.906c14.037-1.272 29.33-2.065 41.225-8.184l30.412-15.641c49.076-25.242 77.833-3.064 107.87-15.659 1.63-.683 3.687 6.588 1.937 6.818l-8.175 1.11-20.616 2.713-40.61 5.205c-30.345 3.892-30.703 17.315-53.146 30.49-38.135 22.392-78.438 5.274-90.726 5.683z"/><path fill="#f88991" d="M241.46 535.595c-5.684 60.492-17.17 55.483-38.648 103.722l-3.2-2.432 9.933-34.901c3.063-10.77 1.117-28.22.46-40.875l-1.886-36.471 5.044-.316c7.603 6.613 17.937 10.087 28.305 11.281z"/><path fill="#f8808c" d="m415.138 484.617.222-4.967 19.874-9.992c2.27-1.144 6.87-4.668 7.288-5.137.921.204 2.636.145 3.925.162l-.964 44.595c-.214 9.805-7.313 23.484-14.857 32.222l-11.025-48.555c-.47-2.082-4.343-8.44-4.463-8.328"/><path fill="#fcaaaf" d="M182.025 390.05c3.618 9.976 34.005 8.5 33.817 25.447l-31.48-7.407c-4.3-1.016-14.574-8.5-15.743-13.193-3.192-12.808 3.498-34.534 13.977-41.617-1.135 12.228-3.524 28.646-.571 36.779z"/><path fill="#fba9af" d="M478.652 203.511c-31.437 39.476-6.972 40.141-24.679 68.89-10.718-17.331-5.214-72.226 24.679-68.89"/><path fill="#fcb2b5" d="m615.194 317.013-43.307 14.388c9.395-26.906 38.451-33.835 61.491-20.95z"/><path fill="#f7878f" d="m430.78 302.703.358 7.637-20.395.683-25.83 10.99c-.401-15.393 42.88-21.725 45.867-19.319z"/><path fill="#eb5565" d="m415.369 479.65-.222 4.967-13.799 6.46-21.743 10.418c-8.533 4.088-18.398 9.814-27.221 13.056-39.57 14.558-70.042 20.77-109.773 17.699 5.811-15.898 20.028-36.591 37.308-44.8l48.836-23.194c43.81 12.962 55.8 2.748 86.614 15.394"/></svg>