<svg xmlns="http://www.w3.org/2000/svg" viewBox="0 0 1024 1024"><path fill="#53691f" d="M185.437 483.808c-.674 8.277-5.512 25.779-7.705 34.679-.214.853-2.654 4.241-3.38 7.228-16.87 69.41-17.356 137.95 3.38 206.65 53.691 177.929 244.18 287.676 423.909 235.076l13.49-1.928c37.667-4.258 78.268-14.02 113.716-27.904 14.336-5.615 27.554-14.225 41.702-19.96 3.541-1.433 6.042-3.131 10.3-2.235-152.371 142.327-380.552 145.885-534.663 3.814-144.05-132.795-156.433-318.395-82.927-493.268 7.091-16.87 16.128-33.143 23.185-50.03 25.259-60.365 44.595-122.982 70.298-183.083.759 7.049-.7 13.056-2.398 19.764-11.392 45.038-26.752 89.267-39.535 133.887-12.928 45.124-25.566 90.564-29.363 137.31z"/><path fill="#a5c43b" d="M904.146 610.903v2.005c.06 8.968.06 18.014 0 26.974h-1.007c-1.792 5.939-.793 12.902-.921 19.268-1.306 64.017-29.875 139.682-65.51 192.682-3.627-.905-.23-5.99.495-8.183 19.695-59.921 29.175-127.266 26.478-190.285-.938-21.998-3.805-46.446-5.742-68.445-8.73-99.004-61.389-192.23-97.365-284.15-28.374-72.491-50.842-156.997-111.701-210.082-19.636-17.127-43.7-28.186-66.518-40.423-38.502-20.659-63.36-32.622-106.82-42.512-2.705-.615-7.33-1.246-8.789-3.738 2.432-.324 5.223.256 7.706 0 3.84-.393 7.287-1.903 7.705-1.929 7.023-.443 14.285.29 21.291-.076 5.854-.308 11.708-.197 17.57.034 6.238.239 12.706-.342 18.953.042l1.169 1.716 6.545.213c2.449.29 5.41-.41 7.705 0l1.203 1.715 4.574.213C736.937 41.765 762.23 193.095 820.29 335.465c28.714 70.4 57.07 124.364 74.214 200.353l1.135 4.326s9.301 62.14 8.499 70.733z"/><path fill="#53691f" d="M466.755 4.022c1.459 2.492 6.084 3.124 8.79 3.738 43.46 9.882 68.317 21.854 106.819 42.513-1.348 4.02-6.127.717-8.798.128-29.278-6.46-60.902-8.994-90.513-5.99-190.489 19.362-203.237 250.452-275.489 385.423l-22.127 53.982c3.798-46.745 16.435-92.185 29.363-137.31 12.783-44.611 28.143-88.84 39.535-133.887 1.698-6.707 3.158-12.714 2.398-19.763C297.002 98.682 357.648 18.64 466.755 4.022m437.4 609.509c6.059 92.56-28.561 169.352-53.026 214.954-1.092 2.03-12.51 20.497-14.413 23.356-14.83 22.058-36.53 45.508-55.876 63.59-4.258-.896-6.758.802-10.3 2.235-14.14 5.726-27.357 14.345-41.702 19.96-35.447 13.884-76.049 23.654-113.715 27.904l62.328-27.273c100.437-56.482 170.256-156.483 182.348-272.391l.034-15.377z"/><path fill="#dde584" d="M522.63 2.102c-7.014-.128-14.182-.179-21.196 0V1.096c6.187-1.895 13.5-.768 20.062-.717l1.135 1.715zm-40.464 0c-.418.026-3.866 1.536-7.706 1.929l1.17-1.715zm65.519 1.92-6.545-.213-1.17-1.715c4.412.273 7.28 1.877 7.706 1.928zm13.482 1.929-4.574-.213-1.203-1.716c3.44.615 5.453 1.86 5.777 1.929m21.197 44.322c22.818 12.245 46.882 23.296 66.517 40.422 60.851 53.095 83.328 137.591 111.701 210.082 35.976 91.92 88.636 185.147 97.365 284.15 1.937 22 4.514 40.576 5.453 62.575l-3.567 2.978-.034 15.377c-12.092 115.908-81.911 215.91-182.348 272.392l-62.328 27.272-13.49 1.929c-17.366-.828-35.696 1.143-52.95-.043-34.423-2.364-72.823-11.673-105.608-23.492-30.345-10.948-57.993-27.153-86.152-41.975-.94-3.354-3.9-4.378-6.383-6.144-97.92-69.871-157.448-173.218-168.994-293.444-2.005-20.906-4.924-46.583-3.908-67.558.264-5.478 4.608-10.521.085-16.29 2.193-8.9 7.032-26.41 7.706-34.68l22.127-53.981c72.251-134.971 85-366.062 275.489-385.424 29.61-3.012 61.243-.47 90.513 5.99 2.67.59 7.45 3.9 8.797-.127zm-262.05 458.588c-10.111 12.408-16.093 30.208-19.268 46.242l-1.62 1.212c-46.354 190.37 165.067 338.431 325.246 213.546 30.959-24.132 50.893-52.89 63.667-89.514 5.65-16.18 13.79-30.968 18.355-48.12 40.192-150.749-98.704-285.447-248.148-246.22-59.768 15.685-105.975 57.028-132.847 111.863-2.184 4.455-1.817 6.605-5.393 10.983z"/><path fill="#c1ca66" d="M356.923 901.94c28.168 14.83 55.816 31.035 86.152 41.975 32.785 11.827 71.185 21.128 105.608 23.492 17.254 1.186 35.584-.793 52.95.043-179.73 52.6-370.218-57.148-423.91-235.076 5.06 1.87 5.666 7.535 9.668 10.556 6.819 5.146 14.806-.06 19.106 8.004l-1.646 7.228 5.725 7.91c-6.391 10.41-5.341 28.382 2.782 37.598 1.57 1.784 4.233 2.057 5.811 3.823 2.56 2.876 2.134 8.218 4.728 10.675 4.702 4.455 8.269.691 10.436 1.092 6.084 1.144 5.88 11.247 3.277 15.958 6.733 5.53 6.639 13.423 16.29 12.842 6.955-.418 13.517-4.684 21.171-.017l5.734-3.78c9.746 9.07 20.796 16.12 28.98 26.786l-.948 8.533 1.8 2.134c4.396 4.01 9.9 1.886 14.209 3.131 9.78 2.833 19.149 11.486 28.296 16.103 1.673.845 3.303.717 3.772.964z"/><path fill="#c2cb67" d="M356.923 901.94c-.47-.248-2.1-.12-3.772-.965-9.148-4.625-18.517-13.269-28.297-16.102-4.317-1.246-9.813.879-14.208-3.132l-1.8-2.133.947-8.533c-8.183-10.667-19.234-17.716-28.979-26.786l-5.734 3.78c-7.655-4.668-14.217-.401-21.171.017-9.643.58-9.558-7.313-16.29-12.843 2.602-4.71 2.807-14.814-3.277-15.957-2.168-.41-5.735 3.354-10.437-1.092-2.602-2.458-2.167-7.8-4.727-10.675-1.57-1.767-4.233-2.048-5.811-3.823-8.124-9.216-9.174-27.187-2.782-37.598l-5.726-7.91 1.647-7.228c-4.31-8.064-12.296-2.859-19.106-8.004-4.01-3.021-4.608-8.687-9.668-10.556-20.736-68.71-20.25-137.25-3.38-206.651.726-2.978 3.166-6.375 3.38-7.228 4.522 5.769.179 10.812-.086 16.29-1.024 20.975 1.895 46.652 3.909 67.558 11.545 120.226 71.074 223.573 168.993 293.444 2.475 1.766 5.436 2.799 6.383 6.144z"/><path fill="#c1cb68" d="m301.046 555.103.018 21.163 5.742.06.12 14.319-3.67 1.245c-.844 4.813-1.57 11.589 5.496 11.375-.085 1.895.23 3.968 0 5.777-.18 1.391-2.714 3.277-1.928 5.777h3.848c.597 6.503 2.04 15.028 3.857 21.197l-.853 11.708-4.702 2.005c-2.97 11.81-3.243 18.483 11.332 17.118.7-4.139-3.405-4.625-3.865-8.653-.675-5.81 3.6.017 5.794-.973.46 1.801 1.996 3.235 1.928 5.777-.188 6.972 2.978 10.957 1.92 18.313-.529 3.703-3.925 6.699-3.908 9.634.051 8.226 10.129 9.66 16.154 12.8 5.478 2.859 3.9 5.751 10.88-.282 1.211 2.091 3.012 3.755 3.857 5.777.503 1.22-.905 4.284.921 5.82l1.963 1.878 2.893-1.912c5.162 6.357 9.378 10.103 15.41 15.411l-1.91 4.822c.955.972 1.91 1.937 2.892 2.892l4.804-1.928c1.673 1.34 4.028 2.551 5.777 3.857-.921 4.625 1.255 5.837 3.857 8.67 3.226 3.507 11.555 8.917 15.992 10.982 3.84 1.784 5.393 2.261 9.054-.375 19.439 10.717 41.864 17.97 63.59 21.196l1.169 1.716 6.545.213c2.543.205 5.154-.137 7.706 0l5.111 5.546c5.615-2.056 8.55-4.19 15.206-3.711 4.702.34 9.899 5.12 12.442-1.835 29.738-1.57 65.851-13.773 91.22-29.201 29.321-17.826 51.85-44.663 70.631-72.917-12.774 36.625-32.717 65.382-63.667 89.514-160.179 124.885-371.6-23.176-325.247-213.546l1.621-1.212z"/><path fill="#c0c966" d="M308.752 603.274c-7.066.213-6.34-6.57-5.495-11.375l3.669-1.246-.12-14.319-5.742-.06-.018-21.162c3.175-16.034 9.157-33.843 19.269-46.242-1.203 9.122-5.206 17.502-7.262 26.453-5.58 24.269-3.217 43.861-4.3 67.96zm40.465 100.198c-6.989 6.033-5.41 3.14-10.88.282-6.024-3.15-16.102-4.574-16.154-12.8-.017-2.936 3.38-5.931 3.909-9.634 1.058-7.356-2.108-11.341-1.92-18.313 4.676 4.975 6.51 12.203 9.933 18.005 4.548 7.706 10.632 14.703 15.112 22.46m-26.974-46.242c-2.193.998-6.468-4.838-5.794.973.47 4.036 4.574 4.522 3.866 8.653-14.575 1.365-14.302-5.308-11.333-17.118l4.702-2.006.854-11.707c1.877 6.4 5.794 13.747 7.705 21.196zm57.805 79.001-4.804 1.929q-1.46-1.434-2.893-2.893l1.911-4.821c2.202 1.937 4.54 4.787 5.777 5.777zm-21.197-21.196-2.893 1.911-1.962-1.877c-1.835-1.536-.418-4.6-.922-5.82 3.251.896 4.096 3.703 5.777 5.777zm-48.17-100.198h-3.849c-.785-2.5 1.75-4.395 1.929-5.778l1.715 1.204c.546 1.493.077 3.114.213 4.582z"/><path fill="#97612e" d="M688.34 680.347c-18.783 28.253-41.31 55.09-70.631 72.917-25.378 15.437-61.491 27.64-91.221 29.2-10.138.538-22.622.547-32.76 0-2.55-.136-5.17.206-7.705 0-.427-.033-4.233-1.407-7.706-1.928-21.717-3.225-44.15-10.479-63.59-21.196-9.762-5.385-19.934-12.604-28.902-19.269-1.75-1.297-4.113-2.508-5.777-3.857-1.237-.99-3.584-3.848-5.777-5.777-6.042-5.316-10.249-9.054-15.411-15.41-1.69-2.075-2.535-4.882-5.777-5.778-.837-2.03-2.646-3.686-3.857-5.777-4.48-7.757-10.565-14.754-15.113-22.46-3.422-5.802-5.256-13.03-9.933-18.005.069-2.543-1.467-3.985-1.928-5.777-1.92-7.45-5.828-14.797-7.706-21.197s-3.26-14.694-3.857-21.196c-.136-1.46.341-3.09-.213-4.583l-1.715-1.203c.23-1.81-.086-3.883 0-5.777 1.083-24.098-1.28-43.69 4.3-67.96 2.057-8.96 6.059-17.339 7.262-26.453 3.576-4.386 3.209-6.528 5.393-10.982 26.863-54.844 73.08-96.179 132.847-111.863 149.444-39.228 288.34 95.47 248.148 246.22-4.574 17.143-12.714 31.94-18.355 48.12zM547.035 403.202c-13.747 3.02-16.572 22.494-8.038 32.444 3.976 4.633 22.767 9.224 29.798 12.595 27.238 13.03 53.3 39.663 65.971 66.978 7.057 15.206 8.038 34.97 31.087 29.935 6.187-1.349 13.56-10.334 14.506-16.478 1.127-7.322-10.7-32.862-14.77-40.423-13.697-25.429-40.244-53.213-65.23-67.728-12.731-7.399-39.065-20.463-53.332-17.323z"/><path fill="#ce9e67" d="M547.036 403.202c14.268-3.14 40.602 9.924 53.333 17.323 24.986 14.515 51.533 42.3 65.229 67.728 4.07 7.561 15.906 33.101 14.771 40.423-.947 6.144-8.32 15.13-14.507 16.478-23.057 5.034-24.038-14.729-31.086-29.935-12.672-27.315-38.742-53.948-65.971-66.978-7.032-3.362-25.83-7.962-29.799-12.595-8.533-9.95-5.717-29.423 8.039-32.444z"/><path fill="#c0c966" d="M414.727 759.348c-3.67 2.645-5.214 2.159-9.054.376-4.437-2.057-12.757-7.476-15.991-10.983-2.603-2.833-4.779-4.045-3.857-8.67 8.968 6.665 19.14 13.884 28.902 19.269zm111.76 23.125c-2.542 6.963-7.739 2.176-12.44 1.835-6.657-.478-9.592 1.655-15.207 3.712l-5.111-5.547c10.137.546 22.613.538 32.759 0m-40.464 0-6.545-.213-1.17-1.715c3.474.512 7.28 1.894 7.706 1.928z"/></svg>