<svg xmlns="http://www.w3.org/2000/svg" viewBox="0 0 1024 1024"><path fill="#e3a837" d="M768 512a71.111 71.111 0 1 0 142.222 0A71.111 71.111 0 1 0 768 512"/><path d="M839.111 384a128 128 0 1 0 0 256 128 128 0 0 0 0-256m0 56.889a71.111 71.111 0 1 1 0 142.222 71.111 71.111 0 0 1 0-142.222"/><path fill="#e3a837" d="M540.444 227.556c149.234 0 270.223 120.988 270.223 270.222v28.444c0 149.234-120.989 270.222-270.223 270.222H384v-18.688c-22.073 12.09-46.052 18.688-71.111 18.688-109.966 0-199.111-127.345-199.111-284.444s89.145-284.444 199.11-284.444c25.06 0 49.04 6.613 71.112 18.688v-18.688z"/><path fill="#f7cb6f" d="M384 199.111h170.667c141.383 0 256 114.617 256 256s-114.617 256-256 256H384z"/><path d="M540.444 170.667H327.068l-.014.142-.91-.043a199 199 0 0 0-6.144-.1c-146.617 0-256 156.26-256 341.334s109.383 341.333 256 341.333l6.144-.1.91-.042v.142h213.39c180.665 0 327.112-146.446 327.112-327.11v-28.445c0-180.665-146.447-327.111-327.112-327.111m0 56.889c149.234 0 270.223 120.988 270.223 270.222v28.444c0 149.234-120.989 270.222-270.223 270.222H384v-15.018c-20.068 9.742-41.6 15.018-64 15.018-109.966 0-199.111-127.345-199.111-284.444S210.034 227.556 320 227.556c22.386 0 43.918 5.276 64 15.018v-15.018z"/><path fill="#f7e1ad" d="M113.778 512A284.444 199.111 90 1 0 512 512a284.444 199.111 90 1 0-398.222 0"/><path d="M312.889 199.111C184.604 199.111 85.333 340.907 85.333 512s99.271 312.889 227.556 312.889S540.444 683.093 540.444 512s-99.27-312.889-227.555-312.889m0 28.445C422.855 227.556 512 354.9 512 512s-89.145 284.444-199.111 284.444S113.778 669.1 113.778 512s89.145-284.444 199.11-284.444"/><path fill="#c6875b" d="M297.358 547.556c-13.084 0-23.708-15.93-23.708-35.556s10.624-35.556 23.708-35.556 23.709 15.93 23.709 35.556-10.61 35.556-23.709 35.556m.896-153.87c-23.51-25.914-35.27-45.74-35.27-59.464 0-23.566 26.595-49.778 46.221-49.778 19.641 0 42.667 26.212 42.667 49.778 0 13.654-10.724 33.323-32.185 59.022v.015a14.222 14.222 0 0 1-21.433.44zm-67.27 82.758q-24.875 7.104-42.668 0c-17.777-7.11-21.333-28.444-14.222-42.666s24.363-36.167 42.667-21.334c12.217 9.885 16.953 31.218 14.222 64m3.725 82.916c-2.944 24.988-9.514 38.684-19.712 41.031-15.317 3.527-31.289-9.102-35.712-28.245-4.423-19.13 4.41-37.504 19.712-41.046q15.297-3.52 35.712 28.246zm117.163-4.693q56.896 14.229 74.667 42.666c17.777 28.445 2.46 62.01-21.334 67.556-23.78 5.547-42.993-3.698-53.333-24.889q-10.326-21.184 0-85.333m-62.464 56.704c11.947 35.64 15.886 61.056 11.819 76.23-6.087 22.756-22.97 31.859-36.04 25.203-13.055-6.656-38.556-24.32-32.455-47.076 4.068-15.16 22.955-33.28 56.676-54.357m83.797-134.927c-9.827-30.407-8.647-50.56 3.556-60.444 18.318-14.834 46.478-8.932 58.837 6.329s19.926 49.948 1.607 64.782q-18.304 14.827-64-10.667"/></svg>