<svg xmlns="http://www.w3.org/2000/svg" viewBox="0 0 1030 1024"><path fill="#b04f26" d="M128.88 483.412c26.512 21.871 48.776 47.061 72.089 72.09 29.892 32.093 49.723 57.386 74.786 92.56 8.66 12.16 20.198 23.407 28.194 36.165 22.024 35.131 42.777 92.398 72.089 118.425 1.843 1.638 2.202 6.042 8.252 9.626 25.932 15.377 55.108 16.469 79.06-2.117 18.313-14.208 26.727-27.144 51.525-36.01 36.514-13.056 74.888 2.875 100.463-33.417 28.85-40.943 37.691-81.382 90.129-105.54 28.45-13.107 55.645-9.037 82.5-23.057 11.665-6.093 12.117-7.134 20.6-15.445 1.825-1.792 3.361-3.26 5.145-5.146 33.86-35.814 54.22-88.516 101.384-107.152 19.942-7.877 48.785-4.062 63.599-23.936l10.086-43.981c17.374 36.59 36.318 73.677 30.805 115.763-1.672 12.749-9.881 27.067-15.36 38.707l-9.292-.76c-14.294-49.168-64.17-54.493-98.833-19.84-18.193 18.185-25.506 37.41-19.755 63.522 3.601 16.333 26.317 32.973 14.61 49.758l-56.04 16.043-26.341 56.038c-.93-2.355-24.116-35.149-28.45-41.062-23.168-31.582-65.989-19.806-89.976 5.017-14.071 14.567-24.277 48.145-18.261 67.209 3.72 11.81 14.14 21.785 19.456 32.179 2.637 5.146 2.714 11.58 3.96 13.884-20.66 10.282-43.427 19.823-66.552 20.966-3.464 21.88-16.213 37.47-26.129 56.269l-9.08-.939c-8.055-15.061-35.916-61.03-50.781-65.357-30.763-8.943-46.165 4.43-63.718 25.097-1.425 1.68-5.803 2.346-9.575 8.294-27.554 43.435.717 64.239 9.575 104.986-21.274 1.698-35.849 7.185-58.112 4.053-76.68-10.795-87.543-96.904-117.743-155.153-46.907-90.479-113.186-170.82-187.05-240.324-16.922-15.923-46.635-34.491-61.704-51.566-25.14-28.476-27.102-69.171-17.101-104.269 2.483-8.712 15.07-37.982 19.49-44.868 2.176-3.388 20.855-20.42 25.745-25.745l-5.53 43.844c3.891 35.755 20.105 60.33 41.464 87.731l10.402 7.45z"/><path fill="#c46433" d="M736.46 102.383c-.333.025-1.118 3.686-2.671 3.6-3.678-.204-26.94-16.195-33.357-19.046l-10.308 25.745c-3.132-1.365-9.925-.546-13.602-4.65l-7.049 1.834c-10.743 7.33-8.96 13.116-10.248 23.416-.623 4.966.529 10.368-.009 15.411-36.463.887-67.336 25.668-97.851 43.767-7.91 4.694-16.87 5.325-15.42 18.057-3.874-1.852-21.58-9.097-24.252-9.651-5.273-1.101-6.255 4.428-6.647 4.505-1.545.307-8.482-6.75-15.369.077l-.247-15.565-15.266.034c3.976 16.811 4.019 24.363-10.309 36.045-10.112-6.502-24.627-8.883-33.612-.153l-7.894 13.03c.06 5.58 6.93 12.92 10.616 18.014 5.52 7.646 8.934 16.648 20.6 15.445 1.51 1.408 2.653 3.012 5.145 5.146-3.064 11.434-15.497-.29-20.574 2.525-19.524 10.82-43.87 25.216-63.275 34.629-17.22 8.354-39.295 12.962-55.176 24.635-1.041-.665-5.905.18-10.189-2.474-11.912-7.399-23.526-26.18-41.3-23.254 11.434 12.698 23.995 23.646 36.044 36.028-11.435 9.446-11.844 31.54-30.89 30.89-10.65-8.02-58.155-38.783-68.89-35.66-31.497 25.78-6.46 30.54 9.907 45.713 4.966 4.608 6.639 10.36 12.646 15.693l-62.011 48.69-46.114 28.545-10.402-7.45c-21.36-27.392-37.573-51.976-41.464-87.73l5.53-43.845c1.724-1.877 3.388-8.576 5.145-10.3 11.904-11.673 57.003-40.542 72.09-46.344 16.247-6.247 51.712-6.665 69.751-5.393 8.806.623 14.686 5.051 22.895 5.393 2.432-2.577 11.99-35.14 15.48-41.199 4.172-7.228 35.745-47.326 41.19-51.49 4.155-3.183 51.089-28.988 56.635-30.89 27.281-9.37 66.611-12.28 94.362-4.25 8.985 2.602 14.634 10.88 24.064 9.412-.794-11.06 4.573-21.777 10.308-30.908 5.401-8.593 33.493-40.012 41.19-46.344 8.858-7.27 60.8-32.708 72.09-36.045 3.805-1.126 29.815-5.572 33.467-5.572 32.623-.026 73.77 28.484 95.258 51.917z"/><path fill="#d17a49" d="M736.46 102.383c27.93-1.835 155.195 162.602 175.069 190.514v20.6l-20.59-10.291-4.208 12.902c15.437 20.634 42.752 54.434 24.798 79.77-22.332 2.687-24.064-.359-36.045-15.446-12.527-15.778-17.886-31.539-24.84-49.97-2.185-5.804 1.519-8.346-8.277-6.367-13.372 11.46-34.048 20.233-46.789 30.498-15.257 12.297-16.588 31.642-41.412 35.823l-12.56 26.06c-2.126-4.607-11.495-13.268-15.446-20.599 18.372-6.818 5.785-27.724 12.74-41.326 3.584-7.023 44.723-45.167 54.204-53.914 6.135-5.657 10.282-14.063 20.582-12.885 5.752 7.065 2.68 9.216 15.445 10.3 8.994.759 10.437 1.22 15.446-5.146 7.526-9.557.571-39.202-6.298-45.474-1.562-1.425-6.17-.256-7.86-1.886-9.172-8.9-22.527-32.384-32.084-42.846-20.463-22.408-82.364-78.77-108.228-90.01l10.308-25.744c6.417 2.85 29.679 18.841 33.357 19.046 1.553.086 2.338-3.575 2.67-3.6z"/><path fill="#be5f31" d="m988.764 416.477-10.086 43.98c-14.806 19.883-43.657 16.06-63.6 23.937-47.163 18.636-67.523 71.338-101.383 107.152l-2.586-5.145c-5.282-2.569-14.848 8.644-12.86 10.282h10.3c-8.482 8.329-8.934 9.37-20.6 15.463 4.54-10.232-8.584-19.345-8.712-22.972-.367-10.334-.188-14.25-1.527-26.052-3.985-34.953 20.25-14.225 30.233-23.714 20.873-46.788 63.65-79.607 90.615-123.179 2.902-4.693 1.553-11.161 3.747-14.259 1.015-1.425 5.93-1.425 9.233-6.084 17.945-25.335-9.361-59.136-24.798-79.77l4.207-12.902 20.574 10.291v-20.599c28.945 40.644 55.15 77.039 77.243 123.58z"/><path fill="#f2dfcc" d="M479.018 848.988c17.545-20.676 32.956-34.04 63.718-25.097 14.874 4.327 42.735 50.296 50.782 65.357l9.08.939c-7.612 11.28 3.908 20.027 7.807 30.805 8.491 23.475 10.232 35.848-3.336 58.769-3.567 6.024-8.329 6.681-9.626 8.252v-25.745l10.283 5.145c2.244-14.268-1.843-14.336-10.283-20.6-.725-.537-.375-4.274-5.145-5.145l-2.936-4.685a62.1 62.1 0 0 0-19.874 0l-2.935 4.685c-1.587.452-24.218 18.722-25.745 20.6-15.386-14.498-19.712-36.446-29.892-55.066-10.385-19.012-26.914-36.505-31.898-58.214"/><path fill="#f2deca" d="M808.549 735.708c.282.717-4.275 5.316-2.782 10.402 5.786 19.78 27.776 29.193 23.492 59.435-.972 6.843-5.128 6.963-5.265 7.39-.153-11.998 3.448-23.868-8.004-30.831-9.378 5.478-21.419 3.268-29.739 5.913-2.875.913-3.191 4.224-3.447 4.318-9.899 3.823-24.064 12.024-30.89 20.6l-61.79-113.28c23.987-24.824 66.807-36.6 89.975-5.018 4.335 5.914 27.52 38.707 28.45 41.063z"/><path fill="#f3e0cd" d="M896.084 550.348c34.662-34.654 84.54-29.33 98.833 19.84l9.292.759c1.451 25.557 23.945 37.657 25.745 61.79-2.491 1.365-9.941 9.352-10.3 10.3-3.105-.06-4.795-5.078-5.145-5.146l-3.02-4.591a87.2 87.2 0 0 0-24.85 0l-3.02 4.59c-15.471 2.177-13.978 10.488-20.352 18.28-3.26 3.984-9.9 6.519-10.54 7.466-8.771-10.198-10.051-25.267-16.178-37.88-12.34-25.378-35.798-47.513-40.457-75.4z"/><path fill="#e3caae" d="M751.913 812.943c-10.265 12.894-14.583 39.74 7.732 41.506 28.125 2.227 89.966-69.854 23.159-62.097.256-.102.572-3.405 3.447-4.318 8.312-2.645 20.36-.435 29.74-5.913 11.45 6.954 7.85 18.833 8.003 30.83-8.943 28.28-32.972 50.364-61.516 59.47-20.096 6.408-29.38.213-41.566-15.6-7.697-9.992-19.115-31.735-25.643-43.87-1.246-2.312-1.322-8.737-3.96-13.883-5.315-10.394-15.726-20.378-19.455-32.18-6.016-19.071 4.19-52.641 18.261-67.208l61.79 113.28z"/><path fill="#e4cbae" d="M952.72 663.627c-3.021 4.463-7.706 33.212-4.924 35.823 28.228 16.205 59.98-21 70.911-44.706 1.87-4.045.077-9.412.948-11.708.358-.947 7.808-8.934 10.3-10.3 1.066 14.362-.265 33.784-7.766 46.302-7.279 12.143-38.4 37.282-52.284 40.38-31.283 6.98-43.827-3.729-55.918-29.926-3.508-7.595-5.334-17.383-8.056-25.464l-14.993-.4c11.708-16.786-11.008-33.426-14.609-49.759-5.751-26.111 1.562-45.328 19.755-63.521 4.659 27.878 28.117 50.022 40.456 75.4 6.136 12.612 7.407 27.682 16.18 37.88"/><path fill="#e0c4a5" d="M540.8 962.268c-8.91 10.922-11.836 27.323-10.309 41.19 32.538 5.675 48.998-12.408 66.944-36.045v20.6c-19.943 24.174-60.877 53.068-87.723 23.364-10.521-11.64-12.996-34.415-21.52-48.29l-9.182-.81c-8.867-40.747-37.129-61.543-9.575-104.986 3.772-5.948 8.15-6.614 9.575-8.295 4.974 21.7 21.512 39.202 31.897 58.215 10.18 18.628 14.507 40.567 29.892 55.065z"/><path fill="#efdcc9" d="M159.778 287.752c-15.078 5.803-60.177 34.67-72.09 46.344-18.013-20.113-35.822-42.461-58.307-57.523-7.458-5-9.438-11.887-18.927-4.258 1.544-3.55-.026-6.716 4.915-12.97 6.963-8.824 33.22-26.659 43.99-28.203 38.024-5.453 52.505 25.642 77.243 46.319 7.646 6.391 10.487 13.047 23.168 10.3z"/><path fill="#f1dfcc" d="M607.735 56.047c-11.281 3.328-63.232 28.766-72.09 36.045-26.393-13.39-43.571-41.745-72.09-51.49.786-1.383-1.894-6.443 1.033-9.344 1.391-1.383 6.076-.359 7.953-2.253 1.903-1.929 1.007-6.486 2.432-7.62 7.629-6.085 38.878-22.563 47.01-21.317 33.263 11.76 49.895 51.849 85.743 55.979z"/><path fill="#f1deca" d="M237.013 143.582c13.867-20.899 38.084-39.56 64.359-36.045 16.785 2.244 24.814 15.88 35.967 25.984 3.806 3.447 9.711 3.806 11.887 5.982 3.712 3.703 10.445 19.191 16.512 24.678-5.546 1.903-52.48 27.716-56.635 30.89z"/><path fill="#e1c7aa" d="M87.689 334.088c-1.758 1.723-3.422 8.414-5.146 10.3-4.89 5.324-23.569 22.357-25.745 25.744L.76 315.477c-2.671-8.781 2.304-30.063 5.564-39.493.998-2.892 3.968-3.302 4.13-3.677 9.489-7.63 11.469-.734 18.927 4.258 22.485 15.07 40.294 37.418 58.308 57.523"/><path fill="#dfc4a4" d="M309.094 195.072c-5.444 4.164-37.026 44.262-41.19 51.49 3.004-15.488-3.874-14.712-11.93-21.539-13.158-11.153-27.494-21.887-33.851-38.621.725-16.81 5.99-29.406 14.89-42.82l72.09 51.49z"/><path fill="#e1c6a8" d="M535.654 92.092c-7.706 6.323-35.79 37.742-41.19 46.344l-45.978-54.75c-1.16-4.121 5.017-27.272 7.091-33.229 2.031-5.828 6.784-7.73 7.996-9.855 28.518 9.745 45.696 38.1 72.09 51.49z"/><path fill="#bf6439" d="M875.484 380.432c11.981 15.087 13.713 18.142 36.045 15.445-3.302 4.66-8.218 4.651-9.233 6.085-2.202 3.097-.845 9.566-3.746 14.259-26.957 43.571-69.743 76.399-90.615 123.178-9.984 9.49-34.21-11.238-30.234 23.714 1.348 11.802 1.16 15.719 1.528 26.053.128 3.626 13.252 12.74 8.712 22.971-26.846 14.02-54.041 9.95-82.5 23.057-52.437 24.15-61.278 64.597-90.129 105.54-25.574 36.292-63.949 20.36-100.463 33.417-24.797 8.866-33.211 21.802-51.524 36.01-23.953 18.586-53.12 17.494-79.06 2.117-6.051-3.584-6.41-7.988-8.253-9.626l.214-20.267 9.787-.725-2.653-15.198c4.65-4.377 11.17-5.854 15.931-10.052 35.328-31.104 93.193-64.478 138.266-77.995 10.58-3.174 5.46-16.332 13.525-19.942 7.253 12.083 14.182 27.179 25.736 36.045-.384-18.065-9.907-34.842-15.436-51.49 15.325 2.577 11.008-14.14 20.65-23.117 16.376-15.24 40.704-18.799 58.505-29.022 19.421-11.153 32.58-27.596 46.737-40.78 13.78-12.843 36.275-23.697 49.143-38.69l25.77 2.884c2.876 4.028 14.49 6.246 10.309 20.616l10.282-.034c.316-9.088-7.364-16.17-5.145-25.736 1.126-4.873 6.468-6.853.256-20.31 19.703-3.865 25.07-41.36 38.323-56.96 5.905-6.954 33.305-19.993 43.358-21 .102-5.282 1.621-9.958 3.012-15.01 2.628-9.49-.58-18.253 12.877-15.445z"/><path fill="#da834f" d="M396.629 437.068c30.558 35.191 60.834 75.101 87.535 113.28 3.353 13.397-7.586 9.045-12.886 15.513-2.124 2.594-1.655 8.021-3.345 9.412-2.884 2.39-17.621 1.844-25.139 8.474-6.016 5.308-3.891 11.324-4.966 12.928-.768 1.143-7.894 1.826-9.634 8.243-2.321 8.542.05 18.85-.666 27.802l-12.86-30.882c-14.011 16.58-35.037 20.036-52.505 29.883-7.296 4.113-45.449 25.361-47.164 27.486-3.012 3.729-.47 21.837-11.05 25.003-8.005-12.766-19.533-24.005-28.194-36.165-25.054-35.174-44.894-60.467-74.786-92.56 15.172-7.493 12.04-21.556 20.386-33.681 4.65-6.759 27.084-27.81 34.389-32.546 15.112-9.805 47.01-21.658 53.299 1.109l10.35-6.972c20.378 23.228 29.74 43.102 46.243 64.46 10.334 13.372 42.615 38.11 46.592 10.352 4.898-34.185-25.805-61.227-43.972-85.265-2.876-3.806-1.852-9.31-2.518-10.146l7.723 5.111 7.142-8.269 2.91-17.706 13.124-4.89z"/><path fill="#cb7344" d="M551.099 658.473c-8.064 3.61-2.944 16.768-13.525 19.942-45.073 13.517-102.938 46.891-138.266 77.995-4.761 4.19-11.28 5.675-15.931 10.052l2.654 15.198-9.788.725-.214 20.267c-29.303-26.027-50.064-83.294-72.089-118.425 10.59-3.166 8.047-21.265 11.05-25.003 1.716-2.125 39.868-23.364 47.164-27.486 17.46-9.847 38.486-13.312 52.506-29.883l12.86 30.882c8.73 8.934 9.915 31.377 23.756 35.447 49.545 14.55 28.33-78.378-13.457-71.484 1.075-1.612-1.05-7.62 4.967-12.928 7.526-6.63 22.254-6.092 25.139-8.473 1.69-1.4 1.22-6.827 3.345-9.412 5.308-6.469 16.247-2.117 12.885-15.514 24.79 35.447 44.817 71.279 66.935 108.126z"/><path fill="#d27845" d="M247.313 411.323c25.233 22.442 49.809 46.686 72.09 72.09l-10.351 6.97c-6.281-22.766-38.187-10.913-53.3-1.108-7.304 4.736-29.738 25.787-34.389 32.546-8.345 12.125-5.214 26.188-20.386 33.68-23.313-25.019-45.568-50.21-72.09-72.089l46.115-28.544 62.011-48.69c2.5 2.218 7.962 3.071 10.3 5.145"/><path fill="#bf6439" d="M813.695 591.538c-1.792 1.894-3.328 3.362-5.146 5.145h-10.3c-1.988-1.647 7.578-12.86 12.86-10.29z"/><path fill="#da844f" d="m473.864 225.962 92.501 74.974 36.224-8.039c32.41 35.584 59.102 74.633 87.535 113.28-3.217 5.598-9.378.922-17.272 5.692-7.398 4.48-12.51 11.708-18.739 17.476 15.3 12.058 39.287 49.903 15.565 61.926-25.899 13.125-31.616-22.775-49.39-33.484h-4.498c-28.706 28.322-62.413 53.273-100.727 66.816-15.838-28.655-63.701-90.599-87.535-113.28 4.284-6.895 14.729-6.81 22.443-11.034 10-5.478 42.461-26.06 49.595-32.785 9.976-9.412 8.175-29.039 25.788-28.33 1.971-7.808-1.707-8.38-5.12-12.834-17.553-22.947-30.959-31.275-51.516-48.896-2.491-2.134-3.643-3.747-5.145-5.146-5.496-5.137-8.073-17.672-20.6-15.445-3.678-5.095-10.547-12.433-10.615-18.014l7.893-13.03c8.994-8.739 23.51-6.35 33.613.153"/><path fill="#d27743" d="M468.718 277.452c20.557 17.621 33.963 25.941 51.516 48.896 3.405 4.454 7.091 5.026 5.12 12.834-17.613-.717-15.812 18.918-25.788 28.33-7.134 6.725-39.586 27.316-49.595 32.786-7.706 4.224-18.16 4.13-22.443 11.033-24.482-23.296-68.702-53.418-97.834-72.09 15.88-11.673 37.956-16.28 55.176-24.635 19.405-9.412 43.759-23.808 63.275-34.628 5.077-2.807 17.51 8.909 20.573-2.526"/><path fill="#b3572a" d="M329.694 339.242c29.124 18.67 73.352 48.793 97.834 72.09 23.834 22.68 71.697 84.624 87.535 113.279 19.097 34.56 33.851 80.802 46.344 118.425 5.53 16.649 15.053 33.425 15.437 51.49-11.554-8.866-18.483-23.961-25.737-36.044-22.118-36.847-42.146-72.679-66.935-108.126-26.7-38.178-56.977-78.088-87.535-113.28-26.077-30.02-54.715-59.084-82.38-87.534-12.05-12.382-24.61-23.33-36.045-36.028 17.775-2.927 29.389 15.855 41.301 23.253 4.284 2.663 9.148 1.81 10.19 2.475z"/><path fill="#b2572a" d="M545.953 210.517c13.014 6.22 56.371 32.648 66.936 41.19 50.636 40.934 82.73 87.569 113.28 144.17 3.959 7.33 13.32 15.992 15.445 20.6 10.043 21.777 17.143 48.025 24.38 70.878 2.355 7.45 3.908 18.21 11.664 21.81-2.218 9.575 5.462 16.658 5.146 25.737l-10.283.034c4.19-14.37-7.432-16.597-10.308-20.616-25.054-35.055-45.158-71.526-72.09-108.126-28.432-38.647-55.125-77.687-87.534-113.28l-87.535-87.534c.393-.077 1.374-5.598 6.648-4.506 2.662.555 20.377 7.8 24.251 9.651z"/><path fill="#d17644" d="M659.225 133.282c12.578 2.236 17.024 20.505 21.512 24.815 2.705 2.594 14.967 5.52 22.357 11.136 17.775 13.49 33.331 35.447 48.81 51.584 2.211 16.913-6.058 9.241-15.496 7.773-28.731-4.463-38.63-.648-64.4 2.432-20.48 2.45-47.59-3.54-59.12 20.685-10.564-8.542-53.93-34.97-66.935-41.19-1.45-12.732 7.501-13.355 15.42-18.057 30.515-18.099 61.389-42.888 97.852-43.767.537-5.043-.606-10.445.008-15.411z"/><path fill="#e2935e" d="M690.124 112.682c25.864 11.239 87.765 67.601 108.228 90.01 9.557 10.462 22.912 33.945 32.085 42.846 1.69 1.638 6.298.46 7.86 1.885 6.868 6.272 13.832 35.917 6.297 45.474l-12.246.564-3.2 4.582c-12.765-1.075-9.693-3.234-15.445-10.3-19.08-23.45-41.412-45.696-61.79-66.935-15.479-16.136-31.035-38.093-48.81-51.584-7.39-5.606-19.652-8.542-22.357-11.136-4.489-4.31-8.935-22.57-21.513-24.815 1.28-10.29-.495-16.085 10.249-23.415l7.048-1.835c3.678 4.105 10.462 3.286 13.602 4.65z"/><path fill="#cc6f3e" d="M473.864 225.962c14.336-11.682 14.285-19.234 10.308-36.045l15.266-.034.248 15.565c6.886-6.827 13.824.222 15.368-.077l87.535 87.535-36.224 8.038-92.501-74.973z"/><path fill="#d17542" d="M314.248 349.533c27.674 28.45 56.312 57.506 82.38 87.535l-13.123 4.89-2.91 17.706-7.143 8.269-7.722-5.112c-19.456-24.533-48.017-51.703-72.09-72.09-3.404-2.883-6.895-7.73-10.3-10.299 19.047.649 19.457-21.444 30.891-30.89z"/><path fill="#db8752" d="M283.35 380.432c3.404 2.569 6.894 7.416 10.299 10.3-17.784.606-29.875 21.837-46.327 10.274v10.317c-2.347-2.082-7.808-2.936-10.309-5.146-6.007-5.333-7.68-11.085-12.646-15.693-16.367-15.172-41.404-19.942-9.907-45.713 10.735-3.123 58.248 27.648 68.89 35.661"/><path fill="#d27743" d="M463.564 272.307c-11.665 1.203-15.07-7.808-20.6-15.446 12.528-2.227 15.096 10.317 20.6 15.446"/><path fill="#d9814d" d="M813.695 287.752c-10.309-1.178-14.456 7.236-20.583 12.885-9.489 8.747-50.62 46.9-54.203 53.914-6.955 13.602 5.632 34.5-12.74 41.326-30.55-56.601-62.644-103.236-113.28-144.17 11.528-24.226 38.647-18.236 59.118-20.685 25.771-3.08 35.67-6.895 64.401-2.432 9.438 1.468 17.716 9.14 15.497-7.773 20.377 21.239 42.71 43.485 61.79 66.935"/><path fill="#c76f42" d="m741.614 416.477 12.56-26.06c24.816-4.182 26.147-23.527 41.413-35.824 12.74-10.265 33.425-19.038 46.788-30.498 9.788-1.98 6.084.563 8.277 6.366 6.946 18.424 12.305 34.185 24.84 49.971-13.456-2.807-10.256 5.956-12.876 15.445-1.4 5.052-2.91 9.728-3.012 15.01-10.052 1.016-37.444 14.046-43.358 21.001-13.252 15.599-18.62 53.103-38.323 56.96 6.212 13.457.87 15.437-.256 20.31-7.757-3.602-9.301-14.354-11.665-21.812-7.236-22.852-14.328-49.092-24.38-70.878z"/><path fill="#d9814d" d="M844.594 292.897c-5.01 6.366-6.451 5.905-15.446 5.146l3.2-4.582z"/><path fill="#a97956" d="M592.29 941.668c4.77.88 4.428 4.617 5.145 5.146v20.6c-17.946 23.636-34.406 41.719-66.944 36.044-1.527-13.867 1.4-30.268 10.308-41.19 1.528-1.878 24.158-20.148 25.745-20.6 3.806-1.075 21.086-.853 25.745 0"/><path fill="#e0c4a5" d="M597.443 946.822c8.448 6.264 12.527 6.332 10.283 20.6l-10.283-5.146v-15.445zm-5.154-5.154c-4.659-.853-21.939-1.075-25.745 0l2.936-4.685a62.1 62.1 0 0 1 19.874 0z"/><path fill="#a36c49" d="M782.804 792.352c66.807-7.757 4.966 64.324-23.16 62.097-22.314-1.766-17.996-28.612-7.73-41.506 6.826-8.576 20.991-16.776 30.89-20.6z"/><path fill="#a97756" d="M1014.51 637.882c.357.069 2.039 5.086 5.145 5.146-.87 2.295.921 7.663-.948 11.708-10.93 23.697-42.683 60.91-70.911 44.706-2.782-2.603 1.903-31.36 4.923-35.823.64-.947 7.28-3.473 10.539-7.467 6.374-7.79 4.881-16.102 20.352-18.278 6.929-.973 24.542-1.28 30.89 0z"/><path fill="#e4cbae" d="M1014.51 637.882c-6.35-1.28-23.971-.973-30.892 0l3.021-4.59a87.2 87.2 0 0 1 24.85 0z"/><path fill="#cc7344" d="M690.124 406.177c26.93 36.6 47.035 73.08 72.09 108.126l-25.771-2.884c-12.869 14.993-35.363 25.847-49.144 38.69-14.148 13.184-27.315 29.627-46.737 40.78-17.809 10.223-42.129 13.782-58.504 29.022-9.651 8.977-5.334 25.694-20.65 23.117-12.494-37.624-27.248-83.866-46.345-118.425 38.306-13.543 72.02-38.494 100.727-66.816h4.497c17.775 10.709 23.492 46.609 49.39 33.484 23.723-12.015-.264-49.86-15.564-61.926 6.23-5.76 11.34-12.996 18.74-17.476 7.893-4.779 14.054-.103 17.27-5.692"/><path fill="#e59a66" d="M293.649 390.732c24.064 20.386 52.625 47.556 72.09 72.09.665.836-.36 6.34 2.517 10.145 18.167 24.047 48.87 51.09 43.972 85.265-3.977 27.76-36.258 3.021-46.592-10.35-16.504-21.36-25.865-41.234-46.242-64.461-22.28-25.395-46.848-49.639-72.09-72.09v-10.316c16.461 11.562 28.553-9.677 46.345-10.275z"/><path fill="#e08f5f" d="M427.528 632.728c.708-8.943-1.664-19.251.666-27.801 1.74-6.417 8.866-7.1 9.634-8.244 41.787-6.895 63.001 86.042 13.457 71.484-13.841-4.062-15.027-26.505-23.757-35.447z"/></svg>