<svg xmlns="http://www.w3.org/2000/svg" viewBox="0 0 1024 1024"><path fill="#d67a50" d="M917.914 272.495c12.484 16.93-16.171 41.412-27.981 51.123-39.655 32.64-93.944 46.43-132.796 81.579-3.729 4.045-4.668 11.597-7.646 15.292-43.99 54.715-47.215 122.854-102.289 165.64-35.302 27.426-128.768 54.093-174.908 70.059-4.923 1.706-14.95 8.96-18.79 1.621 43.298-57.626 117.99-57.165 163.396-112.188 20.088-24.337 33.886-56.37 48.478-84.207l15.232-40.908c-31.752 33.851-39.595 75.426-76.459 107.264-56.78 49.032-137.036 64.204-188.885 117.324-16.247 16.649-29.679 47.292-43.426 66.296-33.1 45.781-79.548 88.704-130.236 122.385l-27.972 25.617c-5.197-5.973-14.993-20.634-15.556-28.186 2.645-33.16 47.027-42.453 71.475-61.337 48.18-37.24 63.642-97.929 102.187-142.78 67.61-78.652 161.322-76.86 224.75-152.9 25.942-31.104 34.774-68.66 56.73-101.479 25.84-38.63 62.123-64.75 102.835-85.999 19.917-10.393 47.31-17.194 66.74-30.225 12.979-8.704 20.608-24.02 36.369-28.492 9.497 3.575 19.404 5.615 28.006 11.46 8.38 5.692 28.407 31.94 30.746 33.05zm-122.47 71.441c33.433-3.251 83.566-15.121 81.638-56.132-27.051 11.093-56.372 16.264-79.36 35.456z"/><path fill="#d06e45" d="M565.777 216.354c-17.809 25.941-30.874 65.306-45.935 91.861-55.629 98.091-122.957 105.848-210.987 153.908-36.548 19.96-63.24 52.198-92.672 80.844-6.041-3.413-2.022-15.249-.247-20.659 7.629-23.279 49.22-68.787 69.274-83.831 10.316-7.74 41.207-19.396 45.585-30.968 5.418-14.336-5.334-14.711-17.63-12.527-13.09 2.33-55.185 30.857-66.45 40.721-53.845 47.156-58.393 128.3-120.046 175.95-20.31 15.692-47.625 25.514-67.977 39.201-11.938 8.022-18.62 23.663-33.877 24.815C14.353 664.021 5.393 646.067.05 631.381c-1.988-23.023 57.225-45.79 75.58-60.552 59.332-47.736 68.693-128.094 138.231-178.185 22.187-15.983 103.092-58.427 127.369-64.008 4.42-1.016 11.656.503 17.562-.145 5.18-.572 10.188-4.941 14.848-4.258 9.813 1.433 19.976 16.947 33.203 15.633l1.11 8.746c10.444 3.175 10.913-1.024 14.932-4.667 12.758-11.546 27.41-22.17 38.06-35.943 20.078-25.958 28.654-61.542 46.284-86.408 7.347-10.368 19.149-17.357 27.938-25.652 10.249 6.34 26.103 8.653 30.618 20.412z"/><path fill="#f6cfb4" d="m519.85 308.215 40.824 25.515c-13.534 19.593-23.407 43.452-40.73 63.89-42.257 49.868-93.294 77.533-148.095 109.627-71.91 42.103-71.34 56.79-113.076 124.237C224 687.693 175.377 725.197 121.78 762.419c-.537-1.16-15.488-10.487-20.412-15.309l79.207-56.038c31.385-26.496 34.944-39.339 53.487-71.552 23.356-40.559 49.587-75.588 84.104-107.273 8.013-7.355 24.738-10.274 23.057-25.412-36.437 5.76-63.94 36.583-89.08 61.457l-43.596 66.125c-23.304 19.72-44.902 42.36-68.804 61.33-19.251 15.274-52.429 25.548-58.778 50.943-16.4-15.71-42.07-35.362-56.14-51.038 15.257-1.143 21.939-16.785 33.877-24.815 20.352-13.679 47.658-23.5 67.976-39.202 61.654-47.65 66.202-128.793 120.047-175.949 11.264-9.864 53.36-38.4 66.45-40.72 12.304-2.185 23.048-1.81 17.63 12.526-4.37 11.571-35.27 23.228-45.586 30.968-20.053 15.044-61.645 60.552-69.273 83.831-1.775 5.41-5.795 17.246.247 20.66 29.431-28.638 56.124-60.886 92.672-80.845 88.03-48.069 155.358-55.817 210.987-153.908z"/><path fill="#f6cbad" d="M688.265 53.043c19.157 14.729 33.826 34.62 51.037 51.038-23.654 33.135-66.304 48.128-97.083 73.882-17.972 15.035-44.28 38.988-40.704 63.906l112.05-58.906c17.665-19.038 43.965-31.616 51.252-58.47 9.404 9.489 22.537 21.487 30.618 30.617-19.482.282-27.904 18.253-41.046 27.845-17.536 12.8-36.642 23.475-55.919 33.39-12.228 6.298-16.4 2.697-25.514 15.31l-6.853.767-3.353 4.335c-44.484 19.968-74.564 57.148-102.067 96.965l-40.824-25.515c15.062-26.556 28.126-65.92 45.935-91.861 12.86-18.74 35.789-36.233 51.03-53.59 5.043-5.743 12.22-8.414 10.205-17.851-9.975-9.071-65.527 25.105-76.313 33.39-7.57 5.812-10.744 13.116-15.548 17.639-8.79 8.294-20.59 15.283-27.938 25.651-17.621 24.866-26.206 60.45-46.285 86.409-10.65 13.772-25.293 24.396-38.059 35.942-15.334 2.159-9.821-3.968-4.266-11.93 54.485-78.2 58.129-147.046 150.51-196.522 21.343-11.426 45.347-17.989 66.544-30.422 19.165-11.238 45.79-29.738 52.59-52.027z"/><path fill="#b44d28" d="M341.23 976.768c-1.433-12.62 7.425-13.244 15.284-17.886 37.282-22.016 62.54-30.208 91.98-66.227 35.133-42.991 41.456-97.843 84.02-135.433 9.899-8.746 37.64-29.602 48.58-35.626 73.02-40.158 107.648-27.623 163.311-107.17 22.238-31.779 31.719-68.276 53.803-96.743 11.819-15.232 29.713-25.549 37.956-43.793l10.309-7.458c56.84-22.665 114.585-38.844 156.782-85.658l11.631-16.418c16.717 26.547 9.25 36.463-12.663 56.235-43.221 38.997-91.98 43.93-137.199 72.047-68.727 42.735-77.867 135.21-138.385 188.237-58.726 51.456-143.155 52.104-193.81 117.495-22.783 29.415-34.235 72.184-56.481 101.726-27.341 36.31-74.445 63.172-112.939 86.357-9.062 2.757-15.249-5.017-22.178-9.676z"/><path fill="#b04924" d="M142.19 782.84c-2.96-14.994 6.828-8.534 15.412-12.57 49.826-23.416 85.88-46.37 114.475-94.857 33.655-57.07 36.429-91.102 94.797-134.86 6.144-4.608 20.36-6.972 20.283-12.894 69.248-14.277 120.047-44.007 160.538-102.29 20.642-29.712 31.548-63.24 49.502-93.388 23.236-39.015 41.506-49.127 80.853-69.692 30.814-6.852 65.647-23.526 90.812-42.138 1.544-1.143.529-6.34 2.1-7.586 5.332-4.224 19.685-8.874 23.389-12.586 4.6-4.617 7.8-20.608 16.384-24.448 2.773 3.814 8.49 6.81 9.685 13.593l-.06 8.49c-3.669 19.832-53.913 55.954-72.32 65.776-20.855 11.136-50.705 18.927-71.807 30.26-71.561 38.459-76.783 112.503-125.68 170.324-54.707 64.7-97.663 60.374-161.851 98.424-81.971 48.606-83.738 137.13-154.88 192.153-6.383 4.933-55.484 36.685-59.187 37.76-7.39 2.142-16.555.999-24.26.103-6.452-1.784-7.015-8.738-8.193-9.575z"/><path fill="#e08b60" d="m560.674 690.97 23.245 20.42 1.698 2.551-4.523 7.655c-10.94 6.016-38.681 26.88-48.58 35.626-42.556 37.59-48.879 92.45-84.02 135.433-29.44 36.02-54.69 44.211-91.98 66.227-7.86 4.642-16.725 5.274-15.283 17.886-22.101-14.848-43.332-41.301-61.244-61.244 7.416-17.911 14.874-4.173 20.403-7.552 11.358-6.937 14.038-9.677 30.14-8.507l1.203-8.44c25.805-2.338 42.932-23.578 50.612-46.9l7.483 4.37 12.638-14.618c-2.457 8.184-5.683 16.709-5.094 25.515 44.697-9.344 46.95-67.337 71.338-99.61 24.55-32.486 59.563-48.443 91.964-68.795z"/><path fill="#d2754b" d="M688.265 53.043c-6.802 22.29-33.434 40.781-52.591 52.028-21.206 12.442-45.201 18.995-66.543 30.421-92.39 49.468-96.026 118.323-150.511 196.523-5.547 7.962-11.068 14.088 4.266 11.93-4.027 3.643-4.488 7.842-14.933 4.667l-1.11-8.746c-13.217 1.322-23.39-14.2-33.202-15.633-4.66-.683-9.669 3.686-14.848 4.258-5.906.648-13.142-.87-17.562.145 1.843-6.707 11.136-6.81 15.309-10.206l2.44 4.65 2.654-2.047 5.086-5.163-5.077-2.543c64.273-60.74 73.173-149.624 151.244-198.34 30.388-18.961 72.218-28.237 100.677-47.326 18.253-12.246 28.612-36.66 56.26-29.32 5.982 5.239 12.186 9.906 18.45 14.72z"/><path fill="#f6cbad" d="M371.849 711.39c.469 4.48 4.24 20.079 7.509 19.789 14.592-1.297 29.892 1.45 43.52-4.48-2.39 2.892-13.781 19.84-17.74 25.634-16.777 24.55-29.287 55.594-48.513 79.078-23.21 28.348-56.542 53.632-86.852 73.907-17.792-10-42.701-30.48-56.141-45.935l27.972-25.617c50.688-33.68 97.135-76.612 130.236-122.385z"/><path fill="#f5cdaf" d="M917.914 272.495c18.56 8.798 53.802 48.845 71.45 66.347-27.717 2.372-43.81 29.516-67.798 41.924-41.933 21.7-81.536 27.827-126.131 55.04-6.016 3.67-15.582 6.451-20.412 10.206l-3.157-4.446-17.16-.76-.76-17.16-4.446-3.157c2.978-3.704 3.917-11.247 7.646-15.292 38.852-35.149 93.132-48.939 132.795-81.579 11.81-9.72 40.465-34.193 27.981-51.123z"/><path fill="#ca673d" d="m371.849 507.247 20.403 5.12.025 5.077-10.274.077 5.154 10.138c.077 5.922-14.14 8.286-20.283 12.894-58.368 43.758-61.133 77.79-94.797 134.86-28.595 48.487-64.657 71.433-114.475 94.857-8.584 4.036-18.372-2.424-15.411 12.57-15.18-10.718-13.585-5.675-20.412-20.412C175.377 725.205 224 687.7 258.773 631.492c41.728-67.447 41.165-82.133 113.076-124.237z"/><path fill="#ce6840" d="M989.363 338.833c9.506 9.43 17.613 12.962 25.515 25.515l-11.631 16.418c-42.197 46.805-99.942 62.984-156.783 85.657-9.199-23.005-37.419-9.275-51.038-30.617 44.595-27.204 84.207-33.34 126.131-55.04 23.979-12.408 40.081-39.552 67.798-41.924z"/><path fill="#d47c52" d="m402.466 833.869-12.638 14.617-7.483-4.369c-7.68 23.322-24.807 44.561-50.612 46.9l-1.203 8.439c-16.102-1.16-18.782 1.579-30.14 8.508-5.53 3.37-12.987-10.36-20.403 7.552l-10.206-10.206c30.31-20.275 63.642-45.56 86.853-73.907 19.225-23.476 31.735-54.528 48.512-79.079 3.96-5.802 15.351-22.741 17.74-25.634 6.076-7.347 44.792-34.765 54.64-39.774 8.772-4.463 30.71-13.662 39.782-16.358 3.422-1.016 3.806 4.719 2.534 7.629-4.693 10.7-37.726 28.842-48.572 38.195-33.297 28.732-56.26 75.665-68.795 117.478z"/><path fill="#d0724a" d="M764.817 124.493c-7.296 26.854-33.596 39.432-51.251 58.47L601.515 241.87c-3.584-24.918 22.732-48.87 40.704-63.906 30.788-25.754 73.429-40.747 97.083-73.882 6.759 6.443 19.09 13.926 25.515 20.412"/><path fill="#c7643b" d="M234.052 619.529c-18.543 32.213-22.101 45.047-53.487 71.552l-79.206 56.038c-6.87-6.724-13.312-13.62-20.412-20.412 6.349-25.395 39.527-35.67 58.778-50.944 23.902-18.97 45.5-41.608 68.804-61.329 4.796-4.062 11.384-4.796 10.223-15.309h5.077l10.223 20.412z"/><path fill="#ca663f" d="M795.435 155.11c5.128 5.786 10.632 13.978 15.308 20.412-8.584 3.84-11.784 19.832-16.384 24.448-3.703 3.712-18.056 8.371-23.39 12.587-1.57 1.246-.554 6.442-2.099 7.586-25.164 18.611-60.006 35.285-90.811 42.138 6.681-3.49 12.774-13.782 25.514-10.223l-9.403-12.698 5.094-12.28 6.57-.622-7.364-10.112c19.277-9.916 38.383-20.6 55.92-33.391 13.15-9.592 21.563-27.563 41.045-27.845"/><path fill="#d06e45" d="M356.54 318.421c.887-.725 3.31-3.404 5.103-5.103l5.077 2.543-5.086 5.163-2.654 2.048z"/><path fill="#f8d3bb" d="M371.849 711.39c13.738-19.004 27.178-49.656 43.426-66.296 51.84-53.12 132.104-68.292 188.885-117.324 36.864-31.838 44.698-73.413 76.459-107.264l-15.232 40.908c-14.592 27.845-28.4 59.87-48.478 84.207-45.406 55.023-120.09 54.562-163.396 112.188 3.84 7.339 13.875.085 18.79-1.621 46.14-15.966 139.614-42.633 174.908-70.059 55.074-42.786 58.3-110.925 102.289-165.64l4.446 3.157.76 17.16 17.16.76 3.157 4.446c-37.982 29.55-55.066 77.696-76.553 117.376-8.951 16.529-22.007 30.617-35.72 43.383 3.336 7.22 12.433-1.024 16.99-3.43 6.843-3.61 9.54-11.332 18.73-9.327l-12.672 15.385c-19.268 9.967-36.317 26.624-53.802 38.06-23.057 15.086-48.06 28.893-71.322 43.502-32.4 20.352-67.413 36.31-91.964 68.796-24.388 32.281-26.64 90.274-71.338 99.61-.59-8.798 2.645-17.332 5.094-25.515 12.536-41.814 35.499-88.747 68.796-117.479 10.837-9.352 43.878-27.494 48.572-38.195 1.28-2.91.887-8.644-2.535-7.629-9.07 2.688-31.01 11.887-39.782 16.359-9.848 5.017-48.563 32.426-54.64 39.774-13.627 5.93-28.927 3.183-43.52 4.48-3.267.29-7.048-15.31-7.508-19.79z"/><path fill="#f6cfb3" d="m795.443 343.936 2.279-20.676c22.98-19.192 52.309-24.363 79.36-35.456 1.928 41.01-48.205 52.88-81.639 56.132"/><path fill="#d27e57" d="M535.16 195.942c4.795-4.522 7.978-11.827 15.547-17.638 10.778-8.286 66.338-42.453 76.314-33.39 2.022 9.437-5.154 12.108-10.206 17.85-15.25 17.358-38.17 34.85-51.03 53.59-4.514-11.759-20.368-14.071-30.617-20.412z"/><path fill="#d3744a" d="m698.47 216.354 7.365 10.112-6.571.623-5.094 12.28 9.403 12.697c-12.748-3.567-18.833 6.724-25.514 10.223-39.356 20.574-57.617 30.677-80.854 69.692-17.954 30.148-28.868 63.684-49.502 93.389-40.49 58.282-91.29 88.02-160.537 102.289l-5.154-10.138 10.274-.077-.026-5.077-20.403-5.12c54.801-32.085 105.839-59.759 148.096-109.628 17.323-20.437 27.196-44.296 40.73-63.889 27.503-39.816 57.583-77.005 102.067-96.964l2.543 5.077c4.36-2.346 5.47-7.15 7.663-10.18 9.122-12.612 13.286-9.02 25.514-15.309"/><path fill="#ca724c" d="m208.538 614.426 43.596-66.125c25.148-24.875 52.643-55.697 89.08-61.457 1.672 15.138-15.053 18.056-23.057 25.412-34.518 31.684-60.758 66.714-84.105 107.273l-10.223-20.404h-5.077c1.16 10.513-5.427 11.247-10.223 15.3z"/><path fill="#ca663f" d="M672.956 231.663c-2.193 3.03-3.303 7.834-7.663 10.18l-2.543-5.077 3.353-4.335z"/><path fill="#d2744b" d="m846.473 466.423-10.309 7.459c-8.234 18.244-26.137 28.56-37.956 43.793-22.084 28.467-31.573 64.972-53.803 96.742-1.638-8.84 6.144-16.503-6.528-21.384-10.368-3.994-23.705-13.005-31.889-10.087l-7.51-19.567c21.488-39.68 38.572-87.833 76.553-117.376 4.83-3.754 14.405-6.536 20.412-10.206 13.61 21.342 41.84 7.62 51.038 30.618z"/><path fill="#d97f56" d="m698.47 563.388 7.51 19.567c8.183-2.919 21.52 6.092 31.889 10.086 12.672 4.881 4.89 12.544 6.528 21.385-55.663 79.547-90.291 67.02-163.311 107.17l4.523-7.655-1.699-2.551-23.244-20.42c23.261-14.61 48.264-28.425 71.321-43.503 17.485-11.435 34.535-28.1 53.803-38.059l12.672-15.386c-9.19-2.005-11.887 5.718-18.73 9.327-4.55 2.407-13.646 10.641-16.99 3.43 13.704-12.765 26.768-26.854 35.72-43.383z"/></svg>