<svg xmlns="http://www.w3.org/2000/svg" viewBox="0 0 1024 1024"><path fill="#ccc" d="M472.254 118.638a39.906 39.906 0 1 0 79.812 0 39.906 39.906 0 1 0-79.812 0"/><path fill="#b3b3b3" d="M506.737 118.638c0-15.833 9.326-29.604 22.664-36.002a39.8 39.8 0 0 0-17.242-3.904c-22.014 0-39.906 17.892-39.906 39.906s17.892 39.906 39.906 39.906a39.8 39.8 0 0 0 17.242-3.905c-13.446-6.506-22.664-20.17-22.664-36.001"/><path fill="#ccc" d="m681.108 849.3 15.723 95.968H327.488L343.32 849.3zm-334.86-377.585h331.933c0 31.88-19.52 60.617-50.859 81.221H397.106c-31.34-20.604-50.858-49.34-50.858-81.22"/><path fill="#e6e6e6" d="M681.324 639.795c37.086 27.652 59.75 64.304 59.75 104.644 0 40.448-22.664 77.21-59.967 104.86H343.32c-37.195-27.652-59.967-64.412-59.967-104.86 0-40.339 22.664-76.992 59.75-104.644 28.628-21.362 48.039-52.376 54.111-86.968h230.108c5.964 34.592 25.374 65.606 54.002 86.968m-3.144-168.08H346.248c0-29.279 16.374-55.846 43.268-75.908 11.71-8.675 21.253-19.627 28.086-31.989h189.01a101.8 101.8 0 0 0 28.193 31.99c26.892 20.06 43.375 46.628 43.375 75.907m0-200.504c0 38.387-28.303 72.22-71.461 92.607h-189.01c-43.158-20.386-71.46-54.22-71.46-92.607 0-62.244 74.28-112.669 165.91-112.669s166.02 50.425 166.02 112.669"/><path fill="#b3b3b3" d="m436.143 849.3-15.83 95.968h-92.825L343.32 849.3zm53.895-296.473h-92.824c-31.339-20.495-50.857-49.231-50.857-81.22h92.823c-.108 31.989 19.411 60.725 50.858 81.22"/><path fill="#ccc" d="M376.178 744.44c0 40.447 22.663 77.209 59.966 104.86h-92.823c-37.195-27.653-59.967-64.413-59.967-104.86 0-40.34 22.664-76.993 59.75-104.645 28.628-21.362 48.039-52.376 54.111-86.968h92.824c-6.073 34.484-25.484 65.606-54.112 86.968-37.086 27.652-59.75 64.304-59.75 104.644m134.355-380.622a102.8 102.8 0 0 1-28.086 31.99c-26.894 20.06-43.268 46.628-43.268 75.907h-92.823c0-29.279 16.374-55.846 43.267-75.908 11.711-8.675 21.254-19.627 28.086-31.989zm0 0h-92.824c-43.158-20.386-71.46-54.22-71.46-92.607 0-62.244 74.28-112.669 165.91-112.669 16.159 0 31.665 1.519 46.412 4.446-69.075 13.664-119.5 56.93-119.5 108.223 0 38.387 28.303 72.22 71.462 92.607"/><path fill="#fff" d="M617.02 315.671c-3.904 0-7.7-1.41-10.736-4.337-6.072-5.856-6.29-15.615-.325-21.688 6.29-6.398 9.651-13.013 9.651-18.435 0-15.29-27.87-41.207-78.293-48.472-8.35-1.193-14.206-9-13.013-17.35s9-14.314 17.35-13.012c59.641 8.458 104.644 42.4 104.644 78.835 0 13.664-6.398 27.435-18.327 39.797-2.926 3.144-6.938 4.662-10.951 4.662m-.433 141.839c-4.013 0-7.916-1.519-10.953-4.554a76 76 0 0 0-8.132-7.049c-13.121-9.76-24.724-21.362-34.267-34.483-4.988-6.832-3.578-16.483 3.253-21.471s16.483-3.579 21.471 3.253c7.807 10.627 17.242 20.06 27.87 27.977 4.228 3.145 8.132 6.507 11.602 10.086 5.964 6.072 5.855 15.723-.109 21.688-2.928 3.143-6.832 4.553-10.735 4.553m36.435 369.343c-4.663 0-9.326-2.169-12.363-6.181-5.097-6.832-3.578-16.483 3.145-21.471 12.904-9.651 34.7-29.495 34.7-54.653 0-25.05-21.688-44.893-34.592-54.545a202.7 202.7 0 0 1-39.797-39.037c-5.206-6.723-3.904-16.374 2.711-21.58 6.723-5.205 16.374-3.904 21.58 2.712 9.65 12.47 21.036 23.64 33.833 33.182 17.567 13.012 46.954 40.664 46.954 79.16 0 38.605-29.495 66.257-47.063 79.378-2.71 2.06-5.964 3.035-9.108 3.035M574.729 594.793a15.398 15.398 0 1 0 30.797 0 15.398 15.398 0 1 0-30.797 0"/><path fill="#333" d="M697.699 855.806c37.953-30.905 58.666-70.05 58.666-111.367 0-43.809-23.423-85.341-65.931-116.897-22.99-17.133-39.147-40.99-46.087-67.882 31.34-23.531 49.123-55.087 49.123-87.836 0-33.074-17.566-64.413-49.448-88.16a81 81 0 0 1-14.964-14.206c40.664-24.074 64.412-59.859 64.412-98.138 0-35.35-19.628-68.208-55.304-92.39-22.338-15.181-49.448-25.808-78.835-31.339 5.206-8.458 8.241-18.327 8.241-28.953 0-30.472-24.832-55.305-55.304-55.305s-55.304 24.833-55.304 55.305c0 10.626 3.036 20.495 8.241 28.953-29.386 5.53-56.497 16.157-78.835 31.34-35.676 24.181-55.304 57.038-55.304 92.39 0 38.278 23.748 74.063 64.413 98.137-4.337 5.314-9.326 9.976-14.964 14.205-31.881 23.748-49.449 55.087-49.449 88.16 0 32.75 17.784 64.305 49.123 87.837-6.94 26.893-23.098 50.75-46.086 67.882-42.508 31.665-65.931 73.197-65.931 116.897 0 41.316 20.712 80.462 58.666 111.367l-14.531 86.968c-.76 4.446.542 9 3.47 12.471s7.156 5.422 11.71 5.422h369.344c4.554 0 8.784-1.952 11.711-5.422s4.229-8.024 3.47-12.47zM487.543 118.638c0-13.556 11.062-24.616 24.616-24.616s24.615 11.061 24.615 24.616-11.061 24.615-24.615 24.615c-13.554-.109-24.616-11.061-24.616-24.615M361.647 271.21c0-24.832 14.856-48.58 41.857-67.016 28.845-19.519 67.45-30.363 108.656-30.363 41.315 0 79.92 10.736 108.764 30.363 27 18.327 41.857 42.075 41.857 67.016 0 30.038-22.23 58.665-59.64 77.208H421.178c-37.411-18.543-59.532-47.17-59.532-77.208m37.086 136.959c10.844-8.133 20.06-17.784 27.543-28.954H598.26c7.483 11.17 16.591 20.929 27.544 28.954 18.542 13.88 30.688 30.58 35.134 48.147h-297.34c4.446-17.568 16.483-34.267 35.135-48.147m-35.243 78.943H660.72c-4.662 18.652-17.892 36.11-38.387 50.425H401.877c-20.495-14.314-33.616-31.773-38.387-50.425M298.643 744.44c0-33.833 18.976-66.58 53.46-92.281 28.41-21.146 48.364-50.642 57.256-83.932H614.85c8.893 33.29 28.845 62.786 57.256 83.932 34.483 25.7 53.46 58.448 53.46 92.281 0 32.64-17.675 64.196-49.773 89.462H348.308c-31.989-25.266-49.665-56.822-49.665-89.462m46.954 185.431 10.736-65.28h311.761l10.736 65.28z"/></svg>