<svg xmlns="http://www.w3.org/2000/svg" viewBox="0 0 1024 1024"><path fill="#ea5b50" d="M495.162 281.463c13.449 1.758 18.44 1.484 31.932 0 76.467-8.397 129.57-32.393 209.552-19.943l9.942 15.002C898.165 434.32 849.935 741.45 693.784 879.887c-105.754 93.755-256.46 104.9-391.159 93.67l-31.948-6.085-9.003 6.119c-68.48-55.5-126.745-145.561-158.677-227.362-64-163.933-62.037-408.506 136.158-474.307 96.63-32.076 162.866-2.602 256.016 9.54zm137.702 33.92c-15.727 2.602-31.266 7.185-46.967 9.898-53.504 9.242-102.178 7.629-155.528-1.997-12.988-2.346-25.805-6.604-38.989-7.901 3.746 5.52 11.486 10.112 17.272 13.644 65.766 40.184 139.408 39.015 205.635.7 6.204-3.592 14.49-8.567 18.569-14.344zm-371.762 26.35c-55.304 6.69-118.34 85.078-113.271 140.271 1.485 16.18 14.012 34.594 31.053 36.787 39.253 5.035 77.78-25.685 100.787-54.775 19.925-25.2 44.595-69.333 29.49-101.359-8.95-18.987-28.714-23.262-48.059-20.915z"/><path fill="#da473c" d="m261.665 973.59 9.003-6.118 31.949 6.085c134.698 11.23 285.405.085 391.158-93.67C849.926 741.45 898.156 434.32 746.58 276.522l-9.941-15.002c251.52 39.143 257.51 324.036 172.663 512.647-41.48 92.203-143.983 239.454-253.533 249.25-56.414 5.043-104.269-24.405-161.698-19.994-24.653 1.895-51.03 14.089-75.793 17.997-61.807 9.77-109.525-9.66-156.62-47.83z"/><path fill="#6d9e46" d="M527.094 219.63c-.162-1.97.188-4.019 0-5.982L842.417 4.215c-1.391 27.324-8.994 56.243-18.936 81.8-23.534 60.476-73.13 110.61-134.16 133.189-50.867 18.824-111.522 20.966-162.227.426"/><path fill="#85b650" d="M842.417 4.215 527.094 213.648c-.478-5.009-3.388-10.12-1.997-15.957l8.405-26.504C577.628 48.435 703.682-12.638 829.48 2.185c3.422.4 12.34-1.528 12.928 2.03z"/><path fill="#704724" d="M525.097 197.691c-1.39 5.837 1.52 10.948 1.997 15.957.188 1.963-.162 4.011 0 5.982 1.118 13.807 2.91 29.133 2.082 42.974-.35 5.845-3.652 12.151-2.082 18.859-13.491 1.484-18.483 1.758-31.932 0-3.916-39.066-13.107-79.83-32.239-114.38-10.282-18.578-23.74-35.252-37.614-51.167 1.69-3.498 7.663-1.902 10.974-1.996 19.908-.546 34.073-5.01 46.941-20.907 2.45-3.03 2.825-7.04 5.948-9.011 17.647 28.04 25.677 66.696 33.86 98.807l2.065 14.89z"/><path fill="#87552b" d="M489.172 84.002c-3.123 1.971-3.499 5.982-5.948 9.011-12.86 15.89-27.033 20.352-46.941 20.907-3.311.094-9.285-1.502-10.974 1.996-.564-.648-3.055-.682-3.746-3.208-2.202-8.047 3.225-18.876 8.755-24.695 5.299-5.573 16.853-11.589 24.345-13.568 8.738-2.304 21.129-2.86 29.235 1.851 5.317 3.08 3.755 5.291 5.274 7.697z"/><path fill="#f1806f" d="M261.102 341.733c19.345-2.338 39.108 1.929 48.06 20.916 15.104 32.025-9.566 76.16-29.491 101.358-23.006 29.099-61.534 59.81-100.787 54.776-17.033-2.185-29.568-20.608-31.053-36.788-5.069-55.193 57.975-133.58 113.271-140.27z"/><path fill="#dc493f" d="M632.864 315.383c-4.079 5.777-12.364 10.752-18.568 14.344-66.227 38.315-139.87 39.484-205.636-.7-5.785-3.541-13.525-8.123-17.271-13.644 13.184 1.305 26 5.563 38.988 7.901 53.35 9.626 102.025 11.23 155.529 1.997 15.7-2.713 31.24-7.296 46.967-9.898z"/></svg>