<svg xmlns="http://www.w3.org/2000/svg" viewBox="0 0 1024 1024"><path fill="#753a96" d="M879.954 389.656c-2.91 1.4-1.646 6.469-1.672 9.225-.41 47.249-18.202 92.39-61.798 113.51l-1.289 3.038c-9.301 1.075-18.107 7.68-26.94 9.72-3.933.904-7.97-1.11-10.572 2.832 3.644 4.002 9.267 7.663 10.052 13.415 3.84 28.253-5.914 68.292-22.673 91.34-31.138 42.812-86.016 59.383-135.492 39.996-3.294-1.289-4.369-6.221-9.506-4.745 5.01 5.205 8.875 11.972 14.217 16.794 13.371 12.074 36.275 22.007 53.742 25.07 1.895.333 3.909-.05 5.812.052.972 12.748-.666 23.782-3.311 36.096-10.889 50.67-47.574 88.2-99.78 94.71-11.657 1.451-20.02 2.202-31.864-.05-11.426-2.176-22.621-7.825-32.716-13.39-.683 3.124 1.715 3.969 3.345 5.872 14.105 16.435 33.134 30.78 54.818 35.729 2.739.623 5.632-.162 7.919.46 3.882 1.059 2.926 11.802 2.628 15.753-1.51 19.9-12.655 52.497-26.718 67.174-11.503 12.007-26.445 24.815-41.958 31.812-18.407 8.303-43.008 12.886-62.592 8.875-11.98-2.45-23.049-9.02-34.688-11.418-23.902-32.085-28.032-64.016-14.285-102.305.623-1.733 2.057-3.013 2.535-4.173 1.826-4.438-6.34-.93-6.699-4.182 5.325.23 10.803-.785 15.923 1.016l31.019-9.395c-14.541 9.915-3.55 26.547 10.837 25.156 1.912-.188 7.356-1.724 9.344-2.466 6.75-2.517 17.357-11.665 20.42-18.142 1.536-3.243 3.542-8.448 2.774-11.827-1.844-8.073-6.179-8.713-13.193-11.17 3.166-1.954 19.942-29.005 21.794-33.536l.836 1.672h4.19c1.878-4.497-3.157-6.237-3.353-6.698-.982-2.364-4.83-22.332-5.103-25.916-.837-11.042-.538-27.673 2.107-38.28 1.588-6.392 4.882-7.8 3.004-14.61l3.286-.042c.102-6.204 4.514-11.179 6.775-16.725 6.613-.333 12.552-1.673 18.935-3.695 6.93-2.193 14.08-6.844 21.3-8.039-3.858 3.38-10.514 12.92-11.401 17.929-2.637 14.754 9.54 19.02 22.298 17.28 4.89-.666 16.836-9.438 20.053-13.483 4.958-6.23 10.453-16.17 5.069-23.364-7.552-10.078-21.274-6.007-30.985-1.715.981-3.618 4.847-3.072 7.62-4.958 2.381-1.621 19.362-18.586 20.967-20.958 1.553-2.295 1.203-4.582 1.97-5.632.385-.529 2.04-.4 2.979-1.997h13.414c1.204-1.16-5.435-11.332-6.707-13.414 11.69-26.94 11.153-57.156 0-83.831l10.889-18.458-4.182-3.336c3.013-.265 10.044-1.348 13.935-1.997 17.195-2.859 43.179-19.61 54.886-32.35 1.758-1.911.999-4.804 4.77-4.42l-.878-2.313c-.034-.81.981-.69 1.066-.844h13.415l-6.707-11.734c.913-1.587 2.568-1.459 2.97-1.996 3.498-4.77 9.335-24.363 10.41-30.729 3.515-20.932.068-36.906-6.673-56.132 4.864 3.157 2.389 1.203 4.096-1.732 37.265-64.094 131.498-68.267 175.308-8.32zm-112.776-13.158c-15.223 1.434-37.922 18.253-32.879 35.575.384 1.323 3.55 4.31 4.864 5.197 12.877 8.713 34.134-4.318 40.994-15.923 3.627-6.135 5.556-11.921 1.699-18.39-2.458-4.13-10.053-6.903-14.678-6.468zm-97.322 154.316c-10.505 1.775-25.225 14.806-26.325 25.703-.52 5.162 3.2 13.457 8.328 15.112 14.097 4.565 33.775-8.072 39.51-20.992 7.628-17.177-6.324-22.4-21.513-19.831z"/><path fill="#5d361f" d="M618.392 332.645c-9.029-1.527-19.234-2.73-28.502-1.672-17.34-19.661-40.96-33.971-63.71-46.95-.358 5.802.453 11.903.069 17.68-1.408 21.325-6.34 50.253-11.81 71.185-1.135 4.352-3.388 10.343-5.026 15.087-4.873 3.175-2.381 1.178-4.096-1.74-2.842-4.839-5.555-6.366-7.313-8.568-1.05-1.314.29-5.956-3.678-6.46-.128-1.604-.085-3.413 0-5.026.921-18.167 7.978-40.456 10.026-59.554.7-6.494-.98-12.783 1.707-19.242-2.338-.444-3.703.913-5.572 1.97-9.549 5.402-22.477 14.072-31.24 20.737-9.012 6.852-16.555 15.36-25.225 22.562l-4.147 1.69c-6.451-1.87-13.201-2.689-19.832-3.678-.913-.137-1.083-1.349-1.177-1.366l10.026-12.603c19.78-18.193 41.54-33.937 64.64-47.693 7.382-6.98 6.554-32.623 5.88-42.888-2.953-45.38-22.989-88.679-48.7-124.843-3.388-4.77-6.588-8.994-10.06-13.414-3.713-4.728-7.544-11.23-11.708-15.957-13.662-15.54-34.432-25.788-17.596-49.391 9.361-13.116 37.717-29.56 52.727-19.277 5.12 3.507 19.243 26.914 23.262 33.75 37.973 64.545 54.28 132.76 50.637 207.717-.273 5.658-3.303 8.858-.99 15.94 2.73 8.363 27.784 21.718 36.053 27.657 16.93 12.151 34.867 26.137 45.346 44.356z"/><path fill="#80ce3a" d="M450.73 101.265c-3.542-.41-6.64.153-10.096.81-17.05 3.226-42.376 11.896-55.876 22.93-1.817 1.484-3.464 1.68-2.782 4.77h24.312c3.114 0 16.896 6.05 20.446 8.055 4.522 2.56 14.182 9.387 16.836 12.424 7.253 8.32 14.174 21.308 15.496 32.376 2.509 20.95-6.349 8.601-14.208 7.51-2.363-.334-7.262-.598-9.216.835 3.08 4.984 7.049 10.257 9.797 15.352 11.699 21.674 15.445 38.86 6.152 62.643-1.818 4.65-4.668 10.189-8.49 13.363-1.98.623-7.63-5.897-9.217-7.492-2.432-2.45-2.457-3.013-5.82-5.82-3.012-2.509-4.095-6.263-9.19-5.103 2.27 16.879-4.292 37.572-18.466 47.761-1.98 1.425-3.968 3.157-5.845.87-2.68-3.25-5.197-11.767-7.253-16.273-.982-2.159.222-2.747-3.636-2.184-5.58 17.075-20.343 32.077-36.394 39.902-3.516 1.715-14.421 6.365-17.306 4.59-5.026-3.097-10.487-20.82-11.63-26.948-2.586-13.738-1.451-24.917-.035-38.476.282-2.74 2.04-4.514 1.673-8.363-.273-2.893-3.209-10.103-6.008-10.923l-7.116 3.627c-12.22 28.34-22.119 61.798-58.087 65.16-6.946.649-14.412.162-21.017-1.758l5.018-20.104c-18.185 5.837-38.597 8.09-57.814 6.673-8.422-.623-17.655-3.31-26.026-4.992-3.311-3.968.426-3.575 3.481-5.743 34.373-24.44 66.483-52.3 99.61-78.122 39.637-30.9 89.173-62.225 121.59-98.893 6.204-7.014 23.527-16.725 32.359-20.454l34.705-11.4c3.473 4.42 6.673 8.644 10.06 13.414z"/><path fill="#9ef152" d="M148.923 302.463c-.955-.188-2.201.299-3.26-.06.555-2.739-1.749-5.376-1.757-7.483-.009-6.34 2.389-19.482 3.729-26.445 3.575-18.569 11.17-34.953 21.427-50.68.299-3.208.068-2.414-2.517-2.525-6.162-.265-11.452.05-17.57-1.724-.453-8.073 1.143-17.229 4.624-24.619 9.208-19.532 31.377-28.595 51.559-32.273 7.176-1.305 20.411-.554 25.13-5.051 5.564-5.308 1.639-7.552-3.771-9.72-15.104-6.067-32.111-4.89-47.326-13.039-5.086-2.722-20.736-13.525-21.692-18.653-.99-5.325 6.844-12.11 10.684-15.71 1.314-1.238 4.284-4.31 4.565-4.523 11.947-9.378 26.837-14.233 41.574-17.195.632-2.551-.546-2.739-1.672-4.198-3.55-4.625-7.646-9.216-11.733-13.406 13.824-12.85 34.483-12.902 52.002-8.388l3.31-1.664c-3.165-5.453-5.341-11.409-8.038-17.1-1.724-3.636-5.111-5.274-3.678-10.548 9.634-1.732 21.265-2.696 31.079-1.766 10.461.99 27.11 10.06 35.174 16.802 4.446 3.712 14.925 16.879 18.415 18.474 2.713 1.246 4.207-4.454 4.198-5.828 0-1.68-1.51-3.353-1.664-5.103-.375-4.437.973-8.55-1.706-12.535 15.667-.597 32.58 13.116 39.978 26.248 5.547 9.865 9.668 27.196 8.721 38.375-.768 9.036-5.547 18.304-5.103 27.596-32.418 36.668-81.954 67.994-121.59 98.893-33.119 25.822-65.238 53.683-99.61 78.122-3.055 2.168-6.793 1.775-3.482 5.743z"/><path fill="#5e2679" d="M879.954 389.656c42.13 57.643 18.22 140.851-50.235 163.541-9.37 3.106-19.132 3.695-28.57 5.803l8.346 27.699c10.06 58.24-28.689 112.273-86.349 123.17l-20.923 1.715c3.277 9.096 8.388 17.357 10.948 26.777 7.066 26.018 3.934 54.366-8.943 78.336-18.312 34.108-56.644 57.472-95.897 54.17-1.084 1.083 5.367 16.35 6.297 19.686 26.078 93.457-75.187 167.065-157.78 117.538-12.647-7.587-19.422-15.147-27.93-26.565 11.64 2.407 22.699 8.969 34.688 11.418 19.575 4.002 44.177-.572 62.592-8.875 15.513-6.997 30.455-19.814 41.958-31.812 14.071-14.677 25.216-47.274 26.718-67.174.298-3.951 1.254-14.686-2.628-15.753-2.287-.622-5.18.163-7.92-.46-21.683-4.941-40.712-19.286-54.817-35.73-1.63-1.902-4.028-2.747-3.345-5.87 10.086 5.564 21.282 11.213 32.716 13.389 11.845 2.252 20.207 1.51 31.864.05 52.206-6.51 88.891-44.048 99.78-94.71 2.645-12.314 4.275-23.347 3.31-36.096-1.902-.094-3.916.281-5.81-.051-17.468-3.064-40.372-12.997-53.743-25.071-5.342-4.822-9.208-11.589-14.217-16.794 5.137-1.476 6.212 3.456 9.506 4.745 49.476 19.379 104.345 2.816 135.492-39.996 16.76-23.048 26.513-63.087 22.673-91.34-.785-5.752-6.4-9.413-10.052-13.415 2.602-3.942 6.639-1.928 10.573-2.833 8.832-2.04 17.638-8.644 26.94-9.72l1.288-3.037c43.596-21.12 61.388-66.261 61.798-113.51.026-2.756-1.237-7.825 1.672-9.225"/><path fill="#5d2579" d="M700.55 399.709c6.742 19.234 10.189 35.2 6.673 56.132-1.066 6.374-6.903 25.958-10.41 30.728-.401.546-2.057.41-2.97 1.997-2.133 3.695-4.548 7.859-6.707 11.733-.085.154-1.11.034-1.067.845l.88 2.312c-3.773-.384-3.013 2.51-4.771 4.42-11.708 12.741-37.692 29.492-54.886 32.35-3.883.649-10.923 1.733-13.935 1.997-5.393.478-11.29-.341-16.768 0-.538 2.227.572 2.893 1.4 4.472 3.336 6.366 5.81 10.513 8.66 17.322 11.154 26.684 11.691 56.892 0 83.832-1.672 3.848-4.701 10.01-6.706 13.414-.94 1.596-2.586 1.468-2.979 1.997-.768 1.05-.418 3.336-1.97 5.632-1.605 2.372-18.586 19.336-20.967 20.957-2.773 1.878-6.639 1.34-7.62 4.958-1.374.606-3.892 2.356-5.026 3.354-7.22 1.195-14.38 5.845-21.3 8.038-6.391 2.023-12.322 3.362-18.935 3.695-5.547.282-11.213-.205-16.768 0-.768.726 5.94 13.986 6.707 16.768 1.886 6.81-1.408 8.218-3.003 14.61-2.637 10.606-2.944 27.246-2.108 38.28.273 3.584 4.121 23.552 5.103 25.915.307 1.997-1.007 3.388-1.673 5.026-1.852 4.532-18.628 31.582-21.794 33.536-6.434 3.96-12.842 8.832-19.541 13.15-3.175 2.048-7.56 3.192-10.633 5.29l-31.018 9.396c-5.12-1.8-10.599-.785-15.923-1.016-34.867-1.51-59.708-13.986-80.478-41.915.64-3.098 4.685 1.032 5.88 1.664 2.867 1.527 9.557 5.717 11.989 6.451 62.037 18.824 123.903-17.502 142.745-78.037 5.026-16.145 6.494-31.18 5.23-48.145l-2.542-2.483-19.686-3.789c-6.324-4.59-13.176-5.845-20.122-10.052-12.348-7.467-23.193-18.048-31.275-29.918 1.366-1.237 10.77 6.383 13.38 7.578 18.475 8.448 46.302 10.12 65.92 5.478 54.486-12.885 88.346-61.218 91.802-116.104.23-3.695.597-13.807-.248-16.666-1.416-4.804-15.667-5.128-20.437-6.391-10.778-2.85-28.851-11.768-37.734-18.526-.512-.384-.17-2.065-.683-2.5-6.23-5.18-13.278-10.291-18.099-17.195.862-.085 2.133-1.766 3.917-1.45 3.95.682 11.511 6.186 15.71 7.816 58.521 22.767 127.35-18.714 144.34-76.296 4.523-15.318 5.265-30.686 5.385-46.592.017-2.756-1.237-7.825 1.672-9.225 7.518 10.223 9.293 13.39 13.415 25.148z"/><path fill="#a76fbe" d="M767.178 376.498c4.625-.435 12.22 2.33 14.678 6.468 3.848 6.468 1.928 12.254-1.699 18.39-6.852 11.596-28.117 24.627-40.994 15.923-1.314-.888-4.48-3.874-4.864-5.197-5.034-17.331 17.664-34.142 32.88-35.575z"/><path fill="#a970bf" d="M669.856 530.814c15.19-2.568 29.133 2.654 21.512 19.832-5.734 12.92-25.403 25.557-39.509 20.992-5.128-1.664-8.849-9.95-8.328-15.113 1.1-10.897 15.82-23.927 26.325-25.702z"/><path fill="#a870bd" d="M487.61 844.03c7.023 2.457 11.358 3.097 13.193 11.17.768 3.37-1.246 8.584-2.774 11.826-3.063 6.477-13.679 15.625-20.42 18.142-1.98.743-7.432 2.287-9.344 2.466-14.387 1.383-25.378-15.24-10.837-25.156 3.072-2.099 7.458-3.242 10.632-5.29 6.699-4.318 13.107-9.19 19.542-13.15z"/><path fill="#f2f1f6" d="m613.365 542.232 4.182 3.336-10.889 18.458c-2.85-6.81-5.325-10.965-8.661-17.323-.828-1.578-1.929-2.244-1.4-4.471 5.479-.342 11.367.478 16.768 0"/><path fill="#efeaf3" d="M521.146 709.894c-2.261 5.547-6.664 10.522-6.775 16.725l-3.286.043c-.768-2.782-7.475-16.042-6.707-16.768 5.555-.205 11.221.282 16.768 0"/><path fill="#eee6f3" d="M606.658 647.857c1.263 2.074 7.91 12.245 6.707 13.414h-13.414c1.997-3.396 5.035-9.565 6.707-13.414"/><path fill="#f2e9f5" d="m693.843 488.574 6.707 11.734h-13.414c2.159-3.874 4.574-8.039 6.707-11.734"/><path fill="#aa70bf" d="M561.39 698.16c1.143-.997 3.651-2.747 5.025-3.353 9.711-4.292 23.424-8.362 30.985 1.716 5.393 7.193-.111 17.134-5.07 23.364-3.216 4.044-15.154 12.817-20.052 13.482-12.758 1.741-24.935-2.526-22.298-17.28.896-5.009 7.544-14.549 11.4-17.928z"/><path fill="#e9d4f1" d="M511.085 805.467c.197.47 5.231 2.202 3.354 6.707h-4.19l-.836-1.672c.674-1.639 1.98-3.03 1.672-5.026z"/><path fill="#fcfcfb" d="M444.022 332.645c8.67-7.202 16.205-15.71 25.224-22.562 8.764-6.664 21.692-15.334 31.24-20.736 1.87-1.058 3.235-2.406 5.573-1.97-2.696 6.459-1.015 12.748-1.707 19.242-2.048 19.097-9.105 41.386-10.026 59.554-4.975 3.362-2.296.69-4.199-1.613-10.052-12.16-27.161-21.29-41.514-27.307-2.782-1.169-5.478-.384-4.582-4.608z"/><path fill="#743a95" d="M444.022 332.645c-.896 4.224 1.8 3.44 4.582 4.608 14.353 6.025 31.471 15.147 41.515 27.307 1.903 2.304-.785 4.975 4.198 1.613-.085 1.612-.128 3.43 0 5.026 4.472 55.355-14.78 103.057-64.887 128.767-29.764 15.275-59.87 16.794-90.572 2.381-3.567-1.672-4.813-3.592-9.711-4.753-.461-.11-.751 1.033-.82 1.033-1.382.034-1.98-1.87-3.353-1.673l1.613-3.234c-7.27-1.826-8.312-13.935-13.082-19.67l-6.972-32.426c-5.947 22.204-19.396 44.527-36.966 59.452-33.519 28.467-77.124 35.43-116.804 16.35-1.357-.649-6.724-3.286-7.193-.35-57.557-76.92 2.935-178.884 98.047-169.31 23.057 2.321 54.17 19.934 67.943 38.528v15.087l4.838-6.144c.247-1.476-.888-2.662-1.485-3.917 4.284.913 3.285-1.86 4.693-4.497 19.857-37.094 53.129-55.39 95.07-55.918 1.63-.018 3.78-1.716 4.19-1.63.085.017.264 1.228 1.177 1.365 6.63.99 13.38 1.809 19.832 3.678l4.147-1.69zm-65.954 28.775c-8.047 1.766-23.176 13.243-25.506 21.444-6.98 24.559 20.292 23.944 35.32 11.844 18.184-14.626 18.474-39.5-9.814-33.288m-177.612 15.078c-14.456 2.21-37.751 18.466-32.333 35.038 2.919 8.926 13.73 9.318 21.555 7.978 6.238-1.066 18.381-9.591 22.076-14.813 2.611-3.678 6.622-13.04 5.692-17.289-1.357-6.144-11.392-11.776-16.99-10.914"/><path fill="#5d2576" d="M145.57 517.084c.478-2.935 5.845-.298 7.193.35 39.68 19.08 83.294 12.117 116.804-16.35 17.562-14.925 31.01-37.248 36.966-59.451l6.972 32.426c4.779 5.735 5.82 17.843 13.082 19.67l-1.613 3.234-1.673 1.672c-.4-.085-2.568 1.596-4.19 1.63-26.59.546-38.98 5.111-60.603 19.934-3.465 2.372-6.724 4.019-9.847 6.87-4.873 4.454-19.124 19.882-21.803 25.19-.99 1.962-1.323 4.223-2.483 6.74-14.934-2.44-29.355-4.565-43.076-11.408-14.882-7.433-25.959-17.46-35.72-30.507z"/><path fill="#5a256d" d="M314.913 391.329c.597 1.246 1.732 2.44 1.485 3.917l-4.83 6.144v-15.087c1.118 1.51 2.569 3.405 3.354 5.026z"/><path fill="#a96ebd" d="M200.456 376.498c5.598-.853 15.633 4.779 16.99 10.914.938 4.25-3.08 13.602-5.692 17.289-3.695 5.213-15.838 13.738-22.076 14.813-7.825 1.34-18.636.948-21.555-7.978-5.418-16.572 17.869-32.828 32.333-35.038"/><path fill="#a86ebe" d="M478.71 529.142c25.95-4.489 22.929 23.244 5.504 35.686-8.388 5.99-28.467 12.612-34.372.922-7.723-15.292 15.172-34.236 28.86-36.608z"/><path fill="#743a96" d="M516.12 500.316c4.821 6.904 11.87 12.015 18.099 17.195.512.427.18 2.108.683 2.5 8.874 6.75 26.956 15.667 37.734 18.526 4.77 1.263 19.02 1.587 20.437 6.391.845 2.868.478 12.98.248 16.666-3.456 54.895-37.316 103.219-91.802 116.104-19.61 4.642-47.436 2.97-65.92-5.478-2.602-1.195-12.014-8.815-13.38-7.578 8.081 11.87 18.927 22.451 31.275 29.918 6.955 4.207 13.798 5.461 20.122 10.052l19.686 3.789 2.543 2.483c1.263 16.956-.205 32-5.231 48.145-18.842 60.535-80.708 96.87-142.745 78.037-2.432-.742-9.122-4.932-11.99-6.451-1.194-.632-5.248-4.762-5.879-1.664-21.675-29.133-28.049-62.182-15.949-97.263 2.39-6.929 6.033-13.55 9.242-20.096l-13.415-1.68c4.472.187 10.087-.666 14.157-.095 2.065.29-.452 4.14 2.603 3.448-1.297-5.607 7.262-2.893 12.22-3.712 8.567-1.408 14.865-6.127 22.988-8.03-5.939 4.625-10.316 16.734-8.175 24.098.367 1.254 6.29 7.185 7.544 7.544 16.691 4.872 44.766-13.56 40.593-32.214-1.937-8.635-12.297-10.854-19.84-9.489 5.99-6.374 14.814-12.364 20.155-19.25 3.166-4.08 5.829-9.737 8.355-14.286l10.06 3.354c1.05-.905-6.587-9.463-6.707-10.052-.077-.393 1.63-1.639.845-3.328-1.681-3.644-6.272-8.576-7.287-12.877-5.172-22.007-3.823-44.936 3.882-65.997 1.272-3.464 5.3-5.077 2.552-8.354l11.733-20.121c30.677-4.608 54.195-15.923 72.098-41.916v.87c4.13 3.004 9.404-.87 12.586-.87 1.903 0 3.695 1.886 5.854 1.673zm-37.41 28.826c-13.688 2.363-36.582 21.316-28.86 36.608 5.905 11.69 25.984 5.068 34.372-.922 17.425-12.433 20.446-40.166-5.504-35.686z"/><path fill="#a970c0" d="M361.863 701.515c.342-.265 1.502.196 2.245-.325 3.498-2.432 14.378-9.105 17.877-9.736 7.543-1.366 17.903.862 19.84 9.489 4.181 18.662-23.902 37.086-40.593 32.213-1.255-.367-7.177-6.298-7.544-7.543-2.141-7.365 2.236-19.473 8.175-24.098"/><path fill="#f5f3f8" d="M413.84 560.672c-.666-6.033-6.298-10.581-8.363-15.957-1.374-3.575 2.901-2.449 5.01-2.492 5.76-.102 9.172-1.143 13.413-1.672.547-.069 1.135.085 1.673 0z"/><path fill="#f0e6f2" d="M516.12 500.316c-2.159.214-3.951-1.672-5.854-1.672-3.174 0-8.456 3.865-12.587.87v-.87c2.885-4.182 5.07-8.764 8.141-12.826l.248-2.261c.187.964 8.883 15.087 10.06 16.768z"/><path fill="#f0e3f3" d="M413.84 651.21c.12.59 7.756 9.157 6.707 10.053l-10.06-3.354c1.202-2.167 2.278-4.471 3.353-6.707z"/><path fill="#743a95" d="M618.392 332.645c29.388 4.975 51.182 18.031 68.744 41.916-2.91 1.4-1.656 6.477-1.673 9.224-.12 15.906-.862 31.275-5.384 46.592-16.99 57.583-85.82 99.063-144.341 76.297-4.198-1.63-11.759-7.134-15.71-7.817-1.775-.307-3.055 1.365-3.917 1.45-1.177-1.68-9.873-15.794-10.06-16.767-.077-.401 1.305-1.613 1.194-2.518-.162-1.271-4.232-4.394-5.444-7.483-9.822-24.994-5.402-57.737 4.574-81.988l2.74-.495c.878-.854.05-2.381.29-3.09 1.638-4.744 3.89-10.734 5.025-15.086-.256 7.79 3.874-1.289 5-2.552 20.276-22.681 38.93-33.715 69.291-37.964.751-.103 1.024-1.391 1.16-1.4 9.268-1.058 19.474.145 28.502 1.673zM587.91 364.8c-15.95-10.104-34.697.665-44.083 14.84-2.774 4.19-4.011 12.364-1.767 16.759 5.93 11.622 23.706 6.664 32.691.75 4.199-2.756 12.86-11.144 14.379-15.803 1.715-5.265 1.152-11.674-1.229-16.555z"/><path fill="#a66fbf" d="M587.91 364.799c2.381 4.88 2.945 11.28 1.23 16.554-1.52 4.651-10.18 13.048-14.38 15.804-8.985 5.914-26.768 10.872-32.69-.75-2.245-4.404-1.007-12.579 1.766-16.76 9.378-14.174 28.134-24.943 44.083-14.84z"/><path fill="#743a96" d="M328.327 500.316c3.49 1.596 4.643 5.427 6.674 7.578 4.437 4.71 13.5 13.61 18.5 16.717 5.273 3.268 15.47 8.294 21.299 10.555 7.927 3.072 17.16 5.777 25.634 5.393.102 3.038-.239 6.136.025 9.182 1.238 13.952-.042 30.831-3.703 44.996-8.218 31.812-36.352 64.956-66.722 77.474-29.158 12.015-58.846 12.51-87.33-1.579-1.69-.836-5.555-4.642-6.587-.955-25.131-31.966-28.877-73.48-11.734-110.66 1.16-2.517 1.494-4.779 2.483-6.741 2.671-5.308 16.93-20.736 21.803-25.19 3.115-2.85 6.383-4.49 9.847-6.87 21.624-14.822 34.014-19.388 60.604-19.934 1.621-.034 3.797-1.715 4.19-1.63.094.017.273 1.22 1.177 1.417 1.408.298 3.44.077 3.849.264zm-37.358 28.8c-10.556 1.51-25.464 10.581-30.072 20.3-2.816 5.949-4.087 10.65-.998 16.811 6.007 11.981 26.36 4.924 34.824-1.433 7.501-5.64 15.36-16.7 13.201-26.479-1.425-6.443-11.136-10.027-16.955-9.199"/><path fill="#5d2579" d="M494.317 371.207c3.977.504 2.637 5.146 3.678 6.46 1.758 2.21 4.472 3.73 7.313 8.567 1.715 2.919-.776 4.907 4.096 1.741-.247.709.58 2.236-.29 3.09l-2.74.494c-9.975 24.252-14.395 56.994-4.573 81.988 1.212 3.08 5.282 6.212 5.444 7.484.12.904-1.271 2.116-1.194 2.517l-.248 2.262c-3.072 4.061-5.256 8.644-8.14 12.825-17.904 25.993-41.421 37.308-72.099 41.916-.546.085-1.126-.069-1.672 0-4.429.341-9.344-.913-13.414.802v.87c-2.1.043-6.375-1.092-5.01 2.492 2.057 5.376 7.698 9.924 8.363 15.957 2.748 3.269-1.288 4.89-2.551 8.354-7.706 21.052-9.063 43.981-3.883 65.997 1.016 4.3 5.598 9.224 7.288 12.877.776 1.69-.922 2.935-.845 3.328-1.075 2.235-2.15 4.54-3.354 6.707-2.526 4.548-5.188 10.206-8.354 14.285-5.342 6.878-14.165 12.876-20.156 19.25-3.498.632-14.378 7.314-17.877 9.737-.742.512-1.903.06-2.244.325-8.124 1.902-14.421 6.613-22.989 8.03-4.958.819-13.525-1.895-12.22 3.711-3.055.692-.537-3.157-2.602-3.447-4.07-.572-9.686.282-14.157.094-31.599-1.348-55.296-16.743-73.77-40.243 1.032-3.678 4.898.128 6.587.955 28.484 14.089 58.172 13.594 87.33 1.58 30.379-12.51 58.504-45.654 66.722-77.475 3.66-14.165 4.94-31.044 3.703-44.996-.273-3.046.077-6.144-.025-9.182-8.465.384-17.707-2.312-25.634-5.393-5.828-2.261-16.026-7.287-21.3-10.555-5-3.098-14.062-12.007-18.5-16.717-2.03-2.15-3.182-5.982-6.673-7.578v-1.672c.069 0 .359-1.144.82-1.033 4.898 1.16 6.144 3.072 9.71 4.753 30.703 14.422 60.809 12.894 90.573-2.38 50.108-25.711 69.359-73.413 64.887-128.768z"/><path fill="#a76fbd" d="M290.969 529.116c5.82-.828 15.53 2.756 16.955 9.199 2.16 9.78-5.7 20.838-13.2 26.479-8.466 6.357-28.818 13.414-34.825 1.433-3.09-6.16-1.818-10.862.998-16.81 4.608-9.72 19.516-18.79 30.072-20.3"/><path fill="#a76cbe" d="M378.068 361.42c28.297-6.204 27.998 18.662 9.813 33.288-15.035 12.092-42.3 12.715-35.319-11.844 2.33-8.2 17.46-19.678 25.506-21.444"/><path fill="#e0bee8" d="M328.327 498.635v1.673c-.41-.188-2.44.034-3.848-.265-.905-.196-1.092-1.39-1.178-1.416l1.673-1.673c1.374-.188 1.963 1.707 3.353 1.673z"/><path fill="#743a96" d="M423.9 540.55c-4.24.538-7.645 1.57-13.414 1.673v-.87c4.07-1.715 8.986-.46 13.414-.802"/></svg>