<svg xmlns="http://www.w3.org/2000/svg" viewBox="0 0 1024 1024"><path fill="#fde8b4" d="M844.902 517.905c-7.398 4.642-7.91 4.506-16.239 7.51-8.704 3.14-11.904 5.708-19.618 7.125l-12.066 2.201c-8.371 1.528-22.767-1.135-29.628-6.092-1.757-1.272-4.334-2.782-5.563-3.823l-10.889-9.2c-1.459-1.228-4.31-3.285-5.948-4.061-13.482-6.366-24.678-6.767-39.287-4.07l-9.762 1.8c-2.321.427-5.154 1.698-7.527 2.645l-22.74 9.054-11.674 5.18c-1.92.853-4.608 4.198-6.614 5.99-1.92 1.707-4.872 3.2-7.253 4.617l-6.016 3.558c-1.237.734-3.354 2.978-4.335 4.045-2.27.794-5.922 3.584-8.14 5.052l-7.118 4.693c-2.585 1.707-5.555 3.302-7.842 5.086l-6.673 5.205-7.91 5.974-6.153 4.061-6.562 5.3-5.948 4.795c-2.304 1.852-5.094 3.875-7.031 5.632-1.357.58-2.722 1.639-4.147 2.86l-5.095 4.351-6.374 5.376-6.323 5.35-9.455 8.056-5.086 4.42c-1.92 1.673-4.122 3.994-6.025 5.479l-13.815 10.803-9.301 7.27c-8.21 6.417-4.31 5.683-15.378 13.884-1.34.99-4.633 2.475-5.708 3.524l-7.1 6.92-5.692 5.095c-2.73 2.45-10.65 9.788-6.553 13.696 4.505-1.135 8.66-2.33 12.86-3.96l5.93-2.295 6.58-2.568 12.73-5.052 14.61-5.222c2.628-.94 5.53-2.356 8.064-3.627l6.349-3.183c5.316-2.671 9.088-4.241 14.25-5.7l1.357.23c-.179 1.946-3.524 1.946-10.231 4.898l-5.666 2.5-6.469 2.97-6.502 2.944-6.417 2.842c-2.79 1.237-5.837 2.38-8.798 3.422l-12.808 4.497-5.01 1.885-22.374 8.474c-4.25 1.613-8.917 4.258-13.133 6.315-7.014 3.43-13.534 7.313-19.95 11.605l-14.695 9.822c-2.918 1.954-6.648 3.66-9.77 5.436l-7.169 4.079-3.797 1.638-5.905 3.166a88 88 0 0 1-4.65 2.347l-12.895 5.964c-1.664.768-4.147 1.86-5.777 2.27l-9.608 2.424c-3.909.99-12.8-.828-17.818-3.832l-6.758-4.053a93 93 0 0 1-8.337-5.632l-5.521-4.173-9.165-7.006-7.399-5.692c-2.97-2.286-5.845-4.121-9.267-6.229-1.886-1.16-4.173-3.49-6.11-5.069l-5.836-4.77-11.299-8.653-6.34-5.128-8.09-6.093-4.565-3.533-6.076-4.48-8.891-6.57-7.237-5.59-5.188-4.138c-4.898-3.909-14.396-10.283-20.053-13.628-1.647-.973-3.891-2.014-5.188-2.91l-5.667-3.968c-4.036-2.825-8.046-5.402-12.262-7.979l-20.992-12.825-13.235-7.774-13.636-8.226-6.588-4.122-6.545-3.908-7.416-4.3-12.27-7.186c-.726-.427-2.347-2.628-2.407-2.842 2.594.444 4.787 1.639 7.322 3.217 8.968 5.59 7.73 3.346 14.66 8.61 3.934 1.997 7.62 3.883 11.35 6.119l8.166 4.881 8.687 5.376 6.954 4.412c.478.298 3.354.145 3.43-.418l.47-3.209c.162-1.084-1.903-3.302-2.756-4.02l-7.808-6.519c-2.014-1.68-5.214-3.754-7.211-5.18-6.118-10.913-9.95-9.369-19.968-21.298l-4.267-5.086-3.831-4.386c-2.62-3.004-5.06-6.665-7.22-10.232-6.297-10.376-7.065-8.371-12.526-19.166l-4.293-8.49-2.995-6.23c-2.67-5.555-2.816-14.319-1.638-21.086 5.427-.725 10.24.316 15.078 2.594l7.126 3.363c.921.435 3.37.708 4.215.75l9.498 4.634c.264.376 1.69 1.912 2.338 2.279l7.475 4.258 10.53 5.939 7.168 4.01 6.101 3.371 13.594 7.399 11.904 6.775c2.483 1.417 5.58 3.234 7.979 4.472l10.53 5.41 8.226 4.343 11.87 5.956 5.35 2.663 9.634 4.872c1.315.666 3.465 1.425 5 2.065l11.487 4.822 6.417 2.637 14.498 5.751 6.306 2.867 10.24 3.985c12.826 4.992 8.713.973 15.932 6 4.753 3.31 13.61 4.462 23.825 9.002l4.924 2.184c6.553 2.91 1.928 4.455 11.861 5.803 5.18.7 11.375 3.422 15.556 6.17 4.958 3.26 3.004-2.637 11.836 4.778l5.035.956c3.08 1.476 6.075 2.876 9.267 3.789l8.175 2.33c1.954.554 5.768 5.683 12.006 7.637l5.675 1.775c4.975 1.553 9.736-6.153 10.223-3.243l.444 2.654c.29 1.732 1.595 5.188 3.089 5.88l6.067 2.815c4.531 2.1 5.41 8.977 10.905 7.493-.34-4.412.111-9.387 3.951-11.52 4.344-2.415 10.846 4.326 13.33 1.305 1.365-1.655.11-6.152-1.34-7.611l-1.716-1.733c-.418-.426-1.254.325-2.227 1.016l-2.201 1.57c-.657.47-2.893-.538-3.422-1.152-.47-.546-.376-2.825.264-3.157 6.946-3.661 6.238.571 5.615-4.122-.921-6.912-4.744-3.422-9.864-7.279-8.866-6.682-13.645-1.937-14.55-3.43l-1.698-2.79c-.47-.777-2.338-1.904-3.678-2.586l-11.375-5.76c-.64-.325-2.833 1.561-3.217 2.133l-1.126 1.681c-.239.358-1.442-.802-1.766-1.16l-5.129-5.556c-1.374-1.493-5.615-3.43-7.663-3.26-2.935.248-12.185 2.202-14.25-2.747-.692-1.664-2.39-4.728-3.559-5.53l-5.58-.76-6.665-3.609-12.4-4.198c-2.636-.896-4.897-2.27-7.97-2.475-3.583-.239-6.544-1.809-9.753-3.03l-11.196-4.257c-1.211-.461-4.318-1.041-5.307-1.733-2.228-1.544-5.71-3.464-8.389-4.258l-9.224-2.756c-1.289-.384-3.866-2.321-5.137-2.244-2.304.145-4.915-.59-6.665-1.681l-6.86-4.301c-9.225-5.777-3.713-1.468-10.599-4.318l-14.84-6.153-8.243-3.464-12.28-5.29-8.148-3.534-9.72-4.198-6.374-2.799-10.582-4.94-7.85-3.943-7.646-3.84-11.307-5.393-7.688-4.036-7.715-4.054-9.156-4.872c-5.18-2.757-9.677-6.614-14.72-8.56l-4.198-2.798c-2.065-1.374-4.054-2.842-6.042-4.36l-17.775-13.62-7.961-6.135-9.225-7.595-6.34-5.035c-.717-.571-2.927-1.357-3.456-1.442-3.797-4.847-16.99-10.957-24.474-13.227-2.372-.716-5.845-.554-8.158-.614l-2.44-.068c-.82-1.51 11.469-3.712 12.51-4.105l20.497-7.586 7.671-1.758 12.186-3.96 27.042-8.814 7.108-2.364 10.087-3.115 22.212-6.724c10.12-3.063 10.71-4.471 20.01-6.75l7.954-1.954 10.564-3.217 15.804-4.053 10.197-2.577 8.098-2.202 6.656-1.954 8.354-2.202 12.962-3.131 16.564-3.405 9.625-1.946 17.383-3.695 9.497-2.261 10.343-2.586 9.472-2.372 7.108-1.92 8.32-2.415 10.052-3.072 10.001-3.251c1.101-.358 3.354-1.45 4.77-2.048l15.796-6.596c3.268-1.366 6.75-3.243 9.864-5l6.835-3.858c1.238-.7 3.37-2.364 4.779-3.345l11.076-7.697c9.754-6.784 5.376-4.787 15.352-11.426l6.417-4.275 6.946-4.668 7.27-4.625c3.678-2.338 8.005-4.105 11.913-4.088 11.964.035 11.503-1.655 16.375-1.083l12.937 1.536c2.082.247 4.736.657 7.006 1.186 28.578 6.613 8.832 2.44 31.274 13.414 2.944 1.434 6.093 4.804 8.85 6.648l8.08 5.393 6.52 3.993c3.96 2.424 8.96 5.538 12.151 8.619 3.294 3.183 5.42 6.255 9.745 8.098 4.455 1.895 7.348 6.016 10.667 9.054l5.385 4.907 4.369 5.401c4.25 5.257 7.936.47 14.754 12.229 1.74 2.995 6.588 4.59 9.446 6.638 9.575 6.861 10.675 10.889 20.702 15.565.845 1.033 2.671 3.67 3.67 4.48l6.254 5.095c3.038 2.474 5.206 5.017 8.184 7.611l7.262 6.324c6.784 9.565 4.736 4.24 16.315 14.336l6.324 5.512c2.372 2.074 6.391 4.02 9.241 5.93 1.75 1.178 4.045 5.027 5.854 6.947 1.1 1.169 4.489 2.56 5.709 3.67l12.34 11.204 4.334 3.968c7.51 6.877 2.901-.623 11.716 7.773l5.564 5.308c1.51 1.442 4.028 3.482 5.734 4.437l9.148 5.138c1.52.853 3.294 4.292 4.676 5.751 2.066 2.176 5.667 4.087 8.397 5.88 2.185 1.433 4.958 4.078 7.015 5.265l9.984 5.751c1.988 1.143 4.292 3.439 6.263 5.461 1.365.683 5.214 1.664 6.673 2.637l10.436 6.972c5.06 3.38 10.266 5.743 16.461 3.328l6.067-2.364c2.006-.785 4.318-1.314 6.238-1.433zm-93.917-7.979c-.495-3.072-.922-3.447-1.75-2.184z"/><path fill="#fcf0bf" d="M937.011 483.43c-1.246-.17-3.447-.452-4.557-.793l-6.988-2.142c-4.625 1.024-9.524 2.654-13.696 4.736l-9.55 4.77-8.575 4.284-10.88 5.453-6.264 3.14-5.427 2.713-10.283 5.146-6.1 3.115c-3.414 1.74-6.546 3.379-9.789 4.062-1.92.12-4.232.648-6.237 1.433l-6.068 2.364c-6.186 2.415-11.392.06-16.46-3.328L805.7 511.41c-1.467-.981-5.307-1.954-6.673-2.637-1.971-2.013-4.275-4.309-6.263-5.46l-9.984-5.752c-2.048-1.187-4.83-3.823-7.015-5.265-2.73-1.792-6.331-3.695-8.396-5.88-1.383-1.468-3.158-4.898-4.677-5.751l-9.147-5.137c-1.707-.956-4.224-3.004-5.735-4.438l-5.564-5.308c-8.815-8.405-4.207-.904-11.716-7.773l-4.335-3.968-12.339-11.205c-1.22-1.109-4.608-2.5-5.709-3.669-1.809-1.92-4.104-5.76-5.854-6.946-2.85-1.912-6.86-3.857-9.241-5.93l-6.323-5.513c-11.58-10.095-9.532-4.77-16.316-14.336l-7.262-6.324c-2.978-2.594-5.146-5.145-8.184-7.611l-6.254-5.095c-.999-.81-2.825-3.447-3.67-4.48-10.035-4.684-11.127-8.704-20.702-15.564-2.867-2.048-7.714-3.653-9.446-6.64-6.818-11.758-10.505-6.971-14.754-12.228l-4.37-5.401-5.384-4.907c-3.32-3.03-6.22-7.15-10.666-9.054-4.335-1.843-6.452-4.906-9.746-8.098-3.182-3.08-8.192-6.195-12.151-8.619l-6.52-3.993-8.08-5.393c-2.757-1.843-5.906-5.206-8.85-6.648-22.442-10.965-2.696-6.8-31.274-13.414-2.262-.52-4.924-.939-7.006-1.186l-12.937-1.536c-4.872-.58-4.411 1.118-16.375 1.083 1.05-1.024 3.925-2.218 5.623-2.355l6.383-.512c1.238-.102 4.199-.247 5.564-.136l11.921.938 6.904.785 9.275 1.084c10.701 1.255 27.392 1.263 28.263 1.374l6.903.913 19.883.35 8.397.154 16.221.426 5.718.316 12.996.666 11.802.64c5.87.315 12.194 3.037 17.322 5.836l9.131 4.984c4.779 2.611 9.207 5.47 13.815 8.328l8.73 5.42 6.57 4.07 10.77 6.681c4.497 2.79 8.985 5.01 13.619 7.765l7.322 4.352 10.376 5.786 4.583 2.466c3.123 1.681 6.263 3.106 9.523 4.6l9.54 4.394 13.798 6.64 5.837 2.943 9.028 3.926 16.146 7.057 4.471 1.8 6.52 2.944 7.722 3.533 6.417 2.748 7.766 3.345 6.263 2.705 7.023 2.765 9.293 3.703c10.871 4.335 8.857 2.662 15.803 5.965 9.55 4.531 7.433.162 13.39 4.958l4.044 1.4 9.148 3.404 3.183 1.178 7.185 2.594 11.204 4.002 12.152 4.505 10.94 4.165 9.668 3.703c2.005.768 5 1.186 6.784 1.963 3.882 1.698 7.296 2.833 11.22 3.976l7.11 2.065 8.217 2.398c2.5.726 5.982 1.63 8.004 2.569l7.936 3.66c.393.18 2.244.675 1.98 1.016l-1.775 2.279c-2.219 2.833-4.967 4.138-8.192 5.973l-9.395 5.35c-2.569 1.468-5.957 3.09-8.679 4.241l-15.001 6.35-9.48 3.677c-1.272.495-3.244 1.826-5.223 3.14l2.602 4.13z"/><path fill="#fce8a3" d="m937.011 483.43 11.034 6.068c3.558 3.26 7.364 5.964 11.477 8.465l18.936 11.52 10.845 6.502 6.016 3.61c1.741 1.04 16.88 11.946 17.622 12.646l10.078 9.651c1.143 1.093 1.45 5.837.05 6.81-10.316 7.142-24.114 9.549-36.667 10.155l-11.733.571-23.458.88c-3.72.136-7.791.537-11.631 1.074l-8.218 1.152-9.07 1.434-10.864 2.03c-4.036.752-8.098 1.733-12.023 2.732l-13.799 3.507-8.78 2.236-9.123 2.517-10.53 3.294-7.031 2.201-14.26 4.523-11.34 3.738-8.431 2.756-5.93 2.022-7.015 2.39c-2.68.913-5.632 1.672-8.533 2.415-4.839 2.133-9.882 3.78-15.164 4.812l-6.989 1.946-11.563 2.833c-2.935.717-5.982 1.468-8.934 2.022l-13.713 2.586-9.284 1.246-8.483 1.203-5.683 1.041-21 2.475-12.766 1.135-7.22.776-9.31.99-9.224 1.707-9.403 1.297-6.008.964-8.064 1.434c-7.654 1.365-15.19 2.38-22.52 4.386l-17.698 4.847c-8.046 2.201-15.88 4.77-23.645 8.03l-17.946 7.543c-2.38.999-4.779 1.8-6.963 2.313l-1.357-.23 3.055-1.759c8.175-4.71.734-4.975 15.889-9.105l10.726-2.918 6.827-1.894c11.477-3.183 12.536-5.103 14.43-5.735 4.992-1.664 10.325-1.74 15.53-2.62 1.468-.247 4.208-1.177 6.042-1.604l6.742-1.57 5.282-.137 12.74-2.713 6.024-1.11 5.436-.469 9.626-1.903 5.93-1.024 8.679-1.442 7.663-1.519c2.884-.572 6.016-.725 9.233-1.1 5.137-.606 10.078-2.424 15.368-2.919l8.645-.802c1.945-.18 4.48-1.041 5.854-1.05 2.346-.008 4.19-.23 5.53-1.613 2.977-3.054 2.32-7.321.332-10.282-.666-.99 1.57-3.644 2.79-3.84l9.455-1.553c2.142-.35 4.42-.905 6.272-1.46l9.37-2.833 7.083-2.141c3.498-1.059 7.142-2.15 10.376-3.533l6.52-2.8a201 201 0 0 0 12.817-6.066l8.004-4.113 5.359-2.475 4.975-2.338 8.567-4.241c2.287-1.135 4.642-2.415 6.861-3.67l6.827-3.84 11.178-6.22 12.98-7.04 6.784-3.704 14.037-8.217 11.69-6.964 9.49-5.708 11.741-6.964 8.235-4.812c2.552-1.494 5.794-2.816 8.653-4.122l6.323-2.884c2.227-1.016 5.427-2.193 7.22-3.26l6.323-3.772c-2.62-2.338-4.933-4.079-7.442-4.386l-4.01-2.219c-1.075-.69-2.697-1.962-3.268-2.594 1.1.342 3.31.623 4.556.794z"/><path fill="#fde59b" d="M39.919 432.435c.981 2.253-6.29 2.006-9.173 5.82-5.53 7.304-9.763 13.756-5.777 22.758 1.203 2.731 5.666 5.658 8.558 6.776l17.852 6.929 9.984 4.207c1.664.7 3.951 1.4 5.368 1.519 1.672 1.595 4.155 2.816 6.784 3.908l8.26 3.447 5.256 2.356 7.407 3.396c1.929.887 9.268 4.087 9.78 5.58-.845-.042-3.294-.315-4.216-.75l-7.125-3.362c-4.839-2.287-9.651-3.32-15.079-2.594-1.177 6.775-1.032 15.53 1.639 21.085l2.995 6.23 4.292 8.49c5.462 10.795 6.23 8.79 12.527 19.166 2.16 3.567 4.6 7.22 7.22 10.232l3.83 4.386 4.268 5.086c10.018 11.93 13.85 10.385 19.968 21.299 1.988 1.425 5.188 3.49 7.21 5.18l7.808 6.52c.854.707 2.919 2.935 2.756 4.018l-.469 3.209c-.085.563-2.96.717-3.43.418l-6.955-4.412-8.687-5.376-8.166-4.88c-3.73-2.228-7.416-4.122-11.35-6.12-6.929-5.264-5.691-3.02-14.66-8.61-2.534-1.578-4.727-2.773-7.321-3.216-.88-.359-3.158-1.263-4.08-1.87l-11.315-7.406-6.178-4.045-6.485-4.01c-3.72-2.305-7.27-4.472-10.803-6.93l-7.518-5.23-11.495-8.244-6.912-5.026c-1.698-1.237-3.507-2.824-5.17-4.25l-4.558-3.9C7.603 516.387 4.813 513 .58 501.744c-2.73-7.262 4.847-19.038 11.102-23.962 10.087-7.936 9.43-3.114 16.802-9.258-.23-.41-1.51-2.51-1.911-3.115l-2.748-4.181c-5.811-8.858 3.268-26.018 13.653-28.843l2.44.068z"/><path fill="#fbce67" d="M932.454 482.637c.572.631 2.193 1.903 3.269 2.594l4.01 2.219 2.603 5.307c-1.271.956-3.772 2.424-5.692 3.226l-6.818 2.867c-3.96 1.664-8.294 4.216-12.424 4.728-4.549.571-7.51 2.005-9.165 6.767l-8.081.819c-7.877 8.038-12.544 10.453-22.759 13.687-4.787 7.066-2.21 1.272-10.632 6.716-8.175 5.29-6.468-1.084-11.896 1.69-.11 2.756-.162 4.164-.776 5.12-.734 1.143-4.113 1.98-5.709 1.809-3.593-.376-5.615 1.706-6.57 5.034l-6.281 1.28c-.666 1.17-1.98 4.805-3.26 5.479l-7.04 3.686c-2.884 1.51-6.528 2.978-8.883 4.736-2.74 2.04-14.114 11.46-17.596 8.26-1.63.623-5.035 3.72-6.98 4.642l-11.41 5.376-6.647 1.81-12.245 4.923-20.139 7.237c-1.502.537-3.882.836-5.563.87-10.932.222-.862.563-14.814 2.927l-13.952 2.364-7.074 1.775-9.6 1.203c-1.656.205-3.61.512-5.078.819l-16.05 3.388-10.65 2.654-5.854 1.33c-1.084.248-3.687.24-4.625.231 2.244-1.186 5.102-1.963 8.09-2.696l12.057-2.927 6.767-1.528 6.98-1.39 5.862-1.11 7.254-1.11c1.758-.264 4.019-.63 5.674-1.023l8.687-2.091c-1.911-2.74-3.524-3.448-6.11-3.712l-9.497-.973c-17.57-1.809-25.165-1.988-43.426-1.143-10.53.486-33.946 7.825-42.624 13.226l-10.087 6.29-15.47 10.248c-3.917 2.594-6.725 5.615-9.805 9.506 3.746.17 6.528-.196 9.787-1.007l12.288-3.072 8.815-2.116 7.484-1.775c-.068.435-1.579 2.236-2.355 2.372l-4.881.88c-17.553 3.165-7.484 4.684-13.748 5.068-2.107.128-6.382-.068-8.106.324-7.91 1.81-15.565 5.41-19.021 3.832 7.22-10.18 5.282-3.09 9.49-9.873 10.376-16.751 9.71-6.187 17.1-14.191l-8.644-6.28-7.783 6.024c-7.219 5.589-.913 8.9-17.911 13.619-1.058 1.058-2.859 4.173-4.241 4.642l-5.504 1.886c2.389-2.68 5.162-5.675 8.098-8.286l6.826-6.076 5.513-4.906c6.076-5.41 10.743-7.407 15.949-14.695l3.644-3.251 7.355-6.554 9.378-8.354c2.893-2.577 6.264-5.495 9.72-7.603l5.111-3.132 9.114-6.323c4.54-3.14 13.687-8.627 18.398-10.436l10.325-3.968c14.712-5.65 26.76-5.436 42.48-2.8l7.32 1.23c4.19.708 8.457 1.613 12.639 2.568l16.076 3.687c12.442 2.858 25.472 3.652 38.033.69l17.664-4.163c1.724-.41 3.764-.888 5.283-1.357l6.126-1.895c2.236-.69 4.813-1.553 6.972-2.406l6.707-2.654 8.355-3.115 6.348-2.363 8.696-3.269c3.985-1.399 8.004-2.747 11.793-4.582l4.898-2.38 12.33-5.257 8.013-3.61c.64-.29 1.195-3.004 1.357-3.891-7.236-1.63-6.664 1.195-18.116 6.417l-5.7 2.594c-8.832 2.219-12.595 5.94-15.335 6.887l-14.933 5.18c-7.014 2.431-13.56 5.631-20.804 7.372l-14.618 3.524c-2.449.59-5.453 1.11-8.055 1.485l-7.305 1.058c-3.695.538-12.399 1.195-15.403-.938-8.456-1.963-15.931-5.334-23.202-10.01l-12.262-7.893c-12.723-7.757-28.92-10.215-42.846-4.975l-6.067 2.278-6.63 2.654c-2.629 1.05-5.778 2.295-8.167 3.618l-14.421 7.97c-2.483 1.374-5.24 3.362-7.697 5.257-1.186.23-3.345.572-4.404.938.982-1.066 3.098-3.31 4.335-4.044l6.016-3.559c2.39-1.416 5.334-2.91 7.254-4.616 2.014-1.792 4.693-5.137 6.613-5.99l11.674-5.18 22.741-9.054c2.372-.947 5.214-2.21 7.526-2.646l9.763-1.8c14.609-2.697 25.804-2.304 39.287 4.07 1.638.777 4.497 2.833 5.948 4.062l10.888 9.2c1.238 1.04 3.806 2.542 5.564 3.822 6.86 4.958 21.257 7.62 29.628 6.093l12.066-2.202c7.714-1.408 10.914-3.985 19.618-7.125 8.329-3.004 8.85-2.867 16.239-7.51 3.243-.682 6.374-2.32 9.788-4.061l6.101-3.115 10.283-5.146 5.427-2.713 6.263-3.14 10.88-5.453 8.576-4.284 9.55-4.77c4.172-2.082 9.07-3.712 13.695-4.736l6.989 2.142z"/><path fill="#fcdc8a" d="M113.724 503.748c1.638 0 3.797.418 5.401 1.101l7.91 3.32 6.41 2.056c3.336.358 6.715.504 10.086.29l6.255-.4c-.043-5.164-3.926-4.84-6.767-7.758l-5.189-5.324c-8.84-9.063-7.048-4.395-10.265-9.771 5.043 1.945 9.54 5.803 14.72 8.559l9.156 4.872 7.714 4.054 7.689 4.036 11.306 5.393 7.646 3.84 7.85 3.942 10.582 4.941 6.375 2.8 9.72 4.198 8.148 3.532 12.28 5.291 8.243 3.465 14.84 6.152c6.877 2.859 1.373-1.46 10.598 4.318l6.86 4.3c1.75 1.102 4.361 1.827 6.665 1.682 1.272-.077 3.84 1.852 5.137 2.244l9.225 2.756c2.68.802 6.161 2.714 8.388 4.258.99.683 4.088 1.272 5.308 1.733l11.196 4.258c3.208 1.22 6.17 2.79 9.753 3.03 3.072.204 5.334 1.578 7.97 2.474l12.4 4.198 6.664 3.61 5.58.76c1.17.81 2.868 3.873 3.56 5.529 2.064 4.95 11.314 2.995 14.25 2.748 2.048-.171 6.289 1.766 7.663 3.26l5.128 5.555c.333.358 1.528 1.519 1.767 1.16l1.126-1.68c.384-.581 2.586-2.459 3.217-2.134l11.375 5.76c1.348.682 3.209 1.809 3.678 2.585l1.698 2.79c.905 1.486 5.683-3.25 14.55 3.431 5.12 3.857 8.942.367 9.864 7.28.623 4.692 1.331.46-5.615 4.12-.64.333-.742 2.612-.265 3.158.53.614 2.765 1.621 3.422 1.152l2.202-1.57c.973-.691 1.809-1.442 2.227-1.016l1.715 1.733c1.45 1.459 2.705 5.964 1.34 7.611-2.492 3.021-8.994-3.72-13.33-1.305-3.84 2.142-4.291 7.117-3.95 11.52-5.504 1.476-6.374-5.393-10.906-7.492l-6.067-2.816c-1.485-.692-2.799-4.148-3.089-5.88l-.444-2.654c-.486-2.91-5.256 4.796-10.223 3.243l-5.674-1.775c-6.238-1.954-10.052-7.074-12.007-7.637l-8.175-2.33c-3.191-.905-6.195-2.313-9.267-3.789l-5.034-.956c-8.832-7.415-6.878-1.518-11.836-4.778-4.173-2.748-10.377-5.462-15.556-6.17-9.933-1.348-5.308-2.893-11.862-5.802l-4.923-2.185c-10.215-4.531-19.072-5.692-23.826-9.003-7.219-5.026-3.106-1.007-15.931-5.999l-10.24-3.985-6.306-2.867-14.499-5.751-6.417-2.637-11.485-4.821c-1.536-.649-3.687-1.4-5.001-2.066l-9.634-4.872-5.35-2.662-11.87-5.957-8.227-4.343-10.53-5.41c-2.398-1.238-5.495-3.055-7.978-4.472l-11.904-6.775-13.594-7.399-6.101-3.37-7.168-4.011-10.53-5.94-7.476-4.257c-.648-.367-2.073-1.903-2.338-2.279z"/><path fill="#f8d182" d="M541.67 655.693c-5.17 1.459-8.934 3.03-14.25 5.7l-6.35 3.183c-2.533 1.271-5.435 2.688-8.063 3.627l-14.61 5.222-12.73 5.052-6.58 2.568-5.93 2.296c-4.2 1.63-8.355 2.816-12.86 3.96-4.096-3.9 3.822-11.248 6.553-13.697l5.692-5.094 7.1-6.92c1.075-1.05 4.369-2.535 5.708-3.525 11.068-8.2 7.168-7.467 15.377-13.884l9.302-7.27 13.815-10.803c1.895-1.485 4.105-3.815 6.025-5.479l5.086-4.42 9.455-8.055 6.323-5.35 6.374-5.377 5.095-4.352c1.425-1.212 2.79-2.278 4.147-2.858-1.52 1.382-3.516 4.932-5.265 6.357l-6.63 5.367-5.735 4.651-5.368 4.395c-4.104 3.362.111 3.276-10.137 11.503l-7.305 5.87c-7.953 6.392-4.403 1.443-14.634 9.635l-6.622 5.299-4.531 3.729-11.068 10.266c-1.4 1.305-3.354 2.688-4.881 3.959l-10.334 8.585-6.332 5.376c-1.143.964-2.722 3.532-3.31 5.085-.487 1.28 3.532 3.286 4.778 2.731l5.453-2.432 7.16-3.447c1.655-.794 4.027-2.228 5.7-3.311l7.901-5.095c9.421-6.067 9.131-8.584 19.277-12.22 8.269-10.854 11.085-9.378 21.231-18.218l7.023-6.119a56 56 0 0 1 2.492-2.056l5.504-1.886c1.382-.478 3.183-3.584 4.24-4.642 16.99-4.719 10.685-8.03 17.912-13.62l7.783-6.024 8.644 6.28c-7.39 8.014-6.724-2.55-17.1 14.192-4.2 6.784-2.262-.308-9.49 9.873 3.456 1.578 11.11-2.023 19.02-3.832 1.716-.392 6-.196 8.108-.324 6.263-.375-3.806-1.894 13.747-5.069l4.88-.879c.777-.136 2.288-1.937 2.356-2.372 2.97-.7 6.955-2.884 10.308-3.9l15.821-4.787 11.128-2.901c.938 0 3.54.017 4.625-.23l5.853-1.332 10.65-2.654 16.051-3.387c1.46-.308 3.422-.615 5.078-.82l9.6-1.203 7.074-1.775 13.952-2.364c13.952-2.363 3.882-2.705 14.814-2.926 1.68-.035 4.061-.333 5.563-.87l20.139-7.237 12.245-4.924 6.648-1.809 11.409-5.376c1.937-.913 5.342-4.01 6.98-4.642 3.49 3.2 14.857-6.22 17.596-8.26 2.364-1.758 5.999-3.226 8.883-4.736l7.04-3.687c1.289-.674 2.594-4.31 3.26-5.478l6.28-1.28c.956-3.32 2.978-5.41 6.571-5.035 1.596.17 4.975-.665 5.709-1.809.614-.956.665-2.364.776-5.12 5.428-2.773 3.72 3.601 11.896-1.69 8.422-5.444 5.837.342 10.632-6.715 10.215-3.234 14.874-5.65 22.759-13.688l8.08-.819c1.656-4.761 4.617-6.195 9.166-6.767 4.13-.52 8.465-3.063 12.424-4.727l6.818-2.867c1.92-.811 4.42-2.27 5.692-3.226l-2.603-5.308c2.51.316 4.83 2.048 7.441 4.386l-6.323 3.772c-1.792 1.067-4.992 2.244-7.219 3.26l-6.323 2.884c-2.859 1.306-6.102 2.628-8.653 4.122l-8.235 4.812-11.742 6.964-9.489 5.708-11.69 6.964-14.038 8.217-6.784 3.704-12.979 7.04-11.178 6.22-6.827 3.84c-2.219 1.246-4.574 2.535-6.86 3.67l-8.568 4.24-4.975 2.34-5.36 2.474-8.004 4.113c-4.275 2.193-8.473 4.207-12.817 6.067l-6.52 2.799c-3.225 1.382-6.868 2.483-10.376 3.533l-7.082 2.142-9.37 2.833a52 52 0 0 1-6.272 1.459l-9.455 1.553c-1.22.196-3.456 2.85-2.79 3.84 1.997 2.961 2.645 7.228-.333 10.283-1.34 1.373-3.183 1.595-5.53 1.612-1.382 0-3.908.87-5.853 1.05l-8.645.802c-5.29.495-10.231 2.313-15.368 2.919-3.217.375-6.35.529-9.233 1.1l-7.663 1.52-8.679 1.441-5.93 1.024-9.626 1.903-5.436.47-6.024 1.109-12.74 2.714-5.283.136-6.74 1.57c-1.836.427-4.575 1.357-6.043 1.605-5.205.887-10.538.955-15.53 2.62-1.895.63-2.953 2.55-14.43 5.734l-6.827 1.894-10.726 2.918c-15.164 4.122-7.723 4.395-15.89 9.106l-3.054 1.757z"/><path fill="#f3bd46" d="M72.55 446.276c1.323 1.69 3.84 4.08 5.854 5.863l8.218 7.287c4.096 3.635 9.6 7.936 10.863 13.944-.376 1.638-4.08 3.592-5.794 3.968l-3.61 4.804c-1.86.52-6.093 1.348-7.91.904l-6.52-1.604c-2.304-.563-4.898-.836-6.92-1.015-1.417-.128-3.704-.82-5.368-1.52l-9.984-4.206-17.852-6.93c-2.892-1.117-7.347-4.053-8.558-6.775-3.986-9.002.247-15.445 5.777-22.758 2.875-3.806 10.154-3.559 9.173-5.82 2.312.06 5.786-.102 8.158.615 7.484 2.27 20.676 8.38 24.473 13.226z"/><path fill="#f4be57" d="M634.138 543.445c-.052.137-1.289 1.758-1.8 2.057l-9.277 5.401c-1.177.683-3.302 3.072-4.326 4.096-8.431 8.406-9.156 2.424-12.57 12.186l-11.844 6.639c-3.336 1.869-7.936 5.504-10.632 7.996l-9.874 9.139-5.606 5.845-5.282 5.436-5.752 6.016c-.529.555-8.08 8.61-4.266 8.84 3.114.188 7.748-3.114 10.658-6.05l5.683-5.734 3.277-2.03 5.837-5.548c.793-.76 1.715-1.544 3.225-1.595-5.196 7.287-9.864 9.292-15.948 14.694l-5.513 4.907-6.827 6.075c-2.935 2.612-5.708 5.615-8.098 8.286a56 56 0 0 0-2.492 2.057l-7.022 6.118c-10.138 8.84-12.963 7.365-21.231 18.219-10.147 3.635-9.848 6.152-19.277 12.22l-7.902 5.094c-1.673 1.075-4.045 2.509-5.7 3.311l-7.16 3.447-5.453 2.432c-1.245.555-5.265-1.442-4.778-2.73.589-1.553 2.176-4.122 3.31-5.086l6.332-5.376 10.334-8.585c1.528-1.271 3.473-2.653 4.881-3.96l11.068-10.265 4.531-3.729 6.622-5.299c10.232-8.192 6.673-3.243 14.635-9.634l7.304-5.871c10.24-8.226 6.033-8.14 10.138-11.503l5.367-4.395 5.735-4.65 6.63-5.368c1.758-1.425 3.746-4.975 5.265-6.357 1.937-1.758 4.736-3.78 7.032-5.632l5.947-4.796 6.563-5.299 6.152-4.062 7.91-5.973 6.674-5.206c2.278-1.774 5.256-3.379 7.842-5.085l7.117-4.694c2.218-1.467 5.879-4.258 8.14-5.051 1.058-.367 3.217-.717 4.404-.94z"/><path fill="#fbc960" d="M127.548 487.262c3.217 5.376 1.433.708 10.265 9.77l5.189 5.325c2.85 2.919 6.724 2.594 6.767 7.757l-6.255.401c-3.38.214-6.75.068-10.087-.29l-6.408-2.056-7.91-3.32c-1.614-.674-3.764-1.1-5.402-1.1l-9.498-4.634c-.503-1.494-7.85-4.702-9.78-5.581l-7.406-3.396-5.257-2.356-8.26-3.447c-2.628-1.1-5.12-2.321-6.784-3.908 2.023.179 4.625.452 6.92 1.015l6.52 1.604c1.818.444 6.059-.384 7.91-.904l3.61-4.804c1.715-.376 5.419-2.33 5.794-3.968-1.263-6.008-6.767-10.317-10.863-13.944l-8.217-7.287c-2.014-1.792-4.54-4.182-5.854-5.863.537.086 2.74.87 3.456 1.442l6.34 5.035 9.225 7.595 7.961 6.135 17.775 13.62c1.988 1.518 3.977 2.986 6.042 4.36l4.198 2.799z"/><path fill="#fcf0bf" d="m750.985 509.926-1.75-2.184c.836-1.263 1.263-.888 1.75 2.184"/><path fill="#eda42f" d="M581.598 596.139c-1.51.05-2.424.844-3.226 1.595l-5.837 5.547-3.276 2.031-5.684 5.734c-2.91 2.936-7.543 6.238-10.658 6.05-3.814-.23 3.738-8.285 4.267-8.84l5.751-6.016 5.283-5.436 5.606-5.845 9.873-9.14c2.697-2.491 7.296-6.126 10.633-7.995l11.844-6.639c3.413-9.762 4.139-3.772 12.57-12.186 1.023-1.024 3.148-3.404 4.326-4.096l9.276-5.401c.512-.299 1.749-1.912 1.8-2.057 2.458-1.894 5.205-3.882 7.697-5.256l14.422-7.97c2.389-1.323 5.538-2.569 8.166-3.618l6.63-2.654 6.068-2.279c13.926-5.24 30.122-2.782 42.845 4.975l12.263 7.894c7.27 4.676 14.745 8.046 23.202 10.01 3.004 2.132 11.708 1.475 15.403.938l7.304-1.058c2.603-.376 5.607-.896 8.056-1.485l14.617-3.524c7.245-1.75 13.79-4.941 20.804-7.373l14.934-5.18c2.739-.947 6.51-4.668 15.334-6.886l5.7-2.594c11.452-5.223 10.88-8.056 18.117-6.418-.154.888-.717 3.61-1.357 3.892l-8.013 3.61-12.33 5.256-4.899 2.38c-3.797 1.844-7.808 3.184-11.793 4.583l-8.695 3.268-6.349 2.364-8.354 3.115-6.707 2.654c-2.16.853-4.736 1.715-6.972 2.406l-6.127 1.894c-1.519.47-3.558.948-5.282 1.357l-17.664 4.164c-12.561 2.961-25.592 2.168-38.033-.69l-16.077-3.687c-4.181-.956-8.448-1.86-12.638-2.569l-7.321-1.229c-15.727-2.636-27.768-2.85-42.48 2.8l-10.325 3.967c-4.71 1.81-13.858 7.288-18.398 10.437l-9.113 6.323-5.112 3.132c-3.447 2.107-6.826 5.026-9.72 7.603l-9.377 8.354-7.356 6.554-3.644 3.25z"/><path fill="#e4a036" d="m648.073 610.202-11.128 2.9-15.82 4.788c-3.354 1.016-7.34 3.2-10.309 3.9l-7.484 1.775-8.815 2.116-12.288 3.072c-3.25.81-6.041 1.178-9.787 1.007 3.08-3.891 5.888-6.912 9.804-9.506l15.471-10.249 10.087-6.289c8.678-5.401 32.085-12.74 42.624-13.226 18.261-.845 25.847-.666 43.426 1.143l9.497.973c2.586.264 4.199.973 6.11 3.712l-8.687 2.09c-1.647.393-3.916.76-5.674 1.025l-7.254 1.109-5.862 1.11-6.98 1.39-6.767 1.528-12.058 2.927c-2.995.725-5.845 1.51-8.09 2.696z"/></svg>