<svg xmlns="http://www.w3.org/2000/svg" viewBox="0 0 1024 1024"><path fill="#f1b46b" d="M1019.429 452.31c-9.668 11.187-5.043 27.622-5.93 41.215-4.071 62.149-30.499 139.563-65.375 191.42-5.982 8.9-11.622 17.528-17.886 26.249-31.07 43.247-86.016 86.195-134.067 112.69-35.456 19.55-75.016 34.057-114.747 41.737-81.46 15.736-166.674 7.126-241.741-27.153-40.755-18.602-68.822-33.083-102.358-64.153-2.38-2.21-4.01-5.479-8.02-5.026-7.954-13.1-20.754-21.138-30.132-33.067-10.522-13.38-23.646-34.023-31.096-47.096-21.256-37.333-35.9-69.427-44.68-111.855-15.633-75.554-2.168-170.325 33.271-238.72 3.482-6.715 2.936-5.009 6.059-8.9.53-.657 2.748-9.105 4.693-12.458 7.885-13.577 18.142-30.55 26.83-43.392 13.908-20.566 37.862-35.064 51.105-56.227 9.361-1.04 12.63-8.951 19.021-14.08C508.896 87.433 716.35 77.961 866.87 188.578c87.962 64.64 136.055 157.073 152.559 263.723zm-361.72-284.485c-11.23 1.912-32.546 15.394-40.49 23.706-5.88 6.152-15.053 28.825-15.045 37.094 0 2.005 1.724 3.96 1.955 6.067 7.065 65.989 100.795 78.063 128.017 19.601 15.556-33.408 2.159-65.954-30.285-81.237-12.937-6.093-29.9-7.654-44.143-5.23zm-210.61 72.26c-25.575 3.61-58.59 34.722-61.569 60.809-5.53 48.392 44.194 74.291 85.607 55.518 37.81-17.144 56.943-60.69 32.435-97.417-12.33-18.474-35.857-21.82-56.474-18.91m391.15 32.043c-14.097 2.611-26.265 20.992-27.537 34.654-2.167 23.236 2.355 38.536 25.6 46.788 16.248 5.76 43.58 3.243 49.818-15.505 1.493-4.488 1.612-16.239.58-20.855-2.654-11.904-20.489-35.055-31.147-41.071-4.565-2.577-12.143-4.967-17.305-4.011zM641.701 404.591c-52.045 5.137-85.94 64.572-49.621 106.94 32.102 37.461 94.43 26.88 117.316-15.173 25.736-47.283-18.304-96.648-67.695-91.767M924.726 476.8c-.53-.53-7.57-5.367-8.883-6.161-14.96-9.054-32.418-11.554-48.913-5.316-33.92 12.834-47.087 47.778-35.15 81.348 4.609 12.97 16.675 25.045 28.477 31.71 49.757 28.083 99.54-29.244 79.957-77.952-2.236-5.547-11.366-19.516-15.488-23.638zM303.602 578.338c.708.734 3.14.922 4.684 2.27 12.937 11.34 20.446 11.878 38.162 10.206 20.386-1.92 48.29-23.236 52.753-43.546 2.551-11.63.29-30.797-6.75-40.746-9.95-14.072-27.23-18.518-43.179-13.193-16.657 5.564-39.407 29.858-46.438 45.85-3.73 8.482-4.916 19.25-3.618 28.475.221 1.562 3.677 9.942 4.377 10.667zM820.15 637.21c-8.414 1.843-16.282 14.54-17.348 22.767-2.04 15.77 7.714 27.042 21.956 32.136 15.198 5.436 39.731 6.05 50.27-8.055 6.69-8.96 5.18-23.493-2.978-31.207-3.695-3.498-20.07-14.686-24.474-15.65-4.864-1.067-22.554-1.058-27.426 0zm-314.71 22.152c-2.133-2.142-14.156-10.692-17.04-12.04-51.849-24.252-115.405 20.497-96.47 78.412 7.928 24.252 43.708 45.918 68.753 43.512 45.133-4.335 83.038-57.813 54.153-98.202-1.51-2.116-8.039-10.317-9.387-11.673zm210.646 48.145c-.836-.836-3.123-1.024-4.634-2.33-16.46-14.156-34.56-16.725-55.722-11.716-44.809 10.607-75.426 60.988-46.507 101.846 37.137 52.463 142.404 3.575 120.892-62.72-1.75-5.393-10.274-21.35-14.03-25.088z"/><path fill="#e79347" d="M373.447 843.511c-3.891-13.047-20.233-15.257-29.218-24.03l-.836-5.162c-6.93.017-12.126-4.617-20.037-2.97 1.246-6.494-4.53-8.03-7.04-12.023-3.422-5.453-7.74-12.092-5.026-17.954 5.325-1.007 15.838 1.655 20.08-.999 5.12-3.2-.231-8.08-2.066-11.093 4.01-.452 5.632 2.816 8.021 5.026 33.528 31.07 61.603 45.551 102.358 64.154 75.067 34.278 160.281 42.888 241.74 27.153 39.732-7.672 79.292-22.187 114.748-41.737 48.051-26.496 102.998-69.444 134.067-112.69 6.264-8.722 11.896-17.35 17.886-26.25 34.876-51.857 61.304-129.262 65.374-191.42.888-13.593-3.729-30.028 5.93-41.215 14.132 91.315-4.812 184.175-52.47 263.5-120.696 200.875-399.89 257.537-593.511 127.702z"/><path fill="#6f301e" d="M641.7 404.59c49.392-4.88 93.432 44.494 67.696 91.768-22.887 42.053-85.214 52.625-117.316 15.173-36.318-42.377-2.424-101.803 49.62-106.94"/><path fill="#6f2f1d" d="M505.44 659.362c1.357 1.357 7.877 9.566 9.387 11.674 28.886 40.388-9.02 93.866-54.152 98.201-25.046 2.407-60.817-19.25-68.753-43.511-18.936-57.916 44.62-102.665 96.469-78.413 2.884 1.348 14.916 9.907 17.041 12.04z"/><path fill="#6d301c" d="M657.71 167.825c14.242-2.423 31.206-.862 44.142 5.231 32.453 15.283 45.85 47.83 30.285 81.237-27.221 58.454-120.951 46.379-128.017-19.6-.222-2.108-1.954-4.054-1.954-6.068-.009-8.269 9.165-30.933 15.044-37.094 7.945-8.312 29.261-21.794 40.49-23.706z"/><path fill="#70301e" d="M716.086 707.507c3.755 3.738 12.28 19.695 14.029 25.088 21.504 66.287-83.755 115.183-120.892 62.72-28.92-40.857 1.707-91.238 46.507-101.845 21.162-5.01 39.262-2.45 55.722 11.716 1.52 1.306 3.798 1.493 4.634 2.33z"/><path fill="#6e301e" d="M447.098 240.085c20.617-2.91 44.143.436 56.474 18.91 24.516 36.728 5.384 80.273-32.435 97.417-41.413 18.773-91.136-7.126-85.607-55.518 2.978-26.087 35.985-57.2 61.568-60.809"/><path fill="#6e311d" d="M924.726 476.8c4.122 4.122 13.252 18.082 15.488 23.637 19.592 48.7-30.2 106.036-79.957 77.952-11.802-6.664-23.868-18.739-28.476-31.71-11.938-33.578 1.229-68.522 35.149-81.348 16.495-6.238 33.954-3.737 48.913 5.316 1.314.794 8.354 5.632 8.883 6.162z"/><path fill="#753420" d="M303.602 578.338c-.709-.734-4.165-9.105-4.378-10.667-1.297-9.224-.11-19.993 3.618-28.475 7.032-15.992 29.782-40.286 46.439-45.85 15.948-5.325 33.237-.87 43.178 13.193 7.04 9.95 9.302 29.115 6.75 40.746-4.463 20.31-32.367 41.617-52.753 43.546-17.724 1.672-25.233 1.135-38.161-10.206-1.545-1.357-3.977-1.544-4.685-2.27z"/><path fill="#793721" d="M838.25 272.128c5.162-.956 12.74 1.434 17.305 4.01 10.658 6.017 28.493 29.168 31.146 41.072 1.033 4.616.913 16.367-.58 20.855-6.238 18.748-33.57 21.265-49.817 15.505-23.245-8.243-27.768-23.543-25.6-46.788 1.271-13.662 13.44-32.043 27.537-34.654z"/><path fill="#77351e" d="M820.15 637.21c4.872-1.067 22.562-1.067 27.426 0 4.403.964 20.779 12.151 24.474 15.65 8.158 7.714 9.668 22.246 2.978 31.206-10.539 14.106-35.072 13.491-50.27 8.056-14.242-5.095-23.996-16.367-21.956-32.137 1.066-8.226 8.934-20.932 17.348-22.767z"/><path fill="#eeae64" d="M319.277 217.591c1.767 7.868-9.95 2.16-11.852 4.199.256 3.217-3.44 5.128-3.875 7.15-.324 1.511 1.588 3.21.768 4.737-1.1 2.03-5.333 4.625-7.15 6.946-11.998 15.403-24.858 29.935-38.042 44.211-2.637 2.859-8.32 5.632-9.156 6.938-1.178 1.851-.418 4.71-1.212 5.768-.333.444-3.763 1.067-5.811 3.217-2.355 2.484-6.759 9.83-8.84 13.227-21.727 35.541-41.089 75.238-55.578 116.062l-3.584.324 1.885 5.888-14.045-8.021-2.006-2.006c-1.68-3.882-7.73-6.391-11.46-7.594-11.196-3.627-27.529-4.668-38.75-1.485-3.089.879-7.117 1.357-7.97 5.069-28.774 12.33-40.883 47.949-26.513 75.665C81.872 509.047 95.713 521.19 108 524.15c18.534 4.472 30.25.256 46.762-7.637 4.736-2.261 10.863-4.01 13.79-9.293l.248-2.739c.529-.589.7-1.877 2.005-2.005 4.702-3.448 4.762-1.886 3.96 2.97-2.057 12.381-1.118 48.085-.035 62.318.691 9.071 4.566 19.618 5.777 28.51.444 3.294-1.544 6.69.333 10.53-7.253-.222-15.83-.307-22.067 4.011-4.036.93-9.011 5.564-13.679 6.383-1.946 6.4-12.535 15.47-14.123 20.983-.853 2.961-.69 10.42-.256 13.722 1.186 8.934 7.749 16.512 15.292 20.821 17.1 9.78 32.52 10.693 50.884 4.284 5.257-1.835 3.26-1.672 6.016-4.01.359-.3 1.588-1.554 2.006-2.006 1.962-2.133 5.316-2.159 4.019-8.021l7.125 5.862c1.732 11.733 12.254 23.416 16.043 34.16.904 2.56.631 7.389 1.203 7.9 4.002 3.645 9.105 6.555 11.384 13.654 4.087 12.758 19.054 23.501 27.392 36.77l7.065 13.995-33.11-1.997c-16.801-5.017-35.361-7.842-50.525-13.687-12.305-4.745-26.889-10.641-39.339-16.82-20.6-10.23-40.243-23.466-56.61-37.623C51.988 664.064 21.26 607.6 8.365 545.52c-1.416-6.827-2.688-7.04-4.113-13.875-2.167-10.41-2.287-18.483-1.954-29.167C6.044 379.22 105.321 267.742 220.453 232.124c34.987-10.82 62.464-13.773 98.824-14.524z"/><path fill="#de8f47" d="M345.364 217.591c-13.244 21.163-37.197 35.661-51.106 56.227-8.687 12.842-18.944 29.815-26.83 43.392-1.945 3.353-4.163 11.793-4.692 12.458-3.124 3.891-2.578 2.176-6.06 8.9-35.438 68.395-48.904 163.158-33.27 238.72 8.772 42.428 23.423 74.522 44.68 111.855 7.441 13.074 20.574 33.716 31.095 47.096 9.379 11.93 22.179 19.96 30.132 33.067 1.826 3.012 7.176 7.884 2.065 11.093-4.241 2.654-14.754 0-20.08.998-2.713 5.863 1.605 12.502 5.027 17.954 2.509 3.994 8.286 5.53 7.04 12.024 7.91-1.647 13.107 2.987 20.036 2.97l.836 5.162c8.986 8.781 25.327 10.991 29.219 24.03-6.998-4.693-35.09-26.556-39.407-27.802-7.322-2.116-13.406 1.417-19.687 1.81-5.504.34-12.697.298-18.227 0-112.009-6.127-224.589-67.67-270.78-172.587C5.345 599.526-.065 562.918.301 513.51c.026-3.293-1.476-9.37 1.997-11.042-.324 10.693-.205 18.757 1.954 29.167 1.425 6.835 2.697 7.049 4.113 13.875 12.894 62.08 43.623 118.545 91.196 159.668 16.376 14.148 36.01 27.392 56.61 37.623 12.45 6.187 27.034 12.075 39.339 16.82 15.164 5.845 33.724 8.67 50.526 13.687l33.11 1.997-7.066-13.995c-8.338-13.26-23.305-24.013-27.392-36.77-2.27-7.091-7.373-10.01-11.384-13.654-.572-.52-.299-5.35-1.203-7.901-3.789-10.744-14.31-22.426-16.043-34.16l-7.125-5.862c1.297 5.863-2.057 5.888-4.02 8.022 2.364-5.487.897-9.19-.486-14.567-1.63-6.34-4.275-15.573-6.45-21.623-1.537-4.258-7.707-19.55-10.053-22.042-1.92-2.04-9.097-3.968-12.058-4.096-2.526-.11-14.378 1.519-17.084 2.142 6.238-4.326 14.814-4.233 22.068-4.01-1.878-3.832.12-7.237-.333-10.53-1.212-8.893-5.086-19.44-5.777-28.51-1.084-14.234-2.023-49.938.034-62.32.81-4.855.742-6.417-3.96-2.97 10.309-18.167 17.391-39.39 5.76-58.922-3.302-5.555-10.717-9.344-13.79-15.3l14.046 8.021-1.885-5.888 3.584-.324c14.49-40.824 33.851-80.52 55.577-116.062 2.082-3.405 6.486-10.743 8.84-13.227 2.04-2.15 5.48-2.773 5.812-3.217.794-1.058.034-3.917 1.212-5.768.836-1.306 6.52-4.088 9.156-6.938 13.184-14.276 26.044-28.808 38.042-44.211 1.809-2.33 6.05-4.915 7.15-6.946.828-1.52-1.092-3.226-.768-4.736.436-2.014 4.13-3.926 3.875-7.151 1.903-2.04 13.619 3.67 11.852-4.199 8.32-.17 18.125.888 26.078 0z"/><path fill="#6b2f1c" d="m160.796 426.231 2.006 2.006c3.063 5.956 10.479 9.745 13.79 15.3 11.622 19.541 4.548 40.755-5.76 58.923-1.315.128-1.477 1.416-2.006 2.005-3.874 4.292-11.648 6.443-14.046 12.04-16.503 7.902-28.228 12.11-46.762 7.638-12.28-2.961-26.12-15.104-31.915-26.266-14.37-27.716-2.261-63.334 26.513-75.665 17.903-7.671 41.19-5.137 58.18 4.01z"/><path fill="#75351d" d="M204.93 670.985c-.417.452-1.646 1.706-2.005 2.005-2.918-.333-5.393 1.1-6.016 4.01-18.363 6.41-33.783 5.496-50.884-4.283-7.535-4.31-14.105-11.896-15.292-20.822-.435-3.302-.597-10.76.256-13.721 1.588-5.513 12.169-14.584 14.123-20.984 4.668-.819 9.643-5.46 13.679-6.383 2.705-.622 14.558-2.244 17.084-2.141 2.96.128 10.137 2.048 12.057 4.096 2.347 2.5 8.525 17.783 10.053 22.041 2.176 6.05 4.83 15.283 6.45 21.624 1.383 5.376 2.85 9.08.487 14.566z"/><path fill="#de8f47" d="M160.796 426.231c-16.981-9.147-40.277-11.682-58.18-4.01.845-3.72 4.873-4.199 7.97-5.069 11.222-3.183 27.554-2.142 38.75 1.485 3.73 1.212 9.78 3.712 11.46 7.594m-6.024 90.283c2.398-5.59 10.172-7.748 14.046-12.04l-.248 2.739c-2.935 5.282-9.054 7.031-13.79 9.293zm48.153 156.476c-2.756 2.347-.76 2.176-6.016 4.01.623-2.91 3.098-4.343 6.016-4.01"/></svg>