<svg xmlns="http://www.w3.org/2000/svg" viewBox="0 0 1024 1024"><path fill="#553d65" d="M742.902 184.74c59.284-53.637 177.848-25.206 157.148 170.327 0 0-43.28 468.613-430.976 603.187C135.08 1074.176-25.892 823.685 51.267 641.792c75.73-178.504 245.6-123.991 383.928-185.098 138.327-61.107 260.94-229.642 307.707-271.954"/><path fill="#40220f" d="M894.208 157.307a11.27 11.27 0 0 1-8.136-19.103c.707-.732 17.675-18.007 53.617-30.469 22.139-7.68 31.862-19.282 31.672-27.377-.164-7.004-7.966-13.46-20.869-17.27a11.295 11.295 0 0 1 6.4-21.657c22.79 6.728 36.639 21.09 37.043 38.4.477 20.183-17.48 39.05-46.843 49.24-30.412 10.551-44.682 24.729-44.82 24.872a11.32 11.32 0 0 1-8.064 3.364"/><path fill="#84b857" d="M970.199 304.573h.01c14.224-68.53-30.377-151.07-98.58-180.546-68.209-29.47-158.515-10.27-202.65 47.749l-.005.015a42.286 42.286 0 1 0 30.019 77.374 42.24 42.24 0 0 0 24.73 30.76 42.24 42.24 0 0 0 39.357-3.071 42.2 42.2 0 0 0 24.734 30.766 42.2 42.2 0 0 0 39.348-3.077 42.23 42.23 0 0 0 24.74 30.766 42.21 42.21 0 0 0 39.347-3.072 42.281 42.281 0 1 0 78.95-27.664"/></svg>