<svg xmlns="http://www.w3.org/2000/svg" viewBox="0 0 1024 1024"><path fill="#5a9f3d" d="M317.96 219.836c20.122 3.32 41.925 18.867 60.357 27.102 4.676 2.09 11.93.367 12.783 1.032 1.058.81 3.191 19.448 13.926 21.53 34.133-18.202 67.832-14.396 104.226-15.906 31.48-1.306 53.095-5.41 86.144 1.066 11.11 2.176 22.725 11.665 34.594 10.488l3.038-11.554c23.825-3.798 48.23-28.075 73.14-33.758 13.713-3.132 41.932.06 56.268 2.696v2.927c-9.335-.264-18.807.17-28.134.017 23.356 32.913 22.878 76.177 22.485 115.311-.094 9.25 4.156 26.257-5.615 30.96-13.619-45.44-51.063-88.125-101.273-90.01 3.097 10.58 15.47 11.81 22.741 19.438 25.856 27.145 39.919 63.94 45.833 100.446.563 3.473 4.565 5.581 4.565 6.682v101.274c0 1.271-4.292 3.319-4.676 6.57-4.07 34.5-12.783 64.973-17.827 97.51-17.33 19.038-21.87 48.402-32.631 71.459-56.875 121.839-149.598 238.873-299.315 221.107-31.505-87.876-31.369-195.09-45.201-289.553-14.498-98.995-47.719-209.545 16.973-298.488l39.475-36.454c-48.418.777-80.188 30.857-98.535 73.054-43.417 99.857 11.324 236.868 19.653 340.582 5.555 69.163-1.502 141.005 33.868 205.244-4.266 9.122-22.562 6.306-31.12 5.777-33.912-2.108-62.192-15.718-89.78-33.971-3.558-2.355-17.928-15.727-19.755-5.564-22.22-70.127-16.802-133.171-28.322-205.167-17.86-111.599-81.69-212.343-36.454-329.412 29.867-77.312 104.132-126.362 188.561-112.444zM177.964 387.934l13.406 5.026c25.335-7.834 30.609-35.823 45.26-54.733 10.957-14.148 52.898-42.692 19.61-59.46-44.518-22.426-106.12 68.787-78.268 109.167zm228.002-66.014c-7.254 2.108-26.232 18.227-30.96 25.284-34.61 51.644-36.786 137.498-16.451 194.927 12.868 36.335 41.31 33.852 53.82-.025 10.777-29.184 6.877-71.348 13.67-104.483 5.069-24.738 25.745-62.02 27.144-80.162 1.971-25.531-22.186-42.837-47.223-35.541"/><path fill="#4c903d" d="M762.428 225.46c62.233 1.749 110.89 43.622 132.3 101.187 41.78 112.35-10.402 210.834-30.822 318.166-16.025 84.24-6.067 176.657-42.274 255.914-23.407 51.226-74.18 83.73-129.527 89.83l-66.782-16.4c-61.67 66.38-169.2 68.275-225.698-5.325l-61.97 21.734c-35.404-6.596-61.013-10.171-90.12-33.595-32.751-26.351-41.43-52.497-53.35-90.12 1.826-10.164 16.196 3.208 19.754 5.563 27.588 18.244 55.868 31.863 89.78 33.971 8.567.53 26.862 3.345 31.12-5.777 8.85 16.077 25.942 36.292 42.206 45.005 8.107-4.25.043-15.352-1.783-20.779-2.031-6.041-4.489-12.518-6.665-18.594 149.718 17.766 242.44-99.268 299.316-221.107 10.76-23.049 15.3-52.42 32.631-71.458-2.85 18.389-3.285 40.499-5.726 58.974-9.003 68.215-10.103 152.67-30.72 216.832-6.315 19.66-18.884 35.737-19.806 56.132 43.128-28.647 64.709-82.816 73.011-132.335 9.814-58.581 8.585-125.33 17.093-185.447 12.16-85.888 42.675-169.719 16.776-256.093 9.77-4.702 5.521-21.71 5.615-30.96.384-39.133.87-82.397-22.485-115.31 9.327.153 18.799-.273 28.134-.017z"/><path fill="#83b24a" d="m627.405 62.302-5.547-19.627c-25.745 6.733-70.007 39.45-83.755 62.541-23.406 39.33-16.716 104.166-28.85 148.378-36.395 1.51-70.094-2.296-104.227 15.906-10.735-2.09-12.868-20.72-13.926-21.53 24.294-16.358 59.673-10.393 76.066-39.381l-2.919-11.256 10.437-.503c10.189-60.69 28.962-160.973 90.718-188.092 11.588-5.086 29.593-11.255 41.668-7.654 15.727 4.693 28.134 37.401 26.189 53.017-.93 7.45-5.666 7.74-5.846 8.21z"/><path fill="#6a963a" d="M627.405 62.302c-.888 2.432 1.544 7.27-.504 10.59-29.909 6.374-55.97 17.416-68.147 47.351-11.4 28.024-11.614 44.297-3.277 72.883.862 2.961 4.199 3.619 4.412 4.207 1.229 3.448-1.254 9.634 2.73 16.811 13.91 25.062 51.49 20.966 70.418 39.45l-3.038 11.554c-11.87 1.177-23.484-8.32-34.594-10.488-33.05-6.477-54.656-2.372-86.144-1.066 12.134-44.212 5.444-109.048 28.851-148.378 13.747-23.1 58.01-55.817 83.755-62.54l5.546 19.626z"/><path fill="#448639" d="M706.167 219.836c-24.908 5.683-49.314 29.96-73.139 33.758-18.927-18.484-56.499-14.388-70.417-39.45-3.985-7.177-1.493-13.363-2.73-16.81 47.684-16.94 112.119-22.375 146.278 22.502z"/><path fill="#4c8b3c" d="m464.239 197.333 2.918 11.256c-16.392 28.988-51.771 23.023-76.066 39.381-.853-.657-8.106 1.058-12.783-1.032-18.432-8.235-40.243-23.783-60.356-27.102 35.584-42.172 98.662-41.225 146.278-22.503z"/><path fill="#3b7d34" d="M751.18 371.746c25.89 86.375-4.624 170.206-16.776 256.094-8.507 60.117-7.279 126.865-17.092 185.446-8.303 49.52-29.884 103.689-73.011 132.335.921-20.394 13.491-36.471 19.806-56.132 20.616-64.17 21.717-148.616 30.72-216.832 2.44-18.475 2.875-40.584 5.726-58.974 5.043-32.537 13.755-63.01 17.826-97.51.384-3.251 4.676-5.308 4.676-6.57V408.328c0-1.11-4.002-3.209-4.565-6.682-5.914-36.514-19.977-73.31-45.833-100.446-7.27-7.629-19.644-8.858-22.741-19.439 50.21 1.886 87.654 44.57 101.273 90.01z"/><path fill="#3f7f34" d="M334.84 900.608c-35.371-64.239-28.314-136.081-33.87-205.244-8.328-103.705-63.078-240.717-19.652-340.582 18.347-42.189 50.108-72.277 98.535-73.054l-39.475 36.454c-64.692 88.943-31.471 199.493-16.973 298.488 13.832 94.472 13.696 201.677 45.2 289.553 2.177 6.076 4.634 12.552 6.665 18.594 1.827 5.427 9.89 16.53 1.784 20.779-16.265-8.713-33.357-28.928-42.206-45.005z"/><path fill="#7cb95d" d="M405.965 321.92c25.037-7.296 49.194 10.01 47.223 35.541-1.4 18.15-22.075 55.433-27.144 80.162-6.793 33.135-2.893 75.307-13.67 104.483-12.51 33.877-40.96 36.36-53.82.025-20.335-57.438-18.16-143.283 16.452-194.927 4.727-7.057 23.705-23.176 30.959-25.284"/><path fill="#7fbb60" d="M177.963 387.934c-27.853-40.38 33.749-131.593 78.267-109.167 33.289 16.768-8.644 45.312-19.61 59.46-14.642 18.91-19.925 46.9-45.26 54.733l-13.406-5.026z"/></svg>