<svg xmlns="http://www.w3.org/2000/svg" viewBox="0 0 1024 1024"><path fill="#45970e" d="M861.968 403.447c-.768-.34-11.102-3.328-12.723-1.228-4.096 5.299-12.91 17.62-16.375 23.287l-8.832 14.464c12.714-27.93-27.06-66.39-40.5-67.012l-32.213-1.493c-18.824-40.022-11.17-37.01 9.822-89.02 16.316-40.431-1.937-86.17-42.12-102.58l-4.378-22.826c-1.963-10.231-6.272-21.726-10.658-29.576.264-1.485.512-4.335.614-5.88.145-2.193-4.121-6.332-4.83-6.118-1.4-3.251-4.087-11.537-6.528-14.55-16.7-20.616-45.423-30.745-71.1-27.997l4.515-9.003c41.77-19.388 92.108-15.488 125.56 20.506 18.098 19.473 28.108 44.066 33.92 71.287 63.794-.742 113.842 46.216 119.978 110.233 4.667 48.675-11.563 84.344-38.426 122.676-2.372 3.379-5.163 12.177-5.717 14.83z"/><path fill="#55a41a" d="M224.281 199.603c3.465 30.891 8.645 59.734 25.029 89.609 20.07 36.6-45.995 41.745-8.926 119.594l-19.175 23.365c-12.518 15.249-10.632 45.917-2.457 64.921 17.638 40.994 64.324 71.39 89.676 120.226l3.542 5.837 9.48 43.7c.282 1.28-6.118 8.276-5.034 6.834-11.58-21.384-29.662-45.457-52.549-58.564l-67.14-38.425c-48.571-27.794-68.428-86.307-47.547-138.693 3.831-9.617-.069-23.526-7.109-30.566-41.856-58.36-29.44-135.782 24.824-181.162 17.237-14.413 37.265-23.91 57.386-26.693z"/><path fill="#3e8e0a" d="M861.968 403.447c34.5 45.517 24.175 114.338-25.02 147.73l-53.981 36.641c-22.196 15.062-51.055 52.933-57.523 76.169-2.091 7.51-15.139 18.227-22.844 25.532l-3.61-8.892c-2.159-42.12 1.98-46.063 16.487-88.78 23.842-70.204 63.189-78.951 92.535-126.354 6.28-7.082 11.844-16.4 16.034-25.523l8.832-14.464c3.456-5.666 12.28-17.988 16.376-23.287 1.62-2.1 11.946.879 12.723 1.228z"/><path fill="#5ca415" d="M824.038 439.979c-4.19 9.122-9.754 18.432-16.035 25.523-18.645-29.96-63.197 27.537-77.474 6.306l-.23-5.265c3.03-1.69 9.062-7.535 10.436-11.477l5.581-16c7.279-20.873 14.49-47.429 5.01-67.593l32.212 1.493c13.44.623 53.214 39.083 40.5 67.013"/><path fill="#68ae1f" d="M808.003 465.493c-29.346 47.403-68.701 56.141-92.535 126.353-14.507 42.718-18.645 46.66-16.486 88.78-9.259-22.792-13.73-71.415-8.994-98.243l8.524-48.273c14.789-8.406 7.877-48.18 32.017-62.302 14.277 21.23 58.83-36.267 77.474-6.306z"/><path fill="#a4df4f" d="m626.653 63.915-4.514 9.003c25.677-2.748 54.4 7.381 71.1 27.997 2.44 3.013 5.137 11.299 6.528 14.55.862 2.014 4.292 5.948 4.83 6.118-.103 1.545-.35 4.403-.615 5.88l-21.316 61.713-34.432 93.926c-1.16-1.05-4.01-3.576-5.24-4.958s-5.785 1.604-7.355 2.876l-26.675 21.734c-3.465 2.825-14.976 8.67-17.442 5.137-3.081-4.411-3.79-15.138-2.373-20.13l20.182-41.992c6.067-12.621 10.29-26.573 11.87-41.148l-46.618 67.96-30.012 44.321-20.813 30.908-2.483-24.209-4.215-4.352c-.094-18.611-2.031-39.023-5.24-57.045l-3.857-62.737-2.935-74.112c-.299-7.45-3.806-19.37-6.255-26.112-2.944 6.127-7.22 15.044-7.27 17.715l-2.296 124.604-3.226 51.78-1.322 105.216c-.103 7.808-2.398 18.602-4.267 28.774l-31.411-52.283c-1.818-3.03-4.173-6.622-5.504-8.278-.043-1.16-2.014-9.668-3.473-12.296-23.612-42.53-41.028-90.36-57.25-140.058-2.364 15.326-3.004 36.497 1.536 53.368l25.583 95.06 6.92 4.293c26.394 79.232 65.818 76.152 52.122 193.143l-25.43-57.454c-5.162-36.984-68.343-115.277-104.601-129.52 10.189-1.126-46.993-30.489-47.667-23.398l37.376 38.99c1.118 1.16 10.453 3.583 9.139 3.114 7.108 8.79 17.05 17.945 26.445 27.946 34.278 36.497 26.436 45.312 47.71 72.619 15.59 40.806 25.463 83.678 22.92 129.945l-2.85 51.883-8.79 11.674-6.809-32.777-4.181-4.94c-.93-26.71-26.112-97.707-41.413-114.586-4.795-22.17-83.037-97.783-112.324-90.735l44.595 39.45c14.592 12.91 34.833 43.801 35.465 61.815.939 26.752-12.066 29.534-17.272 47.275l-9.258 31.564-3.542-5.836c-25.352-48.837-72.038-79.232-89.676-120.226-8.175-19.004-10.061-49.673 2.457-64.922l19.175-23.364c-37.069-77.858 28.996-82.995 8.926-119.595-16.384-29.875-21.564-58.718-25.029-89.608 12.297-41.626 21.752-79.761 67.362-105.49 22.819-12.867 46.993-17.177 72.73-12.62l17.544-27.784C408.328 11.879 457.77-2.961 506.01.478c73.83 5.265 104.243 67.183 111.795 65.46l8.84-2.023z"/><path fill="#d8e3b9" d="m698.512 534.101-8.524 48.273c-4.736 26.829-.265 75.452 8.994 98.244l3.61 8.892c7.713-7.304 20.752-18.014 22.843-25.532-.768 10.548-1.69 24.568-.93 36.728l4.59 73.677c12.715 204.16-104.174 178.977-103.133 209.194-7.339-8.2-15.496-10.778-26.581-10.752l4.087-21.12c16.316-16.742 37.274-34.372 47.804-56.516 18.219-38.306 24.422-78.592 23.21-121.301l-3.08-108.928c-.137-4.916 9.173-15.804 9.702-20.037.845-6.698 7.749-74.24-5.708-69.367l-12.817 4.634c2.73-7.706 7.91-19.584 12.953-26.684l20.07-28.262 2.919 8.823z"/><path fill="#f1f6d7" d="m354.96 706.159-3.814 37.666c-5.845 57.702-.418 115.515 30.66 166.997 8.107 13.431 56.636 60.458 66.142 46.396l14.14-6.682 16.512 15.087c11.281.4-71.927 1.34-51.072 7.62-1.425 0-4.907 3.558-4.898 4.94l.12 20.976c-1.4-1.229-5.812-7.364-5.88-10.223l-.384-15.292c-32.35-12.254-57.916-28.578-76.732-58.146-45.303-71.202-15.454-145.928-22.818-235.315 6.622.026 17.442 4.25 21.65 8.696l16.358 17.28z"/><path fill="#e1e1ae" d="M599.38 972.842c11.086-.026 19.243 2.552 26.582 10.752.358 10.36-5.521 29.03-18.475 32.913-11.724 3.516-27.153 7.245-37.76 7.27l-74.794.222c-21.675.06-66.065-3.788-72.175-24.84l-.12-20.975c0-1.383 3.465-4.94 4.899-4.94z"/><path fill="#a9e05d" d="m354.96 706.159-16.358-17.28c-4.207-4.446-15.027-8.67-21.649-8.696l-.537-6.485c-1.084 1.442 5.307-5.547 5.034-6.835l-9.48-43.7 9.258-31.564c5.206-17.741 18.21-20.514 17.272-47.275h5.76l7.987 37.692c3.908 18.449 5.436 42.018 4.804 61.03l-2.099 63.096z"/><path fill="#fdfeec" d="M511.812 262.204c3.208 18.022 5.145 38.434 5.24 57.045l.144 29.5c0 1.621 6.35 8.943 7.399 7.705s5.103-5.913 6.195-7.68l21.726-35.123 9.796 9.114c-7.57 18.295-12.211 30.37-14.524 44.501-9.472 23.706-12.56 53.308-8.192 78.9l7.066 41.437c.708 4.139 4.275 12.638 5.888 15.113l13.679 59.144 6.093-5.914 17.177-42.615 13.073-19.447 12.288-20.037c17.374 26.488-3.157 20.6-4.352 65.28-2.824 105.984 2.535 71.868 10.923 156.16l2.125 21.316c6.826 68.617 15.104 184.926-36.847 237.773l-7.783 7.919c-7.168 3.08-20.949 6.135-31.197 5.777l-69.129-2.45-16.512-15.086c-31.889-38.733-42.863-113.869-38.81-165.572l8.67-110.54 2.85-51.883c2.543-46.268-7.33-89.14-22.92-129.946l-3.063-20.215 15.283-2.646c4.727 8.49 13.32 34.483 19.387 33.101l25.43 57.455c13.696-116.992-25.737-113.911-52.122-193.143 3.149 9.455-11.161-44.843-1.024-37.897l7.765 5.316c5.718 10.693 14.166 25.012 19.934 32.214 1.332 1.664 3.687 5.256 5.504 8.277l31.412 52.284c1.877-10.172 4.172-20.967 4.266-28.775l1.323-105.216 3.225-51.78 9.285-7.808 5.598 13.116c2.773 6.485 5.58 12.143 7.722 15.326z"/><path fill="#92d13c" d="M751.325 371.465c9.48 20.164 2.278 46.72-5.009 67.592l-5.58 16-10.437 11.477.23 5.265c-24.14 14.114-17.228 53.888-32.017 62.302l-2.918-8.823-20.07 28.262c-5.035 7.091-10.223 18.97-12.954 26.684h-4.13l-18.594 9.574c-3.115 1.604-12.758 3.303-16.06 2.466-4.395-1.109-8.243-11.195-8.218-15.88l.171-37.265c.017-4.002 1.033-13.355 2.56-17.767l14.737-42.692c2.526-7.321 7.313-16.964 8.832-22.57 8.14-4.276 36.181-59.085 32.128-74.548l-45.491 58.274c-1.126 1.443-3.37 11.887-2.85 10.599-21.282 19.541-29.5 46.396-36.156 62.916l-17.177 42.615-6.093 5.914-13.68-59.144c1.853-61.108 53.94-120.005 73.729-171.973l5.487-6.084.162-5.222c1.118-.487 4.983-3.354 5.034-5.248l.154-5.223c1.084-.435 4.856-3.473 4.924-5.333.06-1.638.102-3.712.162-5.222l5.675-10.053c.674-1.194.384-3.379.358-5.222l34.432-93.926 21.316-61.713c4.395 7.85 8.704 19.345 10.658 29.576l4.378 22.827c40.192 16.41 58.445 62.148 42.12 102.579-20.992 52.02-28.646 48.998-9.821 89.02z"/><path fill="#fefef5" d="M370.764 533.802c15.3 16.88 40.483 87.877 41.413 114.586l1.484 42.615c.41 11.896-1.698 28.118-3.14 40.431l-5.64 48.24c-8.26 70.57-.905 124.611 43.076 177.535-9.515 14.063-58.035-32.964-66.142-46.396-31.07-51.481-36.505-109.295-30.66-166.997l3.814-37.666 2.1-63.095c.63-19.013-.897-42.582-4.805-61.03l-7.987-37.692-6.4-28.288c-.444-1.963.137-7.646.529-9.686s7.612 1.417 9.634 2.364l22.733 25.08z"/><path fill="#abe65b" d="M648.243 283.102c.025 1.843.315 4.036-.359 5.222-2.509.862-5.077 1.246-5.188 2.876l-.487 7.177c-.06 1.519-.102 3.584-.162 5.222l-4.923 5.333-.154 5.223-5.035 5.248-.162 5.222c-1.664 1.306-4.676 3.96-5.487 6.084-19.797 51.968-71.876 110.865-73.728 171.972-1.612-2.466-5.18-10.973-5.888-15.112l-7.065-41.438c-4.36-25.591-1.28-55.193 8.192-78.899 3.02-7.552 8.943-19.422 14.003-28.8l27.35-50.696c-1.417 4.992-.709 15.718 2.372 20.13 2.474 3.532 13.977-2.313 17.442-5.137l26.675-21.735c1.57-1.28 6.178-4.215 7.356-2.876s4.07 3.917 5.239 4.958z"/><path fill="#e0e6c6" d="m431.957 674.423-8.67 110.54c-4.053 51.704 6.92 126.84 38.81 165.573l-14.14 6.682c-43.98-52.933-51.337-106.966-43.076-177.536l5.64-48.24c1.442-12.313 3.559-28.535 3.14-40.43l-1.484-42.615 4.181 4.94 6.81 32.777 8.789-11.674z"/><path fill="#eefbd1" d="M338.884 373.316c36.258 14.242 99.439 92.536 104.601 129.52-6.067 1.381-14.66-24.611-19.387-33.102l-15.283 2.646 3.063 20.215c-21.274-27.315-13.431-36.121-47.71-72.619-9.395-10-19.336-19.157-26.445-27.946L321.4 371.83c-.444-1.459-1.75-5.725-1.536-5.009l19.012 6.503z"/><path fill="#eefbcd" d="M511.812 262.204c-2.142-3.192-4.95-8.84-7.723-15.326l-5.598-13.116-9.284 7.808 2.295-124.603c.052-2.68 4.327-11.589 7.27-17.716 2.45 6.742 5.966 18.663 6.256 26.112l2.935 74.112 3.857 62.737z"/><path fill="#ecfad4" d="M443.477 366.78c-5.769-7.202-14.225-21.513-19.934-32.214l-7.765-5.316c-10.138-6.946 4.172 47.352 1.024 37.897l-6.92-4.293-25.584-95.06c-4.54-16.88-3.908-38.05-1.536-53.368 16.214 49.706 33.639 97.527 57.25 140.057 1.46 2.628 3.43 11.136 3.473 12.297z"/><path fill="#f1fcd7" d="m589.15 287.761-27.35 50.697c-5.06 9.378-10.982 21.248-14.003 28.8 2.312-14.123 6.954-26.206 14.523-44.502l-9.796-9.113-21.726 35.123c-1.092 1.766-5.145 6.443-6.195 7.68-1.058 1.246-7.39-6.076-7.398-7.706l-.145-29.5 4.215 4.353 2.483 24.209 20.813-30.908 30.012-44.322 46.617-67.96c-1.578 14.567-5.802 28.527-11.87 41.148l-20.18 41.993z"/><path fill="#e5f9c7" d="m370.764 533.802-22.732-25.079c-2.023-.956-9.25-4.412-9.634-2.364s-.973 7.723-.53 9.686l6.4 28.288h-5.76c-.631-18.023-20.872-48.913-35.464-61.816l-44.595-39.45c29.278-7.048 107.52 68.566 112.324 90.735z"/><path fill="#cdf09f" d="m338.884 373.316-19.012-6.502c-.222-.717 1.092 3.55 1.536 5.009l16.324 20.198c1.314.47-8.03-1.945-9.14-3.114l-37.375-38.99c.674-7.09 57.856 22.273 47.667 23.4"/><path fill="#92d13c" d="M704.605 121.575c-.529-.162-3.96-4.105-4.83-6.119.709-.213 4.975 3.926 4.83 6.119"/><path fill="#e8efcf" d="m603.468 951.73-24.542 10.556 7.783-7.919c51.942-52.846 43.673-169.164 36.847-237.772l-2.125-21.316 8.994 11.29 4.523-32.36c4.13-24.413 8.541-49.22 16.17-72.072l7.322-21.913h4.13l12.817-4.634c13.457-4.872 6.554 62.669 5.709 69.368-.53 4.232-9.848 15.12-9.703 20.036l3.081 108.928c1.212 42.709-4.992 82.995-23.21 121.3-10.53 22.145-31.48 39.775-47.804 56.517z"/><path fill="#e0e6c6" d="m603.468 951.73-4.087 21.12-171.844.402c-20.864-6.29 62.344-7.228 51.072-7.62l69.128 2.448c10.24.359 24.03-2.696 31.198-5.777l24.542-10.555z"/><path fill="#a5d25a" d="m658.448 580.215-7.321 21.914c-7.638 22.852-12.05 47.658-16.17 72.072l-4.524 32.359-8.994-11.29c-8.388-84.292-13.747-50.176-10.922-156.16h5.222l-.17 37.265c-.026 4.694 3.822 14.771 8.217 15.88 3.294.837 12.945-.861 16.06-2.465l18.594-9.575z"/><path fill="#f0fbd4" d="M641.877 456.072c-1.52 5.607-6.306 15.25-8.832 22.571l-14.737 42.692c-1.528 4.412-2.543 13.773-2.56 17.767h-5.223c1.195-44.68 21.726-38.784 4.352-65.28l-12.288 20.036-13.073 19.447c6.656-16.512 14.874-43.374 36.156-62.916 2.585-2.372 8.72-7.023 11.179-10.64l18.26-26.83 2.757 13.201c.427 2.048-8.78 3.277-9.327 5.317l-6.656 24.627z"/><path fill="#d9f5b2" d="m641.877 456.072 6.656-24.627c.554-2.04 9.753-3.277 9.327-5.316l-2.757-13.201-18.261 26.829c-2.466 3.618-8.593 8.277-11.179 10.64-.52 1.29 1.724-9.155 2.85-10.598l45.492-58.274c4.053 15.463-23.988 70.272-32.128 74.547"/><path fill="#a4df4f" d="m642.21 298.377.486-7.177c.11-1.63 2.68-2.005 5.188-2.876zm-15.924 32.35c.811-2.134 3.823-4.78 5.487-6.085zm5.65-11.316 5.034-5.248c-.051 1.895-3.917 4.77-5.035 5.248m5.18-10.479 4.923-5.333c-.068 1.86-3.84 4.898-4.924 5.333"/><path fill="#68ae1f" d="m730.299 466.534 10.436-11.477c-1.374 3.95-7.415 9.788-10.436 11.477"/></svg>