<svg xmlns="http://www.w3.org/2000/svg" viewBox="0 0 1024 1024"><path fill="#497805" d="M720.597 209.948c83.812-50.29 134.087-67.043 150.855-50.29 16.754 16.769 0 67.044-50.29 150.856"/><path fill="#191919" d="M891.563 139.548c31.36 31.346 12.373 88.32-46.01 185.6l-48.781-29.269c24.177-40.277 40.092-72.107 47.687-94.933 2.204-6.6 3.612-12.189 4.309-16.64l.313-2.276-.142.014a88 88 0 0 0-15.56 3.556l-3.214 1.052c-22.812 7.595-54.656 23.51-94.933 47.688l-29.27-48.783 10.454-6.215c90.951-53.475 144.924-70.002 175.147-39.794"/><path fill="#497805" d="M776.775 254.336c40.22 40.22 70.4 83.812 90.51 130.73l-92.857 74.312a85.3 85.3 0 0 0-13.71 13.824 1813 1813 0 0 1-57.742 69.603l46.976 41.913 94.336 55.04-43.96 99.982-23.212 106.738-108.672-10.922-108.672 10.908-23.21-106.724-11.264-25.6c-101.362 70.884-203.122 93.256-299.236 114.774l-12.373 2.773a2964 2964 0 0 0-18.475 4.21c1.422-6.13 2.816-12.288 4.21-18.46l2.773-12.402C229.547 682.88 258.29 551.58 386.29 423.566c56.49-56.476 113.692-107.534 171.634-153.173a85.2 85.2 0 0 0 13.824-13.71l74.296-92.857c46.934 20.11 90.51 50.29 130.731 90.51"/><path fill="#6e9c0d" d="M192 810.667C303.73 784.91 435.157 703.43 550.656 587.932c56.49-56.504 107.548-113.706 153.173-171.633a85.2 85.2 0 0 1 13.71-13.824l92.857-74.297C753.692 249.244 696.89 201.486 640 184.888c-26.112 28.303-53.234 61.583-81.351 99.87a85.3 85.3 0 0 1-17.82 17.92C483.27 345.457 430.99 390.357 384 437.332 255.218 581.575 207.204 743.68 192 810.667"/><path fill="#191919" d="M796.885 234.226c-42.709-42.724-89.287-74.951-139.648-96.54a28.444 28.444 0 0 0-33.422 8.376l-74.268 92.857a57 57 0 0 1-9.202 9.117c-58.852 46.364-116.907 98.161-174.165 155.42C265.3 504.348 221.739 597.803 184.704 753.849l-10.268 44.985-6.94 30.663a28.444 28.444 0 0 0 34.118 34.119l18.318-4.167 38.3-8.619 10.113-2.318c103.339-23.95 172.203-47.644 240.242-89.387l2.73-1.706 20.651 95.09.612 2.318a28.444 28.444 0 0 0 30.037 19.94l105.827-10.625 105.828 10.638 2.39.143a28.444 28.444 0 0 0 28.259-22.4l22.585-103.908 42.809-97.394.839-2.105a28.444 28.444 0 0 0-12.53-33.92l-91.89-53.617-24.007-21.433 5.789-6.827a1807 1807 0 0 0 34.545-42.524 57.4 57.4 0 0 1 9.16-9.23l92.828-74.269a28.444 28.444 0 0 0 8.391-33.422c-21.59-50.347-53.831-96.925-96.555-139.634zm-40.22 40.22 6.556 6.685c27.99 29.113 50.347 59.904 67.158 92.387l1.664 3.314-75.378 60.302a114.3 114.3 0 0 0-18.318 18.49 1784 1784 0 0 1-56.804 68.48 28.444 28.444 0 0 0 2.503 39.92l46.962 41.9 1.465 1.223a28.4 28.4 0 0 0 3.129 2.133l72.434 42.24-33.75 76.772-.71 1.763a28.4 28.4 0 0 0-1.053 3.641l-17.807 81.92-83.427-8.363-1.892-.128a28.4 28.4 0 0 0-3.797.128l-83.428 8.363-17.806-81.92a28.4 28.4 0 0 0-1.763-5.404l-11.264-25.615a28.444 28.444 0 0 0-42.34-11.861c-72.576 50.76-140.146 76.018-253.781 102.343l-22.343 5.077 2.873-12.757c35.91-158.094 74.837-245.973 170.666-341.788 55.694-55.709 112.071-106.027 169.102-150.955l4.011-3.3a114 114 0 0 0 14.421-14.961l60.331-75.42 3.314 1.677c34.987 18.105 67.982 42.639 99.072 73.714"/><path fill="#191919" d="M799.332 285.227a14.22 14.22 0 0 1 0 20.11L663.566 441.102a14.222 14.222 0 1 1-20.11-20.11l135.765-135.765a14.22 14.22 0 0 1 20.11 0M563 510.777a14.22 14.22 0 0 0-20.11 0l-7.723 7.637c-67.3 65.85-177.38 155.918-330.07 270.023a14.222 14.222 0 0 0 17.025 22.784l26.666-20.01C394.524 681.415 499.2 594.702 563.001 530.916a14.22 14.22 0 0 0 0-20.125z"/><path fill="#fff" d="M642.944 309.945a14.22 14.22 0 0 1 0 20.11l-14.222 14.222a14.222 14.222 0 0 1-20.11-20.11l14.222-14.222a14.22 14.22 0 0 1 20.11 0m-59.876 50.972 1.11 1.238a14.22 14.22 0 0 1-2.375 19.982 1647 1647 0 0 0-113.351 97.522 14.222 14.222 0 0 1-19.57-20.651 1675 1675 0 0 1 115.328-99.214 14.22 14.22 0 0 1 18.858 1.123"/><path fill="#b0c439" d="m664.178 835.982-66.546 6.685a42.667 42.667 0 0 1-45.938-33.394l-14.222-65.351a42.7 42.7 0 0 0-2.631-8.107l-26.923-61.212a42.667 42.667 0 0 1 17.565-54.03l57.742-33.707a42.7 42.7 0 0 0 6.912-5.006l49.906-44.516a42.667 42.667 0 0 1 56.803 0l49.92 44.516a42.7 42.7 0 0 0 6.884 5.006l57.756 33.706a42.667 42.667 0 0 1 17.565 54.03l-26.923 61.213a42.7 42.7 0 0 0-2.631 8.107l-14.222 65.35a42.667 42.667 0 0 1-45.938 33.395l-66.56-6.685a42.7 42.7 0 0 0-8.52 0"/><path fill="#d4e49c" d="m667.022 782.364-52.835 5.305a14.22 14.22 0 0 1-15.318-11.136l-11.278-51.882a14.2 14.2 0 0 0-.882-2.703l-21.361-48.611a14.22 14.22 0 0 1 5.845-18.005l45.867-26.752a14.2 14.2 0 0 0 2.29-1.679l39.622-35.342a14.22 14.22 0 0 1 18.944 0l39.624 35.342a14.2 14.2 0 0 0 2.29 1.679l45.866 26.752a14.22 14.22 0 0 1 5.845 18.005l-21.361 48.611a14.2 14.2 0 0 0-.882 2.703l-11.278 51.882a14.22 14.22 0 0 1-15.318 11.136l-52.835-5.305a14.2 14.2 0 0 0-2.845 0"/><path fill="#191919" d="m696.846 537.33 49.92 44.515a42.7 42.7 0 0 0 6.884 5.02l57.756 33.707a42.667 42.667 0 0 1 17.565 54.03l-26.923 61.213a42.7 42.7 0 0 0-2.631 8.107l-14.222 65.35a42.667 42.667 0 0 1-45.938 33.395l-66.56-6.685a42.7 42.7 0 0 0-8.52 0l-66.545 6.685a42.667 42.667 0 0 1-45.938-33.394l-14.222-65.351a42.7 42.7 0 0 0-2.631-8.107l-26.923-61.212a42.667 42.667 0 0 1 17.565-54.03l57.742-33.707a42.7 42.7 0 0 0 6.912-5.006l49.906-44.516a42.667 42.667 0 0 1 56.803 0zm-18.93 21.234a14.22 14.22 0 0 0-18.944 0l-49.905 44.515a71 71 0 0 1-11.492 8.349l-57.756 33.706a14.22 14.22 0 0 0-5.86 18.02l26.923 61.212a71 71 0 0 1 4.394 13.511l14.208 65.351a14.22 14.22 0 0 0 15.318 11.136l66.531-6.684a71 71 0 0 1 14.223 0l66.531 6.684a14.22 14.22 0 0 0 15.317-11.136l14.223-65.35a71 71 0 0 1 4.38-13.512l26.923-61.212a14.22 14.22 0 0 0-5.86-18.02l-57.756-33.706a71 71 0 0 1-11.492-8.349l-49.92-44.515z"/><path fill="#fff" d="M668.444 661.333c19.627 0 42.667-23.04 42.667-42.666S682.667 576 668.444 576s-42.666 23.04-42.666 42.667 23.04 42.666 42.666 42.666m33.82 24.562c6.06 18.688 35.087 33.465 53.76 27.406 18.675-6.073 31.788-40.249 27.393-53.76-4.395-13.54-35.086-33.465-53.76-27.406-18.674 6.073-33.465 35.086-27.392 53.76m-12.913 39.765c-15.9 11.535-20.992 43.705-9.443 59.592 11.534 15.886 48.085 17.792 59.59 9.443 11.52-8.363 20.978-43.719 9.444-59.591-11.548-15.9-43.719-20.992-59.59-9.444m-41.813 0c-15.872-11.548-48.043-6.456-59.591 9.43-11.535 15.886-2.063 51.242 9.443 59.59 11.506 8.364 48.057 6.458 59.591-9.428 11.549-15.887 6.457-48.057-9.429-59.592zm-12.914-39.765c6.073-18.674-8.718-47.687-27.392-53.76-18.674-6.059-49.365 13.867-53.76 27.392s8.718 47.701 27.392 53.76c18.674 6.073 47.701-8.704 53.76-27.392"/><path fill="#eadc42" d="M640 625.778a28.444 28.444 0 1 0 56.889 0 28.444 28.444 0 1 0-56.889 0M727.281 647.863a28.444 28.444 0 1 0 17.58 54.105 28.444 28.444 0 1 0-17.58-54.105M733.256 737.698a28.444 28.444 0 1 0-46.024 33.439 28.444 28.444 0 1 0 46.024-33.438M649.657 771.137a28.444 28.444 0 1 0-46.024-33.438 28.444 28.444 0 1 0 46.024 33.438M592.028 701.968a28.444 28.444 0 1 0 17.58-54.105 28.444 28.444 0 1 0-17.58 54.105"/></svg>