<svg xmlns="http://www.w3.org/2000/svg" viewBox="0 0 1024 1024"><path fill="#bc6223" d="M429.278 233.899c6.647.068 13.594.495 20.898 1.066l7.868.615-1.775 1.39c-47.317 20.668-87.782 70.87-90.846 123.401l2.867-1.877c-2.875 4.386-4.053 8.747-.52 12.962 2.927 3.499 10.35 4.65 13.798.427l20.156-24.679c32.648-39.978 74.726-71.048 125.372-84.121 15.624-4.037 31.436-6.204 47.505-4.77l21.17 1.885c5.164.461 9.644-3.968 10.83-8.38h1.553c.205.214 2.491 1.084 3.507 1.29 39.467 8.012 87.731 24.31 123.17 43.664l-1.553.982c-60.28-21.035-134.903-13.406-191.957 12.893-26.599 12.263-50.919 30.294-66.987 55.186-28.723 44.484-20.105 106.82 25.165 136.994l.205 13.883-8.355.12-178.986.341 1.374-3.379c2.841-7.014-1.204-13.005-8.55-15.164l-218.795.034c-27.725 1.63-53.718-15.232-63.958-40.183-10.487-25.566-.571-32.99-14.071-43.4l-4.847-3.738c2.483-9.899 5.384-19.755 10.027-29.636 15.308-32.632 40.806-59.776 70.536-80.171 33.272-22.818 81.272-42.974 119.962-51.217-21.684 12.211-41.43 28.168-54.358 51.191-11.221 19.994-16.734 41.046-13.772 63.855.332 2.543 4.983 7.356 6.562 5.555l3.754-4.266-1.655 5.691c2.96 4.43 12.945-7.859 15.266-10.871l31.343-40.764c16.273-21.162 33.766-40.055 53.29-58.342l-1.22-.939c6.52-6.16 5.71 1.041 15.608-11.853l2.32-2.67 43.069-6.58c1.561-.239 8.08-.205 8.396 3.311-2.141-1.11-4.437-.341-6.476 1.622-29.022 27.852-49.664 68.078-49.332 108.663 0 .7.24 2.705.726 2.765l2.048.239-1.664 7.04c-.709 3.003 4.377 7.859 7.338 8.098 2.825.222 8.107-1.46 9.703-3.84l16.836-25.2c13.841-20.718 29.09-39.466 47.18-56.831 20.532-19.704 43.717-34.432 69.966-45.628 2.491-1.066 5.546-4.045 7.953-6.212 3.61-.222 8.832-.47 12.373-.427z"/><path fill="#6a2802" d="m734.823 296.764 7.901 4.318c18.202 9.94 33.929 21.794 46.268 38.664 3.038 4.156 5.598 9.788 7.91 14.686 12.946 27.477 13.39 57.446-.708 84.668-2.944 5.674-6.8 11.64-11.153 16.034l-10.547 10.658-.324 32.102c-.034 3.03.64 6.665 1.33 9.745l41.814-19.95 11.068-5.317 33.596-15.957 29.013-13.756 26.01-12.28 26.282-12.415c16.06-7.586 30.95-11.315 48.495-4.642 10.53 4.002 16.623 12.62 19.798 21.794l-3.337-3.593-4.292 2.458-8.465 6.007c-1.28.905-5.257 1.707-6.409 1.81-1.382-9.242-15.966-13.057-28.868-6.947L825.37 508.723l-65.613 31.309c-8.704 4.156-14.686 8.772-21.035 16.162L632.977 679.373l-52.471 60.74c-1.587 1.843-2.33 6.161-2.646 8.329l-.853 5.88c-1.647 11.289-1.4 14.028 7.526 21.614 4.31 8.132 10.514 15.147 17.741 22.417l123-.026c.802 0-2.688 1.69-3.712 1.682l-116.165-.18-14.711-.546-14.413-.247-93.576.179-386.1.094c-20.275 0-37.623-12.169-48.494-27.716-7.442-10.642-9.984-22.69-9.984-35.798l.025-221.918c0-7.936-12.8-7.56-27.682-31.402-12.518-20.045-12.382-49.664-6.98-71.16l4.847 3.738c13.508 10.41 3.584 17.834 14.071 43.4 10.24 24.952 36.224 41.814 63.957 40.184l218.795-.034c7.347 2.159 11.392 8.149 8.55 15.163l-1.373 3.38c-1.937 1.416-6.213 3.96-9.165 3.96l-225.656-.018c-5.41 0-10.948-1.51-16.418-2.065l.461 223.24c.043 18.8 19.413 34.97 38.22 34.979l407.408.213c-4.301-8.32-7.228-16.128-7.228-25.6l-.026-196.352-.264-38.818-.205-13.884c-45.27-30.182-53.888-92.51-25.165-136.994 16.069-24.892 40.389-42.923 66.987-55.185 57.054-26.3 131.678-33.929 191.957-12.894l1.553-.981zm-162.074 417.69 148.378-172.57c5.794-6.742 11.485-12.348 18.841-16.487l11.537-6.494.026-56.507c0-15.65 23.176-16.495 30.524-49.929 8.439-38.383-13.807-73.617-48.649-89.6-51.405-23.586-122.607-16.503-174.148 4.497-27.674 11.273-53.829 29.201-68.48 55.731-19.414 35.158-11.239 80.274 24.115 102.307 5.06 3.157 7.944 8.149 7.944 14.336l.043 253.653c0 11.23 8.56 21.214 18.765 23.228 5.794 1.143 12.484.708 18.645.46-11.434-34.099-7.978-38.869 12.459-62.634z"/><path fill="#a64e15" d="M1011.593 445.107c.128.359.025 1.067 0 1.596l1.45 1.527c8.96 25.182 13.167 48.649 9.84 76.732-2.629 22.153-7.723 42.965-17.221 62.814-3.806 7.962-8.03 15.607-13.406 21.598-4.454-2.45 3.738-47.71-14.865-43.69-17.732 3.83 5.956 39.628-31.71 93.243-1.775 2.534-5.564 7.091-5.726 9.685l-.529 8.32-12.578 11.418c-2.628 2.39-12.194 10.172-14.694 10.692l1.374-6.4c2.193-10.24 11.733-46.49-.999-49.177-7.39-1.562-12.245 3.2-13.15 9.497-3.66 25.6-13.21 48.256-27.742 69.47l-12.706 18.56c-1.348 1.963-1.33 7.748-1.314 9.318l-9.779 6.025c-5.606 3.456-11.759 6.733-18.278 9.19l-9.882 3.72c1.792-1.364-14.131-9.53-18.577-14.796-5.914-5.069-12.672-10.018-17.084-16.623l-23.415-35.004c14.95-.11 24.448-5.316 38.997-10.607l3.746-3.328c-3.242-.725-5.956-1.408-8.013-2.304l10.112.845c12.988-6.673 26.317-14.208 38.477-22.784l17.297-12.194c22.597-15.94 64.947-54.699 81.69-76.305l16.17-20.872c2.27-2.936 4.301-9.071 1.46-10.863l-10.377-1.178 8.474-13.67 11.853-19.619c9.804-16.221 21.307-39.944 18.585-58.163 1.152-.102 5.129-.904 6.409-1.809l8.465-6.007 4.292-2.458 3.337 3.593z"/><path fill="#c67230" d="m760.61 702.84 23.416 35.003c4.411 6.596 11.17 11.546 17.083 16.623 4.446 5.265 20.37 13.44 18.578 14.797-7.501 2.824-14.9 6.52-23.006 9.54l-18.8 6.998-23.474 8.362c-7.936 2.825-21.42 4.164-29.1 4.164l-122.999.026c-7.227-7.27-13.44-14.285-17.74-22.417 7.108-.06 15.197-1.067 22.306-4.37l49.587-23.03 91.511-42.727c4.532-2.116 8.329-2.935 12.647-2.97z"/><path fill="#652401" d="M606.592 251.81c-1.186 4.412-5.666 8.84-10.829 8.38l-21.17-1.886c-16.07-1.434-31.89.742-47.506 4.77-50.645 13.073-92.723 44.143-125.372 84.122l-20.155 24.678c-3.448 4.224-10.872 3.072-13.799-.427-3.533-4.215-2.346-8.576.52-12.962 10.94-16.7 22.52-32.785 36.643-48.034 25.301-27.315 55.637-48.58 90.735-60.979l13.372-4.727-1.81-4.412c1.468-6.614 8.491-11.614 16.325-11.076 25.31 1.732 49.203 6.442 73.293 14.02 4.369 1.374 8.123 4.966 9.745 8.516z"/><path fill="#662401" d="M429.278 233.899c-3.533-.034-8.764.204-12.373.426-2.407 2.168-5.462 5.146-7.953 6.213-26.249 11.195-49.434 25.924-69.965 45.627-18.09 17.366-33.34 36.113-47.181 56.832l-16.836 25.2c-1.596 2.389-6.87 4.061-9.703 3.84-2.96-.231-8.047-5.095-7.338-8.099l1.664-7.04 16.478-28.032c7.065-12.023 15.07-23.04 23.577-33.937 14.012-17.954 29.773-31.991 48.026-46.49l-21.137.854c-3.815.153-10.445-3.789-13.901-5.675-.316-3.516-6.835-3.55-8.397-3.31l4.37-2.535c3.25-17.442 67.933-13.833 81.185-12.612 22.92 2.116 20.199 8.004 37.957 7.278l1.536 1.468z"/><path fill="#e79d58" d="m461.013 235.64 1.443 1.843 8.294-.649 36.48 3.516 1.81 4.412-13.373 4.727c-35.097 12.399-65.425 33.664-90.735 60.98-14.122 15.248-25.71 31.334-36.642 48.033l-2.867 1.878c3.064-52.54 43.52-102.742 90.846-123.4l1.775-1.392c.742.06 2.219.077 2.96.069z"/><path fill="#632301" d="m261.163 246.878-2.321 2.67c-9.899 12.895-9.088 5.693-15.608 11.854-52.633 16.46-79.351 44.97-94.967 98.227l-2.057 7.006-3.754 4.266c-1.58 1.8-6.23-3.012-6.563-5.555-2.96-22.81 2.552-43.861 13.773-63.855 12.92-23.023 32.666-38.98 54.358-51.191 8.166-4.6 32.239-8.747 44.535-8.696 6.059.026 7.381 6.076 12.604 5.274"/><path fill="#632201" d="M992.265 609.382c-.359.768-1.954 4.113-2.321 5.462-2.006 12.45-5.59 26.086-13.398 36.292-6.52 8.516-17.57 24.038-27.64 24.951l-9.471.862.529-8.32c.162-2.594 3.95-7.16 5.726-9.685 37.666-53.615 13.977-89.412 31.71-93.244 18.602-4.019 10.402 41.242 14.865 43.69zm-80.103 89.677-3.422 5.99c-3.72 17.357-31.249 33.093-46.216 42.266l-4.898 3.004c-.009-1.579-.026-7.356 1.314-9.318l12.706-18.56c14.524-21.214 24.073-43.87 27.742-69.47.904-6.29 5.76-11.051 13.15-9.498 12.731 2.68 3.191 38.938.998 49.178l-1.374 6.4z"/><path fill="#c6712f" d="m499.695 516.693.265 38.818.025 196.352c0 9.472 2.927 17.28 7.228 25.6l-407.407-.213c-18.799-.008-38.178-16.18-38.22-34.978l-.462-223.24c5.47.546 11 2.065 16.419 2.065l225.655.017c2.953 0 7.228-2.543 9.165-3.96l178.986-.341 8.355-.12z"/><path fill="#e89e5a" d="M312.636 243.61c3.456 1.894 10.086 5.828 13.9 5.674l21.138-.853c-18.262 14.498-34.023 28.544-48.026 46.49-8.508 10.897-16.512 21.913-23.577 33.937l-16.478 28.032-2.048-.24c-.487-.06-.726-2.064-.726-2.764-.332-40.585 20.31-80.82 49.332-108.664 2.039-1.954 4.334-2.73 6.476-1.62z"/><path fill="#e89f5b" d="m243.243 261.402 1.22.938c-19.524 18.287-37.018 37.18-53.29 58.343l-31.344 40.763c-2.32 3.021-12.305 15.31-15.266 10.872l1.656-5.692 2.056-7.006c15.616-53.256 42.334-81.766 94.968-98.227z"/><path fill="#fcd39f" d="M989.09 451.789c2.722 18.218-8.78 41.941-18.585 58.163l-11.853 19.618c-.973.777-3.123 2.859-4.01 4.105l-5.556 7.842c-14.754 20.847-32.393 38.195-51.38 55.654-34.525 31.761-77.815 63.318-119.927 81.118-11.008 4.65-20.224-.939-39.833 8.158l-140.732 65.28c-6.29 2.918-15.317 2.765-19.32-3.294.316-2.159 1.059-6.485 2.646-8.328l52.471-60.74 105.745-123.18c6.35-7.39 12.331-12.014 21.035-16.162l65.613-31.308 134.835-63.872c12.902-6.11 27.486-2.296 28.868 6.946zm-50.696 51.43c6.366-1.229 10.334-3.481 13.295-7.765 4.667-6.75 6.903-15.719 1.152-22.844-2.228-2.765-9.19-3.831-13.005-3.422-1.237 3.269-3.02 7.322-2.884 9.387l.657 9.48zm-48.06-2.253c-5.76-5.222-21.111-.529-27.247 8.448-.887 1.297-.546 5.923.7 6.887 9.165 7.048 33.4-9.114 26.547-15.335m-86.903 42.351c-4.95-7.244-27.674 5.206-32.615 12.075-.921 1.28-.93 6.485-1.092 8.235-1.246 13.15 41.43-9.012 33.707-20.31m97.578 8.047c-5.828-7.859-24.277 9.413-29.38 14.737-1.434 1.502-2.859 5.428-3.03 7.322-.136 1.579 2.672 5.146 4.54 5.197 14.43.443 33.52-19.635 27.87-27.256m-91.025 51.951c7.39-2.304 24.167-9.608 21.376-17.928-2.594-7.723-27.998.307-29.363 13.03-.248 2.287 5.726 5.606 7.987 4.898m-60.177-6.8-2.594-6.042c-10.76-3.346-20.574 9.07-24.687 17.63-1.024 2.124 1.178 7.364 3.132 8.217 9.122 4.028 19.362-10.982 24.15-19.814zm91.469 17.894c-13.38-7.706-38.28 14.967-31.898 22.186 7.97 9.011 39.68-17.706 31.898-22.186m-65.732 27.434c-7.51-7.364-25.814.41-33.52 9.438-1.305 1.528-1.365 6.639-.025 7.706 9.984 7.987 41.037-9.797 33.545-17.144m-63.65 22.417c2.5-2.227 1.885-7.023-.461-8.832-11.563-8.917-29.295-.776-28.16 6.119 1.194 7.227 17.758 12.382 28.62 2.713m-42.625 36.72c4.42-1.946 11.043-6.862 11.46-12.093.103-1.305-2.593-3.831-3.933-4.061-16.222-2.79-49.033 15.274-42.308 23.424 2.159 2.62 6.775 3.293 10.231 3.54l24.542-10.81z"/><path fill="#954511" d="M777.78 678.298c.58.204 2.62 1.066 3.464 1.595l7.765 4.847 3.38 1.664 2.943.197c2.065.896 4.78 1.578 8.013 2.304l-3.746 3.328c-14.55 5.29-24.038 10.496-38.997 10.606-4.318.035-8.124.854-12.647 2.97l-91.511 42.726-49.587 23.032c-7.109 3.302-15.207 4.3-22.306 4.369-8.926-7.586-9.174-10.325-7.527-21.615l.853-5.88c4.003 6.06 13.03 6.213 19.32 3.294l140.732-65.28c19.61-9.096 28.834-3.498 39.833-8.157z"/><path fill="#c36f2d" d="m795.332 686.592-2.944-.196-3.379-1.664-7.765-4.847c-.845-.53-2.884-1.391-3.465-1.596 42.104-17.8 85.402-49.357 119.928-81.118 18.986-17.468 36.625-34.816 51.379-55.654l5.555-7.842c.888-1.246 3.038-3.328 4.01-4.105l-8.473 13.67 10.377 1.178c2.841 1.8.81 7.936-1.46 10.863l-16.17 20.873c-16.742 21.606-59.093 60.364-81.69 76.305l-17.297 12.194c-12.151 8.576-25.489 16.11-38.477 22.784l-10.112-.845z"/><path fill="#fcd39f" d="M572.749 714.453c-20.429 23.766-23.885 28.527-12.459 62.635-6.16.247-12.842.683-18.645-.46-10.206-2.006-18.765-11.999-18.765-23.229l-.043-253.653c0-6.187-2.875-11.179-7.944-14.336-35.354-22.033-43.529-67.149-24.115-102.306 14.651-26.53 40.806-44.459 68.48-55.731 51.541-21 122.743-28.075 174.148-4.497 34.842 15.983 57.088 51.217 48.649 89.6-7.348 33.433-30.516 34.278-30.524 49.928l-.026 56.508-11.537 6.494c-7.364 4.139-13.047 9.745-18.841 16.486l-148.378 172.57zm2.654-353.945c-6.178-7.151-20.6.205-26.215 5.666-1.271 1.229-1.97 5.87-1.194 7.296.776 1.425 3.635 2.935 5.802 3.149 12.988 1.271 26.428-10.53 21.607-16.111m164.65 6.997c-1.774-1.118-6.562-.87-8.098.384-7.97 6.494 5.026 38.46 14.388 35.524 9.907-3.106 8.217-26.76-6.29-35.908m-67.157 2.995c-4.113 2.714-2.807 9.83.53 12.57 6.305 5.171 21.819 15.044 27.997 8.687 8.073-8.303-18.338-27.981-28.527-21.257M554.36 402.492c-9.174-8.167-39.015 15.727-31.036 27.46 1.143 1.681 6.084 3.405 8.124 2.722 16.819-5.623 30.276-23.637 22.912-30.182m49.672 28.877c1.656-1.23 3.209-5.888 2.398-7.51-.674-1.348-3.012-3.439-4.65-4.028-12.57-4.522-30.405 3.875-27.606 11.35 3.03 8.09 19.874 7.577 29.85.188zm97.536-13.74c-1.69-.562-6.187.846-6.903 2.177s-1.152 4.625-.546 6.11c3.396 8.362 14.062 30.421 24.635 24.883 8.406-4.403 1.596-26.94-17.186-33.17m-33.476 58.847c3.43-1.971 7.168-6.92 7.134-9.993l-.094-8.866c-.017-1.792-1.34-4.838-2.79-5.512-8.713-4.045-18.893 10.675-20.318 21.964-.427 3.414 4.036 8.107 6.98 7.62l9.08-5.213zm-87.842-4.796c-.563-1.067-3.61-2.978-4.779-2.688-11.375 2.825-23.091 33.178-12.996 40.738 12.552 9.412 24.653-25.122 17.775-38.059zm119.757 25.173c-1.639-.512-5.624 1.076-6.725 2.51-12.979 17.032-8.917 34.73-1.11 34.09 12.937-1.058 17.801-33.476 7.835-36.6m-69.965 75.41c.153-14.311-32.325-28.826-36.694-17.033-3.985 10.777 24.406 28.885 36.694 17.032m-65.86 42.086c7.534-10.65 3.225-27.094-1.366-37.274-.76-1.68-4.633-4.028-6.417-3.976-1.775.05-5.453 2.867-5.888 4.616-2.227 8.943-5.137 33.391 4.77 38.323 1.715.854 7.817-.153 8.9-1.69m31.274 29.397c-5.052-7.083-22.007 1.553-29.363 10.291-1.903 2.262-2.611 7.689-1.63 9.942s6.067 5.487 8.533 4.966c14.925-3.14 27.18-18.594 22.46-25.199"/><path fill="#dea164" d="M580.25 471.68c6.878 12.937-5.223 47.47-17.775 38.059-10.095-7.57 1.621-37.914 12.996-40.738 1.17-.29 4.216 1.62 4.779 2.688z"/><path fill="#d39459" d="M564.181 614.349c-1.092 1.544-7.185 2.551-8.9 1.69-9.907-4.924-6.989-29.38-4.77-38.324.435-1.75 4.113-4.565 5.888-4.616 1.775-.052 5.658 2.295 6.417 3.976 4.591 10.18 8.9 26.616 1.365 37.274"/><path fill="#d1945a" d="M554.36 402.492c7.364 6.553-6.093 24.559-22.912 30.182-2.04.683-6.98-1.04-8.124-2.722-7.979-11.742 21.862-35.627 31.036-27.46"/><path fill="#dda163" d="M630.042 572.262c-12.28 11.853-40.679-6.255-36.694-17.032 4.36-11.793 36.839 2.713 36.694 17.032"/><path fill="#da9e63" d="M740.053 367.505c14.507 9.148 16.197 32.802 6.29 35.908-9.362 2.936-22.358-29.03-14.388-35.524 1.536-1.254 6.324-1.502 8.098-.384"/><path fill="#d79b60" d="M701.568 417.63c18.773 6.23 25.583 28.766 17.186 33.169-10.573 5.538-21.23-16.52-24.635-24.883-.606-1.485-.171-4.77.546-6.11s5.214-2.74 6.903-2.176M595.456 643.746c4.72 6.613-7.535 22.059-22.46 25.2-2.457.52-7.543-2.715-8.533-4.967s-.273-7.68 1.63-9.942c7.356-8.738 24.311-17.374 29.363-10.29"/><path fill="#d69a60" d="M700.007 496.853c9.966 3.124 5.102 35.542-7.834 36.6-7.808.64-11.87-17.058 1.11-34.09 1.092-1.434 5.085-3.022 6.724-2.51"/><path fill="#d79d62" d="M672.896 370.5c10.189-6.724 36.6 12.954 28.527 21.257-6.178 6.357-21.692-3.516-27.998-8.687-3.336-2.74-4.642-9.856-.529-12.57"/><path fill="#e9b075" d="m668.092 476.476-9.08 5.214c-2.944.486-7.415-4.207-6.98-7.62 1.417-11.29 11.597-26.01 20.318-21.965 1.45.674 2.773 3.72 2.79 5.512l.094 8.866c.034 3.08-3.703 8.022-7.134 9.993z"/><path fill="#c5884e" d="M604.032 431.369c-9.975 7.398-26.82 7.91-29.85-.188-2.798-7.475 15.028-15.872 27.606-11.35 1.638.59 3.976 2.68 4.65 4.028.803 1.622-.75 6.28-2.397 7.51z"/><path fill="#d69c62" d="M575.403 360.508c4.821 5.58-8.61 17.382-21.607 16.11-2.167-.213-5.026-1.723-5.802-3.148-.777-1.425-.077-6.067 1.194-7.296 5.615-5.461 20.037-12.817 26.215-5.666"/><path fill="#e5ab6f" d="m669.27 700.98-24.542 10.81c-3.456-.247-8.073-.92-10.232-3.54-6.716-8.15 26.095-26.215 42.308-23.424 1.332.23 4.037 2.756 3.934 4.061-.418 5.231-7.04 10.147-11.46 12.092z"/><path fill="#e0a76c" d="M803.43 543.317c7.723 11.298-34.96 33.46-33.706 20.31.162-1.75.18-6.964 1.092-8.235 4.94-6.87 27.657-19.32 32.615-12.075"/><path fill="#dfa46a" d="M901.01 551.364c5.648 7.62-13.44 27.708-27.87 27.256-1.87-.06-4.677-3.618-4.54-5.197.162-1.894 1.587-5.828 3.029-7.322 5.103-5.316 23.552-22.587 29.38-14.737"/><path fill="#dea46a" d="M775.544 641.843c7.492 7.347-23.56 25.13-33.545 17.144-1.34-1.067-1.28-6.178.026-7.706 7.705-9.028 26.01-16.802 33.519-9.438"/><path fill="#e5ac72" d="m938.394 503.22-.785-15.165-.657-9.48c-.145-2.065 1.638-6.118 2.884-9.387 3.814-.41 10.769.657 13.005 3.422 5.751 7.125 3.515 16.094-1.152 22.844-2.961 4.284-6.93 6.536-13.295 7.765"/><path fill="#dda265" d="M841.276 614.409c7.774 4.48-23.936 31.197-31.898 22.186-6.383-7.219 18.526-29.892 31.898-22.186"/><path fill="#e3a96f" d="M749.807 596.514c-4.787 8.832-15.027 23.834-24.15 19.815-1.953-.862-4.146-6.093-3.131-8.218 4.113-8.559 13.926-20.975 24.687-17.63l2.594 6.042z"/><path fill="#e4ad74" d="M711.893 664.26c-10.862 9.669-27.426 4.514-28.62-2.713-1.135-6.895 16.597-15.036 28.16-6.119 2.346 1.81 2.96 6.605.46 8.832"/><path fill="#cf955b" d="M809.984 603.315c-2.261.708-8.235-2.611-7.987-4.898 1.365-12.723 26.76-20.744 29.363-13.03 2.8 8.32-13.986 15.624-21.376 17.928"/><path fill="#d89f64" d="M890.334 500.966c6.852 6.221-17.382 22.383-26.547 15.335-1.255-.964-1.587-5.59-.7-6.887 6.136-8.985 21.496-13.679 27.247-8.448"/><path fill="#a64e15" d="m792.397 686.404-3.38-1.664z"/></svg>