<svg xmlns="http://www.w3.org/2000/svg" viewBox="0 0 1024 1024"><path fill="#f4e7bc" d="m260.468 968.628-5.922-82.986c3.891-4.13 42.188 19.396 51.669 22.443 112.715 36.24 246.558 9.01 309.32-97.364 27.238-46.156 21.171-80.136 24.661-129.483 8.508-120.114 11.921-242.19 23.484-361.851 1.416-14.643-.658-29.704.119-44.339 31.65-5.256 57.992-7.202 89.053-20.667 72.029-31.215 17.783-58.504-29.576-71.39-108.517-29.507-340.578-32.955-445.23 5.889-15.795 5.862-40.038 19.507-41.317 38.732l-23.723 5.93c-1.809-29.72-10.01-68.342-11.742-97.935-.878-15.061-2.9-52.292.623-64.35 5.453-18.653 50.62-38.433 68.701-43.97 119.039-36.48 364.804-36.284 483.92 0 13.575 4.138 61.216 23.61 66.635 34.175l2.944 8.917-56.336 892.455c-12.92 14.165-26.249 25.702-44.433 32.665-97.722 37.393-325.79 38.57-421.558.017-15.155-6.101-29.081-16.443-41.3-26.897z"/><path fill="#faf4da" d="M663.808 275.048c-.777 14.635 1.297 29.704-.12 44.339-11.562 119.661-14.984 241.737-23.483 361.85-3.49 49.348 2.577 83.32-24.661 129.484-62.77 106.375-196.606 133.604-309.321 97.364-9.48-3.047-47.777-26.581-51.669-22.443l5.922 82.986c-.887-.76-4.309.094-5.35-3.396-2.073-15.53.725-31.343-.7-46.873-20.889-227.052-27.52-456.869-41.394-684.808l23.722-5.93c.427 3.967 2.782 6.468 5.965 8.6 97.048 65.126 308.1 57.592 421.097 38.819zm-345.954 54.015c-10.317 1.912-26.291 14.481-27.87 25.873-3.746 27.05-1.237 77.866-.12 107.1 2.544 66.44 14.772 134.8 18.313 201.035 1.289 24.106-5.512 88.259 2.56 104.147 15.326 30.148 65.484 22.767 68.599-14.728 3.345-40.294-3.499-94.582-6.29-136.463-4.445-66.781-13.251-134.808-17.928-201.418-1.322-18.799 4.745-54.374-2.551-68.59-8.636-9.114-21.862-19.345-34.713-16.964z"/><path fill="#fbfbec" d="M663.808 275.048c-112.997 18.773-324.05 26.308-421.098-38.818-3.183-2.133-5.538-4.642-5.964-8.601 1.28-19.225 25.522-32.87 41.317-38.732 104.652-38.852 336.713-35.405 445.23-5.888 47.359 12.876 101.605 40.166 29.576 71.389-31.07 13.465-57.412 15.41-89.053 20.667z"/><path fill="#fdfef7" d="M317.854 329.063c12.85-2.38 26.077 7.842 34.713 16.964 7.296 14.217 1.229 49.792 2.551 68.59 4.677 66.61 13.491 134.637 17.929 201.418 2.79 41.881 9.634 96.17 6.289 136.464-3.115 37.495-53.273 44.876-68.599 14.728-8.072-15.88-1.271-80.042-2.56-104.148-3.541-66.235-15.77-134.594-18.312-201.034-1.118-29.235-3.618-80.05.12-107.1 1.578-11.392 17.552-23.962 27.869-25.873z"/></svg>