<svg xmlns="http://www.w3.org/2000/svg" viewBox="0 0 1024 1024"><path fill="#f2f2f2" d="M737.159 184.365v84.347H287.378v-84.347c0-56.196 45.548-101.638 101.743-101.638h246.4c56.09-.001 101.638 45.546 101.638 101.638"/><path fill="#e6e6e6" d="M512.48 82.726H389.12c-56.195 0-101.743 45.547-101.743 101.638v84.347h123.358v-84.347c0-56.09 45.547-101.638 101.743-101.638m298.693 728.653c9.384 68.848-44.07 130.105-113.552 130.105H326.915c-69.48 0-122.936-61.257-113.552-130.105l74.015-542.667h449.78z"/><path fill="#ccc" d="M437.832 941.485H326.915c-69.48 0-122.936-61.257-113.552-130.105l74.015-542.667h134.533L392.18 811.38c-3.796 68.743 17.713 130.105 45.653 130.105"/><path fill="#fff" d="M756.03 837c-8.961 0-16.763-6.642-17.923-15.71L681.489 406.62c-1.371-9.912 5.588-19.084 15.498-20.455 9.912-1.37 19.084 5.589 20.455 15.499l56.617 414.777c1.371 9.911-5.588 19.083-15.498 20.454-.843 0-1.687.106-2.53.106M681.49 231.177c-10.017 0-18.135-8.118-18.135-18.135v-28.678c0-15.393-12.547-27.94-27.94-27.94-10.017 0-18.135-8.118-18.135-18.135s8.118-18.135 18.135-18.135c35.425 0 64.209 28.783 64.209 64.209v28.678c0 10.018-8.117 18.136-18.134 18.136M671.683 333.553a18.135 18.135 0 1 0 36.27 0 18.135 18.135 0 1 0-36.27 0"/><path fill="#333" d="m829.202 808.849-73.91-541.403v-83.082c0-66.107-53.77-119.879-119.878-119.879H389.121c-66.107 0-119.878 53.772-119.878 119.879v83.082l-73.91 541.403c-5.166 37.956 6.326 76.334 31.525 105.223s61.679 45.442 100.057 45.442H697.62c38.378 0 74.753-16.553 100.057-45.442 25.2-28.784 36.691-67.161 31.525-105.223m-523.69-624.484c0-46.075 37.43-83.504 83.504-83.504h246.399c46.075 0 83.504 37.429 83.504 83.504v66.213H305.512zM770.37 890.244a96.47 96.47 0 0 1-72.643 33h-370.81c-27.835 0-54.405-12.019-72.644-33a96.14 96.14 0 0 1-22.879-76.44l71.8-526.957h418.044l71.906 526.958c3.9 27.623-4.534 55.457-22.774 76.439"/><path fill="#333" d="M393.655 328.281c-10.016-.738-18.661 6.853-19.4 16.87l-32.367 464.962c-.739 10.017 6.852 18.662 16.87 19.4h1.265c9.489 0 17.396-7.275 18.03-16.87l32.367-464.962c.738-10.016-6.855-18.767-16.765-19.4m256.626 16.87c-.738-10.017-9.384-17.503-19.4-16.87-10.016.738-17.502 9.384-16.87 19.4l32.369 464.962c.633 9.595 8.646 16.87 18.03 16.87h1.265c10.017-.738 17.502-9.384 16.87-19.4z"/></svg>