<svg xmlns="http://www.w3.org/2000/svg" viewBox="0 0 1024 1024"><path fill="#ed4953" d="M173.513 492.995c22.4 16.332 49.74 26.708 77.882 25.932-3.584 32.332 5.504 60.304 21.94 87.627-10.181 19.652-18.245 41.923-18.236 64.323l-38.579.35-5.922 10.751 48.119 3.798c5.657 41.966 37.563 71.695 76.252 85.05l-6.05 47.939-10.76 5.896c2.722 6.528 13.21 4.617 14.515 5.863.716.69 2.952 14.489 4.83 19.267 10.35 26.394 47.307 60.1 75.927 64.946 33.98 5.743 71.21-5.452 95.922-28.85h3.268c58.239 57.556 156.634 24.149 176.457-51.882 20.079 2.125 39.073 7.578 59.254-.085-1.758-7.953-7.543-6.357-12.962-7.416-14.088-2.756-28.543-4.505-42.572-7.492l-3.669-47.939c40.157-10.76 67.753-44.714 74.128-85.306 4.24-.247 8.533-.299 12.808.06 18.159 1.527 27.792 3.686 42.734-7.535.742-.555 2.603.495 3.712 0 29.9 62.062-2.364 134.576-66.712 155.696 13.636 60.014-30.626 120.207-91.689 128.86-19.652 2.781-35.49-3.346-54.493-6.452-5.248 1.468-11.972 21.077-16.964 27.699-48.775 64.638-151.813 47.444-178.215-27.741-13.013-1.69-25.932 6.621-38.663 7.449-43.135 2.807-91.117-33.313-105.018-73.249-6.127-17.604-10.453-36.41-4.693-54.424-1.263-4.48-29.414-16.836-36.752-22.732-37.453-30.114-49.86-93.26-26.112-135.089-67.779-19.925-92.252-107.79-49.91-162.906 6.11-7.953 15.513-13.312 20.24-22.391z"/><path fill="#d4303a" d="M737.196 318.824c.342.376-.29 4.548 1.852 7.245 4.932 6.22 11.716 10.521 16.17 17.356 24.013 36.83 19.891 90.896-6.067 125.48 5.086 7.774 11.102 28.467 20.028 31.036 6.391 1.843 32.528 1.39 40.268.4 14.412-1.843 24.106-14.881 38.996-7.338-15.863 20.625-53 25.71-77.882 25.924 2.825 31.41-1.485 57.18-18.133 84.051l14.524 67.796c10.222-2.952 20.223 3.337 27.894 3.934 7.228.563 25.984-12.185 23.927 3.567-14.933 11.213-24.575 9.054-42.734 7.535-4.275-.359-8.567-.307-12.808-.06-6.366 40.592-33.962 74.546-74.127 85.306l3.669 47.94c14.028 2.986 28.484 4.744 42.572 7.491 5.418 1.059 11.204-.537 12.962 7.416-20.181 7.662-39.168 2.201-59.255.085-19.822 76.03-118.21 109.438-176.457 51.882h-3.268c-24.712 23.398-61.942 34.593-95.921 28.85-28.62-4.838-65.577-38.553-75.928-64.946-1.869-4.77-4.113-18.576-4.83-19.267-1.306-1.255-11.784.657-14.515-5.863l10.76-5.896 6.05-47.94c-38.697-13.345-70.594-43.075-76.252-85.05l-48.118-3.797 5.922-10.751 38.578-.35c-.008-22.4 8.047-44.671 18.235-64.323-16.426-27.323-25.514-55.295-21.938-87.627-28.143.776-55.491-9.6-77.882-25.932-2.185-1.596-2.927-3.081-3.712-3.704 3.08-8.397 11.434-1.442 16.068.623 21.179 9.455 43.143 21.452 66.678 9.796 10.538-5.222 7.697-10.718 11.852-17.8 2.646-4.514 9.83-6.58 9.472-13.005-24.823-36.402-32.11-87.004-7.125-125.471 2.867-4.412 17.97-21.495 21.734-24.601 5.265-4.344 22.86-14.063 29.618-16.725 39.927-15.701 81.902-8.183 113.543 20.232 9.002.085 14.293-9.19 20.104-12.68 42.333-25.446 96.134-21.692 131.837 12.774 18.193-8.755 38.348-24.08 58.896-25.992 35.173-3.268 55.542 1.74 84.708 19.524 3.49 2.124 9.66 2.483 10.01 2.867zm-133.5 78.59c0-51.198-41.54-92.712-92.782-92.712s-92.78 41.505-92.78 92.713 41.539 92.712 92.78 92.712 92.781-41.505 92.781-92.712M421.827 326.41c-10.376-2.807-17.885-10.675-28.45-14.207-20.155-6.742-47.597-5.026-68.009.87-53.076 15.343-72.66 96.33-42.358 139.056 24.823 34.995 74.52 49.936 114.097 32.682 3.012-1.314 22.39-12.8 23.158-13.909 6.025-8.66-3.6-13.15-6.51-19.728-12.28-27.733-15.761-62.77-4.813-91.647 2.338-6.16 17.373-29.209 12.885-33.125zm178.198-.11c-1.135 12.33 8.815 22.211 12.987 33.236 12.459 32.861 6.92 73.496-12.74 102.475-.87 5.017 12.083 16.366 17.084 19.174 18.61 10.444 52.35 13.712 72.813 7.44 40.03-12.27 70.689-58.759 64.775-100.452-8.823-62.24-57.3-84.213-115.965-76.696-13.653 1.75-25.642 12.305-38.954 14.822m-189.18 170.398c-41.352 19.959-89.129 14.592-124.226-14.805-48.63 68.205 8.38 161.746 92.005 147.504 7.773-1.323 37.4-13.295 39.397-19.933 3.328-11.085-5.64-15.087-9.164-23.68-6.05-14.737-7.433-45.37-5.35-61.234 1.203-9.164 8.61-17.877 7.346-27.852zm203.976 3.712c4.387 26.069 11.068 49.066 3.038 75.296-6.8 22.238-29.047 30.908 3.268 46.233 31.795 15.087 73.761 9.404 101.076-12.381 35.788-28.544 44.014-90.358 16.767-127.682-9.07-.017-14.549 9.344-20.411 12.876-25.181 15.138-54.356 18.944-82.567 12.28-4.54-1.076-19.413-8.448-21.17-6.622m-172.199-14.762c-66.217 75.416 19.789 184.862 111.802 141.539 51.404-24.2 66.226-98.6 27.024-139.97-3.678-2.26-26.81 12.852-33.253 15.164-36.633 13.175-73.974 3.635-105.581-16.742zM740.9 618.987l-37.034 20.428c-18.61 6.622-37.486 11.409-57.437 9.13-12.236-1.399-23.483-8.396-35.318-11.024-1.434 1.433 10.205 31.897 11.024 38.988 1.57 13.61-1.664 26.009-5.376 38.91-2.457 8.517-12.39 22.998-7.67 29.73 71.61 42.58 149.739-17.791 139.175-98.302-1.186-9.062-8.456-17.928-7.364-27.852zM410.846 637.52c-1.869-1.903-28.706 10.18-35.285 11.05-33.68 4.489-60.73-10-88.719-25.813-25.898 32.887-8.209 90.05 21.964 114.874 22.383 18.414 56.976 26.708 84.573 17.672 8.558-2.8 15.615-9.77 24.9-10.342-4.762-15.82-13.432-29.005-14.993-46.156-2.048-22.417 2.38-40.106 7.568-61.294zm28.031-7.356c-61.217 78.548 32.025 180.212 119.174 134.056 47.018-24.9 60.381-91.595 27.153-132.375-4.642-4.633-6.383.324-9.352 1.929-30.31 16.383-52.778 25.3-88.276 17.86-17.877-3.747-32.426-14.14-48.699-21.478zm64.844 233.51 8.857.145c45.422 50.329 129.465 43.229 156.063-22.434 5.29-13.055 8.917-44.193 5.197-57.172-2.62-9.164-16.341-4.676-23.714-5.947-19.413-3.345-38.757-8.73-55.687-18.688-6.793-.068-9.924 7.876-14.771 11.417-48.221 35.26-105.12 27.153-148.878-10.905-23.808 12.51-46.36 16.477-73.368 14.865-19.754 21.179-5.01 74.605 12.595 94.231 17.27 19.26 54.51 30.984 79.734 27.665 14.668-1.929 51.02-17.186 53.989-33.177z"/><path fill="#67a33a" d="M262.514 307.714c-29.081-38.075-56.361-81.5-63.034-129.695 2.073-2.458 36.035 27.843 40.95 31.333 34.44 24.516 77.507 44.057 118.509 53.887-23.51-42.205-42.274-88.122-29.662-137.093l52.07 57.274 114.796 72.413c-.674-16.538.999-33.408-.068-49.945-2.645-41.002-14.737-93.916-30.395-132.682C457.915 53.98 423.893 8.917 461.516.64c14.08-3.098 20.863 5.504 26.683 16.725 7.048 13.585 16.358 38.22 21.077 53.042 16.742 52.53 23.603 111.801 20.317 165.142-.418 6.759.043 13.55-.068 20.284 4.139 4.377 18.295-13.5 22.408-16.512 42.35-31.052 114.472-56.78 136.403-108.38 2.15-5.051-.256-5.939 8.072-4.804v61.14c0 2.74-10.675 33.51-12.92 38.971-5.145 12.493-12.782 24.09-20.445 35.148-.571 2.816 3.576 2.364 5.53 1.818 9.77-2.74 25.352-8.934 35.319-12.885 44.892-17.792 86.312-44.1 122.314-76.022-7.97 50.124-35.694 94.428-66.747 133.407-7.236 2.1-14.813 8.533-22.254 11.119-.35-.384-6.52-.734-10.01-2.867-29.166-17.783-49.534-22.792-84.708-19.524-20.548 1.911-40.712 17.245-58.896 25.992-35.703-34.474-89.504-38.22-131.837-12.774-5.803 3.49-11.093 12.765-20.104 12.68-31.641-28.415-73.616-35.933-113.542-20.232-6.759 2.654-24.354 12.381-29.619 16.725-7.765-3.43-17.886-9.498-25.958-11.119z"/><path fill="#ec4853" d="M759.45 307.714c74.256-21.572 139.21 47.803 129.739 120.377-2.722 20.864-19.174 52.283-37.085 63.052-1.937 12.57 3.37 7.407 9.489 12.74 10.308 8.985 23.304 33.85 26.87 47.342 11.222 42.452-7.944 96.407-46.078 119.148-6.861 4.096-13.798 5.197-19.891 7.92-1.1.494-2.97-.556-3.712 0 2.056-15.753-16.7-3.005-23.927-3.568-7.68-.597-17.672-6.886-27.895-3.934l-14.523-67.795c16.648-26.871 20.957-52.65 18.133-84.052 24.882-.213 62.019-5.3 77.882-25.924-14.89-7.543-24.584 5.496-38.997 7.339-7.74.99-33.876 1.442-40.268-.401-8.925-2.569-14.941-23.262-20.027-31.035 25.966-34.585 30.08-88.651 6.067-125.48-4.454-6.827-11.247-11.136-16.17-17.357-2.142-2.705-1.51-6.87-1.852-7.245 7.44-2.585 15.01-9.01 22.254-11.118z"/><path fill="#ed4953" d="M262.514 307.714c8.072 1.621 18.193 7.689 25.958 11.119-3.763 3.106-18.867 20.19-21.734 24.6-24.977 38.468-17.698 89.079 7.125 125.472.359 6.426-6.818 8.491-9.472 13.005-4.155 7.083-1.314 12.578-11.852 17.8-23.535 11.656-45.499-.341-66.678-9.796-4.634-2.073-12.988-9.02-16.068-.623-58.12-46.779-43.937-148.17 25.906-176.073 19.627-7.842 46.694-9.549 66.798-5.512z"/><path fill="#ec4751" d="M503.72 863.675c-2.969 16-39.32 31.257-53.989 33.177-25.215 3.31-62.462-8.414-79.733-27.665-17.596-19.617-32.341-73.052-12.595-94.231 27.007 1.612 49.569-2.355 73.368-14.865 43.758 38.058 100.657 46.164 148.878 10.905 4.847-3.541 7.987-11.485 14.77-11.417 16.93 9.958 36.284 15.343 55.688 18.688 7.373 1.271 21.094-3.209 23.714 5.947 3.72 12.98.094 44.117-5.197 57.172-26.598 65.663-110.64 72.771-156.063 22.434l-8.857-.145z"/><path fill="#eb4752" d="M418.133 397.415a92.781 92.713 0 1 0 185.562 0 92.781 92.713 0 1 0-185.562 0"/><path fill="#eb4852" d="M421.828 326.41c4.488 3.917-10.547 26.974-12.885 33.126-10.948 28.885-7.467 63.913 4.813 91.646 2.91 6.57 12.543 11.068 6.51 19.729-.767 1.11-20.155 12.595-23.158 13.909-39.577 17.245-89.283 2.312-114.097-32.682-30.302-42.726-10.718-123.714 42.358-139.056 20.412-5.905 47.854-7.612 68.01-.87 10.564 3.532 18.073 11.39 28.45 14.207zm178.198-.11c13.32-2.518 25.3-13.073 38.954-14.823 58.665-7.517 107.142 14.455 115.965 76.696 5.914 41.693-24.746 88.182-64.775 100.453-20.462 6.271-54.202 3.003-72.813-7.441-5-2.808-17.962-14.157-17.084-19.174 19.66-28.979 25.199-69.614 12.74-102.475-4.18-11.016-14.122-20.906-12.987-33.237"/><path fill="#ec4752" d="M442.623 485.648c31.607 20.377 68.948 29.917 105.581 16.742 6.434-2.313 29.567-17.425 33.254-15.164 39.193 41.369 24.379 115.77-27.025 139.97-92.013 43.314-178.018-66.132-111.801-141.54z"/><path fill="#eb4751" d="M438.877 630.165c16.264 7.339 30.822 17.732 48.699 21.478 35.506 7.44 57.966-1.485 88.276-17.86 2.97-1.604 4.71-6.562 9.352-1.928 33.228 40.78 19.865 107.475-27.153 132.374-87.149 46.148-180.39-55.508-119.174-134.055z"/><path fill="#ec4853" d="M614.822 500.41c1.767-1.826 16.632 5.555 21.171 6.622 28.21 6.655 57.386 2.858 82.567-12.28 5.862-3.524 11.34-12.893 20.411-12.876 27.247 37.324 19.02 99.147-16.767 127.682-27.315 21.785-69.281 27.468-101.076 12.381-32.315-15.334-10.069-23.995-3.268-46.233 8.03-26.23 1.349-49.236-3.038-75.296"/><path fill="#eb4852" d="M410.846 496.698c1.271 9.975-6.144 18.688-7.347 27.852-2.082 15.855-.7 46.497 5.35 61.234 3.533 8.593 12.501 12.595 9.165 23.68-1.997 6.638-31.624 18.61-39.398 19.933C295 643.64 237.981 550.098 286.612 481.893c35.097 29.397 82.874 34.764 124.225 14.805z"/><path fill="#ec4751" d="M740.9 618.987c-1.1 9.924 6.17 18.79 7.364 27.852 10.564 80.51-67.566 140.882-139.176 98.302-4.719-6.733 5.214-21.205 7.671-29.73 3.72-12.902 6.946-25.3 5.376-38.91-.819-7.092-12.45-37.555-11.024-38.989 11.835 2.628 23.073 9.626 35.318 11.025 19.96 2.278 38.826-2.509 57.437-9.13l37.034-20.429z"/><path fill="#eb4751" d="M410.846 637.52c-5.18 21.188-9.617 38.886-7.569 61.294 1.562 17.152 10.231 30.336 14.993 46.156-9.284.563-16.341 7.535-24.9 10.342-27.596 9.037-62.198.743-84.572-17.672-30.173-24.823-47.863-81.986-21.964-114.873 27.988 15.812 55.038 30.293 88.719 25.813 6.579-.88 33.424-12.954 35.284-11.05z"/></svg>