<svg xmlns="http://www.w3.org/2000/svg" viewBox="0 0 1024 1024"><path fill="#bd7c37" d="M199.397 573.764c14.763 27.239 33.579 51.857 55.817 75.913 20.232 21.888 68.215 40.917 95.368 43.716l10.087 6.767-6.366 14.123c-33.46 24.499-49.792 58.129-50.125 99.626l-16.87 5.231c-23.945-4.266-8.56 6.23-30.49 15.505l-23.134 9.788-.324-13.082c17.903-25.25 19.046-45.568 24.422-79.889 3.328-21.282-6.067-41.164-18.509-57.173-31.863-41.028-18.628-48.324-68.138-85.026 1.433-3.337 4.343-9.6 6.528-12.937l14.472-22.144 7.254-.426z"/><path fill="#d0944d" d="M173.908 511.94c18.978.41 7.748 29.073 25.498 61.824l-7.254.427-14.472 22.144c-2.176 3.336-5.086 9.6-6.528 12.936-30.703-15.18-71.535-29.15-105.549-12.5l-16.99 8.32-7.979-8.423 11.674-19.047-1.178-10.726c-.571-5.24 21.189.691 51.311-13.363 24.056-11.222 5.265-32.487 46.976-32.922l24.491-8.661zm-6.067 54.605c2.91-1.075 1.57-14.387-1.485-14.012l-11.802 1.46c-4.548.563-6.126 9.326-5.632 19.558l18.919-7.014z"/><path fill="#b48040" d="M48.605 605.073C26.793 634.061 12.517 661.76 22.1 702.498c4.096 17.391 16.051 30.31 27.324 44.058 28.365 34.577 6.528 62.225 77.704 85.657 43.264 14.242 66.85 29.73 106.24-.87l.325 13.082 23.133-9.788c21.931-9.276 6.546-19.772 30.49-15.505-32.887 26.675-78.396 59.35-123.759 43.562l-49.911-17.373c-19.576-6.81-43.495-18.518-53.257-37.812l-25.77-50.935L14.155 727.5c-28.852-40.986-10.386-100.096 26.47-130.859l7.979 8.423z"/><path fill="#82c933" d="M330.085 345.37c-2.5 5.282-10.743 9.156-17.638 11.63-5.692-8.968-13.125-19.942-21.231-28.21l-29.244-29.842c-33.638 27.008-94.72 47.872-119.62 71.68l-23.22 22.195c-16.366-18.389-3.481-104.465 1.699-126.097 5.435-22.664 15.411-41.386 31.599-57.489 6.442-6.408 25.463-10.828 32.955-5.768 10.599 7.16 15.053 20.215 17.502 33.408l6.17 5.999c12.706-12.04 22.588-21.043 35.917-24.252 20.77-4.992 39.432 8.567 39.884 29.773.214 10.265-4.386 23.646-8.635 33.468l37.376 37.836c6.391 6.469 12.706 18.228 16.486 25.677z"/><path fill="#82c933" d="M400.989 306.876c-1.34 9.105-9.498 11.545-17.297 15.744l.187-3.123c-.973-3.909-3.029-10.812-3.985-13.202-4.352-43.758-22.954-118.656-43.776-157.772-64.145 13.568-84.079-12.4-132.002-16.376l-44.45-3.695c27.315-39.373 73.028-71.91 113.263-84.667 9.54-3.021 48.18-5.257 51.976 6.348 1.4 4.284.76 15.753-.512 20.233l-2.124 7.526c-1.4 4.967 26.018-3.345 42.973 11.247 14.67 12.63 11.29 28.152.896 40.175l-11.22 12.98c23.142 42.666 42.265 120.831 46.054 164.599z"/><path fill="#82c932" d="m438.544 272.862-3.823 9.864c-1.502 3.875-7.125 9.822-12.766 13.918l-5.12-10.846c.597-38.408 9.643-73.984 21.06-111.897-12.28-7.757-27.221-23.825-20.88-39.382 6.92-16.998 26.939-21.939 43.613-11.204l7.339-8.252c.742-11.17 6.724-20.838 13.593-23.773 25.617-10.949 51.798 25.65 63.446 47.052 6.314 11.597 25.01 64.504 16.478 63.907-13.927-.973-33.955-8.295-63.471-13.475l-43.12-7.569c-7.748 31.514-13.926 61.73-16.35 91.648z"/><path fill="#e5ae68" d="m383.88 319.488-3.96-2.756c.034-6.443.136-8.721-.034-10.445.964 2.39 3.012 9.293 3.985 13.201z"/><path fill="#e5ae68" d="m884.334 235.52-12.22-1.826-16.947 44.416c-5.479 14.361-18.577 44.749-33.11 45.03l-13.056.256c-11.46.222 2.492 14.413-12.108 21.777-11.392 5.752-27.614 15.019-38.307 19.243l-64.58 25.54c-6.98 2.757-16.623 13.68-21.982 19.38-45.602 48.511-59.4 63.53-117.905 93.823-48.307 25.012-56.55 35.542-114.125 47.378l-2.193 12.134c-9.02-41.549-26.624-81.98-62.42-112.802-37.3-32.12-74.77-48.999-124.792-39.407-7.57 1.45-19.55 9.011-26.565 12.92l-6.434 3.583-2.986-6.28-1.946-4.207c3.26-2.663 8.311-11.017 12.399-13.184 21.214-11.281 43.417-21.521 65.75-31.172 8.55-3.695 16.827-9.55 21.648-15.13 6.895-2.475 15.138-6.34 17.639-11.63 1.297.673 10.231.588 13.09-.948l40.525-21.803c7.8-4.198 15.957-6.639 17.297-15.744l10.94 4.975 3.097-18.585c.418-2.535 1.485-6.7 1.818-7.459l5.12 10.846c5.64-4.096 11.264-10.043 12.765-13.918l3.823-9.864 1.451 10.07c33.835-9.456 11.512-15.506 38.033-32.231 4.745 3.84 13.62 11.861 17.391 10.726l72.627-21.87 20.736-1.699 13.218-11.7 7.988-7.048c28.16-17.903 57.062-34.304 88.473-52.036 15.428-8.712 36.796-17.1 54.963-15.215 60.766 6.315 104.9 32.598 130.919 83.67zm-164.907-19.277 17.331-13.517c2.031-1.587 2.535-10.777-.051-11.059-14.566-1.613-19.806 3.277-30.609 18.364 5.376 4.036 11.546 7.612 13.32 6.22zm-93.158 33.238c-5.078-2.083-14.439.896-19.166 4.94l14.105 5.71c2.731 1.108 7.774-9.541 5.06-10.65m187.357 25.702c2.22.435 3.653-8.098 3.183-10.633-1.826-9.94-16.537-14.378-25.36-12.091-1.87.486-7.595 5.282-6.162 6.075l7.424 4.14c27.81 15.496-2.389 7.944 20.915 12.5zm-125.004 39.091c3.524-6.067-.052-24.525-6.742-28.578-5.768-3.499-20.335-3.354-26.171-1.34-2.415.828-6.63 8.798-4.216 9.523l9.575 2.885 12.672 3.729c1.86.546.52 8.047.554 11.016.034 2.765 2.816 10.445 5.137 9.208 1.545-.82 8.303-4.924 9.182-6.443zm-141.022-.486c2.773-.222 10.692-7.057 8.678-8.807-1.519-1.314-7.074-6.178-9.07-5.973l-39.612 4.045c-2.304.239-7.962 8.636-5.812 9.514 1.425.58 7.484 4.327 9.037 4.199l36.779-2.987zM386.678 396.15l42.36-16.614c-8.124-6.093-13.551-7.339-18.62-5.683l-32.674 10.684c-2.458.802-6.87 7.705-4.745 8.627 2.1.913 11.614 3.789 13.68 2.978zm141.747-17.1-36.155 9.566c-.487 5.87-2.023 9.378.162 9.813 9.856 1.937 32.981-.708 35.985-19.38zm106.232 26.948c5.692 2.534 15.019 3.857 19.038.503 3.498-2.918 3.268-17.143-1.152-17.348l-28.928-1.348c-2.714-.128-11 8.055-8.55 9.216l8.422 3.985 11.178 4.983zm-129.365 77.107c2.96.802 7.773.205 10.444-.631 2.68-.837 1.605-11.845-.879-13.167-19.029-10.12-41.881 5.077-33.527 7.321l7.85 2.1 16.103 4.377z"/><path fill="#d5974e" d="M884.334 235.52c6.323 12.416 15.513 25.318 18.03 40.994 7.774 48.35 6.281 68.907-25.378 108.237l10.65 5.359 6.904 8.516c-8.448 23.68-31.958 44.595-53.291 58.36l-30.515 19.686-35.166 21.043-43.298 25.848c-12.962 7.74-25.856 16.563-37.052 26.35l-31.667 27.7c-88.653 77.55-68.02 22.23-182.213 111.351l-24.38 19.021c-1.749 1.365-5.188 4.787-5.956 5.734l-3.515-.418-3.78-4.147-34.364.341c-5.214.052-12.322.512-18.816 1.118l-21.769 2.048-14.455 1.613 6.366-14.123-10.087-6.766c14.72 1.518 29.346-.188 42.394-7.544-.64.683 11.016 4.932 13.55 3.66l29.825-14.975c19.857-9.967 38.306-21.393 58.35-29.594 41.43-16.947 76.007-38.357 107.597-70.101 37.948-38.127 86.802-60.305 134.648-84.13 51.507-25.651 93.858-60.186 130.014-103.655-6.98 1.605-19.43 4.685-23.834 8.431l-34.543 29.372c-29.056 24.704-62.063 41.062-95.343 58.991l-52.77 28.425c-44.86 24.166-74.496 64.315-116.036 87.748l-65.579 36.992-27.05 14.353-24.645 11.614c.111-1.647.026-6.494-.452-8.525l-1.664-6.98c18.722-30.6 14.404-52.958 12.723-84.805l2.193-12.134c57.575-11.836 65.818-22.366 114.125-47.377 58.505-30.293 72.312-45.312 117.905-93.824 5.36-5.7 15.002-16.623 21.982-19.38l64.58-25.54c10.693-4.232 26.914-13.49 38.306-19.242 14.592-7.364.649-21.555 12.11-21.777l-.666 16.631c-.111 2.74 7.381 9.156 9.548 7.595 1.622-1.17 5.837-5.231 5.675-7.125l-1.502-17.357c14.533-.282 27.631-30.678 33.11-45.03l16.947-44.417 12.22 1.826zM779.758 404.6c-6.511-4.498-16.538-7.416-21.078-6.23l-12.51 3.268c-1.604.419-.085 8.867 1.468 9.48 6.938 2.74 21.53 1.486 32.128-6.51zm-170.539 80.972-14.02 21.043 10.376 6.904 14.02-21.043zM508.995 583.39c11.452-28.97-3.217-27.367-1.783-28.937-1.451 1.579-4.882 5.931-5.624 7.842l-5.658 14.66c-.896 2.322-.674 7.612-.571 10.079.102 2.474 12.714-1.323 13.636-3.644"/><path fill="#daa664" d="M217.59 426.965c-8.098 18.356-21.171 38.033-20.702 60.118 1.093 51.328 18.714 87.279 47.89 126.532 5.077 6.835 11.332 15.36 16.947 21.06 31.607 32.051 105.77 61.466 141.798 35.175 7.168-5.231 17.638-15.983 21.538-22.366l1.664 6.98c.487 2.03.572 6.87.452 8.525l-14.293 8.627c-7.125 4.3-14.336 9.668-19.917 14.242-13.047 7.356-27.673 9.063-42.393 7.544-27.153-2.8-75.136-21.837-95.369-43.717-22.246-24.055-41.062-48.674-55.816-75.912-17.75-32.751-6.52-61.423-25.498-61.824 19.098-6.75-7.689-57.515 38.75-95.463l1.945 4.207 2.987 6.28z"/><path fill="#e1bb8b" d="M609.987 219.102 602 226.15l-13.218 11.7-20.736 1.698c3.788-2.705 10.59-7.117 15.496-9.2z"/><path fill="#fdf0d7" d="M437.793 562.67c1.681 31.847 5.999 54.205-12.723 84.805-3.909 6.383-14.37 17.135-21.538 22.366-36.028 26.283-110.2-3.123-141.799-35.174-5.623-5.7-11.87-14.225-16.947-21.06-29.176-39.254-46.797-75.205-47.89-126.533-.468-22.084 12.605-41.77 20.703-60.117l6.434-3.584c7.014-3.908 18.995-11.469 26.564-12.92 50.023-9.591 87.492 7.288 124.792 39.407 35.797 30.823 53.41 71.254 62.421 112.802z"/><path fill="#b8772f" d="M688.622 314.274c-.88 1.52-7.638 5.624-9.182 6.443-2.33 1.237-5.112-6.451-5.137-9.208-.034-2.978 1.305-10.47-.555-11.016l-12.672-3.73-9.574-2.884c-2.415-.725 1.8-8.686 4.215-9.523 5.837-2.005 20.403-2.159 26.172 1.34 6.69 4.062 10.265 22.51 6.741 28.578z"/><path fill="#bb7b35" d="m547.6 313.788-36.779 2.986c-1.553.128-7.612-3.618-9.037-4.198-2.142-.879 3.508-9.284 5.812-9.515l39.611-4.044c1.997-.205 7.552 4.659 9.071 5.973 2.014 1.74-5.905 8.576-8.678 8.806z"/><path fill="#bd8038" d="m634.657 405.999-11.179-4.984-8.422-3.985c-2.44-1.16 5.845-9.344 8.55-9.216l28.928 1.349c4.429.204 4.66 14.43 1.152 17.348-4.019 3.354-13.346 2.03-19.038-.504z"/><path fill="#b87631" d="M386.678 396.151c-2.065.811-11.58-2.073-13.679-2.978-2.125-.921 2.279-7.825 4.745-8.627l32.674-10.684c5.077-1.655 10.496-.41 18.62 5.684l-42.36 16.614z"/><path fill="#b97a34" d="M719.427 216.243c-1.783 1.391-7.953-2.184-13.32-6.22 10.803-15.088 16.034-19.977 30.609-18.364 2.577.281 2.082 9.48.05 11.059l-17.33 13.517z"/><path fill="#b4762e" d="m505.292 483.106-16.103-4.377-7.85-2.1c-8.355-2.235 14.498-17.442 33.527-7.321 2.483 1.322 3.558 12.33.879 13.167-2.68.836-7.484 1.433-10.445.631z"/><path fill="#b97c37" d="M813.626 275.183c-23.304-4.557 6.904 3.004-20.915-12.501l-7.424-4.14c-1.433-.801 4.293-5.588 6.161-6.075 8.832-2.287 23.535 2.15 25.361 12.092.461 2.526-.972 11.06-3.183 10.632z"/><path fill="#b87c35" d="M528.425 379.05c-3.003 18.68-26.137 21.317-35.985 19.38-2.184-.427-.657-3.934-.162-9.813l36.156-9.566z"/><path fill="#b2722b" d="m822.049 323.149 1.502 17.357c.162 1.894-4.045 5.956-5.675 7.125-2.167 1.562-9.66-4.856-9.549-7.595l.666-16.631z"/><path fill="#bd803b" d="M626.269 249.48c2.722 1.118-2.33 11.76-5.06 10.65l-14.106-5.709c4.727-4.044 14.088-7.031 19.166-4.94"/><path fill="#b17129" d="M392.976 685.85c5.58-4.574 12.791-9.942 19.917-14.243l14.293-8.627 24.644-11.614 27.05-14.353 65.58-36.992c41.54-23.432 71.168-63.582 116.036-87.748l52.77-28.424c33.28-17.929 66.278-34.279 95.343-58.991l34.543-29.372c4.403-3.746 16.853-6.827 23.833-8.431-36.155 43.469-78.506 78.003-130.013 103.654-47.847 23.825-96.7 45.995-134.648 84.13-31.599 31.753-66.167 53.163-107.597 70.102-20.045 8.2-38.494 19.626-58.35 29.593l-29.825 14.976c-2.543 1.272-14.19-2.97-13.55-3.66z"/><path fill="#b06e27" d="M508.995 583.39c-.913 2.312-13.534 6.11-13.636 3.644-.103-2.467-.333-7.757.571-10.078l5.658-14.66c.742-1.92 4.173-6.264 5.624-7.843-1.434 1.57 13.235-.034 1.783 28.937"/><path fill="#a96a25" d="M779.758 404.6c-10.599 7.995-25.19 9.25-32.128 6.51-1.553-.614-3.064-9.053-1.468-9.48l12.51-3.268c4.54-1.187 14.566 1.74 21.077 6.229z"/><path fill="#ad6d28" d="m595.21 506.63 14.012-21.047 10.371 6.903-14.01 21.047z"/><path fill="#e6ae68" d="m988.457 449.783-5.828 10.846-10.521 19.542-16.999 47.641c-5.436 15.232-63.48 91.495-86.306 64.444l-2.261 21.367c-24.303 22.648-95.096 53.385-113.178 71.373-2.142 2.134-1.75 9.302.614 11.187-.904 5.487-4.292 12.212-8.37 17.033l-21.522 25.412c-23.048 27.222-53.427 50.936-86.127 62.396l-6.17-2.79-4.71-7.237c-1.63-2.508-10.846-1.246-10.871 1.528l-.162 18.44-35.9 9.37c-3.49.913-8.721 9.13-7.85 11.136-3.994-15.403-17.016-33.929-26.42-47.48l-14.652-21.12c-20.838-30.028-47.232-39.048-80.213-49.152.768-.947 4.207-4.369 5.956-5.734l24.38-19.02c114.193-89.123 93.568-33.801 182.212-111.352l31.667-27.7c11.188-9.787 24.09-18.61 37.052-26.35l43.298-25.848 35.166-21.043 30.515-19.686c21.334-13.765 44.843-34.688 53.291-58.36l-6.903-8.516c22.971 1.826 45.073 9.25 65.092 23.79l24.644 17.904c4.446 3.225 9.933 13.303 11.085 17.98zm-168.37 68.907 11.391-10.837-14.908-16.256c-1.16-1.263-6.792-1.903-8.55-2.014-1.143-.077-3.294 5.692-2.765 6.502zm94.864 19.815c13.841-7.254 17.144-19.84 14.43-27.213-1.843-5.018-7.646-9.319-16.828-13.688l1.033 19.79 1.357 21.12zm-94.532 57.079c1.69-3.831-7.586-14.729-12.203-13.986-45.465 7.381-34.91 25.241-33.595 24.79l9.344-3.235c24.943-8.644 23.978 20.762 36.463-7.569zm-141.867 11.23c9.182-.341 21.095-9.173 17.605-20.156l-19.593 8.354c-1.672.717-5.188 6.127-6.255 7.493s6.153 4.386 8.235 4.309zm-114.176 63.223c2.219-.606 9.14-2.73 7.945-4.283-13.56-17.639-31.667-7.305-50.33 7.697 2.79 2.747 6.699 6.604 6.477 6.374zm76.237 57.464c1.963-5.026 3.294-16.691 2.765-20.932-.512-4.07-14.635-6.716-17.502-3.78l-10.581 10.828 14.933 6.63.06 10.334c.008 1.502 9.745-1.578 10.325-3.072z"/><path fill="#d5974d" d="M564.982 956.902c-1.314-.12-7.705-1.51-7.27-3.413l2.927-12.826c15.138-33.006 21.734-70.34 11.656-109.184-.87-2.005 4.36-10.231 7.851-11.136l35.9-9.37c1.732 1.597 10.828 3.764 11.784.538l3.96-13.269 6.17 2.79c32.699-11.46 63.078-35.174 86.126-62.395l21.521-25.412c4.08-4.822 7.467-11.546 8.371-17.033 1.554 1.237 5.624 3.866 6.648 5.53l4.872 7.961c1.468 2.407 7.561-5.777 7.288-8.55-.384-3.883-3.02-14.089-6.4-14.507l-13.022-1.621c18.082-17.988 88.866-48.726 113.178-71.373l2.261-21.367c22.827 27.05 80.87-49.212 86.306-64.444l16.999-47.642 10.521-19.541 5.828-10.846c2.142 1.894 9.89 9.754 11.418 14.2l20.31 59.187c9.403 27.409.571 54.195-16.376 75.895-11.98 15.343-25.088 32.051-40.184 43.563l-39.56 30.182 20.6 7.953c-6.119 3.772-14.243 8.226-18.51 8.61l-20.266 1.81c-36.591 18.252-64.376 43.272-95.207 71.082-11.477 10.351-7.748 33.792-19.566 48.41L779.97 796.97c-33.715 20.411-15.053 42.393-29.628 48.588-3.26 1.391-9.514-2.568-15.65-6.28l-49.937 28.57c-30.268 17.314-50.816 34.91-75.75 57.198-13.824 12.357-30.473 21.692-44.015 31.864zm354.236-333.277c8.243-.555 13.542-11.205 9.498-19.738l-21.99 6.792c-2.552.786-4.652 12.22-1.99 12.775 2.655.555 6.563.7 14.482.17M732.705 763.17c-4.42-.674-9.583-1.46-6.161-.921l-12.98 23.543c-1.27 2.313-1.177 8.636-.742 11.307.435 2.739 24.79-7.348 19.891-33.929z"/><path fill="#d8a96a" d="M409.351 709.504v4.198c-36.94.376-78.942 26.727-86.203 70.153-3.747 22.408-3.96 48.845 4.147 70.647 15.957 42.923 58.453 90.292 106.07 99.84l51.634 10.36c28.143 5.649 53.598-5.965 75.64-24.039l-2.927 12.826c-.435 1.903 5.956 3.302 7.27 3.413-21.785 16.376-44.74 29.022-76.57 24.995-32.682-4.13-79.342-12.237-105.94-31.881-42.676-31.514-78.712-84.617-78.294-136.115.333-41.498 16.674-75.128 50.125-99.627l14.455-1.613 21.769-2.048c6.485-.606 13.602-1.066 18.816-1.118z"/><path fill="#fdf0d7" d="m409.351 713.702 38.144-.384 3.516.419c32.981 10.103 59.383 19.131 80.213 49.152l14.652 21.12c9.404 13.55 22.417 32.076 26.42 47.479 10.077 38.835 3.48 76.177-11.657 109.184-22.042 18.074-47.497 29.679-75.64 24.038l-51.635-10.36c-47.616-9.556-90.112-56.916-106.07-99.84-8.106-21.802-7.893-48.238-4.146-70.647 7.261-43.426 49.254-69.777 86.203-70.152z"/><path fill="#b77934" d="M820.419 595.584c-12.484 28.322-11.52-1.084-36.463 7.57l-9.344 3.233c-1.314.452-11.861-17.4 33.596-24.79 4.616-.75 13.892 10.147 12.202 13.987z"/><path fill="#b5762f" d="m564.376 670.037-35.908 9.788c.222.23-3.686-3.635-6.477-6.374 18.671-14.993 36.77-25.336 50.33-7.697 1.186 1.544-5.726 3.677-7.945 4.283"/><path fill="#ba7c38" d="m914.951 538.505-1.357-21.12-1.032-19.79c9.173 4.37 14.984 8.67 16.828 13.688 2.713 7.373-.59 19.96-14.43 27.213z"/><path fill="#b37330" d="M640.613 727.5c-.58 1.486-10.317 4.575-10.325 3.073l-.06-10.334-14.933-6.63 10.581-10.83c2.867-2.935 16.99-.29 17.502 3.781.529 4.25-.794 15.906-2.765 20.932z"/><path fill="#ba7e3a" d="m820.086 518.69-14.83-22.605c-.53-.81 1.612-6.579 2.764-6.502 1.758.12 7.39.75 8.55 2.014l14.908 16.256z"/><path fill="#bc833d" d="M678.552 606.814c-2.082.077-9.31-2.927-8.234-4.31s4.582-6.783 6.255-7.492l19.592-8.354c3.482 10.983-8.422 19.815-17.604 20.156z"/><path fill="#b67935" d="m631.79 798.242-3.96 13.27c-.964 3.225-10.052 1.058-11.784-.538l.162-18.44c.025-2.774 9.241-4.037 10.871-1.528z"/><path fill="#b7782d" d="M753.978 696.192c-2.363-1.886-2.756-9.054-.614-11.187l13.022 1.621c3.38.418 6.016 10.624 6.4 14.507.273 2.773-5.811 10.957-7.288 8.55l-4.872-7.961c-1.024-1.673-5.094-4.293-6.648-5.53"/><path fill="#e6ae68" d="m447.495 713.31-38.144.392v-4.198l34.364-.341z"/><path fill="#b8772d" d="M919.218 623.625c-7.919.537-11.819.384-14.481-.171-2.654-.555-.563-11.99 1.988-12.775l21.99-6.792c4.037 8.533-1.262 19.174-9.497 19.738"/><path fill="#b47328" d="M732.705 763.17c4.898 26.581-19.448 36.668-19.891 33.929-.427-2.671-.53-9.003.742-11.307l12.98-23.543c-3.423-.538 1.74.238 6.16.921z"/><path fill="#fceed1" d="M171.152 609.263c49.51 36.693 36.275 43.998 68.138 85.026 12.434 16.009 21.837 35.9 18.51 57.173-5.368 34.321-6.52 54.64-24.423 79.89-39.39 30.591-62.976 15.112-106.24.87-71.177-23.433-49.34-51.09-77.705-85.658-11.28-13.747-23.236-26.666-27.323-44.057-9.592-40.738 4.684-68.438 26.504-97.425l16.99-8.32c34.014-16.649 74.846-2.68 105.549 12.5"/><path fill="#b97731" d="m167.84 566.545-18.918 7.014c-.494-10.24 1.084-18.995 5.632-19.558l11.802-1.46c3.055-.375 4.395 12.937 1.485 14.013z"/></svg>