<svg xmlns="http://www.w3.org/2000/svg" viewBox="0 0 1024 1024"><path fill="#99dc7d" d="M681.138 103.508c17.366 25.523 35.934 66.107 44.1 95.854 31.07 113.082 8.44 248.41-85.588 325.661-1.16.956-8.909.384-12.168 6.844-.862 1.707-4.975 13.133-5.12 13.892l-1.724-3.439c-7.646 10.47-24.883 13.67-25.932 27.622-.043-.299-2.876-.776-3.5-4.975-3.301-22.246 13.074-63.086 24.781-82.593 4.335-7.219 10.496-13.269 14.874-19.686 3.43-5.034 8.789-11.033 8.78-17.126-5.742 4.992-12.62 12.928-17.356 18.927-21.265 26.939-41.36 56.336-44.876 91.63-3.14 1.382-6.904-8.082-6.904-8.636v-58.734c0-24.303 34.432-99.506 43.306-129.466 5.402-18.244 8.371-37.052 12.007-55.372.06-.3 2.594-.751 2.892-2.39 3.234-17.314 4.66-35.122 4.011-52.889L622.361 297c-12.176 56.856-36.223 102.27-57.078 155.44-5.214 13.304-8.183 28.604-13.756 41.532-2.022 4.693-4.949 13.619-10.444 6.912-4.821-5.88-9.532-25.42-11.264-33.655-18.295-87.124-10.718-189.301-14.472-279.216l-7.057-25.761c-.802 29.328.998 58.904.145 88.25-1.971 67.404-2.569 166.807-18.159 230.619-1.911 7.825-5.743 23.048-13.098 26.632-10.59-48.443-37.427-91.212-54.579-137.214-8.892-23.833-15.889-48.99-21.478-73.548-3.183-13.994-6.827-27.98-7.646-42.461l-6.178-19.729c-2.62 11.836 2.219 22.767 3.388 32.879 1.911 16.58 3.934 25.062 6.971 39.67 4.412 21.163 8.184 42.095 14.66 63.087 17.16 55.628 52.446 110.249 40.67 170.143-.99 5.043.503 10.445-6.92 12.075 1.075-24.277-14.763-46.276-27.665-65.646-2.629-3.951-31.667-44.783-34.56-41.463-.008 6.11 5.35 12.074 8.78 17.126 5.565 8.183 11.726 15.351 17.306 24.303 1.57 2.517 4.83 3.14 5.018 3.481 8.03 13.986 11.144 35.976 13.824 51.822v41.455l-3.704-13.662-6.664-.153-15.565-20.72-1.724 3.44c-.145-.751-4.258-12.143-5.128-13.875-2.244-4.455-9.455-7.458-12.151-10.308-11.512-12.152-22.673-24.405-34.568-36.275-1.553-1.553-9.003-12.066-10.368-5.18-7.578-13.943-16.572-27.366-24.2-41.463l-4.207-21.708c-46.464-103.482-29.5-226.625 31.863-320.346l5.043-3.456c42.24-63.7 121.035-115.07 199.933-95.99 51.344 12.416 104.848 56.9 133.818 99.48zM380.377 442.106c2.244-4.326-5.53-12.066-6.895-10.368-2.244 4.326 5.53 12.066 6.895 10.368"/><path fill="#60b861" d="M670.77 569.942c-.136-.563-6.007-5.128-3.455-10.368.546-1.996-.615-5.188 0-6.912 1.126-3.14 5.487-11.596 7.407-15.06 3.276-5.914 8.712-12.673 13.328-17.767l-6.92-3.43c12.766-22.289 23.663-45.61 35.106-68.59 4.19-8.405 8.388-16.888 12.603-25.404 10.334-20.872 23.646-43.152 32.478-64.28 1.433-3.43 5.879-10.249 1.058-12.775l-26.462 53.034c-29.286 51.072-59.485 102.1-85.895 154.28-3.618 7.152-6.187 16.786-13.824 20.728l3.447-48.375c94.028-77.26 116.65-212.58 85.589-325.661-8.175-29.747-26.735-70.331-44.1-95.854 14.814-9.736 30.114-9.156 46.591-10.42 3.55-.272 6.938-3.37 10.454-3.37 3.515 0 6.903 3.098 10.453 3.37 29.2 2.211 46.557 7.868 69.127 27.631 71.347 62.48 61.636 183.14 27.648 262.713-34.773 81.424-96.144 146.122-174.64 186.51zm42.308-78.625-18.969 19.03 3.49 3.48 18.97-19.028z"/><path fill="#f7fedd" d="m639.659 525.023-3.448 48.375c7.629-3.942 10.197-13.576 13.824-20.727h17.288c-.614 1.724.546 4.915 0 6.912-.554 2.03-7.014 7.816-3.14 15.308l3.14 1.972c-13.44 36.334 25.037 135.763 33.775 178.728 9.582 47.12 17.305 99.693 2.662 146.182-14.276 45.329-52.701 80.477-98.832 91.34l-2.5 3.473c4.207 10.376-2.014 22.946-13.474 25.395-48.99-2.048-103.312 4.736-151.66.725-16.18-1.34-24.38-17.075-15.412-31.223-43.075-5.265-82.934-39.611-98.584-79.427-16.042-40.806-12.493-96.443-4.412-139.254 10.104-53.511 38.51-121.257 40.994-173.42.444-9.25-5.41-17.152-3.686-25.975.076-.41 2.201-1.733 3.456-6.912.443-1.818-.734-4.489.204-6.614l13.628-3.746 10.36 17.272v-44.91c2.704 2.85 9.915 5.853 12.159 10.307.879 1.741 4.983 13.125 5.128 13.875.87 4.523-.878 10.454.069 15.454 2.5 13.286 6.118 26.214 6.843 39.825 1.895 35.336-21.555 90.64-30.395 126.829-15.104 61.832-29.755 127.478 2.074 186.519 14.37 26.658 43.562 48.861 71.679 59.11 3.063-.06 4.488-5.974 5.043-6.23 8.217-3.737 80.86 1.605 98.686.145 5.726-.469 7.476-1.903 11.938-3.6-1.561 10.094 3.883 7.799 10.582 5.392 33.902-12.177 62.198-39.96 75.092-73.522 19.191-49.945 7.842-109.9-3.499-160.834-9.531-42.828-24.883-84.897-37.23-126.906 5.948-21.99 6.263-47.795 10.368-69.102.145-.75 4.258-12.185 5.12-13.892 3.26-6.46 10.999-5.888 12.168-6.844z"/><path fill="#60b861" d="M342.353 103.508c-61.363 93.72-78.327 216.863-31.863 320.345l4.207 21.709c-13.722-25.335-29.158-49.902-41.48-76.014l-24.192-44.91c-1.442 6.357 1.843 9.95 4.01 14.984 4.122 9.574 8.184 19.695 12.502 29.115 1.211 2.637 3.96 3.72 4.224 4.276 21.213 44.603 44.833 88.062 65.663 133.04l-1.707 5.155c-3.285-4.616-8.072-7.125-12.1-10.36-7.125-5.717-13.952-14.241-22.46-17.28l10.283 13.97 8.73 3.32c8.601 12.688 21.913 20.974 29.234 34.695l12.246 30.95c-1.255 5.18-3.38 6.503-3.456 6.912-49.817-29.533-98.508-63.427-132.94-110.718-59.34-81.493-98.379-212.076-46.284-305.08 27.597-49.27 76.953-74.333 132.479-64.383 10.726 1.92 22.8 6.118 32.912 10.291z"/><path fill="#f7fedd" d="M670.77 569.942c.274 1.118-2.679 4.804-3.455 6.912l-3.14-1.971c-3.875-7.492 2.585-13.278 3.14-15.309-2.552 5.24 3.32 9.796 3.456 10.368m-48.4-272.952 3.09 2.022.366 4.89c-3.626 18.32-6.605 37.137-12.006 55.372-8.875 29.969-43.306 105.163-43.306 129.466v58.734c0 .555 3.763 10.018 6.903 8.636 3.507-35.302 23.612-64.7 44.876-91.63 4.736-5.999 11.606-13.935 17.357-18.927 0 6.102-5.342 12.092-8.78 17.127-4.378 6.425-10.54 12.467-14.874 19.686-11.708 19.507-28.083 60.347-24.78 82.593.622 4.198 3.464 4.676 3.498 4.975 2.748 20.47 5.47 34.986 10.368 55.278 24.576 101.741 98.516 293.577-38.024 345.51-4.463 1.698-6.212 3.131-11.938 3.6-17.826 1.46-90.47-3.882-98.687-.144-30.037-14.712-54.587-37.87-67.463-69.051-19.806-47.965-14.584-99.668-4.335-149.553 12.083-58.811 33.484-118.484 47.521-177.09-.546-10.095 1.212-21.376.137-31.206-.461-4.207-3.456-4.693-3.507-4.992-2.68-15.846-5.794-37.836-13.824-51.822l3.456-3.456c12.902 19.37 28.74 41.369 27.664 65.646 7.424-1.639 5.931-7.032 6.92-12.075 11.777-59.894-23.508-114.515-40.668-170.143-6.477-20.992-10.249-41.924-14.66-63.087l.384-8.217 3.08-2.15c5.59 24.558 12.595 49.714 21.478 73.547 17.16 46.003 43.989 88.763 54.579 137.215 7.355-3.584 11.187-18.808 13.098-26.633 15.582-63.811 16.188-163.215 18.159-230.618.853-29.346-.947-58.922-.145-88.25l7.057 25.76c3.754 89.907-3.823 192.092 14.472 279.216 1.732 8.235 6.443 27.776 11.264 33.655 5.495 6.707 8.422-2.218 10.445-6.912 5.572-12.927 8.541-28.228 13.755-41.53 20.847-53.171 44.902-98.585 57.079-155.442z"/><path fill="#e2f0ce" d="M456.433 974.186c-.554.248-1.98 6.161-5.043 6.23-28.117-10.257-57.309-32.452-71.679-59.11-31.82-59.041-17.169-124.687-2.073-186.52 8.84-36.189 32.29-91.492 30.395-126.828l6.92 5.18 3.456-43.187 6.665.153 3.695 13.662v-41.454c.06.298 3.054.785 3.515 4.992 1.075 9.83-.682 21.11-.136 31.205-14.037 58.607-35.439 118.28-47.522 177.09-10.248 49.886-15.47 101.588 4.335 149.554 12.877 31.18 37.435 54.33 67.464 69.05z"/><path fill="#f7fedd" d="M314.697 445.562c7.628 14.097 16.622 27.52 24.2 41.463 12.22 22.476 23.056 46.762 34.568 69.102l-13.628 3.746c-.938 2.125.24 4.796-.205 6.613l-12.245-30.95c-7.321-13.721-20.642-22.007-29.235-34.696h3.456c4.037 3.234 8.824 5.752 12.1 10.36l1.707-5.155c-20.838-44.978-44.45-88.438-65.663-133.041l3.456-3.456c12.322 26.112 27.767 50.67 41.48 76.014z"/><path fill="#e2f0ce" d="M622.37 545.759c-4.113 21.307-4.42 47.112-10.368 69.102-.162.614-5.12 9.455-6.912 10.368-4.898-20.292-7.62-34.807-10.367-55.278 1.05-13.952 18.286-17.152 25.932-27.622l1.724 3.439z"/><path fill="#f7fedd" d="M383.841 528.48v44.91l-10.368-17.272c-11.511-22.34-22.357-46.625-34.568-69.102 1.366-6.877 8.815 3.635 10.368 5.18 11.904 11.878 23.057 24.123 34.568 36.275z"/><path fill="#e2f0ce" d="m418.41 569.942-3.457 43.187-6.92-5.18c-.725-13.61-4.344-26.538-6.844-39.824-.938-5 .81-10.931-.068-15.454l1.724-3.439 15.564 20.719z"/><path fill="#f7fedd" d="m401.121 296.99-3.08 2.15-.385 8.218c-3.046-14.609-5.06-23.09-6.971-39.671-1.17-10.112-6.008-21.043-3.388-32.878l6.178 19.728c.82 14.481 4.455 28.467 7.646 42.462zm17.288 190.035-3.456 3.456c-.196-.342-3.456-.964-5.017-3.482-5.58-8.951-11.742-16.119-17.306-24.302-3.43-5.052-8.789-11.025-8.78-17.127 2.892-3.327 31.931 37.513 34.56 41.463zm207.417-183.123-.367-4.89-3.089-2.022 10.36-48.366c.657 17.775-.777 35.575-4.011 52.889-.307 1.638-2.833 2.09-2.893 2.389m-245.45 138.204c-1.365 1.707-9.147-6.042-6.894-10.368 1.365-1.706 9.147 6.042 6.895 10.368m269.65 110.565c26.402-52.18 56.61-103.21 85.896-154.28l26.461-53.035c4.83 2.526.376 9.344-1.058 12.775-8.832 21.136-22.144 43.408-32.477 64.28a11904 11904 0 0 1-12.604 25.404c-11.443 22.98-22.34 46.301-35.106 68.59l6.92 3.43c-4.616 5.094-10.051 11.853-13.328 17.766-1.92 3.465-6.289 11.921-7.407 15.061h-17.288zm44.092-42.312 18.954-19.034 3.495 3.48-18.955 19.035z"/><path fill="#e2f0ce" d="M612.002 614.861c12.348 42.009 27.7 84.078 37.23 126.906 11.341 50.943 22.69 110.89 3.5 160.834-12.894 33.553-41.19 61.337-75.093 73.522-6.698 2.407-12.134 4.702-10.581-5.393 136.54-51.933 62.6-243.768 38.024-345.51 1.792-.913 6.75-9.753 6.912-10.368z"/><path fill="#f7fedd" d="m273.217 369.548-3.456 3.456c-.265-.555-3.013-1.63-4.224-4.275-4.318-9.42-8.38-19.541-12.501-29.115-2.168-5.035-5.453-8.619-4.011-14.985l24.192 44.91zm48.4 131.292h-3.456l-8.73-3.32-10.282-13.968c8.508 3.038 15.334 11.562 22.46 17.28z"/></svg>