<svg xmlns="http://www.w3.org/2000/svg" viewBox="0 0 1024 1024"><path fill="#5da723" d="M425.956 172.06c28.686-10.41 57.358-15.616 86.044-15.616s57.358 5.206 86.044 15.616a85.36 85.36 0 0 1 56.178 80.171v17.991a82.49 82.49 0 0 1-74.695 82.134 714 714 0 0 1-135.054 0 82.49 82.49 0 0 1-74.695-82.134v-17.99a85.36 85.36 0 0 1 56.178-80.172"/><path fill="#191919" d="M512 128c-32.043 0-64 5.803-95.744 17.323a113.82 113.82 0 0 0-74.923 106.894v18.005a110.933 110.933 0 0 0 100.452 110.45 742.4 742.4 0 0 0 140.43 0 110.933 110.933 0 0 0 100.452-110.45v-17.99a113.81 113.81 0 0 0-74.895-106.895C576 133.803 544.057 128 512 128m0 56.889c25.316 0 50.716 4.608 76.33 13.91a56.92 56.92 0 0 1 37.448 53.446v17.977a54.044 54.044 0 0 1-48.939 53.817 685.5 685.5 0 0 1-129.678 0 54.044 54.044 0 0 1-48.939-53.817v-17.99a56.92 56.92 0 0 1 37.462-53.448c25.6-9.287 51-13.895 76.316-13.895"/><path fill="#982589" d="M128 561.778a384 348.444 0 1 0 768 0 384 348.444 0 1 0-768 0"/><path fill="#ac439e" d="M369.778 824.889c212.082 0 384-156.004 384-348.445 0-63.004-18.418-122.083-50.631-173.07-61.085 1.607-153.23-4.707-276.48-18.93-180.153 37.66-270.223 122.994-270.223 256 0 99.556 42.667 206.223 140.53 278.187 18.631 13.71 47.915 6.258 72.804 6.258"/><path fill="#191919" d="M512 213.333c212.082 0 384 156.004 384 348.445S724.082 910.222 512 910.222 128 754.22 128 561.778s171.918-348.445 384-348.445m0 56.89c-181.831 0-327.111 131.84-327.111 291.555S330.169 853.333 512 853.333s327.111-131.84 327.111-291.555S693.831 270.222 512 270.222"/><path fill="#5da723" d="M341.333 384c62.834 0 113.778 1.778 113.778-59.932 0-61.725-65.166-103.624-128-103.624s-99.555 41.9-99.555 103.624S278.5 384 341.333 384"/><path fill="#191919" d="M327.111 192c-77.724 0-128 53.689-128 132.068 0 37.902 15.929 64.398 46.08 77.482 20.338 8.846 41.202 10.838 82.603 10.894h27.05l10.354-.056c34.702-.399 53.703-2.76 72.292-10.838 30.15-13.084 46.066-39.58 46.066-77.482C483.556 248.192 408.96 192 327.11 192m0 56.889c53.362 0 99.556 34.802 99.556 75.179l-.071 3.512c-.996 23.723-13.227 27.89-71.794 27.976h-26.98C266.524 355.47 256 350.905 256 324.068c0-47.759 25.671-75.18 71.111-75.18"/><path fill="#5da723" d="M682.667 384c-62.834 0-113.778 1.778-113.778-59.932 0-61.725 65.166-103.624 128-103.624s99.555 41.9 99.555 103.624S745.5 384 682.667 384"/><path fill="#191919" d="M696.889 192c77.724 0 128 53.689 128 132.068 0 37.902-15.929 64.398-46.08 77.482-20.338 8.846-41.202 10.838-82.603 10.894h-27.05l-10.354-.056c-34.702-.399-53.703-2.76-72.292-10.838-30.15-13.084-46.066-39.58-46.066-77.482C540.444 248.192 615.04 192 696.89 192m0 56.889c-53.362 0-99.556 34.802-99.556 75.179l.071 3.512c.996 23.723 13.227 27.89 71.794 27.976h26.98c61.298-.086 71.822-4.651 71.822-31.488 0-47.759-25.671-75.18-71.111-75.18"/><path fill="#5da723" d="M469.333 99.556h85.334v184.888h-85.334z"/><path fill="#191919" d="M554.667 71.111h-85.334a28.444 28.444 0 0 0-28.444 28.445v184.888a28.444 28.444 0 0 0 28.444 28.445h85.334a28.444 28.444 0 0 0 28.444-28.445V99.556a28.444 28.444 0 0 0-28.444-28.445M526.222 128v128h-28.444V128z"/><path fill="#5da723" d="M425.956 271.616C454.642 261.206 483.314 256 512 256s57.358 5.205 86.044 15.616a85.36 85.36 0 0 1 56.178 80.17v17.992a82.49 82.49 0 0 1-74.695 82.133 714 714 0 0 1-135.054 0 82.49 82.49 0 0 1-74.695-82.133v-17.991a85.36 85.36 0 0 1 56.178-80.171"/><path fill="#191919" d="M512 227.556c-32.043 0-64 5.802-95.744 17.322a113.82 113.82 0 0 0-74.923 106.894v18.006a110.933 110.933 0 0 0 100.452 110.45 742.4 742.4 0 0 0 140.43 0 110.933 110.933 0 0 0 100.452-110.45v-17.991a113.81 113.81 0 0 0-74.895-106.895C576 233.358 544.057 227.556 512 227.556m0 56.888c25.316 0 50.716 4.608 76.33 13.91a56.92 56.92 0 0 1 37.448 53.447v17.977a54.044 54.044 0 0 1-48.939 53.817 685.5 685.5 0 0 1-129.678 0 54.044 54.044 0 0 1-48.939-53.817v-17.991a56.92 56.92 0 0 1 37.462-53.447c25.6-9.288 51-13.896 76.316-13.896"/><path fill="#fff" d="M276.907 547.556a14.22 14.22 0 0 1 14.222 14.222c0 40.661 13.54 79.502 38.514 112.355A14.222 14.222 0 1 1 307 691.343c-28.686-37.732-44.33-82.575-44.33-129.565a14.22 14.22 0 0 1 14.221-14.222zm3.342-69.86a14.222 14.222 0 0 1 26.07 11.364 183.4 183.4 0 0 0-9.444 27.377 14.222 14.222 0 0 1-27.549-7.11 211.5 211.5 0 0 1 10.923-31.631"/></svg>