<svg xmlns="http://www.w3.org/2000/svg" viewBox="0 0 1024 1024"><path fill="#feab36" d="M610.617 218.957c7.56 2.645 31.606 21.82 40.89 27.263 3.414 30.242 18.168 61.183 20.745 91.706 6.766 80.434-24.2 157.412-75.126 218.518-6.528 7.833-42.069 44.842-47.624 47.785-7.21 3.823-12.8 4.02-20.582 3.166-5.649-30.967-30.626-59.322-54.885-78.061-17.152-13.244-34.15-23.082-56.797-16.46-20.505 5.99-22.869 39.226-9.83 52.461 2.534 2.569 10.82 2.893 15.914 7.697 24.746 23.338 46.19 49.655 63.948 78.77.093 6.545-72.976 62.045-85.4 70.57-40.84 28.022-87.073 49.67-129.33 75.5l-5.537.197c-24.661-22.536-41.736-52.368-78.574-33.561-.119 21.53-6.57 44.04 13.261 57.59-.051 18.09-101.263 18.603-119.533 17.34-14.975-1.041-28.279-10.189-44.005-7.108 41.855-106.98 76.875-164.068 136.3-258.974 17.587 15.855 39.526 26.394 58.051 40.772 9.848 7.637 25.591 30.668 34.739 33.39 26.973 8.013 53.426-12.04 40.114-40.114-15.675-33.083-69.426-75.962-105.64-81.748 59.45-90.545 122.365-186.817 203.072-260.705 2.1-1.92.708-8.56 2.773-10.163 19.678-15.25 73.292-39.355 97.543-42.521 22.656-2.953 84.598-.623 105.521 6.698zM535.32 423.079c5.342-35.558-1.869-59.707-26.982-84.803-9.489-9.48-49.032-37.913-60.952-41.275-13.875-3.917-26.743-4.198-40.874-2.739l-6.358 43.178c18.884 17.69 91.63 93.242 111.666 92.977 7.867-.102 14.881-8.004 23.508-7.338z"/><path fill="#f88417" d="M678.771 259.848c19.541 14.173 68.547 62.24 81.782 81.782 6.093 8.994 23.705 38.834 27.263 47.709 16.29 40.686 19.08 103.37 5.368 145.072-24.15 73.437-156.686 184.64-223.45 222.946-17.134 9.83-13.721 8.585-27.263 20.446-90.213 79.008-242.342 171.482-354.28 214.788-40.84 15.795-108.013 41.198-150.38 27.485-59.366-19.208-26.786-125.42-11.862-169.34 3.49-10.266 11.367-16.282 12.194-18.406 15.727-3.08 29.03 6.075 44.006 7.108 18.27 1.263 119.481.75 119.532-17.34-19.83-13.542-13.38-36.052-13.26-57.59 36.838-18.807 53.904 11.033 78.573 33.56l5.538-.195c42.257-25.83 88.49-47.487 129.33-75.502 12.432-8.524 85.493-64.024 85.4-70.57-17.75-29.123-39.202-55.43-63.948-78.769-5.095-4.804-13.38-5.12-15.915-7.697-13.039-13.226-10.675-46.463 9.83-52.462 22.647-6.613 39.645 3.217 56.797 16.46 24.268 18.731 49.237 47.095 54.885 78.062 7.783.845 13.38.657 20.583-3.166 5.555-2.943 41.095-39.96 47.623-47.785 50.926-61.098 81.901-138.076 75.126-218.518-2.568-30.523-17.33-61.464-20.744-91.706 8.286 4.864 20.044 8.397 27.263 13.628z"/><path fill="#68a848" d="M774.18 62.202c.896 2.97 12.459 11.76 6.835 23.39-.554 6.536 13.244 4.95 16.964 3.823 3.712-1.118 35.925-47.428 51.319-57.727 91.39-61.132 192.022 58.785 98.797 146.497-10.573 9.941-33.203 13.722-30.788 33.937 12.194.478 24.687-1.366 36.864.75 5.75.999 3.66 5.982 4.019 6.076l-33.68 3.388c7.099 45.73-22.264 53.998-59.759 63.333-39.892 9.933-52.325 10.846-90.554 32.392-13.303 7.492-16.801-.401-13.644 23.569-13.235-19.541-62.241-67.609-81.782-81.782 16.05-23.356 34.841-58.615 39.594-86.492 8.277-48.597-7.919-56.413 42.128-87.636 11.947-7.45 17.365 1.46 13.696-23.509z"/><path fill="#45873d" d="M958.19 218.957c3.942.99 10.111-1.203 15.641 1.118 44.577 18.696 63.265 77.916 28.825 114.907-26.393 28.348-75.05 24.559-78.113 27.511-1.578 1.528-4.078 19.37-10.598 26.905-27.366 31.599-87.627-11.63-126.129-.068-3.55-8.874-21.17-38.715-27.263-47.709-3.157-23.97.341-16.076 13.644-23.568 38.23-21.538 50.653-22.46 90.554-32.392 37.504-9.336 66.858-17.604 59.758-63.334l33.68-3.387z"/><path fill="#44853a" d="M774.18 62.202c3.67 24.977-1.749 16.06-13.695 23.51-50.039 31.222-33.851 39.039-42.129 87.635-4.744 27.878-23.534 63.128-39.594 86.492-7.219-5.24-18.969-8.772-27.263-13.627-9.284-5.444-33.33-24.61-40.89-27.264 4.513-34.303-22.298-71.798-12.784-104.796 3.994-13.866 25.293-16.98 30.14-24.37 5.657-8.619 7.133-37.41 15.24-52.915 29.132-55.687 107.22-44.944 129.721 9.805 2.278 5.547.162 11.938 1.246 15.522z"/><path fill="#f48118" d="M174.452 573.34c8.687-13.867 15.82-30.285 27.264-47.71 36.223 5.786 89.965 48.665 105.64 81.748 13.303 28.074-13.14 48.136-40.114 40.115-9.14-2.714-24.891-25.753-34.739-33.39-18.525-14.38-40.464-24.918-58.05-40.772z"/><path fill="#e69a54" d="M569.726 757.349c-4.617 11.374-14.43 21.145-27.264 20.445 13.542-11.861 10.129-10.615 27.264-20.445"/><path fill="#f57f16" d="M535.32 423.079c-8.627-.666-15.641 7.236-23.509 7.338-20.036.265-92.773-75.288-111.665-92.977l6.357-43.178c14.131-1.46 26.99-1.178 40.874 2.74 11.92 3.361 51.455 31.794 60.952 41.274 25.122 25.096 32.324 49.245 26.982 84.803z"/></svg>