<svg xmlns="http://www.w3.org/2000/svg" viewBox="0 0 1024 1024"><path fill="#9a8566" d="M857.6 419.2S835.2 529.6 731.2 552c0 0 35.2-43.2 36.8-68.8 3.2-25.6 1.6-41.6 17.6-41.6 17.6-1.6 65.6-19.2 72-22.4"/><path fill="#7b6647" d="M841.6 435.2s-11.2 70.4-100.8 102.4c0 1.6 76.8-24 100.8-102.4"/><path fill="#7b6647" d="M760 512s44.8-8 60.8-56c-1.6 0-6.4 35.2-60.8 56"/><path fill="#7b6647" d="M777.6 486.4s41.6-14.4 38.4-36.8c0 0-1.6 25.6-38.4 36.8m3.2-27.2s16 0 25.6-14.4c-12.8 8-12.8 8-25.6 14.4"/><path fill="#16243d" d="M441.6 296s33.6-75.2 46.4-81.6 59.2-72 46.4-97.6c0 0 81.6-19.2 150.4 17.6l-240 168"/><path fill="#bacad9" d="m195.2 664 6.4-19.2s30.4 8 97.6-108.8c124.8-196.8 112-296 369.6-400 104-40 291.2 0 326.4-11.2 0 0-14.4 48-36.8 68.8 0 0 60.8-24 64-17.6s6.4 102.4-168 252.8C684.8 544 531.2 552 505.6 564.8c-25.6 14.4-235.2 84.8-270.4 112z"/><path fill="#16243d" d="M246.4 620.8s88-96 97.6-124.8 113.6-216 225.6-283.2 216-89.6 334.4-88l84.8 3.2s-64 33.6-123.2 32-201.6 41.6-278.4 99.2-204.8 305.6-281.6 347.2c-78.4 41.6-59.2 14.4-59.2 14.4m84.8 4.8s102.4-86.4 131.2-94.4S616 433.6 667.2 422.4s88-6.4 142.4-43.2 24-46.4 43.2-56 25.6 3.2 41.6-14.4 8-44.8 36.8-52.8 59.2 1.6 11.2 51.2S889.6 408 716.8 484.8 456 534.4 331.2 625.6"/><path fill="#9a8566" d="M755.2 276.8s-105.6-41.6-182.4 32c0 0 56-4.8 78.4 8s36.8 20.8 46.4 8 51.2-44.8 57.6-48"/><path fill="#7b6647" d="M732.8 281.6s-65.6-30.4-142.4 27.2c-1.6 0 62.4-51.2 142.4-27.2"/><path fill="#7b6647" d="M622.4 307.2s32-33.6 81.6-19.2c0 0-33.6-14.4-81.6 19.2"/><path fill="#7b6647" d="M654.4 305.6s35.2-27.2 51.2-11.2c1.6 0-22.4-11.2-51.2 11.2m24 12.8S688 305.6 704 304c-12.8 8-12.8 8-25.6 14.4"/><path fill="#16243d" d="M902.233 187.41a17.6 11.2 60.898 1 0 19.573-10.894 17.6 11.2 60.898 1 0-19.573 10.894"/><path fill="#9a8566" d="M910.621 182.741a3.2 1.6 60.898 1 0 2.796-1.556 3.2 1.6 60.898 1 0-2.796 1.556"/><path fill="#bacad9" d="M220.8 635.2S99.2 520 0 564.8c0 0 99.2 44.8 129.6 86.4s24 28.8 40 27.2c0 0-16 0-3.2 25.6s73.6 180.8 46.4 204.8c-28.8 22.4 112-68.8 8-273.6"/><path fill="#16243d" d="M36.8 569.6s97.6-3.2 166.4 75.2c-1.6 0-72-68.8-166.4-75.2m62.4 40s84.8 19.2 99.2 44.8zm51.2 46.4s22.4-3.2 46.4 8zm43.2 17.6s-1.6 41.6-8 44.8c-1.6 1.6 11.2-22.4 8-44.8m16 0s16 73.6 3.2 96zm9.6 3.2s38.4 102.4 16 179.2c0 0-1.6-137.6-16-179.2"/></svg>