<svg xmlns="http://www.w3.org/2000/svg" viewBox="0 0 1024 1024"><path fill="#e0332f" d="M667.729 134.718c2.543 2.33 5.76 4.173 8.294 6.468 62.771 56.653 86.647 125.252 96.76 207.837 14.992 122.393-4.89 263.32-57.592 375.652-41.932 89.369-121.608 189.43-218.998 220.184-38.297 12.091-71.475 12.527-111.189 5.64-11.477-1.988-21.939-7.466-33.672-8.234l.52 5.913 1.383 1.033c3.635.025 9.933 2.918 11.759 6.041.717 1.23-.777 2.321 1.69 5.888-2.543-.503-5.667-3.072-7.698-4.702-4.019-3.217-7.74-6.852-11.195-10.649-2.006-2.202-4.105-4.693-5.905-7.083l5.307 1.186.598-2.355c-4.992-.81-7.637-6.886-10.607-10.06-16.666-17.818-33.553-35.61-48.973-54.93C177.51 733.832 117.47 523.154 142.335 347.795c7.714-54.4 27.955-117.708 64.93-159.385 4.88-5.495 10.811-10.666 16.213-15.684l1.519-4.95c18.457-11.596 38.929-21.972 60.21-27.152 1.076-.265 2.74.273 4.063-.026 74.956-16.878 149.084-1.69 211.958 41.967 3.729 2.594 5.708 6.852 11.272 6.528 3.925-.23 9.438-5.768 13.133-8.14 48.307-31.045 84.215-43.273 142.079-46.225z"/><path fill="#c9191d" d="M744.469 141.8c13.286 3.627 28.416 10.19 40.55 16.709 83.105 44.671 117.042 126.65 123.579 217.615 15.693 218.452-71.364 432.424-236.765 575.553-36.385 31.488-80.733 64.554-129.867 70.843-23.313 2.987-59.332 1.314-82.372-3.772-27.887-6.152-65.186-32.682-86.408-51.72-2.56-2.295-4.096-2.38-6.52-5.88s-.972-4.667-1.69-5.887c-1.825-3.123-8.123-6.025-11.758-6.042l-1.382-1.032-.521-5.914c11.733.768 22.187 6.247 33.672 8.235 39.714 6.886 72.892 6.46 111.189-5.64 97.399-30.763 177.065-130.816 218.998-220.185 52.71-112.332 72.584-253.259 57.591-375.652-10.112-82.585-33.988-151.184-96.759-207.836-2.534-2.287-5.743-4.139-8.294-6.468 25.147-1.28 51.814.281 76.74 7.082z"/><path fill="#f25951" d="m224.997 167.776-1.519 4.95c-5.393 5.017-11.332 10.188-16.213 15.683-36.975 41.677-57.216 104.985-64.93 159.385C117.47 523.153 177.51 733.83 288.211 872.548c15.412 19.31 32.299 37.103 48.973 54.929 2.97 3.174 5.615 9.25 10.607 10.06l-.598 2.355-5.307-1.186c1.8 2.381 3.9 4.873 5.905 7.083-2.364.273-3.311-1.655-4.72-2.953-155.322-143.23-242.498-347.312-227.897-559.62 6.033-87.782 32.861-167.073 109.823-215.44"/><path fill="#91b74f" d="M435.146 54.437c.128-.128 2.133.18 3.524-.58 1.971-1.076 5.854-5.428 8.312-7.066 18.645-12.407 37.401-21.043 54.894-36.01 2.372-2.031 8.295-9.54 10.599-9.54l1.809.622c8.832 8.107 17.945 16.154 27.852 22.912 4.275 2.919 8.423 4.89 13.406 7.842 11.921 7.074 24.567 13.61 35.498 22.409.845.682 2.21.486 2.313.588.23.24 1.869 4.335 3.004 5.854 10.709 14.336 12.885 27.623 8.516 45.218-2.065 8.32-6.161 16.486-9.156 24.49-7.817 4.899-17.63 7.348-26.317 10.872-7.688 3.115-18.09 9.71-26.172 10.428-7.628.682-15.539-.23-23.048-1.255-1.442-5.674-.785-11.332-1.229-17.066-1.433-18.355-3.669-37.035-4.753-55.458-.247-4.241.444-8.892.094-13.082-.162-1.894-.102-3.532-2.398-4.087-.247 3.695.316 7.603.051 11.264-1.664 22.8-3.558 45.781-5.93 68.445-.273 2.603.87 8.184-1.152 9.472-2.313 1.468-10.573 1.4-13.61 1.741-12.988 1.434-9.746.572-20.651-4.181-11.81-5.146-23.757-9.54-35.447-14.729-.965-2.662-4.754-4.25-5.71-6.69-2.491-6.383-5.904-17.024-7.03-23.662-.965-5.641-.777-10.966-.265-16.299.75-7.842.981-13.55 5.359-20.608 1.57-2.526 5.956-6.28 7.065-8.311.76-1.391.453-3.397.58-3.525z"/><path fill="#577931" d="m305.278 76.862.785 1.033c.862.444 2.057-.034 2.756.145.376.102.828-.111 1.178 0 .06.017-.085.998.75.981l14.072 4.847c1.818 11.042 5.334 23.177 10.607 33.075.742 1.4 2.338 3.73 3.635 4.625 3.67 2.526 4.779.222 8.073.094 15.974-.623 30.515 2.005 46.122 3.576 2.142.213 4.335-.069 6.468.025.487-2.022-.776-2.347-1.766-3.541-3.601-4.335-8.721-8.09-12.416-12.373-7.714-8.926-13.696-18.927-19.516-28.894-2.176-3.72-8.012-10.633-7.62-14.814l2.355-.597c1.238 3.865 4.497 7.987 7.066 11.247 18.474 23.44 36.292 35.242 60.185 51.976 3.072 2.15 2.97 3.413 7.134 5.265 11.69 5.188 23.637 9.583 35.447 14.728 10.906 4.753 7.663 5.615 20.65 4.182 3.039-.333 11.299-.265 13.611-1.741 2.023-1.289.88-6.87 1.152-9.472 2.373-22.665 4.267-45.653 5.93-68.446.265-3.669-.298-7.577-.05-11.263 2.295.554 2.235 2.201 2.398 4.087.35 4.19-.342 8.84-.094 13.081 1.083 18.432 3.31 37.103 4.753 55.458.452 5.735-.205 11.392 1.229 17.067 7.5 1.024 15.41 1.937 23.048 1.254 8.08-.725 18.483-7.313 26.171-10.427 8.687-3.525 18.5-5.965 26.317-10.872 27.853-17.467 52.19-38.007 72.055-64.332.7-.93 1.314-1.715 1.144-2.97l2.355.598-.103 2.252c-2.927 4.557-5.82 9.156-8.695 13.739-4.471 7.108-9.293 15.215-14.788 21.81-6.75 8.099-16.06 14.49-22.451 22.998 2.526-.11 5.12.213 7.654-.017 3.797-.35 9.13-2.116 12.962-2.39 13.363-.946 27.742.93 41.224-.093 2.424-.7 9.413-15.445 10.795-18.722 1.357-3.209 2.833-7.015 3.823-10.342.555-1.878 1.212-8.218 1.544-8.491.376-.307 1.792.12 2.577-.299.675-.358.82-.93.888-.964 14.319-7.296 32.222-10.163 47.249-17.1 9.967-4.6 18.09-11.307 27.127-17.144.12 25.66-6.554 54.417-21.888 75.51-4.403 6.06-9.967 10.813-14.703 16.581-24.925-6.81-51.592-8.363-76.74-7.083-57.864 2.953-93.772 15.181-142.079 46.225-3.694 2.372-9.207 7.91-13.132 8.141-5.564.324-7.544-3.934-11.273-6.528-62.881-43.656-137.002-58.845-211.958-41.967-1.322.299-2.986-.239-4.062.026-24.84-23.432-35.592-57.301-35.413-90.905 2.04-.504 2.347.81 3.542 1.766 15.095 12.126 33.715 20.156 51.942 25.387z"/><path fill="#70a344" d="M593.344 55.614c.572-2.056 2.39-2.679 3.909-3.763 29.576-21.17 66.15-26.58 97.672-48.725 1.006-.708 5.17-3.771 5.853-3.003.41 6.075 2.705 12.458 3.525 18.32 3.003 21.607 2.415 38.64-.026 60.135-.205 1.834-1.118 6.28 2.415 5.367-.077.034-.213.606-.888.964-.785.41-2.201-.008-2.577.299-.332.273-.99 6.613-1.544 8.49-.981 3.328-2.466 7.134-3.823 10.343-1.382 3.277-8.371 18.022-10.795 18.722-13.482 1.024-27.86-.845-41.224.094-3.831.273-9.156 2.04-12.962 2.389-2.534.23-5.12-.094-7.654.017 6.391-8.508 15.701-14.899 22.45-22.997 5.496-6.596 10.326-14.694 14.789-21.811 2.876-4.583 5.777-9.182 8.695-13.739l.103-2.252-2.355-.598c.17 1.246-.444 2.04-1.144 2.97-19.874 26.325-44.202 46.865-72.055 64.332 2.995-8.004 7.091-16.17 9.156-24.49 4.37-17.596 2.193-30.882-8.516-45.218-1.135-1.52-2.765-5.615-3.004-5.854z"/><path fill="#72a347" d="M435.146 54.437c-.128.128.18 2.133-.58 3.524-1.11 2.031-5.496 5.786-7.066 8.312-4.377 7.057-4.608 12.765-5.359 20.607-.512 5.334-.69 10.658.265 16.299 1.126 6.639 4.54 17.288 7.031 23.663.956 2.44 4.736 4.027 5.709 6.69-4.164-1.843-4.062-3.106-7.134-5.265-23.893-16.734-41.71-28.527-60.185-51.976-2.569-3.252-5.828-7.373-7.066-11.247l-2.355.597c-.392 4.181 5.444 11.093 7.62 14.814 5.82 9.958 11.802 19.968 19.516 28.894 3.703 4.283 8.815 8.046 12.416 12.373.99 1.194 2.261 1.519 1.766 3.541-2.133-.094-4.326.196-6.468-.025-15.599-1.57-30.148-4.199-46.122-3.576-3.286.128-4.395 2.432-8.073-.094-1.297-.896-2.893-3.225-3.635-4.625-5.265-9.907-8.79-22.033-10.607-33.075l-14.071-4.847c-.836.017-.691-.964-.751-.981l14.165 3.541c.964-3.96-1.04-7.722-1.229-11.161-.708-12.783.666-26.197 0-39.066L327.712.123c1.323-.052 2.364-.188 3.575.554 4.753 2.91 9.635 7.876 14.908 11.068 26.598 16.11 58.393 21.478 85.051 38.912 1.587 1.032 3.294 1.766 3.9 3.771zM308.819 78.048c-.7-.187-1.894.29-2.756-.145l-.785-1.032c.691.196 1.937-.29 2.807.128z"/></svg>