<svg xmlns="http://www.w3.org/2000/svg" viewBox="0 0 1024 1024"><path fill="#ffcf6d" d="M834.522 189.24c50.283 50.283 90.821 192.534 27.656 304.213-24.89 44.018-74.279 77.174-129.912 96.262a192 192 0 0 1 14.05 12.701c61.093 61.094 30.702 135.674.532 175.9-40.528 40.529-111.277 67.089-209.107 29.034l-83.37 83.169c-47.99 47.427-151.01 30.532-235.124-40.046-87.251-73.212-121.142-176.454-75.706-230.619a81 81 0 0 1 2.484-2.805l70.014-83.853c-31.367-11.213-61.838-28.671-86.497-53.33-58.067-68.123-24.599-170.42 15.276-216.026 72.91-72.91 196.657-24.589 242.536 21.29 14.059 14.059 22.708 38.738 26.871 67.258a209.3 209.3 0 0 1 56.267-7.894c15.356-71.07 44.57-137.494 74.902-167.825 66.856-66.857 238.845-37.713 289.128 12.57"/><path fill="#e6ac57" d="m394.665 789.339 110.22-92.46c61.638 14.23 107.858 14.23 138.671.01 30.814-14.22 46.21-40.298 46.22-78.221v-64c111.408-118.528 141.045-234.672 88.891-348.453 85.33 32.01 88.89 92.45 88.88 192.001 0 66.374-58.066 128.001-174.22 184.881 52.143 80.604 60.45 141.045 24.89 181.352-35.54 40.287-100.737 45.023-195.561 14.22l-85.33 85.33z"/><path fill="#d19845" d="M790.283 379.18c20.817 21.56 37.43 45.797 48.855 70.939a14.222 14.222 0 0 1-25.906 11.766c-10.067-22.155-24.83-43.696-43.415-62.945a237.4 237.4 0 0 0-33.026-28.52 14.222 14.222 0 0 1 16.483-23.18c13.044 9.282 25.464 19.992 37.009 31.94M481.866 645.156a361.7 361.7 0 0 1 71.784 133.13 14.222 14.222 0 1 1-27.304 7.954 333.2 333.2 0 0 0-66.162-122.68 14.222 14.222 0 0 1 20.525-19.62l1.147 1.206zm-65.992-60.843a14.222 14.222 0 1 1-16.583 23.12 328 328 0 0 0-24.679-16.09 14.222 14.222 0 1 1 14.471-24.488 362 362 0 0 1 26.791 17.458m330.582-124.581c14.431 14.934 25.956 31.749 33.89 49.237a14.222 14.222 0 1 1-25.895 11.756A148.3 148.3 0 0 0 726 479.484c-6.789-7.03-14.08-13.295-21.703-18.725a14.222 14.222 0 1 1 16.503-23.16c9.051 6.435 17.66 13.837 25.655 22.134M325.073 338.7c-14.683 14.683-26.51 31.297-34.746 48.624a14.222 14.222 0 0 0 25.695 12.219 148.3 148.3 0 0 1 29.164-40.73c6.91-6.908 14.29-13.063 22.004-18.343a14.222 14.222 0 1 0-16.08-23.462 184.3 184.3 0 0 0-26.037 21.692m-60.641 8.066c-18.957 7.552-33.137 31.286-32.664 50.202a14.222 14.222 0 0 0 28.37 1.056l.07-1.8c-.191-7.452 7.361-20.093 14.773-23.04a14.222 14.222 0 1 0-10.54-26.428zm250.239-23.302c28.49 9.263 54.537 22.84 76.43 39.704a14.222 14.222 0 0 1-17.338 22.547c-19.298-14.834-42.439-26.932-67.882-35.198a14.222 14.222 0 1 1 8.79-27.053"/><path fill="#fce586" d="M166.671 669.333a170.667 71.111 45 1 0 241.36 241.36 170.667 71.111 45 1 0-241.36-241.36"/><path fill="#191919" d="M834.532 189.24c50.275 50.29 90.808 192.541 27.648 304.214-24.89 44.018-74.269 77.17-129.906 96.256 5.006 4.125 9.714 8.363 14.051 12.7 61.099 61.1 30.706 135.68.54 175.901-40.533 40.533-111.302 67.086-209.109 29.042l-83.37 83.171c-48 47.432-151.026 30.536-235.136-40.035-87.24-73.245-121.117-176.47-75.69-230.628a58 58 0 0 1 2.474-2.816l70.016-83.854c-31.374-11.207-61.838-28.658-86.514-53.333-58.055-68.125-24.59-170.41 15.289-216.022 72.903-72.903 196.65-24.59 242.531 21.291 14.066 14.066 22.7 38.741 26.88 67.271a209.3 209.3 0 0 1 56.278-7.907c15.346-71.055 44.558-137.487 74.894-167.823 66.844-66.844 238.834-37.703 289.124 12.573m-40.235 40.236c-36.978-36.978-172.032-49.21-208.669-12.573-20.949 20.935-46.122 77.582-59.52 139.591a56.89 56.89 0 0 1-52.337 44.8l-3.072.086a152.5 152.5 0 0 0-35.229 4.252l-5.746 1.508a56.89 56.89 0 0 1-71.78-46.507c-1.564-10.724-3.825-19.854-6.513-26.795-1.906-4.963-3.627-7.808-4.295-8.476-40.76-40.761-122.738-56.946-160.028-23.254l-.84.797-.796.953c-31.474 38.314-41.116 102.258-14.507 136.79l.57.682 2.275 2.204c15.218 14.052 34.133 25.53 55.495 33.892l5.888 2.204c37.262 13.312 49.877 59.662 24.519 90.027l-70.016 83.854-2.56 2.916c-20.622 24.59 2.446 94.876 68.693 150.47 63.986 53.69 135.68 65.764 158.379 43.35l83.37-83.171a56.89 56.89 0 0 1 60.8-12.744c63.062 24.534 111.048 16.854 143.29-11.576l2.176-1.992 2.062-2.958c23.04-33.962 25.998-67.114 2.474-92.771l-2.275-2.39a132 132 0 0 0-6.429-6.001l-3.498-2.959c-33.735-27.69-24.875-81.137 15.146-96.853l2.49-.924c46.79-16.057 82.773-42.041 98.844-70.457 42.994-76.004 25.216-192.413-18.347-235.975z"/><path fill="#191919" d="M366.364 748.715c33.992 34.005 58.639 74.154 70.884 114.702a21.333 21.333 0 1 1-40.846 12.33c-10.17-33.65-31.076-67.711-60.217-96.853-28.985-29.013-62.862-49.849-96.356-60.06a21.333 21.333 0 0 1 12.459-40.818c40.334 12.316 80.242 36.864 114.062 70.699z"/></svg>