<svg xmlns="http://www.w3.org/2000/svg" viewBox="0 0 1024 1024"><path fill="#a0cc60" d="M680.226 109.577c1.912-.427 10.684 6.536 17.434 6.784 39.902 1.501 73.745-5.522 110.617 14.993 3.226 1.792 29.44 20.164 30.78 21.487 4.472 4.445 23.117 39.142 26.086 47.086 9.455 25.276 6.742 79.6 24.15 90.83-26.983-2.023-23.484 35.771-21.052 52.411 2.38 16.256 25.404 35.635 34.04 49.579 22.22 35.882 22.186 85.982-2.714 120.823-12.006 16.794-61.474 54.699-65.203 67.183-5.863 19.601 7.594 32.563 6.408 47.65-.554 7.066-6.263 13.833-7.125 21.36-2.475 21.443 1.323 43.425-13.628 63-23.936 10.65-40.03 39.732-62.856 48.64-32.137 12.545-57.49 6.17-87.356 10.198-39.424 5.325-49.579 71.416-92.083 89.122-41.916 17.468-68.284-6.494-108.911 2.56-56.918 12.672-111.275 73.651-162.466 102.34l-99.96 42.898c-2.287-.3-4.702.34-6.972 0-.972-10.863-28.484-1.52-20.89-17.4 3.619-7.569 21.266-19.115 27.999-27.759 34.628-44.501 64.81-92.63 100.616-136.311 21.794-20.19 40.115-9.737 62.865-13.79 27.077-4.822 53.863-13.44 80.188-20.975l.094-20.685-104.516 6.955c-7.023-6.64 36.215-68.813 44.996-76.928 24.269-22.443 63.309-15.693 90.743-20.753 38.324-7.074 95.616-16.862 131.021-29.261 9.899-3.465 19.14-7.45 25.899-15.923 2.799-15.522-6.75-10.138-17.365-10.411-35.832-.93-76.8 6.852-111.676 13.781l-66.048-3.336 83.439-111.676c29.696-1.579 172.441-13.158 181.342-41.668-9.293-36.182-36.301-8.832-53.462-4.66-30.233 7.34-61.875 9.387-92.868 8.158 7.356-20.949 99.866-116.437 83.61-132.377-32.88-5.828-50.765 28.783-73.02 48.913-12.322 11.144-16.81 17.28-25.788 26.394-4.053 4.113-30.507 11.4-33.579 8.294l20.89-132.386-27.486.35c-3.78 3.95-20.113 69.734-21.128 79.94-3.08 30.916 5.82 73.054-3.294 101.23-6.716 20.762-57.95 53.206-77.133 69.206-9.762 8.15-17.92 19.601-27.75 27.998l-3.78-80.435c12.577-41.694 5.648-85.59 7.261-128.623h-27.861l-7.117 135.757-24.064 122.274-69.88 62.49c-10.982-7.382-9.702-12.852-10.598-24.193-1.8-22.758-1.34-51.532 3.798-73.42L230.8 583.458c-22.818 7.066-14.481 123.384-27.716 146.517C151.219 778.71 97.963 822 56.252 883.063c-3.362 4.924-9.84 6.46-10.138 6.998-2.022-4.779-4.907-9.19-6.972-13.935 12.348-5.965 6.486-26.684 6.972-38.323 2.253-54.085 17.229-90.76 42.82-138.36 17.588-32.717 53.521-67.242 60.357-106.888 10.581-61.38-41.592-112.222 11.63-169.55 19.2-20.675 54.716-22.28 63.164-48.332 8.013-24.695.487-54.554 3.371-80.256 3.456-30.814 22.485-72.892 48.708-90.658 2.16-1.46 30.541-15.992 32.282-16.504 18.603-5.47 47.923 1.792 68.66-1.024 31.146-4.232 56.191-56.064 83.49-76.782 27.715-21.035 54.937-25.319 89.377-19.422 39.441 6.75 61.858 50.04 102.767 37.359 9.669-2.996 25.899-17.443 27.495-17.8z"/><path fill="#c0dc91" d="M46.097 890.044c.299-.538 6.776-2.074 10.138-6.998 41.71-61.064 94.967-104.354 146.833-153.088 13.235-23.133 4.898-139.451 27.716-146.517l14.071 13.833c-5.137 21.888-5.597 50.67-3.797 73.42.896 11.341-.384 16.811 10.599 24.192l69.879-62.49L345.6 510.124l7.117-135.757h27.861c-1.613 43.033 5.316 86.929-7.262 128.623l3.78 80.435c9.83-8.397 17.98-19.857 27.75-27.998 19.184-16 70.418-48.444 77.134-69.205 9.113-28.169.213-70.315 3.294-101.231 1.015-10.206 17.348-75.99 21.128-79.94l27.486-.35-20.89 132.386c3.072 3.106 29.526-4.173 33.58-8.295 8.976-9.113 13.473-15.257 25.787-26.393 22.255-20.13 40.132-54.741 73.02-48.913 16.256 15.94-76.254 111.428-83.61 132.377 31.002 1.23 62.643-.819 92.868-8.157 17.16-4.165 44.16-31.523 53.462 4.659-8.9 28.51-151.646 40.08-181.342 41.668l-83.44 111.676 66.049 3.336c34.867-6.929 75.844-14.711 111.675-13.781 10.616.273 20.165-5.112 17.366 10.41-6.75 8.474-16 12.46-25.899 15.924-35.396 12.399-92.697 22.186-131.02 29.26-27.435 5.06-66.467-1.689-90.744 20.754-8.78 8.123-52.028 70.297-44.996 76.928l104.516-6.955-.094 20.685c-26.325 7.535-53.111 16.153-80.188 20.975-22.75 4.053-41.07-6.409-62.865 13.79-35.806 43.682-65.988 91.81-100.616 136.311-6.733 8.653-24.372 20.19-27.998 27.759-7.595 15.88 19.917 6.537 20.89 17.4-45.108-6.793-25.26.75-55.39 10.803-77.68 25.924-135.527-61.073-97.912-129.272z"/><path fill="#84b848" d="M889.276 290.756c6.186 3.985 25.72 7.714 37.23 15.036 69.436 44.16 93.1 92.723 72.816 175.147-4.489 18.218-17.024 39.671-19.337 57.318-6.562 50.065 14.285 106.47 6.844 160.154-4.13 29.772-42.266 76.416-67.149 93.124-21.598 14.507-83.96 29.466-91.904 37.052-13.943 13.329-27.861 59.57-42.889 79.018-15.104 19.559-36.906 31.138-60.697 36.856-17.17 4.121-58.71 10.086-75.648 8.576-76.664-6.827-139.546-39.399-217.08-8.636-98.116 38.93-102.647 80.12-225.092 64.102l99.96-42.897c51.191-28.689 105.557-89.66 162.466-102.34 40.627-9.045 66.995 14.908 108.91-2.56 42.497-17.715 52.66-83.806 92.084-89.122 29.867-4.036 55.22 2.347 87.356-10.197 22.826-8.91 38.92-37.99 62.856-48.64 14.95-19.576 11.153-41.558 13.628-63.002.87-7.518 6.57-14.293 7.125-21.359 1.186-15.078-12.27-28.049-6.408-47.65 3.729-12.476 53.196-50.38 65.203-67.183 24.9-34.833 24.943-84.932 2.713-120.823-8.635-13.944-31.658-33.323-34.039-49.58-2.432-16.64-5.93-54.433 21.052-52.41z"/><path fill="#81b446" d="M680.226 109.577c-1.596.358-17.835 14.805-27.494 17.8-40.91 12.68-63.326-30.609-102.767-37.359-34.44-5.888-61.662-1.613-89.378 19.422-27.298 20.719-52.344 72.55-83.49 76.783-20.736 2.816-50.057-4.446-68.66 1.024-1.74.512-30.122 15.036-32.281 16.503-26.223 17.767-45.253 59.845-48.709 90.659-2.884 25.702 4.643 55.56-3.37 80.256-8.457 26.043-43.972 27.656-63.164 48.332-53.222 57.327-1.05 108.16-11.63 169.55-6.836 39.645-42.77 74.17-60.357 106.888-25.592 47.599-40.568 84.275-42.82 138.36-.487 11.639 5.384 32.358-6.972 38.322-12.988-29.943-24.49-68.292-20.72-100.89 8.876-76.782 71.672-142.25 62.363-222.975-4.702-40.798-29.807-91.938-34.51-132.736-4.292-37.248-3.003-92.869 12.255-126.763 16.452-36.54 42.402-40.73 71.023-61.397 50.286-36.318 24.832-130.185 104.994-173.739C256.52 45.67 303.36 33.63 328.2 32.461c15.505-.726 24.337 6.451 35.106 7.296 89.907 7.023 143.035-69.854 235.375-26.317 17.143 8.081 46.054 32.068 56.977 47.556 10.752 15.25 13.141 35.055 24.576 48.598z"/></svg>