<svg xmlns="http://www.w3.org/2000/svg" viewBox="0 0 1024 1024"><path fill="#eff1d9" d="M867.559 534.4c9.6-139.2-107.2-297.6-107.2-297.6-44.8-38.4-76.8-76.8-75.2-108.8 0 0-67.2-12.8-70.4 27.2 0 0-35.2-59.2-57.6-49.6s-44.8 67.2-52.8 67.2c0 0-35.2-94.4-84.8-84.8s-84.8 62.4-84.8 62.4-84.8 94.4-164.8 121.6c-35.2 11.2-129.6 107.2-160 224 22.4 38.4 46.4 81.6 76.8 131.2 320 542.4 771.2 46.4 780.8-92.8"/><path fill="#a2a386" d="M419.559 201.6s-88 134.4-132.8 139.2c0 0 30.4 32 67.2-17.6s65.6-121.6 65.6-121.6m44.8 17.6s-30.4 184-48 184c-1.6 0 43.2 44.8 48-184m97.6 27.2s-35.2 188.8-30.4 203.2c4.8 12.8 30.4 27.2 30.4 0zm40 0s84.8 40 92.8 108.8c9.6 67.2 9.6 99.2-4.8 99.2-12.8-1.6-4.8-118.4-88-208m60.8-9.6s107.2 94.4 115.2 134.4c9.6 40 12.8 59.2-4.8 59.2-16 0-52.8-139.2-110.4-193.6"/><path fill="#dcddc3" d="M427.559 907.2c713.6 156.8 608-392 563.2-472-28.8-52.8-150.4-128-230.4-198.4 0 0 115.2 156.8 107.2 297.6-9.6 139.2-460.8 635.2-780.8 94.4-28.8-49.6-54.4-92.8-76.8-132.8-38.4 145.6 20.8 324.8 417.6 411.2"/></svg>