<svg xmlns="http://www.w3.org/2000/svg" viewBox="0 0 1024 1024"><path fill="#e8bda3" d="m11.853 627.703 8.106 3.09c4.472 5.538 11.12 9.258 17.468 13.184 7.458 4.608 14.9 9.31 23.56 9.642 9.498 7.424 22.503 10.018 34.57 9.071.17.333 4.872 2.8 6.331 2.782l15.087-.17 11.597-.3L151.5 666.3l29.713 2.568 2.987-3.61c7.722.103 16.614-1.023 25.804-1.885l35.132-3.294 29.304-2.944c12.108-1.212 25.693.043 37.888-.691l29.397-1.767c8.337-.503 16.546-.793 23.705-.819L432 653.62c5.23-.017 11.605-1.024 18.39-1.493l25.505-1.758c1.75-.12 6.221-1.877 6.34-2.202l31.531-5.947 43.478 10.06c6.203 1.434 17.877 1.195 23.646.845 1.536-.094 4.445.23 6.118.384-.427.12 5.035 3.362 6.4 3.328l28.51-.717c11.008-.273 19.9-.452 30.26-.324l66.78.862 67.508-.631 14.592.196 39.91.546c1.724.026 7.109-2.927 6.708-3.123 2.33-.12 6.238-.265 8.311-.495l29.68-3.413c1.399-.163 5.469-2.006 5.716-2.381l2.816.145c2.714-.47 7.501-1.937 8.918-2.876l26-8.311c9.96-3.183 19.773-9.054 28.724-14.737 19.482-12.365 30.319-32.623 26.923-55.885 12.177 2.159 23.91 9.489 32.819 20.224 15.727 18.944-.256 45.371-17.46 59.605-27.297 22.588-72.823 36.07-108.356 37.035l-38.536 1.04c-11.085.3-21.513.317-32.495.274l-28.97-.103-40.867.402-32.051.128-29.295.11-37.999-.136-61.363-1.237-42.06-1.553-66.16-1.007-20.719.896-201.284-.683-61.534 2.842c-65.715 3.037-128.82 13.064-174.984-36.37-5.3-5.674-8.5-13.448-11.589-19.49z"/><path fill="#fd8d59" d="m370.833 446.933-24.55 41.114-31.59 56.772c-6.076 10.914-15.514 30.806-19.542 41.37-.964 2.534-3.797 6.937-3.055 9.549l-35.115 7.944c-39.902 4.181-42.231 7.5-85.128 6.4 2.184-11.52 8.106-19.225 19.456-27.92l36.693-28.101c13.295-10.189 24.21-22.733 34.705-34.407 7.364-8.192 16-16.827 23.006-26.564l13.594-18.884c9.036-12.561 18.03-24.704 27.998-36.65l16.085-19.286c6.878-8.243 14.745-16 22.494-23.416l5.043-4.83 28.92-10.999c2.67-1.015 8.524-1.195 12.091-1.988l17.75-3.968-14.994 17.297-17.647 20.369c-14.882 17.186-15.837 18.799-26.231 36.207z"/><path fill="#fd8955" d="m549.137 343.586 25.651 1.485c-.75.768-4.155 3.994-6.118 4.958-25.967 12.766-59.605 31.112-84.565 50.952-19.926 15.83-36.702 39.8-48.256 59.785-13.184 22.8-25.08 52.753-21.624 80.529l9.523.913c-1.664 2.372-7.927 4.66-10.99 3.942l-13.842-3.234c-4.821-1.126-11.87 9.54-12.638 14.038l-3.686 2.807-8.567 4.37c-14.891 7.602-15.395 2.15-17.81 8.191l-28.919 11.512-12.134 5.213c-.035-.554-.009-1.698.017-2.27 3.106-10.342 8.618-21.845 14.43-32.324l12.458-22.476 20.591-38.563 16.777-32.452 10.095-13.55c23.654-31.77 50.636-66.92 84.804-87.638l7.646-4.634 45.67-9.881c6.596-1.425 15.548-2.006 21.479-1.664z"/><path fill="#fd7644" d="M844.535 411.238c8.67 3.917 18.731 9.856 27.034 16.077l25.557 19.149-5.299 4.045-29.943-7.177c-30.729-7.364-61.244-15.232-93.363-16.4-12.613-.462-52.148 2.721-64.427 5.196-29.167 5.88-42.658 11.255-68.915 25.148-7.356 3.89-16.58 15.104-21.393 20.906-2.339 2.816-6.733 9.344-5.667 12.903s6.469 9.489 9.438 11.767l2.228 1.707c-2.987-.282-7.723-.589-11.913-.486l-26.223.648c-2.33.06-7.748 1.707-8.849 2.185-.239-.7-.572-1.699-.828-2.262-10.555-23.33-25.685-35.003-11.725-50.491 49.298-54.69 154.368-60.818 222.797-51.346l20.48 2.834 41.003 5.589z"/><path fill="#fc7442" d="m914.67 461.286 22.145 18.057c2.253 1.843 5.99 6.528 7.39 8.49l-1.698 3.977c-7.126-.034-16.495.299-22.375-1.288l-46.242-12.527c-37.103-10.053-75.332-13.884-113.758-10.087-15.249 1.51-29.056 6.682-41.275 13.014-3.346 1.732-6.725 3.66-8.943 6.203l-2.475.197c-7.245 3.234-13.653 9.753-18.38 16.623l-49.178.256.093 29.312c0 1.493-2.73 6.826-3.012 6.613l.222-24.85c.043-4.641-3.209-10.99-7.817-16.016-.7-4.352-1.092-10.735-.93-15.31 21.521-28.936 58.752-40.814 95.386-45.106 59.136-6.938 96.128 4.352 153.199 17.817 5.845 1.383 14.182 3.08 19.456 3.422l18.227 1.186z"/><path fill="#fd9967" d="m327.57 408.764 1.364 3.985-18.26 22.664-29.842 37.044-14.703 18.03c-5.709 7.006-11.008 13.483-15.599 19.84-24.67 21.888-37.982 37.581-68.488 57.14l-19.806 12.697c-11.69 7.493-28.459 15.386-31.019 26.966l-.47 2.116-30.617-7.902-1.229 23.543-2.807 2.398-.393-14.609c-.068-2.688 1.058-6.818 2.219-11.887-1.988-1.186-7.612-4.3-10.342-5.461l-3.252-2.73-5.512-4.626c-7.603-6.383 38.639-27.434 42.556-29.26 44.339-20.668 78.873-38.511 110.609-75.708 6.178-7.245 21.862-35.943 33.553-46.123l45.38-22.4c4.702-2.321 12.783-3.61 16.64-5.717z"/><path fill="#fd9267" d="M979.038 536.508c-.196-.563 1.894 3.02 2.022 3.882l3.695 25.336c3.396 23.27-7.44 43.52-26.922 55.885.128-3.055-.547-11.077-2.253-14.481l-25.72-51.32c-3.26-6.502-15.744-15.078-22.442-16.981l-19.08-5.41c-6.691-5.436-15.14-7.817-25.874-8.866-3.004 16.384-5.077 31.931-.128 47.086l14.438 44.297 8.926 25.89c.632 1.843 4.71 5.47 5.675 5.555-.248.376-4.318 2.219-5.717 2.381l-29.68 3.413c.223-.759 1.426-6.058 1.178-8.448l-8.251-79.957c-.973-9.395 1.885-32.153 4.343-41.608.435-1.664-3.345-6.042-5.359-6.452l-28.032-5.674c-16.11 43.085-18.056 98.483-20.446 142.327l48.273.299c.41.196-4.975 3.14-6.707 3.123l-39.91-.546-14.592-.196c-.034-.93-.094-2.321-.06-3.115.503-11.725 1.877-34.91 3.61-47.138l6.254-44.117c2.39-16.862 4.975-32.069 8.867-49.366.324-1.425.085-3.942-.896-4.761l-6.75-5.658c26.026.725 52.736 5.683 78.993 15.087 41.54 14.874 52.966 20.343 100.429 29.568l2.124-10.035z"/><path fill="#fda876" d="m230.391 454.963 5.615 1.997-7.697 10.547c-15.13 20.728-40.2 36.745-63.462 49.724l-18.987 10.59-4.13.324c-.939.077-1.348 1.519-1.988 2.808l-2.927.128-2.705 2.662c-.845 0-2.108.068-2.73-.12l-12.4-3.712c-35.737 7.8-57.438 16.888-87.458 39.237l-21.163-19.2c-2.363-2.142-2.517-11.571-1.868-13.244 6.775-6.605 16.81-13.065 27.187-16.546 26.376-8.85 51.686-16.53 78.464-23.91 30.088-8.295 58.957-17.016 87.356-29.867 9.932-4.497 19.831-8.397 28.885-11.418z"/><path fill="#fd7040" d="M960.879 503.987c9.224 8.764 16.998 18.944 18.159 32.512l-2.125 10.035c-47.462-9.224-58.888-14.685-100.429-29.568-26.257-9.403-52.966-14.361-78.993-15.087l6.75 5.658-9.566-1.894-13.832-2.748c-6.614-1.314-14.857-.418-21.146 1.75l-2.67-3.141c-1.076-1.263-5.718.495-6.333 2.005-.75 1.878-3.217 8.013-2.884 7.202.273-1.97 0-5.154-.136-9.787l-43.691.853c1.69-2.423 6.315-5.316 9.788-7.697l10.863-7.424c31.24-11.81 56.507-13.474 91.58-10.197 24.268 2.27 46.745 8.524 70.254 14.643l49.391 12.834c6.724 1.75 18.287.299 25.02.043z"/><path fill="#fda074" d="M678.101 340.386c-45.687.205-63.658-4.02-102.51 26.291 12.492-.162 23.125-1.34 35.02-2.995l26.001-3.618c5.7-.794 11.435-1.698 18.407-2.022l68.54-3.158c2.27-.102 2.534-4.104 1.766-5.214 3.968-.802 30.993 8.73 31.65 11.956-32.905 8.55-56.644 3.336-90.342 6.425L640 370.491l-40.43 5.727-12.878 2.252-26.99 5.206c-3.081.597-10.01 2.73-13.313 4.121l-36.949 15.548c-8.397 3.533-32.307 28.134-39.782 36.37-8.85 9.744-16.657 25.386-22.733 29.354-.76-5.043-5.854-8.269-11.076-8.303 11.554-19.985 28.33-43.947 48.256-59.785 24.96-19.831 58.598-38.178 84.565-50.952 1.963-.964 5.359-4.19 6.118-4.958l-25.65-1.485 2.593-2.68 53.026-1.689 26.462-.76 43.947-.938 2.935 2.859z"/><path fill="#fd7b48" d="M756.983 361.617c11.392 4.838 23.237 9.685 34.944 16.76l20.088 12.134c.683.17-4.693 2.355-6.29 2.21l-31.274-2.935c-15.095-1.417-29.235-2.484-43.904-1.613l-29.337 1.724c-25.319 1.493-68.31 8.891-91.648 17.68-17.101 6.443-33.289 13.432-48.461 21.018l-9.071 2.262c-6.511-9.848 32.768-46.2 37.453-48.88l10.086-5.768L640 370.483l26.633-2.44c33.69-3.09 57.429 2.124 90.342-6.426z"/><path fill="#fdac86" d="m812.023 390.52 26.351 14.805c1.741.973 5.692 5.171 6.17 5.913l-41.003-5.589-20.48-2.833c-68.428-9.472-173.5-3.345-222.796 51.345-13.961 15.488 1.169 27.162 11.724 50.492l-24.533 3.294-15.078-27.768c-11.606-21.359 21.46-47.94 28.74-51.584 15.172-7.577 31.351-14.575 48.46-21.017 23.34-8.79 66.339-16.197 91.649-17.681l29.337-1.724c14.67-.862 28.809.205 43.904 1.613l31.275 2.935c1.596.145 6.972-2.04 6.289-2.21z"/><path fill="#fcba95" d="m131.38 533.623-2.791 3.218-43.614 21.085-19.789 10.044c-3.865 1.963-10.923 10.13-11.588 12.092 6.895 5.419 10.342 8.107 13.508 11.767l-5.043 35.388-1.067 26.41c-8.661-.332-16.102-5.034-23.56-9.642.529-21.274 3.328-41.02 8.891-64.026-3.481-2.978-9.062-6.46-14.336-9.113-5.452 11.545-8.473 21.12-9.548 32.81l-2.475 27.137-8.107-3.09C.068 604.621-6.016 550.853 8.5 536.704c-.648 1.673-.495 11.102 1.869 13.244l21.163 19.2c30.02-22.35 51.72-31.437 87.458-39.237l12.399 3.712z"/><path fill="#fdc8a7" d="M265.549 436.881c-11.69 10.189-27.375 38.878-33.553 46.123-31.736 37.197-66.279 55.04-110.61 75.707-3.916 1.827-50.158 22.887-42.555 29.261l5.512 4.625 3.252 2.731-10.966-4.65c-2.133-.905-7.978.35-9.523 1.143-3.166-3.661-6.613-6.349-13.508-11.768.665-1.962 7.723-10.129 11.588-12.091l19.789-10.044 43.614-21.086 2.79-3.217c.623.188 1.886.12 2.73.12l2.706-2.663 2.927-.128 6.118-3.132 18.987-10.59c23.262-12.97 48.333-28.996 63.462-49.723l7.697-10.548-5.615-1.996c11.085-6.597 23.28-12.22 35.158-18.091z"/><path fill="#fca682" d="m897.126 446.464 17.545 14.822-18.227-1.186c-5.282-.341-13.61-2.048-19.456-3.422-57.063-13.465-94.055-24.755-153.2-17.817-36.633 4.292-73.855 16.17-95.385 45.107-2.952 3.968-5.017 7.876-8.636 14.959l-9.224-5.837 3.243-14.908c4.812-5.802 14.028-17.007 21.393-20.906 26.257-13.893 39.748-19.269 68.915-25.148 12.28-2.475 51.823-5.658 64.427-5.197 32.11 1.17 62.634 9.046 93.363 16.401l29.943 7.177z"/><path fill="#fca883" d="M944.205 487.834c6.545 3.532 11.494 11.23 16.674 16.153-6.733.256-18.296 1.707-25.02-.042l-49.39-12.835c-23.51-6.11-45.995-12.373-70.256-14.643-35.072-3.277-60.347-1.613-91.58 10.198-8.208 3.106-14.43 6.357-25.36 11.639-.53.717 2.107-2.833 4.036-5.436l4.113-5.53 2.475-.196 8.942-6.203c12.22-6.34 26.027-11.512 41.276-13.014 38.426-3.806 76.664.034 113.758 10.087l46.242 12.527c5.88 1.595 15.258 1.263 22.375 1.288l1.698-3.976z"/><path fill="#fcba95" d="m370.944 390.016-5.043 4.83c-7.748 7.415-15.616 15.18-22.494 23.415l-16.085 19.286c-9.967 11.955-18.961 24.098-27.998 36.65l-13.594 18.885c-7.006 9.736-15.641 18.372-23.006 26.564 1.05-.7 3.857-10.035 1.34-10.658-3.541-.888-10.47.239-13.525 1.34 4.59-6.358 9.89-12.835 15.599-19.84l14.703-18.031 29.84-37.044 18.262-22.664-1.365-3.985 14.532-7.936 28.843-10.812z"/><path fill="#fc834d" d="M678.101 340.386c15.702-.068 32.214 4.856 47.224 9.276.768 1.11.503 5.111-1.767 5.214l-68.54 3.157c-6.98.324-12.705 1.229-18.406 2.022l-26 3.619c-11.905 1.655-22.529 2.833-35.022 2.995 38.861-30.31 56.824-26.087 102.511-26.291z"/><path fill="#fdaa7e" d="m481.988 355.132-7.646 4.633c-34.167 20.72-61.15 55.868-84.804 87.638l-10.095 13.55 4.787-10.419-3.379-10.914-10.026 7.305c10.393-17.408 11.34-19.021 26.231-36.207l17.647-20.37 14.993-17.296-17.75 3.968c-3.575.802-9.429.973-12.091 1.988-.785.213 4.693-4.036 6.093-4.412l24.243-6.434 51.789-13.047z"/><path fill="#fd441e" d="m689.041 503.962.282 6.186-2.927 2.5.068 9.618c-6.92 40.149-24.687 76.262-51.883 108.399-4.48 5.29-6.963 15.035-9.472 22.732l-38.092.128c-1.673-.153-4.583-.478-6.119-.384l-11.119-11.153-.341-4.198c-.068-.888-.973-.99-2.415-1.545l-.111-2.918.17-20.147c37.112-15.804 60.767-34.62 69.855-73.029.281.214 3.02-5.12 3.012-6.613l-.094-29.312 49.178-.256z"/><path fill="#fd441c" d="M461.594 589.27c.836.076 2.03.093 2.61.332 2.365 4.617 10.574 6.144 14.917 8.576 24.38 13.645 41.762 11.571 67.541 9.711l-3.84 13.747c-5.922 7.109-13.952 11.896-23.15 17.195l-5.897 3.396-31.53 5.948-15.344.094c-17.527-9.711-35.72-20.25-51.532-33.238-9.003-7.398-46.362-46.13-32.76-55.27l3.686-2.807c13.62.69 24.824-18.44 36.378-2.193 10.803 15.18 23.45 27.067 38.92 34.508"/><path fill="#fc4b22" d="M855.979 653.175c-2.074.24-5.982.384-8.312.495l-48.273-.298c2.39-43.845 4.335-99.243 20.446-142.328l28.032 5.675c2.014.41 5.794 4.787 5.359 6.451-2.45 9.455-5.308 32.213-4.344 41.609l8.252 79.957c.248 2.39-.956 7.689-1.177 8.448z"/><path fill="#fd4d22" d="M888.337 533.41c15.778 20.642 30.447 58.12 41.088 84.702 2.603 6.502 2.517 13.133-.316 18.236l-26 8.311-8.918 2.876-2.816-.145c-.973-.085-5.043-3.712-5.675-5.555l-8.926-25.89-14.438-44.297c-4.94-15.164-2.876-30.703.128-47.087 10.735 1.05 19.183 3.43 25.873 8.866z"/><path fill="#fd4b1e" d="m432 653.628-66.569.239c-25.719-10.727-48.187-33.937-50.252-64.82l12.134-5.213 28.92-11.512c7.09-1.11 10.393 16.64 27.076 35.644 9.532 10.854 20.113 19.891 31.82 27.35l22.435 14.301-5.573 4.002z"/><path fill="#fd6131" d="M256.99 603.674c2.398 6.51-16.418-1.98-23.8 13.55l10.787 14.72c7.313 9.985 20.983 22.503 30.455 25.2l-29.303 2.943-35.132 3.294c-9.182.862-18.074 1.989-25.805 1.886l-18.295-.247 2.653-32.197c.657-7.953 2.031-16.017 3.311-22.75 42.897 1.101 45.227-2.218 85.129-6.4"/><path fill="#fd5625" d="M312.329 656.46c-12.203.735-25.788-.528-37.888.692-9.472-2.697-23.143-15.206-30.456-25.199l-10.786-14.72c7.381-15.53 26.197-7.04 23.8-13.55l35.114-7.945 3.746 13.184c4.207 14.83 11.085 28.322 21.555 39.38.7.743 3.235 3.534 3.038 3.542-.205 0-3.396 1.007-5.632 1.715l-2.474 2.919z"/><path fill="#fc8664" d="m724.634 486.665-10.863 7.424c-3.482 2.38-8.098 5.273-9.788 7.697-4.429 6.331-7.987 62.532-32.367 101.947l-15.846 25.609-8.696 14.097c-.828 1.348-.76 6.255.085 7.586.854 1.331 5.138 2.475 6.887 2.483l41.463.214c28.826-29.756 39.885-53.197 45.662-95.01l6.63-48.01c-.332.812 2.134-5.324 2.885-7.201.606-1.52 5.256-3.268 6.332-2.006l2.67 3.14-2.03 20.814-2.467 20.582c-3.404 28.433-6.144 57.958-20.275 83.217l-12.825 22.93c2.159.477 8.345 1.663 11.545 1.612l52.77-.87c-.034.793.026 2.184.06 3.114l-67.507.632-66.782-.862c-10.36-.137-19.251.042-30.26.324l-28.509.717c-1.365.034-6.827-3.209-6.4-3.328l38.093-.128c2.509-7.697 4.992-17.442 9.472-22.733 27.196-32.137 44.962-68.25 51.882-108.399 2.023-2.662 3.047-8.021 2.86-12.117l-.282-6.187c4.727-6.87 11.136-13.389 18.38-16.623l-4.113 5.53c-1.937 2.602-4.565 6.152-4.036 5.435 10.931-5.282 17.152-8.533 25.361-11.639z"/><path fill="#fd6635" d="M957.833 621.61c-8.952 5.684-18.757 11.555-28.724 14.738 2.833-5.103 2.919-11.734.316-18.236-10.641-26.581-25.31-64.051-41.088-84.702l19.08 5.41c6.7 1.903 19.184 10.48 22.443 16.982l25.72 51.32c1.706 3.404 2.372 11.425 2.253 14.48z"/><path fill="#fc7a53" d="M382.6 559.761c-13.602 9.14 23.757 47.872 32.76 55.27 15.812 12.988 34.005 23.535 51.533 33.238l15.343-.094c-.12.333-4.591 2.082-6.34 2.202l-25.507 1.757c-6.784.47-13.158 1.477-18.389 1.494l5.572-4.002-22.434-14.302c-11.708-7.467-22.289-16.495-31.82-27.35-16.692-19.012-19.994-36.761-27.077-35.643 2.415-6.042 2.918-.598 17.81-8.192l8.567-4.37z"/><path fill="#fda17d" d="M171.861 610.074c-1.28 6.732-2.654 14.805-3.31 22.75l-2.654 32.196 18.295.247-2.987 3.61-29.713-2.569-22.929-1.297 2.1-40.815c.264-5.214.162-10.769.085-14.95l.47-2.116c13.303 2.33 27.041 2.602 40.643 2.944"/><path fill="#fdceb5" d="M87.586 595.328c2.73 1.16 8.363 4.275 10.343 5.461-1.161 5.07-2.287 9.2-2.22 11.887l-2.61 2.56.017 41.592 2.39 2.901.05 2.961c-12.066.939-25.07-1.647-34.568-9.07l1.066-26.411 5.044-35.388c1.544-.794 7.39-2.048 9.523-1.144z"/><path fill="#fd7a4c" d="M130.756 609.246c.077 4.173.188 9.736-.085 14.95l-2.1 40.815-11.596.299c-.12-7.765-14.208 3.439-20.873-8.79v-29.226l2.808-2.398 1.229-23.543 30.617 7.901z"/><path fill="#fc8c67" d="M315.196 586.778c-.026.58-.051 1.715-.017 2.27 2.065 30.882 24.524 54.092 50.252 64.819-7.159.025-15.368.324-23.705.819l-29.397 1.766 2.474-2.918c2.236-.708 5.427-1.715 5.632-1.715.196 0-2.338-2.8-3.038-3.542-10.47-11.059-17.34-24.55-21.555-39.381l-3.746-13.184c-.742-2.611 2.09-7.014 3.055-9.549l1.698 8.226c6.75-2.107 12.783-4.42 18.347-7.628z"/><path fill="#f9a48f" d="m566.92 633.318.111 2.919.402 3.729c.102.947 1.63 1.297 2.355 2.014l11.119 11.153c-5.777.35-17.442.597-23.646-.845l-43.478-10.06 5.897-3.397c9.199-5.3 17.229-10.095 23.15-17.195 2.57-3.08 4.617-6.007 8.372-11.562l12.792 1.647c-.401 9.395-.743 16.58 2.944 21.589z"/><path fill="#fdd1b7" d="M37.427 643.977c-6.349-3.926-12.996-7.646-17.468-13.184l2.475-27.136c1.067-11.7 4.096-21.274 9.549-32.811 5.274 2.654 10.863 6.135 14.336 9.113-5.564 23.006-8.363 42.752-8.892 64.026z"/><path fill="#fda17d" d="m116.975 665.31-15.087.17c-1.46.018-6.161-2.449-6.332-2.781l-.05-2.961.596-3.217c6.665 12.228 20.753 1.032 20.873 8.789"/><path fill="#fd9267" d="M903.108 644.65c-1.416.94-6.203 2.407-8.917 2.876z"/><path fill="#fdc3a3" d="M262.716 519.654c-10.496 11.674-21.402 24.218-34.705 34.407l-36.694 28.1c-11.34 8.687-17.271 16.393-19.456 27.921-13.602-.35-27.332-.614-40.644-2.944 2.56-11.571 19.328-19.464 31.019-26.965l19.806-12.698c30.506-19.558 43.818-35.251 68.488-57.139 3.055-1.1 9.984-2.227 13.525-1.34 2.51.623-.29 9.959-1.34 10.658"/><path fill="#fcb693" d="m379.452 460.954-16.777 32.452-20.59 38.562-12.46 22.477c-5.81 10.487-11.323 21.99-14.43 32.324-5.563 3.209-11.596 5.521-18.346 7.629l-1.698-8.226c4.02-10.565 13.466-30.447 19.541-41.37l31.59-56.772 24.551-41.114 10.027-7.304 3.379 10.914-4.787 10.42z"/><path fill="#fd8450" d="m599.578 376.218-10.087 5.768c-4.685 2.68-43.972 39.032-37.453 48.88l9.071-2.262c-7.287 3.643-40.345 30.216-28.74 51.584l15.078 27.767 24.534-3.294c.256.564.589 1.562.828 2.262-2.629 10.982-6.554 22.468-14.72 29.798l-6-1.229c-1.62-.333-1.894-5.58-2.5-7.774l-5.188-18.833-29.824 4.113c-1.732.24-6.58 3.217-6.477 3.525-24.03 5.154-47.684 12.023-72.644 20.198-3.345 16.614 34.978 42.547 43.759 50.202l-11.494-1.997c-1.716-.299-6.682 3.763-6.136 4.369-15.47-7.441-28.117-19.328-38.92-34.509-11.555-16.239-22.767 2.884-36.378 2.193.768-4.505 7.816-15.172 12.638-14.037l13.84 3.234c3.064.717 9.328-1.57 10.992-3.942l8.516-4.958c-.068-11.7-.572-24.858 3.046-35.15l11.623-33.04c6.076-3.968 13.884-19.61 22.733-29.355 7.475-8.226 31.385-32.836 39.782-36.369l36.95-15.548c3.302-1.39 10.23-3.524 13.311-4.121l26.991-5.206 12.877-2.252z"/><path fill="#fdaa84" d="m446.933 469.06-11.622 33.041c-3.618 10.292-3.115 23.441-3.046 35.15l-8.517 4.957-9.523-.913c-3.456-27.768 8.44-57.72 21.624-80.53 5.222.035 10.316 3.252 11.076 8.304z"/><path fill="#fd421c" d="M619.793 504.567c10.368 11.341 6.118 32.7.563 47.6-9.378 25.173-32.11 42.88-58.189 43.05l-6.86-27.614c-2.953 6.4-6.042 13.338-10.59 20.617-12.007 19.217-50.364 5.12-65.494-1.314-8.78-7.646-47.104-33.588-43.758-50.202 24.951-8.166 48.614-15.036 72.644-20.198l10.163 1.254c8.004 9.276 31.326 36.463 39.825 18.944 8.158-7.33 12.092-18.816 14.72-29.798 1.1-.47 6.52-2.125 8.85-2.185l26.222-.648c4.19-.103 8.926.204 11.913.486z"/><path fill="#fb8566" d="M628.412 483.968c-.154 4.574.23 10.957.93 15.309 4.608 5.026 7.86 11.375 7.816 16.017l-.221 24.849c-9.088 38.417-32.743 57.224-69.854 73.028l-.171 20.147c-3.695-5.009-3.354-12.194-2.944-21.589l-12.791-1.647c-3.747 5.555-5.803 8.482-8.372 11.563l3.84-13.747c-25.779 1.86-43.161 3.933-67.541-9.711-3.302-2.663-10.889-6.93-14.916-8.576-.58-.24-1.767-.248-2.611-.333-.547-.597 4.428-4.668 6.135-4.37l11.494 1.998c15.13 6.434 53.487 20.53 65.494 1.314 4.548-7.28 7.637-14.217 10.59-20.617l6.86 27.614c26.078-.17 48.811-17.877 58.19-43.05 5.554-14.9 9.804-36.259-.564-47.6l-2.227-1.706c-2.97-2.279-8.363-8.167-9.438-11.768s3.328-10.086 5.666-12.902l-3.243 14.908 9.225 5.836c3.618-7.082 5.683-10.99 8.636-14.958z"/><path fill="#fc8664" d="m718.848 480.93-8.943 6.204c2.219-2.543 5.598-4.472 8.943-6.204"/><path fill="#fc4a21" d="M804.241 507.546c.981.827 1.22 3.336.896 4.761-3.891 17.297-6.468 32.504-8.866 49.366l-6.255 44.117c-1.732 12.22-3.106 35.413-3.61 47.138l-52.77.87c-3.2.052-9.386-1.135-11.545-1.612l12.825-22.93c14.131-25.258 16.88-54.783 20.275-83.217l2.467-20.582 2.03-20.813c6.29-2.167 14.533-3.063 21.146-1.75l13.833 2.749 9.566 1.894z"/><path fill="#fcba95" d="m145.852 527.82-6.119 3.133c.64-1.289 1.05-2.731 1.989-2.808zm-11.742 5.923 2.705-2.662z"/><path fill="#fd4720" d="m747.81 510.711-6.63 48.009c-5.777 41.813-16.837 65.254-45.662 95.01l-41.464-.213c-1.74-.009-6.033-1.152-6.886-2.483s-.913-6.247-.085-7.587l8.695-14.097 15.847-25.608c24.38-39.416 27.946-95.608 32.366-101.948l43.691-.853c.137 4.633.41 7.808.137 9.788z"/><path fill="#fc7442" d="m686.464 522.257-.068-9.617 2.927-2.5c.187 4.104-.845 9.455-2.859 12.117"/><path fill="#fb8566" d="M569.78 641.98c-.718-.717-2.254-1.067-2.356-2.014l-.401-3.73c1.442.555 2.338.658 2.415 1.545z"/><path fill="#fd8450" d="M479.113 598.178c-4.344-2.432-12.553-3.96-14.917-8.576 4.028 1.647 11.614 5.914 14.917 8.576"/><path fill="#e8bda3" d="M96.102 627.294v29.227l-.597 3.217-2.39-2.902-.008-41.591 2.603-2.56z"/><path fill="#fc6d49" d="M558.089 536.713c-8.5 17.518-31.821-9.669-39.826-18.944l-10.163-1.255c-.102-.307 4.745-3.285 6.477-3.524l29.824-4.113 5.188 18.833c.606 2.193.88 7.44 2.5 7.774z"/></svg>