<svg xmlns="http://www.w3.org/2000/svg" viewBox="0 0 1024 1024"><path fill="#b6232c" d="m452.814 457.702 52.779-47.974 103.15-33.587 127.139 23.987 80.358 54.58 65.972 28.185 68.966 76.16 31.19 86.366-5.402 86.357-46.174 116.343-85.163 59.973-61.773 36.582-104.345 5.393-121.148-39.577-71.364-45.577-53.974-53.376-56.977-111.548-2.398-73.164 11.392-64.171zm269.423-76.458 32.981-23.689 46.482-71.364 21.29 21.29s15.59 7.194 16.196 6.298c.598-.896 28.783-15.292 28.783-15.292l12.596 39.28 23.688.895 18.594 8.099-40.78 70.468-2.996 53.077-156.825-89.054z"/><path fill="#ce2836" d="m55.954 388.284 42.283-78.712 76.911-24.286 34.185 48.128-56.227 172.715s-50.372 43.179-51.729 43.179-65.672-53.974-65.672-53.974l20.24-107.05z"/><path fill="#ce2836" d="M286.884 79.019c-1.835-4.113 19.208-25.105 24.02-28.826 4.737-3.66 34.714-21.53 37.368-18.893-1.621 10.684-9.02 19.644-12.902 29.705-18.159 47.07-15.855 106.573 45.389 113.365 12.979 1.442 26.555 2.116 39.142 3.49 7.177 11.452 23.108 18.458 32.47 27.205 18.892 17.655 44.014 53.316 56.874 76.091 11.879 21.018 18.961 44.152 29.884 65.587 5.197 4.088 10.265-.913 15.616-1.766 34.765-5.521 58.479-8.619 93.687-3.516 24.116 3.499 49.912 10.923 73.967 12.954 1.69.145 16.802-2.611 19.226-3.345 40.124-12.186 42.163-65.1 39.987-100.08-.52-8.302-5.683-16.161-3.558-25.411 5.854-1.408 6.784 2.235 10.231 5.111 20.608 17.16 37.59 46.61 40.935 73.276l68.198-54.537c-.614 27.554-3.66 55.168-10.223 81.792 16.051-1.655 33.118-10.41 49.45-10.41 14.704 0 31.787 7.1 46.038 10.427l-52.924 30.6c-21.188 17.46-38.135 43.837-31.786 72.782 4.872 22.203 45.192 56.277 60.902 75.477 86.101 105.182 83.02 223.488 13.056 336.964-124.732 202.309-361.916 181.888-526.515 39.783-25.976-22.426-56.269-53.99-70.076-85.07-3.217-.366-6.801-.562-10.01-.204 6.05-7.142 1.204-9.105-.665-14.677-3.285-9.814-18.125-38.059-16.316-44.8 1.587-5.914 11.554-5.726 16.973-5.308.145-3.38-.077-6.81 0-10.197l27.819 62.523c138.717 212.267 470.903 269.159 584.473-1.117 57.37-136.517 8.593-217.165-80.136-315.384-6.545-7.245-19.414-24.977-23.945-28.902l.085-32.307c3.559-29.278 13.202-46.396 34.023-66.526-15.94-.692-24.755 19.012-40.926 17.032l-3.422-51.123c-18.372 1.766-29.517 22.639-47.744 20.463-1.39-1.442 2.978-34.253-10.231-37.496 2.03 19.166-4.224 44.758-18.705 58.002-10.48 9.582-28.135 21.614-42.693 20.394l10.232 6.81c-29.133-5.82-74.974-14.353-104.098-16.973-182.298-16.401-306.825 154.658-291.49 325.35.964 10.744 5.512 24.278 6.75 35.857l-18.765-6.792-4.557 7.885 2.97 7.5-3.405 6.87c-97.989 26.206-211.892-7.399-283.213-78.507-1.536-1.527-8.883-11.904-10.232-5.111-72.908-131.883-68.787-287.224 52.822-388.625 22.16-18.484 58.632-31.659 75.016-54.554 26.07-36.446-8.704-85.7-41.002-105.498l-1.545-3.473 2.893-1.672-7.996-5.137-1.715 3.405c-.23-.18-2.483.64-3.405-1.716v-5.103c12.706 1.007 26.957-1.399 39.407-.06 4.139.444 4.634 3.406 4.924 3.465l-23.868 3.397c20.48 3.123 38.357 13.67 55.748 24.388 5.513 3.396 25.387 21.23 29.509 16.529l10.24-54.545 20.377 22.23 15.411 15.257c4.37-1.946 15.915-35.482 15.138-42.377-.52-2.696-3.114-1.758-3.191-1.928zM142.474 297.71c-21.828 4.898-53.129 47.283-61.995 67.558-13.133 30.03-27.665 93.824-14.592 123.742 14.89 34.082 50.8 20.531 60.075-10.129 7.868-26.018 7.176-52.164 18.406-80.452 10.42-26.249 42.752-64.35 24.747-90.957-6.86-10.146-14.575-12.467-26.641-9.754z"/><path fill="#b82530" d="M648.432 341.461c-35.2-5.111-58.914-2.014-93.687 3.516-5.342.853-10.41 5.854-15.616 1.766-10.923-21.435-18.014-44.56-29.884-65.587-12.868-22.775-37.99-58.427-56.875-76.091-9.352-8.747-25.292-15.744-32.469-27.205 52.6 5.735 96.111 17.903 139.69 49.57 37.07 26.94 75.478 69.632 88.833 114.031z"/><path fill="#b82631" d="M365.339 723.191c.12 1.093.026 2.304 0 3.405-.085 3.388.137 6.818 0 10.198-5.419-.427-15.386-.606-16.973 5.307-1.809 6.742 13.03 34.996 16.316 44.8 1.869 5.573 6.716 7.544.666 14.678-24.09 2.688-48.606 8.396-73.268 6.75-107.98-7.203-192.162-59.666-243.942-153.302 1.348-6.784 8.695 3.584 10.231 5.112 71.322 71.108 185.233 104.712 283.213 78.506l3.405-6.869-2.97-7.5 4.557-7.886 18.765 6.793z"/><path fill="#b2262f" d="M286.884 79.019c.076.17 2.67-.768 3.191 1.928.777 6.895-10.77 40.431-15.138 42.377l-15.411-15.258-20.378-22.23-10.24 54.546c-4.122 4.702-23.996-13.133-29.508-16.53-17.391-10.717-35.268-21.273-55.748-24.387l23.867-3.397c3.175.58 7.015-.478 11.12.7 11.937 3.439 21.512 10.138 33.22 12.928l10.24-81.792c6.05-.973 10.18 4.412 13.704 8.457 14.054 16.128 26.146 35.84 39.177 52.89l11.93-10.224zm-153.481 23.859c-1.997-1.34-5.103-2.057-6.818-3.405l1.715-3.405 7.996 5.137z"/><path fill="#dc4b55" d="M142.474 297.71c12.066-2.704 19.78-.383 26.641 9.755 17.997 26.615-14.327 64.708-24.747 90.956-11.23 28.288-10.53 54.434-18.406 80.453-9.276 30.66-45.184 44.21-60.075 10.129-13.073-29.918 1.46-93.713 14.592-123.742 8.866-20.267 40.167-62.652 61.995-67.559z"/><path fill="#f6cbb6" d="M754.169 378.948c42.06 8.406 87.373 36.975 119.381 64.76 4.523 3.925 17.391 21.657 23.945 28.902 88.73 98.227 137.506 178.867 80.136 315.384-113.578 270.276-445.755 213.384-584.473 1.117l-27.819-62.523c.026-1.11.12-2.313 0-3.405-1.246-11.58-5.786-25.114-6.75-35.857-15.334-170.7 109.184-341.752 291.49-325.35 29.125 2.62 74.974 11.153 104.098 16.972zm-173.952 13.637c-8.619 2.286-12.083 3.43-20.463 6.818-47.164 19.046-74.232 39.867-105.737 78.387-8.797 10.76-12.748 15.292-20.463 27.264-11.997 18.628-15.906 25.95-23.876 47.718-2.014 5.513-2.167 9.694-3.413 13.637-4.821 15.266-12.322 28.612-13.764 46.173-.325 3.985 3.114 15.19 5.248 18.569 6.69 10.598 29.286 11.375 40.84 10.163 4.378-.46 15.82-3.208 18.842-6.741l35.96 17.177c12.21-3.447 24.84-3.08 36.658-7.645 20.037-7.732 15.821-.598 34.663.819 12.109.913 20.335-3.738 30.848-3.73 7.475 0 12.177 3.226 17.126 3.525 12.348.76 24.371 1.476 35.746-3.337 1.826-.776 12.51-6.886 13.022-7.432 2.287-2.398 3.96-13.124 7.441-16.427.273-.264 3.038-.375 6.818-3.405 6.964-5.58 4.088-3.933 6.819-10.223 2.432-5.58 4.556-11.383 6.818-17.04.102-.257 2.5-.41 2.97-2.151 2.414-8.909-2.629-20.156 3.848-28.527.444-.188 5.743-5.658 6.818-6.818 3.789-4.062 11.767-19.072 10.231-23.86v-3.404c4.967-.725 3.695-8.952 3.414-13.636-.384-6.417-4.267-14.439-3.183-18.304.998-3.55 6.52-5.718 8.277-8.977 10.453-19.38 15.6-52.856-3.328-68.207-6.332-5.129-10.615-4.386-15.411-6.759-30.712-15.18-57.361-17.467-92.092-17.04-5.632.067-11.46-.41-17.058 0-8.44.614-9.404 2.286-13.645 3.404zm289.92 105.66c-3.337-1.648-2.919-5.249-4.028-6.076-5.026-3.755-24.533-5.078-31.232-3.584-10.829 2.414-28.706 23.953-34.603 33.68-8.695 14.362-5.239 8.141-18.679 18.731-14.114 11.128-32.546 37.76-27.537 55.86-18.756 6.894-28.459 26.743-34.005 44.543-.086.274-2.347.615-2.808 2.39-1.826 7.15-4.958 23.603-4.079 30.182.572 4.284 3.396 4.625 3.473 4.915 4.924 19.15 20.847 43.947 34.048 59.708 6.358 7.595 21.214 20.403 30.763 22.093.46 5.009-.879 10.726-.051 15.514.76 4.411 3.387 4.642 3.464 4.94 1.579 6.392 1.366 14.063 5.146 20.42 5.103 8.585 20.045 19.184 28.962 23.885l25.993 50.714c23.116 11.938 28.663-.99 42.222-13.218 9.464-8.542 15.471-13.858 23.877-23.86 9.864-11.733 13.278-18.355 20.463-30.677 7.39-12.663 11.28-20.19 17.058-34.082 4.958-11.938 6.775-18.09 10.231-30.677 1.255-4.557 2.202-8.081 3.414-13.636 10.487-48.111 11.059-88.679-6.819-136.329-9.275-24.73-9.71-19.405-23.876-37.495-23.321-29.782-25.31-40.116-61.397-57.942M460.836 672.067l-1.938-3.131c-3.652-.154-8.311-.999-11.707-.274-38.4-3.729-51.559 7.39-47.676 46.046.375 3.746 2.799 6.153 3.337 8.482 11.008 47.616 53.393 105.088 95.505 129.52 1.365.793 2.585 3.455 6.63 5.205 24.875 10.718 45.03 9.71 61.116-14.191 7.16-10.633 7.944-23.458 12.347-31.966 3.636-7.014 18.023-16 23.791-27.358 4.617-9.096 6.955-29.133 10.215-34.1 1.442-2.192 10.01-9.454 15.513-16.878 3.363-4.54 6.366-5.547 10.232-13.636 5.632-11.785 10.513-22.434 1.8-34.176-13.49-4.933-25.873-12.04-39.321-16.948-3.678-1.34-4.105-2.09-10.232-3.404-20.104-4.327-30.617-5.47-48.972 6.545-13.219-7.825-32.88-12.254-48.23-9.95-7.229 1.084-12.528 6.724-18.612 8.687-5.59 1.8-8.883 1.05-13.798 1.536zm235.349 47.71c-7.646-8.448-7.228-12.527-22.264-10.3-12.689 1.878-29.909 34.56-31.812 46.772-.981 6.306 2.56 12.74 1.391 14.694-6.622 11.068-17.911 16.18-24.192 33.92-4.753 13.44-.41 24.14-1.672 28.834-1.195 4.446-7.45 4.199-9.413 6.076-2.312 2.219-12.57 21.495-13.755 25.455-4.916 16.367-.88 36.138 13.09 47.053 6.203 4.847 14.054 5.853 20.394 8.584 48.7 20.958 114.953 25.156 163.72 3.405 12.28-5.478 15.566-4.71 20.464-17.041.11-.282 2.876-.18 3.507-4.881 2.253-16.854-12.843-41.071-27.383-49.647 8.14-12.126-5.923-37.171-13.645-47.719-8.5-11.613-18.373-15.189-23.51-20.812-.495-.546-1.868-8.55-3.78-13.27-2.713-6.707-4.36-14.993-6.818-20.446-5.538-12.288-29.517-32.503-44.34-30.677z"/><path fill="#b2212c" d="m754.169 378.948-10.232-6.81c14.558 1.22 32.214-10.82 42.693-20.394 14.48-13.244 20.736-38.835 18.705-58.001 13.21 3.243 8.84 36.053 10.231 37.495 18.227 2.185 29.372-18.688 47.744-20.463l3.422 51.124c16.17 1.98 24.986-17.724 40.926-17.033-20.83 20.13-30.464 37.248-34.022 66.526l-.086 32.307c-32.008-27.784-77.32-56.354-119.381-64.76z"/><path fill="#b7232c" d="M720.061 641.39c5.555-17.791 15.25-37.648 34.005-44.543-5.017-18.1 13.415-44.732 27.538-55.86 13.44-10.59 9.984-4.368 18.679-18.73 5.888-9.728 23.774-31.266 34.603-33.681 6.698-1.493 26.206-.17 31.232 3.584 1.1.828.69 4.429 4.027 6.076 8.84 8.584 5.684 16.87 8.355 27.443 13.457 10.752 36.462 7.876 32.605 30.49h20.438c14.165 18.09 14.6 12.774 23.876 37.495l-10.24 25.506c28.407 15.89 26.342 47.804 3.61 68.224 11.92 11.955 15.283 26.146 13.448 42.607-1.212 5.555-2.159 9.08-3.413 13.636-5.419-1.348-19.78 13.108-20.455 15.36-2.44 8.141 13.577 5.914 10.223 15.318-5.777 13.9-9.668 21.418-17.058 34.082-16.042 4.3-35.234 3.439-30.575 25.446l10.112 5.223c-8.405 9.992-14.413 15.317-23.876 23.859-8.457-6.238-15.223 2.474-25.122-.461-7.023-2.074-23.748-18.79-29.517-25.037-7.22-7.816-2.62-6.23-13.576-11.998-8.926-4.702-23.868-15.3-28.963-23.884-3.78-6.358-3.558-14.038-5.145-20.42l3.405-13.628c-2.347 34.406 39.424 67.814 54.69 22.152 0-10.837-17.596-24.721-27.23-27.435-12.032-3.387-23.637.342-34.27-1.536-9.549-1.69-24.405-14.498-30.763-22.092-13.2-15.761-29.124-40.56-34.048-59.708l3.405-20.446c-.853 14.438-1.212 28.757 12.373 37.06 18.356 2.56 46.03-.23 30.174-23.33-13.67-19.917-45.875-2.32-42.538-30.771zm114.825-142.583c-14.6 3.226-23.237 21.385-25.899 34.825 4.207 19.507 63.761 7.467 53.897-26.445-3.013-10.368-18.936-10.376-27.998-8.371zm1.314 81.059c8.661 1.34 16.4 6.843 25.352 7.21 20.856.87 44.604-17.203 30.652-37.615-11.87-17.356-28.97-9.574-43.767.376-12.45 8.362-14.268 14.873-12.237 30.029m-49.195-33.477c-8.448 2.458-25.916 29.833-26.163 38.801-.188 6.827 10.769 10.838 16.11 11.307 8.15.717 35.696-13.55 38.188-21.982 5.913-20.01-7.467-34.142-28.135-28.126m96.777 57.498c8.9-.913 14.754 9.19 22.092 10.3 9.31 1.408 32.555-2.202 35.474-12.416v-23.006c-9.421-13.986-25.088-16.947-37.223-3.96-2.67 2.868-3.874 7.237-6.63 10.42-2.603 3.012-17.86 15.163-13.713 18.67zm-85.103 27.11c38.784 17.366 83.055-22.971 31.718-43.75-21.444 6.554-37.035 19.533-31.718 43.75m-45.79-23.262c-7.723 2.262-37.47 35.2-20.591 40.175 10.197 3.013 45.525-.76 48.82-11.972 5.392-18.33-9.772-33.613-28.23-28.203m86.613 43.776c6.588-.392 9.046 6.076 15.207 6.998 23.569 3.524 61.55-9.686 40.925-37.479-5.973-8.055-17.33-9.224-26.769-6.476-5.026 1.459-34.474 32.879-29.363 36.957m83.9-16.537-25.89 31.76c11.025 17.665 43.673 18.211 54.007-.272 5.99-10.718 4.984-17.357-2.824-26.88l-25.285-4.608zM800.76 645.265c-8.636 1.971-32.316 17.937-29.304 28.186 4.95 16.802 51.619 25.07 57.268-.23 3.336-14.951-13.065-31.352-27.964-27.947zm61.525 24.073c-9.685 1.715-32.503 17.442-29.448 27.997 9.728 13.278 30.054 16.222 45.423 15.198 27.759-17.698 18.884-49.382-15.966-43.204zm54.443 30.557c-5.982 1.349-28.152 14.618-26.044 21.368 11.042 15.761 48.213 34.876 59.69 12.228 11.248-22.178-11.818-38.502-33.646-33.604zm-149.94 3.525c-5.913 1.032-16.392 3.917-16.187 11.247.154 9.301 20.693 29.875 29.687 31.838 19.687 4.3 31.326-9.054 28.527-28.519-2.227-15.454-29.67-16.725-42.026-14.575zm64.555 16.793c-9.036 5.189-12.228 12.92-15.394 22.306-1.416 8.739 27.588 21.402 35.362 21.769 17.297.81 30.49-10.615 25.225-28.749-3.422-11.793-33.775-19.251-45.184-15.326zm96.256 44.39c-.588-.597-13.755-6.416-15.368-6.783-13.201-2.978-23.97.665-33.63 9.6-7.842 7.253-4.224 11.178 1.69 18.91 14.037 18.346 34.781 28.125 50.816 6.306 1.69-5.854.52-23.987-3.508-28.032m-69.043 33.75c-12.868 12.442-26.846 18.406-13.91 37.214 1.767 2.568 13.253 14.54 15.173 15.514 19.994 10.146 36.224-10.18 30.353-30.328-1.86-6.374-25.668-23.706-31.616-22.4"/><path fill="#d6323d" d="M781.458 760.678c10.633 1.886 22.238-1.843 34.27 1.536 9.634 2.714 27.239 16.598 27.23 27.435-15.266 45.662-57.037 12.254-54.69-22.152l-3.405 13.627c-.068-.29-2.705-.529-3.464-4.94-.828-4.788.52-10.505.05-15.514z"/><path fill="#d83641" d="M720.061 641.39c-3.345 28.46 28.86 10.855 42.539 30.772 15.855 23.1-11.819 25.899-30.174 23.33-13.585-8.303-13.227-22.622-12.373-37.06l-3.405 20.446c-.077-.29-2.902-.632-3.473-4.915-.88-6.588 2.261-23.032 4.079-30.183.452-1.775 2.722-2.116 2.807-2.39"/><path fill="#d42f39" d="M887.195 862.933c-13.55 12.237-19.106 25.157-42.223 13.218l-25.992-50.713c10.948 5.768 6.357 4.181 13.576 11.998 5.769 6.246 22.494 22.954 29.517 25.037 9.899 2.926 16.665-5.778 25.122.46"/><path fill="#da323e" d="M931.534 556.186h-20.437c3.857-22.622-19.149-19.747-32.606-30.499-2.67-10.572.486-18.85-8.354-27.443 36.087 17.826 38.067 28.16 61.397 57.942"/><path fill="#d7373f" d="M962.229 730.01c1.826-16.453-1.528-30.652-13.449-42.607 22.733-20.412 24.806-52.335-3.61-68.224l10.24-25.506c17.878 47.65 17.315 88.217 6.819 136.328z"/><path fill="#cf323d" d="M931.534 808.397c-7.185 12.322-10.598 18.935-20.463 30.677l-10.112-5.222c-4.659-22.008 14.533-21.154 30.575-25.447z"/><path fill="#d0353e" d="M958.824 743.637c-3.465 12.578-5.274 18.74-10.232 30.678 3.345-9.404-12.663-7.177-10.223-15.318.675-2.252 15.036-16.7 20.455-15.36"/><path fill="#da323e" d="M836.2 579.866c-2.031-15.156-.214-21.667 12.237-30.03 14.805-9.94 31.906-17.731 43.767-.375 13.952 20.412-9.796 38.477-30.652 37.615-8.951-.375-16.69-5.87-25.352-7.21"/><path fill="#dc3541" d="M831.344 720.213c11.41-3.925 41.762 3.533 45.184 15.326 5.265 18.134-7.919 29.56-25.224 28.749-7.774-.367-36.779-13.03-35.362-21.769 3.166-9.386 6.357-17.117 15.394-22.306z"/><path fill="#d9323d" d="M862.286 669.338c34.859-6.179 43.725 25.506 15.966 43.204-15.368 1.024-35.695-1.92-45.423-15.198-3.046-10.556 19.772-26.283 29.449-27.998z"/><path fill="#d83442" d="M927.6 764.604c4.037 4.045 5.197 22.178 3.508 28.032-16.043 21.82-36.78 12.04-50.816-6.306-5.914-7.732-9.532-11.657-1.69-18.91 9.66-8.935 20.429-12.578 33.63-9.6 1.621.367 14.78 6.186 15.368 6.784"/><path fill="#da3744" d="M916.729 699.895c21.828-4.906 44.885 11.427 33.647 33.605-11.478 22.647-48.649 3.524-59.69-12.229-2.109-6.758 20.061-20.027 26.043-21.367z"/><path fill="#db343f" d="M858.557 798.353c5.948-1.306 29.756 16.026 31.616 22.4 5.871 20.156-10.36 40.482-30.353 30.328-1.92-.973-13.406-12.954-15.172-15.514-12.937-18.808 1.04-24.772 13.91-37.214"/><path fill="#dc3542" d="M798.679 630.997c-5.317-24.217 10.274-37.196 31.718-43.75 51.337 20.779 7.066 61.116-31.718 43.75"/><path fill="#dc3540" d="M839.502 651.511c-5.111-4.078 24.337-35.498 29.363-36.957 9.447-2.748 20.796-1.58 26.77 6.476 20.625 27.793-17.357 41.003-40.926 37.479-6.161-.922-8.62-7.39-15.207-6.998"/><path fill="#d7313e" d="M766.79 703.42c12.356-2.15 39.8-.88 42.026 14.575 2.8 19.456-8.84 32.819-28.527 28.518-8.994-1.963-29.533-22.536-29.687-31.838-.196-7.33 10.274-10.223 16.188-11.247z"/><path fill="#dc3743" d="M883.782 603.887c-4.148-3.507 11.11-15.659 13.713-18.671 2.756-3.183 3.95-7.552 6.63-10.42 12.135-12.987 27.802-10.026 37.223 3.96v23.006c-2.919 10.215-26.164 13.824-35.474 12.416-7.338-1.11-13.192-11.213-22.092-10.3z"/><path fill="#da3641" d="M787.005 546.39c20.66-6.017 34.048 8.115 28.135 28.125-2.492 8.431-30.03 22.699-38.187 21.982-5.333-.47-16.29-4.488-16.111-11.307.247-8.968 17.715-36.343 26.163-38.8"/><path fill="#dd3741" d="M800.76 645.265c14.9-3.396 31.31 12.996 27.965 27.947-5.65 25.301-52.327 17.032-57.268.23-3.012-10.248 20.66-26.206 29.304-28.185z"/><path fill="#d8353d" d="m923.402 634.974 25.284 4.608c7.808 9.523 8.815 16.162 2.825 26.88-10.326 18.483-42.983 17.937-54.008.273l25.89-31.761z"/><path fill="#da3844" d="M834.886 498.807c9.062-2.005 24.985-1.988 27.998 8.372 9.864 33.911-49.69 45.952-53.897 26.444 2.662-13.431 11.307-31.598 25.899-34.824z"/><path fill="#db3540" d="M752.889 607.735c18.449-5.41 33.613 9.874 28.228 28.203-3.294 11.213-38.622 14.985-48.82 11.972-16.878-4.975 12.878-37.913 20.592-40.175"/><path fill="#b6232c" d="M610.92 389.171c13.986 21.53 42.76 7.748 59.69 26.846 9.097-9.754 19.533-11.008 32.402-9.805 4.795 2.373 9.079 1.63 15.41 6.759 18.928 15.351 13.782 48.827 3.329 68.207-1.758 3.26-7.28 5.427-8.278 8.977-1.083 3.865 2.79 11.895 3.183 18.304l-3.038 2.065-.375 11.57v3.406c-.094-.29-2.987-.82-3.456-4.924-1.118-9.728 1.297-25.003-10.078-30.967-8.311-4.361-16.205 1.288-24.15 3.345-12.108 11.23-5.042 52.147 9.131 56.175 6.093 1.732 14.541-8.099 18.322.221-1.084 1.16-6.375 6.63-6.819 6.819-2.073.87-7.244-.59-10.24 0l3.422 30.668c-2.261 5.658-4.386 11.46-6.818 17.041-8.55-5.88 3.413-18.56 3.473-25.591.034-3.712-7.287-17.357-10.163-20.548-14.916-16.52-37.359-4.992-34.227 17.169 2.278 16.145 20.053 32.4 34.108 39.193-3.79 3.038-6.546 3.15-6.819 3.405-14.173.794-23.842-17.084-36.369-19.891-6.195-1.391-13.184-.802-19.481-.128-18.074 5.256-2.646 29.815 8.047 35.405 7.372 3.857 21.034 2.03 27.34 8.465-11.366 4.813-23.398 4.104-35.746 3.336-4.949-.307-9.642-3.524-17.126-3.524-10.513 0-18.74 4.642-30.848 3.73-18.842-1.417-14.626-8.56-34.662-.82-11.82 4.557-24.448 4.198-36.66 7.646l-35.96-17.178-6.612-18.952c-32.205-2.919-49.912-14.242-44.544-49.22 1.245-3.934 1.39-8.124 3.413-13.637 10.82-8.636 18.765-16.392 34.108-13.636 1.382-6.23-5.052-10.112-6.29-15.864-1.288-5.99 2.16-15.3-3.942-18.218 7.714-11.981 11.665-16.512 20.463-27.264 11.546-3.397 23.168-6.409 34.1 0-4.088-28.39 17.757-55.928 47.922-46.183 10.607 3.43 16.018 20.805 21.99 18.91 11.939-3.789-.75-19.063-1.68-25.549-1.331-9.3 1.04-16.938 3.396-25.574 8.38-3.388 11.853-4.531 20.463-6.818l2.398 4.07c-24.235 25.336-1.57 50.381 26.564 57.293 3.772-2.483 4.113-4.608 5.137-8.542 3.277-12.612 4.224-27.494 2.995-40.465l-23.45-15.76c5.599-.41 11.418.067 17.059 0zm51.157 92.04c1.988-14.677 7.1-42.214 3.064-55.901-4.199-14.25-32.205-8.696-38.955 4.685-4.915 9.736 4.343 37.768 11.938 42.76 1.715 1.127 11.008 5.547 13.739 6.724 3.643 1.57 6.17 2.373 10.214 1.733m36.472-64.306c-10.676 1.8-17.767 7.133-19.405 18.278-2.407 16.41 4.292 52.71 27.375 40.994 10.248-5.205 17.1-36.036 11.93-46.19-2.646-5.198-13.355-14.183-19.892-13.082zM549.505 491.4c4.293-30.695-6.331-54.938-41.088-46.157-14.506 18.534-4.778 37.17 12.502 49.194zm22.614-33.63c-9.233 2.654-13.833 19.08-11.827 28.015 1.86 8.311 21.7 35.584 31.564 32.69 10.343-3.037 14.592-39.227 11.81-48.767-3.353-11.478-21.051-14.942-31.547-11.93zm58.078 23.91c-32.18 7.356-16.657 51.823 6.306 61.082l18.423-12.476c.683-19.72 4.753-35.157-13.2-47.48-3.602-2.542-7.51-2.048-11.53-1.126m-125.022 47.19c4.855-3.815-13.765-35.892-19.166-40.449-28.843-15.112-54.417 18.313-26.94 40.55 17.442 14.115 27.512 1.656 46.106-.11zm60.902-16.504c-.665-.836-17.212-9.882-18.773-10.24-9.959-2.287-24.022 9.301-25.208 18.219-2.355 17.715 21.12 36.83 36.267 42.419 4.489 1.655 8.311-7.049 9.745-10.155 1.81-3.9 5.103-11.494 5.41-15.292.188-2.295-6.63-23.927-7.44-24.943zm33.51 20.343c-6.425 1.178-17.16 12.997-18.875 18.842-6.23 21.257 18.159 39.586 38.314 34.876 10.394-3.047 11.077-22.81 8.525-31.522-.307-1.05-11.98-16.401-13.2-17.485-3.448-3.047-10.181-5.547-14.755-4.71zm-105.924 10.275c-4.59 1.348-14.498 14.13-15.385 18.91-3.994 21.495 39.475 36.3 54.314 26.786 12.604-8.082-13.423-42.974-22.707-45.705-3.993-1.17-12.22-1.17-16.213 0zm-71.62 10.214c-10.325 2.97-10.308 19.72-9.037 28.63 2.919 20.462 46.626 22.86 56.516 8.584 6.904-9.967-19.106-36.548-27.357-37.726-4.702-.666-15.847-.725-20.122.503zm129.596 30.677c-17.681 13.628-16.623 29.32 1.374 42.087 14.873 10.547 44.322 14.208 40.251-9.524-3.396-19.805-21.026-36.855-41.634-32.563zm-71.612 17.041c-9.916 5.129-10.633 14.217-8.371 24.56 4.437 20.274 33.05 16.588 48.853 12.484 4.31-1.118 8.593.887 11.964-5.12-7.91-22.187-27.955-37.59-52.446-31.924"/><path fill="#d8333e" d="m593.862 389.171 23.45 15.761c1.228 12.98.28 27.853-2.996 40.465-1.024 3.926-1.357 6.059-5.137 8.542-28.134-6.912-50.799-31.957-26.564-57.293l-2.398-4.07c4.24-1.126 5.205-2.79 13.645-3.405"/><path fill="#d72f3b" d="M457.43 634.573c-3.02 3.524-14.463 6.28-18.84 6.741-11.546 1.212-34.151.444-40.841-10.163-2.134-3.38-5.573-14.584-5.248-18.569 1.433-17.561 8.943-30.907 13.764-46.173-5.368 34.97 12.34 46.301 44.544 49.22l6.613 18.952z"/><path fill="#d32e3c" d="M713.243 525.508c1.536 4.787-6.443 19.79-10.231 23.86-3.78-8.32-12.229 1.51-18.322-.222-14.173-4.028-21.23-44.945-9.13-56.175 7.944-2.057 15.83-7.706 24.15-3.345 11.374 5.964 8.96 21.23 10.077 30.967.47 4.105 3.362 4.634 3.456 4.924z"/><path fill="#d92f39" d="M559.754 399.403c-2.364 8.635-4.736 16.273-3.396 25.574.93 6.485 13.619 21.76 1.68 25.549-5.973 1.894-11.383-15.48-21.99-18.91-30.165-9.754-52.01 17.792-47.923 46.182-10.931-6.408-22.553-3.396-34.1 0 31.506-38.528 58.574-59.349 105.737-78.387z"/><path fill="#d32e3c" d="M682.54 603.895c-2.74 6.29.137 4.643-6.818 10.223-14.054-6.792-31.82-23.048-34.108-39.193-3.132-22.17 19.311-33.698 34.227-17.17 2.876 3.184 10.198 16.837 10.164 20.549-.06 7.031-12.024 19.712-3.473 25.591z"/><path fill="#d8303d" d="M668.904 617.532c-3.473 3.302-5.146 14.029-7.441 16.426-.52.547-11.196 6.656-13.022 7.433-6.306-6.443-19.968-4.608-27.34-8.465-10.685-5.59-26.121-30.148-8.048-35.405 6.298-.674 13.287-1.263 19.482.128 12.527 2.808 22.195 20.685 36.369 19.891z"/><path fill="#df3f45" d="M703.012 406.22c-12.869-1.202-23.305.043-32.402 9.806-16.93-19.098-45.704-5.317-59.69-26.846 34.739-.427 61.38 1.86 92.092 17.04"/><path fill="#d7373e" d="M433.554 505.054c6.102 2.918 2.654 12.228 3.943 18.219 1.237 5.751 7.671 9.634 6.289 15.863-15.334-2.748-23.279 5.01-34.108 13.636 7.97-21.768 11.879-29.081 23.876-47.718"/><path fill="#d32e3c" d="M696.185 556.186c-6.477 8.37-1.434 19.61-3.849 28.527-.469 1.74-2.867 1.894-2.97 2.15l-3.421-30.669c2.995-.597 8.175.862 10.24 0zm17.058-34.083.375-11.57 3.038-2.066c.282 4.676 1.553 12.903-3.413 13.636"/><path fill="#d33038" d="M505.175 528.87c-18.594 1.758-28.664 14.225-46.106.111-27.477-22.238-1.903-55.663 26.94-40.55 5.401 4.557 24.021 36.625 19.166 40.448z"/><path fill="#d9313e" d="M566.077 512.367c.81 1.024 7.629 22.656 7.441 24.943-.307 3.797-3.6 11.383-5.41 15.292-1.442 3.106-5.265 11.818-9.745 10.154-15.147-5.59-38.622-24.704-36.267-42.419 1.186-8.917 15.25-20.497 25.208-18.219 1.561.359 18.108 9.404 18.773 10.24z"/><path fill="#d9313d" d="M422.043 553.199c4.275-1.229 15.42-1.178 20.122-.504 8.243 1.17 34.26 27.76 27.357 37.726-9.89 14.277-53.597 11.87-56.516-8.584-1.271-8.909-1.288-25.651 9.037-28.63z"/><path fill="#da3440" d="M572.119 457.77c10.496-3.012 28.202.453 31.547 11.93 2.782 9.54-1.467 45.73-11.81 48.768-9.864 2.902-29.704-24.37-31.564-32.69-1.997-8.944 2.594-25.37 11.827-28.016z"/><path fill="#da333f" d="M662.077 481.212c-4.045.64-6.562-.162-10.214-1.733-2.73-1.177-12.024-5.597-13.739-6.724-7.595-5-16.853-33.032-11.938-42.76 6.75-13.38 34.756-18.927 38.955-4.685 4.036 13.687-1.076 41.216-3.064 55.902"/><path fill="#d93240" d="M630.197 481.681c4.019-.922 7.927-1.416 11.528 1.126 17.954 12.323 13.884 27.75 13.201 47.48l-18.423 12.476c-22.963-9.259-38.486-53.726-6.306-61.082"/><path fill="#da333f" d="M551.639 583.876c20.6-4.292 38.238 12.766 41.634 32.563 4.07 23.732-25.378 20.07-40.252 9.524-17.997-12.766-19.055-28.459-1.374-42.087z"/><path fill="#db343f" d="M493.663 542.985c3.994-1.17 12.22-1.17 16.214 0 9.284 2.722 35.31 37.623 22.707 45.704-14.84 9.506-58.3-5.3-54.315-26.786.888-4.779 10.803-17.562 15.386-18.91z"/><path fill="#d7353f" d="m549.505 491.4-28.586 3.038c-17.28-12.023-27.008-30.66-12.502-49.194 34.757-8.773 45.38 15.462 41.088 46.157"/><path fill="#da303e" d="M599.588 532.71c4.582-.836 11.315 1.664 14.754 4.71 1.22 1.085 12.894 16.427 13.2 17.486 2.56 8.712 1.87 28.484-8.524 31.522-20.164 4.71-44.544-13.62-38.315-34.876 1.707-5.845 12.45-17.664 18.876-18.842z"/><path fill="#da3642" d="M698.549 416.905c6.536-1.101 17.245 7.884 19.89 13.081 5.172 10.155-1.68 40.986-11.929 46.191-23.074 11.725-29.781-24.576-27.375-40.994 1.639-11.153 8.73-16.478 19.405-18.278z"/><path fill="#d83340" d="M480.027 600.917c24.49-5.666 44.535 9.737 52.446 31.924-3.37 6.016-7.655 4.002-11.964 5.12-15.804 4.104-44.416 7.79-48.853-12.485-2.262-10.342-1.545-19.439 8.371-24.559"/><path fill="#b8232d" d="m590.448 665.25-31.76 7.458c-19.67 8.747-3.747 40.5 14.728 31.744 4.3-2.04 34.03-21.777 34.073-23.867l-6.81-11.93c13.45 4.907 25.831 12.015 39.322 16.947 8.713 11.742 3.823 22.392-1.8 34.176v-30.677c-15.556-4.881-51.303 16.264-51.268 32.384.017 10.01 12.177 19.66 22.195 18.91l18.841-6.98c-5.504 7.423-14.071 14.694-15.513 16.878-3.26 4.967-5.598 24.994-10.215 34.1-5.768 11.357-20.155 20.343-23.79 27.357-4.404 8.508-5.197 21.334-12.348 31.966-16.086 23.902-36.241 24.91-61.116 14.191-4.045-1.74-5.265-4.412-6.63-5.205l-3.567-27.11c-26.3-.59-39.697-23.416-37.556-47.676-21.964-5.982-40.558-28.476-30.506-51.32l-23.876-3.413c-.538-2.338-2.962-4.736-3.337-8.482-3.874-38.656 9.276-49.775 47.676-46.046-5.632 1.203-12.34 2.202-18.722 3.456-27.136 5.308-30.004 23.279-9.856 40.43 11.528 3.372 38.442-5.58 43.989-16.554 2.483-4.924.623-11.127 4.83-15.437l-13.406-5.077c-.973-5.419 3.302-3.055 6.818-3.396 4.915-.487 8.21.264 13.798-1.536 6.076-1.963 11.384-7.603 18.612-8.687 15.351-2.304 35.003 2.125 48.23 9.95 18.355-12.015 28.868-10.872 48.973-6.545zm-108.655 10.718c-10.632 10.692-1.066 39.612 17.562 36.54 4.65-.768 29.679-10.01 31.565-13.014l4.796-18.568c-2.45-11.742-46.388-12.519-53.914-4.95zm49.647 37.666c-40.78 7.228-23.279 61.432 11.256 45.33 33.613-15.677 32.307-53.044-11.256-45.33m-40.03 9.685c-8.209-.853-13.252-7.27-22.05-7.21-20.369.145-48.12 21.495-30.711 41.182 11.503 13.004 35.38 5.64 46.123-5.078 3.396-3.387 8.67-27.008 6.638-28.894m91.043 24.27c-5.743 1.305-27.503 16.648-29.082 22.04-4.497 15.327 4.36 23.084 15.334 31.702 15.59 4.48 32.811-26.769 34.944-39.586 1.997-12.023-10.077-16.674-21.188-14.148zm-53.521 26.862c-15.343-4.292-20.933-12.723-38.443-9.685-37.129 6.434-22.622 52.915 5.632 46.498 10.581-2.398 38.187-23.185 32.802-36.813zm9.216 30.993c-20.984 4.71-38.938 33.826-17.127 46.771 21.683 12.869 39.979-13.294 45.167-32.469l-1.152-4.557c-3.976-6.476-19.558-11.392-26.888-9.745"/><path fill="#d22a35" d="m402.852 723.191 23.876 3.414c-10.052 22.835 8.542 45.337 30.506 51.32-2.141 24.26 11.256 47.086 37.556 47.675l3.567 27.11c-42.112-24.43-84.497-81.894-95.505-129.519"/><path fill="#d93640" d="M460.836 672.068c-3.516.35-7.791-2.022-6.819 3.397l13.406 5.077c-4.207 4.31-2.346 10.521-4.83 15.437-5.546 10.982-32.46 19.934-43.989 16.554-20.147-17.152-17.28-35.123 9.856-40.43 6.383-1.246 13.09-2.253 18.722-3.457 3.388-.725 8.056.128 11.708.273l1.937 3.132z"/><path fill="#d5323e" d="m627.97 733.414-18.842 6.98c-10.018.752-22.178-8.9-22.195-18.91-.035-16.119 35.712-37.273 51.276-32.383v30.677c-3.865 8.09-6.877 9.097-10.24 13.636"/><path fill="#d83741" d="m600.68 668.655 6.81 11.93c-.043 2.082-29.773 21.828-34.074 23.867-18.466 8.755-34.39-22.997-14.729-31.744l31.761-7.458c6.136 1.323 6.554 2.065 10.232 3.405"/><path fill="#db333f" d="M531.44 713.634c43.554-7.714 44.869 29.653 11.256 45.33-34.535 16.102-52.028-38.102-11.256-45.33"/><path fill="#da3440" d="M528.932 774.451c5.384 13.628-22.23 34.415-32.803 36.813-28.253 6.417-42.76-40.064-5.632-46.498 17.51-3.038 23.1 5.393 38.443 9.685z"/><path fill="#dc323f" d="M491.41 723.32c2.031 1.885-3.242 25.506-6.638 28.893-10.752 10.727-34.629 18.082-46.123 5.078-17.408-19.687 10.342-41.037 30.711-41.182 8.798-.068 13.841 6.357 22.05 7.21"/><path fill="#d83741" d="M538.148 805.444c7.33-1.647 22.912 3.269 26.888 9.745l1.152 4.557c-5.188 19.183-23.484 45.338-45.167 32.47-21.811-12.946-3.857-42.061 17.127-46.772"/><path fill="#db3340" d="M582.453 747.588c11.101-2.517 23.185 2.125 21.188 14.149-2.133 12.817-19.354 44.066-34.944 39.586-10.965-8.619-19.832-16.376-15.335-31.702 1.58-5.384 23.34-20.736 29.082-22.041z"/><path fill="#db343f" d="M481.793 675.968c7.527-7.57 51.473-6.784 53.914 4.95l-4.796 18.568c-1.886 2.995-26.914 12.245-31.565 13.013-18.628 3.08-28.194-25.847-17.561-36.54z"/><path fill="#b5232d" d="M696.185 719.778c2.551 2.825 6.69 3.44 6.997 5.419-.29 13.619.88 30.242 3.789 43.452 3.968 17.98 22.886 20.505 31.966 5.751 4.958-8.064-7.92-17.74 1.587-23.945 2.458 5.453 4.113 13.748 6.818 20.446l3.396 16.88c-27.895 3.515-15.214 49.083.094 59.707 14.277 9.907 30.345.52 30.874-16.939l-7.074-25.566c7.714 10.548 21.785 35.584 13.645 47.719-1.545 2.295-11.956 7.048-13.244 12.322l3.353 40.158 15.002 8.977 18.765-6.93c-4.898 12.332-8.184 11.564-20.463 17.042-10.027-4.608-20.625-8.875-31.88-6.272-3.943.913-7.408 4.881-11.265 5.76-12.527 2.842-24.678-4.847-33.595-12.928-17.332 21.811-44.664 15.676-61.398-3.576-6.724 7.527-14.523 14.627-25.583 13.611-6.348-2.73-14.2-3.737-20.394-8.584-13.97-10.915-18.006-30.678-13.09-47.053 1.194-3.968 11.451-23.245 13.755-25.455 1.963-1.886 8.21-1.639 9.413-6.076 1.263-4.693-3.08-15.394 1.672-28.834 6.272-17.74 17.562-22.852 24.192-33.92 1.17-1.954-2.372-8.388-1.39-14.694 1.902-12.203 19.122-44.894 31.811-46.772 15.028-2.227 14.61 1.852 22.264 10.3zm-25.259-3.166c-16.128 4.745-29.85 53.94-6.716 60.68 33.536 9.771 25.6-18.022 21.82-38.843-1.331-7.322-.188-26.223-15.104-21.837m-27.58 61.107c-19.669 17.212-32.23 70.648 6.887 64.837 16.623-2.466 17.323-25.66 15.334-39.347-.819-5.632-16.264-27.205-22.22-25.49m51.414 10.326c-19.209 12.962-14.157 32.384-11.793 52.31 24.618 27.724 47.155 6.732 39.953-26.284-2.475-11.357-17.929-21.76-28.152-26.026zm-75.094 57.907c-14.395 12.69-27.306 39.39-10.59 54.605 15.975 14.532 33.349 4.736 35.883-15.514 2.637-21.111-6.767-31.249-25.293-39.091m57.763 6.955c-2.996 3.575-10.326 8.09-11.512 12.151-1.4 4.787-1.4 31.855 0 36.634 5.419 18.517 41.011 18.713 43.938-9.882 2.262-22.024-18.526-27.801-32.426-38.912zm54.929 3.387c-20.506 12.143-8.354 26.48-8.465 45.415 20.215 29.235 57.446-.896 38.707-28.45-6.98-10.257-19.311-12.357-30.242-16.956z"/><path fill="#d62d3c" d="M791.69 924.28c-48.768 21.742-115.02 17.553-163.72-3.405 11.059 1.015 18.858-6.085 25.582-13.611 16.734 19.251 44.066 25.395 61.398 3.575 8.917 8.082 21.068 15.77 33.595 12.928 3.857-.878 7.322-4.846 11.264-5.76 11.256-2.602 21.854 1.664 31.88 6.272"/><path fill="#d8343e" d="M747.35 770.91c1.912 4.719 3.286 12.723 3.781 13.27 5.137 5.623 15.01 9.207 23.51 20.812l7.073 25.566c-.52 17.46-16.597 26.854-30.873 16.939-15.309-10.633-27.99-56.192-.094-59.708z"/><path fill="#dc3d45" d="m812.153 907.238-18.765 6.93-15.002-8.978-3.353-40.157c1.288-5.274 11.7-10.027 13.244-12.323 14.54 8.585 29.636 32.794 27.383 49.647-.631 4.702-3.396 4.6-3.507 4.881"/><path fill="#d8343e" d="M740.524 750.455c-9.506 6.204 3.37 15.872-1.587 23.945-9.08 14.754-27.998 12.228-31.966-5.751-2.91-13.202-4.079-29.824-3.789-43.452-.307-1.98-4.437-2.594-6.997-5.419 14.822-1.826 38.8 18.39 44.34 30.677"/><path fill="#db3847" d="M694.76 788.045c10.223 4.266 25.677 14.669 28.151 26.026 7.202 33.016-15.326 54.016-39.953 26.283-2.364-19.925-7.407-39.347 11.793-52.31z"/><path fill="#d82f3c" d="M677.429 852.907c13.909 11.11 34.688 16.887 32.426 38.912-2.935 28.595-38.52 28.399-43.938 9.881-1.4-4.778-1.4-31.855 0-36.633 1.186-4.062 8.516-8.576 11.512-12.152z"/><path fill="#db3540" d="M732.358 856.294c10.93 4.608 23.27 6.7 30.242 16.956 18.739 27.554-18.492 57.694-38.707 28.45.11-18.935-12.04-33.271 8.465-45.414z"/><path fill="#d83540" d="M643.346 777.72c5.957-1.716 21.402 19.857 22.221 25.489 1.989 13.678 1.289 36.872-15.334 39.347-39.117 5.81-26.556-47.625-6.887-64.837"/><path fill="#db3742" d="M619.666 845.952c18.518 7.834 27.93 17.98 25.293 39.091-2.534 20.25-19.908 30.046-35.882 15.514-16.717-15.215-3.806-41.916 10.59-54.605"/><path fill="#d7353e" d="M670.926 716.612c14.925-4.394 13.782 14.515 15.104 21.837 3.78 20.83 11.716 48.614-21.82 38.844-23.133-6.742-9.412-55.936 6.716-60.68"/></svg>