<svg xmlns="http://www.w3.org/2000/svg" viewBox="0 0 1024 1024"><path fill="#f56f38" d="M414.002 96.247c-12.229 2.876-24.431 6.255-36.241 10.582-12.46 4.565-29.022 14.2-41.55 16.341-13.67 2.33-29.968-5.171-32.511 15.155-.23 1.844 1.408 3.482 1.34 3.9-.171.998-6.75 7.612-4.993 10.872 3.576 4.53 9.123 6.425 12.604 11.306 4.856 6.801 6.92 16.845 11.375 24.38 3.362 5.683 7.791 9.626 11.657 14.737-25.472 5.402-55.996 13.747-78.908 27.511-40.175 24.124-37.461 55.382-50.492 95.079-.81 2.475-4.104 6.784-4.847 9.617-.47 1.792-.47 3.772-.136 5.58 15.061 6.153 24.465 20.344 37.41 29.842 48.76 35.78 135.16 32.478 188.407 8.072 22.008-10.086 41.899-24.456 59.256-41.199 7.62 10.061 13.073 21.854 21.248 31.523 16.981 20.087 50.142 42.265 74.931 51.063 31.923 11.332 65.178 3.132 97.997 5.87 4.796.402 10.726 2.98 15.292 3.44 21.205 2.15 46.899-2.611 63.001-16.947 3.943-10.744-3.097-21.538-4.258-31.582-1.237-10.727.486-24.9 1.69-35.687 2.201-19.66 7.219-35.6 3.02-55.859-1.706-8.226-7.62-21.555-12.458-28.407-1.314-1.852-9.711-8.337-7.62-10.257 27.98-6.622 55.714-15.642 73.992-39.237 3.328-4.3 12.416-19.857 11.025-24.49-.725-2.398-4.685-2.56-5.888-4.344-.887-1.322-.956-2.91-2.509-5.145-4.275-6.153-20.113-6.306-28.945-13.62-17.066-14.14-28.134-30.788-48.785-44.006-52.48-33.587-130.748-25.532-180.992 9.182-5.666 3.917-20.864 19.95-27.409 15.334-1.775-1.246-7.774-11.119-10.086-13.738-8.252-9.344-20.054-19.934-30.678-26.36 12.698-.47 25.583.657 38.272-.034 67.593-3.686 134.878-19.763 202.59-8.422 68.13 11.417 125.696 42.709 174.575 90.18-3.627.939.009 5.069.947 6.716 41.19 72.038 61.014 171.11 53.607 253.013-14.985 165.845-120.9 315.682-271.3 385.911-99.2 46.32-209.912 47.608-317.108 40.594-93.798-6.136-156.228-24.38-237.96-70.221-1.596-.896-7.066-4.822-7.996-1.366C58.443 736.563 24.455 665.754 8.788 574.677c7.535 3.67 14.498-1.706 20.429-5.956l-3.32-4.924 5.888-9.548 4.105.17.162 2.082 5.086 1.152-8.568-19.558 5.163-2.577c4.975 15.036 12.373 22.613 20.062 3.891 8.516-20.727 11.912-48.503 17.809-70.733 17.16-64.708 41.241-123.912 80.537-178.261 14.703-20.335 52.566-61.62 55.262-85.205l1.707-11.913 17.775 1.596 2.602-2.586.052-7.526c8.985-10.957 6.8-21.726-5.112-28.945.58-4.156.077-5.436-2.534-8.542-4.71-5.615-10.803-10.385-16.196-15.3 61.994-32.316 125.738-53.658 196.258-38.767 2.33.495 6.86 1.058 8.055 3.012z"/><path fill="#ea5b2b" d="M124.55 801.135c.931-3.456 6.41.47 7.997 1.365 81.732 45.841 144.162 64.086 237.96 70.221 107.196 7.006 217.907 5.726 317.107-40.593 150.409-70.23 256.316-220.075 271.3-385.911 7.4-81.903-12.415-180.975-53.606-253.014-.938-1.638-4.574-5.777-.947-6.716 124.442 120.867 148.403 315.222 87.706 473.353-63.369 165.077-201.643 248.183-372.864 269.03-170.616 20.77-366.234-2.355-494.644-127.727z"/><path fill="#f4743b" d="M209.68 132.002c5.401 4.907 11.485 9.685 16.196 15.3 2.602 3.107 3.114 4.378 2.534 8.542-20.42-1.595-28.399 18.79-10.854 30.43l15.957-1.493-.051 7.526-2.603 2.586-17.775-1.596-1.706 11.913c1.254-10.991.23-22.11-12.775-23.843-10.36-1.382-31.266 10.027-39.936 16.256-55.048 39.561-96.546 108.032-115.046 172.698-13.782 48.18-21.76 117.308-5.914 165.205l-5.162 2.577 8.567 19.559-5.086-1.152-.162-2.082-4.105-.17-5.888 9.548 3.32 4.924c-5.93 4.25-12.885 9.634-20.429 5.956-2.32-13.483-5.478-27.58-6.886-41.634-.35-3.533.375-7.527.077-11.145.008.154 1.518.41 1.732 2.458.426 4.13-.342 8.67-.026 12.868l8.61-12.766-.896-2.611c-6.69-3.985-3.456-9.933-4.352-16.077-.597-4.062-2.816-8.627-3.37-12.808-2.961-.401-1.656 3.89-1.698 5.956-.086 4.224-.18 8.567 0 12.774-2.953-1.425-1.673-6.57-1.699-9.37C-1.119 345.78 68.871 205.407 209.68 132.003"/><path fill="#f56f38" d="M1.961 511.684c-.18-4.198-.085-8.55 0-12.774.043-2.065-1.263-6.357 1.698-5.956.555 4.18 2.774 8.746 3.37 12.808.905 6.153-2.337 12.092 4.353 16.077l.896 2.611-8.61 12.766c-.316-4.198.452-8.738.025-12.868-.213-2.048-1.715-2.304-1.732-2.458-.247-3.362.145-6.835 0-10.214z"/><path fill="#e6582b" d="M815.82 177.971c1.552 2.236 1.62 3.832 2.508 5.146 1.203 1.792 5.163 1.945 5.888 4.343 1.4 4.625-7.697 20.19-11.025 24.49-18.278 23.596-46.012 32.615-73.993 39.237-2.09 1.92 6.307 8.406 7.62 10.257 4.84 6.853 10.753 20.182 12.46 28.408 4.198 20.258-.82 36.198-3.021 55.859-1.204 10.786-2.927 24.96-1.69 35.686 1.16 10.044 8.2 20.839 4.258 31.582-16.102 14.336-41.796 19.098-63.002 16.947-4.556-.46-10.496-3.037-15.291-3.439-32.82-2.739-66.065 5.47-97.997-5.87-24.79-8.798-57.95-30.976-74.931-51.064-8.175-9.668-13.628-21.461-21.248-31.522-17.349 16.734-37.248 31.112-59.256 41.199-53.256 24.405-139.648 27.708-188.407-8.073-12.945-9.497-22.349-23.688-37.41-29.84-.333-1.81-.333-3.79.136-5.582.751-2.841 4.036-7.142 4.847-9.617 5.197 2.86 10.146 7.544 15.326 10.215 5.794 6.963 14.66 14.31 22.212 19.507 55.185 37.99 144.214 29.312 199.723-4.446 17.126-10.42 29.116-23.868 43.682-37.188 4.01 16.99 15.736 30.37 27.238 42.564 18.808 19.943 60.186 49.16 87.715 52.753 23.611 3.08 53.777-1.783 78.37-.042 5.478.384 13.312 3.037 18.688 3.447 11.853.905 35.695-3.763 45.696-10.42 8.934-5.947 1.997-14.25 1.126-22.783-1.945-19.175 4.01-38.852 5.146-57.78 1.894-31.504-.043-58.214-32.401-71.611l-15.352-5.077c1.553-2.578 3.67-2.048 5.82-2.688 33.596-10.036 74.906-16.137 98.065-44.954 4.122-5.129 9.07-12.757 8.482-19.61z"/><path fill="#f79d6e" d="M228.41 155.836c11.904 7.219 14.097 17.988 5.112 28.945l-15.958 1.493c-17.544-11.648-9.566-32.034 10.855-30.43z"/><path fill="#959139" d="M488.916 104.755c10.624 6.417 22.434 17.016 30.677 26.36 2.313 2.62 8.32 12.492 10.086 13.738 6.546 4.608 21.743-11.417 27.41-15.334 50.244-34.714 128.512-42.77 180.992-9.182 20.65 13.218 31.718 29.867 48.785 44.006-.145 6.708-1.98 13.611-5.342 19.346-12.485 21.333-63.454 45.388-87.493 50.423-2.62.546-19.575.802-19.532 4.292 5.086 4.122 12.254 4.736 18.21 7.322 15.078 6.553 33.297 23.91 38.886 39.44 10.343 28.741-8.08 62.047-6.093 91.23.316 4.592 3.055 9.183 1.733 14.345-6.042.308-13.765 3.303-19.508 3.567-7.108.333-19.635-3.174-27.195-3.592-32.453-1.818-65.34 6.024-96.709-2.04-15.991-4.113-37.427-13.192-51.822-21.393-5.82-3.31-11.034-8.695-17.545-10.547-11.503-12.203-23.228-25.583-27.238-42.564l-.854-18.73c-8.943 9.027-16.298 18.414-26.462 26.316-59.417 46.14-172.731 48.35-238.293 14.55-5.18-2.672-10.129-7.357-15.326-10.215 13.03-39.706 10.317-70.963 50.492-95.079 22.912-13.755 53.427-22.11 78.908-27.511 4.48-.947 10.837-.896 15.838-2.048 1.066-.248 4.915-1.502 4.599-2.21-7.091-5.12-16.18-8.653-22.161-15.3-12.1-13.449-9.873-35.951-28.92-41.746.069-.418-1.57-2.056-1.34-3.9 2.544-20.326 18.834-12.816 32.513-15.154 12.527-2.142 29.09-11.776 41.549-16.342 11.81-4.326 24.012-7.705 36.24-10.581 30.03-7.057 47.71-7.928 74.915 8.516zm-54.494 47.676c.717-3.72-.52-4.446-2.535-6.818-9.813-11.588-26.018-24.61-41.728-25.523l23.766 14.54 20.505 17.8zm284.348-10.214c-22.904 3.652-44.118 11.016-62.925 24.755l-8.585 9.293 16.435-9.95c16.675-9.506 32.692-15.488 51.209-20.344 3.072-.81 4.59.888 3.857-3.754zM481.61 152.789c-33.485 2.577-84.898 15.275-106.812 43.025-15.06 19.072-8.934 41.413 8.62 56.15 53.332 44.783 193.808 46.762 247.688 2.654 17.996-14.729 28.757-34.876 13.55-56.175-29.661-41.54-116.386-49.238-163.046-45.654m-111.88 118.836c-5.197-.64-8.952-2.202-14.439-1.664-22.878 2.235-51.917 10.018-71.867 21.76-3.73 2.193-8.781 4.94-10.735 8.84 8.473-2.09 15.846-7.825 23.808-11.093 8.149-3.337 17.305-5.189 25.514-8.534zm301.363 76.612c-.145-2.953-2.09-6.656-3.627-9.14-10.743-17.348-40.414-38.664-59.34-46.224-3.21-1.28-6.716-2.671-10.24-2.526.392 2.62 3.182 3.2 5.094 4.266 14.464 8.098 29.047 15.463 41.762 26.343 9.702 8.303 16.776 19.123 26.35 27.272z"/><path fill="#f79c6a" d="M211.386 205.21c-2.688 23.586-40.559 64.879-55.262 85.205-39.304 54.349-63.377 113.553-80.537 178.261-5.897 22.23-9.293 50.006-17.81 70.733-7.688 18.722-15.086 11.153-20.061-3.891-15.855-47.89-7.868-117.026 5.913-165.205 18.5-64.666 59.998-133.138 115.047-172.698 8.67-6.23 29.576-17.63 39.936-16.256 13.005 1.732 14.029 12.851 12.774 23.842z"/><path fill="#7d782b" d="M815.82 177.971c.588 6.852-4.361 14.49-8.483 19.61-23.16 28.817-64.478 34.918-98.065 44.953-2.159.64-4.267.111-5.82 2.688l15.352 5.078c32.35 13.397 34.287 40.106 32.4 71.611-1.134 18.927-7.09 38.605-5.145 57.78.87 8.533 7.8 16.836-1.126 22.784-10.001 6.664-33.843 11.323-45.696 10.419-5.376-.41-13.21-3.055-18.688-3.448-24.593-1.74-54.759 3.124-78.37.043-27.529-3.592-68.907-32.81-87.714-52.753 6.519 1.852 11.724 7.228 17.544 10.547 14.396 8.192 35.832 17.28 51.823 21.393 31.377 8.064 64.256.222 96.708 2.04 7.56.426 20.096 3.934 27.196 3.592 5.743-.273 13.466-3.268 19.507-3.567 1.323-5.162-1.416-9.753-1.732-14.344-1.988-29.184 16.435-62.49 6.093-91.23-5.59-15.53-23.8-32.888-38.887-39.441-5.956-2.586-13.124-3.209-18.21-7.322-.042-3.49 16.913-3.746 19.533-4.292 24.038-5.035 75.008-29.099 87.492-50.423 3.362-5.743 5.197-12.647 5.342-19.346 8.832 7.314 24.67 7.467 28.945 13.62z"/><path fill="#e55429" d="M305.03 142.217c19.047 5.794 16.82 28.296 28.92 41.745 5.982 6.647 15.07 10.18 22.161 15.3.325.708-3.532 1.963-4.599 2.21-5 1.143-11.35 1.092-15.838 2.048-3.865-5.111-8.294-9.054-11.656-14.737-4.463-7.535-6.528-17.579-11.375-24.38-3.482-4.88-9.037-6.775-12.604-11.306-1.758-3.26 4.813-9.874 4.992-10.872z"/><path fill="#70692e" d="M481.611 152.79c46.66-3.585 133.385 4.112 163.047 45.653 15.206 21.299 4.454 41.446-13.551 56.175-53.888 44.1-194.356 42.12-247.689-2.654-17.553-14.737-23.68-37.07-8.619-56.15 21.914-27.741 73.327-40.448 106.812-43.025m0 13.627c-21.342 1.971-67.02 14.712-79.3 33.075-17.186 25.694-.324 44.75 23.1 56.457 46.395 23.193 132.59 24.371 176.503-4.992 14.78-9.882 25.472-22.212 19.012-40.696-6.98-19.985-34.252-31.573-53.256-36.983-25.575-7.288-59.443-9.327-86.059-6.86"/><path fill="#7c7629" d="M487.21 314.18c-14.576 13.33-26.557 26.778-43.683 37.189-55.5 33.757-144.53 42.436-199.723 4.445-7.543-5.196-16.418-12.544-22.212-19.507 65.562 33.8 178.876 31.59 238.293-14.55 10.172-7.892 17.52-17.288 26.462-26.316l.854 18.73z"/><path fill="#746e2f" d="m369.73 271.625-47.718 9.31c-8.209 3.344-17.374 5.196-25.514 8.533-7.962 3.268-15.335 8.994-23.808 11.093 1.954-3.9 7.005-6.647 10.735-8.84 19.959-11.742 48.998-19.525 71.867-21.76 5.487-.538 9.242 1.024 14.439 1.664m301.364 76.612c-9.575-8.15-16.649-18.97-26.351-27.273-12.715-10.88-27.298-18.244-41.762-26.342-1.912-1.067-4.702-1.647-5.095-4.267 3.525-.145 7.032 1.246 10.24 2.526 18.927 7.56 48.598 28.868 59.341 46.225 1.536 2.475 3.482 6.187 3.627 9.14z"/><path fill="#746f2f" d="M718.77 142.217c.733 4.642-.785 2.952-3.857 3.754-18.518 4.864-34.535 10.846-51.209 20.344l-16.435 9.95 8.584-9.293c18.8-13.747 40.022-21.103 62.925-24.755z"/><path fill="#716b30" d="m434.422 152.43-20.506-17.8-23.765-14.54c15.71.913 31.915 13.935 41.728 25.523 2.014 2.38 3.251 3.106 2.534 6.818z"/><path fill="#8f8745" d="M481.611 166.417c26.616-2.466 60.493-.418 86.059 6.86 19.004 5.411 46.276 17 53.256 36.984 6.452 18.484-4.232 30.814-19.012 40.696-43.912 29.363-130.108 28.185-176.503 4.992-23.416-11.708-40.286-30.763-23.1-56.457 12.28-18.363 57.958-31.104 79.3-33.075m13.585 47.633c-19.413 3.311-30.592 18.475-6.323 26.104 13.679 4.3 38.084 4.044 50.065-4.506 10.556-7.526-2.33-17.237-10.376-19.866-8.022-2.62-25.012-3.165-33.366-1.74z"/><path fill="#6d6531" d="M495.196 214.05c8.354-1.425 25.344-.879 33.366 1.74 8.047 2.63 20.932 12.34 10.376 19.867-11.98 8.541-36.377 8.806-50.065 4.505-24.269-7.629-13.082-22.792 6.323-26.103z"/></svg>