<svg xmlns="http://www.w3.org/2000/svg" viewBox="0 0 1877 1024"><path fill="#edc03f" d="M1096.07 435.005c-13.288-6.973-30.769-4.194-47.567 5.608-3.487 2.096-6.997 4.9-10.484 7.68C937.35 526.653 796.062 575.56 640.805 575.56c-278.016 0-508.197-155.819-549.474-359.4v-38.546a27.672 27.672 0 1 0-55.345 0v107.837c0 2.633.83 4.95 1.463 7.363-18.505 42.326-29.5 87.26-29.5 134.486 0 234.983 248.929 425.886 556.64 425.886 258.049 0 475.527-134.266 538.43-316.782a5.05 5.05 0 0 0 1.414-2.78c7.729-16.09 11.946-32.865 11.946-46.884 1.366-23.747-5.607-43.373-20.309-51.736"/><path fill="#ebac00" d="M70.656 321.195s261.949 602.94 971.995 180.37c0 0-183.1 190.05-421.741 236.251-215.552 41.692-535.65-79.994-550.278-416.621"/><path fill="#79544e" d="M1115.477 465.432c-4.413 10.411-21.43 13.264-37.912 6.315-16.506-7.022-26.283-21.211-21.894-31.573 4.462-10.508 21.43-13.312 37.912-6.34 16.482 6.998 26.332 21.139 21.894 31.574"/><path fill="#f15723" d="M1126.205 506.66c.293 101.694-29.94 185.1-99.62 222.452-13.995 7.437-29.258 3.34-43.204 9.216-6.704 3.828-12.36 12.678-18.53 19.627-3.364 3.584-6.826 6.827-10.532 8.46-75.337 31.915-163.01 10.874-247.345-54.857-117.76-92.16-163.084-230.863-101.376-309.93a214.7 214.7 0 0 1 26.795-29.136 152 152 0 0 1 37.913-24.38c25.16-11.704 57.051-18.872 102.156-24.138 1.487-.122 3.17-.366 4.632-.488 51.615-61.196 104.082-87.04 167.083-87.308 100.205-.146 181.662 120.93 182.028 270.483"/><path fill="#79544e" d="M793.99 343.82a17.55 17.55 0 0 1-16.823-.78c-1.999-1.195-48.786-30.037-59.148-79.58-5.949-28.574 1.195-57.49 21.285-85.991A17.554 17.554 0 0 1 768 197.705c-14.238 20.236-19.505 39.912-15.604 58.539 7.168 34.23 42.618 56.515 42.96 56.759a17.554 17.554 0 0 1-1.366 30.817"/><path fill="#fff" d="M978.188 313.003c37.157 12.946 61.099 41.13 53.516 63.049-7.63 21.918-43.91 29.208-81.066 16.31-37.181-12.897-61.123-41.154-53.516-63.048 7.63-21.919 43.91-29.209 81.066-16.311"/><path fill="#f15723" d="M1736.168 795.453c-78.653 64.56-162.329 93.818-235.374 63.464-14.556-6.12-21.114-20.53-34.426-27.648-7.241-2.78-17.652-1.56-26.941-1.975-4.876-.342-9.606-.976-13.214-2.804-72.339-38.18-111.47-119.467-113.86-226.304-2.998-149.504 75.825-272.335 176.031-274.48a212.3 212.3 0 0 1 39.497 2.34c14.873 2.56 28.77 6.85 42.91 13.97 24.967 12.093 50.664 32.232 83.262 63.878l3.34 3.292c80.042 1.316 133.217 25.6 173.25 74.24 63.44 77.58 21.14 217.234-94.475 312.027"/><path fill="#79544e" d="M1652.297 435.127a17.63 17.63 0 0 1-10.045-13.532c-.317-2.267-7.558-56.807 24.308-96.158 18.383-22.674 45.3-35.401 80.043-37.864a17.579 17.579 0 0 1 2.487 35.06c-24.65 1.731-43.228 10.094-55.248 24.917-21.991 27.16-16.871 68.755-16.823 69.145a17.554 17.554 0 0 1-24.697 18.432"/><path fill="#fff" d="M1792.61 558.373c13.507 36.985 6.729 73.313-14.995 81.286-21.82 7.972-50.395-15.531-63.902-52.468-13.483-36.986-6.754-73.387 15.043-81.335 21.796-7.924 50.37 15.58 63.878 52.517"/><path fill="#e3483f" d="M951.467 626.274c44.422 91.501 108.202 153.136 187.221 156.135 15.774.512 27.746-9.85 42.837-10.727 7.73.487 16.701 5.948 25.283 9.508 4.56 1.731 9.143 3.145 13.166 2.975 81.676-4.389 151.235-61.855 198.12-157.891 65.316-134.535 45.104-279.065-44.959-322.95a212 212 0 0 0-36.864-14.434 151.7 151.7 0 0 0-44.812-5.266c-27.745.536-59.514 8.094-102.4 23.186l-4.389 1.585c-73.216-32.28-131.705-32.476-188.416-5.072-90.087 43.886-110.153 188.416-44.787 322.95"/><path fill="#79544e" d="M1178.453 334.068a17.58 17.58 0 0 0 14.775-8.046c1.244-1.95 30.647-48.445 18.188-97.475-7.216-28.282-26.331-51.176-56.88-67.925a17.579 17.579 0 0 0-16.896 30.817c21.674 11.85 35.035 27.258 39.716 45.715 8.607 33.889-13.458 69.51-13.653 69.851a17.554 17.554 0 0 0 14.75 27.063"/><path fill="#fff" d="M999.424 387.291c-27.721 27.941-36.815 63.805-20.358 80.116 16.433 16.36 52.248 6.998 79.97-20.919 27.72-27.965 36.863-63.805 20.358-80.115-16.458-16.384-52.249-6.998-79.97 20.918"/><path fill="#6b7f28" d="M1128.521 174.153s91.039 16.335 166.595-27.233c75.581-43.618 107.033-130.634 107.033-130.634s-91.063-16.335-166.62 27.258c-75.556 43.594-106.983 130.61-106.983 130.61"/><path fill="#fbcb43" d="M1353.63 427.642c-13.287-6.997-30.768-4.194-47.567 5.608-3.486 2.096-7.021 4.9-10.484 7.655-100.693 78.36-241.956 127.269-397.238 127.269-278.016 0-508.197-155.843-549.474-359.4v-38.522a27.672 27.672 0 1 0-55.345 0v107.813c0 2.633.83 4.998 1.463 7.363-18.48 42.35-29.5 87.284-29.5 134.51 0 234.959 248.977 425.886 556.665 425.886 258.024 0 475.502-134.266 538.429-316.782a5.12 5.12 0 0 0 1.414-2.804c7.729-16.091 11.922-32.84 11.922-46.86 1.39-23.747-5.607-43.398-20.285-51.736"/><path fill="#f5b400" d="M328.168 313.807s261.997 602.966 972.068 180.42c0 0-183.125 190.024-421.79 236.202-215.528 41.74-535.625-79.97-550.278-416.622"/><path fill="#79544e" d="M1373.013 458.045c-4.388 10.435-21.406 13.263-37.888 6.339-16.506-7.046-26.282-21.211-21.894-31.622 4.462-10.484 21.407-13.263 37.888-6.266 16.506 6.973 26.332 21.09 21.894 31.549"/><path fill="#9d6c4e" d="M1817.43 753.957c0 9.85-1.464 19.7-4.584 29.403-3.316 11.483-9.119 22.845-16.774 34.011-7.437 11.338-17.31 22.602-29.014 33.549-12.215 11.678-26.892 23.04-43.642 34.035a514 514 0 0 1-65.755 36.23 828 828 0 0 1-84.65 34.012 1195 1195 0 0 1-107.472 31.28 113.7 113.7 0 0 1-27.794 3.024H506.149c-10.314 0-19.92-1-27.843-3.023a1191 1191 0 0 1-107.447-31.281 825 825 0 0 1-84.651-34.011 515 515 0 0 1-65.707-36.23 308 308 0 0 1-43.74-34.06 188 188 0 0 1-28.988-33.549 120 120 0 0 1-16.799-34.011 95.6 95.6 0 0 1-4.534-29.404c0-9.338 22.089-16.969 48.957-16.969h1593.075c26.868 0 48.933 7.631 48.933 16.97"/><path fill="#ad7c5e" d="M955.148 783.36H131.023c3.365 11.483 9.094 22.845 16.774 34.011h1648.275c7.655-11.166 13.458-22.528 16.774-34.011H955.124zm0 67.535H176.762c12.288 11.703 26.892 23.04 43.715 34.06h1502.89c16.775-11.02 31.452-22.357 43.643-34.06H955.124zm0 70.266h-668.94c25.405 12.02 53.711 23.455 84.65 34.06H1573.01a828 828 0 0 0 84.651-34.06z"/></svg>