<svg xmlns="http://www.w3.org/2000/svg" viewBox="0 0 1024 1024"><path fill="#ffd02d" d="m646.301 149.3 1.606 20.612c8.944 12.766 20.765 24.241 32.555 34.344l13.224 11.323 15.47 13.193c4.674 3.994 31.426 20.267 37.2 22.665l13.263 5.51c9.92 4.116 10.184-.265 12.807 4.207l-8.477.681c-2.541.203-3.242 7.532-2.775 10.154l.956 5.356-.55 5.987c-.416 4.533-4.034-.762-14.635-1.494l-7.501-.519c-1.637-.111-5.967 1.677-5.956 3.304.01 1.616 1.423 5.122 2.805 6.17l8.365 6.372c.884-1.18 6.291-5.712 8.344-4.106l9.605 7.552-7.318 6.769c-1.2 1.108-5.824-.468-7.033-1.535l-2.755-2.44c-.579-.518-2.896 2.633-2.795 3.385.346 2.612 1.505 7.024 2.582 11.8-5.021-1.676-8.182-4.197-10.621-7.694l-2.44-3.506c-.447-.65-3.08 1.037-3.598 1.697l-7.613 9.748 8.477 2.073c4.716 1.159.864 6.22 7.776 17.624l5.539 9.138c8.182 13.497 6.403 11.23 10.245 31.366l2.389 12.522c3.191 16.73 3.435 43.237 1.677 60.028-1.027 9.808-3.497 18.905-5.377 29.15-.478 2.582-2.734 6.729-4.147 9.768l-7.714 16.577c.965-2.073-11.618 17.188-12.593 11.963l8.05-10.59c2.429-3.192 4.126-6.18 4.33-9.667 5.66-4.787 13.04-33.45 14.097-42.363l1.545-12.98c.935-7.856.965-17.654.142-25.826l-1.9-18.661c-1.017-10.011-8.01-41.174-13.793-48.431-2.145-13.03-21.782-27.28-36.56-20.735l-4.92 2.175c-1.768.783-9.655-12.074-13.345-16.201-25.664-28.642-52.222-47.11-87.562-62.214-16.06-6.87-48.127-15.063-65.161-16.09-17.838-1.077-45.769-1.829-62.387 1.86l-22.28 4.95c-16.465 3.66-43.49 14.017-57.629 22.727l-14.85 9.148c-21.11 13-42.18 33.033-56.785 53.015-2.755 3.77-5.397 8.314-7.969 12.492-16.882 27.391-8.74 7.064-25.847 29.272-4.94 6.413-8.73 13.193-10.296 20.257-12.715 18.254-14.758 91.038-10.814 109.974l5.986 28.713c.884 4.228 2.907 10.682 4.767 13.61-1.84 9.106 10.804 25.41 20.978 29.383 16.242 6.353 24.302-2.5 29.1 1.759 12.298 10.926 12.766 16.15 27.138 27.676 20.582 16.507 51.45 34.66 76.524 41.439l17.38 4.706c27.555 7.46 71.83 9.716 98.916 4.289l8.477-1.698c50.972-10.204 100.908-39.619 132.345-80.712l8.06-10.53c5.844-7.633 8.487-16.17 11.444-17.776 1.058 2.45 2.5 8.405.793 10.418l-6.434 7.582c-2.683 3.161-5.142 7.257-7.562 10.926l-6.311 9.585c-7.694 4.38-13.884 10.194-18.458 17.878-6.322 2.318-12.095 6.495-11.912 14.667l-8.548.508c-3.619 2.541-8.375 6.048-12.075 8.1l-13.528 7.522-14.22 7.898c-33.165 18.417-14.188 4.32-39.415 13.355l-9.433 3.375c-1.93.69-5.956 1.189-8.629 1.494l-10.59 1.199c-6.18.701-12.807 1.159-18.53 2.216l-15.652 2.896c-13.457 2.49-31.437.183-34.822 6.902-2.815 5.59 8.447 8.314 6.698 15.419-1.707 6.952-8.436-8.772-15.083-5.113-5.143 2.836-7.46 4.635-10.713 8.548 9.86 6.485 9.564-3.66 12.95 4.462 3.8 9.147 1.615 2.988 17.715 6.556l15.622 3.466c1.85.406 4.94 2.784 5.56 4.32l-14.952-2.633-29.922-5.082c-9.93-1.687-22.026-.702-31.966.274l-12.491 1.23-7.054-5.53c-2.399-1.88-6.485-5.356-8.894-6.433l-12.969-5.814c-26.548-11.902-55.312-17.776-84.412-14.402l-10.926 1.27c-11.018 1.281-32.84 8.467-42.2 12.777-10.144 4.665-17.137 10.489-24.78 11.871l-5.235-8.873c-2.226-3.781-4.858-7.318-7.48-10.906l-8.6-13.62-6.87-10.997-6.586-11.638-5.814-11.13-12.044-24.017-8.09-16.862c-1.942-3.16-3.386-6.474-4.168-9.503-.112-12.492.62-25.197 1.626-38.705l3.029-40.645 4.574-59.642 3.262-42.18c.529-6.78 1.19-15.979 4.137-21.721l21.1-41.174c1.037-2.023 2.724-7.186 1.637-8.772l-6.597-9.595a181 181 0 0 1-6.433-10.011c2.663 2.256 7.145 7.104 9.96 10.255l8.447 9.463 15.368-22.29c4.624-6.698 4.563-10.123 12.908-19.708l13.426-15.418c10.794-12.4 15.978-21.914 24.841-29.293l10.205-8.487 19.606-16.679 8.975-7.633c1.82-1.545 5.935-3.842 8.405-5.448l10.977-7.135 33.989-19.393c2.734-1.555 6.088-3.71 8.771-4.767l20.785-8.13 12.35-4.758 16.028-6.19 19.881-5.773c16.293-4.736 14.402-7.917 27.422-7.287l34.74 1.657 29.283 1.636c4.076.224 40.676 5.57 44.071 6.414l13.203 3.282 21.13 5.367c3.71.945 7.553 1.992 10.927 3.11l13.945 4.615c3.608 1.189 7.084 2.104 10.591 2.988l.976-10.825c.091-.986 2.094-3.984 2.358-3.974z"/><path fill="#f9b001" d="M871.92 484.538c.824 4.035 1.678 9.228 1.87 14.087l1.302 32.728 1.098 62.915-1.129 62.112-2.937 33.5c-2.409 27.382-7.521 52.558-18.061 77.937-4.96 11.943 12.39 13.691 23.489 38.339 7.226 16.049 13.121 31.813 18.966 48.207l7.968 22.371 18.316 52.446a1061 1061 0 0 1 16.323 50.871c.02.325-3.334 1.657-4.594 1.545l-15.856-1.393-13.65-1.189-17.045-1.504-18.295-1.555-39.863-2.836-19.048-1.331-14.25-1.108-44.457-3.66-20.52-1.758-16.405-1.494-31.64-2.866-20.41-1.85-14.86-1.463-42.455-4.432-18.295-1.91-16.374-1.708-22.401-2.328-18.468-1.92-22.025-2.288c-4.188-.437-10.327-1.494-14.352-1.077l-57.142 5.997-24.21 2.297-22.513 2.083-18.336 1.688-103.51 9.91-26.386 2.327-28.601 2.317-74.787 6.078-18.61 1.474-24.454 1.83 6.86-3.365c2.379-1.168 6.566-4.604 9.341-6.576l20.4-14.524 11.586-8.436 11.933-8.832c1.616-1.2 5.376-2.592 6.952-2.857l21.425-7.328 6.21.183 13.58-10.794c3.608-2.866 9.015-8.345 12.847-8.66l5.234-.427c1.22-.101.681-3.17.59-5.183l-.478-10.144 12.705 2.714c4.98 1.067 10.906 1.331 15.55 1.108 20.542 6.16 55.69 10.042 74.859.295 17.197 9.127 13 11.658 35.523 19.88 18.66 6.82 37.962 10.215 57.873 7.816 42.953-5.173 66.757-23.997 89.738-58.422.752-.478 2.53-2.206 3.405-1.738l5.346 2.897 18.437 10.225 12.522 7.531c3.893 2.348 9.687 4.95 14.19 6.393l13.63 4.37 11.444 3.68c5.783 1.86 12.47 4.482 18.234 5.204l13.02 1.626 14.118 1.759c22.655 2.815 45.29 1.026 67.58-4.635 5.275-1.342 11.262-5.01 15.947-7.755l5.651-3.314c8.497-1.524 16.486-6.505 22.757-13.294l10.022-10.865c12.034-13.04 20.064-32.556 25.603-49.52l4.421-13.558 11.648-34.73c5.794-17.279 10.967-21.243 14.301-33.948 15.581-26.792-43.96-41.977-64.348-40.239l-18.305 1.555-10.977-.518c1.006-2.978 2.46-6.048 4.136-7.959l8.843-10.082 12.786-14.962c10.398-12.166 25.888-33.968 33.358-47.81l11.506-21.305c2.002-3.71 4.38-8.446 5.915-12.217l6.505-15.988c3.995-9.818 8.02-19.88 10.652-30.044l10.459-40.493c.61-2.369 1.687-8.04 1.728-10.297l.528-28.276c12.258 4.686-2.917 9.575 21.873 12.106l11.018 1.128 6.22 9.422c2.196 3.323 5.905 5.824 9.747 5.803z"/><path fill="#ffcb13" d="m940.822 47.792-4.045 4.228-6.86 7.166-17.015 17.604-20.125 20.5-20.267 20.247-35.767 35.706c-1.748 1.738-3.242 4.523-3.455 6.383-5.906-7.023-18.204-20.297-25.96-26.04-8.293-6.139-30.47-16.892-38.571-19.067l-21.274-5.713c-34.232.133-38.765-3.628-70.182 10.378-13.904 6.2-26.01 16.75-31.01 30.126-.274-.01-2.277 2.988-2.358 3.974l-.976 10.825c-3.496-.885-6.982-1.79-10.59-2.989l-13.946-4.614c-3.374-1.118-7.206-2.165-10.926-3.11l-21.13-5.367-13.204-3.283c-3.394-.843-39.995-6.19-44.07-6.413l-29.283-1.637-34.74-1.656c-13.02-.62-11.13 2.55-27.423 7.287l-19.88 5.773-16.03 6.19-12.348 4.757-20.786 8.131c-2.683 1.047-6.047 3.212-8.771 4.767l-33.988 19.393-10.977 7.135c-2.47 1.606-6.587 3.893-8.406 5.448l-8.975 7.633-19.606 16.679-10.205 8.487c-8.863 7.369-14.046 16.882-24.84 29.292l-13.427 15.42c-8.345 9.584-8.284 13.009-12.908 19.707l-15.368 22.29-8.446-9.463c-2.816-3.15-7.298-8-9.961-10.255-.508-.438-1.342-1.342-1.84-1.87-.325-5.103-6.352-12.075-10.235-14.515-.57-.356-1.525-1.28-1.89-1.83 1.25-.66 1.138-1.046-.122-2.022-.407-.59-1.25-1.585-1.362-2.216l2.256-2.907c1.24-1.595 4.665-4.492 6.657-5.275l10.185-4.035 19.108-7.592c12.227-4.859 26.03-15.754 29.984-26.742l48.32-65.588 15.652-22.543 13.325-19.505c4.055-5.936 6.82-12.288 5.62-20.734-7.226-2.003-15.774-3.334-23.61-4.117l-20.41-2.043-18.6-1.86-24.22-2.287-16.243-1.433-16.252-1.524-18.325-1.82-16.273-1.555-18.387-1.758-28.316-2.236-6.109-3.151-6.21-24.414c-.315-1.22-1.2-3.832-1.464-4.452 0-.386.295-1.026.478-1.565.681-.173 3.547-.437 4.675-.325l39.416 3.842 20.135 1.961 16.415 1.596 30.278 2.927 12.41 1.291 20.308 2.185 22.188 2.44 30.675 3.364 32.169 3.08 34.506 3.862 14.667 1.606 18.041 1.962 22.36 2.429 28.145 3.06c5.285.578 10.967 1.24 16.09 2.062l24.728 3.995c5.387.874 12.39.264 18.173-.712l22.676-3.811 18.214-2.724 65.619-8.894 50.85-6.311 37.79-4.757 11.027-1.311 56.471-6.13 42.14-4.573 16.476-1.758 42.628-4.533 14.382-1.627 20.124-2.317 32.291-3.06.295 6.861z"/><path fill="#e29c01" d="M939.125 980.061c1.402 1.332 3.649 5.499 3.822 7.898l1.3 17.502c.458 6.088.153 11.577-.376 18.478-4.207.091-7.877.102-11.465-.163l-25.857-1.9-16.353-1.21-34.69-2.52-32.291-2.308-26.457-1.88-12.237-1.433-22.432-1.972-34.395-2.795-18.58-1.596-20.561-1.809-26.111-2.297-24.424-2.155-23.093-2.378-28.012-3.212-26.05-3.191-16.588-2.165-18.122-2.49c-43.471-5.967-17.279-5.56-58.93-.366l-12.33 1.534-18.264 2.135-33.186 3.842-23.468 2.683-12.492 1.413-22.106 2.246-24.394 2.175-20.663 1.84-15.968 1.25-20.368 1.728-8.345.742-54.53 4.97-12.48 1.159-26.519 2.165-32.128 2.53-22.564 1.86-13.955 1.291c-4.401.407-9.453.315-13.935-.62l.305-36.326c.02-2.815 3.964-7.206 5.478-8.1l1.413 1.971 8.548-.64 24.455-1.83 18.61-1.473 74.786-6.078 28.602-2.318 26.385-2.327 103.51-9.91 18.336-1.687 22.513-2.084 24.21-2.297 57.142-5.997c4.025-.427 10.164.64 14.352 1.078l22.025 2.287 18.468 1.92 22.401 2.328 16.375 1.708 18.295 1.91 42.455 4.432 14.86 1.464 20.409 1.85 31.64 2.866 16.405 1.494 20.52 1.758 44.458 3.66 14.25 1.107 19.047 1.332 39.863 2.835 18.295 1.555 17.045 1.505 13.65 1.189 15.856 1.392c1.26.112 4.615-1.21 4.594-1.545z"/><path fill="#f8b701" d="m940.822 47.792-.295-6.86-32.29 3.059-20.125 2.317-14.382 1.626-42.628 4.534-16.476 1.758-42.14 4.574-56.47 6.129-11.028 1.31-37.79 4.757-50.85 6.312-65.619 8.894-18.213 2.724-22.676 3.811c-5.784.976-12.797 1.586-18.173.712l-24.73-3.995c-5.122-.823-10.804-1.494-16.089-2.063l-28.144-3.06-22.36-2.429-18.042-1.961-14.666-1.606-34.507-3.862-32.169-3.08-30.675-3.364-22.188-2.44-20.307-2.185-12.41-1.29-30.279-2.928-16.415-1.596-20.134-1.961-39.416-3.842c-1.139-.112-3.995.152-4.676.325.509.67-3.059-2.379-3.049-3.161l.203-29.455c.02-2.602.986-6.363 1.657-9.168l29.039 2.388 15.896 1.759 37.912 3.811 18.884 1.9 12.461 1.292 26.63 2.805 26.121 2.765 22.188 2.48 22.198 2.51 16.68 1.83 71.117 7.836 26.355 2.907 31.193 3.984 34.07 4.767c6.118.854 13.579-.163 19.87-1.321l26.162-4.808 28.622-4.218 26.843-3.659 67.712-9.26 23.652-3.1 20.287-2.439 17.573-2.114 67.662-7.663 39.954-4.36 22.544-2.359 43.227-4.523 16.608-1.524L937.56.01c1.138-.101 3.455.498 4.4 1.007.63.345.976 3.1.987 4.38l.152 37.953c0 1.138-2.145 4.827-2.287 4.441z"/><path fill="#eea501" d="M871.92 484.538c-3.841.02-7.54-2.47-9.746-5.804l-6.22-9.422-11.019-1.128c-24.79-2.531-9.625-7.42-21.872-12.106-9.209-50.789-20.511-94.463-42.445-142.508l-9.442-20.684c-2.633-5.753-5.784-11.282-9.036-15.54l-.956-5.357c-.467-2.622.234-9.95 2.775-10.154l8.477-.681 14.961 3.1c26.66 5.52 54.713-21.283 57.843-51.867 2.053-20.053-.935-27.91-7.592-45.727-.742-1.982-3.12-5.59-4.34-7.044.213-1.85 1.707-4.635 3.456-6.383l35.767-35.706 20.267-20.247 20.124-20.5 17.015-17.604 6.86-7.166 4.046-4.228c-.265 2.907-.814 6.901-1.688 10.367l-11.85 46.846-8.081 30.461-19.81 71.483-22.665 71.189c-4.818 15.134-11.12 28.632-18.804 42.546-1.972 3.568-1.748 7.349-.569 11.638 4.208 15.297 6.983 30.553 8.446 46.55l2.572 28.206 1.596 24.78 2.297 40.615c.223 3.903-.132 8.873-.346 12.064z"/><path fill="#ffd963" d="m235.484 234.687-17.39 17.177c-12.37 12.217-38.847 11.679-51.522 25.38-6.616-16.75-11.322-34.426-16.536-52.812l-4.94-17.411-10.225-36.092-6.678-24.008-16.537-64.378 6.109 3.15 28.317 2.237 18.386 1.758 16.273 1.555 18.325 1.82 16.253 1.524 16.242 1.433 24.22 2.287 18.6 1.86 20.41 2.043c7.836.783 16.384 2.114 23.61 4.116 1.2 8.447-1.565 14.789-5.62 20.735l-13.325 19.505-15.653 22.543-48.319 65.588z"/><path fill="#f8b101" d="M221.285 693.681c-1.057 1.596-3.69 5.194-5.356 6.617l-9.148 7.786c-3.801 3.232-9.94 8.74-12.43 12.562l-10.154 15.51c-7.288 11.13-14.037 37.18-11.577 51.085l-3.852-8.05c-1.515 25.105 5.458 55.424 22.889 76.412 16.384 19.739 27.85 26.559 50.769 36.052l7.603 3.15c-4.645.224-10.581-.05-15.551-1.107l-12.705-2.714.477 10.144c.092 2.012.64 5.082-.589 5.183l-5.234.427c-3.832.305-9.24 5.794-12.848 8.66L190 926.192l-6.21-.183-21.426 7.328 6.709-5.56c11.078-9.177 21.964-17.471 34.933-24.311 4.36-2.297 7.542-5.641 10.245-10.103-2.602-2.785-5.193-6.048-6.738-6.8l-14.687-7.156c-13.488-6.565-25.054-15.642-36.692-24.81l-10.225-8.05-11.933-9.411c-1.351-1.068-4.096-1.515-6.149-.997 5.428-17.238 10.225-34.435 17.035-52.324 2.175-5.702 3.08-12.542 3.09-18.874l.142-71.148.793-19.504 1.769-29.344 2.093-32.362 1.982-30.888c.132-2.033.925-4.818 1.667-5.55.783 3.03 2.226 6.353 4.167 9.504l8.09 16.862 12.045 24.017 5.814 11.13 6.586 11.637 6.871 10.998 8.599 13.62c2.622 3.587 5.255 7.124 7.48 10.905l5.235 8.874z"/><path fill="#fec708" d="M162.375 933.348c-1.576.274-5.336 1.667-6.953 2.856l-11.932 8.832-11.587 8.436-20.399 14.525c-2.775 1.982-6.962 5.417-9.34 6.576l-6.861 3.364-8.548.64-1.413-1.972c1.91-8.598 4.39-17.726 7.277-27.076l16.801-54.49 6.261-20.287 12.156-38.602c2.054-.519 4.798-.071 6.15.996l11.932 9.412 10.225 8.05c11.638 9.167 23.204 18.244 36.692 24.81l14.687 7.155c1.545.752 4.137 4.015 6.739 6.8-2.714 4.462-5.895 7.806-10.246 10.103-12.969 6.84-23.854 15.134-34.933 24.312z"/><path fill="#ffd02d" d="M180.914 301.83c-1.149-.721-4.35-3.638-5.194-5.194l-5.041-9.32c3.882 2.44 9.91 9.412 10.235 14.514m-13.61-20.592-.732-4.005c12.675-13.7 39.142-13.162 51.521-25.379l17.391-17.177c-3.954 10.987-17.756 21.883-29.984 26.741l-19.108 7.593-10.184 4.035c-1.992.793-5.428 3.69-6.658 5.275l-2.256 2.907z"/><path fill="#f8b701" d="M105.436 58.119c-.844-.407-1.504-.64-1.494-1.332l.03-3.12c.265.62 1.149 3.232 1.464 4.452"/><path fill="#ffca21" d="m823.052 456.078-.528 28.277c-.04 2.246-1.118 7.928-1.728 10.296l-10.459 40.493c-2.632 10.174-6.657 20.236-10.652 30.045l-6.504 15.988c-1.535 3.77-3.903 8.507-5.916 12.217l-11.505 21.303c-7.471 13.833-22.96 35.645-33.359 47.812l-12.786 14.96-8.843 10.084c-1.677 1.91-3.13 4.99-4.136 7.958l10.977.518c-20.643 6.597-18.936 2.277-42.414 14.21-5.336 2.713-10.703 5.356-15.42 8.588L648.74 733.26c-3.394 2.327-7.124 5.041-10.204 7.674l-18.61 15.927-9.9 8.608c-6.729 5.855-13.935 11.09-20.826 15.744l1.962-8.67c1.565-6.89 6.474-27.727-3.446-28.926.854-1.393.457-6.586-.955-8.294-10.195-12.288-21.894-7.46-34.954-11.83l-18.184-6.079-19.85-6.627a139 139 0 0 1-11.922-4.614c-.62-1.535-3.71-3.913-5.56-4.32l-15.622-3.466c-16.1-3.567-13.914 2.592-17.716-6.555-3.384-8.132-3.09 2.012-12.948-4.462 3.242-3.914 5.57-5.723 10.712-8.548 6.648-3.66 13.386 12.064 15.084 5.112 1.738-7.104-9.514-9.828-6.698-15.419 3.384-6.718 21.364-4.42 34.821-6.9l15.653-2.898c5.712-1.057 12.35-1.514 18.529-2.215l10.59-1.2c2.674-.305 6.699-.803 8.63-1.494l9.432-3.374c25.227-9.026 6.261 5.061 39.416-13.356l14.22-7.897 13.527-7.521c3.7-2.054 8.457-5.56 12.075-8.101l8.548-.508c-.183-8.162 5.59-12.35 11.912-14.667 4.574-7.684 10.754-13.487 18.458-17.878l6.312-9.585c2.419-3.67 4.879-7.765 7.562-10.926l6.434-7.582c1.707-2.013.264-7.959-.793-10.419.518-3.77 3.212-9.92 6.87-12.349l15.958-10.61c.976 5.223 13.559-14.037 12.593-11.964l7.715-16.577c1.412-3.04 3.679-7.186 4.147-9.768 1.88-10.245 4.34-19.352 5.376-29.15 1.769-16.791 1.515-43.299-1.677-60.029l-2.388-12.522c-3.842-20.134-2.064-17.868-10.246-31.365l-5.539-9.138c-6.911-11.404-3.06-16.466-7.775-17.624l-8.477-2.074 7.613-9.747c.518-.66 3.14-2.348 3.598-1.697l2.44 3.506c2.438 3.497 5.6 6.028 10.62 7.694-1.077-4.777-2.236-9.188-2.581-11.8-.102-.752 2.216-3.903 2.795-3.385l2.754 2.44c1.2 1.067 5.834 2.642 7.034 1.535l7.318-6.77-9.605-7.551c-2.043-1.606-7.45 2.917-8.345 4.106l-8.365-6.373c-1.382-1.047-2.795-4.553-2.805-6.17-.01-1.626 4.32-3.415 5.956-3.303l7.501.519c10.601.731 14.22 6.037 14.636 1.494l.55-5.987c3.252 4.249 6.413 9.788 9.035 15.54l9.442 20.684c21.934 48.045 33.236 91.72 42.445 142.51zM762.374 318.55c.955-.549 2.286-4.726 1.24-5.133l-3.883-1.545c-2.013-.793-7.034-1.494-8.782-.284-1.453 1.006-2.795 5.356-1.575 6.657 1.585 1.687 5.63 4.533 7.237 3.618l5.763-3.303zm14.087 7.552c0-1.25-1.017-2.267-2.267-2.267s-2.266 1.017-2.266 2.267 1.016 2.266 2.266 2.266 2.267-1.016 2.267-2.266"/><path fill="#ffdd78" d="M501.85 706.163a143 143 0 0 0 11.923 4.614l19.85 6.627 18.184 6.078c13.07 4.37 24.76-.457 34.954 11.831 1.412 1.708 1.819 6.901.955 8.294-12.644 1.84-33.988 32.19-39.599 43.075l-16.75 32.514-13.65 26.477c-3.08 5.987-6.373 13.691-9.727 18.712-22.98 34.425-46.785 53.25-89.738 58.423-19.9 2.398-39.212-1.007-57.873-7.816-22.524-8.233-18.326-10.754-35.523-19.881-5.235-7.288-12.543-14.331-16.029-22.503l-6.637-15.582c-2.063-4.838-3.598-11.18-4.4-16.628-3.802-25.674 1.86-47.201 14.534-69.39 7.267-12.714 14.788-24.2 25.989-33.337l11.322-9.229c12.146-9.9 32.047-18.884 47.182-23.885 10.214-3.375 14.575-2.104 15.683-4.635l12.491-1.23c9.94-.975 22.036-1.961 31.966-.274l29.922 5.082 14.952 2.632z"/><path fill="#fbb84a" d="M412.52 699.942c-1.098 2.531-5.458 1.26-15.683 4.635-15.134 5-35.035 13.976-47.181 23.885l-11.323 9.23c-11.2 9.127-18.722 20.622-25.99 33.337-12.674 22.188-18.335 43.715-14.534 69.39.803 5.437 2.338 11.79 4.401 16.628l6.637 15.581c-3.201-1.606-7.968-2.846-12.125-2.561-39.63 2.653-77.602-8.314-104.73-37.2-10.662-11.364-22.503-31.204-19.392-45.606-2.45-13.904 4.299-39.955 11.576-51.084l10.154-15.51c2.5-3.822 8.63-9.32 12.43-12.563l9.148-7.786c1.677-1.422 4.3-5.03 5.357-6.616 7.653-1.372 14.636-7.196 24.78-11.872 9.36-4.31 31.182-11.495 42.2-12.776l10.926-1.27c29.1-3.375 57.854 2.51 84.412 14.402l12.97 5.814c2.408 1.077 6.494 4.553 8.893 6.434l7.054 5.529z"/><path fill="#fed76f" d="M833.298 159.616c1.22 1.454 3.598 5.062 4.34 7.044 6.657 17.817 9.645 25.674 7.592 45.727-3.14 30.584-31.183 57.386-57.843 51.867l-14.961-3.1c-2.623-4.472-2.887-.081-12.807-4.208l-13.264-5.509c-5.763-2.398-32.525-18.67-37.2-22.665l-15.47-13.193-13.223-11.323c-11.79-10.103-23.61-21.568-32.555-34.344l-1.606-20.612c5-13.376 17.106-23.926 31.01-30.126 31.427-14.006 35.95-10.246 70.183-10.378l21.273 5.712c8.1 2.175 30.278 12.919 38.572 19.068 7.745 5.743 20.053 19.017 25.959 26.04"/><path fill="#fed96b" d="m810.276 734.713-22.035 11.892-26.914 19.423-14.606 10.154-12.654 9.443c-7.501 5.6-14.667 10.916-21.344 17.33-14.21 13.629-2.734-.285-17.543 10.61l-22.585 14.149c-20.724 7.897-41.896 14.93-63.21 14.432-8.202-2.246-20.673-10.946-27.32-19.494-13.61-17.502-2.43-28.002 7.135-41.449 6.891-4.645 14.097-9.89 20.826-15.744l9.9-8.609 18.61-15.926c3.07-2.633 6.81-5.347 10.204-7.674l21.04-14.433c4.706-3.232 10.072-5.875 15.419-8.589 23.489-11.932 21.77-7.612 42.414-14.209l18.305-1.555c20.389-1.738 79.92 13.447 64.348 40.24z"/><path fill="#fba122" d="M587.726 743.607c9.92 1.2 5.011 22.035 3.446 28.926l-1.962 8.67c-9.564 13.447-20.744 23.936-7.135 41.449 6.647 8.548 19.108 17.248 27.32 19.494 1.444 1.403 4.615 4.035 6.628 5.113l17.888 9.656 17.665 10.072 12.847 7.206c16.619 9.31 39.193 18.682 57.102 16.456l-5.652 3.313c-4.685 2.745-10.672 6.414-15.947 7.755-22.29 5.662-44.925 7.46-67.58 4.635l-14.118-1.758-13.02-1.626c-5.763-.722-12.45-3.344-18.234-5.204l-11.445-3.68-13.63-4.37c-4.492-1.444-10.285-4.056-14.188-6.393l-12.522-7.532-18.438-10.225-5.346-2.897c-.864-.467-2.653 1.25-3.405 1.738 3.354-5.02 6.637-12.735 9.727-18.711l13.65-26.477 16.75-32.515c5.6-10.886 26.955-41.235 39.6-43.075z"/><path fill="#ffce5a" d="M721.525 890.639c-17.92 2.226-40.483-7.146-57.102-16.456l-12.847-7.206-17.665-10.073-17.888-9.655c-2.013-1.088-5.184-3.72-6.627-5.113 21.314.488 42.495-6.535 63.21-14.433l22.584-14.148c14.799-10.896 3.334 3.029 17.543-10.611 6.678-6.413 13.843-11.73 21.344-17.33l12.654-9.442 14.606-10.154 26.914-19.423 22.035-11.892c-3.333 12.715-8.507 16.67-14.3 33.948l-11.648 34.73-4.421 13.559c-5.54 16.963-13.57 36.478-25.603 49.519l-10.022 10.865c-6.261 6.79-14.26 11.77-22.757 13.294z"/><path fill="#da7404" d="M172.61 787.24c-3.11 14.403 8.72 34.243 19.393 45.606 27.117 28.886 65.1 39.843 104.729 37.2 4.157-.274 8.924.966 12.126 2.562 3.486 8.172 10.784 15.215 16.028 22.503-19.18 9.747-54.316 5.864-74.857-.295l-7.603-3.15c-22.93-9.504-34.385-16.324-50.769-36.052-17.431-21-24.404-51.318-22.89-76.413l3.853 8.05z"/><path fill="#ffd02d" d="m762.374 318.55-5.763 3.303c-1.606.915-5.652-1.93-7.237-3.618-1.22-1.301.122-5.641 1.575-6.658 1.748-1.21 6.77-.508 8.782.285l3.883 1.545c1.046.417-.285 4.584-1.24 5.133zM771.928 326.102a2.267 2.267 0 1 0 4.533 0 2.267 2.267 0 1 0-4.533 0"/><path fill="#fbedc0" d="M739.647 498.777c-.203 3.497-1.9 6.475-4.33 9.666l-8.05 10.591-15.957 10.611c-3.649 2.43-6.342 8.579-6.871 12.35-2.958 1.616-5.6 10.143-11.445 17.776l-8.06 10.53c-31.437 41.093-81.372 70.507-132.345 80.712l-8.476 1.697c-27.087 5.428-71.362 3.161-98.916-4.289l-17.38-4.706c-25.075-6.79-55.943-24.932-76.525-41.438-14.382-11.536-14.84-16.75-27.138-27.677-4.797-4.258-12.847 4.595-29.099-1.758-10.174-3.984-22.818-20.277-20.978-29.384.904 1.423 3.445 4.29 4.197 6.271 5.641 14.789 18.641 24.22 34.06 21.853l17.197-2.653-2.409-8.09c-.701-2.348-6.362-4.066-8.73-3.426l-.02-1.9 8.405.304 12.278 14.098c13.802 15.856 31.478 31.346 49.63 41.56 9.443 5.316 28.907 15.541 38.42 18.346l19.21 5.662c8.446 2.49 18.061 4.126 26.996 5.265l12.603 1.595c4.767.61 10.794.905 15.764.874l20.826-.122 1.84-1.88 3.801-.102 8.751-.06 1.423-1.86c.529.03 1.443-.082 2.033-.102.711-.03 1.769 0 2.378-.092 9.9-1.494 29.1-6.535 38.623-10.316l12.644-5.011c31.285-12.41 65.67-40.432 84.524-68.424l6.586-9.777c5.418-8.04 9.33-16.832 11.374-25.522 3.567-1.149 17.055-10.754 22.3-15.43l6.362-5.67c-5.834 8.486-14.646 15.093-23.641 20.592l1.046 5.112c.163.813 3.466.071 4.391-.213l12.248-3.639c13.721-9.015 13.01-16.567 20.43-21.934z"/><path fill="#f9eec4" d="m739.728 350.505-3.547-4.218c-7.044-8.385-21.954-21.466-31.976-13.355l-14.555 3.567c.173 2.5 1.23 6.475 2.897 7.806s7.257 1.677 9.138.702l9.401-4.869c1.484-.762 6.404 1.535 6.597 2.399l-2.633.396-1.779-.05c-.325.193-2.866 2.032-3.669 2.297l-14.91 4.878c-3.497 1.149-15.48-19.017-21.792-26.192-25.186-28.642-52.547-47.303-88.264-60.395-28.154-10.326-63.097-16.323-92.908-13.375-24.048 2.378-48.31 6.962-70.08 16.374-10.673 4.604-21.477 9.147-30.95 15.449l-17.34 11.546c-4.462 2.968-18.03 14.982-22.96 19.668-15.724 14.96-29.049 34.059-35.615 53.757l-1.992-.204c.62-3.191 1.657-7.043 2.978-10.753l3.446-9.686c.427-1.19 2.236-3.832 2.856-4.94.782-1.382-3.791-5.316-4.859-3.994-1.585 1.951-4.543 6.444-6.22 9.178-12.339 20.145-12.146 8.781-24.414 26.426-6.22 8.954-10.55 18.742-12.43 18.244 1.555-7.064 5.356-13.843 10.296-20.257 17.096-22.208 8.964-1.88 25.847-29.272 2.571-4.177 5.204-8.72 7.968-12.491 14.606-19.972 35.676-40.006 56.786-53.015l14.85-9.148c14.138-8.71 41.164-19.068 57.63-22.727l22.279-4.95c16.618-3.689 44.549-2.937 62.386-1.86 17.025 1.027 49.092 9.22 65.161 16.09 35.34 15.104 61.899 33.572 87.563 62.214 3.7 4.126 11.587 16.984 13.345 16.201l4.92-2.175c14.778-6.546 34.415 7.704 36.56 20.734z"/><path fill="#fbf3e2" d="m312.791 366.666-3.273 2.683c-.843.692-2.703 2.978-3.018 3.466-.397.183-1.474-.284-1.78.03l-2.134 2.115c-8.913 5.478-15.683 14.86-18.701 26.08-12.878 47.975-11.13 97.636 4.563 144.715 1.291 3.883 5.032 8 7.786 9.839 2.907 8.69 17.553 3.07 22.178 1.809 2.368-.64 8.03 1.077 8.73 3.425l2.41 8.09-17.198 2.654c-15.429 2.378-28.418-7.064-34.06-21.853-.752-1.982-3.293-4.848-4.197-6.271-1.87-2.927-3.893-9.392-4.767-13.61l-5.987-28.713c-3.943-18.935-1.91-91.72 10.815-109.974 1.88.498 6.21-9.29 12.43-18.244 12.268-17.655 12.085-6.282 24.414-26.427 1.677-2.734 4.635-7.226 6.22-9.178 1.068-1.31 5.642 2.613 4.859 3.995-.62 1.108-2.43 3.75-2.856 4.94l-3.446 9.686c-1.321 3.71-2.358 7.562-2.978 10.753z"/><path fill="#f9f2df" d="M739.728 350.505c5.784 7.257 12.766 38.43 13.793 48.432l1.9 18.66c.834 8.173.793 17.96-.142 25.827l-1.545 12.98c-1.057 8.914-8.436 37.586-14.097 42.363-7.41 5.367-6.708 12.919-20.43 21.934l-12.247 3.639c-.925.274-4.229 1.026-4.391.213l-1.047-5.112c8.995-5.5 17.807-12.106 23.641-20.593-.06-.792-.294-1.666.071-2.032.671-.509 1.84-1.433 2.237-2.186 21.232-39.537 16.943-102.503-2.318-144.165-1.118-2.43-5.346-5.123-7.42-6.119l-.07-1.82c-.194-.853-5.113-3.16-6.597-2.398l-9.402 4.869c-1.89.975-7.48.64-9.137-.702s-2.724-5.305-2.897-7.806l14.555-3.567c10.011-8.111 24.922 4.97 31.976 13.355l3.547 4.218z"/><path fill="#ffc520" d="M432.502 519.136c2.175.203 5.977.101 8.365.081 3.893 1.84 9.605 1.951 14.24 2.145l18.61 3.608c3.832.935 8.131 1.748 11.872 2.104 3.354 1.717 8.1 2.51 12.308 2.256.315.905 2.48 1.83 3.781 2.175l38.532 10.002c13.62 3.537 27.229 6.474 41.164 9.259l14.168 2.836c5.103 1.026 10.896 1.87 16.161 2.185l24.719 1.504c2.775.173 7.41 1.89 11.038 3.415l-7.206 9.219c-10.083 12.898-21.751 21.65-36.001 29.77l-12.797 7.298c-22.716 12.949-51.074 19.606-77.195 22.716-4.807.57-23.062-.487-20.45 8.558.346 1.21 4.757 2.531 6.109 2.552l24.454.396-1.84 1.88-20.825.122c-4.98.03-10.998-.274-15.765-.874l-12.603-1.595c-8.934-1.139-18.55-2.775-26.995-5.265l-19.21-5.662c-9.514-2.805-28.978-13.04-38.42-18.346-18.153-10.214-35.818-25.715-49.63-41.56l-12.279-14.098-8.405-.304c1.23-.56 3.943-1.393 6.565-2.023l7.37-1.779c1.534-.366.396-4.696-.509-7.125-5.448-14.626 37.16-23.163 45.098-24.088l13.233-1.545c9.636-1.118 19.759-1.921 30.055-.956l12.309 1.149z"/><path fill="#d1120c" d="M717.754 344.346c2.073.996 6.301 3.69 7.42 6.119 19.26 41.662 23.55 104.628 2.317 144.165l-2.236 2.186c-.376.366-.132 1.24-.071 2.032l-6.363 5.672c-5.245 4.665-18.732 14.28-22.3 15.429-9.94 3.191-30.573 9.473-40.198 10.723-.57-.671-2.328-2.206-3.263-1.759l-5.072 2.42c-2.388.142-5.661.315-7.917.315l-38.613.04-5.987-.284-1.982-2.41-14.555.58-3.76-.244-1.8-2.48-10.53.793-2.032-.142-1.474-2.541-10.713.203c-.559.01-1.555.132-2.032.071l6.139-3.08 3.984-1.646c1.179-4.056 2.175-6.658 3.608-6.475 3.04.387 6.363 1.068 6.129 2.41l-1.108 6.423 13.274 2.327 9.178-3.892c12.898-5.479-2.846-6.068 4.849-17.95 3.547.102 9.218 2.968 11.668 2.734l13.589-1.321c7.094-.691 3.76-6.84 18.895-17.706 6.22-4.472 9.27-12.684 13.152-19.18 1.87-3.12 6.515-7.693 6.627-11.444.417-14.768 6.911-8.65 14.31-22.787 7.797-14.89 10.358-6.414 11.862-15.887l1.728-10.916c.183-1.128-2.023-4.706-2.988-4.045l-4.879 3.313c-6.942 4.727-5.214-4.177-18.854-2.063l-5.844.905c-2.369-6.109-4.412-9.199-8.355-12.858l-3.842-3.567c-4.848-4.503 12.37-1.017 10.5-6.078.518-.02 1.504.03 2.032.07l10.672.865 1.525-2.734c.498-.01 1.433-.102 2.033-.153 2.012.132 5.376-.63 6.17-1.748.467-.132 1.361-.06 2.032-.071 4.065-.081 8.893-1.616 12.187-3.822 6.83-4.563 21.923-9.655 24.393-21.954l2.012-10.022 1.78.051c.08.061 1.971 1.067 2.713 1.423z"/><path fill="#fd9f16" d="M420.56 507.285c.518.792.66 1.23 1.21 1.209l2.855-.102c2.023-.07 5.113.082 8.05.265l10.245.63 2.196 1.402 11.861.326c.376.752.61 1.362 1.311 1.402l2.917.163 18.153 1.789 8.11.894 2.196 1.464 10.164.66 2.196 1.301 7.795.499c.377.741.62 1.3 1.322 1.382s2.256.091 2.907.183l22.838 3.334 9.676 1.199c.488.06 1.474-.061 2.033-.071l1.697 2.053 10.5.284 2.033.143 1.656 1.667h10.672l3.761.254 1.91 1.717 14.637.112 5.987.285 1.788 1.657h35.056l1.768-1.698c2.257 0 5.53-.173 7.918-.315 2.612-.152 5.844-.345 8.335-.67 9.635-1.261 30.258-7.542 40.198-10.724-2.033 8.68-5.956 17.482-11.373 25.522l-6.587 9.778c-18.854 27.991-53.238 56.024-84.523 68.424l-12.644 5.01c-9.524 3.781-28.723 8.823-38.623 10.317-1.006-1.464-1.565-1.515-2.379.091-.589.02-1.504.132-2.032.102l-8.518-.498-1.656 2.419-3.802.102-24.454-.397c-1.352-.02-5.753-1.341-6.109-2.551-2.612-9.046 15.643-7.979 20.45-8.558 26.121-3.11 54.479-9.768 77.195-22.717l12.797-7.297c14.25-8.121 25.918-16.872 36-29.77l7.207-9.22c-3.629-1.524-8.263-3.242-11.038-3.414l-24.719-1.505c-5.275-.325-11.069-1.168-16.16-2.185l-14.17-2.836c-13.934-2.795-27.544-5.722-41.163-9.259l-38.532-10.001c-1.3-.336-3.466-1.26-3.78-2.175l-2.206-6.332c-3.497.203-8.67 2.134-10.093 4.075-3.74-.366-8.04-1.169-11.872-2.104 1.098-1.83.193-7.318-1.941-7.196-3.954.214-10.408 1.057-14.545 1.504l-2.124 2.094c-4.645-.193-10.347-.305-14.24-2.144-.325-.813-2.144-3.08-3.12-2.612l-5.255 2.53-12.308-1.148c-10.286-.956-20.42-.163-30.055.955-5.865-8.375-19.18-10.662-30.756-4.269-5.306 2.928-8.04-1.23-30.635 7.928-8.588 3.476-14.747 8.436-22.126 15.704l-1.901-.56c2.663-3.882 6.302-7.724 10.154-10.54l2.032-2.032 4.066-2.033c.66-.335 1.545-1.443 2.033-2.033l2.775-.447c.69-.112.772-.66 1.29-1.575h4.066l2.033-2.033 10.164-2.033c.803-.163 2.276-1.687 2.266-1.921l3.446-.112 4.635-1.951 13.924-1.86 14.951-1.85c9.92-1.23 28.602-.407 38.024-.051z"/><path fill="#fb9f14" d="m390.149 518.943-13.234 1.545c-7.927.924-50.545 9.462-45.097 24.088.905 2.43 2.043 6.749.508 7.125l-7.369 1.779c-2.622.63-5.336 1.463-6.566 2.022l.02 1.901c-4.634 1.26-19.27 6.87-22.177-1.81l7.897 1.363c.387.071 1.444-3.547 1.007-2.612-2.287-3.314-5.093-7.176-4.473-9.28s2.775-5.417 4.076-7.318l1.9.559c7.38-7.257 13.54-12.217 22.128-15.703 22.594-9.158 25.339-4.99 30.634-7.928 11.577-6.393 24.892-4.107 30.756 4.269z"/><path fill="#ffc520" d="m538.36 639.192-1.423 1.86-8.751.061 1.656-2.419zm4.411-.193c-.61.092-1.667.071-2.378.092.813-1.616 1.372-1.555 2.378-.092"/><path fill="#d82315" d="M650.214 382.44c1.87 5.072-15.347 1.576-10.5 6.079l3.843 3.567c3.943 3.67 5.986 6.76 8.355 12.858l5.844-.905c13.64-2.114 11.902 6.8 18.854 2.063l4.879-3.313c.965-.65 3.16 2.917 2.988 4.045l-1.728 10.916c-1.494 9.473-4.065.996-11.861 15.886-7.4 14.139-13.894 8.02-14.311 22.788-.102 3.75-4.757 8.324-6.627 11.445-3.883 6.494-6.932 14.707-13.152 19.18-15.134 10.875-11.8 17.014-18.895 17.705l-13.59 1.321c-2.449.234-8.12-2.632-11.667-2.734-7.695 11.882 8.05 12.471-4.849 17.95l-9.178 3.892-13.274-2.327 1.108-6.424c.234-1.342-3.09-2.033-6.129-2.409-1.433-.183-2.429 2.43-3.608 6.475l-3.984 1.646-6.14 3.08-9.675-1.2-22.839-3.333c-.559-.468-2.998-1.494-4.228-1.565l-7.796-.498-2.195-1.301-10.164-.661c-.305-.386-1.454-1.382-2.196-1.464l-8.11-.894-18.153-1.789c-.519-.468-3.009-1.525-4.228-1.555l-11.862-.325-2.195-1.403-10.246-.63c-2.937-.183-6.027-.336-8.05-.264-.426-.326-2.886-1.057-4.065-1.108-9.412-.356-28.093-1.18-38.023.05l-14.952 1.85-13.924 1.86c-1.372.183-4.066 1.464-4.635 1.952l-3.446.112-2.266 1.92-10.164 2.033c-.376-.935-3.954-1.423-6.8-1.494-6.505-6.311-10.652-16.638-11.668-26.68l-1.453-14.331-.529-67.174-1.118-13.914c-.274-3.375 1.088-8.538 1.677-12.106l2.084-12.583-8.863 4.035c.315-.487 2.165-2.774 3.018-3.465l3.273-2.684 1.992.204c56.542-27.707 149.248-8.274 211.279 4.055 50.057 9.96 74.278 13.874 124.152 11.506z"/><path fill="#ffd023" d="m713.261 342.872-2.012 10.022c-2.47 12.309-17.563 17.39-24.394 21.954l-8.598 1.464c-.895.152-3.781 2.256-3.588 2.358-.671.01-1.566-.061-2.033.07l-6.17 1.75c-.6.05-1.534.131-2.032.152l-10.5.304-1.697 1.566c-.529-.04-1.515-.102-2.033-.071-49.874 2.368-74.105-1.545-124.153-11.506-62.03-12.34-154.746-31.762-211.278-4.055 6.576-19.688 19.901-38.796 35.615-53.758 4.919-4.685 18.498-16.699 22.96-19.667l17.34-11.546c9.462-6.302 20.277-10.835 30.949-15.45 21.771-9.401 46.033-13.995 70.08-16.374 29.811-2.947 64.755 3.04 92.91 13.376 35.715 13.102 63.087 31.752 88.263 60.395 6.312 7.175 18.295 27.34 21.792 26.192l14.91-4.879c.803-.264 3.344-2.114 3.67-2.297m4.493 1.474c-.742-.356-2.633-1.362-2.714-1.423l2.632-.396.072 1.82z"/><path fill="#c10407" d="M333.17 517.062c-.447.092-1.413-.294-1.759 0l-2.307 2.033h-2.033l-4.065 2.033-2.033 2.033-4.066 2.032c-.67.336-1.544 1.434-2.032 2.033-3.852 2.816-7.491 6.647-10.154 10.54-1.301 1.89-3.456 5.214-4.076 7.318s2.185 5.967 4.472 9.28c.437-.945-.62 2.673-1.006 2.612l-7.897-1.362c-2.755-1.84-6.495-5.956-7.786-9.839-15.703-47.069-17.451-96.74-4.564-144.714 3.009-11.221 9.788-20.602 18.702-26.08l2.135-2.115c.315-.305 1.392.153 1.778-.03l8.863-4.035-2.083 12.583c-.59 3.577-1.952 8.73-1.677 12.105l1.118 13.914.528 67.174 1.454 14.331c1.016 10.052 5.163 20.369 11.668 26.68 2.846.072 6.434.57 6.8 1.495z"/><path fill="#d82315" d="m302.586 374.95 2.135-2.114z"/><path fill="#fbedc0" d="m725.255 496.816 2.236-2.186c-.407.753-1.565 1.677-2.236 2.186"/><path fill="#fb9f14" d="m473.717 524.97-18.61-3.608 2.124-2.094c4.127-.447 10.58-1.291 14.545-1.504 2.134-.122 3.039 5.366 1.941 7.196zm24.18 4.36c-4.208.244-8.954-.549-12.308-2.256 1.423-1.942 6.596-3.873 10.092-4.076l2.206 6.332zm-57.03-10.113c-2.399.02-6.19.122-8.365-.081l5.255-2.531c.976-.468 2.795 1.799 3.12 2.612z"/><path fill="#d82315" d="m640.06 531.648-1.778 1.697h-35.056l-1.789-1.647zm-44.599-.244-14.636-.112-1.91-1.708 14.564-.58zm68.983-150.762-1.525 2.734-10.672-.864 1.697-1.566zM560.792 527.52l-10.49-.285-1.697-2.053 10.713-.203zm14.361 1.82-10.662-.01-1.666-1.678 10.53-.793zm81.16 1.33c-2.5.326-5.723.52-8.335.672l5.072-2.42c.935-.447 2.693 1.078 3.263 1.759zm16.333-151.93c-.793 1.118-4.147 1.88-6.17 1.748zm14.22-3.883c-3.304 2.206-8.122 3.74-12.187 3.822-.193-.102 2.693-2.206 3.588-2.358zM327.07 519.085c-.518.915-.6 1.463-1.29 1.575l-2.775.448 4.065-2.033z"/><path fill="#fb9f14" d="m424.625 508.392-2.856.102c-.549.02-.701-.417-1.21-1.21 1.18.041 3.64.773 4.066 1.108m-70.954 2.653-4.635 1.952c.569-.488 3.262-1.769 4.635-1.952m107.534 1.525-2.917-.163c-.701-.04-.935-.65-1.311-1.402 1.22.03 3.71 1.087 4.228 1.555zm52.843 8.161c-.65-.091-2.196-.101-2.907-.183s-.945-.64-1.322-1.382c1.23.082 3.68 1.098 4.229 1.565"/><path fill="#d82315" d="M331.137 519.085h-2.033l2.307-2.023z"/><path fill="#fb9f14" d="m331.137 519.085.274-2.033c.336-.295 1.312.092 1.759 0zm170.887-.417-2.196-1.3zm-181.05 4.482 2.032-2.032c-.488.59-1.372 1.697-2.033 2.032m-6.1 4.066c.489-.6 1.363-1.697 2.033-2.033zm130.242-16.527-2.196-1.402zm-101.782 4.34 2.266-1.92c.02.233-1.463 1.758-2.266 1.92m146.33 1.678-2.195-1.464c.742.081 1.9 1.077 2.195 1.464"/></svg>