<svg xmlns="http://www.w3.org/2000/svg" viewBox="0 0 1024 1024"><path fill="#e9413a" d="m254.362 344.303 2.013 4.3c.786 1.69 4.463 3.986 6.35 4.967l14.062 7.356 8.994 4.779 18.535 10.163 1.587 1.621.077 2.534c.034 1.289.674 3.943 1.126 4.557l.094 2.611 1.289 3.098.153 3.891c.026.615 1.084 1.852 1.272 1.818l.093 2.637c.018.554 1.016 1.672 1.161 1.647l.29 4.019c.043.597 1.135 1.698 1.331 1.69l.086 2.628c.017.554 1.04 1.672 1.194 1.655l.333 4.036c.051.615.973 1.349 1.434 1.656l.034 1.425 1.28 1.442.06 2.483 1.263 1.622.06 1.425 1.424 2.816c-.008.478-.17 1.16.052 1.425l1.467 1.783c.29.88.837 3.03 1.246 3.857l4.352 8.704c.248.495 1.05 1.11 1.442 1.374-.034.538-.205 1.178.034 1.425l1.57 1.596 1.255 2.74c.23.494 1.05 1.1 1.45 1.347-.025.52-.204 1.178.035 1.425l2.927 3.03 1.263 2.773c.247.555 1.263 1.22 1.715 1.468l2.611 4.207c.316.512 1.229 1.314 1.579 1.561l1.228 2.757c.248.554 1.263 1.22 1.716 1.467l3.678 4.762c.665.862 1.425 1.74 1.749 2.219 3.917 5.836 15.351 15.692 21.325 20.002l13.56 9.788c2.534 1.826 7.363 4.736 9.855 6.033.913.477 2.944.904 3.891 1.297l1.562 1.595c.256.265.913.086 1.425.043l1.229 1.229c.529-.026 1.16-.18 1.425.043.35.452 1.135 1.305 1.74 1.476l3.9 1.084 8.252 2.517c9.685 2.952 21.137 5.308 30.328 5.103 14.284 2.492 34.551-2.27 48.76-7.22l10.41-3.626c8.798-3.064 35.294-19.746 39.364-27.708 4.403-.947 17.51-20.847 20.181-25.574 5.325-9.43 8.141-19.26 11.81-30.08.453-1.34 3.363-3.012 4.728-3.012h13.483l12.544 1.416 24.234-.29c6.793-.085 15.087 1.382 21.752.247-.145 8.73-.7 17.673-1.562 27.102l-2.219 24.2-7.185 78.43-5.947 60.331-3.269 34.176-.827 8.713-2.1 22.63-3.686 37.248-3.243 31.19-.99 9.147-2.56 27.998-1.151 12.92-1.255 14.327-6.306 65.075-4.156 41.848-1.536 15.488-3.575 34.662-4.514 43.708-4.096 1.86c-5.71-2.159-11.648-5.06-17.391-8.362l-12.493-7.168-53.018-27.11-8.004-3.747-34.483-15.232-28.245-11.622c-30.046-12.365-60.707-21.334-92.357-29.014-7.961-1.928-15.77-2.91-23.944-4.224-5.402-.87-15.48-.341-17.23-2.995-1.074-1.63-2.09-5.777-2.269-7.774l-1.032-11.486-3.252-25.344-3.703-27.784-4.531-34.227-3.49-22.213-1.87-14.319-2.098-15.76-7.356-54.162-3.593-25.335-3.089-22.025-1.34-10.342-3.276-23.774-2.757-19.917-1.186-8.746-1.698-12.681-2.517-18.79-3.132-21.146-1.297-8.747-1.365-9.984-1.716-12.68-2.577-17.775-1.587-10.983-1.442-9.975-1.434-9.882-1.356-9.89-1.51-11.605-1.272-9.788-1.51-11.614-1.485-11.349-1.144-8.713-2.159-15.522-1.536-10.078-1.655-12.68-1.289-12.877-1.092-1.425-.102-11.298 2.252 3.695c4.386 7.202 13.142 10.513 21.274 14.157l.794-3.9z"/><path fill="#d72b26" d="m596.924 1022.515 4.096-1.86 4.514-43.708 3.575-34.662 1.536-15.488 4.156-41.848 6.306-65.075 1.255-14.327 1.152-12.92 2.56-27.998.99-9.147 3.242-31.19 3.687-37.248 2.099-22.63.827-8.713 3.269-34.176 5.947-60.33 7.186-78.43 2.218-24.2c.862-9.43 1.417-18.364 1.562-27.103 7.919-1.34 15.607-6.826 22.912-10.069l9.6-4.267 30.515-14.788 31.514-15.112 6.929-18.492c2.457-6.57 5.086-13.124 6.963-19.9l1.195-4.292.4 5.376c3.405 2.713 6.264 5.009 9.234 7.86l5.913 5.69c.299 4.814.563 10.54 0 15.08l-1.425 11.622-1.527 12.527-1.391 10.171-1.366 9.822-1.544 11.4-1.4 10.403-1.314 9.839-1.527 11.443-1.323 9.975-1.519 11.47-1.365 10.077-1.186 8.55-4.531 32.521-1.195 8.934-1.937 14.968-2.91 21.077-3.277 23.766-1.468 11.409-1.51 11.434-4.634 32.888-1.715 12.57-1.34 10.214-1.34 11.4-1.578 14.123-1.433 11.375-1.374 9.992-2.944 21.368-5.743 41.062-3.96 30.567-5.598 41.463-2.073 16.504-9.327 70.408c-1.28 9.694-.427 9.899-10.488 15.633l-19.046 10.872-7.322 4.079-28.015 16.256-10.794 6.34-23.22 13.84c-2.466 1.469-8.942 5.104-9.693 1.597z"/><path fill="#c61609" d="m254.362 344.303-.794 3.9c-8.132-3.653-16.887-6.955-21.274-14.157l-2.252-3.695c0-.47.75-2.355 1.083-2.62l14.004-10.863c1.314-1.015 2.918-1.945 3.797-2.423l4.215 20.855c.734 3.644.999 6.366 1.22 9.003m-23.126-1.229-1.092-1.425z"/><path fill="#fdc81e" d="m330.13 447.343-1.571-1.596c.478.367 1.323 1.05 1.57 1.596"/><path fill="#fde15d" d="m551.1 4.804.17 1.989c.052.605-1.8.204-2.483.204l-11.306 9.762c-7.578 6.546-5.368 1.955-13.44 11.375l-.103 91.973-1.024 6.127.265 25.574.7 14.268c.622 12.706-.265 24.78-.496 37.316l-.563 31.232-.12 22.98-.818 18.373-.632 14.165-2.073 2.705c-.888 1.16-3.755 2.432-5.06 3.038l3.438-4.105c-1.229-1.365-3.831-3.447-6.033-4.744l-12.322-7.288c-1.357-.802-2.901-1.766-3.678-2.449l4.258-.034.41-42.53.879-5.965.554-47.172c.035-2.893-2.884-7.202-5.46-7.603l-17.443-2.714-.307-60.749-.99-2.594c-.273-.717-3.507.068-4.139.743l-10.93 11.707c-4.626 4.95-3.713 15.13-5.83 25.49l-2.627 12.85-2.5 13.21c-.342 1.784-1.084 5.419-2.51 5.487l-6.971.341-5.342 10.385-6.707 13.056-5.504 10.718c-6.46 12.57-7.049 17.417-14.439 28.655l.24 61.048.255 11.614-.12 12.697.444 29.782-.247 12.996.12 18.696-.077 11.264-.205 30.063.486 17.075-.452 25.694-.307 17.195c-7.236 2.935-10.283-22.025-10.914-27.085l-1.28-10.325-.393-7.083-.939-9.77-2.193-8.474-.972-10.325-1.374-13.773c-.453-4.531-1.246-7.979-.077-12.467-.46-3.243-1.579-8.175-1.903-11.862l-1.152-13.115-.734-15.872c-.085-1.929-.913-5.923-1.527-8.039l-2.5-8.619-3.627-11.22c-.922-2.851-1.178-5.693-.965-8.935 1.272-19.303-2.355-5.7-2.645-27.222-.051-3.968-.555-7.509-.879-11.366l-.845-9.941c-.187-2.193-2.005-6.725-2.073-8.798l-.64-19.456c-.06-1.698-1.528-6.187-.683-7.484l5.36-8.286c2.115-3.268 3.95-6.784 5.614-10.078 5.086-10.078 9.728-18.944 15.744-28.774 1.024-1.664.87-5.129.75-7.672l-.86-17.527-1.119-5.35-.17-37.428c0-1.024 1.408-3.737 1.527-3.532l-.034 23.023v6.024l1.425 1.11.026 21.666c0 2.491.99 6.621 1.826 9.838.921-.076 3.558-2.005 3.797-3.097l2.492-11.418 5.58-31.42 2.808-15.889 21.103-22.519c1.032-1.1 4.932-1.203 6.23-.947l31.385 6.306c1.468.299 3.388-2.842 3.396-4.002l.196-21.248.436-43.017c.025-2.858 2.747-6.349 5.034-7.04l-3.26 4.463 7.57.964 9.975 1.263c14.865 1.886 8.969 3.806 23.782 3.226l8.039-6.315 5.717-4.488c4.122-3.234 7.97-6.682 10.872-10.496h4.104z"/><path fill="#fddc48" d="M775.441 148.915c.674 3.354-11.068 2.552-14.6 11.273l-7.945 19.592-3.823 9.77-6.016 15.404-3.354 8.533-6.621 16.768c-.145.375.452 2.338.853 2.312.606-.042 2.68-.759 3.26-.588l10.76 3.294c.734.221 1.596-1.75 2.398-3.644l2.697-.939c2.875 1.417 5.103.478 7.236-1.143 6.118-4.642 2.705 1.058 12.168-7.356-.17 1.39.538 5.342 2.006 6.272l24.38 15.394c2.278 1.434 4.206 5.752 3.626 7.757-.555.264-1.084.495-1.1.981l-.052 1.98-.034 1.382-1.587-2.142.025-4.061c0-.862-2.432-.623-3.328-.384l-22.937 6.11c-10.607 2.824-9.617.708-13.884 11.835l-2.833 7.399-14.754 37.401-4.77 10.966a160 160 0 0 1-3.303 7.031l-7.15 14.327c-5.7 11.435-14.712 6.093-19.653 11.333l-7.185 7.603c-1.434 1.519-3.456 5.163-4.241 7.194l-4.079 10.606c-1.092 2.842-1.894 6.656-2.688 9.848l-2.56 10.274c-2.287 9.173-5.402 9.634-6.34 20.105-7.305 3.25-14.993 8.73-22.912 10.069-6.673 1.126-14.96-.333-21.752-.248l4.634-12.74 11.324-31.087 11.468-31.565c1.963-5.401 3.277-11.298 4.395-17.177l2.663-14.012 1.083-1.493 3.44-14.217c.511-2.133 1.109-5.512 1.185-7.321l.06-1.425c5.094-7.663 3.072-12.254 6.255-24.474 2.33-8.934 4.48-13.73 9.165-21.111l6.11-9.643 5.666-8.943c3.14-4.958 3.772-11.128.153-15.855l-9.062 2.065-9.865 5.094c-1.16.598-4.582-.136-5.845.026.094-.452.145-.674.094-.444l16.12-6.22c2.918-1.127 8.738-2.15 9.258-6.452-.094-2.739-4.992-6.886-7.347-8.627l-2.074-5.325 10.573-22.34 10.684-23.381 9.634-21.36c1.323-2.935 3.584-5.938 6.033-7.056.265 2.082 1.792 4.659 3.558 6.297l11.273 10.42 12.083 10.35c4.54 3.892 11.324-4.138 17.374-4.309z"/><path fill="#fdec7a" d="M348.493 186.12c-3.217 7.297-7.51.274-6.417 18.68l1.263 21.24.418 5.7 1.152 15.505.785 10.163.887 11.443 1.16 15.53.812 10.215 1.015 12.817 1.041 15.71.828 12.8.93 14.285 1.1 21.12.615 4.582.546 17.297.785 7.151.64 30.857 1.178 7.535-.333 12.706c-.307 11.614-15.863-15.138-16.418-16.017l-5.035-8.098c-5.35-8.602-19.123-30.848-21.086-38.46-3.174-12.305-3.268-4.19-4.974-13.867l-1.349-7.645c-1.561-8.858.299-11.708-2.253-12.988l-.836-8.602-1.11-11.255-1.33-12.86-1.101-11.4-.922-10.258-1.007-11.178-1.271-14.328-1.545-18.491-.913-11.316-.955-11.52-1.332-15.701c-.315-3.73-.571-7.671-1.066-11.102l-1.485-10.231c-.802-5.564-.64-11.41 2.261-15.284.359.555 4.002 1.127 5.248.436l18.808-10.437c4.036-2.235 7.475-3.54 9.804-6.178.7-.35 1.17-.392 1.178-.836l.068-2.03.316-13.04 1.289 1.365.921 14.857 16.461 1.579 9.958.955c1.084.103 4.25 1.997 4.36 3.047l-12.227 12.817c-.35.367-.666 2.261-.87 2.722z"/><path fill="#fdd12e" d="m396.826 90.206 1.638 2.594.137 16.009c-.12-.205-1.528 2.508-1.528 3.532l.17 37.428 1.119 5.35.861 17.527c.128 2.552.274 6.008-.75 7.672-6.016 9.83-10.659 18.696-15.744 28.774-1.664 3.303-3.5 6.81-5.615 10.078l-5.36 8.286c-.836 1.297.632 5.786.683 7.484l.64 19.456c.069 2.082 1.895 6.613 2.074 8.798l.845 9.94c.324 3.85.827 7.39.879 11.367.298 21.513 3.925 7.91 2.645 27.222-.213 3.242.043 6.084.964 8.934l3.627 11.221 2.5 8.62c.615 2.124 1.442 6.109 1.528 8.037l.734 15.872 1.152 13.116c.324 3.687 1.442 8.619 1.902 11.862-1.177 4.497-.375 7.936.077 12.467l1.374 13.773.973 10.325 2.193 8.473.939 9.771.392 7.083 1.28 10.325c.632 5.069 3.67 30.02 10.914 27.085-.034 2.125.768 5.436 1.417 8.482l1.382-5.854 1.528-1.459-1.22 11.725-.666 5.59-1.263 12.5-3.9-1.083-1.74-1.477c-.265-.221-.905-.068-1.426-.042l-1.228-1.229c-.512.043-1.17.222-1.426-.043-.35-.486-1.006-1.365-1.561-1.595-.956-.393-2.978-.828-3.891-1.297l-1.707-2.228 3.37-2.415c2.74-1.962-2.935-5.768.905-10.333l2.535-3.004c1.553-1.843-5.197-3.132-3.448-15.121 1.263-8.653-7.407-9.25-8.482-12.928-6.963-23.868-1.613-4.028-1.988-22.272l-.273-13.295c-.052-2.492-.811-6.298-1.588-8.738l-3.208-10.078c-2.244-7.032 4.488-5.897 1.032-12.015-9.156-16.213-.529-8.585-7.338-19.157-4.71-7.322 3.277-4.19-.88-12.886-1.16-2.415-1.748-4.522-1.91-6.562l-1.05-13.158-.708-8.687c-.077-.982-.777-4.105-1.741-4.284-5-.905-6.537 2.142-8.875-.99l-2.338-7.569c-1.835 1.681-3.695 3.012-3.217 3.746l2.184 3.311c.555.845 1.98 1.852 1.656 2.347l-1.8 2.739c-.93 1.417-1.878 5.564-.854 6.87l5.811 7.38-3.43 11.06-1.468 4.77c-2.952 9.583 8.627 9.43.111 18.167l-.316 34.091 1.152 8.49.666 19.969.674 11.818c.154 2.654-2.688 7.151-4.523 10.377-3.754 6.613 12.468 12.484 7.655 14.345l-7.63-7.27c-.818-.777-3.13-2.057-3.737-2.33-.324-.487-1.092-1.366-1.749-2.22l-3.678-4.76c-.375-.487-1.28-1.161-1.715-1.468l-1.229-2.757c-.247-.563-1.203-1.34-1.579-1.561l-2.61-4.207c-.325-.52-1.264-1.178-1.716-1.468l-1.263-2.773c-.452-1.007-1.997-2.373-2.927-3.03-.239-.247-.06-.904-.034-1.425l-1.45-1.348-1.255-2.74c-.247-.545-1.092-1.228-1.57-1.595-.248-.247-.068-.887-.034-1.425l-1.442-1.374-4.352-8.704c-.41-.828-.956-2.978-1.246-3.857-.205-.614-1.024-1.408-1.468-1.783-.222-.265-.06-.948-.051-1.425l-.17-1.955c-.035-.418-.581-.537-1.255-.861l-.06-1.426-1.263-1.62-.06-2.484-1.28-1.442-.034-1.425-1.433-1.656-.333-4.036-1.195-1.655-.085-2.629-1.331-1.69-.29-4.019-1.161-1.646-.094-2.637c-.026-.623-1.075-1.792-1.271-1.818l-.154-3.891-.085-2.159c-.017-.503-.606-.7-1.204-.939l-.093-2.61-1.127-4.558-.077-2.534c-.017-.452-.162-1.22-.256-1.74l6.998 10.538 1.706 2.568c1.963 7.604 15.744 29.85 21.086 38.46l5.035 8.098c.555.888 16.11 27.64 16.418 16.017l.333-12.706-1.178-7.535-.64-30.856-.785-7.151-.546-17.297-.614-4.583-1.101-21.12-.93-14.285-.828-12.8-1.041-15.71-1.016-12.816-.81-10.215-1.16-15.53-.888-11.444-.785-10.163-1.152-15.505-.418-5.7-1.263-21.24c-1.093-18.406 3.2-11.392 6.417-18.68.896-.562 3.114-2.21 4.062-3.233l10.316-11.222 8.832-.23-.196-28.382.017-25.557c0-2.296 4.275-6.443 5.837-8.218l7.475-8.473c5.479-6.204 6.614-8.124 11.981-10.599z"/><path fill="#fded7b" d="m642.611 194.526 1.553 1.084 1.203.017 2.185.153c.503.034.691-.537.956-1.143l19.131-6.161c1.989-.64 7.39-1.52 8.867-.069l12.731 12.51c.965.948 4.779.393 5-.623l2.074 5.325c2.356 1.741 7.262 5.888 7.348 8.627-.52 4.293-6.332 5.325-9.259 6.452l-16.12 6.22c.052-.239 0-.017-.093.444-6.656.87-12.314 2.825-16.564 9.003l-7.552 10.974-11.05 16.179-11.682 17.118-3.951 5.913-14.345 21.086-14.609 21.479-6.041 8.243-8.073 11.375-10.163 14.558c-7.151 6.639-14.823-1.588-23.049-5.726-4.31-2.168-22.135-9.361-20.002-15.582 1.434-4.173 8.295-10.957 13.858-18.347l13.432-17.843 6.05-8.038 5.453-7.211 11.187-14.669 3.72-4.932c2.612-3.465 4.847-7.347 6.4-10.897l20.276-28.314 12.85-18.082c3.303-4.65 6.606-10.07 10.471-13.841 11.947-11.665 1.792-7.091 8.158-12.288l-.35 7.023z"/><path fill="#fde45d" d="m592.7 90.718 5.572 8.328 11.119 11.742 8.772 8.73c1.8 1.792 6.067 3.712 8.073 3.755l7.885-1.51-4.873 1.979c-4.096 1.664-5.769 3.55-6.912 7.654l-6.042 21.726-6.033 20.967-2.09 7.756-4.608 17.656-7.126 27.05-4.155 14.43-3.917 13.466c-.248.853-.196 3.942.188 4.668s1.527.708 2.636.921c-1.553 3.55-3.78 7.433-6.4 10.897l-3.72 4.933-11.187 14.668-5.453 7.211-6.05 8.038-13.432 17.844c-5.564 7.39-12.424 14.174-13.858 18.346l-1.374.069c.939-3.235 1.058-7.825 1.681-11.776l2.279-14.345 1.69-9.967 2.252-12.595 2.816-15.727 5.666-31.155c.461-2.543.888-5.427 1.016-7.475.222-.401.998-2.833 1.365-4.301l4.873-19.593 2.585-10.223 5.069-19.345c1.732-6.63-5.547-3.225-6.716-8.32l5.547-.128c3.328-8.354 6.28-16.324 9.054-24.746l5.299-16.094L588.1 94.31c.571-1.723 3.14-3.643 4.599-3.6z"/><path fill="#fde666" d="M305.783 354.372c2.552 1.289.692 4.13 2.253 12.988l1.349 7.646c1.706 9.668 1.8 1.561 4.974 13.867l-1.706-2.569-6.998-10.539-1.33.12-18.535-10.163-8.994-4.78-14.063-7.355c-1.886-.99-5.564-3.285-6.349-4.966l-2.014-4.301c-.222-2.637-.478-5.359-1.22-9.003l-4.216-20.855-.204-5.683-19.943-88.73-10.24-42.146c-.375-1.545.88-3.968 1.613-4.838.128.503 2.022 2.747 3.004 2.986l9.139 2.193 11.571 2.825 13.005 3.132c1.408.34 4.89.034 5.41-1.238 3.73-9.139 7.416-13.619 13.662-19.737-.964 2.816-2.611 5.53-4.489 8.448l-6.417 9.992c-2.33 3.627.145 10.94 1.255 15.19l3.08 11.784 2.867 11.247 2.62 10.231 5.112 21.667 6.835 29.952 5.64 23.168 1.349 6.562 4.079 20.002 2.218 11.52 4.028 19.413 1.655-8.004z"/><path fill="#fdc822" d="m801.289 255.966-8.329 20.198-19.73 50.629c-2.423 6.22-4.744 11.98-6.51 17.749l-1.195 4.292c-1.877 6.776-4.505 13.33-6.963 19.9l-6.929 18.492-31.514 15.112-30.515 14.788-9.6 4.267c.93-10.462 4.045-10.931 6.34-20.104l2.56-10.275c.794-3.191 1.596-6.997 2.689-9.847l4.078-10.607c.786-2.03 2.808-5.675 4.242-7.194l7.185-7.603c4.94-5.23 13.952.103 19.652-11.332l7.15-14.328a155 155 0 0 0 3.303-7.031l4.77-10.965 14.754-37.402 2.834-7.398c4.266-11.128 3.276-9.012 13.883-11.836l22.938-6.11c.896-.239 3.336-.486 3.328.384l-.026 4.062 1.587 2.142z"/><path fill="#fcc927" d="M554.3 177.229c1.169 5.094 8.448 1.69 6.715 8.32l-5.068 19.345-2.586 10.223-4.872 19.592c-.367 1.468-1.135 3.9-1.366 4.301.145-2.304-.384-7.313.47-9.566 2.338-6.186 3.097-12.399-2.39-17.416l-5.7.845c-.18 1.245.145 4.736.64 6.314l.973 3.132c.247.785-2.407.683-2.74-.051l-2.047-4.531c-.359-.794-2.202-.41-3.747-.333-4.642.222-6.579 4.565-5.947 8.687.239 1.561-1.246 5.137-1.494 6.724-1.809 11.571.248 22.989-2.457 24.806l.12-22.98.562-31.232c.23-12.535 1.118-24.61.495-37.316l-.7-14.268-.264-25.574 1.024-6.127.102-91.973c8.073-9.42 5.871-4.838 13.44-11.374l11.307-9.763c.683 0 2.535.401 2.483-.204l-.17-1.989 1.553 2.944.042 156.809c0 3.942.93 9.745 1.596 12.672z"/><path fill="#fdcb28" d="M661.154 113.502c.452 1.698 0 5.316-.537 7.373l-7.476 28.706-3.592 13.807-5.94 23.1c-.05.187-.52.844-.64 1.015-6.365 5.197 3.79.614-8.157 12.288-3.857 3.772-7.16 9.19-10.47 13.841l-12.852 18.082-20.275 28.314c-1.118-.222-2.261-.197-2.637-.922s-.435-3.823-.188-4.668l3.917-13.465 4.156-14.43 7.125-27.05 4.608-17.656 2.09-7.757 6.034-20.966 6.042-21.726c1.143-4.105 2.816-5.99 6.912-7.655l4.872-1.98 11.93-3.848 7.466-2.38c2.62-.837 5.402-1.52 7.638-2.049z"/><path fill="#fde764" d="M396.826 90.206c-5.368 2.475-6.503 4.395-11.981 10.598l-7.475 8.474c-1.562 1.775-5.837 5.922-5.837 8.217l-.017 25.558.196 28.382-8.832.23-10.317 11.221c-.947 1.033-3.166 2.671-4.062 3.235.205-.461.52-2.356.87-2.723l12.229-12.817c-.11-1.05-3.277-2.944-4.36-3.046l-9.959-.956-16.46-1.578-.922-14.857-1.289-1.365.341-35.567c.018-2.193.598-7.578 2.432-9.378l18.996-18.697c7.1-6.989 12.407-5.709 24.268-2.662l15.224 3.916c2.458.632 5.675 2.33 6.963 3.815z"/><path fill="#fdc81d" d="m805.265 141.5-4.693 12.27-1.613 4.225-17.144 42.743-3.763 9.037-5.598 12.424c-9.463 8.414-6.05 2.714-12.168 7.356-2.133 1.622-4.36 2.56-7.236 1.144l-2.697.938c-.802 1.895-1.664 3.874-2.398 3.644l-10.76-3.294c-.58-.179-2.654.546-3.26.589-.401.026-.998-1.937-.853-2.313l6.621-16.768 3.354-8.533 6.016-15.403 3.823-9.77 7.945-19.593c3.532-8.712 15.274-7.919 14.6-11.272l10.01-4.054 17.996-7.287 1.818 3.925z"/><path fill="#fdd42e" d="m285.943 153.344 3.542 13.252 3.695 14.26c-2.902 3.874-3.064 9.719-2.262 15.283l1.485 10.231c.495 3.43.751 7.364 1.067 11.102l1.331 15.701.956 11.52.913 11.316 1.544 18.491 1.272 14.328 1.007 11.178.921 10.257 1.101 11.401 1.331 12.86 1.11 11.255.836 8.602-1.655 8.004-4.028-19.413-2.219-11.52-4.079-20.002-1.348-6.563-5.64-23.168-6.836-29.952-5.111-21.666-2.62-10.231-2.867-11.247-3.08-11.785c-1.11-4.25-3.585-11.562-1.255-15.189l6.417-9.992c1.877-2.919 3.524-5.632 4.488-8.448l4.54-6.955c.82-1.246 4.233-2.697 5.462-2.901z"/><path fill="#fdec7b" d="m805.265 141.5-1.818-3.926-17.996 7.288-10.01 4.053c-6.05.17-12.826 8.2-17.374 4.31l-12.083-10.351-11.273-10.42c-1.766-1.638-3.293-4.215-3.558-6.297 10.863-4.941 21.973-8.798 34.1-13.201 2.184-.794 7.654-.837 9.42.512l14.669 11.213 13.986 10.726c1.732 1.331 2.705 4.096 1.946 6.101z"/><path fill="#fdee7b" d="M661.154 113.502c-2.236.529-5.009 1.212-7.637 2.048l-7.467 2.38-11.93 3.85-7.884 1.51c-2.006-.043-6.272-1.963-8.073-3.755l-8.772-8.73-11.119-11.742-5.572-8.328c2.5-1.621 6.195-2.722 9.822-3.243l26.29-3.797c2.56-.367 6.734 1.288 8.585 3.217l19.064 19.857c1.68 1.75 4.181 4.83 4.693 6.741z"/><path fill="#fdf288" d="M285.943 153.344c-1.228.205-4.65 1.655-5.46 2.901l-4.54 6.955c-6.247 6.118-9.933 10.598-13.662 19.738-.521 1.28-3.994 1.578-5.41 1.237l-13.005-3.132-11.572-2.824-9.139-2.193c-.981-.24-2.876-2.484-3.004-2.987 4.626-5.436 28.502-27.605 33.11-27.554 8.815.102 17.476.674 26.163 1.357 3.814.298 5.751 3.643 6.51 6.493z"/><path fill="#fdf18a" d="m544.026 3.49 2.978 1.331c-2.902 3.815-6.75 7.254-10.872 10.496l-5.717 4.489-8.038 6.315c-14.814.58-8.91-1.34-23.783-3.226l-9.975-1.263-7.57-.964 3.26-4.463c8.167-7.689 15.045-17.46 26.804-16.068l16.085 1.902c5.913.7 11.545 1.11 16.836 1.451z"/><path fill="#fdd12e" d="m399.991 138.982-1.433-1.109.008-6.033 1.425 1.11z"/><path fill="#fcc927" d="M548.429 4.821h-1.425l-2.978-1.33c1.39.084 3.737.733 4.403 1.33"/><path fill="#fde764" d="m327.04 164.685 1.246-2.867-.068 2.03c-.017.444-.478.487-1.178.837"/><path fill="#fdcb28" d="M648.5 194.637c-.257.606-.453 1.177-.957 1.143l-2.184-.153 3.132-.99zm-4.344.973-1.553-1.084z"/><path fill="#feea71" d="M478.66 267.554c4.847.794 13.21 6.468 16.87 9.737.769.69 2.313 1.647 3.679 2.449l12.322 7.287c2.201 1.306 4.804 3.38 6.033 4.745l-3.44 4.104c-4.027 2.987-10.222 7.441-14.822 10.53l-7.901 5.3c-6.69 4.488-7.177 4.975-8.389 14.13l-1.322 10.062-1.52 11.451-1.194 8.798-2.918 21.214-1.58 11.384-1.603 11.485-1.912 14.174-1.502 11.529-1.305 9.72-1.664 12.85-1.152 8.747-1.528 11.392-1.34 10.035-1.476 11.444-2.142 16.964-1.51 12.902-.82 6.998-6.69.34c-9.19.206-20.65-2.15-30.327-5.102l-8.252-2.517 1.263-12.502.666-5.59 1.22-11.724.785-6.903 1.477-12.877 1.425-12.834 1.502-14.26 1.501-12.91 1.553-11.384 1.98-15.573 1.417-11.529 1.476-11.23 1.365-9.898 1.596-11.546 1.212-8.747 1.544-11.187 1.408-10.248 1.963-14.294 1.929-14.071c2.739-.589.452-6.733 2.542-9.42 1.801-2.313 6.99-5.513 9.618-7.194l9.506-6.085 11.477-7.347c1.792-1.143 5.197-3.106 6.997-2.807z"/><path fill="#fdcf2b" d="m675.601 300.186 1.084-7.109 1.817-10.871c-3.797 2.492-4.957 3.473-6.656 5.82l-7.782 10.709-14.959 20.608-7.194 11.759-19.908 28.28-7.219 10.145c-6.187 8.696-6.596 12.86-9.31 24.807L599.415 421c-.657 2.875-.844 6.45-.844 9.105h-13.483c-1.365 0-4.275 1.672-4.727 3.02-3.67 10.83-6.494 20.66-11.81 30.08-2.672 4.728-15.77 24.628-20.182 25.575-.034-2.142-.188-6.392.299-8.653l8.08-37.7 1.938-9.472 4.642-24.005 4.37-22.562c1.595-8.234 3.711-16.187 6.45-23.108l10.163-14.558 8.073-11.375 6.042-8.243 14.609-21.478 14.344-21.086 3.951-5.914 11.682-17.118 11.05-16.179 7.553-10.974c4.25-6.178 9.907-8.132 16.563-9.002 1.263-.163 4.685.571 5.845-.026l9.865-5.094 9.062-2.065c3.619 4.727 2.987 10.897-.153 15.854l-5.666 8.943-6.11 9.643c-4.676 7.39-6.835 12.186-9.165 21.112-3.183 12.22-1.17 16.81-6.255 24.473z"/><path fill="#fdce2c" d="M500.855 488.294c.035 1.093.06 3.832-.179 5.137l-4.71 25.643 2.637 1.024c-14.208 4.95-34.475 9.711-48.76 7.22l6.69-.342.82-6.997 1.51-12.903 2.142-16.964 1.476-11.443 1.34-10.035 1.527-11.392 1.152-8.747 1.664-12.851 1.306-9.72 1.502-11.528 1.911-14.174 1.604-11.486 1.58-11.383 2.918-21.214 1.194-8.798 1.52-11.452 1.322-10.06c1.203-9.157 1.698-9.652 8.388-14.132l7.902-5.3c4.6-3.08 10.795-7.534 14.822-10.53 1.306-.605 4.173-1.877 5.06-3.037l2.074-2.705c-.145 3.31.017 7.774-.444 11.383l-1.297 10.146-1.467 11.46-1.323 11.35-1.152 11.494c-.47 4.702-1.323 9.174-1.963 13.79l-5.23 37.521-1.767 14.072-1.289 10.274-1.408 11.383-1.732 14.055-2.807 22.844c-.76 6.16-.973 12.194-1.195 18.568l2.671-.188z"/><path fill="#fde565" d="M574.148 363.281c-2.739 6.912-4.855 14.874-6.45 23.108l-4.37 22.562-4.642 24.005-1.937 9.472-8.081 37.7c-.487 2.261-.333 6.51-.299 8.653-4.07 7.961-30.566 24.644-39.364 27.708l-10.41 3.626-2.638-1.024 4.71-25.642c.24-1.306.214-4.045.18-5.138.043-.375.11-.947.136-1.271l1.835-.631.017-6.375.051-1.425 1.357-.998.034-6.127c0-.367.026-1.007.052-1.425.29-.743.955-2.97 1.322-4.318l.051-1.425c.47-.632 1.144-3.021 1.34-4.352l1.067-7.237 1.331-7.116 2.492-12.817 3.003-15.702 1.801-9.924 4.617-25.515 5.154-27.451c.81-4.301 2.107-8.372 3.2-12.135l1.374-.068c-2.134 6.212 15.7 13.414 20.002 15.582 8.226 4.147 15.897 12.365 23.048 5.726z"/><path fill="#fcbf17" d="m675.601 300.186-.06 1.425c-.4.4-1.672 2.867-1.928 3.925l-3.192 12.877c-.367 1.476-.307 4.778-.58 6.238l-2.662 14.011c-1.118 5.88-2.432 11.785-4.395 17.178l-11.469 31.565-11.324 31.087-4.633 12.74-24.235.29-12.544-1.416c0-2.654.188-6.23.845-9.105l6.059-26.667c2.713-11.947 3.123-16.111 9.31-24.807l7.219-10.146 19.908-28.28 7.194-11.758 14.959-20.608 7.782-10.71c1.698-2.338 2.859-3.327 6.656-5.82l-1.818 10.872-1.083 7.109z"/><path fill="#fdc81e" d="M396.075 512.939c-2.5-1.297-7.322-4.207-9.856-6.033l-13.56-9.788c-5.973-4.31-17.408-14.165-21.325-20.002.606.281 2.927 1.553 3.738 2.33l7.629 7.27c4.813-1.86-11.418-7.731-7.655-14.345 1.835-3.234 4.677-7.722 4.523-10.376l-.674-11.819-.666-19.968-1.152-8.49.316-34.091c8.516-8.738-3.063-8.585-.11-18.168l1.467-4.77 3.43-11.06-5.81-7.38c-1.025-1.306-.078-5.453.852-6.87l1.8-2.739c.325-.495-1.1-1.502-1.655-2.347l-2.184-3.31c-.486-.734 1.382-2.074 3.217-3.747l2.338 7.57c2.338 3.131 3.874.093 8.875.99.964.17 1.655 3.302 1.74 4.283l.709 8.687 1.05 13.158c.162 2.04.759 4.139 1.91 6.562 4.165 8.696-3.83 5.564.88 12.886 6.8 10.573-1.818 2.944 7.339 19.157 3.456 6.11-3.277 4.975-1.033 12.015l3.209 10.078c.776 2.44 1.536 6.246 1.587 8.738l.273 13.295c.375 18.244-4.984-1.596 1.988 22.272 1.075 3.67 9.745 4.267 8.482 12.928-1.75 11.98 5 13.278 3.448 15.121l-2.535 3.004c-3.848 4.565 1.835 8.362-.904 10.334l-3.37 2.415 1.706 2.227zm-88.969-128.35c-.46-.615-1.092-3.268-1.126-4.557zm1.383 5.7-1.289-3.098c.597.24 1.186.436 1.203.94zm11.468 36.898-1.425-2.816c.674.316 1.22.444 1.255.862zM312.797 406c-.195.008-1.288-1.092-1.33-1.69zm1.28 4.275c-.153.017-1.177-1.1-1.194-1.655zm1.759 5.7c-.461-.307-1.383-1.04-1.434-1.655zm1.314 2.868-1.28-1.443zm1.323 4.104-1.263-1.621zm3.003 7.45-1.467-1.784c.443.367 1.262 1.17 1.467 1.784m7.049 13.926c-.401-.264-1.203-.879-1.442-1.374zm4.31 7.117c-.402-.248-1.221-.853-1.452-1.348zm2.952 4.454-2.927-3.029c.93.657 2.466 2.022 2.927 3.03m7.168 10.01c-.35-.256-1.263-1.058-1.579-1.562.375.222 1.323 1.007 1.579 1.562m2.944 4.224c-.453-.248-1.477-.913-1.716-1.468.444.307 1.349.982 1.716 1.468m55.628 45.704-1.561-1.595c.555.23 1.203 1.11 1.561 1.595m2.654 1.263-1.228-1.228zm3.166 1.52c-.606-.171-1.39-1.025-1.74-1.477zM305.903 377.497l-1.587-1.622 1.33-.12c.095.521.24 1.29.257 1.742m4.02 18.508c-.189.035-1.247-1.203-1.272-1.817.196.034 1.254 1.194 1.271 1.817m1.254 4.284c-.146.026-1.144-1.092-1.161-1.647zm27.588 59.844c-.452-.247-1.468-.913-1.715-1.467.46.29 1.4.947 1.715 1.467M495.53 277.291c-3.661-3.277-12.024-8.943-16.87-9.737l-2.894-2.449.265-17.357.725-4.625.751-34.014c.094-4.36 3.687-16.972-3.447-18.167l-8.84-1.476c-3.935-.657-12.408-.572-16.598-.58-.973 0-2.722 3.285-2.756 4.488l-.709 26.786-.785 8.644-.367 14.32-.904 5.734-.93 18.397-.913 14.67c-.777 12.5-3.516 3.216-2.74 18.482l-1.928 14.072-1.963 14.293-1.408 10.249-1.544 11.187-1.212 8.747-1.596 11.545-1.365 9.899-1.476 11.23-1.417 11.528-1.98 15.574-1.553 11.383-1.502 12.911-1.501 14.26-1.425 12.833-1.477 12.877-.785 6.904-1.527 1.459-1.383 5.854c-.648-3.047-1.459-6.358-1.416-8.482l.307-17.195.452-25.694-.486-17.075.205-30.063.076-11.264-.119-18.697.247-12.996-.443-29.781.12-12.698-.257-11.614-.239-61.047c7.39-11.239 7.979-16.077 14.439-28.655l5.504-10.718 6.707-13.056 5.342-10.385 6.971-.341c1.426-.069 2.176-3.704 2.51-5.487l2.5-13.21 2.628-12.851c2.116-10.36 1.203-20.54 5.828-25.49l10.931-11.707c.632-.674 3.857-1.468 4.139-.742l.99 2.594.307 60.749 17.442 2.713c2.586.401 5.496 4.71 5.461 7.603l-.554 47.173-.88 5.965-.409 42.53-4.258.034z"/><path fill="#fbbb0b" d="M547.132 239.01c-.128 2.048-.555 4.932-1.016 7.475l-5.666 31.156-2.816 15.726-2.253 12.596-1.69 9.967-2.278 14.344c-.631 3.951-.75 8.542-1.68 11.776-1.093 3.763-2.39 7.834-3.2 12.135l-5.155 27.451-4.616 25.515-1.8 9.924-3.005 15.702-2.491 12.817-1.332 7.116-1.066 7.237-1.34 4.352-.051 1.425c-.632.708-1.212 2.893-1.323 4.318a29 29 0 0 0-.051 1.425c.068-.205-1.562 1.1-1.545 1.578l.163 5.547-.052 1.425c-.204-.051-1.467 2.108-1.527 2.867l-.324 4.139c-.026.324-.094.896-.137 1.271l-2.67.188c.221-6.366.434-12.407 1.194-18.568l2.807-22.844 1.733-14.055 1.408-11.383 1.288-10.274 1.766-14.072 5.231-37.52c.64-4.617 1.494-9.097 1.963-13.79l1.152-11.495 1.323-11.35 1.467-11.46 1.298-10.146c.46-3.618.298-8.072.443-11.383l.632-14.165.819-18.373c2.714-1.817.648-13.235 2.458-24.806.247-1.587 1.732-5.154 1.493-6.724-.632-4.13 1.305-8.474 5.948-8.687 1.544-.077 3.387-.461 3.746.332l2.048 4.532c.333.725 2.978.836 2.739.05l-.973-3.13c-.495-1.588-.82-5.078-.64-6.316l5.7-.844c5.487 5.026 4.728 11.23 2.39 17.416-.854 2.262-.325 7.262-.47 9.566z"/><path fill="#fdcf2b" d="M669.833 324.65c.281-1.459.213-4.752.58-6.237l3.191-12.877c.265-1.058 1.528-3.524 1.929-3.925-.077 1.809-.674 5.188-1.186 7.321l-3.44 14.217-1.083 1.493z"/><path fill="#fddc4e" d="M478.66 267.554c-1.8-.299-5.205 1.664-6.997 2.808l-11.477 7.347-9.507 6.084c-2.628 1.681-7.816 4.881-9.617 7.194-2.09 2.688.205 8.832-2.543 9.42-.776-15.274 1.963-5.99 2.74-18.483l.913-14.669.93-18.397.904-5.735.367-14.319.785-8.644.709-26.786c.034-1.212 1.783-4.489 2.756-4.489 4.19 0 12.663-.076 16.597.58l8.84 1.477c7.135 1.195 3.542 13.807 3.448 18.167l-.75 34.014-.726 4.625-.265 17.357z"/><path fill="#fdce2c" d="m502.895 478.592-.162-5.547c-.017-.478 1.613-1.783 1.544-1.578l-.034 6.127-1.357.998zm-1.903 8.44.324-4.14c.06-.759 1.314-2.926 1.528-2.866l-.017 6.374zm4.719-22.742 1.34-4.352c-.197 1.331-.87 3.72-1.34 4.352m-1.374 5.743c.111-1.434.7-3.61 1.323-4.318-.367 1.357-1.033 3.576-1.323 4.318"/></svg>