<svg xmlns="http://www.w3.org/2000/svg" viewBox="0 0 1024 1024"><path fill="#85b950" d="M505.55 498.33c1.69 8.797 1.203 30.984-.103 40.388-.734 5.316-12.023 44.057-13.517 45.926-1.314 1.639-7.415.077-9.634 2.142-4.6 4.292-6.963 16.341-16.964 23.885-4.164 3.14-17.16 10.138-22.059 12.203-5.034 2.124-11.742 6.007-12.458 6.229-2.552.768-32.512 6.178-34.253 6.178-7.595-.026-15.3-8.525-24.585-6.05l-9.668 24.79c-.99 10.709-6.716 22.297-12.459 31.137-10.36 15.966-38.562 43.213-56.047 49.818-21.572 8.14-51.754 5.845-74.743 6.22-.299 4.088.46 8.398.017 12.46-1.852 16.793-10.351 40.866-18.68 56.046-28.364 51.687-113.911 61.406-155.605 21.726-11.895-11.323-29.022-39.816-31.095-56.072-3.507-27.52 3.055-45.85 17.416-68.514-55.006-57.737-33.39-126.848 35.9-158.533-3.26-56.362 27.153-110.677 86.784-118.357 16.043-2.065 40.073-.555 52.83-.11 2.713.093 7.1 6.715 12.467 3.353 31.65-33.698 72.636-46.038 114.398-21.24 9.66 5.735 19.132 21.308 26.428 23.527 11.93 3.626 34.799-8.15 55.244-5.521 8.022 1.032 35.209 9.813 42.53 13.474 7.518 3.763 46.797 49.442 47.847 54.903z"/><path fill="#488c3f" d="M854.273 784.777c-12.45-20.114-11.367-27.495-12.459-49.818-.102-2.074.077-4.156 0-6.23l-3.294-5.99-21.615-.239c-8.874-2.398-30.387-3.234-37.367-6.23-2.867-1.228-42.445-34.73-43.588-37.367-1.016-2.33 1.04-9.122-1.118-14.173-6.076-14.277-14.806-24.739-11.341-41.865l-3.2-6.059c-25.25 3.183-38.042-1.928-59.076-12.62-4.14-2.108-8.244-4.267-12.46-6.23.342-.99-5.179-6.408-3.37-12.586 4.216-14.38 51.73-78.123 65.647-80.82 35.866-1.809 72.329 6.435 105.592-9.608 19.89-9.592 27.46-25.745 50.082-33.98 54.186-19.72 109.491 14.54 118.22 71.706 1.784 11.673-2.329 25.446.871 36.488 2.432 8.38 20.779 19.738 27.076 28.97 17.007 24.927 14.823 75.675-8.712 97.136 56.507 105.532-86.784 191.462-149.905 89.515z"/><path fill="#c5e182" d="M430.823 629.103c-3.627 34.918 4.83 68.079 6.22 102.741l12.468-9.335c.87 24.9 0 40.542 15.386 62.447l7.381 5.12c9.336-3.286 19.678 6.98 20.821 7.16l-15.505 12.39c9.25 19.464 44.45 41.71 37.786 62.447-9.267 28.842-45.38 58.854-72.329 71.261-48.648 22.4-49.766-14.13-74.385-43.46-43.119-51.388-103.074-78.515-168.243-90.18 8.329-15.18 16.828-39.253 18.68-56.047 28.347 7.091 58.223 9.873 84.087 24.858 11.34-10.232 9.028-5.914 3.012-15.412-5.615-8.866-12.748-16.69-12.373-28.126 17.485-6.604 45.679-33.851 56.047-49.817-4.07 16.785 2.867 20.164 9.446 31.036 3.72 6.16 8.84 19.072 15.454 18.773V635.34l-12.441 18.67 9.668-24.789c9.284-2.466 16.99 6.025 24.584 6.05 1.741 0 31.702-5.401 34.253-6.178z"/><path fill="#adcc6a" d="M611.414 498.33c16.828-1.605 35.704-21.752 37.393-37.376l9.293.025c9.754 13.875 22.92 18.185 36.284 26.12 9.378 5.573 20.19 1.178 16.674 17.451-13.91 2.697-61.423 66.44-65.647 80.82-1.81 6.178 3.712 11.596 3.37 12.586-.324.939-9.028 4.002-13.78 14.225-15.08 32.418-23.655 83.738-23.561 119.714.034 12.169-6.213 25.165 12.433 21.743-5.666 10.428-14.464 16.487-13.014 30.541l-24.03.598c5.522 16.05-12.014 23.253-12.782 24.9l.017-12.459c-2.927-2.799-67.055 2.202-80.973 0-1.144-.18-11.486-10.445-20.821-7.16l-7.382-5.12c-15.385-21.904-14.515-37.555-15.385-62.446-.794-22.682 1.288-45.875 0-68.497 12.748-12.032 29.994-12.877 43.451-21.94 18.757-12.629 50.381-53.81 55.168-75.605 4.19-19.063-4.65-40.226 7.245-58.137 2.065-.154 4.19.238 6.23 0 8.789-1.024 13.5-5.18 18.679-6.23l-6.22 56.039c16.784 3.447 10.316-4.455 15.265-12.519 9.122-14.865 15.514-21.325 22.093-37.299z"/><path fill="#a2c362" d="M723.5 622.874c-19.619-3.371-11.205 9.779-12.408 21.81-1.988 19.935-6.34 39.135-6.264 59.145l31.122-24.908c1.152 2.628 40.72 36.13 43.588 37.367l-18.671 31.13 80.947-12.45c1.092 22.323 0 29.704 12.459 49.817-67.08 1.698-121.182 32.23-165.171 80.802-25.575 28.237-16.538 43.606-61.287 17.997-16.785-9.609-24.209-20.813-34.799-33.519-9.301-11.162-27.545-21.973-18.97-40.38.769-1.647 18.296-8.849 12.784-24.9l24.03-.597c-1.451-14.055 7.347-20.122 13.013-30.541 25.233-46.438 41.429-95.582 37.367-149.453 21.035 10.692 33.826 15.804 59.076 12.62l3.2 6.06z"/><path fill="#76a745" d="M555.367 498.33c-11.895 17.911-3.055 39.074-7.245 58.137-4.787 21.786-36.411 62.968-55.168 75.606-13.457 9.062-30.703 9.898-43.451 21.939-.683-11.913-3.653-20.028-6.23-31.138 4.898-2.065 17.895-9.063 22.059-12.203 10.001-7.544 12.356-19.593 16.964-23.885 2.219-2.065 8.32-.503 9.634-2.142 1.494-1.869 12.775-40.618 13.517-45.926 1.306-9.404 1.792-31.59.103-40.388 16.452-.837 33.425 1.228 49.817 0"/><path fill="#ecf7d9" d="M293.82 734.959c-.375 11.435 6.759 19.26 12.374 28.126 6.016 9.497 8.328 5.18-3.012 15.411-25.865-14.985-55.74-17.775-84.088-24.858.444-4.061-.316-8.37-.017-12.458 22.98-.376 53.171 1.92 74.743-6.221"/><path fill="#e1efc8" d="M443.273 622.874c2.577 11.101 5.547 19.225 6.23 31.138 1.288 22.622-.794 45.815 0 68.497l-12.468 9.335c-1.382-34.662-9.847-67.823-6.22-102.741.716-.213 7.415-4.105 12.458-6.23"/><path fill="#f8fcea" d="m362.326 654.012 12.442-18.671v99.618c-6.614.299-11.734-12.612-15.454-18.773-6.57-10.872-13.517-14.26-9.447-31.036 5.743-8.84 11.47-20.42 12.459-31.138"/><path fill="#f7fbf1" d="M605.185 485.87c4.864.035 6.818 1.17 6.229 6.23-.742 1.767.734 4.455 0 6.23-6.58 15.974-12.97 22.434-22.093 37.299-4.95 8.064 1.52 15.957-15.266 12.518l6.22-56.038c8.713-1.758 17-6.28 24.91-6.23z"/><path fill="#69a748" d="M194.185 342.647c10.607-50.15 28.928-74.444 78.217-93.03 5.58-16.862.512-32.555 5.555-50.492 17.135-60.953 104.277-88.695 158.83-62.097 25.132-57.514 106.121-77.602 162.305-52.94 30.515 13.397 44.587 35.31 66.022 58.521 77.952-10.231 142.379 45.141 133.479 124.937 23.714 4.556 40.448 20.82 55.68 37.743l-3.123 18.688-25.114-4.813c-3.584.205-18.5 18.773-21.59 23.483l-12.091-53.29c-22.648-5.206-40.004-14.353-61.85-1.937 1.681 9.813-5.265 14.003-7.014 17.869l-18.671-37.385c-5.12 40.636-45.61 62.55-83.49 43.895l-15.608 21.573c16.197 25.54 47.898 12.85 74.18 15.505-.503.222-.221 5.299-8.925 6.391-10.957 1.374-23.399-1.169-34.663-.153 10.164 8.311 7.22 27.537 9.225 31.112 4.608 8.2 19.004 13.96 21.913 24.918 1.724 17.442-23.637 20.556-12.902 36.65-15.983 4.617-30.063 20.352-43.144 31.847-1.758 1.544-6.324 1.51-6.23 6.229-7.91-.051-16.196 4.463-24.909 6.23-5.18 1.049-9.89 5.205-18.68 6.229-6.766-26.292-9.992-47.02-31.419-65.101-33.032-27.896-43.503-15.812-76.57-23.066-5.299-1.16-57.762-18.756-60.441-20.514-4.702-3.089-7.074-13.525-12.032-19.106-39.33-44.28-80.085-45.534-127.676-11.17zM503.152 137.89c-3.44 1.024-17.997 14.643-19.576 17.758-21.692 42.71 57.814 43.273 65.417 3.695-12.766-15.573-23.749-28.032-45.841-21.444zm-111.838 37.598c-5.274 1.16-32.487 14.822-37.59 18.45-30.13 21.367-35.054 99.899 8.798 77.285 8.977-4.633 13.67-22.92 24.832-31.206 17.024-12.646 42.488-6.613 55.476-25.48l-2.484-21.53c-13.26-14.464-29.013-21.922-49.024-17.519z"/><path fill="#62a446" d="M866.723 460.962c-22.63 8.235-30.2 24.388-50.082 33.98-33.263 16.043-69.735 7.8-105.592 9.608 3.507-16.273-7.296-11.878-16.674-17.45-13.363-7.945-26.53-12.254-36.284-26.12l-9.292-.026c-1.69 15.624-20.557 35.771-37.393 37.376.733-1.775-.743-4.463 0-6.23.136-.324 5.17 1.135 6.22-3.131l-6.22-9.327c13.081-11.495 27.161-27.239 43.144-31.847-10.743-16.094 14.626-19.208 12.902-36.65 49.741-.427 85.462 10.76 118.443-34.125 8.465-11.52 10.65-22.306 18.56-34.373 3.08-4.701 18.005-23.278 21.59-23.483l25.113 4.813 3.123-18.688c1.186 1.322 6.17 1.766 9.174 6.126 31.675 45.91 24.524 100.958 3.276 149.556z"/><path fill="#478c3c" d="M561.596 498.33c-2.039.239-4.164-.154-6.229 0-16.392 1.228-33.365-.837-49.817 0-1.05-5.462-40.329-51.14-47.847-54.904-7.313-3.66-34.509-12.441-42.53-13.474-20.446-2.637-43.315 9.14-55.245 5.521-7.296-2.219-16.76-17.783-26.428-23.526-41.762-24.798-82.747-12.459-114.397 21.24-5.368 3.361-9.754-3.26-12.468-3.354-10.607-20.122-21.128-48.777-18.577-71.672.76-6.818 5.257-11.409 6.127-15.514l59.264 16.726c47.59-34.372 88.346-33.11 127.676 11.17 4.958 5.58 7.33 16.017 12.032 19.106 2.68 1.758 55.142 19.354 60.442 20.514 33.075 7.245 43.537-4.83 76.57 23.066 21.418 18.09 24.652 38.818 31.419 65.1z"/><path fill="#81b74f" d="M804.455 342.647c-7.902 12.067-10.095 22.853-18.56 34.373-32.981 44.885-68.702 33.698-118.443 34.125-2.91-10.957-17.305-16.717-21.913-24.918-2.005-3.575.939-22.8-9.225-31.112 11.264-1.016 23.706 1.527 34.663.153 8.704-1.092 8.422-6.17 8.926-6.391 9.13-4.01 28.689-12.22 34.287-18.62 7.005-8.021 6.212-18.142 9.3-24.968 1.75-3.866 8.696-8.047 7.015-17.87 21.846-12.415 39.202-3.268 61.85 1.938l12.092 53.29z"/><path fill="#92c357" d="M391.314 175.488c20.01-4.403 35.763 3.046 49.024 17.519l2.483 21.53c-12.988 18.867-38.451 12.834-55.475 25.48-11.153 8.286-15.847 26.581-24.832 31.206-43.853 22.614-38.93-55.918-8.798-77.286 5.103-3.618 32.324-17.288 37.59-18.449z"/><path fill="#4d913d" d="M723.5 305.289c-3.09 6.826-2.296 16.947-9.302 24.968-5.598 6.4-25.156 14.618-34.287 18.62-26.283-2.646-57.984 10.044-74.18-15.505l15.607-21.573c37.88 18.654 78.37-3.26 83.49-43.895z"/><path fill="#94c459" d="M503.152 137.89c22.092-6.58 33.075 5.871 45.84 21.444-7.602 39.578-87.108 39.015-65.416-3.695 1.579-3.106 16.137-16.725 19.576-17.757z"/><path fill="#adcc6a" d="M611.414 492.1c.589-5.06-1.365-6.195-6.23-6.23-.102-4.718 4.464-4.675 6.23-6.228l6.22 9.327c-1.049 4.266-6.083 2.807-6.22 3.131"/><path fill="#f8faf3" d="M661.232 604.194c4.07 53.871-12.135 103.015-37.368 149.453-18.645 3.422-12.399-9.574-12.433-21.743-.094-35.968 8.482-87.296 23.56-119.714 4.754-10.223 13.458-13.287 13.782-14.225 4.207 1.962 8.32 4.121 12.459 6.23"/><path fill="#eef7e3" d="M723.5 622.874c-3.465 17.135 5.256 27.588 11.34 41.864 2.15 5.06.094 11.844 1.118 14.174l-31.121 24.909c-.077-20.01 4.275-39.21 6.263-59.145 1.204-12.032-7.21-25.173 12.408-21.81z"/><path fill="#ecf5dc" d="M816.905 722.509c.325.085-1.766 4.164 3.772 5.546 6.903 1.724 14.157.658 21.137.683.077 2.074-.102 4.156 0 6.23l-80.947 12.45 18.67-31.13c6.973 2.995 28.485 3.831 37.368 6.23z"/><path fill="#a2c362" d="M841.814 728.738c-6.972-.025-14.234 1.041-21.137-.683-5.538-1.382-3.447-5.46-3.772-5.546l21.615.239z"/></svg>