<svg xmlns="http://www.w3.org/2000/svg" viewBox="0 0 1024 1024"><path fill="#f95428" d="m640.27 81.693-9.842 71.54h-24.87l-12.065 65.087H430.937l-11.959-65.086h-24.976l-9.842-71.541h235.58z"/><path fill="#e54728" d="M481.948 81.693H384.16l9.842 71.54h24.976l11.959 65.087h68.684z"/><path fill="#666" d="M447.235 536.129h129.96c10.053 33.971 22.119 67.415 35.982 100.327l8.467 20.002c30.585 72.706 41.062 151.444 30.585 229.23H372.201c-10.371-77.786 0-156.524 30.69-229.23l8.362-20.002c13.863-32.912 25.929-66.461 35.982-100.327"/><path fill="#4d4d4d" d="m457.925 656.459 8.36-20.002c13.864-32.913 25.823-66.461 35.983-100.327h-55.032c-10.053 33.971-22.119 67.415-35.982 100.327l-8.361 20.002c-30.586 72.706-41.062 151.444-30.691 229.23h55.032c-10.372-77.786.105-156.525 30.69-229.23"/><path fill="#a3e3e5" d="M577.195 536.129h-129.96c25.188-84.664 38.734-172.187 40.215-261.19h49.635c1.482 89.004 14.922 176.526 40.11 261.19"/><path fill="#99e2ff" d="M673.712 634.552c37.994 90.485 48.471 190.072 30.057 286.484-2.329 12.382-13.229 21.272-25.823 21.272H346.484c-6.35 0-12.171-2.223-16.721-6.032s-7.832-9.102-9.102-15.24c-18.414-96.306-8.042-195.998 30.057-286.484l8.36-20.002a918.4 918.4 0 0 0 71.86-356.12v-40.11h162.45v40.11a918.4 918.4 0 0 0 71.859 356.12zM652.23 885.794c10.371-77.786 0-156.523-30.585-229.23l-8.467-20.001c-13.863-32.914-25.822-66.462-35.982-100.328-25.293-84.664-38.734-172.186-40.215-261.19h-49.635c-1.482 89.11-14.922 176.526-40.215 261.19-10.054 33.972-22.12 67.415-35.983 100.328l-8.36 20.001c-30.586 72.707-41.063 151.444-30.692 229.23z"/><path fill="#fff" d="M606.299 791.5c-7.514 0-13.97-5.504-15.028-13.23a383.2 383.2 0 0 0-26.457-97.893l-8.466-20.002c-10.9-26.034-20.955-52.703-29.633-79.372-2.645-7.937 1.694-16.51 9.63-19.155s16.51 1.693 19.156 9.63c8.466 25.93 18.202 51.857 28.785 77.045l8.467 20.001a410.5 410.5 0 0 1 28.574 105.726c1.06 8.254-4.762 15.874-13.017 17.038-.742.105-1.376.211-2.011.211m-49-597.627q-2.222 0-4.445-.635c-8.043-2.434-12.488-10.9-10.053-18.944l8.042-26.246c2.434-8.044 10.9-12.489 18.944-10.054 8.043 2.434 12.488 10.9 10.054 18.944l-8.043 26.246c-2.01 6.456-8.044 10.689-14.5 10.689M594.34 839.229a15.134 15.134 0 1 0 30.268 0 15.134 15.134 0 1 0-30.268 0M578.676 117.04a15.134 15.134 0 1 0 30.269 0 15.134 15.134 0 1 0-30.269 0"/><path fill="#333" d="m687.682 628.626-8.36-20.002c-46.883-111.44-70.696-229.335-70.696-350.193v-38.734l9.525-51.222h12.277c7.62 0 13.97-5.609 15.027-13.123l9.843-71.542c.635-4.34-.741-8.678-3.598-12.064-2.858-3.28-7.09-5.186-11.43-5.186H384.16c-4.34 0-8.572 1.905-11.43 5.186s-4.233 7.725-3.598 12.064l9.843 71.542c1.058 7.514 7.408 13.123 15.027 13.123h12.382l9.525 51.222v38.734c0 120.965-23.811 238.753-70.695 350.193l-8.36 20.002c-39.37 93.448-50.059 195.575-31.01 295.161 3.705 19.473 20.85 33.654 40.64 33.654h331.568c19.79 0 36.934-14.182 40.639-33.654 19.05-99.587 8.36-201.607-31.009-295.161M401.517 96.932h221.397l-5.608 41.274h-11.747c-7.303 0-13.546 5.186-14.923 12.382l-9.736 52.598H443.638l-9.736-52.598c-1.376-7.197-7.62-12.382-14.922-12.382h-11.747zm287.33 821.246c-.953 5.186-5.61 8.996-10.9 8.996H346.483c-5.292 0-9.843-3.81-10.9-8.996-17.992-93.766-7.832-189.754 29.102-277.699l8.361-20.001c48.471-115.25 73.024-236.955 73.024-361.942v-24.975h132.183v24.975c0 124.986 24.552 246.797 73.023 361.942l8.361 20.001c37.146 87.945 47.2 183.933 29.208 277.7"/><path fill="#333" d="M627.147 630.637c-47.73-113.451-72.917-233.252-74.928-356.015-.105-8.254-6.88-14.922-15.134-14.922H487.45c-8.254 0-15.027 6.668-15.134 14.922-2.01 122.764-27.198 242.564-74.928 356.015l-8.36 20.001c-31.644 74.823-42.544 156.841-31.75 237.06 1.058 7.515 7.407 13.123 15.027 13.123h279.922c7.62 0 13.97-5.608 15.028-13.123 10.795-80.326-.212-162.344-31.643-237.166zm-124.88-340.67h20.002c2.433 78.526 14.18 155.784 34.923 230.923h-89.744c20.638-75.14 32.279-152.397 34.819-230.923m136.522 580.587H385.748c-7.197-70.695 3.492-142.448 31.114-208.274l8.36-20.002c12.594-29.95 23.707-60.323 33.232-91.12h107.524c9.525 30.796 20.638 61.17 33.231 91.12l8.361 20.002c27.726 65.826 38.416 137.58 31.219 208.274"/></svg>