<svg xmlns="http://www.w3.org/2000/svg" viewBox="0 0 1024 1024"><path fill="#efeff0" d="m808.465 903.757-.87-17.314 4.343-5.137c.947 10.624.128 18.833-3.473 22.45"/><path fill="#f8f8f8" d="M673.843 950.98c-61.875 8.525-66.44 16.777-138.675 17.297-112.222.802-237.33-13.935-315.34-96.12l-7.595-32.102-9.43-59.955-14.387-91.486-19.072-120.704c-1.81-11.451-2.688-23.569-3.2-33.604 2.833-6.69 22.733 22.887 27.008 12.066l11.332-28.697 12.066 76.714 9.327 55.86 12.152 72.934 11.033 68.582c2.518 15.668 6.28 31.412 14.31 44.22l20.054 31.957 27.41 3.397c5.025.623 17.953-10.164 17.493-15.31l-4.301-48.008-3.79-33.305-5.887-59.085-5.93-58.001-4.737-43.802-12.194-111.684-10.777-93.926c-.572-4.992-9.012-16.564-14.02-18.595l-42.002-16.998-9.583-24.397 25.003 9.029c43.35 15.65 103.706 32.708 150.22 38.212l47.839 5.666c125.687 14.874 237.926 1.894 360.448-33.272l-11.495 90.445-9.13 65.494-5.402 37.47-4.284 29.457-5.948 38.937-5.12 31.89-9.045 54.04-17.596 99.21c-7.125 40.166-25.514 78.967-48.298 112.469-3.61 5.307-7.177 18.858-8.423 23.688z"/><path fill="#efeff0" d="M811.4 875.29c-1.05.452-7.372 4.207-9.198 5.888-49.69 45.79-65.187 49.408-128.359 69.802 1.246-4.83 4.813-18.38 8.423-23.688 22.775-33.502 41.173-72.303 48.298-112.47l17.596-99.208 9.045-54.042 5.12-31.889 5.948-38.937 4.284-29.457 5.401-37.47 9.131-65.494 11.494-90.444c-122.521 35.165-234.76 48.145-360.448 33.271l-47.837-5.666c-46.516-5.504-106.872-22.562-150.221-38.212l-25.003-9.029c-17.911-6.468-41.173-24.516-44.552-15.624l-5.795 15.24c-2.184 5.743 9.84 18.04 12.416 24.022 10.164 23.552 13.432 50.167 17.093 75.392l10.231 70.408-11.332 28.698c-4.267 10.82-24.166-18.756-27.008-12.066l-8.84-41.455-15.915-103.151-9.182-59.734c-2.944-19.131-6.22-43.059-13.355-59.23-5-11.323-23.902-16.93-22.972-32.272l23.365 21.913c81.886 53.35 222.421 82.133 319.035 85.735l64.794 2.414c119.518 4.463 242.193-11.699 353.11-55.321 20.573-8.09 40.584-20.71 58.811-31.88l8.124-4.984c16.973-10.402-14.089 18.705-16.836 36.053L890.052 394.82l-55.09 347.853-12.699 78.712c-3.046 18.9-6.929 37.111-10.888 53.939z"/><path fill="#e5efec" d="m679.987 84.412-10.7.708 36.846 32.247c9.148 8.013 19.269 25.268 26.24 35.55 22.836 3.533 48.248 9.276 64.973 22.05l24.84 18.979c13.415 10.248 29.782 24.507 33.852 39.628l3.815 14.183c.495 1.834 6.588 1.536 7.671 1.647-57.77 33.809-129.51 53.563-196.403 61.457l-34.85 4.113c-35.678 4.207-68.241 5.342-102.417 2.167 76.151-22.323 97.63-17.34 177.425-42.692 12.91-4.104 54.716-30.208 48.845-52.232-1.28-4.813-9.899-12.732-14.763-12.178-46.14 5.3-64.384 43.691-136.158 54.563-29.935 4.53-112.956-2.21-69.82-6.554 34.236-3.447 115.994-40.747 128.692-88.465 13.602-51.106-43.41-79.053-88.38-97.886l17.707 26.872c19.626 29.79-4.054 58.069-29.295 77.252-43.665 33.177-108.783 29.32-161.664 21.18-7.424-1.144-21.163-10.838-27.913-17.443-4.19-4.104-2.15-19.686 1.434-24.072 57.736 33.254 127.48 13.517 188.552-5.683 12.723-4.002 24.49-18.663 18.97-30.626L575.642 93.5c-16.709-36.216 0-31.002-12.937-84.514-7.356-9.78-5.751-11.273 2.79-5.897l77.202 54.264c6.502 5 16.546 14.003 22.323 17.638l14.976 9.43z"/><path fill="#eaeaea" d="M673.843 950.98c63.172-20.394 78.669-24.013 128.359-69.802 1.826-1.681 8.149-5.436 9.199-5.888l.537 6.016-4.343 5.137.87 17.314c1.613 23.663-25.182 58.12-43.665 67.976-49.271 26.266-100.233 41.25-155.861 47.582-23.586 2.688-50.228 5.368-73.506 4.523l-70.358-2.526c-65.28-2.347-126.447-18.73-185.933-45.807-66.602-30.319-57.668-96.401-59.315-103.347 78.012 82.193 203.11 96.93 315.341 96.12 72.235-.521 76.809-8.773 138.675-17.298"/><path fill="#c8e6e6" d="M309.786 147.908c-2.415 1.007-7.706 3.44-11.18 5.36l-44.944 24.89-13.799 7.638c-26.59 6.008-53.725 18.048-69.256 42.274l-10.59 16.52-31.334-23.227c-12.655-10.982-14.43-35.055-2.33-48.213 24.184-26.283 54.835-44.024 89.011-55.595 80.197-27.153 161.238-40.311 250.104-38.383l-26.966 13.986c-35.037 7.791-109.167 32.154-128.716 54.759z"/><path fill="#c7e6e5" d="m679.987 84.412 4.446-.197 4.258 5.24 28.459.256c71.996 17.425 144.572 30.481 194.312 84.028 23.27 25.054-15.727 67.763-43.93 75.656-1.074-.11-7.176.188-7.67-1.647l-3.815-14.182c-4.07-15.121-20.437-29.38-33.852-39.629l-24.84-18.978c-16.726-12.774-42.138-18.517-64.973-22.05-6.972-10.283-17.084-27.537-26.24-35.55L669.295 85.11l10.7-.708z"/><path fill="#ddf0f0" d="m239.872 185.796-23.458 29.244c-5.504 6.86-.691 29.363 8.345 33.732 49.699 24.03 98.979 34.44 153.208 41.455l39.987 5.171c4.07.53 12.015 8.286 14.089 12.075l22.852 2.517 11.179 1.238c2.32.256-5.027 7.833-7.365 7.62l-62.31-5.845c-74.513-6.998-180.139-27.47-236.382-68.43l10.59-16.52c15.53-24.226 42.667-36.266 69.256-42.274z"/><path fill="#e2eeee" d="m309.786 147.908-13.014 15.045c-5.444 6.289-4.94 29.15 1.878 34.022 9.07 6.477 25.19 14.566 34.978 17.51l57.77 17.391c-40.857 5.547-97.757 1.775-133.29-24.934l-4.813-23.057-13.414 1.911 13.798-7.637 44.945-24.892c3.473-1.92 8.764-4.352 11.179-5.359z"/><path fill="#e5efec" d="m717.141 89.71-28.458-.255-4.258-5.24 22.528-.93c2.756-.11 10.112 5.53 10.188 6.426"/><path fill="#fdfefd" d="m215.074 348.237 9.583 24.397 42.001 16.998c5.01 2.03 13.449 13.594 14.02 18.594l10.778 93.927 12.194 111.684 4.736 43.801 5.93 58.001 5.889 59.085 3.789 33.306 4.3 48.008c.461 5.146-12.467 15.932-17.493 15.31l-27.409-3.397-20.053-31.957c-8.03-12.8-11.793-28.553-14.31-44.22l-11.034-68.583-12.152-72.934-9.327-55.86-12.066-76.714-10.231-70.408c-3.67-25.216-6.93-51.832-17.093-75.392-2.585-5.982-14.6-18.287-12.416-24.022l5.795-15.24c3.379-8.892 26.64 9.165 44.552 15.624z"/></svg>