<svg xmlns="http://www.w3.org/2000/svg" viewBox="0 0 1024 1024"><path fill="#dca573" d="M744.381 516.91c39.41 105.4 9.882 229.438-72.811 306.222-64.978 59.064-141.763 82.688-223.196 84.874-20.07.789-40.126.052-59.97-2.155-79.386-8.837-155.47-41.272-216.085-94.32a267.8 267.8 0 0 1-48.215-64.231 493 493 0 0 1-18.181-32.906c-8.725-17.065-16.22-34.883-22.641-53.228C57.6 587.802 49.055 506.04 46.73 431.124a491 491 0 0 1 .65-54.748c6.196-90.992 38.063-179.62 96.712-248.745a260 260 0 0 1 43.131-36.91c20.915-14.766 42.865-25.43 65.464-32.747s45.855-11.274 69.397-12.642C485.668 34.56 546.068 178.796 615.137 301.194c9.882 17.495 19.943 34.545 30.638 50.704 25.79 40.053 49.408 81.402 79.499 117.458a366 366 0 0 1 19.107 47.554"/><path fill="#b46c36" d="M386.314 649.733c15.473 30.346-10.148 62.1-39.454 70.083-15.366 3.072-39.829-3.21-38.109-14.761 2.617-17.572 65.885 10.183 62.987-51.349-.456-9.636 9.175-10.834 14.576-3.973"/><path fill="#e9be80" d="M971.238 656.88c-4.751 83.948-40.192 154.824-93.69 211.672a299.5 299.5 0 0 1-46.121 38.43c-115.968 78.408-286.52 79.698-384.717-18.488-76.785-70.881-82.688-183.106-55.788-281.984a288.7 288.7 0 0 1 16.835-54.129A289.48 289.48 0 0 1 561.254 398.88a287.2 287.2 0 0 1 54.14-16.814c150.271-31.063 333.368 57.533 352.06 215.03a280.5 280.5 0 0 1 3.784 59.786"/><path fill="#fcedc4" d="M946.831 655.007c-9.871 109.445-74.839 215.762-180.91 256.43a436 436 0 0 1-38.369 13.885 532 532 0 0 1-38.671 10.42c-82.688 11.816-171.29 5.903-230.354-53.162-76.785-88.601-70.876-218.542-26.276-319.856a261 261 0 0 1 24.14-44.483 263.2 263.2 0 0 1 92.325-83.845 261 261 0 0 1 38.799-17.157c142.71-48.527 331.72 22.349 356.162 183.265 2.975 17.454 4.07 35.692 3.154 54.503"/><path fill="#b46c36" d="M309.868 199.88c-33.45-6.41-42.793-46.126-31.115-74.164 7.01-14.018 26.983-29.475 35.047-21.027 12.267 12.85-48.482 45.762 1.879 81.244 7.89 5.555 2.923 13.895-5.811 13.947M219.3 363.663c-25.078 23.045-62.546 6.892-78.1-19.195-7.087-13.977-7.604-39.229 3.988-40.673 17.628-2.196 7.87 66.202 66.37 46.89 9.165-3.027 12.898 5.928 7.742 12.978m246.932-57.682c15.473 30.342-10.148 62.1-39.454 70.083-15.366 3.072-39.829-3.205-38.109-14.761 2.617-17.572 65.885 10.189 62.987-51.348-.456-9.641 9.17-10.834 14.576-3.974M267.228 610.857c-31.196 13.67-61.399-13.768-67.65-43.49-2.171-15.518 5.524-39.572 16.962-37.18 17.388 3.64-14.029 65.172 47.575 65.878 9.657.113 10.276 9.795 3.113 14.792"/></svg>