<svg xmlns="http://www.w3.org/2000/svg" viewBox="0 0 1024 1024"><path fill="#f0f0f0" d="M802.713 117.334c-.051-8.21 2.705-22.187-2.79-27.93-38.511 30.712-89.003 41.447-137.003 44.69l.017 50.286c-1.809-.307-3.763.273-5.589 0-98.842-14.617-264.875-21.282-359.526 12.254-10.01 3.55-25.122 15.19-37.3 18.594-30.489 26.77 3.414 40.2 27.75 50.253 88.637 36.616 268.297 33.34 363.495 19.473-1.203 28.774 1.562 58.07.248 86.852-3.465 75.563-12.98 152.858-17.263 228.608-4.113 72.772 6.442 144.162-28.578 211.703-66.228 127.702-222.55 141.048-340.156 76.305.375 16.683-.58 33.622-.017 50.287-9.694-4.65-5.504-21.563-5.572-30.745-1.886-248.269-35.49-495.607-44.988-742.895-1.314-34.184-.742-70.349 2.884-103.765 4.156-8.098 46.174-28.373 57.25-32.188C386.551-9.104 584.456-6.34 698.001 18.048c38.912 8.355 84.616 19.943 109.61 52.498-.785 13.559 6.562 36.616-4.89 46.788zm-482.97 218.479c-7.184 2.193-23.875 23.45-25.01 31.018-.777 5.18 4.923 13.065 5.077 21.282 1.937 105.583 10.453 208.265 16.75 312.892 1.511 25.02-3.805 51.67 2.399 75.827 15.752 17.835 37.734 23.51 56.226 5.607 12.98-12.562 9.19-55.706 8.107-75.486-3.943-72.03-12.186-145.656-16.905-217.788-2.688-41.114 0-82.261-5.35-123.17-2.484-18.97-22.511-35.9-41.293-30.182"/><path fill="#e4e0d4" d="M802.713 117.334c.307 46.14-3.02 95.82-5.709 142.37-11.375 197.034-28.535 395.084-39.261 592.162-1.724 31.692 6.92 102.323-13.696 126.003-8.141 9.344-44.015 22.605-57.319 26.53-90.982 26.812-321.007 31.82-400.4-21.752-22.068-14.89-19.525-19.822-20.336-43.93-.563-16.665.384-33.603.017-50.286 117.607 64.742 273.937 51.405 340.156-76.305 35.02-67.541 24.465-138.931 28.578-211.703 4.284-75.75 13.79-153.046 17.263-228.608 1.323-28.783-1.45-58.078-.247-86.853 3.677-.537 5.196-5.52 5.589-5.589 22.886-3.814 50.987-3.055 74.402-12.245 15.206-5.974 26.71-24.994 43.017-26.889 2.124-8.567-1.946-9.122-5.598-13.952-18.16-24.004-76.809-36.906-106.232-41.898l-.017-50.287c47.992-3.243 98.483-13.978 137.003-44.69 5.495 5.744 2.73 19.721 2.79 27.93z"/><path fill="#fefefc" d="M657.356 184.389v94.993c-.392.068-1.911 5.051-5.589 5.589-95.198 13.867-274.85 17.152-363.494-19.473-24.329-10.052-58.232-23.484-27.75-50.253 12.177-3.405 27.298-15.053 37.299-18.594 94.651-33.544 260.684-26.871 359.526-12.254z"/><path fill="#fefefe" d="M319.744 335.813c18.79-5.726 38.81 11.212 41.293 30.182 5.35 40.9 2.662 82.056 5.35 123.17 4.719 72.14 12.954 145.758 16.905 217.788 1.083 19.788 4.872 62.924-8.107 75.486-18.492 17.902-40.474 12.228-56.226-5.607-6.204-24.158-.896-50.807-2.398-75.827-6.298-104.627-14.822-207.309-16.751-312.892-.154-8.209-5.854-16.102-5.077-21.282 1.135-7.569 17.826-28.825 25.01-31.018"/><path fill="#fbf8ea" d="M662.946 184.389c29.423 4.992 88.072 17.894 106.231 41.898 3.653 4.83 7.723 5.385 5.598 13.952-16.299 1.895-27.81 20.915-43.016 26.889-23.416 9.199-51.516 8.43-74.403 12.245V184.38c1.827.273 3.78-.307 5.59 0z"/></svg>