<svg xmlns="http://www.w3.org/2000/svg" viewBox="0 0 1024 1024"><path fill="#893805" d="m963.405 396.544-.827 325.205c-.035 13.995-16.052 45.594-33.562 52.096L818.364 814.95l-38.101 11.768 2.1-18.44c-14.311-6.281-24.014 12.705-44.272 4.292l-33.357-13.85c-7.031-7.15-11.562-28.74-11.699-39.817l-.358-29.098-.154-32.094.487-32.99-.06-51.328c-.017-14.174-.384-27.58.068-42.155 2.125-68.079-9.352-76.356 20.881-87.082l51.175-18.16 26.461-9.821 52.753-18.372 40.73-14.191 45.33-15.795c26.359-9.182 28.347-18.22 33.049-11.282z"/><path fill="#e49048" d="m628.899 883.883-66.62 23.73c-6.938 2.476-15.616 4.114-22.008 4.745 20.71-25.728 35.61-32.7 35.661-77.312l.376-316.757c.034-29.397 58.112-36.625 64.631-117.828.725-8.994-1.971-18.483-3.183-24.55-3.31-16.58-7.8-35.67-18.952-50.928-36.583-50.082-113.844-80.99-172.86-93.644l-34.492-7.399c-66.355-14.233-144.06-15.641-212.284-12.757-9.233.392-19.498 3.32-24.627-1.297 18.44-6.247 50.961-16.964 68.412-20.924 4.898-1.11 14.618-1.843 21.24-2.457 70.493-6.58 125.525-8.21 195.993.955 102.93 13.398 289.852 54.28 276.779 191.454-3.047 31.94-21.035 59.623-45.568 79.59l-23.638 19.243-.81 52.83-.162 77.26-.273 133.957-.154 77.628c-.051 23.979-14.396 44.237-31.13 58.914l-6.323 5.547z"/><path fill="#7d2e01" d="M963.405 396.544c-4.71-6.938-6.69 2.1-33.05 11.281l-45.328 15.795-40.73 14.191-52.753 18.372c.922-9.01 8.704-14.208 19.183-16.05l17.553-16.905c-7.928-3.482-12.826-5.88-16.341-9.54l6.186-1.528c1.212-.299 1.374-1.74 2.253-3.695l16.12-7.083c25.48-11.204 45.056-29.986 55.159-56.456 24.695-64.708-18.074-122.308-75.298-150.673-43.631-21.624-89.592-34.415-137.6-42.803l-45.295-7.91c-60.05-10.488-147.345-9.157-204.604-8.142-2.287.043-8.593-3.387-6.946-2.978 2.04-.785 5.41-2.056 8.713-3.123l22.579-7.296c15.326-4.95 30.336-9.207 46.626-13.286 31.3-7.842 132.139-6.264 166.554-2.944 84.488 8.158 212.087 24.559 285.414 64.64 32.538 17.783 60.314 46.677 68.54 83.942 8.917 40.38 2.116 82.27-27.12 112.094l-15.94 16.264-13.883 13.833z"/><path fill="#a5501f" d="M820.378 408.457c-1.843.221-4.616.486-6.187.546-1.553.06-1.809 2.833-2.252 4.684l-4.122.308-3.575 2.534c-1.289.009-3.107-.085-4.062.128-5 1.1-13.483 5.3-17.127 8.294l-18.602 6.221c-3.294 1.101-12.536.965-14.447.307l10.735-32.392c13.858-41.83 3.49-88.772-22.324-123.307-21.888-29.295-49.288-45.96-81.996-61.61-49.204-23.535-131.465-46.166-185.472-50.125l-61.022-4.472-45.61-2.645c-3.107-.18-9.78-3.149-11.316-4.813h4.062l4.437-2.824 52.446-13.56c1.186-.307 2.714-1.638 3.934-2.654l4.045-.648c-1.647-.418 4.659 3.012 6.946 2.978 57.258-1.016 144.563-2.347 204.603 8.14l45.295 7.911c48 8.388 93.97 21.18 137.6 42.803 57.225 28.365 99.994 85.957 75.299 150.673-10.104 26.47-29.67 45.261-55.16 56.457l-16.12 7.083z"/><path fill="#7c2e03" d="M352.999 152.107c1.527 1.664 8.2 4.633 11.315 4.812l45.61 2.646 61.023 4.471c54.007 3.96 136.268 26.59 185.472 50.125 32.716 15.642 60.108 32.316 81.996 61.61 25.814 34.544 36.182 81.477 22.324 123.307l-10.735 32.393c1.911.657 11.153.802 14.447-.307l18.602-6.221c6.085-2.031 12.578-4.66 17.127-8.294.955-.214 2.773-.12 4.062-.128l3.575-2.535 4.122-.307c3.524 3.66 8.413 6.059 16.341 9.54l-17.553 16.905c-10.47 1.843-18.261 7.048-19.183 16.05l-26.462 9.823-51.174 18.159c-30.242 10.726-18.765 19.003-20.881 87.082-.453 14.575-.086 27.981-.069 42.155l.06 51.328-.486 32.99.153 32.094.359 29.098c.136 11.077 4.667 32.658 11.699 39.817l33.357 13.85c20.258 8.413 29.96-10.573 44.27-4.293l-2.099 18.44c-5.29 1.64-14.208 5.914-20.258 8.176l-5.214-6.596-16.674 8.9-7.373 3.934c-1.28.682 3.738 2.543 4.6 2.995-3.243 1.212-8.457 2.543-12.595 3.43-4.856 5.786-43.264 19.653-54.409 23.322l-39.432 12.996 6.323-5.547c16.725-14.677 31.078-34.935 31.13-58.914l.153-77.627.273-133.957.162-77.26.811-52.83 23.637-19.243c24.534-19.968 42.522-47.65 45.568-79.59 13.073-137.174-173.85-178.057-276.778-191.454-70.477-9.174-125.5-7.535-195.994-.956-6.622.614-16.341 1.348-21.24 2.458l7.868-4.301 83.798-27.972c5.836-1.946 13.371-3.525 18.397-4.574z"/><path fill="#c06b28" d="M637.748 375.902c1.211 6.067 3.908 15.556 3.183 24.55-6.52 81.203-64.59 88.431-64.632 117.829l-.375 316.757c-.052 44.612-14.95 51.584-35.661 77.312l-4.437 4.369-8.124.589-36.566-.768c-4.599-.094-12.083.034-16.256-.487l3.559-3.78 41.165.162c5.674.026 15.701-8.004 17.365-11.477l-15.223-15.394-5.24 12.902c-11.196-3.37-18.765-5.555-29.576-7.16l-27.614-4.112c-1.178-.18-3.832-2.671-4.779-3.405 24.243-3.149 38.955 10.368 62.754 1.126 14.191-5.504 29.952-24.866 29.995-42.044l.793-336.537c4.07-10.112 14.268-23.117 22.426-30.123 23.066-19.806 38.724-44.373 39.364-75.801.965-47.207-13.158-60.698-44.356-89.643-16.623-15.42-74.223-38.724-98.68-44.877l-4.462-2.918c5.7.153 17.45-.52 22.673 1.502l17.723 6.869c9.524 3.686 19.456 7.56 28.34 12.382l38.621 20.932c3.09 1.673 10.027 10.479 12.647 13.227l14.165 14.873c6.835 7.177 12.007 19.124 14.874 29.193l12.074 42.436 12.877.034 1.374-28.544z"/><path fill="#893805" d="m760.005 834.901-24.67 9.233c-.862-.443-5.88-2.312-4.6-2.995l7.373-3.934 16.674-8.9 5.214 6.596z"/><path fill="#b55c1e" d="M527.71 917.308c.103.307-6.348 3.336-8.14 3.362l-24.926.299-3.508-4.42 36.566.767zm8.124-.58 4.437-4.37c-1.1 1.374-2.688 4.241-4.437 4.37"/><path fill="#893805" d="M820.378 408.457c-.879 1.954-1.041 3.396-2.253 3.694l-6.186 1.528c.443-1.852.69-4.625 2.252-4.685 1.58-.06 4.352-.324 6.187-.546zm-20.198 8.2c-4.549 3.635-11.042 6.264-17.127 8.294 3.644-2.995 12.126-7.202 17.127-8.294m4.062-.128 3.575-2.534z"/><path fill="#b55c1e" d="M174.533 209.877c5.128 4.625 15.394 1.69 24.627 1.297 68.224-2.884 145.928-1.476 212.284 12.758l34.491 7.398c59.017 12.655 136.278 43.563 172.86 93.645 11.145 15.258 15.642 34.347 18.953 50.927l-1.374 28.544-12.877-.034-12.075-42.437c-2.867-10.069-8.038-22.016-14.873-29.192l-14.166-14.874c-2.62-2.747-9.557-11.554-12.646-13.226l-38.622-20.933c-8.892-4.812-18.824-8.687-28.339-12.381l-17.724-6.87c-5.222-2.022-16.981-1.357-22.673-1.502-6.408-.17-55.245-11.912-77.329-15.223l-32.29-4.839c-43.802-6.562-127.522-7.748-170.172 0l-27.204 4.941c-39.322 7.134-92.851 27.042-114.517 63.164-19.354 32.273-14.191 74.726 13.158 104.252l28.425 30.686c2.858 3.089 5.589 16.196 5.589 20.719l.239 340.18c0 12.11 17.34 28.058 27.102 30.158 18.739 4.036 34.901 6.101 53.359 8.448l212.804 27.11 36.761 4.429 28.357 3.336c2.09.248 6.52 2.398 7.885 3.456.947.734 3.592 3.226 4.778 3.405l27.614 4.113c10.812 1.613 18.39 3.79 29.577 7.16l5.24-12.903 15.223 15.394c-1.664 3.474-11.691 11.495-17.366 11.478l-41.165-.162-3.558 3.78-81.809-10.266-170.206-22.442-97.698-12.98c-41.208-5.478-66.458-34.346-66.406-76.091l.375-295.962c.017-15.838-1.963-31.787-4.864-46.498-52.139-29.483-66.987-98.347-43.375-148.548 30.293-64.401 102.98-76.561 163.627-93.415"/><path fill="#faf9f6" d="m462.37 262.989 4.464 2.918c24.465 6.153 82.056 29.457 98.679 44.877 31.198 28.937 45.32 42.428 44.356 89.643-.64 31.436-16.298 56.004-39.364 75.801-8.158 7.006-18.355 20.01-22.426 30.123l-.793 336.538c-.043 17.177-15.804 36.54-29.995 42.043-23.8 9.233-38.51-4.275-62.754-1.126-1.365-1.058-5.794-3.209-7.885-3.456l-28.356-3.337-36.762-4.428-212.804-27.11c-18.458-2.356-34.62-4.413-53.359-8.449-9.762-2.1-27.093-18.048-27.102-30.157l-.239-340.181c0-4.523-2.73-17.63-5.589-20.719l-28.425-30.686c-27.357-29.534-32.52-71.978-13.158-104.252 21.666-36.121 75.204-56.03 114.517-63.163l27.205-4.941c42.65-7.74 126.37-6.554 170.171 0l32.29 4.838c22.085 3.311 70.921 15.053 77.33 15.224"/></svg>