<svg xmlns="http://www.w3.org/2000/svg" viewBox="0 0 1024 1024"><path fill="#a3e3e5" d="M450.031 248.778h76.283v286.88H450.03z"/><path fill="#99e2ff" d="M580.954 164.538c23.235 0 42.12 18.885 42.12 42.12 0 11.565-4.669 22.174-12.308 29.812-7.64 7.64-18.142 12.308-29.812 12.308H384.358c-6.896 0-13.686-1.168-20.051-3.501a60.7 60.7 0 0 1-17.612-10.08l-35.33-29.281c-16.87-14.005-7.003-41.378 14.853-41.378z"/><path fill="#f7b239" d="m566.737 77.328-11.989 87.21h-133.15l-11.989-87.21z"/><path fill="#e09b2d" d="m409.61 77.328 11.988 87.21h64.187l-11.988-87.21z"/><path fill="#99e2ff" d="M724.819 418c15.702 21.218 20.37 47.848 12.625 73.098l-70.447 231.606c16.339 29.07 25.781 62.385 25.993 97.82.319 35.86-8.593 69.599-24.508 98.987-9.123 16.975-27.054 27.267-46.363 27.267H354.227c-19.203 0-37.133-10.292-46.257-27.161-15.702-28.964-24.614-62.171-24.614-97.395 0-79.147 44.878-147.685 110.551-181.847V248.778h56.124v425.866l-30.237 15.702c-49.44 25.675-80.208 76.283-80.208 131.983 0 24.19 5.623 47.213 16.656 68.432h263.965c11.14-21.326 16.87-45.409 16.657-69.599-.425-54.851-31.192-104.928-80.315-130.604l-30.13-15.807V248.778h56.23V384.58h75.963c26.315.106 50.398 12.307 66.207 33.42m-44.348 55.806c2.122-7.002.849-14.429-3.5-20.37s-11.14-9.23-18.461-9.23h-75.964v196.488c14.11 7.321 27.16 16.34 39.149 26.63z"/><path fill="#f4de3b" d="M636.866 821.161c.212 24.296-5.517 48.273-16.657 69.599H356.137c-11.033-21.22-16.657-44.242-16.657-68.432 0-55.7 30.768-106.308 80.209-131.983l30.237-15.702V535.66h76.282v138.985l30.131 15.808c49.229 25.781 79.995 75.752 80.527 130.71"/><path fill="#e0c734" d="M450.031 535.659h15.703v138.985l-17.824 15.702c-29.177 25.675-47.319 76.283-47.319 131.983 0 24.19 3.289 47.213 9.76 68.432h-54.214c-11.033-21.22-16.657-44.242-16.657-68.432 0-55.7 30.768-106.308 80.209-131.983l30.237-15.702z"/><path fill="#333" d="M736.914 409.087C718.347 384.05 689.7 369.62 658.51 369.62h-61.005V261.403c23.447-7.109 40.635-28.964 40.635-54.745 0-31.51-25.675-57.185-57.185-57.185h-9.019l9.654-70.13c.637-4.349-.742-8.699-3.607-11.988s-7.002-5.198-11.352-5.198H409.61c-4.349 0-8.488 1.91-11.351 5.198s-4.138 7.64-3.608 11.989l9.655 70.129h-78.087c-16.445 0-30.556 9.973-36.179 25.356-5.517 15.384-.955 32.147 11.67 42.65l35.436 29.282c11.777 9.761 26.417 15.596 41.696 16.764v367.938c-68.432 39.255-110.446 111.506-110.446 190.759 0 36.496 9.124 72.675 26.417 104.504 11.67 21.644 34.482 35.117 59.52 35.117h267.785c25.038 0 47.85-13.474 59.626-35.117 17.505-32.466 26.63-69.174 26.312-106.308-.319-34.482-8.806-68.75-24.827-99.411l68.644-225.665c9.02-29.6 3.608-61.11-14.958-86.255M426.903 92.393h122.646l-7.851 57.185H434.754zm-70.553 131.24-35.436-29.282c-4.032-3.395-3.076-7.533-2.546-9.23s2.546-5.517 7.851-5.517h254.735c14.959 0 27.054 12.2 27.054 27.054 0 14.959-12.2 27.054-27.054 27.054H384.358c-10.184.107-20.158-3.5-28.008-10.08m100.578 464.379c4.987-2.546 8.063-7.745 8.063-13.368v-123.92h46.152V674.75c0 5.623 3.077 10.716 8.063 13.367l30.131 15.808c44.242 23.129 71.933 68.113 72.25 117.448.107 18.78-3.713 37.452-11.033 54.427h-245.08c-7.321-16.763-11.035-34.694-11.035-53.366 0-50.077 27.585-95.486 72.145-118.614zm54.32-167.419h-46.151v-256.75h46.151zm211.767-33.738-70.448 231.606c-1.167 3.926-.742 8.17 1.273 11.777 15.49 27.691 23.872 58.99 24.084 90.606.212 32.04-7.64 63.763-22.705 91.666-6.472 11.989-19.203 19.415-33.101 19.415h-267.89c-13.899 0-26.63-7.426-33.103-19.31-14.853-27.478-22.81-58.67-22.81-90.18 0-71.084 39.256-135.696 102.383-168.48 4.986-2.546 8.063-7.744 8.063-13.367V263.949h26.1V665.52l-22.175 11.565c-54.533 28.328-88.377 84.027-88.377 145.35 0 26.631 6.153 51.988 18.354 75.328 2.546 4.986 7.744 8.063 13.368 8.063h263.965c5.624 0 10.716-3.077 13.368-8.063 12.2-23.447 18.567-49.97 18.354-76.706-.53-60.475-34.375-115.539-88.483-143.865l-21.856-11.565V263.844h26.1v120.842c0 8.275 6.684 15.065 15.066 15.065h75.964c21.644 0 41.377 9.973 54.215 27.267 12.837 17.293 16.55 39.149 10.29 59.837"/><path fill="#333" d="M658.509 429.14h-75.964c-8.275 0-15.066 6.684-15.066 15.065v196.49c0 5.622 3.077 10.715 8.063 13.367a195 195 0 0 1 36.285 24.614 15.28 15.28 0 0 0 9.867 3.607 14 14 0 0 0 4.137-.636c4.88-1.38 8.7-5.199 10.186-10.08L694.9 478.155c3.5-11.67 1.379-23.871-5.835-33.632-7.321-9.76-18.461-15.383-30.556-15.383m7.532 40.316-52.517 172.51a227 227 0 0 0-16.02-10.185v-172.51h61.005c2.546 0 4.774 1.167 6.365 3.183 1.486 2.122 1.91 4.562 1.167 7.002"/><path fill="#fff" d="M633.895 866.677c-.956 0-2.016-.107-2.97-.318-8.17-1.592-13.475-9.55-11.777-17.719 1.804-9.018 2.652-18.249 2.652-27.479-.423-49.334-28.114-94.318-72.25-117.448-7.32-3.819-10.186-12.944-6.366-20.263 3.82-7.321 12.944-10.186 20.264-6.366 54.108 28.328 87.953 83.39 88.378 143.865a162.7 162.7 0 0 1-3.183 33.633c-1.38 7.108-7.746 12.095-14.748 12.095M526.314 629.235c-8.275 0-15.066-6.684-15.066-15.066V355.51c0-8.275 6.684-15.065 15.066-15.065 8.275 0 15.065 6.684 15.065 15.065v258.767c-.105 8.275-6.789 14.959-15.065 14.959m-5.093-483.157c-.955 0-2.016-.107-2.97-.319-8.17-1.59-13.475-9.548-11.777-17.718l4.032-20.052c1.591-8.17 9.549-13.474 17.718-11.777 8.17 1.592 13.475 9.55 11.777 17.719l-4.032 20.052c-1.379 7.107-7.64 12.095-14.748 12.095M563.342 204.96a15.065 15.065 0 1 0 30.13 0 15.065 15.065 0 1 0-30.13 0M511.248 302.25a15.065 15.065 0 1 0 30.131 0 15.065 15.065 0 1 0-30.13 0"/></svg>