<svg xmlns="http://www.w3.org/2000/svg" viewBox="0 0 1024 1024"><path fill="#82b73e" d="M518.204 912v-6.4l-6.4 4.804v1.587h6.4c-12.118 5.692-20.113 8.44-32.009 12.8-4.872-5.486-11.614-10.359-19.166-9.676-1.365-8.704.743-13.944 7.928-18.825 17.638 13.432 18.995.367 17.647-16.29 123.844-66.244 232.601-181.513 318.319-291.337 31.855-40.814 69.051-88.866 92.8-134.417 7.884-15.13 13.184-24.67 14.558-41.446 8.251-4.59 7.671-14.404 10.205-20.198 5.248-11.964 5.957-4.933 5.795-19.832-.052-4.463 8.157-13.303 11.212-17.57l4.788 6.391 3.208-76.8c13.926 106.019-35.268 219.998-94.558 307.055-81.075 119.04-209.75 258.62-340.719 320.145z"/><path fill="#649e27" d="M639.83 185.6c11.818-5.803 30.387-14.25 43.263-15.949 22.34-2.944 52.822 7.091 62.379-22.46l6.323 1.81 3.345 17.314c5.769.725 12.066-.717 17.741-.009 4.403.546 4.318 3.183 4.574 3.294-5.06-.316-14.02-1.16-15.727 5.069-4.01 14.626.956 51.882-.137 70.263-.307 5.129-2.875 8.755-3.276 12.723-1.11 10.974.947 18.927-3.269 30.336-5.53 14.985-39.279 51.354-51.268 65.536-7.714 9.123-14.08 21.086-25.54 27.264.7-2.218-.35-5.82 1.433-9.676 5.82-12.604 14.942-24.91 17.545-39.552l-15.778-8.372c1.229-32.145-14.055-57.65-41.609-73.6-.785-.452-2.346.444-3.2 0-.204-.102.162-1.757-3.2-3.2-24.345-10.436-56.524-9.915-80.017 3.2-1.45.811-3.234.751-3.2 3.2-.99.29-2.244-.307-3.2 0-2.278.734-5.59 4.148-6.391 3.2v-6.382c8.601 1.092 8.49-7.416 12.817-11.196 20.13-17.604 63.275-41.48 86.391-52.822z"/><path fill="#9ace56" d="M799.855 272c-.785.666-1.946 2.048-3.2 3.2l-16 16c-.717.495-2.458-.495-3.2 0-6.87 4.582-8.013 7.22-12.8 12.8-27.05 31.54-51.891 64.777-76.877 97.536-11.767 15.428-23.074 31.292-35.14 46.464-17.263 13.662-35.908 39.22-51.149 56.064-60.058 66.398-120.9 133.854-192.239 188.595-6.724 5.163-15.385 9.276-22.263 14.541-9.745-1.988-17.784 7.33-26.88-.427L358.178 704C466.654 618.249 556.69 526.43 646.29 420.864c5-5.888 30.84-36.59 31.94-40.064 11.46-6.17 17.826-18.142 25.54-27.264 11.998-14.182 45.748-50.551 51.269-65.536l6.4 6.4c10.513-4.062 17.544-14.967 25.685-20.719 2.594-1.835 11.341-8.209 12.723-1.681z"/><path fill="#5d9920" d="M118.135 652.8c-3.737 4.096-6.007 14.507-6.536 20.66-3.72 43.075 10.325 74.802 51.345 91.34l-3.686 12.16c-9.361 1.34-21.01 6.059-29.995 6.972-19.183 1.937-53.717-4.02-71.987-11.085-9.822-3.797-35.968-17.579-41.703-25.506-4.062-5.624-1.33-11.623-6.263-14.541 6.844-8.269 12.399-14.182 22.4-19.2l6.366 1.8 84.855-81.791-4.804 19.2z"/><path fill="#96c04f" d="M687.838 150.4c-15.514-19.601-25.114-51.243-4.787-70.4 6.016-.589 6.383 3.849 8.123 7.86 9.14 21.06 14.285 32.725 36.702 43.11 11.4-11.264 18.04-26.249 30.515-36.438 14.763-12.049 41.959-29.474 60.519-20.787 4.753 21.129-11.068 21.598-22.178 30.328-5.683 4.462-17.775 14.54-22.46 19.148-3.635 3.576-4.907 9.464-9.463 12.775 2.551 2.39 4.983 6.528 8.302 7.543 3.072.947 15.292 3.243 18.816 3.584 12.314 1.203 25.524-1.1 37.94.47 23.782 12.714 5.896 50.696-15.497 47.726-6.886-16.136-22.093-19.857-36.915-25.728-.265-.102-.17-2.739-4.574-3.293-5.675-.709-11.972.733-17.74.008l-3.346-17.314-6.323-1.81c-9.557 29.543-40.038 19.508-62.379 22.46-12.868 1.699-31.436 10.147-43.264 15.95l-10.863-.35-1.937-2.85c20.42-10.206 37.99-18.006 60.809-22.4 1.894-.367 4.318.221 6.4 0v-4.788c-1.058-2.756-5.615-3.823-6.4-4.813z"/><path fill="#8ebe4c" d="m975.89 179.2-12.75 30.208c19.209 15.616 53.487 8.269 60.254 39.091 2.594 11.819-3.831 16.256-5.94 26.684l-7.739-.205c-13.5-11.656-29.354-30.046-44.962-38.255-9.07-4.77-19.38-5.086-17.135 7.441 2.398 13.38 4.062 26.949 5.854 40.627l-3.209 76.8-4.787-6.391c-3.055 4.275-11.264 13.107-11.213 17.57.163 14.89-.546 7.86-5.794 19.832-2.534 5.794-1.954 15.607-10.206 20.198.854-10.445 4.387-9.873 5.914-14.89 1.502-4.933-1.263-11.418 3.66-15.523l-6.374-3.191c-4.838 3.865-6.297 9.156-9.6 14.404.35-16.154 12.766-31.684 15.395-47.01 1.74-10.197.034-20.984.665-31.326.743-12.006.256-14.165-.196-25.523-1.126-28.186.862-56.738.145-84.941-.026-1.075-2.509-3.174-2.628-5.23-.24-4.413 3.848-8.97 2.628-13.97 5.06-8.832 6.135-12.783 12.8-22.4 12.86-8.286 25.225-8.806 39.706-6.093 13.107 8.21-5.086 11.853-4.497 22.093z"/><path fill="#8cbe49" d="M492.604 880c1.348 16.666 0 29.73-17.647 16.29-7.177 4.881-9.293 10.12-7.928 18.825 7.552-.674 14.294 4.198 19.166 9.676-69.265 25.396-122.7 31.855-196.77 25.532-16.81-1.433-35.934-6.084-52.872-9.532l-1.997-2.85-7.603-.35c-1.007-.238-2.202.256-3.2 0l-1.997-2.85-7.603-.35c-.982-.29-2.228.3-3.2 0l-1.886-2.858-4.514-.342c-.973-.332-2.296.35-3.2 0 4.061-10.282 21.614-6.195 32.008-6.4 28.117-.563 55.475-.58 83.217-3.2l-19.063 3.354-3.345 9.446 27.136-.06c17.766-4.12 36.079-7.184 54.314-6.16l3.567-6.75c37.257-5.103 80.214-23.663 113.417-41.421"/><path fill="#89be40" d="M9.318 732.8c4.924 2.91 2.202 8.917 6.264 14.54 5.734 7.928 31.88 21.71 41.702 25.507 18.262 7.066 52.805 13.022 71.987 11.085 8.986-.905 20.634-5.624 29.995-6.972l3.687-12.16c5.29 2.133 16.964 5.803 22.4 6.4-9.2 5.564-4.745 3.31-3.371 12.62l-6.409 1.87 3.38 17.51c-28.254 3.78-57.78 4.685-86.426 3.2-2.108-.11-4.352.247-6.4 0l-1.886-2.842-4.514-.358c-9.83-2.415-19.337-3.985-28.851-7.953-21.308-8.892-65.127-31.53-46.277-59.298 1.545-2.27 4.216-2.552 4.71-3.149z"/><path fill="#669a25" d="M290.97 668.8c3.49 12.083 3.712 18.492 8.951 31.053 2.722 6.528 5.41 18.261 8.576 23.466 3.49 5.752 10.12-5.666 14.481 6.281-9.113 8.115-24.243 27.145-28.808 38.4l-14.627 6.349 1.827 12.851c-.64.52-2.586-.53-3.2 0l-1.622-9.617c-9.216 2.833-18.116 6.443-27.187 9.617l-24.44-15.65c-3.353-.76-19.447 9.387-10.768-3.55.99-.282 2.218.29 3.2 0 4.616-.239 10.828-1.954 12.8-6.4.921-.375 2.33.393 3.2 0 4.462.623 8.72-1.869 9.6-6.4 35.131-19.73 52.019-44.407 48.008-86.4z"/><path fill="#81b23b" d="M316.57 486.4c-4.796 4.497-8.739 10.718-16 14.404v1.587c.955.87 10.018-2.304 12.8-3.191v3.2c-13.312 2.082-23.254 13.679-32.009 22.4-4.335 4.318-7.74 9.412-12.8 12.8 1.016-2.842 6.409-7.356 1.604-9.591-8.985 3.831-13.807 12.236-20.88 17.518-23.186 17.298-51.184 29.04-71.937 49.673l11.205 3.2c-.743.11-10.514 2.953-13.748 3.866-17.638 4.983-34.764 16.384-45.388 31.41-1.588 2.245-10.974 18.057-11.282 19.115l4.805-19.2-84.856 81.792-6.366-1.8c9.131-12.51 21.385-22.426 32.069-33.536 23.04-23.97 45.354-50.534 71.884-72.124 28.715-23.373 61.56-42 91.282-63.94-3.678 4.958-5.334 9.387 3.293 4.89 14.396-7.493 32.086-18.816 44.638-28.971 13.27-10.727 24.158-28.135 41.686-33.528z"/><path fill="#8abb4b" d="m492.604 291.2 12.8-4.804-22.4 30.404c-13.543 14.336-27.426 30.362-41.609 44.8-20.25 20.617-35.55 35.098-54.408 57.6-20.113 24.004-47.036 45.303-70.409 67.2-17.519 5.393-28.416 22.801-41.685 33.527-12.561 10.147-30.242 21.47-44.638 28.971-8.627 4.489-6.972.06-3.294-4.89 16.597-12.245 33.673-25.284 49.673-38.34 81.706-66.705 144.247-138.743 215.978-214.46z"/><path fill="#74a72e" d="M214.153 768c-8.679 12.937 7.415 2.782 10.769 3.55l24.44 15.65c-.948.333-2.245-.324-3.2 0l-4.515.341-1.886 2.859c-50.748 16.435-75.742 19.601-129.613 19.191-5.256-.042-14.942 2.356-17.613-3.191 28.647 1.476 58.172.58 86.426-3.2l-3.38-17.51 6.41-1.87c-1.383-9.31-5.837-7.056 3.37-12.62 8.346.913 20.634-.853 28.809-3.2z"/><path fill="#80b342" d="M290.97 777.6c-.043.17 3.66.691 1.792 3.08l-33.784 43.341c-.307 9.575 3.44 2.765 5.871-.529 3.883-5.256 6.588-11.366 13.312-13.892-13.244 21.845-23.936 40.2-43.144 57.66-7.757 7.048-24.491 16.793-30.755 23.893-2.525 2.859-.674 12.57-9.3 16.051 0 .956 12.475 9.6 15 10.582 6.597 2.577 18.185 1.382 23.39 7.014-10.393.205-27.946-3.883-32.008 6.4-5.88-2.295-12.851-3.942-18.705-6.886-13.338-25.48 14.874-34.313 29.978-47.454 7.04-6.127 18.21-16.939 23.995-24.005 12.723-15.539 29.978-55.68 41.55-65.655.613-.53 2.56.52 3.2 0 3.353-2.756 8.31-4.233 9.6-9.6z"/><path fill="#7cad3e" d="m627.03 182.4 1.936 2.85 10.863.35c-23.125 11.34-66.261 35.217-86.391 52.821-4.327 3.78-4.216 12.288-12.826 11.196V256c.81.947 4.122-2.466 6.409-3.2-4.113 7.825-12.143 12.501-17.468 19.337-7.578 9.745-11.63 21.358-17.74 31.863l1.604-19.2c-7.91 5.01-12.075 15.095-17.545 20.855-3.994 4.199-9.745 7.843-12.868 11.136l22.4-30.404-12.8 4.804c43.912-46.353 76.382-79.786 134.425-108.8z"/><path fill="#7dab4a" d="m927.88 204.8-66.303 28.109c-18.51 13.124-44.698 24.61-61.722 39.091-1.382-6.528-10.13-.154-12.723 1.681-8.141 5.752-15.173 16.657-25.686 20.719 17.613-18.38 38.008-34.202 59.708-47.497 13.474-8.26 31.454-18.252 45.858-24.55 27.546-12.04 44.194-7.663 60.86-36.753 1.229 5-2.867 9.557-2.628 13.97.11 2.047 2.594 4.155 2.628 5.23z"/><path fill="#435a25" d="M995.09 163.2c1.057-1.084 6.851-9.233 6.4-9.591-12.52 4.19-15.574-14.132-21.053-15.779-9.642-2.9-15.496 4.881-22.622 8.815-1.553.854-3.575.077-4.334.555 5.418-11.7 31.189-24.508 42.683-21.973 9.31 2.048 17.383 14.319 24.517 20.369z"/><path fill="#72973f" d="M953.48 147.2c.751-.478 2.782.299 4.335-.555 7.126-3.934 12.98-11.716 22.622-8.815 5.479 1.647 8.534 19.968 21.052 15.779.452.358-5.342 8.507-6.4 9.591-5.026 5.129-13.372 11.307-19.2 16-.597-10.24 17.604-13.875 4.497-22.093-14.48-2.713-26.837-2.201-39.705 6.093 4.445-6.417 2.107-9.19 12.8-16"/><path fill="#4d5342" d="M687.838 150.4c.785.99 5.333 2.057 6.391 4.813V160c-2.073.222-4.497-.358-6.391 0z"/><path fill="#80b342" d="M223.753 937.6c-4.77-1.203-7.663-2.637-9.6-3.2l7.603.35zm12.8 3.2c-5.223-1.058-8.884-3.03-9.6-3.2l7.603.35zm-25.6-6.4c-4.847-1.493-6.025-3.072-6.4-3.2l4.514.341z"/><path fill="#669a25" d="M246.161 787.2c-.375.128-1.937 1.758-6.4 3.2l1.886-2.859z"/><path fill="#74a72e" d="M86.127 806.4c-7.074-.862-6.016-3.106-6.4-3.2l4.514.358z"/><path fill="#9ece5c" d="M918.28 412.8c-1.373 16.777-6.673 26.317-14.557 41.446-23.749 45.56-60.945 93.603-92.8 134.417C725.205 698.487 616.448 813.756 492.603 880c-33.202 17.758-76.16 36.318-113.416 41.42l-3.567 6.75c-18.235-1.023-36.54 2.04-54.314 6.162l-27.136.06 3.345-9.447 19.063-3.354c1.058-.102 2.142.069 3.2 0 7.868-.486 10.206-2.636 12.8-3.2 1.86-.4 4.344.265 6.4 0l4.506-.34c2.67-.794 1.732-2.808 1.894-2.86 55.305-16.452 93.841-33.271 144.026-60.8 106.24-58.29 161.075-115.285 240.042-204.8 9.216-5.589 15.676-14.276 22.4-22.4 1.34-1.612 1.878-4.753 3.2-6.4 4.907-6.118 10.923-12.526 16-19.2 21.436-28.168 40.84-58.385 62.55-86.263 7.646-9.813 18.713-17.024 23.867-28.937 14.618-13.704 19.559-31.112 28.809-48 8.183-14.941 16.52-30.37 25.609-44.8 3.31-5.256 4.77-10.538 9.6-14.404l6.374 3.192c-4.924 4.104-2.168 10.59-3.66 15.522-1.528 5.017-5.061 4.446-5.914 14.89z"/><path fill="#8cbe49" d="m518.204 912-6.4-.009.008-1.587 6.383-4.804z"/><path fill="#57931c" d="M678.238 380.8c-1.1 3.473-26.948 34.176-31.94 40.064C556.698 526.43 466.654 618.257 358.187 704c-10.402 8.226-26.394 17.75-35.209 25.6-4.36-11.947-10.99-.53-14.48-6.28-3.158-5.206-5.846-16.948-8.577-23.467-5.24-12.553-5.461-18.961-8.951-31.053-2.637-9.14-8.414-28.638-14.388-35.302-2.235-2.5-5.862-2.339-7.321-3.798-1.442-1.442-1.255-5.026-3.832-7.27-8.209-7.151-16.281-10.36-25.668-14.43-7.868-3.413-9.13-5.111-19.2-6.4l-1.937-2.85c-3.601-.862-7.253-.248-10.863-.35-5.862-.162-13.781-.785-19.2 0l-11.204-3.2c20.761-20.642 48.76-32.384 71.936-49.673 7.082-5.282 11.895-13.687 20.88-17.518 4.805 2.244-.588 6.75-1.603 9.591-.333.922.307 2.202 0 3.2-2.475-.017-2.407 1.707-3.2 3.2-10.428 19.72-7.732 44.151 0 64 20.83 53.461 84.369 73.395 132.386 41.156 39.876-26.769 49.988-86.058 21.248-124.356-16.999-22.647-57.336-34.816-84.95-32.128-8.038.785-13.56 4.25-20.667 6.528-2.774.896-11.845 4.062-12.8 3.191v-1.587c7.262-3.686 11.204-9.907 16-14.404 23.381-21.897 50.295-43.196 70.408-67.2l9.668 1.655c-3.191 10.94-12.023 26.061-3.268 36.745.435 6.673 2.432 16.452 4.634 22.673 1.28 3.627 4.565 5.257 4.966 6.127 1.707 3.67 1.425 7.714 4.881 12.732 14.336 20.821 52.002 37.58 76.877 35.396 43.622-3.823 83.746-40.73 87.902-85.052 1.707-18.218-13.244-43.656-22.426-59.067 8.943.128 15.437 8.405 24.005 9.591 19.592 2.714 45.132-1.212 62.336-11.273 13.858-8.106 21.905-21.742 32.076-33.527 1.844-2.133 8.303-3.66 9.054-8.55.99-7.023 3.106-13.1 3.746-20.25.094-1.05-.042-2.142 0-3.2l15.779 8.371c-2.603 14.643-11.725 26.94-17.545 39.552-1.783 3.857-.725 7.458-1.434 9.677z"/><path fill="#b4d94b" d="m633.43 246.4 3.2 3.2c.853.444 2.414-.452 3.2 0 6.493 9.361 12.518 18.057 22.39 24.004l-6.519 9.532c6.221 18.15 5.573 36.412-4.753 52.779-14.762 23.398-45.431 41.096-73.677 38.613-16.81-1.476-35.336-5.018-49.373-14.61-4.625-3.165-7.245-9.147-12.886-11.118-5.495-15.403-9.642-28.638-3.2-44.8 6.11-10.496 10.163-22.118 17.741-31.863 5.316-6.844 13.346-11.512 17.468-19.337.956-.307 2.21.29 3.2 0 1.903-.563 3.422-.853 3.2-3.2 23.492-13.116 55.663-13.636 80.017-3.2zm-76.818 19.191c-16.913 2.467-35.61 22.819-20.804 38.392 15.684-11.614 30.677-15.138 20.804-38.392"/><path fill="#97c33a" d="M681.438 323.2c-.043 1.058.094 2.15 0 3.2l-2.671 2.04-10.138 26.76c-10.18 11.785-18.227 25.42-32.076 33.527-17.204 10.061-42.744 13.987-62.336 11.273-8.568-1.186-15.062-9.463-24.005-9.591 9.19 15.41 24.133 40.849 22.426 59.067-4.147 44.322-44.28 81.23-87.902 85.052-24.875 2.176-62.532-14.575-76.877-35.396-3.456-5.018-3.174-9.063-4.88-12.732l7.995-3.2c9.54 9.37 21.154 23.646 35.217 25.591 21.23 2.944 53.316-2.61 70.468-15.931 14.106-10.957 24.875-35.405 26.931-52.95.086-.768-.153-14.02-.307-15.112-2.457-16.905-15.47-26.778-9.207-43.853-6.315 1.263-8.184-5.726-9.472-6.554h6.4c-8.192-9.25-11.648-13.371-16-25.6 5.632 1.963 8.251 7.954 12.885 11.12 14.046 9.59 32.563 13.132 49.374 14.608 28.245 2.484 58.914-15.214 73.677-38.613 10.325-16.367 10.974-34.628 4.753-52.779l6.52-9.531c-9.874-5.94-15.898-14.643-22.392-24.005 27.554 15.95 42.837 41.455 41.608 73.6z"/><path fill="#7cad3e" d="M550.212 252.8c-.034-2.45 1.75-2.39 3.2-3.2.222 2.347-1.297 2.637-3.2 3.2"/><path fill="#97c33a" d="m636.63 249.6-3.2-3.2c3.361 1.442 2.995 3.098 3.2 3.2"/><path fill="#6ca72a" d="M911.872 393.6c-9.08 14.43-17.417 29.858-25.609 44.8l-6.408 4.796c3.848-36.08-11.23-67.064-41.685-86.315-17.75-11.221-32.47-8.252-52.72-8.072-5.256.042-14.941-2.364-17.612 3.191-1.1.051-2.338-.23-3.2 0-5.666-.452-13.159 1.015-16 6.4-.947.341-2.27-.35-3.2 0-8.969 3.396-13.03 6.29-19.2 12.8-3.183 3.354-15.335 16.614-16 19.2l-6.4 3.2-3.166-1.877c-11.375 13.969-17.4 30.558-25.984 46.336-10.044-1.417-14.933 4.309-22.059 9.941 12.066-15.172 23.382-31.036 35.14-46.464 24.986-32.76 49.827-66.005 76.877-97.536l12.8-12.8c.743-.495 2.484.495 3.2 0 7.97-5.555 10.411-10.906 16-16 1.255-1.152 2.424-2.534 3.2-3.2 17.024-14.481 43.213-25.958 61.722-39.091l66.304-28.109c.717 28.203-1.263 56.755-.145 84.94.452 11.359.939 13.51.196 25.524-.64 10.342 1.075 21.129-.665 31.326-2.62 15.326-15.036 30.856-15.395 47.01z"/><path fill="#5b9419" d="M703.838 393.6v3.2c-2.338-.239-2.654 1.289-3.2 3.2-.299 1.041.35 2.347 0 3.2l-3.2 3.2v3.2l-2.8 1.911c-7.543 11.008-2.61 23.032-.409 33.289 3.567 16.614 3.362 18.765 14.405 31.991 1.467 1.758 11.23 8.175 4.795 9.609-14.924-8.183-42.231-8.021-59.247-6.332-3.524.35-5.777 2.629-7.961 3.132-58.855 13.508-77.534 80.998-48.017 129.613l-9.6 1.587c-17.34-8.951-39.544-6.537-57.609-3.2-4.002.742-7.594-.247-12.945 1.442-6.093 1.92-18.654 10.24-23.919 14.498-61.679 49.86-23.1 144.965 51.345 153.583 36.531 4.233 87.697-18.372 96.922-56.55 5.427-22.46 4.139-44.314-5.777-64.982-1.34-2.79.213-8.832-6.4-9.6v-3.2c.179.026.205-2.798 3.166-1.851 23.79 7.594 42.93 11.511 68.795 8.2 18.774-2.406 30.857-14.728 43.264-27.144 1.425-1.434 8.337-11.17 9.6-4.805-1.322 1.647-1.86 4.788-3.2 6.4-9.378 5.41-15.47 14.541-22.4 22.4-78.967 89.515-133.802 146.51-240.042 204.8l-19.2 6.4c-.965-4.292 1.408-6.126 3.191-9.6 26.01-32.878 20.89-90.606-12.936-116.659-5.513-4.25-11.307-5.632-15.864-8.14-3.865-2.125-7.125-5.752-12.757-8.047-14.72-6.008-30.464-8.21-44.851-11.154 6.878-5.265 15.539-9.378 22.263-14.54 71.33-54.742 132.181-122.206 192.24-188.596 15.24-16.844 33.885-42.393 51.148-56.064 7.125-5.64 12.015-11.357 22.059-9.94 8.584-15.77 14.6-32.36 25.984-46.337l3.165 1.877z"/><path fill="#9bc43a" d="M386.987 707.2c14.378 2.935 30.13 5.137 44.85 11.153 5.641 2.304 8.901 5.922 12.758 8.047-11.81-2.39-25.08-11.204-36.855-12.749-36.182-4.753-79.377 13.167-90.59 50.125-1.229 4.045-6.818 35.482-6.545 37.359.452 3.012 4.292 6.682 5.436 10.607 3.276 11.247 1.05 13.867 10.077 25.113 23.851 29.722 59.76 30.729 92.945 16.009 2.56-1.135 14.132-7.578 15.267-8.738 1.442-1.46 1.57-5.18 3.652-7.458 3.234-3.55 8.08-4.506 11.375-7.91 5.768-5.957 17.732-38.187 17.075-45.816-1.067-12.442-14.711-27.938-12.535-41.848-.384-1.749-1.58-2.628-2.97-3.558-4.83-3.234-8.312-.06-6.332-11.136 4.557 2.509 10.351 3.891 15.864 8.14 33.826 26.053 38.946 83.79 12.936 116.66-15.036 19.012-60.851 40.124-84.932 38.545-48.896-3.2-99.925-53.512-84.668-104.124L297.37 784l-3.2 3.2c-.487.785.495 2.492 0 3.2l-16 16c-.461.82.469 2.423 0 3.2-6.725 2.526-9.43 8.636-13.312 13.892-2.44 3.303-6.187 10.104-5.871.53l33.783-43.341c1.869-2.39-1.835-2.91-1.792-3.081.504-2.074 2.355-7.526 3.2-9.6 4.565-11.255 19.687-30.285 28.809-38.4 8.815-7.85 24.806-17.374 35.208-25.6l1.929 2.773c9.088 7.757 17.135-1.561 26.88.427z"/><path fill="#7dab4a" d="M764.646 304c4.788-5.58 5.931-8.218 12.8-12.8zm16.009-12.8 16-16c-5.59 5.094-8.03 10.445-16 16"/><path fill="#9bc539" d="M239.753 608c9.386 4.07 17.459 7.27 25.668 14.43 2.577 2.253 2.39 5.828 3.831 7.27 1.45 1.46 5.086 1.297 7.322 3.798 5.973 6.664 11.75 26.171 14.387 35.302 4.01 41.993-12.877 66.67-48.008 86.4-3.03 1.698-8.764 6.025-9.6 6.4-.88.393-2.279-.375-3.2 0-4.31 1.766-12.092 6.195-12.8 6.4-.982.29-2.22-.282-3.2 0-8.167 2.347-20.463 4.113-28.809 3.2-5.444-.597-17.11-4.267-22.4-6.4-41.02-16.53-55.066-48.265-51.345-91.34.529-6.153 2.799-16.564 6.536-20.66-2.67 9.07.623 48.23 3.772 58.624 5.368 17.724 27.068 38.11 45.884 40.516 35.03 4.48 69.41-9.045 91.221-36.685 17.605-22.306 17.903-58.376 1.46-81.578-6.11-8.619-17.767-14.14-20.72-25.686z"/><path fill="#6ba42a" d="m297.37 784 6.425 1.621c-15.257 50.612 35.772 100.924 84.668 104.124 24.081 1.57 69.896-19.541 84.932-38.545-1.783 3.473-4.156 5.308-3.191 9.6l19.2-6.4c-50.185 27.529-88.721 44.348-144.026 60.8l-4.523.401-1.885 2.799c-2.057.265-4.54-.401-6.4 0l-10.863.35-1.937 2.85c-1.059.068-2.142-.102-3.2 0-27.742 2.62-55.1 2.637-83.217 3.2-5.206-5.632-16.794-4.437-23.39-7.014-2.526-.99-15.01-9.635-15.002-10.582 8.627-3.473 6.776-13.184 9.301-16.05 6.264-7.1 22.99-16.837 30.755-23.894 19.208-17.46 29.9-35.815 43.144-57.66.47-.777-.46-2.38 0-3.2 6.93-3.61 11.622-9.77 16-16 .495-.708-.486-2.415 0-3.2.265-.427 3.61-.572 3.2-3.2z"/><path fill="#acd38b" d="M294.17 768c-.845 2.074-2.697 7.526-3.2 9.6-1.289 5.367-6.247 6.844-9.6 9.6l-1.827-12.851z"/><path fill="#74a72e" d="M233.353 761.6c.844-.375 6.579-4.702 9.6-6.4-.88 4.531-5.138 7.023-9.6 6.4m-3.2 0c-1.98 4.446-8.184 6.161-12.8 6.4.708-.205 8.49-4.634 12.8-6.4"/><path fill="#bcde4d" d="m207.753 598.4 1.937 2.859c3.54 1.083 7.483-.086 10.863.341 10.069 1.289 11.34 2.987 19.2 6.4 2.952 11.546 14.609 17.067 20.718 25.685 16.444 23.194 16.154 59.264-1.459 81.579-21.81 27.64-56.192 41.173-91.221 36.685-18.816-2.407-40.525-22.793-45.884-40.516-3.149-10.403-6.442-49.554-3.772-58.624.316-1.067 9.694-16.87 11.282-19.115 10.615-15.027 27.75-26.428 45.388-31.411 3.234-.913 13.005-3.764 13.748-3.866 5.427-.785 13.337-.162 19.2 0z"/><path fill="#b4d64e" d="M418.987 524.8c-1.212 12.663 1.715 27.759 0 40.004-.436 3.106-6.34 20.301-7.877 24.124-7.893 19.533-21.137 33.963-40.26 42.948-14.78 6.946-46.566 12.177-61.824 7.663-2.568-.76-4.488-4.266-7.5-5.325-5.052-1.775-17.443-2.116-19.696-4.48-.81-.853-.025-3.754-1.126-4.932-1.562-1.68-5.632-1.34-7.441-3.831-2.637-3.636-.64-11.768-7.91-12.971-7.732-19.849-10.428-44.28 0-64 2.355.196 2.62-1.306 3.2-3.2.307-.998-.333-2.278 0-3.2 5.068-3.388 8.465-8.482 12.8-12.8L272 551.595c5.59 5.06 6.81 15.931 15.753 14.814.315-19.653 18.952-29.935 34.406-37.76 5.128-2.595 6.485 1.578 10.394-8.662 3.003-7.85-7.715-3.328-9.379-4.966l-3.268-11.196-6.536-1.416v-3.2c7.108-2.287 12.629-5.752 20.667-6.528 27.614-2.68 67.951 9.48 84.95 32.128z"/><path fill="#c1df5e" d="m313.37 502.4 6.536 1.417 3.268 11.195c1.664 1.639 12.382-2.893 9.379 4.967-3.909 10.24-5.266 6.067-10.394 8.661-15.454 7.817-34.09 18.108-34.406 37.76-8.943 1.118-10.164-9.754-15.753-14.814l9.353-26.795c8.755-8.72 18.688-20.317 32.008-22.4z"/><path fill="#5a9321" d="M511.804 304c-6.443 16.162-2.287 29.397 3.2 44.8 4.36 12.228 7.808 16.35 16 25.591h-6.4c-21.615-13.84-49.528-10.828-73.617-6.391-3.96 1.118-2.987 3.115-3.2 3.2-.965.375-2.39-.41-3.2 0l-3.2 3.2h-3.2l-3.217-1.621.221-2.919 6.187-8.251c14.183-14.439 28.066-30.464 41.609-44.8 3.114-3.303 8.874-6.938 12.868-11.136 5.47-5.76 9.643-15.847 17.544-20.856l-1.604 19.2z"/><path fill="#77a727" d="M438.195 374.4c-5.23 9.045-15.215 12.228-22.46 20.745-14.233 16.742-23.799 40.354-22.348 62.455-8.756-10.684.076-25.805 3.268-36.745l-9.668-1.655c18.858-22.502 34.159-36.983 54.408-57.6l-6.186 8.252-.222 2.918 3.217 1.621z"/><path fill="#9dc439" d="M767.846 352c2.671-5.555 12.357-3.149 17.613-3.191 20.241-.18 34.961-3.15 52.72 8.072 30.455 19.251 45.533 50.236 41.684 86.315l6.409-4.796c-9.25 16.887-14.19 34.295-28.809 48-5.111 4.796-18.252 18.313-22.425 20.77-1.86 1.1-19.66 8.03-20.779 8.03h-51.208c-.555 0-11.717-8.158-7.988 1.579s14.61 22.101 15.983 32.025c1.87 13.509 1.741 37.769-4.949 49.442l4.95 3.354c-5.078 6.673-11.094 13.082-16 19.2-1.264-6.374-8.176 3.37-9.6 4.804-12.408 12.425-24.483 24.738-43.265 27.145-25.856 3.32-44.996-.606-68.795-8.2-2.961-.948-2.987 1.877-3.166 1.851-1.067-.154-5.598-2.483-6.4-3.2-11.179-9.933-20.839-21.376-35.209-28.8l9.6-1.587c-29.517-48.615-10.837-116.096 48.017-129.613-3.14 7.228-22.792 14.157-25.036 16.768-.965 1.118-.094 4.3-1.024 5.026-2.117 1.639-7.322-.375-10.855 3.695-.691.794-10.291 17.203-10.59 18.21-3.422 11.426-2.133 26.41-6.87 37.897 2.535 18.014 12.63 30.276 22.222 44.953 24.909 6.247 42.445 14.72 68.3 7.185 41.071-11.972 72.55-48.298 62.55-93.218-.299-1.357-11.025-21.794-12.092-23.108-1.237-1.527-16.896-12.843-19.396-14.208 6.425-1.425-3.328-7.842-4.796-9.609-11.042-13.235-10.837-15.385-14.404-31.991l3.2-35.2v-3.2c2.534.273 2.5-1.519 3.2-3.2.35-.853-.299-2.159 0-3.2l3.2-3.2v-3.2l6.4-3.2c-2.466 21.564-12.903 49.434-1.656 70.451.384.726 8.329 11.623 8.9 12.109 2.62 2.21 8.013-1.527 5.573 10.249 14.874-16.077 27.093 1.501 40.55 2.628 2.62.222 23.62-2.023 28.254-2.628 4.455-.59 29.577-14.302 33.485-17.716 11.571-10.12 21.325-38.545 18.705-53.674-4.181-24.184-23.808-42.172-46.327-49.673-3.576-1.195-8.167.12-11.836-.964-6.042-1.792-5.077-9.728-18.031-9.173z"/><path fill="#60911c" d="m771.055 601.6-4.95-3.354c6.69-11.682 6.819-35.942 4.95-49.442-1.374-9.924-12.425-22.741-15.983-32.025s7.433-1.579 7.987-1.579h51.209c1.118 0 18.918-6.93 20.778-8.03 4.173-2.466 17.315-15.983 22.426-20.77-5.154 11.913-16.222 19.123-23.868 28.937-21.709 27.878-41.113 58.086-62.55 86.263"/><path fill="#8cbe49" d="M332.57 918.4c-2.595.563-4.933 2.714-12.8 3.2l1.937-2.85zm12.808-3.2c-.162.051.777 2.065-1.894 2.859l-4.506.341 1.886-2.799 4.523-.401z"/><path fill="#9dc439" d="M729.446 649.6c6.938-7.86 13.022-16.99 22.4-22.4-6.724 8.124-13.184 16.81-22.4 22.4"/><path fill="#b9db52" d="M524.604 374.4c1.297.828 3.157 7.817 9.472 6.554-6.264 17.066 6.75 26.948 9.207 43.852.162 1.093.401 14.345.307 15.113-2.056 17.536-12.825 41.992-26.93 52.95-17.153 13.32-49.247 18.875-70.47 15.931-14.062-1.954-25.676-16.222-35.216-25.591l-7.996 3.2c-.41-.87-3.686-2.51-4.966-6.127-2.193-6.221-4.19-15.992-4.634-22.673-1.45-22.102 8.115-45.714 22.349-62.456 7.245-8.516 17.229-11.7 22.46-20.744h3.2l3.2-3.2c.81-.41 2.235.375 3.2 0l3.2-3.2c24.09-4.438 52.002-7.45 73.617 6.4z"/><path fill="#98c238" d="M265.361 608c7.27 1.195 5.274 9.327 7.91 12.97 1.81 2.5 5.88 2.16 7.442 3.832 1.092 1.178.307 4.08 1.126 4.932 2.253 2.364 14.643 2.714 19.695 4.48 3.004 1.059 4.924 4.566 7.5 5.325 15.258 4.514 47.045-.717 61.825-7.663 19.123-8.985 32.367-23.415 40.26-42.948 1.544-3.823 7.45-21.018 7.876-24.124 1.707-12.245-1.212-27.332 0-40.004 28.74 38.306 18.628 97.587-21.248 124.356-48.017 32.24-111.556 12.297-132.386-41.156"/><path fill="#649e27" d="m668.63 355.2 10.137-26.76 2.67-2.04c-.64 7.142-2.747 13.227-3.745 20.25-.751 4.898-7.22 6.425-9.054 8.55z"/><path fill="#c5e46f" d="M556.612 265.591c9.873 23.245-5.111 26.778-20.804 38.392-14.805-15.573 3.891-35.917 20.804-38.392"/><path fill="#b8d94e" d="M767.846 352c12.954-.555 11.99 7.381 18.031 9.173 3.67 1.084 8.252-.222 11.836.965 22.52 7.5 42.146 25.489 46.328 49.672 2.62 15.121-7.134 43.546-18.706 53.675-3.908 3.422-29.038 17.126-33.484 17.715-4.642.614-25.634 2.85-28.254 2.628-13.457-1.126-25.677-18.705-40.55-2.628 2.44-11.776-2.953-8.03-5.573-10.249-.572-.486-8.516-11.383-8.9-12.108-11.247-21.018-.81-48.888 1.655-70.452.674-2.585 12.817-15.846 16-19.2l4.318-.469c4.702-4.488 12.732-6.17 14.882-12.33.93-.35 2.253.34 3.2 0 4.728-1.699 13.585-5.76 16-6.4.862-.23 2.1.05 3.2 0z"/><path fill="#9dc439" d="M726.246 371.2c6.17-6.51 10.24-9.404 19.2-12.8-2.159 6.161-10.18 7.842-14.882 12.33zm38.4-19.2c-2.415.64-11.272 4.702-16 6.4 2.842-5.385 10.334-6.852 16-6.4"/><path fill="#bad94f" d="M588.62 614.4c14.37 7.424 24.022 18.867 35.21 28.8-.64 9.77 4.01 17.1 3.344 27.324-1.911 29.27-25.89 60.194-51.49 73.344-24.951 12.817-62.84 13.875-86.195-3.158-6.716-4.898-18.074-21.376-18.714-29.26-.281-3.397 2.407-6.187 2.526-9.123.256-6.323-.64-13.124.145-19.072 1.955-14.813 12.758-36.445 23.825-46.574 4.463-4.088 11.887-4.864 13.961-6.853 1.434-1.374 1.638-6.22 5.188-9.199 7.023-5.88 16.478 1.562 14.584-9.429 18.065-3.337 40.269-5.751 57.608 3.2z"/><path fill="#bbdf4f" d="M713.438 486.4c2.492 1.365 18.15 12.68 19.396 14.208 1.067 1.314 11.785 21.751 12.092 23.108 10 44.92-21.487 81.246-62.55 93.218-25.855 7.535-43.391-.938-68.3-7.185-9.592-14.668-19.678-26.94-22.221-44.953 4.736-11.486 3.447-26.47 6.87-37.897.298-1.007 9.898-17.416 10.59-18.21 3.532-4.07 8.746-2.056 10.854-3.695.93-.717.06-3.9 1.024-5.026 2.244-2.611 21.896-9.54 25.036-16.768 2.185-.503 4.446-2.782 7.962-3.132 17.015-1.69 44.322-1.851 59.247 6.332m-76.817 25.591c-1.357-1.57-21.069 3.183-21.982 8.431l-7.023 28.365 10.01 20.625c41.036 5.837 21.743-33.408 19.003-57.412z"/><path fill="#9ec63c" d="M531.012 611.2c1.895 10.99-7.56 3.55-14.583 9.43-3.55 2.969-3.755 7.824-5.188 9.198-2.074 1.989-9.498 2.765-13.961 6.853-11.068 10.129-21.87 31.76-23.825 46.574-.785 5.948.11 12.75-.145 19.072-.12 2.936-2.808 5.726-2.526 9.123.649 7.884 11.998 24.362 18.714 29.26 23.355 17.033 61.243 15.975 86.195 3.158 25.6-13.15 49.578-44.075 51.49-73.344.666-10.215-3.985-17.545-3.345-27.324.802.717 5.333 3.046 6.4 3.2v3.2l6.4 9.6c9.916 20.66 11.204 42.513 5.777 64.981-9.216 38.178-60.382 60.775-96.922 56.55-74.444-8.618-113.015-103.722-51.345-153.582 5.274-4.258 17.835-12.57 23.92-14.498 5.35-1.69 8.942-.709 12.944-1.442z"/><path fill="#6ca72a" d="M694.238 444.8c-2.202-10.257-7.143-22.28.41-33.289l2.798-1.911-3.2 35.2z"/><path fill="#9dc439" d="m636.63 659.2-6.4-9.6c6.613.768 5.06 6.81 6.4 9.6"/><path fill="#6ca72a" d="M700.638 400c.546-1.911.862-3.439 3.2-3.2zm-3.2 6.4 3.2-3.2c-.7 1.681-.666 3.473-3.2 3.2"/><path fill="#b5da4c" d="M444.595 726.4c-1.98 11.076 1.502 7.902 6.332 11.136 1.39.93 2.586 1.818 2.97 3.558-2.176 13.91 11.468 29.406 12.535 41.848.657 7.629-11.315 39.86-17.075 45.815-3.294 3.405-8.141 4.36-11.375 7.91-2.082 2.28-2.21 6.008-3.652 7.459-1.144 1.152-12.707 7.595-15.267 8.738-33.186 14.711-69.094 13.705-92.945-16.009-9.028-11.246-6.8-13.866-10.077-25.113-1.144-3.925-4.984-7.595-5.436-10.607-.282-1.877 5.316-33.314 6.545-37.359 11.213-36.958 54.408-54.87 90.59-50.125 11.776 1.545 25.054 10.351 36.855 12.749m-94.046 13.107c-6.033 1.835-27.323 30.413-26.982 36.574 22.11 24.738 34.278-9.293 50.372-22.741 3.806-10.565-16.793-15.838-23.39-13.833"/><path fill="#80b342" d="m278.161 806.4 16-16c-4.378 6.23-9.07 12.39-16 16m16.009-19.2 3.2-3.2c.41 2.628-2.936 2.773-3.2 3.2"/><path fill="#81b23b" d="M220.553 601.6c-3.38-.435-7.322.742-10.863-.341l-1.937-2.859c3.61.102 7.261-.512 10.862.35zM265.36 544c.794-1.493.725-3.217 3.2-3.2-.58 1.894-.845 3.396-3.2 3.2"/><path fill="#77a727" d="m441.395 374.4 3.2-3.2zm6.4-3.2c.214-.085-.76-2.082 3.2-3.2z"/><path fill="#c4e56b" d="M636.62 511.991c2.74 24.005 22.034 63.25-19.003 57.413l-10.01-20.625 7.023-28.365c.913-5.248 20.625-9.993 21.982-8.431z"/><path fill="#c3e374" d="M350.55 739.507c6.587-2.005 27.195 3.277 23.39 13.833-16.095 13.448-28.263 47.47-50.373 22.741-.341-6.161 20.95-34.74 26.982-36.574"/></svg>