<svg xmlns="http://www.w3.org/2000/svg" viewBox="0 0 1024 1024"><path fill="#f5efc0" d="M646.838 975.275c-1.664 1.39-3.703 2.859-5.768 4.045l-3.064 1.75c-.614.349-1.851.75-2.483.887.068-.248.82-1.408 1.212-1.63l2.585-1.451 5.64-3.302c.385-.23 1.682-.333 1.87-.299zm11.93-8.934-1.86 1.74a43 43 0 0 1-3.584 3.03l-2.697 2.014c-.375.281-1.519.742-1.852.844l-.836-2.048c.7.23 1.015.333 1.28.436.162.06 3.26-1.886 4.036-2.51l4.958-3.959.555.461z"/><path fill="#f3eab2" d="M716.359 798.235v-5.401l.665-.563.034 5.41zm-.495 9.942c.034-1.058-.137-2.5-.23-4.088l.725-.546v4.096l-.495.546z"/><path fill="#f5efc0" d="m632.238 983.714-1.98.862.87-1.638z"/><path fill="#f3eab2" d="M713.876 832.693c.034-.59-.146-1.664-.256-2.765l.75-.546v2.782l-.494.537zm1.322-14.575-.239-3.43.7-.598c-.034.947.017 1.997.043 3.49l-.504.546zm-.648 6.622c.025-.606-.154-1.656-.256-2.782l.776-.53-.042 2.783z"/><path fill="#fbf9dd" d="m634.013 269.42 1.86 8.372 1.357 6.135 1.28 5.257 2.654 11.127 1.066 4.71 1.45 6.102 1.571 5.777c.324 1.194.708 2.509.836 3.498l.427 3.209a34 34 0 0 1 1.203 3.413l1.51 5.206c1.946 6.69-.435 5.068 1.81 10.137l.802 5.623.836 4.958c.247 1.45.555 2.765.913 4.147l.768 2.979c1.587 1.817 2.73 4.3 2.44 6.724l-.17 1.408c-2.185 2.79-.853 6.434-.401 9.941l1.527 11.99a40 40 0 0 1 .316 4.445l.034 5.461c0 1.314.35 2.688 1.075 3.968l.188 15.736.111 28.569c.7 2.961.367 5.658.145 8.661-.18 2.321-.051 4.796-.008 7.143l.06 3.908.016 4.966.034 3.311.026 3.73.12 2.96c.23 5.93-.23 3.09-.3 8.482l-.4 32.307-.922 6.409-.12 7.611-.093 6.076c-.026 1.621-.495 3.618-.896 5.137l-.128 3.473-.546 15.087-.862 6.204-.341 13.79-.999 8.481-.196 6.102c-.128 3.933-.922 7.56-.99 8.763l-.614 11.7-.837 5.239c-.546 3.439-.281 6.639-.674 10l-.563 4.78-.085 3.84-.282 15.948c-.025 1.306-.188 2.748-.375 3.994l-.649 4.19c-.427 2.764.265 12.398-1.305 17.262l-.359 14.933-.998 4.651-.384 15.693c-.452.973-.999 2.517-1.016 3.404l-.239 11.845c-.46 1.843-.861 3.84-.921 5.657l-.495 13.747c-1.656 5.317-.555 5.854-1.74 13.662-.172 1.11-.342 2.398-.419 3.558l-.64 9.114c-.102 1.408-.76 3.328-.836 4.762-.12 2.346-.171 4.488-.435 6.57l-.93 7.373-1.033 7.415-.495 3.132-.632 4.02-.571 4.027-.726 5.333-.7 5.257c-.947 7.1-3.071 13.823-3.942 19.054l-.776 4.685-.794 4.36c-.529 2.893-1.34 5.658-2.15 8.517l-3.405 12.057-2.1 6.34-2.15 6.264c-.546 1.587-1.228 3.191-1.902 4.77l-1.673 3.9-2.756 5.726-1.937 3.925-2.244 4.463-1.656 3.61-4.096 7.116-4.053 6.613-3.951 6.025-3.558 5.103c-1.306 1.868-2.953 3.686-4.43 5.427l-3.31 3.9c-1.536 1.809-3.123 3.498-4.787 5.239l-4.574 4.77c-1.22 1.28-2.338 2.56-3.635 3.678l-6.102 5.24-3.805 2.79c-1.98 1.45-3.72 2.918-5.769 4.24l-3.499 2.254a55 55 0 0 1-4.701 2.705l-5.735 2.91-5.7 2.875c-1.314.666-2.586 1.553-3.405 2.509-1.945-.111-4.556.478-6.707.478l-23.219.025-77.397.086c-1.194 0-2.679.273-3.43.162-18.858-2.876-37.18-11.085-52.462-23.083l-7.143-5.606c-7.006-5.495-15.334-14.797-20.761-22.041-2.816-3.764-5.197-7.646-7.714-11.631-14.54-23.04-19.72-52.642-22.477-79.496l-1.775-17.288-1.271-17.895-1.033-27.537c-.034-.827-.478-2.423-.554-2.892.742-1.716.213-3.943.196-6.119l-.316-44.262-.128-17.928-.316-7.424-.042-174.002.222-3.507c.264-4.19-.052-8.243-.086-12.518l-.187-23.228.435-4.932.025-99.66.256-8.004 2.202-.725.785 3.404c3.883 1.87.486.802 3.345 5.257l2.603 4.062c.358.99.742 2.005 1.143 2.816l5.419 11.059c.827 5.043.273 1.467 3.225 7.748l2.526 5.367 1.468 3.124 2.96 6.331c2.168 4.642 2.715 7.51 6.836 9.122.896.35 3.183-1.578 3.192-2.688l.025-16.537.99-4.565.58-13.227c1.587-3.533.717-6.477 1.485-12.296.094-.734.76-2.33.81-3.013l.453-7.116.853-3.465.333-7.023 1.007-2.355.375-6.349.837-2.27.426-7.057a35 35 0 0 0 1.186-4.744l.743-4.19.913-5.163 1.015-5.922.7-4.104 1.024-6.485c.094-.598.504-1.86.708-2.629l1.144-4.181c.264-.973.435-3.328.597-4.326-.307 1.92 2.1-6.34 2.065-6.042.461-4.514.35-8.943.188-13.158l-1.391-3.43-1.357-3.286-2.816-6.553c-.503-1.16-.938-2.577-1.382-3.857l-1.203-3.482-1.374-3.942-1.383-3.934c-.443-1.255-.682-2.705-1.1-4.233l-.674-2.449c-.384-1.4-.23-4.574-.717-5.973l-.802-2.278-.538-7.697c-.043-.58-.768-2.185-.99-2.74l.017-19.89 1.101-2.646.299-11.605c.008-.359.768-1.698.827-1.835l.555-6.349c2.074-4.113 0-.878 2.125-7.628.213-.691.23-2.236.17-2.953.248-.708.751-2.108 1.195-2.696l6.101-8.132 5.556-7.877c.12-.23 1.86.384 1.86.999l.043 14.19c0 .7-.956 2.45-1.05 3.072-.205 1.374-.282 3.934-.358 5.786-.035.76-.888 2.551-.982 3.337-.529 4.403.196 6.835-1.357 9.3l-.281 29.611c-.009 1.144.589 2.543.836 3.627.376 1.655.358 3.678.486 5.802.069 1.17.777 2.697.956 4.054l.632 4.83 1.467 4.864 1.314 3.814c2.014 5.845-.085 2.116 1.784 7.083l1.502 4.002c.35.93 1.212 2.048 2.184 3.362l1.81-2.262 1.211-4.19c.376-1.305.896-2.739 1.417-3.967l1.169-2.748.862-2.927 2.133-4.804 1.212-2.756 1.211-2.723c.273-.623.666-2.099.888-2.781 3.131-5.7.793-2.833 3.865-9.097l2.176-4.446 2.654-5.376 3.789-7.45c.196-.392.563-1.117.76-1.416l2.491-3.908 1.596-2.645 2.21-3.653 1.8-2.978c.905-1.493 1.699-3.217 2.356-4.966.588-.998 2.483-2.765 3.063-3.84l1.186-2.21 2.552-3.627 2.423-3.456 2.722-3.626 3.559-4.625 1.672-2.381c1.118-1.596 2.654-3.098 4.01-4.489l10.838-11.11c.23-.23.606-.785.717-1.05.077 0 .964-.511 1.229-.75l2.807-2.654c1.178-1.11 2.355-2.1 3.686-3.158 5.974-4.736 5.487-5.998 14.276-5.546l4.293 4.625c1.63 1.758-3.567 7.671-4.455 8.601l-8.396 8.84-3.653 4.14-1.954 2.252c-.981 1.127-2.142 2.372-3.02 3.499l-5.487 7.074-1.17 1.698-2.892 4.215-2.202 3.209-4.275 6.246c-2.108 3.08-3.294 6.861-5.461 9.66l-1.127 1.826-2.406 4.062-2.048 3.695c-.307.546-.597 2.32-.905 2.833-.622 1.024-1.851 2.824-2.363 3.985l-2.859 6.494-3.166 7.304-1.118 2.816-1.425 3.797-1.305 3.456-2.765 7.203c-.375.98-.836 2.798-1.1 3.874l-.777 3.114-1.391 4.642-1.289 4.207c-.52 1.707-1.083 4.378-1.058 5.93v.521l-.964.069c-1.033.068.904 2.713-1.485 4.727l-.162 2.628-.034.666c-.23.034-1.195.845-1.212 1.254l-.06 2.108-.145 3.26c-.179.025-.717.085-.7.094s-.162.87-.221 1.186l-.743 3.754-.87 4.224-.708 3.43-1.17 6.631-.759 3.891-.904 4.13c-.538 2.458-.444 5.376-.419 7.791.009.888-.213 2.543-.128 3.388l-1.1-.077-.12 7.842c0 .563.043 1.46.068 2.065-.682.683-1.271 2.048-1.297 3.175l-.239 11.272c-.597 1.246-1.075 2.782-1.092 4.01l-.213 15.907c-.47.947-1.016 2.363-1.024 3.174l-.196 29.346-.034 33.152.017 33.817.179 46.395c0 1.784.76 4.156 1.143 5.93l.12 25.857 1.228 2.159.06 19.583c0 .598 1.144 2.356 1.16 2.927l.146 5.743.034 16.546c0 .743.708 2.338 1.041 2.944l.47 18.45 1.075 5.042v5.47l.05 20.54 1.212 1.305.103 6.673.196 9.72.973 4.25.281 15.223c.026 1.177.35 4.88 1.135 4.582l.052 3.31.17 10.54.043 2.858.939 2.125.256 15.701c.017 1.058.793 3.08.861 4.13l.7 10.155.794 2.389.264 8.397.103 5.299.904 3.063.52 11.452.837 3.499.58 14.967.837 4.079.34 6.587.94 3.61c1.075 4.156.69 9.25 1.484 13.704l.973 5.445.879 6.937 1.178 5.59c1.45 6.86.512 5.051 1.98 12.586.264 1.34.409 3.337.708 4.472l1.288 4.795 1.4 5.223.81 3.379c.393 1.621.717 3.106 1.16 4.608l1.264 4.25 1.39 4.437 1.22 4.01 1.238 4.685c.649 2.449 1.45 4.582 2.603 6.8.205.624.563 2.33.87 3.005l3.354 7.424c.444.972.904 2.32 1.288 3.319l2.108 5.495c.384.999.939 2.441 1.357 3.277l3.063 6.093 2.415 4.992 3.413 5.837 4.83 7.611 1.895 2.833 4.07 5.854 3.03 4.224a35 35 0 0 0 3.003 3.584l3.601 3.797 3.874 4.045 6.98 6.938c4.293 4.275 10.249 10.052 16.47 10.709l4.445.47c.214.025 1.033 1.083 1.187.93l1.066-1.05c1.442-1.425 2.355-3.541.862-5.24l-5.376-6.1-5.828-5.061-2.33-2.526c-1.698-1.843-3.413-3.66-4.949-5.58-1.75-2.177-3.32-4.097-5.3-6.076-1.663-1.664-3.071-3.618-4.513-5.513l-2.586-3.396c-.913-1.195-1.783-2.662-2.585-4.028l-2.688-4.582-3.013-4.71-2.995-5.214a67 67 0 0 1-1.638-3.055l-1.92-3.832-4.139-8.243-.623-1.962-2.09-4.31c-.41-.845-.82-2.27-1.23-3.268l-2.457-5.94c-.392-.938-.657-3.13-.998-4.07l-1.28-3.498-1.374-3.695c-.17-.47-.879-1.92-.87-2.509l.12-19.729 1.057-4.676.393-7.262c.051-.938.46-2.773.682-3.865l2.117-10.283c.41-1.971.665-4.104 1.263-5.939l1.954-6.016c.478-1.468.93-3.115 1.322-4.608l1.963-7.492c.367-1.4.93-3.507 1.417-4.668l2.756-6.57 2.585-5.829 2.808-6.536c.333-.768 1.126-1.997 1.57-2.884l2.73-5.428c.948-1.885 2.339-3.925 3.593-5.742l1.263-1.835c1.476-2.142 2.927-4.147 4.634-6.135l3.328-3.858 2.696-3.225 3.712-4.429c.845-1.007 2.244-2.005 3.575-3.004l.222-3.763c.077-1.22-.35-3.652 1.844-4.173 1.271-.298-.197 3.883 3.464 6.17l1.997 3.157c.682 1.084 1.433 2.338 2.201 3.277l3.004 3.704c2.97 3.66 6.067 8.507 7.125 13.192.7 3.089.35 14.737-.085 18.346-.094.811-.853 2.603-.99 3.371l-.776 4.335-1.067 6.135c-.11.657-.555 2.031-.614 2.816l-.58 7.16c-.052.589-.863 2.27-.863 2.927l.018 25.608c.204.444 1.006 1.894 1.015 2.33l.154 8.345.145 20.608-.034 10.667c2.867 8.439.093 11.699.008 17.8l-.077 5.325 1.024 3.643.504 27.426c.862 2.287 1.152 4.335 1.109 6.699-.154 9.489.913 2.398 1.357 11.998.051 1.109.418 2.201 1.152 2.577l.23 2.747-.034 5.342c0 .854 1.016 2.381 1.912 3.456l2.892-3.507c.512-.623 1.297-1.886 1.843-2.748l6.127-9.753 3.627-5.427 3.345-5.504c.58-.956 1.835-2.492 2.236-3.337 2.585-5.444 4.113-7.518 6.605-12.85l2.534-5.428c.52-1.11 1.075-2.39 1.561-3.66l.82-2.16c.904-2.389 2.398-4.608 3.183-6.946l1.356-4.045 1.289-3.285 2.466-6.195 1.493-3.874 2.654-7.168 1.323-3.951 1.331-4.036c2.509-7.629 1.98-3.422 3.934-11.102l1.527-6.033 1.093-4.087 1.399-5.24 1.263-4.787 1.348-5.163.777-3.61.845-3.592 1.169-4.625.998-3.66 1.075-5.342.82-3.567 1.382-6.042.768-3.387 1.442-6.75.691-3.618.964-5.402 1.152-6.067 1.118-5.487 1.024-5.427.725-4.198.845-5.539 1.058-6.894.751-4.156.888-4.932.87-6.127.657-2.56c.495-1.92.367-5.146.734-7.313l1.263-7.492 1.075-7.382.649-4.07 1.058-7.782c.785-5.769.614-7.783 1.254-11.725l.691-4.241.623-5.01.58-2.278.914-7.901.862-7.356.657-4.89.571-4.992.896-7.44.888-7.1c.153-1.246.572-2.705.674-4.028l.46-5.896c.188-2.432.845-4.881.956-7.407l.24-5.223.819-2.44.571-12.109c-.102 2.236 1.34-15.522.88-11.358l.298-2.653c.034.11.46-.99.486-1.374l.401-5.308.495-6.63c-.196 2.645 2.202-17.016 1.349-12.638l.793-4.036.487-9.156c-.163 3.003 2.397-20.233 1.34-15.292l.767-3.567.546-14.865c.171-4.557.692-5.444.82-8.704l.657-16.315c.11-2.816.827-5.035.904-8.107l.41-17.98.452-5.896.29-4.753.137-17.143.315-28.476.086-7.304.06-2.56.213-6.793c.298-9.557.785-18.901.042-28.45l-.358-4.582-.435-17.698c-.017-.768-.205-1.929-.29-2.85l-.453-4.753-.913-9.174-1.024-7.893c-.307-2.364-.913-4.872-1.501-7.176l-1.033-4.062-1.28-4.804c.213-1.963.128-4.327-.307-6.469l-.828-4.061-1.007-4.72-.862-6.254a31 31 0 0 1-.887-2.893l-.734-2.995-1.041-4.233-.845-3.438-.836-3.405-1.485-5.3-1.314-4.616-1.314-4.66-.836-2.96-.828-2.944-1.05-3.448-1.365-3.933-1.365-3.926-1.152-3.362-1.4-4.079-1.254-3.968c-.41-1.305-.905-2.781-1.417-3.993l-2.517-5.965c-.486-1.143-.973-2.748-1.51-3.84l-2.663-5.35-1.024-3.507-2.602-5.428-1.58-3.14-1.305-2.602-2.44-4.856-1.579-3.772c-.367-.879-.828-2.159-1.212-2.85l-5.427-9.77-2.295-4.284-1.178-2.219c-.776-1.22-1.595-2.466-2.27-3.677l-1.68-3.038c-1.332-1.767-2.663-3.593-3.824-5.462l-1.792-2.892-2.022-3.166-5.163-7.637-3.319-4.276c-.324-.418-.512-1.894-.52-2.287l1.425-1.16 3.14-2.005 6.553-4.89 3.286-2.415 3.532-.043 2.748 3.013c1.255 4.121 3.593 5.964 6.886 11.042l1.775 2.739 7.22 12.194 3.242 5.41 12.006 21.12c1.28 2.244 2.526 4.548 3.576 6.835l1.485 3.217 1.672 3.908c.427.99.922 2.202 1.374 3.09l2.458 4.812 1.527 3.14 1.272 2.722 1.211 2.782 2.987 6.87 2.509 6.254 1.297 3.456 1.271 3.405c.598 1.596 1.69 3.635 2.065 5.24 1.81 7.74.99 2.449 3.32 9.01l1.263 3.56 1.203 3.48c.554 1.588 1.715 3.525 2.38 5.223l2.39 6.11 2.449 6.093.939 2.21c.93 1.177 2.048 3.208 2.56 4.83.273.844 2.38 1.527 3.063 1.05 2.654-1.87 1.929-7.775 4.813-12.067l2.201 3.055z"/><path fill="#f5efc0" d="m688.498 462.87.665 2.099.87 3.225c-2.355 6.605.777 1.716-.708 11.299l-.665 4.3c-.162 1.024-.051 2.953.11 4.19.863 6.716-.332 7.014-.682 14.123l-.46 9.617-.922 5.478-.35 11.255c-.17 5.53.554 6.136.478 7.399l-.299 4.719c-.085 1.34.18 3.2.401 4.556l.862 5.402.188 5.043.614 4.156c.111.742-.077 2.33-.068 3.242l.025 6.682c.026 8.43-1.092 1.34-.256 7.586.094.708-.196 2.142-.273 3.09-.631 7.773-.734 9.54 1.553 16.204 2.466 7.176-1.374 4.83 1.374 9.147 1.732 2.722.632 8.593 1.135 14.925.18 2.304.418 4.403.043 6.716l-.836 5.23c-.086.521.332 2.168.41 2.68l-.743 3.891c-1.16 6.067 1.246.99-.342 7.535-.776 3.217-.64 6.451-.998 9.737l-.58 5.341-.41 5.376-.845 3.303c-.563 2.201-.972 8.618-1.57 12.945-.187 1.365-.367 2.867-.358 4.266l.025 13.944c0 .964-.503 2.858-.622 3.89l-.538 4.643-.495 4.77c-.563 5.376.068 6.118-.64 12.561-.691 6.315-1.75 8.047-.742 12.476.358 1.595.05 3.08 0 4.778l-.649 18.227-.341 4.847-.461 4.6-.282 7.108-.341 6.818-.358 14.575-.538 3.976-.529 6.059c-.17 1.903.094 4.71-.265 6.366l-1.459 6.673c-.239 1.092-.264 2.918-.46 4.155l-1.178 7.313c-.222 1.4-.384 3.183-.478 4.617l-.495 7.168-.324 4.087-.495 6.656-.47 6.246c-.05.717-1.058 2.398-1.186 3.124l-.896 5.085-.844 4.728-.623 4.079c-.23 1.527-.393 3.251-.734 4.676l-2.526 10.581c-.247 1.033-.555 2.296-.887 3.26l-2.398 6.801-3.977 10.12c-.41 1.041-1.126 2.398-1.621 3.482l-1.707 3.738-2.68 6.016c-.98 2.201-1.45 2.585-3.029 4.053-2.705 5.922-2.073 2.935-5.683 8.251l-2.705 3.977-2.423 3.652c-1.476 2.227-4.728 6-6.656 7.774l-4.813 4.446-8.601 7.944-2.91 2.577c-.794.7-2.014 2.808-2.927 3.371l-3.465 2.116c-1.186.726-3.328 2.381-4.463 3.26-2.107 1.63-2.636-.427-4.778 3.396-.512.913-.956 3.38-.725 4.437.085.384 1.501.222 1.945.171l3.541-.478c.342-.042 1.024-.392 1.178-.205l.794.973c.221.273 1.51-.435 1.211-.64l-1.237-.87c-.606-.427.58-2.355 1.263-2.637l2.09-.887 1.963 2.79 4.523-.555c.691-.085 2.492.342 3.174.069l3.132-1.263c1.544-.623 3.072-.999 4.94-1.477l.564 1.118c-9.088 3.772-19.362 7.493-29.124 8.738-1.084-.247-2.526-.478-3.977-.478l-50.969.026c-4.932 0-9.412-.154-13.935-.418.82-.956 2.091-1.852 3.405-2.509l5.7-2.876 5.735-2.91a55 55 0 0 0 4.702-2.704l3.498-2.253c2.048-1.314 3.789-2.782 5.769-4.241l3.805-2.79 6.102-5.24c1.297-1.118 2.415-2.398 3.635-3.678l4.574-4.77c1.664-1.74 3.25-3.43 4.787-5.24l3.31-3.9c1.477-1.74 3.124-3.557 4.43-5.426l3.558-5.103 3.95-6.025 4.054-6.613 4.096-7.117 1.656-3.61 2.244-4.462 1.937-3.925 2.756-5.726 1.673-3.9c.674-1.579 1.356-3.183 1.903-4.77l2.15-6.263 2.1-6.34 3.404-12.058c.802-2.85 1.621-5.615 2.15-8.516l.794-4.36.776-4.686c.87-5.222 2.987-11.946 3.943-19.054l.7-5.257.725-5.333.572-4.028.631-4.019.495-3.132 1.032-7.415.93-7.373c.265-2.082.316-4.224.436-6.57.068-1.434.734-3.363.836-4.762l.64-9.114c.085-1.152.256-2.449.418-3.558 1.186-7.816.085-8.354 1.74-13.662l.496-13.747c.068-1.809.46-3.814.921-5.657l.24-11.844c.016-.888.563-2.432 1.015-3.405l.384-15.693.998-4.65.359-14.934c1.57-4.872.879-14.498 1.305-17.262l.649-4.19c.196-1.246.358-2.688.375-3.994l.282-15.949.085-3.84.563-4.778c.401-3.362.128-6.562.674-10.001l.837-5.24.614-11.699c.06-1.203.862-4.83.99-8.763l.196-6.102.999-8.482.341-13.79.862-6.203.546-15.087.128-3.473c.401-1.519.87-3.516.896-5.137l.094-6.076.12-7.611.92-6.409.402-32.307c.068-5.393.529-2.551.299-8.482l-.12-2.96-.025-3.73-.035-3.31-.017-4.967-.06-3.908c-.034-2.347-.162-4.822.01-7.143.23-3.003.554-5.7-.146-8.66l-.11-28.57c.05-4.856 1.33 8.413 1.202 4.821.145 4.232.145 8.84.026 13.116-.29 10.615 4.59 9.173 3.174 20.573l-.281 2.287c-.12.999-.18 2.594 0 3.618 1.57 8.994-2.065 8.457 1.007 10.872 1.877-2.398 3.746-4.241 6.314-5.965l.76-1.997c.725-1.903.17-3.925-.965-5.948.402-.05 1.57-.153 1.844.069l2.67 2.159c6.716-2.543 4.14.375 10.334-2.253.64-.273 2.168-.964 2.347-.418l.7 2.176z"/><path fill="#f3eab2" d="m718.833 503.462.163 4.685.153 176.775-.375 39.757-.222 2.167-.384 20.37-.248 6.63-.392 21.853-.103 9.344.282 2.662c.068.657-.614 1.92-.657 2.586-.82.299-1.331 1.46-1.417 2.509l-.35 4.258-.665 12.791c-.034.598-.546 1.912-.504 2.518.163 2.295.018 3.857-.622 6.937l-2.953-3.703c.265-.359-1.442.7-1.613 1.135l-1.843 4.71c-.64 1.63-.87 3.362-.555 5 .453 2.356 1.408 7.441-.477 9.054l-.564 2.33c-.341 1.416-.162 3.08.145 4.642l.828 4.232c.043.214.282.854.359 1.093.068.213.964-.18 1.126-.367l2.534-3.175c1.075 1.51.53 8.96.359 10.163l-.563 4.139-.726 5.325-.64 3.9-.665 3.959c-.06.333.896 1.74.819 1.39-.086.487-.418 1.383-.598 1.87l-.776-.367-.82 4.514-1.288 7.082c-.077.419-.614 1.118-.879 1.357s-1.433-.384-1.433-.742c-.051-4.02-3.26-4.873-3.448-4.506l-.717 1.391c-.503.973-1.62 2.458-2.252 3.499-1.178 1.937.904 4.95 2.449 6.289l-1.741 4.59-1.929-.409c-.384-.085-.46 1.613-.324 1.988 2.569 7.262-1.792 5.18-.392 9.6.81 2.56-.948 1.502-1.51 8.09-.342 3.976-1.195 5.905-3.047 9.088l-1.323 2.278c-.17.29-.478.879-.503.87-.017 0 .674.461.734.495l-.828 1.204c.17-.009-.93-.913-1.118-.666-.47.64-1.152 1.638-1.34 2.1l-1.69 4.198c-.98-.47-2.013-.905-2.03-1.204-.043-.657-.043-1.97 0-2.491l.179-1.724-3.388 2.756c-.375.307-.529 1.971-.128 2.262l3.038 2.227-1.22 1.595c-.666.87-1.297 1.8-1.818 2.825l-1.578 3.08c-1.135 2.21-3.815.41-6.306 1.886l-2.304 1.374-1.263.751c-.376.222 2.628 4.813 1.356 6.067-.904.888-1.92 1.852-2.56 2.398l-5.324 4.557c-.051-.094.281.52.375.708l-2.551 2.338-.555-.46-4.958 3.959c-.776.623-3.874 2.568-4.036 2.509-.265-.094-.589-.197-1.28-.436l.836 2.048c-.52.444-1.322.973-1.937 1.315-.187-.035-1.485.076-1.869.298l-5.64 3.303-2.586 1.45c-.392.222-1.143 1.383-1.211 1.63-.88.734-2.125 1.246-3.286 1.758l-1.109-.777-.87 1.63c-.12.23-.512.53-.751.632l-.563-1.118c-1.87.486-3.397.853-4.941 1.476l-3.132 1.263c-.683.273-2.483-.154-3.174-.068l-4.523.554-1.963-2.79-2.09.888c-.683.29-1.869 2.218-1.263 2.636l1.237.87c.299.205-.99.914-1.212.64l-.793-.972c-.154-.188-.836.162-1.178.205l-3.541.478c-.444.06-1.86.213-1.946-.171-.23-1.058.214-3.524.726-4.437 2.142-3.823 2.67-1.767 4.778-3.397 1.135-.879 3.277-2.534 4.463-3.26l3.465-2.116c.913-.554 2.133-2.662 2.927-3.37l2.91-2.577 8.601-7.945 4.813-4.446c1.928-1.775 5.18-5.555 6.656-7.773l2.423-3.653 2.705-3.976c3.61-5.316 2.978-2.33 5.683-8.252 1.579-1.468 2.048-1.843 3.03-4.053l2.68-6.016L658 920.09c.495-1.083 1.211-2.44 1.621-3.481l3.977-10.12 2.397-6.802c.342-.955.64-2.227.888-3.26l2.526-10.58c.341-1.426.495-3.15.734-4.677l.623-4.079.844-4.727.896-5.086c.128-.734 1.135-2.415 1.186-3.123l.47-6.246.495-6.656.324-4.088.495-7.168c.102-1.433.256-3.217.478-4.616l1.177-7.313c.197-1.238.222-3.064.461-4.156l1.46-6.673c.366-1.655.102-4.463.264-6.366l.529-6.058.537-3.977.359-14.575.341-6.818.282-7.108.46-4.6.342-4.846.648-18.227c.06-1.699.367-3.183 0-4.779-.998-4.429.052-6.161.743-12.476.708-6.442.077-7.185.64-12.56l.495-4.77.537-4.643c.12-1.04.623-2.927.623-3.891l-.025-13.943c0-1.4.17-2.902.358-4.267.597-4.326 1.007-10.735 1.57-12.945l.845-3.302.41-5.376.58-5.342c.358-3.285.222-6.528.998-9.736 1.587-6.546-.819-1.468.342-7.535l.742-3.892c-.077-.512-.495-2.158-.41-2.679l.837-5.23c.375-2.313.136-4.421-.043-6.717-.503-6.34.597-12.202-1.135-14.924-2.748-4.318 1.092-1.971-1.374-9.148-2.287-6.664-2.184-8.43-1.553-16.205.077-.947.367-2.38.273-3.089-.845-6.246.282.845.256-7.586l-.025-6.681c0-.913.179-2.5.068-3.243l-.615-4.156-.187-5.043-.862-5.401c-.213-1.366-.486-3.217-.401-4.557l.299-4.719c.076-1.263-.649-1.86-.478-7.398l.35-11.256.921-5.478.46-9.617c.342-7.117 1.545-7.407.684-14.122-.163-1.238-.265-3.166-.111-4.19l.665-4.301c1.485-9.574-1.647-4.693.708-11.298.709-.06 1.707-.853 1.92-1.656.948-3.584 4.344-2.21 6.597-1.664l2.841.683c.81.196 1.502 2.142 2.168 2.825 4.608 4.719 6.366 3.89 6.937 4.94l1.963 3.601c.435.803.23 2.629-.256 3.695-1.604 3.499 1.544 2.091 1.536 6.025l-.026 10.197c0 1.596.632 3.311 1.4 5.453l1.68-3.542 1.392 3.533c.12.307.648 1.246.648 1.186zm-53.145 449.814c.051-.213-.46-.614-.682-.674s-.803.46-.734.691l.315 1.024c.06.188.743.24.803.051s.238-.853.298-1.1z"/><path fill="#eddda7" d="M531.503 993.084c4.514.264 9.002.418 13.935.418l50.969-.026c1.459 0 2.892.23 3.976.478l1.493 2.919c1.818 3.55 1.972 8.285.555 12.074-3.644 9.762-12.97 14.567-23.202 14.754l-12.936.23-59.34-.102-62.925.17c-7.552.018-14.472-2.269-19.771-7.67s-8.073-15.42-2.347-21.547l-1.152-.947c.76.11 2.236-.154 3.43-.162l77.397-.086 23.22-.025c2.14 0 4.752-.589 6.706-.478z"/><path fill="#f5efc0" d="m717.024 792.27-.665.555v10.71l-.726.546c.094 1.587.265 3.038.23 4.087l-.204 5.914-.7.597.24 3.43c.059.87-.129 2.381-.146 3.311l-.776.53c.11 1.126.281 2.175.256 2.781l-.18 4.642-.75.546c.11 1.101.29 2.185.255 2.765-.256 4.574-1.066 13.577-1.604 18.227l-.734 6.332-.623 4.6-.725 4.513-.674 3.994-.47 2.756c.077.35-.87-1.058-.819-1.39l.666-3.96.64-3.9.725-5.325.564-4.138c.162-1.203.708-8.661-.359-10.163l-2.534 3.174c-.154.196-1.05.589-1.127.367-.076-.23-.315-.87-.358-1.092l-.828-4.233c-.307-1.57-.486-3.234-.145-4.642l.563-2.33c1.886-1.604.93-6.69.478-9.053-.315-1.639-.085-3.37.555-5l1.843-4.711c.17-.435 1.877-1.493 1.613-1.135l2.952 3.703c.64-3.089.785-4.642.623-6.937-.042-.597.47-1.92.504-2.517l.665-12.792.35-4.258c.086-1.05.598-2.21 1.417-2.509-.034.495-.034 1.451-.026 1.989zm-3.464 33.741.188-3.84c.017-.333-.88-1.015-.965-.76l-.41 1.28c-.161.513-.64 1.742-.307 2.023l1.494 1.289zm-5.095 48.981c-.017.785-.034 2.466-.196 3.268l-.7 3.371-.844 3.84c-3.303 15.053-8.994 32.247-17.468 44.629-.051-.034-.75-.495-.734-.495s.333-.58.504-.87l1.322-2.279c1.852-3.174 2.705-5.111 3.047-9.088.563-6.579 2.33-5.53 1.51-8.09-1.4-4.42 2.953-2.337.393-9.6-.128-.375-.06-2.064.324-1.987l1.928.41 1.741-4.592c-1.544-1.348-3.626-4.352-2.449-6.289.64-1.05 1.758-2.526 2.253-3.498l.717-1.391c.187-.367 3.396.486 3.447 4.505 0 .359 1.17.982 1.434.743s.802-.939.879-1.357l1.288-7.083.82-4.514.776.367zm-20.036 56.311c-2.858 5.973-11.332 17.416-16.204 22.434l-8.124 8.354-2.782 1.912a25 25 0 0 1-.375-.709l5.324-4.556c.64-.547 1.656-1.51 2.56-2.398 1.272-1.255-1.732-5.837-1.356-6.067l1.263-.751 2.304-1.374c2.483-1.477 5.17.324 6.306-1.886l1.578-3.08c.53-1.025 1.16-1.955 1.818-2.825l1.22-1.596-3.038-2.227c-.4-.29-.247-1.954.128-2.261l3.388-2.757-.18 1.724c-.05.53-.05 1.843 0 2.492.018.299 1.05.734 2.032 1.203l1.69-4.198c.187-.461.87-1.46 1.339-2.1.188-.256 1.289.658 1.118.666z"/><path fill="#eef3a7" d="M491.098 334.854c3.242-.657 6.203 1.613 8.499 4.13l4.787 5.24 6.972 7.594 3.26 3.49 7.645 7.535 3.704 3.533 5.794 5.341 5.939 5.47 4.284 3.652 7.833 6.716 2.09 1.818 2.945 2.466 4.343 3.567 3.994 3.242 4.155 3.371c1.852 1.502 3.627 3.37 5.445 5.01l3.114 2.824 4.412 3.746c7.048 5.982 14.899 15.394 19.14 23.628l3.14 6.102 1.203 2.432c.478.964 1.255 2.252 1.741 2.978l1.989-.384-.137 17.143-.29 4.753-.452 5.896-.41 17.98c-.068 3.072-.785 5.29-.905 8.107l-.657 16.315c-.128 3.26-.657 4.147-.819 8.704l-.546 14.865-.768 3.567c1.067-4.94-1.493 18.287-1.34 15.292l-.486 9.156-.794 4.036c.862-4.378-1.544 15.283-1.348 12.638l-.495 6.63-.4 5.308c-.026.384-.453 1.493-.487 1.374.23-2.04.12-6.17-.256-8.61-.53-3.448-4.284-6.23-6.57-8.423l-4.114-3.95-5.785-5.428c-1.545-1.45-3.2-3.217-4.83-4.471l-5.64-4.344-4.088-3.029-4.745-3.37-4.164-2.987-5.47-3.849-3.934-2.833-3.003-2.159-3.926-2.816-5.896-4.147-3.157-2.44-3.311-2.168-4.83-3.277-2.901-2.312-7.493-5.248c-1.459-1.015-4.044-1.963-5.99-1.698a66 66 0 0 0-3.857 3.046c-1.835 1.579-2.432 5.675-1.178 7.757 1.23 2.048 3.064 3.712 4.77 5.137l4.77 3.96c6.042 5.017 6.742 4.496 10.326 7.534l3.652 3.09c1.058.887 2.253 1.851 3.354 2.602l3.148 2.142 4.199 2.995 5.683 4.207 3.413 2.509 3.149 2.278 3.004 2.21 5 3.73 2.953 2.32 3.32 2.663 3.344 2.577 4.395 3.515 3.917 3.44 2.048 1.91 5.785 5.47 3.482 3.294c1.68 1.588 3.2 2.782 5.555 3.84 3.405 1.528 4.761-2.457 5.555-2.005.47-4.164-.981 13.602-.879 11.358l-.572 12.109-.819 2.44-.239 5.222c-.11 2.526-.76 4.975-.956 7.407l-.46 5.897c-.103 1.322-.52 2.782-.674 4.027l-.888 7.1-.896 7.441-.572 4.992-.657 4.89-.862 7.355-.913 7.902-.58 2.279-.623 5.009-.691 4.24c-.64 3.943-.47 5.957-1.254 11.725l-1.058 7.783-.649 4.07-1.075 7.381-1.263 7.492c-.367 2.168-.24 5.393-.734 7.313l-.657 2.56-.87 6.127-.888 4.933-.75 4.155-1.059 6.895-.845 5.538-.725 4.199-1.024 5.427-1.118 5.487-1.152 6.067-.964 5.401-.691 3.618-1.442 6.75-.768 3.388-1.383 6.041-.82 3.567-1.074 5.342-.999 3.661-1.169 4.625-.844 3.592-.777 3.61-1.348 5.163-1.263 4.787-1.4 5.24-1.092 4.087-1.527 6.033c-1.946 7.68-1.417 3.473-3.934 11.101l-1.331 4.037-1.323 3.95-2.654 7.169-1.493 3.874-2.466 6.195-1.289 3.285-1.357 4.045c-.785 2.338-2.278 4.557-3.183 6.946l-.819 2.159a53 53 0 0 1-1.561 3.66l-2.535 5.428c-2.491 5.333-4.019 7.415-6.604 12.85-.401.846-1.656 2.382-2.236 3.337l-3.345 5.504-3.627 5.427-6.127 9.754c-.546.87-1.322 2.125-1.843 2.748l-2.893 3.507c-.887-1.084-1.911-2.611-1.911-3.456l.034-5.342c.631.094 1.758.956 1.937 1.579l.427 1.485c.11.4 1.706.076 1.937-.265l3.097-4.608c.785-1.169 1.468-2.15 2.15-3.302l3.465-5.846c1.314-2.218-3.626-9.83-7.031-10.692l-1.348-4.446c-1.357-4.488 1.655-5.785 2.705-8.174.896-2.031 1.655-3.456 3.063-5.129 2.978-3.524-.572-2.458 3.61-7.68 1.007-1.254 1.553-3.328 2.133-5.163 1.579-5.043 2.893-3.558 4.25-8.755l1.655-6.34c.81-3.097.939-4.838.58-7.671-.23-1.835-.008-4.685-.426-6.161l-1.366-4.822-1.314-4.659c-.82-2.884-1.672-5.905-2.73-8.738l-3.038-8.132-1.622-3.985-.597-3.166-1.536-4.156c-.538-1.45-.828-3.456-1.084-5.111-.742-4.855-.597-6.118.026-10.7.188-1.349.35-3.354.648-4.336l1.246-4.053c.342-1.1.947-2.96 1.408-3.865l2.697-5.342c1.493-2.961 2.935-5.897 4.19-8.918l2.653-6.391 2.424-5.845c.563-1.357.82-3.268 1.177-5.01.18-.887 1.033-2.952 1.024-3.865l-.068-8.038c-.017-2.227.026-5.035-.341-6.946l-1.178-6.127c-3.831-4.958-1.135-2.833-3.328-6.4l-1.587-2.577c-2.159-3.507-4.429-6.596-7.45-9.591l-15.726-15.565-3.9-6.562c-2.432-4.088-3.37-6.503-4.002-11.256l-.606-4.59c-.085-.649-.896-2.048-1.075-2.091l-1.348 3.132c-1.272 2.944.657 4.036-1.818 4.992l.154-4.43 1.621-2.696c.52-1.903 1.22-4.164 1.186-5.768l-.12-5.427.948 1.135c.196.23 1.305 1.612 1.502 1.348.478-.657 1.374-2.466 1.775-3.149 1.024-1.75 4.778-7.543 5.674-8.61l5.735-6.775 4.82-5.803 4.413-5.572c3.49-4.412 6.587-7.987 7.97-13.944.742-3.2.495-9.804-1.613-13.021-2.287-3.49-3.687-4.907-6.81-7.527-5.47-4.59-11.485-9.89-13.687-16.614l-1.178-3.584c-1.4-4.258 1.11-13.44 3.465-17.527l3.38-5.871 3.506-6.759c.572-1.1 1.058-3.012 1.442-4.428.939-3.49 1.826-4.113-1.69-8.73l-3.174-4.164-2.705-1.963-7.611-5.53c-4.796-3.48-11.503-10.29-12.809-16.076l-1.04-4.633c-.598-2.646-.598-6.494-.018-9.131l.973-4.403c.29-1.323 1.212-3.166 1.775-4.566l2.082-5.222c.358-.887 1.544-2.457 1.988-3.422l3.226-6.946c1.8-3.865 1.843-6.417 1.288-10.65-3.276-4.701-10-9.932-12.467-13.303l-2.858-3.908c-2.885-3.942-5.265-7.569-6.69-12.228l-1.605-5.265c-.085-2.816-.307-6.246.307-9.097l1.016-4.718c0 .042 1.135 0 1.143-.265l.069-2.449c.008-.341.093-1.007.128-1.357.06-.017.657-.725.76-.973l1.185-2.91c.632-2.96 3.755-7.509 5.76-10.163l2.953-3.908c.7-.921 1.4-2.363 1.723-3.336.965-.598 3.32-.81 4.096-.051l3.44 3.362 11.758 11.4 8.26 7.68 9.532 8.866c.282.265 1.306.905 1.613 1.16l7.244 6 5.795 4.795 4.394 3.559 7.458 5.768 3.396 2.654 3.269 2.594 3.737 2.927 4.378 3.038 6.434 4.693 3.857 2.833 6.093 4.557 14.506 11.272c4.062 3.158 5.94 6.614 8.278 5.666 1.791-.725 3.711-5.418 3.635-5.043.495-2.406.222-9.873-1.664-11.963l-4.19-4.651a46.6 46.6 0 0 0-5.871-5.453l-3.354-2.611-6.246-4.881-4.548-3.413-10.445-7.612-5.777-4.71-11.332-8.508-4.95-3.712-5.597-4.352-7.527-6.366-2.858-2.491-9.284-7.97-6.58-5.965c-3.396-3.072-6.536-6.195-9.685-9.523l-2.278-2.407-5.103-5.435-5.854-6.81c-.426-.495-1.126-1.186-1.621-1.698l-1.485-1.528c.043-3.234-3.004-8.652-4.915-11.801l-4.198-6.912-1.255-2.893c-.973-2.253-2.116-4.659-2.748-7.04-2.884-10.82-.213-20.684 8.039-27.98l5.393-4.77c.819-.726 2.56-1.622 3.533-1.818z"/><path fill="#faf4a8" d="M472.615 108.85c.102 0 .358.052.597.103l6.733 2.688.307 2.44c.981 7.928-2.1 4.984-1.638 10.112l-.828 2.125.085 17.834c.009 2.16-.375 4.122-.99 6.119-.315 1.024-.452 3.353-.682 4.454-.47 2.253-3.183 4.634-2.27 6.801.094 2.637-2.936 6.827-3.755 10.402l-1.195 5.197c-1.083 4.71-.435 8.764 1.135 13.355l1.17 3.413c.452 1.314 1.203 3.106 1.809 4.215l2.508 4.608 2.176 4.002c1.442 2.654 3.37 7.228 2.415 10.052-1.024 3.03-2.833 6.383-4.505 8.85l-4.224 6.271-2.185 3.311-2.304 3.653c-.529.836-1.57 2.278-1.894 3.037l-4.386 10.445c-.436 1.024-.999 2.808-1.212 3.772l-1.092 4.983c-.717 3.277-.453 7.091-.427 10.351-.401-.051-1.544-1.374-1.51-2.1l.495-9.77c.093-1.86.392-4.83.017-6.528-.197-.87-3.2-1.04-3.84-.384l-4.873 5.044-4.156 2.022c-.887.427-1.885 2.628-2.687 3.183l-4.992 3.439c-1.272 2.005-2.671 3.447-4.37 4.975l-5.256 4.744c-1.46 1.314-3.26 2.569-4.506 3.994l-4.078 4.684c-1.664 1.912-3.363 3.542-5.265 5.393-3.303 3.218.221 1.366-5.47 5.735l-3.567 2.73c-2.38 1.827-.367 2.518-3.763 6.503-.768.904-3.251 2.449-3.507 3.618l-1.605 7.27c.837 1.878 1.058 3.396.828 5.026l-.47 3.277-.682 4.207c-.282 1.732-.939 5.29-.026 6.699l2.424 3.729c2.602 4.019-.359 6.357.862 6.784l2.056.725c3.004 1.058.615 2.987 3.158 3.456l2.013.375c.393.069.743-1.177 1.007-1.587h4.045c1.306 0 3.482-2.201 4.292-3.31 1.477-2.006 2.987-3.252 4.992-4.31l3.158-1.655c2.389-1.255 5.299-4.43 5.973-5.769 2.432-4.813 3.072-1.852 4.88-4.326.692-.948 1.946-2.705 2.885-3.08l3.507-1.4c1.263-.504 2.594-1.698 3.806-2.833 5.897-5.573 1.17.435 5.965-5.871 1.988-2.62 4.284-3.106 7.902-5.888l5.64-4.335 3.968-3.123v-4.924c.239.23.956 1.519 1.11 2.09l1.186 4.259c1.322 4.744-.709 10.7-3.038 14.959-.99 1.809-2.722 3.592-4.002 5.18l-2.646 3.293-2.082 2.594c-2.62 3.26-7.705 9.873-8.584 13.594l-1.152 4.847c-.555 2.33-.709 4.744-.709 7.023l-1.314-.128-.204-2.842c-.094-1.289.571-3.823 1.425-5.419.162-.307-1.152-1.39-1.468-1.263-3.413 1.357-8.158 6.085-10.726 9.25l-2.919 3.601-4.488 5.607c-3.849 4.804-1.238.06-5.965 6.425l-3.985 5.368-3.166 4.13-5.547 6.87-2.193 2.56-2.346 2.969c-1.348 1.706-2.671 3.447-3.806 5.316l-3.37 5.547c-1.673 2.756-3.405 5.418-4.83 8.328l-1.57 3.2c-1.972 4.002-4.156 7.91-4.446 12.578-.086 1.374-.384 3.251-1.101 3.874l-1.212 1.05c-.222.187-1.092-.734-1.178-1.033l-.99-3.703c-.443-1.664.103-4.318.163-6.178l.452-13.278c.051-1.408 1.4-5.88 1.869-8.567l.93-5.325c.18-1.016 1.075-2.978 1.561-4.182l2.51-6.263 3.293-4.284c-.154.205 2.961-5.478 3.55-8.004.273-1.169-1.894-2.944-3.02-3.097-3.653-.504-3.542 2.952-5.368 5.128-.393.47-2.68.18-2.697-.606l-.307-14.984c-.026-1.075-1.186-3.209-1.024-4.156l.649-3.772c.35-2.039.793-4.3-.734-5.41-.026-.606-.077-1.502-.069-2.065.82-.239 1.844-1.595 1.75-2.474l-.538-5.3c-.085-.844.137-2.5.128-3.387 1.075.896 2.005-4.335 2.09-5.248l.64-6.81c.47-5.034 1.315-4.403 1.383-10.564l3.106-4.24-.46-5.778c-.06-.802-.29-1.928-.265-2.492l.145-3.26c.026.077 1.17-.622 1.186-.955l.085-2.415.035-.666c.29-.162 1.05-.99 1.211-1.408l1.144-2.944c.273-.708.281-2.295.273-3.063v-.52s1.169-.64 1.382-.94l3.158-4.513c4.36-6.238 2.423-1.28 5.307-8.278.452-1.109 2.5-2.807 3.106-3.814l3.482-5.692-1.784-6.92 2.45.555c.41 1.007 1.109 2.798 1.868 3.319 1.45.99 4.037-.572 4.65-2.73.667-2.347 3.44-5.436 5.087-7.066.4-.393.213-2.014.085-2.569l-.307-1.314c-.085-.35 2.67-1.68 2.952-1.143l.88 1.63c.272.239.99.913.912.836l3.772-1.425c.794-.299 1.963-1.673 2.893-2.577l-1.86-4.702c7.33-4.37 8.746 1.519 9.821-2.995 1.263-5.274 2.398-4.557-.042-7.987-1.673-2.347-3.883-3.32-6.69-1.954-.308.145-1.306.708-1.528.452l-1.092-1.272c-.213-.247-.632-1.186-.341-1.314l1.058-.47 2.807-1.322 3.072-1.527c2.279 1.254 4.531.674 6.127-1.127l.82-.921c.161-.188.835.537.887.776l.554 2.927c4.531 1.835 1.784 5.342 4.591 5.7 1.903.248 3.533-1.211 4.736-2.773l3.012-3.917c.64-.827 1.75-1.604 2.8-2.517 2.346-2.048.35-2.927.648-6.383.299-3.379.836-6.972-3.422-8.26l-4.454-1.348c-1.417-5.214 4.275-4.736 1.34-6.4l-2.919-1.656-3.362 4.898c-1.971 2.876-.52 5.53.597 6.23 1.971 1.237 3.857-1.391 5.794-.154.751.478.657 3.217-.102 3.695-.623.401-1.894.631-2.97.725l-2.96.256c-1.11 1.366-3.107 2.279-4.848 2.142-.7.137-2.244.597-2.91.632l-5.785.273-1.126 2.278c-3.08.828-6.452.307-9.216-1.186 3.729-5.87-1.937-.102 3.379-9.088.956-1.613 1.894-3.627 2.987-5.086l3.421-4.557 4.574-6.084a48 48 0 0 1 2.031-2.517l4.002-4.642c.606-.7 1.255-1.468 1.903-2.116l3.268-3.252c.64-.631 1.408-2.62 2.065-3.447 1.195-.589 2.91.87 3.618 2.176.214-.145.803-.546.786-.538-.547-1.86-.632-3.72.136-4.701l2.68-3.405 3.208-4.182c1.033-1.348 1.007-5.427.145-6.946-1.937-3.404-4.514-5.316-8.192-6.186l-6.596 1.988c-4.975 4.915-2.577 1.527-7.108 6.545l-2.552 2.833-1.68 1.826c-.41.444-.974 1.485-1.212 2.04-.111.264-.487.81-.717 1.05l-10.837 11.11c-1.357 1.39-2.893 2.892-4.011 4.488l-1.673 2.38-3.558 4.626-2.722 3.626-2.424 3.456-2.551 3.627-1.186 2.21c-.58 1.084-2.475 2.85-3.064 3.84-.657 1.75-1.45 3.473-2.355 4.967l-1.8 2.978-2.21 3.652-1.596 2.645-2.492 3.908c-.196.3-.563 1.024-.76 1.417l-3.788 7.45-2.654 5.375-2.176 4.446c-3.072 6.264-.734 3.396-3.865 9.097-.222.674-.615 2.159-.888 2.782l-1.212 2.722-1.211 2.756-2.134 4.804-.862 2.927-1.169 2.748a36 36 0 0 0-1.416 3.968l-1.212 4.19-1.809 2.26c-.973-1.313-1.835-2.431-2.184-3.361l-1.502-4.002c-1.869-4.975.23-1.238-1.784-7.083l-1.314-3.814-1.468-4.864-.631-4.83c-.18-1.357-.887-2.876-.956-4.053-.12-2.134-.102-4.148-.486-5.803-.248-1.084-.845-2.483-.836-3.627l.281-29.61c1.553-2.466.828-4.898 1.357-9.301.094-.785.947-2.577.981-3.337.077-1.852.162-4.412.359-5.785.094-.632 1.05-2.373 1.05-3.072l-.043-14.191c0-.606-1.741-1.229-1.86-.999.05-.068 2.03-3.959 3.865-6.45 9.591-13.005 22.775-23.74 36.036-32.888 3.37-2.32 13.09-7.5 17.169-9.318 15.078-6.733 29.457-11.025 46.259-10.65l7.313.162zm-7.416 57.173c.069-.648-1.69-.085-1.911.427s.324 1.229 1.604 2.457c0 .043.205-1.902.307-2.884m.307 18.236 1.443-3.977c.503-1.4.23-4.318.119-6.118l-.136-2.193-.077-1.604c-.017-.342-1.485.247-1.553.588-1.178 5.7-.18 7.1-1.972 8.27-.588.383-1.57 1.117-1.493 1.638.051.384.47 1.553.802 1.749zm-6.92-8.994-1.271-1.272c-.06.896.375 1.323 1.271 1.272m3.729.179c-.41-1.203-1.084-1.69-1.707-1.17zm-68.906 172.474-1.374 1.656 1.869 1.553 1.374-1.656zm8.303 17.673-.205-5.18c-1.271-.359-3.652-.043-4.403.742l1.877 6.443c1.135.18 2.773-1.024 2.74-2.005z"/><path fill="#fbf6b1" d="m445.786 352.73-1.869.769c-.469.196-1.356-.708-2.346-1.45l-3.448 2.875c-2.568 2.142-1.587 3.362-3.6 5.59l-4.814 5.324c-3.396 3.763-4.053 3.635-7.816 8.021l-3.14 3.653c-1.11 1.288-2.654 2.739-3.55 4.095-3.985 6.016-4.634 4.899-6.366 7.706l-1.536 2.492a76 76 0 0 0-3.533 4.292l-2.636 3.49c-.751.998-1.622 2.321-2.287 3.388l-2.62 4.19-2.637 5.393-.998 2.423c-.615 1.502-2.355 3.618-2.697 5l-1.997 7.98c-.34 1.364-.716 3.711-.785 5.102l-.315 6.665-.154 3.55-.299 7.884c-.034.964.657 3.192 1.605 3.678 1.348.683 3.31-4.096 6.229-7.936l1.698-2.236 3.507-4.616c.632-.836 5.487-6.195 6.63-6.076-.452.751-1.228 2.21-1.817 2.867l-3.593 3.968c-4.044 4.463-.11 1.587-4.48 5.93l-2.5 4.37c-.563.981-1.408 2.21-1.851 3.225l-3.107 6.955c-.93 2.082-2.295 11.46-1.126 14.908.154 1.903.623 4.121 2.406 5.051.94.487 2.723-1.126 3.277-1.962l4.89-7.347c4.079-6.127 2.33-5.726 8.917-12.826 4.292-4.625.998-2.201 5.632-6.929l4.625-4.719 5.538-5.802c1.357-1.425 6.886-5.206 7.014-5.334l3.977-3.916c1.041-1.024 2.074-2.117 3.183-2.816l3.396-2.142c3.268-2.057 6.639-3.09 10.445-1.835l4.608 4.096c3.14 2.79 4.53 6.289 3.789 10.581l-1.58 9.182-1.202 6.835-1.23 1.314.018 3.414c-1.425 2.875-3.891 8.78-3.917 12.381l-.077 10.402c0 .401.828 1.716.973 2.1l3.354 8.37c.81 2.032 1.869 3.883 3.285 5.42l3.243 3.524c.827.896 2.065 3.396 2.261 4.633 1.869 11.776 1.664 6.682-.52 19.328l-.538.717c-.103-1.587-.256-4.77.196-6.562.401-1.587 1.792-4.489.768-5.675l-3.942-4.557c-.726-.844-3.251-.153-4.036.436l-5.718 4.275c-2.543 1.903-4.88 4.01-7.082 6.237l-3.004 3.038-4.284 4.446-6.366 6.759-6.365 6.843-3.15 3.473-5.042 5.572-3.209 3.542-2.585 2.654c-.837.853-1.963 2.167-2.637 3.089l-1.775 2.432-3.601 4.932-2.475 3.533-3.123 4.684c-.316.478-.913 1.681-1.246 2.304l-2.799 5.163c-2.005 3.703-1.459 6.58-4.548 11.614-2.517-2.757-2.261-7.8-3.601-8.696l-.145-5.743c-.017-.571-1.16-2.33-1.16-2.926l-.06-19.584-1.23-2.16-.119-25.855c-.392-1.775-1.134-4.147-1.143-5.93l-.18-46.396-.016-33.817.034-33.152.196-29.346c0-.81.555-2.227 1.024-3.174l.213-15.906c.018-1.229.487-2.756 1.093-4.01l.239-11.273c.025-1.127.605-2.492 1.297-3.175 1.519 1.11 1.083 3.371.734 5.41l-.649 3.772c-.162.939.998 3.08 1.024 4.156l.307 14.984c.017.785 2.304 1.075 2.697.606 1.826-2.176 1.715-5.632 5.367-5.128 1.118.153 3.294 1.92 3.02 3.097-.588 2.526-3.703 8.21-3.549 8.004l-3.294 4.284-2.509 6.263c-.477 1.195-1.382 3.166-1.561 4.182l-.93 5.325c-.47 2.696-1.826 7.159-1.869 8.567l-.452 13.278c-.06 1.86-.615 4.514-.162 6.178l.99 3.703c.076.299.955 1.229 1.177 1.033l1.212-1.05c.717-.623 1.024-2.5 1.1-3.874.282-4.668 2.475-8.576 4.446-12.578l1.57-3.2c1.434-2.91 3.158-5.564 4.83-8.328l3.37-5.547c1.136-1.869 2.459-3.61 3.807-5.316l2.346-2.97 2.193-2.56 5.547-6.87 3.166-4.13 3.985-5.367c4.727-6.365 2.116-1.63 5.965-6.425l4.488-5.607 2.919-3.6c2.568-3.166 7.313-7.894 10.726-9.25.316-.129 1.63.964 1.468 1.262-.854 1.596-1.52 4.13-1.425 5.419z"/><path fill="#faf8ad" d="m305.619 384.773-.069-44.415.333-18.816.563-14.097.521-10.854-.18-.649c.189.111.777-1.374.82-1.894l.563-8.2c.043-.666 2.663-14.08 3.149-15.984l3.234-12.603 1.63-5.743c2.201-7.79 6.741-19.31 10.12-26.752 4.113-9.062 8.312-16.554 13.782-24.746l4.01-6.008c1.707-2.551 3.277-5.128 5.026-7.313.06.717.043 2.262-.17 2.953-2.125 6.75-.052 3.507-2.125 7.629l-.555 6.348c-.06.137-.819 1.477-.828 1.835l-.298 11.605-1.101 2.645-.017 19.891c.222.547.947 2.15.99 2.74l.537 7.697.803 2.278c.486 1.4.332 4.582.716 5.973l.674 2.45c.419 1.527.658 2.986 1.101 4.232l1.383 3.934 1.373 3.942 1.204 3.482c.443 1.28.879 2.696 1.382 3.857l2.816 6.553 1.357 3.286 1.39 3.43c.163 4.215.274 8.644-.187 13.158.034-.298-2.372 7.962-2.065 6.042-.162.998-.333 3.353-.597 4.326l-1.144 4.181c-.213.768-.614 2.04-.708 2.629l-1.024 6.485-.7 4.104-1.015 5.923-.913 5.162-.743 4.19a33 33 0 0 1-1.186 4.744l-.426 7.057-.837 2.27-.375 6.35-1.007 2.354-.333 7.023-.853 3.465-.453 7.116c-.042.683-.708 2.287-.81 3.013-.768 5.81.102 8.763-1.485 12.296l-.58 13.227-.99 4.565-.026 16.537c0 1.11-2.295 3.038-3.191 2.688-4.122-1.612-4.668-4.48-6.835-9.122l-2.961-6.331-1.468-3.124-2.526-5.367c-2.952-6.28-2.398-2.705-3.225-7.748l-5.42-11.06c-.392-.81-.776-1.825-1.143-2.815l-2.602-4.062c-2.859-4.455.537-3.388-3.345-5.257l-.785-3.404-2.202.725z"/><path fill="#f2f6a8" d="M652.581 151.969a71.5 71.5 0 0 1 9.344 8.857l5.274 6.008 5.64 6.946 3.755 4.975c3.686 4.89 6.69 10 9.864 15.24 4.489 7.39 8.448 13.995 11.793 21.94 2.867 6.8 5.393 13.465 7.484 20.266.205 3.754-1.417 3.345-2.082 5.785-1.28 4.668-2.526 9.378-3.473 14.148l-4.165 20.975-3.558 16.87-2.125 8.133c-1.075 4.13-2.79 8.96-4.54 12.765l-4.258 9.259-3.234 6.716-2.278 4.42a94 94 0 0 1-3.072 5.47l-2.756 4.53-4.924 8.415-1.903 3.276-3.473 5.735-1.937 3.533c-.35.631-.99 1.536-1.34 1.98l.171-1.409c.29-2.432-.845-4.915-2.44-6.724l-.768-2.978a49 49 0 0 1-.914-4.147l-.836-4.958-.802-5.623c-2.244-5.07.128-3.448-1.809-10.138l-1.51-5.205a34 34 0 0 0-1.204-3.414l-.426-3.208.938 1.024c.384.418 2.287 1.46 2.535.964 2.423-4.83.17-2.338 2.782-7.202l-.367-6.596-.615-14.003c-.17-3.806-.512-7.475-.913-11.247l-.623-5.905-.503-3.994-.717-5.333-.82-5.956-.716-7.987-.657-11.896c-.666-12.057-.708-23.773-.026-35.78l.564-9.94.657-8.602.725-7.731.794-7.117 1.826-14.857.69-5.512.948-.76z"/><path fill="#f7f8ab" d="M530.905 136.14c.017.392.197 1.868.52 2.287l3.32 4.275 5.163 7.637 2.022 3.166 1.792 2.893c1.16 1.868 2.5 3.686 3.823 5.461l1.681 3.038c.674 1.212 1.494 2.449 2.27 3.678l1.178 2.218 2.295 4.284 5.427 9.77c.384.692.845 1.963 1.212 2.85l1.579 3.772 2.44 4.856 1.306 2.602 1.578 3.14 2.603 5.428 1.024 3.507 2.662 5.35c.538 1.084 1.024 2.697 1.51 3.84l2.518 5.965c.512 1.203 1.007 2.688 1.417 3.994l1.254 3.968 1.4 4.079 1.152 3.362 1.365 3.925 1.365 3.934 1.05 3.447.827 2.944.837 2.961 1.314 4.66 1.314 4.616 1.485 5.299.836 3.405.845 3.439 1.04 4.232.735 2.995c.239.973.554 1.937.887 2.893l.862 6.255 1.007 4.719.828 4.062c.435 2.142.529 4.505.307 6.468-4.557-8.5-5.436-9.08-11.085-16.623l-2.014-2.688c-.742-.99-1.775-2.406-2.568-3.225l-6.904-7.117-4.932-4.984-5.649-5.623-3.03-2.97-6.45-6.186-5.769-4.753-8.652-7.92-11.87-10.777-4.676-4.488-4.327-4.292-3.32-3.337c-2.337-2.355-4.599-4.702-6.647-7.262l-.938-1.177c-.162-.196-.717-.64-.88-.888l-2.56-3.976c-.597-.922-1.262-2.023-1.749-2.961l-1.937-3.695-2.167-4.292c-5.53-10.974-8.576-20.352-4.446-32.546a44.3 44.3 0 0 1 7.765-13.935l2.688-3.268c2.765-3.354 6.648-7.254 9.83-9.31l5.266-3.405 2.747-1.937c-1.083.76 5.393-3.217 4.207-2.014z"/><path fill="#f4f8b0" d="M636.854 138.239a58 58 0 0 1-.7 7.902l-3.609 22.98c-1.621 10.334-2.236 20.522-2.773 30.941l-.504 9.745a233 233 0 0 0-.042 23.893l.563 11.46c.273 5.624.614 11.307 2.184 16.717l1.16 3.994c.376 1.288.65 2.5.88 3.55l-2.202-3.055c-2.884 4.292-2.159 10.197-4.813 12.066-.682.478-2.79-.196-3.063-1.05-.52-1.621-1.63-3.66-2.56-4.83l-.939-2.21-2.449-6.092-2.389-6.11c-.666-1.707-1.826-3.635-2.38-5.223l-1.204-3.481-1.263-3.559c-2.33-6.57-1.51-1.28-3.32-9.01-.375-1.605-1.476-3.644-2.064-5.24"/></svg>