<svg xmlns="http://www.w3.org/2000/svg" viewBox="0 0 1024 1024"><path fill="#d9e0da" d="M709.384 990.626c-85.342 44.526-242.509 37.7-336.333 18.636-22.024-4.471-42.308-11.759-61.15-22.135-16.136-8.883-25.582-25.233-26.948-43.614l-9.915-133.401L263.5 653.636l-7.373-99.977-3.192-43.22-5.947-81.255-3.601-55.97-22.332-306.142c5.546-19.55 47.19-35.063 64.316-39.97C378.222.529 494.95-3.174 591.112 1.997c57.43 3.089 151.79 15.488 200.166 46.302 7.97 5.077 12.194 16.717 11.606 25.43l-7.407 110.25-4.796 68.727-11.529 141.005-13.559 183.296-13.099 186.402-5.29 76.236-8.662 110.797c-1.305 16.649-14.472 32.52-29.167 40.184zM607.402 123.699l69.248-7.919c17.775-2.03 107.776-21.657 104.175-45.192-3.226-21.095-74.803-36.642-95.266-39.834-105.975-16.546-219.068-16.93-324.275-1.698-28.33 4.105-98.79 15.753-114.978 38.758-9.933 14.123 28.74 29.637 37.914 32.035 43.63 11.409 82.67 17.954 126.83 22.186 49.323 4.72 118.656 7.723 167.382 3.926l28.979-2.262zm-348.245 96.52c.23 2.765.734 7.706.7 10.283l-.47 33.639c-.068 4.642 1.212 12.109 1.562 16.734l2.8 36.386c.656 8.49 1.962 17.851 2.15 26.342l.571 26.189c.18 8.004.76 16.213 1.647 24.661l2.68 25.6 1.954 20.335 2.022 26.47 1.8 50.629c.163 4.437 3.14 14.25 3.593 19.362l3.542 40.158 2.466 33.288 1.587 24.61 2.551 38.793 2.091 29.9 2.406 33.801 1.937 22.835 2.441 29.799 2.347 30.378 2.278 52.6 2.859 24.482c1.732 14.848 22.127 34.346 39.074 41.207l31.223 12.655c8.73 3.533 26.983 2.91 24.977 11.75-32.145-4.334-62.071-15.974-89.386-35.84.708 22.674 3.285 38.81 28.416 47.83 83.106 29.85 204.996 31.138 291.797 15.77 10.726-1.903 60.262-11.82 56.38-27.051-1.17-4.574-3.107-9.686-5.027-11.452-6.075-5.606-12.143 1.374-27.75 5.325L613.248 968.6c-2.142.546-7.57 1.186-10.889 1.562l-17.476 1.962-41.993 2.492-21.265 2.449c-3.72.427-12.22-1.34-16.051-3.004l19.285-3.114c4.916.392 10.018.606 14.097.256l29.44-2.51 20.43-1.74 27.229-2.321 14.379-6.426 16.802-3.302c8.763-7.253 37.094-7.313 48.708-21.3l13.44-16.187c1.655-1.997 2.884-8.747 2.978-10.812.06-1.024.188-2.525.137-3.328l3.114-2.38-.153-14.533.153-5.99c0 1.058 2.808-5.316 3.021-7.22l2.33-20.565c1.348-11.887-.845-31.197 1.382-41.608l2.552-11.93 1.024-37.777 2.713-11.725.359-32.759c1.245-4.087 2.33-10.735 2.73-16.29l2.415-33.587 2.432-36.455 2.014-26.837 2.167-26.547 2.774-32.981 1.724-20.395 2.27-26.726 2.192-39.254 2.228-23.919 2.21-23.85 2.15-35.695 2.756-26.752c.316-3.055 2.304-10.582 2.381-13.636l1.596-59.768c.128-4.813 2.543-14.95 2.45-19.558l-.496-23.731c-.051-2.62.29-7.851.606-10.47.82-6.785 1.792-14.584 2.295-22.904l5.496-90.667c-26.803 9.848-48.691 18.842-74.658 23.612-118.972 21.88-331.119 22.98-447.036-22.733l3.55 66.219 3.892 46.361z"/><path fill="#fcefa9" d="m735.547 243.9-6.963 7.79c-3.533 3.952-6.118 11.725-6.682 18.066l-2.176 24.542-3.336 29.49-2.048 26.659-3.32 36.778-2.389 26.573-2.68 29.952c-.827 9.19-.503 20.813-1.868 29.176l-6.102 37.35-4.514 36.855c-.99 8.099-6.289 20.088-6.434 27.99l-.35 19.26.88 11.955c-9.345 30.549 1.296 33.177-10.88 51.157 2.158 13.022 2.55 28.535.818 42.82l.922 13.918c.452 6.81-1.05 18.347-2.816 24.533-8.934 31.266-1.519-.46-4.881 41.882-1.519 19.14-.11 39.757-3.763 58.308-1.639 8.32-3.695 15.949-4.804 24.721l-4.43 34.782c-.511 4.045-3.95 14.396-5.973 18.347l-18.116 35.43 13.338-3.67c3.9-1.074 10.308-2.303 13.994-3.634l26.445-9.54c3.354-1.212 8.49-9.686 11.06-12.22 2.013-1.989 7.398-5.692 8.678-7.834l5.205-8.721c-.094 2.065-1.323 8.806-2.978 10.812l-13.44 16.187c-11.614 13.986-39.945 14.038-48.708 21.3l-16.802 3.302-14.379 6.426-27.23 2.32-20.429 1.741-29.44 2.51c-4.079.35-9.181.136-14.097-.257l-19.285 3.115c-14.106.077-29.346-.12-44.51-1.988l-59.119-8.96c2.006-8.84-16.247-8.218-24.977-11.75l-31.223-12.656c-16.947-6.87-37.342-26.36-39.074-41.207l-2.859-24.482-2.278-52.6-2.347-30.378-2.44-29.799-1.938-22.835-2.406-33.8-2.09-29.901-2.552-38.793-1.587-24.61-2.466-33.288-3.542-40.158c-.452-5.112-3.43-14.925-3.592-19.362l-1.8-50.628-2.023-26.47-1.954-20.336-2.68-25.6c-.887-8.448-1.468-16.657-1.647-24.661l-.572-26.189c-.187-8.49-1.501-17.852-2.15-26.342l-2.799-36.386c-.358-4.634-1.63-12.1-1.561-16.734l.469-33.639c17.613 3.49 10.812 10.744 44.57 18.398l34.756 7.877 37.111 5.094 37.197 3.712 35.6 2.355 29.85 2.048 96.538-.136 53.18-3.55 23.68-2.961 13.918-1.87c29.755-3.984 43.912-6.425 69.299-17.586zM356.42 790.272l-1.971-43.06c-.691-6.553-1.357-13.508-1.587-20.198l-1.494-42.871-3.2-27.222-2.67-32.955-2.228-27.392-1.664-19.38-2.876-33.459-1.766-20.36-2.415-42.42-2.961-24.37-1.4-12.707c-2.158-19.618-4.343-37.103-6.331-57.08l-2.296-23.116c-.4-4.062-7.415-12.356-10.078-15.863-1.194-1.57-6.886 2.048-8.2 3.857l-11.17 15.334 2.244 91.272 2.773 68.293c1.545 11.025 3.013 22.255 3.772 33.228l3.03 43.896 1.868 26.607 2.185 23.714 3.644 32.939c.827 7.517 2.013 15.974 2.423 23.031l2.321 39.927.99 13.5L320 790.203l3.387 29.662 1.485 27.324c.53 9.677 3.866 17.126 12.476 20.318l12.851-13.927c2.338-2.534 6.033-8.951 6.136-12.697.921-32.59 5.999-22.409.085-50.611"/><path fill="#fefefd" d="m607.402 123.7-28.979 2.26c-48.725 3.806-118.059.794-167.381-3.925-44.16-4.224-83.2-10.777-126.831-22.186-9.173-2.398-47.846-17.92-37.914-32.035 16.188-23.005 86.648-34.653 114.978-38.758 105.208-15.232 218.3-14.848 324.275 1.698 20.455 3.192 92.04 18.74 95.266 39.834 3.602 23.535-86.4 43.153-104.174 45.192l-69.248 7.92z"/><path fill="#fefbc6" d="M765.619 220.34c-.316 2.619-.657 7.85-.606 10.47l-8.56 3.89-20.906 9.191c-25.386 11.162-39.543 13.594-69.299 17.587l-13.918 1.87-23.68 2.96-53.18 3.55-96.537.137-29.85-2.048-35.6-2.356-37.197-3.712-37.112-5.094-34.756-7.876c-33.758-7.655-26.948-14.908-44.57-18.398.034-2.577-.469-7.518-.7-10.283l14.652-8.098c1.937-1.067 7.672-3.285 10.172-4.181l27.281-9.788c3.652-1.314 9.822-2.918 13.978-3.558l21.077-3.26 19.857-3.08c7.416-1.153 15.718-2.68 22.827-3.329l26.231-2.406 20.446-1.715 29.781-2.432 102.793-.265 27.23 2.919 20.445 1.706 29.27 2.458c6.92.58 16.682 1.536 23.287 2.842l43.862 8.678c5.998 1.186 12.236 2.961 18.15 4.71 8.124 3.277 18.91 7.04 24.926 11.452l10.189 7.458z"/><path fill="#fde78e" d="m765.013 230.81.495 23.73c.094 4.609-2.313 14.746-2.45 19.56l-1.595 59.767c-.085 3.046-2.074 10.58-2.38 13.636l-2.757 26.752-2.15 35.695-2.21 23.85-2.228 23.92-2.193 39.253-2.27 26.726-1.724 20.395-2.773 32.98-2.167 26.548-2.014 26.837-2.432 36.455-2.415 33.587c-.401 5.555-1.485 12.203-2.73 16.29-.82 1.237-3.2 4.83-3.389 6.554l-2.295 20.437-2.517 45.756-2.057 23.944-2.244 24.423c-1.05 11.374-.597 32.017-.87 42.461l-.154 5.99-3.789 2.987.828 13.918c.051.811-.086 2.304-.137 3.328l-5.205 8.721c-1.28 2.142-6.665 5.846-8.678 7.834-2.569 2.534-7.706 11.008-11.06 12.22l-26.444 9.54c-3.687 1.331-10.095 2.56-13.995 3.635l-13.338 3.67 18.117-35.43c2.022-3.952 5.46-14.303 5.973-18.348l4.429-34.781c1.118-8.773 3.174-16.401 4.804-24.721 3.644-18.552 2.236-39.168 3.763-58.309 3.362-42.35-4.053-10.615 4.881-41.881 1.767-6.187 3.268-17.732 2.816-24.534l-.921-13.917c1.732-14.285 1.348-29.799-.82-42.82 12.177-17.98 1.536-20.609 10.88-51.158l-.879-11.955.35-19.26c.145-7.902 5.436-19.891 6.434-27.99l4.515-36.855 6.1-37.35c1.366-8.363 1.042-19.985 1.87-29.175l2.68-29.952 2.389-26.573 3.319-36.779 2.048-26.658 3.337-29.491 2.176-24.542c.563-6.34 3.148-14.106 6.681-18.065l6.963-7.79 20.907-9.191 8.559-3.892z"/><path fill="#fcfefd" d="m765.619 220.34-10.19-7.459c-6.024-4.412-16.801-8.175-24.925-11.452-5.905-1.749-12.143-3.524-18.15-4.71l-43.862-8.678c-6.605-1.306-16.367-2.262-23.287-2.842l-29.27-2.458-20.445-1.706-27.23-2.919-102.793.265-29.78 2.432-20.447 1.715-26.231 2.406c-7.108.649-15.42 2.176-22.827 3.328l-19.857 3.08-21.077 3.26c-4.165.64-10.326 2.253-13.978 3.56l-27.28 9.787c-2.493.896-8.236 3.114-10.173 4.181l-14.651 8.098-3.892-46.361-3.55-66.219c115.917 45.722 328.064 44.612 447.036 22.733 25.958-4.77 47.846-13.764 74.658-23.612l-5.495 90.667c-.504 8.32-1.477 16.12-2.296 22.903z"/><path fill="#f5f9f8" d="m401.954 963.097 59.119 8.96c15.155 1.869 30.395 2.065 44.51 1.988 3.831 1.664 12.33 3.43 16.05 3.004l21.266-2.45 41.992-2.49 17.477-1.963c3.319-.376 8.738-1.016 10.888-1.562l43.127-10.914c15.616-3.951 21.675-10.923 27.75-5.325 1.912 1.766 3.858 6.87 5.027 11.452 3.883 15.232-45.653 25.156-56.38 27.05-86.8 15.369-208.69 14.08-291.797-15.77-25.13-9.027-27.708-25.155-28.416-47.829 27.315 19.866 57.25 31.497 89.387 35.84z"/><path fill="#fcefa9" d="M715.63 880.375c.273-10.445-.179-31.087.87-42.462l2.245-24.422 2.057-23.945 2.517-45.756 2.295-20.437c.197-1.724 2.577-5.316 3.388-6.553l-.358 32.759-2.714 11.725-1.024 37.777-2.551 11.93c-2.228 10.402-.034 29.712-1.383 41.608l-2.33 20.565c-.213 1.895-3.02 8.278-3.02 7.22zm-3.123 22.895-.819-13.927 3.789-2.986.145 14.532z"/><path fill="#fcf8d1" d="M356.42 790.272c5.914 28.202.836 18.03-.085 50.61-.103 3.747-3.806 10.172-6.136 12.698l-12.851 13.927c-8.619-3.192-11.955-10.641-12.476-20.318l-1.485-27.324L320 790.203l-2.637-26.786-.99-13.5-2.321-39.927c-.41-7.057-1.587-15.514-2.423-23.031l-3.644-32.94-2.185-23.713-1.869-26.607-3.029-43.896c-.76-10.973-2.218-22.203-3.772-33.228l-2.773-68.293-2.244-91.272 11.17-15.334c1.314-1.8 7.006-5.428 8.2-3.857 2.663 3.498 9.677 11.801 10.078 15.863l2.296 23.117c1.98 19.968 4.173 37.461 6.332 57.08l1.399 12.705 2.961 24.371 2.415 42.42 1.766 20.36 2.876 33.46 1.664 19.379 2.227 27.392 2.671 32.955 3.2 27.222 1.494 42.871c.23 6.69.904 13.645 1.587 20.198z"/></svg>