<svg xmlns="http://www.w3.org/2000/svg" viewBox="0 0 1024 1024"><path fill="#fbab01" d="m914.92 212.864 3.106-2.918 8.098-5.197c1.502-.964 5.146-3.226 6.596-4.736l26.684-28.015c9.993 15.667 19.763 31.897 14.669 53.743-1.485 6.357-6.332 14.071-11.665 17.322-10.266-7.697-27.571-24.618-39.74-11.801l-13.508 14.233c-2.065 2.168-1.988 9.942.324 12.314l32.785 33.664c4.156 4.267 2.765 14.985-2.611 16.051-3.209.64-12.023-1.092-14.353 1.178l-14.942 14.55-11.733 11.417c-2.603 2.534-7.86 9.95-8.235 12.817l11.366 17.237c1.187 1.8-3.208 7.876-5.384 8.141-12.262 1.485-17.135-12.228-23.526-5.854l-39.962 39.85c-4.907 10.164 20.719 17.614 13.227 27.726l-7.715 10.402-17.126-14.396c-1.485-1.246-5.487-4.01-6.997-3.413-2.014.785-5.154 3.174-7.322 5.24l-15.667 14.89-15.676 15.368 15.838 16.444c1.732 1.8 6.648 8.218 5.743 10.189-1.69 3.703-9.839 8.636-14.498 10.342l-26.197-21.103-24.995 22.46-13.252 11.614c-2.304 2.022-3.533 9.668-1.305 12.211l17.664 20.139c.46 3.567-8.192 12.723-11.623 10.607-23.262-14.31-20.71-26.547-32.555-15.557l-31.914 29.594c-2.1 1.954.648 8.96 2.32 10.581l15.463 15.002c2.287 2.219 2.842 9.745 1.767 11.921l-23.885 9.668-76.885 33.425-78.592 33.955c-2.876-5.018-6.947-11.145-11.282-15.762l-24.2-25.71c-3.448-3.661-10.445-5.982-13.807-3.064l-18.304 15.906-17.203 15.036c2.364 4.429 4.744 8.755 6.972 11.179l25.045 27.22-18.552 8.167c-2.534 1.118-8.243-1.04-10.308-3.387l-17.1-19.363c-1.443-1.63-5.36-4.548-7.459-4.872-2.62-.41-7.458 2.97-9.745 4.95l-29.09 25.028c-2.45 2.107-1.596 9.19.213 12.049l4.77 7.517c-12.782 3.525-26.333 9.285-40.038 13.944-53.018 18.03-87.697 34.577-136.883 55.322-.034-1.042-2.031-6.605-3.44-8.005l-27.391-27.375c-3.14-3.49-5.01-8.14-4.907-11.955 3.44-5.555 6.98-11.375 10.931-16.025.487.281 3.943 2.636 4.873 3.61l37.282 39.372 16.23 1.638c9.336-8.183 37.445-20.155 23.399-35.353l-39.86-43.136c-8.02-8.679-14.489-5.94-14.13-10.309 14.967-24.61 30.754-48.93 48.204-73.386l10.402-14.584c2.424.802 8.466-.06 10.633-1.945l28.28-24.619c1.57-1.365 5.188-6.451 4.104-8.183l-4.753-7.578c-1.22-1.946-2.79-5.905-3.243-7.629 3.414-4.412 8.525-11.716 11.546-16.162l10 8.747c2.1 1.834 5.59 4.335 7.587 5.256 1.997.913 6.69-2.082 8.952-4.053l29.064-25.318c1.971-1.716 1.92-10.044.154-11.87l-18.125-18.74c-1.007-1.04-2.202-6.502-2.125-6.775l11.179-16.18c1.792 1.392 4.966 3.96 6.954 5.931l19.704 19.5c1.442 1.424 3.891 3.43 5.214 4.266 1.758 1.11 6.903-1.434 8.644-2.927l29.457-25.267c2.808-2.407-.017-11.682-2.645-14.413l-29.312-30.37c-1.101-1.144-3.269-5.726-3.269-5.99 2.467-5.539 5.564-11.546 8.96-16.769.043-.162 6.204.111 7.228 1.178l16.009 16.666 20.138 20.957c2.014 2.091 10.078 6.725 12.553 4.702l33.758-27.622c2.364-1.937-.487-10.428-2.603-12.612l-22.775-23.51c-2.142-2.218-5.402-9.173-4.037-11.656 3.678-6.707 12.203-13.722 18.424-7.56l32.324 32c2.893 2.866 12.024-2.603 14.993-5.061l24.414-20.198c3.02-2.5 2.415-9.387-.358-12.212l-21.752-22.144c-2.782-2.824-1.613-12.006.666-14.737s11.46-6.186 14.114-3.703l31.48 29.534c2.491.384 9.523-1.767 11.63-3.508l28.724-23.577c1.604-1.314 2.244-7.57.7-9.267l-21.983-24.184c-2.466-2.713.828-11.306 3.345-13.687 2.1-1.989 10.624-4.77 12.869-2.594l25.224 24.388c3.405 3.285 10.428 4.096 13.363 1.8l18.014-14.088 14.703-11.998c1.562-1.271 1.673-7.45.154-9.088l-19.055-20.506c-4.591-7.62 9.122-20.898 15.206-15.351l27.964 25.506c1.894 1.732 10.496-3.123 12.826-4.95l27.212-21.4c1.22-.965 3.875-4.37 4.6-5.693 2.082-3.805-9.609-11.255-12.962-20.01-2.774-7.237 10.112-14.592 15.07-10.675l21.214 16.785c2.875 2.27 11.716-3.926 15.052-6.28l27.188-19.235c2.065-1.46 3.831-8.619 2.286-10.138l-11.306-11.144c-3.414-3.362-5.462-13.722-1.997-17.391l6.972-7.364c-.282-.58 1.194 3.32 1.638 3.746l23.091 22.545c3.115 3.046 11.819 7.987 15.31 6.272l28.21-13.901c1.647-.81 6.025-1.613 8.875-2.193l-19.55 19.524c-1.826 1.826-5.043 6.332-5.111 8.738s3.148 6.904 5.077 8.875l31.898 32.555c3.805 3.882 12.484 4.522 16.315.93l17.34-16.299zm-78.217 69.146 29.995-26.676c4.463-3.968.555-14.54-2.782-17.996l-29.235-30.277c-6.144-6.357-15.812-17.04-26.274-9.062l-26.326 20.079c-2.355 1.792-5.87 7.304-6.118 10.197-.247 2.893 2.654 8.516 5.606 11.495l42.761 43.059c1.8 1.809 10.36.973 12.365-.81zm-62.967 53.853 32.512-28.441c3.755-3.285.273-14.421-3.123-17.86l-42.812-43.367c-4.241-4.3-14.003-6.929-18.714-3.32l-25.122 19.252c-7.006 5.367-9.984 15.71-2.96 22.92l46.352 47.608c2.415 2.483 11.204 5.555 13.875 3.217zm138.547-31.854c1.698-.7 4.454-7.203 2.936-9.225-1.51-2.022-6.008-4.736-8.534-7.441l-18.97-20.344-21.495 18.475-14.737 13.15c-2.116 1.886-2.15 9.233-.068 11.315l20.437 20.438c9.813 9.813 36.267-20.975 40.431-26.368M737.99 365.764c4.07-3.405 8.08-10.154 7.33-13.482-.632-2.774-3.618-7.86-5.786-10.147l-31.223-32.904-11.785-12.664c-7.415-7.961-16.554-8.627-24.815-1.962l-19.814 15.991c-4.838 3.909-11.537 14.089-5.564 20.301l51.84 53.914c2.168 2.252 10.564 5.418 12.92 3.456l26.897-22.511zm89.839 21.64 28.006-25.377c3.251-2.944 3.891-12.459.802-15.659l-21.948-22.75c-2.124-2.201-9.07-3.191-11.195-1.288l-30.67 27.392c-2.064 1.843-4.735 5.674-4.974 7.85-.18 1.63 2.372 5.248 3.567 6.528l20.42 21.846c3.158 3.379 12.109 4.975 15.983 1.459zM653.697 438.29l27.734-25.284c2.492-2.279 2.594-12.69.051-15.343l-45.986-47.957c-4.77-4.975-9.941-9.396-14.191-10.061-3.908-.606-12.152 2.773-15.121 5.256l-21.564 18.023c-3.755 3.14-7.253 14.924-3.806 18.44l30.302 30.874 25.967 26.47c3.004 3.064 12.749 3.115 16.623-.418zm141.014-18.287c3.03-2.688 6.63-12.552 3.644-15.693l-25.686-27.025c-1.28-1.348-5.709-3.66-7.424-3.08s-5.495 2.816-6.886 4.104l-34.953 32.35 31.104 32.162c3.303 3.414 13.056 1.289 16.307-1.604l23.902-21.214zm-202.846 70.059 22.23-18.927c6.68-5.692 8.498-15.522 1.706-22.682l-48.102-50.645c-8.167-8.602-18.407-7.305-27.145.222l-20.915 18.022c-3.234 2.79-3.78 13.628-.751 16.794l30.925 32.298 23.219 24.27c4.48 4.684 13.2 5.418 18.816.64zm119.185 5.794 23.074-20.71c2.176-1.955 5.436-7.296 5.265-10.053s-3.097-8.132-5.009-10.146l-20.275-21.333c-2.398-2.526-4.907-4.95-6.827-6.067-1.92-1.118-7.842 1.69-9.6 3.225l-28.049 24.465c-2.415 2.108-5 5.07-5.538 7.16-.529 2.09 2.057 7.432 3.576 8.977l24.746 25.156c5.01 5.086 13.133 4.267 18.628-.674zm-182.101 46.737 23.432-20.267c5.129-4.437 8.167-14.711 2.663-20.574l-51.158-54.374c-5.649-6.007-15.76-7.185-22.417-1.74l-21.555 17.612c-8.576 7.006-8.78 16.785-1.476 24.448l51.157 53.726c5.086 5.342 13.389 6.34 19.354 1.178zm118.52 11.298 27.826-24.38c4.753-4.164 3.832-13.986-.298-18.167l-30.729-31.07c-3.328.922-9.318 4.02-11.836 6.28l-26.743 23.97c-2.244 2.015-2.603 9.362-.444 11.623l26.727 28.058c2.722 2.858 12.57 6.246 15.496 3.686m-181.206 41.933 26.052-23.748c4.454-4.054 3.738-13.534-.529-18.04L470 530.987l-29.661-31.403c-4.472-4.736-15.446-6.562-20.557-2.074l-26.812 23.527c-3.644 3.2-.862 14.754 2.423 18.201l20.276 21.283 32.623 34.227c3.61 3.78 13.721 4.95 17.954 1.083zm120.72 11.682 25.874-22.22c5.06-4.353 7.373-14.695 2.219-19.96l-33.28-33.971c-5.18 3.285-9.976 6.502-13.654 9.745l-25.054 22.127c-2.312 2.048-2.653 9.258-.512 11.468l28.476 29.44c3.627 3.747 12.553 6.255 15.923 3.363zM411.309 640.88l16.145-14.857c5.29-4.872 6.724-14.344 1.024-20.394l-40.106-42.582-12.707-13.508c-3.447-3.66-14.959-2.901-18.892.708l-23.62 21.632c-3.9 3.576-3.815 14.917.016 18.944l50.91 53.496c1.775 1.869 8.098 7.245 10.522 6.57 4.326-1.203 13.192-6.75 16.717-9.992zm114.526 20.625 25.31-21.7c5.265-4.514 8.473-13.807 2.833-19.593l-32.034-32.904c-2.321-2.39-10.257.99-13.005 3.379l-27.605 24.064c-1.989 1.732-4.779 8.704-2.953 10.624l31.932 33.724c2.483 2.628 12.322 5.137 15.522 2.397zm-183.817 35.985 27.11-23.646-2.252-14.771-52.42-55.296c-5.948-6.272-17.323-2.85-22.98 2.09l-18.373 16.06c-4.855 4.241-6.87 13.278-4.975 19.806l51.866 53.445c5.717 5.888 14.234 9.113 22.016 2.32zm-58.01 46.6 20.293-17.612c3.576-3.106 1.118-13.44-1.945-16.649l-24.423-25.66-27.409-28.817c-2.586-2.722-13.397-2.252-15.94.188l-22.793 21.897c-2.398 2.304-1.578 12.979.768 15.437l14.302 14.976 36.574 38.297c5.794 6.067 14.507 4.352 20.565-2.065z"/><path fill="#80b042" d="m691.773 700.518-41.455 32.273-50.116 39.032-24.721 19.285-26.453 20.677-83.465 65.297c-1.442 1.126-4.045 4.488-4.582 5.359-3.695 1.561-9.89 5.597-14.14 8.362l-47.309 30.771c-24.422 15.89-50.688 26.18-78.66 33.656-58.522 15.641-117.914 6.135-169.301-22.878l-3.124-2.1-2.944-.093-10.914-9.199c-7.321-6.17-15.07-12.407-21.657-19.31l-17.408-18.254c-3.806-3.985-7.39-8.175-10.283-11.699 2.236-.82 5.683-3.473 7.194-5.487l6.81-9.122 60.364-35.849 22.135-12.945c49.187-20.753 83.875-37.29 136.884-55.321 13.704-4.66 27.255-10.42 40.038-13.944l68.523-18.892c14.336-3.951 30.148-6.221 45.994-9.31 75.665-14.754 143.266-19.43 218.607-10.317z"/><path fill="#b2c64e" d="M380.264 411.708c-3.396 5.222-6.494 11.221-8.96 16.768-1.246.947-4.728 4.164-5.94 5.99l-15.513 23.322-13.286 19.96-11.179 16.178-22.246 30.993c-5.086 7.083-9.268 15.079-13.253 21.769-3.02 4.437-8.132 11.742-11.545 16.162-12.365 16-23.177 33.357-35.013 49.946l-10.402 14.583c-17.45 24.457-33.237 48.777-48.204 73.387l-12.971 18.227c-6.101 8.585-11.537 17.229-14.823 25.95-3.95 4.66-7.492 10.47-10.93 16.026l-9.848 15.906c-7.45 12.04-14.788 24.106-20.898 36.958l-19.567 41.19 3.541 2.082-6.81 9.122c-1.51 2.023-4.957 4.676-7.193 5.487-12.348-15.044-25.651-30.908-32.88-50.005l-3.097-8.175c-10.026-26.48-20.3-81.587-13.397-111.283 10.505-45.15 24.636-81.323 54.699-114.466l40.968-45.159 94.49-100.557c1.024-1.092 4.07-2.62 5.103-3.285 18.287-11.836 17.834-9.583 35.806-22.485 20.061-14.396 15.095-19.994 25.446-17.4 4.002 1.007 8.85 1.878 9.993.103l4.48-6.92 19.737 5.128c38.451 10 24.679-3.286 36.736.972 4.429 1.562 13.483 2.424 16.708.094l11.793-8.516 5.086-3.67-16.64 25.6z"/><path fill="#fed232" d="m769.281 144.17 15.59 5.266c-3.472 3.67-1.424 14.02 1.998 17.39l11.306 11.145c1.545 1.52-.222 8.679-2.287 10.138l-27.187 19.234c-3.336 2.364-12.177 8.55-15.053 6.28l-21.213-16.785c-4.958-3.925-17.835 3.44-15.07 10.676 3.353 8.755 15.044 16.204 12.962 20.01-.726 1.323-3.37 4.736-4.6 5.692l-27.212 21.402c-2.322 1.826-10.923 6.681-12.826 4.949l-27.964-25.506c-6.084-5.547-19.797 7.731-15.206 15.351l19.055 20.506c1.519 1.638 1.408 7.808-.154 9.088l-14.703 11.998-18.014 14.088c-2.935 2.296-9.958 1.494-13.363-1.8l-25.224-24.389c-2.245-2.167-10.77.615-12.869 2.595-2.517 2.389-5.81 10.982-3.345 13.687l21.982 24.184c1.545 1.698.905 7.953-.7 9.267l-28.723 23.577c-2.116 1.733-9.148 3.892-11.63 3.508l-31.48-29.534c-2.646-2.484-11.836.972-14.114 3.703s-3.448 11.904-.666 14.737l21.752 22.144c2.773 2.825 3.379 9.711.358 12.211l-24.414 20.199c-2.97 2.457-12.1 7.927-14.993 5.06l-32.324-32c-6.221-6.161-14.746.853-18.424 7.56-1.365 2.484 1.895 9.438 4.037 11.657l22.775 23.51c2.116 2.184 4.966 10.675 2.603 12.612l-33.758 27.622c-2.475 2.023-10.547-2.603-12.553-4.702l-20.138-20.958-16.009-16.665c-1.024-1.067-7.185-1.34-7.228-1.178l16.64-25.6c-.06-.87-.307-1.86.111-2.27.683-.426 2.603-1.92 2.85-2.824.188-.683.086-2.082.111-2.756.845-.461 4.378-3.798 5.376-5.445l8.38-13.781c.623-.734 1.732-2.202 2.628-2.526 3.644-1.323 10.47-3.31 15.062-4.574.981-4.787 4.548-15.053 8.49-17.937l23.373-17.092c8.661-6.332 21.095-8.175 31.625-8.525 1.86-18.33 32.12-35.917 48.478-42.803l19.072-1.562c2.406-8.362 6.144-16.904 12.637-21.222 20.037-13.338 36.958-26.889 57.626-19.9 1.476-9.762 6.878-18.364 15.625-23.21l23.517-13.065c7.595-4.224 19.337-9.353 27.145-8.414l13.244 1.579c-.23-19.08 44.928-35.516 57.045-35.61z"/><path fill="#c8cf54" d="m694.76 697.95-2.978 2.577c-75.341-9.114-142.942-4.437-218.607 10.317-15.847 3.089-31.659 5.359-45.995 9.31l.196-3.021 18.552-8.167 17.032-7.586 17.775-7.825 17.963-9.386 78.592-33.955 76.885-33.425 23.885-9.668 18.714-8.482c8.337-3.78 16-8.824 23.347-13.798l1.997 2.176c.589.648 3.456-.461 4.676-.956l73.498-29.978 18.747-7.091c36.933-13.97 74.368-26.325 113.562-37.154 10.923-3.012 20.616-4.378 33.51-5.223-8.891 7.27-16.12 12.536-25.173 18.56L886 561.715l-84.411 58.488-75.725 54.604-31.104 23.151z"/><path fill="#a0c148" d="m452.806 286.976-4.01 7.689-21.12 39.509c-4.225 7.893-8.048 15.172-11.316 22.332-.896.324-2.005 1.792-2.628 2.525-1.58.88-6.068 4.822-7.151 6.844l-6.614 12.382c-.025.674.077 2.074-.11 2.756l-2.85 2.825c-.419.41-.163 1.4-.112 2.27l-5.086 3.67-11.793 8.515c-3.217 2.33-12.28 1.468-16.708-.094-12.057-4.258 1.715 9.02-36.736-.972l-19.737-5.129-4.48 6.92c-1.152 1.776-5.99.897-9.993-.102-10.35-2.594-5.393 2.995-25.446 17.4-17.972 12.902-17.52 10.65-35.806 22.485 1.015-2.449 3.191-5.444 5.93-8.422l129.041-139.845c24.022-26.026 44.946-52.053 66.27-80.008 17.903-23.475 30.797-47.079 47.36-74.675 14.524 46.566-9.608 112.102-26.905 151.134z"/><path fill="#fdbe05" d="m962.4 243.055 4.923 14.515c5.53 16.29-7.56 50.415-28.98 58.01 1.306 7.407 2.714 20.062-1.228 26.658-11.409 19.08-20.378 35.31-40.977 40.985-.81 7.484-2.15 17.699-5.623 22-14.797 18.303-28.015 39.355-49.152 43.084-1.23 5.7-3.004 17.69-7.211 22.298l-21.41 23.432c-6.213 6.793-17.366 11.682-25.78 14.541-5.64 19.968-37.162 56.004-57.053 55.97l-9.78 20.275c-7.347 4.975-15.018 10.019-23.347 13.799l-18.713 8.482c1.075-2.176.52-9.702-1.767-11.921L660.84 580.18c-1.673-1.621-4.429-8.627-2.321-10.581l31.914-29.594c11.853-10.982 9.302 1.246 32.555 15.557 3.44 2.116 12.092-7.04 11.623-10.607l-17.664-20.139c-2.228-2.543-.99-10.189 1.305-12.211l13.252-11.614 24.995-22.46 26.197 21.103c4.66-1.706 12.808-6.639 14.498-10.342.896-1.971-4.01-8.388-5.743-10.189l-15.838-16.444 15.676-15.368 15.667-14.89c2.176-2.066 5.308-4.455 7.322-5.24 1.51-.59 5.512 2.176 6.997 3.413l17.126 14.396 7.715-10.402c7.492-10.104-18.134-17.562-13.227-27.725l39.962-39.85c6.391-6.375 11.264 7.338 23.526 5.853 2.176-.265 6.57-6.34 5.384-8.14l-11.366-17.238c.384-2.867 5.632-10.283 8.235-12.817l11.733-11.418 14.942-14.55c2.33-2.27 11.144-.537 14.353-1.177 5.376-1.066 6.767-11.784 2.611-16.051l-32.785-33.664c-2.312-2.372-2.39-10.138-.324-12.314l13.508-14.233c12.177-12.817 29.474 4.104 39.74 11.801z"/><path fill="#7cb13f" d="M769.281 144.17c-12.117.086-57.275 16.521-57.045 35.61l-13.244-1.578c-7.808-.93-19.54 4.198-27.144 8.413L648.33 199.68c-8.738 4.855-14.14 13.457-15.625 23.21-20.667-6.988-37.58 6.563-57.625 19.9-6.494 4.318-10.232 12.869-12.638 21.223l-19.072 1.561c-16.358 6.887-46.618 24.474-48.478 42.804-10.521.35-22.963 2.193-31.624 8.524l-23.373 17.093c-3.943 2.884-7.51 13.15-8.49 17.937-4.592 1.263-11.418 3.25-15.062 4.574 3.268-7.16 7.1-14.439 11.315-22.332l21.12-39.51 4.01-7.688 4.78.017 193.1-129.587L805.565 56.03c26.027-17.033-36.983 88.747-36.3 88.14z"/><path fill="#207d3c" d="M460.99 882.44c.528-.87 3.13-4.232 4.582-5.358l83.464-65.297 26.453-20.677 24.722-19.285 50.116-39.032 41.455-32.273 2.978-2.577c-.393.845 3.755 4.489 6.041 4.847 38.409 5.982 77.867 19.567 110.78 40.721 6.938 4.455 11.597 8.278 16.649 16.999-39.168 1.877-74.24 4.463-111.54 14.49-81.91 22.024-154.47 58.111-229.913 95.854-9.037 4.523-17.57 8.107-25.796 11.589z"/><path fill="#378a37" d="m819.03 548.975-18.747 7.091-73.498 29.978c-1.211.495-4.078 1.604-4.676.955l-1.997-2.176 9.78-20.275c19.89.043 51.413-35.993 57.053-55.97 8.414-2.867 19.567-7.748 25.78-14.54l21.41-23.433c4.207-4.608 5.982-16.598 7.21-22.298 21.138-3.729 34.364-24.78 49.152-43.085 3.474-4.3 4.822-14.515 5.624-21.999 20.6-5.674 29.576-21.905 40.977-40.985.23 1.314.393 4.113 1.485 3.848l4.113-1.007 80.145-19.507 1.152 6.426-29.141 30.054-93.628 96.453-88.039 89.608 5.837.853z"/><path fill="#839e23" d="M85.232 871.714c2.893 3.524 6.486 7.714 10.283 11.7l17.408 18.252c6.588 6.904 14.336 13.141 21.658 19.311l10.914 9.199-38.392 32.017c-13.815 11.52-33.74 9.609-45.815-3.098L39.477 936.15 11.095 906.82c-12.33-12.74-16.24-34.568-2.057-47.983l35.72-33.792c2.646-2.5 4.558-8.004 4.498-11.494l3.097 8.175c7.228 19.089 20.54 34.96 32.88 50.005z"/><path fill="#fed339" d="M959.396 171.998c-4.352 1.331-30.217 27.861-33.28 32.76l-8.099 5.196c-.913.589-2.286 2.142-3.106 2.919l-17.34 16.298c-3.83 3.601-12.51 2.953-16.315-.93l-31.898-32.555c-1.928-1.97-5.145-6.468-5.077-8.874s3.285-6.92 5.111-8.738l19.55-19.525c-2.841.58-7.227 1.383-8.874 2.193l-28.212 13.901c-3.481 1.715-12.185-3.225-15.308-6.272l-23.092-22.545c-.443-.427-1.92-4.326-1.638-3.746.35-7.885 26.462-15.24 34.859-17.195 16.06-3.737 31.76-1.527 44.894 7.834 13.431 9.574 15.889-6.665 42.12 1.425 21.871 6.741 35.098 21.265 45.679 37.862z"/><path fill="#839e23" d="m151.57 932.36-3.123-2.099z"/><path fill="#fed444" d="M528.949 542.592c-5.974 5.163-14.268 4.164-19.354-1.178l-51.157-53.725c-7.296-7.663-7.091-17.443 1.476-24.448l21.555-17.613c6.656-5.436 16.768-4.267 22.417 1.74l51.158 54.375c5.512 5.854 2.466 16.128-2.663 20.574l-23.432 20.266z"/><path fill="#fed646" d="M466.263 595.823c-4.241 3.866-14.353 2.705-17.954-1.084l-32.623-34.227-20.275-21.282c-3.286-3.448-6.068-15.002-2.424-18.202l26.812-23.526c5.111-4.489 16.085-2.654 20.557 2.073l29.661 31.403 21.786 23.049c4.258 4.505 4.975 13.986.53 18.04l-26.053 23.747z"/><path fill="#fed442" d="M653.697 438.29c-3.874 3.532-13.627 3.48-16.622.417l-25.967-26.47-30.302-30.874c-3.448-3.507.05-15.3 3.806-18.44l21.563-18.023c2.97-2.483 11.213-5.87 15.121-5.256 4.25.665 9.43 5.086 14.191 10.06l45.986 47.958c2.552 2.654 2.45 13.064-.05 15.343l-27.734 25.284z"/><path fill="#fed544" d="M591.865 490.06c-5.615 4.78-14.336 4.037-18.816-.64l-23.22-24.268-30.924-32.299c-3.03-3.166-2.483-14.003.75-16.793l20.916-18.023c8.73-7.526 18.978-8.823 27.145-.222l48.102 50.646c6.793 7.15 4.983 16.99-1.707 22.681l-22.229 18.927z"/><path fill="#fed43f" d="M411.308 640.879c-3.524 3.243-12.382 8.79-16.717 9.992-2.423.675-8.746-4.701-10.521-6.57l-50.91-53.496c-3.832-4.027-3.917-15.368-.017-18.944l23.62-21.632c3.942-3.61 15.454-4.369 18.893-.708l12.706 13.508 40.107 42.582c5.708 6.058 4.275 15.53-1.024 20.394L411.3 640.862z"/><path fill="#fed542" d="M342.017 697.49c-7.79 6.792-16.307 3.566-22.016-2.322l-51.865-53.444c-1.895-6.528.12-15.557 4.975-19.806l18.372-16.06c5.658-4.94 17.033-8.363 22.98-2.09l52.42 55.295 2.253 14.772-27.11 23.646z"/><path fill="#fed541" d="m737.99 365.764-26.897 22.511c-2.356 1.971-10.752-1.194-12.92-3.456l-51.84-53.913c-5.973-6.213.726-16.393 5.564-20.301l19.814-15.992c8.26-6.664 17.4-6.007 24.815 1.963l11.785 12.663 31.223 32.905c2.168 2.287 5.154 7.373 5.786 10.146.75 3.328-3.26 10.078-7.33 13.483z"/><path fill="#fed542" d="M773.736 335.863c-2.671 2.339-11.46-.733-13.875-3.217l-46.353-47.607c-7.023-7.21-4.037-17.553 2.96-22.92l25.123-19.252c4.71-3.61 14.464-.973 18.713 3.32l42.812 43.366c3.396 3.439 6.87 14.575 3.123 17.86l-32.512 28.442z"/><path fill="#fed236" d="M284.008 744.09c-6.059 6.417-14.771 8.132-20.565 2.065l-36.574-38.298-14.302-14.976c-2.347-2.458-3.166-13.133-.768-15.437l22.792-21.896c2.543-2.44 13.346-2.91 15.94-.188l27.41 28.817 24.422 25.66c3.055 3.217 5.521 13.55 1.946 16.648l-20.293 17.613z"/><path fill="#fed94d" d="M836.703 282.01c-2.005 1.783-10.564 2.62-12.364.81l-42.761-43.059c-2.953-2.978-5.854-8.602-5.606-11.494.247-2.893 3.763-8.406 6.118-10.198l26.325-20.079c10.462-7.978 20.139 2.705 26.274 9.063l29.236 30.276c3.336 3.456 7.244 14.029 2.782 17.997L836.712 282z"/><path fill="#fed029" d="M156.93 744.943c3.285-8.721 8.72-17.374 14.822-25.95l12.97-18.227c-.358 4.369 6.11 1.63 14.132 10.308l39.859 43.136c14.046 15.198-14.063 27.17-23.398 35.354l-16.23-1.639-37.283-39.372c-.922-.973-4.378-3.328-4.873-3.61"/><path fill="#fecf26" d="M525.834 661.504c-3.2 2.74-13.039.23-15.522-2.398l-31.932-33.724c-1.826-1.928.964-8.891 2.953-10.624l27.605-24.064c2.748-2.389 10.684-5.768 13.005-3.379l32.034 32.905c5.632 5.785 2.423 15.087-2.833 19.592l-25.31 21.7z"/><path fill="#fed334" d="M586.984 607.505c-3.37 2.893-12.297.384-15.923-3.362l-28.476-29.44c-2.142-2.219-1.81-9.42.512-11.469l25.054-22.127c3.678-3.242 8.473-6.468 13.653-9.745l33.28 33.971c5.154 5.265 2.842 15.608-2.219 19.96l-25.873 22.22zm60.484-53.615c-2.927 2.56-12.774-.828-15.496-3.686l-26.727-28.058c-2.159-2.261-1.8-9.608.444-11.622l26.743-23.97c2.518-2.262 8.508-5.36 11.836-6.28l30.729 31.069c4.138 4.181 5.051 14.003.298 18.167z"/><path fill="#fece20" d="m498.69 684.16-17.963 9.387-17.775 7.825-17.033 7.586-25.045-27.221c-2.227-2.424-4.608-6.75-6.972-11.18l17.203-15.035 18.304-15.906c3.363-2.918 10.36-.597 13.807 3.063l24.2 25.711c4.344 4.617 8.406 10.744 11.282 15.761z"/><path fill="#fed43d" d="M711.05 495.855c-5.504 4.94-13.628 5.76-18.628.674l-24.747-25.156c-1.519-1.545-4.104-6.878-3.575-8.977.529-2.09 3.114-5.052 5.538-7.16l28.049-24.465c1.758-1.536 7.68-4.343 9.6-3.225s4.429 3.54 6.826 6.067l20.276 21.333c1.911 2.014 4.838 7.399 5.009 10.146s-3.09 8.098-5.265 10.053l-23.074 20.71zm83.66-75.853-23.901 21.214c-3.251 2.884-13.005 5.018-16.307 1.604l-31.104-32.162 34.952-32.35c1.391-1.288 5.171-3.524 6.887-4.104s6.144 1.74 7.424 3.08l25.685 27.025c2.987 3.14-.614 13.005-3.644 15.693z"/><path fill="#fdc505" d="m181.727 808.311-22.135 12.946-60.365 35.848-3.541-2.082 19.567-41.19c6.11-12.86 13.44-24.926 20.898-36.958l9.847-15.906c-.102 3.822 1.767 8.465 4.907 11.955l27.392 27.375c1.4 1.4 3.396 6.963 3.439 8.004z"/><path fill="#fed741" d="m336.556 477.747 13.287-19.96 15.513-23.32c1.22-1.827 4.693-5.044 5.94-5.991 0 .264 2.167 4.855 3.268 5.99l29.312 30.37c2.628 2.722 5.452 11.998 2.645 14.413l-29.457 25.267c-1.74 1.494-6.887 4.037-8.644 2.927-1.323-.828-3.772-2.841-5.214-4.266l-19.704-19.5c-1.997-1.97-5.17-4.547-6.954-5.93z"/><path fill="#fed43c" d="M827.829 387.405c-3.874 3.516-12.817 1.92-15.983-1.46l-20.42-21.845c-1.195-1.28-3.755-4.898-3.567-6.528.238-2.176 2.91-6.007 4.974-7.85l30.67-27.392c2.124-1.903 9.07-.913 11.195 1.288l21.948 22.75c3.089 3.2 2.449 12.723-.802 15.659l-28.007 25.378z"/><path fill="#fed53c" d="m906.685 287.334 5.47 6.64.12 10.035c-4.156 5.393-30.618 36.18-40.431 26.368l-20.438-20.438c-2.073-2.073-2.04-9.43.069-11.315l14.737-13.15L887.707 267l18.97 20.344z"/><path fill="#fdd842" d="M289.879 546.688c3.976-6.69 8.166-14.686 13.252-21.769l22.246-30.993c-.085.282 1.118 5.735 2.125 6.776l18.125 18.74c1.766 1.825 1.818 10.154-.154 11.869l-29.064 25.318c-2.261 1.963-6.955 4.967-8.952 4.054s-5.478-3.414-7.586-5.257l-10-8.747z"/><path fill="#fdd22a" d="m427.368 717.124-.196 3.021-68.523 18.893-4.77-7.518c-1.81-2.859-2.663-9.941-.214-12.05l29.09-25.027c2.296-1.972 7.134-5.36 9.746-4.95 2.09.333 6.016 3.243 7.458 4.873l17.1 19.362c2.066 2.347 7.774 4.497 10.309 3.388z"/><path fill="#fbd840" d="M243.32 612.796c11.837-16.59 22.657-33.946 35.013-49.946.452 1.724 2.023 5.683 3.243 7.629l4.753 7.578c1.084 1.732-2.534 6.81-4.105 8.183l-28.28 24.619c-2.167 1.886-8.208 2.747-10.632 1.945z"/><path fill="#fdbe05" d="m912.283 304.009-.12-10.036-5.47-6.639c2.527 2.714 7.024 5.42 8.534 7.441 1.51 2.023-1.237 8.525-2.935 9.225zm13.833-99.26c3.063-4.898 28.92-31.428 33.28-32.76l-26.684 28.015c-1.442 1.52-5.095 3.78-6.596 4.736zm-11.196 8.115c.82-.768 2.193-2.33 3.106-2.918z"/><path fill="#b2c64e" d="m399.967 378.249 6.614-12.382c1.083-2.023 5.563-5.965 7.15-6.844l-8.38 13.781c-.998 1.647-4.53 4.975-5.375 5.445zm-2.96 5.589 2.85-2.825c-.248.905-2.168 2.407-2.85 2.825"/></svg>