<svg xmlns="http://www.w3.org/2000/svg" viewBox="0 0 1024 1024"><path fill="#f9d630" d="m377.688 910.02 9.976-.17c4.173-1.195 13.636-26.906 13.022-30.95 14.011 2.773 28.356 3.327 42.675 2.764 76.877-3.012 141.525-24.687 210.33-56.883 144.494-67.61 287.24-187.742 305.74-356.514 2.782-25.404-.563-49.425-5.436-74.334-2.73-13.978-6.664-27.827-9.318-41.83 4.804-7.373 16.947-5.863 22.904-10.974 2.432-2.091 2.628-7.638 6.758-8.798 56.772 76.791 60.305 194.389 33.502 283.102-41.532 137.437-156.186 253.832-281.506 319.189-116.207 60.604-232.022 67.456-338.526-16.47-3.78-2.978-4.984-5.802-10.12-8.14z"/><path fill="#785c2a" d="M372.278 846.438c2.347.248 12.715 9.131 14.908 11.478 2.696 2.884 7.142 8.96 9.233 12.416.956 1.578 4.07 7.296 4.267 8.584.614 4.045-8.85 29.756-13.022 30.95l-9.976.171c-.478-.222-1.86.436-2.5-.162-.316-.298-3.08-6.63-3.61-7.936-5.188-12.825-7.97-34.415-6.067-48.042.18-1.28 1.937-5.334 2.705-6.093s2.85-1.485 4.062-1.357z"/><path fill="#fce784" d="M921.577 133.47c-3.626-.034-5.41 3.942-8.175 6.033-1.97 1.485-5.88 2.807-6.707 3.439-2.432-10.539-6.16-20.839-9.472-31.113l22.34 14.857c.547 2.415 1.118 4.471 2.014 6.784"/><path fill="#fae96d" d="M653.69 824.79c-68.804 32.196-133.452 53.862-210.33 56.883-14.318.563-28.663 0-42.674-2.765-.197-1.289-3.311-7.006-4.267-8.585-2.09-3.447-6.537-9.532-9.233-12.416-2.193-2.338-12.561-11.221-14.908-11.477 0-2.424 1.323-4.267 2.68-6.119 14.284-19.635 44.987-45.124 65.032-59.434 47.292-33.758 103.364-54.178 151.416-86.707 40.755-27.589 73.42-58.616 104.234-96.675 19.422-23.987 37.325-49.51 52.557-76.646 34.901-62.174 52.13-140.706 101.743-193.229.998-1.058 1.126-2.927 1.485-3.208.537-.427 3.78-.598 5.717-1.733 4.292-2.508 2.611-4.224 9.711-3.933 6.067.247 5.675-.59 10.778-1.28 8.396-1.135 8.243 1.578 13.764 3.771 5.402 2.15 10.556-.213 13.32 6.972 2.262 5.871 2.432 12.271 3.354 18.287 19.934 129.536-24.84 261.41-109.585 359.91-40.567 47.147-82.577 80.017-135.79 111.787-2.92 1.74-7.143 3.823-8.995 6.562z"/><path fill="#fbfcfb" d="M856.63 291.755c.017 3.14.103 6.34 0 9.472l-1.203.844c-.358 1.059-.094 2.15-.145 3.218-.068 1.348.068 2.713 0 4.061l-2.705 1.357c-3.977-10.197-7.979-20.522-10.82-31.112-5.487-20.42-6.016-43.205-4.028-64.23l2.67-8.824c2.714 9.873 6.606 19.481 9.148 29.414 4.71 18.432 6.98 36.864 7.092 55.817z"/><path fill="#fae96d" d="M855.282 305.289c.051-1.059-.213-2.16.145-3.218l1.203-.844c-.034 1.066.196 2.159-.145 3.217zm0 4.053c-.043.896.025 1.809 0 2.705l-2.705-1.348z"/><path fill="#bbab29" d="M724.073 65.903c.709 2.74 3.414 3.174 5.573 4.156 21.47 9.762 48.025 20.292 70.715 26.564 17.605 4.872 35.977 7.091 53.71 11.4 4.232 10.83 8.2 22.119 12.91 32.734 7.979 17.98 9.14 19.09 23.228 32.145 1.775 1.647 2.995 4.088 5.982 3.747-1.553 1.024-2.79 2.295-5.24 2.449-5.734-1.485-11.87-1.724-17.68-2.731-2.441-.427-5.112-2.33-7.792-2.688-13.26-1.758-23.714 4.642-35.925 5.93-6.34.666-5.897-1.16-10.155-3.26-6.63-3.259-23.364-13.192-28.979-14.429-7.245-1.587-17.553 1.4-24.533-.913-4.113-1.365-12.638-8.448-17.366-11.076-6.673-3.704-15.291-6.904-21.47-10.71-3.106-1.911-13.354-10.504-14.293-13.397-1.579-4.864.034-11.98.87-17.229 1.801-11.315 4.728-27.887 7.69-38.707.63-2.304 1.595-2.637 2.73-4.002z"/><path fill="#785b26" d="M789.925 52.437c15.155 6.127 29.304 12.425 44.902 17.963 24.295 8.627 48.965 15.983 73.916 22.622 3.934 2.543 5.342 12.902 6.912 17.783 3.661 11.367 7.791 22.767 10.48 34.424-2.45 1.877-5.334 7.526-7.459 9.753-5.82 6.136-15.872 17.323-22.477 21.675-2.995.341-4.207-2.1-5.982-3.746-14.088-13.056-15.249-14.165-23.227-32.145-4.71-10.624-8.679-21.914-12.911-32.734-17.733-4.31-36.105-6.528-53.71-11.4-22.69-6.273-49.245-16.803-70.715-26.565-2.159-.981-4.864-1.416-5.572-4.156.623-.742.82-2.423 2.415-2.781l37.256-19.695c1.442-.188 2.833-.06 4.25.256 4.915 1.1 16.341 6.494 21.93 8.755z"/><path fill="#fae96d" d="M788.799 301.414c.204 1.178 1.118 2.407 1.288 3.422.982 5.692.828 19.473.222 25.438-.76 7.45-3.874 19.064-5.692 26.778-39.867 168.746-179.157 293.487-340.59 345.335l-50.1 12.817c-4.224.598-8.61.837-12.825 1.374-3.644.47-8.602 2.219-12.229 2.654-70.203 8.457-142.378 5.069-210.398-15.497-7.833-2.372-15.752-5.009-22.963-8.832.316-3.106-.887-6.766-1.68-9.821-3.005-11.555-9.72-21.752-17.264-30.772.29-.12 2.424-3.55 4.096-4.701 18.483-12.74 42.198-24.935 63.173-32.922 1.98-.751 2.082-.085 1.732-2.961-1.988-.111-4.07.264-6.059-.034-38.22-5.598-93.517-25.745-127.47-44.357-2.808-1.536-10.778-5.93-12.605-7.688-2.653-2.56-.896-9.668-1.322-13.62-.18-1.646-1.357-1.834-1.374-1.953-.82-4.864-1.203-9.029-3.004-13.91-2.167-5.87-6.417-11.008-7.825-17.203 26.692-11.571 50.014-20.241 79.198-25.66 60.877-11.306 125.338-3.686 186.641-12.245 89.19-12.459 173.457-52.326 242.227-109.534 27.11-22.553 50.245-48.58 78.413-70.408 18.1-14.02 37.103-25.421 56.175-37.854l4.95 5.23c3.012-.272 6.237-2.867 9.25-2.62"/><path fill="#ecdc3e" d="M682.772 261.905c-3.004-.358-6.246 2.347-9.25 2.62l-4.95-5.231c18.475-12.05 28.143-16.674 37.88-37.88h15.556c6.008 3.115 9.686 5.197 16.905 4.062l48.06 27.034c3.473-.068 10.359 4.855 12.902 7.44 4.6 4.677 9.677 7.869 14.182 12.835 1.314 1.45 2.407 4.267 3.286 4.83 3.678 2.398 9.574 2.236 13.824 2.586 3.336.273 6.929.17 10.598-.615 2.842 10.599 6.844 20.915 10.82 31.113l2.705 1.348c.035-.896-.042-1.81 0-2.705.069-1.348-.068-2.714 0-4.062l1.204-.845c.34-1.058.11-2.15.145-3.217.102-3.132.017-6.332 0-9.472 3.6-1.57 7.321-1.68 11.204-3.004 1.271-.435 8.542-3.618 8.892-3.96 2.048-2.047-.461-6.766 5.145-7.756 1.425-.247 3.166 1.314 4.583 1.818l3.464 6.007c11.273.598 20.66 8.534 32.333 6.895 2.432-.341 4.096-2.295 5.615-2.534 1.75-.273 4.565 2.005 6.554 2.048 1.237.025 6.707-.794 7.45-2.219 4.803 8.14 12.518 17.886 18.32 25.651 4.489 6 9.668 11.58 14.148 17.647-4.13 1.16-4.326 6.716-6.758 8.798-5.956 5.112-18.09 3.601-22.903 10.974 2.653 14.003 6.587 27.853 9.318 41.83 4.873 24.91 8.218 48.922 5.436 74.334-18.5 168.772-161.246 288.896-305.741 356.514 1.86-2.73 6.084-4.821 8.994-6.562 53.214-31.77 95.232-64.64 135.791-111.786 84.753-98.51 129.519-230.375 109.585-359.91-.93-6.017-1.092-12.417-3.354-18.288-2.773-7.185-7.918-4.821-13.32-6.972-5.521-2.201-5.368-4.906-13.764-3.771-5.103.69-4.71 1.527-10.778 1.28-7.1-.29-5.419 1.425-9.71 3.934-1.938 1.135-5.18 1.297-5.718 1.732-.359.281-.487 2.159-1.485 3.208-49.613 52.523-66.842 131.055-101.743 193.23-15.232 27.127-33.135 52.658-52.557 76.646-.973-2.893-4.283-.717-5.888.196-6.954 3.968-15.522 11.853-22.579 16.657-84.77 57.626-172.126 86.494-273.237 100.847l50.099-12.817c161.434-51.84 300.723-176.589 340.59-345.336 1.818-7.705 4.942-19.328 5.693-26.777.605-5.965-1.315-27.69-1.51-28.86 0 0-67.482-34.876-106.019-39.518z"/><path fill="#f9d531" d="M695.632 597.504c-30.814 38.059-63.488 69.086-104.235 96.674-48.043 32.52-104.115 52.95-151.415 86.707-20.045 14.31-50.74 39.808-65.033 59.435-1.348 1.852-2.67 3.695-2.68 6.118-1.211-.128-3.285.59-4.061 1.357-1.22-2.918-4.873-.887-6.767-.674-16.973 1.903-34.074-.196-50.756-2.005-83.926-9.122-147.166-49.024-197.445-115.08-1.792-2.347-4.326-7.903-6.144-9.413 3.328-.376 7.877.879 10.855-.64s15.087-18.74 16.879-22.417c.537-1.11.563-1.51.682-2.645 7.21 3.822 15.13 6.46 22.963 8.832 68.02 20.565 140.195 23.953 210.398 15.496 3.627-.435 8.585-2.184 12.229-2.654 4.224-.546 8.61-.776 12.825-1.374C495.04 700.868 582.394 672 667.165 614.374c7.057-4.795 15.624-12.68 22.579-16.657 1.604-.921 4.923-3.089 5.888-.196z"/><path fill="#ced940" d="M814.049 272.785c1.084 1.621 2.406 4.267 3.285 4.83 3.678 2.398 9.575 2.799 13.824 3.149 3.337.273 6.93-.393 10.599-1.178-5.487-20.42-6.016-43.204-4.028-64.23l2.67-8.824c2.714 9.873 6.606 19.482 9.148 29.415 4.71 18.432 6.98 36.864 7.092 55.816 3.6-1.57 7.321-1.68 11.204-3.004 1.271-.435 8.542-3.618 8.892-3.959l13.192.068c11.273.598 20.66 8.534 32.333 6.895 2.432-.341 4.471.666 5.99.427 1.75-.273 4.19-.956 6.179-.922 1.237.026 6.707-.793 7.45-2.218-17.102-28.954-24.79-66.296-27.034-99.465-1.024-15.164 4.445-31.266 11.29-44.706-1.119-3.43-1.955-8.371-3.244-11.725-3.626-.034-6.715 4.267-9.48 6.349-1.971 1.485-5.88 2.807-6.707 3.439-2.219 1.698-4.822 6.8-6.742 8.823-5.256 5.547-14.344 15.659-20.317 19.593-1.408.921-2.526 2.073-4.736 2.21-5.18-1.34-10.735-1.562-15.983-2.466-2.21-.384-4.617-2.108-7.04-2.424-11.99-1.587-21.436 4.199-32.478 5.36-5.735.605-5.334-1.05-9.174-2.945-5.99-2.944-21.12-11.93-26.197-13.039-6.545-1.442-15.863 1.263-22.17-.827-3.712-1.23-11.426-7.638-15.692-10.01-6.033-3.345-13.824-6.246-19.414-9.677-.75 12.544-3.003 25.907-5.726 38.247-3.097 14.046-8.601 32.631-14.566 45.636h15.556s86.776 43.503 92.04 51.37z"/><path fill="#f8d731" d="M36.739 546.1c.017.119 1.195.306 1.374 1.953.418 3.943-1.331 11.06 1.322 13.62 1.827 1.766 9.797 6.152 12.604 7.688 33.954 18.611 89.25 38.758 127.471 44.356 1.988.29 4.07-.085 6.059.034.35 2.876.247 2.202-1.732 2.962-20.975 7.995-44.69 20.18-63.173 32.921-1.672 1.152-3.806 4.583-4.096 4.702-.546.222-2.022-.29-3.123.205-3.098 1.39-5.87 6.076-7.074 9.216-3.14 8.2-5.572 22.366-6.042 31.164-6.536-2.603-12.842-7.706-18.295-12.152-21.837-17.818-45.048-44.493-59.972-68.557-6.819-10.982-11.324-23.219-17.792-34.287 5.222.564 7.45 2.722 12.663-.187 2.577-1.443 16.35-15.198 18.509-18.023 2.765-3.618.691-10.974 1.305-15.607z"/><path fill="#785c28" d="M116.568 654.327c7.544 9.02 14.25 19.218 17.263 30.772.794 3.055 1.997 6.715 1.681 9.822-.12 1.143-.136 1.544-.682 2.645-1.792 3.678-13.944 20.924-16.88 22.417s-7.526.264-10.854.64c-1.015-.845-3.575-1.092-3.9-1.51-2.167-2.842-3.097-19.9-2.867-24.192.47-8.798 2.902-22.964 6.042-31.164 1.203-3.14 3.976-7.834 7.074-9.216 1.1-.495 2.577.017 3.123-.205z"/><path fill="#785b29" d="M25.919 514.978c1.408 6.204 5.657 11.332 7.825 17.203 1.8 4.881 2.176 9.046 3.003 13.91-.614 4.633 1.468 11.989-1.305 15.607-2.16 2.825-15.923 16.58-18.509 18.023-5.205 2.918-7.441.75-12.663.187-1.118-1.911-3.533-3.678-3.892-4.906-1.152-3.892.615-13.987 1.468-18.484 1.903-10.043 8.969-30.899 15.906-38.212 3.277-3.456 5.692-2.261 8.167-3.336z"/><path fill="#fae96d" d="M682.772 261.905s60.8 5.982 106.018 39.518"/><path fill="#ecdc3e" d="M179.51 613.709c-29.167 9.258 183.441-15.975 299.495-90.616 143.513-92.296 251.613-248.055 251.613-248.055s-108.407 118.494-264.396 216.38c-85.573 53.7-194.22 92.936-286.712 122.29"/></svg>