<svg xmlns="http://www.w3.org/2000/svg" viewBox="0 0 1024 1024"><path fill="#cf7243" d="M688.842 533.185c7.927-16.606 68.385-59.792 84.367-87.005 4.301-7.321 4.233-18.696 10.232-25.573 9.975-11.452 31.632-22.477 41.096-40.746 6.024-11.64.298-29.303 3.26-42.786 8.746-39.824 56.088-94.787 64.86-134.645 2.492-11.315-1.442-24.115 1.536-34.252 4.505-15.3 19.763-22.46 33.322-28.348l22.22-.537c.103.435 4.42.947 5.197 7.373 9.941 82.225-16.768 123.219-48.75 192.056-18.167 39.108-34.568 80.57-56.276 117.656-11.281 19.268-32.47 46.787-46.19 66.354-31.155 44.432-66.005 88.566-104.643 128.109-6.912 7.074-12.458 15.846-17.647 20.692-2.099 1.963-19.029 14.294-20.735 15.104-8.926 4.25-6.69-3.942-7.706-7.535-4.318-15.274-1.672-27.673-20.411-23.15.23 8.687-1.775 17.425 2.423 25.71 3.644 7.185 19.38 10.65 18.03 12.655-4.906 7.262-20.624 21.546-28.03 28.245-73.045 66.021-169.316 124.713-256.995 167.592-37.46 18.33-102.159 53.298-142.23 57.275-31.31 3.106-96.366.725-120.106-20.352-4.01-3.558-13.345-15.47-17.808-20.787-2.21-2.637-1.912-8.004-3.396-9.148-1.323-1.023-23.791-6.348-26.744-5.529-12.091 4.966-10.086 22.195-23.304 20.42-3.865 12.245 5.154 16.153 9.882 25.267l-9.583.375-.674 20.121-10.223 5.086c-.23-.367-3.72-.205-4.471-3.123-4.088-15.923 5.034-34.713 3.942-39.68-2.526-11.494-29.346-27.775-19.942-49.27 21.862.068 45.482-1.553 66.508 5.111 1.527.487 7.142 7.296 14.634 6.144l3.234 9.216c8.85-1.971 38.528-25.59 40.96-25.59h76.73c2.867 0 46.557-15.173 53.98-17.63 15.804-5.24 40.875-28.74 59.375-32.708 8.209-1.758 16.844.572 24.243-1.46 6.485-1.774 7.594-9.369 8.183-9.59.776-.29 9.6 6.348 15.343 0-.436 3.31-1.195 15.897 5.077 7.62 6.929-18.475 32.972-25.762 45.951-35.874 23.646-18.423 47.965-51.302 71.807-66.311 3.72-2.339 33.766-17.621 35.737-17.971 1.852-.333 9.753 7.09 15.343 5.111-.751-13.49 1.092-27.485 0-40.917 12.381 10.3 17.083-7.816 25.616-12.748 15.01-8.67 37.7-9.805 48.511-28.22 5.07-8.635 5.308-24.02 10.138-30.787 5.384-7.535 32.673-13.815 38.493-28.288l25.591 2.85c2.927-12.39-4.267-8.567-10.223-15.342l9.865-.418c1.68-3.03-.52-7.953.367-9.814z"/><path fill="#c15c30" d="M699.073 650.84c14.003-4.812 24.763 7.74 34.116 9.216 12.151 1.92 16.87 5.026 24.6 6.272 10.787 1.741 26.787-7.082 23.16 10.078l-18.253 4.89c-1.587 15-2.73 14.301-15.026 20.667l-5.129-25.566c-5.401.154-13.679 4.497-17.792 7.766-9.634 7.645-8.285 20.206-20.556 17.834l2.577 10.24 15.12-8.806 23.211 6.22c-18.662 12.032-28.031 28.962-43.374 43.588-16.333 15.556-44.748 41.744-64.067 53.588-4.677 2.867-10.957 2.15-15.625 5.01l.197 12.569-19.43 6.45-16.265 29.705c-76.807 55.457-231.437 151.745-324.602 158.794-29.824 2.253-81.415-10.214-107.083-26.513-5.675-3.6-7.475-8.985-8.252-9.506 18.142-29.047-27.135-17.416-30.446-20.701l-5.112-17.22c-2.201-4.702-21.853-1.69-5.367-18.355 23.73 21.068 88.788 23.458 120.105 20.352 40.08-3.977 104.77-38.946 142.23-57.275 87.67-42.888 183.942-101.58 256.995-167.592 7.407-6.69 23.125-20.975 28.031-28.245 1.349-1.997-14.386-5.461-18.03-12.655-4.199-8.277-2.193-17.015-2.424-25.71 18.73-4.514 16.094 7.876 20.412 23.15 1.015 3.584-1.22 11.785 7.705 7.535 1.707-.81 18.637-13.14 20.736-15.104 5.188-4.846 10.735-13.619 17.647-20.693z"/><path fill="#c05f37" d="m934.384 98.36 10.07-7.032c1.723 16.776 12.56 27.366 25.727 35.174l-2.551 12.774c.563.307 7.483-9.617 7.67-10.223 19.508 14.097 34.56 47.07 39.962 70.023 18.926 80.426-32.324 180.05-69.657 250.688C858.038 615.47 738.13 751.097 586.52 860.57l16.265-29.704 19.43-6.45-.197-12.57c4.677-2.867 10.957-2.15 15.625-5.01 19.319-11.843 47.734-38.032 64.067-53.588 15.342-14.626 24.712-31.547 43.374-43.587l-23.21-6.22-15.121 8.805-2.577-10.24c12.27 2.373 10.922-10.188 20.556-17.834 4.122-3.268 12.39-7.611 17.792-7.765l5.128 25.565c12.297-6.365 13.44-5.666 15.027-20.667l18.253-4.89c3.627-17.16-12.373-8.336-23.16-10.077-7.73-1.246-12.45-4.352-24.6-6.272-9.344-1.476-20.105-14.029-34.116-9.216 38.638-39.543 73.488-83.676 104.642-128.109 13.722-19.566 34.91-47.086 46.19-66.354 21.709-37.077 38.11-78.54 56.277-117.655 31.982-68.838 58.683-109.831 48.75-192.057-.776-6.425-5.086-6.937-5.197-7.373-3.669-15.206-5.836-26.922-15.342-40.925zM806.497 630.385h-10.222v10.223z"/><path fill="#de8957" d="M739.99 108.59c2.312 15.224 38.186 13.61 40.37 16.17l1.041 8.653c2.756 3.619 32.879-6.34 30.208 16.103-26.735-22.955-52.991-6.392-70.928 18.593-17.971 25.037-21.171 52.932-30.941 81.245l30.25 17.817c-23.023 10.445-51.455 4.506-66.5 23.023l46.037 17.894v5.111c-24.174-.682-41.471-4.266-56.498 17.681-4.514 6.588-4.403 13.457-7.5 18.073-9.652 14.37-28.604 36.045-35.763 51.182-4.745 10.018-3.2 16.87 2.568 25.609-17.792-2.944-45.866 10.086-56.268 25.565 10.155 3.814 44.578 15.94 50.235 21.41 3.883 3.746 7.748 11.485 16.264 19.532l-3.003 4.557-27.69.555c-8.534-36.983-45.184-18.73-63.897.042-7.663 7.689-14.908 20.796-25.523 30.754-7.381 6.92-34.047 15.496-23.116 30.591-4.173-1.954-18.304-5.888-22.366-4.761l-28.8 20.13c-1.262 16.136 16.026 19.14 25.583 25.557s22.58 25.292 30.694 35.805l-2.551 5.094-25.591-25.548c-1.246-.82-4.736 6.852-7.663 10.222.64-16.033-20.164-22.57-32.435-19.762-13.192 3.02-49.168 28.85-64.656 37.776-10.845 6.246-17.228 12.365-30.796 17.8-9.916 3.968-32.64 6.537-38.707 15.223l2.356 17.374-9.686 13.44c-13.994-9.045-31.683-5.419-46.036 0l-8.004-20.676-22.682-4.89c7.339 1.946 14.797-4.369 20.676-2.926 5.564 1.365 14.805 13.687 20.233 5.478-6.511-6.912-21.769-12.783-30.686-12.791 3.67-6.545 13.594-9.993 20.378-12.877 178.207-75.664 331.386-234.85 415.455-408.134 28.322-58.384 31.052-98.61 85.938-141.702z"/><path fill="#d98250" d="M872.996 62.554c.154.537 6.605 3.882 5.752 9.574l44.509 11.81c-.18 9.173 9.685 12.296 11.127 14.421 9.515 14.003 11.674 25.71 15.343 40.925l-22.22.538c-13.56 5.888-28.817 13.047-33.323 28.347-2.986 10.138.948 22.946-1.536 34.252-8.772 39.859-56.105 94.821-64.86 134.646-2.961 13.482 2.773 31.146-3.26 42.785-9.463 18.27-31.12 29.303-41.096 40.746-5.999 6.886-5.93 18.261-10.231 25.574-15.983 27.212-76.44 70.399-84.368 87.004-2.398-13.832-4.94-33.612-10.231-46.036 18.005 3.03 6.57-13.986 12.655-25.72 4.642-8.96 22.4-19.353 31.095-25.164.99-25.164 4.514-45.234 27.912-59.058 3.874-2.287 38.169-13.073 40.882-12.834 4.668.41 12.348 8.192 20.463 5.103-9.37-43.903-37.359-75.322-71.62-102.296 22.05-10 22.315-43.007 33.289-61.345 9.335-15.599 47.64-34.09 38.33-56.31 2.68-22.443-27.45-12.484-30.207-16.103l-1.04-8.652c-2.185-2.56-38.067-.939-40.371-16.17 41.437-32.538 63.905-34.202 115.12-35.814 10.027-.316 20.668 5.299 17.878-10.232z"/><path fill="#da8351" d="M330.755 661.072c3.03 5.205 6.63 10.555 10.231 15.342l-35.788 23.023 23.108 33.143 22.912 71.721c-.59.222-1.699 7.817-8.184 9.592-7.398 2.022-16.042-.299-24.243 1.459-18.5 3.968-43.57 27.46-59.374 32.708-7.423 2.466-51.113 17.63-53.98 17.63h-76.73c-2.424 0-32.103 23.619-40.96 25.59l-3.234-9.216c-7.492 1.152-13.107-5.657-14.635-6.144 15.54 2.782 9.899-7.85 10.232-17.877 1.664-50.328.887-77.865 33.475-120.019 17.195-22.237 76.611-66.755 104.651-66.72 8.918.008 24.175 5.887 30.686 12.79-5.436 8.21-14.669-4.113-20.233-5.478-5.879-1.442-13.337 4.864-20.675 2.927l22.68 4.89 8.005 20.675c-.794.299-4.215 5.863-9.788 7.953-26.376 9.89-59.066 10.855-56.2 50.303 4.097 6.272 9.558 13.107 17.426 13.696 14.096 1.041 83.54-33.143 94.616-43.8 9.232-8.884 5.478-18.193 0-28.152l9.685-13.44-2.355-17.373c6.067-8.687 28.79-11.255 38.706-15.223z"/><path fill="#ca6e3f" d="M872.996 62.554c-2.005-6.818.734-19.9-5.29-28.399l5.299-33.014c20.94-6.409 27.682 16.119 44.279 19.686 19.728 4.232 27.69-11.52 47.675 3.473 12.006 9.002 13.32 25.65 20.428 30.72 12.203 8.703 48.861 3.634 33.544 33.27-4.13 7.996-33.032 23.509-43.17 25.966-2.03 4.54.675 10.983-.46 14.797-.18.614-7.108 10.53-7.671 10.223l2.551-12.774c-13.175-7.808-24.012-18.39-25.728-35.174l-10.069 7.031c-1.45-2.133-11.306-5.256-11.127-14.42l-44.51-11.81c.854-5.701-5.588-9.038-5.75-9.575"/><path fill="#c3663b" d="m23.825 962.882 10.222-5.086.675-20.12 9.582-.376c-4.727-9.114-13.738-13.022-9.881-25.267 13.226 1.775 11.212-15.454 23.304-20.42 2.944-.82 25.42 4.506 26.743 5.53 1.493 1.151 1.186 6.51 3.396 9.147 4.463 5.316 13.79 17.229 17.809 20.787-16.486 16.665 3.166 13.653 5.367 18.355l5.112 17.22c3.302 3.285 48.588-8.346 30.446 20.701-5.325-3.6-26.913-19.6-30.677-15.35-1.348 12.688-23.927 58.58-37.682 55.883l-13.15-5.069-10.564-40.575-3.046-4.634-12.297-.486c-7.611-3.524-8.055 1.545-15.342-10.231z"/><path fill="#cf7243" d="M54.519 978.233c-9.054 3.525-12.647-3.865-15.343-5.111l12.296.486 3.047 4.634z"/><path fill="#d9824f" d="M458.642 625.258c2.927-3.38 6.417-11.042 7.663-10.223l25.59 25.549 2.552-5.095c12.715 16.486 26.675 27.417 26.385 53.051l4.309 3.217c-1.971.35-32.025 15.633-35.737 17.971-23.842 15.01-48.161 47.888-71.807 66.311-12.987 10.112-39.022 17.4-45.951 35.874-6.272 8.277-5.512-4.3-5.077-7.62 4.838-36.676 6.52-72.208-10.232-107.424 9.472.443 15.727-5.71 23.04-10.215 31.564-19.447 54.86-33.254 79.265-61.396"/><path fill="#d98251" d="M678.61 543.408c5.965 6.775 13.159 2.944 10.223 15.342l-25.59-2.85c-5.812 14.473-33.11 20.753-38.494 28.288-4.83 6.767-5.069 22.152-10.137 30.788-10.812 18.423-33.502 19.55-48.512 28.219-8.533 4.932-13.226 23.048-25.616 12.748-2.765-34.2-8.354-40.396-25.574-66.499-.794-1.194.802-4.01 0-5.111l86.961-86.962 27.69-.555 3.004-4.556c18.97 17.91 29.286 32.102 46.037 51.156z"/><path fill="#bd5f31" d="M622.334 425.752c4.924.82 21.726 11.494 25.574 15.343 4.958 4.957 27.997 39.713 30.694 46.036 5.29 12.433 7.833 32.205 10.231 46.037-.887 1.86 1.314 6.784-.367 9.813l-9.864.418c-16.75-19.046-27.067-33.245-46.037-51.156-8.524-8.047-12.39-15.778-16.264-19.533-5.657-5.461-40.08-17.587-50.235-21.41 10.402-15.479 38.485-28.509 56.268-25.565z"/><path fill="#be5f32" d="M356.329 696.877c16.75 35.217 15.07 70.749 10.231 107.424-5.743 6.35-14.566-.29-15.342 0l-22.912-71.721-23.108-33.143 35.788-23.023c5.06 6.75 12.092 13.62 15.343 20.463"/><path fill="#b95a2e" d="M514.91 589.453c17.22 26.103 22.817 32.298 25.574 66.499 1.083 13.44-.76 27.426 0 40.917-5.581 1.988-13.483-5.445-15.343-5.112l-4.31-3.217c.29-25.634-13.67-36.565-26.384-53.05-8.115-10.514-21.034-29.33-30.694-35.806l3.26-4.241c7.364-6.263 23.705-1.809 27.434-3.464 7.006-3.107 7.586-12.877 20.463-2.526"/><path fill="#c15c30" d="m806.497 630.386-10.222 10.223-.009-10.231z"/><path fill="#d98251" d="M719.536 308.096c15.65 5.214 49.014 25.591 60.312 36.872 2.953 2.953 6.673 14.9 11.307 19.396-2.714-.239-37.009 10.547-40.883 12.834-23.398 13.824-26.922 33.885-27.912 59.058-8.695 5.811-26.453 16.205-31.095 25.165-6.084 11.733 5.35 28.748-12.655 25.719-2.696-6.332-25.736-41.079-30.693-46.037 15.189-21.734 27.715-45.738 41.71-68.274 11.212-18.056 25.02-33.501 34.619-52.812l-4.71-6.8v-5.112z"/><path fill="#eca678" d="M811.609 149.516c9.318 22.22-28.996 40.711-38.331 56.31-10.974 18.338-11.247 51.344-33.288 61.345l-30.25-17.817c9.77-28.313 12.97-56.208 30.94-81.245 17.938-24.985 44.194-41.548 70.929-18.593"/><path fill="#eba272" d="m719.536 313.216 4.71 6.801c-9.6 19.31-23.415 34.756-34.62 52.812-13.994 22.545-26.512 46.54-41.71 68.274-3.848-3.857-20.65-14.532-25.573-15.342-5.769-8.738-7.313-15.59-2.569-25.609 7.16-15.137 26.112-36.812 35.763-51.182 3.097-4.616 2.995-11.477 7.5-18.073 15.027-21.947 32.324-18.363 56.499-17.68"/><path fill="#eca273" d="m601.871 497.371-86.961 86.962c-6.81-9.353-14.848-20.557-25.574-25.574-10.931-15.104 15.743-23.671 23.116-30.592 10.615-9.958 17.852-23.056 25.523-30.753 18.722-18.782 55.363-37.026 63.896-.043"/><path fill="#eca072" d="M458.642 625.258c-24.405 28.151-47.7 41.95-79.265 61.396-7.313 4.506-13.568 10.658-23.04 10.215-3.26-6.844-10.282-13.713-15.342-20.463-3.601-4.796-7.202-10.137-10.232-15.343 13.577-5.427 19.96-11.545 30.797-17.8 15.488-8.926 51.463-34.756 64.656-37.776 12.27-2.808 33.066 3.729 32.434 19.762z"/><path fill="#eb9f6f" d="M284.71 707.108c5.487 9.959 9.241 19.268 0 28.151-11.076 10.658-80.51 44.842-94.616 43.801-7.868-.58-13.329-7.424-17.425-13.696-2.867-39.448 29.824-40.413 56.2-50.303 5.572-2.09 9.002-7.654 9.787-7.953 14.353-5.418 32.042-9.045 46.037 0z"/><path fill="#c3673b" d="M739.99 267.171c34.252 26.982 62.25 58.393 71.619 102.296-8.115 3.09-15.795-4.693-20.463-5.103-4.633-4.505-8.345-16.452-11.306-19.396-11.298-11.28-44.663-31.658-60.313-36.872l-46.036-17.894c15.044-18.525 43.476-12.578 66.499-23.022z"/><path fill="#ce7141" d="M489.336 558.759c10.726 5.026 18.764 16.23 25.574 25.574.802 1.11-.794 3.917 0 5.111-12.877-10.35-13.466-.58-20.463 2.526-3.729 1.655-20.061-2.799-27.434 3.465l-3.26 4.24c-9.565-6.416-26.845-9.42-25.582-25.556l28.8-20.13c4.061-1.127 18.192 2.807 22.365 4.761z"/></svg>