<svg xmlns="http://www.w3.org/2000/svg" viewBox="0 0 1024 1024"><path fill="#51a235" d="M408.283 89.785c-6.178 9.386-14.702 25.104-20.3 35.429-9.216 16.998-15.83 35.865-25.574 52.581-3.618 6.204-6.408 10.513-12.62 14.284-9.498 5.769-20.685 8.32-30.805 12.757-132.152 57.957-141.94 216.784-55.499 319.915 24.157 28.816 58.016 51.523 72.429 87.711 6.067 15.24 8.908 38.613 5.777 54.51-.478 2.432 1.527 5.145-2.594 4.437-37.35-47.837-106.382-71.294-152.478-113.345-83.42-76.107-100.358-195.084-9.6-273.571 3.149-2.722 19.319-13.167 19.797-14.865l-7.569-33.177C176.183 122.944 280.713 28.944 391.661 80.16c6.46 2.987 10.316 7.185 16.63 9.634z"/><path fill="#5ead3e" d="M692.691 667.56c-5.802-17.629-7.253-43.424-7.688-62.777 2.227-1.067 1.263-4.941 1.28-7.049.196-21.938 3.763-42.793 12.56-63.025 2.142-4.915 5.982-9.011 6.665-14.472 2.995-1.451 6.058-8.405 8.38-11.477 21.904-28.902 49.193-55.26 66.174-87.558 20.837-39.645 26.7-91.407 14.813-134.456-7.321-26.53-24.089-53.64-45.14-71.44-8.653-7.312-14.233-6.1-17.05-18.824-3.174-14.31-6.33-35.932-11.8-49.048 4.83-2.363 10.154-4.369 15.333-5.802 23.04-6.375 46.736-4.762 69.545 2.261 46.642 14.361 85.075 55.073 97.704 102.141 10.428 38.877 1.237 78.539-17.083 113.661-5.632 10.803-13.371 20.616-18.244 31.811 3.465 10.155 7.006 20.156 9.003 30.745.375 2.005-.29 4.31.042 6.366 1.17 7.219 3.26 10.564 2.603 19.293-6.852 90.366-115.94 149.73-175.62 204.871l-11.477 14.788z"/><path fill="#bde6a1" d="M491.558 1023.706c-3.098-.221-3.627-1.254-3.84-1.28l3.046.146.802 1.143z"/><path fill="#97db6b" d="M720.867 147.434c5.47 13.124 8.627 34.738 11.802 49.048 2.816 12.715 8.396 11.503 17.049 18.824 21.051 17.792 37.819 44.902 45.14 71.44 11.887 43.049 6.024 94.81-14.814 134.456-16.972 32.306-44.27 58.656-66.174 87.558-2.33 3.072-5.384 10.026-8.38 11.477-5.298 2.568-6.826 5.913-10.213 10.973l-1.715.393c-5.513-2.688-15.053 6.383-19.49 10.385-6.52 5.896-8.823 10.145-13.423 16.682-14.301 20.308-27.118 42.733-35.6 66.25-3.558 9.856-5.46 20.036-9.241 29.832-.051.145-.785.282-1.024.922-2.85 7.424-1.058 15.616-1.536 23.415l-9.037-1.843-3.771-9.685c-11.554-86.893-5.751-169.707 36.906-248.143 2.193-4.027 17.339-27.383 16.904-29.209-.538-2.278-1.605-1.604-3.183-.631-6.955 4.266-14.276 11.272-19.908 17.254-36.598 38.842-61.515 87.976-79.4 137.741-.052.137-.94.691-1.332 1.818-1.34 3.848-1.783 10.035-5.068 12.27.435-2.176-.965-3.865-1.263-5.785-9.19-58.358-14.959-118.917-16.734-178-1.117-37.307.948-74.836.052-112.151-4.967 4.283-6.699 12.714-8.653 18.884-23.901 75.321-21.008 157.222-34.943 234.088-2.603 14.378-7.108 28.458-8.926 42.964-3.925-3.072-4.855-9.907-6.672-14.43-.248-.614-.94-.767-1.016-.946-19.669-48.64-58.673-129.789-105.887-156.096-2.5-1.391-5.086-3.064-8.124-2.757l33.134 46.932c16.392 31.718 31.291 64.238 40.857 98.78 1.485 5.358 4.642 24.447 6.715 27.237l3.815 25.01c3.003 29.952 1.425 58.17-2.535 87.73l-3.106 3.908-5.862 2.491c.717-5.23-1.237-9.6-2.833-14.43-.205-.614-.956-.767-1.015-.946-10.342-30.293-25.642-64.365-45.533-89.623-3.865-4.907-7.73-9.967-13.397-12.868-.29 2.543 1.16 4.462 1.34 6.988 1.544 22.46.205 47.325-2.594 69.263-1.494 11.69-3.72 36.019-8.994 45.456-.077.137-.913.145-1.127.794-.571 1.792.649 4.59-.793 5.606-2.517-1.425-3.601-4.736-5.137-6.391-3.72-4.028-3.03-3.516-5.76-7.697-.094-.145-.802-.666-1.28-1.28 4.122.708 2.116-2.005 2.594-4.437 3.132-15.897.29-39.278-5.777-54.51-14.412-36.189-48.271-58.887-72.429-87.711-86.44-103.131-76.652-261.958 55.5-319.915 10.111-4.437 21.307-6.988 30.804-12.757 6.212-3.771 9.003-8.072 12.62-14.284 9.745-16.708 16.359-35.583 25.574-52.581 5.598-10.325 14.123-26.043 20.3-35.43.385-.58 3.243-2.141 4.43-3.9 54.073-80.296 139.328-116.69 224.83-54.33 39.234 28.612 63.878 70.109 81.422 114.643.358.904 1.86 1.135 1.903 1.246z"/><path fill="#b0e394" d="M422.371 661.16c.06.171.81.334 1.016.948 1.604 4.821 3.55 9.199 2.833 14.43l5.862-2.492 3.106-3.908c-.324 2.406.35 5.316 0 7.688-.742 5.069-1.74 10.35-2.56 15.377-5.419 33.219-16.648 73.222-19.217 106.33-.034.427.018.854 0 1.28l-1.134.803c-.436.972.025 2.193-.146 3.037-.426 2.117-.836 4.292-1.28 6.409-.025.11-1.015.196-1.297 1.851-.315 1.8.197 3.951.018 5.828-.23.23-1.63.376-1.28 1.28v5.129c-.163 1.186.076 2.585 0 3.84l-1.144.776c-.341 1.442-.102 2.901-.136 4.352-.103 3.823.017 7.705 0 11.528a865 865 0 0 0 0 11.529c.017 1.706-.069 3.421 0 5.128.042 1.007-.188 2.04.145 3.046l1.143.802c.111 1.69-.162 3.448 0 5.129-.742 2.432.657 2.884 1.28 3.84.973 7.005 1.826 13.55 3.84 20.496 3.558 12.28 24.78 58.486 35.873 62.778-.213 1.92.725 3.328 2.56 3.84.742 3.627 18.534 17.885 22.621 20.3 3.098 1.826 20.087 8.38 22.22 7.885h5.129c.904.316 3.336 1.212 3.84 1.28 6.007.793 14.48-.077 20.496-.615v-.665c.854-.009 1.707.034 2.56 0 1.007-.043 2.04.188 3.047-.145l.802-1.144c27.203-3.046 48.305-23.116 64.638-43.612 14.549-18.253 26.401-45.635 28.85-69.793 2.517-24.822-.35-52.845-3.814-77.48 4.522 3.917.538 11.05 7.048 14.088.93.435.367-5.205 3.2-5.12l-1.254 7.603c2.491.086 3.9 1.297 3.823 3.925l1.28-7.688c.017.111 1.1.299 1.305 1.843 4.702 35.634 4.48 73.112-10.018 106.664-9.94 23.022-25.82 44.236-46.377 58.682-.512 2.842 1.237 1.877 3.191 1.92 2.287.043 4.822.188 7.057 0 1.058 4.727-1.852 7.552-2.568 11.528l3.848 1.28c-3.771.29-7.74-.205-11.528 0 .247 8.661 1.254 13.295-5.743 19.242-10.086 8.576-34.943 10.948-48.067 11.511-9.821.419-20.897.316-30.745 0-1.698-.05-3.438.12-5.128 0l-.802-1.143-3.046-.145c-8.158-1.058-13.773-1.297-21.802-4.463-7.424-2.927-12.595-5.956-16.026-13.44-2.124-4.641-1.126-4.915-.614-9.002l1.28-.64v-2.56l-1.28-.64c-1.28-.034-2.568.051-3.84 0 .265-4.044.026-7.714-1.28-11.528 3.823.111 7.706-.077 11.528 0v-1.92c-.324-.853-1.228-.589-1.28-.64-3.131-3.328-7.713-6.033-10.913-8.943-21.427-19.498-42.777-52.743-45.456-82.011-.086-.973.222-2.057-.137-3.046l-1.143-.803c-.111-1.254.162-2.628 0-3.84l-.137-4.351-1.143-.777c-.12-1.69.06-3.43 0-5.128-.043-1.28.025-2.56 0-3.84-.034-1.877.205-3.772-.137-5.65l-1.143-.759a1202 1202 0 0 1 0-19.216h.666c1.151-3.089.58-6.86.614-10.248.017-2.125-.111-4.292 0-6.409l1.143-.76.137-5.648c2.44-21.162 6.348-43.698 10.29-64.655 4.694-24.943 13.38-53.375 15.386-78.138.316-3.925-.333-8.243-.06-12.228z"/><path fill="#caedb7" d="m665.786 691.905 12.143 15.403 8.328 2.56 1.46 8.789 9.463 3.985c3.191-2.065 1.066-2.995.913-4.745-.23-2.705-.436-5.35-.282-8.055 6.468 33.953 15.556 67.787 19.217 102.491-3.61-2.33-2.304-1.169-2.552 1.929-1.997 25.283-4.283 51.983-11.852 76.55-.743 2.423-1.289 5.913-3.533 7.356.341-2.944-.06-6.434-.162-9.447-4.087-6.135-8.892-6.894-15.684-4.736l-2.765-2.431c-1.143-2.21.29-7.262.674-10.291.59-4.634 2.031-10.189 2.543-14.754 6.187-55.832-8.934-109.753-17.91-164.595z"/><path fill="#c4ebae" d="m660.658 575.326 2.594 8.934c7.185-.767 15.974 2.287 21.742-2.534.128 7.663-.17 15.394 0 23.057.436 19.344 1.878 45.148 7.689 62.778.4 1.22-1.494 3.515-1.332 5.7.734 9.83 4.48 26.222 6.451 36.573-.153 2.705.043 5.35.282 8.055.154 1.75 2.278 2.688-.913 4.744l-9.463-3.985-1.46-8.789-8.328-2.56-12.142-15.402c-6.366-38.911-10.607-77.532-5.129-116.58z"/><path fill="#b0e391" d="m312.2 820.013 2.629 8.268-2.629 1.98 10.249 2.569c-2.611 29.6 5.649 66.421 21.947 91.432 8.32 12.765 28.782 33.228 42.102 40.523l.708 8.986-3.268 2.551-.102-2.39c-.53-.648-3.661.052-5.026-.17-7.518-1.237-28.987-21.008-34.619-27.519-28.228-32.64-39.542-83.215-33.074-125.326.094-.588 1.05-.776 1.075-.887z"/><path fill="#a5e083" d="M340.385 672.689c2.73 4.181 2.04 3.67 5.76 7.697 1.527 1.655 2.62 4.975 5.137 6.391 1.442-1.015.222-3.814.794-5.606.204-.657 1.05-.666 1.126-.794.026 4.284-.546 9.199-1.331 13.406-6.374 34.363-16.58 68.145-22.971 102.576-2.014 10.846-5.581 26.59-6.451 36.47l-10.249-2.568 2.629-1.98-2.629-8.268c2.79-18.056 5.538-36.155 9.267-54.151 5.777-27.929 15.044-57.018 18.645-85.118.35-2.713.35-5.35.273-8.055"/><path fill="#ace18d" d="M717.028 812.325c2.696 25.565 3.54 50.66-2.833 75.961-8.61 34.184-27.716 58.563-54.817 79.06l-2.406-1.434-1.442-8.823c9.019-6.323 22.399-21.649 28.765-30.805 4.377-6.297 13.968-21.017 14.787-28.125 2.245-1.442 2.782-4.932 3.533-7.356 7.569-24.558 9.856-51.266 11.853-76.55.247-3.097-1.058-4.258 2.551-1.928z"/><path fill="#bce7a1" d="m655.538 957.089 1.442 8.823 2.406 1.433c-22.006 16.64-38.543 23.44-66.617 25.625l-3.849-1.28c.717-3.976 3.627-6.8 2.569-11.528 8.055-.666 16.358-2.952 24.345-5.128 13.943-3.798 27.877-9.643 39.713-17.937z"/><path fill="#bde6a1" d="M435.188 978.874c2.773.384 4.958 1.16 8.968 1.28 1.306 3.822 1.545 7.492 1.28 11.528-10.137-.393-17.305.87-27.52-1.306-13.123-2.807-28.397-8.678-39.098-16.63 1.366.221 4.497-.479 5.026.17l.103 2.39 3.268-2.552-.708-8.986c13.746 7.527 33.296 11.955 48.68 14.088zm14.088 16.648c.154-1.23-.102-2.586 0-3.84l1.28.64v2.56z"/><path fill="#f5fdef" d="M467.213 543.302c.068.17.768.324 1.015.947 1.81 4.522 2.748 11.357 6.673 14.43 1.818-14.507 6.323-28.587 8.926-42.965 13.934-76.866 11.041-158.767 34.943-234.088 1.962-6.17 3.686-14.6 8.652-18.884.896 37.315-1.169 74.844-.051 112.15 1.766 59.075 7.543 119.643 16.733 178 .299 1.92 1.698 3.61 1.263 5.786 3.294-2.235 3.73-8.422 5.069-12.27.392-1.135 1.28-1.69 1.331-1.818-.008 4.497 1.843 8.081 5.035 11.059l-1.084 7.381c.75 2.492 3.95 2.722 4.778 3.567 2.091 2.133 1.11 7.62 1.716 10.462.495 2.312 3.054 4.061 3.455 5.512 2.654 9.531 1.792 25.898 1.4 35.634-.376 9.404.606 25.744 4.121 34.431.82 2.023 3.021 3.012 4.233 4.736 1.007 1.425 2.474 14.506 3.208 18.577 1.314 7.219 1.784 22.109 4.113 27.911.87 2.168 4.216 5.129 4.702 6.835.75 2.637-.555 5.538.785 8.175 1.254 2.466 8.9 7.432 9.557 9.694v2.33c-2.782 2.883-4.702 4.778-5.086 9.036-.768 8.448-.87 26.307.086 34.61.486 4.25 3.55 10.206 3.848 14.182.239 3.14-2.602 6.425-2.628 8.917-.017 2.338 3.132 5.495 3.66 7.885 1.136 5.162-.136 9.207-2.286 13.755.734 1.57 3.2 2.594 3.66 4.122.922 3.029-3.669 9.369.888 10.615 2.765.76 4.13-.87 6.954 2.013 2.577 2.629 2.44 6.87 3.78 10.206l-1.22 1.4c-4.471.41-7.278 4.326-6.272 8.737.504 2.202 3.303 4.173 2.398 7.245l-5.128-5.128c-3.217-3.09-7.56 9.95-7.731 12.236-.154 2.1 1.169 3.456 1.305 5.086.623 7.569-1.254 13.764-5.76 19.814-2.133 2.858-5.81 2.781-6.809 7.278-1.39 6.29 3.012 8.602 2.261 11.196-3.635 2.747-4.752 6.331-6.997 9.702-.981 1.468-3.191 2.628-3.831 3.857-1.254 2.406-1.664 7.364-1.963 10.205l-8.302 3.874c-.913 6.912.11 12.433-5.103 17.954-4.096 4.343-10.513 2.918-13.926 5.086-1.229.776-.973 2.304-2.031 3.268-1.903 1.74-14.592 3.797-17.169 3.012-1.245-.384-1.843-2.099-3.985-2.415-5.82-.853-11.135-.222-16.656.111-4.395.265-16.589-6.596-19.874-9.702-2.227-2.108-2.508-5.674-5.751-8.337-2.261-1.851-7.304-3.174-8.15-4.019-.486-.486-1.382-3.797-2.738-5.589-5.103-6.733-13.568-10.436-18.014-15.3-.512-.563-6.74-12.475-7.065-13.44-1.272-3.83-.137-7.978-.82-11.988-1.595-9.43-12.142-25.378-11.263-33.527 2.15-19.993-3.03-40.029-1.357-60.295.478-5.794 6.084-17.57 6.101-19.148s-2.09-4.446-2.244-6.468c-.05-.657 2.347-10.504 2.816-12.56 1.092-4.822 5.427-8.252 6.178-15.608.418-4.079-1.613-6.733-1.28-10.18.23-2.423 2.219-5.171 2.56-7.748 1.033-7.85-.947-13.977 1.894-22.442.777-2.312 2.902-4.377 3.252-6.997.733-5.478-2.381-14.6-1.315-21.81.359-2.45 2.688-2.902 2.688-6.375 0-5.359-4.505-6.946-5.128-9.139s2.142-5.265 1.11-8.72c-2.552-4.199-6.913-1.161-7.689 2.49l2.543 12.656-5.018 3.353c.35-2.372-.324-5.282 0-7.688 3.96-29.559 5.538-57.778 2.535-87.73l-3.815-25.01c4.139 5.547 2.347 6.52 4.02 11.998.435 1.434 2.568 2.56 3.507 4.181 2.03 3.499 1.04 8.482 7.048 6.724 1.084-.315 6.715-4.548 7.048-5.76 1.323-4.795.606-8.422 3.934-13.78.717-1.152 2.202-1.11 3.302-2.014 2.987-2.44 1.391-5.052 2.082-8.192.478-2.176 3.175-4.275 2.364-7.245z"/><path fill="#f5fdef" d="M422.371 661.16c-.273 3.986.376 8.303.06 12.229-2.005 24.754-10.692 53.195-15.385 78.137-3.943 20.958-7.85 43.493-10.291 64.656-.103.853-1.11 3.285-1.28 6.408-.111 2.116.017 4.283 0 6.408h-.666c-1.152 3.09-.588 6.86-.614 10.248a1202 1202 0 0 0 0 19.217c.017 2.125-.094 4.284 0 6.408.043 1.007-.196 2.04.145 3.047l1.143.802c.06 1.698-.119 3.439 0 5.128.205 2.833 1.246 4.838 1.28 5.129.163 1.211-.11 2.594 0 3.84.086.972-.221 2.047.145 3.046l1.144.802c2.68 29.268 24.03 62.513 45.456 82.011 3.2 2.91 7.782 5.615 10.914 8.943v.666c-6.144 1.382-12.868.273-19.217.614-15.385-2.142-34.935-6.562-48.681-14.088-13.329-7.296-33.791-27.767-42.103-40.524-16.306-25.01-24.558-61.83-21.947-91.432.87-9.881 4.437-25.616 6.451-36.47 6.392-34.431 16.597-68.214 22.971-102.577.777-4.206 1.349-9.122 1.332-13.405 5.273-9.438 7.492-33.766 8.993-45.456 2.808-21.939 4.139-46.795 2.594-69.263-.17-2.526-1.63-4.446-1.34-6.989 5.658 2.893 9.532 7.962 13.398 12.868 19.89 25.258 35.19 59.33 45.532 89.623z"/><path fill="#f9fcf3" d="M600.448 667.56c5.803 43.63 15.624 86.97 21.777 130.676 3.464 24.635 6.331 52.658 3.814 77.48-2.449 24.158-14.301 51.54-28.85 69.793-16.341 20.488-37.443 40.566-64.638 43.613-.948.102-2.048-.24-3.047.136l-.802 1.144c-.853.034-1.706-.009-2.56 0-6.792.094-13.9-.58-20.496.614v.666c-.512-.069-2.936-.965-3.84-1.28-4.36-1.528-2.16-.683-5.129 0-2.133.495-19.122-6.067-22.22-7.885-4.087-2.406-21.87-16.674-22.621-20.3-.213-1.05.324-3.473-.026-3.823s-1.902.23-2.534-.017c-11.084-4.292-32.306-50.499-35.873-62.778 3.976-1.34 1.758-2.816 1.561-4.744-.75-7.484-1.365-9.532-5.41-15.752-.366-2.654-1.262-3.627-1.28-3.84-.162-1.681.111-3.44 0-5.129-.085-1.271.043-2.568 0-3.84-.05-1.706.035-3.421 0-5.128-.076-3.823-.042-7.705 0-11.528.043-3.832-.076-7.697 0-11.528.035-1.699-.102-3.43 0-5.129.077-1.263-.162-2.654 0-3.84.265-1.903 1.844-.307 0-5.128-.35-.905 1.05-1.05 1.28-1.28.402-.401 1.69-.495 1.323-1.843l-.043-5.845c.444-2.108.854-4.284 1.28-6.409l1.144-.802c.333-.998.094-2.04.145-3.046.017-.427-.034-.854 0-1.28 3.362-.828 2.125-3.593 2.637-5.692 1.655-6.818 3.072-15.888 7.509-20.718-.845-5.111-.64-13.696.102-19.072.52-3.754 4.6-7.773 5.12-11.536.649-4.676-.367-10.42.026-15.343.682-8.533 3.584-18.465 4.872-27.203.435-2.927-.52-4.19-1.058-6.767.82-5.018 1.817-10.308 2.56-15.377l5.017-3.353-2.543-12.655c.777-3.652 5.137-6.69 7.689-2.491 1.032 3.455-1.707 6.621-1.11 8.72s5.129 3.78 5.129 9.14c0 3.472-2.321 3.925-2.688 6.374-1.067 7.21 2.048 16.332 1.314 21.81-.35 2.62-2.475 4.693-3.251 6.997-2.842 8.474-.862 14.592-1.894 22.442-.342 2.577-2.321 5.325-2.56 7.748-.333 3.448 1.69 6.102 1.28 10.18-.751 7.356-5.086 10.786-6.178 15.607-.461 2.057-2.859 11.904-2.816 12.561.153 2.022 2.261 4.924 2.244 6.468s-5.623 13.346-6.101 19.148c-1.673 20.267 3.498 40.302 1.357 60.295-.88 8.158 9.668 24.106 11.263 33.527.683 4.01-.452 8.157.82 11.989.315.956 6.544 12.876 7.065 13.44 4.446 4.855 12.91 8.567 18.013 15.3 1.357 1.791 2.253 5.11 2.74 5.588.844.845 5.896 2.168 8.148 4.02 3.252 2.662 3.525 6.229 5.752 8.336 3.285 3.106 15.479 9.967 19.873 9.703 5.521-.333 10.837-.965 16.657-.111 2.15.315 2.739 2.03 3.985 2.414 2.577.786 15.257-1.27 17.168-3.012 1.059-.964.803-2.491 2.031-3.268 3.422-2.159 9.83-.742 13.926-5.086 5.214-5.52 4.19-11.041 5.103-17.953l8.303-3.874c.298-2.842.708-7.808 1.962-10.206.64-1.229 2.859-2.39 3.832-3.857 2.244-3.362 3.362-6.954 6.997-9.702.75-2.594-3.66-4.906-2.261-11.195.998-4.497 4.676-4.42 6.81-7.28 4.513-6.05 6.39-12.236 5.759-19.813-.137-1.63-1.45-2.987-1.306-5.086.162-2.295 4.514-15.334 7.731-12.236l5.129 5.128c.904-3.072-1.895-5.034-2.398-7.244-1.007-4.412 1.8-8.329 6.272-8.738l1.22-1.4c-1.34-3.336-1.203-7.577-3.78-10.205-2.825-2.884-4.19-1.255-6.955-2.014-4.556-1.246.034-7.577-.887-10.615-.46-1.52-2.927-2.552-3.66-4.122 2.158-4.548 3.43-8.593 2.286-13.755-.529-2.39-3.678-5.547-3.66-7.885.016-2.491 2.858-5.777 2.628-8.917-.3-3.976-3.362-9.94-3.849-14.182-.956-8.302-.853-26.162-.085-34.61.384-4.258 2.304-6.144 5.094-9.037v-2.33c-.657-2.26-8.294-7.227-9.557-9.693-1.348-2.636-.034-5.538-.785-8.174-.486-1.698-3.831-4.668-4.702-6.835-2.33-5.803-2.807-20.693-4.113-27.912-.742-4.062-2.201-17.143-3.208-18.577-1.212-1.715-3.413-2.705-4.233-4.736-3.515-8.678-4.497-25.027-4.121-34.43.384-9.737 1.246-26.103-1.4-35.635-.4-1.45-2.96-3.2-3.455-5.512-.606-2.833.375-8.32-1.716-10.462-.827-.845-4.027-1.075-4.778-3.567l1.084-7.38c-3.2-2.979-5.052-6.554-5.035-11.06 17.894-49.765 42.802-98.907 79.4-137.74 5.632-5.974 12.954-12.988 19.908-17.255 1.579-.973 2.646-1.647 3.183.632.427 1.826-14.711 25.172-16.904 29.208-42.657 78.437-48.46 161.25-36.906 248.143zm-9.915 238.262c0-.88-.708-1.587-1.587-1.587s-1.587.708-1.587 1.587.708 1.587 1.587 1.587 1.587-.708 1.587-1.587"/><path fill="#f7fdf2" d="m660.658 558.67 2.568.648c-2.235 5.146-1.851 10.871-2.568 16.008-5.478 39.048-1.246 77.669 5.128 116.58 8.977 54.85 24.098 108.77 17.911 164.594-.503 4.566-1.954 10.12-2.543 14.754-2.986 3.9-2.815 9.66-4.155 14.421-8.183 29.021-25.37 61.123-48.989 80.399-3.763 3.072-9.241 4.932-12.193 8.943-7.987 2.176-16.29 4.462-24.345 5.128-2.236.188-4.77.043-7.057 0-1.954-.043-3.704.922-3.192-1.92 20.557-14.438 36.428-35.66 46.378-58.682 14.489-33.552 14.72-71.03 10.018-106.664-.205-1.544-1.289-1.732-1.306-1.843-5.717-43.084-16.153-87.268-20.522-130.01-.162-1.579-1.186-3.038-1.314-5.094-.461-7.168.324-14.165 1.34-21.197 3.78-9.796 5.683-19.976 9.24-29.831 8.483-23.518 21.3-45.943 35.6-66.251z"/><path fill="#fafcf3" d="M467.213 543.302c.81 2.97-1.886 5.068-2.364 7.244-.7 3.149.904 5.752-2.082 8.192-1.1.896-2.586.853-3.302 2.014-3.32 5.359-2.603 8.985-3.934 13.78-.333 1.221-5.965 5.445-7.049 5.76-6.007 1.758-5.017-3.233-7.048-6.723-.938-1.613-3.072-2.748-3.507-4.182-1.672-5.478.12-6.45-4.019-11.997-2.074-2.782-5.23-21.88-6.716-27.238-9.565-34.55-24.464-67.07-40.856-98.779l-33.134-46.932c3.038-.307 5.623 1.365 8.123 2.756 47.223 26.308 86.219 107.449 105.888 156.096z"/><path fill="#a5de86" d="m636.322 811.045-1.28 7.688c.076-2.628-1.34-3.849-3.823-3.925l1.254-7.603c-2.833-.077-2.27 5.555-3.2 5.12-6.51-3.047-2.526-10.18-7.048-14.089-6.153-43.698-15.974-87.037-21.777-130.675l3.772 9.685 9.037 1.843c.477-7.8-1.306-16 1.536-23.415.247-.64.972-.785 1.024-.922-1.007 7.032-1.801 14.029-1.34 21.197.128 2.056 1.152 3.507 1.314 5.094 4.369 42.742 14.805 86.927 20.522 130.01z"/><path fill="#aee78b" d="M705.5 520.237c-.675 5.47-4.523 9.557-6.665 14.472-8.798 20.232-12.364 41.087-12.56 63.025-.018 2.108.946 5.982-1.28 7.049-.171-7.663.127-15.394 0-23.057-5.77 4.821-14.558 1.758-21.743 2.534l-2.594-8.934c.717-5.137.333-10.862 2.568-16.008l-2.568-.648c4.6-6.537 6.903-10.778 13.422-16.682 4.43-4.011 13.97-13.073 19.49-10.385l1.715-.393c3.388-5.06 4.915-8.405 10.214-10.973"/><path fill="#f5fdef" d="M413.411 799.516c2.569-33.108 13.798-73.111 19.217-106.33.529 2.585 1.485 3.848 1.058 6.766-1.288 8.738-4.19 18.68-4.872 27.204-.393 4.932.623 10.666-.026 15.342-.52 3.755-4.6 7.774-5.12 11.537-.742 5.376-.947 13.96-.102 19.071-4.437 4.83-5.862 13.9-7.51 20.719-.511 2.099.726 4.864-2.636 5.691zm0 96.083c-2.013-6.946-2.867-13.49-3.84-20.496 4.045 6.22 4.66 8.268 5.41 15.752.197 1.928 2.407 3.404-1.561 4.744z"/><path fill="#d0f0be" d="M454.404 977.594c.052.05.956-.214 1.28.64v1.92c-3.822-.077-7.705.11-11.528 0-4.01-.12-6.195-.896-8.968-1.28 6.349-.342 13.073.768 19.216-.615z"/><path fill="#d0efbd" d="M526.142 990.402v.665c-6.024.538-14.489 1.408-20.496.615v-.666c6.596-1.195 13.704-.52 20.496-.614"/><path fill="#d1f0bf" d="M408.283 845.638h-1.28c.017-3.832-.102-7.706 0-11.528h1.28c-.077 3.83.043 7.696 0 11.528"/><path fill="#f5fdef" d="M408.283 857.166h-1.28a865 865 0 0 1 0-11.528h1.28c-.043 3.823-.077 7.705 0 11.528"/><path fill="#d0f0be" d="M394.195 839.23c.026-3.388-.538-7.16.614-10.249h.666c-.034 3.388.537 7.16-.614 10.248z"/><path fill="#f5fdef" d="M409.563 818.733c.17-1.886-.333-4.028-.017-5.828.29-1.664 1.28-1.74 1.297-1.852l.043 5.845c.367 1.34-.922 1.442-1.323 1.843z"/><path fill="#d0f0be" d="M395.475 864.854h-1.28c-.094-2.116.017-4.283 0-6.408l1.143.76c.35 1.877.103 3.771.137 5.648m0-42.273c.17-3.123 1.186-5.546 1.28-6.408l-.137 5.649z"/><path fill="#f5fdef" d="M449.276 958.377c.632.247 2.193-.324 2.534.017s-.187 2.773.026 3.823c-1.843-.512-2.773-1.92-2.56-3.84"/><path fill="#d1f0bf" d="M408.283 862.294h-1.28c-.068-1.698.017-3.421 0-5.128h1.28c.034 1.707-.051 3.422 0 5.128"/><path fill="#d0f0be" d="M396.755 878.942c-.034-.281-1.075-2.295-1.28-5.128l1.143.777z"/><path fill="#d1f0bf" d="M408.283 825.141v-5.128c1.843 4.813.265 3.217 0 5.128"/><path fill="#d0f0be" d="M408.283 834.11h-1.28c.034-1.443-.205-2.91.137-4.352l1.143-.777c-.102 1.69.034 3.422 0 5.129"/><path fill="#f5fdef" d="M501.806 990.402h-5.129c2.97-.683.76-1.528 5.129 0"/><path fill="#d0f0be" d="m408.283 866.134-1.143-.802c-.333-.998-.103-2.03-.145-3.046h1.28c.042 1.28-.086 2.568 0 3.84z"/><path fill="#d1f0bf" d="m395.475 868.694-1.144-.802c-.332-.998-.093-2.04-.145-3.046h1.28c.026 1.28-.042 2.568 0 3.84z"/><path fill="#d0f0be" d="M409.563 875.103c-.623-.956-2.03-1.408-1.28-3.84.026.222.913 1.186 1.28 3.84m-11.528 11.528-1.144-.802c-.367-.99-.05-2.065-.145-3.047l1.144.802c.367.99.051 2.074.136 3.047z"/><path fill="#f5fdef" d="m532.55 989.122-.802 1.143c-.998.333-2.039.103-3.046.145l.802-1.143c.999-.376 2.1-.034 3.047-.137zM412.124 804.645c.17-.845-.29-2.065.145-3.038l1.135-.802c-.051 1.007.196 2.048-.145 3.046l-1.144.802z"/><path fill="#d6f1c3" d="M699.091 898.159c-.82 7.108-10.41 21.836-14.788 28.125-6.366 9.156-19.745 24.482-28.765 30.805-11.835 8.294-25.77 14.139-39.713 17.936 2.952-4.01 8.43-5.87 12.194-8.943 23.62-19.276 40.805-51.377 48.988-80.398 1.34-4.762 1.17-10.522 4.156-14.421-.384 3.02-1.818 8.08-.674 10.29l2.765 2.432c6.792-2.158 11.596-1.399 15.683 4.736.103 3.013.504 6.503.163 9.447z"/><path fill="#f5fdef" d="M587.359 905.822a1.587 1.587 0 1 0 3.174 0 1.587 1.587 0 1 0-3.174 0"/></svg>