<svg xmlns="http://www.w3.org/2000/svg" viewBox="0 0 1024 1024"><path fill="#ef4f43" d="M693.43 469.547c8.764 10.914 32.478 16.102 26.112 39.125-23.8-4.898-43.964 14.524-52.19 35.849 2.227 7.56 34.432 15.41 42.539 16.213 29.465 2.918 64.273-17.058 91.306-13.099 10.454 1.528 39.808 31.172 59.82 38.025 8.746 2.995 50.346 11.614 54.152 7.79 4.335-25.488-13.62-42.222-26.027-61.96 5.99-12.825 26.206-12.168 32.563-16.29 31.59 13.193 48.009 30.26 65.22 58.7-12.586 4.242.786 16.206-.964 27.802-16.196 107.341-63.676 195.892-168.516 236.433-93.32 36.088-151.817 14.413-234.675-26.376-3.627-1.784-25.49-12.433-26.291-3.064-30.968-49.169-42.403-104.157-32.606-163.046 2.867-17.237 22.494-70.87 33.51-87.15 5.368-7.937 27.742-36.558 33.067-41.934 7.219-7.287 33.066-16.239 42.376-26.103l60.613-20.907zm-40.09 92.262c-12.68-12.68-41.83-7.8-54.425 5.624-35.14 37.452-15.437 99.242 35.772 68.377 20.087-12.109 35.89-56.755 18.653-73.992z"/><path fill="#de2f25" d="M986.917 573.9c6.818 11.256 16.853 28.306 22.792 39.169 17.801 32.572 16.888 96.478 8.585 132.437-47.147 204.186-280.371 236.34-427.861 114.023-10.752-17.528-22.93-33.323-33.954-50.825.81-9.37 22.664 1.271 26.29 3.063 82.86 40.798 141.355 62.464 234.676 26.377 104.84-40.542 152.32-129.092 168.516-236.433 1.75-11.588-11.622-23.56.964-27.802z"/><path fill="#83b250" d="M797.776 430.413c9.139-13.56 27.059-51.192 33.723-57.532 3.362-3.2 20.668-9.694 25.037-4.753l19.2 25.754c-8.422 10.735-53.052 67.165-45.329 75.665l88.03-17.016 48.904 3.977c-.486 26.103-19.712 33.015-36.215 45.508-5.23 3.96-8.329 12.467-9.43 13.184-6.357 4.122-26.564 3.465-32.563 16.29 12.408 19.746 30.362 36.472 26.027 61.96-3.806 3.824-45.406-4.795-54.152-7.79-20.011-6.853-49.366-36.497-59.819-38.025-27.034-3.96-61.85 16.017-91.307 13.099-8.106-.802-40.311-8.653-42.538-16.213 8.226-21.334 28.39-40.756 52.19-35.849 6.365-23.023-17.349-28.211-26.113-39.125-8.567-10.676-18.926-38.255-22.86-52.233-1.87-6.647 2.662-12.16 6.613-13.013 4.463-.964 50.799 14.524 59.93 18.304 18.91 7.816 37.674 18.073 50.884 33.894h3.234c-2.867-14.634.76-17.51 6.537-26.078z"/><path fill="#fba89f" d="M653.34 561.81c17.238 17.245 1.434 61.883-18.653 73.992-51.209 30.865-70.904-30.917-35.772-68.378 12.586-13.423 41.745-18.304 54.425-5.623z"/><path fill="#bc2224" d="m458.644 208.674 12.006.777 7.407 25.07-45.474 36.114c.162 20.019 66.253 18.406 81.485 16.298 13.858-1.92 30.131-17.322 39.006-17.476 2.526-.043 27.784 4.344 28.766 5.436 1.578 1.758-.24 7.671 2.048 10.317 11.81 13.636 96.665 43.255 103.04 17.98-.094-21.76-30.166-34.5-32.777-52.045-1.903-12.783 17.715-16.282 26.24-16.376 21.24-.239 68.617 41.02 81.357 58.863 25.267 35.396 23.407 59.418 29.517 97.664l.708 22.135 5.811 3.951c.043 4.344-.025 8.696 0 13.048-5.777 8.576-9.404 11.443-6.536 26.086h-3.235c-13.218-15.83-31.982-26.086-50.884-33.903-9.139-3.78-55.475-19.26-59.93-18.304-3.95.854-8.482 6.366-6.613 13.014 3.926 13.977 14.294 41.566 22.861 52.232l-60.612 20.907c-9.31 9.864-35.158 18.816-42.377 26.103-5.325 5.376-27.699 33.997-33.066 41.933-11.017 16.282-30.644 69.914-33.51 87.151-4.31.273-8.765-.401-13.048 0-14.217-10.052-12.007-5.094-13.073-22.554-3.106-50.892 3.968-72.388-23.066-120.652-6.588-11.76-21.359-24.525-25.899-32.956-3.558-6.613-1.962-16.026-3.985-18.662-1.135-1.485-13.312-3.61-18.756-7.348-21.41-14.703-38.92-33.587-67.644-33.63l-4.096-5.495c7.33-20.378 29.056-34.825 26.078-58.692l-71.731 6.51c10.035-78.19 72.098-135.159 150.007-143.479z"/><path fill="#4b8939" d="M458.644 208.674c-11.921-24.815-32.29-41.165-26.078-71.731 16.717 6.724 35.73 4.318 52.506 9.438 23.961 7.321 49.578 30.182 71.39 42.726.827-27.92 13.26-67.507 32.477-88.175 16.99-18.278 31.104-1.647 45.287 13.107-16.726 26.147-39.143 49.716-45.125 81.588 43.904-23.194 88.585-20.71 136.935-19.559 3.84 30.405-32.06 38.35-45.645 58.693-8.525.093-28.143 3.592-26.24 16.375 2.62 17.545 32.683 30.285 32.777 52.045-6.375 25.276-91.23-4.344-103.04-17.98-2.296-2.645-.478-8.567-2.048-10.317-.982-1.092-26.232-5.478-28.766-5.435-8.875.153-25.148 15.564-39.006 17.476-15.24 2.108-81.323 3.72-81.485-16.299l45.474-36.113-7.407-25.07-12.006-.777z"/><path fill="#83b250" d="m797.776 417.374-5.812-3.951-.708-22.136c.359 2.228 6.366 9.66 6.52 26.087"/><path fill="#da3a43" d="m354.29 404.326 4.096 5.496c28.723.043 46.225 18.927 67.643 33.63 5.129 63.41 16.478 135.321-9.642 195.797-3.217 7.441-22.323 49.024-24.423 50.936-1.97 1.8-7.825.307-9.958 2.38-3.209 3.132-3.413 10.658-7.868 15.121-11.46 11.46-22.127 16.35-31.565 24.389-1.843 1.57.3 7.15-5.504 11.52-17.826 13.431-82.653 40.499-104.678 44.27-45.039 7.715-73.882.743-117.521-3.882-10.07-1.067-29.107-6.989-34.5 5.12-12.467-10.564-25.378-19.712-35.593-32.888-63.599-82.048-62.447-236.134 22.827-302.702 8.567-6.69 43.801-28.877 51.891-29.628 9.993-.922 20.958 9.412 32.632 6.528 4.599 28.86-32.103 28.416-38.776 55.885-4.574 26.88 57.08 13.235 73.233 7.944 25.14-8.252 37.709-30.165 65.639-23.705 7.304 1.69 13.747 8.968 21.657 10.922 18.253 4.514 97.784 19.627 93.065-8.209L321.7 427.153l20.736-21.564 11.844-1.263zM105.466 598.98c16.359-32.785 27.921-67.635-15.24-81.954-37.598 6.64-47.667 36.984-41.643 72.363l21.914 17.39 34.96-7.79z"/><path fill="#c82d39" d="M426.03 443.46c5.444 3.738 17.62 5.863 18.756 7.347 2.022 2.637.426 12.05 3.985 18.663 4.54 8.44 19.31 21.197 25.898 32.956 27.034 48.264 19.96 69.76 23.066 120.652 1.067 17.468-1.135 12.502 13.073 22.554-4.207.393-8.601-.742-12.808.154-7.86 100.719-100.224 190.575-199.305 201.873-88.567 10.095-151.86-2.202-218.325-58.539 5.393-12.109 24.43-6.187 34.5-5.12 43.64 4.617 72.482 11.597 117.521 3.883 22.025-3.772 86.852-30.84 104.678-44.271 5.803-4.37 3.661-9.95 5.504-11.52 9.438-8.039 20.105-12.928 31.565-24.389 4.455-4.454 4.651-11.989 7.868-15.12 2.133-2.083 7.987-.59 9.958-2.381 2.1-1.912 21.206-43.495 24.423-50.936 26.12-60.476 14.771-132.386 9.642-195.797z"/><path fill="#7cb250" d="m119.504 423.893-39.092-55.45c6.904-10.316 12.067-9.019 22.622-9.898 40.303-3.362 76.57 16.128 114.296 26.206-1.195-22.537-1.468-89.6 23.552-97.203l35.131 5.939c8.431 7.97-35.575 71.987-26.052 91.264l58.692-32.606 71.732-6.51c2.97 23.867-18.757 38.314-26.078 58.691l-11.844 1.263-20.736 21.564 45.243 46.097c4.72 27.836-74.811 12.723-93.064 8.21-7.91-1.955-14.353-9.234-21.658-10.923-27.93-6.46-40.499 15.462-65.638 23.705-16.154 5.3-77.807 18.944-73.233-7.944 6.673-27.47 43.375-27.025 38.775-55.885-11.673 2.876-22.639-7.458-32.631-6.528z"/><path fill="#f17576" d="m105.466 598.98-34.96 7.791-21.914-17.39c-6.033-35.371 4.044-65.716 41.642-72.363 43.162 14.319 31.6 49.169 15.24 81.954z"/></svg>