<svg xmlns="http://www.w3.org/2000/svg" viewBox="0 0 1024 1024"><path fill="#fea098" d="M418.603 608c-2.492 10.71-3.584 25.327-3.559 38.263 58.94 12.425 42.983 11.051 90.163 33.093-1.271 6.118-1.63 13.977-1.032 23.364l3.234 51.106c.137 2.219 10.249 5.922 11.085 4.164l14.148-29.815c6.008-1.698 13.85-3.763 22.076-5.513l142.507-30.301 34.722-7.1 13.474 11.298c12.766 16.18 23.006 34.799 31.496 53.87.325 2.706 1.87 17.383-1.314 20.873-19.806 21.76-81.869 53.334-111.718 66.014-43.913 18.654-103.936 36.301-151.049 38.63l-1.834-28.057.742-69.751c-4.224 1.245-13.15 6.493-14.08 9.37l-25.207 77.866c-39.954 15.394-118.767-3.943-163.448-21.274-12.808-4.966-73.114-25.89-63.624-39.065 8.712-10.454 17.604-22.93 25.463-34.023l29.602-24.695 32.597-28.442c-4.403 7.834-2.747 18.902 4.847 26.334 6.272 6.144 17.707 12.774 23.996 12.382 6.29-.401 16.88-6.468 24.107-12.757 8.38-7.305 10.504-21.564 8.158-31.207l-6.998-28.706-30.336 16.102-14.13 7.723 4.42-11.409 20.027-14.165 36.804-27.307c8.832-6.554-1.075-44.783 8.602-47.386 1.783.171 4.557.495 6.042.538z"/><path fill="#fda9a0" d="M228.565 347.853c6.34 4.36 15.104 9.924 23.92 15.164l84.846 50.397c15.232 9.046 31.77 34.1 41.412 51.397 9.583 17.169-23.662 63.07-35.737 67.567-7.748 2.884-25.762-2.014-34.867-3.2-68.583-8.952-63.446 3.797-123.341-1.408l-33.613-3.61c-13.969-1.502-32.939 1.237-46.788 2.901l-22.81-1.544c-4.821-8.371-12.57-30.072-10.078-40.918l14.08-61.2c1.784-7.766 5.01-16.769 8.303-20.694l2.629 26.436c2.184 6.409 23.159 8.884 30.088 6.008s16.717-13.048 20.779-20.275l8.61-15.292c10.086-17.92 17.869-35.559 25.66-55.893l-22.776-23.16c-5.367-5.461-22.383-4.079-28.382.324-10.7-12.27-23.51-23.654-37.256-31.872 5.504-13.141 22.707-22.971 36.505-28.689l12.502-9.95c-.103 7.168 3.524 17.639 8.465 22.801 28.757 29.995 57.745 70 77.84 74.71z"/><path fill="#f93b3b" d="M951.782 500.224c-5.512-5.12-7.09 13.26-4.59 16.273l.23 5.82-30.183 42.044-87.458 118.22-29.15 35.798c-5.128 6.297 7.151 28.535 14.115 34.372l93.09-94.208 26.36-28.536 35.83-40.277 45.919-52.215-4.574 34.176c-6.443 11.28-13.585 25.292-22.469 36.437-58.146 72.977-97.655 114.125-164.693 179.038-4.275 4.139-15.386 10.487-19.789 12.817l-9.941-1.254-8.61-33.52c-1.092-4.24-7.373-13.363-8.952-14.78-8.482-19.071-18.722-37.69-31.496-53.87l-5.154-13.372c-1.118-2.901 3.038-10.735 5.017-13.2 11.153 4.906 19.09 10.555 34.176 21.076l9.89-21.418c20.318-44.007 40.252-84.378 63.727-127.19 9.088-16.58 62.524-112.085 76.877-111.488 6.434 6.528 21.29 20.352 21.393 30.055l.418 39.22z"/><path fill="#fd8780" d="m477.815 391.842 12.818 18.21c4.83 6.861 22.562 9.361 31.436 9.105l-10.3 20.916c-5.008-2.296-17.04-1.076-21.794 1.69l-25.335 14.72c-6.042 3.506-13.722 12.594-19.422 20.983l51.541 1.382 9.182 5.513-33.945-.35-3.499 5.81c-11.895-4.291-37.93-6.382-49.911-4.249l-15.94 42.078-13.168 9.916 13.628 2.236-10.078 6.673c-3.917 2.594-6.05 15.334-4.053 14.336l68.787-1.144 5.171 5.922-69.674.922 1.74 11.315 17.545 29.636c-9.668 2.603.23 40.832-8.602 47.386l-36.804 27.307-20.028 14.165 7.834-18.645-12.28-2.415 15.105-9.89c7.09-4.643 22.493-18.927 22.63-28.186.41-29.03-16.102-64.393-43.742-73.83-26.564-9.071-58.172-11.051-86.144-8.62l-48.674 4.225c-21.043 1.826-41.464 1.485-59.99 1.45l5.06-5.333 64.837-1.083c2.09-2.834 4.096-12.434.87-13.859l-16.315-7.202-11.495-5.17c59.896 5.204 54.759-7.544 123.341 1.407 9.105 1.186 27.11 6.093 34.867 3.2 12.075-4.497 45.32-50.398 35.738-67.567-9.651-17.297-26.18-42.35-41.412-51.396l15.496.793-9.165-20.949c16.555 19.968 56.03 65.656 89.19 43.631l40.748-27.068c3.481-2.312 4.471-15.633 4.206-17.97"/><path fill="#fd8d88" d="m130.509 320.862-29.534 62.285c-2.492 5.256-5.513 14.856-7.074 19.567-3.286 3.925-6.511 12.928-8.303 20.693l-14.08 61.201c-2.492 10.846 5.256 32.538 10.078 40.917l22.81 1.545-20.882 8.064C64.802 542.37-.589 565 11.93 587.87-4.446 583.689.683 507.418 3.25 491.964c6.383-38.477 16.017-74.351 31.864-109.44 7.262-16.086 44.032-93.27 58.129-93.517 13.747 8.218 26.555 19.601 37.256 31.872z"/><path fill="#fd8584" d="M65.81 592.879c26.077 72.32 81.245 145.971 140.1 194.756l-31.241 37.7c-2.774 3.354-4.915 15.062-4.822 17.81-64.034-51.653-114.867-115.311-149.034-195.38-6.204-14.532-2.543-34.235 2.099-48.554 5.205-1.434 14.02-4.608 19.337-7.458l16.802-9.02c-.299 1.715-1.562 6.246.17 6.886 1.826.666 4.634 2.219 6.58 3.26z"/><path fill="#fd8081" d="M472.482 865.365c-1.485 4.591-2.816 14.328-4.369 20.258l-5.649 21.632c-.981 3.772-4.292 8.235-9.045 16.803l2.816 7.62 11.673-8.593c1.075-.794 4.096-.41 5.436 0 1.493.46 4.25 1.493 5.777 1.843-14.344 33.485-259.652-24.602-269.15-67.831l-19.67-2.432c-2.764-.342-10.538-5.453-10.862-6.383l31.411-1.81 34.56-41.454c-9.489 13.184 50.816 34.099 63.625 39.065 44.68 17.331 123.494 36.668 163.447 21.274z"/><path fill="#fd706c" d="m1011.37 571.69 4.575-34.175-45.918 52.215-35.832 40.277-26.36 28.536-93.09 94.208c-6.963-5.837-19.25-28.075-14.114-34.372l29.15-35.798 87.458-118.22 30.183-42.044 9.224-2.236c15.676-3.806 35.823-6.528 51.055 1.22 6.844 3.482 16.086 18.774 15.872 25.976s-8.533 17.997-12.202 24.422z"/><path fill="#fd8384" d="M794.487 798.72c-10.487 9.173-23.065 21.786-36.155 29.585-80.828 48.162-123.281 61.841-215.006 82.748l-45.466 10.36 2.44 8.285-21.162-4.779-.316-6.528c.982-.844 3.192-.179 5.018.026l5.99-5.436c-.324-1.57-1.1-3.447-.367-4.266.649.068 5.155-4.122 5.735-6.392l12.057-47.155c.402-1.562 3.943-7.885 3.772-7.296l1.835 28.058c47.104-2.33 107.127-19.977 151.048-38.63 29.85-12.681 91.913-44.255 111.719-66.015 3.183-3.49 1.638-18.167 1.314-20.872 1.57 1.416 7.86 10.538 8.951 14.78l8.61 33.518z"/><path fill="#fc7773" d="M929.971 430.95c-14.353-.597-67.789 94.908-76.877 111.488-23.475 42.812-43.4 83.183-63.727 127.19l-9.89 21.418c-15.078-10.521-23.023-16.162-34.176-21.077l.282-6.084c28.433-58.957 105.6-199.22 154.462-243.328 7.56-6.827 23.978 4.36 29.918 10.393z"/><path fill="#fc9590" d="m429.918 110.123-6.272 10.06 11.69 17.101-13.294-8.14-19.84 7.79-5.445 5.64c-4.053.308-14.25.777-18.782 2.578l-84.761 33.587c-25.78 10.215-48.546 24.79-69.743 38.835l-16.043 10.633-23.765 15.966 1.442 6.818-23.962-25.293-13.03 3.396c48.435-44.305 206.345-128.46 270.874-115.771l10.94-3.209z"/><path fill="#fa6064" d="M804.429 799.974c3.934 30.797-3.73 38.52-35.328 56.295-68.779 38.698-140.98 62.285-219.008 75.673-17.869 3.064-35.891 3.601-49.81-2.244l-2.44-8.286 45.466-10.36c91.725-20.906 134.178-34.585 215.006-82.747 13.09-7.8 25.668-20.412 36.155-29.585l9.942 1.254z"/><path fill="#fc7a70" d="M511.778 440.081c10.308 4.719 27.06 10.974 38.4 11.605l4.839.273 10.828 5.718c21.53 8.917 41.464 22.52 59.153 37.418l23.023 32.282c1.818 2.552 4.327 6.758 5.573 8.79s-10.138 1.544-12.476.537l-32.359-13.986-14.933-6.22c-19.243-8.014-36.983-15.182-54.46-21.326l-.042-5.265c.58.128-4.958-5.538-6.486-5.538h-26.863l-9.181-5.512-51.542-1.383c5.7-8.38 13.38-17.468 19.422-20.983l25.336-14.72c4.753-2.765 16.785-3.985 21.794-1.69z"/><path fill="#fc5551" d="m184.806 527.77 11.495 5.17 16.316 7.203c3.225 1.425 1.22 11.025-.87 13.858l-64.837 1.084-5.06 5.333c-30.396-.051-55.441 7.629-82.8 22.315l-16.801 9.02c-5.317 2.858-14.132 6.024-19.337 7.458L11.93 587.844c-12.527-22.87 52.864-45.5 71.594-52.736l20.881-8.064c13.85-1.664 32.82-4.403 46.789-2.901l33.612 3.61z"/><path fill="#fc8983" d="M745.301 669.978c-1.98 2.474-6.135 10.308-5.017 13.2l5.154 13.372-13.474-11.298-34.722 7.1-142.507 30.302c-8.218 1.75-16.068 3.814-22.076 5.512l2.56-14.02c1.024-5.59.17-16.964-.921-22.92l21.452-3.968 36.89-6.119 38.238-5.538c12.595-1.826 25.293-3.533 38.16-4.744 32.248-3.03 64.837.315 76.553-6.972l-.281 6.084z"/><path fill="#f87569" d="M462.95 565.59c42.949-.572 97.51 75.955 70.417 74.401-2.26-.128-7.45-1.186-9.395-2.27l-50.363-28.04c-.06-.887-8.517-5.922-11.316-5.948l-38.86-.358-4.839 4.634c-1.476-.043-4.258-.367-6.041-.538l-17.545-29.636-1.74-11.316 69.674-.921z"/><path fill="#fa7e75" d="M527.838 511.659c25.489 15.931 54.434 46.856 63.744 74.069 1.254 3.66-5.547 15.727-9.097 15.403-28.433-2.637-60.501-75.836-179.362-61.32l-13.628-2.237 13.167-9.915 4.6 5.12 54.895 1.945c9.89.35 25.856 2.279 33.869.572 5.299-1.126 12.885-19.985 9.207-23.962-2.662-2.875-11.682-7.611-15.949-10.069l-10.496-6.033c7.228 1.263 16.53 3.806 24.79 7.014z"/><path fill="#fb5851" d="M185.105 251.008c-.136 2.014-.776 4.275.102 5.18l5.632 5.777 26.462 43.178c23.126 37.735 16.436 15.258 22.204 39.587.708 2.97-8.38 2.764-10.931 3.131-20.096-4.71-49.075-44.706-77.841-74.709-4.941-5.154-8.568-15.633-8.465-22.801l-.197-5.018c2.194-3.166 5.001-11.127 6.05-16.222l13.031-3.396 23.962 25.293z"/><path fill="#fc5251" d="M270.874 771.004c-7.86 11.093-16.751 23.569-25.464 34.022l-34.56 41.455-31.411 1.81c-2.662-1.272-7.467-3.423-9.583-5.138-.102-2.748 2.04-14.455 4.821-17.809l31.24-37.7 15.54-12.246c9.455-7.45 19.806-14.19 29.107-19.063 7.262 3.294 15.318 8.951 20.31 14.669"/><path fill="#fc7264" d="M534.298 691.226c1.092 5.964 1.937 17.34.921 22.92l-2.56 14.02-14.148 29.816c-.836 1.758-10.948-1.937-11.085-4.164l-3.234-51.107c-.597-9.378-.23-17.245 1.033-23.364 10.393 1.784 23.705 2.518 29.081 11.862z"/><path fill="#f29892" d="m608.734 522.71 32.358 13.985c2.33 1.007 13.722 1.502 12.476-.537s-3.755-6.238-5.572-8.79l-23.023-32.281 24.234 20.42c4.335 3.652 9.182 14.584 10.309 19.789.904 4.164-8.568 16.29-12.263 14.165l-30.703-17.63c-2.15-1.237-7.97-8.73-7.825-9.13z"/><path fill="#f9dcde" d="M505.958 484.37h5.436v5.435l-17.084 2.159 17.733 7.338c5.674 2.347 13.303 8.773 15.786 12.365l-24.26-9.412c-8.26-3.209-17.57-5.743-24.79-7.014-2.815-1.622-7.218-4.301-10.265-5.402l3.499-5.811 33.945.35z"/><path fill="#fd8780" d="M473.617 609.673 418.594 608l4.839-4.634 38.86.359c2.79.025 11.256 5.069 11.316 5.948zm65.681-119.774-22.477-.103h-5.435v-5.435h21.427c1.527-.009 7.057 5.666 6.485 5.53z"/><path fill="#f9dcde" d="m539.298 489.899.051 5.265-18.27.589-4.258-5.957z"/><path fill="#fda9a0" d="M142.063 245.333c.538-6.263 2.509-12.987 6.05-16.222-1.05 5.103-3.857 13.056-6.05 16.222"/><path fill="#fd706c" d="M947.183 516.497c-2.5-3.012-.913-21.393 4.59-16.273.052 4.454-2.883 14.404-4.59 16.273"/><path fill="#fdc4b2" d="M565.828 457.677 555 451.959z"/><path fill="#fc5353" d="M511.019 847.88c.17-.588-3.38 5.735-3.772 7.297l-12.058 47.155-5.734 6.391c-.725.81.043 2.697.367 4.267l-5.99 5.436c-1.827-.214-4.045-.87-5.018-.026l-5.461 4.693c-1.332-.41-4.361-.793-5.436 0l-5.444-15.829 5.649-21.632c1.544-5.93 2.875-15.667 4.369-20.258l25.207-77.867c.93-2.867 9.856-8.124 14.08-9.37l-.742 69.752z"/><path fill="#feadab" d="M333.073 717.858c2.253-2.978 6.477-8.397 9.643-10.12l14.13-7.723 30.337-16.102 6.997 28.706c2.347 9.634.222 23.902-8.158 31.206-7.227 6.298-17.817 12.365-24.106 12.757-6.29.401-17.724-6.237-23.996-12.381-7.595-7.433-9.242-18.5-4.847-26.334z"/><path fill="#fc7671" d="m347.136 696.329-4.42 11.409c-3.158 1.723-7.39 7.142-9.643 10.12L300.476 746.3l-29.602 24.695c-5-5.726-13.048-11.383-20.31-14.669l13.952-13.661 61.107-58.027c3.32-3.157 13.347-6.93 17.067-9.37l12.28 2.415z"/><path fill="#feb9b9" d="M93.892 402.705c1.562-4.71 4.583-14.31 7.074-19.567l29.534-62.285c5.99-4.403 23.006-5.785 28.382-.324l22.776 23.16c-7.791 20.326-15.565 37.973-25.66 55.893l-8.61 15.292c-4.07 7.227-13.85 17.4-20.779 20.275s-27.904.392-30.088-6.008z"/><path fill="#fc7670" d="m343.671 393.25 9.165 20.95-15.496-.794-84.847-50.398c-8.815-5.24-17.579-10.803-23.92-15.164 2.552-.367 11.64-.162 10.932-3.131-5.76-24.32.922-1.852-22.204-39.587l12.843 12.05c5.316 4.983 19.063 10.402 27.955 14.378 51.192 22.895 53.376 22.86 85.572 61.696"/><path fill="#fea59c" d="M342.682 675.268c-3.72 2.44-13.74 6.213-17.067 9.37l-61.107 58.027-13.952 13.661c-9.302 4.873-19.644 11.614-29.107 19.064l-15.54 12.245C147.046 738.842 91.887 665.2 65.81 592.88l20.48-5.026c21.624 32.4 77.389 23.364 85.24 13.44 5.265-6.665 7.56-24.969 7.74-32.896l-43.24-2.867c-4.872-.325-18.269 3.029-22.98 4.48l-47.231 22.869c-1.946-1.033-4.753-2.586-6.58-3.26s-.469-5.162-.17-6.886c27.35-14.686 52.403-22.366 82.799-22.315 18.526.034 38.946.376 59.989-1.45l48.674-4.225c27.972-2.432 59.58-.452 86.144 8.62 27.64 9.437 44.152 44.8 43.742 73.83-.128 9.258-15.53 23.534-22.63 28.185z"/><path fill="#fea69c" d="M435.337 137.293c6.434 9.404 23.082 29.517 20.224 40.542l-14.866 57.233c-15.266 58.794 4.736 110.788 37.12 156.783.256 2.338-.725 15.65-4.206 17.97l-40.747 27.069c-33.16 22.033-72.627-23.655-89.19-43.631-32.197-38.836-34.381-38.801-85.573-61.696-8.892-3.977-22.639-9.396-27.955-14.379l-12.843-12.05-26.462-43.178c-1.169-1.903-4.01-4.429-5.632-5.777-.878-.904-.23-3.166-.102-5.18l-1.442-6.818 23.765-15.966 16.043-10.632-8.73 13.466c-3.848 5.93 6.836 20.77 12.519 27.28 8.695 9.959 22.613 9.25 32.648 2.731 50.902-33.066 88.013-49.152 145.22-68.795 13.765-4.728 22.034-16.384 19.482-31.147-1.8-10.402-17.8-19.303-27.853-18.543l5.445-5.64 19.84-7.792 13.295 8.141z"/><path fill="#fc6d63" d="M468.514 489.83c3.055 1.101 7.458 3.79 10.266 5.402l10.496 6.033c4.266 2.45 13.295 7.194 15.949 10.07 3.677 3.976-3.909 22.835-9.208 23.961-8.013 1.707-23.987-.222-33.869-.572l-54.895-1.945-4.6-5.12 15.941-42.078c11.972-2.134 38.016-.051 49.912 4.25z"/><path fill="#fa6064" d="m467.917 923.085-11.674 8.593-2.816-7.62c4.753-8.576 8.064-13.03 9.046-16.803zm21.538-14.362 5.734-6.391c-.58 2.27-5.077 6.45-5.734 6.391m-5.624 9.703 5.99-5.436zm-4.701 6.502c-1.528-.341-4.284-1.382-5.777-1.843l5.46-4.694.317 6.528z"/><path fill="#fdbab8" d="M396.757 142.583c10.053-.759 26.044 8.133 27.853 18.543 2.56 14.763-5.709 26.42-19.481 31.147-57.208 19.644-94.32 35.72-145.22 68.796-10.044 6.52-23.954 7.219-32.65-2.73-5.682-6.512-16.366-21.351-12.518-27.282l8.73-13.466c21.188-14.045 43.955-28.62 69.743-38.835l84.761-33.587c4.532-1.792 14.729-2.27 18.782-2.577z"/><path fill="#fc9590" d="m190.84 261.956-5.633-5.777c1.622 1.348 4.472 3.874 5.632 5.777"/><path fill="#fdbaba" d="m65.81 592.879 47.231-22.87c4.71-1.459 18.116-4.804 22.98-4.48l43.239 2.868c-.18 7.927-2.475 26.231-7.74 32.896-7.842 9.924-63.616 18.96-85.24-13.44l-20.48 5.026z"/><path fill="#fdd6c8" d="m719.121 423.108 3.942-7.722c7.16-14.03-57.147-18.321-75.161-17.101l-88.636 5.982c-7.868.529-23.603-3.44-30.814-6l-36.565-56.678c-14.302-22.17-16.18-79.351-11.41-105.523l9.063-49.74 8.568-15.745c2.15-3.362 12.134-5.324 18.201-5.999l33.391-3.746 65.075-4.275 49.161-2.62c33.707-1.792 63.607-20.318 54.997-43.716 31.412 10.667 31.847 40.243 23.91 55.936l-13.798 27.273c11.674 11.323 23.365 22.075 30.208 31.957 5.914 8.542 5.914 36.966-.793 44.936l-30.166 35.815 15.181 11.17c8.525 6.272 26.351 18.466 26.12 28.22-.98 41.933-26.265 61.738-50.474 77.585z"/><path fill="#fdafa6" d="M718.933 110.225c8.602 23.398-21.299 41.916-54.997 43.716l-49.16 2.62-65.076 4.275-33.39 3.746c-6.06.683-16.052 2.646-18.202 6l-8.568 15.743c10.027-22.203-6.528-57.967-20.343-77.406-3.44-4.838-20.89-3.908-26.633-2.312l-12.638 3.516c1.443-2.313 6.93-10.385 10.223-10.727l81.357-8.362c30.712-3.158 57.856-2.04 87.441.495l52.054 4.445c16.196 1.383 43.588 9.379 57.932 14.251"/><path fill="#fdc4b2" d="M719.121 423.108c-15.019 9.83-33.229 20.378-55.134 20.258l-81.698-.452-50.04-1.084 12.638 5.283 5.283 4.565c-11.333-.632-28.092-6.887-38.4-11.605l10.3-20.916c2.85-5.794 5.29-13.926 6.374-20.89 7.219 2.56 22.946 6.537 30.814 6l88.635-5.982c18.014-1.22 82.321 3.072 75.162 17.1l-3.942 7.723z"/><path fill="#fc7a70" d="m489.54 186.325-9.062 49.741c-4.77 26.172-2.893 83.354 11.409 105.523l36.565 56.679c-1.083 6.963-3.524 15.095-6.374 20.89-8.883.247-26.607-2.253-31.437-9.106l-12.817-18.21c-32.375-45.995-52.386-97.988-37.12-156.783l14.865-57.233c2.859-11.016-13.79-31.13-20.224-40.542l-11.69-17.1 6.271-10.061 12.638-3.516c5.752-1.596 23.194-2.534 26.633 2.312 13.815 19.44 30.37 55.211 20.343 77.406"/></svg>