<svg xmlns="http://www.w3.org/2000/svg" viewBox="0 0 1024 1024"><path fill="#c36430" d="m474.539 265.31 18.201 17.416c-.657 1.792-1.826 3.508-1.962 5.479-1.315 18.432-8.295 31.641-10.855 49.843-5.401 4.608-7.987 1.596-12.834.674-27.409-5.222-54.844-12.177-82.85-14.088-67.686-4.617-152.346-3.08-216.004 20.949-17.758 6.699-36.096 13.978-53.837 21.59-25.523 10.948-58.01 23.62-82.5 36.027-4.643 2.347-6.69 7.194-9.925 8.969-1.834 1.006-5.666-2.33-8.072 2.67-1.45 6.187 5.845 4.523 9.37 3.977 7.637-1.186 14.31-1.664 21.555-2.688 36.855-5.18 76.527-24.559 113.698-34.466 30.31-8.081 59.358-11.768 90.99-16.768 20.796-3.285 40.96-9.02 62.09-8.192 17.842.7 36.206.836 53.896 2.807 16.375 1.835 52.019 4.386 62.72 16.956.973 1.135.179 3.593.785 4.326 1.05 1.28 16.358-1.39 18.611 5.743-22.92-3.643-40.098-5.077-63.411-5.265-3.883-.034-7.117-2.526-10.172-2.278-3.217.256-11.119 2.79-14.088 4.736-8.764 5.743-8.235 18.944-17.391 24.363-.137-.359-3.371-2.39-3.124-4.924-21.743-7.339-22.195 3.004-18.423 21.086-7.22-2.347-4.403-17.417-5.64-18.603l-14.234-5.419c-7.27 7.672-18.321 8.073-26.889 13.628-7.569 4.898-32.75 28.544-39.492 35.943-10.231 11.23-24.371 36.736-34.97 41.804 4.37-7.023 3.192-4.24-2.773-6.63-11.204-4.48-21.666-4.821-33.032-7.398-32.811-7.45-64.905-15.275-97.63-20.899-20.532-3.532-38.315-6.775-58.693-11.409-6.417-1.459-1.783-3.823-7.219 3.243-2.688-34.756 7.8-62.942 24.662-92.527 80.41-141.082 318.856-181.87 449.459-90.658z"/><path fill="#cd7a46" d="M757.393 429.628c44.86-2.321 97.254 2.91 137.387 24.243 97.467 51.814 155.733 170.18 117.222 277.512-7.646 21.3-20.139 42.292-31.019 61.918-3.157-2.398-4.923-2.398-8.08 0 3.959-6.4 6.015-12.706 8.584-19.703.981-2.663 4.292-4.6 4.369-5.845.102-1.57-3.797-5.564-4.446-8.56-1.015-4.676.82-11.144-1.613-14.532l-9.497-2.636c2.133-12.86-4.941-21.863-8.286-33.63l5.23-8.389c-4.752-25.898 6.631-58.863-3.643-84.701-1.195-2.996-3.96-4.71-4.164-5.189-19.311-45.96-37.188-75.025-80.708-101.128-82.458-49.46-165.547-23.894-229.65 38.485-1.561 1.519-4.932 1.289-6.323 3.174-2.858 3.883-.247 19.533 1.494 24.44-7.134-5.504-6.477-16.913-9.319-24.354-7.1-18.586-20.292-34.407-28.399-51.072 12.706 3.96 12.186-.93 20.147-8.132 5.982-5.42 11.452-10.932 17.562-16.111 11.597-9.83 33.835-20.523 48.196-24.687 2.44-7.518 21.897-10.744 30.772-13.534 2.602-.82 4.096-3.874 6.272-4.497 6.272-1.81 20.718-2.705 27.904-3.072z"/><path fill="#95bc4b" d="M894.78 453.88c-40.133-21.334-92.527-26.565-137.387-24.244l18.662-5.59c.726-7.218 2.142-14.096 2.885-21.35 6.34-1.877 15.3-9.079 20.258-13.414 40.823-35.737 75.042-79.044 111.616-117.273 5.367-5.607 11.853-12.63 17.579-17.596 9.19-7.979 14.796-18.748 22.792-25.506 12.408-10.48 15.556-14.217 24.286-27.017 2.577-3.772 9.523-9.267 13.585-12.006 4.608 23.134.265 43.409-2.645 66.048-5.829 45.286-22.98 88.192-43.563 128.845l-48.077 69.111z"/><path fill="#b65f34" d="M980.983 793.301c-21.452 38.69-63.479 82.313-105.02 101.06-61.345 27.674-143.53 22.068-201.95-10.94-17.16-9.693-32.477-24.285-46.48-35.549-1.51-1.212-10.18-6.34-11.35-6.007-18.005 20.394-36.121 41.762-59.895 56.115-3.43 2.073-7.381 2.159-9.02 3.08-3.362-12.928 11.187-8.456 16.325-11.955l2.85-9.267c23.654-6 30.796-38.588 53.563-40.832-3.814-6.451 12.126-32.888 16.803-37.12 1.484-1.348 4.317-.162 4.736-.495l28.236 26.99c62.49 47.054 121.421 55.084 195.354 34.97 13.235-3.6 20.173-5.17 33.084-11.366 7.62-3.652 11.793-5.845 19.055-10.564 18.312-11.896 44.305-29.816 55.611-48.111 3.158-2.398 4.924-2.398 8.081 0z"/><path fill="#90b843" d="M956.74 176.41c3.192-.12 13.765-2.074 13.466 2.688-17.186-3.448-24.277 16.52-35.038 22.877-15.292 9.037-21.538 12.903-35.055 26.906-9.216 9.549-21.845 29.304-31.266 36.088-11.87 8.541-5.65 5.137-13.107 13.832-2.569 2.995-19.09 14.123-24.32 18.773-14.114 12.561-28.493 26.138-38.955 41.856l-16.213 14.763c-2.535-23.646-3.926-44.791-11.333-68.139-2.73-8.601-7.372-20.88-12.91-27.503v-1.34c6.05 1.195 7.236-.324 10.769-2.696 54.383-36.565 110.105-63.18 175.104-75.426 4.369-.828 7.628-2.637 8.08-2.696 3.397-.393 7.245.128 10.778 0z"/><path fill="#c15f2e" d="M188.988 510.447c-2.023 5.777-2.492 15.326-5.282 19.934-1.502 2.483-4.011.734-5.581 3.242-2.372 3.78-6.28 22.307-8.542 28.8-6.502 18.723-14.592 34.936-12.92 55.774-.05-.136-2.141.632-2.397-1.587-.692-5.905.836-13.636-.52-18.39-1.733-6.075-9.797-3.378-14.183-4.667-2.219-.657-3.695-3.592-6.29-4.48-22.323-7.646-42.069-14.472-59.076-29.935l-8.951 2.347-12.297-16.009c-9.446-1.408 1.613 10.522-1.34 13.457H43.52l1.331-5.342-9.395-5.435c-1.792-2.705-2.074-4.37-2.697-5.385l8.082-10.769-10.795 1.442-8.064-9.523c-11.648-24.772-15.25-40.226-18.859-67.345 4.77 1.647 6.93 6.707 10.803 9.395 35.371 24.576 71.109 36.77 114.552 44.39 16.87 2.962 34.38 2.765 51.183 7.527l9.335-7.433z"/><path fill="#7da939" d="M989.065 189.875c-4.062 2.74-11.017 8.235-13.586 12.007-8.73 12.791-11.886 16.529-24.285 27.016-7.996 6.759-13.603 17.528-22.793 25.506-5.726 4.967-12.211 11.99-17.579 17.596-36.573 38.23-70.8 81.545-111.616 117.274-4.957 4.343-13.917 11.537-20.258 13.414 1.989-19.31-.69-29.824-2.696-48.486l16.213-14.763c10.47-15.727 24.84-29.304 38.955-41.856 5.23-4.65 21.751-15.787 24.32-18.773 7.458-8.696 1.237-5.291 13.107-13.833 9.42-6.784 22.059-26.539 31.266-36.087 13.517-14.004 19.763-17.87 35.055-26.906 10.76-6.366 17.852-26.334 35.038-22.878.299-4.761-10.274-2.799-13.466-2.688 1.886-4.284 11.068-3.217 14.814-2.688 8.346 1.178 15.923 8.21 17.51 16.154z"/><path fill="#ac4d1d" d="M.418 448.486c5.436-7.074.802-4.701 7.22-3.242 20.377 4.633 38.16 7.885 58.692 11.409 32.725 5.623 64.819 13.457 97.63 20.898 11.366 2.577 21.828 2.918 33.032 7.398 5.965 2.39 7.142-.392 2.773 6.63-3.439 1.648-9.497 15.207-10.777 18.86l-9.336 7.432c-16.802-4.762-34.312-4.565-51.183-7.526-43.443-7.62-79.18-19.815-114.551-44.39-3.874-2.697-6.033-7.758-10.803-9.396-.256-1.894-2.398-4.3-2.697-8.081z"/><path fill="#ac4f1e" d="m35.439 548.164 9.395 5.436-1.331 5.333h8.09c2.952-2.935-8.107-14.865 1.34-13.457l12.296 16.009 8.951-2.347c17.007 15.463 36.753 22.29 59.077 29.935 2.594.888 4.07 3.832 6.289 4.48 4.394 1.297 12.458-1.4 14.182 4.668 1.357 4.753-.17 12.484.52 18.39.257 2.218 2.347 1.45 2.398 1.586.393 1.024-3.362 14.814-2.696 21.547-28.476-10.76-56.32-25.813-79.514-45.747-3.038-2.611-4.795-6.358-6.69-8.132l2.773-3.968-2.773-8.167-8.08 4.045c-11.333-11.648-15.446-16.35-24.244-29.636zm26.931 18.85c.768-5.29-3.14-8.891-8.072-8.072zm-40.397-43.101 8.064 9.523 10.795-1.442-8.081 10.769c-4.565-7.467-6.468-9.694-10.778-18.859z"/><path fill="#c15f2e" d="M67.763 585.873c-3.123-2.927-5.188-5.103-8.08-8.081l8.08-4.045 2.774 8.167-2.774 3.968z"/><path fill="#7da939" d="M945.963 176.41c-.453.05-3.712 1.868-8.081 2.696l1.672-2.398z"/><path fill="#fce7b5" d="M959.437 610.116c3.038 19.823 6.946 37.615 5.504 58.035-2.893 40.952-17.895 68.267-40.525 100.907-9.003 5.47-14.916 14.976-22.852 21.598-16.794 14.003-54.537 34.108-76.05 37.094-12.825 1.784-26.837 1.852-39.893 3.226-15.104 1.587-38.306-7.893-52.471-13.431-12.186-9.123-21.547-9.737-18.321-27.76 1.1-6.169 6.425-11.502 7.117-14.43 2.056-8.78 1.544-27.17 12.714-30.335-1.493-17.98 11.478-19.106 20.156-28.382 21.111-22.537 48.299-45.449 65.826-71.56 3.098-4.617 8.482-12.067 10.82-16.12 1.912-3.311 7.91-25.899 6.759-26.923-3.652-1.1-22.673-1.229-23.996.367-.614.743.18 3.192-.794 4.318-1.715 1.98-10.052 4.59-12.356 6.682-1.135 1.032-1.007 4.275-3.208 6.127-5.086 4.266-12.852 9.856-18.612 12.5l-.332 7.69c-12.98-2.398-8.892 2.594-13.38 6.775-12.562 11.716-35.448 31.795-48.59 40.38-3.677 2.406-31.163 16.34-34.013 17.169-5.086 1.467-11.717-.171-17.127.384v-63.31c-4.437-20.42-7.902-38.484-16.162-57.915-.64-1.51-4.89-6.681-5.384-8.08-1.741-4.916-4.352-20.566-1.494-24.44 1.391-1.886 4.762-1.656 6.324-3.175 64.102-62.387 147.191-87.953 229.649-38.485 43.52 26.112 61.397 55.168 80.708 101.128z"/><path fill="#a84c21" d="M479.932 338.04c-2.142 15.223-1.741 31.854-2.68 47.257-.443 7.21.47 5.163-5.401 9.318-10.795-4.369-10.863-5.956-24.244-8.08-2.252-7.134-17.561-4.464-18.61-5.744-.607-.742.187-3.191-.786-4.326-10.7-12.57-46.336-15.121-62.72-16.956-17.69-1.98-36.045-2.107-53.896-2.807-21.129-.828-41.293 4.907-62.089 8.192-31.624 4.992-60.68 8.687-90.99 16.768-37.172 9.907-76.843 29.286-113.699 34.466-7.245 1.015-13.926 1.493-21.555 2.688-3.524.546-10.82 2.21-9.37-3.977 2.407-5 6.247-1.664 8.073-2.67 3.234-1.775 5.282-6.622 9.924-8.969 24.49-12.407 56.977-25.08 82.5-36.028 17.741-7.603 36.088-14.882 53.837-21.59 63.659-24.029 148.318-25.565 216.004-20.948 28.015 1.911 55.441 8.866 82.85 14.088 4.847.922 7.433 3.934 12.835-.674z"/><path fill="#fad49e" d="M649.643 583.185c8.268 19.43 11.724 37.496 16.162 57.916v63.309c5.41-.555 12.04 1.092 17.126-.384 2.859-.828 30.345-14.763 34.014-17.17 13.133-8.584 36.02-28.663 48.589-40.38 4.488-4.18.4-9.173 13.38-6.775l.333-7.688c5.751-2.646 13.525-8.235 18.611-12.502 2.21-1.851 2.074-5.094 3.209-6.126 2.304-2.083 10.64-4.702 12.356-6.682.973-1.126.18-3.576.794-4.318 1.322-1.596 20.343-1.468 23.995-.367 1.144 1.024-4.855 23.612-6.758 26.923-2.338 4.053-7.723 11.503-10.82 16.12-17.528 26.111-44.707 49.032-65.827 71.56-8.686 9.267-21.649 10.402-20.155 28.382-11.162 3.157-10.65 21.555-12.715 30.336-.691 2.935-6.007 8.26-7.117 14.43-3.225 18.022 6.136 18.636 18.321 27.758-17.203-6.715-26.64-15.172-43.067-22.937l-33.86-30.916c2.047-12.655 3.054-25.105 4.19-37.735 2.21-24.618 3.925-49.058 2.636-74.026l-13.414-68.754z"/><path fill="#d06c36" d="M447.599 386.526c13.389 2.125 13.448 3.712 24.243 8.08 1.144.462 3.584-.63 5.231.12l.324 7.757c12.843 3.798 25.908 8.329 37.487 15.079 6.673 3.89 3.815 4.079 13.534 6.673 17.263 18.116 39.731 34.21 55.202 51.131 6.093 6.665 10.317 19.15 20.233 21.598.93 1.826 2.602 2.5 2.696 2.697 8.098 16.657 21.3 32.486 28.4 51.072 2.84 7.44 2.184 18.85 9.318 24.354.495 1.4 4.744 6.57 5.384 8.081l13.415 68.753c1.288 24.969-.427 49.408-2.637 74.027-3.09 1.894-3.977 9.054-4.762 12.749-3.626 17.1-10.513 34.013-13.662 48.29-.862 3.89.128 13.943-.435 14.387-.427.333-3.251-.862-4.736.495-4.668 4.24-20.616 30.669-16.802 37.12-22.775 2.244-29.918 34.833-53.564 40.832l-2.85 9.267c-5.137 3.499-19.686-.973-16.324 11.955-77.867 43.52-167.57 43.452-246.076-.418-97.8-54.647-136.755-154.615-147.225-260.89-.666-6.74 3.089-20.53 2.696-21.546-1.672-20.839 6.417-37.06 12.92-55.774 2.252-6.494 6.17-25.028 8.541-28.8 1.58-2.509 4.08-.76 5.581-3.243 2.79-4.608 3.26-14.157 5.282-19.934 1.28-3.652 7.33-17.211 10.778-18.858 10.598-5.07 24.73-30.575 34.97-41.805 6.74-7.398 31.923-31.036 39.492-35.942 8.567-5.547 19.618-5.948 26.888-13.628l14.234 5.418c1.237 1.187-1.579 16.265 5.64 18.603 10.54 50.628 46.575 117.103 71.493 164.224 41.275 78.055 89.66 150.409 123.008 231.39l4.3.777c.29 9.378 7.143 15.616 10.778 23.057 3.277 6.707 2.202 16.588 11.315 19.66-.426-5.683.717-11.904-.034-17.467-2.295-16.87-11.716-49.23-16.776-66.74-20.19-69.913-61.048-152.337-97.613-214.877-26.343-45.056-50.483-94.533-78.148-137.361-3.525-5.453-4.873-13.884-6.776-18.816 9.165-5.41 8.636-18.62 17.391-24.363 2.961-1.946 10.863-4.48 14.089-4.736 3.046-.248 6.289 2.253 10.171 2.278 23.313.18 40.491 1.613 63.412 5.265zM396.97 806.212c-1.767-1.74-4.89-9.549-7.407-12.791-61.645-79.113-91.443-137.122-114.466-235.742-2.731-11.7-4.608-27.546-8.03-37.769-1.203-3.61-1.622-7.227-6.69-6.767-2.953 2.962-6.153 4.745-6.801 9.362-1.87 13.192-.965 42.59-.06 56.746 5.785 89.916 65.263 192.888 130.713 254.507 29.722 27.972 52.685 43.93 89.54 61.312 8.824 4.164 20.882 11.955 29.407 13.747 2.363.495 4.89-2.492 7.364-2.056 2.492.435 9.745 11.238 9.779 1.032-2.219-4.719-8.422-3.046-10.385-4.565-.777-.606.392-3.397-2.014-4.992-9.916-6.562-24.695-11.819-36.02-20.147-28.654-21.07-50.457-47.736-74.939-71.877zM294.46 795.588c-1.45-1.911-6.75-11.315-9.77-15.82-10.83-16.163-22.981-35.49-31.625-51.883-14.507-27.503-25.814-68.642-33.98-98.014-4.736-17.024-5.282-28.612-3.678-45.841.452-4.847-3.012-15.437-2.287-23.868.53-6.101 8.286-26.982-6.613-22.775-5.7 1.612-3.456 12.399-4.48 17.075-1.127 5.171-6.793 10.428-7.646 16.597-3.755 27.153.529 66.483 7.526 92.135 9.916 36.3 22.998 79.01 42.368 111.18 5.982 9.933 15.403 20.165 17.903 29.312l4.37.794c17.766 36.514 63.479 74.82 102.135 87.927 2.978 1.007 6.724.128 9.745 1.033 9.062 2.73 19.72 13.935 26.06-1.81-4.633-7.517-12.723-9.19-18.79-13.55-21.632-15.53-49.015-36.437-66.1-55.04-6.996-7.612-11.707-17.195-17.347-23.142-2.748-2.893-7.322-3.704-7.791-4.327z"/><path fill="#a94b1f" d="M320.99 424.243c-3.763-18.09-3.32-28.424 18.423-21.086-.247 2.535 2.987 4.566 3.124 4.924 1.902 4.932 3.25 13.363 6.775 18.816 27.657 42.829 51.806 92.305 78.148 137.361 36.566 62.54 77.423 144.964 97.613 214.878 5.06 17.51 14.481 49.869 16.777 66.74.76 5.563-.384 11.784.034 17.467-9.114-3.08-8.039-12.954-11.315-19.66-3.627-7.433-10.48-13.671-10.778-23.058l-4.3-.776c-33.35-80.99-81.733-153.336-123.009-231.39-24.917-47.121-60.953-113.596-71.492-164.224z"/><path fill="#ad5021" d="M396.97 806.212c24.483 24.141 46.285 50.816 74.94 71.877 11.324 8.328 26.112 13.585 36.02 20.147 2.406 1.595 1.237 4.386 2.013 4.992 1.955 1.519 8.167-.145 10.386 4.565-.035 10.197-7.288-.597-9.78-1.032-2.466-.436-5 2.551-7.364 2.056-8.525-1.792-20.582-9.583-29.406-13.747-36.855-17.391-59.818-33.34-89.54-61.312-65.46-61.61-124.937-164.591-130.714-254.507-.913-14.157-1.809-43.554.06-56.746.657-4.617 3.849-6.4 6.801-9.362 5.069-.452 5.479 3.166 6.69 6.767 3.422 10.223 5.3 26.07 8.03 37.769 23.015 98.611 52.821 156.63 114.466 235.742 2.526 3.242 5.65 11.05 7.407 12.791z"/><path fill="#b05222" d="M294.46 795.588c.47.623 5.051 1.425 7.79 4.327 5.65 5.947 10.36 15.53 17.349 23.142 17.092 18.603 44.476 39.5 66.1 55.04 6.066 4.36 14.156 6.025 18.79 13.551-6.34 15.744-16.999 4.54-26.061 1.81-3.021-.914-6.759-.027-9.745-1.033-38.656-13.108-84.378-51.422-102.136-87.928l-4.369-.794c-2.509-9.147-11.93-19.387-17.903-29.312-19.37-32.17-32.452-74.88-42.368-111.18-7.006-25.652-11.29-64.982-7.526-92.135.853-6.17 6.52-11.426 7.646-16.597 1.015-4.676-1.22-15.462 4.48-17.075 14.899-4.216 7.134 16.674 6.613 22.775-.725 8.431 2.73 19.021 2.287 23.868-1.604 17.229-1.058 28.817 3.678 45.841 8.166 29.372 19.473 70.51 33.98 98.014 8.644 16.392 20.795 35.72 31.624 51.883 3.02 4.505 8.32 13.9 9.77 15.82z"/><path fill="#e4ad7a" d="M733.15 817.545c14.174 5.53 37.376 15.018 52.471 13.431 13.056-1.374 27.068-1.442 39.894-3.226 21.512-2.986 59.255-23.09 76.049-37.094 7.936-6.622 13.85-16.128 22.852-21.598-.358.52-.256 3.601-2.569 6.793-11.485 15.846-33.732 23.475-40.32 43.426-.648 3.823 9.575 9.258 3.96 17.263l-22.886 8.098-.146 10.624h10.787l-8.081 8.08c-73.933 20.105-132.864 12.076-195.354-34.969l-28.237-26.99c.572-.444-.418-10.497.435-14.388 3.15-14.276 10.036-31.19 13.662-48.29.785-3.695 1.673-10.854 4.762-12.749-1.135 12.63-2.15 25.08-4.19 37.735l33.86 30.916c16.418 7.765 25.865 16.213 43.068 22.938z"/><path fill="#97c049" d="m611.925 98.287 10.215 15.36c15.3 105.02 16.819 215.031 22.23 322.603.648 12.97-.71 26.214-.12 39.176-6.11 5.18-11.58 10.692-17.562 16.111-7.962 7.21-7.45 12.1-20.147 8.132-.094-.196-1.767-.862-2.697-2.696-5.35-10.564-23.432-31.19-33.63-40.534-5.393-4.94-13.533-8.37-17.152-11.05-6.374-4.736-11.682-17.69-24.644-21.154-7.108-7.458-18.722-14.584-29.244-16.717l-.802-4.275-18.176-10.257c-.375-5.223-.7-10.624-.205-15.838 3.055-32.188 12.425-70 21.496-101.078 9.335-31.983 33.715-80.213 51.592-108.689 13.219-21.06 38.853-56.516 58.855-69.103z"/><path fill="#789e35" d="M762.786 254.532c-3.533 2.381-4.727 3.891-10.777 2.697v1.34c5.538 6.613 10.18 18.9 12.91 27.502 7.407 23.348 8.798 44.493 11.333 68.14 2.005 18.662 4.676 29.183 2.696 48.486-.742 7.253-2.159 14.14-2.884 21.35l-18.662 5.59c-7.185.375-21.64 1.262-27.904 3.071-2.176.632-3.67 3.678-6.272 4.497-8.867 2.8-28.323 6.025-30.772 13.534-14.361 4.156-36.6 14.857-48.196 24.687-.589-12.97.768-26.206.12-39.176-5.41-107.572-6.93-217.583-22.23-322.603l-10.214-15.36c17.886-11.256 22.007-10.232 40.337 1.416 35.652 22.648 68.992 80.026 86.81 117.923 4.42 9.395 7.73 21.683 12.356 30.745 2.901 5.683 4.838 6.998 11.35 6.161"/><path fill="#a58233" d="M501.478 276.079c-9.07 31.07-18.44 68.89-21.495 101.077-.495 5.223-.17 10.624.205 15.838l18.176 10.257.802 4.275c10.521 2.125 22.135 9.25 29.244 16.717-9.72-2.594-6.861-2.782-13.534-6.673-11.571-6.75-24.645-11.28-37.487-15.078l-.324-7.757c-1.639-.76-4.08.341-5.231-.12 5.87-4.155 4.957-2.099 5.401-9.318.947-15.394.546-32.034 2.68-47.258 2.56-18.201 9.531-31.41 10.854-49.843.137-1.97 1.314-3.686 1.963-5.478L474.53 265.3l3.635.393c6.853 4.915 14.439 10.812 23.305 10.385z"/><path fill="#cd7a46" d="M528.418 424.243c12.962 3.456 18.27 16.418 24.644 21.154 3.619 2.688 11.75 6.11 17.152 11.051 10.206 9.344 28.28 29.97 33.63 40.533-9.915-2.449-14.14-14.933-20.232-21.598-15.463-16.921-37.94-33.015-55.202-51.131z"/><path fill="#d79461" d="M959.437 610.116c.205.478 2.97 2.193 4.164 5.189 10.274 25.838-1.11 58.803 3.644 84.701l-5.231 8.389c3.336 11.767 10.41 20.77 8.286 33.63l9.497 2.636c2.432 3.397.598 9.856 1.613 14.533.649 2.995 4.548 6.997 4.446 8.559-.077 1.245-3.388 3.174-4.37 5.845-2.568 6.997-4.624 13.303-8.584 19.703-11.315 18.296-37.299 36.216-55.611 48.111-7.262 4.72-11.435 6.912-19.055 10.565-12.92 6.195-19.857 7.765-33.084 11.366l8.081-8.073h-10.786l.145-10.632 22.886-8.098c5.615-8.005-4.608-13.44-3.96-17.263 6.589-19.96 28.827-27.58 40.32-43.426 2.313-3.192 2.211-6.272 2.57-6.793 22.63-32.631 37.631-59.947 40.524-100.907 1.442-20.42-2.466-38.212-5.504-58.035z"/><path fill="#c15f2e" d="m62.37 567.014-8.072-8.072c4.932-.82 8.84 2.782 8.072 8.072"/></svg>