<svg xmlns="http://www.w3.org/2000/svg" viewBox="0 0 1024 1024"><path fill="#ee5e53" d="M485.634 28.1c-5.871 7.083.973 10.343 4.506 16.359 139.972 238.83 279.04 479.052 416.366 719.07.547.955-.546 2.841 0 3.788-37.154 15.83-72.123 36.6-109.917 51.217-173.884 67.269-391.049 69.564-566.076 4.839-60.297-22.298-116.642-53.99-169.54-90.172 102.05-179.038 204.381-358.093 306.534-536.994 22.238-38.946 42.42-82.219 65.63-120.132 13.986-22.853 25.566-40.252 52.488-47.975zm-88.627 326.503c-5.41 1.578-15.667 15.257-16.913 21-4.557 20.907 3.02 45.654 16.606 61.756 10.769 12.766 16.972 17.818 27.741 1.527 19.03-28.783 20.19-98.15-27.426-84.283zm197.29 22.784c-39.919 8.917-24.072 78.122-.221 97.86 17.809 3.806 35.857-47.625 35.84-62.37-.009-6.298-2.424-20.036-5.778-24.747-4.096-5.751-22.587-12.365-29.832-10.743zM333.8 574.157c-24.243-2.176-65.86 19.362-71.279 44.023-5.828 26.547 24.884 47.838 48.657 33.494 10.147-6.119 17.767-24.55 21.035-35.832 3.943-13.593 7.373-28.697 1.579-41.685zm343.612.153c-15.292 4.36.077 49.937 7.373 60.237 2.5 3.533 16.384 17.724 19.336 18.577 14.03 4.08 29.04 1.16 37.334-11.008 23.082-33.886-32.222-72.14-64.043-67.806M502.735 676.727c-20.907 10.898-31.838 47.079-28.476 69.743 3.251 21.897 28.476 31.198 46.857 20.318 28.68-16.964 5.213-75.136-18.381-90.07z"/><path fill="#83af36" d="M936.834 820.403c.956-.546 2.842.546 3.789 0l15.744 31.642 14.592 21.427C702.287 1036.041 346.617 1042.5 71.033 888.055c-10.077-5.649-68.94-41.676-70.51-47.138-1.818-6.323 1.535-7.44 3.507-11.119 7.142-13.295 15.291-26.598 22.81-39.73l76.987 46.224c269.397 143.07 570.103 133.214 832.998-15.906z"/><path fill="#dbecaf" d="m906.498 767.326 30.336 53.069C673.939 969.506 373.233 979.362 103.836 836.3l-76.988-46.225c10.922-19.08 23.228-37.743 34.125-56.866 52.89 36.18 109.235 67.874 169.54 90.171 175.027 64.726 392.192 62.439 566.076-4.838 37.794-14.618 72.763-35.388 109.917-51.217z"/><path fill="#e14238" d="M959.584 725.632c.828 9.216-9.02 12.63-15.386 16.836-11.562 7.655-25.344 14.652-37.692 21.07C769.18 523.51 630.112 283.29 490.14 44.467c-3.525-6.017-10.377-9.285-4.506-16.36 25.08-7.201 46.746-4.317 69.547 8.176 30.02 16.46 46.455 62.532 63.675 91.767 116.054 197 228.037 398.106 340.728 597.581"/><path fill="#c0d877" d="M997.497 790.076c-9.745-.418-19.54 7.117-27.87 11.946-9.77 5.658-19.225 12.766-29.004 18.381-.947.546-2.833-.546-3.79 0l-30.335-53.069c-.546-.947.546-2.841 0-3.788 12.348-6.426 26.129-13.415 37.692-21.07 6.366-4.215 16.213-7.628 15.385-16.835 12.203 21.606 25.72 42.88 37.914 64.443z"/><path fill="#618c25" d="M997.497 790.076c4.224 7.466 27.452 47.163 26.47 50.952-9.027 7.441-19.14 14.149-28.953 20.497-6.972 4.514-17.75 8.133-24.064 11.956l-14.592-21.428-15.744-31.641c9.788-5.615 19.234-12.723 29.005-18.381 8.329-4.821 18.116-12.356 27.87-11.947z"/><path fill="#f9fafa" d="M333.8 574.157c5.794 12.979 2.364 28.092-1.578 41.685-3.277 11.281-10.897 29.713-21.035 35.832-23.774 14.336-54.494-6.947-48.657-33.494 5.419-24.653 47.036-46.19 71.279-44.023z"/><path fill="#f9f9f8" d="M594.297 377.387c7.245-1.622 25.737 4.992 29.833 10.743 3.354 4.71 5.768 18.45 5.777 24.747.026 14.745-18.022 66.176-35.84 62.37-23.85-19.738-39.697-88.943.222-97.86z"/><path fill="#f9f9f9" d="M677.412 574.31c31.82-4.326 87.125 33.929 64.043 67.806-8.295 12.169-23.305 15.087-37.334 11.008-2.952-.862-16.836-15.044-19.336-18.577-7.296-10.3-22.665-55.885-7.373-60.237"/><path fill="#fafbfa" d="M397.007 354.603c47.616-13.867 46.455 55.5 27.426 84.283-10.77 16.29-16.964 11.239-27.742-1.527-13.585-16.102-21.163-40.85-16.606-61.756 1.255-5.734 11.503-19.422 16.913-21z"/><path fill="#f9f9f9" d="M502.735 676.727c23.594 14.934 47.061 73.106 18.38 90.07-18.38 10.871-43.605 1.578-46.856-20.318-3.362-22.673 7.57-58.854 28.476-69.743z"/></svg>