<svg xmlns="http://www.w3.org/2000/svg" viewBox="0 0 1024 1024"><path fill="#80b33c" d="M764.516 162.09c36.622 9.814 62.72 31.517 78.25 65.138q-21.354 38.443-53.248 88.79c-34.745-53.476-71.054-82.83-108.914-88.078z"/><path fill="#191919" d="M771.868 134.613a28.44 28.44 0 0 0-24.917 5.092l-83.911 65.863c-19.186 15.061-11.662 45.326 11.577 50.19l2.09.37c28.274 3.897 58.283 28.16 88.96 75.392a28.444 28.444 0 0 0 47.887-.284c21.532-33.992 39.552-64.057 54.073-90.212a28.44 28.44 0 0 0 .953-25.742c-19.1-41.316-51.983-68.694-96.712-80.669m-1.777 59.25 2.375.996a82.7 82.7 0 0 1 36.835 30.563l.953 1.494-2.574 4.536-7.438 12.73-3.911 6.584-8.747 14.507-3.129-3.698c-14.791-17.209-30.151-31.004-46.08-41.23l-1.138-.711z"/><path fill="#aec167" d="M305.08 915.058c164.85 44.174 267.165-65.778 397.939-276.196 129.422-208.27 191.004-383.175-4.509-450.29-112.64-38.67-195.513 93.597-284.217 181.519-70.158 69.546-202.823 111.289-257.237 218.183-96.597 189.795 58.738 302.848 148.025 326.784"/><path fill="#def197" d="M276.636 801.28c164.85 44.174 273.039-61.61 397.938-276.196 117.106-201.216 117.106-262.641-8.69-306.915-50.574-8.718-107.207 62.137-195.91 150.044-70.173 69.547-171.578 120.05-230.728 178.575-40.818 40.362-78.506 143.758-78.506 175.189 36.608 37.731 79.928 69.66 115.91 79.303z"/><path fill="#c6da7a" d="M739.954 265.742C690.574 380.274 623.16 483.94 537.728 576.725 671.73 456.704 750.35 315.18 756.921 284.288a89.9 89.9 0 0 0-16.967-18.546m-573.938 410.71c47.588-70.67 121.458-123.691 221.625-159.062C198.77 627.47 195.996 681.984 179.1 775.324c-5.874-9.386-10.24-42.353-13.085-98.872"/><path fill="#191919" d="m447.772 335.004 6.67-7.296 30.024-33.095c64.71-70.684 131.356-134.428 214.044-106.04 193.565 66.446 135.14 238.535 8.363 444.046l-11.748 18.873C568.092 853.66 466.603 958.336 305.067 915.058 215.78 891.122 60.444 778.069 157.042 588.274 211.456 481.38 344.12 439.624 414.279 370.09a1028 1028 0 0 0 33.48-35.087zm232.278-92.629c-41.387-14.194-78.478 8.818-158.222 95.73L496.44 366.08l-6.756 7.396a1066 1066 0 0 1-35.342 37.02c-14.08 13.938-30.123 27.022-49.493 40.832l-6.585 4.622a854 854 0 0 1-19.229 12.942l-24.12 15.531-21.647 13.796c-70.599 45.198-104.789 75.164-125.51 115.868-34.461 67.684-31.048 121.842.426 167.481 25.955 37.632 71.623 67.826 111.616 78.535 116.338 31.175 195.982-29.113 330.795-244.693l4.096-6.585c69.063-111.104 105.784-193.166 111.274-253.213 5.149-56.42-17.394-89.713-85.916-113.237"/><path fill="#d8d8d8" d="M558.876 375.424c-18.773 27.804-95.857 96.27-117.674 109.739m169.785-175.517c-4.992 6.94-11.207 15.019-18.631 24.25"/><path fill="#fff" d="M570.667 383.374a14.222 14.222 0 1 0-23.58-15.914c-15.73 23.324-89.686 90.98-113.352 105.6a14.222 14.222 0 0 0 14.933 24.192c26.937-16.626 103.865-87.012 121.999-113.878m51.868-65.422a14.222 14.222 0 1 0-23.111-16.612l-4.423 6.045c-3.954 5.262-8.533 11.136-13.725 17.579a14.222 14.222 0 0 0 22.144 17.863 576 576 0 0 0 19.115-24.89z"/></svg>