<svg xmlns="http://www.w3.org/2000/svg" viewBox="0 0 1024 1024"><path fill="#4bbd70" d="M584.63 114.347c13.03 4.053 27.87 11.887 40.149 18.526 2.833 1.536 5.547 4.283 9.267 6.178 4.275 5.504 12.194 7.244 15.446 13.892-9.788-6.93-21.103-15.198-31.898-21.376-9.13-5.222-20.975-11.614-31.42-12.587 10.897 11.708 25.344 22.469 35.542 34.705 9.924 11.904 22.707 31.292 28.56 45.543 1.613 3.908 7.664 21.043 6.861 23.876-.708 2.483-15.283 5.171-18.508 6.204-53.385 17.203-105.984 54.895-128.922 107.315-3.95 9.02-11.042 27.46 3.37 30.643 15.958 3.524 17.451-14.37 23.894-25.003 35.38-58.41 101.769-100.633 171.938-93.576 13.61 1.374 28.382 7.953 40.935 13.15 2.61 1.084 4.94-.359 4.89 3.481 88.038 39.902 130.73 158.413 97.876 247.382-1.493 4.053-12.595 23.748-10.035 26.12 20.36 7.237 42.778 16.837 59.426 30.908 49.451 41.805 62.678 123.383 20.847 175.275-36.812 45.67-116.88 34.816-162.713 9.77-9.532-5.205-18.867-11.443-27.256-18.287l10.803 27.785c-6.476-9.899-9.984-16.068-13.9-27.785-6.068-18.167-9.012-33.288-9.268-52.488-.179-13.551.35-25.788 3.414-39.04l12.032-31.966c-6.912-.341-13.995.435-20.915.068-3.098-.162-6.179-1.33-9.967-1.613-32.299-2.389-54.562-7.816-83.388-23.159-11.068-5.888-24.619-14.865-33.971-23.16-2.782-2.466-7.714-10.06-10.77-11.613-5.768-2.944-28.535 5.461-36.385 6.929-17.664 3.31-35.405 4.207-53.223 1.595-.503-.076-1.04.086-1.544 0-.086-.017.384-1.203-.913-1.373-2.262-.308-4.549-.248-6.81-.171-8.525.316-5.043.836-9.233 5.427-1.502 1.647-3.712 2.8-4.668 3.832l.777-7.715c-.999 1.084-2.031 2.108-3.32 2.86-29.329 17.228-60.27 39.278-94.302 46.207-30.088 6.127-60.757-.76-89.173-10.521-27.682 7.637-54.528 18.577-82.287 25.915-45.491 12.024-78.498 4.37-116.147-22.075-24.064-16.905-56.679-46.601-71.868-71.732-1.638-2.705-1.365-7.057-4.65-9.25l-.743 14.635 7.689 37.854c-2.612-1.698-3.49-6-4.25-8.866-14.02-52.6-1.707-96.47 22.784-142.422 11-10.65 17.75-22.075 30.08-32.452 16.06-13.508 32.683-23.697 52.582-30.797 5.581-17.05 12.809-32.085 22.068-47.36.435-.717.034-1.698.273-2.082 4.224-6.801 12.663-14.532 15.445-21.615 2.859-1.655 5.513-4.48 7.748-6.92 30.61-33.34 65.4-50.688 110.046-59.75l1.11-1.264 37.102-2.278 21.581-33.229c11.076-10.53 21.666-22.775 32.427-33.963l19.507-13.687c61.9-40.457 135.919-46.686 205.952-24.909zm-298.565 216.38c-9.258 2.022-12.697 15.948-4.949 21.418 2.176 1.536 5.231 2.38 7.825 2.987 12.484 2.91 24.977 2.457 37.845 6.929 30.123 10.47 49.724 34.244 62.507 62.558 4.216 9.344 5.436 26.146 19.797 22.92 9.174-2.065 10.24-12.373 8.491-20.335-.486-2.218-6.835-16.443-8.303-19.49-22.425-46.583-60.655-73.438-112.597-77.32-2.987-.222-7.8-.29-10.624.324zm-64.861 9.258c-1.34.299-10.19 5.564-11.794 6.733-4.642 3.38-7.748 9.378-6.024 15.206.341 1.152 5.794 6.605 6.946 6.938 7.27 2.125 19.388-3.934 23.774-9.805 4.744-6.357 4.343-13.141-1.536-18.603-2.45-1.254-8.516-1.109-11.366-.477z"/><path fill="#299646" d="M649.483 152.934c13.116 9.285 30.26 29.551 39.339 43.264 2.773 4.19 10.581 21.086 13.124 22.392 16.58 1.724 33.297-.546 49.903 2.594 52.958 10.018 113.835 48.606 135.45 98.475 7.27 16.776 13.977 34.116 18.841 51.404 11.725 41.652 5.811 88.406-11.87 127.702-3.294 7.321-10.18 16.554-12.476 23.04-.571 1.621-.99 2.97-.674 4.71 4.446 2.134 8.875.922 13.09 1.579 22.836 3.541 56.508 17.11 71.851 34.696l10.795 6.964c4.83 4.616 11.503 10.086 15.445 15.436 37.65 51.124 43.998 125.782 6.912 179.038-1.655 2.381-12.237 16.342-13.09 17.016-1.946 1.553-1.434.512-4.565 3.882-21.06 22.708-53.36 40.781-84.267 45.475-3.584.546-9.062-1.536-11.546 1.578-21.341 0-39.961-.563-60.62-6.553-15.079-4.37-29.133-13.014-42.83-20.48-2.329-1.272-1.91-3.448-6.194-3.84-13.594-12.903-21.888-20.95-32.427-37.052l-10.803-27.785c8.388 6.844 17.723 13.082 27.255 18.287 45.824 25.046 125.892 35.9 162.714-9.77 41.83-51.892 28.612-133.479-20.847-175.275-16.649-14.072-39.066-23.672-59.426-30.908-2.56-2.38 8.542-22.076 10.035-26.12 32.845-88.969-9.839-207.48-97.877-247.382.05-3.84-2.279-2.398-4.89-3.481-12.553-5.189-27.324-11.776-40.934-13.15-70.179-7.066-136.56 35.157-171.939 93.576-6.442 10.641-7.936 28.527-23.893 25.003-14.404-3.183-7.313-21.623-3.37-30.643 22.937-52.412 75.545-90.104 128.921-107.315 3.226-1.041 17.8-3.72 18.509-6.204.802-2.833-5.248-19.96-6.86-23.876-5.863-14.251-18.638-33.639-28.562-45.543-10.206-12.237-24.644-22.997-35.541-34.705 10.444.973 22.289 7.364 31.42 12.587 10.794 6.178 22.11 14.447 31.897 21.376z"/><path fill="#289645" d="m10.166 575.932-7.689-37.854.743-14.635c3.276 2.193 3.012 6.545 4.65 9.25 15.181 25.131 47.804 54.827 71.868 71.732 37.649 26.453 70.656 34.099 116.147 22.075 27.76-7.338 54.605-18.278 82.287-25.915 28.416 9.77 59.093 16.648 89.173 10.521 34.031-6.929 64.973-28.98 94.302-46.208 1.289-.76 2.321-1.775 3.32-2.859l-.777 7.715c-14.669 15.931-28.407 30.84-47.872 41.685l-2.082.23c-2.227 1.878-4.608 3.124-7.185 4.404-33.442 16.674-66.73 27.076-104.269 24.73-8.158-.513-16.333-.94-24.482-1.375-45.073 40.713-105.532 53.675-163.567 36.54-7.987-2.355-17.126-4.745-22.724-11.247l-20.062-8.5c-23.697-15.888-45.508-38.135-57.14-64.835-1.612-3.704-3.609-11.256-4.633-15.437z"/><path fill="#299746" d="M286.065 330.726c2.825-.614 7.638-.546 10.624-.324 51.951 3.883 90.172 30.737 112.598 77.32 1.467 3.047 7.816 17.264 8.303 19.49 1.749 7.962.682 18.27-8.491 20.336-14.362 3.225-15.582-13.577-19.797-22.92-12.783-28.314-32.384-52.08-62.507-62.559-12.868-4.471-25.37-4.027-37.845-6.929-2.594-.606-5.65-1.442-7.825-2.986-7.749-5.47-4.31-19.397 4.949-21.42z"/><path fill="#2a9748" d="M221.204 339.985c2.858-.631 8.917-.776 11.366.478 5.88 5.453 6.28 12.245 1.536 18.603-4.386 5.88-16.504 11.93-23.774 9.804-1.152-.34-6.605-5.785-6.946-6.937-1.724-5.828 1.382-11.827 6.024-15.207 1.613-1.169 10.454-6.434 11.794-6.732z"/><path fill="#dbe7dc" d="m705.078 611.439 4.633 4.625c-1.86 0-3.652.777-5.18 1.775-7.5 4.89-18.005 11.332-24.157 16.76-.794-4.728 1.723-21.889-1.477-23.996-11.272-1.4-22.348-4.753-32.938-8.756-7.62-2.884-15.138-7.859-21.99-10.436-2.015-.76-2.714.214-2.305 2.21l-6.144 19.362v-6.178l6.178-18.526c28.826 15.335 51.098 20.77 83.388 23.16z"/><path fill="#a8dd6a" d="m485.797 562.04-6.81-.171-.913-1.374c2.261-.085 4.548-.145 6.81.17 1.288.18.827 1.366.913 1.374"/><path fill="#44ac63" d="M887.298 319.667c2.612.7 3.363 3.473 4.404 5.632 5.316 10.966 9.566 22.511 12.817 34.279 16.845 5.683 31.77 11.912 46.029 22.681 11.101 8.388 26.214 25.336 32.494 37.76 14.294 28.28 16.649 70.69 5.462 100.403-4.762 12.647-14.473 25.48-22.306 36.412-1.434 4.71 4.318 6 6.835 8.277 1.68 1.52 2.73 3.61 3.831 4.66l-10.794-6.964c-15.343-17.578-49.007-31.146-71.851-34.696-4.215-.657-8.644.555-13.09-1.579-.316-1.75.102-3.089.674-4.71 2.287-6.485 9.173-15.71 12.476-23.04 17.672-39.296 23.594-86.05 11.87-127.701-4.864-17.28-11.58-34.629-18.842-51.405z"/><path fill="#43a963" d="M407.034 616.073c-1.237 2.32-4.924 4.787-7.177 5.947-27.588 14.268-69.23 23.731-100.224 21.905-4.138-.247-8.362-2.756-13.056-1.612l28.596 58.632c11.451 29.867 25.292 61.073 32.853 92.203 1.084 4.463 2.85 10.65.324 14.344-7.279 3.661-13.619 8.994-20.079 13.893-.563.153-1.34-.154-2.133.179s-.751 1.211-.956 1.365l-28.945 10.428c-60.655 15.292-118.656-3.277-160.93-46.737-2.355-2.424-4.864-5.265-7.79-6.92-2.476-6.47-7.826-11.034-11.504-17.059-10.36-16.964-20.66-44.262-22.434-64.026-.794-8.849 1.1-19.362.017-27.852-.299-2.347-1.246-1.826-1.587-2.219-2.611-2.987-4.207-2.03-6.64-3.405-4.76-2.68-8.985-5.965-13.44-8.951l20.063 8.499c5.598 6.502 14.737 8.892 22.724 11.247 58.035 17.135 118.494 4.181 163.567-36.54 8.15.435 16.333.862 24.482 1.374 37.538 2.347 70.827-8.055 104.269-24.73z"/><path fill="#fafcf8" d="M430.202 648.49c-.18-.417.094-1.27-.23-2.099-.862-2.184-4.045-3.413-2.85-7.159h35.515c2.304 2.193-9.651 32.222-11.571 37.06l-5.419-1.561c-4.232-8.756-11.28-16.768-15.445-26.24"/><path fill="#e9f0e5" d="M356.073 827.563c-.06-.154-.905-.325-1.255-1.093-1.058-2.389-1.288-6.365-2.551-8.226-1.527-2.253-10.692-1.903-13.705-1.237-2.816.623-5.563 3.115-10.29 4.378 6.459-4.899 12.79-10.232 20.078-13.893 7.126.683 6.912 14.131 7.723 20.07"/><path fill="#dee7de" d="M986.132 781.252v1.545c-5.155 5.777-10.386 11.853-16.188 17.015-5.479 4.873-16.196 8.627-14.712 16.947-13.184-1.51-24.311 6.622-36.659 10.428-8.26 2.543-16.708 3.798-25.105 5.01h-7.723c2.484-3.115 7.962-1.033 11.546-1.58 30.908-4.701 63.206-22.766 84.267-45.474 3.131-3.379 2.61-2.33 4.565-3.882z"/><path fill="#e7ebe8" d="M127.525 779.708c2.927 1.664 5.435 4.505 7.79 6.92 42.275 43.46 100.276 62.02 160.93 46.737l28.946-10.427c-3.482 2.662-6.87 4.386-10.812 6.178-24.678 11.213-64.53 14.302-91.11 9.258-12.254-2.32-25.14-7.125-36.6-12.04-3.157-1.357-17.195-9.575-18.219-9.575h-36.292c.162-6.946-.188-13.943-.068-20.906.068-3.798 2.432-4.139.068-8.431-1.792-3.251-3.063-3.627-4.633-7.723z"/><path fill="#a8dd6a" d="M587.719 565.129c-.751 5.76-2.936 11.972-4.967 17.416-35.31 94.746-70.52 223.753-58.376 324.557.452 3.746-1.22 8.124 1.51 10.837 2.193 1.468 40.772.922 47.232.777 18.569-.41 35.226-.751 53.914 0 8.473.341 17.066-.376 25.532-.077-.82-3.166 1.271-5.93 1.518-8.516 2.27-23.254 5.018-40.295 13.142-62.507 1.229-3.37 2.867-8.363 5.418-10.786-5.922 15.454-15.522 46.438-16.955 62.558-.401 4.557 1.314 18.218-1.51 20.104l-2.33.751-277.82-.239c-6.323-1.826-3.558-13.781-3.985-19.174-1.306-16.41-4.617-37.308-8.15-53.607-.46-2.133-.947-6.212-2.73-7.304-.717-5.624-1.11-7.441-3.09-12.348-.81-5.939-.596-19.388-7.722-20.07 2.535-3.695.76-9.882-.324-14.345-7.56-31.13-21.402-62.336-32.853-92.202l-28.596-58.633c4.702-1.143 8.918 1.365 13.056 1.613 30.985 1.826 72.636-7.637 100.224-21.905 2.253-1.16 5.94-3.635 7.177-5.948 2.568-1.28 4.958-2.526 7.185-4.403l2.082-.23-7.56 6.929 11.357 16.298c3.252 4.66 5.206 11 10.104 13.824 4.164 9.472 11.213 17.485 15.445 26.24.632 1.306 1.067 4.489 1.587 6.161h4.557c2.065-8.37 6.153-16.136 8.969-24.243 9.42-27.06 19.302-56.064 27.801-83.354.53-1.69 1.272-4.462 1.596-6.16.888-4.651-.435-2.62-2.816-5.095 17.818 2.603 35.559 1.707 53.223-1.596 7.85-1.467 30.609-9.873 36.386-6.929 3.055 1.562 7.987 9.148 10.769 11.614z"/><path fill="#80ac49" d="m621.69 588.28-6.178 18.525c-12.416 49.024-21.026 101.146-24.772 151.996-.495 6.699 1.518 20.77 3.874 27.136 2.816 7.612 14.378 19.328 23.04 16.742 4.702-1.399 18.483-21.794 22.536-26.871 11.204-14.003 22.127-28.186 34.04-41.617l46.302-50.202c.256 19.2 3.2 34.321 9.267 52.489-2.654.776-3.55 3.08-4.924 5.12-19.874 29.448-39.424 61.832-52.215 95.232-2.552 2.423-4.19 7.424-5.42 10.786-8.131 22.204-10.87 39.253-13.14 62.507-.256 2.594-2.347 5.35-1.52 8.516-8.464-.307-17.058.418-25.531.077-18.688-.751-35.345-.41-53.914 0-6.46.145-45.03.69-47.232-.777-2.73-2.713-1.058-7.091-1.51-10.837-12.135-100.804 23.065-229.811 58.376-324.557 2.031-5.444 4.216-11.656 4.967-17.416 9.352 8.294 22.903 17.271 33.971 23.159z"/><path fill="#a8dc6b" d="M615.512 612.983c0 1.016.085 2.083 0 3.09-1.775 1.092-2.27 5.18-2.73 7.304-7.024 32.777-11.162 65.519-15.83 98.415-.973 6.844-4.275 13.577-3.055 20.873 5.973-5.257 8.67-14.004 12.595-20.6 17.075-28.706 45.79-62.575 70.793-84.378 1.373-1.194 2.27-2.363 3.089-3.089 6.16-5.427 16.665-11.87 24.158-16.76 1.527-.997 3.319-1.783 5.18-1.774l-4.634-4.625c3.788.282 6.878 1.442 9.967 1.613 6.92.375 13.994-.41 20.915-.069l-12.032 31.966c-3.064 13.261-3.593 25.498-3.414 39.04l-46.301 50.202c-11.913 13.431-22.836 27.614-34.04 41.617-4.053 5.069-17.835 25.463-22.536 26.871-8.662 2.586-20.224-9.13-23.04-16.742-2.356-6.374-4.37-20.437-3.875-27.136 3.747-50.85 12.357-102.963 24.773-151.996v6.178z"/><path fill="#ededed" d="M465.718 920.192c-2.893 2.807-9.242 1.527-13.125 1.545-9.258.034-18.534.076-27.793 0-2.543-.026-7.21 1.134-8.499-1.536 16.376-.427 33.033-.197 49.417 0zm-106.556-80.273c.068.503-.077 1.041 0 1.544l-1.297-.972c-1.408-4.31-1.229-8.781-1.792-12.92 1.98 4.907 2.372 6.724 3.089 12.348"/></svg>