<svg xmlns="http://www.w3.org/2000/svg" viewBox="0 0 1024 1024"><path fill="#f1972d" d="M847.347 192.269c8.542 5.828 17.118 12.313 21.683 24.038 12.467 32.077 14.003 73.847 10.47 108.134-9.036 87.756-31.82 165.145-63.94 247.09-8.26 21.069-17.254 40.601-26.751 61.081-50.108 108.023-146.705 255.82-245.58 322.123l-2.116-3.063 10.095-20.267c9.489-19.063 9.438-28.441 17.843-43.69 2.253-1.34 7.22-4.66 9.088-6.801l25.531-29.26c2.868-3.286 5.726-6.665 8.133-8.696l-2.919 6.818c-.495.281 3.183-.58 4.07-1.17l4.873-3.25c1.118-.751 4.147 2.04 5.615 3.242 8.312 6.852 16.427-3.72 20.343-8.712l10.693-13.62 13.824-17.612c6.493-8.269 13.55-16.341 19.2-25.14l16.042-24.993 12.04-19.064 7.885-13.559 15.71-27.008 8.422-15.488c9.208-16.921 16.743-33.988 24.141-51.711l8.2-19.661 14.243-35.627 5.88-15.735 9.573-26.044c17.366-47.265 23.757-59.374 33.715-111.077 1.733-9.012 2.467-17.05 3.875-27.853l-6.861 1.032-5.197 7.305c.29-6.673 1.024-13.875 2.44-21.308l2.765-14.49c1.596-8.37 2.27-15.786 2.398-24.567-6.895 8.61-10.112 28.596-14.327 39.749l-17.45 46.199-21.095 51.652c-6.135 15.027-13.047 29.252-21 43.57l-30.558 55.006-12.228 23.748c-1.545 2.996-2.782 7.612-4.07 13.073 5.06-4.667 9.446-9.429 13.55-15.317l12.98-18.585c19.395-27.785 35.95-56.986 47.521-88.994 2.833-7.842 4.992-16.051 8.192-23.415l7.987-18.347c.836-1.92 5.342-5.393 6.58-5.768-.359 2.278-1.272 7.227-2.21 9.83l-12.698 35.012-9.327 25.728-5.845 15.343-9.071 22.203-4.088 9.942-14.19 33.365c-8.056 18.935-16.3 36.719-26.18 53.35l.076-5.316-26.71 32.742-25.275 29.44c-4.608 5.367-14.728 11.213-21.546 10.01-3.038-.538-2.074-8.082-.837-10.377 7.416-13.773 13.816-26.206 19.874-40.081l32.546-74.444 7.672-19.397 12.134-29.277c.666-1.613-2.799-6.69-3.968-5.846-9.096 6.614-9.822 13.056-12.51 19.661l-22.894 56.226-11.657 27.656-11.161 27.222c-2.97 7.236-6.315 14.25-9.763 21.742l-16.494 35.917c-.982 2.133 5.316 7.979 7.611 7.475l18.492-4.002c-1.818 4.446-4.335 10.598-7.185 14.694l-24.218 34.782-14.003 19.533-22.382 30.148-11.657 14.387c-5.436 6.716-11.29 12.706-17.271 17.792 1.288-6.57 2.688-14.43 3.456-21.777l4.556-43.503c1.289-12.313 1.57-24.789 1.63-36.411l2.176-1.997-.12-19.695c12.041-16.76 23.706-33.007 34.612-50.577l29.235-47.086c9.728-15.668 19.123-30.533 30.302-45.517 3.097-4.156 21.486-20.548 22.45-27.836l-24.08 12.305c-3.866 1.972-10.735 8.602-13.133 12.288l-17.886 27.46-25.574 40.909-8.627 13.397c-3.311 5.137-6.784 9.976-10.564 15.053l-12.212 16.367c-1.092 1.46-5.555 4.053-6.647 4.429l-1.519-36.702-1.169-22.502c3.38-3.371 7.97-8.226 10.812-12.74l33.655-53.564c9.941-15.82 19.831-30.165 31.548-44.714 5.145-6.392 10.077-14.473 14.037-21.76l19.345-35.652c2.73-5.026 5.751-10.018 8.874-14.61l26.889-39.577 16.674-24.516c6.451-9.48 17.152-8.064 15.94-12.604l-1.681-6.348c-.7-2.637-9.651-3.584-11.861-1.528-4.489 4.164-10.522 11.307-14.345 16.572l-30.805 42.436c-5.29 7.296-10.777 15.172-15.3 22.997l-13.739 23.774c-11.102 19.217-22.647 37.273-34.773 55.816l-13.056 19.977-15.155 23.184-25.48 37.888c-.845 1.255-3.209 3.644-3.73 4.105l-3.131-25.83-1.724-16.53.623-14.378 16.47-23.356 23.637-33.69 44.654-66.67 34.125-51.507 28.211-40.806 8.038-11.102 16.495-23.398c5.769-8.175 10.018-15.607 15.24-24.499-6.11-2.978-29.9 27.69-33.416 32.358l-30.48 40.516-29.15 42.18-19.78 27.81-43.657 65.28-20.923 31.522-8.704 12.501c-1.118 1.605-4.557 4.455-5.863 5.35l-3.643-19.233-3.823-22.767.648-14.02c-.136-1.238.657-5.99 1.707-7.39l10.308-13.696 14.669-21.18 18.048-24.26 35.046-45.926 39.995-50.159c5.24-6.57 10.667-13.371 16.137-19.413l22.434-24.755 21.572-23.808 13.773-14.925 33.288-33.527c2.893-2.918 5.146-7.228 5.35-10.667 13.833-7.509 35.286-21.683 52.301-17.186zm-186.563 374.74c13.397.827 23.62-13.176 32.315-22.614 13.235-14.361 18.85-24.883 27.05-42.564l-.75-6.912-14.618 18.475c-3.421 4.326-8.183 9.335-12.296 13.354l-19.49 19.03c-.674.665-20.343 20.735-12.211 21.239z"/><path fill="#ce6418" d="M847.347 192.269c-17.024-4.497-38.477 9.677-52.3 17.186-38.835 21.086-63.07 38.835-97.34 68.565-4.13 3.584-8.823 7.467-12.603 11.187l-29.927 29.542c-9.105 8.986-17.809 18.219-26.359 27.776l-18.236 20.386-15.01 18.057-11.93 14.259-11.946 14.37-8.209 10.427-16.017 20.532 10.325 46.72c3.43 15.513.035 20.01 4.267 21.879l3.823 22.766 3.644 19.235 1.45 10.393c2.134 15.258-1.527 18.97 3.03 21.504l1.723 16.529 3.132 25.83.836 13.602c.171 2.757 1.246 5.709 1.323 7.27l1.17 22.503 1.518 36.702.196 26.419-.12 24.09c-.059 11.621-.34 24.097-1.629 36.41l-4.557 43.503c-.768 7.348-2.167 15.198-3.456 21.777l-5.103 26.035c-8.396 15.25-8.345 24.627-17.843 43.69l-10.095 20.267 2.117 3.064-5.982 5.939c-5.146 5.103-9.6 11.11-14.507 16.956-24.678 29.431-57.173 44.552-95.931 45.712l-21.751.649-2.296-2.355 30.473-.606c103.73-61.303 100.684-299.774 90.051-403.633-3.763-36.804-7.808-71.97-15.138-107.75L496.433 452.5c-10.735-52.411-24.73-102.8-43.264-153.113L441.35 267.32c-11.067-30.029-23.56-58.572-38.22-87.03l-26.547-51.559c-10.19-19.789-44.621-71.236-60.408-86.86l-9.907-9.805c-4.53-4.489-11.904-8.184-17.305-10.232-8.098-7.1-19.618-11.17-30.703-10.632-1.929.094-5.402.597-7.518.887 22.144-16.042 46.9-15.965 71.27-.674 8.917 5.59 17.75 11.375 25.37 18.048 33.851 29.653 61.653 69.692 83.856 108.748 48.085 84.574 74.266 160.614 103.185 253.78 54.664-64.81 106.922-117.528 173.831-165.4l35.926-21.333c18.26-10.846 38.988-18.39 59.86-22.366 17.05-3.251 31.207 1.126 43.29 9.378z"/><path fill="#f39b30" d="M258.269 11.21c-.376.725-3.943 4.266-4.156 5.845l-1.724 12.851c-1.715 5.111-3.046 9.438-4.241 14.362l-2.688 11.084c-.674 20.821-12.962 7.313-7.697 28.177-6.613 10.923-12.843 23.083-16.99 35.789l-7.654 23.45c-1.212 3.711-5.222 10.359-6.025 14.147l-3.993 18.859c-.99 4.668-1.468 9.114-2.355 14.088l-2.85 15.958-4.028 22.69-1.57 22.348-4.71 14.217c-8.15 24.584-6.69 11.008-10.275 26.197-.964 4.096-1.834 8.175-2.509 12.45l-4.19 26.539c-.767 4.838-1.484 11.912-1.62 16.554l-.769 26.155-4.59 6.775-2.083 22.776c-.486 5.341.785 10.845 3.192 15.726-6.998 27.41 7.842 20.728-3.388 38.63l1.604 8.833-4.753 6.758 6.707 8.354.632 40.798c.025 1.408-3.345 5.87-2.415 6.656l4.608 3.89c.025 6.52-.094 13.919.46 21.402l1.759 23.629c3.336 44.928 25.326 134.834 43.912 176.375l8.926 19.95c4.659 10.411 12.919 32.418 22.51 35.815 4.557-10.48 2.407-14.652-1.024-26.454-5.913-20.334-11.042-39.714-15.001-60.697-3.157-16.75-3.9-32.81-7.04-49.834.572-1.971 3.96-7.407 3.772-9.882l-1.05-14.029-1.331-17.006c-.248-3.209 1.186-7.843 3.695-9.293 3.2 9.412 9.566 33.996 17.621 39.825 3.038 17.561 7.228 10.018 8.994 23.85l2.415 18.876c1.391 1.288 6.639 5.256 7.586 7.228l7.774 16.162 8.388 1.058.734 19.114c.742 19.448 4.463 38.28 11.366 56.602l13.457 35.72c4.583 12.16 16.282 43.776 10.47 54.895 1.972 2.176 7.425 6.92 10.872 9.395 2.193 1.57 9.967-4.241 9.378-7.143-2.782-13.704-5.939-26.76-10.129-39.492l-7.236-22.007c-14.165-43.05-19.627-49.843-21.76-97.655-.623-13.986 1.621-39.748 1.092-42.53 8.32 3.814 3.678 5.35 11.358 23.714.982 2.338 7.834 6.05 9.703 4.429 3.276-2.842 8.823-10.556 9.497-14.788l5.094-31.975c-.503-5.248-.571-9.676-.221-14.498l1.86-25.471 3.678-13.005c.657 2.09 1.408 5.802 1.868 9.43l7.34 57.292 4.325 37.99 8.056 66.542c4.377 36.139 13.039 71.04 27.452 104.09l12.885 29.542c6.835 15.675 13.747 41.668 4.702 59.639-4.08 8.115-21.982 26.863-29.517 25.122-53.325-15.992-99.268-74.692-126.515-122.948-55.022-97.458-86.561-228.683-98.85-340.017-8.968-81.246-10.043-129.05-6.007-209.97 4.062-81.442 21.445-186.811 55.296-261.17 7.5-16.47 16.75-31.565 27.255-46.413 6.298-8.9 15.07-15.633 23.126-21.478 2.116-.29 5.589-.794 7.517-.887z"/><path fill="#eb8924" d="M402.763 1021.645c-2.313.042-26.539-4.753-26.317-7.552 7.535 1.732 25.43-17.016 29.517-25.122 9.045-17.971 2.133-43.964-4.702-59.64l10.01 2.672c2.713.725 5.418-8.056 4.155-10.83-17.1-37.622-29.073-75.015-34.858-115.668l-4.105-28.85-1.553-14.55c2.859-1.4 6.852-.896 10.479 1.092 15.949 8.764-2.09 7.168 17.169 13.943l13.943 4.916 1.587 14.14c2.62.92 8.508-.3 10.65-2.629l5.99 16.162c6.179 16.649 10.42 24.448 24.61 34.116 5.718 3.9 17.272.427 20.625-6.34 5.214-10.53 7.936-22.178 9.694-33.766 7.936-52.258 10.795-109.534 7.049-162.167-4.002-56.243-20.583-136.422-35.704-191.333l-9.139-33.178-16.81-53.196-3.644-12.723c5.436.827-11.853-55.5-13.815-61.764-12.365-39.39-24.952-77.158-42.334-114.363l-19.652-42.087-13.91-28.842c-5.973-12.39-27.408-46.6-36.036-56.985L291.49 30.06c-1.468-1.767-2.671-6.05-2.5-8.218 5.4 2.04 12.774 5.743 17.305 10.231l9.907 9.805c15.787 15.625 50.21 67.072 60.407 86.86l26.547 51.559c14.652 28.458 27.153 57.002 38.22 87.03l11.82 32.069c18.534 50.312 32.528 100.701 43.263 153.113l11.708 57.156c7.33 35.78 11.375 70.945 15.138 107.75 10.632 103.867 13.679 342.33-90.052 403.632l-30.472.606z"/><path fill="#f5a743" d="M611.794 842.958c.205-.487.128-1.485.145-2.193 2.44-1.758 5.658-4.72 7.373-7.185l13.517-19.388 14.575-20.915c19.208-27.563 36.223-55.407 53.384-84.292l34.457-57.984c9.882-16.631 18.133-34.414 26.18-53.35l14.191-33.365 4.088-9.941 9.07-22.204 5.846-15.343 9.327-25.727 12.697-35.013c.947-2.602 1.852-7.552 2.21-9.83l11.862-30.703 4.446-11.52 5.196-7.304 6.861-1.033c-1.408 10.803-2.142 18.85-3.874 27.853-9.958 51.712-16.341 63.82-33.715 111.078l-9.574 26.043-5.88 15.736-14.242 35.626-8.2 19.661c-7.399 17.724-14.934 34.79-24.141 51.712l-8.422 15.488-15.71 27.007-7.885 13.56-12.04 19.063-16.043 24.994c-5.65 8.798-12.715 16.87-19.2 25.14L654.47 826.24l-10.692 13.62c-3.925 5-12.032 15.564-20.343 8.712-1.468-1.204-4.497-3.994-5.615-3.243l-4.873 3.251c-.887.598-4.565 1.45-4.07 1.17l2.918-6.819z"/><path fill="#e5801f" d="M562.062 513.172c-4.232-1.87-.845-6.375-4.267-21.88l-10.325-46.72 16.017-20.53 8.21-10.428 11.946-14.37 11.93-14.26 15.01-18.056 18.235-20.386c8.55-9.557 17.254-18.79 26.36-27.776l29.926-29.542c3.771-3.72 8.473-7.603 12.603-11.187 34.27-29.739 58.505-47.48 97.34-68.565-.205 3.439-2.45 7.748-5.35 10.667l-33.29 33.527-13.772 14.925-21.572 23.807-22.434 24.756c-5.478 6.041-10.897 12.842-16.137 19.413l-39.995 50.158-35.046 45.927-18.048 24.26-14.669 21.18-10.308 13.695c-1.058 1.4-1.843 6.153-1.707 7.39l-.648 14.02z"/><path fill="#e07f1c" d="m735.245 650.993-34.457 57.984c-17.16 28.885-34.176 56.729-53.384 84.291l-14.575 20.915-13.517 19.388c-2.432 1.988-5.265 4.762-7.373 7.185-.017.708.06 1.715-.145 2.193-2.406 2.031-5.256 5.41-8.132 8.696l-25.532 29.26c-1.868 2.142-6.835 5.462-9.088 6.801l5.103-26.035c5.982-5.094 11.827-11.084 17.272-17.792l11.656-14.387 22.383-30.148 14.003-19.533 24.218-34.781c2.85-4.096 5.358-10.249 7.185-14.695l-18.492 4.003c-2.296.494-8.593-5.342-7.612-7.476l16.495-35.916c3.439-7.492 6.793-14.507 9.762-21.743l11.162-27.221 11.656-27.657 22.895-56.226c2.688-6.604 3.413-13.047 12.51-19.66 1.169-.854 4.642 4.224 3.968 5.845l-12.135 29.278-7.671 19.396-32.546 74.444c-6.067 13.876-12.459 26.3-19.874 40.081-1.237 2.296-2.202 9.848.836 10.377 6.818 1.203 16.939-4.634 21.547-10.01l25.275-29.44 26.71-32.742-.077 5.316z"/><path fill="#e07d1a" d="M581.032 650.293c-.077-1.553-1.152-4.505-1.323-7.27l-.836-13.602c.529-.461 2.893-2.85 3.729-4.105l25.48-37.888 15.155-23.185 13.056-19.976c12.126-18.543 23.672-36.6 34.773-55.816l13.739-23.774c4.523-7.825 10.01-15.71 15.3-22.997l30.805-42.436c3.823-5.265 9.856-12.408 14.345-16.572 2.21-2.056 11.161-1.1 11.861 1.528l1.681 6.348c1.203 4.549-9.497 3.124-15.94 12.604l-16.674 24.516-26.889 39.578a173 173 0 0 0-8.874 14.609l-19.345 35.652c-3.96 7.287-8.883 15.368-14.037 21.76-11.708 14.549-21.607 28.893-31.548 44.714l-33.655 53.563c-2.842 4.523-7.433 9.37-10.812 12.74z"/><path fill="#e07c19" d="M574.009 587.061c-4.566-2.534-.905-6.237-3.03-21.503l-1.45-10.394c1.305-.887 4.744-3.738 5.862-5.35l8.704-12.502 20.924-31.522 43.656-65.28 19.78-27.81 29.15-42.18 30.48-40.515c3.517-4.668 27.307-35.337 33.417-32.359-5.222 8.892-9.48 16.325-15.24 24.5l-16.495 23.398-8.038 11.102-28.212 40.806-34.124 51.507-44.655 66.67-23.637 33.69-16.47 23.355-.622 14.379z"/><path fill="#e5861e" d="m835.17 404.005-4.446 11.52-11.861 30.703c-1.237.367-5.743 3.849-6.58 5.769l-7.986 18.346c-3.2 7.356-5.36 15.565-8.192 23.415-11.563 32.009-28.126 61.21-47.522 88.994l-12.98 18.586c-4.104 5.888-8.49 10.64-13.55 15.317 1.288-5.453 2.526-10.07 4.07-13.073l12.228-23.748 30.558-55.006c7.953-14.319 14.865-28.544 21-43.57l21.095-51.653 17.45-46.199c4.216-11.153 7.433-31.147 14.328-39.748-.128 8.772-.794 16.196-2.398 24.567l-2.765 14.49c-1.416 7.432-2.15 14.634-2.44 21.307z"/><path fill="#dc791b" d="m583.788 759.997.12-24.09-.197-26.418c1.092-.376 5.555-2.961 6.648-4.43l12.21-16.366c3.78-5.069 7.262-9.907 10.565-15.053l8.627-13.397 25.574-40.909 17.886-27.46c2.398-3.686 9.267-10.316 13.133-12.288l24.08-12.305c-.972 7.288-19.353 23.689-22.45 27.836-11.179 14.993-20.574 29.858-30.302 45.516l-29.235 47.087c-10.906 17.57-22.57 33.826-34.611 50.577l.12 19.695-2.177 1.997z"/><path fill="#e4821d" d="M660.784 567.008c-8.132-.503 11.528-20.574 12.21-21.24l19.49-19.028c4.114-4.011 8.876-9.029 12.297-13.355L719.4 494.91l.75 6.912c-8.2 17.673-13.806 28.203-27.05 42.564-8.695 9.438-18.918 23.433-32.315 22.614z"/><path fill="#f49e34" d="M288.971 21.842c-.179 2.167 1.024 6.451 2.5 8.218l14.174 17.04c8.636 10.377 30.063 44.596 36.036 56.986l13.91 28.842 19.652 42.087c17.374 37.205 29.96 74.973 42.333 114.363 1.963 6.255 19.252 62.591 13.816 61.764l-6.127-10.693c-1.263-2.201-2.859-4.428-5.444-8.174l2.68 16.477 2.124 12.024c-2.15 5.418-6.025 10.538-10.743 15.76l5.717 9.968c-6.895.281-16.52-4.839-15.232-10.522l4.045-17.775-7.953-2.193c-15.002-4.13.614-1.323-9.592-20.855l-10.607-20.292c-2.133-4.08-4.275-7.544-7.833-8.55-1.255-5.402-3.567-12.272-5.479-18.544l-11.093-36.496c-6.826-22.477-17.783-65.647-32.332-79.343l3.089 15.59 5.981 30.174c.632 3.192.99 8.866 1.23 11.605 8.712 15.608 4.957 13.645 14.096 34.176 6.656 14.959 8.747 30.421 12.69 45.15-5.274 12.407 5.333 17.92-2.902 23.279l-5.521 3.592c-2.38 1.545 1.775 8.772 2.756 10.24.64.964-2.927 2.509-4.24 3.183l-9.789 5.043-2.645 42.47c-.691 11.102-3.123 24.636-.845 35.559l6.042 28.927-12.68 12.263c.674.102-2.646-.41-3.84-.59-1.647-4.36-3.38-9.599-7.715-13.473-3.814-3.405-10.36.981-12.177 4.65-2.389 4.83-4.3 7.68-7.1 11.068-2.713-6.81-4.787-12.518-5.128-18.432l-3.533-62.216c-1.544-27.28-2.04-53.452-4.992-80.674l-2.04-18.833-2.952-26.47-9.062-109.106c-.444-5.317-5.751-37.018-8.311-18.663l-2.936 21.06c-2.201 15.83-.93 58.274.683 74.42l4.898 48.946 2.108 18.074 3.703 24.797c6.724 45.065-3.533 48.725 1.681 92.416l4.156 34.816c1.672 14.028 7.518 53.316 16.529 62.463.52.52 2.97-2.56 3.132-3.404l4.804-25.378c.973-5.129 3.507-9.592 7.654-14.584 3.661 3.832 8.039 10.044 8.346 13.628l4.411 51.293c.828 9.635 4.361 19.96 6.213 28.587l8.405 39.193c1.11 5.154 1.314 12.75 1.587 17.656l-3.678 13.004-1.86 25.472c-.35 4.822-.29 9.25.222 14.498l-5.094 31.975c-.675 4.232-6.221 11.946-9.498 14.788-1.877 1.63-8.73-2.082-9.702-4.429-7.68-18.372-3.047-19.9-11.358-23.714l-6.887-35.823-13.235-69.734c-4.113-21.683-4.957-42.478-20.18-57.924-1.238-1.254-8.278-1.8-9.106-.213l-4.804 9.148c-6.485 12.356-11.665 9.48-15.164 13.098l-9.608 9.942c-1.87 1.937-3.465 9.002-2.663 11.613l2.458 8.056c-2.748 11.212-2.842 30.54 8.183 35.669.077.538 0 1.604-.025 2.27-2.5 1.45-3.943 6.084-3.695 9.293l1.331 17.006 1.05 14.03c.187 2.482-3.2 7.91-3.772 9.88l-5.982-32.434-11.23-84.241-1.97-21.41-3.192-43.562c-1.57-21.419-4.07-42.556-11.29-63.01-7.321-20.736-7.45-14.148-5.59-38.485l2.091-27.384 2.031-26.956c.845-11.196 1.272-21.905 1.528-33.289l.239-10.82c-4.045-8.627-9.14 36.062-9.395 38.656l-2.458 24.362-.862 9.455-2.295 39.049-2.458 41.429-1.425 24.277-1.826 10.539-.427 53.64-4.608-3.891c-.921-.777 2.44-5.24 2.415-6.656l-.631-40.798-6.707-8.354 4.753-6.758-1.605-8.832c11.239-17.895-3.61-11.213 3.388-38.63-2.406-4.882-3.678-10.386-3.191-15.727l2.082-22.776 4.59-6.775.769-26.155c.136-4.642.853-11.716 1.621-16.554l4.19-26.539c.674-4.275 1.544-8.354 2.509-12.45 3.575-15.198 2.124-1.621 10.274-26.197l4.71-14.217 1.57-22.348 4.028-22.69 2.85-15.958c.887-4.974 1.365-9.42 2.355-14.088l3.994-18.859c.802-3.788 4.813-10.436 6.024-14.148l7.655-23.45c4.147-12.705 10.376-24.865 16.99-35.788-5.266-20.864 7.022-7.364 7.696-28.177l2.688-11.085c1.195-4.915 2.526-9.25 4.241-14.361l1.724-12.851c.214-1.579 3.78-5.12 4.156-5.846 11.085-.546 22.605 3.525 30.703 10.633zm-62.933 487.737c16.12-47.01 5.129-57.506 3.072-96.324-.597-11.332-.776-22.476-.597-33.245l.495-30.908.486-31.3c.307-19.917 1.323-39.142 4.327-58.914l4.744-31.24 2.782-16.674c.384-2.304-1.135-6.699-3.012-7.441-1.878-.751-7.28 2.876-7.689 5.171l-7.023 39.68-4.932 36.727c-3.524 26.214.88 51.584-3.32 78.054-.853 5.367-2.337 11.938-1.91 16.512l2.653 28.86 4.685 35.2c4.906 36.846-4.72 36.82 1.348 67.77.47.308 1.28-.161 3.9-1.928z"/><path fill="#de7518" d="m431.4 351.133 3.644 12.723 16.81 53.197 9.14 33.177c15.12 54.912 31.71 135.09 35.703 191.334 3.746 52.633.888 109.908-7.048 162.166-1.758 11.588-4.48 23.236-9.694 33.766-3.354 6.767-14.908 10.24-20.625 6.34-14.191-9.668-18.432-17.467-24.61-34.115l-5.99-16.162-1.903-12.186c-.222-1.442-1.699-4.403-2.185-4.95-.06-1.083-.205-3.268-.478-4.317l-7.304-28.8-.06-2.082-.068-3.618c-.017-.854-.802-1.093-1.792-1.553l-6.759-49.365c-2.33-16.999-17.894-104.26-31.334-111.786-20.13 8.473-16.947 63.146-15.018 80.486l10.29 92.372c.24 2.16 1.22 6.127 1.844 7.484l.947 6.844 1.553 14.549 4.105 28.851c5.794 40.661 17.757 78.054 34.858 115.669 1.263 2.773-1.442 11.554-4.156 10.829l-10.01-2.671-12.884-29.543c-14.413-33.049-23.074-67.95-27.452-104.089l-8.055-66.542-4.327-37.99-7.338-57.293c-.461-3.618-1.22-7.339-1.87-9.43-.272-4.897-.477-12.5-1.586-17.655l-8.406-39.193c1.613-2.577 3.977-7.987 5.47-11.75.657-1.528 4.284-2.185 6.298-2.228l.52 4.497 1.63 2.373c.981 7.509 2.944 13.9 7.731 22.383l15.94-31.667c.87-1.724 5.974-6.093 7.825-5.564 8.593 2.457 16.393 19.31 19.2 27.255l18.927 53.692c7.663 21.734 7.424-24.593 4.01-41.976l-7.466-38.007-12.766-62.063-7.705-40.405-8.986-45.79-4.77-24.123c-.392-1.997-.486-6.733-.537-8.405l9.531-4.429c9.643 27.7 23.381 80.614 28.476 111.334l16.128 97.22c3.695 22.272 4.574 44.168 4.71 66.645.213 34.082-13.85 27.033-2.253 90.068l10.368 56.329c2.407 13.098 7.638 35.49 21.436 42.461 11.801-7.995 14.174-44.467 14.959-58.273l2.602-46.131c2.176-38.64-1.015-100.429-8.268-139.195l-12.433-66.364-25.822-118.843c-2.799-12.885-5.658-24.746-9.455-35.848l-2.125-12.024-2.68-16.477c2.586 3.746 4.182 5.973 5.445 8.174l6.127 10.693z"/><path fill="#fab151" d="M222.241 672.343c3.14 17.024 3.874 33.084 7.04 49.835 3.96 20.983 9.088 40.362 15.001 60.697 3.43 11.801 5.59 15.974 1.024 26.453-9.591-3.388-17.851-25.404-22.51-35.814l-8.926-19.951c-18.594-41.54-40.576-131.438-43.912-176.375L168.2 553.56c-.555-7.484-.436-14.882-.461-21.402l.427-53.64 1.826-10.539 1.425-24.277 2.457-41.429 2.296-39.048.862-9.455 2.457-24.363c.265-2.602 5.36-47.283 9.395-38.655l-.239 10.82c-.256 11.383-.682 22.092-1.527 33.288l-2.031 26.957-2.09 27.383c-1.86 24.337-1.733 17.75 5.589 38.485 7.227 20.455 9.72 41.591 11.29 63.01l3.19 43.562 1.972 21.41 11.23 84.241 5.982 32.435z"/><path fill="#e4811d" d="M298.358 696.023c.538 2.773-1.715 28.544-1.092 42.53 2.133 47.812 7.594 54.596 21.76 97.655l7.236 22.007c4.19 12.723 7.347 25.78 10.129 39.492.589 2.902-7.185 8.721-9.378 7.143-3.448-2.475-8.9-7.22-10.872-9.395 5.811-11.12-5.888-42.735-10.47-54.895l-13.457-35.72c-6.903-18.313-10.624-37.154-11.366-56.602l-.734-19.114-.717-33.058c-.043-1.989-1.126-6.17-1.81-7.322l-.537-9.173c-.12-2.005-1.194-6.23-1.86-7.458l-9.48-59.418-2.996-18.969-5.265-33.596c-.41-2.61-2.67-7.227-4.13-9.105-1.502-1.937-3.95-2.986-8.055-3.993l-1.127-5.555 4.805-9.148c.836-1.587 7.876-1.041 9.105.213 15.232 15.437 16.068 36.241 20.18 57.924l13.236 69.734 6.886 35.823z"/><path fill="#f49e34" d="M253.32 551.034c1.458 1.877 3.72 6.494 4.13 9.105l5.264 33.596 2.996 18.969 9.48 59.417c.35 2.193 1.297 6.127 1.86 7.458l.538 9.174c.128 2.201 1.05 6.212 1.809 7.321l.717 33.058-8.388-1.058-7.774-16.162c-.948-1.971-6.204-5.94-7.586-7.228l-2.415-18.875c-1.767-13.833-5.957-6.29-8.994-23.85.017-.94.264-4.592.153-6.247l-3.908-59.537 1.16-11.861 2.125-21.777c.546-5.555 3.72-11.307 8.85-11.503z"/><path fill="#e88b23" d="m241.193 596.175 3.909 59.537c.11 1.655-.137 5.316-.154 6.246-8.064-5.828-14.43-30.412-17.621-39.825.017-.665.102-1.723.025-2.27l-3.532-25.634c-1.152-8.337-.333-15.453 1.851-24.174l9.268 16.418c.597 1.066 2.27 3.524 3.327 5.162l2.927 4.549z"/><path fill="#f5922b" d="M414.94 736.053c.205 1.484 1.425 4.565 1.86 5.17l.06 2.083c-11 5.751 1.203 28.484 7.304 28.8.265 1.05.418 3.234.478 4.318l.188 3.567c.042.733.793.844 1.997 1.382l1.902 12.186c-2.141 2.32-8.038 3.55-10.649 2.628l-1.587-14.14-13.944-4.915c-19.25-6.784-1.22-5.188-17.169-13.943-3.626-1.989-7.62-2.5-10.478-1.093l-.948-6.843c-.307-2.228-1.246-6.136-1.843-7.484l-10.291-92.373c-1.929-17.34-5.111-72.012 15.019-80.486 13.44 7.526 29.013 94.78 31.334 111.786l6.758 49.365z"/><path fill="#f1972d" d="M611.94 840.765c2.107-2.424 4.949-5.197 7.372-7.185-1.715 2.466-4.94 5.418-7.373 7.185"/><path fill="#f19129" d="M424.634 360.776c3.797 11.102 6.655 22.971 9.454 35.848l25.822 118.843 12.433 66.364c7.262 38.766 10.453 100.556 8.269 139.195l-2.603 46.13c-.776 13.807-3.157 50.279-14.959 58.274-13.798-6.963-19.029-29.363-21.435-42.461l-10.368-56.329c-11.597-63.035 2.466-55.995 2.253-90.068-.137-22.477-1.016-44.382-4.71-66.645l-16.129-97.22c-5.094-30.72-18.833-83.635-28.475-111.334-.683-4.847-1.613-11.332-2.919-16.973l-8.832-38.084c3.559 1.007 5.7 4.472 7.834 8.55l10.607 20.293c10.206 19.532-5.41 16.725 9.591 20.855l7.953 2.193-4.045 17.775c-1.288 5.675 8.329 10.803 15.232 10.522l-5.717-9.967c4.728-5.223 8.602-10.343 10.744-15.761"/><path fill="#f3942b" d="M374.654 365.802c.051 1.672.145 6.408.538 8.405l4.77 24.124 8.985 45.79 7.706 40.404 12.766 62.063 7.466 38.007c3.414 17.383 3.653 63.71-4.01 41.976l-18.927-53.692c-2.8-7.944-10.607-24.798-19.2-27.255-1.852-.53-6.955 3.84-7.825 5.564l-15.94 31.667c-4.787-8.474-6.742-14.874-7.731-22.383l-1.63-2.373-.52-4.497-4.404-38.237-1.587-12.894c-1.297-10.564-4.668-20.634-8.158-29.875 1.195.18 4.514.691 3.84.589l12.68-12.263-6.041-28.927c-2.279-10.923.153-24.457.845-35.559l2.645-42.47 9.788-5.043c1.314-.674 4.88-2.219 4.24-3.183-.98-1.468-5.128-8.695-2.756-10.24l5.521-3.592c8.235-5.36-2.372-10.872 2.902-23.28l5.956 22.256 8.081 34.926z"/><path fill="#e78621" d="M326.961 472.604c3.49 9.233 6.861 19.303 8.158 29.876l1.588 12.893 4.403 38.238c-2.014.043-5.64.7-6.298 2.227-1.493 3.763-3.865 9.173-5.47 11.75-1.851-8.627-5.384-18.952-6.212-28.586l-4.412-51.294c-.307-3.575-4.684-9.796-8.345-13.627-4.147 4.992-6.69 9.463-7.655 14.583l-4.804 25.378c-.162.845-2.62 3.934-3.132 3.405-9.01-9.148-14.856-48.435-16.529-62.464l-4.155-34.816c-5.214-43.69 5.043-47.35-1.681-92.415l-3.704-24.798-2.107-18.073-4.899-48.947c-1.612-16.145-2.884-58.59-.682-74.42l2.935-21.06c2.56-18.363 7.868 13.347 8.312 18.663l9.062 109.107 2.953 26.47 2.039 18.833c2.952 27.221 3.447 53.401 4.992 80.674l3.533 62.216c.333 5.913 2.415 11.622 5.128 18.432 2.79-3.388 4.71-6.238 7.1-11.068 1.809-3.67 8.363-8.055 12.177-4.65 4.335 3.874 6.067 9.113 7.714 13.473z"/><path fill="#e48521" d="M226.038 509.58c-2.61 1.774-3.43 2.243-3.9 1.928-6.067-30.942 3.559-30.925-1.348-67.772l-4.684-35.2-2.654-28.859c-.418-4.574 1.058-11.145 1.911-16.512 4.207-26.47-.196-51.84 3.32-78.054l4.932-36.727 7.023-39.68c.41-2.295 5.81-5.922 7.688-5.171 1.878.742 3.396 5.145 3.012 7.44l-2.781 16.675-4.745 31.24c-3.004 19.772-4.02 38.997-4.326 58.914l-.487 31.3-.495 30.908c-.17 10.769 0 21.913.598 33.245 2.048 38.818 13.047 49.314-3.072 96.324z"/><path fill="#e6861f" d="m372.435 306.316 8.832 38.084c1.306 5.64 2.236 12.126 2.919 16.973l-9.532 4.429-8.081-34.927-5.956-22.255c-3.943-14.728-6.033-30.19-12.69-45.15-9.138-20.53-5.384-18.568-14.096-34.175-.24-2.74-.598-8.414-1.229-11.605l-5.982-30.174-3.089-15.59c14.55 13.704 25.506 56.874 32.333 79.342l11.093 36.497c1.903 6.272 4.224 13.141 5.478 18.543z"/><path fill="#f39b30" d="M253.32 551.034c-5.13.196-8.304 5.948-8.85 11.503l-2.125 21.777-1.16 11.861-2.927-4.548c-1.058-1.639-2.722-4.096-3.328-5.163l-9.267-16.418c-2.185 8.713-3.004 15.838-1.852 24.175l3.533 25.634c-11.025-5.129-10.94-24.457-8.184-35.67l-2.457-8.055c-.802-2.61.793-9.676 2.662-11.613l9.609-9.942c3.498-3.618 8.678-.75 15.163-13.098l1.127 5.555c4.104 1.007 6.553 2.056 8.055 3.993z"/><path fill="#eb8924" d="M424.164 772.106c-6.101-.316-18.304-23.057-7.304-28.8zm-50.201-16.862c-.615-1.357-1.596-5.325-1.843-7.484.597 1.357 1.527 5.257 1.843 7.484m42.837-14.02c-.435-.606-1.655-3.687-1.86-5.171.99.452 1.775.7 1.792 1.553zm10.027 40.149c-1.204-.538-1.963-.649-1.997-1.382l-.188-3.567c.486.546 1.963 3.507 2.185 4.949"/><path fill="#e78621" d="m343.26 560.48-1.63-2.372z"/><path fill="#f39b30" d="M277.05 679.57c-.554-1.322-1.51-5.264-1.86-7.457.657 1.229 1.74 5.453 1.86 7.458m2.347 16.496c-.751-1.101-1.681-5.12-1.81-7.322.684 1.152 1.767 5.333 1.81 7.322"/></svg>