<svg xmlns="http://www.w3.org/2000/svg" viewBox="0 0 1024 1024"><path fill="#f7953e" d="M586.994 184.889c178.517 0 323.228 159.19 323.228 355.555S765.512 896 586.994 896a296 296 0 0 1-76.829-10.098A292.8 292.8 0 0 1 433.778 896c-177.494 0-321.366-159.19-321.366-355.556S256.284 184.89 433.778 184.89c26.31 0 51.91 3.499 76.387 10.098 24.619-6.6 50.347-10.098 76.829-10.098"/><path fill="#191919" d="M586.994 184.889c178.517 0 323.228 159.19 323.228 355.555S765.512 896 586.994 896a296 296 0 0 1-76.829-10.098A292.8 292.8 0 0 1 433.778 896c-177.494 0-321.366-159.19-321.366-355.556S256.284 184.89 433.778 184.89c26.31 0 51.91 3.499 76.387 10.098 24.619-6.6 50.347-10.098 76.829-10.098m0 56.889c-21.149 0-41.942 2.759-62.08 8.163l-14.791 3.968-14.777-3.982a236 236 0 0 0-61.568-8.15c-144.711 0-264.477 132.51-264.477 298.667s119.751 298.667 264.477 298.667a236 236 0 0 0 61.582-8.135l14.763-3.982 14.777 3.954a239.3 239.3 0 0 0 62.094 8.163c145.82 0 266.34-132.565 266.34-298.667s-120.52-298.666-266.34-298.666"/><path fill="#58b250" d="M335.616 268.132C393.785 283.733 452.58 274.93 512 241.778c-34.887-58.425-81.408-95.431-139.577-111.019s-116.963-6.798-176.384 26.354c34.887 58.425 81.408 95.431 139.577 111.019"/><path fill="#191919" d="M379.79 103.282c-65.578-17.565-131.94-7.652-197.618 28.999a28.444 28.444 0 0 0-10.567 39.41c38.557 64.583 91.08 106.353 156.644 123.918 65.564 17.564 131.925 7.651 197.618-28.985A28.444 28.444 0 0 0 536.42 227.2c-38.543-64.569-91.065-106.34-156.63-123.918m-14.734 54.954 5.22 1.465c37.973 11.307 70.087 33.351 96.71 66.774l3.186 4.081-4.792 1.977c-41.586 16.327-82.148 18.916-122.411 8.121l-5.205-1.465c-37.974-11.292-70.088-33.35-96.726-66.773l-3.186-4.096 4.808-1.963c41.585-16.327 82.147-18.915 122.396-8.12"/><path fill="#191919" d="M551.822 76.8a28.444 28.444 0 1 1 34.134 45.511c-30.35 22.756-45.512 56.889-45.512 105.245a28.444 28.444 0 1 1-56.888 0c0-65.423 22.755-116.623 68.266-150.756"/><path fill="#f7953e" d="M289.621 540.444a327.111 297.372 90 1 0 594.745 0 327.111 297.372 90 1 0-594.745 0"/><path fill="#ffb74d" d="M327.617 436.497A241.778 284.444 16 1 0 792.44 569.783a241.778 284.444 16 1 0-464.823-133.286"/><path fill="#fff" d="M427.15 444.772a17.58 17.58 0 0 1-4.835-24.605c7.225-10.524 14.137-21.817 20.693-33.792a18.06 18.06 0 0 1 24.32-7.168c8.718 4.65 11.975 15.389 7.268 24.007-7.112 12.985-14.62 25.287-22.528 36.807-5.547 8.107-16.712 10.24-24.918 4.75"/><path fill="#191919" d="M586.994 213.333c164.224 0 297.372 146.447 297.372 327.111S751.218 867.556 586.98 867.556c-164.224 0-297.359-146.447-297.359-327.112s133.135-327.11 297.373-327.11m0 28.445c-147.897 0-268.942 133.148-268.942 298.666s121.045 298.667 268.942 298.667c147.882 0 268.928-133.148 268.928-298.667S734.89 241.778 586.98 241.778z"/></svg>