<svg xmlns="http://www.w3.org/2000/svg" viewBox="0 0 1024 1024"><path fill="#c8d846" d="M512 748.942c-23.694 36.41-104.363 68.21-241.991 95.403-18.816-131.485-13.497-218.027 15.957-259.641-48.412-17.65-103.594-84.537-165.518-200.676 128.284-47.416 212.252-69.105 251.876-65.038.654-39.623 47.217-112.768 139.662-219.434C604.43 203.847 651.008 276.992 651.69 319.004c39.609.655 123.562 22.344 251.875 65.039C832.142 504.903 776.96 571.79 738.02 584.718 767.488 614.457 772.807 701 753.99 844.345c-137.628-27.193-218.297-58.994-242.005-95.417z"/><path fill="#ffd54f" d="M512 682.667c-37.916 56.889-104.292 90.069-199.111 99.555-4.736-85.333 9.486-158.82 42.667-220.444C308.153 542.82 256 493.042 199.11 412.444c90.084-33.18 158.82-47.402 206.222-42.666 0-47.403 35.556-109.042 106.667-184.89 66.375 71.112 99.556 130.376 99.556 177.779 47.416 0 120.888 16.597 220.444 49.777-56.889 85.334-111.403 135.112-163.556 149.334 33.195 42.666 47.417 116.153 42.667 220.444-94.805-9.486-161.18-42.666-199.111-99.555"/><path fill="#fff19d" d="M518.656 565.675 393.259 684.587l74.353-156.004-151.85-82.503 171.35 22.5 31.544-169.913 31.545 169.913 171.35-22.5L569.7 528.583l74.353 156.018z"/><path fill="#191919" d="m490.51 80.924-5.262 6.088C408.946 175.659 363.676 241.55 349.07 288.967l-.483 1.664-.74.057c-49.536 3.84-127.602 26.126-237.27 66.674a28.444 28.444 0 0 0-15.231 40.064l3.826 7.11c52.081 96.456 100.18 160.115 146.66 191.162l1.748 1.138-.142.355c-20.906 53.22-22.016 136.349-5.59 251.193a28.444 28.444 0 0 0 33.68 23.865l7.722-1.536C395.79 848 471.353 822.158 512 789.83c41.586 33.067 119.68 59.335 236.487 82.418a28.444 28.444 0 0 0 33.721-24.192l.996-7.709c14.62-114.844 14.222-194.503-4.296-242.218l-1.208-2.987 2.26-1.65c41.217-31.061 89.373-95.601 148.097-194.986a28.444 28.444 0 0 0-15.502-41.458l-24.32-8.007c-97.451-31.801-167.524-50.603-212.011-56.52l-.356-1.336c-13.852-50.148-61.326-118.841-142.577-210.49a28.444 28.444 0 0 0-42.78.228m11.435 74.582 10.283-12.388 1.749 2.048c70.812 83.058 107.264 142.28 109.212 172.402l.071 1.892a28.444 28.444 0 0 0 25.785 27.86l4.367.172c31.473 1.208 95.758 16.938 190.72 47.118l16.625 5.319-3.285 5.333c-56.078 90.198-99.968 141.44-126.677 151.837l-1.707.611c-19.314 6.4-25.657 30.237-12.772 45.37l2.575 2.8c17.578 20.083 23.054 86.4 11.747 194.077l-1.138 10.269-4.067-.882c-106.852-23.495-170.667-49.877-188.516-74.368l-1.066-1.564a28.444 28.444 0 0 0-46.322-1.906l-2.39 3.413c-17.407 23.979-78.919 49.792-181.788 72.917l-11.15 2.447-.626-5.362c-11.819-102.315-6.2-170.269 14.194-201.685l1.422-2.091a28.444 28.444 0 0 0-13.468-43.15l-2.404-.939c-35.413-14.45-79.9-66.105-130.347-154.738l-1.62-2.873 23.565-8.263c91.321-31.488 153.16-46.122 182.443-44.074l2.048.184a28.444 28.444 0 0 0 31.232-25.656l.114-2.148c.455-26.311 34.346-82.83 101.19-163.982"/><path fill="#191919" d="M512 398.222q14.222 0 14.222 14.222v42.667q0 14.222-14.222 14.222t-14.222-14.222v-42.667q0-14.222 14.222-14.222M620.212 476.835q4.395 13.526-9.131 17.921l-40.579 13.185q-13.526 4.395-17.92-9.132-4.396-13.526 9.13-17.92l40.579-13.185q13.526-4.395 17.92 9.131M578.879 604.054q-11.506 8.36-19.865-3.146l-25.079-34.519q-8.36-11.506 3.146-19.865 11.506-8.36 19.866 3.146l25.079 34.518q8.36 11.506-3.147 19.866M445.135 604.054q-11.506-8.36-3.147-19.866l25.08-34.518q8.359-11.506 19.865-3.146t3.146 19.865L465 600.908q-8.36 11.506-19.865 3.146M403.802 476.835q4.395-13.526 17.921-9.131l40.579 13.184q13.526 4.395 9.131 17.921t-17.92 9.132l-40.58-13.185q-13.525-4.395-9.13-17.921"/></svg>