<svg xmlns="http://www.w3.org/2000/svg" viewBox="0 0 1024 1024"><path fill="#b47991" d="M450.005 398.131s-10.257 47.812-81.493 90.684-107.23 68.31-132.42 116.139-55.33 148.701 53.81 249.07c97.315 77.85 212.942 70.025 257.784 70.41 44.843.383 178.15-33.52 232.09-121.038 53.93-87.518 38.938-182.417-32.75-250.786-47.899-43.563-93.8-58.462-129.622-91.46-35.815-32.999-53.376-63.027-53.88-107.298l-61.568 19.336-37.401-25.694s-12.553 49.255-14.541 50.637z"/><path fill="#b47991" d="M552.166 321.229c1.699-1.784 13.398-12.57 15.215-10.65-.674 4.779-1.015 9.626-1.544 14.422-1.715 15.342-3.473 30.08-1.46 45.627 1.443 11.153 6.06 25.472 10.616 35.78l1.835 12.613c15.163 30.208 35.046 59.059 54.477 86.263-9.976-7.202-20.78-17.246-28.946-26.59-23.475-26.88-38.493-58.982-44.074-94.37l-1.553-22.024c-2.654-.359-1.477 3.473-1.52 5.325-.085 3.532-.033 7.082.035 10.615 2.517 10.445 3.72 21.205 6.426 31.607 3.976 15.275 11.264 33.28 19.413 46.763-2.142 4.045-7.612-.12-9.668.205-2.979.47-6.64 5.222-9.592 5.666-1.433.213-4.412-1.544-7.407-1.416-3.294.136-6.306 2.397-9.873 1.63l-2.756-7.203c-.597-1.066-.043-2.594-.29-3.447-4.617-16.111-8.85-32.623-9.165-49.408l-3.012-12.962c-1.152 6.17 1.032 11.835 1.587 17.425.29 2.96-.41 6.144-.034 9.165 1.664 13.226 5.307 26.572 9.096 38.818 3.627 11.699 7.527 23.663 12.177 34.986-1.57 4.839-6.391 2.321-9.676 3.252-4.13 1.169-8.995 6.963-11.563 9.693-6.52 6.93-8.755 2.774-15.983 2.202-4.181-.333-8.755.358-13.005.068-2.32-4.104-9.796-15.001-10.445-19.242-.256-1.664 1.784-3.823 1.408-5.846.154-1.485-1.203-3.345-2.483-3.712-10.462-3.003-12.63 11.358-17.16 17.622-.52 2.304-.632 4.471.477 6.656.717 1.4 13.1 13.44 15.232 15.197 1.716 1.408 4.907 3.559 6.878 4.54v6.084c-4.915-1.826-15.172-6.468-19.268-7.364-4.813-1.05-11.964-.444-17.263-1.758 9.455-22.16 20.181-45.218 26.675-68.411 2.902-10.343 5.692-21.24 5.282-31.983l-2.688 8.72c-3.652 21.436-10.93 42.497-19.831 62.32-3.55 7.902-9.13 15.948-12.484 23.27-4.566.879-4.344-1.126-6.366-3.524-8.329-9.89-22.511-13.159-34.73-16.248 19.447-20.471 35.694-45.286 43.767-72.627 4.787-16.213 8.311-36.096 7.978-52.872-.034-1.844 1.135-5.675-1.519-5.325.256 18.133-3.9 36.036-7.936 53.632-.221.793-1.152.99-1.194 1.135-8.918-1.681-13.893 9.31-3.047 9.13-3.84 10.283-6.622 16.282-12.177 25.856l-.102-2.91c-5.436-2.295-9.592-3.89-15.744-3.336l-.896-1.357c25.182-30.976 36.25-64.572 31.932-104.166-.316-2.927-4.037-16.29-3.013-17.528 3.815 2.193 8.935 4.753 12.169 7.604 1.954 1.723 4.267 5.845 6.784 7.671l12.996 21.23c1.45-11.118 5.811-21.452 10.377-31.53.554-1.22.025-2.893.281-3.456.077-.17 1.895-.64 2.825-2.449 1.331-2.585 2.901-5.214 3.328-8.14 8.286-1.87 9.898 7.637 15.155 12.117l12.937 34.986c4.309-6.852 6.16-14.754 10.129-21.82 2.875-5.11 7.901-11.955 11.938-16.213z"/><path fill="#c26661" d="M667.844 893.184c-.12-3.285-.793-5.333 2.466-7.424 5.76-3.695 13.68-4.966 18.108-10.803l3.78-12.194c64.052-63.062 80.683-160.325 42.616-241.87l15.676-6.39c5.93-4.958 13.866-6.759 20.394-10.036 4.514-2.27 8.235-5.487 12.638-7.902 50.987 82.526 31.215 184.67-39.535 248.747-23.552 21.333-47.462 35.004-76.134 47.88z"/><path fill="#d09998" d="M290.38 584.388c-17.877 26.12-29.106 57.643-31.93 89.02-.402 4.497.665 13.466 1.774 17.937s4.045 13.491 10.36 10.18c-.205 2.048-1.391 3.712-1.494 5.342-.478 7.697.341 14.515 1.52 22.033.98.205 2.124-.162 3.02.009-1.647 1.066-3.516 3.72-4.565 4.565-5.112 4.096-10.266 6.22-16.82 6.767-2.782 2.415-2.261 6.187-3.225 8.952-1.903 5.495-19.61 9.105-24.098 14.711-25.524-68.907-13.04-135.876 33.484-191.667l15.292 2.21 16.666 9.967z"/><path fill="#bd6465" d="m632.832 776.055 6.86 7.612 6.836-3.046c2.833 3.038-6.187 16.58-8.43 19.703-3.465 4.822-12.536 11.776-11.188 18.808.256 1.348 1.8 2.654 2.193 4.002 1.092 3.686 1.775 9.72 3.652 12.834 1.741 2.884 5.794 4.992 8.508 11.52 3.174 7.629 5.026 11.187 9.148 18.236 1.05 1.792 2.62 3.575 3.652 5.478l22.912-.845c-4.557 4.386-9.438 9.583-14.43 13.722-7.014 5.82-15.095 10.564-22.101 15.94-2.142 1.647-2.45 2.688.76 2.279l29.618-20.6c6.35-7.15 14.6-12.288 21.376-18.952l-3.78 12.194c-4.429 5.837-12.356 7.108-18.108 10.803-3.26 2.09-2.585 4.139-2.466 7.424-28.399 12.749-48.58 18.449-79.146 24.337-3.2.11-7.672-6.29-8.943-8.559-2.714-4.838-3.593-11.008-5.462-15.838-1.33-3.456-3.934-9.916-6.912-12.109 13.577-23.09 25.84-47.564 33.485-73.02l9.924-7.577c6.435-7.996 16.06-16.563 22.042-24.371z"/><path fill="#75ad59" d="M526.293 281.677c-.571 2.312-.87 4.915-1.519 7.603v-82.142c-.81-.853-20.061 2.611-23.27 3.362-4.813 1.127-10.65 2.953-14.78 5.769.709-57.412 3.098-124.237 17.058-179.943 1.494-5.947 9.558-32.776 13.32-35.362 8.048-5.53 7.894 14.379 9.26 18.245z"/><path fill="#d39e9c" d="M276.685 757.803c-3.32 1.33-.939 5.094-.393 7.236 11.162 43.563 32.973 75.546 65.835 105.327-.632 2.585-4.924.316-6.724-.128-8.064-2.005-16.026-4.386-24.081-6.34-2.15-.52-5.931-2.927-7.245.392-37.692-26.974-62.874-56.456-79.147-100.395 4.48-5.606 22.187-9.216 24.098-14.711.956-2.756.435-6.537 3.226-8.951 6.553-.547 11.716-2.671 16.82-6.767-1.383 9.89 2.721 16.477 7.61 24.337"/><path fill="#8dc165" d="M479.113 263.424c-8.295.666-16.572 4.01-24.346 6.844-2.287.836-3.43 3.02-6.093.76-10.658-31.446-24.217-61.714-35.78-92.775-4.267-11.469-13.96-35.175-12.98-46.473 1.357-15.547 16.683.563 21.394 6.119 26.214 30.882 45.474 87.125 57.805 125.525"/><path fill="#c68384" d="M342.135 870.366c11.026 9.992 21.778 19.149 34.253 27.375 4.566.145 1.323-1.639-.247-2.8-5.803-4.3-12.647-9.266-18.057-13.9-2.602-2.227-4.736-5.743-6.818-7.637l32.657 4.633c22.486-.162 44.86.888 66.884-3.055l.914-3.089h1.518c.973 2.424 1.306 3.985 2.774 7.074.375.786.068 1.673.273 2.057-1.434 2.423-4.199.725-5.863 4.02-2.747 5.435.82 11.186-.196 17.254 3.396-.3 8.2 1.86 11.332 1.62 3.15-.238 5.24-3.515 8.389-3.097 3.063 8.645 11.358 15.326 16.776 22.801-7.953-.187-13.662-.716-21.307-1.519-58.957-6.203-112.94-23.176-161.332-57.804 1.314-3.32 5.095-.913 7.245-.393 8.064 1.954 16.026 4.344 24.081 6.34 1.8.444 6.093 2.714 6.724.128z"/><path fill="#c78f9a" d="M381.705 515.934c-16.82 15.326-36.975 30.959-51.772 47.889-4.36 4.983-6.93 12.68-13.67 16 .204-.324-.01-1.707.776-2.97 1.681-2.696 9.327-11.946 9.685-13.192 1.289-4.395.666-11.844-4.932-12.621-6.374 1.084-26.965 26.863-31.403 33.348l-16.665-9.967-15.292-2.21c28.646-34.355 54.255-48.35 91.324-71.492l16.281 5.786c5.291 2.995 11.41 4.923 15.676 9.429z"/><path fill="#66a34d" d="M486.724 216.26c4.13-2.816 9.959-4.642 14.78-5.768 3.209-.751 22.46-4.216 23.27-3.362v82.141c-2.781 11.563-4.71 23.442-7.611 34.987-5.257-4.471-6.878-13.977-15.156-12.117-.418 2.927-1.988 5.555-3.328 8.14-.93 1.81-2.747 2.279-2.824 2.45l-9.13-42.59c.196-21.265-.265-42.624 0-63.89z"/><path fill="#8ec267" d="m562.825 269.508-3.79 4.549-25.13-16.726c9.293-33.817 23.091-83.865 43.418-112.529 1.886-2.662 7.321-10 10.598-9.165 2.364 1.57 2.142 2.833 2.338 5.291.376 4.685.393 12.1-.077 16.742-3.285 32.393-19.61 78.285-27.357 111.838"/><path fill="#aa5b65" d="m751.556 557.005-5.316 7.62c-11.64 6.136-23.586 16.504-37.3 15.198-12.902-16.248-35.967-37.606-51.745-51.72 2.918-2.689 8.362-.461 10.769-2.194 1.126-.81.998-2.816 1.723-3.567 1.656-1.723 5.624-2.9 8.022-6.45 2.722-4.037 1.322-7.433 3.848-10.608 27.324 17.144 46.456 28.39 70.016 51.72z"/><path fill="#a76174" d="M681.54 505.284c-2.517 3.175-1.126 6.57-3.848 10.607-2.398 3.55-6.366 4.728-8.022 6.451-.716.751-.597 2.757-1.723 3.567-2.398 1.733-7.842-.495-10.77 2.193-5-4.471-13.456-9.395-18.26-13.687-2.074-1.86-5.846-6.656-7.612-9.13-19.43-27.205-39.314-56.056-54.477-86.264l-1.835-12.612c20.864 47.172 64.862 72.72 106.539 98.875z"/><path fill="#99cc69" d="m533.905 257.34 25.13 16.725 3.79-4.548c-3.96 17.126-8.235 34.27-10.659 51.72-4.044 4.258-9.07 11.102-11.938 16.214-3.976 7.065-5.82 14.967-10.129 21.82l-12.936-34.987c2.901-11.546 4.821-23.424 7.611-34.987.649-2.688.956-5.29 1.52-7.603 1.868-7.586 5.529-16.768 7.611-24.337z"/><path fill="#b96462" d="M783.514 596.557c-4.404 2.415-8.124 5.64-12.638 7.902-6.528 3.276-14.464 5.086-20.395 10.035l-15.676 6.391c-.64-1.374-3.788-4.616-4.565-6.084-5.948-11.204-13.508-25.165-21.308-34.987 13.722 1.306 25.66-9.053 37.3-15.197l5.316-7.62c13.627 13.49 21.76 23.04 31.966 39.551z"/><path fill="#9acc6a" d="M479.113 263.424c.068.205.947.418 1.186 1.152 2.014 6.306 4.556 12.663 4.906 19.38l1.52-3.798 9.13 42.59c-.248.563.273 2.235-.282 3.456-4.565 10.078-8.926 20.411-10.376 31.53l-12.996-21.23c-2.518-1.827-4.83-5.948-6.784-7.672-4.011-19.644-10.317-38.86-16.743-57.805 2.663 2.262 3.806.077 6.093-.76 7.774-2.832 16.051-6.177 24.346-6.843"/><path fill="#b87f92" d="m424.32 442.914.896 1.357c6.153-.555 10.308 1.05 15.744 3.336l.102 2.91c-16.315 28.126-35.754 43.896-59.357 65.408-4.276-4.505-10.386-6.434-15.676-9.429l-16.282-5.786c25.916-16.187 55.134-33.894 74.582-57.804z"/><path fill="#95555b" d="M486.724 923.605c4.549.111 9.148-.05 13.696 0 12.135.145 24.389.162 36.531 0 7.518-.102 14.729.777 21.957-1.63.554.052 1.561 2.117 2.398 3.15 2.773 3.404 7.74 9.719 1.519 12.168-4.301.853-8.047-1.468-12.178-1.52-.998-.016-1.996-.11-2.986.035l-3.106 7.57c-1.442-.948-8.218-2.27-10.658-3.047-.077-.026-.137-1.127-.922-1.374l-2.825-.12c-2.432.709-2.013 4.088-2.346 4.532-.666.896-4.745 3.558-6.085 4.565-1.271-1.971-8.243-6.161-9.89-9.122-2.295.879-1.937 4.096-2.287 4.557-.76 1.015-4.027 1.783-4.565 4.565-5.069-.504-6.852-5.794-10.658-9.13-.17-.154 0-1.28-.82-1.486h-1.348c-2.244 2.987-6.374 3.286-8.482 6.05l-4.471-.085c.128-1.732-1.34-3.191-1.621-4.471-.282-1.306.196-3.115 0-4.566-5.317-.256-9.763 3.934-15.215 3.047-.308-.367-1.741-.504-2.356-1.442l-.597-2.176 5.99-11.589c7.646.803 13.355 1.332 21.308 1.52z"/><path fill="#bd6e70" d="M588.698 917.521c-6.827 1.314-14.388 3.533-22.033 4.617-2.86.4-6.204-1.946-5.368 2.995-.836-1.033-1.843-3.09-2.398-3.149-7.228 2.406-14.438 1.527-21.956 1.63l12.365-19.601 4.394-.222-.904-3.046 3.806-1.656c-1.843-2.773.068-2.688.128-2.859 4.932-3.089 7.654-10.112 10.658-15.215 2.97 2.194 5.572 8.653 6.912 12.11 1.869 4.83 2.748 10.999 5.461 15.837 1.272 2.27 5.743 8.67 8.943 8.56z"/><path fill="#dedae6" d="M504.986 947.942c.546-2.781 3.805-3.54 4.565-4.565 2.961 7.987 2.39 16.828 3.072 25.071.128 1.579 1.365 3.09 1.46 4.625 1.117 19.072-3.184 37.658-17.477 50.927-8.619-2.159.879-11.657 3.072-16.708 1.783-4.105 4.787-13.304 5.273-17.553 1.417-12.442-2.167-30.498.035-41.797"/><path fill="#dcd9e6" d="M462.37 937.293c5.453.887 9.907-3.303 15.215-3.047.196 1.451-.282 3.26 0 4.566l-15.949 13.721c-10.752 5.666-17.655 15.88-26.658 23.552-1.75 1.485-2.44 2.936-5.333 2.27-2.134-1.852-2.543-1.8-1.596-4.625 1.212-3.61 17.357-19.294 21.342-22.784 4.147-3.635 10.078-6.204 13.747-10.615l.734-.76c-1.007-.4-1.135-1.817-1.51-2.278z"/><path fill="#ddd9e7" d="m494.336 938.82-18.5 43.12c-4.446 4.838-5.453 13.456-13.457 11.647-.683-6.596 4.992-11.17 7.91-17.194 4.386-9.046 8.004-25.916 13.397-33.007 2.1-2.765 6.238-3.064 8.483-6.05h1.348c.819.204.648 1.33.819 1.484"/><path fill="#dfd9e6" d="M521.728 947.942c1.348-.998 5.427-3.669 6.084-4.565 5.905 17.51 15.95 33.698 20.634 51.66.529 2.049.529 4.02-1.613 4.617-4.267 1.195-5.768-3.567-7.142-6.545-5.581-12.057-10.309-25.275-15.702-37.546-.887-2.023-1.595-6.588-2.27-7.63z"/><path fill="#c0828d" d="M526.293 525.065c-6.724 4.437-3.9 13.952-6.792 21.35-1.98 5.086-10.3 11.187-12.28 15.112-1.74 3.465.401 8.372-2.995 12.22-.904 1.024-10.189 8.064-11.35 8.431-5.153 1.656-11.656-.853-15.137 4.642l-7.757 37.112c2.73-1.613 5.862-1.417 8.704-2.714 4.471-2.04 7.347-8.14 14.123-6.417v4.565l-5.573-1.365-3.558 3.635 9.13 2.287 4.574-10.65c4.037-.255 11.921.564 15.77 1.733 3.37 1.024 5.367 3.865 13.15 5.87l-17.784 8.97c-6.784-3.15-8.166 1.194-12.655 1.68-2.679.29-5.597-.324-8.337.035-8.149 1.075-15.01 6.954-24.166 4.309-2.594-.751-6.391-5.36-8.602-6.613-2.636-1.502-6.621-1.545-9.113-3.055-2.518-1.52-2.407-4.14-3.32-5.052s-4.54-1.331-6.639-3.26c-2.423-2.227-7.142-8.78-6.792-12.228l-3.038 4.565c6.161-30.046 17.587-58.64 29.653-86.733 1.024-2.38 3.311-4.855 3.832-6.058 5.299 1.314 12.45.708 17.263 1.758 4.087.896 14.344 5.538 19.268 7.364.239.094.828 1.468 1.894 1.852 3.832 1.365 7.86 2.048 11.896.52 4.497-9.267 7.117-30.856 19.575-15.12-.87 3.737-2.295 7.44-2.918 11.229z"/><path fill="#b67688" d="M581.086 456.61c15.351 25.387 36.975 42.505 57.839 62.37 2.39 2.279 5.214 6.835 7.612 9.13v1.52c-7.032-1.255-11.657 1.067-17.818 2.73-8.84 2.381-6.656 2.228-13.577 6.204-5.981 3.44-9.967 2.023-15.01 3.251-5.828 1.426-11.298 4.941-17.527 4.54-11.99-28.151-27.896-54.698-38.05-83.66 3.567.767 6.579-1.494 9.873-1.63 2.995-.128 5.973 1.638 7.407 1.416 2.944-.444 6.613-5.197 9.591-5.666 2.048-.324 7.518 3.84 9.668-.205z"/><path fill="#bb7984" d="M587.179 576.777c-7.766-.896-16.546 1.408-15.224 10.65-6.69-3.61-7.79-1.264-10.65 4.564-4.54-1.024-.93-4.104-2.175-6.075-1.152-1.826-4.36-2.867-3.968-6.076l-6.656 1.434c-2.808-2.996-4.455-6.315-7.723-9.088-6.502-5.53-11.52-4.958-12.937-15.975-1.1-8.542-2.867-23.108-1.544-31.155.623-3.78 2.048-7.492 2.918-11.23-12.458-15.735-15.078 5.845-19.575 15.121-4.028 1.528-8.056.845-11.896-.52-1.066-.384-1.655-1.758-1.894-1.852v-6.084c4.6 2.287 6.033 2.056 8.934-2.466 1.673-5.71-.768-6.947-2.577-10.684-.375-.777-.06-1.69-.273-2.057 4.241.29 8.824-.4 13.005-.068 7.228.58 9.463 4.736 15.983-2.202 2.568-2.73 7.432-8.524 11.563-9.693 3.293-.93 8.115 1.587 9.676-3.252 12.382 30.114 24.9 55.143 35.004 86.708z"/><path fill="#bb8190" d="M456.286 511.369c-12.109 26.478-25.276 55.748-33.485 83.66-7.066-2.252-5.896-4.42-6.084-10.65-.376-12.134-1.17-23.056-5.786-34.525-5.06-12.553-14.19-22.58-24.653-30.882 9.507-9.02 19.926-17.912 28.92-27.384 12.211 3.09 26.393 6.358 34.73 16.248 2.023 2.398 1.801 4.403 6.366 3.524z"/><path fill="#994f50" d="M544.555 462.694c10.154 28.963 26.06 55.51 38.05 83.661 11.998 28.177 23.663 61.739 28.92 91.273 9.633 54.101 5.196 117.615-10.659 170.368-7.646 25.455-19.908 49.928-33.485 73.02-2.995 5.102-5.717 12.117-10.658 15.214 2.065-6.11 7.296-13.576 10.658-19.771 11.572-21.385 17.204-36.31 24.354-59.324 26.07-83.883 22.17-156.86-4.565-240.341-10.103-31.565-22.63-56.585-35.004-86.708-4.65-11.323-8.55-23.287-12.177-34.986l.162-2.15 1.357-.888c.248.853-.307 2.38.29 3.447l2.757 7.202z"/><path fill="#99575b" d="M415.19 491.597c-8.995 9.472-19.414 18.364-28.92 27.383-36.72 34.833-65.51 57.814-88.277 104.96-5.675 11.76-8.56 19.013-12.178 31.94-6.024 21.564-10.854 52.242-7.611 74.54-1.485-1.085-2.867-1.195-4.566-1.52-.896-.17-2.04.188-3.02-.008-1.178-7.518-1.997-14.336-1.52-22.033.103-1.622 1.298-3.294 1.494-5.342.051-.504-.051-1.024 0-1.52 2.91-.767 3.61-4.667 4.241-7.176 4.275-17.058 5.956-37.717 11.307-54.11 2.56-7.842 8.422-17.032 11.614-24.9 1.135-2.79 2.474-4.77 1.766-8.124 5.23-8.925 11.29-17.152 16.742-25.856 6.742-3.319 9.31-11.016 13.67-16 14.798-16.93 34.962-32.563 51.773-47.889 23.603-21.512 43.042-37.282 59.357-65.408 5.556-9.574 8.337-15.581 12.177-25.856 1.298-3.464 1.963-5.435 3.047-9.13.043-.145.973-.342 1.195-1.135 4.036-17.596 8.192-35.499 7.936-53.632 2.653-.359 1.484 3.481 1.518 5.325.333 16.776-3.191 36.659-7.978 52.872-8.073 27.34-24.32 52.147-43.768 72.627z"/><path fill="#945158" d="M459.324 517.453c-.52 1.212-2.808 3.686-3.832 6.058-12.066 28.084-23.483 56.679-29.653 86.733-3.866 13.449-5.675 27.264-7.612 41.071-.23 1.664-1.271 3.96-1.519 7.603-.034.504.043 1.016 0 1.52-4.13-1.707-5.18-4.899-4.565-9.131.136-1.494-.154-3.072 0-4.566l1.357-.896c.478-2.218.017-4.497.162-6.707.913-14.054 5.137-30.524 9.13-44.117 8.21-27.913 21.377-57.182 33.485-83.661 3.345-7.322 8.935-15.377 12.485-23.27 8.9-19.823 16.179-40.884 19.831-62.32l2.688-8.72c.41 10.752-2.38 21.64-5.282 31.983-6.494 23.193-17.22 46.25-26.675 68.411z"/><path fill="#b06d83" d="M501.94 505.284c.204.367-.112 1.28.272 2.057 1.81 3.737 4.25 4.975 2.577 10.684-2.91 4.53-4.343 4.761-8.934 2.466-1.971-.982-5.163-3.132-6.878-4.54-2.133-1.75-14.515-13.798-15.232-15.198-1.118-2.184-1.007-4.352-.478-6.656 4.54-6.272 6.707-20.625 17.16-17.621 1.28.367 2.638 2.227 2.484 3.712.375 2.022-1.664 4.173-1.408 5.845.64 4.241 8.124 15.138 10.445 19.243z"/><path fill="#92505e" d="M631.313 505.284c1.758 2.466 5.53 7.27 7.612 9.13v4.566c-20.864-19.865-42.488-36.983-57.84-62.37-8.157-13.483-15.444-31.488-19.412-46.763-2.706-10.402-3.909-21.162-6.426-31.607-.068-3.533-.111-7.083-.034-10.615.042-1.844-1.135-5.675 1.519-5.325l1.553 22.024c5.58 35.388 20.6 67.49 44.074 94.37 8.167 9.353 18.97 19.388 28.946 26.59z"/><path fill="#9b5c6f" d="m541.517 452.045-1.357.887-.162 2.15c-3.797-12.245-7.441-25.59-9.097-38.817-.375-3.013.325-6.204.034-9.165-.546-5.59-2.739-11.256-1.587-17.425l3.013 12.962c.315 16.785 4.548 33.297 9.164 49.408z"/><path fill="#b87f92" d="M456.286 415.54c-1.084 3.694-1.75 5.657-3.047 9.13-10.845.18-5.87-10.812 3.047-9.13"/><path fill="#934746" d="M734.814 620.894C772.88 702.43 756.25 799.7 692.198 862.763c-6.767 6.664-15.018 11.801-21.376 18.952l-29.619 20.6c-3.2.41-2.901-.632-.76-2.279 7.007-5.384 15.088-10.12 22.102-15.94 4.992-4.139 9.873-9.335 14.43-13.722 57.54-55.372 83.132-127.692 63.923-206.882-3.439-14.165-8.798-29.525-15.223-42.59 2.491-1.05 4.821-3.208 4.565-6.084.777 1.468 3.925 4.71 4.565 6.084z"/><path fill="#dfb9b9" d="M316.254 579.823c-5.453 8.712-11.512 16.93-16.743 25.856-13.013 22.23-21.222 41.958-25.821 67.746l-3.098 26.564c-.051.504.051 1.016 0 1.52-6.315 3.31-9.216-5.573-10.36-10.181s-2.184-13.44-1.774-17.937c2.824-31.377 14.045-62.9 31.931-89.02 4.438-6.485 25.037-32.264 31.403-33.348 5.606.785 6.22 8.235 4.932 12.62-.367 1.247-8.013 10.505-9.685 13.193-.785 1.255-.572 2.637-.777 2.97z"/><path fill="#cea8a9" d="M278.204 730.42c.128.887 1.203 2.013 1.519 3.046l.05 11.349c2.757 7.074 2.979 14.916 4.515 22.11-2.176-1.314-5.59-4.096-6.878-6.11-.802-1.254-.52-2.671-.725-3.012-4.89-7.86-8.994-14.447-7.612-24.337 1.05-.845 2.918-3.5 4.565-4.566 1.699.333 3.09.435 4.566 1.52"/><path fill="#c2635f" d="m673.929 689.348 2.824-.239.248-2.782 2.244-.017c2.688 2.048 4.548 6.392 8.371 6.085-.128-1.596-.034-3.124.742-4.574 2.27-4.258 5.547-3.047 2.407-11.196 2.278-3.277 5.802-5.495 8.234-8.602 1.545-1.98 1.946-4.966 3.78-6.869 3.824-3.95 12.587-5.086 16.794-7.552 3.892-2.278 3.499-6.067 10.437-2.048 1.373 5.76 5.35 9.882 10.88 11.938 19.208 79.19-6.392 151.51-63.924 206.882l-22.912.845c-1.032-1.903-2.602-3.686-3.652-5.478-4.121-7.057-5.965-10.607-9.148-18.236-2.713-6.528-6.767-8.636-8.507-11.52-1.878-3.106-2.56-9.148-3.653-12.834-.4-1.348-1.937-2.654-2.193-4.002-1.34-7.04 7.723-13.986 11.188-18.808 2.244-3.131 11.264-16.674 8.43-19.703l-6.835 3.046-6.86-7.611c15.692-20.48 29.653-49.588 37.333-74.496l3.763-12.212z"/><path fill="#ca7975" d="M675.447 608.725c2.97 19.269 2.279 45.278.026 64.674-.614 5.274-1.203 10.659-1.544 15.95l-3.764 12.21c-7.671 24.91-21.64 54.016-37.333 74.496-5.982 7.808-15.599 16.376-22.042 24.372l-9.924 7.577c15.847-52.753 20.284-116.266 10.658-170.368-.827-4.633 2.33-2.927 5.317-3.046 12.27-.495 12.108-4.105 20.044-5.837 2.714-.597 5.197.034 8.2-.93 3.926-1.254 13.526-10.351 16.735-13.747 1.075-1.135 1.143-2.987 1.715-3.55 2.193-2.168 8.823-1.843 11.912-1.792z"/><path fill="#9e5f62" d="M284.297 766.925c1.783 8.362 4.53 13.679 7.611 21.299 15.369 38.042 29.432 57.933 59.358 85.188 2.082 1.895 4.216 5.402 6.818 7.638 5.41 4.633 12.254 9.608 18.057 13.9 1.57 1.16 4.813 2.944.247 2.8-12.475-8.227-23.227-17.383-34.253-27.376-32.861-29.78-54.673-61.764-65.834-105.327-.546-2.141-2.936-5.905.392-7.236.214.342-.068 1.758.726 3.012 1.288 2.023 4.71 4.796 6.878 6.11z"/><path fill="#d5a0a0" d="M291.908 766.925c5.854-2.697 9.413-2.176 15.795-1.331l13.867 14.848c6.093-5.18 14.345-1.792 21.368-2.825 3.003-.444 3.55-3.456 7.543-3.149 1.195.094 21.146 7.185 22.622 7.91 2.927 1.443 2.773 5.146 6.613 7.083 3.217 1.622 7.45 2.714 10.65.461l2.056.487c4.088 3.754 3.909 9.6 6.238 13.585 1.135 1.945 3.627 3.268 4.156 5 .486 1.562-.213 4.31.367 4.924.87.93 7.083 3.243 8.294 6.238l-.853 4.574c6.69-1.835 11.708-.564 16.742-6.085l24.355 53.24-.914 3.089c-22.016 3.95-44.398 2.893-66.884 3.055l-32.657-4.634c-29.926-27.247-43.99-47.138-59.358-85.188 4.557 1.169 3.37-4.531 3.106-6.912-.41-3.755-2.03-10.658-3.106-14.387z"/><path fill="#c47c7d" d="M501.94 864.282c.144 2.159 2.49 6.186 3.822 7.586 1.323 1.39 3.226 1.68 4.531 3.072 3.362 3.575 6.699 13.969 3.584 18.014-.35.452-2.415.426-3.584 1.69-2.875 3.088-1.502 7.739-2.986 10.743-1.033 2.082-4.984 3.729-6.204 7.492-1.17 3.601-.614 7.066-.683 10.726-4.548-.05-9.147.111-13.696 0-5.418-7.475-13.713-14.156-16.776-22.8-3.15-.419-5.24 2.85-8.389 3.097-3.131.239-7.944-1.912-11.332-1.621 1.016-6.068-2.551-11.81.196-17.255 1.664-3.294 4.438-1.596 5.863-4.02 1.442 2.732 4.429 6.956 6.332 9.644 1.126 1.595 2.978 4.778 2.79.256-4.403-5.265-6.468-12.246-10.65-17.502 10.351-.06 22.221-2.364 32.41-4.881 3.908-.965 7.953-3.166 11.733-4.25.854-.247 2.21.248 3.047 0z"/><path fill="#9a5b5f" d="M416.708 660.446c-.827 9.105-1.297 18.184-1.519 27.383-.025 1.016.017 2.031 0 3.047-2.764 2.85-1.51 9.105-1.519 12.928-.017 5.069-.042 10.137 0 15.206.026 2.5-1.126 7.1 1.52 8.371 1.57 54.545 18.167 95.121 38.05 144.512h-1.52l-24.354-53.24c-2.9-12.816-7.628-25.25-10.658-38.032-1.177-4.967-1.962-10.189-3.046-15.215-1.195-5.538-1.698-11.187-3.047-16.734 1.093-4.642-1.34-8.798-1.587-12.86-.35-5.743-1.459-15.41-1.459-19.84V688.59c0-5.103 1.084-15.821 1.519-22.059.23-3.251 2.73-11.87 3.046-15.215-.614 4.233.436 7.424 4.566 9.13z"/><path fill="#9f595d" d="M454.758 873.404c4.182 5.256 6.247 12.237 10.65 17.502.188 4.53-1.664 1.348-2.79-.256-1.903-2.688-4.89-6.912-6.332-9.643-.205-.384.102-1.272-.273-2.057-1.468-3.089-1.8-4.65-2.774-7.074 1.417-.307 1.17 1.084 1.52 1.52z"/><path fill="#8b474d" d="M657.186 528.102c15.778 14.115 38.844 35.473 51.746 51.72 7.8 9.823 15.36 23.783 21.308 34.988.247 2.875-2.082 5.034-4.565 6.084-6.35-12.92-14.32-23.876-22.827-34.987-17.937-23.415-35.43-37.82-56.311-57.805-2.39-2.287-5.214-6.852-7.612-9.13v-4.566c4.804 4.293 13.27 9.216 18.261 13.688z"/><path fill="#c17577" d="M567.39 876.45c-3.354 6.204-8.593 13.67-10.658 19.772-.06.17-1.971.085-.128 2.859l-3.806 1.655.904 3.046-4.394.222-12.365 19.601c-12.134.162-24.388.145-36.531 0 .068-3.66-.478-7.116.682-10.726 1.22-3.763 5.172-5.41 6.204-7.492 1.493-3.004.111-7.646 2.987-10.744 1.177-1.263 3.242-1.246 3.584-1.69 3.114-4.053-.23-14.438-3.584-18.013-1.306-1.4-3.217-1.681-4.531-3.072-1.323-1.4-3.67-5.436-3.823-7.586 19.976-5.931 36.804-14.516 54.792-24.337 1.75-.956 5.052-1.52 7.612-3.047.589 10.522 1.442 20.497 1.527 31.18.017 2.501-1.117 7.11 1.52 8.372z"/><path fill="#cb8c8c" d="m425.839 610.244 3.038-4.565c-.35 3.447 4.369 10.001 6.792 12.228 2.1 1.929 5.743 2.364 6.64 3.26s.801 3.533 3.319 5.052c2.491 1.51 6.477 1.553 9.113 3.055 2.21 1.254 6.008 5.862 8.602 6.613 9.156 2.645 16.017-3.234 24.166-4.31 2.74-.358 5.658.257 8.337-.034l4.54 6.921 3.61-.623c2.218.435 8.61 10.812 9.42 13.406 1.81 5.734 1.92 9.736 6.042 15.258 2.543 3.404 7.603 3.106 8.277 5.418 1.135 3.934-2.568 9.267-6.1 10.675-.453 5.35-.607 12.877-1.69 17.92-.64 2.979-4.011 5.018-4.387 7.843-.503 3.78 2.065 6.715 1.63 10.64-.315 2.825-3.08 5.01-2.867 7.365.452 4.95 6.22 11.409 7.142 15.718.58 2.688-.452 6.119.94 8.184l8.515 2.133 8.892 13.97-4.326 13.311c2.79 1.46 2.457 5.82 3.208 6.784.41.53 1.989.41 2.765.964 4.139 2.953 3.055 22.392 4.813 28.724 3.072 3.413 4.412 7.722 6.673 11.588 2.637 4.497 6.434 4.855 3.772 12.203-17.989 9.821-34.816 18.406-54.793 24.337-.836.247-2.193-.248-3.046 0-.12-6.947 5.734-15.727 6.152-22s-2.73-20.385-5.82-26.248c-3.993-7.577-14.694-10.667-16.802-18.193-1.032-3.712-.35-8.422-3.234-11.98-1.04-1.28-7.253-4.83-8.678-5.027-2.065-.29-3.67 2.45-6.665.606-3.695-2.278-3.746-7.484-5.99-10.77-2.022-2.96-12.45-11.417-16.017-14.42s-13.133-7.322-12.715-12.604c.452-5.726 3.251-9.173 2.748-16.999-.444-6.869-.017-3.805 1.34-9.395.879-3.618-2.637-17.51-5.086-20.318-3.192-3.66-10.266-4.53-12.945-9.113.23-9.2.7-18.279 1.519-27.384.042-.503-.034-1.015 0-1.519l1.356-.896.163-6.707c1.937-13.807 3.746-27.622 7.611-41.07z"/><path fill="#c98686" d="M561.297 655.88c.137.154.017 2.194 1.442 3.832 7.433 8.516 11.896 6.878 16.12 20.446 3.26 10.47-1.733 9.651-1.87 14.48-.238 8.38 11.256 17.801 11.103 28.937-.086 6.034-7.885 31.215-10.83 37.266-.656 1.356-2.807 2.03-3.54 4.061-5.684 15.668-9.89 45.594-9.396 62.115.086 2.995-.452 5.717 1.528 8.362-.956.606-1.383 1.442-1.52 1.52-2.56 1.518-5.861 2.09-7.61 3.046 2.67-7.348-1.127-7.706-3.773-12.203-2.26-3.857-3.6-8.175-6.673-11.588-1.757-6.332-.674-25.771-4.812-28.724-.777-.554-2.356-.435-2.765-.964-.751-.973-.418-5.325-3.209-6.784l4.327-13.312-8.892-13.969-8.516-2.133c-1.391-2.074-.359-5.496-.939-8.184-.93-4.31-6.69-10.769-7.142-15.718-.214-2.355 2.551-4.54 2.867-7.364.435-3.917-2.125-6.861-1.63-10.641.375-2.816 3.746-4.856 4.386-7.843 1.084-5.043 1.229-12.57 1.69-17.92 3.541-1.408 7.244-6.732 6.101-10.675-.666-2.312-5.726-2.022-8.277-5.418-4.13-5.513-4.233-9.524-6.042-15.258-.82-2.594-7.21-12.97-9.42-13.406l-3.61.623-4.54-6.92c4.488-.487 5.87-4.83 12.655-1.682l17.783-8.968c14.908 3.857 20.267 18.611 28.894 29.687 1.707 2.193 4.804 3.806 6.119 5.3z"/><path fill="#c17f84" d="M526.293 525.065c-1.322 8.046.444 22.621 1.545 31.155 1.416 11.016 6.434 10.445 12.936 15.974 3.269 2.773 4.916 6.093 7.723 9.088l6.656-1.433c-.392 3.208 2.816 4.25 3.968 6.075 1.246 1.963-2.364 5.052 2.176 6.076 3.055 5.163-.555 8.772-6.016 9.207-1.015 3.849.7 7.962.853 11.324.342 7.492 2.612 11.879 2.083 19.738-.103 1.553-1.468 3.046-1.477 4.6-.017 4.83 4.95 13.405 4.549 19.012-1.306-1.485-4.404-3.107-6.119-5.3-8.627-11.076-13.986-25.839-28.894-29.687-7.782-2.014-9.77-4.847-13.15-5.871-3.848-1.17-11.733-1.98-15.77-1.732-1.237.076-2.508-.154-3.762.042l-.803 1.477c-6.775-1.724-9.65 4.377-14.122 6.417-2.842 1.297-5.965 1.092-8.704 2.713l7.757-37.111c3.481-5.496 9.992-2.987 15.138-4.642 1.16-.376 10.445-7.407 11.35-8.431 3.395-3.849 1.253-8.755 2.994-12.22 1.971-3.925 10.291-10.027 12.28-15.113 2.884-7.398.068-16.913 6.792-21.35z"/><path fill="#cb8c8c" d="m497.374 613.29-4.574 10.65-9.13-2.287 3.558-3.635 5.572 1.365v-4.565l.81-1.476c1.247-.196 2.527.034 3.764-.043z"/><path fill="#bf767c" d="M646.537 529.621c.435 1.05 1.032 2.023 1.518 3.047l-4.565 3.806v2.27l6.741 1.467.862-1.468c9.378 18.774 16.888 36.864 21.308 57.805.802 3.798 2.5 8.653 3.046 12.169-3.089-.043-9.71-.376-11.912 1.792-.572.563-.64 2.415-1.715 3.55-3.209 3.396-12.809 12.492-16.734 13.747-3.012.956-5.496.333-8.2.93-7.928 1.74-7.766 5.342-20.045 5.837-2.987.12-6.144-1.587-5.317 3.046-5.256-29.534-16.921-63.087-28.92-91.272 6.23.392 11.691-3.124 17.528-4.54 5.043-1.229 9.029.18 15.01-3.251 6.93-3.977 4.745-3.823 13.577-6.204 6.161-1.664 10.778-3.985 17.818-2.73m-14.831 6.059a1.886 1.886 0 1 0-3.773 0 1.886 1.886 0 0 0 3.773 0"/><path fill="#b16168" d="M702.848 585.907c-4.59 1.135-11.785 1.246-15.761 3.26-2.662 1.348-1.886 3.499-3.43 4.429-2.484 1.502-8.141 2.73-11.247 2.96-4.42-20.94-11.93-39.03-21.308-57.804-1.007-2.022-2.065-4.045-3.047-6.084-.486-1.024-1.092-1.997-1.518-3.047v-1.519c20.89 19.977 38.374 34.39 56.311 57.805"/><path fill="#c67877" d="M587.179 576.777c26.735 83.49 30.634 156.458 4.565 240.34-8.79 5.923-16.956 12.656-25.873 18.254-1.98-2.646-1.442-5.368-1.528-8.363-.494-16.53 3.712-46.447 9.396-62.114.734-2.031 2.884-2.714 3.541-4.062 2.944-6.05 10.743-31.232 10.829-37.265.153-11.136-11.341-20.557-11.102-28.937.136-4.83 5.128-4.019 1.869-14.48-4.224-13.56-8.687-11.922-16.12-20.447-1.425-1.638-1.314-3.677-1.442-3.831.401-5.615-4.574-14.182-4.548-19.012 0-1.553 1.374-3.047 1.476-4.6.52-7.859-1.74-12.254-2.082-19.737-.154-3.362-1.869-7.484-.853-11.324 5.461-.444 9.062-4.045 6.016-9.208 2.858-5.828 3.96-8.174 10.65-4.565-1.323-9.241 7.457-11.537 15.223-10.65z"/><path fill="#ca99a1" d="m416.708 584.388-3.362 18.697c-2.355 8.96-7.893 19.353-8.815 28.458-6.647-1.425-15.744-.179-15.274-9.079-7.826 1.929-14.183-3.191-20.788-4.318-3.097-.529-6.007.103-8.815-.324-7.842-1.186-12.706-5.368-18.449-10.539-5.196 2.415-11.255 3.72-16.87 4.19-4.847.401-6.374-4.25-11.861 3.38-4.173 5.802-2.27 7.295-10.445 10.854-2.902 1.263-4.548 3.072-4.045-1.767 22.758-47.146 51.558-70.127 88.277-104.96 10.462 8.303 19.601 18.33 24.653 30.882 4.617 11.47 5.41 22.392 5.786 34.526z"/><path fill="#c68a93" d="M422.801 595.038c-3.994 13.585-8.218 30.063-9.13 44.117l-1.357.896c-.53 2.21.05 4.514-.163 6.707-.153 1.494.137 3.064 0 4.566-.315 3.345-2.816 11.963-3.046 15.215.632-12.263-5.854-22.35-4.565-34.987.921-9.105 6.46-19.499 8.815-28.459l3.362-18.696c.196 6.23-.982 8.397 6.084 10.65z"/><path fill="#c06969" d="M567.39 876.45c-2.637-1.263-1.502-5.87-1.52-8.371-.076-10.684-.938-20.66-1.527-31.18.137-.086.564-.922 1.52-1.52 8.917-5.606 17.083-12.33 25.872-18.253-7.15 23.015-12.782 37.94-24.354 59.324z"/><path fill="#cd979a" d="M297.993 623.94c-.504 4.839 1.152 3.021 4.044 1.767 8.184-3.55 6.28-5.052 10.445-10.855 5.487-7.62 7.015-2.978 11.861-3.379 5.615-.47 11.674-1.775 16.87-4.19 5.744 5.171 10.608 9.353 18.45 10.539 2.799.427 5.709-.205 8.815.324 6.605 1.127 12.962 6.247 20.787 4.318-.47 8.9 8.627 7.654 15.275 9.08-1.289 12.637 5.197 22.724 4.565 34.986-.435 6.238-1.519 16.956-1.519 22.059v27.383c0 4.438 1.1 14.106 1.46 19.84.247 4.062 2.679 8.226 1.587 12.86-.035-.128-1.101-.085-1.554-2.193-.34-1.63.205-3.67.035-5.419-3.166-.17-6.52.444-9.643-.247-3.354-.743-6.306-4.881-9.626-5.59-2.799-.597-5.64.009-8.593-.537-3.712-.691-6.954-3.96-9.386-4.3-2.842-.41-6.196.656-8.977-.155-6.025-1.757-14.02-17.817-18.663-20.898-5.325-3.532-12.552-6.647-18.816-4.77l-.085-4.48c-5.043-1.792-8.482-.298-13.517-.196-.99-5.658-7.014-7.817-10.692-11.443.443-6.955 2.927-11.947 5.939-17.954-.12-.53-6.758-7.441-7.484-7.808-2.637-1.323-6.912-.24-7.518-.862-1.126-1.17-1.425-6.725-6.229-5.948 3.61-12.928 6.502-20.181 12.177-31.94z"/><path fill="#d29d9d" d="M285.815 655.88c4.805-.776 5.103 4.78 6.23 5.948.597.623 4.88-.46 7.518.862.725.367 7.372 7.28 7.483 7.808-3.012 6.008-5.495 11-5.939 17.954 3.678 3.627 9.703 5.794 10.692 11.443 5.035-.102 8.466-1.595 13.517.197l.086 4.48c6.263-1.886 13.49 1.229 18.816 4.77 4.642 3.08 12.646 19.14 18.662 20.898 2.782.81 6.144-.256 8.977.154 2.432.35 5.675 3.61 9.387 4.3 2.944.555 5.794-.06 8.593.538 3.32.708 6.272 4.847 9.625 5.59 3.124.69 6.477.068 9.643.247.18 1.74-.375 3.789-.034 5.418.444 2.108 1.519 2.066 1.553 2.194 1.348 5.538 1.843 11.187 3.046 16.733-3.32-2.432-3.447-.76-4.633 2.22-.964 2.414-1.732 4.957-1.528 7.62l2.731 1.177c.367 3.388 3.558 3.746 6.468 4.198 3.03 12.783 7.757 25.216 10.658 38.033-5.034 5.521-10.052 4.25-16.742 6.085l.853-4.574c-1.22-2.995-7.424-5.308-8.294-6.238-.58-.614.12-3.362-.367-4.924-.538-1.732-3.02-3.055-4.156-5-2.33-3.985-2.159-9.83-6.238-13.585l-2.056-.487c-3.192 2.253-7.424 1.16-10.65-.46-3.84-1.938-3.686-5.641-6.613-7.083-1.476-.726-21.419-7.817-22.622-7.91-3.994-.308-4.548 2.704-7.543 3.148-7.023 1.033-15.275-2.347-21.368 2.825l-13.867-14.848c-6.382-.845-9.932-1.366-15.795 1.33-3.106-10.751-8.73-22.442-12.177-33.467-.324-1.032-1.39-2.15-1.519-3.046-3.242-22.298 1.579-52.967 7.612-74.539z"/><path fill="#bc8f95" d="m270.6 699.998 3.098-26.564c4.6-25.788 12.809-45.517 25.822-67.747.708 3.363-.631 5.334-1.766 8.124-3.192 7.868-9.054 17.058-11.614 24.9-5.35 16.393-7.032 37.052-11.307 54.11-.631 2.51-1.331 6.4-4.241 7.177z"/><path fill="#9a5b5f" d="M416.708 658.927c.256-3.652 1.289-5.948 1.52-7.603l-.163 6.707zm-4.565-12.177c.222-2.193-.367-4.497.162-6.707l1.357-.896c-.145 2.218.316 4.488-.162 6.707z"/><path fill="#bb6665" d="M702.848 585.907c8.516 11.11 16.478 22.067 22.827 34.987 6.425 13.064 11.784 28.433 15.223 42.59-5.53-2.057-9.497-6.178-10.88-11.938-6.937-4.02-6.545-.24-10.436 2.048-4.207 2.466-12.97 3.6-16.794 7.552-1.834 1.903-2.235 4.89-3.78 6.869-2.432 3.106-5.956 5.325-8.235 8.602 3.14 8.149-.136 6.937-2.406 11.195-.777 1.45-.879 2.978-.742 4.574-3.823.307-5.692-4.036-8.372-6.084l-2.244.017-.247 2.782-2.825.239c.35-5.29.939-10.667 1.545-15.95 2.252-19.395 2.944-45.405-.026-64.673-.546-3.516-2.244-8.371-3.046-12.169 3.106-.222 8.772-1.45 11.247-2.96 1.544-.93.759-3.081 3.43-4.43 3.985-2.013 11.17-2.124 15.761-3.26z"/><path fill="#debab8" d="M291.908 766.925c1.075 3.729 2.697 10.632 3.106 14.387.265 2.38 1.451 8.081-3.106 6.912-3.08-7.62-5.828-12.937-7.611-21.3-1.528-7.193-1.758-15.035-4.515-22.11l-.05-11.348c3.447 11.025 9.07 22.715 12.176 33.467z"/><path fill="#d09899" d="M415.19 687.82c2.679 4.583 9.753 5.462 12.944 9.114 2.45 2.808 5.965 16.7 5.086 20.318-1.357 5.59-1.783 2.526-1.34 9.395.504 7.826-2.295 11.273-2.747 16.999-.418 5.282 9.02 9.506 12.714 12.604s13.995 11.46 16.018 14.42c2.244 3.286 2.295 8.492 5.99 10.77 2.995 1.843 4.6-.887 6.664-.606 1.426.196 7.638 3.746 8.679 5.026 2.884 3.559 2.201 8.27 3.234 11.981 2.1 7.535 12.809 10.624 16.802 18.193 3.09 5.863 6.264 19.712 5.82 26.249s-6.272 15.052-6.153 21.999c-3.78 1.075-7.825 3.285-11.733 4.25-10.189 2.517-22.05 4.82-32.41 4.88-.35-.435-.102-1.834-1.519-1.519-19.882-49.39-36.48-89.967-38.05-144.512-.35-12.023-.247-24.473 0-36.505.017-1.016-.025-2.031 0-3.047z"/><path fill="#d5a0a0" d="M413.662 765.406c1.084 5.017 1.869 10.24 3.046 15.215-2.91-.452-6.101-.81-6.468-4.199l-2.73-1.177c-.205-2.663.563-5.206 1.527-7.62 1.186-2.97 1.314-4.651 4.633-2.22z"/><path fill="#cb8c8c" d="M415.19 727.373c-2.637-1.263-1.494-5.871-1.52-8.371-.042-5.07-.017-10.138 0-15.207.009-3.823-1.245-10.078 1.52-12.928-.248 12.032-.35 24.482 0 36.506"/><path fill="#b67688" d="m651.102 538.752-.862 1.468-6.741-1.468v-2.27l4.565-3.806c.973 2.04 2.03 4.062 3.046 6.085zM627.934 535.68a1.886 1.886 0 1 0 3.772 0 1.886 1.886 0 1 0-3.772 0"/></svg>