<svg xmlns="http://www.w3.org/2000/svg" viewBox="0 0 1024 1024"><path fill="#94bf15" d="M749.245 493.966c.888.017 2.543.23 3.627.34 2.167 31.028 8.337 45.39 11.946 84.164 7.527 80.793-7.458 160.741-40.737 235.134-16.461 36.796-39.535 67.652-62.421 100.727l-51.985 51.464c-9.958 9.864-71.9 48-90.589 55.884l-1.672 2.056c-132.47 4.259-257.397-43.383-348.029-145.713-125.183-141.345-139.92-353.047-33.74-512.883 4.25-6.4 10.948-12.126 15.598-16.153-11.69 5.845 52.01 82.9 59.776 92.346 12.68 15.429 24.166 26.863 37.776 41.353 9.532 6.954 25.438 14.378 38.23 11.076 76.765-19.789 148.384-44.1 222.521-72.43l161.671 54.98 59.98 17.296z"/><path fill="#55a02f" d="m517.405 1023.735 1.673-2.056c18.688-7.876 80.63-46.02 90.589-55.884l51.984-51.464c22.886-33.084 45.96-63.931 62.421-100.727 33.271-74.393 48.256-154.34 40.738-235.134-3.61-38.775-9.77-53.136-11.947-84.163 38.212-16.93 89.156-88.328 115.344-126.087 3.08-4.438 6.264-14.592 7.245-19.405 5.777 4.497 13.354 15.727 18.014 23.373 24.78 40.669 43.775 83.506 54.587 130.686 34.508 150.561-12.245 303.98-126.241 408.538-83.396 76.492-193.278 115.899-304.424 112.332z"/><path fill="#fdebcf" d="M364.259 244.692c-1.17 6.392-28.228 7.578-32.87 25.259-2.876 10.965 6.289 21.299 13.508 20.89 5.94 21.656 89.172 35.796 112.187 37.912 32.46 2.987 64.136 3.03 97.082.461l35.9-2.799c2.509-.196 9.805-4.164 9.898-4.796l26.36-4.394c3.643-.606 10.3-2.893 14.216-4.062-.137-.077 1.92 5.828 2.995 7.526l41.08 65.416 58.793 93.567c2.313 3.678 5.231 11.964 5.846 14.294l-18.048-.359-59.98-17.297-161.671-54.98c-74.137 28.33-145.757 52.642-222.522 72.43-12.791 3.295-28.689-4.12-38.229-11.075-13.61-14.498-25.088-25.924-37.777-41.353-7.773-9.446-71.466-86.501-59.775-92.346 10.624-9.216 22.186-18.927 34.636-28.237l23.868-17.843c39.765-29.721 77.098-60.304 117.554-85.478l14.993-4.317 4.616 30.25z"/><path fill="#f7cd99" d="M875.469 348.815c-.981 4.813-4.173 14.967-7.245 19.405-26.188 37.76-77.132 109.157-115.344 126.087-1.083-.111-2.739-.324-3.626-.341-.615-2.33-3.533-10.616-5.846-14.294l-58.794-93.567-41.079-65.416c-1.066-1.698-3.123-7.603-2.995-7.526l6.417-2.39c13.338-4.974 26.436-11.229 34.022-20.837 4.6-2.757 8.969-5.71 11.819-8.798 10.171-11.034-15.275-35.584-34.295-36.463.853-12.877 5.137-27.033 13.132-36.718 4.565-.18 19.755.588 25.48 4.864l91.58 68.41z"/><path fill="#0185c5" d="M671.627 207.957c-7.996 9.685-12.28 23.833-13.133 36.718-3.388 5.214-6.673 11.716-9.173 17.818-.794 1.288-3.303 6.442-3.994 8.652l-8.115 26.035c-1.8 5.777-7.39 15.002-10.897 20.045l-26.36 4.394-18.107-1.774 21.095-60.749 9.232-28.552c3.849-11.904 8.423-23.458 10.19-35.447 4.59-7.202 9.838-17.374 13.2-26.82l49.45-138.682C693.14 6.819 729.798-4.726 751.61 1.819l164.052 49.22c6.45 2.227 5.913 22.11 2.705 28.765-4.02 8.354-15.275 12.006-25.916 8.858L744.603 44.818c-14.14-4.19-22.87 8.337-26.513 19.029l-41.59 121.82c-2.382 6.964-4.054 15.898-4.882 22.29z"/><path fill="#f5ca96" d="M622.381 195.106c-1.766 11.989-6.34 23.534-10.188 35.447l-50.91-6.511c-69.085-8.84-132.41 4.113-197.016 20.659l-17.34-1.331-4.616-30.25-14.993 4.317c2.006-6.093 9.575-7.808 18.612-9.173 55.355-8.337 107.365-19.917 163.155-24.593 25.711-2.15 54.843 6.562 80.281 8.687l33.024 2.756z"/><path fill="#93d7f1" d="m602.96 259.105-21.095 60.748 18.108 1.775c-.094.631-7.39 4.6-9.899 4.796l-35.899 2.799c-32.947 2.568-64.63 2.525-97.083-.461-23.014-2.116-106.247-16.256-112.186-37.913 18.192-18.074 96.075-31.616 124.355-35.09 42.23-5.179 83.25-1.501 125.6 2.56l8.107.777z"/><path fill="#fdfdfb" d="m612.184 230.553-9.233 28.552-8.107-.777c-42.35-4.061-83.37-7.748-125.6-2.56-28.288 3.473-106.171 17.007-124.356 35.09-7.219.409-16.383-9.925-13.508-20.89 4.642-17.69 31.701-18.876 32.87-25.259 64.606-16.546 127.93-29.49 197.016-20.659l50.91 6.511z"/><path fill="#9bdaee" d="M680.98 289.936c-7.587 9.608-20.685 15.863-34.023 20.838l-6.417 2.389c-3.917 1.178-10.564 3.456-14.216 4.062 3.507-5.052 9.096-14.268 10.897-20.045l8.115-26.035c.69-2.21 3.2-7.364 3.993-8.652-4.335 16.742 22.963 13.286 31.65 27.443"/><path fill="#f8faf7" d="M680.98 289.936c-8.688-14.157-35.986-10.701-31.65-27.443 2.5-6.102 5.785-12.604 9.173-17.818 19.02.88 44.466 25.43 34.295 36.463-2.85 3.089-7.22 6.041-11.819 8.798"/></svg>