<svg xmlns="http://www.w3.org/2000/svg" viewBox="0 0 1024 1024"><path fill="#9b5321" d="M512 896c212.082 0 384-171.918 384-384 0-71.993-19.812-139.35-54.272-196.935C813.909 300.089 704 237.71 512 128 324.565 233.145 214.57 295.666 181.988 315.548A382.2 382.2 0 0 0 128 512c0 212.082 171.918 384 384 384"/><path fill="#aa6f44" d="M455.111 768c212.082 0 384-171.918 384-384 0-14.692-1.806-36.238-5.419-64.654L512 135.11 184.889 312.89c-61.625 132.736-75.463 231.21-41.5 295.395C213.12 705.038 326.755 768 455.11 768"/><path fill="#fff" d="M262.684 533.333a14.22 14.22 0 0 1 14.223 14.223c0 47.274 16.497 91.761 46.62 125.667a14.222 14.222 0 1 1-21.276 18.887c-34.788-39.168-53.789-90.382-53.789-144.554a14.22 14.22 0 0 1 14.222-14.223m3.343-69.86a14.222 14.222 0 0 1 26.069 11.364 183.4 183.4 0 0 0-9.444 27.378 14.222 14.222 0 0 1-27.548-7.111 211.5 211.5 0 0 1 10.923-31.63M199.111 298.667c37.93 75.847 80.597 113.777 128 113.777s80.597-14.222 99.556-42.666q42.667 42.666 85.333 42.666c42.666 0 56.889-14.222 85.333-42.666 28.445 28.444 61.625 42.666 99.556 42.666s85.333-33.18 142.222-99.555L512 120.889z"/><path fill="#191919" d="M597.077 355.556h.299a14.3 14.3 0 0 1 9.216 3.413l.654.611.512.527c47.19 50.816 116.85 50.816 164.04 0a14.222 14.222 0 1 1 20.85 19.342c-54.956 59.193-136.762 62.72-194.93 10.638-50.276 48.427-119.794 48.782-170.369 1.024-.71.029-1.422 0-2.133-.071-58.098 51.086-139.236 47.232-193.849-11.591a14.222 14.222 0 1 1 20.836-19.342c47.189 50.816 116.85 50.816 164.039 0l.483-.512a14.4 14.4 0 0 1 2.76-2.091l58.111-135.538a14.222 14.222 0 1 1 26.14 11.193l-58.24 135.936c42.596 41.515 100.552 38.656 141.043-8.576l.384-.427.74-.74.07-.07a22 22 0 0 1 .484-.427l-.569.498a14.25 14.25 0 0 1 9.372-3.797z"/><path fill="#191919" d="m498.076 103.196-171.534 96.54c-85.091 48.1-138.14 78.579-159.374 91.535a28.44 28.44 0 0 0-9.614 9.714A410.6 410.6 0 0 0 99.556 512c0 227.783 184.66 412.444 412.444 412.444S924.444 739.784 924.444 512c0-75.52-20.352-148.124-58.31-211.541a28.44 28.44 0 0 0-10.91-10.425l-42.168-23.467a33524 33524 0 0 1-141.028-80l-145.92-83.257a28.44 28.44 0 0 0-28.017-.114zM344.32 255.047l167.566-94.364 250.638 142.691c24.932 14.08 43.464 24.49 55.61 31.204l3.029 1.664 3.441 6.186A353.84 353.84 0 0 1 867.556 512c0 196.366-159.19 355.556-355.556 355.556S156.444 708.366 156.444 512l.072-7.48a353.6 353.6 0 0 1 42.666-161.665l3.712-6.699 20.75-12.202a5952 5952 0 0 1 28.843-16.654l91.819-52.253z"/></svg>