<svg xmlns="http://www.w3.org/2000/svg" viewBox="0 0 1024 1024"><path fill="#b2e4e2" d="m224.75 315.035-1.484 32.393.017 199.457c0 3.687 12.117 10.326 11.17 7.612l-1.195 56.883.188 250.564 5.154 5.282c5.325 9.83 16.896 20.95 28.168 28.058l131.67 83.131c8.874 5.606 23.96 14.498 34.056 15.377 7.5.649 16.153-17.971 16.145-24.619l-.47-255.555c-.017-6.955-1.706-16.785-1.459-21.53.53-10.35 1.852-29.388 1.707-40.294l4.65 4.634 1.69 55.62 14.038-1.946-.427-58.743 5.248-4.694.136 319.701c5.598 13.338 5.923 14.097 5.513 13.141.213 4.455 14.515 11.597 19.78 10.01l118.05-35.567 131.02-38.059c13.91-4.044 29.79-15.829 37.777-28.475l-.238-285.883v-12.194c.017-3.098-9.404-3.61-17.801-5.06l-1.553-85.206-.12-157.175-58.393 13.585c-1.434-4.693-3.439-12.757-3.95-17.34-.419-3.66 8.336-8.32 11.784-11.195l8.772-7.339 56.166-16.042c7.091-2.023 18.09-3.038 24.84-3.294.905 145.63.845 433.577.624 580.675-.077 54.314-64.248 63.283-109.235 76.535l-90.556 26.675-118.016 34.944c-40.934 12.117-68.582.614-106.3-23.441L249.72 911.326c-13.397-8.55-31.838-26.624-31.838-44.177l-.051-338.533.316-219.895c0-3.38 6.912-12.186 5.708-9.216.282 4.215 1.067 11.622.888 15.513z"/><path fill="#e0f8f6" d="m653.72 106.293 3.046 9.174-7.944 12.245-23.782 36.642-40.935 62.114-14.395 20.753c-32.384 46.686-52.446 77.858-70.793 129.22-8.132 4.958-18.073 8.678-27.554 10.667l-8.508-11.11c-4.949-7.706-13.516-21.94-19.908-30.524l-60.825-81.758c-4.967-6.673-11.904-14.31-16.589-19.575l-31.309-45.184c-5.111-7.373-10.078-16.487-13.49-23.313l4.7-2.21 31.497-5.334 34.893-6.468 35.14-7.168 53.948-11.264 49.8-10.394 46.012-9.6 71.56-14.933 5.436-1.997z"/><path fill="#ebeae1" d="m653.72 106.293-5.436 1.997-71.56 14.934-46.012 9.6-49.8 10.393-53.948 11.264-35.14 7.168-34.893 6.468-31.496 5.334-4.702 2.21-10.871-3.917c-1.118-6.118-3.311-16.128-3.405-20.207l-1.331-62.66c-.282-13.389 11.724-27.528 25.207-30.293l199.654-41.037 51.763-9.728L632.463.207c35.166-5.265 21.803 91.35 21.257 106.086"/><path fill="#d3f3f5" d="M805.4 300.298c-6.75.256-17.75 1.263-24.84 3.294l-56.167 16.043-29.944 6.767-134.271 33.98-61.27 16.076c18.347-51.362 38.41-82.534 70.793-129.22l14.396-20.753 40.934-62.114 23.782-36.642 7.945-12.245c12.023 9.822 21.538 20.505 30.285 31.906l19.89 25.933 27.23 35.498 60.604 76.698c3.576 4.522 10.598 10.555 10.624 14.796z"/><path fill="#77c9c4" d="M320.716 175.66c3.413 6.827 8.38 15.932 13.491 23.314l31.309 45.184c-.341 1.228-6.818 7.756-10.052 9.233l-72.576 33.237c-9.617 4.403-19.226 8.721-27.34 13.201l-25.814 14.25-4.992.956c.179-3.89-.606-11.29-.888-15.513l85.99-127.778z"/><path fill="#fcf4e3" d="m785.654 601.55.238 285.883c-7.987 12.646-23.867 24.43-37.777 28.476l-131.02 38.058-118.05 35.567c-5.265 1.587-19.567-5.555-19.78-10.01l-.46-284.014 58.256-14.942 33.16-8.584 43.205-12.015 112.016-33.203c9.609-2.85 21.556-14.831 28.246-19.96l22.229-17.007 9.737 11.768z"/><path fill="#fdfdeb" d="M446.702 692.088c-.24 4.745 1.45 14.575 1.459 21.53l.47 255.555c.008 6.648-8.645 25.268-16.146 24.62-10.103-.88-25.181-9.772-34.056-15.378l-131.67-83.131c-11.263-7.117-22.843-18.228-28.168-28.058l.111-288.588 52.77 31.778 32.53 18.765c40.976 23.637 81.842 43.477 122.683 62.899z"/><path fill="#aeeae2" d="m462.847 376.014 8.508 11.11c1.28 1.673 2.44 5.897 2.466 14.32l.682 230.698-.896 14.532-5.248 4.693.427 58.744-14.037 1.945-1.69-55.62-4.65-4.633-1.272-92.485-115.823-41.241c-23.321-8.303-53.009 2.628-68.667 14.703l-28.186 21.726c.947 2.722-11.17-3.926-11.17-7.612l-.017-199.458 1.485-32.392 4.992-.956c6.955 4.028 18.116 10.112 27.068 12.877l161.1 49.766c13.474 4.164 25.122 6.554 41.941 10.71l3.004-11.427z"/><path fill="#bceee6" d="m724.393 319.635-8.772 7.338c-3.448 2.885-12.194 7.535-11.785 11.196.52 4.583 2.517 12.647 3.951 17.34l-9.651 5.069c-4.915 2.585-11.512 13.56-11.563 19.746l-1.22 144.656c-.137 15.915-1.357 41.762-2.313 55.032-10.726.264-25.804.887-37.828 4.113L489.6 625.802c-4.497 1.203-13.27 5.555-15.087 6.34l-.683-230.698c-.025-8.414-1.186-12.647-2.466-14.32 9.48-1.987 19.422-5.708 27.554-10.666l61.27-16.077 134.271-33.98 29.943-6.766zM642.19 542.474c34.919-21.086 22.878-88.934.658-93.082-23.16-4.317-34.15 21.163-37.905 39.544-3.465 16.972 2.03 43.357 12.407 52.88 3.703 3.397 20.318 3.38 24.832.65z"/><path fill="#dff2e7" d="M448.408 651.794c.154 10.897-1.177 29.943-1.706 40.294-40.85-19.422-81.707-39.27-122.684-62.899l-32.529-18.764-52.77-31.779-.11 288.589-5.155-5.283-.187-250.563 1.194-56.883 28.186-21.726c15.658-12.066 45.346-23.006 68.667-14.703l115.823 41.241 1.271 92.485z"/><path fill="#e4fefa" d="m785.654 601.55-9.737-11.768-22.23 17.007c-13.687 5.197-53.213 11.145-63.59-6.656-3.566-6.118-7.415-15.215-7.057-20.121.956-13.27 2.176-39.125 2.313-55.032l1.22-144.656c.051-6.187 6.648-17.17 11.563-19.746l9.651-5.07 58.393-13.584.12 157.175 1.553 85.205c8.397 1.45 17.818 1.963 17.818 5.06v12.194z"/><path fill="#e6f3e7" d="M683.04 580.012c-.35 4.906 3.5 14.003 7.057 20.121 10.377 17.8 49.895 11.853 63.59 6.656-6.698 5.129-18.636 17.11-28.245 19.96l-112.016 33.203-43.204 12.015-33.16 8.584-58.258 14.942.46 284.014c.41.956.095.197-5.512-13.141l-.136-319.7.896-14.533c1.817-.776 10.59-5.137 15.087-6.34l155.613-41.677c12.024-3.217 27.102-3.84 37.828-4.113z"/><path fill="#88d9d3" d="m462.847 376.014-3.004 11.427c-16.819-4.156-28.467-6.546-41.941-10.71l-161.1-49.766c-8.952-2.765-20.114-8.85-27.068-12.877l25.813-14.25c8.115-4.48 17.724-8.798 27.34-13.201l72.577-33.238c3.234-1.485 9.702-8.004 10.052-9.233 4.693 5.265 11.622 12.894 16.589 19.576l60.825 81.757c6.392 8.593 14.959 22.827 19.908 30.524z"/><path fill="#e2fef9" d="M642.191 542.474c-4.514 2.722-21.128 2.747-24.831-.649-10.386-9.532-15.881-35.908-12.408-52.88 3.755-18.381 14.746-43.862 37.905-39.544 22.212 4.147 34.253 71.995-.657 93.081z"/></svg>