<svg xmlns="http://www.w3.org/2000/svg" viewBox="0 0 1024 1024"><path fill="#ad2232" d="m60.928 917.828 13.474 21.41 124.962 56.107 116.838-20.796 127.044-120.243 1.135-192.46-18.005-12.34-14.746-10.914-74.3-12.62-31.197 1.8-23.962-13.329-49.203-13.047-76.143-6.946-65.646 25.378-42.82 75.153zM595.105 665.2l57.856-31.189 63.002-9.216 73.02-30.916 45.158-27.435 14.822 1.605 45.944 30.839 58.419 124.211-12.86 127.053-89.992 133.094-104.354 33.271-41.003-3.106-30.532-23.765-116.01-129.715-20.984-120.994z"/><path fill="#ad2232" d="M287.914 613.718v4.3c-8.158-.588-11.238-2.27-24.482-.878-5.632.589-14.387-7.697-18.526-1.272 26.812 31.898 77.816 56.755 116.113 30.089l-28.894-9.822c-5.316-.017-9.19-9.225-9.813-9.506.128-2.56 4.045-3.704 4.3-4.301l70.068 9.489c10.487 2.406 19.96 7.765 28.851 11.998-15.778-.691-5.777 2.492-2.304 8.747 21.513 38.707 21.811 101.11 10.155 143.078C394.129 936.96 200.507 1018.65 78.6 932.463c-6.647-4.702-11.912-9.284-10.052 3.601C16.99 870.392 7.22 791.126 26.436 711.322c13.602-56.482 58.931-124.996 118.204-139.75 5.785-1.442 24.038-4.839 29.491-5.274 2.859-.23 29.047 4.19 33.382 5.274 28.954 7.245 54.042 29.03 80.393 42.154zm-151.978 9.301c-30.106 6.665-71.364 65.74-62.524 95.471l15.036 15.24c18.876 2.083 22.903-14.122 31.641-23.398 18.04-19.149 59.41-48.4 51.15-76.749-3.807-13.064-23.886-13.098-35.312-10.564z"/><path fill="#9e1927" d="M425.548 643.798c31.446 14.967 58.104 42.598 68.813 77.363s8.508 73.66-1.058 108.535c-38.946 142.012-182.187 234.027-325.888 177.331-38.323-15.12-73.403-38.562-98.858-70.98-1.852-12.877 3.405-8.303 10.052-3.601 121.916 86.187 315.528 4.497 354.781-136.823 11.657-41.967 11.358-104.371-10.154-143.079-3.473-6.254-13.483-9.437 2.304-8.746z"/><path fill="#c44a5a" d="M135.936 623.02c11.426-2.527 31.505-2.493 35.31 10.563 8.261 28.348-33.109 57.592-51.148 76.75-8.738 9.275-12.766 25.48-31.642 23.398L73.421 718.49c-8.84-29.73 32.418-88.806 62.523-95.47z"/><path fill="#9a1b2a" d="M287.914 618.01c3.456.248 32.017 7.5 34.407 8.593.623.282 4.497 9.498 9.813 9.506l28.894 9.822c-38.298 26.667-89.301 1.818-116.113-30.088 4.139-6.426 12.894 1.86 18.526 1.271 13.243-1.39 16.315.299 24.482.88z"/><path fill="#376d31" d="m477.158 7.724 4.062 29.747-8.61 2.705c.913 7.049-.683 14.695.128 21.547.733 6.212 3.933 5.444 4.42 6.17.81 1.194 3.302 2.389 5.128 5.444C561.663 206.192 621.354 366.9 690.141 506.189l40.78 103.228c-1.288.717-4.496 7.083-12.808 10.829-12.28 5.53-19.097 1.51-21.598 2.065l-66.594-171.99L466.406 115.16 437.46 271.045c-30.456 116.898-63.07 240.247-110.831 351.266-.256.597-4.173 1.74-4.3 4.3-2.39-1.1-30.951-8.345-34.407-8.592v-4.301c79.3-171.921 131.003-368.358 150.724-556.381 1.86-17.733-.828-35.917 4.429-53.59 11.767-5.418 25.01-5.666 34.099 3.977z"/><path fill="#438233" d="M485.76 24.919c8.37 10.154 60.919 25.37 77.49 32.153 108.817 44.561 218.47 87.492 326.716 133.385 13.5 5.725 28.501 13.235 43.085 14.967.529 2.44-.111 5.777-.069 8.482-87.645 29.568-179.106 37.82-266.658 2.321-78.498-31.83-151.466-95.931-184.891-174.122l-4.292 25.779c-.487-.725-3.687.043-4.42-6.17-.811-6.86.785-14.498-.129-21.546l8.61-2.705-4.061-29.748c5.999 6.366 2.688 10.019 8.601 17.195z"/><path fill="#64a338" d="M933.068 205.424c-14.584-1.724-29.594-9.242-43.085-14.967-108.245-45.893-217.907-88.832-326.715-133.385-16.572-6.784-69.12-21.999-77.492-32.153l88.26-21.402c135.74-12.211 247.953 35.84 326.596 146.227 7.27 10.206 30.302 45.815 32.444 55.68z"/><path fill="#ae2132" d="M834.14 566.443c23.8 28.425 51.798 49.485 69.65 82.978 71.475 134.11 7.816 289.442-129.8 344.712l-68.882 19.277c-114.653-34.09-211.344-178.107-172.04-296.55 14.968-45.098 50.953-74.948 97.579-85.145 21.367-4.677 44.987-4.77 65.851-9.404 2.51-.555 9.319 3.464 21.598-2.065 8.303-3.738 11.52-10.112 12.809-10.829 1.903-1.058 7.347-.862 11.588-3.31 37.444-21.667 45.79-33.17 91.63-39.664zm-176.332 85.94c40.047 11.622 75.725 3.387 103.22-27.922 4.249-4.838 10.308-7.082 8.592-15.044-1.962-2.074-20.975 11.187-24.328 12.211-25.276 7.689-50.227 14.097-75.69 23.22-4.575 1.638-12.81 1.587-11.794 7.534m-66.142 56.43c-2.978.88-13.337 11.222-15.675 14.413-23.126 31.599-16.632 106.684 27.588 118.041 23.953-13.9 13.636-38.698 15.326-62.267.486-6.844 4.087-12.143 4.403-17.092 1.638-25.669 5.726-64.06-31.642-53.095"/><path fill="#9f1927" d="m705.117 1013.41 68.88-19.277c137.61-55.27 201.268-210.602 129.801-344.712-17.851-33.493-45.85-54.553-69.649-82.978 3.687-.52 7.28-5.137 14.848-4.446C983.5 574.302 1029.272 748.741 996.53 859.793c-35.499 120.371-172.774 188.902-291.413 153.626z"/><path fill="#c54d5a" d="M591.666 708.813c37.368-10.965 33.272 27.418 31.642 53.095-.316 4.949-3.908 10.248-4.403 17.092-1.69 23.577 8.627 48.367-15.326 62.267-44.22-11.357-50.705-86.45-27.588-118.041 2.33-3.191 12.689-13.534 15.675-14.413"/><path fill="#981826" d="M657.808 652.382c-1.024-5.947 7.22-5.896 11.793-7.535 25.455-9.122 50.407-15.53 75.69-23.219 3.363-1.024 22.367-14.285 24.33-12.21 1.723 7.96-4.344 10.196-8.594 15.043-27.494 31.318-63.172 39.552-103.219 27.921"/></svg>