<svg xmlns="http://www.w3.org/2000/svg" viewBox="0 0 1024 1024"><path fill="#ff7b7b" d="M533.8 453.9h314.8v443.9H533.8z"/><path fill="#232323" d="M848.6 913.6H533.8c-8.8 0-15.9-7.1-15.9-15.9V453.9c0-8.8 7.1-15.9 15.9-15.9h314.8c8.8 0 15.9 7.1 15.9 15.9v443.9c0 8.7-7.1 15.8-15.9 15.8m-298.9-31.7h283V469.7h-283z"/><path fill="#fff" d="M848.6 453.9H533.8l22.3-39.6h270.3z"/><path fill="#232323" d="M848.6 469.7H533.8c-5.6 0-10.8-3-13.7-7.9s-2.9-10.9-.1-15.8l22.2-39.5c2.8-5 8.1-8.1 13.8-8.1h270.3c5.7 0 11 3.1 13.8 8.1l22.2 39.5c2.8 4.9 2.7 10.9-.1 15.8-2.7 4.9-8 7.9-13.6 7.9M561 438h260.5l-4.4-7.8H565.3z"/><path fill="#fff" d="M848.6 897.8H533.8l22.3 39.5h270.3z"/><path fill="#232323" d="M826.4 953.2H556.1c-5.7 0-11-3.1-13.8-8.1L520 905.6c-2.8-4.9-2.7-10.9.1-15.8s8.1-7.9 13.7-7.9h314.8c5.6 0 10.8 3 13.7 7.9 2.8 4.9 2.9 10.9.1 15.8l-22.2 39.5c-2.8 5-8.1 8.1-13.8 8.1m-261.1-31.8h251.8l4.4-7.8H561z"/><path fill="#fff" d="m644.2 414.3-22.3-3.5 15-95.3c.7-4.6 4.2-8.3 8.8-9.3l165.7-36 4.8 22.1L658 326.7z"/><path fill="#232323" d="M644.2 423.9c-.5 0-1 0-1.5-.1l-22.3-3.5c-2.5-.4-4.7-1.8-6.2-3.8s-2.1-4.6-1.7-7.1l15-95.3c1.3-8.4 7.8-15.3 16.1-17.1l165.7-36c5.1-1.1 10.2 2.1 11.3 7.3l4.8 22.1c.5 2.5.1 5-1.3 7.2-1.4 2.1-3.5 3.6-6 4.2l-151.8 33-12.8 81.2c-.6 4.5-4.7 7.9-9.3 7.9m-11.4-21 3.5.5 12.3-78.3c.6-3.9 3.5-7 7.4-7.8L804.9 285l-.7-3.4-156.4 34c-.7.2-1.3.7-1.4 1.5z"/><path fill="#83caff" d="M261.2 80.1h139.1V151H261.2z"/><path fill="#232323" d="M400.3 166.9H261.2c-8.8 0-15.9-7.1-15.9-15.9V80.1c0-8.8 7.1-15.9 15.9-15.9h139.1c8.8 0 15.9 7.1 15.9 15.9V151c0 8.8-7.1 15.9-15.9 15.9m-123.2-31.7h107.4V96H277.1z"/><path fill="#edf4fc" d="M486.1 289H175.4l85.8-138h139.1z"/><path fill="#232323" d="M486.1 304.9H175.4c-5.8 0-11.1-3.1-13.9-8.2-2.8-5-2.6-11.2.4-16.1l85.8-137.9c2.9-4.7 8-7.5 13.5-7.5h139.1c5.5 0 10.6 2.8 13.5 7.5l85.8 137.9c3 4.9 3.2 11.1.4 16.1s-8.1 8.2-13.9 8.2m-282.2-31.8h253.6l-66.1-106.2H270z"/><path fill="#83caff" d="M175.4 289h310.8v188.5H175.4z"/><path fill="#232323" d="M486.1 493.4H175.4c-8.8 0-15.9-7.1-15.9-15.9V289c0-8.8 7.1-15.9 15.9-15.9h310.8c8.8 0 15.9 7.1 15.9 15.9v188.5c-.1 8.8-7.2 15.9-16 15.9m-294.8-31.7h279V304.9h-279z"/><path fill="#edf4fc" d="M469.4 943.9H192.1l-16.7-46.1V563.5l18.5-39-18.5-47h310.7l-18.5 47 18.5 39v334.3z"/><path fill="#232323" d="M469.4 959.8H192.1c-6.7 0-12.6-4.2-14.9-10.5l-16.7-46.1c-.6-1.7-.9-3.6-.9-5.4V563.5c0-2.4.5-4.7 1.5-6.8l15.6-32.8-16-40.5c-1.9-4.9-1.3-10.4 1.6-14.8s7.9-6.9 13.1-6.9h310.8c5.3 0 10.2 2.6 13.1 6.9 3 4.3 3.6 9.9 1.6 14.8l-16 40.5 15.6 32.8c1 2.1 1.5 4.5 1.5 6.8v334.3c0 1.8-.3 3.7-.9 5.4l-16.7 46.1c-2.3 6.3-8.3 10.5-15 10.5M203.2 928h255.1l12-33V567l-17-35.8c-1.9-4-2-8.5-.4-12.6l10-25.2H198.7l10 25.2c1.6 4.1 1.5 8.7-.4 12.6l-17 35.8v328z"/><path fill="#fff" d="M368.4 402.5c0 20.2-16.9 36.7-37.7 36.7S293 422.8 293 402.5c0-20.2 37.7-75.1 37.7-75.1s37.7 54.9 37.7 75.1M689.2 865.2c-6.5-5.8-11.7-13.1-16.4-20.6-4.6-7.5-8.5-15.6-11.7-23.8-.4-1-.8-2.1-1.2-3.1l-1.1-3.1-2.1-6.3c-.7-2.1-1.2-4.3-1.8-6.4-.6-2.2-1.2-4.3-1.7-6.5-1-4.3-2-8.7-2.6-13.1-.7-4.4-1.6-8.8-1.9-13.2-.4-4.5-1-8.7-1.1-13.6-.2-2.4-.1-4.8 0-7.2 0-2.4.2-4.8.4-7.2.8-9.6 2.8-19.4 6-28.6 3.1-9.2 7.2-17.9 11.6-25.7 4.4-7.9 9-15.2 13.1-22.1 8.5-13.8 15-26.6 19.1-40.5 2-7 3.5-14.2 4.4-21.6.4-3.8.8-7.5 1-11.5l.4-6c.1-2 .3-4 .2-6 .5-15.9-.3-31.9-2.7-47.9-1.2-8-2.8-16-5.1-23.9s-5-15.8-9.1-23.5c7.3 4.9 13.3 11.6 18.6 18.7 1.3 1.8 2.7 3.6 3.8 5.5l3.5 5.7c1.1 1.9 2.1 3.9 3.2 5.9.5 1 1.1 2 1.6 3l1.4 3c7.5 16.3 12.2 33.8 14.7 51.6 1.1 8.9 2.2 17.6 2.2 27.1 0 9.4-.8 18.9-2.8 28.4-1.9 9.4-5 18.7-8.8 27.4-1.9 4.4-4 8.5-6.1 12.6-2.2 4-4.4 8-6.7 11.7-4.6 7.5-9.1 14.4-13.1 21.2-4.1 6.7-7.6 13.2-10.4 19.7-2.9 6.6-5 13.3-6.5 20.3-1.5 7.1-2.2 14.3-2.6 22.5-.5 8-.6 16-.6 24.1 0 4 .3 8 .4 12.1l.4 6.1.2 3 .3 3c.7 8.1 1.9 16.2 3.5 24.4 1.2 8.1 3.1 16.2 6.1 24.4"/></svg>