<svg xmlns="http://www.w3.org/2000/svg" viewBox="0 0 1024 1024"><path fill="#ee7d06" d="m737.059 734.327.128-3.473c.034-.836 1.024-1.135 2.005-1.501z"/><path fill="#f5950d" d="M268.869 757.026c.136 2.765.076 6.852-.137 9.54l-1.553 18.97-1.92 19.302c-.904 9.123.888 22.272 2.202 29.876 1.758 10.223 13.337 19.618 13.508 40.576.034 3.976.597 10.274-.043 13.098l-2.824 12.485c-3.345 1.16-9.728 2.85-13.244 2.747l-18.782-.529-15.053-18.048c-2.773-3.328-10.513-8.09-12.902-11.452l-6.682-9.386c2.757.81 27.46-1.57 26.044-9.302l-2.714-14.796c-2.039-11.102-15.223-8.5-16.742-14.772-.657-2.713 1.417-7.765 3.448-11.477 2.628-4.804-1.28-13.457-6.213-16.12-6.664-3.592-10.914-7.142-15.48-13.414-7.799-10.726-11.144 4.13-26.393-4.95-2.449.231-9.574 1.912-12.373 1.375-4.736-.905-9.6-8.832-11.614-12.715l-2.722-5.256c-.734-1.417-7.347-.325-7.834 1.177l-5.768 17.656c-2.373 7.279-16.965 21.64-14.712 38.374 1.357 10.052 25.378 9.549 32.709 23.032l-4.745 16.23c-.555 1.894 2.219 5.786 3.66 6.972l5.437 4.471c-.512.026-5.35-.367-6.358-1.28l-12.714-11.46c-4.566-4.113-8.158 3.9-24.389-5.735-4.872-2.892-10.214-6.314-14.686-8.345l-25.71-11.674 7.244-10.615c1.878-2.748 8.243-10.027 5.888-15.727-.46-1.11-3.703-1.45-4.616-.666l-12.177 10.41c-6.332 5.42-20.165 6.648-27.58 3.781-21.248-8.226-14.558-32.921-20.702-53.999l-3.746-12.842c-.504-1.733-1.63-4.37-1.946-4.574-.05-.563-.076-1.639-.102-2.313-.248-4.215-1.297-8.405-2.287-11.511l-5.948-22c-2.218-8.217.29-19.404 3.61-26.674l2.253-3.021c1.22-1.639 5.17-3.746 7.253-3.286l20.77 4.634 13.363 2.816c2.893.614 6.042 7.236 7.441 10.428 6.144 13.994 11.921 2.824 17.11 15.437 1.45 3.524 7.108 10.888 10.419 9.728 18.236-6.417 7.637-31.796 17.988-35.525 4.31-1.553 11.222 3.61 15.71 7.825 13.645 12.835 40.337 10.573 58.428 9.626 2.142-.11 7.125-5.026 8.09-6.784l5.853-10.65c3.362-6.118-6.81-12.928-12.493-13.533-30.301-3.218-55.662-32.726-44.834-44.246l10.812-11.503c1.562-1.664 5.3-5.649 7.236-4.906l11.358 4.377c13.124 5.052 19.857 6.136 32.094 17.127 2.893 2.594 13.577 4.463 15.633 1.203 2.219-3.516 4.31-9.498 6.187-14.148s15.548-2.876 18.287 2.176l13.158 24.251c4.258 7.85 3.43 17.826 2.1 26.727-1.537 10.265-.675 20.138.537 30.78 1.51 13.286-6.844 14.515 4.19 23.859 3.481 2.952 9.847 10.043 10.06 14.301l.692 13.859zm-49.144-.102.862-18.842c.222-4.821-5.76-15.83-11.213-15.172-5.785.7-10.581 1.8-15.718 3.439-9.634 3.072-12.211 26.7-1.835 33.374 3.815 2.449 7.475 3.908 12.083 5.64 5.428 2.048 15.514-1.775 15.821-8.44"/><path fill="#fdac1a" d="M266.778 388.463c.802 3.37 1.118 3.31 2.116.043.845.52 2.355 1.604 3.038 2.338 2.355 2.517 6.938 5.563 10.547 6.784 2.629.887 5.99 1.911 9.626 2.884l25.489 6.844.085 3.703c.017.896 2.219.64 5.36.7l3.814 2.901c-2.603 0-8.423-.239-11.324.222l-16.708 2.688c-8.363 1.348-13.406 18.56-21.402 10.658l-12.612-12.458c-4.147-4.096-13.526-3.619-18.876-2.134l-14.609-3.865c-3.934-1.041-13.5-.333-17.468.776-32.008 8.935-19.464-1.997-41.805 6.05-3.003 1.084-9.31 6.767-9.514 9.174 2.39 3.78 7.782 9.036 7.953 12.322.597 11.99-7.663 29.022-18.663 35.225l-16.503 9.31c-11.546 6.511-17.664-10.47-29.995.384-2.5 2.202-3.447 7.945-2.517 10.684l3.533 10.42c11.844 10.837 30.054 1.484 40.038 6.903 24.747 13.431 28.075-2.108 35.644 6.348l-.862 12.579c12.322.879 22.306 1.254 32.836 4.625 5.752 1.843 10.76 3.217 16.128 1.69l18.518-5.274c1.595-.453 5.751-4.02 7.048-4.847l11.358-2.483c1.476-.325 6.34.042 6.426 1.578s-.154 5.171-.751 6.596l-3.37 8.039c-1.742 4.147-4.131 7.74-8.193 10.521-12.262 8.397-1.536 12.92-8.832 18.398l-4.156 3.115-6.118 1.843c2.714 8.004 5.367 12.886 10.667 16.452l13.167 8.858c.221-.188-1.75 3.302-2.552 4.403l-5.76 7.91c-17.869-4.12.085-3.447-25.532-9.523-7.774-1.843-16.256-3.08-25.267-3.2l-12.33-.162c-21.291-.281-16.59-17.851-38.759-24.2-6.204-1.775-15.812-5.436-20.881-5.197l-25.617 1.22c-2.04.094-6.997-2.5-7.339-3.277l-5.845-12.364c-6.101-4.25-6.716-8.124-12.425-8.61l-4.556-1.912c-11.674-10.675-29.005-3.763-49.955-10.692-7.39-2.45-28.032-13.875-24.507-21.914 10.683-19.183 25.617-20.796 43.204-29.363l27.511-13.397c5.35-2.603 12.98-4.335 18.15-7.228 25.26-14.131 39.135-39.51 43.034-42.829 10.949-9.31 25.583-13.303 38.98-17.16l23.177-6.665 19.951-5.598c3.08-.862 10.087-4.659 13.628-4.796l23.15-.904c3.21-.128 9.78 3.08 11.418 4.847z"/><path fill="#ea6c08" d="m83.593 546.074 8.03 10.982c3.217 4.403 5.649 8.567 10.24 9.984.341.777 5.29 3.37 7.338 3.277l25.618-1.22c5.068-.24 14.677 3.421 20.88 5.196 22.17 6.35 17.477 23.92 38.759 24.2l12.33.163c9.012.12 17.494 1.348 25.268 3.2 6.17 11.81 8.559 2.048 23.833 18.1 3.2 3.37 7.587 5.47 13.244 5.853s11.094-4.523 11.964-9.114l1.468-7.765c12.8-10.615 19.678-27.247 18.892-13.099l-1.501 26.915-.555 32.75c-2.074-.87-7.125-3.507-8.824-5.444l-16.281-18.594c-3.448 2.33-7.8 5.36-7.817 7.416l-.11 13.943-7.467-1.843c-.359 1.954-1.408 6.357-.103 6.135l7.143-1.228 1.297 18.33c1.74 24.541 13.645 16.588 5.87 41.48-1.757 5.623-.033 15.838 5.488 18.312 2.585 1.16 7.944 2.466 10.735 3.217 1.826.495 3.968 5.675 2.85 7.091-5.65 7.134-10.488 6.324-7.697 13.372l5.222 13.218 10.539 27.64c.682 1.792 3.882 1.348 5.709.316-5.257 7.978-9.933 28.526-5.086 36.753l-6.221 1.698-4.958 12.731c-2.825 7.262-3.26 15.412-1.246 23.151l-1.655 13.696c-.248 2.014-5.914 15.574-8.696 13.97l2.825-12.485c.64-2.824.077-9.122.042-13.098-.17-20.958-11.75-30.345-13.508-40.576-1.305-7.604-3.106-20.754-2.201-29.876l1.92-19.302 1.553-18.97 5.802-.75c-1.177-3.457-3.268-7.194-5.666-8.79l-.691-13.858c-.213-4.25-6.58-11.35-10.06-14.302-11.034-9.344-2.672-10.573-4.19-23.86-1.212-10.64-2.074-20.505-.538-30.779 1.33-8.9 2.159-18.876-2.1-26.726l-13.158-24.252c-2.74-5.052-16.401-6.86-18.287-2.176s-3.968 10.633-6.187 14.148c-2.065 3.269-12.74 1.4-15.633-1.203-12.236-10.99-18.978-12.075-32.093-17.126l-11.358-4.378c-1.929-.742-5.666 3.234-7.237 4.907l-10.811 11.503c-10.83 11.52 14.532 41.02 44.834 44.245 5.683.606 15.863 7.415 12.493 13.534l-5.854 10.65c-.973 1.757-5.948 6.673-8.09 6.783-18.09.948-44.783 3.209-58.428-9.625-4.48-4.216-11.4-9.378-15.71-7.825-10.35 3.729.248 29.107-17.988 35.524-3.302 1.16-8.968-6.204-10.419-9.728-5.188-12.62-10.965-1.442-17.11-15.437-1.399-3.191-4.548-9.813-7.44-10.427l-13.364-2.816-20.77-4.634c-2.082-.46-6.033 1.647-7.253 3.285l-2.253 3.021c.99-13.372 9.25-15.633 2.774-34.884l-.29-30.089c9.139 9.967-5.325-.281 7.33 18.62l16.674 24.9 11.05 1.306c24.952 2.952 31.13 29.926 39.365 20.437 7.304-8.414 15.675-15.496 24.951-21.7l3.618-18.552-7.373-7.517c-4.659-4.753-11.187-13.96-8.106-21.052 1.8-4.156 9.907-11.998 7.219-16.597-2.927-5.01-8.405-9.669-12.356-13.116l-17.903-15.65c-3.251-2.842-12.595-5.658-16.248-3.533l-14.071 8.2c-12.015 7.006 9.455 9.865-.35 32.692-8.175-1.332-2.893-5.556-9.677-14.55-4.198-5.563-9.753-13.798-15.206-17.826 16.606 8.602 22.596-9.753 41.651-11.64l14.404-1.424 6.818-1.63-7.748-7.953 3.311-9.745 4.557 1.911zm214.212 279.901-7.373-7.338 1.024 9.6z"/><path fill="#e76b04" d="M155.418 870.699c15.215 12.518 31.923 6.604 31.872.631-.017-2.03-1.818-6.084-3.098-7.748l-2.585-3.354c-.708-.921 1.169-4.48 2.244-4.915 2.611-1.067 10.078-1.468 12.484-.051l15.096 8.943 6.681 9.386c2.39 3.363 10.13 8.124 12.903 11.452l15.053 18.048 18.781.53c3.508.102 9.9-1.588 13.244-2.748 2.782 1.612 8.448-11.947 8.696-13.97l1.655-13.696c-2.014-7.74-1.579-15.889 1.246-23.15l4.958-12.732 6.22-1.698c1.332 2.261 2.603 6.698 4.233 11.127 1.366 3.712 8.918 7.68 11.588 10.727l15.275 17.425c2.944 3.362 5.231 6.476 6.272 9.839-21.7 9.762-32.785 23.722-58.393 33.544-10.795 4.139-23.518-.077-34.21-2.423-20.677-4.54-29.705-2.296-47.582-10.59-23.476-10.889-25.472-5.88-54.802-16.777-4.343-1.613-11.707-8.9-16.025-9.813-26.428-5.59-34.68.025-54.28-6.136l-17.417-5.478c-7.706-2.423-15.497-4.582-22.52-8.354-24.678-13.244-23.372-34.09-20.369-61.585l1.843-16.845c.521-4.753 1.263-11.324.896-15.565l-1.45-16.76c.316.197 1.442 2.842 1.945 4.575l3.747 12.842c6.144 21.078-.547 45.782 20.701 54 7.416 2.875 21.248 1.638 27.58-3.781l12.177-10.41c.913-.786 4.164-.444 4.617.665 2.355 5.7-4.01 12.98-5.888 15.727l-7.245 10.615 25.71 11.674c4.472 2.03 9.814 5.453 14.687 8.345 16.239 9.635 19.831 1.622 24.388 5.735l12.715 11.46c1.015.913 5.845 1.314 6.357 1.28z"/><path fill="#f5950d" d="m11.683 620.493-3.209-20.66c-.333-2.158-1.084-5.213-1.434-6.8l-1.536-9.9-2.824-12.987c4.01.802 14.327 3.755 17.928 6.417 5.453 4.028 11.008 12.263 15.207 17.826 6.784 8.994 1.502 13.218 9.677 14.55 9.804-22.827-11.665-25.686.35-32.692l14.071-8.2c3.652-2.125 12.996.691 16.247 3.533l17.903 15.65c3.951 3.447 9.421 8.107 12.357 13.116 2.688 4.6-5.41 12.441-7.22 16.597-3.072 7.091 3.456 16.299 8.107 21.052l7.373 7.518-3.618 18.551c-9.276 6.204-17.647 13.295-24.952 21.7-8.243 9.49-14.413-17.485-39.364-20.437l-11.05-1.306-16.675-24.9c-12.655-18.893 1.81-8.653-7.33-18.62z"/><path fill="#e76b03" d="m79.036 544.17-3.31 9.746 7.747 7.953-6.818 1.63-14.404 1.425c-19.055 1.886-25.045 20.24-41.651 11.64-3.593-2.655-13.918-5.616-17.929-6.418l2.825 12.988 1.536 9.899-2.62-2.467c-1.8-8.303-3.789-17.117-3.891-25.378l-.52-42.248c-.043-3.43 3.157-8.84 4.573-11.375-3.524 8.038 17.118 19.464 24.508 21.913 20.958 6.93 38.28.026 49.954 10.693"/><path fill="#fdbe29" d="M280.79 390.852c.665 1.741 1.348 4.591 1.68 6.767-3.617-1.22-8.191-4.266-10.546-6.784z"/><path fill="#e76b04" d="m13.816 745.651-2.125-1.655-.162-9.856c.99 3.097 2.04 7.296 2.287 11.511"/><path fill="#fdbe29" d="M266.778 388.463c.845-.077 1.638-.256 2.116.043-.998 3.268-1.314 3.328-2.116-.043m60.066 26.18c.58 0 1.664-.213 2.244-.162l4.122 11.213 16.922.665c.76.487 1.843 1.835 2.457 2.552l.657 6.144c.222 2.09 4.31 4.642 6.213 4.744 8.132 8.184 5.538-7.893 33.04 1.024l15.685 5.086 14.233 4.497c2.364.743 8.158 1.425 11.077 1.852 8.866 4.403 8.567 17.476 1.595 24.064l-13.073 12.34-17.749 17.646c-2.005 1.989-6.067 5.257-8.602 7.057l-14.89 10.539c-10.343 2.355-18.637 5.854-27.512 11.563-5.589 3.6-14.549 6.664-19.498 10.64-7.126 5.744-12.886 10.864-20.173 15.591-2.594 1.681-9.754 4.156-11.153 6.63l-11.315 20.088c-5.428 2.807-8.918 6.127-9.908 10.607l-2.927 13.303c-4.684 2.62-15.863 2.065-20.693-.93l5.76-7.91c.802-1.1 2.773-4.591 2.552-4.403l-13.167-8.858c-5.3-3.567-7.953-8.448-10.667-16.452l6.118-1.843-2.116 9.199c14.515 2.227 33.365-6.016 39.689-17.067l6.22-10.88c9.652-2.176 25.054-1.442 29.09-12.68-6.843-11.196-19.2-13.552-31.103-7.382-4.651 2.406-6.69 6.647-8.312 13.517l-17.459 5.265c-8.568 2.585-6.58 17.758-7.774 18.32l-8.226 1.7 4.156-3.116c7.296-5.478-3.43-10.01 8.832-18.397 4.07-2.782 6.46-6.375 8.192-10.522l3.37-8.038c.598-1.426.837-5.06.751-6.597s-4.949-1.894-6.425-1.578l-11.358 2.483c-1.306.828-5.453 4.394-7.049 4.847l-18.517 5.273c-5.368 1.528-10.377.154-16.128-1.69-10.522-3.378-20.506-3.745-32.836-4.624l.862-12.578c-7.578-8.457-10.898 7.082-35.644-6.35-9.984-5.418-28.194 3.935-40.039-6.903l-3.532-10.419c-.93-2.74.017-8.49 2.517-10.684 12.33-10.854 18.449 6.127 29.995-.384l16.503-9.31c10.991-6.203 19.26-23.236 18.662-35.225-.162-3.294-5.563-8.55-7.953-12.322.205-2.407 6.511-8.09 9.515-9.174 22.332-8.047 9.796 2.885 41.805-6.05 3.976-1.11 13.534-1.817 17.468-.776l14.609 3.865c5.359-1.484 14.728-1.962 18.875 2.134l12.613 12.458c7.995 7.902 13.039-9.31 21.401-10.658l16.709-2.688c2.9-.47 8.72-.23 11.323-.222z"/><path fill="#e76b04" d="m299.392 655.505.384 52.881 1.434 18.859c1.033 13.576-.435 25.762.444 39.671.81 12.869 9.37 24.252 4.292 31.958-1.826 1.024-5.026 1.467-5.709-.316l-10.538-27.64-5.223-13.218c-2.79-7.048 2.048-6.238 7.697-13.371 1.118-1.417-1.024-6.597-2.85-7.092-2.79-.75-8.15-2.056-10.735-3.217-5.52-2.474-7.245-12.689-5.487-18.312 7.783-24.883-4.13-16.939-5.87-41.48l-1.298-18.33-7.142 1.228c-1.306.222-.256-4.18.102-6.135l7.467 1.843.11-13.943c.018-2.065 4.37-5.086 7.817-7.416l16.282 18.594c1.698 1.937 6.75 4.574 8.823 5.445z"/><path fill="#f5950d" d="M257.596 611.396c4.83 2.995 16.009 3.55 20.693.93 1.195-.665 3.14-2.44 4.276-3.387l-1.468 7.765c-.87 4.59-6.323 9.498-11.964 9.114s-10.035-2.484-13.244-5.854c-15.266-16.051-17.655-6.29-23.833-18.1 25.617 6.085 7.663 5.41 25.532 9.524z"/><path fill="#fdac1a" d="m350.132 426.35-16.922-.665-4.122-11.212c1.238.093 4.318 1.024 5.402 1.723l15.642 10.146zm9.327 13.44c-1.903-.101-5.982-2.653-6.213-4.744l-.657-6.144 11.281 4.822-4.403 6.067z"/><path fill="#faac1d" d="m211.43 864.213-15.095-8.943c-2.398-1.425-9.864-1.024-12.484.052-1.075.435-2.952 4.002-2.244 4.915l2.585 3.353c1.28 1.664 3.081 5.718 3.098 7.749.051 5.964-16.657 11.887-31.872-.632l-5.436-4.471c-1.442-1.186-4.215-5.07-3.66-6.972l4.744-16.23c-7.339-13.483-31.351-12.98-32.708-23.032-2.262-16.734 12.33-31.095 14.711-38.374l5.769-17.656c.486-1.502 7.1-2.602 7.833-1.177l2.722 5.256c2.014 3.874 6.878 11.81 11.614 12.715 2.8.537 9.925-1.144 12.374-1.374 15.249 9.08 18.594-5.777 26.393 4.95 4.566 6.271 8.815 9.821 15.48 13.414 4.932 2.662 8.84 11.315 6.212 16.12-2.03 3.711-4.105 8.763-3.447 11.477 1.518 6.272 14.702 3.669 16.742 14.77l2.714 14.798c1.416 7.74-23.288 10.112-26.044 9.3zm8.295-107.29c-.307 6.674-10.385 10.497-15.82 8.44-4.6-1.74-8.27-3.191-12.084-5.64-10.368-6.665-7.8-30.302 1.835-33.374 5.137-1.639 9.933-2.748 15.718-3.44 5.453-.656 11.435 10.352 11.213 15.173z"/><path fill="#e76b04" d="M268.732 766.566c.222-2.688.273-6.775.137-9.54 2.398 1.596 4.488 5.333 5.666 8.79z"/><path fill="#f5950d" d="M101.863 567.049c-4.591-1.417-7.023-5.581-10.24-9.984l-8.03-10.983c5.709.478 6.323 4.36 12.424 8.61l5.846 12.365z"/><path fill="#e76b04" d="m297.805 825.975-6.349 2.262-1.024-9.6z"/><path fill="#fad56a" d="m248.192 571.921 8.227-1.698c1.194-.572-.794-15.736 7.773-18.321l17.46-5.265c1.621-6.87 3.669-11.11 8.311-13.517 11.904-6.17 24.252-3.806 31.104 7.381-4.036 11.239-19.439 10.505-29.09 12.68l-6.22 10.88c-6.316 11.043-25.174 19.286-39.69 17.068l2.117-9.2z"/><path fill="#f9aa20" d="m366.149 423.578 2.585 2.397c8.61.87 17.878 3.602 26.454 7.501l13.192 5.99c14.37 6.529 61.005 10.42 48.563 34.953l-7.825 15.428c-.981 1.938-.913 7.151.12 7.552-1.425 1.596-4.95 5.189-6.989 6.383-33.724 19.755-29.96 6.955-64.393 31.045-3.643 2.551-8.405 5.504-12.817 8.047l-43.451 25.062c-2.279 1.314-4.694 7.834-4.173 9.967s3.251 5.572 5.12 6.775l16.648 10.65c10.351 6.622 35.533 6.118 46.985 14.362l24.192 17.425c3.106 2.235 11.025 4.719 15.044 6.11l29.901 10.368c3.004 1.04 7.373 1.851 10.018 2.158a122 122 0 0 0 13.594 6.144l13.909 5.266c2.748 1.04 7.791 5.905 8.559 8.874l4.292 16.632 4.36 16.947 2.108 2.517c.282 6.29.103 14.447-1.186 21.01l-5.41 27.57c-1.732 8.807-.793 22.443 1.203 30.823l3.013 12.655c.964 4.062 2.85 11.119 4.548 15.283 1.11 2.722 6.716 8.516 4.744 10.795l-7.483 8.67c-4.975 5.768-12.135 14.848-10.667 22.903l3.396 18.654c.956 5.265 2.8 10.965 3.294 16.162l1.639 17.075c2.747 28.723 2.32 28.118-13.543 46.993l16.47.939c-5.863 10.18-41.694-4.625-52.574-9.523-17.451-7.86-8.09-9.558-45.986-23.663l-30.575-11.384c-24.593-9.156-28.126-20.522-44.775-22.331-1.032-3.363-3.32-6.477-6.272-9.84l-15.274-17.424c-2.671-3.047-10.232-7.006-11.589-10.727-1.621-4.429-2.901-8.874-4.232-11.127-4.856-8.226-.18-28.775 5.086-36.753 5.077-7.706-3.482-19.09-4.293-31.958-.879-13.909.59-26.103-.443-39.671l-1.434-18.859-.384-52.88.555-32.752 1.502-26.914c.793-14.148-6.093 2.483-18.893 13.099-1.135.947-3.08 2.722-4.275 3.387l2.926-13.303c.982-4.48 4.48-7.79 9.908-10.607l11.315-20.087c1.4-2.484 8.559-4.958 11.153-6.63 7.287-4.72 13.047-9.848 20.173-15.591 4.94-3.985 13.9-7.049 19.498-10.641 8.875-5.71 17.17-9.216 27.512-11.563l14.89-10.539c2.535-1.792 6.597-5.06 8.602-7.057l17.75-17.647 13.073-12.339c6.971-6.588 7.27-19.66-1.596-24.064-2.91-.426-8.713-1.11-11.076-1.852l-14.234-4.497-15.684-5.085c-27.495-8.91-24.9 7.159-33.041-1.024l4.403-6.068-11.281-4.821c-.606-.717-1.698-2.057-2.458-2.551L334.5 416.23c-1.084-.7-4.156-1.63-5.402-1.723-.58-.043-1.664.162-2.244.162l-3.815-2.902c-3.149-.06-5.342.197-5.359-.7l-.085-3.703c13.227 3.55 36.565 11.768 48.563 16.23z"/><path fill="#fcd54f" d="M622.968 630.135c1.425 5.385-17.11 17.827-17.374 12.152-.17-3.66-2.458-12.698-5.513-12.646l-27.332.443c-12.177 11.034-31.309 14.66-36.48 17.383l-18.287 9.625c-2.713 1.425-6.98 8.371-5.35 11.392 3.43 6.323 11.895 5.64 17.894 3.465l23.322-8.465c2.918-1.058 10.027-.88 13.312-.572 3.516 7.936 9.404 16.085 16.76 18.09 3.396.93 11.391-2.824 14.438-4.641l17.263-10.3 15.48 10.07c12.065 7.85 25.19-15.344 40.729 9.522l.76 14.208c.144 2.765 4.855 6.426 7.952 7.63 8.26 1.535 15.65 1.655 21.453-3.619l15.633-14.208c2.492-2.261 8.96-4.966 12.28-6.724.964-1.391 4.352-7.39 4.36-9.609l.068-22.792 2.492.213c.128 4.514-.051 12.8-.35 18.38l-.495 9.422c-3.96 13.2 3.704 11.835 3.542 36.923l-.069 9.737c0 1.04-.187 3.115-.273 4.156-.981.367-1.98.665-2.005 1.501l-.128 3.474-.358 20.795c-.094 5.342-1.323 11.47-2.202 15.761l-.154 4.89-5.717-4.122c-1.323-.955-6.494 1.272-7.023 2.79-5.888 16.854-1.067 16.88-7.168 27.29-1.169 1.997-8.115 3.857-10.445 3.525-4.958-.7-13.55-8.21-14.873-12.937l-4.284-15.326c-1.51-5.393-4.275-11.417-7.364-15.94l-29.287 10.112c-6.391 2.21-11.187 9.054-14.626 15.24-11.119 20.003-1.937 26.59-12.023 30.917-2.39 1.024-5.12 1.903-5.436.853l-1.63-5.436c-2.27-7.543-4.557-15.71-8.021-21.964l-7.672-13.842c-4.556-8.217-6.895-4.633-34.295-7.27-4.71-.452-13.415 5.163-14.515 10.846-3.311 17.203 17.024 20.48 13.184 30.66-.939 2.5-4.642 6.588-7.535 8.235-14.857 8.456-13.61-4.668-28.365.307-12.365-9.626-12.382-23.825-17.51-25.557l-3.013-12.655c-1.997-8.38-2.935-22.008-1.203-30.823l5.41-27.57c1.289-6.554 1.46-14.72 1.186-21.01-.307-6.912-.69-15.317-1.425-22.46-.682-6.587-7.518-13.474-.913-20.138 17.852-18.006.845-18.51 10.718-28.118 5.862-5.7 15.505-15.675 23.228-13.986l21.401 4.668c6.452 1.408 11.99 1.143 18.279-2.44 8.917-5.095 22.246 7.014 27.99 15.522 1.245.418 5.256 1.851 4.189 1.476l7.373-6.503z"/><path fill="#fdc534" d="M734.507 770.884c9.515 22.298 2.978 49.34-11.392 70.247-10.897 15.846-25.199 14.165-39.194 24.789l-18.713 14.208c-12.109 9.19-26.385 12.68-41.097 15.104-7.347 5.786-16.085 13.047-24.712 16.853l-19.32 8.534-33.894 18.594c-3.149 1.724-24.184 11.358-26.897 10.513l-4.83 1.886c-.666.034-1.724.085-2.313.05l-16.469-.938c15.864-18.884 16.29-18.27 13.543-46.993l-1.639-17.075c-.495-5.197-2.338-10.897-3.294-16.162l-3.396-18.654c-1.468-8.055 5.692-17.135 10.667-22.903l7.483-8.67c1.972-2.279-3.635-8.073-4.744-10.795-1.698-4.173-3.584-11.221-4.548-15.283 5.128 1.732 5.145 15.932 17.51 25.557 14.754-4.975 13.508 8.15 28.365-.307 2.884-1.647 6.588-5.734 7.535-8.235 3.831-10.18-16.504-13.457-13.184-30.66 1.092-5.692 9.805-11.307 14.515-10.846 27.4 2.637 29.739-.947 34.295 7.27l7.672 13.842c3.464 6.255 5.76 14.412 8.021 21.964l1.63 5.436c.316 1.041 3.046.17 5.436-.853 10.086-4.327.904-10.914 12.023-30.916 3.44-6.187 8.243-13.04 14.626-15.241l29.287-10.112c3.089 4.523 5.862 10.547 7.364 15.94l4.284 15.326c1.322 4.728 9.916 12.237 14.873 12.937 2.33.324 9.276-1.536 10.445-3.525 6.11-10.41 1.28-10.436 7.168-27.29.53-1.51 5.7-3.745 7.023-2.79l5.717 4.122.154-4.89z"/><path fill="#fdce3e" d="m739.15 585.89.119 25.677-1.86 18.67c-.308 3.056-1.204 7.135-1.878 10.778-.444 2.424 1.229 7.296 1.297 9.728l-2.492-.213c-6.178-2.406-16.17-1.57-23.031-.051-1.852-.597-5.973-4.54-7.305-6.613l-4.633-7.237 9.984-11.076c5.743-7.5.188-21.154-5.871-26.735l-9.045-8.337c-12.852-11.836-26.53-.802-37.385 8.346-13.824 11.648-13.534 1.97-18.978 10.572l-9.344 14.78c-1.11 1.758-4.335 4.685-5.777 5.956l-7.373 6.503c1.058.375-2.944-1.05-4.19-1.476-5.743-8.5-19.063-20.608-27.99-15.523-6.288 3.593-11.818 3.849-18.278 2.441l-21.401-4.668c-7.723-1.68-17.366 8.286-23.228 13.986-9.873 9.6 7.134 10.112-10.718 28.118-6.613 6.664.23 13.55.913 20.138.743 7.143 1.118 15.548 1.425 22.46l-2.107-2.517-4.36-16.947-4.293-16.632c-.768-2.96-5.811-7.833-8.56-8.875l-13.908-5.265a122 122 0 0 1-13.594-6.144c-5.683-4.625-13.005-21.427-7.253-22.587l5.026-1.016 13.764-2.773c3.942-.794 9.361-1.016 14.532-1.323l9.216-6.63 1.664-5.436-12.894 3.465c-8.388 2.252-24.149 3.464-33.263 1.007-.896.128-3.037.46-3.225.426-.248-.042-5.359-9.139-2.398-11.076 5.35-3.516 13.252-5.598 19.874-7.586l20.975-6.298c8.568-2.568 16.299 9.711 25.634.623 11.162-10.871 7.902-1.4 26.087-8.815 4.386-8.909.844-19.516-8.44-22.852s-22.494-10.351-29.474-10.402l-27.7-.214c-29.277-.221-14.386-7.253-37.367-6.16-3.046 9.13-34.21 31.487-41.403 22.39-6.784-8.575-5.7-24.89 4.949-32.28 27.93-19.38 41.574-.316 46.157-8.227 5.205-8.977-4.864-10.086 2.474-15.513 12.092-8.952 16.333-10.522 31.326-8.585 22.204 2.867 9.651-5.65 27.153 3.618l13.483-7.748c5.325-3.055 3.814 15.94 15.266 15.684 10.624-.239 16.58-5.794 21.777-13.781l22.102 4.753c3.012.648 9.582 5.24 11.118 6.315l2.586 18.432 9.284-3.235c19.9-6.92 21.931-9.053 42.693-6.698 7.381.836 15.42 1.11 21.896 2.594 26.931 6.16 11.93-4.181 32.836 8.217l13.184 7.817-7.023 7.74 4.242 14.694c3.447 11.955 21-1.433 23.424 17.434.665 5.197 1.553 10.334 1.57 14.174zm-38.589-38.187c-.571-6.81-6.988-10.888-11.75-10.564l-11.836.802c-5.026 4.574-3.9 13.799 3.08 17.272 3.713 1.852 10.403 3.516 14.542 3.857 2.662.222 6.289-7.527 5.973-11.367z"/><path fill="#fdbe29" d="M741.47 585.89h-2.312c-.017-3.84-.905-8.977-1.57-14.174-2.415-18.867-19.968-5.478-23.424-17.433l-4.241-14.695 7.022-7.74-13.184-7.816c-20.906-12.39-5.905-2.048-32.836-8.218-6.477-1.484-14.515-1.749-21.896-2.594-20.753-2.363-22.784-.222-42.693 6.699l-9.284 3.234-2.585-18.432c-1.536-1.075-8.107-5.666-11.12-6.315l-22.1-4.753c-5.198 7.988-11.154 13.543-21.778 13.782-11.443.256-9.941-18.748-15.266-15.685L510.72 499.5c-17.501-9.268-4.94-.751-27.153-3.618-15.001-1.938-19.234-.376-31.326 8.584-7.338 5.436 2.731 6.545-2.474 15.514-4.583 7.91-18.227-11.153-46.157 8.226-10.65 7.39-11.733 23.697-4.95 32.281 7.194 9.097 38.358-13.26 41.404-22.391 22.98-1.092 8.09 5.94 37.368 6.161l27.7.213c6.98.052 20.556 7.202 29.473 10.402s12.826 13.944 8.44 22.853c-18.185 7.415-14.925-2.057-26.087 8.815-9.335 9.096-17.066-3.192-25.634-.623l-20.975 6.297c-6.622 1.989-14.524 4.07-19.874 7.586-2.952 1.946 2.159 11.034 2.398 11.077.188.034 2.33-.307 3.226-.427 9.122 2.458 24.883 1.246 33.262-1.007l12.894-3.464-1.664 5.435-9.216 6.63c-5.17.3-10.59.53-14.532 1.323l-13.764 2.774-5.026 1.015c-5.752 1.16 1.57 17.954 7.253 22.588-2.645-.307-7.006-1.11-10.018-2.159l-29.9-10.368c-4.02-1.39-11.939-3.874-15.045-6.11l-24.192-17.425c-11.452-8.243-36.634-7.74-46.985-14.362l-16.648-10.65c-1.878-1.194-4.6-4.633-5.12-6.775s1.894-8.66 4.173-9.967l43.451-25.062c4.412-2.543 9.174-5.495 12.817-8.047 34.432-24.09 30.67-11.29 64.393-31.044 2.04-1.195 5.564-4.787 6.989-6.383 5.162-2.1 10.99-5.094 16.443-8.474l24.576-15.24c3.2-1.98 8.133-4.292 11.734-6.264l9.651-5.265c3.046-1.664 6.792-3.097 9.754-3.754l2.295-4.284 19.106 1.732 7.28-6.306c3.984-3.456 8.464-4.813 15.461-4.446l-4.565 8.679-2.713 5.162c-.675 1.289 8.311 7.032 11.92 8.26 21.778 7.407 43.299 15.173 64.521 23.732 6.588 2.654 13.38 5.743 19.635 7.825l26.966 8.951 25.455 9.156c20.394 7.34 34.073 19.79 34.38 42.991l.342 26.044z"/><path fill="#fde981" d="m734.345 650.53-.068 22.793c0 2.218-3.397 8.209-4.36 9.608-3.32 1.75-9.789 4.463-12.28 6.724l-15.633 14.208c-5.803 5.274-13.193 5.155-21.453 3.619-3.098-1.212-7.808-4.864-7.953-7.63l-.76-14.207c-15.539-24.858-28.663-1.673-40.73-9.523l-15.479-10.07-17.263 10.3c-3.046 1.818-11.042 5.572-14.438 4.642-7.356-2.005-13.235-10.155-16.76-18.09-3.285-.308-10.393-.487-13.312.571l-23.321 8.465c-5.99 2.176-14.464 2.859-17.895-3.464-1.638-3.021 2.637-9.959 5.35-11.392l18.288-9.626c5.171-2.722 24.303-6.349 36.48-17.382l27.332-.444c3.046-.051 5.333 8.986 5.513 12.646.264 5.675 18.798-6.767 17.373-12.151 1.443-1.272 4.66-4.198 5.777-5.956l9.344-14.78c5.436-8.602 5.146 1.075 18.979-10.573 10.863-9.148 24.533-20.19 37.384-8.345l9.045 8.337c6.06 5.58 11.614 19.234 5.871 26.735l-9.984 11.076 4.634 7.236c1.323 2.065 5.453 6.016 7.305 6.613 6.86-1.51 16.853-2.355 23.031.052z"/><path fill="#fae393" d="M700.561 547.703c.325 3.84-3.31 11.58-5.973 11.367-4.139-.341-10.829-2.005-14.54-3.857-6.98-3.473-8.116-12.698-3.081-17.272l11.836-.802c4.77-.324 11.178 3.755 11.75 10.564z"/><path fill="#fdc02d" d="M794.949 263.646c1.715.264 4.915 1.246 7.33 2.082 13.226 4.608 25.66 8.098 39.629 11.153 6.331 1.382 14.557 4.335 19.293 8.09l13.312 10.564c29.304 23.253 35.013 10.573 59.213 21.128l5.829 7.117c2.833 3.448 1.34 14.405-1.972 17.417l-10.564 9.6c3.098 3.422 8.388 6.81 12.672 6.86l10.931.137 6.366.085c1.792.026 1.203 5.223.461 7.126l-6.306 16.051c-2.415 6.144-9.114 15.607-9.063 21.385l.111 12.16c-9.873 6.348-16.034 10.393-24.294 16.469l-11.887 8.738c-12.612 9.276-27.358 30.012-41.873 32.196-5.752-4.565-14.976-8.183-22.426-9.915l-32.495-7.561c-13.824-3.217-6.024 1.911-26.64 5.47l-5.206.896c-1.05.18-.947-2.62-1.34-5.419l7.894-5.026-4.89-6.212c-35.38 3.831-33.331-12.314-45.798-14.396l-14.908-2.492c-3.601-.606-9.54-7.407-13.218-9.182-10.77-5.213-22.938-6.468-34.407-8.09-12.74-5.734-48.443-2.004-56.43-19.097-2.313-4.958 1.732-13.653 5.58-16.503l15.992-11.844 14.267-9.925c5.146-3.575 10.787-9.42 14.72-14.472l9.2-11.802 7.364-6.05-4.702-5.29 12.177-6.05c2.398-1.195 8.815-2.493 11.033-3.218l6.426-9.753c1.596-1.955 7.791-5.743 10.283-6.076l20.548-2.748c3.217-.427 8.687-2.628 10.99-4.122l20.404-13.2c3.994-2.586 11.597-8.551 15.932-7.885zm9.898 175.343c14.533 4.394-2.33-8.21 41.617 8.508 7.578 2.884 11.213 4.804 19.525 10l6.673-9.386c1.954-2.748 7.117-7.296 10.462-10.317 2.747-2.483 2.747-12.006.597-15.445-5.47-8.738-17.843-14.865-28.425-11.981-4.778 1.306-12.108 4.907-16.008 4.983l-14.174.282c-4.07.077-10.146 1.152-13.73 2.287l-18.867 5.99c-2.859.905-10.752-.307-13.602.094l-4.813.674c-11.597 1.63 17.433 10.292 15.044 9.575l15.701 4.744z"/><path fill="#f59d11" d="m1012.48 644.215 1.263-12.305c.103-1.015.29-4.343-.571-4.104l-4.455 1.263-6.997 10.112-2.338-7.783c-3.883-2.952-7.85-7.79-8.44-12.04l-2.338-17.05c-.529-3.84-9.276-23.885-13.773-18.218l-14.634 18.423-8.918 3.874-3.874 16.273c-.298 1.255-3.14 4.352-4.062 5.146-5.196 4.48-3.703-20.497-16.674-18.671-6.16.87-12.962 5.717-17.638 9.822-20.002 17.544-25.882-3.917-36.207 7.902-8.269 9.472-.137 13.457-6.272 16.947l-.734-12.05c-1.203-19.745-12.34-37.81 2.978-71.338l2.16-2.287c.033 1.178 1.151 3.524 1.791 5.043 28.928 14.934 5.871 33.912 13.372 44.254 4.744-3.277 7.21-4.898 8.909-6.494l12.28-11.537c5.179-4.864 10.17-9.54 15.99-14.31 12.382-10.138 14.098-6.844 16.419-26.53l1.553-13.107c.887-7.493 3.524-.965 21.034-9.464 7.783-3.78 5.368 18.16 14.865 19.84l17.86 3.157c7.356-7.56 1.11-13.542 7.118-19.072 2.244-2.065 6.843-5.708 6.067-7.816s-2.859-5.948-4.378-8.5l-6.86-11.51-11.154-5.855c-6.57 4.438-13.85 5.718-21.384 5.018l-11.367 2.415c-6.562 1.39-13.943-8.15-15.018-14.6-4.301-25.822 3.507-7.186-.93-33.016l-1.886-10.974c-3.192-.375-12.024-1.843-14.447.384-11.571 10.641-9.464 19.166-15.215 26.436l-9.319 11.785-10.47-.043c3.524-7.04 4.719-13.943 4.087-23.697l11.853-14.797 4.267-5.324 11.887-8.739c8.269-6.075 14.421-10.12 24.294-16.469l-.11-12.16c-.052-5.768 6.647-15.24 9.062-21.384l6.306-16.052c.742-1.903 1.331-7.1-.46-7.125l-6.367-.085-10.931-.137c-4.284-.051-9.574-3.439-12.672-6.86l10.564-9.6c3.311-3.013 4.805-13.97 1.971-17.417l-5.828-7.117 21.078 9.19 41.412 16.965c18.79 7.697 23.714 23.646 23.492 43.716l-.648 58.402c-.146 13.363-6.477 22.776-1.852 39.492 2.628 9.48 8.26 22.136 6.425 31.531l-6.929 35.499c-1.715 8.806-1.416 18.44-.12 27.392l2.092 14.43c1.902 13.115 1.134 34.491-3.038 48.34l-3.166 2.612z"/><path fill="#faad21" d="M1012.48 644.215c-3.797 11.102-13.627 20.13-24.738 26.121l-25.702 13.85c-10.727 5.777-16 15.59-34.364 30.088l-10.513 8.295.017-4.472-29.977.034c-18.526.026-16.478-21.666-20.566-41.77-.503-2.484-1.587-5.923-2.492-7.237l-.119-2.312.956-8.73 1.561-14.276c6.136-3.49-1.988-7.475 6.272-16.947 10.317-11.819 16.197 9.642 36.207-7.902 4.685-4.105 11.478-8.96 17.639-9.822 12.97-1.826 11.477 23.15 16.674 18.67.921-.793 3.772-3.899 4.062-5.145l3.874-16.273 8.917-3.874 14.635-18.423c4.497-5.658 13.244 14.378 13.773 18.218l2.338 17.05c.58 4.25 4.548 9.096 8.44 12.04l2.337 7.783 6.998-10.112 4.454-1.263c.862-.248.674 3.089.572 4.104l-1.263 12.305z"/><path fill="#ee7d06" d="m865.818 631.748.734 12.05c-4.779 6.237-6.887 16.477-2.526 23.014l.12 2.312c.648 2.193 1.92 5.948 2.491 7.237 4.088 20.104 2.04 41.796 20.566 41.77l29.977-.034-.017 4.472c-6.263 8.465-32.367 27.511-42.846 33.305-13.457 7.433-28.945 1.562-40.704-1.937l-21.888-6.51c-36.693-10.915-14.097-10.872-58.564-23.024-3.849-1.05-10.112-.205-13.679.794l.068-9.737c.162-25.088-7.5-23.714-3.541-36.923.444.042 3.38-3.183 3.422-4.523l.418-14.276 3.183 7.748 19.857 10.325c10.974 5.7 10.3 7.8 30.362-.7 6.724-2.85 16.563-14.165 15.982-27.178 1.477-1.314 8.875-1.562 11.46-.495l14.115 5.794c3.046-1.673 7.8-9.284 10.923-11.426l12.518-8.585c1.672-1.143 5.768-2.85 7.586-3.473z"/><path fill="#f3910e" d="m676.694 315.093 4.702 5.291-7.365 6.05-9.199 11.802c-3.933 5.051-9.574 10.897-14.72 14.472l-14.267 9.925-15.992 11.844c-3.84 2.85-7.893 11.545-5.58 16.503 7.987 17.093 43.69 13.363 56.43 19.098 11.47 1.621 23.638 2.876 34.407 8.09 3.678 1.783 9.617 8.584 13.218 9.181l14.908 2.492c12.467 2.082 10.419 18.227 45.798 14.396l4.89 6.212-7.894 5.026c.393 2.8.29 5.598 1.34 5.419l5.205-.896c20.625-3.559 12.817-8.687 26.641-5.47l32.495 7.56c7.45 1.733 16.674 5.35 22.426 9.916l5.973 4.745c6.255 4.966 5.487 15.735 3.738 23.415.973 6.537 3.55 17.818 1.135 21.914l-3.67 6.23c-1.69 2.866-.836 11.681-.725 15.624l.376 14.19-2.16 2.288c-15.317 33.519-4.19 51.592-2.977 71.338-1.818.623-5.914 2.33-7.587 3.473l-12.518 8.585c-3.123 2.142-7.876 9.753-10.923 11.426l-14.114-5.794c-2.585-1.058-9.984-.82-11.46.495.58 13.013-9.25 24.328-15.983 27.178-20.062 8.5-19.388 6.4-30.362.7l-19.857-10.325-3.183-7.748-.418 14.276c-.042 1.348-2.978 4.565-3.422 4.523l.495-9.421c.29-5.573.478-13.858.35-18.381-.068-2.432-1.74-7.305-1.297-9.728.666-3.644 1.57-7.723 1.877-10.778l1.86-18.67c.146.213 2.399-3.96 2.39-5.06l-.196-20.617-.342-26.044c-.307-23.202-13.986-35.652-34.38-42.991l-25.455-9.156-26.966-8.952c-6.255-2.073-13.047-5.162-19.635-7.825-21.214-8.559-42.743-16.324-64.52-23.731-3.61-1.229-12.604-6.972-11.921-8.26l2.713-5.163 4.566-8.678c-7.006-.359-11.478.998-15.463 4.445l-7.279 6.307-19.106-1.733c-.41-5.82 8.79.59 17.229-5.137 1.613-1.092 2.116-6.971 1.297-9.02l-8.568-21.393c-2.158-5.384 1.98-15.18 1.929-20.18.341.264 1.485 1.117 1.673 1.399l13.03 18.79c3.388 4.881 8.661 5.99 13.713 2.825 2.33-1.46 8.09-1.92 11.238-1.485 6.563.904-.4-4.984 11.725-18.825 8.576-9.788-.554-26.829 12.664-34.978 23.483-14.464 26.564-17.007 46.899-35.08l9.651-8.585 10.01-2.022 10.521-5.35zM577.562 432.93c-1.348-3.84-1.98-5.965-2.551-5.692l-3.038 1.425c-3.328 1.562-5.317 11.742-1.87 13.628 4.037 2.202 8.577-6.16 7.459-9.352z"/><path fill="#faad21" d="m870.964 558.123-.376-14.191c-.102-3.943-.964-12.758.725-15.625l3.67-6.23c2.415-4.087-.17-15.368-1.135-21.913 1.75-7.68 2.517-18.449-3.738-23.415l-5.973-4.745c14.515-2.184 29.26-22.92 41.873-32.196l-4.267 5.325-11.852 14.797c.631 9.753-.564 16.665-4.088 23.697l10.47.042 9.319-11.784c5.751-7.262 3.635-15.787 15.215-26.436 2.423-2.228 11.255-.768 14.447-.384l1.886 10.973c4.437 25.83-3.371 7.203.93 33.016 1.075 6.451 8.456 15.991 15.018 14.6l11.367-2.415c7.535.692 14.814-.58 21.384-5.017l11.153 5.854 6.861 11.511c1.52 2.552 3.601 6.383 4.378 8.5s-3.823 5.75-6.067 7.816c-6.008 5.53.23 11.511-7.117 19.072l-17.86-3.157c-9.498-1.681-7.083-23.62-14.866-19.84-17.51 8.499-20.147 1.962-21.034 9.463l-1.553 13.107c-2.33 19.695-4.037 16.401-16.418 26.53-5.82 4.762-10.812 9.438-15.992 14.31l-12.28 11.538c-1.697 1.596-4.164 3.217-8.908 6.494-7.5-10.343 15.556-29.32-13.372-44.254-.631-1.52-1.758-3.866-1.792-5.043z"/><path fill="#fcd654" d="m804.847 438.989-15.701-4.745c2.39.726-26.641-7.936-15.044-9.574l4.813-.674c2.85-.401 10.743.819 13.602-.094l18.867-5.99c3.584-1.135 9.66-2.202 13.73-2.287l14.174-.282c3.891-.077 11.23-3.686 16.008-4.984 10.582-2.884 22.955 3.243 28.425 11.981 2.15 3.44 2.15 12.962-.597 15.446-3.345 3.02-8.508 7.569-10.462 10.316l-6.673 9.387c-8.312-5.197-11.947-7.117-19.525-10.001-43.938-16.717-27.084-4.113-41.617-8.508z"/><path fill="#f3910e" d="M864.026 666.812c-4.369-6.537-2.253-16.777 2.526-23.015l-1.562 14.277-.955 8.73zm2.611 9.549c-.58-1.289-1.843-5.044-2.492-7.237.905 1.306 1.989 4.753 2.492 7.237"/><path fill="#f9b73d" d="m739.277 611.567-.12-25.677h2.313l.197 20.617c.008 1.109-2.245 5.282-2.39 5.06"/><path fill="#f07d09" d="M498.45 280.021c7.534.342 16.076 1.391 22.954 4.446.87 3.234 5.982 10.428 6.178 14.148l1.579 29.927 1.963 18.824 2.816 30.089c.674 7.176 1.553 14.686 1.621 20.94.051 5.001-4.088 14.798-1.929 20.182l8.568 21.393c.82 2.048.316 7.928-1.297 9.02-8.44 5.726-17.63-.683-17.229 5.137l-2.295 4.284c-2.953.648-6.708 2.09-9.754 3.754l-9.651 5.265c-3.601 1.963-8.542 4.276-11.734 6.264l-24.576 15.24c-5.452 3.38-11.28 6.375-16.443 8.474-1.033-.41-1.101-5.615-.12-7.552l7.825-15.428c12.442-24.534-34.184-28.425-48.563-34.953l-13.192-5.99c-8.576-3.891-17.835-6.63-26.454-7.501-.153-.375-1.69-2.065-2.585-2.398-11.99-4.463-35.337-12.68-48.564-16.23l-25.489-6.844a168 168 0 0 1-9.625-2.884c-.333-2.176-1.016-5.026-1.681-6.767.162-.76 1.442-5.334 1.493-7.049l1.16-36.497c.086-2.765.623-6.468.88-9.258l1.68-18.296c.59-6.434 1.63-13.756-.298-19.499-3.055-9.088-6.127-18.628-6.392-27.87-.571-19.89-1.194-38.835.043-58.606l.794-12.63 3.558 3.994 23.236 7.373c4.89 1.553 13.33 3.217 17.263 3.754 9.122-13.704 4.275-3.678 22.716-10.93l12.476-4.908c4.522-1.783 13.73-1.408 17.04 1.434 1.093.939 1.861 6.443.538 7.014l-6.186 2.697c-3.712 1.621-10.061 7.603-12.69 11.759-3.361 5.316 14.96 14.95 23.527 15.804l19.797 1.954c9.131.904 21.71 3.498 30.294 5.683 2.611.666 8.311 4.489 10.573 5.845l21.708 12.945 13.355 7.86c6.374 3.754 14.285 6.28 21.086 6.596z"/><path fill="#fdc333" d="M500.438 75.802c.827.11 5.009.913 6.34 1.527 16.444 7.62 34.219 16.222 51.78 21.052 9.464 2.602 20.694 2.364 28.126 7.748l11.938 8.653c2.697 1.954 12.28-.06 15.702 1.024l25.745 8.115c5.683 1.792 14.174 4.89 18.014 7.612 1.28.904 3.763 3.055 5.358 3.857l9.498 4.779c1.997 1.006 8.559.324 10.82 1.109l14.96 5.163c1.697 7.108 5.956 10.103 12.833 11.144l5.231 11.631c2.39 2.688 5.402 11.878 2.125 13.389l-11.324 5.222c-7.765-11.946 2.953-12.023-2.278-23.722-12.382 1.459-5.308 26.427-11.776 23.876l-10.982-4.335c-5.7 5.845-12.058 10.223-18.535 15.112-9.745 7.356-25.335 28.86-40.55 25.49l3.217-13.466 13.303-3.328c6.324-1.579 15.565-10.206 19.209-16.29 1.903-3.183 4.642-10.232 7.467-9.805l12.134 1.818 5.325-9.737c1.11-2.022 2.295-8.875.17-10.018-8.849-4.77-25.088-13.628-33.194-5.137-10.027 10.487 2.346 7.321-15.096 22.92l-10.41 9.31c-6.793 6.076-24.508 3.277-26.283 12.672-2.697 14.31 3.686 17.238-3.942 20.463-19.943 8.44-14.712 15.224-23.16 28.143-.904 1.382-2.483 3.302-1.792 3.541l4.036 1.408-12.987 15.992c-31.633 1.587-20.523 20.403-40.064 11.733-6.887-3.055-15.429-4.096-22.955-4.446-.691-.588-3.857-2.688-5.547-3.567l-10.573-5.52c-.742-13.901-13.969-17.426-11.86-19.738l2.781-3.047 9.122-10.018c2.475-2.722 8.414-7.825 11.12-10.479 1.083-1.058-.18-6.912-1.733-6.852l-4.856.17-15.889.41-18.61.316c2.67-12.314 8.447-11.546 14.779-29.457l-.88-6.852c-.17-1.306-6.834-.256-7.713.734-10.223 11.537-26.641 11.059-38.366-1.195l-8.935-9.336-13.277 7.143c-4.207 2.261-10.744 5.623-14.814 7.407-4.19-3.687-8.662-9.77-9.84-14.285-4.641-17.852 21.991-12.476 14.516-26.3l-6.289-11.63 9.984-8.799 12.817-12.714c3.2-3.175 13.875-3.67 18.5-4.984 13.201-3.746 22.451-4.079 23.51-11.742s6.408-15.573 13.158-12.953c7.765 3.004 13.858 4.966 21.325 6.929l1.852-10.957c5.17-3.012 11.844-5.768 17.698-6.878z"/><path fill="#f9b73d" d="m794.949 263.646-10.462-1.604c-4.327-.666-11.938 5.307-15.932 7.884l-20.403 13.201c-2.304 1.494-7.774 3.695-10.991 4.122l-20.548 2.748c-2.492.333-8.687 4.121-10.283 6.076l-6.426 9.753c-2.218.725-8.644 2.031-11.033 3.217l-12.177 6.05-10.522 5.35-10.01 2.023-9.65 8.585c-20.327 18.073-23.416 20.616-46.9 35.08-13.218 8.141-4.087 25.182-12.663 34.978-12.126 13.841-5.163 19.72-11.725 18.825-3.149-.435-8.909.017-11.239 1.485-5.051 3.166-10.325 2.056-13.713-2.825l-13.03-18.79c-.196-.282-1.34-1.135-1.673-1.4-.068-6.255-.955-13.773-1.62-20.94l-2.817-30.09-1.963-18.824-1.578-29.926c-.196-3.72-5.308-10.906-6.178-14.148 19.541 8.678 8.43-10.138 40.064-11.734l12.987-15.991c1.792-.299 6.366-1.638 8.423-2.918l12.902-8.03c3.123-1.946 7.168-4.344 9.651-6.324l11.87-9.454c1.843-1.468 4.898-4.591 6.161-5.778 15.215 3.371 30.806-18.133 40.55-25.489 6.478-4.89 12.835-9.267 18.535-15.112l10.983 4.335c6.468 2.551-.606-22.417 11.776-23.876 5.222 11.69-5.487 11.767 2.278 23.722l11.324-5.222c3.276-1.51.264-10.71-2.125-13.389l-5.231-11.63c-6.878-1.042-11.136-4.037-12.834-11.145l-14.96-5.163c-2.26-.777-8.823-.103-10.82-1.11l-9.497-4.778c-1.596-.802-4.079-2.953-5.359-3.857.435.051 3.302.478 4.156.742l26.837 8.175c8.388 2.552 18.936 5.521 25.301 11.477 13.321 12.46 9.14 40.082 6.733 56.372l-1.758 11.904-2.927 21.324c-.733 5.368 11.418 32.444 11.418 32.444 3.217 4.617 15.044 4.574 20.3 1.852l28.076-14.532c6.084-3.15 14.532-2.56 18.713 2.363z"/><path fill="#f9af1e" d="M500.438 75.802c-5.854 1.109-12.527 3.874-17.698 6.877l-1.852 10.957c-7.467-1.97-13.56-3.925-21.325-6.929-6.758-2.62-12.083 5.112-13.158 12.954s-10.3 7.996-23.51 11.742c-4.625 1.314-15.3 1.8-18.5 4.983l-12.817 12.715-9.984 8.798 6.29 11.63c7.474 13.825-19.167 8.457-14.516 26.3 1.177 4.514 5.649 10.599 9.839 14.285 4.07-1.783 10.607-5.145 14.814-7.407l13.278-7.142 8.934 9.335c11.716 12.254 28.143 12.732 38.366 1.195.879-.99 7.552-2.048 7.714-.734l.879 6.852c-6.332 17.912-12.109 17.144-14.78 29.457l18.611-.315 15.89-.41 4.855-.17c1.553-.052 2.807 5.802 1.732 6.852-2.705 2.645-8.644 7.756-11.119 10.479l-9.122 10.018-2.782 3.046c-2.116 2.313 11.12 5.837 11.862 19.738l10.572 5.52c1.69.88 4.856 2.979 5.547 3.568-6.801-.316-14.711-2.842-21.086-6.597l-13.355-7.859-21.708-12.945c-2.262-1.348-7.962-5.18-10.573-5.845-8.593-2.185-21.163-4.779-30.293-5.683l-19.798-1.954c-8.576-.845-26.888-10.48-23.526-15.804 2.62-4.156 8.977-10.138 12.689-11.76l6.187-2.696c1.322-.58.563-6.075-.538-7.014-3.302-2.833-12.51-3.209-17.041-1.434l-12.476 4.907c-18.44 7.253-13.593-2.782-22.716 10.931-3.933-.537-12.373-2.201-17.263-3.754l-23.236-7.373-3.558-3.994.307-4.173 2.517-4.958c1.784-2.594 6-7.74 8.892-9.326l10.616-5.82c10.342-5.675 19.106-12.843 28.748-19.695l20.625-14.66c8.022-5.7 6.801-13.509 30.285-26.565l18.125-10.069c10.112-5.615 20.335-10.607 29.739-17.058 23.987-16.452 40.627-27.998 70.434-13.013zM416.81 225.314l-5.18-6.417c-.682-.836-5.512 2.62-4.719 3.396l6.887 6.699c.819-.282 2.39-2.253 3.004-3.686z"/><path fill="#f07d09" d="M280.457 196.975c.11-1.536 1.647-3.695 2.517-4.958z"/><path fill="#fdac1a" d="m368.734 425.975-2.585-2.397c.896.332 2.432 2.022 2.585 2.397"/><path fill="#fddb5e" d="M623.463 224.239c-1.263 1.186-4.327 4.318-6.161 5.777l-11.87 9.455c-2.492 1.98-6.537 4.386-9.651 6.323l-12.903 8.03c-2.056 1.28-6.63 2.628-8.422 2.918l-4.036-1.408c-.692-.239.887-2.159 1.792-3.54 8.448-12.92 3.217-19.713 23.16-28.144 7.62-3.225 1.236-6.16 3.941-20.463 1.775-9.395 19.49-6.596 26.283-12.672l10.41-9.31c17.443-15.599 5.07-12.441 15.096-22.92 8.115-8.482 24.354.375 33.195 5.137 2.125 1.143.939 7.996-.17 10.018l-5.326 9.737-12.134-1.818c-2.824-.427-5.564 6.63-7.467 9.805-3.643 6.093-12.885 14.711-19.208 16.29l-13.304 3.328-3.217 13.465z"/><path fill="#fdc333" d="M416.811 225.314c-.623 1.425-2.184 3.396-3.004 3.687l-6.886-6.7c-.794-.776 4.036-4.24 4.719-3.395l5.18 6.417z"/><path fill="#f9b73d" d="M577.562 432.93c1.118 3.192-3.422 11.554-7.458 9.353-3.448-1.886-1.46-12.066 1.869-13.628l3.038-1.425c.571-.265 1.203 1.852 2.551 5.692z"/></svg>