<svg xmlns="http://www.w3.org/2000/svg" viewBox="0 0 1024 1024"><path fill="#e4bd12" d="M512 156.444c215.296 0 379.676 235.99 396.757 447.688 27.99 16.64 44.132 48.312 44.132 106.98 0 117.503-121.885 241.777-270.222 241.777a268 268 0 0 1-64.583-7.936c-33.778 5.347-69.348 7.936-106.084 7.936-219.932 0-398.222-92.957-398.222-312.889S284.444 156.444 512 156.444"/><path fill="#efd73b" d="M398.222 839.111c219.933 0 398.222-92.956 398.222-312.889 0-73.87-19.256-152.675-53.46-224.768-67.613-142.506-223.873-130.787-330.54-98.787C277.334 256 209.778 398.222 156.444 512 95.872 641.209 160 778.667 185.316 802.233c61.582 25.102 134.599 36.878 212.906 36.878"/><path fill="#fff" d="M345.13 354.73a14.222 14.222 0 0 1 18.276 21.803c-33.194 27.819-75.449 89.302-86.84 127.958a14.222 14.222 0 1 1-27.293-8.05c13.056-44.245 58.539-110.407 95.858-141.71m62.266-59.32a14.222 14.222 0 1 1 17.692 22.272l-7.936 6.4-1.508 1.28a106.5 106.5 0 0 0-9.614 9.301 14.222 14.222 0 0 1-20.963-19.2c3-3.3 5.86-6.144 8.917-8.931l3.129-2.76c2.702-2.318 4.622-3.854 10.283-8.362"/><path fill="#191919" d="M512 156.444c215.296 0 379.676 235.99 396.757 447.688 27.99 16.64 44.132 48.312 44.132 106.98 0 117.503-121.885 241.777-270.222 241.777a268 268 0 0 1-64.583-7.936c-33.778 5.347-69.348 7.936-106.084 7.936-219.932 0-398.222-92.957-398.222-312.889S284.444 156.444 512 156.444m0 56.89C334.791 213.333 170.667 428.9 170.667 640c0 167.097 126.293 256 341.333 256 34.176 0 66.745-2.418 97.195-7.24l11.392-1.791 11.193 2.773c16.682 4.139 33.706 6.258 50.887 6.258C794.809 896 896 801.536 896 711.111c0-37.646-6.286-52.124-16.341-58.098l-25.245-15.018-2.36-29.298c-16.527-204.729-173-395.364-340.054-395.364"/><path fill="#58b250" d="M683.662 272.071c-53.106 14.237-106.794 6.215-161.038-24.05 31.844-53.347 74.325-87.14 127.431-101.361 53.106-14.237 106.795-6.216 161.053 24.064-31.858 53.333-74.326 87.125-127.432 101.361z"/><path fill="#191919" d="M642.702 119.182c60.516-16.213 121.742-7.068 182.258 26.695a28.444 28.444 0 0 1 10.567 39.424C800 244.793 751.545 283.35 691.03 299.563s-121.756 7.054-182.272-26.71a28.444 28.444 0 0 1-10.567-39.41c35.527-59.505 83.997-98.047 144.498-114.26zm14.72 54.94-4.864 1.38c-33.792 10.098-62.407 29.64-86.243 59.25l-1.565 1.977 2.347.939c37.12 14.364 73.301 16.568 109.212 6.94l4.864-1.38c33.778-10.083 62.407-29.639 86.244-59.235l1.564-1.991-2.346-.925c-37.135-14.378-73.302-16.569-109.227-6.954z"/><path fill="#191919" d="M549.675 64.37a28.444 28.444 0 0 1 38.428 41.927c-31.474 28.871-47.659 73.358-47.659 135.48a28.444 28.444 0 1 1-56.888 0c0-76.941 21.745-136.746 66.119-177.407"/><path fill="#fef8e2" d="M682.667 896C803.684 896 896 792.747 896 696.889s-92.316-28.445-213.333-28.445-213.334-67.413-213.334 28.445S561.65 896 682.667 896"/><path fill="#fce68d" d="M689.778 810.667c17.778 0 21.333-16.598 21.333-49.238q0-32.618-21.333-78.762c-14.222 30.762-21.334 57.03-21.334 78.762 0 32.64 3.556 49.238 21.334 49.238m-65.792 49.152c11.662 1.65 23.438-13.469 27.975-45.782 3.03-21.532-.356-48.526-10.169-80.967-18.36 28.473-29.056 53.49-32.085 75.037-4.551 32.298 2.602 50.062 14.279 51.712M594.759 758.57c6.997 3.555 17.693-3.414 27.577-22.799 6.585-12.913 10.297-30.663 11.164-53.248-17.763 13.98-29.923 27.42-36.508 40.335-9.884 19.385-9.244 32.142-2.233 35.697zm195.186 0c-6.997 3.555-17.693-3.414-27.577-22.799-6.585-12.913-10.297-30.663-11.164-53.248 17.763 13.98 29.923 27.42 36.508 40.335 9.884 19.385 9.23 32.142 2.233 35.697zm86.77-47.076c-5.362 5.746-16.455 4.125-29.71-8.249-8.833-8.249-16.27-21.646-22.301-40.249 18.958 4.722 32.853 11.207 41.7 19.456 13.255 12.36 15.658 23.31 10.31 29.042m-379.122 0c5.362 5.746 16.44 4.125 29.696-8.249 8.846-8.249 16.284-21.646 22.315-40.249-18.973 4.722-32.868 11.207-41.714 19.456-13.255 12.36-15.645 23.31-10.297 29.042m55.111 107.762c6.514 4.38 15.929 1.835 24.036-10.197 5.404-8.008 7.992-20.338 7.78-36.978-15.503 6.044-25.956 13.056-31.36 21.077-8.108 12.018-6.97 21.703-.456 26.098m273.607 0c-6.528 4.38-15.929 1.835-24.035-10.197-5.405-8.008-8.008-20.338-7.794-36.978 15.502 6.044 25.97 13.056 31.374 21.077 8.107 12.018 6.955 21.703.44 26.098zM689.493 881.01c-11.776 0-21.333-7.396-21.333-21.888 0-9.671 7.111-21.334 21.333-35.001 14.223 13.653 21.334 25.33 21.334 35 0 14.507-9.53 21.889-21.334 21.889m67.186-21.348c11.634-1.849 18.475-19.74 13.369-51.968-3.413-21.475-14.535-46.307-33.394-74.467-9.244 32.611-12.146 59.662-8.746 81.137 5.105 32.228 17.137 47.133 28.771 45.298m92.715-101.12c5.603-4.92 2.29-19.257-13.156-39.594-10.31-13.568-26.126-26.98-47.474-40.22 7.794 25.116 16.84 44.444 27.15 58.026 15.446 20.338 27.862 26.71 33.48 21.788M521.3 772.764c-5.617-4.92-2.304-19.256 13.156-39.594 10.297-13.568 26.126-26.98 47.474-40.22-7.794 25.116-16.84 44.444-27.15 58.026-15.446 20.338-27.876 26.71-33.48 21.788"/><path fill="#191919" d="M496.697 618.155c-36.95 5.916-55.808 33.763-55.808 78.734 0 117.603 111.147 227.555 241.778 227.555S924.444 814.492 924.444 696.89c0-43.605-17.735-71.111-52.508-78.137l-6.215-1.052c-17.778-2.717-24.576-1.949-77.938 8.647l-13.525 2.688C736.654 636.53 710.542 640 682.667 640s-53.988-3.47-91.591-10.965l-32.3-6.372c-38.769-7.48-44.472-7.324-62.08-4.508m185.97 50.29C803.684 668.444 896 601.03 896 696.888S803.684 896 682.667 896 469.333 792.747 469.333 696.889s92.317-28.445 213.334-28.445"/><path fill="#e4b220" d="M277.333 753.778q21.334 0 21.334 21.333t-21.334 21.333T256 775.111t21.333-21.333M305.778 668.444q21.333 0 21.333 21.334 0 21.333-21.333 21.333-21.334 0-21.334-21.333 0-21.334 21.334-21.334M220.444 668.444q21.334 0 21.334 21.334 0 21.333-21.334 21.333-21.333 0-21.333-21.333 0-21.334 21.333-21.334"/></svg>