<svg xmlns="http://www.w3.org/2000/svg" viewBox="0 0 1024 1024"><path fill="#fc9c26" d="M695.962 211.294c-4.651 9.753-9.404 8.61-15.668 14.72-3.26 3.183-2.62 8.072-9.753 6.929-1.596 4.975.708 10.368 6.477 9.48 1.664-.256 3.37-2.244 5.128-2.807 6.332-2.04 8.354-3.456 13.773-5.82 14.182-6.195 18.1-1.595 26.752 8.619 13.32 1.084 27.733-3.567 40.986-1.775 2.355.316 3.54 1.058 4.77 3.072 3.063 10.923-10.804 8.747-18.134 11.127-5.555 1.801-13.218 6.836-14.84 12.604-.878 3.115.291 6.562-.315 9.49-1.613 7.748-7.663 20.232-5.59 27.246 1.622 5.487 15.514 11.879 20.984 13.449.367 5.905 8.977 2.09 10.18 10.265 1.733 11.742-7.219 11.23-10.026 20.455l-21.29 2.244c-2.501 11.793 3.532 14.43 11.468 20.676-.034 4.037 1.024 9.575-.051 13.287-1.613 5.555-18.569 14.182-24.295 14.916-5.743.734-20.736-2.859-20.633 4.94 2.901 3.764 6.477 19.875 8.968 20.549 4.404 1.178 7.962-3.994 11.674-3.917 1.963.043 3.9 1.775 5.956 1.954 7.987.709 17.767-1.97 18.663 8.892.546 6.622-13.807 16.444-11.785 23.381.7 2.407 4.147 2.321 5.41 3.55.623.606.23 2.466.81 2.927 6.136 4.83 14.038 5.786 15.753 15.847 5.436-.043 2.612 3.208 3.798 6.818 4.36 13.329 12.936 26.496 16.819 42.026 2.67 10.684 5.23 20.037-2.014 29.483-.401.53-2.108.213-2.884.956-.726.691-.29 2.577-.82 2.995-.895.708-17.049 6.818-19.182 7.364-1.946.495-3.644-1.613-5.965-.222-13.628 8.133-22.17 32.59-27.87 46.772-6.084 15.146-6.298 18.124-9.438 33.69-1.928 9.565-5.538 18.815-8.09 28.185-5.273 1.647-7.304 6.485-13.49 3.277-.922-.478-13.919-13.56-14.627-14.772-2.739-4.684-6.826-11.596-9.267-16.221-3.328-6.315-1.4-13.176-11.332-13.176-.717 9.062-4.01 17.707-5.846 26.513-1.8 8.636.29 11.477-6.425 20.147-.461.598-2.372.197-2.919.802-1.186 1.298-1.28 3.627-3.345 5.573-7.125 6.715-13.388 5.82-21.256 8.158-13.193 3.925-20.796 7.347-35.661 5.444-2.842-.367-18.688-6.673-20.258-8.175-.606-.572-7.586-13.645-7.885-14.652-1.4-4.676-.776-10.35-4.335-15.385-.017-6.213 10.633-6.119 9.899-12.724-7.953 1.562-16.717-4.01-24.312-1.766-4.394 1.297-8.815 16.802-12.006 21.316-5.64 7.97-18.253 16.162-27.469 9.925-2.372-8.192-6.81-15.59-9.813-23.518-1.528-4.037-1.468-13.944-7.774-13.893-11.068 5.786-22.622 16.606-34.227 20.745-4.933 1.758-17.647 4.506-22.707 4.907-3.405.264-6.162-2.185-9.703-2.202-5.999-.026-10.172 2.688-10.615 8.704l3.729 6.05-7.825 6.972c-10.897.128-36.258-4.54-44.186-11.69-8.96-8.09-12.296-42.198-21.734-44.92-20.404-3.755-39.74 9.19-59.554 7.594l-1.255-1.63c-6.895-1.262-12.757-4.966-18.355-8.166-4.233-2.423-4.497-2.406-7.842-5.88-3.712-3.848-6.247-10.419-12.715-9.88-3.61.298-12.595 5.913-18.159 7.44-7.279 1.997-14.788 2.5-22.058 4.403-1.383-3.754 5.435-9.284 5.512-10.743.094-1.792-5.367-8.132-5.615-11.853-.281-4.232 3.277-11.17 4.088-15.667l-3.985-5.94c-16.914-.836-35.328 9.695-51.695 4.737-2.253-.683-3.328-3.44-5.214-4.591-6.443-3.934-11.981-6.375-14.763-14.643-3.362-9.976-2.372-18.45 1.493-28.126 4.677-11.691 16.367-24.73 26.019-32.794 4.565-3.814 22.45-13.312 23.62-15.59 1.852-3.61.657-7.953.921-11.819-5.222.956-10.376 3.789-15.735 1.033-1.963-1.007-12.612-18.057-14.089-21.197-2.867-6.11-5.222-23.28-10.615-24.798-3.217-.905-6.033 2.611-9.25 1.672-2.688-.785-6.494-6.639-11.085-5.725 4.105-6.878 11.392-13.09 7.808-21.522l-14.694-1.928c-4.736 2.67-1.246 5.188-1.852 7.842-1.1 4.813-7.765 7.86-8.661 10.948-1.451 5 .52 12.894-.248 18.381-3.422.46-1.903-4.48-1.954-6.852-.077-3.559-.205-7.262 0-10.786 1.126-19.337 18.918-35.653 38.144-37.325 9.583-.836 17.493 3.942 26.65 1.16 7.534-13.457 3.464-25.267 16.529-36.403 18.653-15.897 41.839-10.965 64.537-11.92 2.671-.794 6.861-10.667 9.916-13.611 7.62-7.33 23.15-10.582 33.493-9.814 6.119.461 12.314 3.823 19.277 1.8 2.842-.827 10.539-10.726 13.935-13.508 12.706-10.427 27.938-15.488 42.77-21.93 7.346-3.192 15.973-9.566 24.302-10.983 16.76-2.85 29.466 2.552 44.638 3.636 13.943.998 53.87-12.288 67.746-18.688 21.521-9.916 30.754-21.71 57.754-18.612 11.554 1.332 23.014 8.653 33.749 11.341 4.796 1.203 11.972 1.212 17.212 2.364 14.148-1.357 22.818-18.466 35.669-21.274 11.017-2.406 26.197.58 36.975 3.67l2.944-.982c1.98-1.058 2.756-3.754 3.866-4.975l3.763-.136.153-3.789c6.11-5.76 12.971-12.28 21.564-13.722z"/><path fill="#fa831d" d="M774.383 170.12c4.343 6.298 10.42 11.239 15.77 16.632 19.737 19.9 35.677 33.16 60.689 48.06 5.956 3.55 9.224 4.992 15.684 9.805-4.685-1.076-3.806 2.167-5.82 4.915-6.204 8.473-11.383 15.82-16.742 24.473-7.407 11.964-14.874 22.63-19.004 35.883-4.122 13.21-13.457 30.08-15.25 43.554-2.09 15.744 6.58 12.263 11.504 19.797.956 1.46 6.05 17.647 6.178 19.465.427 6.059-6.733 15.667-5.743 21.129l25.062 30.122c.956 2.765-1.604 5.12-1.715 7.535-.674 15.155-.478 34.688-6.323 48.563-5.53 13.116-17.203 21.752-28.783 29.048-3.38 13.713-.93 27.827-4.557 41.514-5.734 21.667-19.968 32.103-28.057 50.364-4.25 9.592-2.867 21.666-5.231 32.017-6.861 30.072-44.04 60.502-66.372 80.726-12.05 10.905-24.107 17.817-37.078 27.562-4.002 3.004-6.844 7.56-11.136 10.428-3.626 2.432-23.68 11.571-27.127 12.083-10.266 1.51-20.42-1.758-30.439-2.014 2.031 8.431-4.147 11.956-6.17 19.32-11.87 1.817-20.684 13.098-31.01 17.024-20.514 7.808-42.956 12.604-63.88 18.62-8.619-.214-13.602-7.928-22.451-5.94-1.988 7.595 3.618 4.728 5.88 9.797l-13.722 3.925c-.606-.094-1.331-.009-1.963 0-4.83.068-7.22 1.502-10.82 1.928-13.415 1.57-36.036 3.968-49.016 2.04-5.598-.828-12.817-8.764-18.577-9.848-.042-11.255-7.048-17.16-12.655-25.574-1.109-1.664-1.032-4.07-2.082-5.76-5.53-8.926-21.811-10.027-30.344-4.915-8.602 5.154-16.299 24.533-24.534 24.593-4.744.034-16.529-16.725-21.828-19.439-7.629.589-15.846-4.95-22.86-3.883-8.892 1.357-15.694 8.593-18.92 16.444l-5.025.973c-1.937-.205-19.021-11.605-21.573-13.781-4.974-4.224-12.62-18.441-15.889-19.397-8.925-2.602-15.325 4.566-23.321 5.607-8.755 1.135-17.084.546-23.475-5.863-16.265-16.29-17.87-43.844-16.768-65.75.239-4.752 2.722-7.85 2.022-13.601-.956-7.876-21.257-35.832-27.392-43.196-6.554-7.86-18.03-16-28.433-14.635-9.14 1.204-16.444 8.056-27.204 1.647-4.31-2.568-20.856-22.383-20.856-26.197v-58.812c0-3.89-5.137-4.966-5.384-5.299-1.007-1.348-6.23-8.858-6.383-9.404-.777-2.773-2.287-19.37-2.04-22.63.76-10.052 7.45-23.433 13.765-31.317 8.046-10.053 19.788-15.992 27.485-26.428v3.917c5.223-1.4 7.672-4.096 7.843-9.797h-3.917c1.903-5.205 1.194-9.216 1.962-13.721.052-.324 3.482-2.296 1.955-5.88h-1.955v3.917c-2.32-.683-1.903-2.67-2.048-4.761-.46-6.435-.264-14.584 1.033-20.728h1.024c-.205 3.524-.077 7.236 0 10.786.051 2.381-1.46 7.313 1.954 6.852.768-5.478-1.203-13.38.248-18.38.896-3.09 7.56-6.144 8.66-10.949.607-2.653-2.883-5.17 1.853-7.842l14.694 1.929c3.584 8.422-3.703 14.634-7.808 21.52 4.582-.912 8.397 4.942 11.085 5.727 3.217.938 6.033-2.586 9.25-1.673 5.393 1.52 7.748 18.688 10.615 24.798 1.477 3.149 12.126 20.19 14.089 21.197 5.359 2.756 10.513-.077 15.735-1.033-.264 3.866.922 8.2-.921 11.819-1.17 2.278-19.047 11.776-23.62 15.59-9.652 8.064-21.342 21.112-26.019 32.794-3.865 9.668-4.864 18.142-1.493 28.126 2.79 8.269 8.329 10.71 14.763 14.643 1.886 1.152 2.96 3.908 5.214 4.591 16.367 4.958 34.781-5.564 51.695-4.736l3.985 5.94c-.82 4.496-4.378 11.434-4.088 15.666.248 3.73 5.709 10.061 5.615 11.853-.077 1.46-6.895 6.989-5.512 10.744 7.27-1.903 14.78-2.398 22.058-4.404 5.555-1.527 14.55-7.142 18.16-7.44 6.467-.538 9.002 6.032 12.714 9.881l-2.552 3.874 2.654 1.084c-.546 4.25-2.108 7.185-2.176 11.75-.222 14.166 4.702 17.647 10.803 28.476 4.446 7.885 7.049 16.82 14.746 22.502l2.944.982c19.533-2.577 30.61 2.184 46.071 12.74 3.712 2.534 5.778 6.784 10.403 9.199 16.623 8.678 39.415 9.096 57.01 19.447 3.918 2.304 13.355 9.455 16.846 12.561 3.183 2.834 9.275 12.169 10.88 12.655 4.07 1.246 7.338-10.453 7.901-13.636.7-4.01-.247-16-1.382-20.335-2.236-8.542-8.934-21.453-14.447-28.68-2.142-2.808-5.453-4.583-6.775-7.928l7.825-6.972-3.73-6.05c.453-6.016 4.626-8.738 10.616-8.704 3.541.017 6.298 2.466 9.703 2.202 5.068-.401 17.774-3.149 22.707-4.907 11.605-4.13 23.16-14.959 34.227-20.744 6.306-.051 6.238 9.856 7.774 13.892 3.004 7.927 7.44 15.326 9.813 23.518 9.216 6.238 21.828-1.954 27.469-9.924 3.2-4.515 7.612-20.02 12.006-21.317 7.595-2.244 16.359 3.328 24.312 1.767.725 6.605-9.916 6.51-9.899 12.723 3.559 5.043 2.936 10.71 4.335 15.386.299 1.006 7.288 14.08 7.885 14.651 1.579 1.502 17.425 7.808 20.258 8.175 14.865 1.903 22.468-1.519 35.66-5.444 7.869-2.338 14.132-1.442 21.257-8.158 2.065-1.946 2.16-4.275 3.345-5.572.547-.606 2.458-.205 2.919-.802 6.707-8.662 4.625-11.503 6.425-20.148 1.835-8.806 5.129-17.442 5.846-26.513 9.941 0 8.004 6.853 11.332 13.176 2.44 4.625 6.52 11.537 9.267 16.222.708 1.211 13.705 14.293 14.626 14.77 6.187 3.21 8.218-1.629 13.492-3.276 2.551-9.37 6.16-18.62 8.09-28.185 3.14-15.565 3.353-18.543 9.437-33.69 5.7-14.191 14.242-38.648 27.87-46.771 2.32-1.383 4.02.725 5.965.222 2.133-.547 18.287-6.656 19.183-7.365.529-.418.093-2.304.819-2.995.776-.742 2.483-.427 2.884-.956 7.245-9.437 4.685-18.799 2.014-29.482-3.883-15.53-12.459-28.698-16.82-42.027-1.185-3.618 1.648-6.86-3.797-6.818-1.715-10.052-9.617-11.008-15.752-15.846-.58-.461-.188-2.322-.81-2.927-1.264-1.23-4.711-1.135-5.41-3.55-2.023-6.93 12.33-16.76 11.784-23.382-.896-10.871-10.676-8.183-18.663-8.891-2.056-.18-3.985-1.912-5.956-1.954-3.712-.077-7.27 5.094-11.674 3.916-2.483-.665-6.067-16.776-8.968-20.548-.103-7.8 14.89-4.207 20.633-4.94 5.726-.735 22.673-9.37 24.295-14.917 1.075-3.703.017-9.25.051-13.286-7.936-6.247-13.97-8.884-11.469-20.677l21.29-2.244c2.808-9.224 11.76-8.712 10.028-20.454-1.212-8.175-9.814-4.36-10.18-10.266-5.462-1.57-19.354-7.962-20.984-13.448-2.074-7.015 3.976-19.5 5.59-27.247.605-2.927-.564-6.375.315-9.49 1.621-5.768 9.284-10.803 14.84-12.603 7.338-2.381 21.196-.205 18.133-11.128-1.23-2.014-2.415-2.756-4.77-3.072-13.253-1.792-27.674 2.859-40.986 1.775-8.653-10.223-12.57-14.814-26.752-8.618-5.419 2.363-7.441 3.788-13.773 5.82-1.758.563-3.464 2.56-5.128 2.807-5.769.887-8.073-4.506-6.477-9.48 7.134 1.143 6.494-3.747 9.753-6.93 6.264-6.118 11.008-4.966 15.668-14.72 2.346-4.924 19.481-10.538 25.437-14.754 10.164-7.194 19.542-20.087 32.751-24.107 6.324-1.928 14.37-1.297 20.233-2.312z"/><path fill="#ea5f05" d="M866.526 244.617c4.975 3.712 12.399 12.108 17.647 7.842-.495 7.646 6.383 14.882 5.948 20.514-.197 2.5-4.395 13.244-5.863 15.548-1.11 1.74-3.038.972-3.516 1.578-3.242 4.147-11.963 15.027-13.337 19.106-3.303 9.797-2.492 20.36-2.876 30.447-.077 1.971-1.928 3.977-1.937 5.965-.026 6.537 4.36 6.29 6.972 8.653.819.742 7.245 7.347 7.74 7.936 19.43 23.526 18.525 63.795 6.468 90.795-5.64 12.629-13.637 17.92-11.4 33.783.238 1.724 6.271 10.112 7.91 11.7 3.234 3.13 9.199 7.918 12.143 10.299 6.647 5.376 13.269 5.35 16.358 16.085 3.157 10.966-2.91 15.813-4.617 24.969-.537 2.867.035 10.095-.375 10.41-.307.24-2.372-.622-3.448.359-1.928 1.758-19.148 26.24-21.76 30.302-1.382 2.142-7.313 13.943-7.833 15.693-5.914 20.061 13.525 23.816 25.113 33.126 11.282 9.062 13.219 16.7 11.802 31.232-.333 3.447-1.604 12.083-5.444 11.11-3.627 17.332-19.183 27.478-29.841 39.877-2.629 3.055-4.42 7.628-6.912 10.735-6.059 7.552-13.295 14.37-18.355 22.894l7.654 16.402c-7.194 1.45-1.954 3.515-14.746 1.962-7.782-.947-6.732 2.518-10.76 4.881-14.2 8.346-39.552 19.388-50.048 30.277-6.17 6.4-15.096 17.62-22.503 22.647-2.295 1.553-6.724 1.647-9.088 4.642a33.6 33.6 0 0 1-8.524.282c-2.629-.256-4.677-1.724-6.87-1.929-14.319-1.314-40.345 8.423-56.525 12.04-4.027.905-7.296 5.436-10.99 6.648-3.2 1.05-6.136.393-8.662 1.144-2.688.793-6.255 6.442-9.139 8.507-7.51 5.368-19.874 9.805-28.109 15.02-6.536 4.138-13.602 11.135-20.138 15.146-12.34 7.586-35.474 11.827-51.09 19.481-2.193 1.076-4.147 3.559-5.768 4.028-3.618 1.041-8.508 0-12.39.205.221-3.951-3.175-9.984-5.871-12.757-4.36-4.472-4.156-2.245-7.928-8.739-3.473-5.981-4.24-9.02-11.759-9.804-3.754-.393-7.919.256-11.759 0 1.51-4.856-6.007-6.11-8.823-6.06-2.654.052-4.574 1.597-6.247 1.75-4.027.376-13.764-6.272-14.336 4.301-3.225.256-6.57-.17-9.804 0-1.349-14.481 1.126-8.03 10.47-10.112 2.893-.648 5.58-3.95 9.114-3.635l-1.81-10.496 9.66-6.136-7.79-9.907c-1.178-1.152-2.689-.682-3.96-.879l13.721-3.925c-2.26-5.06-7.867-2.202-5.879-9.796 8.85-1.98 13.833 5.734 22.451 5.939 20.924-6.016 43.367-10.812 63.88-18.62 10.326-3.925 19.141-15.206 31.01-17.024 2.023-7.364 8.201-10.888 6.17-19.32 10.019.257 20.173 3.525 30.439 2.015 3.456-.504 23.5-9.652 27.127-12.084 4.293-2.867 7.134-7.424 11.136-10.427 12.971-9.745 25.029-16.649 37.078-27.563 22.331-20.224 59.52-50.654 66.372-80.725 2.364-10.351.981-22.426 5.23-32.017 8.09-18.262 22.324-28.698 28.058-50.364 3.619-13.696 1.178-27.802 4.557-41.515 11.589-7.304 23.262-15.932 28.783-29.047 5.846-13.876 5.64-33.4 6.323-48.564.111-2.414 2.671-4.77 1.716-7.534l-25.063-30.123c-.998-5.461 6.17-15.07 5.743-21.129-.128-1.817-5.222-18.005-6.178-19.464-4.924-7.535-13.594-4.062-11.503-19.798 1.792-13.474 11.128-30.353 15.25-43.554 4.138-13.26 11.604-23.919 19.003-35.882 5.359-8.653 10.539-16 16.742-24.474 2.014-2.748 1.135-5.99 5.82-4.915z"/><path fill="#e35c07" d="M35.277 552.414c.153.546 5.367 8.055 6.383 9.404.247.332 5.384 1.408 5.384 5.299v58.812c0 3.814 16.546 23.628 20.856 26.197 10.76 6.408 18.056-.452 27.204-1.647 10.402-1.365 21.888 6.767 28.433 14.635 6.136 7.364 26.436 35.32 27.392 43.195.7 5.76-1.783 8.85-2.022 13.602-1.101 21.906.503 49.451 16.768 65.75 6.4 6.408 14.72 6.997 23.475 5.862 7.996-1.04 14.396-8.209 23.321-5.606 3.269.947 10.915 15.172 15.89 19.396 2.551 2.168 19.626 13.577 21.572 13.781l5.026-.972c3.234-7.851 10.027-15.087 18.918-16.444 7.015-1.075 15.224 4.471 22.861 3.883 5.3 2.705 17.075 19.464 21.828 19.438 8.235-.06 15.932-19.438 24.534-24.593 8.533-5.111 24.815-4.01 30.344 4.916 1.05 1.69.973 4.096 2.082 5.76 5.607 8.422 12.604 14.319 12.655 25.574.052 12.544-18.551 15.898 1.929 24.533 4.36 1.835 14.012 2.407 13.824 7.774l-2.031 4.932c7.996.478 28.296-.187 30.472-9.753.7-3.072-3.55-6.767 1.844-9.694l7.73 1.698 6.179-7.603c5.675-1.715 12.826 4.83 17.476 3.789 4.617-1.033.145-7.288.99-9.805.632-.009 1.348-.094 1.963 0 1.271.196 2.79-.273 3.96.879l7.79 9.907-9.66 6.136 1.81 10.496c-3.525-.316-6.221 2.995-9.114 3.635-9.344 2.082-11.819-4.37-10.47 10.112l-.18 3.643c-7.21-.725-14.302 5.197-15.505 12.041-12.262 8.422-24.559 19.473-37.248 27.443-.426.273-1.34-.23-1.962 0l-9.805 3.917c-28.152 4.062-63.079 2.458-91.094-2.03-21.162-3.389-41.958-11.649-55.978-28.323-3.704-4.412-10.53-17.673-13.688-19.635-6.468-4.028-17.809-2.51-25.446-5.922-12.05-5.376-13.986-18.688-30.464-20.506-4.48-.495-9.276.53-13.636-.094-23.638-3.353-39.22-15.027-51.695-34.568-4.062-6.366-5.445-14.541-12.024-19.345-12.467-3.9-31.223 4.855-39.347-7.698-2.227-3.438-1.092-6.621-3.831-8.917 1.066-6.997-.675-16.11-.094-23.432-10.94-2.185-18.219-6.947-26.343-13.91-1.484-1.271-3.72-1.459-4.53-2.27-.376-.375-5.496-7.91-5.932-8.772-2.568-5.18-4.812-17.39-4.232-23.134 2.04-20.411-1.818-11.767-7.51-25.89-3.882-9.625-2.679-27.221 1.946-36.505 2.338-4.702 10.564-10.164 11.443-16.009 1.707-11.29-8.516-19.95-9.847-29.449-1.766-12.578.094-25.147 7.8-35.328 5.973-7.893 15.718-10.777 21.606-18.585"/><path fill="#ed7a15" d="M903.774 560.256c5.726 8.755 20.796 6.195 30.02 8.21 10.872 2.38 32.623 10.973 36.642 21.196 1.51 3.848 1.741 7.936 7.842 7.842.47.538 1.178.981 1.963 1.963l2.261 9.54c7.066 1.323 6.87 12.894 9.617 18.79l-3.584 1.391c-6.323 10.795-10.93 23.356-12.16 35.985-1.177 12.152 4.933 28.57 3.951 41.225-.657 8.49-3.823 18.347-4.275 27.085l-17.365 14.976c-20.207 5.359-41.233 8.755-61.645 11.656l-1.092 4.028c-6.025-3.413-10.633 2.97-15.608 4.983-9.438 3.815-17.68 1.272-25.566 2.86l-7.654-16.402c5.052-8.525 12.288-15.343 18.355-22.895 2.492-3.098 4.284-7.68 6.912-10.735 10.658-12.399 26.215-22.545 29.841-39.876 3.832.973 5.103-7.663 5.445-11.11 1.408-14.533-.52-22.179-11.802-31.233-11.588-9.31-31.027-13.064-25.114-33.126.52-1.75 6.452-13.55 7.834-15.693 2.62-4.062 19.831-28.544 21.76-30.302 1.075-.98 3.14-.12 3.447-.358z"/><path fill="#fccb7c" d="M988.075 97.579c-2.594 5.606.034 12.979.06 18.526.068 11.997-.402 23.722-1.972 35.438-.333 2.467-7.552 13.594-9.805 15.685-2.406 2.235-8.132 5.794-11.144 6.502-26.641 6.204-48.06 3.925-71.288 22.878-1.664 1.357-1.467 3.67-2.278 4.514-.828.87-5.786 2.176-8.5 4.258-6.032 4.634-15.026 14.67-20.582 20.583-3.456 3.686-4.044 10.342-11.724 8.857-25.012-14.899-40.943-28.16-60.69-48.06-5.35-5.393-11.434-10.342-15.77-16.63 6.085-1.06 6.043-5.07 8.347-7.433.605-.623 2.406-.222 2.918-.811 9.882-11.35 26.7-38.673 28.032-53.427 2.244-25.02-6.443-42.804 11.648-64.811 18.961-23.074 69.333-32.435 90.257-7.842 12.715 14.95 5.734 24.508 7.842 41.173 3.09 24.397 28.894 10.812 44.05 12.809 3.907.512 16.784 5.777 20.616 7.808z"/><path fill="#f4a442" d="M884.164 252.459c-5.24 4.266-12.663-4.13-17.647-7.842-6.46-4.813-9.72-6.255-15.684-9.805 7.68 1.476 8.269-5.18 11.725-8.858 5.555-5.913 14.55-15.949 20.582-20.582 2.714-2.082 7.672-3.388 8.5-4.258.81-.845.605-3.158 2.278-4.515 23.228-18.944 44.638-16.674 71.287-22.877 3.013-.7 8.738-4.267 11.145-6.503 2.253-2.09 9.472-13.218 9.805-15.684 1.578-11.716 2.04-23.433 1.97-35.439-.033-5.547-2.653-12.92-.059-18.526 7.296 3.866 16.47 12.467 20.574 19.618 19.635 34.227 4.045 93.099-39.245 97.963-15.36 1.724-35.345-1.971-49.86 5.035-7.21 3.473-30.507 21.896-34.44 28.364-.93 1.528-.828 2.33-.93 3.9z"/><path fill="#e09557" d="M980.233 599.467c4.992 6.263 12.066 15.786 15.291 22.937 2.535 5.615 7.237 28.083 8.534 29.705.46.572 3.029.537 4.59 2.21 4.293 4.616 13.944 18.756 14.686 24.576 2.125 16.794-.631 34.287-10.837 47.915-2.637 3.515-6.315 5.384-8.738 7.927l-10.803 4.053c-5.624-2.133-11.998-2.56-16.256 2.339-4.77 5.495-1.912 1.62-8.943 3.677-2.415.709-4.344 2.39-9.097 3.653l17.366-14.976c.452-8.738 3.618-18.586 4.275-27.085.981-12.655-5.137-29.073-3.951-41.225 1.229-12.62 5.837-25.182 12.16-35.985l3.584-1.39c-2.748-5.906-2.543-17.477-9.617-18.791l-2.262-9.54z"/><path fill="#fc9c26" d="M78.404 466.15h3.917c-.17 5.7-2.611 8.397-7.834 9.805v-3.917c1.494-2.04 2.834-2.918 3.917-5.88z"/><path fill="#e09557" d="M978.27 597.504c-6.101.094-6.332-3.994-7.842-7.842 3.9 1.348 5.52 5.18 7.842 7.842"/><path fill="#fa831d" d="m674.398 225.015-.154 3.79-3.763.136c1.579-1.732 2.304-2.398 3.917-3.917z"/><path fill="#fc9c26" d="M80.367 452.429v-5.88h1.954c1.528 3.584-1.903 5.556-1.954 5.88"/><path fill="#ef6507" d="M233.284 622.993c3.345 3.482 3.61 3.465 7.842 5.88 3.252 6.75 12.468 9.233 19.601 9.804 19.806 1.588 39.151-11.349 59.555-7.594 9.437 2.722 12.774 36.83 21.734 44.92 7.919 7.15 33.28 11.818 44.186 11.69 1.322 3.336 4.633 5.12 6.775 7.927 5.513 7.237 12.211 20.147 14.447 28.68 1.135 4.336 2.082 16.325 1.382 20.336-.554 3.183-3.831 14.882-7.901 13.636-1.596-.486-7.698-9.822-10.88-12.655-3.49-3.106-12.928-10.257-16.845-12.561-17.587-10.35-40.389-10.77-57.011-19.447-4.626-2.415-6.69-6.665-10.403-9.2-15.462-10.555-26.538-15.317-46.071-12.74l-2.944-.981c-7.697-5.683-10.3-14.618-14.746-22.502-6.101-10.83-11.025-14.31-10.803-28.476.068-4.565 1.63-7.5 2.176-11.75l-2.654-1.084 2.552-3.874z"/><path fill="#fa831d" d="M260.736 638.677c-7.142-.571-16.35-3.055-19.601-9.804 5.598 3.2 11.452 6.903 18.355 8.166l1.255 1.63z"/><path fill="#ea5f05" d="M466.586 844.527c-.845 2.517 3.626 8.772-.99 9.805-4.65 1.04-11.802-5.504-17.477-3.79l-6.178 7.604-7.73-1.698c-5.394 2.935-1.144 6.622-1.844 9.694-2.176 9.566-22.477 10.231-30.473 9.753l2.031-4.932c.188-5.367-9.463-5.939-13.824-7.774-20.48-8.635-1.886-11.998-1.928-24.533 5.768 1.084 12.979 9.02 18.577 9.847 12.98 1.929 35.61-.469 49.015-2.039 3.601-.427 5.99-1.86 10.82-1.929z"/><path fill="#d85b0f" d="m739.09 836.685-5.889 5.88c9.327 2.124 15.89 2.064 19.61 11.767-15.48 1.314-3.712 8.909-4.207 14.361-.128 1.374-7.262 16.017-7.936 16.649-9.054 8.61-19.926 16.742-32.393 21.504-16.572 6.323-26.026 5.077-42.666 6.349-2.339.179-4.66 1.817-7.8 2.005-7.714.47-15.684-.7-23.424.102-9.651 14.32-24.602 16.47-40.38 19.414l-28.39-.043c-7.27-2.603-13.67-1.46-21.188-4.292-7.356-2.774-22.511-15.514-26.966-22.042-1.723-2.526-1.715-5.282-2.875-6.929-11.264-15.906-39.177-16.392-56.423-11.375-8.866 2.577-11.016 6.375-17.126 10.394-1.545 1.015-3.473.691-3.857.956 1.203-6.844 8.294-12.758 15.505-12.041l.179-3.644c3.234-.17 6.58.256 9.805 0 11.614-.921 17.852-.776 29.406 0 3.84.256 8.004-.392 11.759 0 2.662 4.01 6.784 9.686 11.759 9.805 3.771 6.494 3.566 4.275 7.927 8.738 2.705 2.774 6.101 8.807 5.87 12.758 3.884-.214 8.773.836 12.391-.205 1.622-.47 3.576-2.953 5.769-4.028 15.624-7.663 38.75-11.904 51.089-19.482 6.536-4.01 13.61-11.008 20.139-15.146 8.234-5.214 20.608-9.66 28.108-15.019 2.885-2.065 6.452-7.706 9.14-8.508 2.525-.75 5.46-.094 8.66-1.143 3.704-1.212 6.964-5.752 10.992-6.648 16.188-3.618 42.206-13.363 56.525-12.04 2.201.205 4.24 1.672 6.869 1.928z"/><path fill="#c84705" d="M895.932 764.151c11.528 15.907 22.374 27.939 8.772 47.002-27.247 38.17-88.422 45.491-132.284 45.141v-1.024c-5.282-1.57-11.955-1.169-17.647-.938-.648.025-1.314-.051-1.962 0-3.712-9.703-10.283-9.651-19.61-11.768l5.888-5.88c2.773.265 5.76.171 8.525-.28 2.364-2.996 6.792-3.09 9.088-4.643 7.407-5.018 16.324-16.247 22.502-22.647 10.505-10.889 35.849-21.931 50.048-30.277 4.028-2.363 2.978-5.828 10.76-4.88 12.784 1.552 7.553-.513 14.746-1.963 7.885-1.596 16.128.955 25.566-2.86 4.967-2.004 9.575-8.387 15.608-4.983"/><path fill="#e35c07" d="M462.66 885.7c.572-10.573 10.309-3.934 14.336-4.3 1.673-.154 3.593-1.699 6.247-1.75 2.816-.051 10.325 1.195 8.823 6.059-11.554-.777-17.792-.922-29.406 0zm41.174 0c7.526.777 8.294 3.823 11.759 9.805-4.984-.11-9.097-5.786-11.76-9.805"/><path fill="#ddaf8c" d="M1003.759 734.737c-1.579 1.647-5.999 6.904-5.99 8.806.017 5.974 10.58 14.328 11.622 17.903 2.295 7.825-1.118 20.438-5.845 27-2.083 2.901-4.19 2.492-5.248 3.567-.896.921-.76 3.14-2.356 4.454-11.153 9.148-26.743 13.799-38.357 22.477-4.446 17.186-5.649 33.203-17.502 47.19-30.976 36.548-106.521 43.357-151.04 48.93-3.524.443-7.21-.171-10.743.042-.52 10.607 10.683 19.644 7.552 30.106-.111.375-3.763 6.46-4.045 6.733-.862.853-3.098.964-4.523 2.278-29.875 27.605-106.666 38.05-147.046 43.187-62.473 7.945-119.791 6.178-182.255 0-54.648-5.41-109.33-13.636-163.209-26.957-33.39-8.251-91.042-21.802-110.011-52.71-7.382-12.032-4.318-15.25-19.883-21.29-33.51-13.006-58.948-13.577-87.305-40.124-15.377-14.396-25.31-32.197-22.476-53.923.69-5.273 5.145-12.083 5.845-16.7 2.73 2.296 1.604 5.48 3.831 8.918 8.124 12.553 26.889 3.797 39.348 7.697 6.57 4.804 7.953 12.98 12.023 19.345 12.476 19.541 28.058 31.215 51.695 34.569 4.36.614 9.156-.401 13.636.094 16.478 1.817 18.424 15.13 30.464 20.505 7.638 3.413 18.978 1.895 25.447 5.922 3.166 1.971 9.984 15.232 13.687 19.635 14.02 16.675 34.816 24.935 55.979 28.323 28.015 4.488 62.942 6.084 91.093 2.03 3.772-.546 8.414 1.477 9.805-3.916.614-.23 1.527.273 1.963 0l1.996 4.77 3.09 2.884c2.38.452 5.068-.188 7.338.504 36.412 11.076 73.361 17.194 111.966 15.47l2.048-4.044 4.71.264.402 3.44 4.71.264 2.048-4.045c14.2 2.133 25.899-3.345 38.929-7.637l2.253-4.113c5.743 1.749 10.888-1.17 14.592-1.86 15.778-2.945 30.728-5.095 40.38-19.414 7.74-.802 15.7.367 23.424-.102 3.14-.188 5.46-1.827 7.799-2.006 16.64-1.271 26.095-.017 42.667-6.349 12.467-4.753 23.338-12.885 32.392-21.504.666-.631 7.808-15.274 7.936-16.648.495-5.453-11.272-13.048 4.207-14.362.649-.05 1.306.026 1.963 0v1.024c5.376 1.767 11.827.896 17.647.939 43.853.35 105.037-6.98 132.283-45.141 13.603-19.055 2.757-31.096-8.772-47.002l1.092-4.028c20.412-2.901 41.438-6.297 61.645-11.656 4.753-1.263 6.682-2.944 9.097-3.653 7.031-2.065 4.173 1.818 8.943-3.677 4.258-4.899 10.624-4.472 16.256-2.339l10.803-4.053z"/><path fill="#d59364" d="M594.014 934.707c-3.704.691-8.85 3.61-14.592 1.86l-2.253 4.114c-13.03 4.292-24.73 9.77-38.929 7.637l-2.048 4.045-4.71-.265-.401-3.439-4.71-.264-2.049 4.044c-38.613 1.724-75.563-4.394-111.966-15.47-2.27-.692-4.95-.052-7.338-.504l-3.09-2.884-1.996-4.77c12.689-7.97 24.985-19.03 37.248-27.444.392-.264 2.32.06 3.857-.955 6.118-4.02 8.26-7.817 17.126-10.394 17.246-5.017 45.167-4.523 56.423 11.375 1.16 1.638 1.16 4.403 2.875 6.93 4.455 6.527 19.61 19.276 26.966 22.04 7.518 2.834 13.926 1.69 21.188 4.293l28.39.043z"/><path fill="#d85b0f" d="M772.42 856.294c-5.82-.042-12.27.828-17.647-.938v-1.024c5.692-.23 12.365-.623 17.647.938z"/><path fill="#d59364" d="M397.97 928.828c-1.392 5.401-6.034 3.379-9.806 3.917z"/></svg>