<svg xmlns="http://www.w3.org/2000/svg" viewBox="0 0 1024 1024"><path fill="#e79633" d="M941.235 152.533c-13.414 20.43-21.197 50.927-15.923 74.863 2.313 10.48 16.094 24.337 16.102 34.603 0 12.126-14.02 21.24-16.213 28.86-4.395 15.257 2.005 37.359-1.724 54.408-3.643 16.657-23.919 26.385-26.444 35.303-2.484 8.746.674 18.62-.683 27.383-5.282 34.116-39.51 31.608-47.838 47.59-4.42 8.483-2.714 19.235-9.062 30.226-10.915 18.91-60.92 54.254-81.553 58.777-14.251 3.123-29.534-.776-43.862 1.041-10.905 1.383-52.028 11.469-58.214 17.553-4.668 4.591-3.934 22.742-11.921 30.191-7.62 7.1-33.238 15.582-43.085 24.5l-43.938-16.496c-13.884 1.067-33.937 20.122-45.875 21.923-4.864.733-13.38-4.557-21.393-5.095-59.46-3.942-52.37 57.583-92.562 70.716-26.342 8.602-50.551-9.293-67.797-.418-15.897 8.175-43.682 46.916-50.355 64.691-3.541-2.492-8.661-2.287-10.522-9.07l-.69-52.686-39.305-5.606c-8.064-14.49-16.58-20.779-10.513-41.412 2.91-9.89 29.286-26.309 35.729-37.223 8.294-14.029 9.65-35.848 20.471-52.497 6.042-9.301 15.548-14.89 20.95-23.953 6.818-11.435 24.149-76.808 23.534-89.199-.725-14.669-10.376-26.914-5.273-44.117 2.474-8.346 19.976-17.041 21.444-23.723 2.799-12.723-37.717-43.955-2.714-75.4 7.988-7.177 23.98-9.942 28.425-16.478 3.883-5.7 4.3-16.598 8.968-24.713 4.864-8.456 16.171-14.524 19.081-20.207 6.306-12.296.11-29.645 5.197-45.32 5.282-16.29 26.189-28.374 41.856-33.92.486-39.91 12.894-68.83 54.92-76.997 26.36-5.12 30.242 2.304 55.168-17.809 28.51-23.005 29.602-43.4 78.08-33.51 16.52-36.548 53.513-33.408 85.803-18.321 10.82 5.06 22.903 18.202 35.063 21.163 7.902 1.928 29.995-5.94 46.994-2.193 18.491 4.078 36.317 34.039 63.641 43.008 7.399 2.423 15.855-.7 24.44 3.626 8.66 4.36 41.147 33.63 47.41 42.402 7.672 10.735 10.104 21.769 14.183 33.536m-420.983 33.673c13.627 1.084 28.655-1.656 42 .102 9.976 1.314 26.053 11.503 32.905 10.394 20.122-3.251 33.118-44.263 57.848-49.17 22.17 4.216 32.179 23.22 55.432 22.128 18.484-.87 30.072-15.59 44.852-17.272 14.361-1.638 27.144 9.02 38.963 5.555 19.541-5.734-1.152-50.508-17.306-55.219-29.807-8.687-47.59 10.897-61.081 10.803-8.107-.05-13.628-9.267-21.189-12.723-33.92-15.522-64.264-13.952-93.576 9.89-10.3 8.38-18.5 25.498-22.443 28.075-7.595 4.966-28.34 4.01-39.543 10.974-10.53 6.545-18.467 24.14-16.854 36.463zm-67.37 129.126c-2.032-14.694 8.08-41.677 19.344-50.833 16.947-13.781 68.975-6.528 36.95-36.335-46.78-10.163-86.529 34.108-68.515 79.89 3.158 8.012-.085 8.797 12.212 7.278zm398.548 22.426c9.26 1.203 12.707.392 19.815-5.427 25.438-20.83 9.839-56.218-17.024-67.525l8.832 36.48-11.623 36.48zM683.025 472.49c-2.193 14.694 19.106 23.586 30.746 22.715 13.21-.99 21.273-14.097 28.996-16.307 11.187-3.208 25.105.982 37.58-1.715 20.668-4.463 43.282-26.965 47.728-47.693 1.92-8.96-.674-18.577 1.578-26.487 2.014-7.074 13.372-11.05 15.463-18.219 2.27-7.782 2.32-35.208-1.895-41.626l-25.472-5.41-2.517 28.382-24.866 20.036-1.391 37.906c-13.082 26.282-38.963 15.752-57.549 21.034-10.726 3.047-26.743 34.057-48.41 27.384zm-246.98-95.429c-10.556-.716-16.478-1.467-25.455 5.41-27.733 21.24-43.844 53.667-11.008 78.78l13.9-8.576c2.723-9.642-4.693-18.432-3.003-25.275 3.789-15.403 31.036-28.416 25.566-50.339m72.985 151.56c-9.437 9.336 37.137 37.863 47.702 39.297 14.566 1.971 40.926-5.658 50.568-16.802 3.43-3.968 14.678-33.135 14.012-36.48-3.73-18.73-23.731 7.458-28.33 10.94-19.226 14.557-34.16 17.817-58.82 14.395-11.444-1.587-13.296-13.337-25.132-11.34z"/><path fill="#c86d24" d="M941.235 152.533c9.054 26.095 18.867 14.934 27.23 23.27 1.348 1.34 12.083 32.257 12.305 35.926.444 7.56-4.608 13.679-4.48 16.81.273 6.529 34.671 27.359 37.897 50.28 2.722 19.336-2.228 33.586-11.964 49.757-3.635 6.042-14.575 14.148-14.737 17.4-.145 2.833 4.736 9.787 4.77 17.05.043 9.044-5.59 15.692-5.999 22.561-1.766 29.27 5.538 62.268-18.116 85.726-2.586 2.569-9.48 2.62-12.937 6.537-24.072 27.298-38.297 52.667-63.812 79.488-1.63 1.715-3.37 31.453-14.669 44.28-14.2 16.119-35.891 8.02-53.632 13.72-16.188 5.206-24.542 25.08-37.171 30.192-15.292 6.186-36.779 4.77-52.65 9.096-14.78 25.464-20.557 55.39-57.78 47.121-10.06-2.236-19.046-14.31-24.064-15.385-4.864-1.041-10.624 4.522-16.213 4.923-58.394 4.216-140.69 28.962-187.682 64.913-20.497 15.685-52.728 58.394-80.802 52.36-8.158-1.748-10.787-7.884-14.866-10.504l-5.742-33.553c-13.347.128-26.112-3.635-39.168-5.743-5.189-.836-11.495.709-16.837 0-10.274-1.365-7.262-2.833-11.23-5.615 6.673-17.774 34.458-56.516 50.356-64.69 17.245-8.875 41.455 9.019 67.797.417 40.192-13.124 33.1-74.658 92.561-70.715 8.013.529 16.538 5.828 21.393 5.094 11.938-1.8 31.992-20.847 45.875-21.922l43.938 16.495c9.848-8.917 35.473-17.4 43.085-24.5 7.996-7.449 7.254-25.6 11.921-30.19 6.187-6.076 47.31-16.162 58.215-17.553 14.327-1.818 29.61 2.082 43.861-1.041 20.634-4.523 70.639-39.868 81.553-58.778 6.349-10.99 4.642-21.751 9.062-30.225 8.329-15.983 42.548-13.474 47.838-47.59 1.357-8.764-1.8-18.637.683-27.384 2.534-8.917 22.801-18.645 26.445-35.302 3.729-17.05-2.671-39.151 1.724-54.409 2.193-7.62 16.221-16.734 16.213-28.86 0-10.265-13.79-24.123-16.103-34.602-5.273-23.936 2.51-54.426 15.924-74.863z"/><path fill="#ebd0a1" d="m228.36 685.79 39.305 5.606.691 52.685c1.86 6.776 6.98 6.58 10.522 9.071 3.968 2.782.956 4.25 11.23 5.615v5.615c-8.081 22.835-29.773 35.72-45.014 53.214-4.155 4.77-26.64 32.375-27.255 34.491-8.61 29.654 11.238 63.992-11.81 94.84-25.327 33.894-56.295 30.874-89.72 10.906-8.345-4.984-12.347-17.263-11.434 3.012-.128-.478-4.241-.828-5.692-8.141-1.212-6.135.648-13.483.085-19.942-42.99 7.492-93.124-31.633-90.06-75.981 3.694-53.487 48.4-79.744 98.363-75.46 7.21.622 13.594 6.596 22.511 5.888 23.629-1.87 79.283-73.754 101.419-90.19l1.758-2.807c-2.228-2.466-3.328-5.606-4.898-8.422"/><path fill="#d4af7d" d="M306.944 758.758c13.047 2.108 25.822 5.871 39.168 5.743l5.743 33.553c-2.483-1.595-6.502-2.193-8.422-5.46l-2.808 2.5c-26.342 30.113-63.659 56.012-83.362 90.922-9.395 16.64 2.543 22.118 4.685 38.434 8.763 66.816-31.335 106.599-98.04 98.04-25.591-3.286-48.35-25.865-58.01-48.87-1.885-4.49-.187-9.55-1.023-12.784-.913-20.275 3.08-7.995 11.434-3.012 33.434 19.968 64.393 22.989 89.72-10.906 23.048-30.84 3.2-65.186 11.81-94.84.614-2.107 23.1-29.712 27.255-34.49 15.24-17.494 36.941-30.38 45.014-53.215l13.175-.802 3.67-4.813z"/><path fill="#f5b34b" d="M520.252 186.206c-1.613-12.322 6.323-29.918 16.853-36.463 11.204-6.963 31.949-6.008 39.544-10.974 3.942-2.577 12.142-19.695 22.442-28.075 29.312-23.842 59.657-25.412 93.577-9.89 7.56 3.456 13.081 12.672 21.188 12.723 13.5.086 31.283-19.49 61.082-10.803 16.153 4.71 36.838 49.485 17.305 55.22-11.818 3.473-24.601-7.194-38.963-5.556-14.788 1.69-26.377 16.41-44.851 17.272-23.254 1.092-33.255-17.912-55.433-22.127-24.73 4.906-37.726 45.918-57.847 49.169-6.844 1.11-22.93-9.08-32.905-10.394-13.346-1.758-28.373.982-42-.102z"/><path fill="#c66b22" d="M683.025 472.49c21.666 6.682 37.683-24.336 48.41-27.383 18.585-5.282 44.475 5.248 57.548-21.034l1.391-37.906 24.867-20.036 2.517-28.382 25.472 5.41c4.215 6.418 4.173 33.835 1.894 41.626-2.09 7.16-13.457 11.145-15.462 18.219-2.253 7.91.341 17.527-1.579 26.487-4.446 20.728-27.059 43.23-47.727 47.693-12.475 2.697-26.393-1.502-37.58 1.715-7.723 2.219-15.779 15.326-28.997 16.307-11.64.87-32.938-8.02-30.745-22.715z"/><path fill="#f5b14a" d="M452.881 315.332c-12.296 1.52-9.054.734-12.211-7.279-18.014-45.781 21.734-90.052 68.514-79.889 32.026 29.807-20.01 22.554-36.95 36.335-11.263 9.165-21.384 36.147-19.344 50.833z"/><path fill="#c86c20" d="M509.03 528.623c11.828-1.997 13.688 9.762 25.131 11.34 24.67 3.423 39.595.163 58.82-14.395 4.6-3.482 24.602-29.67 28.331-10.94.666 3.345-10.581 32.512-14.012 36.48-9.634 11.145-35.993 18.774-50.568 16.802-10.565-1.433-57.148-29.96-47.702-39.296z"/><path fill="#f4b048" d="M436.045 377.062c5.47 21.923-21.777 34.944-25.566 50.339-1.681 6.835 5.734 15.633 3.004 25.275l-13.901 8.576c-32.836-25.113-16.725-57.54 11.008-78.78 8.977-6.877 14.9-6.126 25.455-5.41"/><path fill="#d17624" d="m851.43 337.758 11.623-36.48-8.832-36.48c26.863 11.307 42.462 46.694 17.024 67.524-7.117 5.828-10.556 6.63-19.815 5.427z"/><path fill="#e79633" d="m306.944 758.758-3.67 4.813-13.175.802v-5.615c5.342.709 11.648-.836 16.836 0z"/></svg>