<svg xmlns="http://www.w3.org/2000/svg" viewBox="0 0 1024 1024"><path fill="#fee16d" d="M728.32 196.796c-.196 4.488-.247 9.89-.12 15.889l.726 33.408-8.107 9.48-50.986 29.927-57.2 32.222-73.079 40.567c-1.698.939-5.99 5.231-5.495 4.975-7.424.768-20.002 9.14-27.614 13.406l-45.235 25.335c-5.462 2.236-12.314 5.368-18.629 8.721l-86.007 45.577-32.632 17.562c-1.638.878-6.16 5.367-6.246 5.691-18.867 5.965-48.802 24.115-65.732 35.021-4.992 1.442-11.563 4.463-15.608 7.296-7.1.572-12.825-3.49-17.732-8.78l-26.42-28.468 5.454-9.523 32.358-16.845c4.523-2.355 10.735-6.98 13.995-9.77 12.04-3.73 23.825-10.334 36.394-16.982l55.834-29.525 34.74-18.902c-13.262-5.24-19.158-7.415-29.347-9.275L201.694 348.22c-4.642-.854-11.768-2.782-14.703-3.687l-1.46-35.532c-.801-5.982 2.143-15.608 7.817-19.32l103.56 17.766 144.41 26.65c12.032 2.219 21.897.87 32.205-4.59l88.26-46.738 69.112-36.83 29.329-15.667 54.537-29.082c3.072-1.638 10.675-3.677 13.559-4.377z"/><path fill="#fec130" d="m945.613 541.577-25.643 4.3-1.664 27.708c-.23 3.806-6.434 10.41-10.146 12.39l-28.809 15.403c8.91 3.78 14.9 5.93 22.793 7.399l40.482 7.534 52.591 10.556c.17-.034-3.02 6.878-4.386 8.132L957.568 665.6l-98.645-15.377c-21.615-3.37-60.254-10.829-79.975-14.959.64-.546-5.273-5.325-7.296-5.111l-17.74 1.894c-8.107-16.358-12.562-35.251-12.715-53.018l21.785-7.16 50.458-16.57c35.925-11.802 55.168-1.434 56.371-10.6l1.869-14.173-34.603-.333 3.166-3.268c6.827-.905 13.056-1.639 17.485-2.611l42.001-9.268c1.203-.264 5.717-1.647 5.624-2.858-.094-1.246.034-3.414.085-4.787 2.73.537 8.038 2.653 10.931 3.805l3.541 25.703 18.117.76c2.03.085 8.08 3.609 7.569 3.899z"/><path fill="#f69e06" d="m561.997 607.01-4.497 4.984c-6.682 7.398-10.42 21.282-2.8 31.078l29.492-3.575c-4.83 13.525 16.435 28.893 28.34 26.94l53.11-8.747 20.609-3.388-8.645 5.197c-7.227 4.343-16.332 13.5-24.047 20.736l-19.225 1.672c-3.687.324-10.394 5.223-14.157 6.34l-54.588 16.197c-30.651 9.096-45.346-2.466-54.144 12.083l-17.783 8.44-41.412 16.272c-3.337 1.315-8.926 5.052-10.599 6.656-2.227.794-8.234 2.731-10.897 3.951l-55.5 25.49-34.185 15.871c-3.96 1.844-9.566 3.968-12.604 5.189l-8.67-8.798 1.622-40.764 16.11-9.608c4.685-1.255 13.645-5.129 19.192-7.885l77.184-38.272c3.78-.649 10.504-2.518 15.394-5.137l73.762-39.501c13.022-6.972 1.34-15.795 17.937-29.38l9.523-7.791c2.398-1.963 8.653-2.97 11.478-4.25"/><path fill="#e68201" d="M864.52 429.858c-1.672-.222-5.026-2.577-6.579-3.268-1.536-.683-3.515 2.67-4.548 4.096l-13.918 3.72c-3.362.896-5 10.266-5.854 13.543l7.86 8.516c-21.436 16.845-17.58-2.44-41.293.606-2.637 7.347-4.301 12.34-5.726 15.317l-7.544 15.693-8.61-.239-23.21-3.618-14.413-4.924c-3.951-1.348-12.834-1.561-16.88-1.229-2.329.188-8.353.623-10.888 1.596l-28.185 10.889c-7.04 2.722-22.366 8.883-29.457 10.777-2.774.743-9.037-10.393-10.47-13.081l-50.501-14.61-9.267-1.953-6.784-2.492c-.7.725 3.302-4.37 4.25-4.676l37.23-12.348c3.917-1.297 7.143-2.722 8.397-3.482l29.807-8.294 92.271-28.408 105.967-33.297 12.578-4.275c5.803-1.971 18.577-2.867 24.678-3.243l4.335 16.419 2.262-51.15c.17-.528 3.2 6.418 3.166 8.96l-.666 53.744c-.06 4.949-6.349 13.132-10.658 14.924l-24.039 10.01c-1.075.444-3.669 6.443-3.293 5.794z"/><path fill="#ce6502" d="M778.965 635.264c19.72 4.13 58.36 11.588 79.975 14.959l98.645 15.377.196 57.813c-7.125.034-16-.4-24.123-1.672L906.65 717.5l-26.872-4.165-64.631-10.026-27.887-3.763-27.205-3.815-23.569-3.191-37.46-4.77c-10.13-1.289-21.872-2.765-32.052-2.688l-32.085.239-.555-3.405 19.225-1.673c7.706-7.245 16.82-16.392 24.047-20.736l8.645-5.197c.913-.153 2.491-.145 3.567-.153l12.006-3.926 55.646-14.182c5.052-1.288 16.427-1.843 21.504-.776z"/><path fill="#fdda5d" d="m860.032 328.329 7.16 4.002-4.173 37.342-6.861 9.002-105.967 33.297-92.271 28.408-29.807 8.294c-28.066 2.04-27.093 3.03-54.647-12.066l-17.818-9.762 10.334-9.25c7.023-2.68 15.19-5.598 22.297-7.672l42.095-12.245 71.62-21.572c6.802-2.048 14.226-7.348 18.023-12.11 14.686 3.235 117.675-34.081 140.015-35.677z"/><path fill="#fedb60" d="m720.41 774.639-.316 50.364-84.821-22.793-155.247-43.144-38.383-11.17c1.672-1.596 7.262-5.342 10.598-6.657l41.412-16.273 17.784-8.44c8.9-4.223 22.775-4.957 32.102-2.252l27.52 7.987 99.78 28.911c21.965 6.366 44.118 10.266 49.58 23.475z"/><path fill="#dd7602" d="m535.117 522.573 27.708 6.86c2.525.624 8.157 1.22 10.487.93l8.124 5.914-65.886 33.733-58.257 29.405c-1.366.692-3.021 2.808-3.874 3.977-1.144-.12-2.671-.393-3.559-.102-4.42 1.442-11.494 4.693-16.938 7.543l-66.245 34.62c-11.52 6.016-20.608 12.936-33.126 21.93l13.747 9.046-6.306 8.883c-18.569 7.279-36.147 17.143-53.956 26.658l-16.29 8.704c-2.16 1.152-6.563 5.94-7.382 7.433l-19.14 8.115c.939-1.767 5.478-6.528 8.055-7.475l7.757-2.859c1.57-.58.034-7.723-1.186-8.909l-14.447-13.969 11.025-14.148c1.741-2.236 3.772-8.576 4.045-10.59l25.233-9.77 40.03-15.839.657-19.012c.23-6.707 7.672-16.281 13.099-20.25l8.712-10.811 9.634-7.117 127.744-53.137 32.649-13.568c5.811-2.415 12.757-4.634 17.903-6.195z"/><path fill="#f39903" d="m853.393 430.677 6.92 3.021c3.2 1.391 5.7 8.303 5.24 11.776l-3.32 25.037 78.311 14.396c8.49 1.561 19.66 2.705 27.776 3.31l45.252-32.912 1.8-3.26c2.091.324 8.201 3.166 8.193 5.47l-.162 60.177c-8.38 4.13-17.87 8.013-25.848 10.376l-30.54 9.071c-6.802 2.023-15.31 3.414-21.41 4.438.52-.29-5.539-3.815-7.57-3.9l-18.116-.76-3.541-25.702c-2.893-1.152-8.2-3.268-10.932-3.806l-22.118-4.36c-.93-.18-2.415-.009-3.618.017.486-.384-5.624-3.465-7.765-3.747l-19.994-2.594-15.215-1.467-16.717-1.844-18.568-1.578c-3.584-1.622-10.513-3.653-14.558-3.763l7.543-15.693c1.434-2.978 3.09-7.97 5.726-15.318 23.714-3.046 19.857 16.24 41.293-.605l-7.86-8.517c.854-3.277 2.492-12.638 5.855-13.542l13.917-3.72z"/><path fill="#faa408" d="M244.01 448.478c-.716-2.168-7.347-6.57-10.896-6.938l-39.356-4.121-93.33-.24-.05-3.873c72.268 3.473 52.71-6.204 108.168-13.449l24.021-3.132 15.002-2.252 27.665-4.907c-18.278-10.795-51.61-18.15-69.896-18.663-1.101-.034-2.868-.196-3.857-.145l-11.648-7.458-4.028 3.951c-.41.504-3.559-6.383-3.559-8.823l-.068-57.993c0-3.055 2.287-10.07 3.354-11.452l1.459 35.533c2.935.905 10.052 2.842 14.703 3.687l139.938 25.583c10.189 1.86 16.094 4.044 29.346 9.275l-34.74 18.902-55.833 29.525c-12.57 6.647-24.345 13.252-36.394 16.981z"/><path fill="#e58603" d="M763.588 266.436c8.815 7.586-9.975 19.627-18.85 24.969l-31.019 18.662-38.81 23.347c-6.775 4.08-14.147 10.12-19.225 14.874-5.743 1.203-14.566 4.028-20.002 7.27l-21.785 12.963c-16.188 9.634-32.111 18.022-47.796 25.608l8.482-28.34-6.673-6.04-33.86 3.515c-.486.256 3.806-4.036 5.496-4.975l73.08-40.567 57.198-32.222 50.987-29.927 12.85-7.381c2.493 1.237 11.052 5.845 15.301 8.636l14.618 9.608z"/><path fill="#fdd451" d="m178.261 491.145 14.498 29.457 8.96 17.322-35.012 9.276-4.31 2.057c-3.054-.043-9.172.955-13.37 1.809l-67.329 13.661c-6.178 1.255-19.456 1.417-25.165-.896L31.002 553.49l-8.704-6.417c-2.629-1.937-5.965-4.122-5.684-5.982.188-1.237.948-4.685.973-4.77l-9.694-6.895c29.261-9.318 85.914-24.994 115.815-27.204l3.439-3.303.017-2.918 27.503-.905c3.532-.119 9.523-1.877 12.28-3.464l11.323-.486z"/><path fill="#fcb620" d="m634.325 681.916.555 3.405c-.905.964-.486 2.372.555 3.89 5.017 3.653 13.235 7.988 20.3 10.283l32.956 10.718 69.231 22.545c2.569.837 8.021 5.282 8.738 6.272-2.509 2.065-7.279 5.189-11.102 7.015l-34.474 16.435c-.376 6.204-.657 9.71-.674 12.16-5.462-13.201-27.606-17.11-49.58-23.475l-99.78-28.911-27.52-7.987c-9.326-2.705-23.201-1.963-32.102 2.252 8.798-14.549 23.493-2.986 54.144-12.083l54.588-16.196c3.763-1.118 10.47-6.016 14.157-6.34z"/><path fill="#de7802" d="m162.39 549.265 27.468.35c24.994 25.882 51.226 16.06 50.304 26.513l-81.007 31.351c-7.253 2.808-15.804 5.223-23.21 7.954l-41.046 6.092c-6.946 1.033-15.07 1.613-20.727 1.835l-2.577-30.003c-.564-6.545-.64-16.785-.606-22.511l10.71-6.101 67.327-13.662c4.19-.854 10.317-1.844 13.372-1.81z"/><path fill="#e78602" d="M244.215 736.222 139.35 794.99c-6.63 3.712-14.43.794-19.106-.93l15.07-1.494-.282-53.41 17.298-9.412 64.119-32.691c9.574-4.881 26.325-13.585 35.703-16.495l7.305-2.27c-.273 2.014-2.304 8.363-4.045 10.59l-11.025 14.148 14.447 13.97c1.22 1.185 2.765 8.328 1.186 8.908l-7.757 2.859c-2.577.947-7.116 5.7-8.055 7.475z"/><path fill="#d97602" d="M244.01 448.478c-3.26 2.799-9.48 7.424-13.994 9.77l-32.358 16.845c-7.476 3.892-14.686 9.003-19.397 16.052l-11.323.486-12.28 3.464-27.503.905c-6.11.205-16.682-3.678-26.965-5.854l.239-52.975 93.329.24 39.356 4.12c3.55.376 10.18 4.77 10.897 6.938z"/><path fill="#fcb421" d="m864.52 429.858 37.3 4.95 19.9 2.918 31.445 4.813 62.208 9.514-1.8 3.26-45.253 32.913c-8.115-.606-19.285-1.75-27.776-3.31l-78.31-14.397 3.32-25.036c.46-3.473-2.049-10.385-5.24-11.776l-6.92-3.021c1.032-1.425 3.011-4.779 4.547-4.096 1.562.691 4.907 3.046 6.58 3.268"/><path fill="#fdd354" d="m216.457 697.037-64.12 32.691-17.297 9.412c-12.791-1.69-37.726-26.7-49.178-22.46 3.61-18.013 52.566-29.192 61.287-42.922l6.844-1.835c3.771 1.476 12.791 5.36 16.64 5.786l23.5 2.585 32.35 3.55z"/><path fill="#fbd253" d="M100.378 433.306c-.06-4.446-7.117-40.85 12.748-40.081l55.467 2.141c7.134.273 12.245.29 16.81.077-.042 9.14 18.083 4.275 34.39 7.535l23.416 4.685c1.826.845 5.896 4.369 6.493 2.85s2.876-6.827 1.366-7.117l-19.243-3.703-19.012-3.652c-2.048-.393-7.731-4.77-7.467-5.138 18.287.512 51.618 7.877 69.897 18.663l-27.665 4.907-15.002 2.252-24.021 3.132c-55.458 7.236-35.909 16.922-108.169 13.449z"/><path fill="#fbc030" d="m655.693 348.288 2.85 3.883 35.9 6.203 25.574 5.632c-3.797 4.762-11.221 10.061-18.022 12.11l-71.62 21.571-42.096 12.246 9.55-6.11-33.767-3.883 2.04-5.82c15.684-7.586 31.607-15.974 47.795-25.608l21.785-12.962c5.436-3.234 14.26-6.059 20.002-7.27z"/><path fill="#fac534" d="m337.527 739.217-16.11 9.609-1.622 40.763 8.67 8.798c-24.619 9.882-33.74-.239-59.034-15.82l-2.005-45.825c-.094-2.167-4.087-9.634-4.053-8.644.819-1.485 5.222-6.272 7.381-7.432l16.29-8.704-2.73 7.415c11.682 14.712 18.278 12.834 35.643 24.542l17.588-4.71z"/><path fill="#e98903" d="m720.094 825.003.316-50.364c.017-2.45.307-5.956.674-12.16l34.474-16.435c3.823-1.826 8.602-4.95 11.102-7.015.666-.921 6.742 6.452 6.69 9.131l-1.075 58.291-38.784 22.11c-2.483 1.417-13.534-2.517-13.397-3.558"/><path fill="#f6a00b" d="m135.031 739.149.282 53.41-15.07 1.493c-9.591-3.541-25.258-9.557-32.862-18.201l-2.5-40.713c-.341-5.495.145-14.285.981-18.457 11.444-4.242 36.378 20.77 49.178 22.46z"/><path fill="#e58305" d="m965.769 720.154-4.557 3.413c-.709.529-2.236-.034-3.44-.154l-.195-57.813 33.262-30.6c1.366-1.255 4.557-8.167 4.387-8.133 2.79.563 9.463 5.462 9.455 8.892l-.103 56.132c-14.37 11.384-26.052 20.327-38.81 28.263"/><path fill="#f7a50b" d="m30.993 553.498 25.532 10.342c5.709 2.313 18.986 2.15 25.165.896l-10.71 6.101c-.042 5.726.043 15.966.606 22.511l2.577 30.003c-4.796.18-15.095-.494-19.934-2.747l-27.614-12.886-6.545-8.541.794-38.307c.034-1.749.35-7.748 1.775-7.688l8.346.316z"/><path fill="#f7b92c" d="m159.155 607.47-4.804 7.092c1.46 4.65 3.746 13.04 4.838 20.036l3.661 23.467c.427 2.722 4.335 10.112 6.741 9.122 5.743-2.364 18.868-6.792 24.585-9.148-1.152 1.58-5.709 6.153-8.064 7.493l-7.057 4.01c-1.17.666.333 3.32 1.34 5.274 12.305 1.178 22.673 2.415 32.469 2.577l35.977.614 3.319 2.543c-9.387 2.919-26.13 11.614-35.703 16.495l10.026-13.192-32.35-3.55-23.5-2.586c-3.849-.426-12.86-4.309-16.64-5.785l-6.844 1.834c-10.718-18.372-4.054-54.22-11.213-58.342 7.415-2.73 15.957-5.146 23.21-7.953z"/><path fill="#ec9b0b" d="m900.01 336.427-2.26 51.148-4.336-16.418c-6.1.376-18.884 1.272-24.678 3.243l-12.578 4.275 6.86-9.002 4.173-37.342-7.159-4.002c6.383-6.827 22.741-9.157 32.58-6.315 4.028 1.16 8.627 11.673 7.399 14.413"/><path fill="#f7ae15" d="M760.294 246.972c.359 3.797 1.912 10.513 3.132 12.365l.162 7.1-14.617-9.61c-4.25-2.79-12.8-7.406-15.3-8.635l-12.852 7.381 8.107-9.48-.725-33.408c-.128-6-.077-11.4.119-15.89 2.569-2.03 12.493-2.448 15.53.188 6.964 6.042 13.398 17.306 14.08 24.662z"/><path fill="#ecb72f" d="m30.993 553.498-8.346-.316c-1.425-.051-1.74 5.948-1.774 7.688l-.794 38.307 6.545 8.541-18.185-5.341c-3.712-1.093-6.545-12.621-6.673-16.692L.426 541.44c-.119-3.977 4.225-10.957 7.45-11.99l9.694 6.896c-.025.076-.785 3.524-.973 4.77-.281 1.86 3.055 4.036 5.684 5.982l8.704 6.417z"/><path fill="#f5e3a9" d="M201.48 390.758c.99-.05 2.757.111 3.858.145-.265.359 5.427 4.745 7.466 5.138l19.013 3.652 19.242 3.703c1.502.29-.776 5.598-1.365 7.117-.597 1.519-4.668-2.005-6.494-2.85l-23.415-4.685c-16.308-3.26-34.424 1.613-34.39-7.535l3.755-4.036 12.33-.64z"/><path fill="#fbd253" d="m201.48 390.758-12.33.64-3.345-4.147 4.028-3.95z"/><path fill="#ce6502" d="m961.212 723.567 4.557-3.413z"/><path fill="#f69e06" d="M635.435 689.212c-1.05-1.52-1.46-2.927-.555-3.891z"/><path fill="#d97602" d="m123.69 502.238 3.44-3.303z"/><path fill="#d87102" d="m566.11 394.13-2.04 5.819 33.767 3.882-9.549 6.11c-7.108 2.065-15.275 4.992-22.298 7.672l-12.39 4.727c-13.073 4.984-26.897 10.914-38.588 18.023l-15.095 9.173-19.166-4.386-11.708-3.618-3.874-.128c-1.8-1.784-7.79-3.525-11.648-3.866-1.16-.077-2.534-.239-3.388-.008-.435-2.15-1.843-8.397-1.826-10.966l.051-13.26 12.86-11.273 45.235-25.336c7.612-4.258 20.19-12.629 27.614-13.405l33.86-3.516 6.674 6.041-8.483 28.34z"/><path fill="#da7003" d="M380.194 483.533c.88-.026 2.552.196 3.635.307.845 1.852.956 2.74 2.236 2.91 1.34.188 4.463.367 5.666.589l22.28 4.096 4.011 3.72 18.236 6.81-2.022 4.915c-.922-.307-2.62.043-4.07.17l-5.385.487c-1.272.111-1.391 1.22-2.082 3.02l-3.874.146-8.312 4.147-3.874.145-5.282.359c-1.101.076-1.348 1.288-2.202 3.123-.862.051-2.466-.111-3.558-.214-26.718-2.474-55.748-2.483-85.555 1.75l-35.883 5.094c-10.232 1.45-28.587 1.579-37.786 1.46v-4.685c5.035-.401 11.136-4.42 15.608-7.296 16.93-10.897 46.865-29.056 65.732-35.021 6.212-1.963 16.913-2.936 23.142-1.366l20.412 5.163c4.301 1.084 14.464.307 18.944.18z"/><path fill="#ec8d05" d="m461.218 402.005-12.86 11.273-.05 13.26c-.01 2.56 1.39 8.816 1.825 10.966-3.26.87-10.035 3.465-13.252 5.59l-47.164 31.189c-3.02 1.996-7.808 6.869-9.514 9.241-4.48.128-14.644.905-18.944-.179l-20.412-5.163c-6.23-1.578-16.93-.597-23.142 1.366.085-.325 4.608-4.805 6.246-5.692l32.631-17.562 86.008-45.576c6.315-3.345 13.167-6.477 18.628-8.721z"/><path fill="#fcba22" d="m197.658 475.093-5.453 9.524 26.419 28.467c4.915 5.29 10.633 9.352 17.732 8.78v4.685c-2.61-.034-6.545 2.663-10.897 4.6-7.074 3.149-16.819 4.95-23.748 6.784l-8.96-17.323-14.498-29.457c4.71-7.048 11.92-12.16 19.396-16.051z"/><path fill="#f49a06" d="M251.972 514.569c-4.471 2.875-10.564 6.894-15.607 7.296 4.036-2.834 10.615-5.854 15.607-7.296"/><path fill="#fcaf21" d="m837.094 530.185 34.603.332-1.869 14.174c-1.203 9.174-20.446-1.203-56.37 10.599l-50.459 16.571-21.785 7.16c.153 17.766 4.608 36.659 12.715 53.017l17.74-1.894c2.023-.213 7.936 4.565 7.296 5.111-5.077-1.066-16.452-.512-21.504.777l-55.646 14.182c-3.959 1.007-9.932 2.816-12.006 3.926-1.075.008-2.662 0-3.567.153l-20.608 3.388-53.111 8.747c-11.904 1.962-33.17-13.415-28.34-26.94 14.66-7.663 30.67-14.626 47.65-21.18l60.587-23.381 47.463-17.826c14.814-18.466 32.529-29.142 52.958-39.04l-26.095-3.78c-5.3-.768-11.12-7.262-11.623-11.964l4.446.11c9.66 1.81 19.541 3.21 30.942 4.395l20.19 2.108c8.832.922 18.483 1.17 26.385 1.246z"/><path fill="#fed759" d="m594.304 473.626-1.57 45.354c-.06 1.826.495 7.85 2.116 7.586s6.665-1.169 8.124-1.817l50.85-22.477 34.74 21.376 16.52 10.163-7.518 8.636-47.855 24.371-43.162 20.036-44.544 20.148c-2.824 1.28-9.08 2.287-11.477 4.25l-17.698 3.029c-3.695.631-9.361 1.749-12.868 2.653l-52.08 13.44-25.232 6.307-8.15-21.65 15.369-11.75c.887-.29 2.415-.017 3.558.102l3.874-3.976L515.558 570l65.886-33.732-8.123-5.914 14.788-1.843 1.143-44.254c.077-2.867-3.584-11.597-4.198-12.595l9.267 1.954z"/><path fill="#e27c02" d="M753.894 517.99c.18 1.076.87 3.072 1.238 4.335.503 4.702 6.323 11.196 11.622 11.964l26.095 3.78c-20.429 9.899-38.144 20.574-52.958 39.04l-47.462 17.826-60.587 23.382c-16.981 6.553-32.99 13.525-47.65 21.18l-29.491 3.575c-7.629-9.788-3.883-23.671 2.799-31.078l4.497-4.984 44.544-20.147 43.161-20.036 47.855-24.372 12.843-6.357L738.27 523c4.139-1.945 11.486-4.002 15.633-5z"/><path fill="#fdc535" d="m449.852 603.29-15.369 11.75 8.15 21.65 25.233-6.307 52.079-13.44c3.507-.905 9.173-2.022 12.868-2.654l17.698-3.03-9.523 7.792c-16.59 13.585-4.915 22.408-17.937 29.38l-73.762 39.5c-4.89 2.62-11.614 4.49-15.395 5.138l2.091-5.99-27.213-9.012c-11.673-3.865-31.582-6.937-42.274-2.748l-25.523 10.002 6.306-8.884-13.747-9.045c12.518-8.986 21.606-15.906 33.126-21.93l66.245-34.62c5.444-2.842 12.518-6.102 16.938-7.544z"/><path fill="#fed859" d="m433.903 693.06-77.184 38.272c-5.547 2.748-14.507 6.63-19.192 7.885l-17.587 4.71c-17.365-11.707-23.961-9.821-35.643-24.541l2.73-7.416c17.81-9.515 35.388-19.38 53.956-26.658l25.524-10.001c10.692-4.19 30.609-1.118 42.274 2.748l27.213 9.01z"/><path fill="#fee06a" d="M450.125 437.504c.853-.23 2.227-.068 3.388.009 1.698 1.186 7.953 3.14 11.648 3.865l3.874.128 11.707 3.618 19.166 4.386 49.127 13.048c8.448 2.244 22.536 4.164 29.21 6.613l6.783 2.492c.615.998 4.275 9.736 4.199 12.595l-1.144 44.254-14.788 1.843c-2.321.29-7.962-.307-10.488-.93l-27.707-6.86-51.354-14.047-41.549-10.632c-10.188-2.611-19.447-4.847-28.202-6.46l-22.28-4.096-7.903-3.499c-1.075-.102-2.747-.332-3.635-.307 1.707-2.363 6.494-7.236 9.515-9.241l47.163-31.19c3.218-2.124 9.993-4.727 13.253-5.589z"/><path fill="#fcae13" d="m723.806 478.054-3.175 4.224 18.51 6.801c5.025 1.852 11.852 11.358 12.757 16.811l2.005 12.092c-4.147.998-11.486 3.055-15.633 5l-27.87 13.1-12.843 6.356 7.518-8.635-16.52-10.164-34.74-21.376-50.85 22.477c-1.459.649-6.502 1.553-8.123 1.818s-2.176-5.76-2.117-7.586l1.57-45.355 50.5 14.61c1.434 2.696 7.698 13.823 10.471 13.08 7.091-1.894 22.417-8.055 29.457-10.777l28.186-10.888c2.534-.982 8.559-1.408 10.888-1.596z"/><path fill="#f9b021" d="m565.99 417.596-10.333 9.25 17.817 9.762c27.554 15.087 26.581 14.106 54.648 12.066-1.263.76-4.489 2.185-8.397 3.482l-37.231 12.347c-.939.316-4.95 5.41-4.25 4.677-6.673-2.45-20.761-4.37-29.21-6.614l-49.126-13.047 15.096-9.173c11.69-7.109 25.514-13.04 38.587-18.023l12.39-4.727z"/><path fill="#f69e06" d="m701.815 650.223-12.006 3.925c2.074-1.11 8.047-2.918 12.006-3.925"/><path fill="#fedd68" d="M484.574 542.336 356.83 595.473c-4.344.802-10.897 2.458-15.983 4.437l-105.89 41.293-40.772 16.828c-5.718 2.364-18.842 6.792-24.585 9.148-2.406.99-6.315-6.4-6.741-9.122l-3.661-23.467c-1.092-6.997-3.38-15.386-4.839-20.036l4.805-7.092 81.007-31.351 125.286-44.8 25.933-9.557 4.198-3.516c1.093.102 2.697.264 3.559.213l5.367-.324c1.237-.077 1.417-1.331 2.116-3.157l3.875-.145 8.311-4.148 3.874-.145 7.467-3.507c1.45-.136 3.149-.478 4.07-.17 3.166 1.049 9.387 3.379 13.107 5.256l41.745 21.094-4.505 9.114z"/><path fill="#ee8d03" d="m356.83 595.473-9.634 7.117-8.713 10.812c-5.427 3.968-12.868 13.542-13.098 20.25l-.658 19.011-40.03 15.838-25.232 9.771-7.305 2.27-3.32-2.543-35.976-.614c-9.788-.171-20.164-1.4-32.47-2.578-1.006-1.954-2.508-4.608-1.34-5.273l7.058-4.01c2.355-1.34 6.912-5.914 8.064-7.493l40.772-16.828 105.89-41.293c5.086-1.988 11.64-3.635 15.983-4.437z"/><path fill="#f7b022" d="M535.117 522.573c-5.137 1.561-12.083 3.78-17.903 6.195l-32.649 13.568 4.506-9.114-41.745-21.094c-3.72-1.877-9.933-4.207-13.107-5.257l2.022-4.915-18.236-6.81-4.01-3.72c8.763 1.613 18.014 3.857 28.202 6.46l41.55 10.632 51.353 14.046z"/><path fill="#fdc535" d="M453.41 603.392c.853-1.17 2.509-3.285 3.874-3.977z"/><path fill="#f49a06" d="m395.58 518.255-4.199 3.516-25.932 9.557-125.287 44.8c.922-10.453-25.31-.631-50.304-26.513l-27.469-.35 4.31-2.056 35.012-9.276c6.92-1.835 16.674-3.635 23.748-6.784 4.352-1.937 8.286-4.634 10.897-4.6 9.19.12 27.546-.008 37.786-1.459l35.883-5.094c29.806-4.233 58.828-4.224 85.555-1.75z"/><path fill="#fcba22" d="M166.938 491.64c-2.757 1.587-8.739 3.353-12.28 3.464z"/><path fill="#ec8d05" d="M465.16 441.378c-3.694-.725-9.95-2.68-11.647-3.865 3.857.34 9.847 2.082 11.648 3.865m15.582 3.755-11.707-3.618zm-89.01 42.197c-1.204-.222-4.327-.4-5.667-.589-1.28-.179-1.4-1.058-2.236-2.91z"/><path fill="#f7b022" d="m430.157 507.042-7.467 3.507c.691-1.8.81-2.91 2.082-3.02zm-11.341 3.652-8.311 4.148z"/><path fill="#f49a06" d="M406.63 514.987c-.7 1.817-.887 3.08-2.116 3.157l-5.367.324c.853-1.834 1.1-3.046 2.201-3.123z"/></svg>