<svg xmlns="http://www.w3.org/2000/svg" viewBox="0 0 1024 1024"><path fill="#773213" d="M769.406 308.522V288.25c.352.218 2.476 3.824 2.5 5.11l.207 12.637-2.707 2.537z"/><path fill="#6e270b" d="m726.058 853.789 1.104-19.92 3.69-35.92c.28-2.743 2.198-9.091 2.343-12.187l12.285-1.845c11.787-1.772 23.731-4.795 35.118-8.424l18.84-6.009c12.77-4.067 28.926-14.3 40.58-22.13 30.747-20.66 57.635-64.36 61.495-101.505l2.294-17.589c2.38-18.305 1.554-34.923-3.799-52.391-15.599-43.263-41.078-59.809-84.256-71.195l-38.153-.388c-5.39-2.027-11.07-1.797-15.392.497l1.651-22.299c1.178-15.938 3.144-31.245 6.021-45.739 40.653-2.962 88.553 3.702 123.938 27.895l20.393 13.936c10.258 8.545 24.375 25.868 31.38 37.157 3.884 6.251 15.234 29.364 17.127 35.773 3.496 11.775 9.833 37.691 9.954 47.718l.328 26.378-2.416 19.871c-6.93 56.92-33.37 106.92-75.989 144.866-7.854 6.53-15.623 13.814-24.52 18.778l-23.465 13.123c-12.37 6.919-41.32 17.71-56.786 21.279l-17.771 4.09c-4.334.996-9.82 1.579-14.652 2.307l-17.213 2.574c-4.928.74-10.014 1.092-14.117 1.286z"/><path d="M733.183 785.762c.34-7.49.62-15.477 1.481-23.877l1.505-14.59 2.21-21.912 2.355-24.192 2.828-29.182 2.136-19.325 2.38-19.508 2.573-21.765 2.428-21.837 2.185-21.935 2.768-29.037 2.051-17.14c.716-6.02 1.736-11.872 2.088-16.69 4.333-2.295 10.014-2.526 15.392-.498l38.153.388c43.19 11.386 68.67 27.932 84.256 71.195 5.353 17.455 6.178 34.086 3.799 52.391l-2.294 17.59c-3.86 37.132-30.748 80.844-61.496 101.505-11.653 7.83-27.81 18.062-40.58 22.129l-18.84 6.009c-11.374 3.63-23.33 6.652-35.117 8.424l-12.285 1.845z"/><path fill="#a4562e" d="M774.577 366.558c-.182 5.972-1.25 20.284-1.894 26.305l-2.258 21.23c-.8 7.515-.716 15.818-.558 22.652-2.877 14.482-4.843 29.8-6.02 45.74l-1.652 22.298c-.352 4.82-1.372 10.67-2.088 16.691l-2.051 17.14-2.768 29.037-2.185 21.935-2.428 21.838-2.573 21.765-2.38 19.507-2.136 19.325-2.828 29.182-2.355 24.193-2.21 21.91-1.505 14.591c-.874 8.4-1.14 16.388-1.48 23.877-.146 3.084-2.064 9.432-2.343 12.188l-3.69 35.919-1.105 19.92-3.108 22.02-2.877 21.813c-3.423 25.977-16.254 48.18-30.395 68.075l-10.403 8.424c-.352.462-6.191-4.151-6.398-6.275l-1.82-17.978c-20.163 14.166-51.64 29.643-76.403 29.704l-220.72.607-73.138.376-24.18-.498c-20.527-.424-40.047-5.159-57.332-15.61-3.945-2.38-10.185-5.596-13.025-7.975L194.29 946.42l-13.341 13.887c-2.197 2.282-4.054 8.315-4.783 11.945l-6.421-1.93c-17.796-23.052-28.43-40.495-31.61-72.445l-2.67-26.742-2.877-29.206-2.222-21.826-1.978-19.422-3.06-31.549-1.978-19.459-2.416-21.85-2.719-24.205-2.221-21.777-2.319-24.387-2.743-29.133-2.027-21.79-2.902-31.585-2.1-16.86-2.415-21.984-1.979-19.435-3.18-31.415L94.362 466l-4.248-41.382-5.706-60.682c-.534-2.355 4.079-4.734 6.203-4.734l175.953-.243 175.189-.06 179.57-.037 152.21-.024c.51 3.156 1.092 6.166 1.044 7.732zm-541.589 415.21c-13.62 4.662-25.868 10.72-32.884 24.812-9.48 19.046-4.151 41.467 14.967 53.424 15.805 9.88 34.16 10.136 50.073-1.712 17.905-13.328 21.158-40.083 9.906-59.383 13.85-3.958 39.56-7.478 38.237-27.07l-4.65-68.378-9.079-172.348-4.99-79.74-3.47-53.157-91.285.255c-.304 2.561-.79 7.04-.631 9.335l2.646 38.88 16.74 217.87 2.621 37.448 5.997 75.225c.146 1.881 5.96 5.462 5.814 4.552zm187.133 33.868c0-23.974-19.446-43.409-43.433-43.409s-43.432 19.435-43.432 43.409 19.446 43.409 43.432 43.409 43.433-19.435 43.433-43.409m250.79 44.307c10.646-16.606 11.386-38.189-2.513-52.72-11.204-11.713-26.099-16.75-42.389-12.964-12.467 2.902-24.897 12.516-31.051 26.718-8.376 19.337 2.197 38.905 17.14 49.672 19.046 13.73 45.873 9.457 58.8-10.706zm-179.923 77.92c18.233-22.288 8.922-52.234-9.25-62.637-21.595-12.358-46.504-6.118-58.97 12.94-18.209 21.68-4.504 50.643 13.838 60.78 19.944 11.01 41.442 4.733 54.382-11.084m-134.79-15.915c2.756-13.51-1.044-28.138-10.051-38.091-16.557-18.294-45.327-18.027-62.321-1.19-11.022 10.925-14.882 24.193-12.673 39.78 4.686 13.667 15.283 24.362 28.94 29.582 27.093 10.354 52.488-12.37 56.105-30.08m255.439-8.084c0-23.61-19.156-42.765-42.778-42.765s-42.777 19.143-42.777 42.765 19.155 42.765 42.777 42.765 42.778-19.143 42.778-42.765"/><path fill="#773213" d="m130.791 312.552 257.514.704 240.168.024 73.003-.145 27.082-.437 40.836.073 14.93.036c8.583.012 18.014 4.224 21.365 12.017 5.098 11.897 1.82 23.538-9.371 30.141-13.96 8.243-14.118.146-19.811 6.75l-1.93 4.843c.048-1.554-.534-4.576-1.044-7.733l-152.21.025-179.57.036-175.189.06-175.953.244c-2.136 0-6.749 2.379-6.203 4.734l-4.43-4.686c-3.387-.364-11.302-.097-13.839-1.578-4.37-2.549-10.973-9.735-13.425-14.494-3.909-7.586-.704-19.616 5.754-24.97 11.434-9.48 28.793-.995 33.09-7.926 2.853 1.044 9.153 2.95 12.576 2.865l26.693-.595z"/><path fill="#793416" d="m689.69 965.697-8.17 11.495c-5.232 7.357-27.07 22.846-35.409 27.956-8.8 5.402-47.014 18.743-57.393 18.743l-323.125.109c-2.84 0-6.627-1.87-6.106-2.391l36.745-.777.862-23.89c.218-6.008 1.299-11.774 3.702-16.387l73.137-.376 220.721-.607c24.764-.073 56.24-15.538 76.402-29.704l1.821 17.978c.219 2.124 6.058 6.737 6.397 6.275l10.403-8.424z"/><path fill="#884425" d="M300.808 980.543c-2.391 4.613-3.484 10.379-3.702 16.387l-.862 23.89-36.744.777c-24.084-2.319-44.332-13.28-63.511-26.123-10.537-7.065-19.046-15.83-26.269-25.176l6.422 1.93c.728-3.63 2.598-9.663 4.783-11.945l13.34-13.887 11.981 10.063c2.84 2.38 9.08 5.596 13.025 7.975 17.286 10.464 36.805 15.186 57.332 15.611l24.181.498z"/><path fill="#bb764f" d="M275.05 798.909c-7.733-13.28-26.924-16.898-42.062-17.14.158.91-5.656-2.671-5.814-4.553l-5.997-75.224-2.622-37.449-16.74-217.868-2.646-38.881c-.157-2.295.328-6.774.632-9.335l91.284-.255 3.472 53.156 4.989 79.74 9.08 172.348 4.649 68.379c1.335 19.592-24.375 23.112-38.238 27.07z"/><path fill="#572413" d="M333.256 815.636a43.433 43.409 0 1 0 86.865 0 43.433 43.409 0 1 0-86.865 0"/><path fill="#572312" d="M670.91 859.943c-12.94 20.175-39.754 24.436-58.8 10.706-14.943-10.767-25.516-30.335-17.14-49.672 6.154-14.215 18.572-23.816 31.051-26.718 16.278-3.787 31.185 1.239 42.39 12.965 13.898 14.542 13.158 36.113 2.512 52.719z"/><path fill="#53200f" d="M490.988 937.862c-12.952 15.83-34.45 22.105-54.382 11.083-18.342-10.136-32.047-39.087-13.838-60.78 12.466-19.057 37.375-25.297 58.97-12.94 18.172 10.404 27.495 40.35 9.25 62.637"/><path fill="#562716" d="M275.05 798.909c11.252 19.313 8 46.055-9.906 59.383-15.914 11.848-34.268 11.593-50.073 1.712-19.118-11.957-24.46-34.378-14.967-53.424 7.016-14.093 19.264-20.15 32.884-24.811 15.138.23 34.33 3.86 42.062 17.14"/><path fill="#532010" d="M526.082 913.864a42.777 42.765 0 1 0 85.555 0 42.777 42.765 0 1 0-85.555 0"/><path fill="#542310" d="M356.198 921.948c-3.617 17.699-29.012 40.435-56.106 30.08-13.656-5.22-24.253-15.914-28.939-29.582-2.21-15.586 1.639-28.854 12.673-39.779 16.994-16.837 45.751-17.104 62.321 1.19 9.02 9.953 12.819 24.58 10.051 38.091"/><path fill="#f9deba" d="M769.394 288.25v20.272l-.013 4.236-40.835-.072c8.012-25.08-8.594-52.695-30.505-68.804-16.217-11.932-36.72-14.991-56.494-12.745-51.153 19.252-113.96 27.433-167.505 16.06-6.628-1.409-12.66-7.539-13.437-13.05-.717-5.086 3.799-15.878 9.42-16.084 48.433-1.772 85.239-.425 130.043-21.4 8.097-3.788 15.732-11.763 21.231-19.63 3.326-4.746 2.282-17.88-1.14-22.93-12.771-18.84-37.134-25.079-58.547-28.854l-18.62-3.277c-15.709-2.768 8.18-39.173-48.496-72.955l-12.163-7.247c-1.566-.935-5.693-1.542-8.351-1.772 5.547 21.449.485 41.248-13.997 58.17-5.875 6.858-12.26 13.886-20.077 18.972-75.795 49.406-118.913 5.475-171.244 49.357-36.04 30.226-14.578 59.177-30.626 60.282l-36.307 2.476c-32.982 2.246-65.15 29.449-70.49 63.9l-.486 19.41-26.694.594c-3.41.073-9.723-1.82-12.576-2.865-8.558-52.658 38.505-104.14 90.654-113.377l21.376-3.787 4.965-14.07c15.21-43.129 63.013-70.793 109.517-72.007l36.587-.96c18.317-.473 36.258-7.938 52.197-16.678 27.482-15.076 46.734-46.37 29.473-76.803-1.93-3.399-3.035-7.465-4.321-12.442 23.294-1.65 62.03 10.56 81.816 20.721 18.548 9.517 34.11 23.792 46.115 40.787 12.649 17.905 8.68 29.218 17.237 31.452l30.445 7.914c14.967 3.885 27.3 12.467 38.662 22.069 19.252 16.254 29.303 41.065 23.683 66.108-2.804 12.503 30.724 3.18 67.395 36.902 18.257 16.8 29.352 38.675 32.083 62.151z"/><path fill="#fcfbed" d="m728.558 312.698-27.082.437-73.003.145-240.168-.024-257.514-.704.486-19.41c5.34-34.462 37.497-61.653 70.49-63.9l36.308-2.475c16.047-1.093-5.414-30.044 30.626-60.282 52.33-43.894 95.436.048 171.243-49.357 7.818-5.098 14.203-12.114 20.078-18.973 14.482-16.91 19.531-36.708 13.996-58.17 2.658.231 6.774.838 8.352 1.773l12.163 7.247c56.676 33.794 32.787 70.187 48.495 72.954l18.62 3.278c21.414 3.775 45.776 10.014 58.546 28.854 3.424 5.05 4.468 18.184 1.142 22.93-5.5 7.866-13.135 15.83-21.231 19.629-44.805 20.976-81.61 19.629-130.044 21.4-5.62.207-10.148 11.01-9.42 16.085.777 5.51 6.81 11.641 13.438 13.05 53.544 11.373 116.35 3.204 167.504-16.06 19.787-2.246 40.277.813 56.495 12.745 21.91 16.109 38.516 43.724 30.505 68.803z"/></svg>