<svg xmlns="http://www.w3.org/2000/svg" viewBox="0 0 1024 1024"><path fill="#f1e6d7" d="m736.99 818.159 6.51-6.511c-1.339 4.94-3.984 4.48-6.51 6.51"/><path fill="#f6f2e6" d="m275.012 317.141-6.997 19.021c-33.81 11.162-67.601 22.375-100.37 36.284C112.044 396.04 21.659 437.709 31.062 510.66c1.212 9.421 6.016 14.481 9.703 21.206C90.76 622.814 253.338 655.548 348.15 668.56c110.413 15.164 230.793 17.092 341.607-.11 76.305-11.845 260.992-58.65 291.234-136.585 2.287.256 2.987-1.16 3.251-3.252.137-1.05-.042-2.176 0-3.25 17.229-17.64 9.848-49.528-.47-69.48-10.196-19.711-38.348-41.343-56.89-53.717-8.67-5.785-20.78-12.697-30.473-16.7-21.231-17.39-48.171-23.005-68.233-37.503-12.04-8.696-8.738-12.032-9.847-24.312 6.05 3.516-.99 7.373 7.893 9.925 70.827 20.334 187.281 66.747 196.992 151.193 2.987 25.967-2.995 40.738-9.685 63.36l-9.797 8.107c-69 80.179-177.868 107.469-277.691 132.224-40.534 52.753-91.196 93.679-152.696 120.593-8.43 3.686-32.563 14.617-39.688 15.616-24.064 3.362-54.827-2.475-79.71 0-44.194-3.78-83.712-7.825-127.761-17.016-10.906-2.278-22.571-7.048-33.314-8.985-10.368-1.869-8.431 1.698-8.099 9.736-2.773-4.181-3.84-7.518-6.306-11.596C144.53 765.824 31.701 662.665 2.347 526.362c-12.425-57.66 26.47-101.965 71.108-132.634 46.208-31.744 110.276-56.021 164.83-69.41 12.032-2.953 25.19-2.296 36.736-7.185z"/><path fill="#f1e6d7" d="M1013.53 548.13c-37.044 125.287-137.532 214.332-262.136 250.351-8.892 2.569-1.852 6.392-7.893 9.924.46-5.563 2.346-10.82-4.932-9.83-13.108 1.783-31.292 11.375-45.611 12.97-78.524 13.73-160.103 19.883-239.002 13.133 24.883-2.474 55.646 3.363 79.71 0 7.134-.998 31.258-11.93 39.689-15.616 61.49-26.905 112.162-67.84 152.695-120.593 99.823-24.755 208.7-52.044 277.692-132.224l9.796-8.106z"/><path fill="#e9dbca" d="M453.948 824.661c78.907 6.75 160.478.598 239.001-13.132 14.32-1.596 32.504-11.188 45.611-12.971 7.279-.99 5.393 4.275 4.932 9.83-.094 1.127.24 2.364 0 3.251l-6.51 6.511c-10.096 8.107-20.233 11-32.444 14.729-93.824 28.689-199.126 28.066-294.622 14.652-29.312-4.113-109.193-15.045-125.15-39.143-.333-8.03-2.27-11.605 8.098-9.736 10.752 1.937 22.417 6.707 33.314 8.985 44.04 9.19 83.559 13.236 127.761 17.016z"/><path fill="#fbce78" d="M275.012 317.141c8.687-14.276 23.288-22.997 38.912-27.784 32.632-9.993 74.24-3.456 102.153-21.47 36.54-23.586-1.041-46.131-4.386-72.798-1.502-11.99 3.806-16.973 6.596-27.537l9.378.12c9.173 21.887 42.42 35.26 64.486 41.3 46.362 12.707 91.247 1.153 135.228 11.17 11.298 2.578 28.664 8.833 38.025 15.651-4.574-1.323-13.688-.444-19.525-3.251-6.971 19.328 15.736 30.703 26.095 43.861 35.542 45.133 8.483 86.05-27.648 118.87l-37.478 25.958c13.9-2.722 29.355-8.926 42.35-14.575 11.316-4.915 29.432-12.587 38.904-19.66 9.379-7.007 34.185-33.298 37.667-43.666 3.78-11.264 4.061-25.608.878-37.017-5.802-20.847-25.497-44.297-41.728-57.498 6.366-.717 8.568 5.7 14.567 6.588 14.652 2.167 33.408.076 48.828 3.217 32.102 6.545 53.768 22.17 66.739 52.01l.358 7.74 2.893 2.023c.077 1.075-.094 2.176 0 3.25 1.11 12.289-2.193 15.617 9.847 24.312 20.062 14.498 47.002 20.113 68.233 37.504 12.826 10.505 10.65 12.851 17.929 22.742 11.75 15.957 28.228 28.987 40.635 45.585-12.646-8.653-3.729 7.569-3.31 11.434 8.507 79.838-123.47 129.272-184.423 147.311-6.366 1.886-14.49 2.304-20.48 3.926l6.272-17.51c-6.357-17.836-41.42-1.528-45.082 9.684-2.662 8.15 7.928 16.248 16.043 14.328-54.443 13.423-114.321 15.07-170.735 19.575-44.843 3.576-94.515-2.645-140.023-6.493-89.6-7.578-186.94-23.706-267.341-67.755-38.52-21.103-76.954-52.506-69.325-101.487-5.743 5.402-18.5 14.148-22.767 19.524 20.565-27.98 45.833-53.99 74.974-73.054 7.142-4.676 18.167-7.756 24.277-14.762 5.01-5.743 5.957-19.636 14.618-26.053 32.768-13.909 66.56-25.122 100.369-36.283l6.997-19.021zm152.918 16.256c33.928 11.247 71.569 9.148 102.033-10.188 13.952-8.867 25.523-18.262 21.18-36.574-8.33-11.213-20.976-21.419-35.371-21.538 2.602 17.314-3.123 29.516-16.418 40.516-14.38 11.895-37.504 21.564-56.099 21.982l-15.317 5.81zm185.446-32.529c-2.005 9.105-13.747 19.926-21.094 26.095-37.556 31.548-101.487 48.999-149.581 52.13-37.607 2.45-134.28 4.216-162.867-19.6-5.769-4.805-14.874-25.643-22.767-13.134-9.208 14.584 21.836 38.759 33.1 45.09 45.483 25.592 144.086 28.724 194.62 19.969 38.972-6.75 121.796-34.39 139.827-71.646 3.78-7.817 7.33-17.57 3.388-25.89-1.442-3.038-11.443-17.255-14.617-13.014zm71.56 214.725c13.859-28.843-24.03-21.487-37.572-9.925l-1.348 11.435c1.818 6.485 19.95 6.059 25.907 5l-4.736 12.869c17.306.879 34.398.29 51.234-3.79 41.976-10.162 93.116-37.836 117.658-74.29 9.122-13.56 18.867-33.81 18.244-50.33-.444-11.708-11.98-24.363-19.712-32.665-28.663-1.622-16.196 17.766-20.062 35.43-9.566 43.674-90.846 91.11-129.604 106.266zm83.235-139.666c-13.073 2.245-47.062 39.68-60.604 50.057-6.656 5.094-15.744 11.648-22.673 16.367-3.627 2.466-20.796 5.103-14.677 14.728 4.812 7.578 14.498 4.472 22.17 2.526 20.539-5.214 57.087-27.059 70.68-43.178 1.972-2.338 12.255-15.727 12.545-16.734 1.86-6.349 2.133-25.412-7.45-23.766zm-510.84 26.019c-2.748.785-5.615 4.744-5.273 7.91-.342 4.983 2.841 13.005 6.656 16.29 1.903 1.639 25.113 11.213 27.69 11.443 12.348 1.101 14.61-7.364 6.537-16.384-1.715-1.911-19.857-17.314-21.095-17.945-4.027-2.048-10.333-2.518-14.515-1.314m-57.489 44.996c4.352-8.721 3.644-16.009-4.864-22.11-18.526-5.376-36.6 14.933-21.94 21.93 10.412 4.959 16.274 2.68 26.804.18m-59.563 3.865c-2.875.828-5.717 4.557-5.299 7.834-1.1 14.353 19.525 24.184 31.173 14.78 7.526-18.705-8.969-27.486-25.874-22.622zm462.388.41c-9.652 1.391-25.344 6.784-33.86 11.69-3.593 2.066-8.295 3.457-7.493 8.756 1.212 4.07 17.621 7.142 21.752 7.492 3.567.299 7.594-2.577 12.28-2.748 12.663-.477 28.859 4.096 36.018-9.506 8.9-16.913-17.408-17.305-28.689-15.675zm-188.877 3.08c-6.554 1.46-17.229 9.208-14.916 17.067 9.634 18.313 36.53 14.481 38.579-5.888-6.963-9.105-11.443-13.892-23.663-11.178m-28.169 28.758c7.339-17.408-22.63-26.812-26.018-14.626-3.481 12.51 17.34 16.392 26.018 14.626m84.591 16.282c-28.083-10.932-57.327-4.48-86.357-6.375-17.545-1.143-36.984-7.885-55.108-6.707l-40.713-9.702c-1.74 9.642 2.705 5.051 7.416 7.116 42.572 18.586 108.535 33.775 153.693 25.498 8.687-1.587 16.615 2.244 21.07-9.83m-253.764 19.515 19.516-11.409c3.131-10.846-26.718-8.866-34.082-8.047-8.781.982-23.194 4.412-24.585 14.498-3.157 22.93 29.048 26.599 45.662 24.465 1.681-9.07-1.656-12.868-6.511-19.507m581.282-5.965c-11.63 2.484-16.077 9.532-5.35 17.263 11.332 8.167 32.435 7.663 42.206-3.191-4.165-15.104-23.646-16.896-36.856-14.072M276.924 538.65c-4.378 1.263-6.238 6.4-4.89 10.828 3.243 10.71 33.442 22.161 41.907 9.916 4.992-17.937-24.354-24.397-37.017-20.744m124.894 6.306c-11.102-3.243-22.895-7.672-30.917 3.072l-1.22 11.144c11.725 18.466 35.183 5.325 32.137-14.216m392.576.375c-3.226.777-17.204 7.143-20.122 9.174-22.28 15.505 8.73 30.685 23.023 19.771 9.685-7.39 17.74-19.643 6.23-29.26-3.09-.547-6.102-.41-9.14.315zm-181.248 16.017c-21-4.795-38.69 12.075-22.725 30.865l20.898 1.05c15.642-8.883 5.812-19.209 1.827-31.915m103.74 28.519c1.348-1.4 4.897-9.959 2.355-12.493-14.61-14.763-35.456-11.196-47.224 5.12 3.14 13.252 22.187 17.348 33.596 13.969.623-.188 10.82-6.127 11.272-6.596m-363.794 3.814c-1.11 25.592 52.881 34.517 44.083 3.08-13.516-8.388-29.286-8.046-44.083-3.08"/><path fill="#f2bb57" d="M665.42 235.802c7.118 2.048 13.85 8.396 19.525 13.013 16.23 13.21 35.925 36.66 41.728 57.498 3.174 11.409 2.901 25.762-.879 37.017-3.481 10.377-28.288 36.66-37.666 43.665-9.472 7.074-27.588 14.737-38.903 19.661-12.997 5.65-28.45 11.853-42.351 14.575l37.478-25.958c36.13-32.82 63.19-73.737 27.648-118.87-10.36-13.158-33.067-24.533-26.095-43.861 5.837 2.807 14.95 1.937 19.524 3.251z"/><path fill="#f6f2e6" d="m818.33 320.393-2.893-2.023-.359-7.74c1.485 3.405 2.688 2.142 3.252 9.763"/><path fill="#eeb659" d="M954.965 453.777c15.915 21.3 30.388 44.228 29.278 71.578-.042 1.075.137 2.201 0 3.25-2.432-.136-2.568 1.494-3.251 3.252-30.242 77.935-214.93 124.74-291.234 136.585-110.814 17.203-231.194 15.274-341.607.11-94.813-13.021-257.382-45.747-307.387-136.695-2.082-14.31 4.087-34.295 13.013-45.55 4.267-5.377 17.024-14.124 22.767-19.525-7.637 48.981 30.797 80.384 69.325 101.487 80.4 44.049 177.74 60.177 267.34 67.754 45.509 3.849 95.181 10.07 140.024 6.494 56.422-4.505 116.292-6.152 170.735-19.575 7.68-1.895 15.206-4.472 22.775-6.511 5.99-1.613 14.115-2.04 20.48-3.925 60.946-18.04 192.922-67.473 184.423-147.311-.41-3.874-9.327-20.088 3.31-11.435z"/><path fill="#efb753" d="M613.376 300.868c3.174-4.24 13.175 9.976 14.618 13.014 3.95 8.32.4 18.073-3.388 25.89-18.023 37.256-100.856 64.896-139.827 71.646-50.535 8.755-149.137 5.623-194.62-19.968-11.264-6.34-42.308-30.507-33.1-45.09 7.892-12.51 17.006 8.328 22.766 13.132 28.587 23.817 125.26 22.05 162.867 19.601 48.094-3.131 112.026-20.582 149.581-52.13 7.347-6.178 19.098-16.99 21.094-26.095z"/><path fill="#f0b95c" d="M671.923 522.103c3.37-.605 8.9-4.898 13.014-6.51 38.75-15.156 120.038-62.601 129.604-106.266 3.874-17.664-8.602-37.052 20.062-35.43 7.74 8.311 19.276 20.966 19.712 32.665.623 16.512-9.122 36.77-18.245 50.33-24.541 36.454-75.682 64.128-117.657 74.29-16.836 4.08-33.92 4.669-51.234 3.79l4.736-12.869z"/><path fill="#e1d3c2" d="M53.786 486.315c-8.926 11.255-15.104 31.24-13.014 45.55-3.695-6.715-8.49-11.784-9.702-21.205-9.404-72.951 80.99-114.62 136.584-138.214-8.66 6.417-9.6 20.31-14.617 26.052-6.11 7.006-17.135 10.087-24.278 14.763-29.15 19.063-54.408 45.073-74.973 73.054"/><path fill="#f2bb56" d="m427.93 333.397 15.317-5.81c18.594-.41 41.72-10.079 56.098-21.983 13.295-11 19.02-23.202 16.418-40.516 14.404.12 27.042 10.334 35.37 21.538 4.353 18.313-7.218 27.716-21.179 36.574-30.464 19.345-68.104 21.444-102.033 10.189z"/><path fill="#fcdd99" d="M768.17 375.927c9.592-1.646 9.31 17.417 7.45 23.766-.29 1.007-10.573 14.396-12.544 16.734-13.602 16.12-50.15 37.956-70.681 43.178-7.672 1.946-17.357 5.052-22.17-2.526-6.118-9.625 11.05-12.262 14.677-14.728 6.93-4.719 16.017-11.273 22.673-16.367 13.551-10.377 47.531-47.812 60.604-50.057z"/><path fill="#dccebe" d="M984.252 525.355c1.11-27.35-13.363-50.27-29.278-71.578-12.4-16.597-28.877-29.628-40.636-45.585-7.279-9.882-5.103-12.237-17.928-22.741 9.693 4.002 21.802 10.905 30.472 16.7 18.543 12.381 46.695 34.005 56.892 53.717 10.317 19.95 17.698 51.831.47 69.478z"/><path fill="#f2be61" d="M470.212 499.337c-4.454 12.074-12.382 8.243-21.069 9.83-45.158 8.277-111.12-6.912-153.693-25.498-4.72-2.056-9.157 2.535-7.416-7.116l40.713 9.702c18.124-1.178 37.563 5.564 55.108 6.707 29.03 1.895 58.274-4.557 86.357 6.375"/><path fill="#fce6ba" d="M216.448 518.852c4.864 6.64 8.192 10.437 6.51 19.507-16.613 2.134-48.818-1.536-45.66-24.465 1.39-10.086 15.794-13.516 24.584-14.498 7.364-.819 37.213-2.799 34.082 8.047z"/><path fill="#fae4b5" d="M602.667 451.217c11.28-1.63 37.589-1.237 28.689 15.676-7.16 13.61-23.356 9.037-36.02 9.506-4.684.18-8.712 3.055-12.279 2.748-4.13-.35-20.54-3.422-21.751-7.493-.803-5.299 3.9-6.69 7.492-8.755 8.516-4.898 24.209-10.3 33.86-11.69z"/><path fill="#f9e7ba" d="M746.752 616.448c-7.56 2.04-15.087 4.617-22.775 6.51-8.107 1.912-18.706-6.177-16.043-14.327 3.66-11.212 38.724-27.52 45.081-9.685l-6.272 17.51zm-29.867-26.581c-.452.469-10.65 6.408-11.272 6.596-11.41 3.38-30.456-.717-33.596-13.97 11.776-16.315 32.614-19.873 47.224-5.12 2.542 2.535-1.007 11.086-2.356 12.494"/><path fill="#f8e7bf" d="M257.331 401.946c4.182-1.204 10.488-.734 14.515 1.314 1.238.631 19.38 16.025 21.095 17.945 8.072 9.02 5.802 17.485-6.537 16.384-2.568-.23-25.787-9.804-27.69-11.443-3.815-3.285-6.998-11.307-6.656-16.29-.342-3.166 2.534-7.125 5.273-7.91"/><path fill="#f8e6bb" d="M794.394 545.331c3.046-.725 6.05-.87 9.139-.316 11.511 9.618 3.456 21.871-6.23 29.261-14.293 10.906-45.303-4.266-23.022-19.771 2.918-2.031 16.887-8.397 20.121-9.174z"/><path fill="#f8e1b7" d="M613.146 561.348c3.985 12.706 13.824 23.032-1.827 31.915l-20.898-1.05c-15.966-18.79 1.724-35.66 22.725-30.865"/><path fill="#f8e9bd" d="M353.092 593.681c14.797-4.966 30.567-5.3 44.083 3.08 8.798 31.437-45.192 22.503-44.083-3.08"/><path fill="#f5e3b7" d="M684.937 515.593c-4.114 1.604-9.643 5.905-13.014 6.51-5.956 1.067-24.09 1.485-25.907-5l1.348-11.435c13.543-11.562 51.43-18.918 37.573 9.925"/><path fill="#fae7be" d="M797.73 512.887c13.21-2.824 32.691-1.032 36.856 14.072-9.78 10.854-30.883 11.35-42.206 3.191-10.727-7.73-6.28-14.78 5.35-17.263"/><path fill="#fae8bc" d="M413.79 454.298c12.22-2.723 16.7 2.065 23.663 11.178-2.057 20.378-28.945 24.2-38.58 5.888-2.312-7.859 8.363-15.607 14.917-17.066"/><path fill="#f8eabd" d="M276.924 538.65c12.663-3.653 42 2.816 37.017 20.744-8.465 12.245-38.664.794-41.907-9.916-1.34-4.428.512-9.565 4.89-10.828"/><path fill="#f9e6b8" d="M140.28 450.807c16.904-4.864 33.399 3.917 25.873 22.622-11.648 9.404-32.274-.426-31.173-14.78-.418-3.276 2.424-7.005 5.3-7.833z"/><path fill="#f9dfaf" d="M199.842 446.942c-10.539 2.492-16.392 4.779-26.803-.18-14.669-6.988 3.413-27.297 21.94-21.93 8.507 6.101 9.215 13.389 4.863 22.11"/><path fill="#f8e7b0" d="M401.818 544.956c3.046 19.541-20.412 32.682-32.137 14.216l1.22-11.144c8.022-10.744 19.815-6.315 30.917-3.072"/><path fill="#fbe1af" d="M385.621 483.055c-8.678 1.766-29.5-2.116-26.018-14.626 3.388-12.186 33.357-2.782 26.018 14.626"/><path fill="#dccebe" d="M980.992 531.857c.683-1.758.82-3.396 3.251-3.251-.264 2.09-.964 3.507-3.251 3.251"/></svg>