<svg xmlns="http://www.w3.org/2000/svg" viewBox="0 0 1024 1024"><path fill="#fae1c4" d="m283.528 419.951-6.954 83.558 51.797-27.69c20.676 12.714 27.64 37.034 40.482 54.16 1.621 2.16 8.405.598 10.59 2.612 5.162 4.753 21.794 45.773 33.015 54.656 19.183 2.09 53.3-33.502 76.672-35.302 24.184-1.86 53.547 31.487 75.238 27.409 22.895-5.052 45.108-36.43 60.468-44.579 6.818-3.618 16.213-1.945 19.797-4.744 2.893-2.261-1.178-16.393 25.404-19.541 36.608-4.344 42.231 19.276 73.096 20.89 9.122-28.81-4.676-58.804 0-90.54 8.474 22.469 5.717 28.382 7.1 52.045.683 11.682 13.337 22.042.776 36.31l2.142 9.327c19.635 17.587 36.472 15.12 59.623 6.775-25.498 30.225-28.331 96.162-45.15 139.392-79.847 205.175-299.409 277.964-498.116 191.488-29.483-12.834-50.91-36.446-76.672-55.638-10.248-7.637-14.797-21.46-13.764 3.311-62.413-107.818-67.857-189.661-62.677-313.369l13.926-17.416c23.117 22.92 60.578 40.055 69.922 72.925 27.657 3.618 43.742-29.132 68.71-35.25 3.252-35.747-5.649-72.09 8.977-105.788 1.553-3.576 5.283-4.276 5.598-4.984z"/><path fill="#f8f6ec" d="M116.403 510.481c.393-9.446-2.645-20.045 3.294-28.262l24.175-10.42c2.005-15.59-1.946-31.795 1.485-47.257 13.457-60.587 44.347-132.898 70.067-187.588C243.43 177.39 293.87 100.668 346.496 61.62c63.249-46.925 166.306-80.947 243.72-49.323 9.992 4.079 18.696 14.933 25.062 16.725 9.114 2.569 27.051-1.16 29.73 1.605 1.58 1.621 1.87 11.033 7.151 17.083 10.095 11.572 38.486 23.168 47.761 32.47 8.619 8.644 25.49 31.172 36.566 43.716 29.508 33.4 78.242 122.24 95.752 168.678 21.794 57.83 39.629 121.472 43.469 182.98l13.679.128c-19.234 28.962-54.716 43.69-76.604 69.64-23.15 8.346-39.987 10.812-59.622-6.775l-2.142-9.327c12.561-14.267-.094-24.635-.777-36.309-1.373-23.663 1.374-29.577-7.1-52.045-7.483-19.848-7.645-46.148-27.852-55.714-4.65-10.974-5.888-16.35-13.927-27.853-18.141-25.95-33.69-32.682-54.271-50.61-2.236-1.946-.495-9.174-2.492-10.693-3.661-2.799-10.496-.708-14.635-2.799-79.104-40.064-192.836-40.43-266.487 15.223-37.743 28.519-61.15 69.197-79.949 111.557-.315.708-4.045 1.416-5.598 4.983-14.626 33.698-5.717 70.05-8.977 105.788-24.968 6.118-41.053 38.869-68.71 35.25-9.344-32.87-46.805-50.004-69.922-72.925l-13.926 17.417z"/><path fill="#f2d1a9" d="m889.377 475.665 6.178 4.079c.512 9.685 5.974 18.048 7.672 27.34 15.82 86.495-1.485 201.285-38.11 282.061-4.523 9.984-36.864 72.38-40.004 75.264-34.04 31.394-66.714 75.418-109.986 102.042C522.93 1084.689 288.4 1012.71 179.08 823.85c-1.032-24.773 3.508-10.949 13.765-3.312 25.762 19.192 47.189 42.812 76.672 55.638 198.707 86.476 418.269 13.687 498.115-191.488 16.828-43.23 19.653-109.167 45.15-139.392 21.888-25.941 57.361-40.678 76.604-69.64z"/><path fill="#fde45f" d="M283.528 419.951c18.79-42.368 42.206-83.038 79.949-111.556 73.651-55.654 187.383-55.288 266.487-15.224 4.139 2.1 10.974 0 14.635 2.8 1.997 1.527.256 8.746 2.492 10.692 20.573 17.928 36.121 24.66 54.271 50.61l-55.705-34.807c-4.053 19.15 11.503 26.599 17.672 41.498 20.028 48.367 4.549 91.059-3.754 139.545l76.586 13.927c4.933-48.273-2.304-88.423-20.88-132.3 20.206 9.565 20.368 35.856 27.852 55.713-4.676 31.736 9.122 61.73 0 90.539-30.865-1.613-36.488-25.233-73.096-20.89-26.59 3.157-22.511 17.289-25.404 19.541-3.593 2.8-12.98 1.127-19.797 4.745-15.369 8.15-37.573 39.526-60.468 44.578-21.691 4.079-51.054-29.27-75.238-27.409-23.373 1.792-57.48 37.385-76.672 35.302-11.221-8.883-27.853-49.902-33.015-54.656-2.185-2.005-8.969-.443-10.59-2.61-12.843-17.127-19.806-41.447-40.482-54.162l-51.797 27.69 6.954-83.557zm84.804-1.28c4.045 3.968 22.93 9.011 29.824 8.516 41.396-2.952 103.399-73.233 55.117-103.842-34.585-19.294-108.544 41.566-99.456 71.194.41 1.348 13.517 23.142 14.524 24.132z"/><path fill="#fbd433" d="M701.354 357.282c8.047 11.503 9.276 16.88 13.926 27.853 18.577 43.887 25.814 84.028 20.881 132.3l-76.586-13.926c8.294-48.486 23.782-91.17 3.754-139.545-6.17-14.9-21.734-22.349-17.672-41.498l55.705 34.808z"/><path fill="#fef1bb" d="M368.332 418.671c-1.007-.99-14.105-22.784-14.523-24.132-9.08-29.636 64.87-90.488 99.456-71.194 48.29 30.61-13.722 100.89-55.117 103.842-6.895.495-25.78-4.548-29.824-8.516z"/></svg>