<svg xmlns="http://www.w3.org/2000/svg" viewBox="0 0 1024 1024"><path fill="#fcfbf9" d="M1015.714 362.923c-1.604.537-3.558 1.169-3.712 2.602-.162 1.502-.58 4.702-.742 5.76-1.989.982-5.948 2.526-7.689 3.772-6.016 4.3-16.077 14.464-21.017 20.54-2.492 1.118-7.459 3.388-10.582 5.086l-13.56 7.407c-22.271 12.168-45.883 22.946-70.945 32.204l-47.062 17.383c-9.975 67.96-38.058 132.266-80.452 184.601-59.35 73.276-152.602 124.126-245.862 138.155l-36.881 5.547a311.9 311.9 0 0 1-81.733 1.485l-41.762-4.745-24.465-3.831-20.992-3.422c-5.35 2.491-8.328 3.396-11.187 2.491l-12.092-3.797c-39.262-12.348-128.708-63.744-152.482-98.68-1.57-3.686-4.318-9.087-7.125-13.286l-26.735-39.97-14.14-22.682-12.552-20.625c-35.422-58.188-24.696-68.48-35.081-128.793l-3.66-21.248-4.993-32.384-3.874-29.363c7.313 2.858 8.235 3.055 9.754 3.985l20.07 12.236c2.364 1.443 7.066 4.95 10.095 6.452l18.475 9.156c.938.46 2.816.563 4.309.768l10.897 6.801 18.193 5c2.688 4.924 8.84 7.228 16.154 9.225l29.056 7.928 4.77-.786c1.229.88 8.328 4.387 11.179 4.882l20.88 3.626 20.745 5.103c1.468.964 8.679 4.088 11.998 4.702l52.215 9.643c5.624 1.04 13.1 1.519 17.758 1.68.478.658 6.008 2.825 8.32 3.039l53.154 4.77 37.095 4.659 40.448-1.1 9.07.724 32.743.274 69.308.119c46.626 2.458 59.793-.64 103.253-8.593 2.885-.53 8.79.87 11.7.538l17.604-1.997 24.234-6.29c29.85-1.791 59.589-7.62 90.488-15.914l21.461-5.76c2.884-.777 7.817-4.01 12.792-5.069l18.585-3.96 41.2-14.13 22.4-11.222c3.933-1.971 8.439-4.65 10.88-6.297l22.425-9.088c3.149-2.142 8.038-5.573 10.47-7.416l15.471-11.767c1.528-1.16 3.9-3.32 4.839-4.992l4.403-7.8 15.94-15.215 10.496 14.567c2.142 2.97 5.188 9.881 6.05 13.312"/><path fill="#e0e1e1" d="M1000.252 462.029c-38.23 146.705-141.509 265.54-284.595 319.42-2.842 1.075-8.338 2.679-8.79 5.495l-33.578 10.394c-106.991 33.117-281.507 30.668-380.493-15.514-2.483-1.16-5.99-5.419-7.808-7.654l12.091 3.797c2.86.896 5.837 0 11.188-2.492l20.992 3.422 24.465 3.832 41.762 4.744a311.9 311.9 0 0 0 81.732-1.485l36.881-5.546c93.261-14.03 186.513-64.88 245.863-138.155 42.393-52.335 70.476-116.634 80.452-184.602l47.061-17.382c25.063-9.259 48.674-20.036 70.946-32.205-1.194 2.535-4.13 12.322-2.602 15.65 2.867 6.255 18.227 13.176 23.944 10.206l29.688-15.42-15.31 20.404 6.12 23.09z"/><path fill="#c5c5c6" d="M706.859 786.953c-.896 5.606-4.42 11.434-11.4 17.024-20.728 16.588 12.714 10.615-41.285 44.288-64.623 20.394-138.872 20.864-209.673 15.59-29.081-2.168-138.274-19.712-146.62-44.518-3.908-11.606-4.582-27.333-5.102-37.496 98.995 46.182 273.502 48.632 380.492 15.514l33.58-10.394z"/><path fill="#959597" d="m715.648 781.449-6.451 23.73c-2.236 8.21 2.952 26.753-35.268 37.513l-19.747 5.564c53.99-33.673 20.549-27.7 41.285-44.288 6.971-5.58 10.496-11.418 11.4-17.024.452-2.816 5.94-4.429 8.79-5.495z"/><path fill="#e0e1e1" d="M1011.26 371.285c.162-1.058.58-4.258.742-5.76.154-1.433 2.108-2.065 3.712-2.602.657 2.61-2.04 7.176-4.454 8.362"/><path fill="#d3d3d2" d="m572.058 160.717-40.662 1.954c-2.457.12-6.895 7.56-5.598 9.694 8.807 14.421 30.217.188 38.264 9.037l14.771 16.264c3.055 3.362 4.787 8.644 5.93 16.555l16.385 2.73 25.617 4.267c14.575 2.432 15.334-5.803 38.912 3.832l29.098 11.895c4.6 1.877 15.258 3.08 20.89 3.797l33.323 4.207c7.45.939 16.554 2.381 24.055 3.857l33.622 6.597c44.51 8.73 14.523 12.04 53.333 14.071l12.365 8.132 33.587 10.309c11.247 3.456 21.342 10.828 32.043 18.278 20.215 14.063 43.997 12.083 44.578 27.068l.657 16.998-4.403 7.8-4.933.025c-14.344-47.266-107.605-81.254-152.61-91.469l-40.559-9.207-20.369-4.241-23.86-4.233-25.377-3.916-28.382-4.088-36.514-4.915c3.507-9.566-89.651-3.064-100.267-2.185-38.34 3.15-27.665-.708-68.915-1.903-24.866-.716-50.918-2.048-77.56.854l-36.94 4.028-33.007 4.113-24.61 3.336c-59.017 8.004-109.833 20.37-165.445 39.578-28.885 9.984-114.27 51.063-105.403 87.287-1.52-.93-2.44-1.126-9.754-3.985l3.874 29.363 4.992 32.384 3.66 21.248c10.386 60.314-.34 70.605 35.081 128.794l12.553 20.625 14.14 22.682 26.735 39.97c2.807 4.198 5.555 9.6 7.125 13.286-1.783-.862-9.882-6.664-11.853-9.643l-32.572-49.152-30.583-47.71c-26.65-41.565-21.035-76.86-26.974-115.336l-3.831-24.832-3.934-25.583c-4.173-27.153.75-40.03-9.174-52.582-60.21-76.1 103.083-135.62 154.206-149.29 136.653-36.532 258.79-44.195 400-44.059l4.284 3.397z"/><path fill="#dbdcdd" d="M572.058 160.717c5.777-.273 14.575.691 20.54.75l3.344 4.762 33.63-.981c51.79-1.519 103.117 10.342 156.237 21.24 61.96 12.706 119.868 31.974 173.116 65.322 59.05 36.984 38.724 68.83 51.592 86.57l13.048 17.99-10.189 58.913c-2.748 15.88-9.43 32.538-13.133 46.746l-6.118-23.091 15.309-20.404-29.688 15.42c-5.717 2.97-21.077-3.95-23.944-10.206-1.528-3.336 1.408-13.115 2.602-15.65l13.56-7.407c3.114-1.706 8.09-3.968 10.581-5.086 6.87-3.089 16.751-13.747 21.018-20.54 1.74-1.245 5.7-2.79 7.688-3.771 2.415-1.186 5.112-5.76 4.455-8.363-.862-3.439-3.909-10.342-6.05-13.312l-10.497-14.566-15.94 15.215-.657-16.999c-.58-14.984-24.363-13.004-44.578-27.067-10.7-7.45-20.796-14.823-32.043-18.279l-33.587-10.308-12.365-8.132c-38.81-2.031-8.823-5.342-53.333-14.072l-33.621-6.596c-7.501-1.468-16.598-2.91-24.056-3.857l-33.322-4.207c-5.641-.717-16.29-1.912-20.89-3.797l-29.099-11.896c-23.577-9.634-24.328-1.4-38.912-3.831l-25.617-4.267-16.384-2.73c-1.143-7.911-2.876-13.193-5.93-16.555l-14.772-16.265c-8.047-8.857-29.457 5.385-38.263-9.037-1.306-2.133 3.132-9.574 5.598-9.694l40.661-1.954z"/><path fill="#dbdcdd" d="m973.995 363.042-.086-4.966 4.933-.026c-.948 1.673-3.311 3.832-4.839 4.992z"/><path fill="#e0e1e1" d="M982.554 395.605c4.94-6.075 15.001-16.239 21.017-20.54-4.266 6.793-14.148 17.451-21.017 20.54"/><path fill="#fade89" d="m646.238 236.006-79.19.444c15.523 11.964 29.935 13.705 41.618 20.455 20.847 12.049 44.68 31.189 63.334 50.5l10.103-2.714c4.054-1.092 10.377-4.94 13.534-7.62l7.97.128-10.555 12.766c-2.944 3.567 6.22 12.194 10.445 11.801-8.568 5.539-18.697 10.053-29.884 15.719l-16.12 8.158c-1.246.631-4.454 6.007-3.729 7.21l2.637 4.395 23.398-14.285 7.604-4.642c-12.536 38.776 36.266-5.111 57.566 4.386l-15.66 5.59c-21.264 7.586-43.826 18.355-60.961 32.494l-28.45 23.476 14.003 8.038c36.557-47.215 99.968-71.688 157.465-54.059 31.207 9.566 48.606 23.57 73.08 47.616l7.415-1.98.478 4.959-41.199 14.13-18.585 3.96c-4.975 1.058-9.916 4.301-12.792 5.069-.4 1.212 3.926-6.29 2.697-6.767l-12.33-4.787c-11.717-4.548-37.257-9.754-51.039-6.759l-14.208 3.09c-22.05 4.795-42 19.063-42.137 11.86l-.214-11.357c28.578-30.592 89.916-38.622 124.4-14.037l24.9 17.758 4.812-9.618c-51.208-43.904-114.287-44.185-166.238-4.386l-16.384 12.553 4.566 8.806 29.21 25.319-24.235 6.289-17.605 1.997 5.283-10.309-16.837-10.718c-24.61-15.675-59.477-28.672-86.11-28.655l-3.54-4.215H542.37l-3.541 4.241-11.486.068-33.041-.239c-2.279-1.169-10.42-5.401-9.617-5.111 26.726-27.332 52.65-5.905 54.98-19.482 1.826.043 5.504-.69 7.313-.375 10.53 1.809 33.11-.504 40.772-7.953 2.842-2.765 6.076-12.467 2.398-15.403-56.567-45.064-96.077-40.823-157.286-9.233l-7.748 9.702 11.033 12.05 15.719 17.271 9.72 10.266 8.413 16.76.196 4.06c-.35 4.814.649 10.292 3.883 12.084 11.17 6.195 33.75-16.333 81.732-15.061 29.85.785 82.398 19.541 98.466 39.722-43.451 7.954-56.627 11.051-103.253 8.594-.444-.24 7.108-4.43 9.6-4.532l51.294-2.116c-19.175-14.754-64.401-20.548-88.883-14.43l-40.03 10.001-1.289 10.949-32.742-.274c8.576-12.578-.162-28.083-7.655-44.51-13.542-29.704-21.964-43.289-43.025-64.204-30.84-30.635-41.557-32.802-76.527-42.82-48.076-13.782-93.61-17.818-140.399 3.916l-3.788.171-8.798 3.917c-30.908 10.607-78.626 39.424-86.05 72.883l-18.475-9.156c-3.03-1.502-7.731-5.01-10.095-6.451 12.664 3.174 10.675-17.485 42.581-43.683 50.065-41.096 118.298-63.291 178.987-58.205 10.513.878 23.962 4.087 34.133 7.125l48.982 14.626 23.859-18.227c4.804-3.67 10.965-7.885 17.11-11.998l12.065-8.064 34.074-14.029 33.946-12.774c1.237 2.705-1.528-3.345-2.85-6.221 41.25 1.195 30.574 5.052 68.915 1.903 10.615-.87 103.774-7.381 100.266 2.184zM456.03 280.311c58.547-15.906 120.542-6.587 166.016 32.94l20.079 17.45 11.35-11.81c-27.53-27.384-41.114-36.813-77.74-48.58l-25.89-8.32c-21.734-6.281-45.457-2.834-67.464 3.746l-28.058 8.38-41.574 21.068c-9.814 4.975-18.39 11.682-30.353 19.618l6.698 7.21 26.087-21.58 40.857-20.104zm155.392 72.696 10.078-11.025c-34.518-40.576-100.753-51.482-150.102-38.997-13.593 4.514-25.924 9.668-36.207 18.107 71.655-20.386 119.817-20.83 176.24 31.906zm16.665 36.045 20.933-29.534-9.242 2.184c-8.311 8.013-21.564 21.223-27.469 28.476-1.578 1.937 9.225 8.277 10.65 6.238l5.128-7.356z"/><path fill="#fbe293" d="m399.437 465.46.025 4.539-37.094-4.66-53.154-4.77c-2.304-.204-7.842-2.38-8.32-3.037l18.253-2.014c-17.758-43.358-92.4-51.78-120.977-19.115l-20.881-3.626c-2.85-.495-9.95-4.003-11.18-4.882 6.76-1.117 18.552-18.73 49.443-29.738 40.004-14.26 82.065-4.036 111.113 25.446 20.94 21.257 24.2 39.689 29.49 38l12.033-3.85c-17.34-38.621-49.468-65.698-89.02-75.588-41.941-10.487-84.156 4.224-117.888 30.754-3.524 2.774-2.714 12.954.06 15.762l-29.056-7.928c-7.313-1.997-13.466-4.3-16.154-9.224l7.979 2.184c2.253.87 10.342-1.4 13.013-4.506 36.318-42.103 90.266-62.865 144.615-51.882 52.172 10.547 88.03 44.518 109.115 92.032 3.004 6.767 5.726 12.177 8.576 16.077z"/><path fill="#cb770d" d="M477.056 231.919c1.314 2.876 4.079 8.926 2.85 6.22l-33.945 12.775-34.074 14.029c-45.372-9.395-62.66-19.26-113.74 4.582l-17.554 8.192-4.855 3.755c-60.69-5.077-128.922 17.118-178.987 58.206-31.915 26.189-29.926 46.848-42.581 43.682L34.1 371.123c-8.875-36.224 76.518-77.303 105.403-87.287 55.612-19.217 106.428-31.574 165.444-39.578l24.61-3.336 33.007-4.113 36.941-4.028c26.641-2.91 52.702-1.579 77.56-.854z"/><path fill="#d48117" d="m646.238 236.006 36.514 4.916 28.382 4.087 25.378 3.917 23.86 4.232 20.368 4.241 40.56 9.208c45.004 10.214 138.265 44.203 152.61 91.469l.085 4.966-15.471 11.768c-23.194 1.365-7.535-11.683-48.726-45.492-56.891-46.703-139.793-60.125-206.19-32.12l-7.97-.127c-.735-28.664-41.276-52.036-66.262-41.028l-20.702.862c-11.682-6.75-26.095-8.491-41.617-20.455l79.19-.444z"/><path fill="#fbe49e" d="M958.515 374.801c-2.432 1.852-7.321 5.282-10.47 7.416l-22.426 9.088c4.907-13.85-27.23-41.234-40.311-50.1-56.337-38.16-120.662-41.105-181.811-19.447-4.224.392-13.39-8.243-10.445-11.802l10.555-12.766c66.398-28.006 149.3-14.583 206.191 32.12 41.182 33.809 25.524 46.856 48.726 45.491z"/><path fill="#fce79b" d="M925.628 391.313c-2.45 1.656-6.946 4.326-10.88 6.298l-22.4 11.221-.478-4.958c-.87-31.71-73.89-63.59-110.276-62.379l-36.625 1.212c-21.291-9.497-70.102 34.381-57.566-4.386.76-.46 2.227-.188 3.379-.299 5.692-.546 13.167-3.89 16.862-7.773 57.455-26.232 139.35-16.137 184.269 33.28L917 391.125l8.627.197z"/><path fill="#fade89" d="M324.164 328.977c17.485 15.113 47.608 22.767 66.338 45.875 25.558 31.53 40.91 57.882 49.4 94.046l-40.448 1.1-.026-4.539 14.234-2.884c-32.504-88.977-100.514-123.614-186.727-120.013h-12.322l3.422-4.847 48.905 1.784c.085 0 33.664 5.802 37.726 7.006l23.185 6.843c1.365-4.181-4.685-18.739-10.385-20.625l-21.027-6.963-3.95-4.01 31.675 7.236z"/><path fill="#d78a1f" d="m166.11 427.904-4.77.785c-2.774-2.807-3.584-12.988-.06-15.761 33.732-26.53 75.947-41.242 117.888-30.754 39.543 9.89 71.68 36.966 89.02 75.588l-12.032 3.849c-5.29 1.69-8.55-16.734-29.491-38-29.048-29.482-71.109-39.705-111.113-25.446-30.89 11.008-42.684 28.621-49.442 29.739"/><path fill="#eea52e" d="m448.973 469.623-9.071-.725c-8.5-36.156-23.842-62.507-49.4-94.046-18.73-23.108-48.853-30.762-66.338-45.875l-2.398-10.888c34.97 10.018 45.688 12.194 76.527 42.82 21.06 20.915 29.474 34.492 43.025 64.205 7.493 16.426 16.222 31.931 7.655 44.51"/><path fill="#e3a437" d="m538.846 412.297 29.457-.026c26.632-.017 61.5 12.98 86.11 28.655l16.836 10.718-5.282 10.308c-2.91.333-8.815-1.067-11.7-.538-16.068-20.18-68.616-38.937-98.465-39.722-47.983-1.263-70.563 21.265-81.733 15.061l-3.882-12.083-.197-4.062 45.04-3.925c3.6-.316 10.649-2.944 12.33-4.327l11.486-.068z"/><path fill="#f8d27e" d="m186.095 330.453-11.802 9.48-14.634 11.308c7.774 3.575 14.336 2.141 19.481-1.408l14.78-4.028c6.391-1.741 15.164-3.243 20.702-3.243h12.322c-3.994 4.395-16.657 4.327-40.533 13.304-29.423 11.059-56.44 29.85-70.28 55.68l-18.194-5-10.897-6.802c11.255 2.603 14.694-11.281 19.883-16.674 17.578-18.27 37.538-33.229 58.265-44.288l4.71-3.635 3.713-.137 5.316-3.925 2.338-.93 4.821.298z"/><path fill="#e6a939" d="m551.023 470.007-69.308-.119 1.289-10.948 40.03-10.001c24.473-6.119 69.708-.325 88.883 14.43l-51.294 2.116c-2.5.102-10.044 4.3-9.6 4.531z"/><path fill="#da8c25" d="M300.894 457.54c-17.306-17.271-39.185-35.26-67.627-22.477l-14.353 6.452-20.744-5.103c28.578-32.666 103.219-24.252 120.977 19.114z"/><path fill="#f0bf6e" d="m702.54 417.271.214 11.358c.137 7.202 20.088-7.065 42.138-11.861l-4.327 3.345c-13.508 5.956-24.021 12.595-33.749 25.242 8.482 4.795 16.53 3.191 22.528-2.347 32.973-30.455 64.145-3.814 89.523-14.916l-8.73-7.655 12.331 4.788c1.23.477-3.097 7.987-2.696 6.766l-21.462 5.76c-30.899 8.295-60.637 14.123-90.487 15.915l-29.21-25.318c3.183-.53 9.771-2.45 12.519-4.122l11.426-6.955z"/><path fill="#ce851b" d="m181.274 330.155-2.339.93-5.316 3.925-3.712.137-4.71 3.635c-20.728 11.06-40.679 26.01-58.266 44.288-5.188 5.393-8.627 19.285-19.882 16.674-1.494-.205-3.38-.299-4.31-.768 7.424-33.468 55.143-62.276 86.05-72.883 2.51-.862 6.844-2.842 8.798-3.917l3.789-.17 8.5 1.313z"/><path fill="#f4ce7a" d="M300.894 457.54c-4.66-.162-12.135-.648-17.758-1.68l-52.215-9.643c-3.32-.615-10.53-3.738-11.998-4.702l14.353-6.452c28.441-12.782 50.32 5.206 67.626 22.477z"/><path fill="#f6cb64" d="M587.759 379.196c-7.663 7.45-30.242 9.77-40.772 7.953l2.278-5.59c-24.593-17.553-64.392-20.01-89.011-8.26l32.273 3.866c5.342.64 16.973 9.617 22.4 9.745l24.747.606c-2.33 13.576-28.246-7.85-54.98 19.481-.803-.298 7.338 3.943 9.616 5.112l33.041.239c-1.68 1.382-8.73 4.01-12.33 4.326l-45.04 3.925-8.413-16.759 21.376-2.432 8.363-6.178-32.401-3.704 2.67 12.314-9.719-10.266-15.718-17.271-11.034-12.05 7.748-9.702c-1.57-.375 3.968 8.252 6.178 6.972 46.362-26.965 97.127-22.485 142.285 12.655l6.434 5.01z"/><path fill="#a19b41" d="m456.03 280.311-40.858 20.105-26.086 21.58-6.699-7.21c11.972-7.944 20.54-14.652 30.353-19.618l41.575-21.069 28.057-8.38c22.008-6.579 45.73-10.026 67.465-3.746l25.89 8.32c36.625 11.768 50.21 21.197 77.739 48.58l-11.35 11.81-20.079-17.45c-45.474-39.518-107.468-48.836-166.016-32.939z"/><path fill="#e29e36" d="m891.861 403.874-7.415 1.98c-24.474-24.056-41.882-38.05-73.08-47.616-57.489-17.621-120.908 6.852-157.465 54.059l-14.003-8.039 28.45-23.475c17.135-14.14 39.697-24.909 60.962-32.495l15.659-5.59 36.625-1.211c36.386-1.203 109.405 30.677 110.276 62.379z"/><path fill="#caa14b" d="m925.628 391.313-8.627-.196-25.088-27.597c-44.92-49.417-126.806-59.511-184.27-33.28-2.986.35-7.585 1.579-13.618 3.132l-3.243 4.642c-1.152.11-2.62-.162-3.38.299l-7.603 4.642-23.398 14.284-2.637-4.394c-.717-1.203 2.483-6.57 3.73-7.21l16.119-8.159c11.187-5.666 21.316-10.18 29.884-15.718 61.15-21.658 125.482-18.714 181.81 19.447 13.09 8.866 45.227 36.25 40.312 50.1z"/><path fill="#d1a739" d="M611.422 353.007c-56.423-52.745-104.585-52.3-176.24-31.906 10.284-8.44 22.614-13.594 36.208-18.108 49.348-12.484 115.592-1.579 150.101 38.997l-10.078 11.025z"/><path fill="#dc9b35" d="m702.54 417.271-11.425 6.955c-2.748 1.673-9.336 3.584-12.519 4.122l-4.565-8.807 16.384-12.552c51.95-39.8 115.03-39.518 166.238 4.386l-4.813 9.617-24.9-17.758c-34.483-24.584-95.821-16.555-124.4 14.037"/><path fill="#cd9e34" d="m587.759 379.196-6.434-5.01c-45.159-35.148-95.923-39.628-142.285-12.654-2.202 1.28-7.74-7.347-6.178-6.972 61.218-31.582 100.727-35.831 157.286 9.233 3.678 2.936.453 12.638-2.398 15.403z"/><path fill="#e8ae4c" d="m411.878 264.943-12.066 8.064c-6.152 4.104-12.313 8.328-17.11 11.998 4.848-19.695-69.486-16.359-72.84 3.6-10.163-3.037-23.62-6.246-34.133-7.124l4.856-3.755 17.553-8.192c51.08-23.842 68.377-13.978 113.74-4.583z"/><path fill="#a89352" d="m382.703 284.996-23.86 18.227-48.98-14.626c3.362-19.96 77.687-23.296 72.84-3.6"/><path fill="#d09e43" d="m321.775 318.089 2.398 10.888-31.676-7.236c-31.377-7.168-77.466-6.076-106.402 8.712l-4.821-.298 8.601-6.836-8.499-1.314c46.788-21.726 92.322-17.69 140.399-3.916"/><path fill="#e9ae20" d="M695.637 297.062c-3.148 2.68-9.48 6.537-13.534 7.62-16.221-24.678-26.504-35.344-52.736-48.648 24.986-11.008 65.536 12.356 66.262 41.028z"/><path fill="#dd9025" d="M546.987 387.149c-1.8-.307-5.479.418-7.313.375l-24.747-.606c-5.427-.136-17.067-9.113-22.4-9.745l-32.273-3.865c24.619-11.76 64.418-9.293 89.011 8.26l-2.278 5.59z"/><path fill="#aa993b" d="M629.376 256.043c26.223 13.303 36.506 23.97 52.736 48.648l-10.103 2.714c-18.654-19.32-42.488-38.46-63.335-50.5z"/><path fill="#caa14b" d="m628.087 389.052-5.128 7.355c-1.425 2.04-12.228-4.3-10.65-6.237 5.905-7.254 19.158-20.463 27.47-28.476l9.24-2.185-20.932 29.534z"/><path fill="#f6cb64" d="m568.303 412.27-29.457.027 3.541-4.233 22.383-.009zm-94.234 24.492c-3.234-1.792-4.232-7.27-3.882-12.084z"/><path fill="#d09e43" d="M177.587 322.176c-1.954 1.075-6.289 3.055-8.798 3.917z"/><path fill="#dd9426" d="M399.437 465.46c-2.859-3.91-5.581-9.32-8.576-16.078-21.086-47.522-56.943-81.493-109.116-92.032-54.349-10.982-108.296 9.78-144.614 51.883-2.68 3.106-10.76 5.376-13.014 4.506l-7.978-2.185c13.84-25.83 40.857-44.62 70.28-55.68 23.876-8.977 36.54-8.909 40.534-13.303 86.22-3.601 154.222 31.035 186.726 120.012l-14.234 2.885z"/><path fill="#fade89" d="M707.635 330.24c-3.695 3.883-11.178 7.228-16.862 7.774l3.243-4.642c6.033-1.553 10.641-2.782 13.62-3.132"/><path fill="#fce6a5" d="m292.497 321.74 3.951 4.011 21.026 6.964c5.7 1.886 11.75 16.443 10.385 20.625l-23.185-6.844c-4.053-1.195-37.64-6.997-37.726-7.006l-48.904-1.783-3.422 4.847c-5.538 0-14.31 1.501-20.702 3.242l-14.78 4.028c-5.145 3.55-11.707 4.983-19.481 1.408l14.634-11.307 11.802-9.48c28.936-14.788 75.025-15.88 106.402-8.713z"/><path fill="#db8d23" d="m810.13 420.437 8.729 7.655c-25.378 11.102-56.55-15.548-89.524 14.916-5.998 5.538-14.045 7.142-22.528 2.347 9.728-12.647 20.242-19.277 33.75-25.242l4.326-3.345 14.208-3.09c13.782-2.994 39.322 2.211 51.038 6.76"/><path fill="#d09e43" d="m173.62 335.01 5.315-3.925zm-8.423 3.772 4.71-3.635z"/><path fill="#df9935" d="m461.577 403.849-2.663-12.323 32.401 3.712-8.362 6.179z"/></svg>