<svg xmlns="http://www.w3.org/2000/svg" viewBox="0 0 1024 1024"><path fill="#f0d05f" d="M512 99.556a856 856 0 0 1 101.76 99.498 660 660 0 0 1 59.52-14.165l-28.786 52.11a750.4 750.4 0 0 1 110.92 206.18c28.16-5.504 58.225-6.97 82.63-2.29-4.224 31.758-22.641 65.394-55.224 100.935 15.288 72.932 21.262 150.827 17.92 233.671l-.555 12.33a85.33 85.33 0 0 1-51.74 74.099A597.4 597.4 0 0 1 512 910.222a597.1 597.1 0 0 1-228.779-45.084l-9.13-3.84a85.33 85.33 0 0 1-51.47-72.349 868.6 868.6 0 0 1 5.176-177.521l-.241.128c-54.514-49.778-84.153-92.445-88.89-128 38.728-5.163 83.087-6.585 116.737-.157 6.4-21.475 13.724-42.752 21.93-63.843A827 827 0 0 1 320 326.812L280.889 256c26.524 5.134 50.09 10.994 70.713 17.579A697.4 697.4 0 0 1 512 99.556"/><path fill="#f7e39e" d="M482.517 99.556C575.46 181.803 642.432 279.11 683.45 391.48c34.944 95.73 50.432 202.51 46.464 320.313l-.47 11.818a85.33 85.33 0 0 1-51.057 74.383C615.68 825.387 550.4 839.11 482.532 839.11c-65.408 0-128.413-12.729-189.028-38.172l-8.249-3.556a85.33 85.33 0 0 1-50.773-72.675 858 858 0 0 1-.185-105.885c-49.764-46.805-76.885-87.154-81.408-121.045 32.1-4.267 68.053-5.974 98.574-2.788a800 800 0 0 1 30.109-103.51c44.145-120.945 111.104-218.253 200.945-291.924"/><path fill="#95d13c" d="M512 213.333a71.11 71.11 0 0 0 71.111-71.11c0-9.487-23.708-18.959-71.111-28.445-47.403 9.486-71.111 18.958-71.111 28.444A71.11 71.11 0 0 0 512 213.333"/><path fill="#191919" d="m494.649 77.013-8.52 6.656A723.7 723.7 0 0 0 346.78 230.172l-7.182 10.198-2.062-.57c-15.787-4.266-32.853-8.163-51.243-11.718l-2.076-.342c-22.656-2.773-39.552 21.519-28.231 42.013L287.7 327.14l-4.693 9.272a869 869 0 0 0-32.185 72.832l-4.978 13.142a871 871 0 0 0-9.315 26.368l-1.067 3.27-.853-.07c-30.01-2.589-64.925-1.223-99.698 3.413a28.444 28.444 0 0 0-24.434 31.943l.598 3.982c6.584 38.685 34.133 80.356 81.848 126.72l4.808 4.623-1.18 10.752a903.4 903.4 0 0 0-2.305 157.582 113.78 113.78 0 0 0 68.622 96.47l9.316 3.925A625.9 625.9 0 0 0 512 938.667a625.8 625.8 0 0 0 247.58-50.56 113.78 113.78 0 0 0 69.007-98.816l.569-12.487.483-14.166c1.963-70.613-2.73-137.714-14.094-201.386l-2.105-11.208 3.186-3.768c28.387-34.376 45.141-68.153 49.607-101.632a28.444 28.444 0 0 0-22.855-31.688l-5.547-.967c-18.702-2.915-39.865-3.057-61.625-.71l-2.162.255-.867-2.275-4.494-11.293a777.6 777.6 0 0 0-87.126-158.55l-3.37-4.65 19.982-36.124c11.662-21.12-6.628-46.265-30.308-41.671l-9.614 1.905a735 735 0 0 0-27.35 6.144l-7.565 1.906-5.49-6.073a896 896 0 0 0-87.666-83.171 28.444 28.444 0 0 0-35.527-.669m16.725 59.42 3.84 3.343a815 815 0 0 1 77 77.852l1.635 1.736a28.44 28.44 0 0 0 23.282 7.936l.654-.128-.142.426a28.44 28.44 0 0 0 4.181 26.596 722 722 0 0 1 106.738 198.4 28.444 28.444 0 0 0 32.284 18.503l5.632-1.024c11.222-1.949 22.33-3.086 32.825-3.428l1.65-.042-1.493 3.185c-8.036 16.498-20.509 34.134-37.618 52.808a28.44 28.44 0 0 0-6.884 25.06c14.791 70.57 20.594 146.132 17.351 226.701l-.554 12.175a56.83 56.83 0 0 1-34.475 49.237A568.9 568.9 0 0 1 512 881.778a568.7 568.7 0 0 1-217.984-42.951l-8.889-3.74a56.82 56.82 0 0 1-34.133-48.157A840 840 0 0 1 256 615.196l.2-2.062a28.08 28.08 0 0 0-11.478-24.576l-.54-.37-2.049-1.891c-31.857-29.653-53.475-55.85-65.209-77.924l.427-.014c27.449-1.664 53.12-.768 72.733 2.987a28.444 28.444 0 0 0 32.568-19.798 812 812 0 0 1 21.206-61.681 799 799 0 0 1 41.202-89.558l1.052-2.161a28.44 28.44 0 0 0-1.195-25.088l-7.85-14.208 5.902 1.82a28.444 28.444 0 0 0 32.498-11.605 669.4 669.4 0 0 1 128.497-146.432l7.424-6.201z"/><path fill="#191919" d="m229.148 473.856 16.228 6.4c160.014 64.228 254.82 133.732 342.656 273.052a14.222 14.222 0 1 1-24.064 15.161c-87.04-138.055-180.395-204.046-345.116-268.103a14.222 14.222 0 0 1 10.296-26.51m559.218-27.449a14.22 14.22 0 0 1-8.106 18.404c-121.088 47.09-174.18 82.261-230.827 172.103a14.222 14.222 0 1 1-24.064-15.161c58.382-92.615 114.133-131.499 231.083-178.133l13.51-5.32a14.22 14.22 0 0 1 18.404 8.107M667.477 193.963a14.22 14.22 0 0 1-8.106 18.403c-72.775 28.302-130.973 71.282-183.623 137.8a14.3 14.3 0 0 1-2.063 2.104c32.74 26.368 63.161 57.43 92.132 94.01a14.222 14.222 0 1 1-22.3 17.663C480.013 383.73 409.77 331.847 321.962 297.7a14.222 14.222 0 0 1 10.297-26.51c43.434 16.895 82.872 37.958 119.395 64.27l.768-1.494 1.024-1.465c55.794-70.47 118.116-116.508 195.627-146.645a14.22 14.22 0 0 1 18.403 8.107"/></svg>