<svg xmlns="http://www.w3.org/2000/svg" viewBox="0 0 1024 1024"><path fill="#c81366" d="M512 874.667c227.783 0 398.222-134.884 398.222-362.667 0-117.988-48.938-198.3-117.333-256-63.63-53.689-142.649-88.889-252.445-88.889-59.064 0-102.087 10.325-152.888 28.445-52.14 18.588-88.89-14.223-156.445 21.333-30.023 15.8-.483 47.687-21.333 85.333-11.634 21.006-35.556 10.667-49.778 46.222s1.45 59.762-7.111 81.778c-13.525 34.802-42.667 42.667-42.667 92.445 0 227.783 173.995 352 401.778 352"/><path fill="#e0308b" d="M384 803.556c227.783 0 398.222-134.884 398.222-362.667 0-117.988-45.383-176.967-113.778-234.667-63.63-53.689-124.444-32-224 0-56.192 18.062-137.642 13.881-188.444 32-24.889 67.556-62.55 155.762-71.111 177.778-13.525 34.802-49.778 42.667-49.778 92.444 0 179.385 71.111 231.112 112.114 278.472 42.382 11.036 88.377 16.64 136.775 16.64"/><path fill="#fff" d="M291.214 354.972a14.22 14.22 0 0 1 20.025 1.892c4.992 6.059 3.342 12.743-1.906 20.025-12.615 17.493-24.889 41.116-24.889 49.778a14.222 14.222 0 0 1-28.444 0c0-11.463 14.55-54.614 35.214-71.695m59.876-52.067a14.222 14.222 0 0 1 10.482 26.382l-1.536.612c-3.556 1.166-7.097 2.986-10.624 5.404a14.222 14.222 0 1 1-16.157-23.41c5.689-3.925 11.662-6.954 17.82-8.988z"/><path fill="#fa66b2" d="M426.667 469.333c0 105.287-82.46 171.762-112.583 183.41 4.152 29.042 10.78 57.117 20.309 83.485 47.047-21.561 77.795-48.91 92.274-82.006 0 44.601-50.49 87.14-82.987 105.046 10.638 23.765 23.964 45.852 40.32 65.62-35.228-1.763-61.07-13.226-77.511-34.36-9.643-32.711-15.957-64.327-18.901-94.834-20.694-8.106-74.255-51.954-74.255-98.36 11.207 29.894 35.414 54.4 72.576 73.528q-2.837-77.226 24.107-144.64a655 655 0 0 0 .654 96.299c59.534-37.49 98.219-88.562 115.997-153.188"/><path fill="#e0308b" d="M713.984 526.222c7.04 111.005.1 222.01-63.317 298.667 33.18-9.486 54.513-21.333 64-35.556a409 409 0 0 0 19.555-92.87c18.745-5.547 76.445-50.959 76.445-99.13-11.45 30.535-36.452 55.467-75.008 74.752 1.38-47.9-5.846-96.526-21.675-145.863"/><path fill="#ae1159" d="m632.263 203.292 8.363 27.193c-22.756 6.998-30.82 20.281-26.397 44.573l.57 2.844c5.83 27.264-3.329 41.13-26.966 55.751l-8.477 5.12c-10.808 6.827-12.885 10.368-11.192 19.015l.355 1.679c8.79 38.073-15.147 61.482-63.929 69.12l-.725 2.503c-4.836 17.152-5.191 22.585-3.129 24.633 1.138 1.166 2.418 2.318 4.025 3.669l9.045 7.282c22.429 18.062 33.536 38.67 31.844 72.021 9.998-9.571 21.333-15.986 34.005-19.157 15.815-3.954 19.911-8.86 24.633-28.16l3.356-14.08c4.082-16.782 6.472-23.538 12.516-35.655 13.028-26.027 26.68-31.744 53.077-29.725l2.987.256c14.108 1.323 20.92.797 29.184-3.698l1.948-1.109c20.537-12.33 35.912-8.263 58.226 7.566l9.913 7.168c1.636 1.138 2.745 1.863 3.982 2.589l.754.455c5.646 3.243 7.837 3.356 11.236.81 3.612-2.702 6.997-5.816 10.666-9.67l5.12-5.675 2.447-2.745c2.432-2.745 4.693-5.277 5.603-6.244 18.247-19.399 36.95-23.395 65.721-9.002l-12.715 25.429c-16.27-8.12-21.802-7.538-30.762 1.48l-3.001 3.213c-3.058 3.414-9.358 10.553-11.79 13.127-4.68 4.936-9.216 9.088-14.223 12.843-13.653 10.24-27.847 9.515-42.496 1.081l-4.096-2.503a107 107 0 0 1-3.399-2.318l-6.954-5.063c-14.607-10.71-20.594-12.928-28.232-8.932l-1.38.768c-14.676 8.818-26.196 10.496-44.628 9.074l-8.306-.711c-13.938-.996-16.81 1.024-23.438 14.25l-1.906 3.954c-3.243 6.898-5.092 12.388-7.737 22.955l-3.314 13.852c-7.196 30.862-17.209 44.8-46.08 52.01-21.831 5.462-39.723 28.63-52.622 71.496 2.603 3.612 7.168 7.182 14.194 11.733l9.514 6.016c27.051 17.138 39.68 32.583 39.68 60.516 0 68.295-42.496 144.54-96.569 156.131l-5.973-27.818c38.6-8.263 74.098-71.965 74.098-128.313 0-14.89-6.116-23.14-23.467-34.56l-10.04-6.357c-28.218-17.82-38.87-33.792-29.867-62.863 19.342-62.293 14.976-83.683-7.851-102.883l-6.912-5.547a115 115 0 0 1-10.14-8.846c-12.601-12.601-12.502-22.784-4.38-51.57l3.654-12.743c1.21-4.31 2.02-7.566 2.702-10.866 3.4-16.554 1.38-26.382-8.035-34.09-16.484-13.483-25.074-23.538-29.725-34.944a67.3 67.3 0 0 1-3.868-13.98l-1.806-10.212a131 131 0 0 0-7.979-28.544c-8.96-23.31-31.502-31.432-72.818-23.154l-5.589-27.904c53.49-10.695 90.212 2.531 104.96 40.846l2.418 6.542c3.64 10.17 5.248 17.152 7.58 30.436l.726 4.167c.952 5.56 1.635 8.391 2.73 11.093 2.532 6.201 8.25 12.9 21.376 23.638 17.024 13.937 22.158 31.73 19.243 53.86 23.822-5.462 32.128-15.503 29.383-30.72l-.37-1.821c-5.888-25.515 2.816-38.443 25.671-52.566l4.025-2.417c15.574-9.245 18.987-13.312 16.854-25.088l-1.096-5.547c-6.926-38.357 9.145-65.607 45.995-76.942z"/><path fill="#191919" d="M540.444 167.111c109.796 0 188.815 35.2 252.445 88.889 68.395 57.7 117.333 138.012 117.333 256 0 227.783-170.439 362.667-398.222 362.667s-401.778-124.217-401.778-352c0-49.778 29.142-57.643 42.667-92.445 8.562-22.016-7.111-46.222 7.111-81.778s38.144-25.216 49.778-46.222c20.85-37.646-8.69-69.532 21.333-85.333 67.556-35.556 104.306-2.745 156.445-21.333 50.801-18.12 93.824-28.445 152.888-28.445m0 56.889c-47.445 0-83.029 7.04-133.774 25.145-21.59 7.68-41.344 10.07-64.754 9.358l-7.509-.313-11.079-.74-2.204-.156c-20.95-1.536-32.996-1.45-44.829 1.991l-1.75.555.043.668c1.11 24.847-1.564 43.279-12.828 65.138l-2.219 4.139a85.5 85.5 0 0 1-24.647 27.96c-5.674 4.125-10.354 6.785-16.74 9.828l-5.574 2.589-.285.782c-1.593 4.466-1.963 8.348-1.422 16.64l.47 5.916.511 6.002c.57 7.069.726 10.823.626 16.54a99 99 0 0 1-6.57 34.802c-5.874 15.104-12.374 25.785-22.813 39.58l-9.003 11.663c-6.286 8.42-6.983 11.25-6.983 20.58 0 183.893 134.485 295.11 344.889 295.11 206.08 0 341.333-118.342 341.333-305.777 0-91.364-33.265-158.635-97.137-212.523C696.746 249.316 629.163 224 540.444 224"/></svg>