<svg xmlns="http://www.w3.org/2000/svg" viewBox="0 0 1024 1024"><path fill="#b48598" d="M523.713 24.934c26.76-1.143 12.075 3.772 3.627 14.968-51.413 68.096 8.9 181.282 56.73 238.532 60.45 72.354 203.972 172.988 295.1 185.14-31.54-2.715-18.185.11-22.827 18.533-5.393 21.376-26.462 79.744-52.805 79.787-4.497-2.526-36.608-14.43-41.6-15.12-15.752-2.185-32.972.904-48.844.315-10.855 22.494-3.064 40.166 11.23 59.98 4.565 6.332 28.987 34.049 33.834 38.008-15.983 21.325-36.992 42.752-56.593 60.843-10.487 9.676-26.692 20.25-38.059 29.576-20.386 16.734-39.91 47.488-71.722 45.713-17.476-8.328-83.43-28.04-102.255-30.046-79.053-8.43-69.521 38.204-56.568 98.117-13.14 9.873-26.683 7.116-41.574 7.594-101.367 3.277-179.055-.11-270.745-46.942-16.23-8.294-72.081-42.948-81.408-54.698-3.866-4.873-11.213-19.84-14.67-26.957-.247-.504-4.658-.87-6.288-5.129-2.91-7.611-6.887-27.093-8.687-36.625-64.384-339.89 205.295-595.515 514.124-661.589m-146.27 129.767c-9.139 2.065-49.467 19.814-57.744 25.438-20.643 14.037-55.365 57.813-53.47 82.841 29.653 91.29 144.529 37.376 180.804-23.569 30.182-50.696-14.968-97.032-69.598-84.71zM274.14 471.125c3.157-33.067-19.345-68.207-41.36-90.974-13.765-14.233-79.404-60.441-94.755-45.141-2.773 34.33 26.24 73.992 48.981 98.475 22.895 24.644 52.096 42.094 87.134 37.64M130.463 622.404c-7.953 32.478 34.654 80.7 64.256 83.345 9.643.862 24.15-2.27 26.514-11.571 5.785-22.759-63.232-79.164-90.77-71.774"/><path fill="#9c637b" d="M1015.301 463.573c-42.248 301.636-232.004 535.51-547.959 559.957-28.151 2.176-45.2-6.741-68.079-8.2-76.484-4.89-130.056 1.664-204.168 8.192-59.23 5.222-131.66-32.828-153.71-88.96-25.388-64.623-14.593-138.249-16.812-206.294 3.448 7.109 10.804 22.085 14.67 26.957 9.326 11.75 65.168 46.404 81.407 54.699 91.682 46.83 169.378 50.227 270.746 46.942 14.899-.478 28.433 2.27 41.574-7.595l9.472 13.525c8.235 5.044 24.909 16.93 32.247 23.953 27 25.856 51.593 63.847 90.735 68.284 33.86 3.832 53.291-10.88 58.155-44.16l12.45-1.843c10.957-46.063-12.126-75.938-28.663-115.541-1.417-2.134-13.824-11.444-15.574-12.28 31.813 1.775 51.337-28.979 71.723-45.713 11.366-9.327 27.571-19.9 38.059-29.576 19.6-18.091 40.61-39.51 56.593-60.843 1.638 1.34 29.61 18.594 35.055 21.666 38.903 21.922 90.171 26.59 77.175-31.83-4.002-18.005-50.048-63.598-66.859-73.027 26.334-.043 47.412-58.403 52.805-79.787 4.642-18.415-8.713-21.248 22.826-18.534 31.778 4.24 86.963.64 113.306-19.038 11.196-8.363 15.283-26.351 19.038-26.36l3.78 45.398z"/><path fill="#d8b4cb" d="m1015.301 463.573-3.78-45.397c-3.763.008-7.85 17.997-19.038 26.36-26.342 19.677-81.536 23.278-113.305 19.037-91.128-12.151-234.641-112.785-295.1-185.139-47.83-57.25-108.151-170.436-56.73-238.532 8.449-11.196 23.134-16.111-3.626-14.968.657-.136 1.34-5.82 10.99-7.603C625.389.546 696.353 21.07 775.908 63.915c135.074 72.738 245.726 198.476 246.93 358.05.093 12.288 5.435 35.404-7.544 41.617zm-365.849-346.94c-25.259 7.382-30.157 38.895-25.958 61.91 10.666 58.479 64.4 113.246 114.295 142.805 41.882 24.815 86.332 46.012 136.354 35.098 66.057-14.413 18.5-107.077-6.51-142.25-38.324-53.914-151.655-117.018-218.181-97.562"/><path fill="#885a3d" d="M591.784 781.21c1.75.835 14.165 10.145 15.573 12.279 16.546 39.603 39.629 69.487 28.664 115.54l-12.45 1.844c-4.873 33.28-24.295 47.992-58.155 44.16-39.143-4.429-63.736-42.42-90.735-68.284-7.339-7.023-24.004-18.91-32.248-23.953l-9.472-13.525c-12.953-59.904-22.485-106.547 56.568-98.116 18.824 2.005 84.779 21.717 102.255 30.046z"/><path fill="#d5a6b7" d="M377.444 154.7c54.63-12.321 99.771 34.015 69.597 84.711-36.275 60.945-151.15 114.859-180.804 23.57-1.894-25.03 32.82-68.805 53.47-82.842 8.277-5.632 48.606-23.382 57.745-25.438z"/><path fill="#8d5c3f" d="M803.538 561.886c16.811 9.42 62.857 55.014 66.859 73.028 12.996 58.41-38.272 53.751-77.175 31.83-5.453-3.073-33.417-20.327-35.055-21.667-4.847-3.96-29.27-31.684-33.835-38.007-14.293-19.815-22.084-37.487-11.23-59.981 15.872.589 33.092-2.509 48.845-.316 4.992.691 37.103 12.595 41.6 15.121z"/><path fill="#936040" d="M274.14 471.125c-35.039 4.454-64.24-12.996-87.135-37.64-22.741-24.483-51.754-64.145-48.981-98.475 15.351-15.3 80.99 30.908 94.754 45.141 22.016 22.767 44.518 57.907 41.361 90.974"/><path fill="#8e5c45" d="M130.463 622.404c27.538-7.39 96.547 49.015 90.77 71.774-2.364 9.301-16.87 12.433-26.514 11.571-29.602-2.645-72.209-50.867-64.256-83.345"/><path fill="#c493bb" d="M649.452 116.634c66.526-19.456 179.848 43.648 218.18 97.561 25.003 35.174 72.568 127.838 6.511 142.25-50.022 10.915-94.472-10.282-136.354-35.097-49.886-29.568-103.629-84.326-114.295-142.805-4.199-23.015.7-54.52 25.958-61.91"/></svg>